<?xml version="1.0" encoding="utf-8"?>
<svg xmlns="http://www.w3.org/2000/svg" xmlns:xlink="http://www.w3.org/1999/xlink" width="600" height="400" viewBox="0 0 2400 1600">
<defs>
  <clipPath id="clip600">
    <rect x="0" y="0" width="2400" height="1600"/>
  </clipPath>
</defs>
<path clip-path="url(#clip600)" d="
M0 1600 L2400 1600 L2400 0 L0 0  Z
  " fill="#ffffff" fill-rule="evenodd" fill-opacity="1"/>
<defs>
  <clipPath id="clip601">
    <rect x="480" y="0" width="1681" height="1600"/>
  </clipPath>
</defs>
<path clip-path="url(#clip600)" d="
M249.542 1423.18 L2352.76 1423.18 L2352.76 123.472 L249.542 123.472  Z
  " fill="#ffffff" fill-rule="evenodd" fill-opacity="1"/>
<defs>
  <clipPath id="clip602">
    <rect x="249" y="123" width="2104" height="1301"/>
  </clipPath>
</defs>
<polyline clip-path="url(#clip602)" style="stroke:#000000; stroke-linecap:round; stroke-linejoin:round; stroke-width:2; stroke-opacity:0.1; fill:none" points="
  340.68,1423.18 340.68,123.472 
  "/>
<polyline clip-path="url(#clip602)" style="stroke:#000000; stroke-linecap:round; stroke-linejoin:round; stroke-width:2; stroke-opacity:0.1; fill:none" points="
  737.809,1423.18 737.809,123.472 
  "/>
<polyline clip-path="url(#clip602)" style="stroke:#000000; stroke-linecap:round; stroke-linejoin:round; stroke-width:2; stroke-opacity:0.1; fill:none" points="
  1134.94,1423.18 1134.94,123.472 
  "/>
<polyline clip-path="url(#clip602)" style="stroke:#000000; stroke-linecap:round; stroke-linejoin:round; stroke-width:2; stroke-opacity:0.1; fill:none" points="
  1532.07,1423.18 1532.07,123.472 
  "/>
<polyline clip-path="url(#clip602)" style="stroke:#000000; stroke-linecap:round; stroke-linejoin:round; stroke-width:2; stroke-opacity:0.1; fill:none" points="
  1929.2,1423.18 1929.2,123.472 
  "/>
<polyline clip-path="url(#clip602)" style="stroke:#000000; stroke-linecap:round; stroke-linejoin:round; stroke-width:2; stroke-opacity:0.1; fill:none" points="
  2326.32,1423.18 2326.32,123.472 
  "/>
<polyline clip-path="url(#clip600)" style="stroke:#000000; stroke-linecap:round; stroke-linejoin:round; stroke-width:4; stroke-opacity:1; fill:none" points="
  249.542,1423.18 2352.76,1423.18 
  "/>
<polyline clip-path="url(#clip600)" style="stroke:#000000; stroke-linecap:round; stroke-linejoin:round; stroke-width:4; stroke-opacity:1; fill:none" points="
  340.68,1423.18 340.68,1404.28 
  "/>
<polyline clip-path="url(#clip600)" style="stroke:#000000; stroke-linecap:round; stroke-linejoin:round; stroke-width:4; stroke-opacity:1; fill:none" points="
  737.809,1423.18 737.809,1404.28 
  "/>
<polyline clip-path="url(#clip600)" style="stroke:#000000; stroke-linecap:round; stroke-linejoin:round; stroke-width:4; stroke-opacity:1; fill:none" points="
  1134.94,1423.18 1134.94,1404.28 
  "/>
<polyline clip-path="url(#clip600)" style="stroke:#000000; stroke-linecap:round; stroke-linejoin:round; stroke-width:4; stroke-opacity:1; fill:none" points="
  1532.07,1423.18 1532.07,1404.28 
  "/>
<polyline clip-path="url(#clip600)" style="stroke:#000000; stroke-linecap:round; stroke-linejoin:round; stroke-width:4; stroke-opacity:1; fill:none" points="
  1929.2,1423.18 1929.2,1404.28 
  "/>
<polyline clip-path="url(#clip600)" style="stroke:#000000; stroke-linecap:round; stroke-linejoin:round; stroke-width:4; stroke-opacity:1; fill:none" points="
  2326.32,1423.18 2326.32,1404.28 
  "/>
<path clip-path="url(#clip600)" d="M264.581 1468.75 L294.256 1468.75 L294.256 1472.69 L264.581 1472.69 L264.581 1468.75 Z" fill="#000000" fill-rule="evenodd" fill-opacity="1" /><path clip-path="url(#clip600)" d="M308.377 1481.64 L324.696 1481.64 L324.696 1485.58 L302.752 1485.58 L302.752 1481.64 Q305.414 1478.89 309.997 1474.26 Q314.604 1469.61 315.784 1468.27 Q318.029 1465.74 318.909 1464.01 Q319.812 1462.25 319.812 1460.56 Q319.812 1457.8 317.867 1456.07 Q315.946 1454.33 312.844 1454.33 Q310.645 1454.33 308.192 1455.09 Q305.761 1455.86 302.983 1457.41 L302.983 1452.69 Q305.807 1451.55 308.261 1450.97 Q310.715 1450.39 312.752 1450.39 Q318.122 1450.39 321.317 1453.08 Q324.511 1455.77 324.511 1460.26 Q324.511 1462.39 323.701 1464.31 Q322.914 1466.2 320.807 1468.8 Q320.229 1469.47 317.127 1472.69 Q314.025 1475.88 308.377 1481.64 Z" fill="#000000" fill-rule="evenodd" fill-opacity="1" /><path clip-path="url(#clip600)" d="M344.511 1454.1 Q340.9 1454.1 339.071 1457.66 Q337.266 1461.2 337.266 1468.33 Q337.266 1475.44 339.071 1479.01 Q340.9 1482.55 344.511 1482.55 Q348.145 1482.55 349.951 1479.01 Q351.779 1475.44 351.779 1468.33 Q351.779 1461.2 349.951 1457.66 Q348.145 1454.1 344.511 1454.1 M344.511 1450.39 Q350.321 1450.39 353.377 1455 Q356.455 1459.58 356.455 1468.33 Q356.455 1477.06 353.377 1481.67 Q350.321 1486.25 344.511 1486.25 Q338.701 1486.25 335.622 1481.67 Q332.566 1477.06 332.566 1468.33 Q332.566 1459.58 335.622 1455 Q338.701 1450.39 344.511 1450.39 Z" fill="#000000" fill-rule="evenodd" fill-opacity="1" /><path clip-path="url(#clip600)" d="M374.673 1454.1 Q371.062 1454.1 369.233 1457.66 Q367.427 1461.2 367.427 1468.33 Q367.427 1475.44 369.233 1479.01 Q371.062 1482.55 374.673 1482.55 Q378.307 1482.55 380.112 1479.01 Q381.941 1475.44 381.941 1468.33 Q381.941 1461.2 380.112 1457.66 Q378.307 1454.1 374.673 1454.1 M374.673 1450.39 Q380.483 1450.39 383.538 1455 Q386.617 1459.58 386.617 1468.33 Q386.617 1477.06 383.538 1481.67 Q380.483 1486.25 374.673 1486.25 Q368.863 1486.25 365.784 1481.67 Q362.728 1477.06 362.728 1468.33 Q362.728 1459.58 365.784 1455 Q368.863 1450.39 374.673 1450.39 Z" fill="#000000" fill-rule="evenodd" fill-opacity="1" /><path clip-path="url(#clip600)" d="M404.835 1454.1 Q401.223 1454.1 399.395 1457.66 Q397.589 1461.2 397.589 1468.33 Q397.589 1475.44 399.395 1479.01 Q401.223 1482.55 404.835 1482.55 Q408.469 1482.55 410.274 1479.01 Q412.103 1475.44 412.103 1468.33 Q412.103 1461.2 410.274 1457.66 Q408.469 1454.1 404.835 1454.1 M404.835 1450.39 Q410.645 1450.39 413.7 1455 Q416.779 1459.58 416.779 1468.33 Q416.779 1477.06 413.7 1481.67 Q410.645 1486.25 404.835 1486.25 Q399.024 1486.25 395.946 1481.67 Q392.89 1477.06 392.89 1468.33 Q392.89 1459.58 395.946 1455 Q399.024 1450.39 404.835 1450.39 Z" fill="#000000" fill-rule="evenodd" fill-opacity="1" /><path clip-path="url(#clip600)" d="M661.71 1468.75 L691.385 1468.75 L691.385 1472.69 L661.71 1472.69 L661.71 1468.75 Z" fill="#000000" fill-rule="evenodd" fill-opacity="1" /><path clip-path="url(#clip600)" d="M702.288 1481.64 L709.927 1481.64 L709.927 1455.28 L701.617 1456.95 L701.617 1452.69 L709.881 1451.02 L714.557 1451.02 L714.557 1481.64 L722.195 1481.64 L722.195 1485.58 L702.288 1485.58 L702.288 1481.64 Z" fill="#000000" fill-rule="evenodd" fill-opacity="1" /><path clip-path="url(#clip600)" d="M741.64 1454.1 Q738.029 1454.1 736.2 1457.66 Q734.394 1461.2 734.394 1468.33 Q734.394 1475.44 736.2 1479.01 Q738.029 1482.55 741.64 1482.55 Q745.274 1482.55 747.08 1479.01 Q748.908 1475.44 748.908 1468.33 Q748.908 1461.2 747.08 1457.66 Q745.274 1454.1 741.64 1454.1 M741.64 1450.39 Q747.45 1450.39 750.506 1455 Q753.584 1459.58 753.584 1468.33 Q753.584 1477.06 750.506 1481.67 Q747.45 1486.25 741.64 1486.25 Q735.83 1486.25 732.751 1481.67 Q729.695 1477.06 729.695 1468.33 Q729.695 1459.58 732.751 1455 Q735.83 1450.39 741.64 1450.39 Z" fill="#000000" fill-rule="evenodd" fill-opacity="1" /><path clip-path="url(#clip600)" d="M771.802 1454.1 Q768.191 1454.1 766.362 1457.66 Q764.556 1461.2 764.556 1468.33 Q764.556 1475.44 766.362 1479.01 Q768.191 1482.55 771.802 1482.55 Q775.436 1482.55 777.241 1479.01 Q779.07 1475.44 779.07 1468.33 Q779.07 1461.2 777.241 1457.66 Q775.436 1454.1 771.802 1454.1 M771.802 1450.39 Q777.612 1450.39 780.667 1455 Q783.746 1459.58 783.746 1468.33 Q783.746 1477.06 780.667 1481.67 Q777.612 1486.25 771.802 1486.25 Q765.992 1486.25 762.913 1481.67 Q759.857 1477.06 759.857 1468.33 Q759.857 1459.58 762.913 1455 Q765.992 1450.39 771.802 1450.39 Z" fill="#000000" fill-rule="evenodd" fill-opacity="1" /><path clip-path="url(#clip600)" d="M801.964 1454.1 Q798.352 1454.1 796.524 1457.66 Q794.718 1461.2 794.718 1468.33 Q794.718 1475.44 796.524 1479.01 Q798.352 1482.55 801.964 1482.55 Q805.598 1482.55 807.403 1479.01 Q809.232 1475.44 809.232 1468.33 Q809.232 1461.2 807.403 1457.66 Q805.598 1454.1 801.964 1454.1 M801.964 1450.39 Q807.774 1450.39 810.829 1455 Q813.908 1459.58 813.908 1468.33 Q813.908 1477.06 810.829 1481.67 Q807.774 1486.25 801.964 1486.25 Q796.153 1486.25 793.075 1481.67 Q790.019 1477.06 790.019 1468.33 Q790.019 1459.58 793.075 1455 Q796.153 1450.39 801.964 1450.39 Z" fill="#000000" fill-rule="evenodd" fill-opacity="1" /><path clip-path="url(#clip600)" d="M1134.94 1454.1 Q1131.33 1454.1 1129.5 1457.66 Q1127.69 1461.2 1127.69 1468.33 Q1127.69 1475.44 1129.5 1479.01 Q1131.33 1482.55 1134.94 1482.55 Q1138.57 1482.55 1140.38 1479.01 Q1142.21 1475.44 1142.21 1468.33 Q1142.21 1461.2 1140.38 1457.66 Q1138.57 1454.1 1134.94 1454.1 M1134.94 1450.39 Q1140.75 1450.39 1143.8 1455 Q1146.88 1459.58 1146.88 1468.33 Q1146.88 1477.06 1143.8 1481.67 Q1140.75 1486.25 1134.94 1486.25 Q1129.13 1486.25 1126.05 1481.67 Q1122.99 1477.06 1122.99 1468.33 Q1122.99 1459.58 1126.05 1455 Q1129.13 1450.39 1134.94 1450.39 Z" fill="#000000" fill-rule="evenodd" fill-opacity="1" /><path clip-path="url(#clip600)" d="M1476.59 1481.64 L1484.23 1481.64 L1484.23 1455.28 L1475.92 1456.95 L1475.92 1452.69 L1484.19 1451.02 L1488.86 1451.02 L1488.86 1481.64 L1496.5 1481.64 L1496.5 1485.58 L1476.59 1485.58 L1476.59 1481.64 Z" fill="#000000" fill-rule="evenodd" fill-opacity="1" /><path clip-path="url(#clip600)" d="M1515.94 1454.1 Q1512.33 1454.1 1510.5 1457.66 Q1508.7 1461.2 1508.7 1468.33 Q1508.7 1475.44 1510.5 1479.01 Q1512.33 1482.55 1515.94 1482.55 Q1519.58 1482.55 1521.38 1479.01 Q1523.21 1475.44 1523.21 1468.33 Q1523.21 1461.2 1521.38 1457.66 Q1519.58 1454.1 1515.94 1454.1 M1515.94 1450.39 Q1521.75 1450.39 1524.81 1455 Q1527.89 1459.58 1527.89 1468.33 Q1527.89 1477.06 1524.81 1481.67 Q1521.75 1486.25 1515.94 1486.25 Q1510.13 1486.25 1507.06 1481.67 Q1504 1477.06 1504 1468.33 Q1504 1459.58 1507.06 1455 Q1510.13 1450.39 1515.94 1450.39 Z" fill="#000000" fill-rule="evenodd" fill-opacity="1" /><path clip-path="url(#clip600)" d="M1546.11 1454.1 Q1542.49 1454.1 1540.67 1457.66 Q1538.86 1461.2 1538.86 1468.33 Q1538.86 1475.44 1540.67 1479.01 Q1542.49 1482.55 1546.11 1482.55 Q1549.74 1482.55 1551.55 1479.01 Q1553.37 1475.44 1553.37 1468.33 Q1553.37 1461.2 1551.55 1457.66 Q1549.74 1454.1 1546.11 1454.1 M1546.11 1450.39 Q1551.92 1450.39 1554.97 1455 Q1558.05 1459.58 1558.05 1468.33 Q1558.05 1477.06 1554.97 1481.67 Q1551.92 1486.25 1546.11 1486.25 Q1540.3 1486.25 1537.22 1481.67 Q1534.16 1477.06 1534.16 1468.33 Q1534.16 1459.58 1537.22 1455 Q1540.3 1450.39 1546.11 1450.39 Z" fill="#000000" fill-rule="evenodd" fill-opacity="1" /><path clip-path="url(#clip600)" d="M1576.27 1454.1 Q1572.66 1454.1 1570.83 1457.66 Q1569.02 1461.2 1569.02 1468.33 Q1569.02 1475.44 1570.83 1479.01 Q1572.66 1482.55 1576.27 1482.55 Q1579.9 1482.55 1581.71 1479.01 Q1583.54 1475.44 1583.54 1468.33 Q1583.54 1461.2 1581.71 1457.66 Q1579.9 1454.1 1576.27 1454.1 M1576.27 1450.39 Q1582.08 1450.39 1585.13 1455 Q1588.21 1459.58 1588.21 1468.33 Q1588.21 1477.06 1585.13 1481.67 Q1582.08 1486.25 1576.27 1486.25 Q1570.46 1486.25 1567.38 1481.67 Q1564.32 1477.06 1564.32 1468.33 Q1564.32 1459.58 1567.38 1455 Q1570.46 1450.39 1576.27 1450.39 Z" fill="#000000" fill-rule="evenodd" fill-opacity="1" /><path clip-path="url(#clip600)" d="M1877.81 1481.64 L1894.13 1481.64 L1894.13 1485.58 L1872.18 1485.58 L1872.18 1481.64 Q1874.84 1478.89 1879.43 1474.26 Q1884.03 1469.61 1885.21 1468.27 Q1887.46 1465.74 1888.34 1464.01 Q1889.24 1462.25 1889.24 1460.56 Q1889.24 1457.8 1887.3 1456.07 Q1885.38 1454.33 1882.27 1454.33 Q1880.08 1454.33 1877.62 1455.09 Q1875.19 1455.86 1872.41 1457.41 L1872.41 1452.69 Q1875.24 1451.55 1877.69 1450.97 Q1880.15 1450.39 1882.18 1450.39 Q1887.55 1450.39 1890.75 1453.08 Q1893.94 1455.77 1893.94 1460.26 Q1893.94 1462.39 1893.13 1464.31 Q1892.34 1466.2 1890.24 1468.8 Q1889.66 1469.47 1886.56 1472.69 Q1883.46 1475.88 1877.81 1481.64 Z" fill="#000000" fill-rule="evenodd" fill-opacity="1" /><path clip-path="url(#clip600)" d="M1913.94 1454.1 Q1910.33 1454.1 1908.5 1457.66 Q1906.7 1461.2 1906.7 1468.33 Q1906.7 1475.44 1908.5 1479.01 Q1910.33 1482.55 1913.94 1482.55 Q1917.58 1482.55 1919.38 1479.01 Q1921.21 1475.44 1921.21 1468.33 Q1921.21 1461.2 1919.38 1457.66 Q1917.58 1454.1 1913.94 1454.1 M1913.94 1450.39 Q1919.75 1450.39 1922.81 1455 Q1925.89 1459.58 1925.89 1468.33 Q1925.89 1477.06 1922.81 1481.67 Q1919.75 1486.25 1913.94 1486.25 Q1908.13 1486.25 1905.05 1481.67 Q1902 1477.06 1902 1468.33 Q1902 1459.58 1905.05 1455 Q1908.13 1450.39 1913.94 1450.39 Z" fill="#000000" fill-rule="evenodd" fill-opacity="1" /><path clip-path="url(#clip600)" d="M1944.1 1454.1 Q1940.49 1454.1 1938.66 1457.66 Q1936.86 1461.2 1936.86 1468.33 Q1936.86 1475.44 1938.66 1479.01 Q1940.49 1482.55 1944.1 1482.55 Q1947.74 1482.55 1949.54 1479.01 Q1951.37 1475.44 1951.37 1468.33 Q1951.37 1461.2 1949.54 1457.66 Q1947.74 1454.1 1944.1 1454.1 M1944.1 1450.39 Q1949.91 1450.39 1952.97 1455 Q1956.05 1459.58 1956.05 1468.33 Q1956.05 1477.06 1952.97 1481.67 Q1949.91 1486.25 1944.1 1486.25 Q1938.29 1486.25 1935.21 1481.67 Q1932.16 1477.06 1932.16 1468.33 Q1932.16 1459.58 1935.21 1455 Q1938.29 1450.39 1944.1 1450.39 Z" fill="#000000" fill-rule="evenodd" fill-opacity="1" /><path clip-path="url(#clip600)" d="M1974.27 1454.1 Q1970.65 1454.1 1968.83 1457.66 Q1967.02 1461.2 1967.02 1468.33 Q1967.02 1475.44 1968.83 1479.01 Q1970.65 1482.55 1974.27 1482.55 Q1977.9 1482.55 1979.7 1479.01 Q1981.53 1475.44 1981.53 1468.33 Q1981.53 1461.2 1979.7 1457.66 Q1977.9 1454.1 1974.27 1454.1 M1974.27 1450.39 Q1980.08 1450.39 1983.13 1455 Q1986.21 1459.58 1986.21 1468.33 Q1986.21 1477.06 1983.13 1481.67 Q1980.08 1486.25 1974.27 1486.25 Q1968.45 1486.25 1965.38 1481.67 Q1962.32 1477.06 1962.32 1468.33 Q1962.32 1459.58 1965.38 1455 Q1968.45 1450.39 1974.27 1450.39 Z" fill="#000000" fill-rule="evenodd" fill-opacity="1" /><path clip-path="url(#clip600)" d="M2285.01 1466.95 Q2288.36 1467.66 2290.24 1469.93 Q2292.14 1472.2 2292.14 1475.53 Q2292.14 1480.65 2288.62 1483.45 Q2285.1 1486.25 2278.62 1486.25 Q2276.44 1486.25 2274.13 1485.81 Q2271.83 1485.39 2269.38 1484.54 L2269.38 1480.02 Q2271.33 1481.16 2273.64 1481.74 Q2275.95 1482.32 2278.48 1482.32 Q2282.88 1482.32 2285.17 1480.58 Q2287.48 1478.84 2287.48 1475.53 Q2287.48 1472.48 2285.33 1470.77 Q2283.2 1469.03 2279.38 1469.03 L2275.35 1469.03 L2275.35 1465.19 L2279.57 1465.19 Q2283.01 1465.19 2284.84 1463.82 Q2286.67 1462.43 2286.67 1459.84 Q2286.67 1457.18 2284.77 1455.77 Q2282.9 1454.33 2279.38 1454.33 Q2277.46 1454.33 2275.26 1454.75 Q2273.06 1455.16 2270.42 1456.04 L2270.42 1451.88 Q2273.08 1451.14 2275.4 1450.77 Q2277.74 1450.39 2279.8 1450.39 Q2285.12 1450.39 2288.22 1452.83 Q2291.32 1455.23 2291.32 1459.35 Q2291.32 1462.22 2289.68 1464.21 Q2288.04 1466.18 2285.01 1466.95 Z" fill="#000000" fill-rule="evenodd" fill-opacity="1" /><path clip-path="url(#clip600)" d="M2311 1454.1 Q2307.39 1454.1 2305.56 1457.66 Q2303.76 1461.2 2303.76 1468.33 Q2303.76 1475.44 2305.56 1479.01 Q2307.39 1482.55 2311 1482.55 Q2314.64 1482.55 2316.44 1479.01 Q2318.27 1475.44 2318.27 1468.33 Q2318.27 1461.2 2316.44 1457.66 Q2314.64 1454.1 2311 1454.1 M2311 1450.39 Q2316.81 1450.39 2319.87 1455 Q2322.95 1459.58 2322.95 1468.33 Q2322.95 1477.06 2319.87 1481.67 Q2316.81 1486.25 2311 1486.25 Q2305.19 1486.25 2302.11 1481.67 Q2299.06 1477.06 2299.06 1468.33 Q2299.06 1459.58 2302.11 1455 Q2305.19 1450.39 2311 1450.39 Z" fill="#000000" fill-rule="evenodd" fill-opacity="1" /><path clip-path="url(#clip600)" d="M2341.16 1454.1 Q2337.55 1454.1 2335.72 1457.66 Q2333.92 1461.2 2333.92 1468.33 Q2333.92 1475.44 2335.72 1479.01 Q2337.55 1482.55 2341.16 1482.55 Q2344.8 1482.55 2346.6 1479.01 Q2348.43 1475.44 2348.43 1468.33 Q2348.43 1461.2 2346.6 1457.66 Q2344.8 1454.1 2341.16 1454.1 M2341.16 1450.39 Q2346.97 1450.39 2350.03 1455 Q2353.11 1459.58 2353.11 1468.33 Q2353.11 1477.06 2350.03 1481.67 Q2346.97 1486.25 2341.16 1486.25 Q2335.35 1486.25 2332.27 1481.67 Q2329.22 1477.06 2329.22 1468.33 Q2329.22 1459.58 2332.27 1455 Q2335.35 1450.39 2341.16 1450.39 Z" fill="#000000" fill-rule="evenodd" fill-opacity="1" /><path clip-path="url(#clip600)" d="M2371.32 1454.1 Q2367.71 1454.1 2365.88 1457.66 Q2364.08 1461.2 2364.08 1468.33 Q2364.08 1475.44 2365.88 1479.01 Q2367.71 1482.55 2371.32 1482.55 Q2374.96 1482.55 2376.76 1479.01 Q2378.59 1475.44 2378.59 1468.33 Q2378.59 1461.2 2376.76 1457.66 Q2374.96 1454.1 2371.32 1454.1 M2371.32 1450.39 Q2377.13 1450.39 2380.19 1455 Q2383.27 1459.58 2383.27 1468.33 Q2383.27 1477.06 2380.19 1481.67 Q2377.13 1486.25 2371.32 1486.25 Q2365.51 1486.25 2362.44 1481.67 Q2359.38 1477.06 2359.38 1468.33 Q2359.38 1459.58 2362.44 1455 Q2365.51 1450.39 2371.32 1450.39 Z" fill="#000000" fill-rule="evenodd" fill-opacity="1" /><path clip-path="url(#clip600)" d="M1226.54 1525.81 L1226.54 1543.66 L1234.63 1543.66 Q1239.12 1543.66 1241.57 1541.34 Q1244.02 1539.02 1244.02 1534.72 Q1244.02 1530.45 1241.57 1528.13 Q1239.12 1525.81 1234.63 1525.81 L1226.54 1525.81 M1220.11 1520.52 L1234.63 1520.52 Q1242.62 1520.52 1246.69 1524.15 Q1250.8 1527.75 1250.8 1534.72 Q1250.8 1541.75 1246.69 1545.35 Q1242.62 1548.95 1234.63 1548.95 L1226.54 1548.95 L1226.54 1568.04 L1220.11 1568.04 L1220.11 1520.52 Z" fill="#000000" fill-rule="evenodd" fill-opacity="1" /><path clip-path="url(#clip600)" d="M1278.68 1537.87 Q1277.69 1537.3 1276.51 1537.04 Q1275.37 1536.76 1273.97 1536.76 Q1269 1536.76 1266.33 1540 Q1263.69 1543.22 1263.69 1549.27 L1263.69 1568.04 L1257.8 1568.04 L1257.8 1532.4 L1263.69 1532.4 L1263.69 1537.93 Q1265.53 1534.69 1268.49 1533.13 Q1271.45 1531.54 1275.69 1531.54 Q1276.29 1531.54 1277.02 1531.63 Q1277.75 1531.7 1278.65 1531.85 L1278.68 1537.87 Z" fill="#000000" fill-rule="evenodd" fill-opacity="1" /><path clip-path="url(#clip600)" d="M1297.2 1536.5 Q1292.49 1536.5 1289.75 1540.19 Q1287.02 1543.85 1287.02 1550.25 Q1287.02 1556.65 1289.72 1560.34 Q1292.46 1564 1297.2 1564 Q1301.88 1564 1304.62 1560.31 Q1307.36 1556.62 1307.36 1550.25 Q1307.36 1543.92 1304.62 1540.23 Q1301.88 1536.5 1297.2 1536.5 M1297.2 1531.54 Q1304.84 1531.54 1309.2 1536.5 Q1313.56 1541.47 1313.56 1550.25 Q1313.56 1559 1309.2 1564 Q1304.84 1568.97 1297.2 1568.97 Q1289.53 1568.97 1285.17 1564 Q1280.84 1559 1280.84 1550.25 Q1280.84 1541.47 1285.17 1536.5 Q1289.53 1531.54 1297.2 1531.54 Z" fill="#000000" fill-rule="evenodd" fill-opacity="1" /><path clip-path="url(#clip600)" d="M1341.32 1518.52 L1341.32 1523.39 L1335.71 1523.39 Q1332.56 1523.39 1331.32 1524.66 Q1330.11 1525.93 1330.11 1529.24 L1330.11 1532.4 L1339.76 1532.4 L1339.76 1536.95 L1330.11 1536.95 L1330.11 1568.04 L1324.22 1568.04 L1324.22 1536.95 L1318.62 1536.95 L1318.62 1532.4 L1324.22 1532.4 L1324.22 1529.91 Q1324.22 1523.96 1326.99 1521.26 Q1329.76 1518.52 1335.78 1518.52 L1341.32 1518.52 Z" fill="#000000" fill-rule="evenodd" fill-opacity="1" /><path clip-path="url(#clip600)" d="M1346.22 1532.4 L1352.07 1532.4 L1352.07 1568.04 L1346.22 1568.04 L1346.22 1532.4 M1346.22 1518.52 L1352.07 1518.52 L1352.07 1525.93 L1346.22 1525.93 L1346.22 1518.52 Z" fill="#000000" fill-rule="evenodd" fill-opacity="1" /><path clip-path="url(#clip600)" d="M1370.12 1522.27 L1370.12 1532.4 L1382.18 1532.4 L1382.18 1536.95 L1370.12 1536.95 L1370.12 1556.3 Q1370.12 1560.66 1371.3 1561.9 Q1372.51 1563.14 1376.17 1563.14 L1382.18 1563.14 L1382.18 1568.04 L1376.17 1568.04 Q1369.39 1568.04 1366.81 1565.53 Q1364.23 1562.98 1364.23 1556.3 L1364.23 1536.95 L1359.94 1536.95 L1359.94 1532.4 L1364.23 1532.4 L1364.23 1522.27 L1370.12 1522.27 Z" fill="#000000" fill-rule="evenodd" fill-opacity="1" /><polyline clip-path="url(#clip602)" style="stroke:#000000; stroke-linecap:round; stroke-linejoin:round; stroke-width:2; stroke-opacity:0.1; fill:none" points="
  249.542,1388.85 2352.76,1388.85 
  "/>
<polyline clip-path="url(#clip602)" style="stroke:#000000; stroke-linecap:round; stroke-linejoin:round; stroke-width:2; stroke-opacity:0.1; fill:none" points="
  249.542,1081.7 2352.76,1081.7 
  "/>
<polyline clip-path="url(#clip602)" style="stroke:#000000; stroke-linecap:round; stroke-linejoin:round; stroke-width:2; stroke-opacity:0.1; fill:none" points="
  249.542,774.555 2352.76,774.555 
  "/>
<polyline clip-path="url(#clip602)" style="stroke:#000000; stroke-linecap:round; stroke-linejoin:round; stroke-width:2; stroke-opacity:0.1; fill:none" points="
  249.542,467.405 2352.76,467.405 
  "/>
<polyline clip-path="url(#clip602)" style="stroke:#000000; stroke-linecap:round; stroke-linejoin:round; stroke-width:2; stroke-opacity:0.1; fill:none" points="
  249.542,160.256 2352.76,160.256 
  "/>
<polyline clip-path="url(#clip600)" style="stroke:#000000; stroke-linecap:round; stroke-linejoin:round; stroke-width:4; stroke-opacity:1; fill:none" points="
  249.542,1423.18 249.542,123.472 
  "/>
<polyline clip-path="url(#clip600)" style="stroke:#000000; stroke-linecap:round; stroke-linejoin:round; stroke-width:4; stroke-opacity:1; fill:none" points="
  249.542,1388.85 268.44,1388.85 
  "/>
<polyline clip-path="url(#clip600)" style="stroke:#000000; stroke-linecap:round; stroke-linejoin:round; stroke-width:4; stroke-opacity:1; fill:none" points="
  249.542,1081.7 268.44,1081.7 
  "/>
<polyline clip-path="url(#clip600)" style="stroke:#000000; stroke-linecap:round; stroke-linejoin:round; stroke-width:4; stroke-opacity:1; fill:none" points="
  249.542,774.555 268.44,774.555 
  "/>
<polyline clip-path="url(#clip600)" style="stroke:#000000; stroke-linecap:round; stroke-linejoin:round; stroke-width:4; stroke-opacity:1; fill:none" points="
  249.542,467.405 268.44,467.405 
  "/>
<polyline clip-path="url(#clip600)" style="stroke:#000000; stroke-linecap:round; stroke-linejoin:round; stroke-width:4; stroke-opacity:1; fill:none" points="
  249.542,160.256 268.44,160.256 
  "/>
<path clip-path="url(#clip600)" d="M126.205 1374.65 Q122.593 1374.65 120.765 1378.22 Q118.959 1381.76 118.959 1388.89 Q118.959 1395.99 120.765 1399.56 Q122.593 1403.1 126.205 1403.1 Q129.839 1403.1 131.644 1399.56 Q133.473 1395.99 133.473 1388.89 Q133.473 1381.76 131.644 1378.22 Q129.839 1374.65 126.205 1374.65 M126.205 1370.95 Q132.015 1370.95 135.07 1375.55 Q138.149 1380.14 138.149 1388.89 Q138.149 1397.61 135.07 1402.22 Q132.015 1406.8 126.205 1406.8 Q120.394 1406.8 117.316 1402.22 Q114.26 1397.61 114.26 1388.89 Q114.26 1380.14 117.316 1375.55 Q120.394 1370.95 126.205 1370.95 Z" fill="#000000" fill-rule="evenodd" fill-opacity="1" /><path clip-path="url(#clip600)" d="M146.366 1400.25 L151.251 1400.25 L151.251 1406.13 L146.366 1406.13 L146.366 1400.25 Z" fill="#000000" fill-rule="evenodd" fill-opacity="1" /><path clip-path="url(#clip600)" d="M171.436 1374.65 Q167.825 1374.65 165.996 1378.22 Q164.19 1381.76 164.19 1388.89 Q164.19 1395.99 165.996 1399.56 Q167.825 1403.1 171.436 1403.1 Q175.07 1403.1 176.876 1399.56 Q178.704 1395.99 178.704 1388.89 Q178.704 1381.76 176.876 1378.22 Q175.07 1374.65 171.436 1374.65 M171.436 1370.95 Q177.246 1370.95 180.301 1375.55 Q183.38 1380.14 183.38 1388.89 Q183.38 1397.61 180.301 1402.22 Q177.246 1406.8 171.436 1406.8 Q165.626 1406.8 162.547 1402.22 Q159.491 1397.61 159.491 1388.89 Q159.491 1380.14 162.547 1375.55 Q165.626 1370.95 171.436 1370.95 Z" fill="#000000" fill-rule="evenodd" fill-opacity="1" /><path clip-path="url(#clip600)" d="M201.598 1374.65 Q197.987 1374.65 196.158 1378.22 Q194.352 1381.76 194.352 1388.89 Q194.352 1395.99 196.158 1399.56 Q197.987 1403.1 201.598 1403.1 Q205.232 1403.1 207.037 1399.56 Q208.866 1395.99 208.866 1388.89 Q208.866 1381.76 207.037 1378.22 Q205.232 1374.65 201.598 1374.65 M201.598 1370.95 Q207.408 1370.95 210.463 1375.55 Q213.542 1380.14 213.542 1388.89 Q213.542 1397.61 210.463 1402.22 Q207.408 1406.8 201.598 1406.8 Q195.787 1406.8 192.709 1402.22 Q189.653 1397.61 189.653 1388.89 Q189.653 1380.14 192.709 1375.55 Q195.787 1370.95 201.598 1370.95 Z" fill="#000000" fill-rule="evenodd" fill-opacity="1" /><path clip-path="url(#clip600)" d="M127.2 1067.5 Q123.589 1067.5 121.76 1071.07 Q119.955 1074.61 119.955 1081.74 Q119.955 1088.84 121.76 1092.41 Q123.589 1095.95 127.2 1095.95 Q130.834 1095.95 132.64 1092.41 Q134.468 1088.84 134.468 1081.74 Q134.468 1074.61 132.64 1071.07 Q130.834 1067.5 127.2 1067.5 M127.2 1063.8 Q133.01 1063.8 136.066 1068.41 Q139.144 1072.99 139.144 1081.74 Q139.144 1090.47 136.066 1095.07 Q133.01 1099.66 127.2 1099.66 Q121.39 1099.66 118.311 1095.07 Q115.256 1090.47 115.256 1081.74 Q115.256 1072.99 118.311 1068.41 Q121.39 1063.8 127.2 1063.8 Z" fill="#000000" fill-rule="evenodd" fill-opacity="1" /><path clip-path="url(#clip600)" d="M147.362 1093.1 L152.246 1093.1 L152.246 1098.98 L147.362 1098.98 L147.362 1093.1 Z" fill="#000000" fill-rule="evenodd" fill-opacity="1" /><path clip-path="url(#clip600)" d="M166.459 1095.05 L182.778 1095.05 L182.778 1098.98 L160.834 1098.98 L160.834 1095.05 Q163.496 1092.29 168.079 1087.66 Q172.686 1083.01 173.866 1081.67 Q176.112 1079.15 176.991 1077.41 Q177.894 1075.65 177.894 1073.96 Q177.894 1071.21 175.95 1069.47 Q174.028 1067.73 170.927 1067.73 Q168.727 1067.73 166.274 1068.5 Q163.843 1069.26 161.065 1070.81 L161.065 1066.09 Q163.89 1064.96 166.343 1064.38 Q168.797 1063.8 170.834 1063.8 Q176.204 1063.8 179.399 1066.48 Q182.593 1069.17 182.593 1073.66 Q182.593 1075.79 181.783 1077.71 Q180.996 1079.61 178.889 1082.2 Q178.311 1082.87 175.209 1086.09 Q172.107 1089.28 166.459 1095.05 Z" fill="#000000" fill-rule="evenodd" fill-opacity="1" /><path clip-path="url(#clip600)" d="M192.639 1064.42 L210.996 1064.42 L210.996 1068.36 L196.922 1068.36 L196.922 1076.83 Q197.94 1076.48 198.959 1076.32 Q199.977 1076.14 200.996 1076.14 Q206.783 1076.14 210.162 1079.31 Q213.542 1082.48 213.542 1087.9 Q213.542 1093.47 210.07 1096.58 Q206.598 1099.66 200.278 1099.66 Q198.102 1099.66 195.834 1099.28 Q193.588 1098.91 191.181 1098.17 L191.181 1093.47 Q193.264 1094.61 195.487 1095.16 Q197.709 1095.72 200.186 1095.72 Q204.19 1095.72 206.528 1093.61 Q208.866 1091.51 208.866 1087.9 Q208.866 1084.28 206.528 1082.18 Q204.19 1080.07 200.186 1080.07 Q198.311 1080.07 196.436 1080.49 Q194.584 1080.91 192.639 1081.78 L192.639 1064.42 Z" fill="#000000" fill-rule="evenodd" fill-opacity="1" /><path clip-path="url(#clip600)" d="M126.205 760.353 Q122.593 760.353 120.765 763.918 Q118.959 767.46 118.959 774.589 Q118.959 781.696 120.765 785.261 Q122.593 788.802 126.205 788.802 Q129.839 788.802 131.644 785.261 Q133.473 781.696 133.473 774.589 Q133.473 767.46 131.644 763.918 Q129.839 760.353 126.205 760.353 M126.205 756.65 Q132.015 756.65 135.07 761.256 Q138.149 765.839 138.149 774.589 Q138.149 783.316 135.07 787.923 Q132.015 792.506 126.205 792.506 Q120.394 792.506 117.316 787.923 Q114.26 783.316 114.26 774.589 Q114.26 765.839 117.316 761.256 Q120.394 756.65 126.205 756.65 Z" fill="#000000" fill-rule="evenodd" fill-opacity="1" /><path clip-path="url(#clip600)" d="M146.366 785.955 L151.251 785.955 L151.251 791.835 L146.366 791.835 L146.366 785.955 Z" fill="#000000" fill-rule="evenodd" fill-opacity="1" /><path clip-path="url(#clip600)" d="M161.482 757.275 L179.839 757.275 L179.839 761.21 L165.765 761.21 L165.765 769.682 Q166.783 769.335 167.802 769.173 Q168.82 768.987 169.839 768.987 Q175.626 768.987 179.005 772.159 Q182.385 775.33 182.385 780.747 Q182.385 786.325 178.913 789.427 Q175.44 792.506 169.121 792.506 Q166.945 792.506 164.677 792.136 Q162.431 791.765 160.024 791.024 L160.024 786.325 Q162.107 787.46 164.329 788.015 Q166.552 788.571 169.028 788.571 Q173.033 788.571 175.371 786.464 Q177.709 784.358 177.709 780.747 Q177.709 777.136 175.371 775.029 Q173.033 772.923 169.028 772.923 Q167.153 772.923 165.278 773.339 Q163.427 773.756 161.482 774.636 L161.482 757.275 Z" fill="#000000" fill-rule="evenodd" fill-opacity="1" /><path clip-path="url(#clip600)" d="M201.598 760.353 Q197.987 760.353 196.158 763.918 Q194.352 767.46 194.352 774.589 Q194.352 781.696 196.158 785.261 Q197.987 788.802 201.598 788.802 Q205.232 788.802 207.037 785.261 Q208.866 781.696 208.866 774.589 Q208.866 767.46 207.037 763.918 Q205.232 760.353 201.598 760.353 M201.598 756.65 Q207.408 756.65 210.463 761.256 Q213.542 765.839 213.542 774.589 Q213.542 783.316 210.463 787.923 Q207.408 792.506 201.598 792.506 Q195.787 792.506 192.709 787.923 Q189.653 783.316 189.653 774.589 Q189.653 765.839 192.709 761.256 Q195.787 756.65 201.598 756.65 Z" fill="#000000" fill-rule="evenodd" fill-opacity="1" /><path clip-path="url(#clip600)" d="M127.2 453.204 Q123.589 453.204 121.76 456.769 Q119.955 460.311 119.955 467.44 Q119.955 474.547 121.76 478.111 Q123.589 481.653 127.2 481.653 Q130.834 481.653 132.64 478.111 Q134.468 474.547 134.468 467.44 Q134.468 460.311 132.64 456.769 Q130.834 453.204 127.2 453.204 M127.2 449.5 Q133.01 449.5 136.066 454.107 Q139.144 458.69 139.144 467.44 Q139.144 476.167 136.066 480.773 Q133.01 485.357 127.2 485.357 Q121.39 485.357 118.311 480.773 Q115.256 476.167 115.256 467.44 Q115.256 458.69 118.311 454.107 Q121.39 449.5 127.2 449.5 Z" fill="#000000" fill-rule="evenodd" fill-opacity="1" /><path clip-path="url(#clip600)" d="M147.362 478.806 L152.246 478.806 L152.246 484.685 L147.362 484.685 L147.362 478.806 Z" fill="#000000" fill-rule="evenodd" fill-opacity="1" /><path clip-path="url(#clip600)" d="M161.251 450.125 L183.473 450.125 L183.473 452.116 L170.927 484.685 L166.042 484.685 L177.848 454.061 L161.251 454.061 L161.251 450.125 Z" fill="#000000" fill-rule="evenodd" fill-opacity="1" /><path clip-path="url(#clip600)" d="M192.639 450.125 L210.996 450.125 L210.996 454.061 L196.922 454.061 L196.922 462.533 Q197.94 462.186 198.959 462.024 Q199.977 461.838 200.996 461.838 Q206.783 461.838 210.162 465.01 Q213.542 468.181 213.542 473.598 Q213.542 479.176 210.07 482.278 Q206.598 485.357 200.278 485.357 Q198.102 485.357 195.834 484.986 Q193.588 484.616 191.181 483.875 L191.181 479.176 Q193.264 480.31 195.487 480.866 Q197.709 481.422 200.186 481.422 Q204.19 481.422 206.528 479.315 Q208.866 477.209 208.866 473.598 Q208.866 469.986 206.528 467.88 Q204.19 465.774 200.186 465.774 Q198.311 465.774 196.436 466.19 Q194.584 466.607 192.639 467.486 L192.639 450.125 Z" fill="#000000" fill-rule="evenodd" fill-opacity="1" /><path clip-path="url(#clip600)" d="M117.015 173.601 L124.654 173.601 L124.654 147.236 L116.343 148.902 L116.343 144.643 L124.607 142.976 L129.283 142.976 L129.283 173.601 L136.922 173.601 L136.922 177.536 L117.015 177.536 L117.015 173.601 Z" fill="#000000" fill-rule="evenodd" fill-opacity="1" /><path clip-path="url(#clip600)" d="M146.366 171.657 L151.251 171.657 L151.251 177.536 L146.366 177.536 L146.366 171.657 Z" fill="#000000" fill-rule="evenodd" fill-opacity="1" /><path clip-path="url(#clip600)" d="M171.436 146.055 Q167.825 146.055 165.996 149.62 Q164.19 153.161 164.19 160.291 Q164.19 167.397 165.996 170.962 Q167.825 174.504 171.436 174.504 Q175.07 174.504 176.876 170.962 Q178.704 167.397 178.704 160.291 Q178.704 153.161 176.876 149.62 Q175.07 146.055 171.436 146.055 M171.436 142.351 Q177.246 142.351 180.301 146.958 Q183.38 151.541 183.38 160.291 Q183.38 169.018 180.301 173.624 Q177.246 178.208 171.436 178.208 Q165.626 178.208 162.547 173.624 Q159.491 169.018 159.491 160.291 Q159.491 151.541 162.547 146.958 Q165.626 142.351 171.436 142.351 Z" fill="#000000" fill-rule="evenodd" fill-opacity="1" /><path clip-path="url(#clip600)" d="M201.598 146.055 Q197.987 146.055 196.158 149.62 Q194.352 153.161 194.352 160.291 Q194.352 167.397 196.158 170.962 Q197.987 174.504 201.598 174.504 Q205.232 174.504 207.037 170.962 Q208.866 167.397 208.866 160.291 Q208.866 153.161 207.037 149.62 Q205.232 146.055 201.598 146.055 M201.598 142.351 Q207.408 142.351 210.463 146.958 Q213.542 151.541 213.542 160.291 Q213.542 169.018 210.463 173.624 Q207.408 178.208 201.598 178.208 Q195.787 178.208 192.709 173.624 Q189.653 169.018 189.653 160.291 Q189.653 151.541 192.709 146.958 Q195.787 142.351 201.598 142.351 Z" fill="#000000" fill-rule="evenodd" fill-opacity="1" /><path clip-path="url(#clip600)" d="M16.4842 830.792 L16.4842 803.484 L21.895 803.484 L21.895 824.363 L35.8996 824.363 L35.8996 805.521 L41.3104 805.521 L41.3104 824.363 L64.0042 824.363 L64.0042 830.792 L16.4842 830.792 Z" fill="#000000" fill-rule="evenodd" fill-opacity="1" /><path clip-path="url(#clip600)" d="M14.5426 779.485 Q21.8632 783.75 29.0246 785.819 Q36.186 787.888 43.5384 787.888 Q50.8908 787.888 58.1159 785.819 Q65.3091 783.718 72.5979 779.485 L72.5979 784.577 Q65.1182 789.352 57.8931 791.739 Q50.668 794.094 43.5384 794.094 Q36.4406 794.094 29.2474 791.739 Q22.0542 789.383 14.5426 784.577 L14.5426 779.485 Z" fill="#000000" fill-rule="evenodd" fill-opacity="1" /><path clip-path="url(#clip600)" d="M28.3562 738.49 L45.7028 751.38 L64.0042 737.821 L64.0042 744.728 L49.9996 755.104 L64.0042 765.48 L64.0042 772.387 L45.3526 758.542 L28.3562 771.209 L28.3562 764.303 L41.0558 754.85 L28.3562 745.396 L28.3562 738.49 Z" fill="#000000" fill-rule="evenodd" fill-opacity="1" /><path clip-path="url(#clip600)" d="M14.5426 730.469 L14.5426 725.376 Q22.0542 720.602 29.2474 718.247 Q36.4406 715.86 43.5384 715.86 Q50.668 715.86 57.8931 718.247 Q65.1182 720.602 72.5979 725.376 L72.5979 730.469 Q65.3091 726.236 58.1159 724.167 Q50.8908 722.066 43.5384 722.066 Q36.186 722.066 29.0246 724.167 Q21.8632 726.236 14.5426 730.469 Z" fill="#000000" fill-rule="evenodd" fill-opacity="1" /><path clip-path="url(#clip600)" d="M1045.7 12.096 L1083.94 12.096 L1083.94 18.9825 L1053.88 18.9825 L1053.88 36.8875 L1082.68 36.8875 L1082.68 43.7741 L1053.88 43.7741 L1053.88 65.6895 L1084.67 65.6895 L1084.67 72.576 L1045.7 72.576 L1045.7 12.096 Z" fill="#000000" fill-rule="evenodd" fill-opacity="1" /><path clip-path="url(#clip600)" d="M1143.41 16.7545 L1143.41 25.383 Q1139.27 21.5346 1134.58 19.6307 Q1129.92 17.7268 1124.65 17.7268 Q1114.28 17.7268 1108.77 24.0867 Q1103.26 30.4061 1103.26 42.3968 Q1103.26 54.3469 1108.77 60.7069 Q1114.28 67.0263 1124.65 67.0263 Q1129.92 67.0263 1134.58 65.1223 Q1139.27 63.2184 1143.41 59.3701 L1143.41 67.9175 Q1139.11 70.8341 1134.29 72.2924 Q1129.51 73.7508 1124.16 73.7508 Q1110.43 73.7508 1102.53 65.3654 Q1094.63 56.9395 1094.63 42.3968 Q1094.63 27.8135 1102.53 19.4281 Q1110.43 11.0023 1124.16 11.0023 Q1129.59 11.0023 1134.37 12.4606 Q1139.19 13.8784 1143.41 16.7545 Z" fill="#000000" fill-rule="evenodd" fill-opacity="1" /><path clip-path="url(#clip600)" d="M1164.23 18.8205 L1164.23 65.8515 L1174.11 65.8515 Q1186.63 65.8515 1192.42 60.1802 Q1198.26 54.509 1198.26 42.2752 Q1198.26 30.1225 1192.42 24.4918 Q1186.63 18.8205 1174.11 18.8205 L1164.23 18.8205 M1156.05 12.096 L1172.86 12.096 Q1190.44 12.096 1198.66 19.4281 Q1206.88 26.7198 1206.88 42.2752 Q1206.88 57.9117 1198.62 65.2439 Q1190.36 72.576 1172.86 72.576 L1156.05 72.576 L1156.05 12.096 Z" fill="#000000" fill-rule="evenodd" fill-opacity="1" /><path clip-path="url(#clip600)" d="M1219.93 12.096 L1254.69 12.096 L1254.69 18.9825 L1228.11 18.9825 L1228.11 36.8065 L1252.09 36.8065 L1252.09 43.6931 L1228.11 43.6931 L1228.11 72.576 L1219.93 72.576 L1219.93 12.096 Z" fill="#000000" fill-rule="evenodd" fill-opacity="1" /><path clip-path="url(#clip600)" d="M1289.93 46.5287 L1311.76 46.5287 L1311.76 53.1722 L1289.93 53.1722 L1289.93 46.5287 Z" fill="#000000" fill-rule="evenodd" fill-opacity="1" /><path clip-path="url(#clip600)" d="M1358.51 18.8205 L1358.51 41.5461 L1368.8 41.5461 Q1374.51 41.5461 1377.63 38.5889 Q1380.75 35.6318 1380.75 30.163 Q1380.75 24.7348 1377.63 21.7777 Q1374.51 18.8205 1368.8 18.8205 L1358.51 18.8205 M1350.33 12.096 L1368.8 12.096 Q1378.97 12.096 1384.15 16.714 Q1389.38 21.2916 1389.38 30.163 Q1389.38 39.1155 1384.15 43.6931 Q1378.97 48.2706 1368.8 48.2706 L1358.51 48.2706 L1358.51 72.576 L1350.33 72.576 L1350.33 12.096 Z" fill="#000000" fill-rule="evenodd" fill-opacity="1" /><path clip-path="url(#clip600)" d="M1424.86 34.1734 Q1423.61 33.4443 1422.11 33.1202 Q1420.65 32.7556 1418.87 32.7556 Q1412.55 32.7556 1409.15 36.8875 Q1405.78 40.9789 1405.78 48.6757 L1405.78 72.576 L1398.29 72.576 L1398.29 27.2059 L1405.78 27.2059 L1405.78 34.2544 Q1408.13 30.1225 1411.9 28.1376 Q1415.67 26.1121 1421.06 26.1121 Q1421.83 26.1121 1422.76 26.2337 Q1423.69 26.3147 1424.82 26.5172 L1424.86 34.1734 Z" fill="#000000" fill-rule="evenodd" fill-opacity="1" /><path clip-path="url(#clip600)" d="M1448.44 32.4315 Q1442.44 32.4315 1438.96 37.1306 Q1435.48 41.7891 1435.48 49.9314 Q1435.48 58.0738 1438.92 62.7728 Q1442.4 67.4314 1448.44 67.4314 Q1454.39 67.4314 1457.88 62.7323 Q1461.36 58.0333 1461.36 49.9314 Q1461.36 41.8701 1457.88 37.1711 Q1454.39 32.4315 1448.44 32.4315 M1448.44 26.1121 Q1458.16 26.1121 1463.71 32.4315 Q1469.26 38.7509 1469.26 49.9314 Q1469.26 61.0714 1463.71 67.4314 Q1458.16 73.7508 1448.44 73.7508 Q1438.68 73.7508 1433.13 67.4314 Q1427.62 61.0714 1427.62 49.9314 Q1427.62 38.7509 1433.13 32.4315 Q1438.68 26.1121 1448.44 26.1121 Z" fill="#000000" fill-rule="evenodd" fill-opacity="1" /><path clip-path="url(#clip600)" d="M1504.59 9.54393 L1504.59 15.7418 L1497.46 15.7418 Q1493.45 15.7418 1491.87 17.3622 Q1490.33 18.9825 1490.33 23.1955 L1490.33 27.2059 L1502.6 27.2059 L1502.6 32.9987 L1490.33 32.9987 L1490.33 72.576 L1482.83 72.576 L1482.83 32.9987 L1475.7 32.9987 L1475.7 27.2059 L1482.83 27.2059 L1482.83 24.0462 Q1482.83 16.471 1486.36 13.0277 Q1489.88 9.54393 1497.54 9.54393 L1504.59 9.54393 Z" fill="#000000" fill-rule="evenodd" fill-opacity="1" /><path clip-path="url(#clip600)" d="M1510.82 27.2059 L1518.28 27.2059 L1518.28 72.576 L1510.82 72.576 L1510.82 27.2059 M1510.82 9.54393 L1518.28 9.54393 L1518.28 18.9825 L1510.82 18.9825 L1510.82 9.54393 Z" fill="#000000" fill-rule="evenodd" fill-opacity="1" /><path clip-path="url(#clip600)" d="M1541.25 14.324 L1541.25 27.2059 L1556.6 27.2059 L1556.6 32.9987 L1541.25 32.9987 L1541.25 57.6282 Q1541.25 63.1779 1542.74 64.7578 Q1544.28 66.3376 1548.94 66.3376 L1556.6 66.3376 L1556.6 72.576 L1548.94 72.576 Q1540.31 72.576 1537.03 69.3758 Q1533.75 66.1351 1533.75 57.6282 L1533.75 32.9987 L1528.28 32.9987 L1528.28 27.2059 L1533.75 27.2059 L1533.75 14.324 L1541.25 14.324 Z" fill="#000000" fill-rule="evenodd" fill-opacity="1" /><polyline clip-path="url(#clip602)" style="stroke:#009af9; stroke-linecap:round; stroke-linejoin:round; stroke-width:4; stroke-opacity:1; fill:none" points="
  309.067,1386.4 503.781,1383.94 527.812,1381.48 586.041,1379.02 646.38,1376.57 665.518,1374.11 686.209,1371.65 709.405,1369.2 715.101,1366.74 739.974,1364.28 
  754.383,1361.82 755.11,1359.37 760.338,1356.91 761.368,1354.45 780.744,1351.99 791.407,1349.54 792.484,1347.08 794.747,1344.62 805.186,1342.17 810.86,1339.71 
  829.818,1337.25 868.539,1334.79 869.227,1332.34 885.154,1329.88 893.245,1327.42 908.196,1324.97 908.757,1322.51 909.152,1320.05 921.171,1317.59 921.989,1315.14 
  925.867,1312.68 948.176,1310.22 952.32,1307.77 965.451,1305.31 965.573,1302.85 975.02,1300.39 975.076,1297.94 979.038,1295.48 980.504,1293.02 982.916,1290.57 
  992.522,1288.11 1000.43,1285.65 1000.64,1283.19 1000.95,1280.74 1001.23,1278.28 1004.31,1275.82 1004.78,1273.36 1007.75,1270.91 1007.96,1268.45 1008.12,1265.99 
  1011.1,1263.54 1013.78,1261.08 1016.82,1258.62 1019.64,1256.16 1020.59,1253.71 1021.62,1251.25 1023.2,1248.79 1024.73,1246.34 1025.87,1243.88 1031.92,1241.42 
  1031.95,1238.96 1032.18,1236.51 1034.23,1234.05 1035.85,1231.59 1037.82,1229.14 1038.34,1226.68 1038.36,1224.22 1038.48,1221.76 1040.52,1219.31 1044.44,1216.85 
  1045.43,1214.39 1046.38,1211.93 1046.5,1209.48 1048.42,1207.02 1051.39,1204.56 1053,1202.11 1056.01,1199.65 1057.63,1197.19 1058.75,1194.73 1062.52,1192.28 
  1063.07,1189.82 1063.13,1187.36 1063.36,1184.91 1065.26,1182.45 1070.91,1179.99 1071.68,1177.53 1072.97,1175.08 1073.87,1172.62 1075.73,1170.16 1077.26,1167.71 
  1077.37,1165.25 1077.67,1162.79 1078.08,1160.33 1083.32,1157.88 1084.2,1155.42 1084.98,1152.96 1088.17,1150.51 1088.7,1148.05 1089.27,1145.59 1092.75,1143.13 
  1095.94,1140.68 1101.45,1138.22 1103.89,1135.76 1107.57,1133.3 1109.57,1130.85 1109.72,1128.39 1110.01,1125.93 1110.87,1123.48 1112.08,1121.02 1116.31,1118.56 
  1116.49,1116.1 1117.11,1113.65 1119.45,1111.19 1121.1,1108.73 1122.16,1106.28 1125.09,1103.82 1125.6,1101.36 1126.46,1098.9 1126.72,1096.45 1128.66,1093.99 
  1129.24,1091.53 1129.24,1089.08 1129.38,1086.62 1129.95,1084.16 1131.67,1081.7 1133.99,1079.25 1134.44,1076.79 1135.24,1074.33 1136.38,1071.87 1136.81,1069.42 
  1139.65,1066.96 1139.81,1064.5 1140.29,1062.05 1141.58,1059.59 1141.66,1057.13 1141.84,1054.67 1143.22,1052.22 1143.61,1049.76 1145.16,1047.3 1148.87,1044.85 
  1149.33,1042.39 1152.04,1039.93 1152.31,1037.47 1154.15,1035.02 1154.21,1032.56 1155.81,1030.1 1156.19,1027.65 1156.2,1025.19 1156.33,1022.73 1156.46,1020.27 
  1157.65,1017.82 1157.91,1015.36 1158.11,1012.9 1158.63,1010.45 1158.96,1007.99 1159.92,1005.53 1162.62,1003.07 1162.93,1000.62 1163.87,998.159 1165.01,995.702 
  1165.71,993.245 1166.33,990.788 1166.49,988.33 1167.02,985.873 1167.38,983.416 1167.9,980.959 1168.47,978.502 1169.28,976.044 1171.49,973.587 1172.61,971.13 
  1172.62,968.673 1173.4,966.216 1174.89,963.758 1176.05,961.301 1176.38,958.844 1177.34,956.387 1180.01,953.93 1180.56,951.472 1183.35,949.015 1185.36,946.558 
  1185.38,944.101 1185.76,941.644 1185.85,939.187 1186.13,936.729 1187.76,934.272 1187.92,931.815 1188.55,929.358 1189.18,926.901 1189.22,924.443 1190.8,921.986 
  1191.14,919.529 1191.52,917.072 1191.99,914.615 1192.59,912.157 1193.12,909.7 1195.33,907.243 1195.33,904.786 1196.41,902.329 1196.88,899.871 1196.91,897.414 
  1197.25,894.957 1197.37,892.5 1197.71,890.043 1197.79,887.585 1198.29,885.128 1199.01,882.671 1199.05,880.214 1199.92,877.757 1200.82,875.299 1201.91,872.842 
  1202.58,870.385 1202.65,867.928 1202.92,865.471 1203.1,863.014 1204.23,860.556 1204.76,858.099 1204.94,855.642 1206.06,853.185 1206.48,850.728 1207.16,848.27 
  1207.35,845.813 1209.45,843.356 1210.1,840.899 1210.2,838.442 1210.28,835.984 1211.45,833.527 1211.75,831.07 1212.27,828.613 1212.71,826.156 1213.84,823.698 
  1214.65,821.241 1214.77,818.784 1215.25,816.327 1216.35,813.87 1217.89,811.412 1218.57,808.955 1219.37,806.498 1219.51,804.041 1219.99,801.584 1220.08,799.127 
  1221.64,796.669 1221.92,794.212 1223.8,791.755 1225.16,789.298 1226.19,786.841 1227.06,784.383 1227.65,781.926 1227.74,779.469 1227.93,777.012 1228.98,774.555 
  1229.96,772.097 1230.02,769.64 1230.85,767.183 1231.42,764.726 1232.3,762.269 1232.76,759.811 1232.91,757.354 1235.05,754.897 1235.06,752.44 1235.61,749.983 
  1235.62,747.525 1237.28,745.068 1237.61,742.611 1239.76,740.154 1241.3,737.697 1241.76,735.239 1242.13,732.782 1242.28,730.325 1243.94,727.868 1245.8,725.411 
  1246.08,722.954 1249.49,720.496 1250.54,718.039 1251.87,715.582 1252.34,713.125 1252.63,710.668 1253.23,708.21 1253.97,705.753 1253.98,703.296 1254.69,700.839 
  1255.46,698.382 1256.31,695.924 1257.72,693.467 1258.87,691.01 1260.22,688.553 1260.62,686.096 1261.16,683.638 1261.47,681.181 1261.56,678.724 1262.4,676.267 
  1263.64,673.81 1267.25,671.352 1267.95,668.895 1267.95,666.438 1269.14,663.981 1269.37,661.524 1269.52,659.067 1269.6,656.609 1269.87,654.152 1272.32,651.695 
  1272.37,649.238 1273.8,646.781 1276.07,644.323 1277.64,641.866 1277.74,639.409 1278.42,636.952 1278.9,634.495 1279.25,632.037 1281.93,629.58 1282.89,627.123 
  1282.95,624.666 1283.06,622.209 1283.35,619.751 1283.5,617.294 1284.46,614.837 1285.42,612.38 1286.15,609.923 1286.7,607.465 1286.79,605.008 1288.23,602.551 
  1289.21,600.094 1293.24,597.637 1293.99,595.179 1294.17,592.722 1296.17,590.265 1297.39,587.808 1300.47,585.351 1303.04,582.894 1303.86,580.436 1308.31,577.979 
  1312.71,575.522 1313.22,573.065 1313.48,570.608 1313.59,568.15 1317.72,565.693 1321.49,563.236 1321.81,560.779 1322.8,558.322 1325.62,555.864 1325.87,553.407 
  1326.98,550.95 1327.17,548.493 1327.2,546.036 1329.36,543.578 1330.01,541.121 1330.75,538.664 1331.08,536.207 1331.31,533.75 1331.4,531.292 1333.36,528.835 
  1334.29,526.378 1335.09,523.921 1336.98,521.464 1337.05,519.006 1337.27,516.549 1339.23,514.092 1341.35,511.635 1344.63,509.178 1347.49,506.721 1348.03,504.263 
  1352.87,501.806 1353.49,499.349 1355.36,496.892 1359.34,494.435 1359.72,491.977 1364.56,489.52 1368.4,487.063 1369.48,484.606 1370.54,482.149 1371.95,479.691 
  1371.99,477.234 1373.62,474.777 1374.84,472.32 1375,469.863 1377.41,467.405 1377.79,464.948 1377.81,462.491 1379.43,460.034 1383.65,457.577 1384.7,455.119 
  1384.73,452.662 1385.06,450.205 1385.46,447.748 1385.46,445.291 1387.16,442.834 1387.31,440.376 1389.93,437.919 1390.45,435.462 1390.5,433.005 1390.89,430.548 
  1391.07,428.09 1399.16,425.633 1400.09,423.176 1402.23,420.719 1406.54,418.262 1410.35,415.804 1410.63,413.347 1410.85,410.89 1414,408.433 1418.69,405.976 
  1422.45,403.518 1422.79,401.061 1424.64,398.604 1428.51,396.147 1430.76,393.69 1434.27,391.232 1434.39,388.775 1436.86,386.318 1438.94,383.861 1444.02,381.404 
  1447.96,378.946 1452.5,376.489 1462.99,374.032 1463.14,371.575 1464.96,369.118 1465.56,366.661 1466.3,364.203 1468.64,361.746 1477.89,359.289 1478.74,356.832 
  1483.82,354.375 1484.16,351.917 1486.46,349.46 1489.09,347.003 1489.19,344.546 1496.5,342.089 1499.87,339.631 1501.18,337.174 1505.04,334.717 1506.34,332.26 
  1517.3,329.803 1518.48,327.345 1518.62,324.888 1520.13,322.431 1524.73,319.974 1535.37,317.517 1536.24,315.059 1538.62,312.602 1539.54,310.145 1547.77,307.688 
  1550.65,305.231 1554.09,302.774 1556.04,300.316 1559.56,297.859 1562.1,295.402 1563.35,292.945 1568.24,290.488 1569.34,288.03 1570.25,285.573 1572.75,283.116 
  1575.05,280.659 1576.21,278.202 1577.51,275.744 1578.84,273.287 1578.91,270.83 1585.81,268.373 1588.78,265.916 1596.46,263.458 1598.61,261.001 1605.83,258.544 
  1625.32,256.087 1626.28,253.63 1634.55,251.172 1638.49,248.715 1643.17,246.258 1643.79,243.801 1665.12,241.344 1668.21,238.886 1668.55,236.429 1670.58,233.972 
  1674.17,231.515 1675.12,229.058 1680.65,226.601 1681.18,224.143 1682.69,221.686 1694.17,219.229 1733.95,216.772 1736.29,214.315 1744.33,211.857 1756.02,209.4 
  1758.44,206.943 1763.44,204.486 1800.03,202.029 1801.12,199.571 1802.96,197.114 1807.39,194.657 1833.84,192.2 1866.85,189.743 1895.31,187.285 1899.77,184.828 
  1914.68,182.371 1933.59,179.914 1943.79,177.457 1959.24,174.999 1983.33,172.542 2018.41,170.085 2044.48,167.628 2083.78,165.171 2251.14,162.713 2293.23,160.256 
  
  "/>
<polyline clip-path="url(#clip602)" style="stroke:#e26f46; stroke-linecap:round; stroke-linejoin:round; stroke-width:4; stroke-opacity:1; fill:none" points="
  884.911,1386.4 967.6,1383.94 1061.52,1381.48 1069.03,1379.02 1093.26,1376.57 1109.25,1374.11 1109.33,1371.65 1125.18,1369.2 1128.19,1366.74 1130.44,1364.28 
  1133.21,1361.82 1134.04,1359.37 1134.24,1356.91 1136.54,1354.45 1139.23,1351.99 1142.54,1349.54 1143.35,1347.08 1144.77,1344.62 1145.47,1342.17 1149.28,1339.71 
  1149.43,1337.25 1151.01,1334.79 1151.36,1332.34 1151.54,1329.88 1154.35,1327.42 1155.38,1324.97 1158.15,1322.51 1158.33,1320.05 1160.15,1317.59 1160.57,1315.14 
  1161.08,1312.68 1163.68,1310.22 1164.52,1307.77 1165.19,1305.31 1165.47,1302.85 1167.33,1300.39 1167.34,1297.94 1167.39,1295.48 1167.77,1293.02 1168.61,1290.57 
  1168.98,1288.11 1170.11,1285.65 1170.19,1283.19 1170.34,1280.74 1171.43,1278.28 1171.65,1275.82 1172.06,1273.36 1173.1,1270.91 1173.52,1268.45 1174.04,1265.99 
  1174.15,1263.54 1175.18,1261.08 1175.25,1258.62 1175.58,1256.16 1176.17,1253.71 1176.3,1251.25 1177.58,1248.79 1179,1246.34 1179.9,1243.88 1180.27,1241.42 
  1180.78,1238.96 1181.23,1236.51 1181.63,1234.05 1182.41,1231.59 1183.21,1229.14 1184.39,1226.68 1184.47,1224.22 1184.54,1221.76 1185.52,1219.31 1185.59,1216.85 
  1185.81,1214.39 1186.66,1211.93 1187.66,1209.48 1188.23,1207.02 1188.5,1204.56 1189.7,1202.11 1190.61,1199.65 1191.27,1197.19 1191.91,1194.73 1193.23,1192.28 
  1193.24,1189.82 1193.89,1187.36 1194.52,1184.91 1195.09,1182.45 1196.2,1179.99 1196.31,1177.53 1196.31,1175.08 1196.45,1172.62 1196.47,1170.16 1198.16,1167.71 
  1198.86,1165.25 1200.63,1162.79 1200.7,1160.33 1201.4,1157.88 1202.3,1155.42 1202.33,1152.96 1202.69,1150.51 1203.1,1148.05 1203.16,1145.59 1203.45,1143.13 
  1204.17,1140.68 1204.79,1138.22 1205.26,1135.76 1205.5,1133.3 1206.03,1130.85 1206.39,1128.39 1206.96,1125.93 1206.98,1123.48 1207.2,1121.02 1207.94,1118.56 
  1210.23,1116.1 1212.12,1113.65 1212.19,1111.19 1213.49,1108.73 1213.62,1106.28 1213.77,1103.82 1213.79,1101.36 1214.07,1098.9 1214.15,1096.45 1214.26,1093.99 
  1214.3,1091.53 1214.96,1089.08 1215.2,1086.62 1215.86,1084.16 1216.12,1081.7 1216.39,1079.25 1216.62,1076.79 1216.82,1074.33 1216.97,1071.87 1217.43,1069.42 
  1217.87,1066.96 1217.91,1064.5 1218.07,1062.05 1218.49,1059.59 1219.57,1057.13 1220.26,1054.67 1221.09,1052.22 1221.78,1049.76 1222.38,1047.3 1222.52,1044.85 
  1222.83,1042.39 1223.24,1039.93 1223.26,1037.47 1223.68,1035.02 1223.75,1032.56 1224.17,1030.1 1224.41,1027.65 1225.38,1025.19 1225.45,1022.73 1225.61,1020.27 
  1226.22,1017.82 1226.29,1015.36 1226.46,1012.9 1226.51,1010.45 1227.1,1007.99 1227.41,1005.53 1227.53,1003.07 1227.99,1000.62 1228.02,998.159 1228.09,995.702 
  1228.9,993.245 1229.66,990.788 1230.55,988.33 1230.63,985.873 1230.92,983.416 1231.69,980.959 1232.64,978.502 1232.69,976.044 1232.94,973.587 1232.95,971.13 
  1232.99,968.673 1233.2,966.216 1233.41,963.758 1233.44,961.301 1234.01,958.844 1234.93,956.387 1235.49,953.93 1235.84,951.472 1236.57,949.015 1237.04,946.558 
  1237.52,944.101 1238.83,941.644 1238.86,939.187 1239.04,936.729 1239.47,934.272 1240.2,931.815 1240.56,929.358 1240.57,926.901 1240.72,924.443 1240.99,921.986 
  1241.02,919.529 1241.12,917.072 1241.25,914.615 1241.68,912.157 1241.87,909.7 1241.99,907.243 1242.7,904.786 1243.03,902.329 1243.76,899.871 1244.37,897.414 
  1244.83,894.957 1245.49,892.5 1245.8,890.043 1246.78,887.585 1247.62,885.128 1250.23,882.671 1251.93,880.214 1252.47,877.757 1252.87,875.299 1253.01,872.842 
  1253.06,870.385 1253.44,867.928 1253.6,865.471 1255.77,863.014 1256.32,860.556 1257.71,858.099 1257.74,855.642 1259.97,853.185 1260.44,850.728 1261.19,848.27 
  1261.39,845.813 1263.11,843.356 1264.61,840.899 1266.44,838.442 1268.25,835.984 1269.13,833.527 1269.85,831.07 1270.25,828.613 1270.61,826.156 1270.8,823.698 
  1271.41,821.241 1271.45,818.784 1272.74,816.327 1273.32,813.87 1273.5,811.412 1274.99,808.955 1275.8,806.498 1275.81,804.041 1276.92,801.584 1280.3,799.127 
  1280.61,796.669 1280.78,794.212 1281.28,791.755 1281.61,789.298 1282.15,786.841 1282.96,784.383 1283.32,781.926 1283.69,779.469 1283.93,777.012 1284.28,774.555 
  1287.83,772.097 1288.2,769.64 1289.03,767.183 1289.09,764.726 1289.88,762.269 1290.05,759.811 1290.49,757.354 1291.22,754.897 1294.29,752.44 1295.33,749.983 
  1296.45,747.525 1297.29,745.068 1298.95,742.611 1299.82,740.154 1301.02,737.697 1301.22,735.239 1302.15,732.782 1302.69,730.325 1303.39,727.868 1304.04,725.411 
  1304.94,722.954 1304.95,720.496 1306.58,718.039 1307.82,715.582 1307.96,713.125 1308.04,710.668 1308.84,708.21 1309.64,705.753 1309.72,703.296 1309.88,700.839 
  1312.52,698.382 1314.3,695.924 1314.65,693.467 1314.91,691.01 1315.02,688.553 1315.63,686.096 1316.63,683.638 1316.81,681.181 1317.35,678.724 1317.97,676.267 
  1318.55,673.81 1318.6,671.352 1319.53,668.895 1319.71,666.438 1322.64,663.981 1323.29,661.524 1323.6,659.067 1323.89,656.609 1325.22,654.152 1326.12,651.695 
  1327.2,649.238 1327.8,646.781 1329.16,644.323 1329.31,641.866 1331.49,639.409 1331.5,636.952 1333.12,634.495 1333.74,632.037 1336.13,629.58 1336.18,627.123 
  1336.71,624.666 1337.4,622.209 1340.48,619.751 1342.45,617.294 1342.57,614.837 1344.33,612.38 1345.43,609.923 1345.82,607.465 1346.74,605.008 1347.81,602.551 
  1348.47,600.094 1351.94,597.637 1352.89,595.179 1353.71,592.722 1356.11,590.265 1356.21,587.808 1357.28,585.351 1357.33,582.894 1357.86,580.436 1359.98,577.979 
  1360.99,575.522 1361.32,573.065 1363.34,570.608 1367.39,568.15 1368.33,565.693 1368.51,563.236 1369.39,560.779 1369.58,558.322 1369.77,555.864 1372.94,553.407 
  1375.3,550.95 1378.64,548.493 1378.67,546.036 1380,543.578 1382.35,541.121 1384.86,538.664 1386.06,536.207 1386.26,533.75 1386.51,531.292 1386.9,528.835 
  1389.2,526.378 1391.2,523.921 1391.59,521.464 1391.76,519.006 1393.67,516.549 1394.18,514.092 1394.82,511.635 1395.49,509.178 1395.81,506.721 1397.69,504.263 
  1398.12,501.806 1399.94,499.349 1400.53,496.892 1402.07,494.435 1402.57,491.977 1403.03,489.52 1403.17,487.063 1403.19,484.606 1404.84,482.149 1404.91,479.691 
  1405.44,477.234 1407.57,474.777 1407.8,472.32 1407.88,469.863 1411.95,467.405 1418.44,464.948 1419.15,462.491 1419.27,460.034 1422.93,457.577 1423.88,455.119 
  1425.92,452.662 1427.38,450.205 1428.09,447.748 1430.44,445.291 1430.95,442.834 1431.14,440.376 1431.91,437.919 1432.13,435.462 1434.77,433.005 1438.23,430.548 
  1442.81,428.09 1443.1,425.633 1448.85,423.176 1451.3,420.719 1451.68,418.262 1452.47,415.804 1452.97,413.347 1457.09,410.89 1457.83,408.433 1465.39,405.976 
  1466.9,403.518 1468.94,401.061 1477.47,398.604 1478.5,396.147 1480.11,393.69 1481.58,391.232 1485.03,388.775 1487.73,386.318 1489.16,383.861 1489.63,381.404 
  1493.51,378.946 1495.97,376.489 1496.04,374.032 1499.03,371.575 1501.83,369.118 1501.84,366.661 1503.74,364.203 1507.7,361.746 1508.77,359.289 1517.17,356.832 
  1517.78,354.375 1518.38,351.917 1518.59,349.46 1519.84,347.003 1522.97,344.546 1525.59,342.089 1525.74,339.631 1529.34,337.174 1532.58,334.717 1533.02,332.26 
  1540.52,329.803 1541.74,327.345 1542.79,324.888 1543.06,322.431 1543.84,319.974 1552.01,317.517 1554.79,315.059 1555,312.602 1556.33,310.145 1561.61,307.688 
  1562.83,305.231 1582.24,302.774 1583.08,300.316 1597.36,297.859 1601.53,295.402 1607.73,292.945 1608.66,290.488 1609.61,288.03 1610.98,285.573 1613.53,283.116 
  1616.44,280.659 1620.34,278.202 1634.06,275.744 1638.08,273.287 1642.89,270.83 1645.3,268.373 1646.57,265.916 1647.11,263.458 1649.24,261.001 1652.03,258.544 
  1653.61,256.087 1654.67,253.63 1669.65,251.172 1674.85,248.715 1677.68,246.258 1687.3,243.801 1688.95,241.344 1705,238.886 1707.36,236.429 1712.68,233.972 
  1721.52,231.515 1725.77,229.058 1733.58,226.601 1735.41,224.143 1735.96,221.686 1739.29,219.229 1741.39,216.772 1759.88,214.315 1773.93,211.857 1774.62,209.4 
  1784.88,206.943 1796.85,204.486 1806.84,202.029 1808.46,199.571 1822.95,197.114 1837.58,194.657 1838.85,192.2 1842.86,189.743 1845.19,187.285 1868.32,184.828 
  1874.73,182.371 1898.68,179.914 1910.32,177.457 1926.65,174.999 1940.86,172.542 1995.6,170.085 2029.25,167.628 2033.98,165.171 2079.87,162.713 2176.18,160.256 
  
  "/>
<path clip-path="url(#clip600)" d="
M1865.37 1379.86 L2282.65 1379.86 L2282.65 1263.22 L1865.37 1263.22  Z
  " fill="#ffffff" fill-rule="evenodd" fill-opacity="1"/>
<polyline clip-path="url(#clip600)" style="stroke:#000000; stroke-linecap:round; stroke-linejoin:round; stroke-width:4; stroke-opacity:1; fill:none" points="
  1865.37,1379.86 2282.65,1379.86 2282.65,1263.22 1865.37,1263.22 1865.37,1379.86 
  "/>
<polyline clip-path="url(#clip600)" style="stroke:#009af9; stroke-linecap:round; stroke-linejoin:round; stroke-width:3; stroke-opacity:1; fill:none" points="
  1888.74,1302.1 2028.95,1302.1 
  "/>
<path clip-path="url(#clip600)" d="M2052.32 1289.14 L2057.04 1289.14 L2068.53 1310.82 L2068.53 1289.14 L2071.94 1289.14 L2071.94 1315.06 L2067.21 1315.06 L2055.72 1293.37 L2055.72 1315.06 L2052.32 1315.06 L2052.32 1289.14 Z" fill="#000000" fill-rule="evenodd" fill-opacity="1" /><path clip-path="url(#clip600)" d="M2086.31 1297.85 Q2083.74 1297.85 2082.25 1299.87 Q2080.76 1301.86 2080.76 1305.35 Q2080.76 1308.84 2082.23 1310.85 Q2083.73 1312.85 2086.31 1312.85 Q2088.86 1312.85 2090.36 1310.84 Q2091.85 1308.82 2091.85 1305.35 Q2091.85 1301.9 2090.36 1299.88 Q2088.86 1297.85 2086.31 1297.85 M2086.31 1295.14 Q2090.48 1295.14 2092.86 1297.85 Q2095.24 1300.56 2095.24 1305.35 Q2095.24 1310.13 2092.86 1312.85 Q2090.48 1315.56 2086.31 1315.56 Q2082.13 1315.56 2079.75 1312.85 Q2077.39 1310.13 2077.39 1305.35 Q2077.39 1300.56 2079.75 1297.85 Q2082.13 1295.14 2086.31 1295.14 Z" fill="#000000" fill-rule="evenodd" fill-opacity="1" /><path clip-path="url(#clip600)" d="M2123.1 1298.6 Q2122.56 1298.29 2121.92 1298.15 Q2121.29 1297.99 2120.53 1297.99 Q2117.82 1297.99 2116.36 1299.76 Q2114.92 1301.51 2114.92 1304.81 L2114.92 1315.06 L2111.71 1315.06 L2111.71 1295.61 L2114.92 1295.61 L2114.92 1298.63 Q2115.93 1296.86 2117.54 1296.01 Q2119.16 1295.14 2121.47 1295.14 Q2121.8 1295.14 2122.2 1295.2 Q2122.6 1295.23 2123.08 1295.32 L2123.1 1298.6 Z" fill="#000000" fill-rule="evenodd" fill-opacity="1" /><path clip-path="url(#clip600)" d="M2142.3 1304.54 L2142.3 1306.1 L2127.61 1306.1 Q2127.82 1309.4 2129.59 1311.13 Q2131.38 1312.85 2134.56 1312.85 Q2136.4 1312.85 2138.12 1312.4 Q2139.85 1311.95 2141.55 1311.05 L2141.55 1314.07 Q2139.84 1314.8 2138.03 1315.18 Q2136.22 1315.56 2134.37 1315.56 Q2129.71 1315.56 2126.99 1312.85 Q2124.28 1310.14 2124.28 1305.53 Q2124.28 1300.75 2126.85 1297.96 Q2129.44 1295.14 2133.81 1295.14 Q2137.74 1295.14 2140.01 1297.68 Q2142.3 1300.2 2142.3 1304.54 M2139.11 1303.6 Q2139.07 1300.98 2137.63 1299.41 Q2136.21 1297.85 2133.85 1297.85 Q2131.17 1297.85 2129.56 1299.36 Q2127.96 1300.87 2127.72 1303.62 L2139.11 1303.6 Z" fill="#000000" fill-rule="evenodd" fill-opacity="1" /><path clip-path="url(#clip600)" d="M2159.94 1296.18 L2159.94 1299.21 Q2158.59 1298.51 2157.13 1298.16 Q2155.67 1297.82 2154.11 1297.82 Q2151.73 1297.82 2150.53 1298.55 Q2149.35 1299.28 2149.35 1300.73 Q2149.35 1301.84 2150.2 1302.49 Q2151.05 1303.11 2153.62 1303.68 L2154.71 1303.93 Q2158.12 1304.66 2159.54 1305.99 Q2160.98 1307.31 2160.98 1309.69 Q2160.98 1312.4 2158.83 1313.98 Q2156.69 1315.56 2152.94 1315.56 Q2151.38 1315.56 2149.68 1315.25 Q2148 1314.95 2146.12 1314.34 L2146.12 1311.05 Q2147.89 1311.97 2149.61 1312.43 Q2151.33 1312.89 2153.01 1312.89 Q2155.27 1312.89 2156.49 1312.12 Q2157.7 1311.34 2157.7 1309.93 Q2157.7 1308.63 2156.82 1307.94 Q2155.95 1307.24 2152.98 1306.6 L2151.87 1306.34 Q2148.9 1305.72 2147.58 1304.43 Q2146.26 1303.13 2146.26 1300.87 Q2146.26 1298.13 2148.2 1296.64 Q2150.15 1295.14 2153.72 1295.14 Q2155.5 1295.14 2157.06 1295.4 Q2158.62 1295.66 2159.94 1296.18 Z" fill="#000000" fill-rule="evenodd" fill-opacity="1" /><path clip-path="url(#clip600)" d="M2182.7 1304.54 L2182.7 1306.1 L2168.01 1306.1 Q2168.22 1309.4 2169.99 1311.13 Q2171.78 1312.85 2174.96 1312.85 Q2176.8 1312.85 2178.52 1312.4 Q2180.25 1311.95 2181.95 1311.05 L2181.95 1314.07 Q2180.24 1314.8 2178.43 1315.18 Q2176.62 1315.56 2174.77 1315.56 Q2170.11 1315.56 2167.39 1312.85 Q2164.68 1310.14 2164.68 1305.53 Q2164.68 1300.75 2167.25 1297.96 Q2169.84 1295.14 2174.21 1295.14 Q2178.13 1295.14 2180.41 1297.68 Q2182.7 1300.2 2182.7 1304.54 M2179.51 1303.6 Q2179.47 1300.98 2178.03 1299.41 Q2176.61 1297.85 2174.25 1297.85 Q2171.57 1297.85 2169.96 1299.36 Q2168.36 1300.87 2168.12 1303.62 L2179.51 1303.6 Z" fill="#000000" fill-rule="evenodd" fill-opacity="1" /><path clip-path="url(#clip600)" d="M2196.78 1305.28 Q2192.91 1305.28 2191.42 1306.17 Q2189.92 1307.05 2189.92 1309.19 Q2189.92 1310.89 2191.03 1311.9 Q2192.16 1312.89 2194.09 1312.89 Q2196.75 1312.89 2198.34 1311.01 Q2199.96 1309.12 2199.96 1305.99 L2199.96 1305.28 L2196.78 1305.28 M2203.15 1303.96 L2203.15 1315.06 L2199.96 1315.06 L2199.96 1312.1 Q2198.86 1313.88 2197.23 1314.73 Q2195.6 1315.56 2193.24 1315.56 Q2190.25 1315.56 2188.48 1313.89 Q2186.73 1312.21 2186.73 1309.4 Q2186.73 1306.12 2188.92 1304.45 Q2191.12 1302.78 2195.48 1302.78 L2199.96 1302.78 L2199.96 1302.47 Q2199.96 1300.26 2198.5 1299.07 Q2197.06 1297.85 2194.44 1297.85 Q2192.77 1297.85 2191.19 1298.25 Q2189.61 1298.65 2188.15 1299.45 L2188.15 1296.5 Q2189.91 1295.82 2191.55 1295.49 Q2193.2 1295.14 2194.77 1295.14 Q2198.98 1295.14 2201.07 1297.33 Q2203.15 1299.52 2203.15 1303.96 Z" fill="#000000" fill-rule="evenodd" fill-opacity="1" /><path clip-path="url(#clip600)" d="M2221 1298.6 Q2220.46 1298.29 2219.82 1298.15 Q2219.19 1297.99 2218.43 1297.99 Q2215.72 1297.99 2214.26 1299.76 Q2212.82 1301.51 2212.82 1304.81 L2212.82 1315.06 L2209.61 1315.06 L2209.61 1295.61 L2212.82 1295.61 L2212.82 1298.63 Q2213.83 1296.86 2215.44 1296.01 Q2217.06 1295.14 2219.37 1295.14 Q2219.7 1295.14 2220.1 1295.2 Q2220.5 1295.23 2220.98 1295.32 L2221 1298.6 Z" fill="#000000" fill-rule="evenodd" fill-opacity="1" /><path clip-path="url(#clip600)" d="M2237.56 1296.36 L2237.56 1299.34 Q2236.21 1298.6 2234.84 1298.23 Q2233.48 1297.85 2232.09 1297.85 Q2228.98 1297.85 2227.27 1299.83 Q2225.55 1301.79 2225.55 1305.35 Q2225.55 1308.91 2227.27 1310.89 Q2228.98 1312.85 2232.09 1312.85 Q2233.48 1312.85 2234.84 1312.49 Q2236.21 1312.1 2237.56 1311.36 L2237.56 1314.31 Q2236.22 1314.93 2234.78 1315.25 Q2233.36 1315.56 2231.75 1315.56 Q2227.35 1315.56 2224.77 1312.8 Q2222.18 1310.04 2222.18 1305.35 Q2222.18 1300.59 2224.78 1297.87 Q2227.4 1295.14 2231.95 1295.14 Q2233.43 1295.14 2234.84 1295.46 Q2236.24 1295.75 2237.56 1296.36 Z" fill="#000000" fill-rule="evenodd" fill-opacity="1" /><path clip-path="url(#clip600)" d="M2259.28 1303.32 L2259.28 1315.06 L2256.09 1315.06 L2256.09 1303.42 Q2256.09 1300.66 2255.01 1299.29 Q2253.93 1297.92 2251.78 1297.92 Q2249.19 1297.92 2247.7 1299.57 Q2246.21 1301.22 2246.21 1304.07 L2246.21 1315.06 L2243 1315.06 L2243 1288.04 L2246.21 1288.04 L2246.21 1298.63 Q2247.35 1296.88 2248.9 1296.01 Q2250.46 1295.14 2252.49 1295.14 Q2255.84 1295.14 2257.56 1297.23 Q2259.28 1299.29 2259.28 1303.32 Z" fill="#000000" fill-rule="evenodd" fill-opacity="1" /><polyline clip-path="url(#clip600)" style="stroke:#e26f46; stroke-linecap:round; stroke-linejoin:round; stroke-width:3; stroke-opacity:1; fill:none" points="
  1888.74,1340.98 2028.95,1340.98 
  "/>
<path clip-path="url(#clip600)" d="M2064.61 1341.78 Q2065.74 1342.17 2066.8 1343.42 Q2067.87 1344.67 2068.95 1346.85 L2072.51 1353.94 L2068.74 1353.94 L2065.43 1347.29 Q2064.14 1344.68 2062.93 1343.83 Q2061.73 1342.98 2059.65 1342.98 L2055.83 1342.98 L2055.83 1353.94 L2052.32 1353.94 L2052.32 1328.02 L2060.24 1328.02 Q2064.68 1328.02 2066.87 1329.87 Q2069.06 1331.73 2069.06 1335.48 Q2069.06 1337.93 2067.91 1339.54 Q2066.78 1341.16 2064.61 1341.78 M2055.83 1330.9 L2055.83 1340.1 L2060.24 1340.1 Q2062.77 1340.1 2064.06 1338.94 Q2065.36 1337.76 2065.36 1335.48 Q2065.36 1333.21 2064.06 1332.06 Q2062.77 1330.9 2060.24 1330.9 L2055.83 1330.9 Z" fill="#000000" fill-rule="evenodd" fill-opacity="1" /><path clip-path="url(#clip600)" d="M2091.92 1343.42 L2091.92 1344.98 L2077.23 1344.98 Q2077.44 1348.28 2079.21 1350.01 Q2081 1351.73 2084.18 1351.73 Q2086.02 1351.73 2087.74 1351.28 Q2089.47 1350.83 2091.17 1349.93 L2091.17 1352.95 Q2089.45 1353.68 2087.65 1354.06 Q2085.84 1354.44 2083.99 1354.44 Q2079.33 1354.44 2076.61 1351.73 Q2073.9 1349.02 2073.9 1344.41 Q2073.9 1339.63 2076.47 1336.84 Q2079.06 1334.02 2083.43 1334.02 Q2087.35 1334.02 2089.63 1336.56 Q2091.92 1339.08 2091.92 1343.42 M2088.73 1342.48 Q2088.69 1339.86 2087.25 1338.29 Q2085.83 1336.73 2083.46 1336.73 Q2080.79 1336.73 2079.18 1338.24 Q2077.58 1339.75 2077.34 1342.5 L2088.73 1342.48 Z" fill="#000000" fill-rule="evenodd" fill-opacity="1" /><path clip-path="url(#clip600)" d="M2109.56 1335.06 L2109.56 1338.09 Q2108.2 1337.39 2106.75 1337.04 Q2105.29 1336.7 2103.73 1336.7 Q2101.35 1336.7 2100.15 1337.43 Q2098.97 1338.16 2098.97 1339.61 Q2098.97 1340.72 2099.82 1341.37 Q2100.67 1341.99 2103.24 1342.56 L2104.33 1342.81 Q2107.74 1343.54 2109.16 1344.87 Q2110.6 1346.19 2110.6 1348.57 Q2110.6 1351.28 2108.45 1352.86 Q2106.31 1354.44 2102.56 1354.44 Q2101 1354.44 2099.3 1354.13 Q2097.61 1353.83 2095.74 1353.22 L2095.74 1349.93 Q2097.51 1350.85 2099.23 1351.31 Q2100.95 1351.77 2102.63 1351.77 Q2104.89 1351.77 2106.1 1351 Q2107.32 1350.22 2107.32 1348.81 Q2107.32 1347.51 2106.43 1346.82 Q2105.57 1346.12 2102.6 1345.48 L2101.49 1345.22 Q2098.52 1344.6 2097.2 1343.31 Q2095.88 1342.01 2095.88 1339.75 Q2095.88 1337.01 2097.82 1335.52 Q2099.77 1334.02 2103.34 1334.02 Q2105.11 1334.02 2106.68 1334.28 Q2108.24 1334.54 2109.56 1335.06 Z" fill="#000000" fill-rule="evenodd" fill-opacity="1" /><path clip-path="url(#clip600)" d="M2132.32 1343.42 L2132.32 1344.98 L2117.63 1344.98 Q2117.84 1348.28 2119.61 1350.01 Q2121.4 1351.73 2124.58 1351.73 Q2126.42 1351.73 2128.13 1351.28 Q2129.87 1350.83 2131.57 1349.93 L2131.57 1352.95 Q2129.85 1353.68 2128.05 1354.06 Q2126.24 1354.44 2124.38 1354.44 Q2119.73 1354.44 2117.01 1351.73 Q2114.3 1349.02 2114.3 1344.41 Q2114.3 1339.63 2116.87 1336.84 Q2119.45 1334.02 2123.83 1334.02 Q2127.75 1334.02 2130.03 1336.56 Q2132.32 1339.08 2132.32 1343.42 M2129.12 1342.48 Q2129.09 1339.86 2127.65 1338.29 Q2126.22 1336.73 2123.86 1336.73 Q2121.19 1336.73 2119.58 1338.24 Q2117.98 1339.75 2117.74 1342.5 L2129.12 1342.48 Z" fill="#000000" fill-rule="evenodd" fill-opacity="1" /><path clip-path="url(#clip600)" d="M2146.4 1344.16 Q2142.53 1344.16 2141.03 1345.05 Q2139.54 1345.93 2139.54 1348.07 Q2139.54 1349.77 2140.65 1350.78 Q2141.78 1351.77 2143.71 1351.77 Q2146.36 1351.77 2147.96 1349.89 Q2149.58 1348 2149.58 1344.87 L2149.58 1344.16 L2146.4 1344.16 M2152.77 1342.84 L2152.77 1353.94 L2149.58 1353.94 L2149.58 1350.98 Q2148.48 1352.76 2146.85 1353.61 Q2145.22 1354.44 2142.86 1354.44 Q2139.87 1354.44 2138.1 1352.77 Q2136.35 1351.09 2136.35 1348.28 Q2136.35 1345 2138.53 1343.33 Q2140.74 1341.66 2145.1 1341.66 L2149.58 1341.66 L2149.58 1341.35 Q2149.58 1339.14 2148.12 1337.95 Q2146.68 1336.73 2144.05 1336.73 Q2142.39 1336.73 2140.81 1337.13 Q2139.23 1337.53 2137.77 1338.33 L2137.77 1335.38 Q2139.52 1334.7 2141.17 1334.37 Q2142.82 1334.02 2144.38 1334.02 Q2148.6 1334.02 2150.69 1336.21 Q2152.77 1338.4 2152.77 1342.84 Z" fill="#000000" fill-rule="evenodd" fill-opacity="1" /><path clip-path="url(#clip600)" d="M2170.62 1337.48 Q2170.08 1337.17 2169.44 1337.03 Q2168.81 1336.87 2168.05 1336.87 Q2165.34 1336.87 2163.88 1338.64 Q2162.44 1340.39 2162.44 1343.69 L2162.44 1353.94 L2159.23 1353.94 L2159.23 1334.49 L2162.44 1334.49 L2162.44 1337.51 Q2163.45 1335.74 2165.06 1334.89 Q2166.68 1334.02 2168.99 1334.02 Q2169.31 1334.02 2169.71 1334.08 Q2170.11 1334.11 2170.6 1334.2 L2170.62 1337.48 Z" fill="#000000" fill-rule="evenodd" fill-opacity="1" /><path clip-path="url(#clip600)" d="M2187.18 1335.24 L2187.18 1338.22 Q2185.83 1337.48 2184.45 1337.11 Q2183.1 1336.73 2181.71 1336.73 Q2178.6 1336.73 2176.88 1338.71 Q2175.17 1340.67 2175.17 1344.23 Q2175.17 1347.79 2176.88 1349.77 Q2178.6 1351.73 2181.71 1351.73 Q2183.1 1351.73 2184.45 1351.37 Q2185.83 1350.98 2187.18 1350.24 L2187.18 1353.19 Q2185.84 1353.81 2184.4 1354.13 Q2182.98 1354.44 2181.36 1354.44 Q2176.97 1354.44 2174.38 1351.68 Q2171.8 1348.92 2171.8 1344.23 Q2171.8 1339.47 2174.4 1336.75 Q2177.02 1334.02 2181.57 1334.02 Q2183.05 1334.02 2184.45 1334.34 Q2185.86 1334.63 2187.18 1335.24 Z" fill="#000000" fill-rule="evenodd" fill-opacity="1" /><path clip-path="url(#clip600)" d="M2208.9 1342.2 L2208.9 1353.94 L2205.7 1353.94 L2205.7 1342.3 Q2205.7 1339.54 2204.63 1338.17 Q2203.55 1336.8 2201.4 1336.8 Q2198.81 1336.8 2197.32 1338.45 Q2195.83 1340.1 2195.83 1342.95 L2195.83 1353.94 L2192.61 1353.94 L2192.61 1326.92 L2195.83 1326.92 L2195.83 1337.51 Q2196.97 1335.76 2198.52 1334.89 Q2200.08 1334.02 2202.11 1334.02 Q2205.46 1334.02 2207.18 1336.11 Q2208.9 1338.17 2208.9 1342.2 Z" fill="#000000" fill-rule="evenodd" fill-opacity="1" /></svg>
