<?xml version="1.0" encoding="utf-8"?>
<svg xmlns="http://www.w3.org/2000/svg" xmlns:xlink="http://www.w3.org/1999/xlink" width="600" height="400" viewBox="0 0 2400 1600">
<defs>
  <clipPath id="clip910">
    <rect x="0" y="0" width="2400" height="1600"/>
  </clipPath>
</defs>
<path clip-path="url(#clip910)" d="
M0 1600 L2400 1600 L2400 0 L0 0  Z
  " fill="#ffffff" fill-rule="evenodd" fill-opacity="1"/>
<defs>
  <clipPath id="clip911">
    <rect x="480" y="0" width="1681" height="1600"/>
  </clipPath>
</defs>
<path clip-path="url(#clip910)" d="
M249.542 1423.18 L2352.76 1423.18 L2352.76 123.472 L249.542 123.472  Z
  " fill="#ffffff" fill-rule="evenodd" fill-opacity="1"/>
<defs>
  <clipPath id="clip912">
    <rect x="249" y="123" width="2104" height="1301"/>
  </clipPath>
</defs>
<polyline clip-path="url(#clip912)" style="stroke:#000000; stroke-linecap:round; stroke-linejoin:round; stroke-width:2; stroke-opacity:0.1; fill:none" points="
  406.351,1423.18 406.351,123.472 
  "/>
<polyline clip-path="url(#clip912)" style="stroke:#000000; stroke-linecap:round; stroke-linejoin:round; stroke-width:2; stroke-opacity:0.1; fill:none" points="
  937.389,1423.18 937.389,123.472 
  "/>
<polyline clip-path="url(#clip912)" style="stroke:#000000; stroke-linecap:round; stroke-linejoin:round; stroke-width:2; stroke-opacity:0.1; fill:none" points="
  1468.43,1423.18 1468.43,123.472 
  "/>
<polyline clip-path="url(#clip912)" style="stroke:#000000; stroke-linecap:round; stroke-linejoin:round; stroke-width:2; stroke-opacity:0.1; fill:none" points="
  1999.46,1423.18 1999.46,123.472 
  "/>
<polyline clip-path="url(#clip910)" style="stroke:#000000; stroke-linecap:round; stroke-linejoin:round; stroke-width:4; stroke-opacity:1; fill:none" points="
  249.542,1423.18 2352.76,1423.18 
  "/>
<polyline clip-path="url(#clip910)" style="stroke:#000000; stroke-linecap:round; stroke-linejoin:round; stroke-width:4; stroke-opacity:1; fill:none" points="
  406.351,1423.18 406.351,1404.28 
  "/>
<polyline clip-path="url(#clip910)" style="stroke:#000000; stroke-linecap:round; stroke-linejoin:round; stroke-width:4; stroke-opacity:1; fill:none" points="
  937.389,1423.18 937.389,1404.28 
  "/>
<polyline clip-path="url(#clip910)" style="stroke:#000000; stroke-linecap:round; stroke-linejoin:round; stroke-width:4; stroke-opacity:1; fill:none" points="
  1468.43,1423.18 1468.43,1404.28 
  "/>
<polyline clip-path="url(#clip910)" style="stroke:#000000; stroke-linecap:round; stroke-linejoin:round; stroke-width:4; stroke-opacity:1; fill:none" points="
  1999.46,1423.18 1999.46,1404.28 
  "/>
<path clip-path="url(#clip910)" d="M330.252 1468.75 L359.928 1468.75 L359.928 1472.69 L330.252 1472.69 L330.252 1468.75 Z" fill="#000000" fill-rule="evenodd" fill-opacity="1" /><path clip-path="url(#clip910)" d="M374.048 1481.64 L390.368 1481.64 L390.368 1485.58 L368.423 1485.58 L368.423 1481.64 Q371.085 1478.89 375.669 1474.26 Q380.275 1469.61 381.456 1468.27 Q383.701 1465.74 384.581 1464.01 Q385.484 1462.25 385.484 1460.56 Q385.484 1457.8 383.539 1456.07 Q381.618 1454.33 378.516 1454.33 Q376.317 1454.33 373.863 1455.09 Q371.433 1455.86 368.655 1457.41 L368.655 1452.69 Q371.479 1451.55 373.933 1450.97 Q376.386 1450.39 378.423 1450.39 Q383.794 1450.39 386.988 1453.08 Q390.183 1455.77 390.183 1460.26 Q390.183 1462.39 389.372 1464.31 Q388.585 1466.2 386.479 1468.8 Q385.9 1469.47 382.798 1472.69 Q379.697 1475.88 374.048 1481.64 Z" fill="#000000" fill-rule="evenodd" fill-opacity="1" /><path clip-path="url(#clip910)" d="M410.182 1454.1 Q406.571 1454.1 404.743 1457.66 Q402.937 1461.2 402.937 1468.33 Q402.937 1475.44 404.743 1479.01 Q406.571 1482.55 410.182 1482.55 Q413.817 1482.55 415.622 1479.01 Q417.451 1475.44 417.451 1468.33 Q417.451 1461.2 415.622 1457.66 Q413.817 1454.1 410.182 1454.1 M410.182 1450.39 Q415.993 1450.39 419.048 1455 Q422.127 1459.58 422.127 1468.33 Q422.127 1477.06 419.048 1481.67 Q415.993 1486.25 410.182 1486.25 Q404.372 1486.25 401.294 1481.67 Q398.238 1477.06 398.238 1468.33 Q398.238 1459.58 401.294 1455 Q404.372 1450.39 410.182 1450.39 Z" fill="#000000" fill-rule="evenodd" fill-opacity="1" /><path clip-path="url(#clip910)" d="M440.344 1454.1 Q436.733 1454.1 434.905 1457.66 Q433.099 1461.2 433.099 1468.33 Q433.099 1475.44 434.905 1479.01 Q436.733 1482.55 440.344 1482.55 Q443.979 1482.55 445.784 1479.01 Q447.613 1475.44 447.613 1468.33 Q447.613 1461.2 445.784 1457.66 Q443.979 1454.1 440.344 1454.1 M440.344 1450.39 Q446.155 1450.39 449.21 1455 Q452.289 1459.58 452.289 1468.33 Q452.289 1477.06 449.21 1481.67 Q446.155 1486.25 440.344 1486.25 Q434.534 1486.25 431.456 1481.67 Q428.4 1477.06 428.4 1468.33 Q428.4 1459.58 431.456 1455 Q434.534 1450.39 440.344 1450.39 Z" fill="#000000" fill-rule="evenodd" fill-opacity="1" /><path clip-path="url(#clip910)" d="M470.506 1454.1 Q466.895 1454.1 465.066 1457.66 Q463.261 1461.2 463.261 1468.33 Q463.261 1475.44 465.066 1479.01 Q466.895 1482.55 470.506 1482.55 Q474.14 1482.55 475.946 1479.01 Q477.775 1475.44 477.775 1468.33 Q477.775 1461.2 475.946 1457.66 Q474.14 1454.1 470.506 1454.1 M470.506 1450.39 Q476.316 1450.39 479.372 1455 Q482.451 1459.58 482.451 1468.33 Q482.451 1477.06 479.372 1481.67 Q476.316 1486.25 470.506 1486.25 Q464.696 1486.25 461.617 1481.67 Q458.562 1477.06 458.562 1468.33 Q458.562 1459.58 461.617 1455 Q464.696 1450.39 470.506 1450.39 Z" fill="#000000" fill-rule="evenodd" fill-opacity="1" /><path clip-path="url(#clip910)" d="M937.389 1454.1 Q933.778 1454.1 931.949 1457.66 Q930.144 1461.2 930.144 1468.33 Q930.144 1475.44 931.949 1479.01 Q933.778 1482.55 937.389 1482.55 Q941.023 1482.55 942.829 1479.01 Q944.658 1475.44 944.658 1468.33 Q944.658 1461.2 942.829 1457.66 Q941.023 1454.1 937.389 1454.1 M937.389 1450.39 Q943.199 1450.39 946.255 1455 Q949.333 1459.58 949.333 1468.33 Q949.333 1477.06 946.255 1481.67 Q943.199 1486.25 937.389 1486.25 Q931.579 1486.25 928.5 1481.67 Q925.445 1477.06 925.445 1468.33 Q925.445 1459.58 928.5 1455 Q931.579 1450.39 937.389 1450.39 Z" fill="#000000" fill-rule="evenodd" fill-opacity="1" /><path clip-path="url(#clip910)" d="M1417.04 1481.64 L1433.36 1481.64 L1433.36 1485.58 L1411.41 1485.58 L1411.41 1481.64 Q1414.08 1478.89 1418.66 1474.26 Q1423.26 1469.61 1424.45 1468.27 Q1426.69 1465.74 1427.57 1464.01 Q1428.47 1462.25 1428.47 1460.56 Q1428.47 1457.8 1426.53 1456.07 Q1424.61 1454.33 1421.51 1454.33 Q1419.31 1454.33 1416.85 1455.09 Q1414.42 1455.86 1411.64 1457.41 L1411.64 1452.69 Q1414.47 1451.55 1416.92 1450.97 Q1419.38 1450.39 1421.41 1450.39 Q1426.78 1450.39 1429.98 1453.08 Q1433.17 1455.77 1433.17 1460.26 Q1433.17 1462.39 1432.36 1464.31 Q1431.58 1466.2 1429.47 1468.8 Q1428.89 1469.47 1425.79 1472.69 Q1422.69 1475.88 1417.04 1481.64 Z" fill="#000000" fill-rule="evenodd" fill-opacity="1" /><path clip-path="url(#clip910)" d="M1453.17 1454.1 Q1449.56 1454.1 1447.73 1457.66 Q1445.93 1461.2 1445.93 1468.33 Q1445.93 1475.44 1447.73 1479.01 Q1449.56 1482.55 1453.17 1482.55 Q1456.81 1482.55 1458.61 1479.01 Q1460.44 1475.44 1460.44 1468.33 Q1460.44 1461.2 1458.61 1457.66 Q1456.81 1454.1 1453.17 1454.1 M1453.17 1450.39 Q1458.98 1450.39 1462.04 1455 Q1465.12 1459.58 1465.12 1468.33 Q1465.12 1477.06 1462.04 1481.67 Q1458.98 1486.25 1453.17 1486.25 Q1447.36 1486.25 1444.28 1481.67 Q1441.23 1477.06 1441.23 1468.33 Q1441.23 1459.58 1444.28 1455 Q1447.36 1450.39 1453.17 1450.39 Z" fill="#000000" fill-rule="evenodd" fill-opacity="1" /><path clip-path="url(#clip910)" d="M1483.33 1454.1 Q1479.72 1454.1 1477.89 1457.66 Q1476.09 1461.2 1476.09 1468.33 Q1476.09 1475.44 1477.89 1479.01 Q1479.72 1482.55 1483.33 1482.55 Q1486.97 1482.55 1488.77 1479.01 Q1490.6 1475.44 1490.6 1468.33 Q1490.6 1461.2 1488.77 1457.66 Q1486.97 1454.1 1483.33 1454.1 M1483.33 1450.39 Q1489.14 1450.39 1492.2 1455 Q1495.28 1459.58 1495.28 1468.33 Q1495.28 1477.06 1492.2 1481.67 Q1489.14 1486.25 1483.33 1486.25 Q1477.52 1486.25 1474.45 1481.67 Q1471.39 1477.06 1471.39 1468.33 Q1471.39 1459.58 1474.45 1455 Q1477.52 1450.39 1483.33 1450.39 Z" fill="#000000" fill-rule="evenodd" fill-opacity="1" /><path clip-path="url(#clip910)" d="M1513.5 1454.1 Q1509.88 1454.1 1508.06 1457.66 Q1506.25 1461.2 1506.25 1468.33 Q1506.25 1475.44 1508.06 1479.01 Q1509.88 1482.55 1513.5 1482.55 Q1517.13 1482.55 1518.94 1479.01 Q1520.76 1475.44 1520.76 1468.33 Q1520.76 1461.2 1518.94 1457.66 Q1517.13 1454.1 1513.5 1454.1 M1513.5 1450.39 Q1519.31 1450.39 1522.36 1455 Q1525.44 1459.58 1525.44 1468.33 Q1525.44 1477.06 1522.36 1481.67 Q1519.31 1486.25 1513.5 1486.25 Q1507.69 1486.25 1504.61 1481.67 Q1501.55 1477.06 1501.55 1468.33 Q1501.55 1459.58 1504.61 1455 Q1507.69 1450.39 1513.5 1450.39 Z" fill="#000000" fill-rule="evenodd" fill-opacity="1" /><path clip-path="url(#clip910)" d="M1957.47 1455.09 L1945.67 1473.54 L1957.47 1473.54 L1957.47 1455.09 M1956.25 1451.02 L1962.13 1451.02 L1962.13 1473.54 L1967.06 1473.54 L1967.06 1477.43 L1962.13 1477.43 L1962.13 1485.58 L1957.47 1485.58 L1957.47 1477.43 L1941.87 1477.43 L1941.87 1472.92 L1956.25 1451.02 Z" fill="#000000" fill-rule="evenodd" fill-opacity="1" /><path clip-path="url(#clip910)" d="M1984.79 1454.1 Q1981.18 1454.1 1979.35 1457.66 Q1977.54 1461.2 1977.54 1468.33 Q1977.54 1475.44 1979.35 1479.01 Q1981.18 1482.55 1984.79 1482.55 Q1988.42 1482.55 1990.23 1479.01 Q1992.06 1475.44 1992.06 1468.33 Q1992.06 1461.2 1990.23 1457.66 Q1988.42 1454.1 1984.79 1454.1 M1984.79 1450.39 Q1990.6 1450.39 1993.65 1455 Q1996.73 1459.58 1996.73 1468.33 Q1996.73 1477.06 1993.65 1481.67 Q1990.6 1486.25 1984.79 1486.25 Q1978.98 1486.25 1975.9 1481.67 Q1972.84 1477.06 1972.84 1468.33 Q1972.84 1459.58 1975.9 1455 Q1978.98 1450.39 1984.79 1450.39 Z" fill="#000000" fill-rule="evenodd" fill-opacity="1" /><path clip-path="url(#clip910)" d="M2014.95 1454.1 Q2011.34 1454.1 2009.51 1457.66 Q2007.7 1461.2 2007.7 1468.33 Q2007.7 1475.44 2009.51 1479.01 Q2011.34 1482.55 2014.95 1482.55 Q2018.58 1482.55 2020.39 1479.01 Q2022.22 1475.44 2022.22 1468.33 Q2022.22 1461.2 2020.39 1457.66 Q2018.58 1454.1 2014.95 1454.1 M2014.95 1450.39 Q2020.76 1450.39 2023.82 1455 Q2026.89 1459.58 2026.89 1468.33 Q2026.89 1477.06 2023.82 1481.67 Q2020.76 1486.25 2014.95 1486.25 Q2009.14 1486.25 2006.06 1481.67 Q2003.01 1477.06 2003.01 1468.33 Q2003.01 1459.58 2006.06 1455 Q2009.14 1450.39 2014.95 1450.39 Z" fill="#000000" fill-rule="evenodd" fill-opacity="1" /><path clip-path="url(#clip910)" d="M2045.11 1454.1 Q2041.5 1454.1 2039.67 1457.66 Q2037.87 1461.2 2037.87 1468.33 Q2037.87 1475.44 2039.67 1479.01 Q2041.5 1482.55 2045.11 1482.55 Q2048.75 1482.55 2050.55 1479.01 Q2052.38 1475.44 2052.38 1468.33 Q2052.38 1461.2 2050.55 1457.66 Q2048.75 1454.1 2045.11 1454.1 M2045.11 1450.39 Q2050.92 1450.39 2053.98 1455 Q2057.06 1459.58 2057.06 1468.33 Q2057.06 1477.06 2053.98 1481.67 Q2050.92 1486.25 2045.11 1486.25 Q2039.3 1486.25 2036.22 1481.67 Q2033.17 1477.06 2033.17 1468.33 Q2033.17 1459.58 2036.22 1455 Q2039.3 1450.39 2045.11 1450.39 Z" fill="#000000" fill-rule="evenodd" fill-opacity="1" /><path clip-path="url(#clip910)" d="M1226.54 1525.81 L1226.54 1543.66 L1234.63 1543.66 Q1239.12 1543.66 1241.57 1541.34 Q1244.02 1539.02 1244.02 1534.72 Q1244.02 1530.45 1241.57 1528.13 Q1239.12 1525.81 1234.63 1525.81 L1226.54 1525.81 M1220.11 1520.52 L1234.63 1520.52 Q1242.62 1520.52 1246.69 1524.15 Q1250.8 1527.75 1250.8 1534.72 Q1250.8 1541.75 1246.69 1545.35 Q1242.62 1548.95 1234.63 1548.95 L1226.54 1548.95 L1226.54 1568.04 L1220.11 1568.04 L1220.11 1520.52 Z" fill="#000000" fill-rule="evenodd" fill-opacity="1" /><path clip-path="url(#clip910)" d="M1278.68 1537.87 Q1277.69 1537.3 1276.51 1537.04 Q1275.37 1536.76 1273.97 1536.76 Q1269 1536.76 1266.33 1540 Q1263.69 1543.22 1263.69 1549.27 L1263.69 1568.04 L1257.8 1568.04 L1257.8 1532.4 L1263.69 1532.4 L1263.69 1537.93 Q1265.53 1534.69 1268.49 1533.13 Q1271.45 1531.54 1275.69 1531.54 Q1276.29 1531.54 1277.02 1531.63 Q1277.75 1531.7 1278.65 1531.85 L1278.68 1537.87 Z" fill="#000000" fill-rule="evenodd" fill-opacity="1" /><path clip-path="url(#clip910)" d="M1297.2 1536.5 Q1292.49 1536.5 1289.75 1540.19 Q1287.02 1543.85 1287.02 1550.25 Q1287.02 1556.65 1289.72 1560.34 Q1292.46 1564 1297.2 1564 Q1301.88 1564 1304.62 1560.31 Q1307.36 1556.62 1307.36 1550.25 Q1307.36 1543.92 1304.62 1540.23 Q1301.88 1536.5 1297.2 1536.5 M1297.2 1531.54 Q1304.84 1531.54 1309.2 1536.5 Q1313.56 1541.47 1313.56 1550.25 Q1313.56 1559 1309.2 1564 Q1304.84 1568.97 1297.2 1568.97 Q1289.53 1568.97 1285.17 1564 Q1280.84 1559 1280.84 1550.25 Q1280.84 1541.47 1285.17 1536.5 Q1289.53 1531.54 1297.2 1531.54 Z" fill="#000000" fill-rule="evenodd" fill-opacity="1" /><path clip-path="url(#clip910)" d="M1341.32 1518.52 L1341.32 1523.39 L1335.71 1523.39 Q1332.56 1523.39 1331.32 1524.66 Q1330.11 1525.93 1330.11 1529.24 L1330.11 1532.4 L1339.76 1532.4 L1339.76 1536.95 L1330.11 1536.95 L1330.11 1568.04 L1324.22 1568.04 L1324.22 1536.95 L1318.62 1536.95 L1318.62 1532.4 L1324.22 1532.4 L1324.22 1529.91 Q1324.22 1523.96 1326.99 1521.26 Q1329.76 1518.52 1335.78 1518.52 L1341.32 1518.52 Z" fill="#000000" fill-rule="evenodd" fill-opacity="1" /><path clip-path="url(#clip910)" d="M1346.22 1532.4 L1352.07 1532.4 L1352.07 1568.04 L1346.22 1568.04 L1346.22 1532.4 M1346.22 1518.52 L1352.07 1518.52 L1352.07 1525.93 L1346.22 1525.93 L1346.22 1518.52 Z" fill="#000000" fill-rule="evenodd" fill-opacity="1" /><path clip-path="url(#clip910)" d="M1370.12 1522.27 L1370.12 1532.4 L1382.18 1532.4 L1382.18 1536.95 L1370.12 1536.95 L1370.12 1556.3 Q1370.12 1560.66 1371.3 1561.9 Q1372.51 1563.14 1376.17 1563.14 L1382.18 1563.14 L1382.18 1568.04 L1376.17 1568.04 Q1369.39 1568.04 1366.81 1565.53 Q1364.23 1562.98 1364.23 1556.3 L1364.23 1536.95 L1359.94 1536.95 L1359.94 1532.4 L1364.23 1532.4 L1364.23 1522.27 L1370.12 1522.27 Z" fill="#000000" fill-rule="evenodd" fill-opacity="1" /><polyline clip-path="url(#clip912)" style="stroke:#000000; stroke-linecap:round; stroke-linejoin:round; stroke-width:2; stroke-opacity:0.1; fill:none" points="
  249.542,1388.69 2352.76,1388.69 
  "/>
<polyline clip-path="url(#clip912)" style="stroke:#000000; stroke-linecap:round; stroke-linejoin:round; stroke-width:2; stroke-opacity:0.1; fill:none" points="
  249.542,1081.58 2352.76,1081.58 
  "/>
<polyline clip-path="url(#clip912)" style="stroke:#000000; stroke-linecap:round; stroke-linejoin:round; stroke-width:2; stroke-opacity:0.1; fill:none" points="
  249.542,774.474 2352.76,774.474 
  "/>
<polyline clip-path="url(#clip912)" style="stroke:#000000; stroke-linecap:round; stroke-linejoin:round; stroke-width:2; stroke-opacity:0.1; fill:none" points="
  249.542,467.365 2352.76,467.365 
  "/>
<polyline clip-path="url(#clip912)" style="stroke:#000000; stroke-linecap:round; stroke-linejoin:round; stroke-width:2; stroke-opacity:0.1; fill:none" points="
  249.542,160.256 2352.76,160.256 
  "/>
<polyline clip-path="url(#clip910)" style="stroke:#000000; stroke-linecap:round; stroke-linejoin:round; stroke-width:4; stroke-opacity:1; fill:none" points="
  249.542,1423.18 249.542,123.472 
  "/>
<polyline clip-path="url(#clip910)" style="stroke:#000000; stroke-linecap:round; stroke-linejoin:round; stroke-width:4; stroke-opacity:1; fill:none" points="
  249.542,1388.69 268.44,1388.69 
  "/>
<polyline clip-path="url(#clip910)" style="stroke:#000000; stroke-linecap:round; stroke-linejoin:round; stroke-width:4; stroke-opacity:1; fill:none" points="
  249.542,1081.58 268.44,1081.58 
  "/>
<polyline clip-path="url(#clip910)" style="stroke:#000000; stroke-linecap:round; stroke-linejoin:round; stroke-width:4; stroke-opacity:1; fill:none" points="
  249.542,774.474 268.44,774.474 
  "/>
<polyline clip-path="url(#clip910)" style="stroke:#000000; stroke-linecap:round; stroke-linejoin:round; stroke-width:4; stroke-opacity:1; fill:none" points="
  249.542,467.365 268.44,467.365 
  "/>
<polyline clip-path="url(#clip910)" style="stroke:#000000; stroke-linecap:round; stroke-linejoin:round; stroke-width:4; stroke-opacity:1; fill:none" points="
  249.542,160.256 268.44,160.256 
  "/>
<path clip-path="url(#clip910)" d="M126.205 1374.49 Q122.593 1374.49 120.765 1378.06 Q118.959 1381.6 118.959 1388.73 Q118.959 1395.83 120.765 1399.4 Q122.593 1402.94 126.205 1402.94 Q129.839 1402.94 131.644 1399.4 Q133.473 1395.83 133.473 1388.73 Q133.473 1381.6 131.644 1378.06 Q129.839 1374.49 126.205 1374.49 M126.205 1370.79 Q132.015 1370.79 135.07 1375.39 Q138.149 1379.98 138.149 1388.73 Q138.149 1397.45 135.07 1402.06 Q132.015 1406.64 126.205 1406.64 Q120.394 1406.64 117.316 1402.06 Q114.26 1397.45 114.26 1388.73 Q114.26 1379.98 117.316 1375.39 Q120.394 1370.79 126.205 1370.79 Z" fill="#000000" fill-rule="evenodd" fill-opacity="1" /><path clip-path="url(#clip910)" d="M146.366 1400.09 L151.251 1400.09 L151.251 1405.97 L146.366 1405.97 L146.366 1400.09 Z" fill="#000000" fill-rule="evenodd" fill-opacity="1" /><path clip-path="url(#clip910)" d="M171.436 1374.49 Q167.825 1374.49 165.996 1378.06 Q164.19 1381.6 164.19 1388.73 Q164.19 1395.83 165.996 1399.4 Q167.825 1402.94 171.436 1402.94 Q175.07 1402.94 176.876 1399.4 Q178.704 1395.83 178.704 1388.73 Q178.704 1381.6 176.876 1378.06 Q175.07 1374.49 171.436 1374.49 M171.436 1370.79 Q177.246 1370.79 180.301 1375.39 Q183.38 1379.98 183.38 1388.73 Q183.38 1397.45 180.301 1402.06 Q177.246 1406.64 171.436 1406.64 Q165.626 1406.64 162.547 1402.06 Q159.491 1397.45 159.491 1388.73 Q159.491 1379.98 162.547 1375.39 Q165.626 1370.79 171.436 1370.79 Z" fill="#000000" fill-rule="evenodd" fill-opacity="1" /><path clip-path="url(#clip910)" d="M201.598 1374.49 Q197.987 1374.49 196.158 1378.06 Q194.352 1381.6 194.352 1388.73 Q194.352 1395.83 196.158 1399.4 Q197.987 1402.94 201.598 1402.94 Q205.232 1402.94 207.037 1399.4 Q208.866 1395.83 208.866 1388.73 Q208.866 1381.6 207.037 1378.06 Q205.232 1374.49 201.598 1374.49 M201.598 1370.79 Q207.408 1370.79 210.463 1375.39 Q213.542 1379.98 213.542 1388.73 Q213.542 1397.45 210.463 1402.06 Q207.408 1406.64 201.598 1406.64 Q195.787 1406.64 192.709 1402.06 Q189.653 1397.45 189.653 1388.73 Q189.653 1379.98 192.709 1375.39 Q195.787 1370.79 201.598 1370.79 Z" fill="#000000" fill-rule="evenodd" fill-opacity="1" /><path clip-path="url(#clip910)" d="M127.2 1067.38 Q123.589 1067.38 121.76 1070.95 Q119.955 1074.49 119.955 1081.62 Q119.955 1088.72 121.76 1092.29 Q123.589 1095.83 127.2 1095.83 Q130.834 1095.83 132.64 1092.29 Q134.468 1088.72 134.468 1081.62 Q134.468 1074.49 132.64 1070.95 Q130.834 1067.38 127.2 1067.38 M127.2 1063.68 Q133.01 1063.68 136.066 1068.28 Q139.144 1072.87 139.144 1081.62 Q139.144 1090.34 136.066 1094.95 Q133.01 1099.53 127.2 1099.53 Q121.39 1099.53 118.311 1094.95 Q115.256 1090.34 115.256 1081.62 Q115.256 1072.87 118.311 1068.28 Q121.39 1063.68 127.2 1063.68 Z" fill="#000000" fill-rule="evenodd" fill-opacity="1" /><path clip-path="url(#clip910)" d="M147.362 1092.98 L152.246 1092.98 L152.246 1098.86 L147.362 1098.86 L147.362 1092.98 Z" fill="#000000" fill-rule="evenodd" fill-opacity="1" /><path clip-path="url(#clip910)" d="M166.459 1094.93 L182.778 1094.93 L182.778 1098.86 L160.834 1098.86 L160.834 1094.93 Q163.496 1092.17 168.079 1087.54 Q172.686 1082.89 173.866 1081.55 Q176.112 1079.03 176.991 1077.29 Q177.894 1075.53 177.894 1073.84 Q177.894 1071.09 175.95 1069.35 Q174.028 1067.61 170.927 1067.61 Q168.727 1067.61 166.274 1068.38 Q163.843 1069.14 161.065 1070.69 L161.065 1065.97 Q163.89 1064.84 166.343 1064.26 Q168.797 1063.68 170.834 1063.68 Q176.204 1063.68 179.399 1066.36 Q182.593 1069.05 182.593 1073.54 Q182.593 1075.67 181.783 1077.59 Q180.996 1079.49 178.889 1082.08 Q178.311 1082.75 175.209 1085.97 Q172.107 1089.16 166.459 1094.93 Z" fill="#000000" fill-rule="evenodd" fill-opacity="1" /><path clip-path="url(#clip910)" d="M192.639 1064.3 L210.996 1064.3 L210.996 1068.24 L196.922 1068.24 L196.922 1076.71 Q197.94 1076.36 198.959 1076.2 Q199.977 1076.02 200.996 1076.02 Q206.783 1076.02 210.162 1079.19 Q213.542 1082.36 213.542 1087.78 Q213.542 1093.35 210.07 1096.46 Q206.598 1099.53 200.278 1099.53 Q198.102 1099.53 195.834 1099.16 Q193.588 1098.79 191.181 1098.05 L191.181 1093.35 Q193.264 1094.49 195.487 1095.04 Q197.709 1095.6 200.186 1095.6 Q204.19 1095.6 206.528 1093.49 Q208.866 1091.39 208.866 1087.78 Q208.866 1084.16 206.528 1082.06 Q204.19 1079.95 200.186 1079.95 Q198.311 1079.95 196.436 1080.37 Q194.584 1080.78 192.639 1081.66 L192.639 1064.3 Z" fill="#000000" fill-rule="evenodd" fill-opacity="1" /><path clip-path="url(#clip910)" d="M126.205 760.273 Q122.593 760.273 120.765 763.838 Q118.959 767.379 118.959 774.509 Q118.959 781.615 120.765 785.18 Q122.593 788.722 126.205 788.722 Q129.839 788.722 131.644 785.18 Q133.473 781.615 133.473 774.509 Q133.473 767.379 131.644 763.838 Q129.839 760.273 126.205 760.273 M126.205 756.569 Q132.015 756.569 135.07 761.176 Q138.149 765.759 138.149 774.509 Q138.149 783.236 135.07 787.842 Q132.015 792.425 126.205 792.425 Q120.394 792.425 117.316 787.842 Q114.26 783.236 114.26 774.509 Q114.26 765.759 117.316 761.176 Q120.394 756.569 126.205 756.569 Z" fill="#000000" fill-rule="evenodd" fill-opacity="1" /><path clip-path="url(#clip910)" d="M146.366 785.874 L151.251 785.874 L151.251 791.754 L146.366 791.754 L146.366 785.874 Z" fill="#000000" fill-rule="evenodd" fill-opacity="1" /><path clip-path="url(#clip910)" d="M161.482 757.194 L179.839 757.194 L179.839 761.129 L165.765 761.129 L165.765 769.601 Q166.783 769.254 167.802 769.092 Q168.82 768.907 169.839 768.907 Q175.626 768.907 179.005 772.078 Q182.385 775.25 182.385 780.666 Q182.385 786.245 178.913 789.347 Q175.44 792.425 169.121 792.425 Q166.945 792.425 164.677 792.055 Q162.431 791.685 160.024 790.944 L160.024 786.245 Q162.107 787.379 164.329 787.935 Q166.552 788.49 169.028 788.49 Q173.033 788.49 175.371 786.384 Q177.709 784.277 177.709 780.666 Q177.709 777.055 175.371 774.949 Q173.033 772.842 169.028 772.842 Q167.153 772.842 165.278 773.259 Q163.427 773.675 161.482 774.555 L161.482 757.194 Z" fill="#000000" fill-rule="evenodd" fill-opacity="1" /><path clip-path="url(#clip910)" d="M201.598 760.273 Q197.987 760.273 196.158 763.838 Q194.352 767.379 194.352 774.509 Q194.352 781.615 196.158 785.18 Q197.987 788.722 201.598 788.722 Q205.232 788.722 207.037 785.18 Q208.866 781.615 208.866 774.509 Q208.866 767.379 207.037 763.838 Q205.232 760.273 201.598 760.273 M201.598 756.569 Q207.408 756.569 210.463 761.176 Q213.542 765.759 213.542 774.509 Q213.542 783.236 210.463 787.842 Q207.408 792.425 201.598 792.425 Q195.787 792.425 192.709 787.842 Q189.653 783.236 189.653 774.509 Q189.653 765.759 192.709 761.176 Q195.787 756.569 201.598 756.569 Z" fill="#000000" fill-rule="evenodd" fill-opacity="1" /><path clip-path="url(#clip910)" d="M127.2 453.164 Q123.589 453.164 121.76 456.729 Q119.955 460.27 119.955 467.4 Q119.955 474.506 121.76 478.071 Q123.589 481.613 127.2 481.613 Q130.834 481.613 132.64 478.071 Q134.468 474.506 134.468 467.4 Q134.468 460.27 132.64 456.729 Q130.834 453.164 127.2 453.164 M127.2 449.46 Q133.01 449.46 136.066 454.067 Q139.144 458.65 139.144 467.4 Q139.144 476.127 136.066 480.733 Q133.01 485.316 127.2 485.316 Q121.39 485.316 118.311 480.733 Q115.256 476.127 115.256 467.4 Q115.256 458.65 118.311 454.067 Q121.39 449.46 127.2 449.46 Z" fill="#000000" fill-rule="evenodd" fill-opacity="1" /><path clip-path="url(#clip910)" d="M147.362 478.766 L152.246 478.766 L152.246 484.645 L147.362 484.645 L147.362 478.766 Z" fill="#000000" fill-rule="evenodd" fill-opacity="1" /><path clip-path="url(#clip910)" d="M161.251 450.085 L183.473 450.085 L183.473 452.076 L170.927 484.645 L166.042 484.645 L177.848 454.02 L161.251 454.02 L161.251 450.085 Z" fill="#000000" fill-rule="evenodd" fill-opacity="1" /><path clip-path="url(#clip910)" d="M192.639 450.085 L210.996 450.085 L210.996 454.02 L196.922 454.02 L196.922 462.493 Q197.94 462.145 198.959 461.983 Q199.977 461.798 200.996 461.798 Q206.783 461.798 210.162 464.969 Q213.542 468.141 213.542 473.557 Q213.542 479.136 210.07 482.238 Q206.598 485.316 200.278 485.316 Q198.102 485.316 195.834 484.946 Q193.588 484.576 191.181 483.835 L191.181 479.136 Q193.264 480.27 195.487 480.826 Q197.709 481.381 200.186 481.381 Q204.19 481.381 206.528 479.275 Q208.866 477.168 208.866 473.557 Q208.866 469.946 206.528 467.84 Q204.19 465.733 200.186 465.733 Q198.311 465.733 196.436 466.15 Q194.584 466.567 192.639 467.446 L192.639 450.085 Z" fill="#000000" fill-rule="evenodd" fill-opacity="1" /><path clip-path="url(#clip910)" d="M117.015 173.601 L124.654 173.601 L124.654 147.236 L116.343 148.902 L116.343 144.643 L124.607 142.976 L129.283 142.976 L129.283 173.601 L136.922 173.601 L136.922 177.536 L117.015 177.536 L117.015 173.601 Z" fill="#000000" fill-rule="evenodd" fill-opacity="1" /><path clip-path="url(#clip910)" d="M146.366 171.657 L151.251 171.657 L151.251 177.536 L146.366 177.536 L146.366 171.657 Z" fill="#000000" fill-rule="evenodd" fill-opacity="1" /><path clip-path="url(#clip910)" d="M171.436 146.055 Q167.825 146.055 165.996 149.62 Q164.19 153.161 164.19 160.291 Q164.19 167.397 165.996 170.962 Q167.825 174.504 171.436 174.504 Q175.07 174.504 176.876 170.962 Q178.704 167.397 178.704 160.291 Q178.704 153.161 176.876 149.62 Q175.07 146.055 171.436 146.055 M171.436 142.351 Q177.246 142.351 180.301 146.958 Q183.38 151.541 183.38 160.291 Q183.38 169.018 180.301 173.624 Q177.246 178.208 171.436 178.208 Q165.626 178.208 162.547 173.624 Q159.491 169.018 159.491 160.291 Q159.491 151.541 162.547 146.958 Q165.626 142.351 171.436 142.351 Z" fill="#000000" fill-rule="evenodd" fill-opacity="1" /><path clip-path="url(#clip910)" d="M201.598 146.055 Q197.987 146.055 196.158 149.62 Q194.352 153.161 194.352 160.291 Q194.352 167.397 196.158 170.962 Q197.987 174.504 201.598 174.504 Q205.232 174.504 207.037 170.962 Q208.866 167.397 208.866 160.291 Q208.866 153.161 207.037 149.62 Q205.232 146.055 201.598 146.055 M201.598 142.351 Q207.408 142.351 210.463 146.958 Q213.542 151.541 213.542 160.291 Q213.542 169.018 210.463 173.624 Q207.408 178.208 201.598 178.208 Q195.787 178.208 192.709 173.624 Q189.653 169.018 189.653 160.291 Q189.653 151.541 192.709 146.958 Q195.787 142.351 201.598 142.351 Z" fill="#000000" fill-rule="evenodd" fill-opacity="1" /><path clip-path="url(#clip910)" d="M16.4842 830.792 L16.4842 803.484 L21.895 803.484 L21.895 824.363 L35.8996 824.363 L35.8996 805.521 L41.3104 805.521 L41.3104 824.363 L64.0042 824.363 L64.0042 830.792 L16.4842 830.792 Z" fill="#000000" fill-rule="evenodd" fill-opacity="1" /><path clip-path="url(#clip910)" d="M14.5426 779.485 Q21.8632 783.75 29.0246 785.819 Q36.186 787.888 43.5384 787.888 Q50.8908 787.888 58.1159 785.819 Q65.3091 783.718 72.5979 779.485 L72.5979 784.577 Q65.1182 789.352 57.8931 791.739 Q50.668 794.094 43.5384 794.094 Q36.4406 794.094 29.2474 791.739 Q22.0542 789.383 14.5426 784.577 L14.5426 779.485 Z" fill="#000000" fill-rule="evenodd" fill-opacity="1" /><path clip-path="url(#clip910)" d="M28.3562 738.49 L45.7028 751.38 L64.0042 737.821 L64.0042 744.728 L49.9996 755.104 L64.0042 765.48 L64.0042 772.387 L45.3526 758.542 L28.3562 771.209 L28.3562 764.303 L41.0558 754.85 L28.3562 745.396 L28.3562 738.49 Z" fill="#000000" fill-rule="evenodd" fill-opacity="1" /><path clip-path="url(#clip910)" d="M14.5426 730.469 L14.5426 725.376 Q22.0542 720.602 29.2474 718.247 Q36.4406 715.86 43.5384 715.86 Q50.668 715.86 57.8931 718.247 Q65.1182 720.602 72.5979 725.376 L72.5979 730.469 Q65.3091 726.236 58.1159 724.167 Q50.8908 722.066 43.5384 722.066 Q36.186 722.066 29.0246 724.167 Q21.8632 726.236 14.5426 730.469 Z" fill="#000000" fill-rule="evenodd" fill-opacity="1" /><path clip-path="url(#clip910)" d="M1045.7 12.096 L1083.94 12.096 L1083.94 18.9825 L1053.88 18.9825 L1053.88 36.8875 L1082.68 36.8875 L1082.68 43.7741 L1053.88 43.7741 L1053.88 65.6895 L1084.67 65.6895 L1084.67 72.576 L1045.7 72.576 L1045.7 12.096 Z" fill="#000000" fill-rule="evenodd" fill-opacity="1" /><path clip-path="url(#clip910)" d="M1143.41 16.7545 L1143.41 25.383 Q1139.27 21.5346 1134.58 19.6307 Q1129.92 17.7268 1124.65 17.7268 Q1114.28 17.7268 1108.77 24.0867 Q1103.26 30.4061 1103.26 42.3968 Q1103.26 54.3469 1108.77 60.7069 Q1114.28 67.0263 1124.65 67.0263 Q1129.92 67.0263 1134.58 65.1223 Q1139.27 63.2184 1143.41 59.3701 L1143.41 67.9175 Q1139.11 70.8341 1134.29 72.2924 Q1129.51 73.7508 1124.16 73.7508 Q1110.43 73.7508 1102.53 65.3654 Q1094.63 56.9395 1094.63 42.3968 Q1094.63 27.8135 1102.53 19.4281 Q1110.43 11.0023 1124.16 11.0023 Q1129.59 11.0023 1134.37 12.4606 Q1139.19 13.8784 1143.41 16.7545 Z" fill="#000000" fill-rule="evenodd" fill-opacity="1" /><path clip-path="url(#clip910)" d="M1164.23 18.8205 L1164.23 65.8515 L1174.11 65.8515 Q1186.63 65.8515 1192.42 60.1802 Q1198.26 54.509 1198.26 42.2752 Q1198.26 30.1225 1192.42 24.4918 Q1186.63 18.8205 1174.11 18.8205 L1164.23 18.8205 M1156.05 12.096 L1172.86 12.096 Q1190.44 12.096 1198.66 19.4281 Q1206.88 26.7198 1206.88 42.2752 Q1206.88 57.9117 1198.62 65.2439 Q1190.36 72.576 1172.86 72.576 L1156.05 72.576 L1156.05 12.096 Z" fill="#000000" fill-rule="evenodd" fill-opacity="1" /><path clip-path="url(#clip910)" d="M1219.93 12.096 L1254.69 12.096 L1254.69 18.9825 L1228.11 18.9825 L1228.11 36.8065 L1252.09 36.8065 L1252.09 43.6931 L1228.11 43.6931 L1228.11 72.576 L1219.93 72.576 L1219.93 12.096 Z" fill="#000000" fill-rule="evenodd" fill-opacity="1" /><path clip-path="url(#clip910)" d="M1289.93 46.5287 L1311.76 46.5287 L1311.76 53.1722 L1289.93 53.1722 L1289.93 46.5287 Z" fill="#000000" fill-rule="evenodd" fill-opacity="1" /><path clip-path="url(#clip910)" d="M1358.51 18.8205 L1358.51 41.5461 L1368.8 41.5461 Q1374.51 41.5461 1377.63 38.5889 Q1380.75 35.6318 1380.75 30.163 Q1380.75 24.7348 1377.63 21.7777 Q1374.51 18.8205 1368.8 18.8205 L1358.51 18.8205 M1350.33 12.096 L1368.8 12.096 Q1378.97 12.096 1384.15 16.714 Q1389.38 21.2916 1389.38 30.163 Q1389.38 39.1155 1384.15 43.6931 Q1378.97 48.2706 1368.8 48.2706 L1358.51 48.2706 L1358.51 72.576 L1350.33 72.576 L1350.33 12.096 Z" fill="#000000" fill-rule="evenodd" fill-opacity="1" /><path clip-path="url(#clip910)" d="M1424.86 34.1734 Q1423.61 33.4443 1422.11 33.1202 Q1420.65 32.7556 1418.87 32.7556 Q1412.55 32.7556 1409.15 36.8875 Q1405.78 40.9789 1405.78 48.6757 L1405.78 72.576 L1398.29 72.576 L1398.29 27.2059 L1405.78 27.2059 L1405.78 34.2544 Q1408.13 30.1225 1411.9 28.1376 Q1415.67 26.1121 1421.06 26.1121 Q1421.83 26.1121 1422.76 26.2337 Q1423.69 26.3147 1424.82 26.5172 L1424.86 34.1734 Z" fill="#000000" fill-rule="evenodd" fill-opacity="1" /><path clip-path="url(#clip910)" d="M1448.44 32.4315 Q1442.44 32.4315 1438.96 37.1306 Q1435.48 41.7891 1435.48 49.9314 Q1435.48 58.0738 1438.92 62.7728 Q1442.4 67.4314 1448.44 67.4314 Q1454.39 67.4314 1457.88 62.7323 Q1461.36 58.0333 1461.36 49.9314 Q1461.36 41.8701 1457.88 37.1711 Q1454.39 32.4315 1448.44 32.4315 M1448.44 26.1121 Q1458.16 26.1121 1463.71 32.4315 Q1469.26 38.7509 1469.26 49.9314 Q1469.26 61.0714 1463.71 67.4314 Q1458.16 73.7508 1448.44 73.7508 Q1438.68 73.7508 1433.13 67.4314 Q1427.62 61.0714 1427.62 49.9314 Q1427.62 38.7509 1433.13 32.4315 Q1438.68 26.1121 1448.44 26.1121 Z" fill="#000000" fill-rule="evenodd" fill-opacity="1" /><path clip-path="url(#clip910)" d="M1504.59 9.54393 L1504.59 15.7418 L1497.46 15.7418 Q1493.45 15.7418 1491.87 17.3622 Q1490.33 18.9825 1490.33 23.1955 L1490.33 27.2059 L1502.6 27.2059 L1502.6 32.9987 L1490.33 32.9987 L1490.33 72.576 L1482.83 72.576 L1482.83 32.9987 L1475.7 32.9987 L1475.7 27.2059 L1482.83 27.2059 L1482.83 24.0462 Q1482.83 16.471 1486.36 13.0277 Q1489.88 9.54393 1497.54 9.54393 L1504.59 9.54393 Z" fill="#000000" fill-rule="evenodd" fill-opacity="1" /><path clip-path="url(#clip910)" d="M1510.82 27.2059 L1518.28 27.2059 L1518.28 72.576 L1510.82 72.576 L1510.82 27.2059 M1510.82 9.54393 L1518.28 9.54393 L1518.28 18.9825 L1510.82 18.9825 L1510.82 9.54393 Z" fill="#000000" fill-rule="evenodd" fill-opacity="1" /><path clip-path="url(#clip910)" d="M1541.25 14.324 L1541.25 27.2059 L1556.6 27.2059 L1556.6 32.9987 L1541.25 32.9987 L1541.25 57.6282 Q1541.25 63.1779 1542.74 64.7578 Q1544.28 66.3376 1548.94 66.3376 L1556.6 66.3376 L1556.6 72.576 L1548.94 72.576 Q1540.31 72.576 1537.03 69.3758 Q1533.75 66.1351 1533.75 57.6282 L1533.75 32.9987 L1528.28 32.9987 L1528.28 27.2059 L1533.75 27.2059 L1533.75 14.324 L1541.25 14.324 Z" fill="#000000" fill-rule="evenodd" fill-opacity="1" /><polyline clip-path="url(#clip912)" style="stroke:#009af9; stroke-linecap:round; stroke-linejoin:round; stroke-width:4; stroke-opacity:1; fill:none" points="
  309.067,1386.4 454.168,1384.1 485.694,1381.8 487.302,1379.51 501.067,1377.21 507.278,1374.91 519.95,1372.62 545.466,1370.32 551.765,1368.03 552.896,1365.73 
  562.916,1363.43 563.039,1361.14 580.831,1358.84 586.481,1356.55 604.764,1354.25 621.386,1351.95 628.492,1349.66 632.671,1347.36 634.722,1345.07 635.603,1342.77 
  635.786,1340.47 639.034,1338.18 641.795,1335.88 658.959,1333.58 661.501,1331.29 668.322,1328.99 668.487,1326.7 674.1,1324.4 678.237,1322.1 680.357,1319.81 
  680.459,1317.51 682.177,1315.22 697.835,1312.92 716.199,1310.62 716.387,1308.33 718.6,1306.03 718.978,1303.73 724.89,1301.44 726.755,1299.14 727.236,1296.85 
  734.611,1294.55 736.193,1292.25 736.228,1289.96 737.891,1287.66 741.595,1285.37 743.059,1283.07 743.176,1280.77 743.655,1278.48 744.987,1276.18 752.459,1273.88 
  756.501,1271.59 758.578,1269.29 761.149,1267 763.298,1264.7 763.769,1262.4 765.221,1260.11 765.475,1257.81 768.434,1255.52 770.738,1253.22 771.383,1250.92 
  774.241,1248.63 776.436,1246.33 782.457,1244.03 782.58,1241.74 782.731,1239.44 792.144,1237.15 793.661,1234.85 797.338,1232.55 797.668,1230.26 801.801,1227.96 
  803.407,1225.67 805.36,1223.37 805.73,1221.07 808.337,1218.78 809.435,1216.48 813.576,1214.19 815.329,1211.89 816.025,1209.59 819.863,1207.3 821.865,1205 
  824.686,1202.7 824.707,1200.41 831.392,1198.11 832.633,1195.82 832.842,1193.52 833.114,1191.22 835.765,1188.93 835.781,1186.63 839.436,1184.34 840.383,1182.04 
  840.792,1179.74 843.84,1177.45 846.399,1175.15 846.897,1172.85 848.827,1170.56 851.591,1168.26 852.017,1165.97 853.23,1163.67 854.359,1161.37 854.971,1159.08 
  855.034,1156.78 858.041,1154.49 860.27,1152.19 861.171,1149.89 865.322,1147.6 865.665,1145.3 866.005,1143 866.273,1140.71 866.762,1138.41 868.963,1136.12 
  869.088,1133.82 874.948,1131.52 876.293,1129.23 877.613,1126.93 877.934,1124.64 880.204,1122.34 880.48,1120.04 882.012,1117.75 882.038,1115.45 882.83,1113.15 
  886.89,1110.86 887.17,1108.56 888.407,1106.27 892.424,1103.97 892.927,1101.67 893.271,1099.38 894.862,1097.08 895.124,1094.79 895.464,1092.49 895.563,1090.19 
  897.497,1087.9 898.866,1085.6 899.201,1083.31 899.315,1081.01 899.498,1078.71 900.784,1076.42 901.324,1074.12 901.774,1071.82 903.679,1069.53 904.664,1067.23 
  906.583,1064.94 907.647,1062.64 908.405,1060.34 909.669,1058.05 909.949,1055.75 911.644,1053.46 914.953,1051.16 915.705,1048.86 915.919,1046.57 916.697,1044.27 
  917.248,1041.97 918.355,1039.68 919.97,1037.38 920.857,1035.09 921.667,1032.79 922.643,1030.49 924.002,1028.2 924.205,1025.9 924.625,1023.61 925.501,1021.31 
  925.537,1019.01 926.978,1016.72 927.169,1014.42 927.189,1012.12 927.394,1009.83 929.891,1007.53 931.021,1005.24 931.674,1002.94 932.008,1000.64 932.029,998.348 
  932.177,996.052 932.198,993.756 933.376,991.459 933.467,989.163 934.031,986.867 934.326,984.571 934.375,982.275 935.235,979.979 935.282,977.683 935.505,975.386 
  935.684,973.09 935.976,970.794 936.099,968.498 936.148,966.202 936.508,963.906 936.52,961.61 936.523,959.313 936.712,957.017 936.771,954.721 936.81,952.425 
  936.908,950.129 936.961,947.833 937.091,945.537 937.402,943.24 937.449,940.944 937.471,938.648 937.624,936.352 937.722,934.056 937.816,931.76 938.045,929.464 
  938.674,927.167 938.847,924.871 939.124,922.575 939.356,920.279 940.219,917.983 940.384,915.687 940.482,913.391 940.699,911.094 940.859,908.798 941.254,906.502 
  941.317,904.206 941.871,901.91 942.21,899.614 942.899,897.318 942.963,895.021 943.086,892.725 943.716,890.429 945.403,888.133 945.759,885.837 945.904,883.541 
  945.949,881.245 946.112,878.948 946.983,876.652 947.12,874.356 949.599,872.06 949.716,869.764 949.947,867.468 952.174,865.172 952.542,862.875 952.982,860.579 
  953.061,858.283 953.384,855.987 954.717,853.691 954.818,851.395 955.286,849.099 956.156,846.802 956.705,844.506 957.117,842.21 958.815,839.914 958.816,837.618 
  960.116,835.322 962.131,833.026 962.323,830.73 962.672,828.433 963.001,826.137 965.338,823.841 965.758,821.545 965.99,819.249 966.621,816.953 967.934,814.657 
  968.034,812.36 969.015,810.064 969.141,807.768 969.939,805.472 970.553,803.176 972.556,800.88 975.728,798.584 975.949,796.287 976.187,793.991 976.401,791.695 
  976.551,789.399 976.661,787.103 977.166,784.807 977.32,782.511 977.664,780.214 977.794,777.918 978.237,775.622 978.379,773.326 979.104,771.03 979.853,768.734 
  980.068,766.438 980.076,764.141 980.161,761.845 981.057,759.549 981.513,757.253 983.323,754.957 983.659,752.661 985.04,750.365 986.677,748.068 987.282,745.772 
  987.473,743.476 987.52,741.18 987.744,738.884 987.99,736.588 988.115,734.292 988.477,731.995 989.927,729.699 992.042,727.403 992.668,725.107 993.528,722.811 
  997.252,720.515 998.403,718.219 1001.13,715.922 1001.68,713.626 1003.12,711.33 1003.91,709.034 1005.89,706.738 1007.23,704.442 1007.82,702.146 1008.07,699.849 
  1010.18,697.553 1013.06,695.257 1017.85,692.961 1018.21,690.665 1018.64,688.369 1018.74,686.073 1019.81,683.776 1019.91,681.48 1020.03,679.184 1020.39,676.888 
  1020.87,674.592 1020.91,672.296 1022.87,670 1022.98,667.703 1023.29,665.407 1025.18,663.111 1025.6,660.815 1027.11,658.519 1028.98,656.223 1029.05,653.927 
  1030.14,651.631 1031.37,649.334 1032.89,647.038 1033.01,644.742 1033.52,642.446 1034.06,640.15 1034.23,637.854 1034.52,635.558 1036.02,633.261 1039.23,630.965 
  1039.25,628.669 1039.6,626.373 1040.8,624.077 1041.81,621.781 1042.63,619.485 1044,617.188 1044.57,614.892 1044.89,612.596 1045.29,610.3 1045.97,608.004 
  1046.29,605.708 1047.06,603.412 1047.1,601.115 1047.25,598.819 1050.29,596.523 1051.54,594.227 1056.1,591.931 1057.06,589.635 1057.16,587.339 1057.87,585.042 
  1059.21,582.746 1061.37,580.45 1062.19,578.154 1062.47,575.858 1062.54,573.562 1064.88,571.266 1064.96,568.969 1066.11,566.673 1068.75,564.377 1070.41,562.081 
  1071.14,559.785 1074.5,557.489 1074.84,555.193 1075.43,552.896 1075.97,550.6 1076.04,548.304 1076.45,546.008 1077.24,543.712 1077.79,541.416 1078.92,539.12 
  1079.86,536.823 1081.29,534.527 1085.46,532.231 1087.42,529.935 1091.05,527.639 1093.55,525.343 1093.85,523.047 1101.58,520.75 1102.19,518.454 1102.75,516.158 
  1102.9,513.862 1104.67,511.566 1107.53,509.27 1107.69,506.974 1107.87,504.677 1111.32,502.381 1111.51,500.085 1114.94,497.789 1120.9,495.493 1122.9,493.197 
  1125.03,490.901 1130.6,488.604 1133.92,486.308 1134.1,484.012 1136.27,481.716 1137.74,479.42 1142.65,477.124 1142.7,474.828 1143.58,472.531 1145.46,470.235 
  1145.47,467.939 1146.81,465.643 1150.37,463.347 1150.5,461.051 1150.78,458.755 1152.08,456.459 1154.1,454.162 1154.59,451.866 1155.08,449.57 1155.96,447.274 
  1157.31,444.978 1158.69,442.682 1161.84,440.386 1165.11,438.089 1166.82,435.793 1169.21,433.497 1172.58,431.201 1172.97,428.905 1176.64,426.609 1178.25,424.313 
  1178.46,422.016 1179.09,419.72 1181.3,417.424 1181.43,415.128 1182.82,412.832 1184.45,410.536 1185.74,408.24 1188.69,405.943 1191.44,403.647 1191.88,401.351 
  1193.5,399.055 1199.53,396.759 1201.36,394.463 1201.6,392.167 1201.71,389.87 1201.75,387.574 1206.27,385.278 1206.62,382.982 1207.14,380.686 1208.39,378.39 
  1208.55,376.094 1216.67,373.797 1217.86,371.501 1221.69,369.205 1223.11,366.909 1230.72,364.613 1232,362.317 1232.78,360.021 1234.19,357.724 1236.13,355.428 
  1238.08,353.132 1238.14,350.836 1239.74,348.54 1240.82,346.244 1244.46,343.948 1254.54,341.651 1256.68,339.355 1265.8,337.059 1268,334.763 1268.67,332.467 
  1270.14,330.171 1270.98,327.875 1274.02,325.578 1282.89,323.282 1283.02,320.986 1283.52,318.69 1285.31,316.394 1291.38,314.098 1291.84,311.802 1292.23,309.505 
  1301.42,307.209 1302.31,304.913 1306.21,302.617 1306.95,300.321 1308.44,298.025 1313.83,295.729 1314.65,293.432 1323.39,291.136 1325.72,288.84 1326.68,286.544 
  1352.4,284.248 1353.19,281.952 1360.93,279.656 1378.05,277.36 1387.48,275.063 1391.04,272.767 1397.94,270.471 1398.93,268.175 1418.5,265.879 1420.72,263.583 
  1422.2,261.287 1431.23,258.99 1432.62,256.694 1435.46,254.398 1438.04,252.102 1441.19,249.806 1442.81,247.51 1474.2,245.214 1474.6,242.917 1494.08,240.621 
  1497.97,238.325 1502.56,236.029 1504.15,233.733 1511.77,231.437 1558.41,229.141 1564.84,226.844 1584.03,224.548 1594.33,222.252 1610.56,219.956 1614.34,217.66 
  1614.61,215.364 1631.31,213.068 1646.62,210.771 1653.48,208.475 1681.7,206.179 1684.91,203.883 1690.2,201.587 1697.46,199.291 1710.44,196.995 1738.07,194.698 
  1752.99,192.402 1755.34,190.106 1784.37,187.81 1785.31,185.514 1799.85,183.218 1820.43,180.922 1822.18,178.625 1824.24,176.329 1833.38,174.033 1955.58,171.737 
  1957.98,169.441 1982.37,167.145 2062.77,164.849 2120.57,162.552 2259.63,160.256 
  "/>
<polyline clip-path="url(#clip912)" style="stroke:#e26f46; stroke-linecap:round; stroke-linejoin:round; stroke-width:4; stroke-opacity:1; fill:none" points="
  863.976,1386.4 901.39,1384.1 901.445,1381.8 903.099,1379.51 912.362,1377.21 917.998,1374.91 918.644,1372.62 919.544,1370.32 920.78,1368.03 922.577,1365.73 
  926.615,1363.43 928.811,1361.14 929.383,1358.84 929.424,1356.55 929.536,1354.25 929.697,1351.95 930.157,1349.66 930.403,1347.36 930.747,1345.07 930.94,1342.77 
  931.283,1340.47 931.323,1338.18 931.479,1335.88 931.585,1333.58 931.642,1331.29 931.686,1328.99 931.995,1326.7 932.766,1324.4 933.022,1322.1 934.171,1319.81 
  934.434,1317.51 934.644,1315.22 934.646,1312.92 935.688,1310.62 935.786,1308.33 935.809,1306.03 935.833,1303.73 935.843,1301.44 935.95,1299.14 936.037,1296.85 
  936.173,1294.55 936.183,1292.25 936.493,1289.96 936.779,1287.66 936.909,1285.37 937.012,1283.07 937.051,1280.77 937.183,1278.48 937.305,1276.18 937.481,1273.88 
  937.55,1271.59 937.562,1269.29 937.576,1267 937.591,1264.7 937.676,1262.4 937.738,1260.11 937.755,1257.81 937.837,1255.52 937.859,1253.22 937.987,1250.92 
  937.992,1248.63 938.016,1246.33 938.036,1244.03 938.078,1241.74 938.084,1239.44 938.393,1237.15 938.393,1234.85 938.555,1232.55 938.658,1230.26 938.685,1227.96 
  938.71,1225.67 938.725,1223.37 938.735,1221.07 939.007,1218.78 939.086,1216.48 939.108,1214.19 939.159,1211.89 939.734,1209.59 939.743,1207.3 939.992,1205 
  940.026,1202.7 940.047,1200.41 940.078,1198.11 940.274,1195.82 940.632,1193.52 940.647,1191.22 940.937,1188.93 941.04,1186.63 941.218,1184.34 941.261,1182.04 
  941.273,1179.74 941.277,1177.45 941.328,1175.15 941.341,1172.85 941.371,1170.56 941.489,1168.26 941.492,1165.97 941.648,1163.67 941.728,1161.37 941.78,1159.08 
  942.08,1156.78 942.213,1154.49 942.369,1152.19 942.412,1149.89 942.412,1147.6 942.538,1145.3 942.625,1143 942.648,1140.71 942.652,1138.41 942.742,1136.12 
  942.763,1133.82 943.08,1131.52 943.177,1129.23 943.325,1126.93 943.375,1124.64 943.377,1122.34 943.385,1120.04 943.663,1117.75 944.024,1115.45 944.248,1113.15 
  944.282,1110.86 944.296,1108.56 944.402,1106.27 944.445,1103.97 944.544,1101.67 944.575,1099.38 944.594,1097.08 944.71,1094.79 944.761,1092.49 944.826,1090.19 
  944.921,1087.9 944.982,1085.6 945.084,1083.31 945.174,1081.01 945.174,1078.71 945.216,1076.42 945.28,1074.12 945.305,1071.82 945.417,1069.53 945.604,1067.23 
  945.717,1064.94 946.035,1062.64 946.129,1060.34 946.234,1058.05 946.37,1055.75 946.483,1053.46 946.711,1051.16 946.938,1048.86 947.174,1046.57 947.337,1044.27 
  947.406,1041.97 947.428,1039.68 947.528,1037.38 947.694,1035.09 947.914,1032.79 948.32,1030.49 948.344,1028.2 948.917,1025.9 949.01,1023.61 949.049,1021.31 
  949.3,1019.01 949.868,1016.72 949.972,1014.42 949.978,1012.12 950.154,1009.83 950.324,1007.53 950.729,1005.24 950.97,1002.94 951.005,1000.64 951.057,998.348 
  951.108,996.052 951.123,993.756 951.15,991.459 951.35,989.163 951.491,986.867 951.654,984.571 951.727,982.275 951.792,979.979 952.265,977.683 953.729,975.386 
  953.793,973.09 954.194,970.794 954.375,968.498 954.57,966.202 954.711,963.906 954.809,961.61 955.024,959.313 955.659,957.017 955.674,954.721 956.175,952.425 
  956.96,950.129 957.081,947.833 957.796,945.537 958.351,943.24 959.091,940.944 959.24,938.648 959.576,936.352 959.634,934.056 959.852,931.76 960.173,929.464 
  960.3,927.167 960.387,924.871 960.97,922.575 962.363,920.279 962.836,917.983 962.873,915.687 964.575,913.391 965.584,911.094 965.655,908.798 967.297,906.502 
  968.591,904.206 968.736,901.91 970.209,899.614 970.215,897.318 970.594,895.021 970.879,892.725 971.36,890.429 972.18,888.133 972.537,885.837 972.761,883.541 
  972.791,881.245 972.859,878.948 973.395,876.652 973.521,874.356 974.336,872.06 975.263,869.764 975.753,867.468 977.002,865.172 977.096,862.875 977.218,860.579 
  977.562,858.283 977.602,855.987 977.99,853.691 978.254,851.395 978.444,849.099 978.505,846.802 978.611,844.506 978.628,842.21 978.939,839.914 979.697,837.618 
  980.068,835.322 980.462,833.026 980.512,830.73 981.086,828.433 981.732,826.137 982.082,823.841 982.259,821.545 982.353,819.249 982.548,816.953 984.811,814.657 
  987.182,812.36 987.48,810.064 987.498,807.768 987.956,805.472 987.994,803.176 989.954,800.88 990.076,798.584 990.335,796.287 991.628,793.991 992.584,791.695 
  993.485,789.399 997.527,787.103 998.326,784.807 999.062,782.511 999.08,780.214 1001.09,777.918 1001.51,775.622 1002,773.326 1002.22,771.03 1002.39,768.734 
  1003.01,766.438 1003.42,764.141 1003.57,761.845 1003.69,759.549 1003.7,757.253 1003.99,754.957 1004.27,752.661 1005.9,750.365 1006.38,748.068 1006.69,745.772 
  1006.74,743.476 1009.06,741.18 1009.95,738.884 1010.28,736.588 1010.45,734.292 1010.8,731.995 1011.34,729.699 1012.88,727.403 1013.1,725.107 1013.13,722.811 
  1013.49,720.515 1013.93,718.219 1014.05,715.922 1015.65,713.626 1015.67,711.33 1016.37,709.034 1017.01,706.738 1018.26,704.442 1018.38,702.146 1019.14,699.849 
  1021.67,697.553 1022.24,695.257 1024.01,692.961 1025.65,690.665 1026.66,688.369 1028.53,686.073 1030.07,683.776 1031.45,681.48 1032.25,679.184 1032.28,676.888 
  1032.7,674.592 1034.09,672.296 1034.62,670 1034.89,667.703 1035.16,665.407 1035.37,663.111 1035.57,660.815 1036.34,658.519 1039.91,656.223 1040.31,653.927 
  1041.33,651.631 1042.19,649.334 1042.48,647.038 1043,644.742 1044.95,642.446 1045.4,640.15 1046.38,637.854 1046.6,635.558 1048.86,633.261 1049.58,630.965 
  1050.77,628.669 1053.23,626.373 1053.84,624.077 1055.93,621.781 1057.53,619.485 1057.95,617.188 1058.1,614.892 1058.81,612.596 1060.41,610.3 1060.92,608.004 
  1062.24,605.708 1063.44,603.412 1063.74,601.115 1065.65,598.819 1068.06,596.523 1068.19,594.227 1074.59,591.931 1074.72,589.635 1076.23,587.339 1076.96,585.042 
  1077.31,582.746 1077.43,580.45 1077.95,578.154 1077.97,575.858 1078.13,573.562 1078.97,571.266 1079.73,568.969 1079.98,566.673 1080.63,564.377 1080.83,562.081 
  1081.59,559.785 1082.11,557.489 1082.3,555.193 1086.96,552.896 1087.29,550.6 1087.69,548.304 1088.6,546.008 1088.84,543.712 1088.87,541.416 1089.72,539.12 
  1090.56,536.823 1094.11,534.527 1094.88,532.231 1095.72,529.935 1095.84,527.639 1098.29,525.343 1099.9,523.047 1100.3,520.75 1100.5,518.454 1101.76,516.158 
  1103.06,513.862 1105.29,511.566 1105.77,509.27 1106.31,506.974 1108.17,504.677 1112.78,502.381 1113.05,500.085 1114.53,497.789 1114.63,495.493 1116.72,493.197 
  1117.05,490.901 1118.4,488.604 1120.56,486.308 1122.31,484.012 1124.12,481.716 1124.26,479.42 1125.48,477.124 1126.64,474.828 1126.75,472.531 1129.01,470.235 
  1129.28,467.939 1130.86,465.643 1132.13,463.347 1133.76,461.051 1133.77,458.755 1135.5,456.459 1135.93,454.162 1141.9,451.866 1141.93,449.57 1143.05,447.274 
  1143.34,444.978 1144.24,442.682 1146.31,440.386 1146.65,438.089 1148.77,435.793 1149.12,433.497 1151.25,431.201 1152.6,428.905 1155.34,426.609 1157.25,424.313 
  1157.86,422.016 1160.86,419.72 1163.14,417.424 1164.04,415.128 1169.89,412.832 1170.58,410.536 1170.91,408.24 1171.77,405.943 1172.18,403.647 1180.07,401.351 
  1187.12,399.055 1187.31,396.759 1187.91,394.463 1190.84,392.167 1192.07,389.87 1196.64,387.574 1197.73,385.278 1198.1,382.982 1202.28,380.686 1203.07,378.39 
  1203.66,376.094 1204.87,373.797 1204.94,371.501 1205.4,369.205 1205.51,366.909 1209.96,364.613 1211.13,362.317 1212.81,360.021 1223.22,357.724 1229.77,355.428 
  1230.21,353.132 1232.71,350.836 1234.89,348.54 1236.84,346.244 1239.24,343.948 1239.76,341.651 1243.58,339.355 1248.39,337.059 1250.81,334.763 1267.85,332.467 
  1271.46,330.171 1273.03,327.875 1274.13,325.578 1274.39,323.282 1279.03,320.986 1279.09,318.69 1281.48,316.394 1289.5,314.098 1289.64,311.802 1289.91,309.505 
  1290.83,307.209 1290.87,304.913 1300.11,302.617 1302.52,300.321 1303.76,298.025 1304.47,295.729 1305.27,293.432 1321.2,291.136 1322.92,288.84 1326.78,286.544 
  1327.27,284.248 1327.57,281.952 1328.48,279.656 1328.85,277.36 1329.18,275.063 1340.08,272.767 1344.42,270.471 1351.17,268.175 1352.88,265.879 1356.56,263.583 
  1366.12,261.287 1377.25,258.99 1381.01,256.694 1404,254.398 1406.19,252.102 1410.66,249.806 1411.44,247.51 1412.17,245.214 1418.71,242.917 1419.5,240.621 
  1419.9,238.325 1426.42,236.029 1434.32,233.733 1435.24,231.437 1438.58,229.141 1443.35,226.844 1449.89,224.548 1451.5,222.252 1465.1,219.956 1472.04,217.66 
  1474.52,215.364 1475.18,213.068 1477.92,210.771 1481.75,208.475 1493.9,206.179 1512.97,203.883 1515.55,201.587 1518.38,199.291 1534.7,196.995 1555.83,194.698 
  1566.04,192.402 1586.59,190.106 1590.47,187.81 1599.49,185.514 1631.19,183.218 1637.13,180.922 1680.12,178.625 1686.95,176.329 1731,174.033 1805.18,171.737 
  1813.84,169.441 1893.83,167.145 1908.52,164.849 2150.56,162.552 2293.23,160.256 
  "/>
<path clip-path="url(#clip910)" d="
M1865.37 1379.86 L2282.65 1379.86 L2282.65 1263.22 L1865.37 1263.22  Z
  " fill="#ffffff" fill-rule="evenodd" fill-opacity="1"/>
<polyline clip-path="url(#clip910)" style="stroke:#000000; stroke-linecap:round; stroke-linejoin:round; stroke-width:4; stroke-opacity:1; fill:none" points="
  1865.37,1379.86 2282.65,1379.86 2282.65,1263.22 1865.37,1263.22 1865.37,1379.86 
  "/>
<polyline clip-path="url(#clip910)" style="stroke:#009af9; stroke-linecap:round; stroke-linejoin:round; stroke-width:3; stroke-opacity:1; fill:none" points="
  1888.74,1302.1 2028.95,1302.1 
  "/>
<path clip-path="url(#clip910)" d="M2052.32 1289.14 L2057.04 1289.14 L2068.53 1310.82 L2068.53 1289.14 L2071.94 1289.14 L2071.94 1315.06 L2067.21 1315.06 L2055.72 1293.37 L2055.72 1315.06 L2052.32 1315.06 L2052.32 1289.14 Z" fill="#000000" fill-rule="evenodd" fill-opacity="1" /><path clip-path="url(#clip910)" d="M2086.31 1297.85 Q2083.74 1297.85 2082.25 1299.87 Q2080.76 1301.86 2080.76 1305.35 Q2080.76 1308.84 2082.23 1310.85 Q2083.73 1312.85 2086.31 1312.85 Q2088.86 1312.85 2090.36 1310.84 Q2091.85 1308.82 2091.85 1305.35 Q2091.85 1301.9 2090.36 1299.88 Q2088.86 1297.85 2086.31 1297.85 M2086.31 1295.14 Q2090.48 1295.14 2092.86 1297.85 Q2095.24 1300.56 2095.24 1305.35 Q2095.24 1310.13 2092.86 1312.85 Q2090.48 1315.56 2086.31 1315.56 Q2082.13 1315.56 2079.75 1312.85 Q2077.39 1310.13 2077.39 1305.35 Q2077.39 1300.56 2079.75 1297.85 Q2082.13 1295.14 2086.31 1295.14 Z" fill="#000000" fill-rule="evenodd" fill-opacity="1" /><path clip-path="url(#clip910)" d="M2123.1 1298.6 Q2122.56 1298.29 2121.92 1298.15 Q2121.29 1297.99 2120.53 1297.99 Q2117.82 1297.99 2116.36 1299.76 Q2114.92 1301.51 2114.92 1304.81 L2114.92 1315.06 L2111.71 1315.06 L2111.71 1295.61 L2114.92 1295.61 L2114.92 1298.63 Q2115.93 1296.86 2117.54 1296.01 Q2119.16 1295.14 2121.47 1295.14 Q2121.8 1295.14 2122.2 1295.2 Q2122.6 1295.23 2123.08 1295.32 L2123.1 1298.6 Z" fill="#000000" fill-rule="evenodd" fill-opacity="1" /><path clip-path="url(#clip910)" d="M2142.3 1304.54 L2142.3 1306.1 L2127.61 1306.1 Q2127.82 1309.4 2129.59 1311.13 Q2131.38 1312.85 2134.56 1312.85 Q2136.4 1312.85 2138.12 1312.4 Q2139.85 1311.95 2141.55 1311.05 L2141.55 1314.07 Q2139.84 1314.8 2138.03 1315.18 Q2136.22 1315.56 2134.37 1315.56 Q2129.71 1315.56 2126.99 1312.85 Q2124.28 1310.14 2124.28 1305.53 Q2124.28 1300.75 2126.85 1297.96 Q2129.44 1295.14 2133.81 1295.14 Q2137.74 1295.14 2140.01 1297.68 Q2142.3 1300.2 2142.3 1304.54 M2139.11 1303.6 Q2139.07 1300.98 2137.63 1299.41 Q2136.21 1297.85 2133.85 1297.85 Q2131.17 1297.85 2129.56 1299.36 Q2127.96 1300.87 2127.72 1303.62 L2139.11 1303.6 Z" fill="#000000" fill-rule="evenodd" fill-opacity="1" /><path clip-path="url(#clip910)" d="M2159.94 1296.18 L2159.94 1299.21 Q2158.59 1298.51 2157.13 1298.16 Q2155.67 1297.82 2154.11 1297.82 Q2151.73 1297.82 2150.53 1298.55 Q2149.35 1299.28 2149.35 1300.73 Q2149.35 1301.84 2150.2 1302.49 Q2151.05 1303.11 2153.62 1303.68 L2154.71 1303.93 Q2158.12 1304.66 2159.54 1305.99 Q2160.98 1307.31 2160.98 1309.69 Q2160.98 1312.4 2158.83 1313.98 Q2156.69 1315.56 2152.94 1315.56 Q2151.38 1315.56 2149.68 1315.25 Q2148 1314.95 2146.12 1314.34 L2146.12 1311.05 Q2147.89 1311.97 2149.61 1312.43 Q2151.33 1312.89 2153.01 1312.89 Q2155.27 1312.89 2156.49 1312.12 Q2157.7 1311.34 2157.7 1309.93 Q2157.7 1308.63 2156.82 1307.94 Q2155.95 1307.24 2152.98 1306.6 L2151.87 1306.34 Q2148.9 1305.72 2147.58 1304.43 Q2146.26 1303.13 2146.26 1300.87 Q2146.26 1298.13 2148.2 1296.64 Q2150.15 1295.14 2153.72 1295.14 Q2155.5 1295.14 2157.06 1295.4 Q2158.62 1295.66 2159.94 1296.18 Z" fill="#000000" fill-rule="evenodd" fill-opacity="1" /><path clip-path="url(#clip910)" d="M2182.7 1304.54 L2182.7 1306.1 L2168.01 1306.1 Q2168.22 1309.4 2169.99 1311.13 Q2171.78 1312.85 2174.96 1312.85 Q2176.8 1312.85 2178.52 1312.4 Q2180.25 1311.95 2181.95 1311.05 L2181.95 1314.07 Q2180.24 1314.8 2178.43 1315.18 Q2176.62 1315.56 2174.77 1315.56 Q2170.11 1315.56 2167.39 1312.85 Q2164.68 1310.14 2164.68 1305.53 Q2164.68 1300.75 2167.25 1297.96 Q2169.84 1295.14 2174.21 1295.14 Q2178.13 1295.14 2180.41 1297.68 Q2182.7 1300.2 2182.7 1304.54 M2179.51 1303.6 Q2179.47 1300.98 2178.03 1299.41 Q2176.61 1297.85 2174.25 1297.85 Q2171.57 1297.85 2169.96 1299.36 Q2168.36 1300.87 2168.12 1303.62 L2179.51 1303.6 Z" fill="#000000" fill-rule="evenodd" fill-opacity="1" /><path clip-path="url(#clip910)" d="M2196.78 1305.28 Q2192.91 1305.28 2191.42 1306.17 Q2189.92 1307.05 2189.92 1309.19 Q2189.92 1310.89 2191.03 1311.9 Q2192.16 1312.89 2194.09 1312.89 Q2196.75 1312.89 2198.34 1311.01 Q2199.96 1309.12 2199.96 1305.99 L2199.96 1305.28 L2196.78 1305.28 M2203.15 1303.96 L2203.15 1315.06 L2199.96 1315.06 L2199.96 1312.1 Q2198.86 1313.88 2197.23 1314.73 Q2195.6 1315.56 2193.24 1315.56 Q2190.25 1315.56 2188.48 1313.89 Q2186.73 1312.21 2186.73 1309.4 Q2186.73 1306.12 2188.92 1304.45 Q2191.12 1302.78 2195.48 1302.78 L2199.96 1302.78 L2199.96 1302.47 Q2199.96 1300.26 2198.5 1299.07 Q2197.06 1297.85 2194.44 1297.85 Q2192.77 1297.85 2191.19 1298.25 Q2189.61 1298.65 2188.15 1299.45 L2188.15 1296.5 Q2189.91 1295.82 2191.55 1295.49 Q2193.2 1295.14 2194.77 1295.14 Q2198.98 1295.14 2201.07 1297.33 Q2203.15 1299.52 2203.15 1303.96 Z" fill="#000000" fill-rule="evenodd" fill-opacity="1" /><path clip-path="url(#clip910)" d="M2221 1298.6 Q2220.46 1298.29 2219.82 1298.15 Q2219.19 1297.99 2218.43 1297.99 Q2215.72 1297.99 2214.26 1299.76 Q2212.82 1301.51 2212.82 1304.81 L2212.82 1315.06 L2209.61 1315.06 L2209.61 1295.61 L2212.82 1295.61 L2212.82 1298.63 Q2213.83 1296.86 2215.44 1296.01 Q2217.06 1295.14 2219.37 1295.14 Q2219.7 1295.14 2220.1 1295.2 Q2220.5 1295.23 2220.98 1295.32 L2221 1298.6 Z" fill="#000000" fill-rule="evenodd" fill-opacity="1" /><path clip-path="url(#clip910)" d="M2237.56 1296.36 L2237.56 1299.34 Q2236.21 1298.6 2234.84 1298.23 Q2233.48 1297.85 2232.09 1297.85 Q2228.98 1297.85 2227.27 1299.83 Q2225.55 1301.79 2225.55 1305.35 Q2225.55 1308.91 2227.27 1310.89 Q2228.98 1312.85 2232.09 1312.85 Q2233.48 1312.85 2234.84 1312.49 Q2236.21 1312.1 2237.56 1311.36 L2237.56 1314.31 Q2236.22 1314.93 2234.78 1315.25 Q2233.36 1315.56 2231.75 1315.56 Q2227.35 1315.56 2224.77 1312.8 Q2222.18 1310.04 2222.18 1305.35 Q2222.18 1300.59 2224.78 1297.87 Q2227.4 1295.14 2231.95 1295.14 Q2233.43 1295.14 2234.84 1295.46 Q2236.24 1295.75 2237.56 1296.36 Z" fill="#000000" fill-rule="evenodd" fill-opacity="1" /><path clip-path="url(#clip910)" d="M2259.28 1303.32 L2259.28 1315.06 L2256.09 1315.06 L2256.09 1303.42 Q2256.09 1300.66 2255.01 1299.29 Q2253.93 1297.92 2251.78 1297.92 Q2249.19 1297.92 2247.7 1299.57 Q2246.21 1301.22 2246.21 1304.07 L2246.21 1315.06 L2243 1315.06 L2243 1288.04 L2246.21 1288.04 L2246.21 1298.63 Q2247.35 1296.88 2248.9 1296.01 Q2250.46 1295.14 2252.49 1295.14 Q2255.84 1295.14 2257.56 1297.23 Q2259.28 1299.29 2259.28 1303.32 Z" fill="#000000" fill-rule="evenodd" fill-opacity="1" /><polyline clip-path="url(#clip910)" style="stroke:#e26f46; stroke-linecap:round; stroke-linejoin:round; stroke-width:3; stroke-opacity:1; fill:none" points="
  1888.74,1340.98 2028.95,1340.98 
  "/>
<path clip-path="url(#clip910)" d="M2064.61 1341.78 Q2065.74 1342.17 2066.8 1343.42 Q2067.87 1344.67 2068.95 1346.85 L2072.51 1353.94 L2068.74 1353.94 L2065.43 1347.29 Q2064.14 1344.68 2062.93 1343.83 Q2061.73 1342.98 2059.65 1342.98 L2055.83 1342.98 L2055.83 1353.94 L2052.32 1353.94 L2052.32 1328.02 L2060.24 1328.02 Q2064.68 1328.02 2066.87 1329.87 Q2069.06 1331.73 2069.06 1335.48 Q2069.06 1337.93 2067.91 1339.54 Q2066.78 1341.16 2064.61 1341.78 M2055.83 1330.9 L2055.83 1340.1 L2060.24 1340.1 Q2062.77 1340.1 2064.06 1338.94 Q2065.36 1337.76 2065.36 1335.48 Q2065.36 1333.21 2064.06 1332.06 Q2062.77 1330.9 2060.24 1330.9 L2055.83 1330.9 Z" fill="#000000" fill-rule="evenodd" fill-opacity="1" /><path clip-path="url(#clip910)" d="M2091.92 1343.42 L2091.92 1344.98 L2077.23 1344.98 Q2077.44 1348.28 2079.21 1350.01 Q2081 1351.73 2084.18 1351.73 Q2086.02 1351.73 2087.74 1351.28 Q2089.47 1350.83 2091.17 1349.93 L2091.17 1352.95 Q2089.45 1353.68 2087.65 1354.06 Q2085.84 1354.44 2083.99 1354.44 Q2079.33 1354.44 2076.61 1351.73 Q2073.9 1349.02 2073.9 1344.41 Q2073.9 1339.63 2076.47 1336.84 Q2079.06 1334.02 2083.43 1334.02 Q2087.35 1334.02 2089.63 1336.56 Q2091.92 1339.08 2091.92 1343.42 M2088.73 1342.48 Q2088.69 1339.86 2087.25 1338.29 Q2085.83 1336.73 2083.46 1336.73 Q2080.79 1336.73 2079.18 1338.24 Q2077.58 1339.75 2077.34 1342.5 L2088.73 1342.48 Z" fill="#000000" fill-rule="evenodd" fill-opacity="1" /><path clip-path="url(#clip910)" d="M2109.56 1335.06 L2109.56 1338.09 Q2108.2 1337.39 2106.75 1337.04 Q2105.29 1336.7 2103.73 1336.7 Q2101.35 1336.7 2100.15 1337.43 Q2098.97 1338.16 2098.97 1339.61 Q2098.97 1340.72 2099.82 1341.37 Q2100.67 1341.99 2103.24 1342.56 L2104.33 1342.81 Q2107.74 1343.54 2109.16 1344.87 Q2110.6 1346.19 2110.6 1348.57 Q2110.6 1351.28 2108.45 1352.86 Q2106.31 1354.44 2102.56 1354.44 Q2101 1354.44 2099.3 1354.13 Q2097.61 1353.83 2095.74 1353.22 L2095.74 1349.93 Q2097.51 1350.85 2099.23 1351.31 Q2100.95 1351.77 2102.63 1351.77 Q2104.89 1351.77 2106.1 1351 Q2107.32 1350.22 2107.32 1348.81 Q2107.32 1347.51 2106.43 1346.82 Q2105.57 1346.12 2102.6 1345.48 L2101.49 1345.22 Q2098.52 1344.6 2097.2 1343.31 Q2095.88 1342.01 2095.88 1339.75 Q2095.88 1337.01 2097.82 1335.52 Q2099.77 1334.02 2103.34 1334.02 Q2105.11 1334.02 2106.68 1334.28 Q2108.24 1334.54 2109.56 1335.06 Z" fill="#000000" fill-rule="evenodd" fill-opacity="1" /><path clip-path="url(#clip910)" d="M2132.32 1343.42 L2132.32 1344.98 L2117.63 1344.98 Q2117.84 1348.28 2119.61 1350.01 Q2121.4 1351.73 2124.58 1351.73 Q2126.42 1351.73 2128.13 1351.28 Q2129.87 1350.83 2131.57 1349.93 L2131.57 1352.95 Q2129.85 1353.68 2128.05 1354.06 Q2126.24 1354.44 2124.38 1354.44 Q2119.73 1354.44 2117.01 1351.73 Q2114.3 1349.02 2114.3 1344.41 Q2114.3 1339.63 2116.87 1336.84 Q2119.45 1334.02 2123.83 1334.02 Q2127.75 1334.02 2130.03 1336.56 Q2132.32 1339.08 2132.32 1343.42 M2129.12 1342.48 Q2129.09 1339.86 2127.65 1338.29 Q2126.22 1336.73 2123.86 1336.73 Q2121.19 1336.73 2119.58 1338.24 Q2117.98 1339.75 2117.74 1342.5 L2129.12 1342.48 Z" fill="#000000" fill-rule="evenodd" fill-opacity="1" /><path clip-path="url(#clip910)" d="M2146.4 1344.16 Q2142.53 1344.16 2141.03 1345.05 Q2139.54 1345.93 2139.54 1348.07 Q2139.54 1349.77 2140.65 1350.78 Q2141.78 1351.77 2143.71 1351.77 Q2146.36 1351.77 2147.96 1349.89 Q2149.58 1348 2149.58 1344.87 L2149.58 1344.16 L2146.4 1344.16 M2152.77 1342.84 L2152.77 1353.94 L2149.58 1353.94 L2149.58 1350.98 Q2148.48 1352.76 2146.85 1353.61 Q2145.22 1354.44 2142.86 1354.44 Q2139.87 1354.44 2138.1 1352.77 Q2136.35 1351.09 2136.35 1348.28 Q2136.35 1345 2138.53 1343.33 Q2140.74 1341.66 2145.1 1341.66 L2149.58 1341.66 L2149.58 1341.35 Q2149.58 1339.14 2148.12 1337.95 Q2146.68 1336.73 2144.05 1336.73 Q2142.39 1336.73 2140.81 1337.13 Q2139.23 1337.53 2137.77 1338.33 L2137.77 1335.38 Q2139.52 1334.7 2141.17 1334.37 Q2142.82 1334.02 2144.38 1334.02 Q2148.6 1334.02 2150.69 1336.21 Q2152.77 1338.4 2152.77 1342.84 Z" fill="#000000" fill-rule="evenodd" fill-opacity="1" /><path clip-path="url(#clip910)" d="M2170.62 1337.48 Q2170.08 1337.17 2169.44 1337.03 Q2168.81 1336.87 2168.05 1336.87 Q2165.34 1336.87 2163.88 1338.64 Q2162.44 1340.39 2162.44 1343.69 L2162.44 1353.94 L2159.23 1353.94 L2159.23 1334.49 L2162.44 1334.49 L2162.44 1337.51 Q2163.45 1335.74 2165.06 1334.89 Q2166.68 1334.02 2168.99 1334.02 Q2169.31 1334.02 2169.71 1334.08 Q2170.11 1334.11 2170.6 1334.2 L2170.62 1337.48 Z" fill="#000000" fill-rule="evenodd" fill-opacity="1" /><path clip-path="url(#clip910)" d="M2187.18 1335.24 L2187.18 1338.22 Q2185.83 1337.48 2184.45 1337.11 Q2183.1 1336.73 2181.71 1336.73 Q2178.6 1336.73 2176.88 1338.71 Q2175.17 1340.67 2175.17 1344.23 Q2175.17 1347.79 2176.88 1349.77 Q2178.6 1351.73 2181.71 1351.73 Q2183.1 1351.73 2184.45 1351.37 Q2185.83 1350.98 2187.18 1350.24 L2187.18 1353.19 Q2185.84 1353.81 2184.4 1354.13 Q2182.98 1354.44 2181.36 1354.44 Q2176.97 1354.44 2174.38 1351.68 Q2171.8 1348.92 2171.8 1344.23 Q2171.8 1339.47 2174.4 1336.75 Q2177.02 1334.02 2181.57 1334.02 Q2183.05 1334.02 2184.45 1334.34 Q2185.86 1334.63 2187.18 1335.24 Z" fill="#000000" fill-rule="evenodd" fill-opacity="1" /><path clip-path="url(#clip910)" d="M2208.9 1342.2 L2208.9 1353.94 L2205.7 1353.94 L2205.7 1342.3 Q2205.7 1339.54 2204.63 1338.17 Q2203.55 1336.8 2201.4 1336.8 Q2198.81 1336.8 2197.32 1338.45 Q2195.83 1340.1 2195.83 1342.95 L2195.83 1353.94 L2192.61 1353.94 L2192.61 1326.92 L2195.83 1326.92 L2195.83 1337.51 Q2196.97 1335.76 2198.52 1334.89 Q2200.08 1334.02 2202.11 1334.02 Q2205.46 1334.02 2207.18 1336.11 Q2208.9 1338.17 2208.9 1342.2 Z" fill="#000000" fill-rule="evenodd" fill-opacity="1" /></svg>
