<?xml version="1.0" encoding="utf-8" standalone="no"?>
<!DOCTYPE svg PUBLIC "-//W3C//DTD SVG 1.1//EN"
  "http://www.w3.org/Graphics/SVG/1.1/DTD/svg11.dtd">
<svg xmlns:xlink="http://www.w3.org/1999/xlink" width="432pt" height="288pt" viewBox="0 0 432 288" xmlns="http://www.w3.org/2000/svg" version="1.1">
 <metadata>
  <rdf:RDF xmlns:dc="http://purl.org/dc/elements/1.1/" xmlns:cc="http://creativecommons.org/ns#" xmlns:rdf="http://www.w3.org/1999/02/22-rdf-syntax-ns#">
   <cc:Work>
    <dc:type rdf:resource="http://purl.org/dc/dcmitype/StillImage"/>
    <dc:date>2022-12-12T14:45:57.653162</dc:date>
    <dc:format>image/svg+xml</dc:format>
    <dc:creator>
     <cc:Agent>
      <dc:title>Matplotlib v3.5.2, https://matplotlib.org/</dc:title>
     </cc:Agent>
    </dc:creator>
   </cc:Work>
  </rdf:RDF>
 </metadata>
 <defs>
  <style type="text/css">*{stroke-linejoin: round; stroke-linecap: butt}</style>
 </defs>
 <g id="figure_1">
  <g id="patch_1">
   <path d="M 0 288 
L 432 288 
L 432 0 
L 0 0 
z
" style="fill: #ffffff"/>
  </g>
  <g id="axes_1">
   <g id="patch_2">
    <path d="M 43.991537 258.945354 
L 429.165354 258.945354 
L 429.165354 2.834646 
L 43.991537 2.834646 
z
" style="fill: #ffffff"/>
   </g>
   <g id="matplotlib.axis_1">
    <g id="xtick_1">
     <g id="line2d_1">
      <path d="M 69.040344 258.945354 
L 69.040344 2.834646 
" clip-path="url(#p2deb72033b)" style="fill: none; stroke: #000000; stroke-opacity: 0.1; stroke-width: 0.5; stroke-linecap: square"/>
     </g>
     <g id="line2d_2">
      <defs>
       <path id="mb1f7a0f5d2" d="M 0 0 
L 0 -2.5 
" style="stroke: #000000; stroke-width: 0.5"/>
      </defs>
      <g>
       <use xlink:href="#mb1f7a0f5d2" x="69.040344" y="258.945354" style="stroke: #000000; stroke-width: 0.5"/>
      </g>
     </g>
     <g id="text_1">
      <!-- 1 -->
      <g transform="translate(66.495344 268.524104)scale(0.08 -0.08)">
       <defs>
        <path id="DejaVuSans-31" d="M 794 531 
L 1825 531 
L 1825 4091 
L 703 3866 
L 703 4441 
L 1819 4666 
L 2450 4666 
L 2450 531 
L 3481 531 
L 3481 0 
L 794 0 
L 794 531 
z
" transform="scale(0.015625)"/>
       </defs>
       <use xlink:href="#DejaVuSans-31"/>
      </g>
     </g>
    </g>
    <g id="xtick_2">
     <g id="line2d_3">
      <path d="M 106.271033 258.945354 
L 106.271033 2.834646 
" clip-path="url(#p2deb72033b)" style="fill: none; stroke: #000000; stroke-opacity: 0.1; stroke-width: 0.5; stroke-linecap: square"/>
     </g>
     <g id="line2d_4">
      <g>
       <use xlink:href="#mb1f7a0f5d2" x="106.271033" y="258.945354" style="stroke: #000000; stroke-width: 0.5"/>
      </g>
     </g>
     <g id="text_2">
      <!-- 2 -->
      <g transform="translate(103.726033 268.524104)scale(0.08 -0.08)">
       <defs>
        <path id="DejaVuSans-32" d="M 1228 531 
L 3431 531 
L 3431 0 
L 469 0 
L 469 531 
Q 828 903 1448 1529 
Q 2069 2156 2228 2338 
Q 2531 2678 2651 2914 
Q 2772 3150 2772 3378 
Q 2772 3750 2511 3984 
Q 2250 4219 1831 4219 
Q 1534 4219 1204 4116 
Q 875 4013 500 3803 
L 500 4441 
Q 881 4594 1212 4672 
Q 1544 4750 1819 4750 
Q 2544 4750 2975 4387 
Q 3406 4025 3406 3419 
Q 3406 3131 3298 2873 
Q 3191 2616 2906 2266 
Q 2828 2175 2409 1742 
Q 1991 1309 1228 531 
z
" transform="scale(0.015625)"/>
       </defs>
       <use xlink:href="#DejaVuSans-32"/>
      </g>
     </g>
    </g>
    <g id="xtick_3">
     <g id="line2d_5">
      <path d="M 143.501723 258.945354 
L 143.501723 2.834646 
" clip-path="url(#p2deb72033b)" style="fill: none; stroke: #000000; stroke-opacity: 0.1; stroke-width: 0.5; stroke-linecap: square"/>
     </g>
     <g id="line2d_6">
      <g>
       <use xlink:href="#mb1f7a0f5d2" x="143.501723" y="258.945354" style="stroke: #000000; stroke-width: 0.5"/>
      </g>
     </g>
     <g id="text_3">
      <!-- 3 -->
      <g transform="translate(140.956723 268.524104)scale(0.08 -0.08)">
       <defs>
        <path id="DejaVuSans-33" d="M 2597 2516 
Q 3050 2419 3304 2112 
Q 3559 1806 3559 1356 
Q 3559 666 3084 287 
Q 2609 -91 1734 -91 
Q 1441 -91 1130 -33 
Q 819 25 488 141 
L 488 750 
Q 750 597 1062 519 
Q 1375 441 1716 441 
Q 2309 441 2620 675 
Q 2931 909 2931 1356 
Q 2931 1769 2642 2001 
Q 2353 2234 1838 2234 
L 1294 2234 
L 1294 2753 
L 1863 2753 
Q 2328 2753 2575 2939 
Q 2822 3125 2822 3475 
Q 2822 3834 2567 4026 
Q 2313 4219 1838 4219 
Q 1578 4219 1281 4162 
Q 984 4106 628 3988 
L 628 4550 
Q 988 4650 1302 4700 
Q 1616 4750 1894 4750 
Q 2613 4750 3031 4423 
Q 3450 4097 3450 3541 
Q 3450 3153 3228 2886 
Q 3006 2619 2597 2516 
z
" transform="scale(0.015625)"/>
       </defs>
       <use xlink:href="#DejaVuSans-33"/>
      </g>
     </g>
    </g>
    <g id="xtick_4">
     <g id="line2d_7">
      <path d="M 180.732412 258.945354 
L 180.732412 2.834646 
" clip-path="url(#p2deb72033b)" style="fill: none; stroke: #000000; stroke-opacity: 0.1; stroke-width: 0.5; stroke-linecap: square"/>
     </g>
     <g id="line2d_8">
      <g>
       <use xlink:href="#mb1f7a0f5d2" x="180.732412" y="258.945354" style="stroke: #000000; stroke-width: 0.5"/>
      </g>
     </g>
     <g id="text_4">
      <!-- 4 -->
      <g transform="translate(178.187412 268.524104)scale(0.08 -0.08)">
       <defs>
        <path id="DejaVuSans-34" d="M 2419 4116 
L 825 1625 
L 2419 1625 
L 2419 4116 
z
M 2253 4666 
L 3047 4666 
L 3047 1625 
L 3713 1625 
L 3713 1100 
L 3047 1100 
L 3047 0 
L 2419 0 
L 2419 1100 
L 313 1100 
L 313 1709 
L 2253 4666 
z
" transform="scale(0.015625)"/>
       </defs>
       <use xlink:href="#DejaVuSans-34"/>
      </g>
     </g>
    </g>
    <g id="xtick_5">
     <g id="line2d_9">
      <path d="M 217.963101 258.945354 
L 217.963101 2.834646 
" clip-path="url(#p2deb72033b)" style="fill: none; stroke: #000000; stroke-opacity: 0.1; stroke-width: 0.5; stroke-linecap: square"/>
     </g>
     <g id="line2d_10">
      <g>
       <use xlink:href="#mb1f7a0f5d2" x="217.963101" y="258.945354" style="stroke: #000000; stroke-width: 0.5"/>
      </g>
     </g>
     <g id="text_5">
      <!-- 5 -->
      <g transform="translate(215.418101 268.524104)scale(0.08 -0.08)">
       <defs>
        <path id="DejaVuSans-35" d="M 691 4666 
L 3169 4666 
L 3169 4134 
L 1269 4134 
L 1269 2991 
Q 1406 3038 1543 3061 
Q 1681 3084 1819 3084 
Q 2600 3084 3056 2656 
Q 3513 2228 3513 1497 
Q 3513 744 3044 326 
Q 2575 -91 1722 -91 
Q 1428 -91 1123 -41 
Q 819 9 494 109 
L 494 744 
Q 775 591 1075 516 
Q 1375 441 1709 441 
Q 2250 441 2565 725 
Q 2881 1009 2881 1497 
Q 2881 1984 2565 2268 
Q 2250 2553 1709 2553 
Q 1456 2553 1204 2497 
Q 953 2441 691 2322 
L 691 4666 
z
" transform="scale(0.015625)"/>
       </defs>
       <use xlink:href="#DejaVuSans-35"/>
      </g>
     </g>
    </g>
    <g id="xtick_6">
     <g id="line2d_11">
      <path d="M 255.19379 258.945354 
L 255.19379 2.834646 
" clip-path="url(#p2deb72033b)" style="fill: none; stroke: #000000; stroke-opacity: 0.1; stroke-width: 0.5; stroke-linecap: square"/>
     </g>
     <g id="line2d_12">
      <g>
       <use xlink:href="#mb1f7a0f5d2" x="255.19379" y="258.945354" style="stroke: #000000; stroke-width: 0.5"/>
      </g>
     </g>
     <g id="text_6">
      <!-- 6 -->
      <g transform="translate(252.64879 268.524104)scale(0.08 -0.08)">
       <defs>
        <path id="DejaVuSans-36" d="M 2113 2584 
Q 1688 2584 1439 2293 
Q 1191 2003 1191 1497 
Q 1191 994 1439 701 
Q 1688 409 2113 409 
Q 2538 409 2786 701 
Q 3034 994 3034 1497 
Q 3034 2003 2786 2293 
Q 2538 2584 2113 2584 
z
M 3366 4563 
L 3366 3988 
Q 3128 4100 2886 4159 
Q 2644 4219 2406 4219 
Q 1781 4219 1451 3797 
Q 1122 3375 1075 2522 
Q 1259 2794 1537 2939 
Q 1816 3084 2150 3084 
Q 2853 3084 3261 2657 
Q 3669 2231 3669 1497 
Q 3669 778 3244 343 
Q 2819 -91 2113 -91 
Q 1303 -91 875 529 
Q 447 1150 447 2328 
Q 447 3434 972 4092 
Q 1497 4750 2381 4750 
Q 2619 4750 2861 4703 
Q 3103 4656 3366 4563 
z
" transform="scale(0.015625)"/>
       </defs>
       <use xlink:href="#DejaVuSans-36"/>
      </g>
     </g>
    </g>
    <g id="xtick_7">
     <g id="line2d_13">
      <path d="M 292.424479 258.945354 
L 292.424479 2.834646 
" clip-path="url(#p2deb72033b)" style="fill: none; stroke: #000000; stroke-opacity: 0.1; stroke-width: 0.5; stroke-linecap: square"/>
     </g>
     <g id="line2d_14">
      <g>
       <use xlink:href="#mb1f7a0f5d2" x="292.424479" y="258.945354" style="stroke: #000000; stroke-width: 0.5"/>
      </g>
     </g>
     <g id="text_7">
      <!-- 7 -->
      <g transform="translate(289.879479 268.524104)scale(0.08 -0.08)">
       <defs>
        <path id="DejaVuSans-37" d="M 525 4666 
L 3525 4666 
L 3525 4397 
L 1831 0 
L 1172 0 
L 2766 4134 
L 525 4134 
L 525 4666 
z
" transform="scale(0.015625)"/>
       </defs>
       <use xlink:href="#DejaVuSans-37"/>
      </g>
     </g>
    </g>
    <g id="xtick_8">
     <g id="line2d_15">
      <path d="M 329.655168 258.945354 
L 329.655168 2.834646 
" clip-path="url(#p2deb72033b)" style="fill: none; stroke: #000000; stroke-opacity: 0.1; stroke-width: 0.5; stroke-linecap: square"/>
     </g>
     <g id="line2d_16">
      <g>
       <use xlink:href="#mb1f7a0f5d2" x="329.655168" y="258.945354" style="stroke: #000000; stroke-width: 0.5"/>
      </g>
     </g>
     <g id="text_8">
      <!-- 8 -->
      <g transform="translate(327.110168 268.524104)scale(0.08 -0.08)">
       <defs>
        <path id="DejaVuSans-38" d="M 2034 2216 
Q 1584 2216 1326 1975 
Q 1069 1734 1069 1313 
Q 1069 891 1326 650 
Q 1584 409 2034 409 
Q 2484 409 2743 651 
Q 3003 894 3003 1313 
Q 3003 1734 2745 1975 
Q 2488 2216 2034 2216 
z
M 1403 2484 
Q 997 2584 770 2862 
Q 544 3141 544 3541 
Q 544 4100 942 4425 
Q 1341 4750 2034 4750 
Q 2731 4750 3128 4425 
Q 3525 4100 3525 3541 
Q 3525 3141 3298 2862 
Q 3072 2584 2669 2484 
Q 3125 2378 3379 2068 
Q 3634 1759 3634 1313 
Q 3634 634 3220 271 
Q 2806 -91 2034 -91 
Q 1263 -91 848 271 
Q 434 634 434 1313 
Q 434 1759 690 2068 
Q 947 2378 1403 2484 
z
M 1172 3481 
Q 1172 3119 1398 2916 
Q 1625 2713 2034 2713 
Q 2441 2713 2670 2916 
Q 2900 3119 2900 3481 
Q 2900 3844 2670 4047 
Q 2441 4250 2034 4250 
Q 1625 4250 1398 4047 
Q 1172 3844 1172 3481 
z
" transform="scale(0.015625)"/>
       </defs>
       <use xlink:href="#DejaVuSans-38"/>
      </g>
     </g>
    </g>
    <g id="xtick_9">
     <g id="line2d_17">
      <path d="M 366.885858 258.945354 
L 366.885858 2.834646 
" clip-path="url(#p2deb72033b)" style="fill: none; stroke: #000000; stroke-opacity: 0.1; stroke-width: 0.5; stroke-linecap: square"/>
     </g>
     <g id="line2d_18">
      <g>
       <use xlink:href="#mb1f7a0f5d2" x="366.885858" y="258.945354" style="stroke: #000000; stroke-width: 0.5"/>
      </g>
     </g>
     <g id="text_9">
      <!-- 9 -->
      <g transform="translate(364.340858 268.524104)scale(0.08 -0.08)">
       <defs>
        <path id="DejaVuSans-39" d="M 703 97 
L 703 672 
Q 941 559 1184 500 
Q 1428 441 1663 441 
Q 2288 441 2617 861 
Q 2947 1281 2994 2138 
Q 2813 1869 2534 1725 
Q 2256 1581 1919 1581 
Q 1219 1581 811 2004 
Q 403 2428 403 3163 
Q 403 3881 828 4315 
Q 1253 4750 1959 4750 
Q 2769 4750 3195 4129 
Q 3622 3509 3622 2328 
Q 3622 1225 3098 567 
Q 2575 -91 1691 -91 
Q 1453 -91 1209 -44 
Q 966 3 703 97 
z
M 1959 2075 
Q 2384 2075 2632 2365 
Q 2881 2656 2881 3163 
Q 2881 3666 2632 3958 
Q 2384 4250 1959 4250 
Q 1534 4250 1286 3958 
Q 1038 3666 1038 3163 
Q 1038 2656 1286 2365 
Q 1534 2075 1959 2075 
z
" transform="scale(0.015625)"/>
       </defs>
       <use xlink:href="#DejaVuSans-39"/>
      </g>
     </g>
    </g>
    <g id="xtick_10">
     <g id="line2d_19">
      <path d="M 404.116547 258.945354 
L 404.116547 2.834646 
" clip-path="url(#p2deb72033b)" style="fill: none; stroke: #000000; stroke-opacity: 0.1; stroke-width: 0.5; stroke-linecap: square"/>
     </g>
     <g id="line2d_20">
      <g>
       <use xlink:href="#mb1f7a0f5d2" x="404.116547" y="258.945354" style="stroke: #000000; stroke-width: 0.5"/>
      </g>
     </g>
     <g id="text_10">
      <!-- 10 -->
      <g transform="translate(399.026547 268.524104)scale(0.08 -0.08)">
       <defs>
        <path id="DejaVuSans-30" d="M 2034 4250 
Q 1547 4250 1301 3770 
Q 1056 3291 1056 2328 
Q 1056 1369 1301 889 
Q 1547 409 2034 409 
Q 2525 409 2770 889 
Q 3016 1369 3016 2328 
Q 3016 3291 2770 3770 
Q 2525 4250 2034 4250 
z
M 2034 4750 
Q 2819 4750 3233 4129 
Q 3647 3509 3647 2328 
Q 3647 1150 3233 529 
Q 2819 -91 2034 -91 
Q 1250 -91 836 529 
Q 422 1150 422 2328 
Q 422 3509 836 4129 
Q 1250 4750 2034 4750 
z
" transform="scale(0.015625)"/>
       </defs>
       <use xlink:href="#DejaVuSans-31"/>
       <use xlink:href="#DejaVuSans-30" x="63.623047"/>
      </g>
     </g>
    </g>
    <g id="text_11">
     <!-- Liczba okresów przydatności dobra -->
     <g transform="translate(140.007899 283.023948)scale(0.11 -0.11)">
      <defs>
       <path id="DejaVuSans-4c" d="M 628 4666 
L 1259 4666 
L 1259 531 
L 3531 531 
L 3531 0 
L 628 0 
L 628 4666 
z
" transform="scale(0.015625)"/>
       <path id="DejaVuSans-69" d="M 603 3500 
L 1178 3500 
L 1178 0 
L 603 0 
L 603 3500 
z
M 603 4863 
L 1178 4863 
L 1178 4134 
L 603 4134 
L 603 4863 
z
" transform="scale(0.015625)"/>
       <path id="DejaVuSans-63" d="M 3122 3366 
L 3122 2828 
Q 2878 2963 2633 3030 
Q 2388 3097 2138 3097 
Q 1578 3097 1268 2742 
Q 959 2388 959 1747 
Q 959 1106 1268 751 
Q 1578 397 2138 397 
Q 2388 397 2633 464 
Q 2878 531 3122 666 
L 3122 134 
Q 2881 22 2623 -34 
Q 2366 -91 2075 -91 
Q 1284 -91 818 406 
Q 353 903 353 1747 
Q 353 2603 823 3093 
Q 1294 3584 2113 3584 
Q 2378 3584 2631 3529 
Q 2884 3475 3122 3366 
z
" transform="scale(0.015625)"/>
       <path id="DejaVuSans-7a" d="M 353 3500 
L 3084 3500 
L 3084 2975 
L 922 459 
L 3084 459 
L 3084 0 
L 275 0 
L 275 525 
L 2438 3041 
L 353 3041 
L 353 3500 
z
" transform="scale(0.015625)"/>
       <path id="DejaVuSans-62" d="M 3116 1747 
Q 3116 2381 2855 2742 
Q 2594 3103 2138 3103 
Q 1681 3103 1420 2742 
Q 1159 2381 1159 1747 
Q 1159 1113 1420 752 
Q 1681 391 2138 391 
Q 2594 391 2855 752 
Q 3116 1113 3116 1747 
z
M 1159 2969 
Q 1341 3281 1617 3432 
Q 1894 3584 2278 3584 
Q 2916 3584 3314 3078 
Q 3713 2572 3713 1747 
Q 3713 922 3314 415 
Q 2916 -91 2278 -91 
Q 1894 -91 1617 61 
Q 1341 213 1159 525 
L 1159 0 
L 581 0 
L 581 4863 
L 1159 4863 
L 1159 2969 
z
" transform="scale(0.015625)"/>
       <path id="DejaVuSans-61" d="M 2194 1759 
Q 1497 1759 1228 1600 
Q 959 1441 959 1056 
Q 959 750 1161 570 
Q 1363 391 1709 391 
Q 2188 391 2477 730 
Q 2766 1069 2766 1631 
L 2766 1759 
L 2194 1759 
z
M 3341 1997 
L 3341 0 
L 2766 0 
L 2766 531 
Q 2569 213 2275 61 
Q 1981 -91 1556 -91 
Q 1019 -91 701 211 
Q 384 513 384 1019 
Q 384 1609 779 1909 
Q 1175 2209 1959 2209 
L 2766 2209 
L 2766 2266 
Q 2766 2663 2505 2880 
Q 2244 3097 1772 3097 
Q 1472 3097 1187 3025 
Q 903 2953 641 2809 
L 641 3341 
Q 956 3463 1253 3523 
Q 1550 3584 1831 3584 
Q 2591 3584 2966 3190 
Q 3341 2797 3341 1997 
z
" transform="scale(0.015625)"/>
       <path id="DejaVuSans-20" transform="scale(0.015625)"/>
       <path id="DejaVuSans-6f" d="M 1959 3097 
Q 1497 3097 1228 2736 
Q 959 2375 959 1747 
Q 959 1119 1226 758 
Q 1494 397 1959 397 
Q 2419 397 2687 759 
Q 2956 1122 2956 1747 
Q 2956 2369 2687 2733 
Q 2419 3097 1959 3097 
z
M 1959 3584 
Q 2709 3584 3137 3096 
Q 3566 2609 3566 1747 
Q 3566 888 3137 398 
Q 2709 -91 1959 -91 
Q 1206 -91 779 398 
Q 353 888 353 1747 
Q 353 2609 779 3096 
Q 1206 3584 1959 3584 
z
" transform="scale(0.015625)"/>
       <path id="DejaVuSans-6b" d="M 581 4863 
L 1159 4863 
L 1159 1991 
L 2875 3500 
L 3609 3500 
L 1753 1863 
L 3688 0 
L 2938 0 
L 1159 1709 
L 1159 0 
L 581 0 
L 581 4863 
z
" transform="scale(0.015625)"/>
       <path id="DejaVuSans-72" d="M 2631 2963 
Q 2534 3019 2420 3045 
Q 2306 3072 2169 3072 
Q 1681 3072 1420 2755 
Q 1159 2438 1159 1844 
L 1159 0 
L 581 0 
L 581 3500 
L 1159 3500 
L 1159 2956 
Q 1341 3275 1631 3429 
Q 1922 3584 2338 3584 
Q 2397 3584 2469 3576 
Q 2541 3569 2628 3553 
L 2631 2963 
z
" transform="scale(0.015625)"/>
       <path id="DejaVuSans-65" d="M 3597 1894 
L 3597 1613 
L 953 1613 
Q 991 1019 1311 708 
Q 1631 397 2203 397 
Q 2534 397 2845 478 
Q 3156 559 3463 722 
L 3463 178 
Q 3153 47 2828 -22 
Q 2503 -91 2169 -91 
Q 1331 -91 842 396 
Q 353 884 353 1716 
Q 353 2575 817 3079 
Q 1281 3584 2069 3584 
Q 2775 3584 3186 3129 
Q 3597 2675 3597 1894 
z
M 3022 2063 
Q 3016 2534 2758 2815 
Q 2500 3097 2075 3097 
Q 1594 3097 1305 2825 
Q 1016 2553 972 2059 
L 3022 2063 
z
" transform="scale(0.015625)"/>
       <path id="DejaVuSans-73" d="M 2834 3397 
L 2834 2853 
Q 2591 2978 2328 3040 
Q 2066 3103 1784 3103 
Q 1356 3103 1142 2972 
Q 928 2841 928 2578 
Q 928 2378 1081 2264 
Q 1234 2150 1697 2047 
L 1894 2003 
Q 2506 1872 2764 1633 
Q 3022 1394 3022 966 
Q 3022 478 2636 193 
Q 2250 -91 1575 -91 
Q 1294 -91 989 -36 
Q 684 19 347 128 
L 347 722 
Q 666 556 975 473 
Q 1284 391 1588 391 
Q 1994 391 2212 530 
Q 2431 669 2431 922 
Q 2431 1156 2273 1281 
Q 2116 1406 1581 1522 
L 1381 1569 
Q 847 1681 609 1914 
Q 372 2147 372 2553 
Q 372 3047 722 3315 
Q 1072 3584 1716 3584 
Q 2034 3584 2315 3537 
Q 2597 3491 2834 3397 
z
" transform="scale(0.015625)"/>
       <path id="DejaVuSans-f3" d="M 1959 3097 
Q 1497 3097 1228 2736 
Q 959 2375 959 1747 
Q 959 1119 1226 758 
Q 1494 397 1959 397 
Q 2419 397 2687 759 
Q 2956 1122 2956 1747 
Q 2956 2369 2687 2733 
Q 2419 3097 1959 3097 
z
M 1959 3584 
Q 2709 3584 3137 3096 
Q 3566 2609 3566 1747 
Q 3566 888 3137 398 
Q 2709 -91 1959 -91 
Q 1206 -91 779 398 
Q 353 888 353 1747 
Q 353 2609 779 3096 
Q 1206 3584 1959 3584 
z
M 2394 5119 
L 3016 5119 
L 1997 3944 
L 1519 3944 
L 2394 5119 
z
" transform="scale(0.015625)"/>
       <path id="DejaVuSans-77" d="M 269 3500 
L 844 3500 
L 1563 769 
L 2278 3500 
L 2956 3500 
L 3675 769 
L 4391 3500 
L 4966 3500 
L 4050 0 
L 3372 0 
L 2619 2869 
L 1863 0 
L 1184 0 
L 269 3500 
z
" transform="scale(0.015625)"/>
       <path id="DejaVuSans-70" d="M 1159 525 
L 1159 -1331 
L 581 -1331 
L 581 3500 
L 1159 3500 
L 1159 2969 
Q 1341 3281 1617 3432 
Q 1894 3584 2278 3584 
Q 2916 3584 3314 3078 
Q 3713 2572 3713 1747 
Q 3713 922 3314 415 
Q 2916 -91 2278 -91 
Q 1894 -91 1617 61 
Q 1341 213 1159 525 
z
M 3116 1747 
Q 3116 2381 2855 2742 
Q 2594 3103 2138 3103 
Q 1681 3103 1420 2742 
Q 1159 2381 1159 1747 
Q 1159 1113 1420 752 
Q 1681 391 2138 391 
Q 2594 391 2855 752 
Q 3116 1113 3116 1747 
z
" transform="scale(0.015625)"/>
       <path id="DejaVuSans-79" d="M 2059 -325 
Q 1816 -950 1584 -1140 
Q 1353 -1331 966 -1331 
L 506 -1331 
L 506 -850 
L 844 -850 
Q 1081 -850 1212 -737 
Q 1344 -625 1503 -206 
L 1606 56 
L 191 3500 
L 800 3500 
L 1894 763 
L 2988 3500 
L 3597 3500 
L 2059 -325 
z
" transform="scale(0.015625)"/>
       <path id="DejaVuSans-64" d="M 2906 2969 
L 2906 4863 
L 3481 4863 
L 3481 0 
L 2906 0 
L 2906 525 
Q 2725 213 2448 61 
Q 2172 -91 1784 -91 
Q 1150 -91 751 415 
Q 353 922 353 1747 
Q 353 2572 751 3078 
Q 1150 3584 1784 3584 
Q 2172 3584 2448 3432 
Q 2725 3281 2906 2969 
z
M 947 1747 
Q 947 1113 1208 752 
Q 1469 391 1925 391 
Q 2381 391 2643 752 
Q 2906 1113 2906 1747 
Q 2906 2381 2643 2742 
Q 2381 3103 1925 3103 
Q 1469 3103 1208 2742 
Q 947 2381 947 1747 
z
" transform="scale(0.015625)"/>
       <path id="DejaVuSans-74" d="M 1172 4494 
L 1172 3500 
L 2356 3500 
L 2356 3053 
L 1172 3053 
L 1172 1153 
Q 1172 725 1289 603 
Q 1406 481 1766 481 
L 2356 481 
L 2356 0 
L 1766 0 
Q 1100 0 847 248 
Q 594 497 594 1153 
L 594 3053 
L 172 3053 
L 172 3500 
L 594 3500 
L 594 4494 
L 1172 4494 
z
" transform="scale(0.015625)"/>
       <path id="DejaVuSans-6e" d="M 3513 2113 
L 3513 0 
L 2938 0 
L 2938 2094 
Q 2938 2591 2744 2837 
Q 2550 3084 2163 3084 
Q 1697 3084 1428 2787 
Q 1159 2491 1159 1978 
L 1159 0 
L 581 0 
L 581 3500 
L 1159 3500 
L 1159 2956 
Q 1366 3272 1645 3428 
Q 1925 3584 2291 3584 
Q 2894 3584 3203 3211 
Q 3513 2838 3513 2113 
z
" transform="scale(0.015625)"/>
       <path id="DejaVuSans-15b" d="M 2241 5141 
L 2863 5141 
L 1844 3966 
L 1366 3966 
L 2241 5141 
z
M 2834 3397 
L 2834 2853 
Q 2591 2978 2328 3040 
Q 2066 3103 1784 3103 
Q 1356 3103 1142 2972 
Q 928 2841 928 2578 
Q 928 2378 1081 2264 
Q 1234 2150 1697 2047 
L 1894 2003 
Q 2506 1872 2764 1633 
Q 3022 1394 3022 966 
Q 3022 478 2636 193 
Q 2250 -91 1575 -91 
Q 1294 -91 989 -36 
Q 684 19 347 128 
L 347 722 
Q 666 556 975 473 
Q 1284 391 1588 391 
Q 1994 391 2212 530 
Q 2431 669 2431 922 
Q 2431 1156 2273 1281 
Q 2116 1406 1581 1522 
L 1381 1569 
Q 847 1681 609 1914 
Q 372 2147 372 2553 
Q 372 3047 722 3315 
Q 1072 3584 1716 3584 
Q 2034 3584 2315 3537 
Q 2597 3491 2834 3397 
z
" transform="scale(0.015625)"/>
      </defs>
      <use xlink:href="#DejaVuSans-4c"/>
      <use xlink:href="#DejaVuSans-69" x="55.712891"/>
      <use xlink:href="#DejaVuSans-63" x="83.496094"/>
      <use xlink:href="#DejaVuSans-7a" x="138.476562"/>
      <use xlink:href="#DejaVuSans-62" x="190.966797"/>
      <use xlink:href="#DejaVuSans-61" x="254.443359"/>
      <use xlink:href="#DejaVuSans-20" x="315.722656"/>
      <use xlink:href="#DejaVuSans-6f" x="347.509766"/>
      <use xlink:href="#DejaVuSans-6b" x="408.691406"/>
      <use xlink:href="#DejaVuSans-72" x="466.601562"/>
      <use xlink:href="#DejaVuSans-65" x="505.464844"/>
      <use xlink:href="#DejaVuSans-73" x="566.988281"/>
      <use xlink:href="#DejaVuSans-f3" x="619.087891"/>
      <use xlink:href="#DejaVuSans-77" x="680.269531"/>
      <use xlink:href="#DejaVuSans-20" x="762.056641"/>
      <use xlink:href="#DejaVuSans-70" x="793.84375"/>
      <use xlink:href="#DejaVuSans-72" x="857.320312"/>
      <use xlink:href="#DejaVuSans-7a" x="898.433594"/>
      <use xlink:href="#DejaVuSans-79" x="950.923828"/>
      <use xlink:href="#DejaVuSans-64" x="1010.103516"/>
      <use xlink:href="#DejaVuSans-61" x="1073.580078"/>
      <use xlink:href="#DejaVuSans-74" x="1134.859375"/>
      <use xlink:href="#DejaVuSans-6e" x="1174.068359"/>
      <use xlink:href="#DejaVuSans-6f" x="1237.447266"/>
      <use xlink:href="#DejaVuSans-15b" x="1298.628906"/>
      <use xlink:href="#DejaVuSans-63" x="1350.728516"/>
      <use xlink:href="#DejaVuSans-69" x="1405.708984"/>
      <use xlink:href="#DejaVuSans-20" x="1433.492188"/>
      <use xlink:href="#DejaVuSans-64" x="1465.279297"/>
      <use xlink:href="#DejaVuSans-6f" x="1528.755859"/>
      <use xlink:href="#DejaVuSans-62" x="1589.9375"/>
      <use xlink:href="#DejaVuSans-72" x="1653.414062"/>
      <use xlink:href="#DejaVuSans-61" x="1694.527344"/>
     </g>
    </g>
   </g>
   <g id="matplotlib.axis_2">
    <g id="ytick_1">
     <g id="line2d_21">
      <path d="M 43.991537 256.876774 
L 429.165354 256.876774 
" clip-path="url(#p2deb72033b)" style="fill: none; stroke: #000000; stroke-opacity: 0.1; stroke-width: 0.5; stroke-linecap: square"/>
     </g>
     <g id="line2d_22">
      <defs>
       <path id="m7c18519b1c" d="M 0 0 
L 2.5 0 
" style="stroke: #000000; stroke-width: 0.5"/>
      </defs>
      <g>
       <use xlink:href="#m7c18519b1c" x="43.991537" y="256.876774" style="stroke: #000000; stroke-width: 0.5"/>
      </g>
     </g>
     <g id="text_12">
      <!-- $-500$ -->
      <g transform="translate(18.491537 259.916149)scale(0.08 -0.08)">
       <defs>
        <path id="DejaVuSans-2212" d="M 678 2272 
L 4684 2272 
L 4684 1741 
L 678 1741 
L 678 2272 
z
" transform="scale(0.015625)"/>
       </defs>
       <use xlink:href="#DejaVuSans-2212" transform="translate(0 0.78125)"/>
       <use xlink:href="#DejaVuSans-35" transform="translate(83.789062 0.78125)"/>
       <use xlink:href="#DejaVuSans-30" transform="translate(147.412109 0.78125)"/>
       <use xlink:href="#DejaVuSans-30" transform="translate(211.035156 0.78125)"/>
      </g>
     </g>
    </g>
    <g id="ytick_2">
     <g id="line2d_23">
      <path d="M 43.991537 215.932147 
L 429.165354 215.932147 
" clip-path="url(#p2deb72033b)" style="fill: none; stroke: #000000; stroke-opacity: 0.1; stroke-width: 0.5; stroke-linecap: square"/>
     </g>
     <g id="line2d_24">
      <g>
       <use xlink:href="#m7c18519b1c" x="43.991537" y="215.932147" style="stroke: #000000; stroke-width: 0.5"/>
      </g>
     </g>
     <g id="text_13">
      <!-- $0$ -->
      <g transform="translate(35.371537 218.971522)scale(0.08 -0.08)">
       <use xlink:href="#DejaVuSans-30" transform="translate(0 0.78125)"/>
      </g>
     </g>
    </g>
    <g id="ytick_3">
     <g id="line2d_25">
      <path d="M 43.991537 174.987521 
L 429.165354 174.987521 
" clip-path="url(#p2deb72033b)" style="fill: none; stroke: #000000; stroke-opacity: 0.1; stroke-width: 0.5; stroke-linecap: square"/>
     </g>
     <g id="line2d_26">
      <g>
       <use xlink:href="#m7c18519b1c" x="43.991537" y="174.987521" style="stroke: #000000; stroke-width: 0.5"/>
      </g>
     </g>
     <g id="text_14">
      <!-- $500$ -->
      <g transform="translate(25.211537 178.026896)scale(0.08 -0.08)">
       <use xlink:href="#DejaVuSans-35" transform="translate(0 0.78125)"/>
       <use xlink:href="#DejaVuSans-30" transform="translate(63.623047 0.78125)"/>
       <use xlink:href="#DejaVuSans-30" transform="translate(127.246094 0.78125)"/>
      </g>
     </g>
    </g>
    <g id="ytick_4">
     <g id="line2d_27">
      <path d="M 43.991537 134.042895 
L 429.165354 134.042895 
" clip-path="url(#p2deb72033b)" style="fill: none; stroke: #000000; stroke-opacity: 0.1; stroke-width: 0.5; stroke-linecap: square"/>
     </g>
     <g id="line2d_28">
      <g>
       <use xlink:href="#m7c18519b1c" x="43.991537" y="134.042895" style="stroke: #000000; stroke-width: 0.5"/>
      </g>
     </g>
     <g id="text_15">
      <!-- $1000$ -->
      <g transform="translate(20.091537 137.08227)scale(0.08 -0.08)">
       <use xlink:href="#DejaVuSans-31" transform="translate(0 0.78125)"/>
       <use xlink:href="#DejaVuSans-30" transform="translate(63.623047 0.78125)"/>
       <use xlink:href="#DejaVuSans-30" transform="translate(127.246094 0.78125)"/>
       <use xlink:href="#DejaVuSans-30" transform="translate(190.869141 0.78125)"/>
      </g>
     </g>
    </g>
    <g id="ytick_5">
     <g id="line2d_29">
      <path d="M 43.991537 93.098269 
L 429.165354 93.098269 
" clip-path="url(#p2deb72033b)" style="fill: none; stroke: #000000; stroke-opacity: 0.1; stroke-width: 0.5; stroke-linecap: square"/>
     </g>
     <g id="line2d_30">
      <g>
       <use xlink:href="#m7c18519b1c" x="43.991537" y="93.098269" style="stroke: #000000; stroke-width: 0.5"/>
      </g>
     </g>
     <g id="text_16">
      <!-- $1500$ -->
      <g transform="translate(20.091537 96.137644)scale(0.08 -0.08)">
       <use xlink:href="#DejaVuSans-31" transform="translate(0 0.78125)"/>
       <use xlink:href="#DejaVuSans-35" transform="translate(63.623047 0.78125)"/>
       <use xlink:href="#DejaVuSans-30" transform="translate(127.246094 0.78125)"/>
       <use xlink:href="#DejaVuSans-30" transform="translate(190.869141 0.78125)"/>
      </g>
     </g>
    </g>
    <g id="ytick_6">
     <g id="line2d_31">
      <path d="M 43.991537 52.153642 
L 429.165354 52.153642 
" clip-path="url(#p2deb72033b)" style="fill: none; stroke: #000000; stroke-opacity: 0.1; stroke-width: 0.5; stroke-linecap: square"/>
     </g>
     <g id="line2d_32">
      <g>
       <use xlink:href="#m7c18519b1c" x="43.991537" y="52.153642" style="stroke: #000000; stroke-width: 0.5"/>
      </g>
     </g>
     <g id="text_17">
      <!-- $2000$ -->
      <g transform="translate(20.091537 55.193017)scale(0.08 -0.08)">
       <use xlink:href="#DejaVuSans-32" transform="translate(0 0.78125)"/>
       <use xlink:href="#DejaVuSans-30" transform="translate(63.623047 0.78125)"/>
       <use xlink:href="#DejaVuSans-30" transform="translate(127.246094 0.78125)"/>
       <use xlink:href="#DejaVuSans-30" transform="translate(190.869141 0.78125)"/>
      </g>
     </g>
    </g>
    <g id="ytick_7">
     <g id="line2d_33">
      <path d="M 43.991537 11.209016 
L 429.165354 11.209016 
" clip-path="url(#p2deb72033b)" style="fill: none; stroke: #000000; stroke-opacity: 0.1; stroke-width: 0.5; stroke-linecap: square"/>
     </g>
     <g id="line2d_34">
      <g>
       <use xlink:href="#m7c18519b1c" x="43.991537" y="11.209016" style="stroke: #000000; stroke-width: 0.5"/>
      </g>
     </g>
     <g id="text_18">
      <!-- $2500$ -->
      <g transform="translate(20.091537 14.248391)scale(0.08 -0.08)">
       <use xlink:href="#DejaVuSans-32" transform="translate(0 0.78125)"/>
       <use xlink:href="#DejaVuSans-35" transform="translate(63.623047 0.78125)"/>
       <use xlink:href="#DejaVuSans-30" transform="translate(127.246094 0.78125)"/>
       <use xlink:href="#DejaVuSans-30" transform="translate(190.869141 0.78125)"/>
      </g>
     </g>
    </g>
    <g id="text_19">
     <!-- Zysk firmy -->
     <g transform="translate(12.20388 159.952344)rotate(-90)scale(0.11 -0.11)">
      <defs>
       <path id="DejaVuSans-5a" d="M 359 4666 
L 4025 4666 
L 4025 4184 
L 1075 531 
L 4097 531 
L 4097 0 
L 288 0 
L 288 481 
L 3238 4134 
L 359 4134 
L 359 4666 
z
" transform="scale(0.015625)"/>
       <path id="DejaVuSans-66" d="M 2375 4863 
L 2375 4384 
L 1825 4384 
Q 1516 4384 1395 4259 
Q 1275 4134 1275 3809 
L 1275 3500 
L 2222 3500 
L 2222 3053 
L 1275 3053 
L 1275 0 
L 697 0 
L 697 3053 
L 147 3053 
L 147 3500 
L 697 3500 
L 697 3744 
Q 697 4328 969 4595 
Q 1241 4863 1831 4863 
L 2375 4863 
z
" transform="scale(0.015625)"/>
       <path id="DejaVuSans-6d" d="M 3328 2828 
Q 3544 3216 3844 3400 
Q 4144 3584 4550 3584 
Q 5097 3584 5394 3201 
Q 5691 2819 5691 2113 
L 5691 0 
L 5113 0 
L 5113 2094 
Q 5113 2597 4934 2840 
Q 4756 3084 4391 3084 
Q 3944 3084 3684 2787 
Q 3425 2491 3425 1978 
L 3425 0 
L 2847 0 
L 2847 2094 
Q 2847 2600 2669 2842 
Q 2491 3084 2119 3084 
Q 1678 3084 1418 2786 
Q 1159 2488 1159 1978 
L 1159 0 
L 581 0 
L 581 3500 
L 1159 3500 
L 1159 2956 
Q 1356 3278 1631 3431 
Q 1906 3584 2284 3584 
Q 2666 3584 2933 3390 
Q 3200 3197 3328 2828 
z
" transform="scale(0.015625)"/>
      </defs>
      <use xlink:href="#DejaVuSans-5a"/>
      <use xlink:href="#DejaVuSans-79" x="68.505859"/>
      <use xlink:href="#DejaVuSans-73" x="127.685547"/>
      <use xlink:href="#DejaVuSans-6b" x="179.785156"/>
      <use xlink:href="#DejaVuSans-20" x="237.695312"/>
      <use xlink:href="#DejaVuSans-66" x="269.482422"/>
      <use xlink:href="#DejaVuSans-69" x="304.6875"/>
      <use xlink:href="#DejaVuSans-72" x="332.470703"/>
      <use xlink:href="#DejaVuSans-6d" x="371.833984"/>
      <use xlink:href="#DejaVuSans-79" x="469.246094"/>
     </g>
    </g>
   </g>
   <g id="patch_3">
    <path d="M 61.594206 216.106876 
L 58.243444 216.106876 
L 64.944968 216.106876 
L 61.594206 216.106876 
L 61.594206 215.810906 
" clip-path="url(#p2deb72033b)" style="fill: #009afa; stroke: #000000; stroke-linejoin: miter"/>
   </g>
   <g id="patch_4">
    <path d="M 68.29573 215.810906 
L 68.29573 215.178169 
L 54.892682 215.178169 
L 54.892682 215.810906 
L 68.29573 215.810906 
L 68.29573 215.178169 
" clip-path="url(#p2deb72033b)" style="fill: #009afa; stroke: #000000; stroke-linejoin: miter"/>
   </g>
   <g id="patch_5">
    <path d="M 68.29573 205.150246 
L 54.892682 205.150246 
L 54.892682 215.178169 
L 68.29573 215.178169 
L 68.29573 205.150246 
L 61.594206 205.150246 
" clip-path="url(#p2deb72033b)" style="fill: #009afa; stroke: #000000; stroke-linejoin: miter"/>
   </g>
   <g id="patch_6">
    <path d="M 61.594206 189.415377 
L 58.243444 189.415377 
L 64.944968 189.415377 
L 61.594206 189.415377 
L 61.594206 205.150246 
" clip-path="url(#p2deb72033b)" style="fill: #009afa; stroke: #000000; stroke-linejoin: miter"/>
   </g>
   <g id="patch_7">
    <path d="M 98.824896 222.882845 
L 95.474134 222.882845 
L 102.175658 222.882845 
L 98.824896 222.882845 
L 98.824896 212.746983 
" clip-path="url(#p2deb72033b)" style="fill: #009afa; stroke: #000000; stroke-linejoin: miter"/>
   </g>
   <g id="patch_8">
    <path d="M 105.52642 212.746983 
L 105.52642 203.082399 
L 92.123371 203.082399 
L 92.123371 212.746983 
L 105.52642 212.746983 
L 105.52642 203.082399 
" clip-path="url(#p2deb72033b)" style="fill: #009afa; stroke: #000000; stroke-linejoin: miter"/>
   </g>
   <g id="patch_9">
    <path d="M 105.52642 158.342183 
L 92.123371 158.342183 
L 92.123371 203.082399 
L 105.52642 203.082399 
L 105.52642 158.342183 
L 98.824896 158.342183 
" clip-path="url(#p2deb72033b)" style="fill: #009afa; stroke: #000000; stroke-linejoin: miter"/>
   </g>
   <g id="patch_10">
    <path d="M 98.824896 81.864698 
L 95.474134 81.864698 
L 102.175658 81.864698 
L 98.824896 81.864698 
L 98.824896 158.342183 
" clip-path="url(#p2deb72033b)" style="fill: #009afa; stroke: #000000; stroke-linejoin: miter"/>
   </g>
   <g id="patch_11">
    <path d="M 136.055585 232.409369 
L 132.704823 232.409369 
L 139.406347 232.409369 
L 136.055585 232.409369 
L 136.055585 210.007164 
" clip-path="url(#p2deb72033b)" style="fill: #009afa; stroke: #000000; stroke-linejoin: miter"/>
   </g>
   <g id="patch_12">
    <path d="M 142.757109 210.007164 
L 142.757109 180.509904 
L 129.354061 180.509904 
L 129.354061 210.007164 
L 142.757109 210.007164 
L 142.757109 180.509904 
" clip-path="url(#p2deb72033b)" style="fill: #009afa; stroke: #000000; stroke-linejoin: miter"/>
   </g>
   <g id="patch_13">
    <path d="M 142.757109 147.256805 
L 129.354061 147.256805 
L 129.354061 180.509904 
L 142.757109 180.509904 
L 142.757109 147.256805 
L 136.055585 147.256805 
" clip-path="url(#p2deb72033b)" style="fill: #009afa; stroke: #000000; stroke-linejoin: miter"/>
   </g>
   <g id="patch_14">
    <path d="M 136.055585 58.362867 
L 132.704823 58.362867 
L 139.406347 58.362867 
L 136.055585 58.362867 
L 136.055585 147.256805 
" clip-path="url(#p2deb72033b)" style="fill: #009afa; stroke: #000000; stroke-linejoin: miter"/>
   </g>
   <g id="patch_15">
    <path d="M 173.286274 233.065064 
L 169.935512 233.065064 
L 176.637036 233.065064 
L 173.286274 233.065064 
L 173.286274 209.243546 
" clip-path="url(#p2deb72033b)" style="fill: #009afa; stroke: #000000; stroke-linejoin: miter"/>
   </g>
   <g id="patch_16">
    <path d="M 179.987798 209.243546 
L 179.987798 174.994098 
L 166.58475 174.994098 
L 166.58475 209.243546 
L 179.987798 209.243546 
L 179.987798 174.994098 
" clip-path="url(#p2deb72033b)" style="fill: #009afa; stroke: #000000; stroke-linejoin: miter"/>
   </g>
   <g id="patch_17">
    <path d="M 179.987798 139.867741 
L 166.58475 139.867741 
L 166.58475 174.994098 
L 179.987798 174.994098 
L 179.987798 139.867741 
L 173.286274 139.867741 
" clip-path="url(#p2deb72033b)" style="fill: #009afa; stroke: #000000; stroke-linejoin: miter"/>
   </g>
   <g id="patch_18">
    <path d="M 173.286274 54.500431 
L 169.935512 54.500431 
L 176.637036 54.500431 
L 173.286274 54.500431 
L 173.286274 139.867741 
" clip-path="url(#p2deb72033b)" style="fill: #009afa; stroke: #000000; stroke-linejoin: miter"/>
   </g>
   <g id="patch_19">
    <path d="M 210.516963 245.528885 
L 207.166201 245.528885 
L 213.867725 245.528885 
L 210.516963 245.528885 
L 210.516963 210.496614 
" clip-path="url(#p2deb72033b)" style="fill: #009afa; stroke: #000000; stroke-linejoin: miter"/>
   </g>
   <g id="patch_20">
    <path d="M 217.218487 210.496614 
L 217.218487 180.747571 
L 203.815439 180.747571 
L 203.815439 210.496614 
L 217.218487 210.496614 
L 217.218487 180.747571 
" clip-path="url(#p2deb72033b)" style="fill: #009afa; stroke: #000000; stroke-linejoin: miter"/>
   </g>
   <g id="patch_21">
    <path d="M 217.218487 154.207605 
L 203.815439 154.207605 
L 203.815439 180.747571 
L 217.218487 180.747571 
L 217.218487 154.207605 
L 210.516963 154.207605 
" clip-path="url(#p2deb72033b)" style="fill: #009afa; stroke: #000000; stroke-linejoin: miter"/>
   </g>
   <g id="patch_22">
    <path d="M 210.516963 85.119685 
L 207.166201 85.119685 
L 213.867725 85.119685 
L 210.516963 85.119685 
L 210.516963 154.207605 
" clip-path="url(#p2deb72033b)" style="fill: #009afa; stroke: #000000; stroke-linejoin: miter"/>
   </g>
   <g id="patch_23">
    <path d="M 247.747652 243.81861 
L 244.39689 243.81861 
L 251.098414 243.81861 
L 247.747652 243.81861 
L 247.747652 212.210546 
" clip-path="url(#p2deb72033b)" style="fill: #009afa; stroke: #000000; stroke-linejoin: miter"/>
   </g>
   <g id="patch_24">
    <path d="M 254.449176 212.210546 
L 254.449176 195.393189 
L 241.046128 195.393189 
L 241.046128 212.210546 
L 254.449176 212.210546 
L 254.449176 195.393189 
" clip-path="url(#p2deb72033b)" style="fill: #009afa; stroke: #000000; stroke-linejoin: miter"/>
   </g>
   <g id="patch_25">
    <path d="M 254.449176 164.101806 
L 241.046128 164.101806 
L 241.046128 195.393189 
L 254.449176 195.393189 
L 254.449176 164.101806 
L 247.747652 164.101806 
" clip-path="url(#p2deb72033b)" style="fill: #009afa; stroke: #000000; stroke-linejoin: miter"/>
   </g>
   <g id="patch_26">
    <path d="M 247.747652 92.850105 
L 244.39689 92.850105 
L 251.098414 92.850105 
L 247.747652 92.850105 
L 247.747652 164.101806 
" clip-path="url(#p2deb72033b)" style="fill: #009afa; stroke: #000000; stroke-linejoin: miter"/>
   </g>
   <g id="patch_27">
    <path d="M 284.978341 240.618095 
L 281.627579 240.618095 
L 288.329103 240.618095 
L 284.978341 240.618095 
L 284.978341 211.456703 
" clip-path="url(#p2deb72033b)" style="fill: #009afa; stroke: #000000; stroke-linejoin: miter"/>
   </g>
   <g id="patch_28">
    <path d="M 291.679865 211.456703 
L 291.679865 192.378123 
L 278.276817 192.378123 
L 278.276817 211.456703 
L 291.679865 211.456703 
L 291.679865 192.378123 
" clip-path="url(#p2deb72033b)" style="fill: #009afa; stroke: #000000; stroke-linejoin: miter"/>
   </g>
   <g id="patch_29">
    <path d="M 291.679865 163.187232 
L 278.276817 163.187232 
L 278.276817 192.378123 
L 291.679865 192.378123 
L 291.679865 163.187232 
L 284.978341 163.187232 
" clip-path="url(#p2deb72033b)" style="fill: #009afa; stroke: #000000; stroke-linejoin: miter"/>
   </g>
   <g id="patch_30">
    <path d="M 284.978341 97.913487 
L 281.627579 97.913487 
L 288.329103 97.913487 
L 284.978341 97.913487 
L 284.978341 163.187232 
" clip-path="url(#p2deb72033b)" style="fill: #009afa; stroke: #000000; stroke-linejoin: miter"/>
   </g>
   <g id="patch_31">
    <path d="M 322.209031 241.024381 
L 318.858268 241.024381 
L 325.559793 241.024381 
L 322.209031 241.024381 
L 322.209031 212.575084 
" clip-path="url(#p2deb72033b)" style="fill: #009afa; stroke: #000000; stroke-linejoin: miter"/>
   </g>
   <g id="patch_32">
    <path d="M 328.910555 212.575084 
L 328.910555 198.630739 
L 315.507506 198.630739 
L 315.507506 212.575084 
L 328.910555 212.575084 
L 328.910555 198.630739 
" clip-path="url(#p2deb72033b)" style="fill: #009afa; stroke: #000000; stroke-linejoin: miter"/>
   </g>
   <g id="patch_33">
    <path d="M 328.910555 166.952147 
L 315.507506 166.952147 
L 315.507506 198.630739 
L 328.910555 198.630739 
L 328.910555 166.952147 
L 322.209031 166.952147 
" clip-path="url(#p2deb72033b)" style="fill: #009afa; stroke: #000000; stroke-linejoin: miter"/>
   </g>
   <g id="patch_34">
    <path d="M 322.209031 104.464591 
L 318.858268 104.464591 
L 325.559793 104.464591 
L 322.209031 104.464591 
L 322.209031 166.952147 
" clip-path="url(#p2deb72033b)" style="fill: #009afa; stroke: #000000; stroke-linejoin: miter"/>
   </g>
   <g id="patch_35">
    <path d="M 359.43972 243.006806 
L 356.088958 243.006806 
L 362.790482 243.006806 
L 359.43972 243.006806 
L 359.43972 213.165399 
" clip-path="url(#p2deb72033b)" style="fill: #009afa; stroke: #000000; stroke-linejoin: miter"/>
   </g>
   <g id="patch_36">
    <path d="M 366.141244 213.165399 
L 366.141244 202.877821 
L 352.738196 202.877821 
L 352.738196 213.165399 
L 366.141244 213.165399 
L 366.141244 202.877821 
" clip-path="url(#p2deb72033b)" style="fill: #009afa; stroke: #000000; stroke-linejoin: miter"/>
   </g>
   <g id="patch_37">
    <path d="M 366.141244 177.291593 
L 352.738196 177.291593 
L 352.738196 202.877821 
L 366.141244 202.877821 
L 366.141244 177.291593 
L 359.43972 177.291593 
" clip-path="url(#p2deb72033b)" style="fill: #009afa; stroke: #000000; stroke-linejoin: miter"/>
   </g>
   <g id="patch_38">
    <path d="M 359.43972 130.100527 
L 356.088958 130.100527 
L 362.790482 130.100527 
L 359.43972 130.100527 
L 359.43972 177.291593 
" clip-path="url(#p2deb72033b)" style="fill: #009afa; stroke: #000000; stroke-linejoin: miter"/>
   </g>
   <g id="patch_39">
    <path d="M 396.670409 251.696938 
L 393.319647 251.696938 
L 400.021171 251.696938 
L 396.670409 251.696938 
L 396.670409 213.408765 
" clip-path="url(#p2deb72033b)" style="fill: #009afa; stroke: #000000; stroke-linejoin: miter"/>
   </g>
   <g id="patch_40">
    <path d="M 403.371933 213.408765 
L 403.371933 202.269439 
L 389.968885 202.269439 
L 389.968885 213.408765 
L 403.371933 213.408765 
L 403.371933 202.269439 
" clip-path="url(#p2deb72033b)" style="fill: #009afa; stroke: #000000; stroke-linejoin: miter"/>
   </g>
   <g id="patch_41">
    <path d="M 403.371933 177.381729 
L 389.968885 177.381729 
L 389.968885 202.269439 
L 403.371933 202.269439 
L 403.371933 177.381729 
L 396.670409 177.381729 
" clip-path="url(#p2deb72033b)" style="fill: #009afa; stroke: #000000; stroke-linejoin: miter"/>
   </g>
   <g id="patch_42">
    <path d="M 396.670409 127.934439 
L 393.319647 127.934439 
L 400.021171 127.934439 
L 396.670409 127.934439 
L 396.670409 177.381729 
" clip-path="url(#p2deb72033b)" style="fill: #009afa; stroke: #000000; stroke-linejoin: miter"/>
   </g>
   <g id="PathCollection_1">
    <defs>
     <path id="m1128a77b06" d="M 0 2 
C 0.530406 2 1.03916 1.789267 1.414214 1.414214 
C 1.789267 1.03916 2 0.530406 2 0 
C 2 -0.530406 1.789267 -1.03916 1.414214 -1.414214 
C 1.03916 -1.789267 0.530406 -2 0 -2 
C -0.530406 -2 -1.03916 -1.789267 -1.414214 -1.414214 
C -1.789267 -1.03916 -2 -0.530406 -2 0 
C -2 0.530406 -1.789267 1.03916 -1.414214 1.414214 
C -1.03916 1.789267 -0.530406 2 0 2 
z
" style="stroke: #000000"/>
    </defs>
    <g clip-path="url(#p2deb72033b)">
     <use xlink:href="#m1128a77b06" x="61.594206" y="183.129243" style="fill: #009afa; stroke: #000000"/>
     <use xlink:href="#m1128a77b06" x="61.594206" y="179.828176" style="fill: #009afa; stroke: #000000"/>
     <use xlink:href="#m1128a77b06" x="61.594206" y="178.998924" style="fill: #009afa; stroke: #000000"/>
     <use xlink:href="#m1128a77b06" x="61.594206" y="127.138074" style="fill: #009afa; stroke: #000000"/>
     <use xlink:href="#m1128a77b06" x="61.594206" y="103.329503" style="fill: #009afa; stroke: #000000"/>
     <use xlink:href="#m1128a77b06" x="61.594206" y="139.178236" style="fill: #009afa; stroke: #000000"/>
     <use xlink:href="#m1128a77b06" x="61.594206" y="160.162036" style="fill: #009afa; stroke: #000000"/>
     <use xlink:href="#m1128a77b06" x="61.594206" y="151.79454" style="fill: #009afa; stroke: #000000"/>
     <use xlink:href="#m1128a77b06" x="61.594206" y="101.880221" style="fill: #009afa; stroke: #000000"/>
     <use xlink:href="#m1128a77b06" x="61.594206" y="187.412533" style="fill: #009afa; stroke: #000000"/>
     <use xlink:href="#m1128a77b06" x="61.594206" y="170.350795" style="fill: #009afa; stroke: #000000"/>
     <use xlink:href="#m1128a77b06" x="61.594206" y="182.46796" style="fill: #009afa; stroke: #000000"/>
     <use xlink:href="#m1128a77b06" x="61.594206" y="157.254521" style="fill: #009afa; stroke: #000000"/>
     <use xlink:href="#m1128a77b06" x="61.594206" y="163.446755" style="fill: #009afa; stroke: #000000"/>
     <use xlink:href="#m1128a77b06" x="61.594206" y="185.407461" style="fill: #009afa; stroke: #000000"/>
     <use xlink:href="#m1128a77b06" x="61.594206" y="158.342184" style="fill: #009afa; stroke: #000000"/>
     <use xlink:href="#m1128a77b06" x="61.594206" y="182.505633" style="fill: #009afa; stroke: #000000"/>
     <use xlink:href="#m1128a77b06" x="61.594206" y="182.958582" style="fill: #009afa; stroke: #000000"/>
     <use xlink:href="#m1128a77b06" x="61.594206" y="159.790747" style="fill: #009afa; stroke: #000000"/>
     <use xlink:href="#m1128a77b06" x="61.594206" y="70.281246" style="fill: #009afa; stroke: #000000"/>
     <use xlink:href="#m1128a77b06" x="61.594206" y="148.984941" style="fill: #009afa; stroke: #000000"/>
     <use xlink:href="#m1128a77b06" x="61.594206" y="129.197832" style="fill: #009afa; stroke: #000000"/>
     <use xlink:href="#m1128a77b06" x="61.594206" y="178.460338" style="fill: #009afa; stroke: #000000"/>
     <use xlink:href="#m1128a77b06" x="61.594206" y="187.792604" style="fill: #009afa; stroke: #000000"/>
     <use xlink:href="#m1128a77b06" x="61.594206" y="159.0692" style="fill: #009afa; stroke: #000000"/>
     <use xlink:href="#m1128a77b06" x="61.594206" y="172.638258" style="fill: #009afa; stroke: #000000"/>
     <use xlink:href="#m1128a77b06" x="61.594206" y="153.165668" style="fill: #009afa; stroke: #000000"/>
     <use xlink:href="#m1128a77b06" x="61.594206" y="152.284574" style="fill: #009afa; stroke: #000000"/>
     <use xlink:href="#m1128a77b06" x="61.594206" y="165.070508" style="fill: #009afa; stroke: #000000"/>
     <use xlink:href="#m1128a77b06" x="61.594206" y="156.974482" style="fill: #009afa; stroke: #000000"/>
     <use xlink:href="#m1128a77b06" x="61.594206" y="107.574532" style="fill: #009afa; stroke: #000000"/>
     <use xlink:href="#m1128a77b06" x="61.594206" y="185.277179" style="fill: #009afa; stroke: #000000"/>
     <use xlink:href="#m1128a77b06" x="61.594206" y="174.822356" style="fill: #009afa; stroke: #000000"/>
     <use xlink:href="#m1128a77b06" x="61.594206" y="147.08042" style="fill: #009afa; stroke: #000000"/>
     <use xlink:href="#m1128a77b06" x="61.594206" y="184.589935" style="fill: #009afa; stroke: #000000"/>
     <use xlink:href="#m1128a77b06" x="61.594206" y="129.074395" style="fill: #009afa; stroke: #000000"/>
     <use xlink:href="#m1128a77b06" x="61.594206" y="164.45861" style="fill: #009afa; stroke: #000000"/>
     <use xlink:href="#m1128a77b06" x="61.594206" y="166.109681" style="fill: #009afa; stroke: #000000"/>
     <use xlink:href="#m1128a77b06" x="61.594206" y="147.503955" style="fill: #009afa; stroke: #000000"/>
     <use xlink:href="#m1128a77b06" x="61.594206" y="177.08552" style="fill: #009afa; stroke: #000000"/>
     <use xlink:href="#m1128a77b06" x="61.594206" y="125.051529" style="fill: #009afa; stroke: #000000"/>
     <use xlink:href="#m1128a77b06" x="61.594206" y="135.249775" style="fill: #009afa; stroke: #000000"/>
     <use xlink:href="#m1128a77b06" x="61.594206" y="188.650423" style="fill: #009afa; stroke: #000000"/>
     <use xlink:href="#m1128a77b06" x="61.594206" y="178.624372" style="fill: #009afa; stroke: #000000"/>
     <use xlink:href="#m1128a77b06" x="61.594206" y="168.131237" style="fill: #009afa; stroke: #000000"/>
     <use xlink:href="#m1128a77b06" x="61.594206" y="130.779767" style="fill: #009afa; stroke: #000000"/>
     <use xlink:href="#m1128a77b06" x="61.594206" y="177.041084" style="fill: #009afa; stroke: #000000"/>
     <use xlink:href="#m1128a77b06" x="61.594206" y="173.65265" style="fill: #009afa; stroke: #000000"/>
     <use xlink:href="#m1128a77b06" x="61.594206" y="185.547222" style="fill: #009afa; stroke: #000000"/>
     <use xlink:href="#m1128a77b06" x="61.594206" y="149.292982" style="fill: #009afa; stroke: #000000"/>
     <use xlink:href="#m1128a77b06" x="61.594206" y="180.153106" style="fill: #009afa; stroke: #000000"/>
     <use xlink:href="#m1128a77b06" x="61.594206" y="144.528594" style="fill: #009afa; stroke: #000000"/>
     <use xlink:href="#m1128a77b06" x="61.594206" y="149.774751" style="fill: #009afa; stroke: #000000"/>
     <use xlink:href="#m1128a77b06" x="61.594206" y="181.68454" style="fill: #009afa; stroke: #000000"/>
     <use xlink:href="#m1128a77b06" x="98.824896" y="63.853819" style="fill: #009afa; stroke: #000000"/>
     <use xlink:href="#m1128a77b06" x="98.824896" y="45.724197" style="fill: #009afa; stroke: #000000"/>
     <use xlink:href="#m1128a77b06" x="98.824896" y="50.260989" style="fill: #009afa; stroke: #000000"/>
     <use xlink:href="#m1128a77b06" x="98.824896" y="74.386282" style="fill: #009afa; stroke: #000000"/>
     <use xlink:href="#m1128a77b06" x="98.824896" y="74.590836" style="fill: #009afa; stroke: #000000"/>
     <use xlink:href="#m1128a77b06" x="136.055585" y="44.066205" style="fill: #009afa; stroke: #000000"/>
     <use xlink:href="#m1128a77b06" x="136.055585" y="47.886574" style="fill: #009afa; stroke: #000000"/>
     <use xlink:href="#m1128a77b06" x="136.055585" y="52.113584" style="fill: #009afa; stroke: #000000"/>
     <use xlink:href="#m1128a77b06" x="136.055585" y="28.575502" style="fill: #009afa; stroke: #000000"/>
     <use xlink:href="#m1128a77b06" x="136.055585" y="40.190589" style="fill: #009afa; stroke: #000000"/>
     <use xlink:href="#m1128a77b06" x="210.516963" y="45.730516" style="fill: #009afa; stroke: #000000"/>
     <use xlink:href="#m1128a77b06" x="210.516963" y="62.342764" style="fill: #009afa; stroke: #000000"/>
     <use xlink:href="#m1128a77b06" x="247.747652" y="68.234139" style="fill: #009afa; stroke: #000000"/>
     <use xlink:href="#m1128a77b06" x="247.747652" y="80.772856" style="fill: #009afa; stroke: #000000"/>
     <use xlink:href="#m1128a77b06" x="247.747652" y="61.724055" style="fill: #009afa; stroke: #000000"/>
     <use xlink:href="#m1128a77b06" x="247.747652" y="58.649255" style="fill: #009afa; stroke: #000000"/>
     <use xlink:href="#m1128a77b06" x="284.978341" y="82.930685" style="fill: #009afa; stroke: #000000"/>
     <use xlink:href="#m1128a77b06" x="322.209031" y="85.103806" style="fill: #009afa; stroke: #000000"/>
     <use xlink:href="#m1128a77b06" x="322.209031" y="97.645697" style="fill: #009afa; stroke: #000000"/>
     <use xlink:href="#m1128a77b06" x="322.209031" y="73.865403" style="fill: #009afa; stroke: #000000"/>
     <use xlink:href="#m1128a77b06" x="359.43972" y="119.316994" style="fill: #009afa; stroke: #000000"/>
     <use xlink:href="#m1128a77b06" x="359.43972" y="120.426885" style="fill: #009afa; stroke: #000000"/>
     <use xlink:href="#m1128a77b06" x="359.43972" y="118.956793" style="fill: #009afa; stroke: #000000"/>
     <use xlink:href="#m1128a77b06" x="359.43972" y="105.393474" style="fill: #009afa; stroke: #000000"/>
     <use xlink:href="#m1128a77b06" x="359.43972" y="113.123516" style="fill: #009afa; stroke: #000000"/>
     <use xlink:href="#m1128a77b06" x="359.43972" y="47.085264" style="fill: #009afa; stroke: #000000"/>
     <use xlink:href="#m1128a77b06" x="359.43972" y="107.353963" style="fill: #009afa; stroke: #000000"/>
     <use xlink:href="#m1128a77b06" x="359.43972" y="88.010992" style="fill: #009afa; stroke: #000000"/>
     <use xlink:href="#m1128a77b06" x="359.43972" y="116.299558" style="fill: #009afa; stroke: #000000"/>
     <use xlink:href="#m1128a77b06" x="359.43972" y="117.732132" style="fill: #009afa; stroke: #000000"/>
     <use xlink:href="#m1128a77b06" x="396.670409" y="96.883042" style="fill: #009afa; stroke: #000000"/>
     <use xlink:href="#m1128a77b06" x="396.670409" y="121.367728" style="fill: #009afa; stroke: #000000"/>
     <use xlink:href="#m1128a77b06" x="396.670409" y="106.140947" style="fill: #009afa; stroke: #000000"/>
    </g>
   </g>
   <g id="patch_43">
    <path d="M 76.486482 216.048553 
L 73.13572 216.048553 
L 79.837244 216.048553 
L 76.486482 216.048553 
L 76.486482 215.232914 
" clip-path="url(#p2deb72033b)" style="fill: #e36f47; stroke: #000000; stroke-linejoin: miter"/>
   </g>
   <g id="patch_44">
    <path d="M 83.188006 215.232914 
L 83.188006 212.278937 
L 69.784958 212.278937 
L 69.784958 215.232914 
L 83.188006 215.232914 
L 83.188006 212.278937 
" clip-path="url(#p2deb72033b)" style="fill: #e36f47; stroke: #000000; stroke-linejoin: miter"/>
   </g>
   <g id="patch_45">
    <path d="M 83.188006 199.614585 
L 69.784958 199.614585 
L 69.784958 212.278937 
L 83.188006 212.278937 
L 83.188006 199.614585 
L 76.486482 199.614585 
" clip-path="url(#p2deb72033b)" style="fill: #e36f47; stroke: #000000; stroke-linejoin: miter"/>
   </g>
   <g id="patch_46">
    <path d="M 76.486482 177.876836 
L 73.13572 177.876836 
L 79.837244 177.876836 
L 76.486482 177.876836 
L 76.486482 199.614585 
" clip-path="url(#p2deb72033b)" style="fill: #e36f47; stroke: #000000; stroke-linejoin: miter"/>
   </g>
   <g id="patch_47">
    <path d="M 113.717171 215.992758 
L 110.366409 215.992758 
L 117.067933 215.992758 
L 113.717171 215.992758 
L 113.717171 209.496897 
" clip-path="url(#p2deb72033b)" style="fill: #e36f47; stroke: #000000; stroke-linejoin: miter"/>
   </g>
   <g id="patch_48">
    <path d="M 120.418695 209.496897 
L 120.418695 195.844356 
L 107.015647 195.844356 
L 107.015647 209.496897 
L 120.418695 209.496897 
L 120.418695 195.844356 
" clip-path="url(#p2deb72033b)" style="fill: #e36f47; stroke: #000000; stroke-linejoin: miter"/>
   </g>
   <g id="patch_49">
    <path d="M 120.418695 162.54464 
L 107.015647 162.54464 
L 107.015647 195.844356 
L 120.418695 195.844356 
L 120.418695 162.54464 
L 113.717171 162.54464 
" clip-path="url(#p2deb72033b)" style="fill: #e36f47; stroke: #000000; stroke-linejoin: miter"/>
   </g>
   <g id="patch_50">
    <path d="M 113.717171 94.684708 
L 110.366409 94.684708 
L 117.067933 94.684708 
L 113.717171 94.684708 
L 113.717171 162.54464 
" clip-path="url(#p2deb72033b)" style="fill: #e36f47; stroke: #000000; stroke-linejoin: miter"/>
   </g>
   <g id="patch_51">
    <path d="M 150.94786 216.167542 
L 147.597098 216.167542 
L 154.298622 216.167542 
L 150.94786 216.167542 
L 150.94786 204.722564 
" clip-path="url(#p2deb72033b)" style="fill: #e36f47; stroke: #000000; stroke-linejoin: miter"/>
   </g>
   <g id="patch_52">
    <path d="M 157.649384 204.722564 
L 157.649384 184.076436 
L 144.246336 184.076436 
L 144.246336 204.722564 
L 157.649384 204.722564 
L 157.649384 184.076436 
" clip-path="url(#p2deb72033b)" style="fill: #e36f47; stroke: #000000; stroke-linejoin: miter"/>
   </g>
   <g id="patch_53">
    <path d="M 157.649384 150.695627 
L 144.246336 150.695627 
L 144.246336 184.076436 
L 157.649384 184.076436 
L 157.649384 150.695627 
L 150.94786 150.695627 
" clip-path="url(#p2deb72033b)" style="fill: #e36f47; stroke: #000000; stroke-linejoin: miter"/>
   </g>
   <g id="patch_54">
    <path d="M 150.94786 74.031602 
L 147.597098 74.031602 
L 154.298622 74.031602 
L 150.94786 74.031602 
L 150.94786 150.695627 
" clip-path="url(#p2deb72033b)" style="fill: #e36f47; stroke: #000000; stroke-linejoin: miter"/>
   </g>
   <g id="patch_55">
    <path d="M 188.17855 216.027826 
L 184.827787 216.027826 
L 191.529312 216.027826 
L 188.17855 216.027826 
L 188.17855 206.777751 
" clip-path="url(#p2deb72033b)" style="fill: #e36f47; stroke: #000000; stroke-linejoin: miter"/>
   </g>
   <g id="patch_56">
    <path d="M 194.880074 206.777751 
L 194.880074 185.420068 
L 181.477025 185.420068 
L 181.477025 206.777751 
L 194.880074 206.777751 
L 194.880074 185.420068 
" clip-path="url(#p2deb72033b)" style="fill: #e36f47; stroke: #000000; stroke-linejoin: miter"/>
   </g>
   <g id="patch_57">
    <path d="M 194.880074 150.778469 
L 181.477025 150.778469 
L 181.477025 185.420068 
L 194.880074 185.420068 
L 194.880074 150.778469 
L 188.17855 150.778469 
" clip-path="url(#p2deb72033b)" style="fill: #e36f47; stroke: #000000; stroke-linejoin: miter"/>
   </g>
   <g id="patch_58">
    <path d="M 188.17855 81.689967 
L 184.827787 81.689967 
L 191.529312 81.689967 
L 188.17855 81.689967 
L 188.17855 150.778469 
" clip-path="url(#p2deb72033b)" style="fill: #e36f47; stroke: #000000; stroke-linejoin: miter"/>
   </g>
   <g id="patch_59">
    <path d="M 225.409239 216.07935 
L 222.058477 216.07935 
L 228.760001 216.07935 
L 225.409239 216.07935 
L 225.409239 202.748563 
" clip-path="url(#p2deb72033b)" style="fill: #e36f47; stroke: #000000; stroke-linejoin: miter"/>
   </g>
   <g id="patch_60">
    <path d="M 232.110763 202.748563 
L 232.110763 178.775088 
L 218.707715 178.775088 
L 218.707715 202.748563 
L 232.110763 202.748563 
L 232.110763 178.775088 
" clip-path="url(#p2deb72033b)" style="fill: #e36f47; stroke: #000000; stroke-linejoin: miter"/>
   </g>
   <g id="patch_61">
    <path d="M 232.110763 149.802204 
L 218.707715 149.802204 
L 218.707715 178.775088 
L 232.110763 178.775088 
L 232.110763 149.802204 
L 225.409239 149.802204 
" clip-path="url(#p2deb72033b)" style="fill: #e36f47; stroke: #000000; stroke-linejoin: miter"/>
   </g>
   <g id="patch_62">
    <path d="M 225.409239 72.568776 
L 222.058477 72.568776 
L 228.760001 72.568776 
L 225.409239 72.568776 
L 225.409239 149.802204 
" clip-path="url(#p2deb72033b)" style="fill: #e36f47; stroke: #000000; stroke-linejoin: miter"/>
   </g>
   <g id="patch_63">
    <path d="M 262.639928 215.96176 
L 259.289166 215.96176 
L 265.99069 215.96176 
L 262.639928 215.96176 
L 262.639928 201.088182 
" clip-path="url(#p2deb72033b)" style="fill: #e36f47; stroke: #000000; stroke-linejoin: miter"/>
   </g>
   <g id="patch_64">
    <path d="M 269.341452 201.088182 
L 269.341452 179.374804 
L 255.938404 179.374804 
L 255.938404 201.088182 
L 269.341452 201.088182 
L 269.341452 179.374804 
" clip-path="url(#p2deb72033b)" style="fill: #e36f47; stroke: #000000; stroke-linejoin: miter"/>
   </g>
   <g id="patch_65">
    <path d="M 269.341452 151.220152 
L 255.938404 151.220152 
L 255.938404 179.374804 
L 269.341452 179.374804 
L 269.341452 151.220152 
L 262.639928 151.220152 
" clip-path="url(#p2deb72033b)" style="fill: #e36f47; stroke: #000000; stroke-linejoin: miter"/>
   </g>
   <g id="patch_66">
    <path d="M 262.639928 84.008171 
L 259.289166 84.008171 
L 265.99069 84.008171 
L 262.639928 84.008171 
L 262.639928 151.220152 
" clip-path="url(#p2deb72033b)" style="fill: #e36f47; stroke: #000000; stroke-linejoin: miter"/>
   </g>
   <g id="patch_67">
    <path d="M 299.870617 216.003951 
L 296.519855 216.003951 
L 303.221379 216.003951 
L 299.870617 216.003951 
L 299.870617 205.221332 
" clip-path="url(#p2deb72033b)" style="fill: #e36f47; stroke: #000000; stroke-linejoin: miter"/>
   </g>
   <g id="patch_68">
    <path d="M 306.572141 205.221332 
L 306.572141 189.680878 
L 293.169093 189.680878 
L 293.169093 205.221332 
L 306.572141 205.221332 
L 306.572141 189.680878 
" clip-path="url(#p2deb72033b)" style="fill: #e36f47; stroke: #000000; stroke-linejoin: miter"/>
   </g>
   <g id="patch_69">
    <path d="M 306.572141 159.670305 
L 293.169093 159.670305 
L 293.169093 189.680878 
L 306.572141 189.680878 
L 306.572141 159.670305 
L 299.870617 159.670305 
" clip-path="url(#p2deb72033b)" style="fill: #e36f47; stroke: #000000; stroke-linejoin: miter"/>
   </g>
   <g id="patch_70">
    <path d="M 299.870617 94.112816 
L 296.519855 94.112816 
L 303.221379 94.112816 
L 299.870617 94.112816 
L 299.870617 159.670305 
" clip-path="url(#p2deb72033b)" style="fill: #e36f47; stroke: #000000; stroke-linejoin: miter"/>
   </g>
   <g id="patch_71">
    <path d="M 337.101306 215.957974 
L 333.750544 215.957974 
L 340.452068 215.957974 
L 337.101306 215.957974 
L 337.101306 202.364186 
" clip-path="url(#p2deb72033b)" style="fill: #e36f47; stroke: #000000; stroke-linejoin: miter"/>
   </g>
   <g id="patch_72">
    <path d="M 343.80283 202.364186 
L 343.80283 177.990052 
L 330.399782 177.990052 
L 330.399782 202.364186 
L 343.80283 202.364186 
L 343.80283 177.990052 
" clip-path="url(#p2deb72033b)" style="fill: #e36f47; stroke: #000000; stroke-linejoin: miter"/>
   </g>
   <g id="patch_73">
    <path d="M 343.80283 157.252218 
L 330.399782 157.252218 
L 330.399782 177.990052 
L 343.80283 177.990052 
L 343.80283 157.252218 
L 337.101306 157.252218 
" clip-path="url(#p2deb72033b)" style="fill: #e36f47; stroke: #000000; stroke-linejoin: miter"/>
   </g>
   <g id="patch_74">
    <path d="M 337.101306 98.251859 
L 333.750544 98.251859 
L 340.452068 98.251859 
L 337.101306 98.251859 
L 337.101306 157.252218 
" clip-path="url(#p2deb72033b)" style="fill: #e36f47; stroke: #000000; stroke-linejoin: miter"/>
   </g>
   <g id="patch_75">
    <path d="M 374.331995 215.790546 
L 370.981233 215.790546 
L 377.682757 215.790546 
L 374.331995 215.790546 
L 374.331995 204.407903 
" clip-path="url(#p2deb72033b)" style="fill: #e36f47; stroke: #000000; stroke-linejoin: miter"/>
   </g>
   <g id="patch_76">
    <path d="M 381.033519 204.407903 
L 381.033519 188.024055 
L 367.630471 188.024055 
L 367.630471 204.407903 
L 381.033519 204.407903 
L 381.033519 188.024055 
" clip-path="url(#p2deb72033b)" style="fill: #e36f47; stroke: #000000; stroke-linejoin: miter"/>
   </g>
   <g id="patch_77">
    <path d="M 381.033519 160.075239 
L 367.630471 160.075239 
L 367.630471 188.024055 
L 381.033519 188.024055 
L 381.033519 160.075239 
L 374.331995 160.075239 
" clip-path="url(#p2deb72033b)" style="fill: #e36f47; stroke: #000000; stroke-linejoin: miter"/>
   </g>
   <g id="patch_78">
    <path d="M 374.331995 94.264364 
L 370.981233 94.264364 
L 377.682757 94.264364 
L 374.331995 94.264364 
L 374.331995 160.075239 
" clip-path="url(#p2deb72033b)" style="fill: #e36f47; stroke: #000000; stroke-linejoin: miter"/>
   </g>
   <g id="patch_79">
    <path d="M 411.562684 216.053233 
L 408.211922 216.053233 
L 414.913447 216.053233 
L 411.562684 216.053233 
L 411.562684 204.90385 
" clip-path="url(#p2deb72033b)" style="fill: #e36f47; stroke: #000000; stroke-linejoin: miter"/>
   </g>
   <g id="patch_80">
    <path d="M 418.264209 204.90385 
L 418.264209 187.624692 
L 404.86116 187.624692 
L 404.86116 204.90385 
L 418.264209 204.90385 
L 418.264209 187.624692 
" clip-path="url(#p2deb72033b)" style="fill: #e36f47; stroke: #000000; stroke-linejoin: miter"/>
   </g>
   <g id="patch_81">
    <path d="M 418.264209 168.319124 
L 404.86116 168.319124 
L 404.86116 187.624692 
L 418.264209 187.624692 
L 418.264209 168.319124 
L 411.562684 168.319124 
" clip-path="url(#p2deb72033b)" style="fill: #e36f47; stroke: #000000; stroke-linejoin: miter"/>
   </g>
   <g id="patch_82">
    <path d="M 411.562684 116.811563 
L 408.211922 116.811563 
L 414.913447 116.811563 
L 411.562684 116.811563 
L 411.562684 168.319124 
" clip-path="url(#p2deb72033b)" style="fill: #e36f47; stroke: #000000; stroke-linejoin: miter"/>
   </g>
   <g id="PathCollection_2">
    <defs>
     <path id="me9cc7c22f9" d="M 0 2 
C 0.530406 2 1.03916 1.789267 1.414214 1.414214 
C 1.789267 1.03916 2 0.530406 2 0 
C 2 -0.530406 1.789267 -1.03916 1.414214 -1.414214 
C 1.03916 -1.789267 0.530406 -2 0 -2 
C -0.530406 -2 -1.03916 -1.789267 -1.414214 -1.414214 
C -1.789267 -1.03916 -2 -0.530406 -2 0 
C -2 0.530406 -1.789267 1.03916 -1.414214 1.414214 
C -1.03916 1.789267 -0.530406 2 0 2 
z
" style="stroke: #000000"/>
    </defs>
    <g clip-path="url(#p2deb72033b)">
     <use xlink:href="#me9cc7c22f9" x="76.486482" y="156.299427" style="fill: #e36f47; stroke: #000000"/>
     <use xlink:href="#me9cc7c22f9" x="76.486482" y="50.550884" style="fill: #e36f47; stroke: #000000"/>
     <use xlink:href="#me9cc7c22f9" x="76.486482" y="116.200981" style="fill: #e36f47; stroke: #000000"/>
     <use xlink:href="#me9cc7c22f9" x="76.486482" y="167.127641" style="fill: #e36f47; stroke: #000000"/>
     <use xlink:href="#me9cc7c22f9" x="76.486482" y="162.816183" style="fill: #e36f47; stroke: #000000"/>
     <use xlink:href="#me9cc7c22f9" x="76.486482" y="129.84492" style="fill: #e36f47; stroke: #000000"/>
     <use xlink:href="#me9cc7c22f9" x="76.486482" y="168.503694" style="fill: #e36f47; stroke: #000000"/>
     <use xlink:href="#me9cc7c22f9" x="76.486482" y="169.372225" style="fill: #e36f47; stroke: #000000"/>
     <use xlink:href="#me9cc7c22f9" x="76.486482" y="156.735653" style="fill: #e36f47; stroke: #000000"/>
     <use xlink:href="#me9cc7c22f9" x="76.486482" y="157.677253" style="fill: #e36f47; stroke: #000000"/>
     <use xlink:href="#me9cc7c22f9" x="76.486482" y="174.661233" style="fill: #e36f47; stroke: #000000"/>
     <use xlink:href="#me9cc7c22f9" x="76.486482" y="31.830205" style="fill: #e36f47; stroke: #000000"/>
     <use xlink:href="#me9cc7c22f9" x="76.486482" y="162.991112" style="fill: #e36f47; stroke: #000000"/>
     <use xlink:href="#me9cc7c22f9" x="76.486482" y="165.462459" style="fill: #e36f47; stroke: #000000"/>
     <use xlink:href="#me9cc7c22f9" x="76.486482" y="171.467614" style="fill: #e36f47; stroke: #000000"/>
     <use xlink:href="#me9cc7c22f9" x="76.486482" y="147.435156" style="fill: #e36f47; stroke: #000000"/>
     <use xlink:href="#me9cc7c22f9" x="76.486482" y="164.259956" style="fill: #e36f47; stroke: #000000"/>
     <use xlink:href="#me9cc7c22f9" x="76.486482" y="164.398596" style="fill: #e36f47; stroke: #000000"/>
     <use xlink:href="#me9cc7c22f9" x="76.486482" y="143.689824" style="fill: #e36f47; stroke: #000000"/>
     <use xlink:href="#me9cc7c22f9" x="76.486482" y="176.15333" style="fill: #e36f47; stroke: #000000"/>
     <use xlink:href="#me9cc7c22f9" x="76.486482" y="173.864101" style="fill: #e36f47; stroke: #000000"/>
     <use xlink:href="#me9cc7c22f9" x="76.486482" y="159.25333" style="fill: #e36f47; stroke: #000000"/>
     <use xlink:href="#me9cc7c22f9" x="76.486482" y="146.958048" style="fill: #e36f47; stroke: #000000"/>
     <use xlink:href="#me9cc7c22f9" x="76.486482" y="146.69262" style="fill: #e36f47; stroke: #000000"/>
     <use xlink:href="#me9cc7c22f9" x="76.486482" y="140.821249" style="fill: #e36f47; stroke: #000000"/>
     <use xlink:href="#me9cc7c22f9" x="76.486482" y="135.273048" style="fill: #e36f47; stroke: #000000"/>
     <use xlink:href="#me9cc7c22f9" x="76.486482" y="79.878495" style="fill: #e36f47; stroke: #000000"/>
     <use xlink:href="#me9cc7c22f9" x="76.486482" y="172.705996" style="fill: #e36f47; stroke: #000000"/>
     <use xlink:href="#me9cc7c22f9" x="76.486482" y="137.114373" style="fill: #e36f47; stroke: #000000"/>
     <use xlink:href="#me9cc7c22f9" x="76.486482" y="173.204144" style="fill: #e36f47; stroke: #000000"/>
     <use xlink:href="#me9cc7c22f9" x="76.486482" y="131.020564" style="fill: #e36f47; stroke: #000000"/>
     <use xlink:href="#me9cc7c22f9" x="76.486482" y="154.243379" style="fill: #e36f47; stroke: #000000"/>
     <use xlink:href="#me9cc7c22f9" x="76.486482" y="157.132189" style="fill: #e36f47; stroke: #000000"/>
     <use xlink:href="#me9cc7c22f9" x="76.486482" y="150.633159" style="fill: #e36f47; stroke: #000000"/>
     <use xlink:href="#me9cc7c22f9" x="76.486482" y="157.146761" style="fill: #e36f47; stroke: #000000"/>
     <use xlink:href="#me9cc7c22f9" x="76.486482" y="159.249287" style="fill: #e36f47; stroke: #000000"/>
     <use xlink:href="#me9cc7c22f9" x="76.486482" y="155.012307" style="fill: #e36f47; stroke: #000000"/>
     <use xlink:href="#me9cc7c22f9" x="76.486482" y="137.721054" style="fill: #e36f47; stroke: #000000"/>
     <use xlink:href="#me9cc7c22f9" x="76.486482" y="130.632898" style="fill: #e36f47; stroke: #000000"/>
     <use xlink:href="#me9cc7c22f9" x="76.486482" y="168.356323" style="fill: #e36f47; stroke: #000000"/>
     <use xlink:href="#me9cc7c22f9" x="76.486482" y="157.694061" style="fill: #e36f47; stroke: #000000"/>
     <use xlink:href="#me9cc7c22f9" x="113.717171" y="10.083062" style="fill: #e36f47; stroke: #000000"/>
     <use xlink:href="#me9cc7c22f9" x="113.717171" y="74.596068" style="fill: #e36f47; stroke: #000000"/>
     <use xlink:href="#me9cc7c22f9" x="113.717171" y="75.414377" style="fill: #e36f47; stroke: #000000"/>
     <use xlink:href="#me9cc7c22f9" x="113.717171" y="62.792202" style="fill: #e36f47; stroke: #000000"/>
     <use xlink:href="#me9cc7c22f9" x="113.717171" y="90.142214" style="fill: #e36f47; stroke: #000000"/>
     <use xlink:href="#me9cc7c22f9" x="113.717171" y="62.581072" style="fill: #e36f47; stroke: #000000"/>
     <use xlink:href="#me9cc7c22f9" x="113.717171" y="69.233658" style="fill: #e36f47; stroke: #000000"/>
     <use xlink:href="#me9cc7c22f9" x="150.94786" y="44.142922" style="fill: #e36f47; stroke: #000000"/>
     <use xlink:href="#me9cc7c22f9" x="150.94786" y="43.220039" style="fill: #e36f47; stroke: #000000"/>
     <use xlink:href="#me9cc7c22f9" x="150.94786" y="66.681032" style="fill: #e36f47; stroke: #000000"/>
     <use xlink:href="#me9cc7c22f9" x="150.94786" y="62.437498" style="fill: #e36f47; stroke: #000000"/>
     <use xlink:href="#me9cc7c22f9" x="188.17855" y="27.432403" style="fill: #e36f47; stroke: #000000"/>
     <use xlink:href="#me9cc7c22f9" x="225.409239" y="56.86311" style="fill: #e36f47; stroke: #000000"/>
     <use xlink:href="#me9cc7c22f9" x="262.639928" y="48.400011" style="fill: #e36f47; stroke: #000000"/>
     <use xlink:href="#me9cc7c22f9" x="262.639928" y="67.504075" style="fill: #e36f47; stroke: #000000"/>
     <use xlink:href="#me9cc7c22f9" x="262.639928" y="72.639916" style="fill: #e36f47; stroke: #000000"/>
     <use xlink:href="#me9cc7c22f9" x="262.639928" y="74.741408" style="fill: #e36f47; stroke: #000000"/>
     <use xlink:href="#me9cc7c22f9" x="299.870617" y="85.800619" style="fill: #e36f47; stroke: #000000"/>
     <use xlink:href="#me9cc7c22f9" x="299.870617" y="73.247296" style="fill: #e36f47; stroke: #000000"/>
     <use xlink:href="#me9cc7c22f9" x="337.101306" y="81.834755" style="fill: #e36f47; stroke: #000000"/>
     <use xlink:href="#me9cc7c22f9" x="374.331995" y="91.015698" style="fill: #e36f47; stroke: #000000"/>
     <use xlink:href="#me9cc7c22f9" x="374.331995" y="78.395142" style="fill: #e36f47; stroke: #000000"/>
     <use xlink:href="#me9cc7c22f9" x="374.331995" y="92.444108" style="fill: #e36f47; stroke: #000000"/>
     <use xlink:href="#me9cc7c22f9" x="411.562684" y="99.684757" style="fill: #e36f47; stroke: #000000"/>
     <use xlink:href="#me9cc7c22f9" x="411.562684" y="112.752464" style="fill: #e36f47; stroke: #000000"/>
     <use xlink:href="#me9cc7c22f9" x="411.562684" y="110.976009" style="fill: #e36f47; stroke: #000000"/>
    </g>
   </g>
   <g id="patch_83">
    <path d="M 43.991537 258.945354 
L 43.991537 2.834646 
" style="fill: none; stroke: #000000; stroke-linejoin: miter; stroke-linecap: square"/>
   </g>
   <g id="patch_84">
    <path d="M 43.991537 258.945354 
L 429.165354 258.945354 
" style="fill: none; stroke: #000000; stroke-linejoin: miter; stroke-linecap: square"/>
   </g>
   <g id="legend_1">
    <g id="patch_85">
     <path d="M 222.380354 39.467146 
L 425.165354 39.467146 
L 425.165354 6.834646 
L 222.380354 6.834646 
z
" style="fill: #ffffff; stroke: #000000; stroke-linejoin: miter"/>
    </g>
    <g id="patch_86">
     <path d="M 228.780354 19.660896 
L 244.780354 19.660896 
L 244.780354 14.060896 
L 228.780354 14.060896 
z
" style="fill: #009afa; stroke: #000000; stroke-linejoin: miter"/>
    </g>
    <g id="text_20">
     <!-- Firma nie prowadzi badań konsumenckich -->
     <g transform="translate(251.180354 19.660896)scale(0.08 -0.08)">
      <defs>
       <path id="DejaVuSans-46" d="M 628 4666 
L 3309 4666 
L 3309 4134 
L 1259 4134 
L 1259 2759 
L 3109 2759 
L 3109 2228 
L 1259 2228 
L 1259 0 
L 628 0 
L 628 4666 
z
" transform="scale(0.015625)"/>
       <path id="DejaVuSans-144" d="M 2241 5141 
L 2863 5141 
L 1844 3966 
L 1366 3966 
L 2241 5141 
z
M 3513 2113 
L 3513 0 
L 2938 0 
L 2938 2094 
Q 2938 2591 2744 2837 
Q 2550 3084 2163 3084 
Q 1697 3084 1428 2787 
Q 1159 2491 1159 1978 
L 1159 0 
L 581 0 
L 581 3500 
L 1159 3500 
L 1159 2956 
Q 1366 3272 1645 3428 
Q 1925 3584 2291 3584 
Q 2894 3584 3203 3211 
Q 3513 2838 3513 2113 
z
" transform="scale(0.015625)"/>
       <path id="DejaVuSans-75" d="M 544 1381 
L 544 3500 
L 1119 3500 
L 1119 1403 
Q 1119 906 1312 657 
Q 1506 409 1894 409 
Q 2359 409 2629 706 
Q 2900 1003 2900 1516 
L 2900 3500 
L 3475 3500 
L 3475 0 
L 2900 0 
L 2900 538 
Q 2691 219 2414 64 
Q 2138 -91 1772 -91 
Q 1169 -91 856 284 
Q 544 659 544 1381 
z
M 1991 3584 
L 1991 3584 
z
" transform="scale(0.015625)"/>
       <path id="DejaVuSans-68" d="M 3513 2113 
L 3513 0 
L 2938 0 
L 2938 2094 
Q 2938 2591 2744 2837 
Q 2550 3084 2163 3084 
Q 1697 3084 1428 2787 
Q 1159 2491 1159 1978 
L 1159 0 
L 581 0 
L 581 4863 
L 1159 4863 
L 1159 2956 
Q 1366 3272 1645 3428 
Q 1925 3584 2291 3584 
Q 2894 3584 3203 3211 
Q 3513 2838 3513 2113 
z
" transform="scale(0.015625)"/>
      </defs>
      <use xlink:href="#DejaVuSans-46"/>
      <use xlink:href="#DejaVuSans-69" x="50.269531"/>
      <use xlink:href="#DejaVuSans-72" x="78.052734"/>
      <use xlink:href="#DejaVuSans-6d" x="117.416016"/>
      <use xlink:href="#DejaVuSans-61" x="214.828125"/>
      <use xlink:href="#DejaVuSans-20" x="276.107422"/>
      <use xlink:href="#DejaVuSans-6e" x="307.894531"/>
      <use xlink:href="#DejaVuSans-69" x="371.273438"/>
      <use xlink:href="#DejaVuSans-65" x="399.056641"/>
      <use xlink:href="#DejaVuSans-20" x="460.580078"/>
      <use xlink:href="#DejaVuSans-70" x="492.367188"/>
      <use xlink:href="#DejaVuSans-72" x="555.84375"/>
      <use xlink:href="#DejaVuSans-6f" x="594.707031"/>
      <use xlink:href="#DejaVuSans-77" x="655.888672"/>
      <use xlink:href="#DejaVuSans-61" x="737.675781"/>
      <use xlink:href="#DejaVuSans-64" x="798.955078"/>
      <use xlink:href="#DejaVuSans-7a" x="862.431641"/>
      <use xlink:href="#DejaVuSans-69" x="914.921875"/>
      <use xlink:href="#DejaVuSans-20" x="942.705078"/>
      <use xlink:href="#DejaVuSans-62" x="974.492188"/>
      <use xlink:href="#DejaVuSans-61" x="1037.96875"/>
      <use xlink:href="#DejaVuSans-64" x="1099.248047"/>
      <use xlink:href="#DejaVuSans-61" x="1162.724609"/>
      <use xlink:href="#DejaVuSans-144" x="1224.003906"/>
      <use xlink:href="#DejaVuSans-20" x="1287.382812"/>
      <use xlink:href="#DejaVuSans-6b" x="1319.169922"/>
      <use xlink:href="#DejaVuSans-6f" x="1373.455078"/>
      <use xlink:href="#DejaVuSans-6e" x="1434.636719"/>
      <use xlink:href="#DejaVuSans-73" x="1498.015625"/>
      <use xlink:href="#DejaVuSans-75" x="1550.115234"/>
      <use xlink:href="#DejaVuSans-6d" x="1613.494141"/>
      <use xlink:href="#DejaVuSans-65" x="1710.90625"/>
      <use xlink:href="#DejaVuSans-6e" x="1772.429688"/>
      <use xlink:href="#DejaVuSans-63" x="1835.808594"/>
      <use xlink:href="#DejaVuSans-6b" x="1890.789062"/>
      <use xlink:href="#DejaVuSans-69" x="1948.699219"/>
      <use xlink:href="#DejaVuSans-63" x="1976.482422"/>
      <use xlink:href="#DejaVuSans-68" x="2031.462891"/>
     </g>
    </g>
    <g id="patch_87">
     <path d="M 228.780354 31.403396 
L 244.780354 31.403396 
L 244.780354 25.803396 
L 228.780354 25.803396 
z
" style="fill: #e36f47; stroke: #000000; stroke-linejoin: miter"/>
    </g>
    <g id="text_21">
     <!-- Firma prowadzi badania konsumenckie -->
     <g transform="translate(251.180354 31.403396)scale(0.08 -0.08)">
      <use xlink:href="#DejaVuSans-46"/>
      <use xlink:href="#DejaVuSans-69" x="50.269531"/>
      <use xlink:href="#DejaVuSans-72" x="78.052734"/>
      <use xlink:href="#DejaVuSans-6d" x="117.416016"/>
      <use xlink:href="#DejaVuSans-61" x="214.828125"/>
      <use xlink:href="#DejaVuSans-20" x="276.107422"/>
      <use xlink:href="#DejaVuSans-70" x="307.894531"/>
      <use xlink:href="#DejaVuSans-72" x="371.371094"/>
      <use xlink:href="#DejaVuSans-6f" x="410.234375"/>
      <use xlink:href="#DejaVuSans-77" x="471.416016"/>
      <use xlink:href="#DejaVuSans-61" x="553.203125"/>
      <use xlink:href="#DejaVuSans-64" x="614.482422"/>
      <use xlink:href="#DejaVuSans-7a" x="677.958984"/>
      <use xlink:href="#DejaVuSans-69" x="730.449219"/>
      <use xlink:href="#DejaVuSans-20" x="758.232422"/>
      <use xlink:href="#DejaVuSans-62" x="790.019531"/>
      <use xlink:href="#DejaVuSans-61" x="853.496094"/>
      <use xlink:href="#DejaVuSans-64" x="914.775391"/>
      <use xlink:href="#DejaVuSans-61" x="978.251953"/>
      <use xlink:href="#DejaVuSans-6e" x="1039.53125"/>
      <use xlink:href="#DejaVuSans-69" x="1102.910156"/>
      <use xlink:href="#DejaVuSans-61" x="1130.693359"/>
      <use xlink:href="#DejaVuSans-20" x="1191.972656"/>
      <use xlink:href="#DejaVuSans-6b" x="1223.759766"/>
      <use xlink:href="#DejaVuSans-6f" x="1278.044922"/>
      <use xlink:href="#DejaVuSans-6e" x="1339.226562"/>
      <use xlink:href="#DejaVuSans-73" x="1402.605469"/>
      <use xlink:href="#DejaVuSans-75" x="1454.705078"/>
      <use xlink:href="#DejaVuSans-6d" x="1518.083984"/>
      <use xlink:href="#DejaVuSans-65" x="1615.496094"/>
      <use xlink:href="#DejaVuSans-6e" x="1677.019531"/>
      <use xlink:href="#DejaVuSans-63" x="1740.398438"/>
      <use xlink:href="#DejaVuSans-6b" x="1795.378906"/>
      <use xlink:href="#DejaVuSans-69" x="1853.289062"/>
      <use xlink:href="#DejaVuSans-65" x="1881.072266"/>
     </g>
    </g>
   </g>
  </g>
 </g>
 <defs>
  <clipPath id="p2deb72033b">
   <rect x="43.991537" y="2.834646" width="385.173818" height="256.110709"/>
  </clipPath>
 </defs>
</svg>
