<?xml version="1.0" encoding="utf-8" standalone="no"?>
<!DOCTYPE svg PUBLIC "-//W3C//DTD SVG 1.1//EN"
  "http://www.w3.org/Graphics/SVG/1.1/DTD/svg11.dtd">
<svg xmlns:xlink="http://www.w3.org/1999/xlink" width="432pt" height="288pt" viewBox="0 0 432 288" xmlns="http://www.w3.org/2000/svg" version="1.1">
 <metadata>
  <rdf:RDF xmlns:dc="http://purl.org/dc/elements/1.1/" xmlns:cc="http://creativecommons.org/ns#" xmlns:rdf="http://www.w3.org/1999/02/22-rdf-syntax-ns#">
   <cc:Work>
    <dc:type rdf:resource="http://purl.org/dc/dcmitype/StillImage"/>
    <dc:date>2023-02-22T21:52:00.634213</dc:date>
    <dc:format>image/svg+xml</dc:format>
    <dc:creator>
     <cc:Agent>
      <dc:title>Matplotlib v3.5.2, https://matplotlib.org/</dc:title>
     </cc:Agent>
    </dc:creator>
   </cc:Work>
  </rdf:RDF>
 </metadata>
 <defs>
  <style type="text/css">*{stroke-linejoin: round; stroke-linecap: butt}</style>
 </defs>
 <g id="figure_1">
  <g id="patch_1">
   <path d="M 0 288 
L 432 288 
L 432 0 
L 0 0 
z
" style="fill: #ffffff"/>
  </g>
  <g id="axes_1">
   <g id="patch_2">
    <path d="M 39.8313 258.225354 
L 418.543564 258.225354 
L 418.543564 19.634646 
L 39.8313 19.634646 
z
" style="fill: #ffffff"/>
   </g>
   <g id="matplotlib.axis_1">
    <g id="xtick_1">
     <g id="line2d_1">
      <path d="M 39.8313 258.225354 
L 39.8313 19.634646 
" clip-path="url(#p56ebdfac30)" style="fill: none; stroke: #000000; stroke-opacity: 0.1; stroke-width: 0.5; stroke-linecap: square"/>
     </g>
     <g id="line2d_2">
      <defs>
       <path id="mb645d41ec2" d="M 0 0 
L 0 -2.5 
" style="stroke: #000000; stroke-width: 0.5"/>
      </defs>
      <g>
       <use xlink:href="#mb645d41ec2" x="39.8313" y="258.225354" style="stroke: #000000; stroke-width: 0.5"/>
      </g>
     </g>
     <g id="text_1">
      <!-- $-300$ -->
      <g transform="translate(28.8313 267.804104)scale(0.08 -0.08)">
       <defs>
        <path id="DejaVuSans-2212" d="M 678 2272 
L 4684 2272 
L 4684 1741 
L 678 1741 
L 678 2272 
z
" transform="scale(0.015625)"/>
        <path id="DejaVuSans-33" d="M 2597 2516 
Q 3050 2419 3304 2112 
Q 3559 1806 3559 1356 
Q 3559 666 3084 287 
Q 2609 -91 1734 -91 
Q 1441 -91 1130 -33 
Q 819 25 488 141 
L 488 750 
Q 750 597 1062 519 
Q 1375 441 1716 441 
Q 2309 441 2620 675 
Q 2931 909 2931 1356 
Q 2931 1769 2642 2001 
Q 2353 2234 1838 2234 
L 1294 2234 
L 1294 2753 
L 1863 2753 
Q 2328 2753 2575 2939 
Q 2822 3125 2822 3475 
Q 2822 3834 2567 4026 
Q 2313 4219 1838 4219 
Q 1578 4219 1281 4162 
Q 984 4106 628 3988 
L 628 4550 
Q 988 4650 1302 4700 
Q 1616 4750 1894 4750 
Q 2613 4750 3031 4423 
Q 3450 4097 3450 3541 
Q 3450 3153 3228 2886 
Q 3006 2619 2597 2516 
z
" transform="scale(0.015625)"/>
        <path id="DejaVuSans-30" d="M 2034 4250 
Q 1547 4250 1301 3770 
Q 1056 3291 1056 2328 
Q 1056 1369 1301 889 
Q 1547 409 2034 409 
Q 2525 409 2770 889 
Q 3016 1369 3016 2328 
Q 3016 3291 2770 3770 
Q 2525 4250 2034 4250 
z
M 2034 4750 
Q 2819 4750 3233 4129 
Q 3647 3509 3647 2328 
Q 3647 1150 3233 529 
Q 2819 -91 2034 -91 
Q 1250 -91 836 529 
Q 422 1150 422 2328 
Q 422 3509 836 4129 
Q 1250 4750 2034 4750 
z
" transform="scale(0.015625)"/>
       </defs>
       <use xlink:href="#DejaVuSans-2212" transform="translate(0 0.78125)"/>
       <use xlink:href="#DejaVuSans-33" transform="translate(83.789062 0.78125)"/>
       <use xlink:href="#DejaVuSans-30" transform="translate(147.412109 0.78125)"/>
       <use xlink:href="#DejaVuSans-30" transform="translate(211.035156 0.78125)"/>
      </g>
     </g>
    </g>
    <g id="xtick_2">
     <g id="line2d_3">
      <path d="M 115.573752 258.225354 
L 115.573752 19.634646 
" clip-path="url(#p56ebdfac30)" style="fill: none; stroke: #000000; stroke-opacity: 0.1; stroke-width: 0.5; stroke-linecap: square"/>
     </g>
     <g id="line2d_4">
      <g>
       <use xlink:href="#mb645d41ec2" x="115.573752" y="258.225354" style="stroke: #000000; stroke-width: 0.5"/>
      </g>
     </g>
     <g id="text_2">
      <!-- $0$ -->
      <g transform="translate(113.013752 267.804104)scale(0.08 -0.08)">
       <use xlink:href="#DejaVuSans-30" transform="translate(0 0.78125)"/>
      </g>
     </g>
    </g>
    <g id="xtick_3">
     <g id="line2d_5">
      <path d="M 191.316205 258.225354 
L 191.316205 19.634646 
" clip-path="url(#p56ebdfac30)" style="fill: none; stroke: #000000; stroke-opacity: 0.1; stroke-width: 0.5; stroke-linecap: square"/>
     </g>
     <g id="line2d_6">
      <g>
       <use xlink:href="#mb645d41ec2" x="191.316205" y="258.225354" style="stroke: #000000; stroke-width: 0.5"/>
      </g>
     </g>
     <g id="text_3">
      <!-- $300$ -->
      <g transform="translate(183.676205 267.804104)scale(0.08 -0.08)">
       <use xlink:href="#DejaVuSans-33" transform="translate(0 0.78125)"/>
       <use xlink:href="#DejaVuSans-30" transform="translate(63.623047 0.78125)"/>
       <use xlink:href="#DejaVuSans-30" transform="translate(127.246094 0.78125)"/>
      </g>
     </g>
    </g>
    <g id="xtick_4">
     <g id="line2d_7">
      <path d="M 267.058658 258.225354 
L 267.058658 19.634646 
" clip-path="url(#p56ebdfac30)" style="fill: none; stroke: #000000; stroke-opacity: 0.1; stroke-width: 0.5; stroke-linecap: square"/>
     </g>
     <g id="line2d_8">
      <g>
       <use xlink:href="#mb645d41ec2" x="267.058658" y="258.225354" style="stroke: #000000; stroke-width: 0.5"/>
      </g>
     </g>
     <g id="text_4">
      <!-- $600$ -->
      <g transform="translate(259.418658 267.804104)scale(0.08 -0.08)">
       <defs>
        <path id="DejaVuSans-36" d="M 2113 2584 
Q 1688 2584 1439 2293 
Q 1191 2003 1191 1497 
Q 1191 994 1439 701 
Q 1688 409 2113 409 
Q 2538 409 2786 701 
Q 3034 994 3034 1497 
Q 3034 2003 2786 2293 
Q 2538 2584 2113 2584 
z
M 3366 4563 
L 3366 3988 
Q 3128 4100 2886 4159 
Q 2644 4219 2406 4219 
Q 1781 4219 1451 3797 
Q 1122 3375 1075 2522 
Q 1259 2794 1537 2939 
Q 1816 3084 2150 3084 
Q 2853 3084 3261 2657 
Q 3669 2231 3669 1497 
Q 3669 778 3244 343 
Q 2819 -91 2113 -91 
Q 1303 -91 875 529 
Q 447 1150 447 2328 
Q 447 3434 972 4092 
Q 1497 4750 2381 4750 
Q 2619 4750 2861 4703 
Q 3103 4656 3366 4563 
z
" transform="scale(0.015625)"/>
       </defs>
       <use xlink:href="#DejaVuSans-36" transform="translate(0 0.78125)"/>
       <use xlink:href="#DejaVuSans-30" transform="translate(63.623047 0.78125)"/>
       <use xlink:href="#DejaVuSans-30" transform="translate(127.246094 0.78125)"/>
      </g>
     </g>
    </g>
    <g id="xtick_5">
     <g id="line2d_9">
      <path d="M 342.801111 258.225354 
L 342.801111 19.634646 
" clip-path="url(#p56ebdfac30)" style="fill: none; stroke: #000000; stroke-opacity: 0.1; stroke-width: 0.5; stroke-linecap: square"/>
     </g>
     <g id="line2d_10">
      <g>
       <use xlink:href="#mb645d41ec2" x="342.801111" y="258.225354" style="stroke: #000000; stroke-width: 0.5"/>
      </g>
     </g>
     <g id="text_5">
      <!-- $900$ -->
      <g transform="translate(335.161111 267.804104)scale(0.08 -0.08)">
       <defs>
        <path id="DejaVuSans-39" d="M 703 97 
L 703 672 
Q 941 559 1184 500 
Q 1428 441 1663 441 
Q 2288 441 2617 861 
Q 2947 1281 2994 2138 
Q 2813 1869 2534 1725 
Q 2256 1581 1919 1581 
Q 1219 1581 811 2004 
Q 403 2428 403 3163 
Q 403 3881 828 4315 
Q 1253 4750 1959 4750 
Q 2769 4750 3195 4129 
Q 3622 3509 3622 2328 
Q 3622 1225 3098 567 
Q 2575 -91 1691 -91 
Q 1453 -91 1209 -44 
Q 966 3 703 97 
z
M 1959 2075 
Q 2384 2075 2632 2365 
Q 2881 2656 2881 3163 
Q 2881 3666 2632 3958 
Q 2384 4250 1959 4250 
Q 1534 4250 1286 3958 
Q 1038 3666 1038 3163 
Q 1038 2656 1286 2365 
Q 1534 2075 1959 2075 
z
" transform="scale(0.015625)"/>
       </defs>
       <use xlink:href="#DejaVuSans-39" transform="translate(0 0.78125)"/>
       <use xlink:href="#DejaVuSans-30" transform="translate(63.623047 0.78125)"/>
       <use xlink:href="#DejaVuSans-30" transform="translate(127.246094 0.78125)"/>
      </g>
     </g>
    </g>
    <g id="xtick_6">
     <g id="line2d_11">
      <path d="M 418.543564 258.225354 
L 418.543564 19.634646 
" clip-path="url(#p56ebdfac30)" style="fill: none; stroke: #000000; stroke-opacity: 0.1; stroke-width: 0.5; stroke-linecap: square"/>
     </g>
     <g id="line2d_12">
      <g>
       <use xlink:href="#mb645d41ec2" x="418.543564" y="258.225354" style="stroke: #000000; stroke-width: 0.5"/>
      </g>
     </g>
     <g id="text_6">
      <!-- $1200$ -->
      <g transform="translate(408.343564 267.804104)scale(0.08 -0.08)">
       <defs>
        <path id="DejaVuSans-31" d="M 794 531 
L 1825 531 
L 1825 4091 
L 703 3866 
L 703 4441 
L 1819 4666 
L 2450 4666 
L 2450 531 
L 3481 531 
L 3481 0 
L 794 0 
L 794 531 
z
" transform="scale(0.015625)"/>
        <path id="DejaVuSans-32" d="M 1228 531 
L 3431 531 
L 3431 0 
L 469 0 
L 469 531 
Q 828 903 1448 1529 
Q 2069 2156 2228 2338 
Q 2531 2678 2651 2914 
Q 2772 3150 2772 3378 
Q 2772 3750 2511 3984 
Q 2250 4219 1831 4219 
Q 1534 4219 1204 4116 
Q 875 4013 500 3803 
L 500 4441 
Q 881 4594 1212 4672 
Q 1544 4750 1819 4750 
Q 2544 4750 2975 4387 
Q 3406 4025 3406 3419 
Q 3406 3131 3298 2873 
Q 3191 2616 2906 2266 
Q 2828 2175 2409 1742 
Q 1991 1309 1228 531 
z
" transform="scale(0.015625)"/>
       </defs>
       <use xlink:href="#DejaVuSans-31" transform="translate(0 0.78125)"/>
       <use xlink:href="#DejaVuSans-32" transform="translate(63.623047 0.78125)"/>
       <use xlink:href="#DejaVuSans-30" transform="translate(127.246094 0.78125)"/>
       <use xlink:href="#DejaVuSans-30" transform="translate(190.869141 0.78125)"/>
      </g>
     </g>
    </g>
    <g id="text_7">
     <!-- Zysk producenta -->
     <g transform="translate(182.974541 281.826136)scale(0.11 -0.11)">
      <defs>
       <path id="DejaVuSans-5a" d="M 359 4666 
L 4025 4666 
L 4025 4184 
L 1075 531 
L 4097 531 
L 4097 0 
L 288 0 
L 288 481 
L 3238 4134 
L 359 4134 
L 359 4666 
z
" transform="scale(0.015625)"/>
       <path id="DejaVuSans-79" d="M 2059 -325 
Q 1816 -950 1584 -1140 
Q 1353 -1331 966 -1331 
L 506 -1331 
L 506 -850 
L 844 -850 
Q 1081 -850 1212 -737 
Q 1344 -625 1503 -206 
L 1606 56 
L 191 3500 
L 800 3500 
L 1894 763 
L 2988 3500 
L 3597 3500 
L 2059 -325 
z
" transform="scale(0.015625)"/>
       <path id="DejaVuSans-73" d="M 2834 3397 
L 2834 2853 
Q 2591 2978 2328 3040 
Q 2066 3103 1784 3103 
Q 1356 3103 1142 2972 
Q 928 2841 928 2578 
Q 928 2378 1081 2264 
Q 1234 2150 1697 2047 
L 1894 2003 
Q 2506 1872 2764 1633 
Q 3022 1394 3022 966 
Q 3022 478 2636 193 
Q 2250 -91 1575 -91 
Q 1294 -91 989 -36 
Q 684 19 347 128 
L 347 722 
Q 666 556 975 473 
Q 1284 391 1588 391 
Q 1994 391 2212 530 
Q 2431 669 2431 922 
Q 2431 1156 2273 1281 
Q 2116 1406 1581 1522 
L 1381 1569 
Q 847 1681 609 1914 
Q 372 2147 372 2553 
Q 372 3047 722 3315 
Q 1072 3584 1716 3584 
Q 2034 3584 2315 3537 
Q 2597 3491 2834 3397 
z
" transform="scale(0.015625)"/>
       <path id="DejaVuSans-6b" d="M 581 4863 
L 1159 4863 
L 1159 1991 
L 2875 3500 
L 3609 3500 
L 1753 1863 
L 3688 0 
L 2938 0 
L 1159 1709 
L 1159 0 
L 581 0 
L 581 4863 
z
" transform="scale(0.015625)"/>
       <path id="DejaVuSans-20" transform="scale(0.015625)"/>
       <path id="DejaVuSans-70" d="M 1159 525 
L 1159 -1331 
L 581 -1331 
L 581 3500 
L 1159 3500 
L 1159 2969 
Q 1341 3281 1617 3432 
Q 1894 3584 2278 3584 
Q 2916 3584 3314 3078 
Q 3713 2572 3713 1747 
Q 3713 922 3314 415 
Q 2916 -91 2278 -91 
Q 1894 -91 1617 61 
Q 1341 213 1159 525 
z
M 3116 1747 
Q 3116 2381 2855 2742 
Q 2594 3103 2138 3103 
Q 1681 3103 1420 2742 
Q 1159 2381 1159 1747 
Q 1159 1113 1420 752 
Q 1681 391 2138 391 
Q 2594 391 2855 752 
Q 3116 1113 3116 1747 
z
" transform="scale(0.015625)"/>
       <path id="DejaVuSans-72" d="M 2631 2963 
Q 2534 3019 2420 3045 
Q 2306 3072 2169 3072 
Q 1681 3072 1420 2755 
Q 1159 2438 1159 1844 
L 1159 0 
L 581 0 
L 581 3500 
L 1159 3500 
L 1159 2956 
Q 1341 3275 1631 3429 
Q 1922 3584 2338 3584 
Q 2397 3584 2469 3576 
Q 2541 3569 2628 3553 
L 2631 2963 
z
" transform="scale(0.015625)"/>
       <path id="DejaVuSans-6f" d="M 1959 3097 
Q 1497 3097 1228 2736 
Q 959 2375 959 1747 
Q 959 1119 1226 758 
Q 1494 397 1959 397 
Q 2419 397 2687 759 
Q 2956 1122 2956 1747 
Q 2956 2369 2687 2733 
Q 2419 3097 1959 3097 
z
M 1959 3584 
Q 2709 3584 3137 3096 
Q 3566 2609 3566 1747 
Q 3566 888 3137 398 
Q 2709 -91 1959 -91 
Q 1206 -91 779 398 
Q 353 888 353 1747 
Q 353 2609 779 3096 
Q 1206 3584 1959 3584 
z
" transform="scale(0.015625)"/>
       <path id="DejaVuSans-64" d="M 2906 2969 
L 2906 4863 
L 3481 4863 
L 3481 0 
L 2906 0 
L 2906 525 
Q 2725 213 2448 61 
Q 2172 -91 1784 -91 
Q 1150 -91 751 415 
Q 353 922 353 1747 
Q 353 2572 751 3078 
Q 1150 3584 1784 3584 
Q 2172 3584 2448 3432 
Q 2725 3281 2906 2969 
z
M 947 1747 
Q 947 1113 1208 752 
Q 1469 391 1925 391 
Q 2381 391 2643 752 
Q 2906 1113 2906 1747 
Q 2906 2381 2643 2742 
Q 2381 3103 1925 3103 
Q 1469 3103 1208 2742 
Q 947 2381 947 1747 
z
" transform="scale(0.015625)"/>
       <path id="DejaVuSans-75" d="M 544 1381 
L 544 3500 
L 1119 3500 
L 1119 1403 
Q 1119 906 1312 657 
Q 1506 409 1894 409 
Q 2359 409 2629 706 
Q 2900 1003 2900 1516 
L 2900 3500 
L 3475 3500 
L 3475 0 
L 2900 0 
L 2900 538 
Q 2691 219 2414 64 
Q 2138 -91 1772 -91 
Q 1169 -91 856 284 
Q 544 659 544 1381 
z
M 1991 3584 
L 1991 3584 
z
" transform="scale(0.015625)"/>
       <path id="DejaVuSans-63" d="M 3122 3366 
L 3122 2828 
Q 2878 2963 2633 3030 
Q 2388 3097 2138 3097 
Q 1578 3097 1268 2742 
Q 959 2388 959 1747 
Q 959 1106 1268 751 
Q 1578 397 2138 397 
Q 2388 397 2633 464 
Q 2878 531 3122 666 
L 3122 134 
Q 2881 22 2623 -34 
Q 2366 -91 2075 -91 
Q 1284 -91 818 406 
Q 353 903 353 1747 
Q 353 2603 823 3093 
Q 1294 3584 2113 3584 
Q 2378 3584 2631 3529 
Q 2884 3475 3122 3366 
z
" transform="scale(0.015625)"/>
       <path id="DejaVuSans-65" d="M 3597 1894 
L 3597 1613 
L 953 1613 
Q 991 1019 1311 708 
Q 1631 397 2203 397 
Q 2534 397 2845 478 
Q 3156 559 3463 722 
L 3463 178 
Q 3153 47 2828 -22 
Q 2503 -91 2169 -91 
Q 1331 -91 842 396 
Q 353 884 353 1716 
Q 353 2575 817 3079 
Q 1281 3584 2069 3584 
Q 2775 3584 3186 3129 
Q 3597 2675 3597 1894 
z
M 3022 2063 
Q 3016 2534 2758 2815 
Q 2500 3097 2075 3097 
Q 1594 3097 1305 2825 
Q 1016 2553 972 2059 
L 3022 2063 
z
" transform="scale(0.015625)"/>
       <path id="DejaVuSans-6e" d="M 3513 2113 
L 3513 0 
L 2938 0 
L 2938 2094 
Q 2938 2591 2744 2837 
Q 2550 3084 2163 3084 
Q 1697 3084 1428 2787 
Q 1159 2491 1159 1978 
L 1159 0 
L 581 0 
L 581 3500 
L 1159 3500 
L 1159 2956 
Q 1366 3272 1645 3428 
Q 1925 3584 2291 3584 
Q 2894 3584 3203 3211 
Q 3513 2838 3513 2113 
z
" transform="scale(0.015625)"/>
       <path id="DejaVuSans-74" d="M 1172 4494 
L 1172 3500 
L 2356 3500 
L 2356 3053 
L 1172 3053 
L 1172 1153 
Q 1172 725 1289 603 
Q 1406 481 1766 481 
L 2356 481 
L 2356 0 
L 1766 0 
Q 1100 0 847 248 
Q 594 497 594 1153 
L 594 3053 
L 172 3053 
L 172 3500 
L 594 3500 
L 594 4494 
L 1172 4494 
z
" transform="scale(0.015625)"/>
       <path id="DejaVuSans-61" d="M 2194 1759 
Q 1497 1759 1228 1600 
Q 959 1441 959 1056 
Q 959 750 1161 570 
Q 1363 391 1709 391 
Q 2188 391 2477 730 
Q 2766 1069 2766 1631 
L 2766 1759 
L 2194 1759 
z
M 3341 1997 
L 3341 0 
L 2766 0 
L 2766 531 
Q 2569 213 2275 61 
Q 1981 -91 1556 -91 
Q 1019 -91 701 211 
Q 384 513 384 1019 
Q 384 1609 779 1909 
Q 1175 2209 1959 2209 
L 2766 2209 
L 2766 2266 
Q 2766 2663 2505 2880 
Q 2244 3097 1772 3097 
Q 1472 3097 1187 3025 
Q 903 2953 641 2809 
L 641 3341 
Q 956 3463 1253 3523 
Q 1550 3584 1831 3584 
Q 2591 3584 2966 3190 
Q 3341 2797 3341 1997 
z
" transform="scale(0.015625)"/>
      </defs>
      <use xlink:href="#DejaVuSans-5a"/>
      <use xlink:href="#DejaVuSans-79" x="68.505859"/>
      <use xlink:href="#DejaVuSans-73" x="127.685547"/>
      <use xlink:href="#DejaVuSans-6b" x="179.785156"/>
      <use xlink:href="#DejaVuSans-20" x="237.695312"/>
      <use xlink:href="#DejaVuSans-70" x="269.482422"/>
      <use xlink:href="#DejaVuSans-72" x="332.958984"/>
      <use xlink:href="#DejaVuSans-6f" x="371.822266"/>
      <use xlink:href="#DejaVuSans-64" x="433.003906"/>
      <use xlink:href="#DejaVuSans-75" x="496.480469"/>
      <use xlink:href="#DejaVuSans-63" x="559.859375"/>
      <use xlink:href="#DejaVuSans-65" x="614.839844"/>
      <use xlink:href="#DejaVuSans-6e" x="676.363281"/>
      <use xlink:href="#DejaVuSans-74" x="739.742188"/>
      <use xlink:href="#DejaVuSans-61" x="778.951172"/>
     </g>
    </g>
   </g>
   <g id="matplotlib.axis_2">
    <g id="ytick_1">
     <g id="line2d_13">
      <path d="M 39.8313 251.601114 
L 418.543564 251.601114 
" clip-path="url(#p56ebdfac30)" style="fill: none; stroke: #000000; stroke-opacity: 0.1; stroke-width: 0.5; stroke-linecap: square"/>
     </g>
     <g id="line2d_14">
      <defs>
       <path id="md420a5e59d" d="M 0 0 
L 2.5 0 
" style="stroke: #000000; stroke-width: 0.5"/>
      </defs>
      <g>
       <use xlink:href="#md420a5e59d" x="39.8313" y="251.601114" style="stroke: #000000; stroke-width: 0.5"/>
      </g>
     </g>
     <g id="text_8">
      <!-- $0.00$ -->
      <g transform="translate(18.4913 254.640489)scale(0.08 -0.08)">
       <defs>
        <path id="DejaVuSans-2e" d="M 684 794 
L 1344 794 
L 1344 0 
L 684 0 
L 684 794 
z
" transform="scale(0.015625)"/>
       </defs>
       <use xlink:href="#DejaVuSans-30" transform="translate(0 0.78125)"/>
       <use xlink:href="#DejaVuSans-2e" transform="translate(63.623047 0.78125)"/>
       <use xlink:href="#DejaVuSans-30" transform="translate(95.410156 0.78125)"/>
       <use xlink:href="#DejaVuSans-30" transform="translate(159.033203 0.78125)"/>
      </g>
     </g>
    </g>
    <g id="ytick_2">
     <g id="line2d_15">
      <path d="M 39.8313 195.297639 
L 418.543564 195.297639 
" clip-path="url(#p56ebdfac30)" style="fill: none; stroke: #000000; stroke-opacity: 0.1; stroke-width: 0.5; stroke-linecap: square"/>
     </g>
     <g id="line2d_16">
      <g>
       <use xlink:href="#md420a5e59d" x="39.8313" y="195.297639" style="stroke: #000000; stroke-width: 0.5"/>
      </g>
     </g>
     <g id="text_9">
      <!-- $0.25$ -->
      <g transform="translate(18.8913 198.337014)scale(0.08 -0.08)">
       <defs>
        <path id="DejaVuSans-35" d="M 691 4666 
L 3169 4666 
L 3169 4134 
L 1269 4134 
L 1269 2991 
Q 1406 3038 1543 3061 
Q 1681 3084 1819 3084 
Q 2600 3084 3056 2656 
Q 3513 2228 3513 1497 
Q 3513 744 3044 326 
Q 2575 -91 1722 -91 
Q 1428 -91 1123 -41 
Q 819 9 494 109 
L 494 744 
Q 775 591 1075 516 
Q 1375 441 1709 441 
Q 2250 441 2565 725 
Q 2881 1009 2881 1497 
Q 2881 1984 2565 2268 
Q 2250 2553 1709 2553 
Q 1456 2553 1204 2497 
Q 953 2441 691 2322 
L 691 4666 
z
" transform="scale(0.015625)"/>
       </defs>
       <use xlink:href="#DejaVuSans-30" transform="translate(0 0.78125)"/>
       <use xlink:href="#DejaVuSans-2e" transform="translate(63.623047 0.78125)"/>
       <use xlink:href="#DejaVuSans-32" transform="translate(89.910156 0.78125)"/>
       <use xlink:href="#DejaVuSans-35" transform="translate(153.533203 0.78125)"/>
      </g>
     </g>
    </g>
    <g id="ytick_3">
     <g id="line2d_17">
      <path d="M 39.8313 138.994164 
L 418.543564 138.994164 
" clip-path="url(#p56ebdfac30)" style="fill: none; stroke: #000000; stroke-opacity: 0.1; stroke-width: 0.5; stroke-linecap: square"/>
     </g>
     <g id="line2d_18">
      <g>
       <use xlink:href="#md420a5e59d" x="39.8313" y="138.994164" style="stroke: #000000; stroke-width: 0.5"/>
      </g>
     </g>
     <g id="text_10">
      <!-- $0.50$ -->
      <g transform="translate(18.4913 142.033539)scale(0.08 -0.08)">
       <use xlink:href="#DejaVuSans-30" transform="translate(0 0.78125)"/>
       <use xlink:href="#DejaVuSans-2e" transform="translate(63.623047 0.78125)"/>
       <use xlink:href="#DejaVuSans-35" transform="translate(95.410156 0.78125)"/>
       <use xlink:href="#DejaVuSans-30" transform="translate(159.033203 0.78125)"/>
      </g>
     </g>
    </g>
    <g id="ytick_4">
     <g id="line2d_19">
      <path d="M 39.8313 82.690688 
L 418.543564 82.690688 
" clip-path="url(#p56ebdfac30)" style="fill: none; stroke: #000000; stroke-opacity: 0.1; stroke-width: 0.5; stroke-linecap: square"/>
     </g>
     <g id="line2d_20">
      <g>
       <use xlink:href="#md420a5e59d" x="39.8313" y="82.690688" style="stroke: #000000; stroke-width: 0.5"/>
      </g>
     </g>
     <g id="text_11">
      <!-- $0.75$ -->
      <g transform="translate(19.1313 85.730063)scale(0.08 -0.08)">
       <defs>
        <path id="DejaVuSans-37" d="M 525 4666 
L 3525 4666 
L 3525 4397 
L 1831 0 
L 1172 0 
L 2766 4134 
L 525 4134 
L 525 4666 
z
" transform="scale(0.015625)"/>
       </defs>
       <use xlink:href="#DejaVuSans-30" transform="translate(0 0.78125)"/>
       <use xlink:href="#DejaVuSans-2e" transform="translate(63.623047 0.78125)"/>
       <use xlink:href="#DejaVuSans-37" transform="translate(87.660156 0.78125)"/>
       <use xlink:href="#DejaVuSans-35" transform="translate(151.283203 0.78125)"/>
      </g>
     </g>
    </g>
    <g id="ytick_5">
     <g id="line2d_21">
      <path d="M 39.8313 26.387213 
L 418.543564 26.387213 
" clip-path="url(#p56ebdfac30)" style="fill: none; stroke: #000000; stroke-opacity: 0.1; stroke-width: 0.5; stroke-linecap: square"/>
     </g>
     <g id="line2d_22">
      <g>
       <use xlink:href="#md420a5e59d" x="39.8313" y="26.387213" style="stroke: #000000; stroke-width: 0.5"/>
      </g>
     </g>
     <g id="text_12">
      <!-- $1.00$ -->
      <g transform="translate(18.4913 29.426588)scale(0.08 -0.08)">
       <use xlink:href="#DejaVuSans-31" transform="translate(0 0.78125)"/>
       <use xlink:href="#DejaVuSans-2e" transform="translate(63.623047 0.78125)"/>
       <use xlink:href="#DejaVuSans-30" transform="translate(95.410156 0.78125)"/>
       <use xlink:href="#DejaVuSans-30" transform="translate(159.033203 0.78125)"/>
      </g>
     </g>
    </g>
    <g id="text_13">
     <!-- Dystrybuanta empiryczna -->
     <g transform="translate(12.203643 210.110313)rotate(-90)scale(0.11 -0.11)">
      <defs>
       <path id="DejaVuSans-44" d="M 1259 4147 
L 1259 519 
L 2022 519 
Q 2988 519 3436 956 
Q 3884 1394 3884 2338 
Q 3884 3275 3436 3711 
Q 2988 4147 2022 4147 
L 1259 4147 
z
M 628 4666 
L 1925 4666 
Q 3281 4666 3915 4102 
Q 4550 3538 4550 2338 
Q 4550 1131 3912 565 
Q 3275 0 1925 0 
L 628 0 
L 628 4666 
z
" transform="scale(0.015625)"/>
       <path id="DejaVuSans-62" d="M 3116 1747 
Q 3116 2381 2855 2742 
Q 2594 3103 2138 3103 
Q 1681 3103 1420 2742 
Q 1159 2381 1159 1747 
Q 1159 1113 1420 752 
Q 1681 391 2138 391 
Q 2594 391 2855 752 
Q 3116 1113 3116 1747 
z
M 1159 2969 
Q 1341 3281 1617 3432 
Q 1894 3584 2278 3584 
Q 2916 3584 3314 3078 
Q 3713 2572 3713 1747 
Q 3713 922 3314 415 
Q 2916 -91 2278 -91 
Q 1894 -91 1617 61 
Q 1341 213 1159 525 
L 1159 0 
L 581 0 
L 581 4863 
L 1159 4863 
L 1159 2969 
z
" transform="scale(0.015625)"/>
       <path id="DejaVuSans-6d" d="M 3328 2828 
Q 3544 3216 3844 3400 
Q 4144 3584 4550 3584 
Q 5097 3584 5394 3201 
Q 5691 2819 5691 2113 
L 5691 0 
L 5113 0 
L 5113 2094 
Q 5113 2597 4934 2840 
Q 4756 3084 4391 3084 
Q 3944 3084 3684 2787 
Q 3425 2491 3425 1978 
L 3425 0 
L 2847 0 
L 2847 2094 
Q 2847 2600 2669 2842 
Q 2491 3084 2119 3084 
Q 1678 3084 1418 2786 
Q 1159 2488 1159 1978 
L 1159 0 
L 581 0 
L 581 3500 
L 1159 3500 
L 1159 2956 
Q 1356 3278 1631 3431 
Q 1906 3584 2284 3584 
Q 2666 3584 2933 3390 
Q 3200 3197 3328 2828 
z
" transform="scale(0.015625)"/>
       <path id="DejaVuSans-69" d="M 603 3500 
L 1178 3500 
L 1178 0 
L 603 0 
L 603 3500 
z
M 603 4863 
L 1178 4863 
L 1178 4134 
L 603 4134 
L 603 4863 
z
" transform="scale(0.015625)"/>
       <path id="DejaVuSans-7a" d="M 353 3500 
L 3084 3500 
L 3084 2975 
L 922 459 
L 3084 459 
L 3084 0 
L 275 0 
L 275 525 
L 2438 3041 
L 353 3041 
L 353 3500 
z
" transform="scale(0.015625)"/>
      </defs>
      <use xlink:href="#DejaVuSans-44"/>
      <use xlink:href="#DejaVuSans-79" x="77.001953"/>
      <use xlink:href="#DejaVuSans-73" x="136.181641"/>
      <use xlink:href="#DejaVuSans-74" x="188.28125"/>
      <use xlink:href="#DejaVuSans-72" x="227.490234"/>
      <use xlink:href="#DejaVuSans-79" x="268.603516"/>
      <use xlink:href="#DejaVuSans-62" x="327.783203"/>
      <use xlink:href="#DejaVuSans-75" x="391.259766"/>
      <use xlink:href="#DejaVuSans-61" x="454.638672"/>
      <use xlink:href="#DejaVuSans-6e" x="515.917969"/>
      <use xlink:href="#DejaVuSans-74" x="579.296875"/>
      <use xlink:href="#DejaVuSans-61" x="618.505859"/>
      <use xlink:href="#DejaVuSans-20" x="679.785156"/>
      <use xlink:href="#DejaVuSans-65" x="711.572266"/>
      <use xlink:href="#DejaVuSans-6d" x="773.095703"/>
      <use xlink:href="#DejaVuSans-70" x="870.507812"/>
      <use xlink:href="#DejaVuSans-69" x="933.984375"/>
      <use xlink:href="#DejaVuSans-72" x="961.767578"/>
      <use xlink:href="#DejaVuSans-79" x="1002.880859"/>
      <use xlink:href="#DejaVuSans-63" x="1062.060547"/>
      <use xlink:href="#DejaVuSans-7a" x="1117.041016"/>
      <use xlink:href="#DejaVuSans-6e" x="1169.53125"/>
      <use xlink:href="#DejaVuSans-61" x="1232.910156"/>
     </g>
    </g>
   </g>
   <g id="line2d_23">
    <path d="M 48.325207 251.472787 
L 49.442791 251.34446 
L 58.146356 251.216133 
L 59.154977 251.087806 
L 63.9873 250.831152 
L 67.607385 250.574498 
L 70.971821 250.317844 
L 71.75549 250.189517 
L 73.615792 249.932863 
L 75.470128 249.676209 
L 76.043723 249.419555 
L 81.037229 248.906247 
L 81.195358 248.649593 
L 82.332094 248.392939 
L 82.524959 248.007958 
L 82.840815 247.751304 
L 83.288503 247.622977 
L 84.620852 247.49465 
L 85.018255 247.237996 
L 86.692799 246.596361 
L 86.977252 246.21138 
L 87.561519 245.954726 
L 87.588184 245.826399 
L 88.329192 245.441418 
L 88.372258 245.313091 
L 88.759488 245.056437 
L 88.776462 244.92811 
L 89.457878 244.671456 
L 90.36319 244.414802 
L 90.510252 244.286475 
L 90.994179 244.029821 
L 91.084789 243.773167 
L 91.10372 243.64484 
L 91.694399 243.388186 
L 91.694555 243.259859 
L 92.177832 242.618223 
L 92.193045 242.489896 
L 93.267833 241.591607 
L 93.565639 241.334953 
L 94.109463 240.949972 
L 94.174384 240.693318 
L 94.829366 240.18001 
L 95.602914 239.923356 
L 96.511555 238.640086 
L 96.834473 238.511759 
L 96.882738 238.126778 
L 97.024858 237.870124 
L 97.041405 237.741797 
L 97.551892 237.228489 
L 97.563892 236.971835 
L 98.133843 236.586854 
L 98.57367 236.3302 
L 98.889235 236.073546 
L 99.060709 235.816892 
L 99.202123 235.431911 
L 99.441086 235.04693 
L 99.486682 234.918603 
L 99.73063 234.661949 
L 99.786683 234.405295 
L 100.03453 234.276968 
L 100.134533 234.020314 
L 100.323224 233.635333 
L 100.512321 233.378679 
L 100.572198 233.250352 
L 101.0963 232.865371 
L 101.186566 232.48039 
L 101.289209 232.095409 
L 101.479802 231.710428 
L 101.803533 231.453774 
L 101.867195 231.068793 
L 102.65789 230.298831 
L 102.710605 230.170504 
L 103.055575 229.91385 
L 103.060257 229.785523 
L 103.452076 229.400542 
L 103.611222 229.143887 
L 103.757828 228.887233 
L 103.917435 228.502252 
L 104.411224 227.347309 
L 104.447386 226.962328 
L 105.040298 226.577347 
L 105.157245 226.064039 
L 105.441535 225.422404 
L 105.495961 225.037423 
L 106.557701 222.727537 
L 106.57543 222.470883 
L 106.730213 222.214229 
L 106.860629 221.829248 
L 107.121277 220.930959 
L 107.345979 220.674305 
L 107.368083 220.545978 
L 107.557304 220.289324 
L 108.206547 218.236092 
L 108.343068 217.722784 
L 108.746348 216.567841 
L 109.133949 215.797879 
L 109.300952 215.027916 
L 109.53423 214.642935 
L 109.940152 212.846357 
L 110.098246 212.589703 
L 110.367425 211.948068 
L 110.525622 210.793125 
L 110.796128 210.408144 
L 110.963845 209.894836 
L 111.067914 209.253201 
L 111.360281 208.483239 
L 111.694503 206.430007 
L 111.847332 206.173353 
L 112.404648 202.965178 
L 112.611894 202.708524 
L 112.757949 202.195216 
L 112.906127 200.911945 
L 113.044008 200.655291 
L 113.235116 199.115367 
L 113.335059 198.730386 
L 113.459902 197.575443 
L 113.555384 197.318789 
L 113.640822 196.677154 
L 113.713311 196.4205 
L 113.855331 195.393884 
L 114.03687 194.367268 
L 114.334638 193.083998 
L 114.47405 192.185709 
L 114.639642 191.159093 
L 114.834187 190.260804 
L 115.11789 188.849207 
L 115.199364 188.079245 
L 115.434049 186.667647 
L 115.556371 185.641031 
L 115.77842 184.357761 
L 115.854632 183.844453 
L 115.980365 183.074491 
L 116.551422 180.379624 
L 116.719792 179.994643 
L 117.285009 177.684757 
L 117.354772 177.043122 
L 117.468908 176.529814 
L 117.56927 175.759852 
L 117.758168 175.374871 
L 117.863044 174.733236 
L 117.944576 174.219928 
L 118.027445 173.70662 
L 118.298534 172.295022 
L 118.40911 171.781714 
L 118.580453 170.498444 
L 118.793071 170.24179 
L 118.898859 169.728482 
L 119.10979 168.830193 
L 119.250324 167.803577 
L 119.345011 167.418596 
L 119.522977 166.648634 
L 119.647928 165.750345 
L 119.795831 164.852056 
L 120.03741 164.338748 
L 120.310964 162.54217 
L 120.639889 161.002246 
L 120.833298 159.205667 
L 120.995903 158.692359 
L 121.119833 158.435705 
L 121.230935 157.665743 
L 121.332586 157.280762 
L 121.942959 155.355857 
L 122.18181 154.072587 
L 122.364595 153.559279 
L 122.513768 152.789317 
L 122.619893 152.276009 
L 122.778131 151.249393 
L 123.079349 150.351104 
L 123.488567 149.196161 
L 123.516312 149.067834 
L 123.721588 148.81118 
L 124.484128 145.218023 
L 124.580321 144.704715 
L 124.687858 144.319734 
L 124.990928 143.549772 
L 125.028954 143.164791 
L 125.276129 142.77981 
L 125.331791 142.266502 
L 125.452196 141.881521 
L 125.590193 141.49654 
L 125.830477 141.111559 
L 125.981098 140.726578 
L 126.547602 138.801673 
L 127.065313 136.491787 
L 127.508531 136.235133 
L 127.630638 135.978479 
L 128.188297 134.438555 
L 128.333808 133.668593 
L 128.541149 133.411939 
L 128.54923 133.283612 
L 128.722876 133.026958 
L 128.785093 132.770304 
L 128.978496 132.51365 
L 129.078326 132.128669 
L 129.319604 131.487033 
L 129.558445 131.230379 
L 129.725868 130.973725 
L 129.980643 129.818782 
L 130.154955 129.562128 
L 130.231859 129.177147 
L 130.460019 128.920493 
L 130.565775 128.150531 
L 130.711938 127.893877 
L 131.301402 125.712318 
L 131.490144 124.942356 
L 131.665233 124.557375 
L 131.774719 124.300721 
L 132.12007 123.659086 
L 132.312279 123.402432 
L 132.441115 123.017451 
L 133.14205 120.964219 
L 133.329188 120.579238 
L 133.464279 120.06593 
L 133.659073 119.552622 
L 133.731959 119.295968 
L 133.847073 119.039314 
L 133.910999 118.78266 
L 134.049065 118.526006 
L 134.16894 118.141025 
L 134.360316 117.499389 
L 134.465307 117.242735 
L 135.0092 116.344446 
L 135.117499 116.087792 
L 136.726219 111.211366 
L 136.981097 110.826385 
L 137.251071 110.441404 
L 137.344378 109.671442 
L 137.565964 108.90148 
L 137.823096 108.773153 
L 137.927036 108.516499 
L 138.003873 108.259845 
L 138.14643 107.361556 
L 138.486107 107.104902 
L 138.565536 106.719921 
L 138.691805 106.463267 
L 138.975384 105.436651 
L 139.292092 104.923343 
L 139.351813 104.538362 
L 139.580611 104.281708 
L 139.882663 103.768399 
L 140.074193 103.383418 
L 140.20713 103.126764 
L 140.321226 102.741783 
L 140.693004 102.356802 
L 140.881036 101.843494 
L 141.051845 101.58684 
L 141.712733 100.046916 
L 141.864103 99.790262 
L 142.065228 99.533608 
L 142.166263 99.148627 
L 142.463329 98.763646 
L 142.529088 98.250338 
L 142.785365 97.993684 
L 142.934224 97.480376 
L 143.160735 97.223722 
L 143.53322 96.45376 
L 143.666305 95.812125 
L 144.022976 95.427144 
L 144.032694 95.298817 
L 144.305068 95.042163 
L 144.485679 94.785509 
L 144.498056 94.657182 
L 144.818624 94.272201 
L 144.907205 93.88722 
L 145.048715 93.758893 
L 145.509474 93.502239 
L 145.578298 93.117258 
L 145.794676 92.860604 
L 145.905033 92.60395 
L 146.27655 92.218969 
L 146.733336 91.962315 
L 147.291258 91.064026 
L 147.437816 90.807372 
L 147.541784 90.294063 
L 147.849114 89.909082 
L 148.192138 89.395774 
L 148.443919 89.267447 
L 148.501115 88.754139 
L 148.823465 88.497485 
L 148.833663 88.369158 
L 149.218534 87.85585 
L 149.409206 87.085888 
L 149.707513 86.700907 
L 150.392038 86.315926 
L 150.482463 86.059272 
L 150.578599 85.930945 
L 150.967428 85.802618 
L 151.065474 85.545964 
L 151.195644 85.417637 
L 152.035574 85.160983 
L 152.288749 84.904329 
L 152.30869 84.647675 
L 152.583222 84.391021 
L 152.647843 84.262694 
L 153.117857 84.00604 
L 153.398404 83.749386 
L 153.839078 83.236078 
L 153.853675 83.107751 
L 154.236491 82.72277 
L 154.441853 82.466116 
L 154.797363 82.209462 
L 155.128212 81.696154 
L 155.347831 81.4395 
L 155.356729 81.311173 
L 158.380711 79.129614 
L 158.551612 78.87296 
L 159.010664 78.744633 
L 159.158958 78.487979 
L 159.286391 78.231325 
L 159.327885 78.102998 
L 159.620859 77.846344 
L 159.633861 77.718017 
L 160.137084 77.461363 
L 160.312204 77.204709 
L 160.365757 77.076382 
L 160.759361 76.819728 
L 160.994325 76.434746 
L 161.699304 76.049765 
L 161.756839 75.793111 
L 162.684812 75.279803 
L 162.799878 75.023149 
L 164.213075 73.868206 
L 164.720695 73.611552 
L 164.987536 73.226571 
L 165.264157 73.098244 
L 165.267619 72.969917 
L 165.602306 72.584936 
L 165.62912 72.456609 
L 165.988539 72.328282 
L 166.023155 72.071628 
L 166.286846 71.814974 
L 166.489674 71.301666 
L 166.9177 71.045012 
L 167.818072 70.788358 
L 168.301607 70.531704 
L 168.830903 70.27505 
L 168.968242 70.018396 
L 169.783413 69.761742 
L 169.896432 69.633415 
L 170.314908 69.376761 
L 170.553371 69.120107 
L 171.054521 68.735126 
L 171.38209 68.350145 
L 171.996186 67.965164 
L 172.563582 67.451856 
L 172.988853 67.195202 
L 173.055727 66.681894 
L 173.145231 66.553567 
L 174.322188 66.168586 
L 174.554855 65.911932 
L 174.676997 65.783605 
L 175.675052 65.398624 
L 175.761556 65.14197 
L 176.436603 64.885316 
L 176.78772 64.628662 
L 176.842783 64.500335 
L 177.586315 64.243681 
L 177.871288 63.987027 
L 178.213101 63.730373 
L 178.438046 63.473719 
L 178.883479 63.217065 
L 178.981006 63.088738 
L 179.510789 62.832084 
L 179.700305 62.447102 
L 180.713718 62.190448 
L 180.857546 61.805467 
L 181.484754 61.548813 
L 181.507016 61.420486 
L 181.802569 61.163832 
L 182.065836 60.907178 
L 183.864026 60.39387 
L 184.227991 60.008889 
L 184.810947 59.752235 
L 185.428317 59.1106 
L 185.479402 58.982273 
L 186.553422 58.725619 
L 187.90074 57.82733 
L 188.427751 57.185695 
L 190.126111 56.672387 
L 190.288253 56.415733 
L 190.802478 56.030752 
L 190.855016 55.902425 
L 191.280394 55.645771 
L 191.369122 55.517444 
L 192.07246 55.389117 
L 192.079416 55.26079 
L 192.257008 55.132463 
L 192.855429 54.875809 
L 193.31291 54.619155 
L 194.07307 54.234174 
L 194.40875 53.849193 
L 194.740123 53.720866 
L 195.572742 53.464212 
L 196.594528 52.822577 
L 197.344538 52.69425 
L 197.659853 52.180942 
L 198.834662 51.924288 
L 199.11733 51.667634 
L 199.416107 51.41098 
L 199.780336 51.282653 
L 199.806031 51.154326 
L 200.445725 50.641018 
L 200.489504 50.512691 
L 200.815918 50.384364 
L 202.033523 50.256037 
L 202.340523 49.999383 
L 202.990634 49.614402 
L 203.353401 49.486075 
L 203.365063 49.357748 
L 203.818292 48.972767 
L 205.240614 48.716113 
L 205.240636 48.587785 
L 205.858618 48.459458 
L 206.15252 48.074477 
L 206.361719 47.94615 
L 207.679844 47.689496 
L 208.121763 47.432842 
L 209.328144 47.304515 
L 209.336956 47.176188 
L 210.333237 46.919534 
L 210.377704 46.791207 
L 212.060016 45.892918 
L 212.480486 45.764591 
L 212.480578 45.636264 
L 212.749567 45.37961 
L 212.803662 45.122956 
L 214.68036 44.994629 
L 214.762313 44.737975 
L 216.036331 44.224667 
L 216.680075 43.839686 
L 216.970864 43.583032 
L 217.902185 43.326378 
L 218.040616 43.198051 
L 219.54144 42.684743 
L 220.693029 42.556416 
L 221.014545 42.299762 
L 222.186482 41.786454 
L 225.305556 41.273146 
L 227.211992 41.144819 
L 227.27603 41.016492 
L 228.127414 40.888165 
L 228.182595 40.759838 
L 228.396706 40.631511 
L 231.190261 40.118203 
L 231.609939 39.861549 
L 232.546635 39.476568 
L 232.652836 39.348241 
L 233.315565 39.219914 
L 233.326832 39.091587 
L 237.895858 38.449952 
L 238.269523 38.193298 
L 238.281737 38.064971 
L 240.523282 37.67999 
L 242.227806 37.166682 
L 242.408825 37.038355 
L 243.354346 36.781701 
L 248.459602 36.140066 
L 248.561628 35.883412 
L 248.864288 35.626758 
L 249.68431 35.498431 
L 249.770846 35.370104 
L 251.259124 35.241777 
L 251.289419 35.11345 
L 252.416207 34.856796 
L 254.225246 34.600141 
L 254.989728 34.343487 
L 255.619879 34.086833 
L 257.083712 33.958506 
L 257.246261 33.830179 
L 258.65424 33.701852 
L 258.655182 33.573525 
L 259.455391 33.188544 
L 264.314577 32.418582 
L 264.606317 32.290255 
L 265.800253 32.161928 
L 269.655064 31.905274 
L 274.287242 31.135312 
L 274.50649 31.006985 
L 280.653348 30.750331 
L 280.900898 30.622004 
L 283.521756 30.493677 
L 283.702585 30.36535 
L 287.036383 29.852042 
L 291.721663 29.467061 
L 298.314597 29.210407 
L 299.875554 28.825426 
L 301.658117 28.697099 
L 301.712245 28.568772 
L 306.993248 28.312118 
L 307.607519 28.183791 
L 336.324904 27.028848 
L 336.539633 26.900521 
L 406.219544 26.51554 
L 420.424876 26.387213 
L 420.424876 26.387213 
" clip-path="url(#p56ebdfac30)" style="fill: none; stroke: #009afa"/>
   </g>
   <g id="line2d_24">
    <path d="M 58.599727 251.472787 
L 77.059228 251.216133 
L 77.220212 251.087806 
L 80.151662 250.831152 
L 82.463822 250.317844 
L 84.13262 250.189517 
L 84.135948 250.06119 
L 85.235879 249.676209 
L 85.348741 249.547882 
L 85.880042 249.419555 
L 88.997992 249.162901 
L 90.4604 248.77792 
L 91.230465 248.136285 
L 91.417321 247.879631 
L 92.432256 247.49465 
L 92.462263 247.366323 
L 92.680432 247.237996 
L 94.742935 246.981342 
L 94.884096 246.724688 
L 94.908868 246.596361 
L 95.914339 246.339707 
L 96.960532 245.569745 
L 97.599341 245.313091 
L 98.443539 244.671456 
L 99.82082 243.901494 
L 99.847858 243.64484 
L 100.928282 243.131532 
L 101.591648 242.874877 
L 101.843087 242.618223 
L 102.808962 241.976588 
L 102.81818 241.848261 
L 103.177018 241.591607 
L 103.290473 241.206626 
L 103.789125 240.436664 
L 103.789848 240.308337 
L 103.940225 240.051683 
L 103.954939 239.923356 
L 104.203256 239.666702 
L 104.553466 239.538375 
L 104.718689 238.89674 
L 105.130491 237.485143 
L 105.874874 236.843508 
L 106.292267 236.586854 
L 106.353403 236.3302 
L 106.639436 235.945219 
L 106.673063 235.816892 
L 106.97175 235.560238 
L 107.425551 234.661949 
L 107.899186 233.507006 
L 108.361708 232.865371 
L 109.569279 231.068793 
L 109.723764 230.812139 
L 109.954738 230.427158 
L 110.060396 229.91385 
L 110.33085 229.528869 
L 110.446053 228.758906 
L 110.893584 227.988944 
L 111.015025 227.218982 
L 111.441973 226.192366 
L 111.811294 225.935712 
L 111.953667 225.294077 
L 112.442331 223.754153 
L 112.540059 223.369172 
L 112.663637 222.855864 
L 113.205588 221.059286 
L 113.515401 219.647689 
L 113.651912 219.262708 
L 113.863185 218.107765 
L 114.528139 215.027916 
L 114.594988 214.771262 
L 114.916296 213.744646 
L 115.836018 207.841604 
L 115.954626 207.199969 
L 116.215334 205.916699 
L 116.953066 201.425254 
L 117.054844 200.911945 
L 117.167542 200.141983 
L 117.325436 199.243694 
L 117.427732 198.98704 
L 117.545343 198.345405 
L 117.95238 196.035519 
L 118.148746 194.752249 
L 118.326027 193.725633 
L 118.513441 192.57069 
L 118.5887 191.672401 
L 118.725143 191.28742 
L 118.9539 190.132477 
L 119.040878 189.234188 
L 119.086358 188.72088 
L 119.215882 187.437609 
L 119.624266 183.331145 
L 119.953177 182.047875 
L 120.052463 181.277913 
L 120.238674 181.021259 
L 120.494026 179.737989 
L 120.622102 179.353008 
L 120.870765 177.941411 
L 120.933444 177.55643 
L 121.13836 176.786468 
L 121.237457 176.401487 
L 121.354673 175.631525 
L 121.517979 174.733236 
L 121.641158 174.219928 
L 121.768828 173.963274 
L 121.779092 173.834947 
L 121.927102 173.578292 
L 122.022897 173.064984 
L 122.097279 172.551676 
L 122.367929 171.396733 
L 122.520115 170.24179 
L 122.781874 169.215174 
L 122.997723 168.188558 
L 123.149972 167.67525 
L 123.369202 166.648634 
L 123.509029 165.750345 
L 123.60844 165.365364 
L 123.79102 164.467075 
L 123.882764 163.953767 
L 124.031406 163.312132 
L 124.312671 161.002246 
L 124.540473 159.590648 
L 124.659798 158.949013 
L 124.911174 157.409089 
L 125.035028 156.767454 
L 125.176428 156.125819 
L 125.398906 155.099203 
L 125.545315 154.585895 
L 125.681111 153.687606 
L 125.90089 153.430952 
L 125.968873 152.917644 
L 126.149265 152.66099 
L 126.436888 151.37772 
L 126.556751 150.992739 
L 126.881195 149.837796 
L 127.022303 149.581142 
L 127.200626 147.784564 
L 127.329949 147.399583 
L 127.81566 144.961369 
L 127.937556 144.704715 
L 128.162085 143.549772 
L 128.398857 142.908137 
L 128.45428 142.651483 
L 128.599212 142.266502 
L 128.988114 140.726578 
L 129.152864 140.469924 
L 129.22552 139.699962 
L 129.467469 139.443308 
L 130.328006 136.876768 
L 130.477333 136.620114 
L 130.704603 134.951863 
L 131.358683 133.411939 
L 131.554677 133.026958 
L 131.563805 132.641977 
L 131.865105 132.256996 
L 132.136197 130.973725 
L 132.436983 130.588744 
L 132.552575 130.203763 
L 132.729481 129.818782 
L 132.831077 129.177147 
L 132.943492 128.792166 
L 133.108052 128.407185 
L 133.12655 128.278858 
L 133.353495 128.022204 
L 133.598539 127.252242 
L 133.66996 126.867261 
L 133.699948 126.48228 
L 133.963841 126.097299 
L 134.035323 125.712318 
L 134.202697 125.455664 
L 134.349856 124.942356 
L 134.696952 124.300721 
L 134.894315 124.044067 
L 134.971043 123.402432 
L 135.353876 122.63247 
L 135.439232 122.247489 
L 136.323752 120.707565 
L 136.498317 120.450911 
L 136.663514 119.937603 
L 136.75841 119.424295 
L 136.863516 118.78266 
L 137.015941 118.526006 
L 137.056674 118.269352 
L 137.340736 118.141025 
L 137.494228 117.371062 
L 137.642362 116.986081 
L 138.024639 116.729427 
L 138.122658 116.344446 
L 138.241121 115.959465 
L 138.252744 115.831138 
L 138.677851 115.574484 
L 138.772851 115.31783 
L 139.020272 114.932849 
L 139.968932 112.879617 
L 140.135537 112.622963 
L 140.357743 111.981328 
L 140.646656 111.724674 
L 140.803867 111.083039 
L 142.289952 108.644826 
L 142.707405 108.259845 
L 142.738276 108.131518 
L 142.956408 107.874864 
L 143.187106 107.489883 
L 143.935614 106.33494 
L 144.385591 106.078286 
L 144.504126 105.821632 
L 145.152291 105.05167 
L 145.570699 104.923343 
L 145.709898 104.666689 
L 145.807554 104.538362 
L 146.655523 104.15338 
L 146.778109 103.768399 
L 147.673135 103.126764 
L 147.978367 102.613456 
L 148.444444 102.356802 
L 148.572112 102.100148 
L 148.740375 101.58684 
L 148.881261 101.201859 
L 149.107189 100.945205 
L 149.235245 100.30357 
L 149.333865 100.175243 
L 150.024794 99.790262 
L 150.0773 99.405281 
L 151.388613 98.506992 
L 151.718472 97.73703 
L 152.147526 97.608703 
L 152.214078 97.352049 
L 152.831352 96.838741 
L 152.832121 96.710414 
L 153.316486 96.45376 
L 153.686577 96.197106 
L 154.340698 95.812125 
L 154.659924 95.427144 
L 154.696876 95.298817 
L 154.908205 95.042163 
L 155.177713 94.528855 
L 155.2827 94.272201 
L 155.297486 94.143874 
L 155.659095 93.88722 
L 155.902251 93.502239 
L 156.424338 92.860604 
L 156.93571 92.60395 
L 157.207469 92.090642 
L 157.560486 91.577334 
L 157.593839 91.449007 
L 158.453091 91.064026 
L 158.679971 90.679045 
L 158.869633 90.422391 
L 158.947018 90.165736 
L 159.850913 88.882466 
L 160.11707 88.497485 
L 160.358493 88.240831 
L 160.558308 87.727523 
L 160.807144 87.470869 
L 161.082917 86.957561 
L 161.620438 86.700907 
L 161.676837 86.57258 
L 162.311502 86.187599 
L 162.497929 85.802618 
L 163.394001 84.647675 
L 163.730013 84.391021 
L 164.140335 84.00604 
L 164.43509 83.749386 
L 165.888431 82.337789 
L 166.656595 82.081135 
L 167.021925 81.952808 
L 167.035221 81.824481 
L 167.497568 81.311173 
L 167.710552 81.054519 
L 168.076926 80.797865 
L 168.141205 80.541211 
L 168.58027 80.284557 
L 168.899014 80.027903 
L 169.000515 79.899576 
L 169.385711 79.642922 
L 169.543116 79.386268 
L 169.620047 78.87296 
L 170.093521 78.616306 
L 170.761365 77.718017 
L 171.535266 77.461363 
L 172.665834 76.434746 
L 172.73356 76.306419 
L 172.995784 76.049765 
L 173.019451 75.921438 
L 173.377921 75.664784 
L 173.654139 75.151476 
L 174.778807 74.894822 
L 174.854222 74.766495 
L 175.429056 74.509841 
L 176.664124 74.12486 
L 177.720793 73.868206 
L 177.763321 73.739879 
L 178.04151 73.483225 
L 178.119302 73.354898 
L 179.250658 72.84159 
L 179.700568 72.456609 
L 179.946029 72.071628 
L 181.293302 71.301666 
L 181.301684 71.173339 
L 181.736788 70.916685 
L 182.133788 70.403377 
L 182.15739 70.146723 
L 182.454137 70.018396 
L 183.362644 69.761742 
L 183.698494 69.376761 
L 184.860445 69.248434 
L 185.097422 68.99178 
L 185.806612 68.735126 
L 186.342755 68.478472 
L 187.399253 67.836837 
L 188.231028 67.70851 
L 188.315866 67.580183 
L 189.557694 67.323529 
L 189.719019 66.810221 
L 190.08375 66.681894 
L 190.102646 66.553567 
L 190.663136 66.42524 
L 190.689802 66.296913 
L 191.203036 66.168586 
L 191.226631 66.040259 
L 191.598125 65.911932 
L 192.539571 65.655278 
L 192.716485 65.398624 
L 193.230795 65.14197 
L 193.28836 65.013643 
L 193.589733 64.885316 
L 195.83456 64.500335 
L 196.462533 64.115354 
L 196.566572 63.8587 
L 197.2835 63.602046 
L 197.293533 63.473719 
L 197.834705 63.217065 
L 198.619416 62.703757 
L 199.21344 62.447102 
L 199.846385 62.190448 
L 199.913104 61.933794 
L 201.044565 61.805467 
L 201.206749 61.420486 
L 203.273516 61.035505 
L 204.286986 60.778851 
L 205.649976 60.522197 
L 205.677241 60.39387 
L 206.007474 60.265543 
L 208.856983 59.752235 
L 209.650652 59.495581 
L 209.719597 59.367254 
L 210.952846 59.1106 
L 215.413974 58.083984 
L 215.562356 57.955657 
L 217.196937 57.699003 
L 218.386091 57.442349 
L 220.379876 57.314022 
L 220.595583 56.929041 
L 223.002903 55.774098 
L 223.052561 55.645771 
L 223.972889 55.389117 
L 224.117837 55.26079 
L 224.999103 55.004136 
L 225.08775 54.875809 
L 225.909558 54.490828 
L 227.171623 54.234174 
L 228.260044 54.105847 
L 228.32546 53.97752 
L 229.054261 53.849193 
L 229.099242 53.720866 
L 229.686992 53.592539 
L 231.442758 53.335885 
L 231.658874 53.079231 
L 235.493479 52.180942 
L 235.711683 51.795961 
L 236.047679 51.667634 
L 238.038825 51.41098 
L 238.421232 51.282653 
L 239.248956 51.154326 
L 239.50752 50.897672 
L 242.124754 50.641018 
L 242.658959 50.512691 
L 244.455516 50.256037 
L 244.60747 50.12771 
L 245.991164 49.871056 
L 246.449803 49.614402 
L 248.687721 48.972767 
L 248.73197 48.716113 
L 249.219335 48.587785 
L 249.23847 48.459458 
L 252.250421 47.94615 
L 252.361181 47.817823 
L 253.232967 47.689496 
L 253.709941 47.176188 
L 254.769268 46.791207 
L 255.432358 46.66288 
L 257.607371 46.534553 
L 257.88796 46.277899 
L 258.364363 46.149572 
L 260.351314 46.021245 
L 260.612454 45.892918 
L 267.502899 44.481321 
L 267.611359 44.352994 
L 268.217287 44.224667 
L 273.868019 43.711359 
L 274.821162 43.454705 
L 280.228837 43.198051 
L 280.250954 43.069724 
L 284.605398 42.428089 
L 285.452071 42.299762 
L 285.488545 42.171435 
L 287.772974 41.786454 
L 289.336913 41.5298 
L 289.545192 41.401473 
L 290.793452 41.144819 
L 292.164301 40.503184 
L 296.780437 39.861549 
L 299.348963 39.733222 
L 304.19865 39.604895 
L 304.353491 39.476568 
L 304.82783 39.348241 
L 309.599012 38.706606 
L 309.997495 38.449952 
L 311.651662 38.193298 
L 312.053794 37.936644 
L 313.370576 37.808317 
L 313.461423 37.67999 
L 315.002664 37.295009 
L 321.062721 36.781701 
L 324.617531 36.525047 
L 326.345126 36.268393 
L 327.494205 36.140066 
L 327.638681 36.011739 
L 328.798971 35.755085 
L 329.968813 35.11345 
L 330.626774 34.856796 
L 333.872619 34.600141 
L 336.43248 34.471814 
L 336.83381 34.21516 
L 338.968816 33.958506 
L 339.581685 33.830179 
L 343.534541 33.701852 
L 343.775444 33.573525 
L 345.019209 33.316871 
L 347.543004 33.188544 
L 347.788766 33.060217 
L 350.529931 32.803563 
L 351.424216 32.546909 
L 352.353381 32.418582 
L 358.694047 31.905274 
L 361.684146 31.64862 
L 373.405118 30.750331 
L 375.07925 30.622004 
L 375.259624 30.493677 
L 377.855952 30.237023 
L 379.501713 29.980369 
L 380.388978 29.852042 
L 386.975216 29.595388 
L 390.103585 29.338734 
L 393.544188 29.08208 
L 398.487027 28.825426 
L 398.489365 28.697099 
L 409.57853 28.055464 
L 423.745115 27.927137 
L 423.745115 27.927137 
" clip-path="url(#p56ebdfac30)" style="fill: none; stroke: #e36f47"/>
   </g>
   <g id="patch_3">
    <path d="M 39.8313 258.225354 
L 39.8313 19.634646 
" style="fill: none; stroke: #000000; stroke-linejoin: miter; stroke-linecap: square"/>
   </g>
   <g id="patch_4">
    <path d="M 39.8313 258.225354 
L 418.543564 258.225354 
" style="fill: none; stroke: #000000; stroke-linejoin: miter; stroke-linecap: square"/>
   </g>
   <g id="line2d_25">
    <path d="M 57.26814 251.472787 
L 63.524899 251.216133 
L 66.037714 251.087806 
L 78.097579 250.702825 
L 82.252296 250.446171 
L 86.262896 250.06119 
L 86.865738 249.676209 
L 88.995236 249.034574 
L 90.185775 248.906247 
L 90.203494 248.77792 
L 90.413281 248.649593 
L 91.395253 248.392939 
L 91.486368 248.264612 
L 93.771506 247.622977 
L 93.920093 247.237996 
L 94.043068 246.981342 
L 96.109535 246.468034 
L 96.254544 246.083053 
L 96.670309 245.826399 
L 96.730201 245.698072 
L 97.318343 245.441418 
L 97.472166 245.184764 
L 98.584602 244.543129 
L 99.253517 244.158148 
L 99.29636 244.029821 
L 99.508413 243.773167 
L 99.511846 243.64484 
L 100.402082 243.388186 
L 100.408791 243.259859 
L 100.623088 243.003204 
L 100.710793 242.874877 
L 101.133162 242.618223 
L 101.623201 242.104915 
L 101.676441 241.976588 
L 101.982248 241.719934 
L 102.340988 241.46328 
L 102.63844 241.206626 
L 102.671599 241.078299 
L 103.020945 240.821645 
L 103.246592 240.436664 
L 103.272055 240.308337 
L 103.457141 240.051683 
L 103.842739 239.410048 
L 103.991843 239.153394 
L 104.099204 238.89674 
L 104.429467 238.640086 
L 104.596649 238.255105 
L 104.967615 237.61347 
L 105.335282 237.485143 
L 105.353129 237.356816 
L 105.52473 237.100162 
L 106.219011 235.560238 
L 106.630929 235.303584 
L 107.052139 234.533622 
L 107.301661 234.276968 
L 107.537608 233.378679 
L 107.627441 232.993698 
L 107.705212 232.737044 
L 107.845541 232.48039 
L 108.379027 230.683812 
L 108.506612 230.427158 
L 108.869909 229.272215 
L 109.162544 229.01556 
L 109.460105 227.73229 
L 109.711134 227.090655 
L 109.969479 226.834001 
L 110.154658 226.320693 
L 110.26923 226.064039 
L 110.379562 225.294077 
L 110.522392 224.909096 
L 110.614569 224.524115 
L 110.783204 224.267461 
L 110.857202 223.88248 
L 111.102861 223.625826 
L 111.23158 223.240845 
L 111.347639 222.984191 
L 111.413692 222.59921 
L 111.951762 221.957575 
L 112.323689 219.519362 
L 112.665807 218.492746 
L 112.772068 217.722784 
L 112.88934 217.46613 
L 113.234903 216.311187 
L 113.329032 216.054533 
L 113.477499 215.28457 
L 113.618846 214.642935 
L 114.083723 213.487992 
L 114.135712 213.231338 
L 114.320456 212.71803 
L 114.421578 212.204722 
L 114.545438 211.819741 
L 114.655085 211.563087 
L 114.749783 211.178106 
L 115.104151 209.381528 
L 115.226316 209.124874 
L 115.324969 208.611566 
L 115.766162 207.199969 
L 115.872713 206.558334 
L 116.008927 205.403391 
L 116.063979 204.890083 
L 116.207576 204.633429 
L 116.378621 203.606813 
L 116.502231 202.45187 
L 116.588676 202.066889 
L 116.710325 201.810235 
L 116.820971 201.168599 
L 116.937673 200.655291 
L 117.021274 200.27031 
L 117.336531 200.013656 
L 117.752012 198.088751 
L 117.899012 197.190462 
L 118.12287 195.265557 
L 118.301606 195.008903 
L 118.548825 193.597306 
L 119.36528 191.415747 
L 119.603039 189.490842 
L 119.725205 188.849207 
L 119.888719 188.335899 
L 120.418993 184.999396 
L 120.832622 183.844453 
L 120.958256 182.946164 
L 121.191653 182.432856 
L 121.298269 181.534567 
L 121.461118 180.892932 
L 121.577638 179.994643 
L 121.726007 179.737989 
L 121.848656 179.096354 
L 122.228604 177.684757 
L 122.356894 177.171449 
L 122.468157 176.401487 
L 122.731881 174.733236 
L 122.871848 174.476582 
L 123.271802 172.295022 
L 123.346757 172.038368 
L 123.490941 171.011752 
L 123.70848 170.498444 
L 123.893946 169.856809 
L 124.031573 169.471828 
L 124.139029 168.95852 
L 124.339995 168.188558 
L 124.39278 167.67525 
L 124.618757 167.418596 
L 124.958186 165.878672 
L 125.308051 164.980383 
L 125.339354 164.467075 
L 125.592382 164.082094 
L 125.67212 163.697113 
L 125.785582 163.440459 
L 126.001823 162.670497 
L 126.37434 160.873919 
L 126.655899 160.617265 
L 126.953588 159.718975 
L 127.387081 158.179051 
L 127.708123 157.537416 
L 127.860526 156.767454 
L 127.9766 156.125819 
L 128.080222 155.612511 
L 128.361488 155.22753 
L 128.689319 154.200914 
L 128.893967 153.815933 
L 128.965289 153.559279 
L 129.224993 152.66099 
L 129.426636 152.019355 
L 129.54011 151.762701 
L 129.567327 151.506047 
L 129.853065 151.121066 
L 130.147664 150.222777 
L 130.317529 149.837796 
L 130.423799 149.452815 
L 130.537206 149.067834 
L 130.543611 148.939507 
L 130.728021 148.682853 
L 130.839487 148.297872 
L 131.020333 147.912891 
L 131.373644 146.629621 
L 131.573058 145.987986 
L 131.888601 145.731331 
L 132.334163 144.06308 
L 132.61264 143.549772 
L 132.73846 143.293118 
L 132.948524 143.036464 
L 133.160279 142.394829 
L 133.552488 141.49654 
L 133.669582 141.239886 
L 133.840333 140.469924 
L 133.974594 140.21327 
L 134.035026 139.828289 
L 134.42864 139.314981 
L 134.506657 138.801673 
L 134.62506 138.545019 
L 135.292168 136.876768 
L 135.821885 136.491787 
L 135.907178 136.106806 
L 136.086522 135.850152 
L 136.20568 135.593498 
L 136.599513 135.208517 
L 136.677448 134.951863 
L 136.900867 134.566882 
L 137.409225 132.898631 
L 137.570963 132.641977 
L 137.826065 131.743687 
L 138.19249 131.358706 
L 138.233118 131.230379 
L 138.518627 130.973725 
L 138.734374 130.588744 
L 138.73724 130.460417 
L 139.135484 130.075436 
L 139.350115 129.305474 
L 139.556234 128.920493 
L 140.049844 127.893877 
L 140.314688 127.637223 
L 140.349709 127.380569 
L 140.824223 127.123915 
L 141.05036 126.610607 
L 141.630577 125.968972 
L 141.941308 125.455664 
L 141.992522 125.19901 
L 142.148592 124.942356 
L 142.260939 124.557375 
L 142.493467 124.300721 
L 142.595816 123.787413 
L 142.983367 123.145778 
L 143.049247 123.017451 
L 143.555986 122.63247 
L 143.734004 121.990835 
L 143.959003 121.734181 
L 144.016843 121.477527 
L 144.440082 121.092546 
L 145.320069 119.937603 
L 145.465529 119.552622 
L 145.723521 119.295968 
L 145.851309 119.039314 
L 146.057104 118.78266 
L 146.09233 118.654333 
L 146.523848 118.397679 
L 147.396652 117.114408 
L 147.757564 116.986081 
L 147.777978 116.857754 
L 147.955678 116.6011 
L 148.097737 116.344446 
L 148.266874 116.087792 
L 148.370001 115.831138 
L 148.645671 115.189503 
L 148.685822 114.804522 
L 149.144221 114.419541 
L 149.809229 114.162887 
L 150.179439 113.264598 
L 150.347229 113.007944 
L 150.606114 112.622963 
L 150.866208 112.109655 
L 150.923658 111.981328 
L 151.260473 111.724674 
L 151.333304 111.46802 
L 151.796088 111.083039 
L 152.004942 110.826385 
L 152.609254 110.056423 
L 153.499719 109.799769 
L 153.507165 109.543115 
L 154.412866 108.516499 
L 154.458065 108.388172 
L 154.787921 108.131518 
L 155.255926 107.746537 
L 155.514656 106.848248 
L 155.637731 106.591594 
L 155.867188 106.078286 
L 156.126711 105.821632 
L 156.293556 105.693305 
L 156.787521 105.436651 
L 157.095126 104.666689 
L 157.498868 104.410035 
L 157.612004 104.025053 
L 157.874072 103.511745 
L 158.857496 102.87011 
L 158.90298 102.741783 
L 159.313427 102.485129 
L 159.4028 102.100148 
L 159.821548 101.458513 
L 160.088146 101.201859 
L 160.433852 101.073532 
L 160.534377 100.816878 
L 161.371702 99.661935 
L 161.960862 99.405281 
L 162.021354 99.276954 
L 162.327056 99.0203 
L 162.617605 98.763646 
L 162.827274 98.250338 
L 162.979879 97.993684 
L 163.493152 97.73703 
L 163.614443 97.352049 
L 164.094972 97.095395 
L 164.118851 96.967068 
L 164.38722 96.710414 
L 164.574504 96.197106 
L 165.257115 95.812125 
L 165.292045 95.683798 
L 165.731395 95.427144 
L 165.899253 95.042163 
L 165.973262 94.785509 
L 166.248273 94.400528 
L 166.39634 93.758893 
L 166.840155 93.373912 
L 167.114902 92.860604 
L 167.268903 92.60395 
L 168.410434 91.577334 
L 169.053761 91.32068 
L 169.669148 91.064026 
L 170.103153 90.807372 
L 170.364793 90.037409 
L 170.48636 89.780755 
L 170.72902 89.395774 
L 170.970459 89.13912 
L 172.020778 88.240831 
L 172.295442 87.85585 
L 172.745506 87.599196 
L 172.920596 87.342542 
L 173.092038 87.214215 
L 174.153618 86.957561 
L 174.43085 86.700907 
L 174.802597 86.444253 
L 175.146811 86.187599 
L 176.259711 85.674291 
L 176.260285 85.545964 
L 177.273146 85.032656 
L 177.766898 84.647675 
L 177.872185 84.391021 
L 178.542182 84.134367 
L 178.899435 83.877713 
L 179.163339 83.749386 
L 180.45789 83.364405 
L 180.508936 83.236078 
L 181.827265 82.851097 
L 182.43587 82.594443 
L 182.834563 82.337789 
L 183.332007 82.081135 
L 183.491204 81.696154 
L 184.365175 81.311173 
L 184.966449 81.182846 
L 184.984712 81.054519 
L 185.394077 80.797865 
L 185.622351 80.541211 
L 185.804015 80.15623 
L 186.298954 79.899576 
L 186.40009 79.771249 
L 187.379964 79.386268 
L 187.534621 79.001287 
L 187.865162 78.744633 
L 187.930162 78.487979 
L 188.698256 78.231325 
L 188.85743 77.974671 
L 188.941057 77.846344 
L 189.264987 77.718017 
L 189.284324 77.58969 
L 189.612047 77.333036 
L 189.636159 77.204709 
L 190.042278 77.076382 
L 190.129207 76.691401 
L 191.526666 76.178092 
L 191.563075 76.049765 
L 191.732635 75.921438 
L 192.758006 75.664784 
L 192.792791 75.536457 
L 193.108776 75.279803 
L 193.234577 75.023149 
L 193.393151 74.638168 
L 193.515225 74.509841 
L 194.11459 74.253187 
L 194.253613 73.868206 
L 194.558229 73.611552 
L 194.651763 73.354898 
L 196.550878 72.969917 
L 196.833733 72.84159 
L 197.811921 72.584936 
L 197.857082 72.456609 
L 198.418595 72.199955 
L 198.54635 71.943301 
L 199.288398 71.686647 
L 199.288445 71.55832 
L 199.419284 71.429993 
L 199.716327 71.301666 
L 199.725266 71.173339 
L 200.815153 70.660031 
L 200.872292 70.403377 
L 201.217598 70.146723 
L 201.810207 69.761742 
L 201.884263 69.633415 
L 203.060027 69.248434 
L 203.360244 68.863453 
L 204.552421 68.735126 
L 204.890594 68.350145 
L 205.145969 68.221818 
L 206.940902 67.836837 
L 207.359678 67.451856 
L 207.966264 67.195202 
L 208.014894 67.066875 
L 208.266966 66.938548 
L 209.202081 66.810221 
L 209.220193 66.681894 
L 209.913645 66.296913 
L 210.819249 66.040259 
L 211.924874 65.783605 
L 212.293615 65.270297 
L 213.340869 64.628662 
L 214.332434 64.500335 
L 214.358614 64.372008 
L 214.51718 64.243681 
L 215.980874 63.987027 
L 216.608342 63.602046 
L 217.594332 63.345392 
L 218.489163 62.960411 
L 218.591085 62.832084 
L 219.064872 62.57543 
L 220.497664 62.190448 
L 221.301035 61.933794 
L 221.407814 61.67714 
L 222.894606 61.163832 
L 223.682446 60.778851 
L 226.123928 60.522197 
L 226.220377 60.39387 
L 226.558037 60.265543 
L 226.639151 60.008889 
L 227.002233 59.752235 
L 227.288446 59.495581 
L 228.452833 58.982273 
L 228.824241 58.725619 
L 229.01626 58.468965 
L 229.039624 58.340638 
L 229.247956 58.212311 
L 231.099083 57.699003 
L 231.143236 57.442349 
L 231.296584 57.314022 
L 232.277854 57.057368 
L 232.409921 56.800714 
L 233.221309 56.030752 
L 234.974001 55.902425 
L 235.450366 55.517444 
L 236.592234 55.26079 
L 236.791034 55.132463 
L 237.213607 55.004136 
L 237.236285 54.875809 
L 238.169287 54.234174 
L 239.190062 53.849193 
L 239.222546 53.720866 
L 241.366446 53.079231 
L 241.404246 52.950904 
L 241.89285 52.69425 
L 242.061394 52.565923 
L 242.545906 52.437596 
L 242.570112 52.180942 
L 245.753257 51.41098 
L 245.790803 51.282653 
L 246.654081 50.769345 
L 248.022788 50.641018 
L 248.040311 50.512691 
L 249.420487 50.256037 
L 251.668522 49.742729 
L 253.908235 49.486075 
L 254.098298 49.229421 
L 255.466343 49.101094 
L 255.575162 48.972767 
L 257.299683 48.587785 
L 257.318629 48.459458 
L 258.010857 48.202804 
L 259.075091 47.817823 
L 260.922359 47.304515 
L 261.032031 47.047861 
L 262.590555 46.66288 
L 263.118232 46.406226 
L 264.157507 46.277899 
L 264.558879 46.021245 
L 265.193861 45.892918 
L 265.196128 45.764591 
L 266.046595 45.636264 
L 266.173542 45.251283 
L 266.535965 45.122956 
L 267.566797 44.994629 
L 267.642772 44.866302 
L 268.487514 44.481321 
L 270.7367 44.224667 
L 271.493526 43.839686 
L 272.567372 43.583032 
L 274.720402 43.198051 
L 274.749924 43.069724 
L 274.955794 42.941397 
L 275.651245 42.684743 
L 275.827041 42.428089 
L 277.788289 42.043108 
L 279.350432 41.658127 
L 282.016644 41.144819 
L 282.167257 41.016492 
L 284.189101 40.631511 
L 285.06318 40.374857 
L 286.56842 40.118203 
L 287.973766 39.989876 
L 288.002415 39.861549 
L 288.824173 39.476568 
L 289.931221 39.219914 
L 289.937937 39.091587 
L 292.049115 38.706606 
L 292.123403 38.578279 
L 292.420347 38.449952 
L 294.167925 38.193298 
L 294.429498 37.936644 
L 295.784649 37.551663 
L 296.468435 37.423336 
L 298.435389 37.166682 
L 298.442023 37.038355 
L 302.084093 36.39672 
L 303.638372 36.268393 
L 303.650456 36.140066 
L 304.923095 36.011739 
L 305.03674 35.755085 
L 310.532787 35.370104 
L 310.996175 35.241777 
L 318.637456 34.856796 
L 318.730226 34.728468 
L 320.527539 34.343487 
L 326.907067 33.958506 
L 328.782294 33.445198 
L 329.242329 33.316871 
L 330.695301 33.060217 
L 330.874075 32.93189 
L 335.761566 32.675236 
L 336.024671 32.546909 
L 344.775941 32.033601 
L 345.016634 31.776947 
L 345.788694 31.64862 
L 353.150384 31.391966 
L 357.253805 30.878658 
L 359.947966 30.622004 
L 360.453259 30.493677 
L 365.342109 30.36535 
L 365.563968 30.237023 
L 366.226126 30.108696 
L 370.208234 29.852042 
L 370.48795 29.723715 
L 377.399358 29.338734 
L 377.918437 29.08208 
L 388.564641 28.825426 
L 388.767195 28.697099 
L 406.987848 28.055464 
L 407.322045 27.927137 
L 409.492213 27.79881 
L 416.372525 27.542156 
L 432.658004 27.413829 
L 432.658004 27.413829 
" clip-path="url(#p56ebdfac30)" style="fill: none; stroke: #3ea44e"/>
   </g>
   <g id="text_14">
    <!-- Dystrybuanta empiryczna - zysk producenta -->
    <g transform="translate(73.92415 13.634646)scale(0.14 -0.14)">
     <defs>
      <path id="DejaVuSans-2d" d="M 313 2009 
L 1997 2009 
L 1997 1497 
L 313 1497 
L 313 2009 
z
" transform="scale(0.015625)"/>
     </defs>
     <use xlink:href="#DejaVuSans-44"/>
     <use xlink:href="#DejaVuSans-79" x="77.001953"/>
     <use xlink:href="#DejaVuSans-73" x="136.181641"/>
     <use xlink:href="#DejaVuSans-74" x="188.28125"/>
     <use xlink:href="#DejaVuSans-72" x="227.490234"/>
     <use xlink:href="#DejaVuSans-79" x="268.603516"/>
     <use xlink:href="#DejaVuSans-62" x="327.783203"/>
     <use xlink:href="#DejaVuSans-75" x="391.259766"/>
     <use xlink:href="#DejaVuSans-61" x="454.638672"/>
     <use xlink:href="#DejaVuSans-6e" x="515.917969"/>
     <use xlink:href="#DejaVuSans-74" x="579.296875"/>
     <use xlink:href="#DejaVuSans-61" x="618.505859"/>
     <use xlink:href="#DejaVuSans-20" x="679.785156"/>
     <use xlink:href="#DejaVuSans-65" x="711.572266"/>
     <use xlink:href="#DejaVuSans-6d" x="773.095703"/>
     <use xlink:href="#DejaVuSans-70" x="870.507812"/>
     <use xlink:href="#DejaVuSans-69" x="933.984375"/>
     <use xlink:href="#DejaVuSans-72" x="961.767578"/>
     <use xlink:href="#DejaVuSans-79" x="1002.880859"/>
     <use xlink:href="#DejaVuSans-63" x="1062.060547"/>
     <use xlink:href="#DejaVuSans-7a" x="1117.041016"/>
     <use xlink:href="#DejaVuSans-6e" x="1169.53125"/>
     <use xlink:href="#DejaVuSans-61" x="1232.910156"/>
     <use xlink:href="#DejaVuSans-20" x="1294.189453"/>
     <use xlink:href="#DejaVuSans-2d" x="1325.976562"/>
     <use xlink:href="#DejaVuSans-20" x="1362.060547"/>
     <use xlink:href="#DejaVuSans-7a" x="1393.847656"/>
     <use xlink:href="#DejaVuSans-79" x="1446.337891"/>
     <use xlink:href="#DejaVuSans-73" x="1505.517578"/>
     <use xlink:href="#DejaVuSans-6b" x="1557.617188"/>
     <use xlink:href="#DejaVuSans-20" x="1615.527344"/>
     <use xlink:href="#DejaVuSans-70" x="1647.314453"/>
     <use xlink:href="#DejaVuSans-72" x="1710.791016"/>
     <use xlink:href="#DejaVuSans-6f" x="1749.654297"/>
     <use xlink:href="#DejaVuSans-64" x="1810.835938"/>
     <use xlink:href="#DejaVuSans-75" x="1874.3125"/>
     <use xlink:href="#DejaVuSans-63" x="1937.691406"/>
     <use xlink:href="#DejaVuSans-65" x="1992.671875"/>
     <use xlink:href="#DejaVuSans-6e" x="2054.195312"/>
     <use xlink:href="#DejaVuSans-74" x="2117.574219"/>
     <use xlink:href="#DejaVuSans-61" x="2156.783203"/>
    </g>
   </g>
   <g id="legend_1">
    <g id="patch_5">
     <path d="M 223.409501 255.225354 
L 415.543564 255.225354 
L 415.543564 221.724729 
L 223.409501 221.724729 
z
" style="fill: #ffffff; stroke: #000000; stroke-linejoin: miter"/>
    </g>
    <g id="line2d_26">
     <path d="M 228.209501 228.983792 
L 234.209501 228.983792 
L 240.209501 228.983792 
" style="fill: none; stroke: #009afa; stroke-width: 0.75; stroke-linejoin: miter"/>
    </g>
    <g id="text_15">
     <!-- Nikt nie bada oczekiwa konsumentw -->
     <g transform="translate(245.009501 231.083792)scale(0.06 -0.06)">
      <defs>
       <path id="DejaVuSans-4e" d="M 628 4666 
L 1478 4666 
L 3547 763 
L 3547 4666 
L 4159 4666 
L 4159 0 
L 3309 0 
L 1241 3903 
L 1241 0 
L 628 0 
L 628 4666 
z
" transform="scale(0.015625)"/>
       <path id="DejaVuSans-77" d="M 269 3500 
L 844 3500 
L 1563 769 
L 2278 3500 
L 2956 3500 
L 3675 769 
L 4391 3500 
L 4966 3500 
L 4050 0 
L 3372 0 
L 2619 2869 
L 1863 0 
L 1184 0 
L 269 3500 
z
" transform="scale(0.015625)"/>
       <path id="DejaVuSans-144" d="M 2241 5141 
L 2863 5141 
L 1844 3966 
L 1366 3966 
L 2241 5141 
z
M 3513 2113 
L 3513 0 
L 2938 0 
L 2938 2094 
Q 2938 2591 2744 2837 
Q 2550 3084 2163 3084 
Q 1697 3084 1428 2787 
Q 1159 2491 1159 1978 
L 1159 0 
L 581 0 
L 581 3500 
L 1159 3500 
L 1159 2956 
Q 1366 3272 1645 3428 
Q 1925 3584 2291 3584 
Q 2894 3584 3203 3211 
Q 3513 2838 3513 2113 
z
" transform="scale(0.015625)"/>
       <path id="DejaVuSans-f3" d="M 1959 3097 
Q 1497 3097 1228 2736 
Q 959 2375 959 1747 
Q 959 1119 1226 758 
Q 1494 397 1959 397 
Q 2419 397 2687 759 
Q 2956 1122 2956 1747 
Q 2956 2369 2687 2733 
Q 2419 3097 1959 3097 
z
M 1959 3584 
Q 2709 3584 3137 3096 
Q 3566 2609 3566 1747 
Q 3566 888 3137 398 
Q 2709 -91 1959 -91 
Q 1206 -91 779 398 
Q 353 888 353 1747 
Q 353 2609 779 3096 
Q 1206 3584 1959 3584 
z
M 2394 5119 
L 3016 5119 
L 1997 3944 
L 1519 3944 
L 2394 5119 
z
" transform="scale(0.015625)"/>
      </defs>
      <use xlink:href="#DejaVuSans-4e"/>
      <use xlink:href="#DejaVuSans-69" x="74.804688"/>
      <use xlink:href="#DejaVuSans-6b" x="102.587891"/>
      <use xlink:href="#DejaVuSans-74" x="160.498047"/>
      <use xlink:href="#DejaVuSans-20" x="199.707031"/>
      <use xlink:href="#DejaVuSans-6e" x="231.494141"/>
      <use xlink:href="#DejaVuSans-69" x="294.873047"/>
      <use xlink:href="#DejaVuSans-65" x="322.65625"/>
      <use xlink:href="#DejaVuSans-20" x="384.179688"/>
      <use xlink:href="#DejaVuSans-62" x="415.966797"/>
      <use xlink:href="#DejaVuSans-61" x="479.443359"/>
      <use xlink:href="#DejaVuSans-64" x="540.722656"/>
      <use xlink:href="#DejaVuSans-61" x="604.199219"/>
      <use xlink:href="#DejaVuSans-20" x="665.478516"/>
      <use xlink:href="#DejaVuSans-6f" x="697.265625"/>
      <use xlink:href="#DejaVuSans-63" x="758.447266"/>
      <use xlink:href="#DejaVuSans-7a" x="813.427734"/>
      <use xlink:href="#DejaVuSans-65" x="865.917969"/>
      <use xlink:href="#DejaVuSans-6b" x="927.441406"/>
      <use xlink:href="#DejaVuSans-69" x="985.351562"/>
      <use xlink:href="#DejaVuSans-77" x="1013.134766"/>
      <use xlink:href="#DejaVuSans-61" x="1094.921875"/>
      <use xlink:href="#DejaVuSans-144" x="1156.201172"/>
      <use xlink:href="#DejaVuSans-20" x="1219.580078"/>
      <use xlink:href="#DejaVuSans-6b" x="1251.367188"/>
      <use xlink:href="#DejaVuSans-6f" x="1305.652344"/>
      <use xlink:href="#DejaVuSans-6e" x="1366.833984"/>
      <use xlink:href="#DejaVuSans-73" x="1430.212891"/>
      <use xlink:href="#DejaVuSans-75" x="1482.3125"/>
      <use xlink:href="#DejaVuSans-6d" x="1545.691406"/>
      <use xlink:href="#DejaVuSans-65" x="1643.103516"/>
      <use xlink:href="#DejaVuSans-6e" x="1704.626953"/>
      <use xlink:href="#DejaVuSans-74" x="1768.005859"/>
      <use xlink:href="#DejaVuSans-f3" x="1807.214844"/>
      <use xlink:href="#DejaVuSans-77" x="1868.396484"/>
     </g>
    </g>
    <g id="line2d_27">
     <path d="M 228.209501 238.030667 
L 234.209501 238.030667 
L 240.209501 238.030667 
" style="fill: none; stroke: #e36f47; stroke-width: 0.75; stroke-linejoin: miter"/>
    </g>
    <g id="text_16">
     <!-- Producent bada oczekiwania konsumentw jako jedyny -->
     <g transform="translate(245.009501 240.130667)scale(0.06 -0.06)">
      <defs>
       <path id="DejaVuSans-50" d="M 1259 4147 
L 1259 2394 
L 2053 2394 
Q 2494 2394 2734 2622 
Q 2975 2850 2975 3272 
Q 2975 3691 2734 3919 
Q 2494 4147 2053 4147 
L 1259 4147 
z
M 628 4666 
L 2053 4666 
Q 2838 4666 3239 4311 
Q 3641 3956 3641 3272 
Q 3641 2581 3239 2228 
Q 2838 1875 2053 1875 
L 1259 1875 
L 1259 0 
L 628 0 
L 628 4666 
z
" transform="scale(0.015625)"/>
       <path id="DejaVuSans-6a" d="M 603 3500 
L 1178 3500 
L 1178 -63 
Q 1178 -731 923 -1031 
Q 669 -1331 103 -1331 
L -116 -1331 
L -116 -844 
L 38 -844 
Q 366 -844 484 -692 
Q 603 -541 603 -63 
L 603 3500 
z
M 603 4863 
L 1178 4863 
L 1178 4134 
L 603 4134 
L 603 4863 
z
" transform="scale(0.015625)"/>
      </defs>
      <use xlink:href="#DejaVuSans-50"/>
      <use xlink:href="#DejaVuSans-72" x="58.552734"/>
      <use xlink:href="#DejaVuSans-6f" x="97.416016"/>
      <use xlink:href="#DejaVuSans-64" x="158.597656"/>
      <use xlink:href="#DejaVuSans-75" x="222.074219"/>
      <use xlink:href="#DejaVuSans-63" x="285.453125"/>
      <use xlink:href="#DejaVuSans-65" x="340.433594"/>
      <use xlink:href="#DejaVuSans-6e" x="401.957031"/>
      <use xlink:href="#DejaVuSans-74" x="465.335938"/>
      <use xlink:href="#DejaVuSans-20" x="504.544922"/>
      <use xlink:href="#DejaVuSans-62" x="536.332031"/>
      <use xlink:href="#DejaVuSans-61" x="599.808594"/>
      <use xlink:href="#DejaVuSans-64" x="661.087891"/>
      <use xlink:href="#DejaVuSans-61" x="724.564453"/>
      <use xlink:href="#DejaVuSans-20" x="785.84375"/>
      <use xlink:href="#DejaVuSans-6f" x="817.630859"/>
      <use xlink:href="#DejaVuSans-63" x="878.8125"/>
      <use xlink:href="#DejaVuSans-7a" x="933.792969"/>
      <use xlink:href="#DejaVuSans-65" x="986.283203"/>
      <use xlink:href="#DejaVuSans-6b" x="1047.806641"/>
      <use xlink:href="#DejaVuSans-69" x="1105.716797"/>
      <use xlink:href="#DejaVuSans-77" x="1133.5"/>
      <use xlink:href="#DejaVuSans-61" x="1215.287109"/>
      <use xlink:href="#DejaVuSans-6e" x="1276.566406"/>
      <use xlink:href="#DejaVuSans-69" x="1339.945312"/>
      <use xlink:href="#DejaVuSans-61" x="1367.728516"/>
      <use xlink:href="#DejaVuSans-20" x="1429.007812"/>
      <use xlink:href="#DejaVuSans-6b" x="1460.794922"/>
      <use xlink:href="#DejaVuSans-6f" x="1515.080078"/>
      <use xlink:href="#DejaVuSans-6e" x="1576.261719"/>
      <use xlink:href="#DejaVuSans-73" x="1639.640625"/>
      <use xlink:href="#DejaVuSans-75" x="1691.740234"/>
      <use xlink:href="#DejaVuSans-6d" x="1755.119141"/>
      <use xlink:href="#DejaVuSans-65" x="1852.53125"/>
      <use xlink:href="#DejaVuSans-6e" x="1914.054688"/>
      <use xlink:href="#DejaVuSans-74" x="1977.433594"/>
      <use xlink:href="#DejaVuSans-f3" x="2016.642578"/>
      <use xlink:href="#DejaVuSans-77" x="2077.824219"/>
      <use xlink:href="#DejaVuSans-20" x="2159.611328"/>
      <use xlink:href="#DejaVuSans-6a" x="2191.398438"/>
      <use xlink:href="#DejaVuSans-61" x="2219.181641"/>
      <use xlink:href="#DejaVuSans-6b" x="2280.460938"/>
      <use xlink:href="#DejaVuSans-6f" x="2334.746094"/>
      <use xlink:href="#DejaVuSans-20" x="2395.927734"/>
      <use xlink:href="#DejaVuSans-6a" x="2427.714844"/>
      <use xlink:href="#DejaVuSans-65" x="2455.498047"/>
      <use xlink:href="#DejaVuSans-64" x="2517.021484"/>
      <use xlink:href="#DejaVuSans-79" x="2580.498047"/>
      <use xlink:href="#DejaVuSans-6e" x="2639.677734"/>
      <use xlink:href="#DejaVuSans-79" x="2703.056641"/>
     </g>
    </g>
    <g id="line2d_28">
     <path d="M 228.209501 247.077542 
L 234.209501 247.077542 
L 240.209501 247.077542 
" style="fill: none; stroke: #3ea44e; stroke-width: 0.75; stroke-linejoin: miter"/>
    </g>
    <g id="text_17">
     <!-- Obaj producenci badaj oczekiwania konsumentw -->
     <g transform="translate(245.009501 249.177542)scale(0.06 -0.06)">
      <defs>
       <path id="DejaVuSans-4f" d="M 2522 4238 
Q 1834 4238 1429 3725 
Q 1025 3213 1025 2328 
Q 1025 1447 1429 934 
Q 1834 422 2522 422 
Q 3209 422 3611 934 
Q 4013 1447 4013 2328 
Q 4013 3213 3611 3725 
Q 3209 4238 2522 4238 
z
M 2522 4750 
Q 3503 4750 4090 4092 
Q 4678 3434 4678 2328 
Q 4678 1225 4090 567 
Q 3503 -91 2522 -91 
Q 1538 -91 948 565 
Q 359 1222 359 2328 
Q 359 3434 948 4092 
Q 1538 4750 2522 4750 
z
" transform="scale(0.015625)"/>
       <path id="DejaVuSans-105" d="M 2194 1759 
Q 1497 1759 1228 1600 
Q 959 1441 959 1056 
Q 959 750 1161 570 
Q 1363 391 1709 391 
Q 2188 391 2477 730 
Q 2766 1069 2766 1631 
L 2766 1759 
L 2194 1759 
z
M 3341 1997 
L 3341 0 
L 2766 0 
L 2766 531 
Q 2569 213 2275 61 
Q 1981 -91 1556 -91 
Q 1019 -91 701 211 
Q 384 513 384 1019 
Q 384 1609 779 1909 
Q 1175 2209 1959 2209 
L 2766 2209 
L 2766 2266 
Q 2766 2663 2505 2880 
Q 2244 3097 1772 3097 
Q 1472 3097 1187 3025 
Q 903 2953 641 2809 
L 641 3341 
Q 956 3463 1253 3523 
Q 1550 3584 1831 3584 
Q 2591 3584 2966 3190 
Q 3341 2797 3341 1997 
z
M 2772 0 
L 3144 0 
Q 3003 -191 2936 -328 
Q 2869 -466 2869 -563 
Q 2869 -706 2955 -778 
Q 3041 -850 3209 -850 
Q 3309 -850 3406 -826 
Q 3503 -803 3600 -756 
L 3600 -1172 
Q 3481 -1203 3375 -1218 
Q 3269 -1234 3175 -1234 
Q 2794 -1234 2614 -1098 
Q 2434 -963 2434 -672 
Q 2434 -522 2517 -358 
Q 2600 -194 2772 0 
z
" transform="scale(0.015625)"/>
      </defs>
      <use xlink:href="#DejaVuSans-4f"/>
      <use xlink:href="#DejaVuSans-62" x="78.710938"/>
      <use xlink:href="#DejaVuSans-61" x="142.1875"/>
      <use xlink:href="#DejaVuSans-6a" x="203.466797"/>
      <use xlink:href="#DejaVuSans-20" x="231.25"/>
      <use xlink:href="#DejaVuSans-70" x="263.037109"/>
      <use xlink:href="#DejaVuSans-72" x="326.513672"/>
      <use xlink:href="#DejaVuSans-6f" x="365.376953"/>
      <use xlink:href="#DejaVuSans-64" x="426.558594"/>
      <use xlink:href="#DejaVuSans-75" x="490.035156"/>
      <use xlink:href="#DejaVuSans-63" x="553.414062"/>
      <use xlink:href="#DejaVuSans-65" x="608.394531"/>
      <use xlink:href="#DejaVuSans-6e" x="669.917969"/>
      <use xlink:href="#DejaVuSans-63" x="733.296875"/>
      <use xlink:href="#DejaVuSans-69" x="788.277344"/>
      <use xlink:href="#DejaVuSans-20" x="816.060547"/>
      <use xlink:href="#DejaVuSans-62" x="847.847656"/>
      <use xlink:href="#DejaVuSans-61" x="911.324219"/>
      <use xlink:href="#DejaVuSans-64" x="972.603516"/>
      <use xlink:href="#DejaVuSans-61" x="1036.080078"/>
      <use xlink:href="#DejaVuSans-6a" x="1097.359375"/>
      <use xlink:href="#DejaVuSans-105" x="1125.142578"/>
      <use xlink:href="#DejaVuSans-20" x="1186.421875"/>
      <use xlink:href="#DejaVuSans-6f" x="1218.208984"/>
      <use xlink:href="#DejaVuSans-63" x="1279.390625"/>
      <use xlink:href="#DejaVuSans-7a" x="1334.371094"/>
      <use xlink:href="#DejaVuSans-65" x="1386.861328"/>
      <use xlink:href="#DejaVuSans-6b" x="1448.384766"/>
      <use xlink:href="#DejaVuSans-69" x="1506.294922"/>
      <use xlink:href="#DejaVuSans-77" x="1534.078125"/>
      <use xlink:href="#DejaVuSans-61" x="1615.865234"/>
      <use xlink:href="#DejaVuSans-6e" x="1677.144531"/>
      <use xlink:href="#DejaVuSans-69" x="1740.523438"/>
      <use xlink:href="#DejaVuSans-61" x="1768.306641"/>
      <use xlink:href="#DejaVuSans-20" x="1829.585938"/>
      <use xlink:href="#DejaVuSans-6b" x="1861.373047"/>
      <use xlink:href="#DejaVuSans-6f" x="1915.658203"/>
      <use xlink:href="#DejaVuSans-6e" x="1976.839844"/>
      <use xlink:href="#DejaVuSans-73" x="2040.21875"/>
      <use xlink:href="#DejaVuSans-75" x="2092.318359"/>
      <use xlink:href="#DejaVuSans-6d" x="2155.697266"/>
      <use xlink:href="#DejaVuSans-65" x="2253.109375"/>
      <use xlink:href="#DejaVuSans-6e" x="2314.632812"/>
      <use xlink:href="#DejaVuSans-74" x="2378.011719"/>
      <use xlink:href="#DejaVuSans-f3" x="2417.220703"/>
      <use xlink:href="#DejaVuSans-77" x="2478.402344"/>
     </g>
    </g>
   </g>
  </g>
 </g>
 <defs>
  <clipPath id="p56ebdfac30">
   <rect x="39.8313" y="19.634646" width="378.712264" height="238.590709"/>
  </clipPath>
 </defs>
</svg>
