<?xml version="1.0" encoding="utf-8"?>
<svg xmlns="http://www.w3.org/2000/svg" xmlns:xlink="http://www.w3.org/1999/xlink" width="600" height="400" viewBox="0 0 2400 1600">
<defs>
  <clipPath id="clip680">
    <rect x="0" y="0" width="2400" height="1600"/>
  </clipPath>
</defs>
<path clip-path="url(#clip680)" d="
M0 1600 L2400 1600 L2400 0 L0 0  Z
  " fill="#ffffff" fill-rule="evenodd" fill-opacity="1"/>
<defs>
  <clipPath id="clip681">
    <rect x="480" y="0" width="1681" height="1600"/>
  </clipPath>
</defs>
<path clip-path="url(#clip680)" d="
M203.964 1423.18 L2352.76 1423.18 L2352.76 47.2441 L203.964 47.2441  Z
  " fill="#ffffff" fill-rule="evenodd" fill-opacity="1"/>
<defs>
  <clipPath id="clip682">
    <rect x="203" y="47" width="2150" height="1377"/>
  </clipPath>
</defs>
<polyline clip-path="url(#clip682)" style="stroke:#000000; stroke-linecap:round; stroke-linejoin:round; stroke-width:2; stroke-opacity:0.1; fill:none" points="
  264.778,1423.18 264.778,47.2441 
  "/>
<polyline clip-path="url(#clip682)" style="stroke:#000000; stroke-linecap:round; stroke-linejoin:round; stroke-width:2; stroke-opacity:0.1; fill:none" points="
  670.211,1423.18 670.211,47.2441 
  "/>
<polyline clip-path="url(#clip682)" style="stroke:#000000; stroke-linecap:round; stroke-linejoin:round; stroke-width:2; stroke-opacity:0.1; fill:none" points="
  1075.64,1423.18 1075.64,47.2441 
  "/>
<polyline clip-path="url(#clip682)" style="stroke:#000000; stroke-linecap:round; stroke-linejoin:round; stroke-width:2; stroke-opacity:0.1; fill:none" points="
  1481.08,1423.18 1481.08,47.2441 
  "/>
<polyline clip-path="url(#clip682)" style="stroke:#000000; stroke-linecap:round; stroke-linejoin:round; stroke-width:2; stroke-opacity:0.1; fill:none" points="
  1886.51,1423.18 1886.51,47.2441 
  "/>
<polyline clip-path="url(#clip682)" style="stroke:#000000; stroke-linecap:round; stroke-linejoin:round; stroke-width:2; stroke-opacity:0.1; fill:none" points="
  2291.94,1423.18 2291.94,47.2441 
  "/>
<polyline clip-path="url(#clip680)" style="stroke:#000000; stroke-linecap:round; stroke-linejoin:round; stroke-width:4; stroke-opacity:1; fill:none" points="
  203.964,1423.18 2352.76,1423.18 
  "/>
<polyline clip-path="url(#clip680)" style="stroke:#000000; stroke-linecap:round; stroke-linejoin:round; stroke-width:4; stroke-opacity:1; fill:none" points="
  264.778,1423.18 264.778,1404.28 
  "/>
<polyline clip-path="url(#clip680)" style="stroke:#000000; stroke-linecap:round; stroke-linejoin:round; stroke-width:4; stroke-opacity:1; fill:none" points="
  670.211,1423.18 670.211,1404.28 
  "/>
<polyline clip-path="url(#clip680)" style="stroke:#000000; stroke-linecap:round; stroke-linejoin:round; stroke-width:4; stroke-opacity:1; fill:none" points="
  1075.64,1423.18 1075.64,1404.28 
  "/>
<polyline clip-path="url(#clip680)" style="stroke:#000000; stroke-linecap:round; stroke-linejoin:round; stroke-width:4; stroke-opacity:1; fill:none" points="
  1481.08,1423.18 1481.08,1404.28 
  "/>
<polyline clip-path="url(#clip680)" style="stroke:#000000; stroke-linecap:round; stroke-linejoin:round; stroke-width:4; stroke-opacity:1; fill:none" points="
  1886.51,1423.18 1886.51,1404.28 
  "/>
<polyline clip-path="url(#clip680)" style="stroke:#000000; stroke-linecap:round; stroke-linejoin:round; stroke-width:4; stroke-opacity:1; fill:none" points="
  2291.94,1423.18 2291.94,1404.28 
  "/>
<path clip-path="url(#clip680)" d="M269.026 1466.95 Q272.383 1467.66 274.258 1469.93 Q276.156 1472.2 276.156 1475.53 Q276.156 1480.65 272.637 1483.45 Q269.119 1486.25 262.637 1486.25 Q260.461 1486.25 258.147 1485.81 Q255.855 1485.39 253.401 1484.54 L253.401 1480.02 Q255.346 1481.16 257.66 1481.74 Q259.975 1482.32 262.498 1482.32 Q266.896 1482.32 269.188 1480.58 Q271.503 1478.84 271.503 1475.53 Q271.503 1472.48 269.35 1470.77 Q267.221 1469.03 263.401 1469.03 L259.373 1469.03 L259.373 1465.19 L263.586 1465.19 Q267.035 1465.19 268.864 1463.82 Q270.693 1462.43 270.693 1459.84 Q270.693 1457.18 268.795 1455.77 Q266.92 1454.33 263.401 1454.33 Q261.48 1454.33 259.281 1454.75 Q257.082 1455.16 254.443 1456.04 L254.443 1451.88 Q257.105 1451.14 259.42 1450.77 Q261.758 1450.39 263.818 1450.39 Q269.142 1450.39 272.244 1452.83 Q275.346 1455.23 275.346 1459.35 Q275.346 1462.22 273.702 1464.21 Q272.059 1466.18 269.026 1466.95 Z" fill="#000000" fill-rule="evenodd" fill-opacity="1" /><path clip-path="url(#clip680)" d="M673.22 1455.09 L661.415 1473.54 L673.22 1473.54 L673.22 1455.09 M671.993 1451.02 L677.873 1451.02 L677.873 1473.54 L682.803 1473.54 L682.803 1477.43 L677.873 1477.43 L677.873 1485.58 L673.22 1485.58 L673.22 1477.43 L657.618 1477.43 L657.618 1472.92 L671.993 1451.02 Z" fill="#000000" fill-rule="evenodd" fill-opacity="1" /><path clip-path="url(#clip680)" d="M1065.92 1451.02 L1084.28 1451.02 L1084.28 1454.96 L1070.2 1454.96 L1070.2 1463.43 Q1071.22 1463.08 1072.24 1462.92 Q1073.26 1462.73 1074.28 1462.73 Q1080.06 1462.73 1083.44 1465.9 Q1086.82 1469.08 1086.82 1474.49 Q1086.82 1480.07 1083.35 1483.17 Q1079.88 1486.25 1073.56 1486.25 Q1071.38 1486.25 1069.12 1485.88 Q1066.87 1485.51 1064.46 1484.77 L1064.46 1480.07 Q1066.55 1481.2 1068.77 1481.76 Q1070.99 1482.32 1073.47 1482.32 Q1077.47 1482.32 1079.81 1480.21 Q1082.15 1478.1 1082.15 1474.49 Q1082.15 1470.88 1079.81 1468.77 Q1077.47 1466.67 1073.47 1466.67 Q1071.59 1466.67 1069.72 1467.08 Q1067.87 1467.5 1065.92 1468.38 L1065.92 1451.02 Z" fill="#000000" fill-rule="evenodd" fill-opacity="1" /><path clip-path="url(#clip680)" d="M1481.48 1466.44 Q1478.33 1466.44 1476.48 1468.59 Q1474.65 1470.74 1474.65 1474.49 Q1474.65 1478.22 1476.48 1480.39 Q1478.33 1482.55 1481.48 1482.55 Q1484.63 1482.55 1486.46 1480.39 Q1488.31 1478.22 1488.31 1474.49 Q1488.31 1470.74 1486.46 1468.59 Q1484.63 1466.44 1481.48 1466.44 M1490.76 1451.78 L1490.76 1456.04 Q1489 1455.21 1487.2 1454.77 Q1485.42 1454.33 1483.66 1454.33 Q1479.03 1454.33 1476.57 1457.45 Q1474.14 1460.58 1473.8 1466.9 Q1475.16 1464.89 1477.22 1463.82 Q1479.28 1462.73 1481.76 1462.73 Q1486.97 1462.73 1489.98 1465.9 Q1493.01 1469.05 1493.01 1474.49 Q1493.01 1479.82 1489.86 1483.03 Q1486.71 1486.25 1481.48 1486.25 Q1475.49 1486.25 1472.31 1481.67 Q1469.14 1477.06 1469.14 1468.33 Q1469.14 1460.14 1473.03 1455.28 Q1476.92 1450.39 1483.47 1450.39 Q1485.23 1450.39 1487.01 1450.74 Q1488.82 1451.09 1490.76 1451.78 Z" fill="#000000" fill-rule="evenodd" fill-opacity="1" /><path clip-path="url(#clip680)" d="M1875.4 1451.02 L1897.62 1451.02 L1897.62 1453.01 L1885.07 1485.58 L1880.19 1485.58 L1891.99 1454.96 L1875.4 1454.96 L1875.4 1451.02 Z" fill="#000000" fill-rule="evenodd" fill-opacity="1" /><path clip-path="url(#clip680)" d="M2291.94 1469.17 Q2288.61 1469.17 2286.69 1470.95 Q2284.79 1472.73 2284.79 1475.86 Q2284.79 1478.98 2286.69 1480.77 Q2288.61 1482.55 2291.94 1482.55 Q2295.27 1482.55 2297.2 1480.77 Q2299.12 1478.96 2299.12 1475.86 Q2299.12 1472.73 2297.2 1470.95 Q2295.3 1469.17 2291.94 1469.17 M2287.27 1467.18 Q2284.26 1466.44 2282.57 1464.38 Q2280.9 1462.32 2280.9 1459.35 Q2280.9 1455.21 2283.84 1452.8 Q2286.8 1450.39 2291.94 1450.39 Q2297.1 1450.39 2300.04 1452.8 Q2302.98 1455.21 2302.98 1459.35 Q2302.98 1462.32 2301.29 1464.38 Q2299.63 1466.44 2296.64 1467.18 Q2300.02 1467.96 2301.89 1470.26 Q2303.79 1472.55 2303.79 1475.86 Q2303.79 1480.88 2300.71 1483.57 Q2297.66 1486.25 2291.94 1486.25 Q2286.22 1486.25 2283.14 1483.57 Q2280.09 1480.88 2280.09 1475.86 Q2280.09 1472.55 2281.99 1470.26 Q2283.89 1467.96 2287.27 1467.18 M2285.55 1459.79 Q2285.55 1462.48 2287.22 1463.98 Q2288.91 1465.49 2291.94 1465.49 Q2294.95 1465.49 2296.64 1463.98 Q2298.35 1462.48 2298.35 1459.79 Q2298.35 1457.11 2296.64 1455.6 Q2294.95 1454.1 2291.94 1454.1 Q2288.91 1454.1 2287.22 1455.6 Q2285.55 1457.11 2285.55 1459.79 Z" fill="#000000" fill-rule="evenodd" fill-opacity="1" /><path clip-path="url(#clip680)" d="M852.414 1524.88 Q845.412 1524.88 841.274 1530.1 Q837.169 1535.32 837.169 1544.33 Q837.169 1553.31 841.274 1558.53 Q845.412 1563.75 852.414 1563.75 Q859.417 1563.75 863.491 1558.53 Q867.597 1553.31 867.597 1544.33 Q867.597 1535.32 863.491 1530.1 Q859.417 1524.88 852.414 1524.88 M852.414 1519.66 Q862.409 1519.66 868.392 1526.38 Q874.376 1533.06 874.376 1544.33 Q874.376 1555.57 868.392 1562.28 Q862.409 1568.97 852.414 1568.97 Q842.388 1568.97 836.373 1562.28 Q830.389 1555.6 830.389 1544.33 Q830.389 1533.06 836.373 1526.38 Q842.388 1519.66 852.414 1519.66 Z" fill="#000000" fill-rule="evenodd" fill-opacity="1" /><path clip-path="url(#clip680)" d="M883.956 1518.52 L889.845 1518.52 L889.845 1547.77 L907.319 1532.4 L914.798 1532.4 L895.892 1549.07 L915.594 1568.04 L907.955 1568.04 L889.845 1550.63 L889.845 1568.04 L883.956 1568.04 L883.956 1518.52 Z" fill="#000000" fill-rule="evenodd" fill-opacity="1" /><path clip-path="url(#clip680)" d="M942.585 1537.87 Q941.598 1537.3 940.42 1537.04 Q939.274 1536.76 937.874 1536.76 Q932.909 1536.76 930.235 1540 Q927.593 1543.22 927.593 1549.27 L927.593 1568.04 L921.705 1568.04 L921.705 1532.4 L927.593 1532.4 L927.593 1537.93 Q929.439 1534.69 932.399 1533.13 Q935.36 1531.54 939.593 1531.54 Q940.197 1531.54 940.93 1531.63 Q941.662 1531.7 942.553 1531.85 L942.585 1537.87 Z" fill="#000000" fill-rule="evenodd" fill-opacity="1" /><path clip-path="url(#clip680)" d="M977.787 1548.76 L977.787 1551.62 L950.86 1551.62 Q951.242 1557.67 954.489 1560.85 Q957.767 1564 963.591 1564 Q966.965 1564 970.116 1563.17 Q973.299 1562.35 976.418 1560.69 L976.418 1566.23 Q973.267 1567.57 969.957 1568.27 Q966.647 1568.97 963.241 1568.97 Q954.711 1568.97 949.714 1564 Q944.749 1559.04 944.749 1550.57 Q944.749 1541.82 949.46 1536.69 Q954.202 1531.54 962.223 1531.54 Q969.416 1531.54 973.586 1536.18 Q977.787 1540.8 977.787 1548.76 M971.931 1547.04 Q971.867 1542.23 969.225 1539.37 Q966.615 1536.5 962.286 1536.5 Q957.385 1536.5 954.425 1539.27 Q951.497 1542.04 951.051 1547.07 L971.931 1547.04 Z" fill="#000000" fill-rule="evenodd" fill-opacity="1" /><path clip-path="url(#clip680)" d="M1010.12 1533.45 L1010.12 1538.98 Q1007.64 1537.71 1004.97 1537.07 Q1002.29 1536.44 999.43 1536.44 Q995.07 1536.44 992.874 1537.77 Q990.709 1539.11 990.709 1541.79 Q990.709 1543.82 992.269 1545 Q993.829 1546.15 998.539 1547.2 L1000.54 1547.64 Q1006.78 1548.98 1009.39 1551.43 Q1012.03 1553.85 1012.03 1558.21 Q1012.03 1563.17 1008.09 1566.07 Q1004.17 1568.97 997.298 1568.97 Q994.433 1568.97 991.314 1568.39 Q988.227 1567.85 984.789 1566.74 L984.789 1560.69 Q988.036 1562.38 991.187 1563.24 Q994.338 1564.07 997.425 1564.07 Q1001.56 1564.07 1003.79 1562.66 Q1006.02 1561.23 1006.02 1558.65 Q1006.02 1556.27 1004.4 1554.99 Q1002.8 1553.72 997.362 1552.54 L995.325 1552.07 Q989.882 1550.92 987.463 1548.56 Q985.044 1546.18 985.044 1542.04 Q985.044 1537.01 988.609 1534.27 Q992.173 1531.54 998.73 1531.54 Q1001.98 1531.54 1004.84 1532.01 Q1007.71 1532.49 1010.12 1533.45 Z" fill="#000000" fill-rule="evenodd" fill-opacity="1" /><path clip-path="url(#clip680)" d="M1047.75 1562.7 L1047.75 1581.6 L1041.86 1581.6 L1041.86 1532.4 L1047.75 1532.4 L1047.75 1537.81 Q1049.59 1534.62 1052.39 1533.1 Q1055.23 1531.54 1059.14 1531.54 Q1065.63 1531.54 1069.68 1536.69 Q1073.75 1541.85 1073.75 1550.25 Q1073.75 1558.65 1069.68 1563.81 Q1065.63 1568.97 1059.14 1568.97 Q1055.23 1568.97 1052.39 1567.44 Q1049.59 1565.88 1047.75 1562.7 M1067.67 1550.25 Q1067.67 1543.79 1065 1540.13 Q1062.36 1536.44 1057.71 1536.44 Q1053.06 1536.44 1050.39 1540.13 Q1047.75 1543.79 1047.75 1550.25 Q1047.75 1556.71 1050.39 1560.4 Q1053.06 1564.07 1057.71 1564.07 Q1062.36 1564.07 1065 1560.4 Q1067.67 1556.71 1067.67 1550.25 Z" fill="#000000" fill-rule="evenodd" fill-opacity="1" /><path clip-path="url(#clip680)" d="M1104.11 1537.87 Q1103.13 1537.3 1101.95 1537.04 Q1100.8 1536.76 1099.4 1536.76 Q1094.44 1536.76 1091.76 1540 Q1089.12 1543.22 1089.12 1549.27 L1089.12 1568.04 L1083.23 1568.04 L1083.23 1532.4 L1089.12 1532.4 L1089.12 1537.93 Q1090.97 1534.69 1093.93 1533.13 Q1096.89 1531.54 1101.12 1531.54 Q1101.73 1531.54 1102.46 1531.63 Q1103.19 1531.7 1104.08 1531.85 L1104.11 1537.87 Z" fill="#000000" fill-rule="evenodd" fill-opacity="1" /><path clip-path="url(#clip680)" d="M1107.71 1532.4 L1135.53 1532.4 L1135.53 1537.74 L1113.5 1563.37 L1135.53 1563.37 L1135.53 1568.04 L1106.92 1568.04 L1106.92 1562.7 L1128.94 1537.07 L1107.71 1537.07 L1107.71 1532.4 Z" fill="#000000" fill-rule="evenodd" fill-opacity="1" /><path clip-path="url(#clip680)" d="M1159.31 1571.35 Q1156.82 1577.72 1154.47 1579.66 Q1152.11 1581.6 1148.17 1581.6 L1143.49 1581.6 L1143.49 1576.7 L1146.92 1576.7 Q1149.34 1576.7 1150.68 1575.56 Q1152.02 1574.41 1153.64 1570.14 L1154.69 1567.47 L1140.27 1532.4 L1146.48 1532.4 L1157.62 1560.28 L1168.76 1532.4 L1174.96 1532.4 L1159.31 1571.35 Z" fill="#000000" fill-rule="evenodd" fill-opacity="1" /><path clip-path="url(#clip680)" d="M1206.51 1537.81 L1206.51 1518.52 L1212.36 1518.52 L1212.36 1568.04 L1206.51 1568.04 L1206.51 1562.7 Q1204.66 1565.88 1201.83 1567.44 Q1199.03 1568.97 1195.08 1568.97 Q1188.62 1568.97 1184.55 1563.81 Q1180.5 1558.65 1180.5 1550.25 Q1180.5 1541.85 1184.55 1536.69 Q1188.62 1531.54 1195.08 1531.54 Q1199.03 1531.54 1201.83 1533.1 Q1204.66 1534.62 1206.51 1537.81 M1186.55 1550.25 Q1186.55 1556.71 1189.19 1560.4 Q1191.87 1564.07 1196.51 1564.07 Q1201.16 1564.07 1203.83 1560.4 Q1206.51 1556.71 1206.51 1550.25 Q1206.51 1543.79 1203.83 1540.13 Q1201.16 1536.44 1196.51 1536.44 Q1191.87 1536.44 1189.19 1540.13 Q1186.55 1543.79 1186.55 1550.25 Z" fill="#000000" fill-rule="evenodd" fill-opacity="1" /><path clip-path="url(#clip680)" d="M1240.63 1550.12 Q1233.53 1550.12 1230.79 1551.75 Q1228.05 1553.37 1228.05 1557.29 Q1228.05 1560.4 1230.09 1562.25 Q1232.16 1564.07 1235.69 1564.07 Q1240.56 1564.07 1243.49 1560.63 Q1246.45 1557.16 1246.45 1551.43 L1246.45 1550.12 L1240.63 1550.12 M1252.31 1547.71 L1252.31 1568.04 L1246.45 1568.04 L1246.45 1562.63 Q1244.45 1565.88 1241.45 1567.44 Q1238.46 1568.97 1234.13 1568.97 Q1228.66 1568.97 1225.41 1565.91 Q1222.2 1562.82 1222.2 1557.67 Q1222.2 1551.65 1226.21 1548.6 Q1230.25 1545.54 1238.24 1545.54 L1246.45 1545.54 L1246.45 1544.97 Q1246.45 1540.93 1243.78 1538.73 Q1241.14 1536.5 1236.33 1536.5 Q1233.27 1536.5 1230.38 1537.23 Q1227.48 1537.97 1224.81 1539.43 L1224.81 1534.02 Q1228.02 1532.78 1231.05 1532.17 Q1234.07 1531.54 1236.93 1531.54 Q1244.67 1531.54 1248.49 1535.55 Q1252.31 1539.56 1252.31 1547.71 Z" fill="#000000" fill-rule="evenodd" fill-opacity="1" /><path clip-path="url(#clip680)" d="M1270.16 1522.27 L1270.16 1532.4 L1282.23 1532.4 L1282.23 1536.95 L1270.16 1536.95 L1270.16 1556.3 Q1270.16 1560.66 1271.34 1561.9 Q1272.55 1563.14 1276.21 1563.14 L1282.23 1563.14 L1282.23 1568.04 L1276.21 1568.04 Q1269.43 1568.04 1266.85 1565.53 Q1264.28 1562.98 1264.28 1556.3 L1264.28 1536.95 L1259.98 1536.95 L1259.98 1532.4 L1264.28 1532.4 L1264.28 1522.27 L1270.16 1522.27 Z" fill="#000000" fill-rule="evenodd" fill-opacity="1" /><path clip-path="url(#clip680)" d="M1319.56 1546.53 L1319.56 1568.04 L1313.71 1568.04 L1313.71 1546.72 Q1313.71 1541.66 1311.73 1539.14 Q1309.76 1536.63 1305.81 1536.63 Q1301.07 1536.63 1298.33 1539.65 Q1295.59 1542.68 1295.59 1547.9 L1295.59 1568.04 L1289.71 1568.04 L1289.71 1532.4 L1295.59 1532.4 L1295.59 1537.93 Q1297.7 1534.72 1300.53 1533.13 Q1303.39 1531.54 1307.12 1531.54 Q1313.26 1531.54 1316.41 1535.36 Q1319.56 1539.14 1319.56 1546.53 Z" fill="#000000" fill-rule="evenodd" fill-opacity="1" /><path clip-path="url(#clip680)" d="M1345.06 1536.5 Q1340.35 1536.5 1337.61 1540.19 Q1334.87 1543.85 1334.87 1550.25 Q1334.87 1556.65 1337.58 1560.34 Q1340.31 1564 1345.06 1564 Q1349.74 1564 1352.47 1560.31 Q1355.21 1556.62 1355.21 1550.25 Q1355.21 1543.92 1352.47 1540.23 Q1349.74 1536.5 1345.06 1536.5 M1345.06 1531.54 Q1352.7 1531.54 1357.06 1536.5 Q1361.42 1541.47 1361.42 1550.25 Q1361.42 1559 1357.06 1564 Q1352.7 1568.97 1345.06 1568.97 Q1337.39 1568.97 1333.03 1564 Q1328.7 1559 1328.7 1550.25 Q1328.7 1541.47 1333.03 1536.5 Q1337.39 1531.54 1345.06 1531.54 Z" fill="#000000" fill-rule="evenodd" fill-opacity="1" /><path clip-path="url(#clip680)" d="M1387.8 1515.69 L1394.14 1515.69 L1383.76 1527.65 L1378.89 1527.65 L1387.8 1515.69 M1393.85 1533.45 L1393.85 1538.98 Q1391.37 1537.71 1388.69 1537.07 Q1386.02 1536.44 1383.16 1536.44 Q1378.79 1536.44 1376.6 1537.77 Q1374.43 1539.11 1374.43 1541.79 Q1374.43 1543.82 1375.99 1545 Q1377.55 1546.15 1382.26 1547.2 L1384.27 1547.64 Q1390.51 1548.98 1393.12 1551.43 Q1395.76 1553.85 1395.76 1558.21 Q1395.76 1563.17 1391.81 1566.07 Q1387.9 1568.97 1381.02 1568.97 Q1378.16 1568.97 1375.04 1568.39 Q1371.95 1567.85 1368.51 1566.74 L1368.51 1560.69 Q1371.76 1562.38 1374.91 1563.24 Q1378.06 1564.07 1381.15 1564.07 Q1385.29 1564.07 1387.52 1562.66 Q1389.74 1561.23 1389.74 1558.65 Q1389.74 1556.27 1388.12 1554.99 Q1386.53 1553.72 1381.09 1552.54 L1379.05 1552.07 Q1373.61 1550.92 1371.19 1548.56 Q1368.77 1546.18 1368.77 1542.04 Q1368.77 1537.01 1372.33 1534.27 Q1375.9 1531.54 1382.45 1531.54 Q1385.7 1531.54 1388.57 1532.01 Q1391.43 1532.49 1393.85 1533.45 Z" fill="#000000" fill-rule="evenodd" fill-opacity="1" /><path clip-path="url(#clip680)" d="M1430.74 1533.76 L1430.74 1539.24 Q1428.26 1537.87 1425.74 1537.2 Q1423.26 1536.5 1420.71 1536.5 Q1415.02 1536.5 1411.86 1540.13 Q1408.71 1543.73 1408.71 1550.25 Q1408.71 1556.78 1411.86 1560.4 Q1415.02 1564 1420.71 1564 Q1423.26 1564 1425.74 1563.33 Q1428.26 1562.63 1430.74 1561.26 L1430.74 1566.68 Q1428.29 1567.82 1425.65 1568.39 Q1423.04 1568.97 1420.08 1568.97 Q1412.02 1568.97 1407.28 1563.91 Q1402.54 1558.85 1402.54 1550.25 Q1402.54 1541.53 1407.31 1536.53 Q1412.12 1531.54 1420.46 1531.54 Q1423.16 1531.54 1425.74 1532.11 Q1428.32 1532.65 1430.74 1533.76 Z" fill="#000000" fill-rule="evenodd" fill-opacity="1" /><path clip-path="url(#clip680)" d="M1440.92 1532.4 L1446.78 1532.4 L1446.78 1568.04 L1440.92 1568.04 L1440.92 1532.4 M1440.92 1518.52 L1446.78 1518.52 L1446.78 1525.93 L1440.92 1525.93 L1440.92 1518.52 Z" fill="#000000" fill-rule="evenodd" fill-opacity="1" /><path clip-path="url(#clip680)" d="M1503.21 1537.81 L1503.21 1518.52 L1509.07 1518.52 L1509.07 1568.04 L1503.21 1568.04 L1503.21 1562.7 Q1501.37 1565.88 1498.53 1567.44 Q1495.73 1568.97 1491.79 1568.97 Q1485.32 1568.97 1481.25 1563.81 Q1477.21 1558.65 1477.21 1550.25 Q1477.21 1541.85 1481.25 1536.69 Q1485.32 1531.54 1491.79 1531.54 Q1495.73 1531.54 1498.53 1533.1 Q1501.37 1534.62 1503.21 1537.81 M1483.26 1550.25 Q1483.26 1556.71 1485.9 1560.4 Q1488.57 1564.07 1493.22 1564.07 Q1497.87 1564.07 1500.54 1560.4 Q1503.21 1556.71 1503.21 1550.25 Q1503.21 1543.79 1500.54 1540.13 Q1497.87 1536.44 1493.22 1536.44 Q1488.57 1536.44 1485.9 1540.13 Q1483.26 1543.79 1483.26 1550.25 Z" fill="#000000" fill-rule="evenodd" fill-opacity="1" /><path clip-path="url(#clip680)" d="M1534.95 1536.5 Q1530.23 1536.5 1527.5 1540.19 Q1524.76 1543.85 1524.76 1550.25 Q1524.76 1556.65 1527.47 1560.34 Q1530.2 1564 1534.95 1564 Q1539.62 1564 1542.36 1560.31 Q1545.1 1556.62 1545.1 1550.25 Q1545.1 1543.92 1542.36 1540.23 Q1539.62 1536.5 1534.95 1536.5 M1534.95 1531.54 Q1542.58 1531.54 1546.94 1536.5 Q1551.31 1541.47 1551.31 1550.25 Q1551.31 1559 1546.94 1564 Q1542.58 1568.97 1534.95 1568.97 Q1527.27 1568.97 1522.91 1564 Q1518.59 1559 1518.59 1550.25 Q1518.59 1541.47 1522.91 1536.5 Q1527.27 1531.54 1534.95 1531.54 Z" fill="#000000" fill-rule="evenodd" fill-opacity="1" /><path clip-path="url(#clip680)" d="M1586.6 1550.25 Q1586.6 1543.79 1583.93 1540.13 Q1581.29 1536.44 1576.64 1536.44 Q1571.99 1536.44 1569.32 1540.13 Q1566.68 1543.79 1566.68 1550.25 Q1566.68 1556.71 1569.32 1560.4 Q1571.99 1564.07 1576.64 1564.07 Q1581.29 1564.07 1583.93 1560.4 Q1586.6 1556.71 1586.6 1550.25 M1566.68 1537.81 Q1568.52 1534.62 1571.33 1533.1 Q1574.16 1531.54 1578.07 1531.54 Q1584.57 1531.54 1588.61 1536.69 Q1592.68 1541.85 1592.68 1550.25 Q1592.68 1558.65 1588.61 1563.81 Q1584.57 1568.97 1578.07 1568.97 Q1574.16 1568.97 1571.33 1567.44 Q1568.52 1565.88 1566.68 1562.7 L1566.68 1568.04 L1560.79 1568.04 L1560.79 1518.52 L1566.68 1518.52 L1566.68 1537.81 Z" fill="#000000" fill-rule="evenodd" fill-opacity="1" /><path clip-path="url(#clip680)" d="M1623.05 1537.87 Q1622.06 1537.3 1620.88 1537.04 Q1619.74 1536.76 1618.34 1536.76 Q1613.37 1536.76 1610.7 1540 Q1608.06 1543.22 1608.06 1549.27 L1608.06 1568.04 L1602.17 1568.04 L1602.17 1532.4 L1608.06 1532.4 L1608.06 1537.93 Q1609.9 1534.69 1612.86 1533.13 Q1615.82 1531.54 1620.05 1531.54 Q1620.66 1531.54 1621.39 1531.63 Q1622.12 1531.7 1623.02 1531.85 L1623.05 1537.87 Z" fill="#000000" fill-rule="evenodd" fill-opacity="1" /><path clip-path="url(#clip680)" d="M1645.39 1550.12 Q1638.29 1550.12 1635.56 1551.75 Q1632.82 1553.37 1632.82 1557.29 Q1632.82 1560.4 1634.86 1562.25 Q1636.92 1564.07 1640.46 1564.07 Q1645.33 1564.07 1648.26 1560.63 Q1651.22 1557.16 1651.22 1551.43 L1651.22 1550.12 L1645.39 1550.12 M1657.07 1547.71 L1657.07 1568.04 L1651.22 1568.04 L1651.22 1562.63 Q1649.21 1565.88 1646.22 1567.44 Q1643.23 1568.97 1638.9 1568.97 Q1633.42 1568.97 1630.18 1565.91 Q1626.96 1562.82 1626.96 1557.67 Q1626.96 1551.65 1630.97 1548.6 Q1635.01 1545.54 1643 1545.54 L1651.22 1545.54 L1651.22 1544.97 Q1651.22 1540.93 1648.54 1538.73 Q1645.9 1536.5 1641.09 1536.5 Q1638.04 1536.5 1635.14 1537.23 Q1632.25 1537.97 1629.57 1539.43 L1629.57 1534.02 Q1632.79 1532.78 1635.81 1532.17 Q1638.83 1531.54 1641.7 1531.54 Q1649.43 1531.54 1653.25 1535.55 Q1657.07 1539.56 1657.07 1547.71 Z" fill="#000000" fill-rule="evenodd" fill-opacity="1" /><path clip-path="url(#clip680)" d="M1690.11 1520.52 L1696.54 1520.52 L1696.54 1540 L1719.9 1540 L1719.9 1520.52 L1726.33 1520.52 L1726.33 1568.04 L1719.9 1568.04 L1719.9 1545.41 L1696.54 1545.41 L1696.54 1568.04 L1690.11 1568.04 L1690.11 1520.52 Z" fill="#000000" fill-rule="evenodd" fill-opacity="1" /><polyline clip-path="url(#clip682)" style="stroke:#000000; stroke-linecap:round; stroke-linejoin:round; stroke-width:2; stroke-opacity:0.1; fill:none" points="
  203.964,1210.57 2352.76,1210.57 
  "/>
<polyline clip-path="url(#clip682)" style="stroke:#000000; stroke-linecap:round; stroke-linejoin:round; stroke-width:2; stroke-opacity:0.1; fill:none" points="
  203.964,963.888 2352.76,963.888 
  "/>
<polyline clip-path="url(#clip682)" style="stroke:#000000; stroke-linecap:round; stroke-linejoin:round; stroke-width:2; stroke-opacity:0.1; fill:none" points="
  203.964,717.204 2352.76,717.204 
  "/>
<polyline clip-path="url(#clip682)" style="stroke:#000000; stroke-linecap:round; stroke-linejoin:round; stroke-width:2; stroke-opacity:0.1; fill:none" points="
  203.964,470.52 2352.76,470.52 
  "/>
<polyline clip-path="url(#clip682)" style="stroke:#000000; stroke-linecap:round; stroke-linejoin:round; stroke-width:2; stroke-opacity:0.1; fill:none" points="
  203.964,223.835 2352.76,223.835 
  "/>
<polyline clip-path="url(#clip680)" style="stroke:#000000; stroke-linecap:round; stroke-linejoin:round; stroke-width:4; stroke-opacity:1; fill:none" points="
  203.964,1423.18 203.964,47.2441 
  "/>
<polyline clip-path="url(#clip680)" style="stroke:#000000; stroke-linecap:round; stroke-linejoin:round; stroke-width:4; stroke-opacity:1; fill:none" points="
  203.964,1210.57 222.861,1210.57 
  "/>
<polyline clip-path="url(#clip680)" style="stroke:#000000; stroke-linecap:round; stroke-linejoin:round; stroke-width:4; stroke-opacity:1; fill:none" points="
  203.964,963.888 222.861,963.888 
  "/>
<polyline clip-path="url(#clip680)" style="stroke:#000000; stroke-linecap:round; stroke-linejoin:round; stroke-width:4; stroke-opacity:1; fill:none" points="
  203.964,717.204 222.861,717.204 
  "/>
<polyline clip-path="url(#clip680)" style="stroke:#000000; stroke-linecap:round; stroke-linejoin:round; stroke-width:4; stroke-opacity:1; fill:none" points="
  203.964,470.52 222.861,470.52 
  "/>
<polyline clip-path="url(#clip680)" style="stroke:#000000; stroke-linecap:round; stroke-linejoin:round; stroke-width:4; stroke-opacity:1; fill:none" points="
  203.964,223.835 222.861,223.835 
  "/>
<path clip-path="url(#clip680)" d="M116.668 1223.92 L124.306 1223.92 L124.306 1197.55 L115.996 1199.22 L115.996 1194.96 L124.26 1193.29 L128.936 1193.29 L128.936 1223.92 L136.575 1223.92 L136.575 1227.85 L116.668 1227.85 L116.668 1223.92 Z" fill="#000000" fill-rule="evenodd" fill-opacity="1" /><path clip-path="url(#clip680)" d="M156.019 1196.37 Q152.408 1196.37 150.579 1199.94 Q148.774 1203.48 148.774 1210.61 Q148.774 1217.71 150.579 1221.28 Q152.408 1224.82 156.019 1224.82 Q159.653 1224.82 161.459 1221.28 Q163.288 1217.71 163.288 1210.61 Q163.288 1203.48 161.459 1199.94 Q159.653 1196.37 156.019 1196.37 M156.019 1192.67 Q161.829 1192.67 164.885 1197.27 Q167.964 1201.86 167.964 1210.61 Q167.964 1219.33 164.885 1223.94 Q161.829 1228.52 156.019 1228.52 Q150.209 1228.52 147.13 1223.94 Q144.075 1219.33 144.075 1210.61 Q144.075 1201.86 147.13 1197.27 Q150.209 1192.67 156.019 1192.67 Z" fill="#000000" fill-rule="evenodd" fill-opacity="1" /><path clip-path="url(#clip680)" d="M117.663 977.233 L125.302 977.233 L125.302 950.868 L116.992 952.534 L116.992 948.275 L125.255 946.608 L129.931 946.608 L129.931 977.233 L137.57 977.233 L137.57 981.168 L117.663 981.168 L117.663 977.233 Z" fill="#000000" fill-rule="evenodd" fill-opacity="1" /><path clip-path="url(#clip680)" d="M147.061 946.608 L165.417 946.608 L165.417 950.543 L151.343 950.543 L151.343 959.016 Q152.362 958.668 153.38 958.506 Q154.399 958.321 155.417 958.321 Q161.204 958.321 164.584 961.492 Q167.964 964.664 167.964 970.08 Q167.964 975.659 164.491 978.761 Q161.019 981.84 154.7 981.84 Q152.524 981.84 150.255 981.469 Q148.01 981.099 145.603 980.358 L145.603 975.659 Q147.686 976.793 149.908 977.349 Q152.13 977.904 154.607 977.904 Q158.612 977.904 160.95 975.798 Q163.288 973.691 163.288 970.08 Q163.288 966.469 160.95 964.363 Q158.612 962.256 154.607 962.256 Q152.732 962.256 150.857 962.673 Q149.005 963.09 147.061 963.969 L147.061 946.608 Z" fill="#000000" fill-rule="evenodd" fill-opacity="1" /><path clip-path="url(#clip680)" d="M119.885 730.549 L136.204 730.549 L136.204 734.484 L114.26 734.484 L114.26 730.549 Q116.922 727.794 121.505 723.165 Q126.112 718.512 127.292 717.169 Q129.538 714.646 130.417 712.91 Q131.32 711.151 131.32 709.461 Q131.32 706.706 129.376 704.97 Q127.455 703.234 124.353 703.234 Q122.154 703.234 119.7 703.998 Q117.269 704.762 114.492 706.313 L114.492 701.591 Q117.316 700.456 119.769 699.878 Q122.223 699.299 124.26 699.299 Q129.63 699.299 132.825 701.984 Q136.019 704.669 136.019 709.16 Q136.019 711.29 135.209 713.211 Q134.422 715.109 132.316 717.702 Q131.737 718.373 128.635 721.591 Q125.533 724.785 119.885 730.549 Z" fill="#000000" fill-rule="evenodd" fill-opacity="1" /><path clip-path="url(#clip680)" d="M156.019 703.003 Q152.408 703.003 150.579 706.568 Q148.774 710.109 148.774 717.239 Q148.774 724.345 150.579 727.91 Q152.408 731.452 156.019 731.452 Q159.653 731.452 161.459 727.91 Q163.288 724.345 163.288 717.239 Q163.288 710.109 161.459 706.568 Q159.653 703.003 156.019 703.003 M156.019 699.299 Q161.829 699.299 164.885 703.905 Q167.964 708.489 167.964 717.239 Q167.964 725.966 164.885 730.572 Q161.829 735.155 156.019 735.155 Q150.209 735.155 147.13 730.572 Q144.075 725.966 144.075 717.239 Q144.075 708.489 147.13 703.905 Q150.209 699.299 156.019 699.299 Z" fill="#000000" fill-rule="evenodd" fill-opacity="1" /><path clip-path="url(#clip680)" d="M120.88 483.865 L137.2 483.865 L137.2 487.8 L115.256 487.8 L115.256 483.865 Q117.918 481.11 122.501 476.48 Q127.107 471.828 128.288 470.485 Q130.533 467.962 131.413 466.226 Q132.316 464.467 132.316 462.777 Q132.316 460.022 130.371 458.286 Q128.45 456.55 125.348 456.55 Q123.149 456.55 120.695 457.314 Q118.265 458.078 115.487 459.629 L115.487 454.906 Q118.311 453.772 120.765 453.193 Q123.218 452.615 125.255 452.615 Q130.626 452.615 133.82 455.3 Q137.015 457.985 137.015 462.476 Q137.015 464.605 136.204 466.527 Q135.417 468.425 133.311 471.017 Q132.732 471.689 129.63 474.906 Q126.529 478.101 120.88 483.865 Z" fill="#000000" fill-rule="evenodd" fill-opacity="1" /><path clip-path="url(#clip680)" d="M147.061 453.24 L165.417 453.24 L165.417 457.175 L151.343 457.175 L151.343 465.647 Q152.362 465.3 153.38 465.138 Q154.399 464.953 155.417 464.953 Q161.204 464.953 164.584 468.124 Q167.964 471.295 167.964 476.712 Q167.964 482.291 164.491 485.392 Q161.019 488.471 154.7 488.471 Q152.524 488.471 150.255 488.101 Q148.01 487.73 145.603 486.99 L145.603 482.291 Q147.686 483.425 149.908 483.98 Q152.13 484.536 154.607 484.536 Q158.612 484.536 160.95 482.429 Q163.288 480.323 163.288 476.712 Q163.288 473.101 160.95 470.994 Q158.612 468.888 154.607 468.888 Q152.732 468.888 150.857 469.304 Q149.005 469.721 147.061 470.601 L147.061 453.24 Z" fill="#000000" fill-rule="evenodd" fill-opacity="1" /><path clip-path="url(#clip680)" d="M130.024 222.481 Q133.38 223.199 135.255 225.467 Q137.154 227.736 137.154 231.069 Q137.154 236.185 133.635 238.986 Q130.117 241.787 123.635 241.787 Q121.459 241.787 119.144 241.347 Q116.853 240.93 114.399 240.074 L114.399 235.56 Q116.343 236.694 118.658 237.273 Q120.973 237.852 123.496 237.852 Q127.894 237.852 130.186 236.116 Q132.501 234.379 132.501 231.069 Q132.501 228.014 130.348 226.301 Q128.218 224.565 124.399 224.565 L120.371 224.565 L120.371 220.722 L124.584 220.722 Q128.033 220.722 129.862 219.356 Q131.691 217.967 131.691 215.375 Q131.691 212.713 129.792 211.301 Q127.917 209.866 124.399 209.866 Q122.478 209.866 120.279 210.282 Q118.08 210.699 115.441 211.579 L115.441 207.412 Q118.103 206.671 120.418 206.301 Q122.755 205.93 124.816 205.93 Q130.14 205.93 133.242 208.361 Q136.343 210.768 136.343 214.889 Q136.343 217.759 134.7 219.75 Q133.056 221.717 130.024 222.481 Z" fill="#000000" fill-rule="evenodd" fill-opacity="1" /><path clip-path="url(#clip680)" d="M156.019 209.634 Q152.408 209.634 150.579 213.199 Q148.774 216.741 148.774 223.87 Q148.774 230.977 150.579 234.541 Q152.408 238.083 156.019 238.083 Q159.653 238.083 161.459 234.541 Q163.288 230.977 163.288 223.87 Q163.288 216.741 161.459 213.199 Q159.653 209.634 156.019 209.634 M156.019 205.93 Q161.829 205.93 164.885 210.537 Q167.964 215.12 167.964 223.87 Q167.964 232.597 164.885 237.203 Q161.829 241.787 156.019 241.787 Q150.209 241.787 147.13 237.203 Q144.075 232.597 144.075 223.87 Q144.075 215.12 147.13 210.537 Q150.209 205.93 156.019 205.93 Z" fill="#000000" fill-rule="evenodd" fill-opacity="1" /><path clip-path="url(#clip680)" d="M21.7677 1449.79 L39.6235 1449.79 L39.6235 1441.71 Q39.6235 1437.22 37.3 1434.77 Q34.9765 1432.32 30.6797 1432.32 Q26.4147 1432.32 24.0912 1434.77 Q21.7677 1437.22 21.7677 1441.71 L21.7677 1449.79 M16.4842 1456.22 L16.4842 1441.71 Q16.4842 1433.72 20.1126 1429.65 Q23.7092 1425.54 30.6797 1425.54 Q37.7138 1425.54 41.3104 1429.65 Q44.907 1433.72 44.907 1441.71 L44.907 1449.79 L64.0042 1449.79 L64.0042 1456.22 L16.4842 1456.22 Z" fill="#000000" fill-rule="evenodd" fill-opacity="1" /><path clip-path="url(#clip680)" d="M33.8307 1397.66 Q33.2578 1398.65 33.0032 1399.82 Q32.7167 1400.97 32.7167 1402.37 Q32.7167 1407.34 35.9632 1410.01 Q39.1779 1412.65 45.2253 1412.65 L64.0042 1412.65 L64.0042 1418.54 L28.3562 1418.54 L28.3562 1412.65 L33.8944 1412.65 Q30.6479 1410.8 29.0883 1407.84 Q27.4968 1404.88 27.4968 1400.65 Q27.4968 1400.05 27.5923 1399.31 Q27.656 1398.58 27.8151 1397.69 L33.8307 1397.66 Z" fill="#000000" fill-rule="evenodd" fill-opacity="1" /><path clip-path="url(#clip680)" d="M46.0847 1375.32 Q46.0847 1382.41 47.7079 1385.15 Q49.3312 1387.89 53.2461 1387.89 Q56.3653 1387.89 58.2114 1385.85 Q60.0256 1383.78 60.0256 1380.25 Q60.0256 1375.38 56.5881 1372.45 Q53.1188 1369.49 47.3897 1369.49 L46.0847 1369.49 L46.0847 1375.32 M43.6657 1363.63 L64.0042 1363.63 L64.0042 1369.49 L58.5933 1369.49 Q61.8398 1371.5 63.3994 1374.49 Q64.9272 1377.48 64.9272 1381.81 Q64.9272 1387.28 61.8716 1390.53 Q58.7843 1393.74 53.6281 1393.74 Q47.6125 1393.74 44.5569 1389.73 Q41.5014 1385.69 41.5014 1377.7 L41.5014 1369.49 L40.9285 1369.49 Q36.8862 1369.49 34.6901 1372.16 Q32.4621 1374.81 32.4621 1379.61 Q32.4621 1382.67 33.1941 1385.56 Q33.9262 1388.46 35.3903 1391.13 L29.9795 1391.13 Q28.7381 1387.92 28.1334 1384.9 Q27.4968 1381.87 27.4968 1379.01 Q27.4968 1371.27 31.5072 1367.45 Q35.5176 1363.63 43.6657 1363.63 Z" fill="#000000" fill-rule="evenodd" fill-opacity="1" /><path clip-path="url(#clip680)" d="M28.3562 1354.98 L28.3562 1349.12 L56.1743 1341.8 L28.3562 1334.51 L28.3562 1327.6 L56.1743 1320.28 L28.3562 1313 L28.3562 1307.14 L64.0042 1316.46 L64.0042 1323.37 L34.7856 1331.04 L64.0042 1338.74 L64.0042 1345.65 L28.3562 1354.98 Z" fill="#000000" fill-rule="evenodd" fill-opacity="1" /><path clip-path="url(#clip680)" d="M33.7671 1274.8 L14.479 1274.8 L14.479 1268.94 L64.0042 1268.94 L64.0042 1274.8 L58.657 1274.8 Q61.8398 1276.65 63.3994 1279.48 Q64.9272 1282.28 64.9272 1286.23 Q64.9272 1292.69 59.771 1296.76 Q54.6147 1300.81 46.212 1300.81 Q37.8093 1300.81 32.6531 1296.76 Q27.4968 1292.69 27.4968 1286.23 Q27.4968 1282.28 29.0564 1279.48 Q30.5842 1276.65 33.7671 1274.8 M46.212 1294.76 Q52.6732 1294.76 56.3653 1292.12 Q60.0256 1289.44 60.0256 1284.8 Q60.0256 1280.15 56.3653 1277.47 Q52.6732 1274.8 46.212 1274.8 Q39.7508 1274.8 36.0905 1277.47 Q32.3984 1280.15 32.3984 1284.8 Q32.3984 1289.44 36.0905 1292.12 Q39.7508 1294.76 46.212 1294.76 Z" fill="#000000" fill-rule="evenodd" fill-opacity="1" /><path clip-path="url(#clip680)" d="M32.4621 1243.07 Q32.4621 1247.78 36.1542 1250.52 Q39.8145 1253.25 46.212 1253.25 Q52.6095 1253.25 56.3017 1250.55 Q59.9619 1247.81 59.9619 1243.07 Q59.9619 1238.39 56.2698 1235.65 Q52.5777 1232.91 46.212 1232.91 Q39.8781 1232.91 36.186 1235.65 Q32.4621 1238.39 32.4621 1243.07 M27.4968 1243.07 Q27.4968 1235.43 32.4621 1231.07 Q37.4273 1226.71 46.212 1226.71 Q54.9649 1226.71 59.9619 1231.07 Q64.9272 1235.43 64.9272 1243.07 Q64.9272 1250.74 59.9619 1255.1 Q54.9649 1259.43 46.212 1259.43 Q37.4273 1259.43 32.4621 1255.1 Q27.4968 1250.74 27.4968 1243.07 Z" fill="#000000" fill-rule="evenodd" fill-opacity="1" /><path clip-path="url(#clip680)" d="M58.657 1211.33 L77.5631 1211.33 L77.5631 1217.22 L28.3562 1217.22 L28.3562 1211.33 L33.7671 1211.33 Q30.5842 1209.49 29.0564 1206.69 Q27.4968 1203.86 27.4968 1199.94 Q27.4968 1193.45 32.6531 1189.41 Q37.8093 1185.33 46.212 1185.33 Q54.6147 1185.33 59.771 1189.41 Q64.9272 1193.45 64.9272 1199.94 Q64.9272 1203.86 63.3994 1206.69 Q61.8398 1209.49 58.657 1211.33 M46.212 1191.41 Q39.7508 1191.41 36.0905 1194.08 Q32.3984 1196.73 32.3984 1201.37 Q32.3984 1206.02 36.0905 1208.69 Q39.7508 1211.33 46.212 1211.33 Q52.6732 1211.33 56.3653 1208.69 Q60.0256 1206.02 60.0256 1201.37 Q60.0256 1196.73 56.3653 1194.08 Q52.6732 1191.41 46.212 1191.41 Z" fill="#000000" fill-rule="evenodd" fill-opacity="1" /><path clip-path="url(#clip680)" d="M32.4621 1161.81 Q32.4621 1166.52 36.1542 1169.26 Q39.8145 1171.99 46.212 1171.99 Q52.6095 1171.99 56.3017 1169.29 Q59.9619 1166.55 59.9619 1161.81 Q59.9619 1157.13 56.2698 1154.39 Q52.5777 1151.66 46.212 1151.66 Q39.8781 1151.66 36.186 1154.39 Q32.4621 1157.13 32.4621 1161.81 M27.4968 1161.81 Q27.4968 1154.17 32.4621 1149.81 Q37.4273 1145.45 46.212 1145.45 Q54.9649 1145.45 59.9619 1149.81 Q64.9272 1154.17 64.9272 1161.81 Q64.9272 1169.48 59.9619 1173.84 Q54.9649 1178.17 46.212 1178.17 Q37.4273 1178.17 32.4621 1173.84 Q27.4968 1169.48 27.4968 1161.81 Z" fill="#000000" fill-rule="evenodd" fill-opacity="1" /><path clip-path="url(#clip680)" d="M33.7671 1112.28 L14.479 1112.28 L14.479 1106.43 L64.0042 1106.43 L64.0042 1112.28 L58.657 1112.28 Q61.8398 1114.13 63.3994 1116.96 Q64.9272 1119.76 64.9272 1123.71 Q64.9272 1130.17 59.771 1134.25 Q54.6147 1138.29 46.212 1138.29 Q37.8093 1138.29 32.6531 1134.25 Q27.4968 1130.17 27.4968 1123.71 Q27.4968 1119.76 29.0564 1116.96 Q30.5842 1114.13 33.7671 1112.28 M46.212 1132.24 Q52.6732 1132.24 56.3653 1129.6 Q60.0256 1126.93 60.0256 1122.28 Q60.0256 1117.63 56.3653 1114.96 Q52.6732 1112.28 46.212 1112.28 Q39.7508 1112.28 36.0905 1114.96 Q32.3984 1117.63 32.3984 1122.28 Q32.3984 1126.93 36.0905 1129.6 Q39.7508 1132.24 46.212 1132.24 Z" fill="#000000" fill-rule="evenodd" fill-opacity="1" /><path clip-path="url(#clip680)" d="M32.4621 1080.55 Q32.4621 1085.26 36.1542 1088 Q39.8145 1090.74 46.212 1090.74 Q52.6095 1090.74 56.3017 1088.03 Q59.9619 1085.29 59.9619 1080.55 Q59.9619 1075.87 56.2698 1073.14 Q52.5777 1070.4 46.212 1070.4 Q39.8781 1070.4 36.186 1073.14 Q32.4621 1075.87 32.4621 1080.55 M27.4968 1080.55 Q27.4968 1072.91 32.4621 1068.55 Q37.4273 1064.19 46.212 1064.19 Q54.9649 1064.19 59.9619 1068.55 Q64.9272 1072.91 64.9272 1080.55 Q64.9272 1088.22 59.9619 1092.58 Q54.9649 1096.91 46.212 1096.91 Q37.4273 1096.91 32.4621 1092.58 Q27.4968 1088.22 27.4968 1080.55 Z" fill="#000000" fill-rule="evenodd" fill-opacity="1" /><path clip-path="url(#clip680)" d="M46.212 1028.89 Q39.7508 1028.89 36.0905 1031.57 Q32.3984 1034.21 32.3984 1038.86 Q32.3984 1043.5 36.0905 1046.18 Q39.7508 1048.82 46.212 1048.82 Q52.6732 1048.82 56.3653 1046.18 Q60.0256 1043.5 60.0256 1038.86 Q60.0256 1034.21 56.3653 1031.57 Q52.6732 1028.89 46.212 1028.89 M33.7671 1048.82 Q30.5842 1046.97 29.0564 1044.17 Q27.4968 1041.34 27.4968 1037.42 Q27.4968 1030.93 32.6531 1026.89 Q37.8093 1022.81 46.212 1022.81 Q54.6147 1022.81 59.771 1026.89 Q64.9272 1030.93 64.9272 1037.42 Q64.9272 1041.34 63.3994 1044.17 Q61.8398 1046.97 58.657 1048.82 L64.0042 1048.82 L64.0042 1054.71 L14.479 1054.71 L14.479 1048.82 L33.7671 1048.82 Z" fill="#000000" fill-rule="evenodd" fill-opacity="1" /><path clip-path="url(#clip680)" d="M28.3562 1013.11 L28.3562 1007.25 L64.0042 1007.25 L64.0042 1013.11 L28.3562 1013.11 M14.479 1013.11 L14.479 1007.25 L21.895 1007.25 L21.895 1013.11 L14.479 1013.11 Z" fill="#000000" fill-rule="evenodd" fill-opacity="1" /><path clip-path="url(#clip680)" d="M44.7161 964.505 L47.5806 964.505 L47.5806 991.432 Q53.6281 991.05 56.8109 987.803 Q59.9619 984.525 59.9619 978.7 Q59.9619 975.326 59.1344 972.175 Q58.3069 968.993 56.6518 965.873 L62.1899 965.873 Q63.5267 969.024 64.227 972.335 Q64.9272 975.645 64.9272 979.05 Q64.9272 987.58 59.9619 992.577 Q54.9967 997.543 46.5303 997.543 Q37.7774 997.543 32.6531 992.832 Q27.4968 988.09 27.4968 980.069 Q27.4968 972.876 32.1438 968.706 Q36.7589 964.505 44.7161 964.505 M42.9973 970.361 Q38.1912 970.425 35.3266 973.067 Q32.4621 975.677 32.4621 980.005 Q32.4621 984.907 35.2312 987.867 Q38.0002 990.795 43.0292 991.241 L42.9973 970.361 Z" fill="#000000" fill-rule="evenodd" fill-opacity="1" /><path clip-path="url(#clip680)" d="M11.6462 938.214 L11.6462 931.88 L23.6137 942.257 L23.6137 947.126 L11.6462 938.214 M42.4881 925.26 L64.0042 925.26 L64.0042 931.117 L42.679 931.117 Q37.6183 931.117 35.1038 933.09 Q32.5894 935.063 32.5894 939.01 Q32.5894 943.753 35.6131 946.49 Q38.6368 949.227 43.8567 949.227 L64.0042 949.227 L64.0042 955.115 L28.3562 955.115 L28.3562 949.227 L33.8944 949.227 Q30.6797 947.126 29.0883 944.294 Q27.4968 941.429 27.4968 937.705 Q27.4968 931.562 31.3163 928.411 Q35.1038 925.26 42.4881 925.26 Z" fill="#000000" fill-rule="evenodd" fill-opacity="1" /><path clip-path="url(#clip680)" d="M29.4065 890.853 L34.9447 890.853 Q33.6716 893.336 33.035 896.01 Q32.3984 898.683 32.3984 901.548 Q32.3984 905.908 33.7352 908.105 Q35.072 910.269 37.7456 910.269 Q39.7826 910.269 40.9603 908.709 Q42.1061 907.15 43.1565 902.439 L43.6021 900.434 Q44.9389 894.195 47.3897 891.586 Q49.8086 888.944 54.1691 888.944 Q59.1344 888.944 62.0308 892.891 Q64.9272 896.805 64.9272 903.68 Q64.9272 906.545 64.3543 909.664 Q63.8132 912.752 62.6992 916.189 L56.6518 916.189 Q58.3387 912.942 59.198 909.791 Q60.0256 906.64 60.0256 903.553 Q60.0256 899.415 58.6251 897.187 Q57.1929 894.959 54.6147 894.959 Q52.2276 894.959 50.9545 896.583 Q49.6813 898.174 48.5037 903.617 L48.0262 905.654 Q46.8804 911.096 44.5251 913.515 Q42.138 915.934 38.0002 915.934 Q32.9713 915.934 30.2341 912.37 Q27.4968 908.805 27.4968 902.248 Q27.4968 899.002 27.9743 896.137 Q28.4517 893.272 29.4065 890.853 Z" fill="#000000" fill-rule="evenodd" fill-opacity="1" /><path clip-path="url(#clip680)" d="M18.2347 873.825 L28.3562 873.825 L28.3562 861.762 L32.9077 861.762 L32.9077 873.825 L52.2594 873.825 Q56.6199 873.825 57.8613 872.648 Q59.1026 871.438 59.1026 867.778 L59.1026 861.762 L64.0042 861.762 L64.0042 867.778 Q64.0042 874.557 61.4897 877.135 Q58.9434 879.714 52.2594 879.714 L32.9077 879.714 L32.9077 884.01 L28.3562 884.01 L28.3562 879.714 L18.2347 879.714 L18.2347 873.825 Z" fill="#000000" fill-rule="evenodd" fill-opacity="1" /><path clip-path="url(#clip680)" d="M28.3562 857.465 L28.3562 851.609 L56.1743 844.288 L28.3562 837 L28.3562 830.093 L56.1743 822.772 L28.3562 815.484 L28.3562 809.627 L64.0042 818.953 L64.0042 825.86 L34.7856 833.53 L64.0042 841.233 L64.0042 848.14 L28.3562 857.465 Z" fill="#000000" fill-rule="evenodd" fill-opacity="1" /><path clip-path="url(#clip680)" d="M32.4621 786.933 Q32.4621 791.644 36.1542 794.381 Q39.8145 797.118 46.212 797.118 Q52.6095 797.118 56.3017 794.413 Q59.9619 791.676 59.9619 786.933 Q59.9619 782.255 56.2698 779.517 Q52.5777 776.78 46.212 776.78 Q39.8781 776.78 36.186 779.517 Q32.4621 782.255 32.4621 786.933 M27.4968 786.933 Q27.4968 779.294 32.4621 774.934 Q37.4273 770.573 46.212 770.573 Q54.9649 770.573 59.9619 774.934 Q64.9272 779.294 64.9272 786.933 Q64.9272 794.604 59.9619 798.965 Q54.9649 803.293 46.212 803.293 Q37.4273 803.293 32.4621 798.965 Q27.4968 794.604 27.4968 786.933 Z" fill="#000000" fill-rule="evenodd" fill-opacity="1" /><path clip-path="url(#clip680)" d="M58.657 734.48 L77.5631 734.48 L77.5631 740.368 L28.3562 740.368 L28.3562 734.48 L33.7671 734.48 Q30.5842 732.634 29.0564 729.833 Q27.4968 727 27.4968 723.085 Q27.4968 716.592 32.6531 712.55 Q37.8093 708.476 46.212 708.476 Q54.6147 708.476 59.771 712.55 Q64.9272 716.592 64.9272 723.085 Q64.9272 727 63.3994 729.833 Q61.8398 732.634 58.657 734.48 M46.212 714.555 Q39.7508 714.555 36.0905 717.229 Q32.3984 719.871 32.3984 724.518 Q32.3984 729.165 36.0905 731.838 Q39.7508 734.48 46.212 734.48 Q52.6732 734.48 56.3653 731.838 Q60.0256 729.165 60.0256 724.518 Q60.0256 719.871 56.3653 717.229 Q52.6732 714.555 46.212 714.555 Z" fill="#000000" fill-rule="evenodd" fill-opacity="1" /><path clip-path="url(#clip680)" d="M32.4621 684.955 Q32.4621 689.665 36.1542 692.403 Q39.8145 695.14 46.212 695.14 Q52.6095 695.14 56.3017 692.434 Q59.9619 689.697 59.9619 684.955 Q59.9619 680.276 56.2698 677.539 Q52.5777 674.801 46.212 674.801 Q39.8781 674.801 36.186 677.539 Q32.4621 680.276 32.4621 684.955 M27.4968 684.955 Q27.4968 677.316 32.4621 672.955 Q37.4273 668.595 46.212 668.595 Q54.9649 668.595 59.9619 672.955 Q64.9272 677.316 64.9272 684.955 Q64.9272 692.625 59.9619 696.986 Q54.9649 701.315 46.212 701.315 Q37.4273 701.315 32.4621 696.986 Q27.4968 692.625 27.4968 684.955 Z" fill="#000000" fill-rule="evenodd" fill-opacity="1" /><path clip-path="url(#clip680)" d="M42.4881 629.255 L64.0042 629.255 L64.0042 635.111 L42.679 635.111 Q37.6183 635.111 35.1038 637.085 Q32.5894 639.058 32.5894 643.005 Q32.5894 647.747 35.6131 650.484 Q38.6368 653.222 43.8567 653.222 L64.0042 653.222 L64.0042 659.11 L28.3562 659.11 L28.3562 653.222 L33.8944 653.222 Q30.6797 651.121 29.0883 648.288 Q27.4968 645.424 27.4968 641.7 Q27.4968 635.557 31.3163 632.406 Q35.1038 629.255 42.4881 629.255 Z" fill="#000000" fill-rule="evenodd" fill-opacity="1" /><path clip-path="url(#clip680)" d="M28.3562 617.574 L28.3562 611.717 L64.0042 611.717 L64.0042 617.574 L28.3562 617.574 M14.479 617.574 L14.479 611.717 L21.895 611.717 L21.895 617.574 L14.479 617.574 Z" fill="#000000" fill-rule="evenodd" fill-opacity="1" /><path clip-path="url(#clip680)" d="M44.7161 568.972 L47.5806 568.972 L47.5806 595.898 Q53.6281 595.517 56.8109 592.27 Q59.9619 588.992 59.9619 583.167 Q59.9619 579.793 59.1344 576.642 Q58.3069 573.459 56.6518 570.34 L62.1899 570.34 Q63.5267 573.491 64.227 576.801 Q64.9272 580.112 64.9272 583.517 Q64.9272 592.047 59.9619 597.044 Q54.9967 602.01 46.5303 602.01 Q37.7774 602.01 32.6531 597.299 Q27.4968 592.556 27.4968 584.536 Q27.4968 577.342 32.1438 573.173 Q36.7589 568.972 44.7161 568.972 M42.9973 574.828 Q38.1912 574.892 35.3266 577.533 Q32.4621 580.143 32.4621 584.472 Q32.4621 589.374 35.2312 592.334 Q38.0002 595.262 43.0292 595.708 L42.9973 574.828 Z" fill="#000000" fill-rule="evenodd" fill-opacity="1" /><path clip-path="url(#clip680)" d="M29.4065 536.634 L34.9447 536.634 Q33.6716 539.116 33.035 541.79 Q32.3984 544.464 32.3984 547.328 Q32.3984 551.689 33.7352 553.885 Q35.072 556.049 37.7456 556.049 Q39.7826 556.049 40.9603 554.49 Q42.1061 552.93 43.1565 548.219 L43.6021 546.214 Q44.9389 539.976 47.3897 537.366 Q49.8086 534.724 54.1691 534.724 Q59.1344 534.724 62.0308 538.671 Q64.9272 542.586 64.9272 549.461 Q64.9272 552.325 64.3543 555.444 Q63.8132 558.532 62.6992 561.969 L56.6518 561.969 Q58.3387 558.723 59.198 555.572 Q60.0256 552.421 60.0256 549.333 Q60.0256 545.196 58.6251 542.968 Q57.1929 540.74 54.6147 540.74 Q52.2276 540.74 50.9545 542.363 Q49.6813 543.954 48.5037 549.397 L48.0262 551.434 Q46.8804 556.877 44.5251 559.296 Q42.138 561.715 38.0002 561.715 Q32.9713 561.715 30.2341 558.15 Q27.4968 554.585 27.4968 548.028 Q27.4968 544.782 27.9743 541.917 Q28.4517 539.053 29.4065 536.634 Z" fill="#000000" fill-rule="evenodd" fill-opacity="1" /><path clip-path="url(#clip680)" d="M28.3562 525.398 L28.3562 519.542 L64.0042 519.542 L64.0042 525.398 L28.3562 525.398 M14.479 525.398 L14.479 519.542 L21.895 519.542 L21.895 525.398 L14.479 525.398 Z" fill="#000000" fill-rule="evenodd" fill-opacity="1" /><path clip-path="url(#clip680)" d="M44.7161 476.796 L47.5806 476.796 L47.5806 503.723 Q53.6281 503.341 56.8109 500.095 Q59.9619 496.816 59.9619 490.992 Q59.9619 487.618 59.1344 484.467 Q58.3069 481.284 56.6518 478.165 L62.1899 478.165 Q63.5267 481.316 64.227 484.626 Q64.9272 487.936 64.9272 491.342 Q64.9272 499.872 59.9619 504.869 Q54.9967 509.834 46.5303 509.834 Q37.7774 509.834 32.6531 505.124 Q27.4968 500.381 27.4968 492.36 Q27.4968 485.167 32.1438 480.997 Q36.7589 476.796 44.7161 476.796 M42.9973 482.653 Q38.1912 482.716 35.3266 485.358 Q32.4621 487.968 32.4621 492.297 Q32.4621 497.198 35.2312 500.158 Q38.0002 503.086 43.0292 503.532 L42.9973 482.653 Z" fill="#000000" fill-rule="evenodd" fill-opacity="1" /><path clip-path="url(#clip680)" d="M42.4881 437.552 L64.0042 437.552 L64.0042 443.408 L42.679 443.408 Q37.6183 443.408 35.1038 445.381 Q32.5894 447.355 32.5894 451.301 Q32.5894 456.044 35.6131 458.781 Q38.6368 461.518 43.8567 461.518 L64.0042 461.518 L64.0042 467.407 L28.3562 467.407 L28.3562 461.518 L33.8944 461.518 Q30.6797 459.418 29.0883 456.585 Q27.4968 453.72 27.4968 449.996 Q27.4968 443.854 31.3163 440.703 Q35.1038 437.552 42.4881 437.552 Z" fill="#000000" fill-rule="evenodd" fill-opacity="1" /><path clip-path="url(#clip680)" d="M28.3562 425.87 L28.3562 420.014 L64.0042 420.014 L64.0042 425.87 L28.3562 425.87 M14.479 425.87 L14.479 420.014 L21.895 420.014 L21.895 425.87 L14.479 425.87 Z" fill="#000000" fill-rule="evenodd" fill-opacity="1" /><path clip-path="url(#clip680)" d="M46.0847 391.559 Q46.0847 398.657 47.7079 401.394 Q49.3312 404.132 53.2461 404.132 Q56.3653 404.132 58.2114 402.095 Q60.0256 400.026 60.0256 396.493 Q60.0256 391.623 56.5881 388.695 Q53.1188 385.735 47.3897 385.735 L46.0847 385.735 L46.0847 391.559 M43.6657 379.878 L64.0042 379.878 L64.0042 385.735 L58.5933 385.735 Q61.8398 387.74 63.3994 390.732 Q64.9272 393.724 64.9272 398.052 Q64.9272 403.527 61.8716 406.773 Q58.7843 409.988 53.6281 409.988 Q47.6125 409.988 44.5569 405.978 Q41.5014 401.935 41.5014 393.946 L41.5014 385.735 L40.9285 385.735 Q36.8862 385.735 34.6901 388.408 Q32.4621 391.05 32.4621 395.856 Q32.4621 398.912 33.1941 401.808 Q33.9262 404.704 35.3903 407.378 L29.9795 407.378 Q28.7381 404.163 28.1334 401.14 Q27.4968 398.116 27.4968 395.251 Q27.4968 387.517 31.5072 383.698 Q35.5176 379.878 43.6657 379.878 Z" fill="#000000" fill-rule="evenodd" fill-opacity="1" /><path clip-path="url(#clip680)" d="M29.4065 324.369 L34.9447 324.369 Q33.6716 326.852 33.035 329.525 Q32.3984 332.199 32.3984 335.064 Q32.3984 339.424 33.7352 341.62 Q35.072 343.785 37.7456 343.785 Q39.7826 343.785 40.9603 342.225 Q42.1061 340.665 43.1565 335.955 L43.6021 333.95 Q44.9389 327.711 47.3897 325.101 Q49.8086 322.46 54.1691 322.46 Q59.1344 322.46 62.0308 326.406 Q64.9272 330.321 64.9272 337.196 Q64.9272 340.061 64.3543 343.18 Q63.8132 346.267 62.6992 349.705 L56.6518 349.705 Q58.3387 346.458 59.198 343.307 Q60.0256 340.156 60.0256 337.069 Q60.0256 332.931 58.6251 330.703 Q57.1929 328.475 54.6147 328.475 Q52.2276 328.475 50.9545 330.098 Q49.6813 331.69 48.5037 337.133 L48.0262 339.17 Q46.8804 344.612 44.5251 347.031 Q42.138 349.45 38.0002 349.45 Q32.9713 349.45 30.2341 345.885 Q27.4968 342.321 27.4968 335.764 Q27.4968 332.517 27.9743 329.653 Q28.4517 326.788 29.4065 324.369 Z" fill="#000000" fill-rule="evenodd" fill-opacity="1" /><path clip-path="url(#clip680)" d="M18.2347 307.341 L28.3562 307.341 L28.3562 295.278 L32.9077 295.278 L32.9077 307.341 L52.2594 307.341 Q56.6199 307.341 57.8613 306.163 Q59.1026 304.954 59.1026 301.294 L59.1026 295.278 L64.0042 295.278 L64.0042 301.294 Q64.0042 308.073 61.4897 310.651 Q58.9434 313.229 52.2594 313.229 L32.9077 313.229 L32.9077 317.526 L28.3562 317.526 L28.3562 313.229 L18.2347 313.229 L18.2347 307.341 Z" fill="#000000" fill-rule="evenodd" fill-opacity="1" /><path clip-path="url(#clip680)" d="M33.8307 266.919 Q33.2578 267.905 33.0032 269.083 Q32.7167 270.229 32.7167 271.629 Q32.7167 276.595 35.9632 279.268 Q39.1779 281.91 45.2253 281.91 L64.0042 281.91 L64.0042 287.798 L28.3562 287.798 L28.3562 281.91 L33.8944 281.91 Q30.6479 280.064 29.0883 277.104 Q27.4968 274.144 27.4968 269.911 Q27.4968 269.306 27.5923 268.574 Q27.656 267.842 27.8151 266.951 L33.8307 266.919 Z" fill="#000000" fill-rule="evenodd" fill-opacity="1" /><path clip-path="url(#clip680)" d="M46.0847 244.575 Q46.0847 251.673 47.7079 254.41 Q49.3312 257.147 53.2461 257.147 Q56.3653 257.147 58.2114 255.11 Q60.0256 253.042 60.0256 249.509 Q60.0256 244.639 56.5881 241.711 Q53.1188 238.751 47.3897 238.751 L46.0847 238.751 L46.0847 244.575 M43.6657 232.894 L64.0042 232.894 L64.0042 238.751 L58.5933 238.751 Q61.8398 240.756 63.3994 243.748 Q64.9272 246.739 64.9272 251.068 Q64.9272 256.543 61.8716 259.789 Q58.7843 263.004 53.6281 263.004 Q47.6125 263.004 44.5569 258.993 Q41.5014 254.951 41.5014 246.962 L41.5014 238.751 L40.9285 238.751 Q36.8862 238.751 34.6901 241.424 Q32.4621 244.066 32.4621 248.872 Q32.4621 251.928 33.1941 254.824 Q33.9262 257.72 35.3903 260.394 L29.9795 260.394 Q28.7381 257.179 28.1334 254.156 Q27.4968 251.132 27.4968 248.267 Q27.4968 240.533 31.5072 236.713 Q35.5176 232.894 43.6657 232.894 Z" fill="#000000" fill-rule="evenodd" fill-opacity="1" /><path clip-path="url(#clip680)" d="M18.2347 215.038 L28.3562 215.038 L28.3562 202.975 L32.9077 202.975 L32.9077 215.038 L52.2594 215.038 Q56.6199 215.038 57.8613 213.861 Q59.1026 212.651 59.1026 208.991 L59.1026 202.975 L64.0042 202.975 L64.0042 208.991 Q64.0042 215.77 61.4897 218.348 Q58.9434 220.927 52.2594 220.927 L32.9077 220.927 L32.9077 225.223 L28.3562 225.223 L28.3562 220.927 L18.2347 220.927 L18.2347 215.038 Z" fill="#000000" fill-rule="evenodd" fill-opacity="1" /><path clip-path="url(#clip680)" d="M67.3143 180.441 Q73.68 182.923 75.6216 185.279 Q77.5631 187.634 77.5631 191.581 L77.5631 196.259 L72.6615 196.259 L72.6615 192.822 Q72.6615 190.403 71.5157 189.066 Q70.3699 187.729 66.1048 186.106 L63.4312 185.056 L28.3562 199.474 L28.3562 193.268 L56.238 182.128 L28.3562 170.988 L28.3562 164.781 L67.3143 180.441 Z" fill="#000000" fill-rule="evenodd" fill-opacity="1" /><path clip-path="url(#clip680)" d="M55.9197 155.201 L55.9197 148.485 L61.3942 148.485 L71.5793 153.705 L71.5793 157.811 L61.3942 155.201 L55.9197 155.201 Z" fill="#000000" fill-rule="evenodd" fill-opacity="1" /><path clip-path="url(#clip680)" d="M14.479 115.797 L14.479 102.302 L19.0304 102.302 L19.0304 109.94 L68.0464 109.94 L68.0464 102.302 L72.5979 102.302 L72.5979 115.797 L14.479 115.797 Z" fill="#000000" fill-rule="evenodd" fill-opacity="1" /><path clip-path="url(#clip680)" d="M43.0928 48.575 Q43.0928 51.3441 45.4481 52.9355 Q47.8034 54.4951 52.0048 54.4951 Q56.1425 54.4951 58.5296 52.9355 Q60.885 51.3441 60.885 48.575 Q60.885 45.8696 58.5296 44.31 Q56.1425 42.7186 52.0048 42.7186 Q47.8353 42.7186 45.48 44.31 Q43.0928 45.8696 43.0928 48.575 M39.0506 48.575 Q39.0506 43.5461 42.5517 40.5861 Q46.0529 37.626 52.0048 37.626 Q57.9567 37.626 61.4579 40.6179 Q64.9272 43.5779 64.9272 48.575 Q64.9272 53.6676 61.4579 56.6276 Q57.9567 59.5877 52.0048 59.5877 Q46.021 59.5877 42.5517 56.6276 Q39.0506 53.6358 39.0506 48.575 M19.667 81.4221 Q19.667 84.1593 22.0542 85.7507 Q24.4095 87.3103 28.5472 87.3103 Q32.7485 87.3103 35.1038 85.7507 Q37.4592 84.1912 37.4592 81.4221 Q37.4592 78.653 35.1038 77.0934 Q32.7485 75.502 28.5472 75.502 Q24.4413 75.502 22.0542 77.0934 Q19.667 78.6848 19.667 81.4221 M15.6248 52.6809 L15.6248 47.5883 L64.9272 77.3162 L64.9272 82.4088 L15.6248 52.6809 M15.6248 81.4221 Q15.6248 76.3932 19.1259 73.4013 Q22.5952 70.4094 28.5472 70.4094 Q34.5628 70.4094 38.0321 73.4013 Q41.5014 76.3613 41.5014 81.4221 Q41.5014 86.4828 38.0321 89.4429 Q34.5309 92.3711 28.5472 92.3711 Q22.6271 92.3711 19.1259 89.411 Q15.6248 86.451 15.6248 81.4221 Z" fill="#000000" fill-rule="evenodd" fill-opacity="1" /><path clip-path="url(#clip680)" d="M14.479 14.2002 L72.5979 14.2002 L72.5979 27.6955 L68.0464 27.6955 L68.0464 20.0885 L19.0304 20.0885 L19.0304 27.6955 L14.479 27.6955 L14.479 14.2002 Z" fill="#000000" fill-rule="evenodd" fill-opacity="1" /><circle clip-path="url(#clip682)" cx="264.778" cy="356.058" r="21.6" fill="#009af9" fill-rule="evenodd" fill-opacity="1" stroke="#000000" stroke-opacity="1" stroke-width="0"/>
<circle clip-path="url(#clip682)" cx="670.211" cy="354.085" r="21.6" fill="#009af9" fill-rule="evenodd" fill-opacity="1" stroke="#000000" stroke-opacity="1" stroke-width="0"/>
<circle clip-path="url(#clip682)" cx="1075.64" cy="309.188" r="21.6" fill="#009af9" fill-rule="evenodd" fill-opacity="1" stroke="#000000" stroke-opacity="1" stroke-width="0"/>
<circle clip-path="url(#clip682)" cx="1481.08" cy="296.854" r="21.6" fill="#009af9" fill-rule="evenodd" fill-opacity="1" stroke="#000000" stroke-opacity="1" stroke-width="0"/>
<circle clip-path="url(#clip682)" cx="1886.51" cy="167.591" r="21.6" fill="#009af9" fill-rule="evenodd" fill-opacity="1" stroke="#000000" stroke-opacity="1" stroke-width="0"/>
<circle clip-path="url(#clip682)" cx="2291.94" cy="86.1857" r="21.6" fill="#009af9" fill-rule="evenodd" fill-opacity="1" stroke="#000000" stroke-opacity="1" stroke-width="0"/>
<circle clip-path="url(#clip682)" cx="264.778" cy="1384.24" r="21.6" fill="#e26f46" fill-rule="evenodd" fill-opacity="1" stroke="#000000" stroke-opacity="1" stroke-width="0"/>
<circle clip-path="url(#clip682)" cx="670.211" cy="1030.49" r="21.6" fill="#e26f46" fill-rule="evenodd" fill-opacity="1" stroke="#000000" stroke-opacity="1" stroke-width="0"/>
<circle clip-path="url(#clip682)" cx="1075.64" cy="897.777" r="21.6" fill="#e26f46" fill-rule="evenodd" fill-opacity="1" stroke="#000000" stroke-opacity="1" stroke-width="0"/>
<circle clip-path="url(#clip682)" cx="1481.08" cy="588.928" r="21.6" fill="#e26f46" fill-rule="evenodd" fill-opacity="1" stroke="#000000" stroke-opacity="1" stroke-width="0"/>
<circle clip-path="url(#clip682)" cx="1886.51" cy="531.204" r="21.6" fill="#e26f46" fill-rule="evenodd" fill-opacity="1" stroke="#000000" stroke-opacity="1" stroke-width="0"/>
<circle clip-path="url(#clip682)" cx="2291.94" cy="363.459" r="21.6" fill="#e26f46" fill-rule="evenodd" fill-opacity="1" stroke="#000000" stroke-opacity="1" stroke-width="0"/>
<path clip-path="url(#clip680)" d="
M1356.28 1377.32 L2281.13 1377.32 L2281.13 1221.8 L1356.28 1221.8  Z
  " fill="#ffffff" fill-rule="evenodd" fill-opacity="1"/>
<polyline clip-path="url(#clip680)" style="stroke:#000000; stroke-linecap:round; stroke-linejoin:round; stroke-width:4; stroke-opacity:1; fill:none" points="
  1356.28,1377.32 2281.13,1377.32 2281.13,1221.8 1356.28,1221.8 1356.28,1377.32 
  "/>
<circle clip-path="url(#clip680)" cx="1451.78" cy="1273.64" r="23.04" fill="#009af9" fill-rule="evenodd" fill-opacity="1" stroke="#000000" stroke-opacity="1" stroke-width="0"/>
<path clip-path="url(#clip680)" d="M1551.96 1260.2 L1551.96 1273.18 L1557.84 1273.18 Q1561.1 1273.18 1562.88 1271.49 Q1564.67 1269.8 1564.67 1266.68 Q1564.67 1263.58 1562.88 1261.89 Q1561.1 1260.2 1557.84 1260.2 L1551.96 1260.2 M1547.28 1256.36 L1557.84 1256.36 Q1563.65 1256.36 1566.61 1258.99 Q1569.6 1261.61 1569.6 1266.68 Q1569.6 1271.8 1566.61 1274.41 Q1563.65 1277.03 1557.84 1277.03 L1551.96 1277.03 L1551.96 1290.92 L1547.28 1290.92 L1547.28 1256.36 Z" fill="#000000" fill-rule="evenodd" fill-opacity="1" /><path clip-path="url(#clip680)" d="M1589.87 1268.97 Q1589.16 1268.55 1588.3 1268.37 Q1587.47 1268.16 1586.45 1268.16 Q1582.84 1268.16 1580.89 1270.52 Q1578.97 1272.86 1578.97 1277.26 L1578.97 1290.92 L1574.69 1290.92 L1574.69 1264.99 L1578.97 1264.99 L1578.97 1269.02 Q1580.31 1266.66 1582.47 1265.52 Q1584.62 1264.36 1587.7 1264.36 Q1588.14 1264.36 1588.67 1264.43 Q1589.2 1264.48 1589.85 1264.6 L1589.87 1268.97 Z" fill="#000000" fill-rule="evenodd" fill-opacity="1" /><path clip-path="url(#clip680)" d="M1603.35 1267.98 Q1599.92 1267.98 1597.93 1270.66 Q1595.94 1273.32 1595.94 1277.98 Q1595.94 1282.63 1597.91 1285.31 Q1599.9 1287.98 1603.35 1287.98 Q1606.75 1287.98 1608.74 1285.29 Q1610.73 1282.61 1610.73 1277.98 Q1610.73 1273.37 1608.74 1270.68 Q1606.75 1267.98 1603.35 1267.98 M1603.35 1264.36 Q1608.9 1264.36 1612.07 1267.98 Q1615.24 1271.59 1615.24 1277.98 Q1615.24 1284.34 1612.07 1287.98 Q1608.9 1291.59 1603.35 1291.59 Q1597.77 1291.59 1594.6 1287.98 Q1591.45 1284.34 1591.45 1277.98 Q1591.45 1271.59 1594.6 1267.98 Q1597.77 1264.36 1603.35 1264.36 Z" fill="#000000" fill-rule="evenodd" fill-opacity="1" /><path clip-path="url(#clip680)" d="M1639.36 1268.92 L1639.36 1254.9 L1643.62 1254.9 L1643.62 1290.92 L1639.36 1290.92 L1639.36 1287.03 Q1638.02 1289.34 1635.96 1290.48 Q1633.92 1291.59 1631.05 1291.59 Q1626.35 1291.59 1623.39 1287.84 Q1620.45 1284.09 1620.45 1277.98 Q1620.45 1271.86 1623.39 1268.11 Q1626.35 1264.36 1631.05 1264.36 Q1633.92 1264.36 1635.96 1265.5 Q1638.02 1266.61 1639.36 1268.92 M1624.85 1277.98 Q1624.85 1282.67 1626.77 1285.36 Q1628.72 1288.02 1632.1 1288.02 Q1635.47 1288.02 1637.42 1285.36 Q1639.36 1282.67 1639.36 1277.98 Q1639.36 1273.28 1637.42 1270.61 Q1635.47 1267.93 1632.1 1267.93 Q1628.72 1267.93 1626.77 1270.61 Q1624.85 1273.28 1624.85 1277.98 Z" fill="#000000" fill-rule="evenodd" fill-opacity="1" /><path clip-path="url(#clip680)" d="M1651.96 1280.68 L1651.96 1264.99 L1656.22 1264.99 L1656.22 1280.52 Q1656.22 1284.2 1657.65 1286.05 Q1659.09 1287.88 1661.96 1287.88 Q1665.41 1287.88 1667.4 1285.68 Q1669.41 1283.48 1669.41 1279.69 L1669.41 1264.99 L1673.67 1264.99 L1673.67 1290.92 L1669.41 1290.92 L1669.41 1286.93 Q1667.86 1289.29 1665.8 1290.45 Q1663.76 1291.59 1661.05 1291.59 Q1656.59 1291.59 1654.27 1288.81 Q1651.96 1286.03 1651.96 1280.68 M1662.67 1264.36 L1662.67 1264.36 Z" fill="#000000" fill-rule="evenodd" fill-opacity="1" /><path clip-path="url(#clip680)" d="M1701.1 1265.98 L1701.1 1269.97 Q1699.29 1268.97 1697.47 1268.48 Q1695.66 1267.98 1693.81 1267.98 Q1689.66 1267.98 1687.37 1270.61 Q1685.08 1273.23 1685.08 1277.98 Q1685.08 1282.72 1687.37 1285.36 Q1689.66 1287.98 1693.81 1287.98 Q1695.66 1287.98 1697.47 1287.49 Q1699.29 1286.98 1701.1 1285.98 L1701.1 1289.92 Q1699.32 1290.75 1697.4 1291.17 Q1695.5 1291.59 1693.35 1291.59 Q1687.49 1291.59 1684.04 1287.91 Q1680.59 1284.23 1680.59 1277.98 Q1680.59 1271.63 1684.06 1268 Q1687.56 1264.36 1693.62 1264.36 Q1695.59 1264.36 1697.47 1264.78 Q1699.34 1265.17 1701.1 1265.98 Z" fill="#000000" fill-rule="evenodd" fill-opacity="1" /><path clip-path="url(#clip680)" d="M1730.68 1276.89 L1730.68 1278.97 L1711.1 1278.97 Q1711.38 1283.37 1713.74 1285.68 Q1716.12 1287.98 1720.36 1287.98 Q1722.81 1287.98 1725.1 1287.37 Q1727.42 1286.77 1729.69 1285.57 L1729.69 1289.6 Q1727.4 1290.57 1724.99 1291.08 Q1722.58 1291.59 1720.1 1291.59 Q1713.9 1291.59 1710.27 1287.98 Q1706.66 1284.36 1706.66 1278.21 Q1706.66 1271.84 1710.08 1268.11 Q1713.53 1264.36 1719.36 1264.36 Q1724.59 1264.36 1727.63 1267.74 Q1730.68 1271.1 1730.68 1276.89 M1726.42 1275.64 Q1726.38 1272.14 1724.46 1270.06 Q1722.56 1267.98 1719.41 1267.98 Q1715.84 1267.98 1713.69 1269.99 Q1711.56 1272 1711.24 1275.66 L1726.42 1275.64 Z" fill="#000000" fill-rule="evenodd" fill-opacity="1" /><path clip-path="url(#clip680)" d="M1759.22 1275.27 L1759.22 1290.92 L1754.97 1290.92 L1754.97 1275.41 Q1754.97 1271.73 1753.53 1269.9 Q1752.09 1268.07 1749.22 1268.07 Q1745.78 1268.07 1743.78 1270.27 Q1741.79 1272.47 1741.79 1276.26 L1741.79 1290.92 L1737.51 1290.92 L1737.51 1264.99 L1741.79 1264.99 L1741.79 1269.02 Q1743.32 1266.68 1745.38 1265.52 Q1747.47 1264.36 1750.17 1264.36 Q1754.64 1264.36 1756.93 1267.14 Q1759.22 1269.9 1759.22 1275.27 Z" fill="#000000" fill-rule="evenodd" fill-opacity="1" /><path clip-path="url(#clip680)" d="M1771.93 1257.63 L1771.93 1264.99 L1780.71 1264.99 L1780.71 1268.3 L1771.93 1268.3 L1771.93 1282.37 Q1771.93 1285.54 1772.79 1286.45 Q1773.67 1287.35 1776.33 1287.35 L1780.71 1287.35 L1780.71 1290.92 L1776.33 1290.92 Q1771.4 1290.92 1769.53 1289.09 Q1767.65 1287.23 1767.65 1282.37 L1767.65 1268.3 L1764.53 1268.3 L1764.53 1264.99 L1767.65 1264.99 L1767.65 1257.63 L1771.93 1257.63 Z" fill="#000000" fill-rule="evenodd" fill-opacity="1" /><path clip-path="url(#clip680)" d="M1822.93 1275.27 L1822.93 1290.92 L1818.67 1290.92 L1818.67 1275.41 Q1818.67 1271.73 1817.23 1269.9 Q1815.8 1268.07 1812.93 1268.07 Q1809.48 1268.07 1807.49 1270.27 Q1805.5 1272.47 1805.5 1276.26 L1805.5 1290.92 L1801.21 1290.92 L1801.21 1264.99 L1805.5 1264.99 L1805.5 1269.02 Q1807.02 1266.68 1809.09 1265.52 Q1811.17 1264.36 1813.88 1264.36 Q1818.34 1264.36 1820.64 1267.14 Q1822.93 1269.9 1822.93 1275.27 Z" fill="#000000" fill-rule="evenodd" fill-opacity="1" /><path clip-path="url(#clip680)" d="M1831.42 1264.99 L1835.68 1264.99 L1835.68 1290.92 L1831.42 1290.92 L1831.42 1264.99 M1831.42 1254.9 L1835.68 1254.9 L1835.68 1260.29 L1831.42 1260.29 L1831.42 1254.9 Z" fill="#000000" fill-rule="evenodd" fill-opacity="1" /><path clip-path="url(#clip680)" d="M1866.77 1276.89 L1866.77 1278.97 L1847.19 1278.97 Q1847.46 1283.37 1849.83 1285.68 Q1852.21 1287.98 1856.45 1287.98 Q1858.9 1287.98 1861.19 1287.37 Q1863.51 1286.77 1865.77 1285.57 L1865.77 1289.6 Q1863.48 1290.57 1861.08 1291.08 Q1858.67 1291.59 1856.19 1291.59 Q1849.99 1291.59 1846.35 1287.98 Q1842.74 1284.36 1842.74 1278.21 Q1842.74 1271.84 1846.17 1268.11 Q1849.62 1264.36 1855.45 1264.36 Q1860.68 1264.36 1863.71 1267.74 Q1866.77 1271.1 1866.77 1276.89 M1862.51 1275.64 Q1862.46 1272.14 1860.54 1270.06 Q1858.65 1267.98 1855.5 1267.98 Q1851.93 1267.98 1849.78 1269.99 Q1847.65 1272 1847.33 1275.66 L1862.51 1275.64 Z" fill="#000000" fill-rule="evenodd" fill-opacity="1" /><path clip-path="url(#clip680)" d="M1892.95 1287.03 L1892.95 1300.78 L1888.67 1300.78 L1888.67 1264.99 L1892.95 1264.99 L1892.95 1268.92 Q1894.29 1266.61 1896.33 1265.5 Q1898.39 1264.36 1901.24 1264.36 Q1905.96 1264.36 1908.9 1268.11 Q1911.86 1271.86 1911.86 1277.98 Q1911.86 1284.09 1908.9 1287.84 Q1905.96 1291.59 1901.24 1291.59 Q1898.39 1291.59 1896.33 1290.48 Q1894.29 1289.34 1892.95 1287.03 M1907.44 1277.98 Q1907.44 1273.28 1905.5 1270.61 Q1903.58 1267.93 1900.2 1267.93 Q1896.82 1267.93 1894.87 1270.61 Q1892.95 1273.28 1892.95 1277.98 Q1892.95 1282.67 1894.87 1285.36 Q1896.82 1288.02 1900.2 1288.02 Q1903.58 1288.02 1905.5 1285.36 Q1907.44 1282.67 1907.44 1277.98 Z" fill="#000000" fill-rule="evenodd" fill-opacity="1" /><path clip-path="url(#clip680)" d="M1933.95 1268.97 Q1933.23 1268.55 1932.37 1268.37 Q1931.54 1268.16 1930.52 1268.16 Q1926.91 1268.16 1924.96 1270.52 Q1923.04 1272.86 1923.04 1277.26 L1923.04 1290.92 L1918.76 1290.92 L1918.76 1264.99 L1923.04 1264.99 L1923.04 1269.02 Q1924.39 1266.66 1926.54 1265.52 Q1928.69 1264.36 1931.77 1264.36 Q1932.21 1264.36 1932.74 1264.43 Q1933.27 1264.48 1933.92 1264.6 L1933.95 1268.97 Z" fill="#000000" fill-rule="evenodd" fill-opacity="1" /><path clip-path="url(#clip680)" d="M1947.42 1267.98 Q1943.99 1267.98 1942 1270.66 Q1940.01 1273.32 1940.01 1277.98 Q1940.01 1282.63 1941.98 1285.31 Q1943.97 1287.98 1947.42 1287.98 Q1950.82 1287.98 1952.81 1285.29 Q1954.8 1282.61 1954.8 1277.98 Q1954.8 1273.37 1952.81 1270.68 Q1950.82 1267.98 1947.42 1267.98 M1947.42 1264.36 Q1952.97 1264.36 1956.14 1267.98 Q1959.32 1271.59 1959.32 1277.98 Q1959.32 1284.34 1956.14 1287.98 Q1952.97 1291.59 1947.42 1291.59 Q1941.84 1291.59 1938.67 1287.98 Q1935.52 1284.34 1935.52 1277.98 Q1935.52 1271.59 1938.67 1267.98 Q1941.84 1264.36 1947.42 1264.36 Z" fill="#000000" fill-rule="evenodd" fill-opacity="1" /><path clip-path="url(#clip680)" d="M1963.9 1264.99 L1968.16 1264.99 L1973.48 1285.22 L1978.78 1264.99 L1983.81 1264.99 L1989.13 1285.22 L1994.43 1264.99 L1998.69 1264.99 L1991.91 1290.92 L1986.89 1290.92 L1981.31 1269.67 L1975.7 1290.92 L1970.68 1290.92 L1963.9 1264.99 Z" fill="#000000" fill-rule="evenodd" fill-opacity="1" /><path clip-path="url(#clip680)" d="M2016.93 1277.88 Q2011.77 1277.88 2009.78 1279.06 Q2007.79 1280.24 2007.79 1283.09 Q2007.79 1285.36 2009.27 1286.7 Q2010.77 1288.02 2013.34 1288.02 Q2016.88 1288.02 2019.01 1285.52 Q2021.17 1283 2021.17 1278.83 L2021.17 1277.88 L2016.93 1277.88 M2025.43 1276.12 L2025.43 1290.92 L2021.17 1290.92 L2021.17 1286.98 Q2019.71 1289.34 2017.53 1290.48 Q2015.36 1291.59 2012.21 1291.59 Q2008.23 1291.59 2005.87 1289.36 Q2003.53 1287.12 2003.53 1283.37 Q2003.53 1278.99 2006.45 1276.77 Q2009.38 1274.55 2015.2 1274.55 L2021.17 1274.55 L2021.17 1274.13 Q2021.17 1271.19 2019.22 1269.6 Q2017.3 1267.98 2013.81 1267.98 Q2011.58 1267.98 2009.48 1268.51 Q2007.37 1269.04 2005.43 1270.11 L2005.43 1266.17 Q2007.76 1265.27 2009.96 1264.83 Q2012.16 1264.36 2014.25 1264.36 Q2019.87 1264.36 2022.65 1267.28 Q2025.43 1270.2 2025.43 1276.12 Z" fill="#000000" fill-rule="evenodd" fill-opacity="1" /><path clip-path="url(#clip680)" d="M2051.26 1268.92 L2051.26 1254.9 L2055.52 1254.9 L2055.52 1290.92 L2051.26 1290.92 L2051.26 1287.03 Q2049.92 1289.34 2047.86 1290.48 Q2045.82 1291.59 2042.95 1291.59 Q2038.25 1291.59 2035.29 1287.84 Q2032.35 1284.09 2032.35 1277.98 Q2032.35 1271.86 2035.29 1268.11 Q2038.25 1264.36 2042.95 1264.36 Q2045.82 1264.36 2047.86 1265.5 Q2049.92 1266.61 2051.26 1268.92 M2036.75 1277.98 Q2036.75 1282.67 2038.67 1285.36 Q2040.61 1288.02 2043.99 1288.02 Q2047.37 1288.02 2049.32 1285.36 Q2051.26 1282.67 2051.26 1277.98 Q2051.26 1273.28 2049.32 1270.61 Q2047.37 1267.93 2043.99 1267.93 Q2040.61 1267.93 2038.67 1270.61 Q2036.75 1273.28 2036.75 1277.98 Z" fill="#000000" fill-rule="evenodd" fill-opacity="1" /><path clip-path="url(#clip680)" d="M2062.44 1264.99 L2082.67 1264.99 L2082.67 1268.88 L2066.65 1287.51 L2082.67 1287.51 L2082.67 1290.92 L2061.86 1290.92 L2061.86 1287.03 L2077.88 1268.39 L2062.44 1268.39 L2062.44 1264.99 Z" fill="#000000" fill-rule="evenodd" fill-opacity="1" /><path clip-path="url(#clip680)" d="M2089.18 1264.99 L2093.44 1264.99 L2093.44 1290.92 L2089.18 1290.92 L2089.18 1264.99 M2089.18 1254.9 L2093.44 1254.9 L2093.44 1260.29 L2089.18 1260.29 L2089.18 1254.9 Z" fill="#000000" fill-rule="evenodd" fill-opacity="1" /><path clip-path="url(#clip680)" d="M2136.03 1277.98 Q2136.03 1273.28 2134.08 1270.61 Q2132.16 1267.93 2128.78 1267.93 Q2125.4 1267.93 2123.46 1270.61 Q2121.54 1273.28 2121.54 1277.98 Q2121.54 1282.67 2123.46 1285.36 Q2125.4 1288.02 2128.78 1288.02 Q2132.16 1288.02 2134.08 1285.36 Q2136.03 1282.67 2136.03 1277.98 M2121.54 1268.92 Q2122.88 1266.61 2124.92 1265.5 Q2126.98 1264.36 2129.82 1264.36 Q2134.55 1264.36 2137.49 1268.11 Q2140.45 1271.86 2140.45 1277.98 Q2140.45 1284.09 2137.49 1287.84 Q2134.55 1291.59 2129.82 1291.59 Q2126.98 1291.59 2124.92 1290.48 Q2122.88 1289.34 2121.54 1287.03 L2121.54 1290.92 L2117.25 1290.92 L2117.25 1254.9 L2121.54 1254.9 L2121.54 1268.92 Z" fill="#000000" fill-rule="evenodd" fill-opacity="1" /><path clip-path="url(#clip680)" d="M2159.29 1277.88 Q2154.13 1277.88 2152.14 1279.06 Q2150.15 1280.24 2150.15 1283.09 Q2150.15 1285.36 2151.63 1286.7 Q2153.13 1288.02 2155.7 1288.02 Q2159.25 1288.02 2161.37 1285.52 Q2163.53 1283 2163.53 1278.83 L2163.53 1277.88 L2159.29 1277.88 M2167.79 1276.12 L2167.79 1290.92 L2163.53 1290.92 L2163.53 1286.98 Q2162.07 1289.34 2159.89 1290.48 Q2157.72 1291.59 2154.57 1291.59 Q2150.59 1291.59 2148.23 1289.36 Q2145.89 1287.12 2145.89 1283.37 Q2145.89 1278.99 2148.81 1276.77 Q2151.75 1274.55 2157.56 1274.55 L2163.53 1274.55 L2163.53 1274.13 Q2163.53 1271.19 2161.58 1269.6 Q2159.66 1267.98 2156.17 1267.98 Q2153.94 1267.98 2151.84 1268.51 Q2149.73 1269.04 2147.79 1270.11 L2147.79 1266.17 Q2150.12 1265.27 2152.32 1264.83 Q2154.52 1264.36 2156.61 1264.36 Q2162.23 1264.36 2165.01 1267.28 Q2167.79 1270.2 2167.79 1276.12 Z" fill="#000000" fill-rule="evenodd" fill-opacity="1" /><path clip-path="url(#clip680)" d="M2193.62 1268.92 L2193.62 1254.9 L2197.88 1254.9 L2197.88 1290.92 L2193.62 1290.92 L2193.62 1287.03 Q2192.28 1289.34 2190.22 1290.48 Q2188.18 1291.59 2185.31 1291.59 Q2180.61 1291.59 2177.65 1287.84 Q2174.71 1284.09 2174.71 1277.98 Q2174.71 1271.86 2177.65 1268.11 Q2180.61 1264.36 2185.31 1264.36 Q2188.18 1264.36 2190.22 1265.5 Q2192.28 1266.61 2193.62 1268.92 M2179.11 1277.98 Q2179.11 1282.67 2181.03 1285.36 Q2182.97 1288.02 2186.35 1288.02 Q2189.73 1288.02 2191.68 1285.36 Q2193.62 1282.67 2193.62 1277.98 Q2193.62 1273.28 2191.68 1270.61 Q2189.73 1267.93 2186.35 1267.93 Q2182.97 1267.93 2181.03 1270.61 Q2179.11 1273.28 2179.11 1277.98 Z" fill="#000000" fill-rule="evenodd" fill-opacity="1" /><path clip-path="url(#clip680)" d="M2218.43 1277.88 Q2213.27 1277.88 2211.28 1279.06 Q2209.29 1280.24 2209.29 1283.09 Q2209.29 1285.36 2210.77 1286.7 Q2212.28 1288.02 2214.85 1288.02 Q2218.39 1288.02 2220.52 1285.52 Q2222.67 1283 2222.67 1278.83 L2222.67 1277.88 L2218.43 1277.88 M2226.93 1276.12 L2226.93 1290.92 L2222.67 1290.92 L2222.67 1286.98 Q2221.21 1289.34 2219.04 1290.48 Q2216.86 1291.59 2213.71 1291.59 Q2209.73 1291.59 2207.37 1289.36 Q2205.03 1287.12 2205.03 1283.37 Q2205.03 1278.99 2207.95 1276.77 Q2210.89 1274.55 2216.7 1274.55 L2222.67 1274.55 L2222.67 1274.13 Q2222.67 1271.19 2220.73 1269.6 Q2218.81 1267.98 2215.31 1267.98 Q2213.09 1267.98 2210.98 1268.51 Q2208.87 1269.04 2206.93 1270.11 L2206.93 1266.17 Q2209.27 1265.27 2211.47 1264.83 Q2213.67 1264.36 2215.75 1264.36 Q2221.37 1264.36 2224.15 1267.28 Q2226.93 1270.2 2226.93 1276.12 Z" fill="#000000" fill-rule="evenodd" fill-opacity="1" /><path clip-path="url(#clip680)" d="M2247.83 1252.84 L2252.44 1252.84 L2244.89 1261.54 L2241.35 1261.54 L2247.83 1252.84 M2257.25 1275.27 L2257.25 1290.92 L2252.99 1290.92 L2252.99 1275.41 Q2252.99 1271.73 2251.56 1269.9 Q2250.12 1268.07 2247.25 1268.07 Q2243.81 1268.07 2241.81 1270.27 Q2239.82 1272.47 2239.82 1276.26 L2239.82 1290.92 L2235.54 1290.92 L2235.54 1264.99 L2239.82 1264.99 L2239.82 1269.02 Q2241.35 1266.68 2243.41 1265.52 Q2245.49 1264.36 2248.2 1264.36 Q2252.67 1264.36 2254.96 1267.14 Q2257.25 1269.9 2257.25 1275.27 Z" fill="#000000" fill-rule="evenodd" fill-opacity="1" /><circle clip-path="url(#clip680)" cx="1451.78" cy="1325.48" r="23.04" fill="#e26f46" fill-rule="evenodd" fill-opacity="1" stroke="#000000" stroke-opacity="1" stroke-width="0"/>
<path clip-path="url(#clip680)" d="M1551.96 1312.04 L1551.96 1325.02 L1557.84 1325.02 Q1561.1 1325.02 1562.88 1323.33 Q1564.67 1321.64 1564.67 1318.52 Q1564.67 1315.42 1562.88 1313.73 Q1561.1 1312.04 1557.84 1312.04 L1551.96 1312.04 M1547.28 1308.2 L1557.84 1308.2 Q1563.65 1308.2 1566.61 1310.83 Q1569.6 1313.45 1569.6 1318.52 Q1569.6 1323.64 1566.61 1326.25 Q1563.65 1328.87 1557.84 1328.87 L1551.96 1328.87 L1551.96 1342.76 L1547.28 1342.76 L1547.28 1308.2 Z" fill="#000000" fill-rule="evenodd" fill-opacity="1" /><path clip-path="url(#clip680)" d="M1589.87 1320.81 Q1589.16 1320.39 1588.3 1320.21 Q1587.47 1320 1586.45 1320 Q1582.84 1320 1580.89 1322.36 Q1578.97 1324.7 1578.97 1329.1 L1578.97 1342.76 L1574.69 1342.76 L1574.69 1316.83 L1578.97 1316.83 L1578.97 1320.86 Q1580.31 1318.5 1582.47 1317.36 Q1584.62 1316.2 1587.7 1316.2 Q1588.14 1316.2 1588.67 1316.27 Q1589.2 1316.32 1589.85 1316.44 L1589.87 1320.81 Z" fill="#000000" fill-rule="evenodd" fill-opacity="1" /><path clip-path="url(#clip680)" d="M1603.35 1319.82 Q1599.92 1319.82 1597.93 1322.5 Q1595.94 1325.16 1595.94 1329.82 Q1595.94 1334.47 1597.91 1337.15 Q1599.9 1339.82 1603.35 1339.82 Q1606.75 1339.82 1608.74 1337.13 Q1610.73 1334.45 1610.73 1329.82 Q1610.73 1325.21 1608.74 1322.52 Q1606.75 1319.82 1603.35 1319.82 M1603.35 1316.2 Q1608.9 1316.2 1612.07 1319.82 Q1615.24 1323.43 1615.24 1329.82 Q1615.24 1336.18 1612.07 1339.82 Q1608.9 1343.43 1603.35 1343.43 Q1597.77 1343.43 1594.6 1339.82 Q1591.45 1336.18 1591.45 1329.82 Q1591.45 1323.43 1594.6 1319.82 Q1597.77 1316.2 1603.35 1316.2 Z" fill="#000000" fill-rule="evenodd" fill-opacity="1" /><path clip-path="url(#clip680)" d="M1639.36 1320.76 L1639.36 1306.74 L1643.62 1306.74 L1643.62 1342.76 L1639.36 1342.76 L1639.36 1338.87 Q1638.02 1341.18 1635.96 1342.32 Q1633.92 1343.43 1631.05 1343.43 Q1626.35 1343.43 1623.39 1339.68 Q1620.45 1335.93 1620.45 1329.82 Q1620.45 1323.7 1623.39 1319.95 Q1626.35 1316.2 1631.05 1316.2 Q1633.92 1316.2 1635.96 1317.34 Q1638.02 1318.45 1639.36 1320.76 M1624.85 1329.82 Q1624.85 1334.51 1626.77 1337.2 Q1628.72 1339.86 1632.1 1339.86 Q1635.47 1339.86 1637.42 1337.2 Q1639.36 1334.51 1639.36 1329.82 Q1639.36 1325.12 1637.42 1322.45 Q1635.47 1319.77 1632.1 1319.77 Q1628.72 1319.77 1626.77 1322.45 Q1624.85 1325.12 1624.85 1329.82 Z" fill="#000000" fill-rule="evenodd" fill-opacity="1" /><path clip-path="url(#clip680)" d="M1651.96 1332.52 L1651.96 1316.83 L1656.22 1316.83 L1656.22 1332.36 Q1656.22 1336.04 1657.65 1337.89 Q1659.09 1339.72 1661.96 1339.72 Q1665.41 1339.72 1667.4 1337.52 Q1669.41 1335.32 1669.41 1331.53 L1669.41 1316.83 L1673.67 1316.83 L1673.67 1342.76 L1669.41 1342.76 L1669.41 1338.77 Q1667.86 1341.13 1665.8 1342.29 Q1663.76 1343.43 1661.05 1343.43 Q1656.59 1343.43 1654.27 1340.65 Q1651.96 1337.87 1651.96 1332.52 M1662.67 1316.2 L1662.67 1316.2 Z" fill="#000000" fill-rule="evenodd" fill-opacity="1" /><path clip-path="url(#clip680)" d="M1701.1 1317.82 L1701.1 1321.81 Q1699.29 1320.81 1697.47 1320.32 Q1695.66 1319.82 1693.81 1319.82 Q1689.66 1319.82 1687.37 1322.45 Q1685.08 1325.07 1685.08 1329.82 Q1685.08 1334.56 1687.37 1337.2 Q1689.66 1339.82 1693.81 1339.82 Q1695.66 1339.82 1697.47 1339.33 Q1699.29 1338.82 1701.1 1337.82 L1701.1 1341.76 Q1699.32 1342.59 1697.4 1343.01 Q1695.5 1343.43 1693.35 1343.43 Q1687.49 1343.43 1684.04 1339.75 Q1680.59 1336.07 1680.59 1329.82 Q1680.59 1323.47 1684.06 1319.84 Q1687.56 1316.2 1693.62 1316.2 Q1695.59 1316.2 1697.47 1316.62 Q1699.34 1317.01 1701.1 1317.82 Z" fill="#000000" fill-rule="evenodd" fill-opacity="1" /><path clip-path="url(#clip680)" d="M1730.68 1328.73 L1730.68 1330.81 L1711.1 1330.81 Q1711.38 1335.21 1713.74 1337.52 Q1716.12 1339.82 1720.36 1339.82 Q1722.81 1339.82 1725.1 1339.21 Q1727.42 1338.61 1729.69 1337.41 L1729.69 1341.44 Q1727.4 1342.41 1724.99 1342.92 Q1722.58 1343.43 1720.1 1343.43 Q1713.9 1343.43 1710.27 1339.82 Q1706.66 1336.2 1706.66 1330.05 Q1706.66 1323.68 1710.08 1319.95 Q1713.53 1316.2 1719.36 1316.2 Q1724.59 1316.2 1727.63 1319.58 Q1730.68 1322.94 1730.68 1328.73 M1726.42 1327.48 Q1726.38 1323.98 1724.46 1321.9 Q1722.56 1319.82 1719.41 1319.82 Q1715.84 1319.82 1713.69 1321.83 Q1711.56 1323.84 1711.24 1327.5 L1726.42 1327.48 Z" fill="#000000" fill-rule="evenodd" fill-opacity="1" /><path clip-path="url(#clip680)" d="M1759.22 1327.11 L1759.22 1342.76 L1754.97 1342.76 L1754.97 1327.25 Q1754.97 1323.57 1753.53 1321.74 Q1752.09 1319.91 1749.22 1319.91 Q1745.78 1319.91 1743.78 1322.11 Q1741.79 1324.31 1741.79 1328.1 L1741.79 1342.76 L1737.51 1342.76 L1737.51 1316.83 L1741.79 1316.83 L1741.79 1320.86 Q1743.32 1318.52 1745.38 1317.36 Q1747.47 1316.2 1750.17 1316.2 Q1754.64 1316.2 1756.93 1318.98 Q1759.22 1321.74 1759.22 1327.11 Z" fill="#000000" fill-rule="evenodd" fill-opacity="1" /><path clip-path="url(#clip680)" d="M1771.93 1309.47 L1771.93 1316.83 L1780.71 1316.83 L1780.71 1320.14 L1771.93 1320.14 L1771.93 1334.21 Q1771.93 1337.38 1772.79 1338.29 Q1773.67 1339.19 1776.33 1339.19 L1780.71 1339.19 L1780.71 1342.76 L1776.33 1342.76 Q1771.4 1342.76 1769.53 1340.93 Q1767.65 1339.07 1767.65 1334.21 L1767.65 1320.14 L1764.53 1320.14 L1764.53 1316.83 L1767.65 1316.83 L1767.65 1309.47 L1771.93 1309.47 Z" fill="#000000" fill-rule="evenodd" fill-opacity="1" /><path clip-path="url(#clip680)" d="M1805.5 1338.87 L1805.5 1352.62 L1801.21 1352.62 L1801.21 1316.83 L1805.5 1316.83 L1805.5 1320.76 Q1806.84 1318.45 1808.88 1317.34 Q1810.94 1316.2 1813.78 1316.2 Q1818.51 1316.2 1821.45 1319.95 Q1824.41 1323.7 1824.41 1329.82 Q1824.41 1335.93 1821.45 1339.68 Q1818.51 1343.43 1813.78 1343.43 Q1810.94 1343.43 1808.88 1342.32 Q1806.84 1341.18 1805.5 1338.87 M1819.99 1329.82 Q1819.99 1325.12 1818.04 1322.45 Q1816.12 1319.77 1812.74 1319.77 Q1809.36 1319.77 1807.42 1322.45 Q1805.5 1325.12 1805.5 1329.82 Q1805.5 1334.51 1807.42 1337.2 Q1809.36 1339.86 1812.74 1339.86 Q1816.12 1339.86 1818.04 1337.2 Q1819.99 1334.51 1819.99 1329.82 Z" fill="#000000" fill-rule="evenodd" fill-opacity="1" /><path clip-path="url(#clip680)" d="M1846.49 1320.81 Q1845.77 1320.39 1844.92 1320.21 Q1844.08 1320 1843.07 1320 Q1839.46 1320 1837.51 1322.36 Q1835.59 1324.7 1835.59 1329.1 L1835.59 1342.76 L1831.31 1342.76 L1831.31 1316.83 L1835.59 1316.83 L1835.59 1320.86 Q1836.93 1318.5 1839.08 1317.36 Q1841.24 1316.2 1844.32 1316.2 Q1844.76 1316.2 1845.29 1316.27 Q1845.82 1316.32 1846.47 1316.44 L1846.49 1320.81 Z" fill="#000000" fill-rule="evenodd" fill-opacity="1" /><path clip-path="url(#clip680)" d="M1859.96 1319.82 Q1856.54 1319.82 1854.55 1322.5 Q1852.56 1325.16 1852.56 1329.82 Q1852.56 1334.47 1854.52 1337.15 Q1856.52 1339.82 1859.96 1339.82 Q1863.37 1339.82 1865.36 1337.13 Q1867.35 1334.45 1867.35 1329.82 Q1867.35 1325.21 1865.36 1322.52 Q1863.37 1319.82 1859.96 1319.82 M1859.96 1316.2 Q1865.52 1316.2 1868.69 1319.82 Q1871.86 1323.43 1871.86 1329.82 Q1871.86 1336.18 1868.69 1339.82 Q1865.52 1343.43 1859.96 1343.43 Q1854.39 1343.43 1851.21 1339.82 Q1848.07 1336.18 1848.07 1329.82 Q1848.07 1323.43 1851.21 1319.82 Q1854.39 1316.2 1859.96 1316.2 Z" fill="#000000" fill-rule="evenodd" fill-opacity="1" /><path clip-path="url(#clip680)" d="M1876.45 1316.83 L1880.71 1316.83 L1886.03 1337.06 L1891.33 1316.83 L1896.35 1316.83 L1901.68 1337.06 L1906.98 1316.83 L1911.24 1316.83 L1904.45 1342.76 L1899.43 1342.76 L1893.85 1321.51 L1888.25 1342.76 L1883.23 1342.76 L1876.45 1316.83 Z" fill="#000000" fill-rule="evenodd" fill-opacity="1" /><path clip-path="url(#clip680)" d="M1929.48 1329.72 Q1924.32 1329.72 1922.33 1330.9 Q1920.33 1332.08 1920.33 1334.93 Q1920.33 1337.2 1921.82 1338.54 Q1923.32 1339.86 1925.89 1339.86 Q1929.43 1339.86 1931.56 1337.36 Q1933.71 1334.84 1933.71 1330.67 L1933.71 1329.72 L1929.48 1329.72 M1937.97 1327.96 L1937.97 1342.76 L1933.71 1342.76 L1933.71 1338.82 Q1932.26 1341.18 1930.08 1342.32 Q1927.9 1343.43 1924.76 1343.43 Q1920.77 1343.43 1918.41 1341.2 Q1916.08 1338.96 1916.08 1335.21 Q1916.08 1330.83 1918.99 1328.61 Q1921.93 1326.39 1927.74 1326.39 L1933.71 1326.39 L1933.71 1325.97 Q1933.71 1323.03 1931.77 1321.44 Q1929.85 1319.82 1926.35 1319.82 Q1924.13 1319.82 1922.02 1320.35 Q1919.92 1320.88 1917.97 1321.95 L1917.97 1318.01 Q1920.31 1317.11 1922.51 1316.67 Q1924.71 1316.2 1926.79 1316.2 Q1932.42 1316.2 1935.2 1319.12 Q1937.97 1322.04 1937.97 1327.96 Z" fill="#000000" fill-rule="evenodd" fill-opacity="1" /><path clip-path="url(#clip680)" d="M1963.81 1320.76 L1963.81 1306.74 L1968.07 1306.74 L1968.07 1342.76 L1963.81 1342.76 L1963.81 1338.87 Q1962.46 1341.18 1960.4 1342.32 Q1958.37 1343.43 1955.5 1343.43 Q1950.8 1343.43 1947.83 1339.68 Q1944.89 1335.93 1944.89 1329.82 Q1944.89 1323.7 1947.83 1319.95 Q1950.8 1316.2 1955.5 1316.2 Q1958.37 1316.2 1960.4 1317.34 Q1962.46 1318.45 1963.81 1320.76 M1949.29 1329.82 Q1949.29 1334.51 1951.21 1337.2 Q1953.16 1339.86 1956.54 1339.86 Q1959.92 1339.86 1961.86 1337.2 Q1963.81 1334.51 1963.81 1329.82 Q1963.81 1325.12 1961.86 1322.45 Q1959.92 1319.77 1956.54 1319.77 Q1953.16 1319.77 1951.21 1322.45 Q1949.29 1325.12 1949.29 1329.82 Z" fill="#000000" fill-rule="evenodd" fill-opacity="1" /><path clip-path="url(#clip680)" d="M1974.99 1316.83 L1995.22 1316.83 L1995.22 1320.72 L1979.2 1339.35 L1995.22 1339.35 L1995.22 1342.76 L1974.41 1342.76 L1974.41 1338.87 L1990.43 1320.23 L1974.99 1320.23 L1974.99 1316.83 Z" fill="#000000" fill-rule="evenodd" fill-opacity="1" /><path clip-path="url(#clip680)" d="M2001.72 1316.83 L2005.98 1316.83 L2005.98 1342.76 L2001.72 1342.76 L2001.72 1316.83 M2001.72 1306.74 L2005.98 1306.74 L2005.98 1312.13 L2001.72 1312.13 L2001.72 1306.74 Z" fill="#000000" fill-rule="evenodd" fill-opacity="1" /><path clip-path="url(#clip680)" d="M2048.57 1329.82 Q2048.57 1325.12 2046.63 1322.45 Q2044.71 1319.77 2041.33 1319.77 Q2037.95 1319.77 2036.01 1322.45 Q2034.08 1325.12 2034.08 1329.82 Q2034.08 1334.51 2036.01 1337.2 Q2037.95 1339.86 2041.33 1339.86 Q2044.71 1339.86 2046.63 1337.2 Q2048.57 1334.51 2048.57 1329.82 M2034.08 1320.76 Q2035.43 1318.45 2037.46 1317.34 Q2039.52 1316.2 2042.37 1316.2 Q2047.09 1316.2 2050.03 1319.95 Q2053 1323.7 2053 1329.82 Q2053 1335.93 2050.03 1339.68 Q2047.09 1343.43 2042.37 1343.43 Q2039.52 1343.43 2037.46 1342.32 Q2035.43 1341.18 2034.08 1338.87 L2034.08 1342.76 L2029.8 1342.76 L2029.8 1306.74 L2034.08 1306.74 L2034.08 1320.76 Z" fill="#000000" fill-rule="evenodd" fill-opacity="1" /><path clip-path="url(#clip680)" d="M2071.84 1329.72 Q2066.68 1329.72 2064.69 1330.9 Q2062.69 1332.08 2062.69 1334.93 Q2062.69 1337.2 2064.18 1338.54 Q2065.68 1339.86 2068.25 1339.86 Q2071.79 1339.86 2073.92 1337.36 Q2076.07 1334.84 2076.07 1330.67 L2076.07 1329.72 L2071.84 1329.72 M2080.33 1327.96 L2080.33 1342.76 L2076.07 1342.76 L2076.07 1338.82 Q2074.62 1341.18 2072.44 1342.32 Q2070.26 1343.43 2067.12 1343.43 Q2063.13 1343.43 2060.77 1341.2 Q2058.44 1338.96 2058.44 1335.21 Q2058.44 1330.83 2061.35 1328.61 Q2064.29 1326.39 2070.1 1326.39 L2076.07 1326.39 L2076.07 1325.97 Q2076.07 1323.03 2074.13 1321.44 Q2072.21 1319.82 2068.71 1319.82 Q2066.49 1319.82 2064.38 1320.35 Q2062.28 1320.88 2060.33 1321.95 L2060.33 1318.01 Q2062.67 1317.11 2064.87 1316.67 Q2067.07 1316.2 2069.15 1316.2 Q2074.78 1316.2 2077.56 1319.12 Q2080.33 1322.04 2080.33 1327.96 Z" fill="#000000" fill-rule="evenodd" fill-opacity="1" /><path clip-path="url(#clip680)" d="M2106.17 1320.76 L2106.17 1306.74 L2110.43 1306.74 L2110.43 1342.76 L2106.17 1342.76 L2106.17 1338.87 Q2104.82 1341.18 2102.76 1342.32 Q2100.73 1343.43 2097.86 1343.43 Q2093.16 1343.43 2090.19 1339.68 Q2087.25 1335.93 2087.25 1329.82 Q2087.25 1323.7 2090.19 1319.95 Q2093.16 1316.2 2097.86 1316.2 Q2100.73 1316.2 2102.76 1317.34 Q2104.82 1318.45 2106.17 1320.76 M2091.65 1329.82 Q2091.65 1334.51 2093.57 1337.2 Q2095.52 1339.86 2098.9 1339.86 Q2102.28 1339.86 2104.22 1337.2 Q2106.17 1334.51 2106.17 1329.82 Q2106.17 1325.12 2104.22 1322.45 Q2102.28 1319.77 2098.9 1319.77 Q2095.52 1319.77 2093.57 1322.45 Q2091.65 1325.12 2091.65 1329.82 Z" fill="#000000" fill-rule="evenodd" fill-opacity="1" /><path clip-path="url(#clip680)" d="M2130.98 1329.72 Q2125.82 1329.72 2123.83 1330.9 Q2121.84 1332.08 2121.84 1334.93 Q2121.84 1337.2 2123.32 1338.54 Q2124.82 1339.86 2127.39 1339.86 Q2130.94 1339.86 2133.06 1337.36 Q2135.22 1334.84 2135.22 1330.67 L2135.22 1329.72 L2130.98 1329.72 M2139.48 1327.96 L2139.48 1342.76 L2135.22 1342.76 L2135.22 1338.82 Q2133.76 1341.18 2131.58 1342.32 Q2129.41 1343.43 2126.26 1343.43 Q2122.28 1343.43 2119.92 1341.2 Q2117.58 1338.96 2117.58 1335.21 Q2117.58 1330.83 2120.5 1328.61 Q2123.44 1326.39 2129.25 1326.39 L2135.22 1326.39 L2135.22 1325.97 Q2135.22 1323.03 2133.27 1321.44 Q2131.35 1319.82 2127.86 1319.82 Q2125.63 1319.82 2123.53 1320.35 Q2121.42 1320.88 2119.48 1321.95 L2119.48 1318.01 Q2121.81 1317.11 2124.01 1316.67 Q2126.21 1316.2 2128.3 1316.2 Q2133.92 1316.2 2136.7 1319.12 Q2139.48 1322.04 2139.48 1327.96 Z" fill="#000000" fill-rule="evenodd" fill-opacity="1" /><path clip-path="url(#clip680)" d="M2169.8 1327.11 L2169.8 1342.76 L2165.54 1342.76 L2165.54 1327.25 Q2165.54 1323.57 2164.11 1321.74 Q2162.67 1319.91 2159.8 1319.91 Q2156.35 1319.91 2154.36 1322.11 Q2152.37 1324.31 2152.37 1328.1 L2152.37 1342.76 L2148.09 1342.76 L2148.09 1316.83 L2152.37 1316.83 L2152.37 1320.86 Q2153.9 1318.52 2155.96 1317.36 Q2158.04 1316.2 2160.75 1316.2 Q2165.22 1316.2 2167.51 1318.98 Q2169.8 1321.74 2169.8 1327.11 Z" fill="#000000" fill-rule="evenodd" fill-opacity="1" /><path clip-path="url(#clip680)" d="M2178.3 1316.83 L2182.56 1316.83 L2182.56 1342.76 L2178.3 1342.76 L2178.3 1316.83 M2178.3 1306.74 L2182.56 1306.74 L2182.56 1312.13 L2178.3 1312.13 L2178.3 1306.74 Z" fill="#000000" fill-rule="evenodd" fill-opacity="1" /><path clip-path="url(#clip680)" d="M2203.25 1329.72 Q2198.09 1329.72 2196.1 1330.9 Q2194.11 1332.08 2194.11 1334.93 Q2194.11 1337.2 2195.59 1338.54 Q2197.09 1339.86 2199.66 1339.86 Q2203.2 1339.86 2205.33 1337.36 Q2207.49 1334.84 2207.49 1330.67 L2207.49 1329.72 L2203.25 1329.72 M2211.75 1327.96 L2211.75 1342.76 L2207.49 1342.76 L2207.49 1338.82 Q2206.03 1341.18 2203.85 1342.32 Q2201.68 1343.43 2198.53 1343.43 Q2194.55 1343.43 2192.18 1341.2 Q2189.85 1338.96 2189.85 1335.21 Q2189.85 1330.83 2192.76 1328.61 Q2195.7 1326.39 2201.51 1326.39 L2207.49 1326.39 L2207.49 1325.97 Q2207.49 1323.03 2205.54 1321.44 Q2203.62 1319.82 2200.12 1319.82 Q2197.9 1319.82 2195.8 1320.35 Q2193.69 1320.88 2191.75 1321.95 L2191.75 1318.01 Q2194.08 1317.11 2196.28 1316.67 Q2198.48 1316.2 2200.56 1316.2 Q2206.19 1316.2 2208.97 1319.12 Q2211.75 1322.04 2211.75 1327.96 Z" fill="#000000" fill-rule="evenodd" fill-opacity="1" /></svg>
