<?xml version="1.0" encoding="utf-8" standalone="no"?>
<!DOCTYPE svg PUBLIC "-//W3C//DTD SVG 1.1//EN"
  "http://www.w3.org/Graphics/SVG/1.1/DTD/svg11.dtd">
<svg xmlns:xlink="http://www.w3.org/1999/xlink" width="432pt" height="288pt" viewBox="0 0 432 288" xmlns="http://www.w3.org/2000/svg" version="1.1">
 <metadata>
  <rdf:RDF xmlns:dc="http://purl.org/dc/elements/1.1/" xmlns:cc="http://creativecommons.org/ns#" xmlns:rdf="http://www.w3.org/1999/02/22-rdf-syntax-ns#">
   <cc:Work>
    <dc:type rdf:resource="http://purl.org/dc/dcmitype/StillImage"/>
    <dc:date>2023-02-22T21:53:24.636592</dc:date>
    <dc:format>image/svg+xml</dc:format>
    <dc:creator>
     <cc:Agent>
      <dc:title>Matplotlib v3.5.2, https://matplotlib.org/</dc:title>
     </cc:Agent>
    </dc:creator>
   </cc:Work>
  </rdf:RDF>
 </metadata>
 <defs>
  <style type="text/css">*{stroke-linejoin: round; stroke-linecap: butt}</style>
 </defs>
 <g id="figure_1">
  <g id="patch_1">
   <path d="M 0 288 
L 432 288 
L 432 0 
L 0 0 
z
" style="fill: #ffffff"/>
  </g>
  <g id="axes_1">
   <g id="patch_2">
    <path d="M 53.99955 257.505354 
L 425.340354 257.505354 
L 425.340354 29.210646 
L 53.99955 29.210646 
z
" style="fill: #ffffff"/>
   </g>
   <g id="matplotlib.axis_1">
    <g id="xtick_1">
     <g id="line2d_1">
      <path d="M 64.509195 257.505354 
L 64.509195 29.210646 
" clip-path="url(#p2016f7df67)" style="fill: none; stroke: #000000; stroke-opacity: 0.1; stroke-width: 0.5; stroke-linecap: square"/>
     </g>
     <g id="line2d_2">
      <defs>
       <path id="m314ca23820" d="M 0 0 
L 0 -2.5 
" style="stroke: #000000; stroke-width: 0.5"/>
      </defs>
      <g>
       <use xlink:href="#m314ca23820" x="64.509195" y="257.505354" style="stroke: #000000; stroke-width: 0.5"/>
      </g>
     </g>
     <g id="text_1">
      <!-- $200$ -->
      <g transform="translate(56.869195 267.084104)scale(0.08 -0.08)">
       <defs>
        <path id="DejaVuSans-32" d="M 1228 531 
L 3431 531 
L 3431 0 
L 469 0 
L 469 531 
Q 828 903 1448 1529 
Q 2069 2156 2228 2338 
Q 2531 2678 2651 2914 
Q 2772 3150 2772 3378 
Q 2772 3750 2511 3984 
Q 2250 4219 1831 4219 
Q 1534 4219 1204 4116 
Q 875 4013 500 3803 
L 500 4441 
Q 881 4594 1212 4672 
Q 1544 4750 1819 4750 
Q 2544 4750 2975 4387 
Q 3406 4025 3406 3419 
Q 3406 3131 3298 2873 
Q 3191 2616 2906 2266 
Q 2828 2175 2409 1742 
Q 1991 1309 1228 531 
z
" transform="scale(0.015625)"/>
        <path id="DejaVuSans-30" d="M 2034 4250 
Q 1547 4250 1301 3770 
Q 1056 3291 1056 2328 
Q 1056 1369 1301 889 
Q 1547 409 2034 409 
Q 2525 409 2770 889 
Q 3016 1369 3016 2328 
Q 3016 3291 2770 3770 
Q 2525 4250 2034 4250 
z
M 2034 4750 
Q 2819 4750 3233 4129 
Q 3647 3509 3647 2328 
Q 3647 1150 3233 529 
Q 2819 -91 2034 -91 
Q 1250 -91 836 529 
Q 422 1150 422 2328 
Q 422 3509 836 4129 
Q 1250 4750 2034 4750 
z
" transform="scale(0.015625)"/>
       </defs>
       <use xlink:href="#DejaVuSans-32" transform="translate(0 0.78125)"/>
       <use xlink:href="#DejaVuSans-30" transform="translate(63.623047 0.78125)"/>
       <use xlink:href="#DejaVuSans-30" transform="translate(127.246094 0.78125)"/>
      </g>
     </g>
    </g>
    <g id="xtick_2">
     <g id="line2d_3">
      <path d="M 152.089574 257.505354 
L 152.089574 29.210646 
" clip-path="url(#p2016f7df67)" style="fill: none; stroke: #000000; stroke-opacity: 0.1; stroke-width: 0.5; stroke-linecap: square"/>
     </g>
     <g id="line2d_4">
      <g>
       <use xlink:href="#m314ca23820" x="152.089574" y="257.505354" style="stroke: #000000; stroke-width: 0.5"/>
      </g>
     </g>
     <g id="text_2">
      <!-- $400$ -->
      <g transform="translate(144.449574 267.084104)scale(0.08 -0.08)">
       <defs>
        <path id="DejaVuSans-34" d="M 2419 4116 
L 825 1625 
L 2419 1625 
L 2419 4116 
z
M 2253 4666 
L 3047 4666 
L 3047 1625 
L 3713 1625 
L 3713 1100 
L 3047 1100 
L 3047 0 
L 2419 0 
L 2419 1100 
L 313 1100 
L 313 1709 
L 2253 4666 
z
" transform="scale(0.015625)"/>
       </defs>
       <use xlink:href="#DejaVuSans-34" transform="translate(0 0.78125)"/>
       <use xlink:href="#DejaVuSans-30" transform="translate(63.623047 0.78125)"/>
       <use xlink:href="#DejaVuSans-30" transform="translate(127.246094 0.78125)"/>
      </g>
     </g>
    </g>
    <g id="xtick_3">
     <g id="line2d_5">
      <path d="M 239.669952 257.505354 
L 239.669952 29.210646 
" clip-path="url(#p2016f7df67)" style="fill: none; stroke: #000000; stroke-opacity: 0.1; stroke-width: 0.5; stroke-linecap: square"/>
     </g>
     <g id="line2d_6">
      <g>
       <use xlink:href="#m314ca23820" x="239.669952" y="257.505354" style="stroke: #000000; stroke-width: 0.5"/>
      </g>
     </g>
     <g id="text_3">
      <!-- $600$ -->
      <g transform="translate(232.029952 267.084104)scale(0.08 -0.08)">
       <defs>
        <path id="DejaVuSans-36" d="M 2113 2584 
Q 1688 2584 1439 2293 
Q 1191 2003 1191 1497 
Q 1191 994 1439 701 
Q 1688 409 2113 409 
Q 2538 409 2786 701 
Q 3034 994 3034 1497 
Q 3034 2003 2786 2293 
Q 2538 2584 2113 2584 
z
M 3366 4563 
L 3366 3988 
Q 3128 4100 2886 4159 
Q 2644 4219 2406 4219 
Q 1781 4219 1451 3797 
Q 1122 3375 1075 2522 
Q 1259 2794 1537 2939 
Q 1816 3084 2150 3084 
Q 2853 3084 3261 2657 
Q 3669 2231 3669 1497 
Q 3669 778 3244 343 
Q 2819 -91 2113 -91 
Q 1303 -91 875 529 
Q 447 1150 447 2328 
Q 447 3434 972 4092 
Q 1497 4750 2381 4750 
Q 2619 4750 2861 4703 
Q 3103 4656 3366 4563 
z
" transform="scale(0.015625)"/>
       </defs>
       <use xlink:href="#DejaVuSans-36" transform="translate(0 0.78125)"/>
       <use xlink:href="#DejaVuSans-30" transform="translate(63.623047 0.78125)"/>
       <use xlink:href="#DejaVuSans-30" transform="translate(127.246094 0.78125)"/>
      </g>
     </g>
    </g>
    <g id="xtick_4">
     <g id="line2d_7">
      <path d="M 327.25033 257.505354 
L 327.25033 29.210646 
" clip-path="url(#p2016f7df67)" style="fill: none; stroke: #000000; stroke-opacity: 0.1; stroke-width: 0.5; stroke-linecap: square"/>
     </g>
     <g id="line2d_8">
      <g>
       <use xlink:href="#m314ca23820" x="327.25033" y="257.505354" style="stroke: #000000; stroke-width: 0.5"/>
      </g>
     </g>
     <g id="text_4">
      <!-- $800$ -->
      <g transform="translate(319.61033 267.084104)scale(0.08 -0.08)">
       <defs>
        <path id="DejaVuSans-38" d="M 2034 2216 
Q 1584 2216 1326 1975 
Q 1069 1734 1069 1313 
Q 1069 891 1326 650 
Q 1584 409 2034 409 
Q 2484 409 2743 651 
Q 3003 894 3003 1313 
Q 3003 1734 2745 1975 
Q 2488 2216 2034 2216 
z
M 1403 2484 
Q 997 2584 770 2862 
Q 544 3141 544 3541 
Q 544 4100 942 4425 
Q 1341 4750 2034 4750 
Q 2731 4750 3128 4425 
Q 3525 4100 3525 3541 
Q 3525 3141 3298 2862 
Q 3072 2584 2669 2484 
Q 3125 2378 3379 2068 
Q 3634 1759 3634 1313 
Q 3634 634 3220 271 
Q 2806 -91 2034 -91 
Q 1263 -91 848 271 
Q 434 634 434 1313 
Q 434 1759 690 2068 
Q 947 2378 1403 2484 
z
M 1172 3481 
Q 1172 3119 1398 2916 
Q 1625 2713 2034 2713 
Q 2441 2713 2670 2916 
Q 2900 3119 2900 3481 
Q 2900 3844 2670 4047 
Q 2441 4250 2034 4250 
Q 1625 4250 1398 4047 
Q 1172 3844 1172 3481 
z
" transform="scale(0.015625)"/>
       </defs>
       <use xlink:href="#DejaVuSans-38" transform="translate(0 0.78125)"/>
       <use xlink:href="#DejaVuSans-30" transform="translate(63.623047 0.78125)"/>
       <use xlink:href="#DejaVuSans-30" transform="translate(127.246094 0.78125)"/>
      </g>
     </g>
    </g>
    <g id="xtick_5">
     <g id="line2d_9">
      <path d="M 414.830709 257.505354 
L 414.830709 29.210646 
" clip-path="url(#p2016f7df67)" style="fill: none; stroke: #000000; stroke-opacity: 0.1; stroke-width: 0.5; stroke-linecap: square"/>
     </g>
     <g id="line2d_10">
      <g>
       <use xlink:href="#m314ca23820" x="414.830709" y="257.505354" style="stroke: #000000; stroke-width: 0.5"/>
      </g>
     </g>
     <g id="text_5">
      <!-- $1000$ -->
      <g transform="translate(404.630709 267.084104)scale(0.08 -0.08)">
       <defs>
        <path id="DejaVuSans-31" d="M 794 531 
L 1825 531 
L 1825 4091 
L 703 3866 
L 703 4441 
L 1819 4666 
L 2450 4666 
L 2450 531 
L 3481 531 
L 3481 0 
L 794 0 
L 794 531 
z
" transform="scale(0.015625)"/>
       </defs>
       <use xlink:href="#DejaVuSans-31" transform="translate(0 0.78125)"/>
       <use xlink:href="#DejaVuSans-30" transform="translate(63.623047 0.78125)"/>
       <use xlink:href="#DejaVuSans-30" transform="translate(127.246094 0.78125)"/>
       <use xlink:href="#DejaVuSans-30" transform="translate(190.869141 0.78125)"/>
      </g>
     </g>
    </g>
    <g id="text_6">
     <!-- Liczba połączeń w sieci -->
     <g transform="translate(175.661983 281.583948)scale(0.11 -0.11)">
      <defs>
       <path id="DejaVuSans-4c" d="M 628 4666 
L 1259 4666 
L 1259 531 
L 3531 531 
L 3531 0 
L 628 0 
L 628 4666 
z
" transform="scale(0.015625)"/>
       <path id="DejaVuSans-69" d="M 603 3500 
L 1178 3500 
L 1178 0 
L 603 0 
L 603 3500 
z
M 603 4863 
L 1178 4863 
L 1178 4134 
L 603 4134 
L 603 4863 
z
" transform="scale(0.015625)"/>
       <path id="DejaVuSans-63" d="M 3122 3366 
L 3122 2828 
Q 2878 2963 2633 3030 
Q 2388 3097 2138 3097 
Q 1578 3097 1268 2742 
Q 959 2388 959 1747 
Q 959 1106 1268 751 
Q 1578 397 2138 397 
Q 2388 397 2633 464 
Q 2878 531 3122 666 
L 3122 134 
Q 2881 22 2623 -34 
Q 2366 -91 2075 -91 
Q 1284 -91 818 406 
Q 353 903 353 1747 
Q 353 2603 823 3093 
Q 1294 3584 2113 3584 
Q 2378 3584 2631 3529 
Q 2884 3475 3122 3366 
z
" transform="scale(0.015625)"/>
       <path id="DejaVuSans-7a" d="M 353 3500 
L 3084 3500 
L 3084 2975 
L 922 459 
L 3084 459 
L 3084 0 
L 275 0 
L 275 525 
L 2438 3041 
L 353 3041 
L 353 3500 
z
" transform="scale(0.015625)"/>
       <path id="DejaVuSans-62" d="M 3116 1747 
Q 3116 2381 2855 2742 
Q 2594 3103 2138 3103 
Q 1681 3103 1420 2742 
Q 1159 2381 1159 1747 
Q 1159 1113 1420 752 
Q 1681 391 2138 391 
Q 2594 391 2855 752 
Q 3116 1113 3116 1747 
z
M 1159 2969 
Q 1341 3281 1617 3432 
Q 1894 3584 2278 3584 
Q 2916 3584 3314 3078 
Q 3713 2572 3713 1747 
Q 3713 922 3314 415 
Q 2916 -91 2278 -91 
Q 1894 -91 1617 61 
Q 1341 213 1159 525 
L 1159 0 
L 581 0 
L 581 4863 
L 1159 4863 
L 1159 2969 
z
" transform="scale(0.015625)"/>
       <path id="DejaVuSans-61" d="M 2194 1759 
Q 1497 1759 1228 1600 
Q 959 1441 959 1056 
Q 959 750 1161 570 
Q 1363 391 1709 391 
Q 2188 391 2477 730 
Q 2766 1069 2766 1631 
L 2766 1759 
L 2194 1759 
z
M 3341 1997 
L 3341 0 
L 2766 0 
L 2766 531 
Q 2569 213 2275 61 
Q 1981 -91 1556 -91 
Q 1019 -91 701 211 
Q 384 513 384 1019 
Q 384 1609 779 1909 
Q 1175 2209 1959 2209 
L 2766 2209 
L 2766 2266 
Q 2766 2663 2505 2880 
Q 2244 3097 1772 3097 
Q 1472 3097 1187 3025 
Q 903 2953 641 2809 
L 641 3341 
Q 956 3463 1253 3523 
Q 1550 3584 1831 3584 
Q 2591 3584 2966 3190 
Q 3341 2797 3341 1997 
z
" transform="scale(0.015625)"/>
       <path id="DejaVuSans-20" transform="scale(0.015625)"/>
       <path id="DejaVuSans-70" d="M 1159 525 
L 1159 -1331 
L 581 -1331 
L 581 3500 
L 1159 3500 
L 1159 2969 
Q 1341 3281 1617 3432 
Q 1894 3584 2278 3584 
Q 2916 3584 3314 3078 
Q 3713 2572 3713 1747 
Q 3713 922 3314 415 
Q 2916 -91 2278 -91 
Q 1894 -91 1617 61 
Q 1341 213 1159 525 
z
M 3116 1747 
Q 3116 2381 2855 2742 
Q 2594 3103 2138 3103 
Q 1681 3103 1420 2742 
Q 1159 2381 1159 1747 
Q 1159 1113 1420 752 
Q 1681 391 2138 391 
Q 2594 391 2855 752 
Q 3116 1113 3116 1747 
z
" transform="scale(0.015625)"/>
       <path id="DejaVuSans-6f" d="M 1959 3097 
Q 1497 3097 1228 2736 
Q 959 2375 959 1747 
Q 959 1119 1226 758 
Q 1494 397 1959 397 
Q 2419 397 2687 759 
Q 2956 1122 2956 1747 
Q 2956 2369 2687 2733 
Q 2419 3097 1959 3097 
z
M 1959 3584 
Q 2709 3584 3137 3096 
Q 3566 2609 3566 1747 
Q 3566 888 3137 398 
Q 2709 -91 1959 -91 
Q 1206 -91 779 398 
Q 353 888 353 1747 
Q 353 2609 779 3096 
Q 1206 3584 1959 3584 
z
" transform="scale(0.015625)"/>
       <path id="DejaVuSans-142" d="M 622 4863 
L 1197 4863 
L 1197 2981 
L 1588 3263 
L 1825 2931 
L 1197 2491 
L 1197 0 
L 622 0 
L 622 2081 
L 238 1806 
L 6 2138 
L 622 2578 
L 622 4863 
z
" transform="scale(0.015625)"/>
       <path id="DejaVuSans-105" d="M 2194 1759 
Q 1497 1759 1228 1600 
Q 959 1441 959 1056 
Q 959 750 1161 570 
Q 1363 391 1709 391 
Q 2188 391 2477 730 
Q 2766 1069 2766 1631 
L 2766 1759 
L 2194 1759 
z
M 3341 1997 
L 3341 0 
L 2766 0 
L 2766 531 
Q 2569 213 2275 61 
Q 1981 -91 1556 -91 
Q 1019 -91 701 211 
Q 384 513 384 1019 
Q 384 1609 779 1909 
Q 1175 2209 1959 2209 
L 2766 2209 
L 2766 2266 
Q 2766 2663 2505 2880 
Q 2244 3097 1772 3097 
Q 1472 3097 1187 3025 
Q 903 2953 641 2809 
L 641 3341 
Q 956 3463 1253 3523 
Q 1550 3584 1831 3584 
Q 2591 3584 2966 3190 
Q 3341 2797 3341 1997 
z
M 2772 0 
L 3144 0 
Q 3003 -191 2936 -328 
Q 2869 -466 2869 -563 
Q 2869 -706 2955 -778 
Q 3041 -850 3209 -850 
Q 3309 -850 3406 -826 
Q 3503 -803 3600 -756 
L 3600 -1172 
Q 3481 -1203 3375 -1218 
Q 3269 -1234 3175 -1234 
Q 2794 -1234 2614 -1098 
Q 2434 -963 2434 -672 
Q 2434 -522 2517 -358 
Q 2600 -194 2772 0 
z
" transform="scale(0.015625)"/>
       <path id="DejaVuSans-65" d="M 3597 1894 
L 3597 1613 
L 953 1613 
Q 991 1019 1311 708 
Q 1631 397 2203 397 
Q 2534 397 2845 478 
Q 3156 559 3463 722 
L 3463 178 
Q 3153 47 2828 -22 
Q 2503 -91 2169 -91 
Q 1331 -91 842 396 
Q 353 884 353 1716 
Q 353 2575 817 3079 
Q 1281 3584 2069 3584 
Q 2775 3584 3186 3129 
Q 3597 2675 3597 1894 
z
M 3022 2063 
Q 3016 2534 2758 2815 
Q 2500 3097 2075 3097 
Q 1594 3097 1305 2825 
Q 1016 2553 972 2059 
L 3022 2063 
z
" transform="scale(0.015625)"/>
       <path id="DejaVuSans-144" d="M 2241 5141 
L 2863 5141 
L 1844 3966 
L 1366 3966 
L 2241 5141 
z
M 3513 2113 
L 3513 0 
L 2938 0 
L 2938 2094 
Q 2938 2591 2744 2837 
Q 2550 3084 2163 3084 
Q 1697 3084 1428 2787 
Q 1159 2491 1159 1978 
L 1159 0 
L 581 0 
L 581 3500 
L 1159 3500 
L 1159 2956 
Q 1366 3272 1645 3428 
Q 1925 3584 2291 3584 
Q 2894 3584 3203 3211 
Q 3513 2838 3513 2113 
z
" transform="scale(0.015625)"/>
       <path id="DejaVuSans-77" d="M 269 3500 
L 844 3500 
L 1563 769 
L 2278 3500 
L 2956 3500 
L 3675 769 
L 4391 3500 
L 4966 3500 
L 4050 0 
L 3372 0 
L 2619 2869 
L 1863 0 
L 1184 0 
L 269 3500 
z
" transform="scale(0.015625)"/>
       <path id="DejaVuSans-73" d="M 2834 3397 
L 2834 2853 
Q 2591 2978 2328 3040 
Q 2066 3103 1784 3103 
Q 1356 3103 1142 2972 
Q 928 2841 928 2578 
Q 928 2378 1081 2264 
Q 1234 2150 1697 2047 
L 1894 2003 
Q 2506 1872 2764 1633 
Q 3022 1394 3022 966 
Q 3022 478 2636 193 
Q 2250 -91 1575 -91 
Q 1294 -91 989 -36 
Q 684 19 347 128 
L 347 722 
Q 666 556 975 473 
Q 1284 391 1588 391 
Q 1994 391 2212 530 
Q 2431 669 2431 922 
Q 2431 1156 2273 1281 
Q 2116 1406 1581 1522 
L 1381 1569 
Q 847 1681 609 1914 
Q 372 2147 372 2553 
Q 372 3047 722 3315 
Q 1072 3584 1716 3584 
Q 2034 3584 2315 3537 
Q 2597 3491 2834 3397 
z
" transform="scale(0.015625)"/>
      </defs>
      <use xlink:href="#DejaVuSans-4c"/>
      <use xlink:href="#DejaVuSans-69" x="55.712891"/>
      <use xlink:href="#DejaVuSans-63" x="83.496094"/>
      <use xlink:href="#DejaVuSans-7a" x="138.476562"/>
      <use xlink:href="#DejaVuSans-62" x="190.966797"/>
      <use xlink:href="#DejaVuSans-61" x="254.443359"/>
      <use xlink:href="#DejaVuSans-20" x="315.722656"/>
      <use xlink:href="#DejaVuSans-70" x="347.509766"/>
      <use xlink:href="#DejaVuSans-6f" x="410.986328"/>
      <use xlink:href="#DejaVuSans-142" x="472.167969"/>
      <use xlink:href="#DejaVuSans-105" x="500.585938"/>
      <use xlink:href="#DejaVuSans-63" x="561.865234"/>
      <use xlink:href="#DejaVuSans-7a" x="616.845703"/>
      <use xlink:href="#DejaVuSans-65" x="669.335938"/>
      <use xlink:href="#DejaVuSans-144" x="730.859375"/>
      <use xlink:href="#DejaVuSans-20" x="794.238281"/>
      <use xlink:href="#DejaVuSans-77" x="826.025391"/>
      <use xlink:href="#DejaVuSans-20" x="907.8125"/>
      <use xlink:href="#DejaVuSans-73" x="939.599609"/>
      <use xlink:href="#DejaVuSans-69" x="991.699219"/>
      <use xlink:href="#DejaVuSans-65" x="1019.482422"/>
      <use xlink:href="#DejaVuSans-63" x="1081.005859"/>
      <use xlink:href="#DejaVuSans-69" x="1135.986328"/>
     </g>
    </g>
   </g>
   <g id="matplotlib.axis_2">
    <g id="ytick_1">
     <g id="line2d_11">
      <path d="M 53.99955 241.741803 
L 425.340354 241.741803 
" clip-path="url(#p2016f7df67)" style="fill: none; stroke: #000000; stroke-opacity: 0.1; stroke-width: 0.5; stroke-linecap: square"/>
     </g>
     <g id="line2d_12">
      <defs>
       <path id="m71ffb156f5" d="M 0 0 
L 2.5 0 
" style="stroke: #000000; stroke-width: 0.5"/>
      </defs>
      <g>
       <use xlink:href="#m71ffb156f5" x="53.99955" y="241.741803" style="stroke: #000000; stroke-width: 0.5"/>
      </g>
     </g>
     <g id="text_7">
      <!-- $0.04$ -->
      <g transform="translate(32.65955 244.781178)scale(0.08 -0.08)">
       <defs>
        <path id="DejaVuSans-2e" d="M 684 794 
L 1344 794 
L 1344 0 
L 684 0 
L 684 794 
z
" transform="scale(0.015625)"/>
       </defs>
       <use xlink:href="#DejaVuSans-30" transform="translate(0 0.78125)"/>
       <use xlink:href="#DejaVuSans-2e" transform="translate(63.623047 0.78125)"/>
       <use xlink:href="#DejaVuSans-30" transform="translate(95.410156 0.78125)"/>
       <use xlink:href="#DejaVuSans-34" transform="translate(159.033203 0.78125)"/>
      </g>
     </g>
    </g>
    <g id="ytick_2">
     <g id="line2d_13">
      <path d="M 53.99955 203.625386 
L 425.340354 203.625386 
" clip-path="url(#p2016f7df67)" style="fill: none; stroke: #000000; stroke-opacity: 0.1; stroke-width: 0.5; stroke-linecap: square"/>
     </g>
     <g id="line2d_14">
      <g>
       <use xlink:href="#m71ffb156f5" x="53.99955" y="203.625386" style="stroke: #000000; stroke-width: 0.5"/>
      </g>
     </g>
     <g id="text_8">
      <!-- $0.05$ -->
      <g transform="translate(32.65955 206.664761)scale(0.08 -0.08)">
       <defs>
        <path id="DejaVuSans-35" d="M 691 4666 
L 3169 4666 
L 3169 4134 
L 1269 4134 
L 1269 2991 
Q 1406 3038 1543 3061 
Q 1681 3084 1819 3084 
Q 2600 3084 3056 2656 
Q 3513 2228 3513 1497 
Q 3513 744 3044 326 
Q 2575 -91 1722 -91 
Q 1428 -91 1123 -41 
Q 819 9 494 109 
L 494 744 
Q 775 591 1075 516 
Q 1375 441 1709 441 
Q 2250 441 2565 725 
Q 2881 1009 2881 1497 
Q 2881 1984 2565 2268 
Q 2250 2553 1709 2553 
Q 1456 2553 1204 2497 
Q 953 2441 691 2322 
L 691 4666 
z
" transform="scale(0.015625)"/>
       </defs>
       <use xlink:href="#DejaVuSans-30" transform="translate(0 0.78125)"/>
       <use xlink:href="#DejaVuSans-2e" transform="translate(63.623047 0.78125)"/>
       <use xlink:href="#DejaVuSans-30" transform="translate(95.410156 0.78125)"/>
       <use xlink:href="#DejaVuSans-35" transform="translate(159.033203 0.78125)"/>
      </g>
     </g>
    </g>
    <g id="ytick_3">
     <g id="line2d_15">
      <path d="M 53.99955 165.508969 
L 425.340354 165.508969 
" clip-path="url(#p2016f7df67)" style="fill: none; stroke: #000000; stroke-opacity: 0.1; stroke-width: 0.5; stroke-linecap: square"/>
     </g>
     <g id="line2d_16">
      <g>
       <use xlink:href="#m71ffb156f5" x="53.99955" y="165.508969" style="stroke: #000000; stroke-width: 0.5"/>
      </g>
     </g>
     <g id="text_9">
      <!-- $0.06$ -->
      <g transform="translate(32.65955 168.548344)scale(0.08 -0.08)">
       <use xlink:href="#DejaVuSans-30" transform="translate(0 0.78125)"/>
       <use xlink:href="#DejaVuSans-2e" transform="translate(63.623047 0.78125)"/>
       <use xlink:href="#DejaVuSans-30" transform="translate(95.410156 0.78125)"/>
       <use xlink:href="#DejaVuSans-36" transform="translate(159.033203 0.78125)"/>
      </g>
     </g>
    </g>
    <g id="ytick_4">
     <g id="line2d_17">
      <path d="M 53.99955 127.392551 
L 425.340354 127.392551 
" clip-path="url(#p2016f7df67)" style="fill: none; stroke: #000000; stroke-opacity: 0.1; stroke-width: 0.5; stroke-linecap: square"/>
     </g>
     <g id="line2d_18">
      <g>
       <use xlink:href="#m71ffb156f5" x="53.99955" y="127.392551" style="stroke: #000000; stroke-width: 0.5"/>
      </g>
     </g>
     <g id="text_10">
      <!-- $0.07$ -->
      <g transform="translate(32.65955 130.431926)scale(0.08 -0.08)">
       <defs>
        <path id="DejaVuSans-37" d="M 525 4666 
L 3525 4666 
L 3525 4397 
L 1831 0 
L 1172 0 
L 2766 4134 
L 525 4134 
L 525 4666 
z
" transform="scale(0.015625)"/>
       </defs>
       <use xlink:href="#DejaVuSans-30" transform="translate(0 0.78125)"/>
       <use xlink:href="#DejaVuSans-2e" transform="translate(63.623047 0.78125)"/>
       <use xlink:href="#DejaVuSans-30" transform="translate(95.410156 0.78125)"/>
       <use xlink:href="#DejaVuSans-37" transform="translate(159.033203 0.78125)"/>
      </g>
     </g>
    </g>
    <g id="ytick_5">
     <g id="line2d_19">
      <path d="M 53.99955 89.276134 
L 425.340354 89.276134 
" clip-path="url(#p2016f7df67)" style="fill: none; stroke: #000000; stroke-opacity: 0.1; stroke-width: 0.5; stroke-linecap: square"/>
     </g>
     <g id="line2d_20">
      <g>
       <use xlink:href="#m71ffb156f5" x="53.99955" y="89.276134" style="stroke: #000000; stroke-width: 0.5"/>
      </g>
     </g>
     <g id="text_11">
      <!-- $0.08$ -->
      <g transform="translate(32.65955 92.315509)scale(0.08 -0.08)">
       <use xlink:href="#DejaVuSans-30" transform="translate(0 0.78125)"/>
       <use xlink:href="#DejaVuSans-2e" transform="translate(63.623047 0.78125)"/>
       <use xlink:href="#DejaVuSans-30" transform="translate(95.410156 0.78125)"/>
       <use xlink:href="#DejaVuSans-38" transform="translate(159.033203 0.78125)"/>
      </g>
     </g>
    </g>
    <g id="ytick_6">
     <g id="line2d_21">
      <path d="M 53.99955 51.159717 
L 425.340354 51.159717 
" clip-path="url(#p2016f7df67)" style="fill: none; stroke: #000000; stroke-opacity: 0.1; stroke-width: 0.5; stroke-linecap: square"/>
     </g>
     <g id="line2d_22">
      <g>
       <use xlink:href="#m71ffb156f5" x="53.99955" y="51.159717" style="stroke: #000000; stroke-width: 0.5"/>
      </g>
     </g>
     <g id="text_12">
      <!-- $0.09$ -->
      <g transform="translate(32.65955 54.199092)scale(0.08 -0.08)">
       <defs>
        <path id="DejaVuSans-39" d="M 703 97 
L 703 672 
Q 941 559 1184 500 
Q 1428 441 1663 441 
Q 2288 441 2617 861 
Q 2947 1281 2994 2138 
Q 2813 1869 2534 1725 
Q 2256 1581 1919 1581 
Q 1219 1581 811 2004 
Q 403 2428 403 3163 
Q 403 3881 828 4315 
Q 1253 4750 1959 4750 
Q 2769 4750 3195 4129 
Q 3622 3509 3622 2328 
Q 3622 1225 3098 567 
Q 2575 -91 1691 -91 
Q 1453 -91 1209 -44 
Q 966 3 703 97 
z
M 1959 2075 
Q 2384 2075 2632 2365 
Q 2881 2656 2881 3163 
Q 2881 3666 2632 3958 
Q 2384 4250 1959 4250 
Q 1534 4250 1286 3958 
Q 1038 3666 1038 3163 
Q 1038 2656 1286 2365 
Q 1534 2075 1959 2075 
z
" transform="scale(0.015625)"/>
       </defs>
       <use xlink:href="#DejaVuSans-30" transform="translate(0 0.78125)"/>
       <use xlink:href="#DejaVuSans-2e" transform="translate(63.623047 0.78125)"/>
       <use xlink:href="#DejaVuSans-30" transform="translate(95.410156 0.78125)"/>
       <use xlink:href="#DejaVuSans-39" transform="translate(159.033203 0.78125)"/>
      </g>
     </g>
    </g>
    <g id="text_13">
     <!-- Różnica między oczekiwaniami konsumentów  -->
     <g transform="translate(13.480925 270.432063)rotate(-90)scale(0.11 -0.11)">
      <defs>
       <path id="DejaVuSans-52" d="M 2841 2188 
Q 3044 2119 3236 1894 
Q 3428 1669 3622 1275 
L 4263 0 
L 3584 0 
L 2988 1197 
Q 2756 1666 2539 1819 
Q 2322 1972 1947 1972 
L 1259 1972 
L 1259 0 
L 628 0 
L 628 4666 
L 2053 4666 
Q 2853 4666 3247 4331 
Q 3641 3997 3641 3322 
Q 3641 2881 3436 2590 
Q 3231 2300 2841 2188 
z
M 1259 4147 
L 1259 2491 
L 2053 2491 
Q 2509 2491 2742 2702 
Q 2975 2913 2975 3322 
Q 2975 3731 2742 3939 
Q 2509 4147 2053 4147 
L 1259 4147 
z
" transform="scale(0.015625)"/>
       <path id="DejaVuSans-f3" d="M 1959 3097 
Q 1497 3097 1228 2736 
Q 959 2375 959 1747 
Q 959 1119 1226 758 
Q 1494 397 1959 397 
Q 2419 397 2687 759 
Q 2956 1122 2956 1747 
Q 2956 2369 2687 2733 
Q 2419 3097 1959 3097 
z
M 1959 3584 
Q 2709 3584 3137 3096 
Q 3566 2609 3566 1747 
Q 3566 888 3137 398 
Q 2709 -91 1959 -91 
Q 1206 -91 779 398 
Q 353 888 353 1747 
Q 353 2609 779 3096 
Q 1206 3584 1959 3584 
z
M 2394 5119 
L 3016 5119 
L 1997 3944 
L 1519 3944 
L 2394 5119 
z
" transform="scale(0.015625)"/>
       <path id="DejaVuSans-17c" d="M 1378 4863 
L 1953 4863 
L 1953 4134 
L 1378 4134 
L 1378 4863 
z
M 1672 3584 
L 1672 3584 
z
M 353 3500 
L 3084 3500 
L 3084 2975 
L 922 459 
L 3084 459 
L 3084 0 
L 275 0 
L 275 525 
L 2438 3041 
L 353 3041 
L 353 3500 
z
" transform="scale(0.015625)"/>
       <path id="DejaVuSans-6e" d="M 3513 2113 
L 3513 0 
L 2938 0 
L 2938 2094 
Q 2938 2591 2744 2837 
Q 2550 3084 2163 3084 
Q 1697 3084 1428 2787 
Q 1159 2491 1159 1978 
L 1159 0 
L 581 0 
L 581 3500 
L 1159 3500 
L 1159 2956 
Q 1366 3272 1645 3428 
Q 1925 3584 2291 3584 
Q 2894 3584 3203 3211 
Q 3513 2838 3513 2113 
z
" transform="scale(0.015625)"/>
       <path id="DejaVuSans-6d" d="M 3328 2828 
Q 3544 3216 3844 3400 
Q 4144 3584 4550 3584 
Q 5097 3584 5394 3201 
Q 5691 2819 5691 2113 
L 5691 0 
L 5113 0 
L 5113 2094 
Q 5113 2597 4934 2840 
Q 4756 3084 4391 3084 
Q 3944 3084 3684 2787 
Q 3425 2491 3425 1978 
L 3425 0 
L 2847 0 
L 2847 2094 
Q 2847 2600 2669 2842 
Q 2491 3084 2119 3084 
Q 1678 3084 1418 2786 
Q 1159 2488 1159 1978 
L 1159 0 
L 581 0 
L 581 3500 
L 1159 3500 
L 1159 2956 
Q 1356 3278 1631 3431 
Q 1906 3584 2284 3584 
Q 2666 3584 2933 3390 
Q 3200 3197 3328 2828 
z
" transform="scale(0.015625)"/>
       <path id="DejaVuSans-119" d="M 3597 1894 
L 3597 1613 
L 953 1613 
Q 991 1019 1311 708 
Q 1631 397 2203 397 
Q 2534 397 2845 478 
Q 3156 559 3463 722 
L 3463 178 
Q 3153 47 2828 -22 
Q 2503 -91 2169 -91 
Q 1331 -91 842 396 
Q 353 884 353 1716 
Q 353 2575 817 3079 
Q 1281 3584 2069 3584 
Q 2775 3584 3186 3129 
Q 3597 2675 3597 1894 
z
M 3022 2063 
Q 3016 2534 2758 2815 
Q 2500 3097 2075 3097 
Q 1594 3097 1305 2825 
Q 1016 2553 972 2059 
L 3022 2063 
z
M 2550 0 
L 2922 0 
Q 2781 -191 2714 -328 
Q 2647 -466 2647 -563 
Q 2647 -706 2733 -778 
Q 2819 -850 2988 -850 
Q 3088 -850 3184 -826 
Q 3281 -803 3378 -756 
L 3378 -1172 
Q 3259 -1203 3153 -1218 
Q 3047 -1234 2953 -1234 
Q 2572 -1234 2392 -1098 
Q 2213 -963 2213 -672 
Q 2213 -522 2295 -358 
Q 2378 -194 2550 0 
z
" transform="scale(0.015625)"/>
       <path id="DejaVuSans-64" d="M 2906 2969 
L 2906 4863 
L 3481 4863 
L 3481 0 
L 2906 0 
L 2906 525 
Q 2725 213 2448 61 
Q 2172 -91 1784 -91 
Q 1150 -91 751 415 
Q 353 922 353 1747 
Q 353 2572 751 3078 
Q 1150 3584 1784 3584 
Q 2172 3584 2448 3432 
Q 2725 3281 2906 2969 
z
M 947 1747 
Q 947 1113 1208 752 
Q 1469 391 1925 391 
Q 2381 391 2643 752 
Q 2906 1113 2906 1747 
Q 2906 2381 2643 2742 
Q 2381 3103 1925 3103 
Q 1469 3103 1208 2742 
Q 947 2381 947 1747 
z
" transform="scale(0.015625)"/>
       <path id="DejaVuSans-79" d="M 2059 -325 
Q 1816 -950 1584 -1140 
Q 1353 -1331 966 -1331 
L 506 -1331 
L 506 -850 
L 844 -850 
Q 1081 -850 1212 -737 
Q 1344 -625 1503 -206 
L 1606 56 
L 191 3500 
L 800 3500 
L 1894 763 
L 2988 3500 
L 3597 3500 
L 2059 -325 
z
" transform="scale(0.015625)"/>
       <path id="DejaVuSans-6b" d="M 581 4863 
L 1159 4863 
L 1159 1991 
L 2875 3500 
L 3609 3500 
L 1753 1863 
L 3688 0 
L 2938 0 
L 1159 1709 
L 1159 0 
L 581 0 
L 581 4863 
z
" transform="scale(0.015625)"/>
       <path id="DejaVuSans-75" d="M 544 1381 
L 544 3500 
L 1119 3500 
L 1119 1403 
Q 1119 906 1312 657 
Q 1506 409 1894 409 
Q 2359 409 2629 706 
Q 2900 1003 2900 1516 
L 2900 3500 
L 3475 3500 
L 3475 0 
L 2900 0 
L 2900 538 
Q 2691 219 2414 64 
Q 2138 -91 1772 -91 
Q 1169 -91 856 284 
Q 544 659 544 1381 
z
M 1991 3584 
L 1991 3584 
z
" transform="scale(0.015625)"/>
       <path id="DejaVuSans-74" d="M 1172 4494 
L 1172 3500 
L 2356 3500 
L 2356 3053 
L 1172 3053 
L 1172 1153 
Q 1172 725 1289 603 
Q 1406 481 1766 481 
L 2356 481 
L 2356 0 
L 1766 0 
Q 1100 0 847 248 
Q 594 497 594 1153 
L 594 3053 
L 172 3053 
L 172 3500 
L 594 3500 
L 594 4494 
L 1172 4494 
z
" transform="scale(0.015625)"/>
      </defs>
      <use xlink:href="#DejaVuSans-52"/>
      <use xlink:href="#DejaVuSans-f3" x="64.982422"/>
      <use xlink:href="#DejaVuSans-17c" x="126.164062"/>
      <use xlink:href="#DejaVuSans-6e" x="178.654297"/>
      <use xlink:href="#DejaVuSans-69" x="242.033203"/>
      <use xlink:href="#DejaVuSans-63" x="269.816406"/>
      <use xlink:href="#DejaVuSans-61" x="324.796875"/>
      <use xlink:href="#DejaVuSans-20" x="386.076172"/>
      <use xlink:href="#DejaVuSans-6d" x="417.863281"/>
      <use xlink:href="#DejaVuSans-69" x="515.275391"/>
      <use xlink:href="#DejaVuSans-119" x="543.058594"/>
      <use xlink:href="#DejaVuSans-64" x="604.582031"/>
      <use xlink:href="#DejaVuSans-7a" x="668.058594"/>
      <use xlink:href="#DejaVuSans-79" x="720.548828"/>
      <use xlink:href="#DejaVuSans-20" x="779.728516"/>
      <use xlink:href="#DejaVuSans-6f" x="811.515625"/>
      <use xlink:href="#DejaVuSans-63" x="872.697266"/>
      <use xlink:href="#DejaVuSans-7a" x="927.677734"/>
      <use xlink:href="#DejaVuSans-65" x="980.167969"/>
      <use xlink:href="#DejaVuSans-6b" x="1041.691406"/>
      <use xlink:href="#DejaVuSans-69" x="1099.601562"/>
      <use xlink:href="#DejaVuSans-77" x="1127.384766"/>
      <use xlink:href="#DejaVuSans-61" x="1209.171875"/>
      <use xlink:href="#DejaVuSans-6e" x="1270.451172"/>
      <use xlink:href="#DejaVuSans-69" x="1333.830078"/>
      <use xlink:href="#DejaVuSans-61" x="1361.613281"/>
      <use xlink:href="#DejaVuSans-6d" x="1422.892578"/>
      <use xlink:href="#DejaVuSans-69" x="1520.304688"/>
      <use xlink:href="#DejaVuSans-20" x="1548.087891"/>
      <use xlink:href="#DejaVuSans-6b" x="1579.875"/>
      <use xlink:href="#DejaVuSans-6f" x="1634.160156"/>
      <use xlink:href="#DejaVuSans-6e" x="1695.341797"/>
      <use xlink:href="#DejaVuSans-73" x="1758.720703"/>
      <use xlink:href="#DejaVuSans-75" x="1810.820312"/>
      <use xlink:href="#DejaVuSans-6d" x="1874.199219"/>
      <use xlink:href="#DejaVuSans-65" x="1971.611328"/>
      <use xlink:href="#DejaVuSans-6e" x="2033.134766"/>
      <use xlink:href="#DejaVuSans-74" x="2096.513672"/>
      <use xlink:href="#DejaVuSans-f3" x="2135.722656"/>
      <use xlink:href="#DejaVuSans-77" x="2196.904297"/>
      <use xlink:href="#DejaVuSans-20" x="2278.691406"/>
     </g>
     <!--  a średnim poziomem jakości -->
     <g transform="translate(26.371893 223.371828)rotate(-90)scale(0.11 -0.11)">
      <defs>
       <path id="DejaVuSans-15b" d="M 2241 5141 
L 2863 5141 
L 1844 3966 
L 1366 3966 
L 2241 5141 
z
M 2834 3397 
L 2834 2853 
Q 2591 2978 2328 3040 
Q 2066 3103 1784 3103 
Q 1356 3103 1142 2972 
Q 928 2841 928 2578 
Q 928 2378 1081 2264 
Q 1234 2150 1697 2047 
L 1894 2003 
Q 2506 1872 2764 1633 
Q 3022 1394 3022 966 
Q 3022 478 2636 193 
Q 2250 -91 1575 -91 
Q 1294 -91 989 -36 
Q 684 19 347 128 
L 347 722 
Q 666 556 975 473 
Q 1284 391 1588 391 
Q 1994 391 2212 530 
Q 2431 669 2431 922 
Q 2431 1156 2273 1281 
Q 2116 1406 1581 1522 
L 1381 1569 
Q 847 1681 609 1914 
Q 372 2147 372 2553 
Q 372 3047 722 3315 
Q 1072 3584 1716 3584 
Q 2034 3584 2315 3537 
Q 2597 3491 2834 3397 
z
" transform="scale(0.015625)"/>
       <path id="DejaVuSans-72" d="M 2631 2963 
Q 2534 3019 2420 3045 
Q 2306 3072 2169 3072 
Q 1681 3072 1420 2755 
Q 1159 2438 1159 1844 
L 1159 0 
L 581 0 
L 581 3500 
L 1159 3500 
L 1159 2956 
Q 1341 3275 1631 3429 
Q 1922 3584 2338 3584 
Q 2397 3584 2469 3576 
Q 2541 3569 2628 3553 
L 2631 2963 
z
" transform="scale(0.015625)"/>
       <path id="DejaVuSans-6a" d="M 603 3500 
L 1178 3500 
L 1178 -63 
Q 1178 -731 923 -1031 
Q 669 -1331 103 -1331 
L -116 -1331 
L -116 -844 
L 38 -844 
Q 366 -844 484 -692 
Q 603 -541 603 -63 
L 603 3500 
z
M 603 4863 
L 1178 4863 
L 1178 4134 
L 603 4134 
L 603 4863 
z
" transform="scale(0.015625)"/>
      </defs>
      <use xlink:href="#DejaVuSans-20"/>
      <use xlink:href="#DejaVuSans-61" x="31.787109"/>
      <use xlink:href="#DejaVuSans-20" x="93.066406"/>
      <use xlink:href="#DejaVuSans-15b" x="124.853516"/>
      <use xlink:href="#DejaVuSans-72" x="176.953125"/>
      <use xlink:href="#DejaVuSans-65" x="215.816406"/>
      <use xlink:href="#DejaVuSans-64" x="277.339844"/>
      <use xlink:href="#DejaVuSans-6e" x="340.816406"/>
      <use xlink:href="#DejaVuSans-69" x="404.195312"/>
      <use xlink:href="#DejaVuSans-6d" x="431.978516"/>
      <use xlink:href="#DejaVuSans-20" x="529.390625"/>
      <use xlink:href="#DejaVuSans-70" x="561.177734"/>
      <use xlink:href="#DejaVuSans-6f" x="624.654297"/>
      <use xlink:href="#DejaVuSans-7a" x="685.835938"/>
      <use xlink:href="#DejaVuSans-69" x="738.326172"/>
      <use xlink:href="#DejaVuSans-6f" x="766.109375"/>
      <use xlink:href="#DejaVuSans-6d" x="827.291016"/>
      <use xlink:href="#DejaVuSans-65" x="924.703125"/>
      <use xlink:href="#DejaVuSans-6d" x="986.226562"/>
      <use xlink:href="#DejaVuSans-20" x="1083.638672"/>
      <use xlink:href="#DejaVuSans-6a" x="1115.425781"/>
      <use xlink:href="#DejaVuSans-61" x="1143.208984"/>
      <use xlink:href="#DejaVuSans-6b" x="1204.488281"/>
      <use xlink:href="#DejaVuSans-6f" x="1258.773438"/>
      <use xlink:href="#DejaVuSans-15b" x="1319.955078"/>
      <use xlink:href="#DejaVuSans-63" x="1372.054688"/>
      <use xlink:href="#DejaVuSans-69" x="1427.035156"/>
     </g>
    </g>
   </g>
   <g id="line2d_23">
    <path d="M 64.509195 109.785577 
L 414.830709 251.044183 
" clip-path="url(#p2016f7df67)" style="fill: none; stroke: #009afa"/>
   </g>
   <g id="PathCollection_1">
    <defs>
     <path id="m8592be5537" d="M 0 2 
C 0.530406 2 1.03916 1.789267 1.414214 1.414214 
C 1.789267 1.03916 2 0.530406 2 0 
C 2 -0.530406 1.789267 -1.03916 1.414214 -1.414214 
C 1.03916 -1.789267 0.530406 -2 0 -2 
C -0.530406 -2 -1.03916 -1.789267 -1.414214 -1.414214 
C -1.789267 -1.03916 -2 -0.530406 -2 0 
C -2 0.530406 -1.789267 1.03916 -1.414214 1.414214 
C -1.03916 1.789267 -0.530406 2 0 2 
z
" style="stroke: #000000"/>
    </defs>
    <g clip-path="url(#p2016f7df67)">
     <use xlink:href="#m8592be5537" x="64.509195" y="90.074732" style="fill: #009afa; stroke: #000000"/>
     <use xlink:href="#m8592be5537" x="152.089574" y="160.774834" style="fill: #009afa; stroke: #000000"/>
     <use xlink:href="#m8592be5537" x="239.669952" y="201.362533" style="fill: #009afa; stroke: #000000"/>
     <use xlink:href="#m8592be5537" x="327.25033" y="205.65379" style="fill: #009afa; stroke: #000000"/>
     <use xlink:href="#m8592be5537" x="414.830709" y="244.208512" style="fill: #009afa; stroke: #000000"/>
    </g>
   </g>
   <g id="line2d_24">
    <path d="M 64.509195 35.671817 
L 414.830709 182.893469 
" clip-path="url(#p2016f7df67)" style="fill: none; stroke: #e36f47"/>
   </g>
   <g id="PathCollection_2">
    <defs>
     <path id="m9aac66f9d3" d="M 0 2 
C 0.530406 2 1.03916 1.789267 1.414214 1.414214 
C 1.789267 1.03916 2 0.530406 2 0 
C 2 -0.530406 1.789267 -1.03916 1.414214 -1.414214 
C 1.03916 -1.789267 0.530406 -2 0 -2 
C -0.530406 -2 -1.03916 -1.789267 -1.414214 -1.414214 
C -1.789267 -1.03916 -2 -0.530406 -2 0 
C -2 0.530406 -1.789267 1.03916 -1.414214 1.414214 
C -1.03916 1.789267 -0.530406 2 0 2 
z
" style="stroke: #000000"/>
    </defs>
    <g clip-path="url(#p2016f7df67)">
     <use xlink:href="#m9aac66f9d3" x="64.509195" y="67.430136" style="fill: #e36f47; stroke: #000000"/>
     <use xlink:href="#m9aac66f9d3" x="152.089574" y="45.040238" style="fill: #e36f47; stroke: #000000"/>
     <use xlink:href="#m9aac66f9d3" x="239.669952" y="100.784377" style="fill: #e36f47; stroke: #000000"/>
     <use xlink:href="#m9aac66f9d3" x="327.25033" y="118.362288" style="fill: #e36f47; stroke: #000000"/>
     <use xlink:href="#m9aac66f9d3" x="414.830709" y="214.796177" style="fill: #e36f47; stroke: #000000"/>
    </g>
   </g>
   <g id="patch_3">
    <path d="M 53.99955 257.505354 
L 53.99955 29.210646 
" style="fill: none; stroke: #000000; stroke-linejoin: miter; stroke-linecap: square"/>
   </g>
   <g id="patch_4">
    <path d="M 53.99955 257.505354 
L 425.340354 257.505354 
" style="fill: none; stroke: #000000; stroke-linejoin: miter; stroke-linecap: square"/>
   </g>
   <g id="text_14">
    <!-- Różnice oczekiwań konsumentów i średnich parametrów produktów  -->
    <g transform="translate(68.631671 11.491583)scale(0.1 -0.1)">
     <defs>
      <path id="DejaVuSans-68" d="M 3513 2113 
L 3513 0 
L 2938 0 
L 2938 2094 
Q 2938 2591 2744 2837 
Q 2550 3084 2163 3084 
Q 1697 3084 1428 2787 
Q 1159 2491 1159 1978 
L 1159 0 
L 581 0 
L 581 4863 
L 1159 4863 
L 1159 2956 
Q 1366 3272 1645 3428 
Q 1925 3584 2291 3584 
Q 2894 3584 3203 3211 
Q 3513 2838 3513 2113 
z
" transform="scale(0.015625)"/>
     </defs>
     <use xlink:href="#DejaVuSans-52"/>
     <use xlink:href="#DejaVuSans-f3" x="64.982422"/>
     <use xlink:href="#DejaVuSans-17c" x="126.164062"/>
     <use xlink:href="#DejaVuSans-6e" x="178.654297"/>
     <use xlink:href="#DejaVuSans-69" x="242.033203"/>
     <use xlink:href="#DejaVuSans-63" x="269.816406"/>
     <use xlink:href="#DejaVuSans-65" x="324.796875"/>
     <use xlink:href="#DejaVuSans-20" x="386.320312"/>
     <use xlink:href="#DejaVuSans-6f" x="418.107422"/>
     <use xlink:href="#DejaVuSans-63" x="479.289062"/>
     <use xlink:href="#DejaVuSans-7a" x="534.269531"/>
     <use xlink:href="#DejaVuSans-65" x="586.759766"/>
     <use xlink:href="#DejaVuSans-6b" x="648.283203"/>
     <use xlink:href="#DejaVuSans-69" x="706.193359"/>
     <use xlink:href="#DejaVuSans-77" x="733.976562"/>
     <use xlink:href="#DejaVuSans-61" x="815.763672"/>
     <use xlink:href="#DejaVuSans-144" x="877.042969"/>
     <use xlink:href="#DejaVuSans-20" x="940.421875"/>
     <use xlink:href="#DejaVuSans-6b" x="972.208984"/>
     <use xlink:href="#DejaVuSans-6f" x="1026.494141"/>
     <use xlink:href="#DejaVuSans-6e" x="1087.675781"/>
     <use xlink:href="#DejaVuSans-73" x="1151.054688"/>
     <use xlink:href="#DejaVuSans-75" x="1203.154297"/>
     <use xlink:href="#DejaVuSans-6d" x="1266.533203"/>
     <use xlink:href="#DejaVuSans-65" x="1363.945312"/>
     <use xlink:href="#DejaVuSans-6e" x="1425.46875"/>
     <use xlink:href="#DejaVuSans-74" x="1488.847656"/>
     <use xlink:href="#DejaVuSans-f3" x="1528.056641"/>
     <use xlink:href="#DejaVuSans-77" x="1589.238281"/>
     <use xlink:href="#DejaVuSans-20" x="1671.025391"/>
     <use xlink:href="#DejaVuSans-69" x="1702.8125"/>
     <use xlink:href="#DejaVuSans-20" x="1730.595703"/>
     <use xlink:href="#DejaVuSans-15b" x="1762.382812"/>
     <use xlink:href="#DejaVuSans-72" x="1814.482422"/>
     <use xlink:href="#DejaVuSans-65" x="1853.345703"/>
     <use xlink:href="#DejaVuSans-64" x="1914.869141"/>
     <use xlink:href="#DejaVuSans-6e" x="1978.345703"/>
     <use xlink:href="#DejaVuSans-69" x="2041.724609"/>
     <use xlink:href="#DejaVuSans-63" x="2069.507812"/>
     <use xlink:href="#DejaVuSans-68" x="2124.488281"/>
     <use xlink:href="#DejaVuSans-20" x="2187.867188"/>
     <use xlink:href="#DejaVuSans-70" x="2219.654297"/>
     <use xlink:href="#DejaVuSans-61" x="2283.130859"/>
     <use xlink:href="#DejaVuSans-72" x="2344.410156"/>
     <use xlink:href="#DejaVuSans-61" x="2385.523438"/>
     <use xlink:href="#DejaVuSans-6d" x="2446.802734"/>
     <use xlink:href="#DejaVuSans-65" x="2544.214844"/>
     <use xlink:href="#DejaVuSans-74" x="2605.738281"/>
     <use xlink:href="#DejaVuSans-72" x="2644.947266"/>
     <use xlink:href="#DejaVuSans-f3" x="2683.810547"/>
     <use xlink:href="#DejaVuSans-77" x="2744.992188"/>
     <use xlink:href="#DejaVuSans-20" x="2826.779297"/>
     <use xlink:href="#DejaVuSans-70" x="2858.566406"/>
     <use xlink:href="#DejaVuSans-72" x="2922.042969"/>
     <use xlink:href="#DejaVuSans-6f" x="2960.90625"/>
     <use xlink:href="#DejaVuSans-64" x="3022.087891"/>
     <use xlink:href="#DejaVuSans-75" x="3085.564453"/>
     <use xlink:href="#DejaVuSans-6b" x="3148.943359"/>
     <use xlink:href="#DejaVuSans-74" x="3206.853516"/>
     <use xlink:href="#DejaVuSans-f3" x="3246.0625"/>
     <use xlink:href="#DejaVuSans-77" x="3307.244141"/>
     <use xlink:href="#DejaVuSans-20" x="3389.03125"/>
    </g>
    <!--  a liczba połączeń w sieci -->
    <g transform="translate(176.635577 23.210646)scale(0.1 -0.1)">
     <defs>
      <path id="DejaVuSans-6c" d="M 603 4863 
L 1178 4863 
L 1178 0 
L 603 0 
L 603 4863 
z
" transform="scale(0.015625)"/>
     </defs>
     <use xlink:href="#DejaVuSans-20"/>
     <use xlink:href="#DejaVuSans-61" x="31.787109"/>
     <use xlink:href="#DejaVuSans-20" x="93.066406"/>
     <use xlink:href="#DejaVuSans-6c" x="124.853516"/>
     <use xlink:href="#DejaVuSans-69" x="152.636719"/>
     <use xlink:href="#DejaVuSans-63" x="180.419922"/>
     <use xlink:href="#DejaVuSans-7a" x="235.400391"/>
     <use xlink:href="#DejaVuSans-62" x="287.890625"/>
     <use xlink:href="#DejaVuSans-61" x="351.367188"/>
     <use xlink:href="#DejaVuSans-20" x="412.646484"/>
     <use xlink:href="#DejaVuSans-70" x="444.433594"/>
     <use xlink:href="#DejaVuSans-6f" x="507.910156"/>
     <use xlink:href="#DejaVuSans-142" x="569.091797"/>
     <use xlink:href="#DejaVuSans-105" x="597.509766"/>
     <use xlink:href="#DejaVuSans-63" x="658.789062"/>
     <use xlink:href="#DejaVuSans-7a" x="713.769531"/>
     <use xlink:href="#DejaVuSans-65" x="766.259766"/>
     <use xlink:href="#DejaVuSans-144" x="827.783203"/>
     <use xlink:href="#DejaVuSans-20" x="891.162109"/>
     <use xlink:href="#DejaVuSans-77" x="922.949219"/>
     <use xlink:href="#DejaVuSans-20" x="1004.736328"/>
     <use xlink:href="#DejaVuSans-73" x="1036.523438"/>
     <use xlink:href="#DejaVuSans-69" x="1088.623047"/>
     <use xlink:href="#DejaVuSans-65" x="1116.40625"/>
     <use xlink:href="#DejaVuSans-63" x="1177.929688"/>
     <use xlink:href="#DejaVuSans-69" x="1232.910156"/>
    </g>
   </g>
   <g id="legend_1">
    <g id="patch_5">
     <path d="M 244.911604 65.843146 
L 421.340354 65.843146 
L 421.340354 33.210646 
L 244.911604 33.210646 
z
" style="fill: #ffffff; stroke: #000000; stroke-linejoin: miter"/>
    </g>
    <g id="line2d_25">
     <path d="M 251.311604 42.889396 
L 259.311604 42.889396 
L 267.311604 42.889396 
" style="fill: none"/>
     <defs>
      <path id="m7b5d4fd30a" d="M 0 3.2 
C 0.84865 3.2 1.662656 2.862828 2.262742 2.262742 
C 2.862828 1.662656 3.2 0.84865 3.2 0 
C 3.2 -0.84865 2.862828 -1.662656 2.262742 -2.262742 
C 1.662656 -2.862828 0.84865 -3.2 0 -3.2 
C -0.84865 -3.2 -1.662656 -2.862828 -2.262742 -2.262742 
C -2.862828 -1.662656 -3.2 -0.84865 -3.2 0 
C -3.2 0.84865 -2.862828 1.662656 -2.262742 2.262742 
C -1.662656 2.862828 -0.84865 3.2 0 3.2 
z
" style="stroke: #000000; stroke-width: 1.6"/>
     </defs>
     <g>
      <use xlink:href="#m7b5d4fd30a" x="259.311604" y="42.889396" style="fill: #009afa; stroke: #000000; stroke-width: 1.6"/>
     </g>
    </g>
    <g id="text_15">
     <!-- Brak badań konsumentów -->
     <g transform="translate(273.711604 45.689396)scale(0.08 -0.08)">
      <defs>
       <path id="DejaVuSans-42" d="M 1259 2228 
L 1259 519 
L 2272 519 
Q 2781 519 3026 730 
Q 3272 941 3272 1375 
Q 3272 1813 3026 2020 
Q 2781 2228 2272 2228 
L 1259 2228 
z
M 1259 4147 
L 1259 2741 
L 2194 2741 
Q 2656 2741 2882 2914 
Q 3109 3088 3109 3444 
Q 3109 3797 2882 3972 
Q 2656 4147 2194 4147 
L 1259 4147 
z
M 628 4666 
L 2241 4666 
Q 2963 4666 3353 4366 
Q 3744 4066 3744 3513 
Q 3744 3084 3544 2831 
Q 3344 2578 2956 2516 
Q 3422 2416 3680 2098 
Q 3938 1781 3938 1306 
Q 3938 681 3513 340 
Q 3088 0 2303 0 
L 628 0 
L 628 4666 
z
" transform="scale(0.015625)"/>
      </defs>
      <use xlink:href="#DejaVuSans-42"/>
      <use xlink:href="#DejaVuSans-72" x="68.603516"/>
      <use xlink:href="#DejaVuSans-61" x="109.716797"/>
      <use xlink:href="#DejaVuSans-6b" x="170.996094"/>
      <use xlink:href="#DejaVuSans-20" x="228.90625"/>
      <use xlink:href="#DejaVuSans-62" x="260.693359"/>
      <use xlink:href="#DejaVuSans-61" x="324.169922"/>
      <use xlink:href="#DejaVuSans-64" x="385.449219"/>
      <use xlink:href="#DejaVuSans-61" x="448.925781"/>
      <use xlink:href="#DejaVuSans-144" x="510.205078"/>
      <use xlink:href="#DejaVuSans-20" x="573.583984"/>
      <use xlink:href="#DejaVuSans-6b" x="605.371094"/>
      <use xlink:href="#DejaVuSans-6f" x="659.65625"/>
      <use xlink:href="#DejaVuSans-6e" x="720.837891"/>
      <use xlink:href="#DejaVuSans-73" x="784.216797"/>
      <use xlink:href="#DejaVuSans-75" x="836.316406"/>
      <use xlink:href="#DejaVuSans-6d" x="899.695312"/>
      <use xlink:href="#DejaVuSans-65" x="997.107422"/>
      <use xlink:href="#DejaVuSans-6e" x="1058.630859"/>
      <use xlink:href="#DejaVuSans-74" x="1122.009766"/>
      <use xlink:href="#DejaVuSans-f3" x="1161.21875"/>
      <use xlink:href="#DejaVuSans-77" x="1222.400391"/>
     </g>
    </g>
    <g id="line2d_26">
     <path d="M 251.311604 54.979396 
L 259.311604 54.979396 
L 267.311604 54.979396 
" style="fill: none"/>
     <defs>
      <path id="mea3eef89ba" d="M 0 3.2 
C 0.84865 3.2 1.662656 2.862828 2.262742 2.262742 
C 2.862828 1.662656 3.2 0.84865 3.2 0 
C 3.2 -0.84865 2.862828 -1.662656 2.262742 -2.262742 
C 1.662656 -2.862828 0.84865 -3.2 0 -3.2 
C -0.84865 -3.2 -1.662656 -2.862828 -2.262742 -2.262742 
C -2.862828 -1.662656 -3.2 -0.84865 -3.2 0 
C -3.2 0.84865 -2.862828 1.662656 -2.262742 2.262742 
C -1.662656 2.862828 -0.84865 3.2 0 3.2 
z
" style="stroke: #000000; stroke-width: 1.6"/>
     </defs>
     <g>
      <use xlink:href="#mea3eef89ba" x="259.311604" y="54.979396" style="fill: #e36f47; stroke: #000000; stroke-width: 1.6"/>
     </g>
    </g>
    <g id="text_16">
     <!-- Wykonywanie badań konsumentów -->
     <g transform="translate(273.711604 57.779396)scale(0.08 -0.08)">
      <defs>
       <path id="DejaVuSans-57" d="M 213 4666 
L 850 4666 
L 1831 722 
L 2809 4666 
L 3519 4666 
L 4500 722 
L 5478 4666 
L 6119 4666 
L 4947 0 
L 4153 0 
L 3169 4050 
L 2175 0 
L 1381 0 
L 213 4666 
z
" transform="scale(0.015625)"/>
      </defs>
      <use xlink:href="#DejaVuSans-57"/>
      <use xlink:href="#DejaVuSans-79" x="97.126953"/>
      <use xlink:href="#DejaVuSans-6b" x="156.306641"/>
      <use xlink:href="#DejaVuSans-6f" x="210.591797"/>
      <use xlink:href="#DejaVuSans-6e" x="271.773438"/>
      <use xlink:href="#DejaVuSans-79" x="335.152344"/>
      <use xlink:href="#DejaVuSans-77" x="394.332031"/>
      <use xlink:href="#DejaVuSans-61" x="476.119141"/>
      <use xlink:href="#DejaVuSans-6e" x="537.398438"/>
      <use xlink:href="#DejaVuSans-69" x="600.777344"/>
      <use xlink:href="#DejaVuSans-65" x="628.560547"/>
      <use xlink:href="#DejaVuSans-20" x="690.083984"/>
      <use xlink:href="#DejaVuSans-62" x="721.871094"/>
      <use xlink:href="#DejaVuSans-61" x="785.347656"/>
      <use xlink:href="#DejaVuSans-64" x="846.626953"/>
      <use xlink:href="#DejaVuSans-61" x="910.103516"/>
      <use xlink:href="#DejaVuSans-144" x="971.382812"/>
      <use xlink:href="#DejaVuSans-20" x="1034.761719"/>
      <use xlink:href="#DejaVuSans-6b" x="1066.548828"/>
      <use xlink:href="#DejaVuSans-6f" x="1120.833984"/>
      <use xlink:href="#DejaVuSans-6e" x="1182.015625"/>
      <use xlink:href="#DejaVuSans-73" x="1245.394531"/>
      <use xlink:href="#DejaVuSans-75" x="1297.494141"/>
      <use xlink:href="#DejaVuSans-6d" x="1360.873047"/>
      <use xlink:href="#DejaVuSans-65" x="1458.285156"/>
      <use xlink:href="#DejaVuSans-6e" x="1519.808594"/>
      <use xlink:href="#DejaVuSans-74" x="1583.1875"/>
      <use xlink:href="#DejaVuSans-f3" x="1622.396484"/>
      <use xlink:href="#DejaVuSans-77" x="1683.578125"/>
     </g>
    </g>
   </g>
  </g>
 </g>
 <defs>
  <clipPath id="p2016f7df67">
   <rect x="53.99955" y="29.210646" width="371.340805" height="228.294709"/>
  </clipPath>
 </defs>
</svg>
