<?xml version="1.0" encoding="utf-8" standalone="no"?>
<!DOCTYPE svg PUBLIC "-//W3C//DTD SVG 1.1//EN"
  "http://www.w3.org/Graphics/SVG/1.1/DTD/svg11.dtd">
<svg xmlns:xlink="http://www.w3.org/1999/xlink" width="432pt" height="288pt" viewBox="0 0 432 288" xmlns="http://www.w3.org/2000/svg" version="1.1">
 <metadata>
  <rdf:RDF xmlns:dc="http://purl.org/dc/elements/1.1/" xmlns:cc="http://creativecommons.org/ns#" xmlns:rdf="http://www.w3.org/1999/02/22-rdf-syntax-ns#">
   <cc:Work>
    <dc:type rdf:resource="http://purl.org/dc/dcmitype/StillImage"/>
    <dc:date>2023-02-22T21:53:25.582704</dc:date>
    <dc:format>image/svg+xml</dc:format>
    <dc:creator>
     <cc:Agent>
      <dc:title>Matplotlib v3.5.2, https://matplotlib.org/</dc:title>
     </cc:Agent>
    </dc:creator>
   </cc:Work>
  </rdf:RDF>
 </metadata>
 <defs>
  <style type="text/css">*{stroke-linejoin: round; stroke-linecap: butt}</style>
 </defs>
 <g id="figure_1">
  <g id="patch_1">
   <path d="M 0 288 
L 432 288 
L 432 0 
L 0 0 
z
" style="fill: #ffffff"/>
  </g>
  <g id="axes_1">
   <g id="patch_2">
    <path d="M 41.061593 244.113354 
L 429.165354 244.113354 
L 429.165354 2.834646 
L 41.061593 2.834646 
z
" style="fill: #ffffff"/>
   </g>
   <g id="matplotlib.axis_1">
    <g id="xtick_1">
     <g id="line2d_1">
      <path d="M 94.163882 244.113354 
L 94.163882 2.834646 
" clip-path="url(#p1460b379ee)" style="fill: none; stroke: #000000; stroke-opacity: 0.1; stroke-width: 0.5; stroke-linecap: square"/>
     </g>
     <g id="line2d_2">
      <defs>
       <path id="mb9b6b6fd9d" d="M 0 0 
L 0 -2.5 
" style="stroke: #000000; stroke-width: 0.5"/>
      </defs>
      <g>
       <use xlink:href="#mb9b6b6fd9d" x="94.163882" y="244.113354" style="stroke: #000000; stroke-width: 0.5"/>
      </g>
     </g>
     <g id="text_1">
      <!-- $0.1$ -->
      <g transform="translate(87.763882 253.692104)scale(0.08 -0.08)">
       <defs>
        <path id="DejaVuSans-30" d="M 2034 4250 
Q 1547 4250 1301 3770 
Q 1056 3291 1056 2328 
Q 1056 1369 1301 889 
Q 1547 409 2034 409 
Q 2525 409 2770 889 
Q 3016 1369 3016 2328 
Q 3016 3291 2770 3770 
Q 2525 4250 2034 4250 
z
M 2034 4750 
Q 2819 4750 3233 4129 
Q 3647 3509 3647 2328 
Q 3647 1150 3233 529 
Q 2819 -91 2034 -91 
Q 1250 -91 836 529 
Q 422 1150 422 2328 
Q 422 3509 836 4129 
Q 1250 4750 2034 4750 
z
" transform="scale(0.015625)"/>
        <path id="DejaVuSans-2e" d="M 684 794 
L 1344 794 
L 1344 0 
L 684 0 
L 684 794 
z
" transform="scale(0.015625)"/>
        <path id="DejaVuSans-31" d="M 794 531 
L 1825 531 
L 1825 4091 
L 703 3866 
L 703 4441 
L 1819 4666 
L 2450 4666 
L 2450 531 
L 3481 531 
L 3481 0 
L 794 0 
L 794 531 
z
" transform="scale(0.015625)"/>
       </defs>
       <use xlink:href="#DejaVuSans-30" transform="translate(0 0.78125)"/>
       <use xlink:href="#DejaVuSans-2e" transform="translate(63.623047 0.78125)"/>
       <use xlink:href="#DejaVuSans-31" transform="translate(95.410156 0.78125)"/>
      </g>
     </g>
    </g>
    <g id="xtick_2">
     <g id="line2d_3">
      <path d="M 182.647083 244.113354 
L 182.647083 2.834646 
" clip-path="url(#p1460b379ee)" style="fill: none; stroke: #000000; stroke-opacity: 0.1; stroke-width: 0.5; stroke-linecap: square"/>
     </g>
     <g id="line2d_4">
      <g>
       <use xlink:href="#mb9b6b6fd9d" x="182.647083" y="244.113354" style="stroke: #000000; stroke-width: 0.5"/>
      </g>
     </g>
     <g id="text_2">
      <!-- $0.2$ -->
      <g transform="translate(176.487083 253.692104)scale(0.08 -0.08)">
       <defs>
        <path id="DejaVuSans-32" d="M 1228 531 
L 3431 531 
L 3431 0 
L 469 0 
L 469 531 
Q 828 903 1448 1529 
Q 2069 2156 2228 2338 
Q 2531 2678 2651 2914 
Q 2772 3150 2772 3378 
Q 2772 3750 2511 3984 
Q 2250 4219 1831 4219 
Q 1534 4219 1204 4116 
Q 875 4013 500 3803 
L 500 4441 
Q 881 4594 1212 4672 
Q 1544 4750 1819 4750 
Q 2544 4750 2975 4387 
Q 3406 4025 3406 3419 
Q 3406 3131 3298 2873 
Q 3191 2616 2906 2266 
Q 2828 2175 2409 1742 
Q 1991 1309 1228 531 
z
" transform="scale(0.015625)"/>
       </defs>
       <use xlink:href="#DejaVuSans-30" transform="translate(0 0.78125)"/>
       <use xlink:href="#DejaVuSans-2e" transform="translate(63.623047 0.78125)"/>
       <use xlink:href="#DejaVuSans-32" transform="translate(89.910156 0.78125)"/>
      </g>
     </g>
    </g>
    <g id="xtick_3">
     <g id="line2d_5">
      <path d="M 271.130284 244.113354 
L 271.130284 2.834646 
" clip-path="url(#p1460b379ee)" style="fill: none; stroke: #000000; stroke-opacity: 0.1; stroke-width: 0.5; stroke-linecap: square"/>
     </g>
     <g id="line2d_6">
      <g>
       <use xlink:href="#mb9b6b6fd9d" x="271.130284" y="244.113354" style="stroke: #000000; stroke-width: 0.5"/>
      </g>
     </g>
     <g id="text_3">
      <!-- $0.3$ -->
      <g transform="translate(264.730284 253.692104)scale(0.08 -0.08)">
       <defs>
        <path id="DejaVuSans-33" d="M 2597 2516 
Q 3050 2419 3304 2112 
Q 3559 1806 3559 1356 
Q 3559 666 3084 287 
Q 2609 -91 1734 -91 
Q 1441 -91 1130 -33 
Q 819 25 488 141 
L 488 750 
Q 750 597 1062 519 
Q 1375 441 1716 441 
Q 2309 441 2620 675 
Q 2931 909 2931 1356 
Q 2931 1769 2642 2001 
Q 2353 2234 1838 2234 
L 1294 2234 
L 1294 2753 
L 1863 2753 
Q 2328 2753 2575 2939 
Q 2822 3125 2822 3475 
Q 2822 3834 2567 4026 
Q 2313 4219 1838 4219 
Q 1578 4219 1281 4162 
Q 984 4106 628 3988 
L 628 4550 
Q 988 4650 1302 4700 
Q 1616 4750 1894 4750 
Q 2613 4750 3031 4423 
Q 3450 4097 3450 3541 
Q 3450 3153 3228 2886 
Q 3006 2619 2597 2516 
z
" transform="scale(0.015625)"/>
       </defs>
       <use xlink:href="#DejaVuSans-30" transform="translate(0 0.78125)"/>
       <use xlink:href="#DejaVuSans-2e" transform="translate(63.623047 0.78125)"/>
       <use xlink:href="#DejaVuSans-33" transform="translate(95.410156 0.78125)"/>
      </g>
     </g>
    </g>
    <g id="xtick_4">
     <g id="line2d_7">
      <path d="M 359.613486 244.113354 
L 359.613486 2.834646 
" clip-path="url(#p1460b379ee)" style="fill: none; stroke: #000000; stroke-opacity: 0.1; stroke-width: 0.5; stroke-linecap: square"/>
     </g>
     <g id="line2d_8">
      <g>
       <use xlink:href="#mb9b6b6fd9d" x="359.613486" y="244.113354" style="stroke: #000000; stroke-width: 0.5"/>
      </g>
     </g>
     <g id="text_4">
      <!-- $0.4$ -->
      <g transform="translate(353.213486 253.692104)scale(0.08 -0.08)">
       <defs>
        <path id="DejaVuSans-34" d="M 2419 4116 
L 825 1625 
L 2419 1625 
L 2419 4116 
z
M 2253 4666 
L 3047 4666 
L 3047 1625 
L 3713 1625 
L 3713 1100 
L 3047 1100 
L 3047 0 
L 2419 0 
L 2419 1100 
L 313 1100 
L 313 1709 
L 2253 4666 
z
" transform="scale(0.015625)"/>
       </defs>
       <use xlink:href="#DejaVuSans-30" transform="translate(0 0.78125)"/>
       <use xlink:href="#DejaVuSans-2e" transform="translate(63.623047 0.78125)"/>
       <use xlink:href="#DejaVuSans-34" transform="translate(95.410156 0.78125)"/>
      </g>
     </g>
    </g>
    <g id="text_5">
     <!-- Różnica między oczekiwaniami konsumentów  -->
     <g transform="translate(108.039411 268.154136)scale(0.11 -0.11)">
      <defs>
       <path id="DejaVuSans-52" d="M 2841 2188 
Q 3044 2119 3236 1894 
Q 3428 1669 3622 1275 
L 4263 0 
L 3584 0 
L 2988 1197 
Q 2756 1666 2539 1819 
Q 2322 1972 1947 1972 
L 1259 1972 
L 1259 0 
L 628 0 
L 628 4666 
L 2053 4666 
Q 2853 4666 3247 4331 
Q 3641 3997 3641 3322 
Q 3641 2881 3436 2590 
Q 3231 2300 2841 2188 
z
M 1259 4147 
L 1259 2491 
L 2053 2491 
Q 2509 2491 2742 2702 
Q 2975 2913 2975 3322 
Q 2975 3731 2742 3939 
Q 2509 4147 2053 4147 
L 1259 4147 
z
" transform="scale(0.015625)"/>
       <path id="DejaVuSans-f3" d="M 1959 3097 
Q 1497 3097 1228 2736 
Q 959 2375 959 1747 
Q 959 1119 1226 758 
Q 1494 397 1959 397 
Q 2419 397 2687 759 
Q 2956 1122 2956 1747 
Q 2956 2369 2687 2733 
Q 2419 3097 1959 3097 
z
M 1959 3584 
Q 2709 3584 3137 3096 
Q 3566 2609 3566 1747 
Q 3566 888 3137 398 
Q 2709 -91 1959 -91 
Q 1206 -91 779 398 
Q 353 888 353 1747 
Q 353 2609 779 3096 
Q 1206 3584 1959 3584 
z
M 2394 5119 
L 3016 5119 
L 1997 3944 
L 1519 3944 
L 2394 5119 
z
" transform="scale(0.015625)"/>
       <path id="DejaVuSans-17c" d="M 1378 4863 
L 1953 4863 
L 1953 4134 
L 1378 4134 
L 1378 4863 
z
M 1672 3584 
L 1672 3584 
z
M 353 3500 
L 3084 3500 
L 3084 2975 
L 922 459 
L 3084 459 
L 3084 0 
L 275 0 
L 275 525 
L 2438 3041 
L 353 3041 
L 353 3500 
z
" transform="scale(0.015625)"/>
       <path id="DejaVuSans-6e" d="M 3513 2113 
L 3513 0 
L 2938 0 
L 2938 2094 
Q 2938 2591 2744 2837 
Q 2550 3084 2163 3084 
Q 1697 3084 1428 2787 
Q 1159 2491 1159 1978 
L 1159 0 
L 581 0 
L 581 3500 
L 1159 3500 
L 1159 2956 
Q 1366 3272 1645 3428 
Q 1925 3584 2291 3584 
Q 2894 3584 3203 3211 
Q 3513 2838 3513 2113 
z
" transform="scale(0.015625)"/>
       <path id="DejaVuSans-69" d="M 603 3500 
L 1178 3500 
L 1178 0 
L 603 0 
L 603 3500 
z
M 603 4863 
L 1178 4863 
L 1178 4134 
L 603 4134 
L 603 4863 
z
" transform="scale(0.015625)"/>
       <path id="DejaVuSans-63" d="M 3122 3366 
L 3122 2828 
Q 2878 2963 2633 3030 
Q 2388 3097 2138 3097 
Q 1578 3097 1268 2742 
Q 959 2388 959 1747 
Q 959 1106 1268 751 
Q 1578 397 2138 397 
Q 2388 397 2633 464 
Q 2878 531 3122 666 
L 3122 134 
Q 2881 22 2623 -34 
Q 2366 -91 2075 -91 
Q 1284 -91 818 406 
Q 353 903 353 1747 
Q 353 2603 823 3093 
Q 1294 3584 2113 3584 
Q 2378 3584 2631 3529 
Q 2884 3475 3122 3366 
z
" transform="scale(0.015625)"/>
       <path id="DejaVuSans-61" d="M 2194 1759 
Q 1497 1759 1228 1600 
Q 959 1441 959 1056 
Q 959 750 1161 570 
Q 1363 391 1709 391 
Q 2188 391 2477 730 
Q 2766 1069 2766 1631 
L 2766 1759 
L 2194 1759 
z
M 3341 1997 
L 3341 0 
L 2766 0 
L 2766 531 
Q 2569 213 2275 61 
Q 1981 -91 1556 -91 
Q 1019 -91 701 211 
Q 384 513 384 1019 
Q 384 1609 779 1909 
Q 1175 2209 1959 2209 
L 2766 2209 
L 2766 2266 
Q 2766 2663 2505 2880 
Q 2244 3097 1772 3097 
Q 1472 3097 1187 3025 
Q 903 2953 641 2809 
L 641 3341 
Q 956 3463 1253 3523 
Q 1550 3584 1831 3584 
Q 2591 3584 2966 3190 
Q 3341 2797 3341 1997 
z
" transform="scale(0.015625)"/>
       <path id="DejaVuSans-20" transform="scale(0.015625)"/>
       <path id="DejaVuSans-6d" d="M 3328 2828 
Q 3544 3216 3844 3400 
Q 4144 3584 4550 3584 
Q 5097 3584 5394 3201 
Q 5691 2819 5691 2113 
L 5691 0 
L 5113 0 
L 5113 2094 
Q 5113 2597 4934 2840 
Q 4756 3084 4391 3084 
Q 3944 3084 3684 2787 
Q 3425 2491 3425 1978 
L 3425 0 
L 2847 0 
L 2847 2094 
Q 2847 2600 2669 2842 
Q 2491 3084 2119 3084 
Q 1678 3084 1418 2786 
Q 1159 2488 1159 1978 
L 1159 0 
L 581 0 
L 581 3500 
L 1159 3500 
L 1159 2956 
Q 1356 3278 1631 3431 
Q 1906 3584 2284 3584 
Q 2666 3584 2933 3390 
Q 3200 3197 3328 2828 
z
" transform="scale(0.015625)"/>
       <path id="DejaVuSans-119" d="M 3597 1894 
L 3597 1613 
L 953 1613 
Q 991 1019 1311 708 
Q 1631 397 2203 397 
Q 2534 397 2845 478 
Q 3156 559 3463 722 
L 3463 178 
Q 3153 47 2828 -22 
Q 2503 -91 2169 -91 
Q 1331 -91 842 396 
Q 353 884 353 1716 
Q 353 2575 817 3079 
Q 1281 3584 2069 3584 
Q 2775 3584 3186 3129 
Q 3597 2675 3597 1894 
z
M 3022 2063 
Q 3016 2534 2758 2815 
Q 2500 3097 2075 3097 
Q 1594 3097 1305 2825 
Q 1016 2553 972 2059 
L 3022 2063 
z
M 2550 0 
L 2922 0 
Q 2781 -191 2714 -328 
Q 2647 -466 2647 -563 
Q 2647 -706 2733 -778 
Q 2819 -850 2988 -850 
Q 3088 -850 3184 -826 
Q 3281 -803 3378 -756 
L 3378 -1172 
Q 3259 -1203 3153 -1218 
Q 3047 -1234 2953 -1234 
Q 2572 -1234 2392 -1098 
Q 2213 -963 2213 -672 
Q 2213 -522 2295 -358 
Q 2378 -194 2550 0 
z
" transform="scale(0.015625)"/>
       <path id="DejaVuSans-64" d="M 2906 2969 
L 2906 4863 
L 3481 4863 
L 3481 0 
L 2906 0 
L 2906 525 
Q 2725 213 2448 61 
Q 2172 -91 1784 -91 
Q 1150 -91 751 415 
Q 353 922 353 1747 
Q 353 2572 751 3078 
Q 1150 3584 1784 3584 
Q 2172 3584 2448 3432 
Q 2725 3281 2906 2969 
z
M 947 1747 
Q 947 1113 1208 752 
Q 1469 391 1925 391 
Q 2381 391 2643 752 
Q 2906 1113 2906 1747 
Q 2906 2381 2643 2742 
Q 2381 3103 1925 3103 
Q 1469 3103 1208 2742 
Q 947 2381 947 1747 
z
" transform="scale(0.015625)"/>
       <path id="DejaVuSans-7a" d="M 353 3500 
L 3084 3500 
L 3084 2975 
L 922 459 
L 3084 459 
L 3084 0 
L 275 0 
L 275 525 
L 2438 3041 
L 353 3041 
L 353 3500 
z
" transform="scale(0.015625)"/>
       <path id="DejaVuSans-79" d="M 2059 -325 
Q 1816 -950 1584 -1140 
Q 1353 -1331 966 -1331 
L 506 -1331 
L 506 -850 
L 844 -850 
Q 1081 -850 1212 -737 
Q 1344 -625 1503 -206 
L 1606 56 
L 191 3500 
L 800 3500 
L 1894 763 
L 2988 3500 
L 3597 3500 
L 2059 -325 
z
" transform="scale(0.015625)"/>
       <path id="DejaVuSans-6f" d="M 1959 3097 
Q 1497 3097 1228 2736 
Q 959 2375 959 1747 
Q 959 1119 1226 758 
Q 1494 397 1959 397 
Q 2419 397 2687 759 
Q 2956 1122 2956 1747 
Q 2956 2369 2687 2733 
Q 2419 3097 1959 3097 
z
M 1959 3584 
Q 2709 3584 3137 3096 
Q 3566 2609 3566 1747 
Q 3566 888 3137 398 
Q 2709 -91 1959 -91 
Q 1206 -91 779 398 
Q 353 888 353 1747 
Q 353 2609 779 3096 
Q 1206 3584 1959 3584 
z
" transform="scale(0.015625)"/>
       <path id="DejaVuSans-65" d="M 3597 1894 
L 3597 1613 
L 953 1613 
Q 991 1019 1311 708 
Q 1631 397 2203 397 
Q 2534 397 2845 478 
Q 3156 559 3463 722 
L 3463 178 
Q 3153 47 2828 -22 
Q 2503 -91 2169 -91 
Q 1331 -91 842 396 
Q 353 884 353 1716 
Q 353 2575 817 3079 
Q 1281 3584 2069 3584 
Q 2775 3584 3186 3129 
Q 3597 2675 3597 1894 
z
M 3022 2063 
Q 3016 2534 2758 2815 
Q 2500 3097 2075 3097 
Q 1594 3097 1305 2825 
Q 1016 2553 972 2059 
L 3022 2063 
z
" transform="scale(0.015625)"/>
       <path id="DejaVuSans-6b" d="M 581 4863 
L 1159 4863 
L 1159 1991 
L 2875 3500 
L 3609 3500 
L 1753 1863 
L 3688 0 
L 2938 0 
L 1159 1709 
L 1159 0 
L 581 0 
L 581 4863 
z
" transform="scale(0.015625)"/>
       <path id="DejaVuSans-77" d="M 269 3500 
L 844 3500 
L 1563 769 
L 2278 3500 
L 2956 3500 
L 3675 769 
L 4391 3500 
L 4966 3500 
L 4050 0 
L 3372 0 
L 2619 2869 
L 1863 0 
L 1184 0 
L 269 3500 
z
" transform="scale(0.015625)"/>
       <path id="DejaVuSans-73" d="M 2834 3397 
L 2834 2853 
Q 2591 2978 2328 3040 
Q 2066 3103 1784 3103 
Q 1356 3103 1142 2972 
Q 928 2841 928 2578 
Q 928 2378 1081 2264 
Q 1234 2150 1697 2047 
L 1894 2003 
Q 2506 1872 2764 1633 
Q 3022 1394 3022 966 
Q 3022 478 2636 193 
Q 2250 -91 1575 -91 
Q 1294 -91 989 -36 
Q 684 19 347 128 
L 347 722 
Q 666 556 975 473 
Q 1284 391 1588 391 
Q 1994 391 2212 530 
Q 2431 669 2431 922 
Q 2431 1156 2273 1281 
Q 2116 1406 1581 1522 
L 1381 1569 
Q 847 1681 609 1914 
Q 372 2147 372 2553 
Q 372 3047 722 3315 
Q 1072 3584 1716 3584 
Q 2034 3584 2315 3537 
Q 2597 3491 2834 3397 
z
" transform="scale(0.015625)"/>
       <path id="DejaVuSans-75" d="M 544 1381 
L 544 3500 
L 1119 3500 
L 1119 1403 
Q 1119 906 1312 657 
Q 1506 409 1894 409 
Q 2359 409 2629 706 
Q 2900 1003 2900 1516 
L 2900 3500 
L 3475 3500 
L 3475 0 
L 2900 0 
L 2900 538 
Q 2691 219 2414 64 
Q 2138 -91 1772 -91 
Q 1169 -91 856 284 
Q 544 659 544 1381 
z
M 1991 3584 
L 1991 3584 
z
" transform="scale(0.015625)"/>
       <path id="DejaVuSans-74" d="M 1172 4494 
L 1172 3500 
L 2356 3500 
L 2356 3053 
L 1172 3053 
L 1172 1153 
Q 1172 725 1289 603 
Q 1406 481 1766 481 
L 2356 481 
L 2356 0 
L 1766 0 
Q 1100 0 847 248 
Q 594 497 594 1153 
L 594 3053 
L 172 3053 
L 172 3500 
L 594 3500 
L 594 4494 
L 1172 4494 
z
" transform="scale(0.015625)"/>
      </defs>
      <use xlink:href="#DejaVuSans-52"/>
      <use xlink:href="#DejaVuSans-f3" x="64.982422"/>
      <use xlink:href="#DejaVuSans-17c" x="126.164062"/>
      <use xlink:href="#DejaVuSans-6e" x="178.654297"/>
      <use xlink:href="#DejaVuSans-69" x="242.033203"/>
      <use xlink:href="#DejaVuSans-63" x="269.816406"/>
      <use xlink:href="#DejaVuSans-61" x="324.796875"/>
      <use xlink:href="#DejaVuSans-20" x="386.076172"/>
      <use xlink:href="#DejaVuSans-6d" x="417.863281"/>
      <use xlink:href="#DejaVuSans-69" x="515.275391"/>
      <use xlink:href="#DejaVuSans-119" x="543.058594"/>
      <use xlink:href="#DejaVuSans-64" x="604.582031"/>
      <use xlink:href="#DejaVuSans-7a" x="668.058594"/>
      <use xlink:href="#DejaVuSans-79" x="720.548828"/>
      <use xlink:href="#DejaVuSans-20" x="779.728516"/>
      <use xlink:href="#DejaVuSans-6f" x="811.515625"/>
      <use xlink:href="#DejaVuSans-63" x="872.697266"/>
      <use xlink:href="#DejaVuSans-7a" x="927.677734"/>
      <use xlink:href="#DejaVuSans-65" x="980.167969"/>
      <use xlink:href="#DejaVuSans-6b" x="1041.691406"/>
      <use xlink:href="#DejaVuSans-69" x="1099.601562"/>
      <use xlink:href="#DejaVuSans-77" x="1127.384766"/>
      <use xlink:href="#DejaVuSans-61" x="1209.171875"/>
      <use xlink:href="#DejaVuSans-6e" x="1270.451172"/>
      <use xlink:href="#DejaVuSans-69" x="1333.830078"/>
      <use xlink:href="#DejaVuSans-61" x="1361.613281"/>
      <use xlink:href="#DejaVuSans-6d" x="1422.892578"/>
      <use xlink:href="#DejaVuSans-69" x="1520.304688"/>
      <use xlink:href="#DejaVuSans-20" x="1548.087891"/>
      <use xlink:href="#DejaVuSans-6b" x="1579.875"/>
      <use xlink:href="#DejaVuSans-6f" x="1634.160156"/>
      <use xlink:href="#DejaVuSans-6e" x="1695.341797"/>
      <use xlink:href="#DejaVuSans-73" x="1758.720703"/>
      <use xlink:href="#DejaVuSans-75" x="1810.820312"/>
      <use xlink:href="#DejaVuSans-6d" x="1874.199219"/>
      <use xlink:href="#DejaVuSans-65" x="1971.611328"/>
      <use xlink:href="#DejaVuSans-6e" x="2033.134766"/>
      <use xlink:href="#DejaVuSans-74" x="2096.513672"/>
      <use xlink:href="#DejaVuSans-f3" x="2135.722656"/>
      <use xlink:href="#DejaVuSans-77" x="2196.904297"/>
      <use xlink:href="#DejaVuSans-20" x="2278.691406"/>
     </g>
     <!--  a średnim poziomem jakości -->
     <g transform="translate(155.099645 281.045104)scale(0.11 -0.11)">
      <defs>
       <path id="DejaVuSans-15b" d="M 2241 5141 
L 2863 5141 
L 1844 3966 
L 1366 3966 
L 2241 5141 
z
M 2834 3397 
L 2834 2853 
Q 2591 2978 2328 3040 
Q 2066 3103 1784 3103 
Q 1356 3103 1142 2972 
Q 928 2841 928 2578 
Q 928 2378 1081 2264 
Q 1234 2150 1697 2047 
L 1894 2003 
Q 2506 1872 2764 1633 
Q 3022 1394 3022 966 
Q 3022 478 2636 193 
Q 2250 -91 1575 -91 
Q 1294 -91 989 -36 
Q 684 19 347 128 
L 347 722 
Q 666 556 975 473 
Q 1284 391 1588 391 
Q 1994 391 2212 530 
Q 2431 669 2431 922 
Q 2431 1156 2273 1281 
Q 2116 1406 1581 1522 
L 1381 1569 
Q 847 1681 609 1914 
Q 372 2147 372 2553 
Q 372 3047 722 3315 
Q 1072 3584 1716 3584 
Q 2034 3584 2315 3537 
Q 2597 3491 2834 3397 
z
" transform="scale(0.015625)"/>
       <path id="DejaVuSans-72" d="M 2631 2963 
Q 2534 3019 2420 3045 
Q 2306 3072 2169 3072 
Q 1681 3072 1420 2755 
Q 1159 2438 1159 1844 
L 1159 0 
L 581 0 
L 581 3500 
L 1159 3500 
L 1159 2956 
Q 1341 3275 1631 3429 
Q 1922 3584 2338 3584 
Q 2397 3584 2469 3576 
Q 2541 3569 2628 3553 
L 2631 2963 
z
" transform="scale(0.015625)"/>
       <path id="DejaVuSans-70" d="M 1159 525 
L 1159 -1331 
L 581 -1331 
L 581 3500 
L 1159 3500 
L 1159 2969 
Q 1341 3281 1617 3432 
Q 1894 3584 2278 3584 
Q 2916 3584 3314 3078 
Q 3713 2572 3713 1747 
Q 3713 922 3314 415 
Q 2916 -91 2278 -91 
Q 1894 -91 1617 61 
Q 1341 213 1159 525 
z
M 3116 1747 
Q 3116 2381 2855 2742 
Q 2594 3103 2138 3103 
Q 1681 3103 1420 2742 
Q 1159 2381 1159 1747 
Q 1159 1113 1420 752 
Q 1681 391 2138 391 
Q 2594 391 2855 752 
Q 3116 1113 3116 1747 
z
" transform="scale(0.015625)"/>
       <path id="DejaVuSans-6a" d="M 603 3500 
L 1178 3500 
L 1178 -63 
Q 1178 -731 923 -1031 
Q 669 -1331 103 -1331 
L -116 -1331 
L -116 -844 
L 38 -844 
Q 366 -844 484 -692 
Q 603 -541 603 -63 
L 603 3500 
z
M 603 4863 
L 1178 4863 
L 1178 4134 
L 603 4134 
L 603 4863 
z
" transform="scale(0.015625)"/>
      </defs>
      <use xlink:href="#DejaVuSans-20"/>
      <use xlink:href="#DejaVuSans-61" x="31.787109"/>
      <use xlink:href="#DejaVuSans-20" x="93.066406"/>
      <use xlink:href="#DejaVuSans-15b" x="124.853516"/>
      <use xlink:href="#DejaVuSans-72" x="176.953125"/>
      <use xlink:href="#DejaVuSans-65" x="215.816406"/>
      <use xlink:href="#DejaVuSans-64" x="277.339844"/>
      <use xlink:href="#DejaVuSans-6e" x="340.816406"/>
      <use xlink:href="#DejaVuSans-69" x="404.195312"/>
      <use xlink:href="#DejaVuSans-6d" x="431.978516"/>
      <use xlink:href="#DejaVuSans-20" x="529.390625"/>
      <use xlink:href="#DejaVuSans-70" x="561.177734"/>
      <use xlink:href="#DejaVuSans-6f" x="624.654297"/>
      <use xlink:href="#DejaVuSans-7a" x="685.835938"/>
      <use xlink:href="#DejaVuSans-69" x="738.326172"/>
      <use xlink:href="#DejaVuSans-6f" x="766.109375"/>
      <use xlink:href="#DejaVuSans-6d" x="827.291016"/>
      <use xlink:href="#DejaVuSans-65" x="924.703125"/>
      <use xlink:href="#DejaVuSans-6d" x="986.226562"/>
      <use xlink:href="#DejaVuSans-20" x="1083.638672"/>
      <use xlink:href="#DejaVuSans-6a" x="1115.425781"/>
      <use xlink:href="#DejaVuSans-61" x="1143.208984"/>
      <use xlink:href="#DejaVuSans-6b" x="1204.488281"/>
      <use xlink:href="#DejaVuSans-6f" x="1258.773438"/>
      <use xlink:href="#DejaVuSans-15b" x="1319.955078"/>
      <use xlink:href="#DejaVuSans-63" x="1372.054688"/>
      <use xlink:href="#DejaVuSans-69" x="1427.035156"/>
     </g>
    </g>
   </g>
   <g id="matplotlib.axis_2">
    <g id="ytick_1">
     <g id="line2d_9">
      <path d="M 41.061593 217.899071 
L 429.165354 217.899071 
" clip-path="url(#p1460b379ee)" style="fill: none; stroke: #000000; stroke-opacity: 0.1; stroke-width: 0.5; stroke-linecap: square"/>
     </g>
     <g id="line2d_10">
      <defs>
       <path id="me5b2af79c4" d="M 0 0 
L 2.5 0 
" style="stroke: #000000; stroke-width: 0.5"/>
      </defs>
      <g>
       <use xlink:href="#me5b2af79c4" x="41.061593" y="217.899071" style="stroke: #000000; stroke-width: 0.5"/>
      </g>
     </g>
     <g id="text_6">
      <!-- $-50$ -->
      <g transform="translate(20.601593 220.938446)scale(0.08 -0.08)">
       <defs>
        <path id="DejaVuSans-2212" d="M 678 2272 
L 4684 2272 
L 4684 1741 
L 678 1741 
L 678 2272 
z
" transform="scale(0.015625)"/>
        <path id="DejaVuSans-35" d="M 691 4666 
L 3169 4666 
L 3169 4134 
L 1269 4134 
L 1269 2991 
Q 1406 3038 1543 3061 
Q 1681 3084 1819 3084 
Q 2600 3084 3056 2656 
Q 3513 2228 3513 1497 
Q 3513 744 3044 326 
Q 2575 -91 1722 -91 
Q 1428 -91 1123 -41 
Q 819 9 494 109 
L 494 744 
Q 775 591 1075 516 
Q 1375 441 1709 441 
Q 2250 441 2565 725 
Q 2881 1009 2881 1497 
Q 2881 1984 2565 2268 
Q 2250 2553 1709 2553 
Q 1456 2553 1204 2497 
Q 953 2441 691 2322 
L 691 4666 
z
" transform="scale(0.015625)"/>
       </defs>
       <use xlink:href="#DejaVuSans-2212" transform="translate(0 0.78125)"/>
       <use xlink:href="#DejaVuSans-35" transform="translate(83.789062 0.78125)"/>
       <use xlink:href="#DejaVuSans-30" transform="translate(147.412109 0.78125)"/>
      </g>
     </g>
    </g>
    <g id="ytick_2">
     <g id="line2d_11">
      <path d="M 41.061593 178.759485 
L 429.165354 178.759485 
" clip-path="url(#p1460b379ee)" style="fill: none; stroke: #000000; stroke-opacity: 0.1; stroke-width: 0.5; stroke-linecap: square"/>
     </g>
     <g id="line2d_12">
      <g>
       <use xlink:href="#me5b2af79c4" x="41.061593" y="178.759485" style="stroke: #000000; stroke-width: 0.5"/>
      </g>
     </g>
     <g id="text_7">
      <!-- $0$ -->
      <g transform="translate(32.441593 181.79886)scale(0.08 -0.08)">
       <use xlink:href="#DejaVuSans-30" transform="translate(0 0.78125)"/>
      </g>
     </g>
    </g>
    <g id="ytick_3">
     <g id="line2d_13">
      <path d="M 41.061593 139.619899 
L 429.165354 139.619899 
" clip-path="url(#p1460b379ee)" style="fill: none; stroke: #000000; stroke-opacity: 0.1; stroke-width: 0.5; stroke-linecap: square"/>
     </g>
     <g id="line2d_14">
      <g>
       <use xlink:href="#me5b2af79c4" x="41.061593" y="139.619899" style="stroke: #000000; stroke-width: 0.5"/>
      </g>
     </g>
     <g id="text_8">
      <!-- $50$ -->
      <g transform="translate(27.321593 142.659274)scale(0.08 -0.08)">
       <use xlink:href="#DejaVuSans-35" transform="translate(0 0.78125)"/>
       <use xlink:href="#DejaVuSans-30" transform="translate(63.623047 0.78125)"/>
      </g>
     </g>
    </g>
    <g id="ytick_4">
     <g id="line2d_15">
      <path d="M 41.061593 100.480313 
L 429.165354 100.480313 
" clip-path="url(#p1460b379ee)" style="fill: none; stroke: #000000; stroke-opacity: 0.1; stroke-width: 0.5; stroke-linecap: square"/>
     </g>
     <g id="line2d_16">
      <g>
       <use xlink:href="#me5b2af79c4" x="41.061593" y="100.480313" style="stroke: #000000; stroke-width: 0.5"/>
      </g>
     </g>
     <g id="text_9">
      <!-- $100$ -->
      <g transform="translate(22.281593 103.519688)scale(0.08 -0.08)">
       <use xlink:href="#DejaVuSans-31" transform="translate(0 0.78125)"/>
       <use xlink:href="#DejaVuSans-30" transform="translate(63.623047 0.78125)"/>
       <use xlink:href="#DejaVuSans-30" transform="translate(127.246094 0.78125)"/>
      </g>
     </g>
    </g>
    <g id="ytick_5">
     <g id="line2d_17">
      <path d="M 41.061593 61.340727 
L 429.165354 61.340727 
" clip-path="url(#p1460b379ee)" style="fill: none; stroke: #000000; stroke-opacity: 0.1; stroke-width: 0.5; stroke-linecap: square"/>
     </g>
     <g id="line2d_18">
      <g>
       <use xlink:href="#me5b2af79c4" x="41.061593" y="61.340727" style="stroke: #000000; stroke-width: 0.5"/>
      </g>
     </g>
     <g id="text_10">
      <!-- $150$ -->
      <g transform="translate(22.281593 64.380102)scale(0.08 -0.08)">
       <use xlink:href="#DejaVuSans-31" transform="translate(0 0.78125)"/>
       <use xlink:href="#DejaVuSans-35" transform="translate(63.623047 0.78125)"/>
       <use xlink:href="#DejaVuSans-30" transform="translate(127.246094 0.78125)"/>
      </g>
     </g>
    </g>
    <g id="ytick_6">
     <g id="line2d_19">
      <path d="M 41.061593 22.201141 
L 429.165354 22.201141 
" clip-path="url(#p1460b379ee)" style="fill: none; stroke: #000000; stroke-opacity: 0.1; stroke-width: 0.5; stroke-linecap: square"/>
     </g>
     <g id="line2d_20">
      <g>
       <use xlink:href="#me5b2af79c4" x="41.061593" y="22.201141" style="stroke: #000000; stroke-width: 0.5"/>
      </g>
     </g>
     <g id="text_11">
      <!-- $200$ -->
      <g transform="translate(22.281593 25.240516)scale(0.08 -0.08)">
       <use xlink:href="#DejaVuSans-32" transform="translate(0 0.78125)"/>
       <use xlink:href="#DejaVuSans-30" transform="translate(63.623047 0.78125)"/>
       <use xlink:href="#DejaVuSans-30" transform="translate(127.246094 0.78125)"/>
      </g>
     </g>
    </g>
    <g id="text_12">
     <!-- Średni zysk firmy -->
     <g transform="translate(14.313936 170.921812)rotate(-90)scale(0.11 -0.11)">
      <defs>
       <path id="DejaVuSans-15a" d="M 2238 5938 
L 2816 5938 
L 2103 5113 
L 1625 5113 
L 2238 5938 
z
M 3425 4513 
L 3425 3897 
Q 3066 4069 2747 4153 
Q 2428 4238 2131 4238 
Q 1616 4238 1336 4038 
Q 1056 3838 1056 3469 
Q 1056 3159 1242 3001 
Q 1428 2844 1947 2747 
L 2328 2669 
Q 3034 2534 3370 2195 
Q 3706 1856 3706 1288 
Q 3706 609 3251 259 
Q 2797 -91 1919 -91 
Q 1588 -91 1214 -16 
Q 841 59 441 206 
L 441 856 
Q 825 641 1194 531 
Q 1563 422 1919 422 
Q 2459 422 2753 634 
Q 3047 847 3047 1241 
Q 3047 1584 2836 1778 
Q 2625 1972 2144 2069 
L 1759 2144 
Q 1053 2284 737 2584 
Q 422 2884 422 3419 
Q 422 4038 858 4394 
Q 1294 4750 2059 4750 
Q 2388 4750 2728 4690 
Q 3069 4631 3425 4513 
z
" transform="scale(0.015625)"/>
       <path id="DejaVuSans-66" d="M 2375 4863 
L 2375 4384 
L 1825 4384 
Q 1516 4384 1395 4259 
Q 1275 4134 1275 3809 
L 1275 3500 
L 2222 3500 
L 2222 3053 
L 1275 3053 
L 1275 0 
L 697 0 
L 697 3053 
L 147 3053 
L 147 3500 
L 697 3500 
L 697 3744 
Q 697 4328 969 4595 
Q 1241 4863 1831 4863 
L 2375 4863 
z
" transform="scale(0.015625)"/>
      </defs>
      <use xlink:href="#DejaVuSans-15a"/>
      <use xlink:href="#DejaVuSans-72" x="63.476562"/>
      <use xlink:href="#DejaVuSans-65" x="102.339844"/>
      <use xlink:href="#DejaVuSans-64" x="163.863281"/>
      <use xlink:href="#DejaVuSans-6e" x="227.339844"/>
      <use xlink:href="#DejaVuSans-69" x="290.71875"/>
      <use xlink:href="#DejaVuSans-20" x="318.501953"/>
      <use xlink:href="#DejaVuSans-7a" x="350.289062"/>
      <use xlink:href="#DejaVuSans-79" x="402.779297"/>
      <use xlink:href="#DejaVuSans-73" x="461.958984"/>
      <use xlink:href="#DejaVuSans-6b" x="514.058594"/>
      <use xlink:href="#DejaVuSans-20" x="571.96875"/>
      <use xlink:href="#DejaVuSans-66" x="603.755859"/>
      <use xlink:href="#DejaVuSans-69" x="638.960938"/>
      <use xlink:href="#DejaVuSans-72" x="666.744141"/>
      <use xlink:href="#DejaVuSans-6d" x="706.107422"/>
      <use xlink:href="#DejaVuSans-79" x="803.519531"/>
     </g>
    </g>
   </g>
   <g id="line2d_21">
    <path d="M 52.045661 86.911994 
L 376.462851 237.284712 
" clip-path="url(#p1460b379ee)" style="fill: none; stroke: #009afa"/>
   </g>
   <g id="PathCollection_1">
    <defs>
     <path id="m2cbc60bcb1" d="M 0 2 
C 0.530406 2 1.03916 1.789267 1.414214 1.414214 
C 1.789267 1.03916 2 0.530406 2 0 
C 2 -0.530406 1.789267 -1.03916 1.414214 -1.414214 
C 1.03916 -1.789267 0.530406 -2 0 -2 
C -0.530406 -2 -1.03916 -1.789267 -1.414214 -1.414214 
C -1.789267 -1.03916 -2 -0.530406 -2 0 
C -2 0.530406 -1.789267 1.03916 -1.414214 1.414214 
C -1.03916 1.789267 -0.530406 2 0 2 
z
" style="stroke: #000000"/>
    </defs>
    <g clip-path="url(#p1460b379ee)">
     <use xlink:href="#m2cbc60bcb1" x="52.045661" y="74.71816" style="fill: #009afa; stroke: #000000"/>
     <use xlink:href="#m2cbc60bcb1" x="98.390974" y="107.092587" style="fill: #009afa; stroke: #000000"/>
     <use xlink:href="#m2cbc60bcb1" x="144.736287" y="122.030443" style="fill: #009afa; stroke: #000000"/>
     <use xlink:href="#m2cbc60bcb1" x="191.0816" y="161.882899" style="fill: #009afa; stroke: #000000"/>
     <use xlink:href="#m2cbc60bcb1" x="237.426912" y="179.17891" style="fill: #009afa; stroke: #000000"/>
     <use xlink:href="#m2cbc60bcb1" x="283.772225" y="220.318752" style="fill: #009afa; stroke: #000000"/>
     <use xlink:href="#m2cbc60bcb1" x="330.117538" y="235.076879" style="fill: #009afa; stroke: #000000"/>
     <use xlink:href="#m2cbc60bcb1" x="376.462851" y="196.488192" style="fill: #009afa; stroke: #000000"/>
    </g>
   </g>
   <g id="line2d_22">
    <path d="M 57.324064 45.989103 
L 418.181286 218.038432 
" clip-path="url(#p1460b379ee)" style="fill: none; stroke: #e36f47"/>
   </g>
   <g id="PathCollection_2">
    <defs>
     <path id="m022d7b8961" d="M 0 2 
C 0.530406 2 1.03916 1.789267 1.414214 1.414214 
C 1.789267 1.03916 2 0.530406 2 0 
C 2 -0.530406 1.789267 -1.03916 1.414214 -1.414214 
C 1.03916 -1.789267 0.530406 -2 0 -2 
C -0.530406 -2 -1.03916 -1.789267 -1.414214 -1.414214 
C -1.789267 -1.03916 -2 -0.530406 -2 0 
C -2 0.530406 -1.789267 1.03916 -1.414214 1.414214 
C -1.03916 1.789267 -0.530406 2 0 2 
z
" style="stroke: #000000"/>
    </defs>
    <g clip-path="url(#p1460b379ee)">
     <use xlink:href="#m022d7b8961" x="57.324064" y="9.663288" style="fill: #e36f47; stroke: #000000"/>
     <use xlink:href="#m022d7b8961" x="108.875096" y="54.866177" style="fill: #e36f47; stroke: #000000"/>
     <use xlink:href="#m022d7b8961" x="160.426128" y="128.56348" style="fill: #e36f47; stroke: #000000"/>
     <use xlink:href="#m022d7b8961" x="211.977159" y="163.288459" style="fill: #e36f47; stroke: #000000"/>
     <use xlink:href="#m022d7b8961" x="263.528191" y="133.875679" style="fill: #e36f47; stroke: #000000"/>
     <use xlink:href="#m022d7b8961" x="315.079222" y="206.352394" style="fill: #e36f47; stroke: #000000"/>
     <use xlink:href="#m022d7b8961" x="366.630254" y="156.946385" style="fill: #e36f47; stroke: #000000"/>
     <use xlink:href="#m022d7b8961" x="418.181286" y="202.55428" style="fill: #e36f47; stroke: #000000"/>
    </g>
   </g>
   <g id="patch_3">
    <path d="M 41.061593 244.113354 
L 41.061593 2.834646 
" style="fill: none; stroke: #000000; stroke-linejoin: miter; stroke-linecap: square"/>
   </g>
   <g id="patch_4">
    <path d="M 41.061593 244.113354 
L 429.165354 244.113354 
" style="fill: none; stroke: #000000; stroke-linejoin: miter; stroke-linecap: square"/>
   </g>
   <g id="legend_1">
    <g id="patch_5">
     <path d="M 248.736604 39.467146 
L 425.165354 39.467146 
L 425.165354 6.834646 
L 248.736604 6.834646 
z
" style="fill: #ffffff; stroke: #000000; stroke-linejoin: miter"/>
    </g>
    <g id="line2d_23">
     <path d="M 255.136604 16.513396 
L 263.136604 16.513396 
L 271.136604 16.513396 
" style="fill: none"/>
     <defs>
      <path id="m0cf78413fd" d="M 0 3.2 
C 0.84865 3.2 1.662656 2.862828 2.262742 2.262742 
C 2.862828 1.662656 3.2 0.84865 3.2 0 
C 3.2 -0.84865 2.862828 -1.662656 2.262742 -2.262742 
C 1.662656 -2.862828 0.84865 -3.2 0 -3.2 
C -0.84865 -3.2 -1.662656 -2.862828 -2.262742 -2.262742 
C -2.862828 -1.662656 -3.2 -0.84865 -3.2 0 
C -3.2 0.84865 -2.862828 1.662656 -2.262742 2.262742 
C -1.662656 2.862828 -0.84865 3.2 0 3.2 
z
" style="stroke: #000000; stroke-width: 1.6"/>
     </defs>
     <g>
      <use xlink:href="#m0cf78413fd" x="263.136604" y="16.513396" style="fill: #009afa; stroke: #000000; stroke-width: 1.6"/>
     </g>
    </g>
    <g id="text_13">
     <!-- Brak badań konsumentów -->
     <g transform="translate(277.536604 19.313396)scale(0.08 -0.08)">
      <defs>
       <path id="DejaVuSans-42" d="M 1259 2228 
L 1259 519 
L 2272 519 
Q 2781 519 3026 730 
Q 3272 941 3272 1375 
Q 3272 1813 3026 2020 
Q 2781 2228 2272 2228 
L 1259 2228 
z
M 1259 4147 
L 1259 2741 
L 2194 2741 
Q 2656 2741 2882 2914 
Q 3109 3088 3109 3444 
Q 3109 3797 2882 3972 
Q 2656 4147 2194 4147 
L 1259 4147 
z
M 628 4666 
L 2241 4666 
Q 2963 4666 3353 4366 
Q 3744 4066 3744 3513 
Q 3744 3084 3544 2831 
Q 3344 2578 2956 2516 
Q 3422 2416 3680 2098 
Q 3938 1781 3938 1306 
Q 3938 681 3513 340 
Q 3088 0 2303 0 
L 628 0 
L 628 4666 
z
" transform="scale(0.015625)"/>
       <path id="DejaVuSans-62" d="M 3116 1747 
Q 3116 2381 2855 2742 
Q 2594 3103 2138 3103 
Q 1681 3103 1420 2742 
Q 1159 2381 1159 1747 
Q 1159 1113 1420 752 
Q 1681 391 2138 391 
Q 2594 391 2855 752 
Q 3116 1113 3116 1747 
z
M 1159 2969 
Q 1341 3281 1617 3432 
Q 1894 3584 2278 3584 
Q 2916 3584 3314 3078 
Q 3713 2572 3713 1747 
Q 3713 922 3314 415 
Q 2916 -91 2278 -91 
Q 1894 -91 1617 61 
Q 1341 213 1159 525 
L 1159 0 
L 581 0 
L 581 4863 
L 1159 4863 
L 1159 2969 
z
" transform="scale(0.015625)"/>
       <path id="DejaVuSans-144" d="M 2241 5141 
L 2863 5141 
L 1844 3966 
L 1366 3966 
L 2241 5141 
z
M 3513 2113 
L 3513 0 
L 2938 0 
L 2938 2094 
Q 2938 2591 2744 2837 
Q 2550 3084 2163 3084 
Q 1697 3084 1428 2787 
Q 1159 2491 1159 1978 
L 1159 0 
L 581 0 
L 581 3500 
L 1159 3500 
L 1159 2956 
Q 1366 3272 1645 3428 
Q 1925 3584 2291 3584 
Q 2894 3584 3203 3211 
Q 3513 2838 3513 2113 
z
" transform="scale(0.015625)"/>
      </defs>
      <use xlink:href="#DejaVuSans-42"/>
      <use xlink:href="#DejaVuSans-72" x="68.603516"/>
      <use xlink:href="#DejaVuSans-61" x="109.716797"/>
      <use xlink:href="#DejaVuSans-6b" x="170.996094"/>
      <use xlink:href="#DejaVuSans-20" x="228.90625"/>
      <use xlink:href="#DejaVuSans-62" x="260.693359"/>
      <use xlink:href="#DejaVuSans-61" x="324.169922"/>
      <use xlink:href="#DejaVuSans-64" x="385.449219"/>
      <use xlink:href="#DejaVuSans-61" x="448.925781"/>
      <use xlink:href="#DejaVuSans-144" x="510.205078"/>
      <use xlink:href="#DejaVuSans-20" x="573.583984"/>
      <use xlink:href="#DejaVuSans-6b" x="605.371094"/>
      <use xlink:href="#DejaVuSans-6f" x="659.65625"/>
      <use xlink:href="#DejaVuSans-6e" x="720.837891"/>
      <use xlink:href="#DejaVuSans-73" x="784.216797"/>
      <use xlink:href="#DejaVuSans-75" x="836.316406"/>
      <use xlink:href="#DejaVuSans-6d" x="899.695312"/>
      <use xlink:href="#DejaVuSans-65" x="997.107422"/>
      <use xlink:href="#DejaVuSans-6e" x="1058.630859"/>
      <use xlink:href="#DejaVuSans-74" x="1122.009766"/>
      <use xlink:href="#DejaVuSans-f3" x="1161.21875"/>
      <use xlink:href="#DejaVuSans-77" x="1222.400391"/>
     </g>
    </g>
    <g id="line2d_24">
     <path d="M 255.136604 28.603396 
L 263.136604 28.603396 
L 271.136604 28.603396 
" style="fill: none"/>
     <defs>
      <path id="m0da9ab9fc7" d="M 0 3.2 
C 0.84865 3.2 1.662656 2.862828 2.262742 2.262742 
C 2.862828 1.662656 3.2 0.84865 3.2 0 
C 3.2 -0.84865 2.862828 -1.662656 2.262742 -2.262742 
C 1.662656 -2.862828 0.84865 -3.2 0 -3.2 
C -0.84865 -3.2 -1.662656 -2.862828 -2.262742 -2.262742 
C -2.862828 -1.662656 -3.2 -0.84865 -3.2 0 
C -3.2 0.84865 -2.862828 1.662656 -2.262742 2.262742 
C -1.662656 2.862828 -0.84865 3.2 0 3.2 
z
" style="stroke: #000000; stroke-width: 1.6"/>
     </defs>
     <g>
      <use xlink:href="#m0da9ab9fc7" x="263.136604" y="28.603396" style="fill: #e36f47; stroke: #000000; stroke-width: 1.6"/>
     </g>
    </g>
    <g id="text_14">
     <!-- Wykonywanie badań konsumentów -->
     <g transform="translate(277.536604 31.403396)scale(0.08 -0.08)">
      <defs>
       <path id="DejaVuSans-57" d="M 213 4666 
L 850 4666 
L 1831 722 
L 2809 4666 
L 3519 4666 
L 4500 722 
L 5478 4666 
L 6119 4666 
L 4947 0 
L 4153 0 
L 3169 4050 
L 2175 0 
L 1381 0 
L 213 4666 
z
" transform="scale(0.015625)"/>
      </defs>
      <use xlink:href="#DejaVuSans-57"/>
      <use xlink:href="#DejaVuSans-79" x="97.126953"/>
      <use xlink:href="#DejaVuSans-6b" x="156.306641"/>
      <use xlink:href="#DejaVuSans-6f" x="210.591797"/>
      <use xlink:href="#DejaVuSans-6e" x="271.773438"/>
      <use xlink:href="#DejaVuSans-79" x="335.152344"/>
      <use xlink:href="#DejaVuSans-77" x="394.332031"/>
      <use xlink:href="#DejaVuSans-61" x="476.119141"/>
      <use xlink:href="#DejaVuSans-6e" x="537.398438"/>
      <use xlink:href="#DejaVuSans-69" x="600.777344"/>
      <use xlink:href="#DejaVuSans-65" x="628.560547"/>
      <use xlink:href="#DejaVuSans-20" x="690.083984"/>
      <use xlink:href="#DejaVuSans-62" x="721.871094"/>
      <use xlink:href="#DejaVuSans-61" x="785.347656"/>
      <use xlink:href="#DejaVuSans-64" x="846.626953"/>
      <use xlink:href="#DejaVuSans-61" x="910.103516"/>
      <use xlink:href="#DejaVuSans-144" x="971.382812"/>
      <use xlink:href="#DejaVuSans-20" x="1034.761719"/>
      <use xlink:href="#DejaVuSans-6b" x="1066.548828"/>
      <use xlink:href="#DejaVuSans-6f" x="1120.833984"/>
      <use xlink:href="#DejaVuSans-6e" x="1182.015625"/>
      <use xlink:href="#DejaVuSans-73" x="1245.394531"/>
      <use xlink:href="#DejaVuSans-75" x="1297.494141"/>
      <use xlink:href="#DejaVuSans-6d" x="1360.873047"/>
      <use xlink:href="#DejaVuSans-65" x="1458.285156"/>
      <use xlink:href="#DejaVuSans-6e" x="1519.808594"/>
      <use xlink:href="#DejaVuSans-74" x="1583.1875"/>
      <use xlink:href="#DejaVuSans-f3" x="1622.396484"/>
      <use xlink:href="#DejaVuSans-77" x="1683.578125"/>
     </g>
    </g>
   </g>
  </g>
 </g>
 <defs>
  <clipPath id="p1460b379ee">
   <rect x="41.061593" y="2.834646" width="388.103762" height="241.278709"/>
  </clipPath>
 </defs>
</svg>
