<?xml version="1.0" encoding="utf-8"?>
<svg xmlns="http://www.w3.org/2000/svg" xmlns:xlink="http://www.w3.org/1999/xlink" width="600" height="400" viewBox="0 0 2400 1600">
<defs>
  <clipPath id="clip720">
    <rect x="0" y="0" width="2400" height="1600"/>
  </clipPath>
</defs>
<path clip-path="url(#clip720)" d="
M0 1600 L2400 1600 L2400 0 L0 0  Z
  " fill="#ffffff" fill-rule="evenodd" fill-opacity="1"/>
<defs>
  <clipPath id="clip721">
    <rect x="480" y="0" width="1681" height="1600"/>
  </clipPath>
</defs>
<path clip-path="url(#clip720)" d="
M272.297 1375.66 L2352.76 1375.66 L2352.76 47.2441 L272.297 47.2441  Z
  " fill="#ffffff" fill-rule="evenodd" fill-opacity="1"/>
<defs>
  <clipPath id="clip722">
    <rect x="272" y="47" width="2081" height="1329"/>
  </clipPath>
</defs>
<polyline clip-path="url(#clip722)" style="stroke:#000000; stroke-linecap:round; stroke-linejoin:round; stroke-width:2; stroke-opacity:0.1; fill:none" points="
  538.783,1375.66 538.783,47.2441 
  "/>
<polyline clip-path="url(#clip722)" style="stroke:#000000; stroke-linecap:round; stroke-linejoin:round; stroke-width:2; stroke-opacity:0.1; fill:none" points="
  985.877,1375.66 985.877,47.2441 
  "/>
<polyline clip-path="url(#clip722)" style="stroke:#000000; stroke-linecap:round; stroke-linejoin:round; stroke-width:2; stroke-opacity:0.1; fill:none" points="
  1432.97,1375.66 1432.97,47.2441 
  "/>
<polyline clip-path="url(#clip722)" style="stroke:#000000; stroke-linecap:round; stroke-linejoin:round; stroke-width:2; stroke-opacity:0.1; fill:none" points="
  1880.07,1375.66 1880.07,47.2441 
  "/>
<polyline clip-path="url(#clip722)" style="stroke:#000000; stroke-linecap:round; stroke-linejoin:round; stroke-width:2; stroke-opacity:0.1; fill:none" points="
  2327.16,1375.66 2327.16,47.2441 
  "/>
<polyline clip-path="url(#clip720)" style="stroke:#000000; stroke-linecap:round; stroke-linejoin:round; stroke-width:4; stroke-opacity:1; fill:none" points="
  272.297,1375.66 2352.76,1375.66 
  "/>
<polyline clip-path="url(#clip720)" style="stroke:#000000; stroke-linecap:round; stroke-linejoin:round; stroke-width:4; stroke-opacity:1; fill:none" points="
  538.783,1375.66 538.783,1356.76 
  "/>
<polyline clip-path="url(#clip720)" style="stroke:#000000; stroke-linecap:round; stroke-linejoin:round; stroke-width:4; stroke-opacity:1; fill:none" points="
  985.877,1375.66 985.877,1356.76 
  "/>
<polyline clip-path="url(#clip720)" style="stroke:#000000; stroke-linecap:round; stroke-linejoin:round; stroke-width:4; stroke-opacity:1; fill:none" points="
  1432.97,1375.66 1432.97,1356.76 
  "/>
<polyline clip-path="url(#clip720)" style="stroke:#000000; stroke-linecap:round; stroke-linejoin:round; stroke-width:4; stroke-opacity:1; fill:none" points="
  1880.07,1375.66 1880.07,1356.76 
  "/>
<polyline clip-path="url(#clip720)" style="stroke:#000000; stroke-linecap:round; stroke-linejoin:round; stroke-width:4; stroke-opacity:1; fill:none" points="
  2327.16,1375.66 2327.16,1356.76 
  "/>
<path clip-path="url(#clip720)" d="M516.781 1406.58 Q513.17 1406.58 511.341 1410.14 Q509.536 1413.68 509.536 1420.81 Q509.536 1427.92 511.341 1431.49 Q513.17 1435.03 516.781 1435.03 Q520.415 1435.03 522.221 1431.49 Q524.05 1427.92 524.05 1420.81 Q524.05 1413.68 522.221 1410.14 Q520.415 1406.58 516.781 1406.58 M516.781 1402.87 Q522.591 1402.87 525.647 1407.48 Q528.725 1412.06 528.725 1420.81 Q528.725 1429.54 525.647 1434.15 Q522.591 1438.73 516.781 1438.73 Q510.971 1438.73 507.892 1434.15 Q504.837 1429.54 504.837 1420.81 Q504.837 1412.06 507.892 1407.48 Q510.971 1402.87 516.781 1402.87 Z" fill="#000000" fill-rule="evenodd" fill-opacity="1" /><path clip-path="url(#clip720)" d="M536.943 1432.18 L541.827 1432.18 L541.827 1438.06 L536.943 1438.06 L536.943 1432.18 Z" fill="#000000" fill-rule="evenodd" fill-opacity="1" /><path clip-path="url(#clip720)" d="M552.823 1434.12 L560.461 1434.12 L560.461 1407.76 L552.151 1409.43 L552.151 1405.17 L560.415 1403.5 L565.091 1403.5 L565.091 1434.12 L572.73 1434.12 L572.73 1438.06 L552.823 1438.06 L552.823 1434.12 Z" fill="#000000" fill-rule="evenodd" fill-opacity="1" /><path clip-path="url(#clip720)" d="M964.06 1406.58 Q960.449 1406.58 958.621 1410.14 Q956.815 1413.68 956.815 1420.81 Q956.815 1427.92 958.621 1431.49 Q960.449 1435.03 964.06 1435.03 Q967.695 1435.03 969.5 1431.49 Q971.329 1427.92 971.329 1420.81 Q971.329 1413.68 969.5 1410.14 Q967.695 1406.58 964.06 1406.58 M964.06 1402.87 Q969.871 1402.87 972.926 1407.48 Q976.005 1412.06 976.005 1420.81 Q976.005 1429.54 972.926 1434.15 Q969.871 1438.73 964.06 1438.73 Q958.25 1438.73 955.172 1434.15 Q952.116 1429.54 952.116 1420.81 Q952.116 1412.06 955.172 1407.48 Q958.25 1402.87 964.06 1402.87 Z" fill="#000000" fill-rule="evenodd" fill-opacity="1" /><path clip-path="url(#clip720)" d="M984.222 1432.18 L989.107 1432.18 L989.107 1438.06 L984.222 1438.06 L984.222 1432.18 Z" fill="#000000" fill-rule="evenodd" fill-opacity="1" /><path clip-path="url(#clip720)" d="M1003.32 1434.12 L1019.64 1434.12 L1019.64 1438.06 L997.694 1438.06 L997.694 1434.12 Q1000.36 1431.37 1004.94 1426.74 Q1009.55 1422.09 1010.73 1420.75 Q1012.97 1418.22 1013.85 1416.49 Q1014.75 1414.73 1014.75 1413.04 Q1014.75 1410.28 1012.81 1408.55 Q1010.89 1406.81 1007.79 1406.81 Q1005.59 1406.81 1003.13 1407.57 Q1000.7 1408.34 997.926 1409.89 L997.926 1405.17 Q1000.75 1404.03 1003.2 1403.45 Q1005.66 1402.87 1007.69 1402.87 Q1013.06 1402.87 1016.26 1405.56 Q1019.45 1408.25 1019.45 1412.74 Q1019.45 1414.87 1018.64 1416.79 Q1017.86 1418.68 1015.75 1421.28 Q1015.17 1421.95 1012.07 1425.17 Q1008.97 1428.36 1003.32 1434.12 Z" fill="#000000" fill-rule="evenodd" fill-opacity="1" /><path clip-path="url(#clip720)" d="M1410.68 1406.58 Q1407.07 1406.58 1405.24 1410.14 Q1403.43 1413.68 1403.43 1420.81 Q1403.43 1427.92 1405.24 1431.49 Q1407.07 1435.03 1410.68 1435.03 Q1414.31 1435.03 1416.12 1431.49 Q1417.95 1427.92 1417.95 1420.81 Q1417.95 1413.68 1416.12 1410.14 Q1414.31 1406.58 1410.68 1406.58 M1410.68 1402.87 Q1416.49 1402.87 1419.55 1407.48 Q1422.62 1412.06 1422.62 1420.81 Q1422.62 1429.54 1419.55 1434.15 Q1416.49 1438.73 1410.68 1438.73 Q1404.87 1438.73 1401.79 1434.15 Q1398.74 1429.54 1398.74 1420.81 Q1398.74 1412.06 1401.79 1407.48 Q1404.87 1402.87 1410.68 1402.87 Z" fill="#000000" fill-rule="evenodd" fill-opacity="1" /><path clip-path="url(#clip720)" d="M1430.84 1432.18 L1435.73 1432.18 L1435.73 1438.06 L1430.84 1438.06 L1430.84 1432.18 Z" fill="#000000" fill-rule="evenodd" fill-opacity="1" /><path clip-path="url(#clip720)" d="M1460.08 1419.43 Q1463.43 1420.14 1465.31 1422.41 Q1467.21 1424.68 1467.21 1428.01 Q1467.21 1433.13 1463.69 1435.93 Q1460.17 1438.73 1453.69 1438.73 Q1451.51 1438.73 1449.2 1438.29 Q1446.91 1437.87 1444.45 1437.02 L1444.45 1432.5 Q1446.4 1433.64 1448.71 1434.22 Q1451.03 1434.8 1453.55 1434.8 Q1457.95 1434.8 1460.24 1433.06 Q1462.55 1431.32 1462.55 1428.01 Q1462.55 1424.96 1460.4 1423.25 Q1458.27 1421.51 1454.45 1421.51 L1450.43 1421.51 L1450.43 1417.67 L1454.64 1417.67 Q1458.09 1417.67 1459.92 1416.3 Q1461.74 1414.91 1461.74 1412.32 Q1461.74 1409.66 1459.85 1408.25 Q1457.97 1406.81 1454.45 1406.81 Q1452.53 1406.81 1450.33 1407.23 Q1448.13 1407.64 1445.49 1408.52 L1445.49 1404.36 Q1448.16 1403.62 1450.47 1403.25 Q1452.81 1402.87 1454.87 1402.87 Q1460.19 1402.87 1463.3 1405.31 Q1466.4 1407.71 1466.4 1411.83 Q1466.4 1414.7 1464.75 1416.69 Q1463.11 1418.66 1460.08 1419.43 Z" fill="#000000" fill-rule="evenodd" fill-opacity="1" /><path clip-path="url(#clip720)" d="M1857.21 1406.58 Q1853.6 1406.58 1851.77 1410.14 Q1849.96 1413.68 1849.96 1420.81 Q1849.96 1427.92 1851.77 1431.49 Q1853.6 1435.03 1857.21 1435.03 Q1860.84 1435.03 1862.65 1431.49 Q1864.48 1427.92 1864.48 1420.81 Q1864.48 1413.68 1862.65 1410.14 Q1860.84 1406.58 1857.21 1406.58 M1857.21 1402.87 Q1863.02 1402.87 1866.07 1407.48 Q1869.15 1412.06 1869.15 1420.81 Q1869.15 1429.54 1866.07 1434.15 Q1863.02 1438.73 1857.21 1438.73 Q1851.4 1438.73 1848.32 1434.15 Q1845.26 1429.54 1845.26 1420.81 Q1845.26 1412.06 1848.32 1407.48 Q1851.4 1402.87 1857.21 1402.87 Z" fill="#000000" fill-rule="evenodd" fill-opacity="1" /><path clip-path="url(#clip720)" d="M1877.37 1432.18 L1882.25 1432.18 L1882.25 1438.06 L1877.37 1438.06 L1877.37 1432.18 Z" fill="#000000" fill-rule="evenodd" fill-opacity="1" /><path clip-path="url(#clip720)" d="M1905.29 1407.57 L1893.48 1426.02 L1905.29 1426.02 L1905.29 1407.57 M1904.06 1403.5 L1909.94 1403.5 L1909.94 1426.02 L1914.87 1426.02 L1914.87 1429.91 L1909.94 1429.91 L1909.94 1438.06 L1905.29 1438.06 L1905.29 1429.91 L1889.68 1429.91 L1889.68 1425.4 L1904.06 1403.5 Z" fill="#000000" fill-rule="evenodd" fill-opacity="1" /><path clip-path="url(#clip720)" d="M2305.04 1406.58 Q2301.43 1406.58 2299.6 1410.14 Q2297.8 1413.68 2297.8 1420.81 Q2297.8 1427.92 2299.6 1431.49 Q2301.43 1435.03 2305.04 1435.03 Q2308.68 1435.03 2310.48 1431.49 Q2312.31 1427.92 2312.31 1420.81 Q2312.31 1413.68 2310.48 1410.14 Q2308.68 1406.58 2305.04 1406.58 M2305.04 1402.87 Q2310.85 1402.87 2313.91 1407.48 Q2316.99 1412.06 2316.99 1420.81 Q2316.99 1429.54 2313.91 1434.15 Q2310.85 1438.73 2305.04 1438.73 Q2299.23 1438.73 2296.15 1434.15 Q2293.1 1429.54 2293.1 1420.81 Q2293.1 1412.06 2296.15 1407.48 Q2299.23 1402.87 2305.04 1402.87 Z" fill="#000000" fill-rule="evenodd" fill-opacity="1" /><path clip-path="url(#clip720)" d="M2325.2 1432.18 L2330.09 1432.18 L2330.09 1438.06 L2325.2 1438.06 L2325.2 1432.18 Z" fill="#000000" fill-rule="evenodd" fill-opacity="1" /><path clip-path="url(#clip720)" d="M2340.32 1403.5 L2358.68 1403.5 L2358.68 1407.44 L2344.6 1407.44 L2344.6 1415.91 Q2345.62 1415.56 2346.64 1415.4 Q2347.66 1415.21 2348.68 1415.21 Q2354.46 1415.21 2357.84 1418.38 Q2361.22 1421.56 2361.22 1426.97 Q2361.22 1432.55 2357.75 1435.65 Q2354.28 1438.73 2347.96 1438.73 Q2345.78 1438.73 2343.51 1438.36 Q2341.27 1437.99 2338.86 1437.25 L2338.86 1432.55 Q2340.94 1433.68 2343.17 1434.24 Q2345.39 1434.8 2347.87 1434.8 Q2351.87 1434.8 2354.21 1432.69 Q2356.55 1430.58 2356.55 1426.97 Q2356.55 1423.36 2354.21 1421.25 Q2351.87 1419.15 2347.87 1419.15 Q2345.99 1419.15 2344.12 1419.56 Q2342.26 1419.98 2340.32 1420.86 L2340.32 1403.5 Z" fill="#000000" fill-rule="evenodd" fill-opacity="1" /><path clip-path="url(#clip720)" d="M585.196 1486.36 Q587.265 1487.06 589.207 1489.36 Q591.18 1491.65 593.154 1495.66 L599.678 1508.64 L592.772 1508.64 L586.692 1496.45 Q584.337 1491.68 582.109 1490.12 Q579.913 1488.56 576.094 1488.56 L569.091 1488.56 L569.091 1508.64 L562.662 1508.64 L562.662 1461.12 L577.176 1461.12 Q585.324 1461.12 589.334 1464.53 Q593.345 1467.94 593.345 1474.81 Q593.345 1479.3 591.244 1482.26 Q589.175 1485.22 585.196 1486.36 M569.091 1466.41 L569.091 1483.28 L577.176 1483.28 Q581.823 1483.28 584.178 1481.14 Q586.565 1478.98 586.565 1474.81 Q586.565 1470.64 584.178 1468.54 Q581.823 1466.41 577.176 1466.41 L569.091 1466.41 Z" fill="#000000" fill-rule="evenodd" fill-opacity="1" /><path clip-path="url(#clip720)" d="M618.585 1477.1 Q613.874 1477.1 611.137 1480.79 Q608.399 1484.45 608.399 1490.85 Q608.399 1497.25 611.105 1500.94 Q613.842 1504.6 618.585 1504.6 Q623.263 1504.6 626.001 1500.91 Q628.738 1497.22 628.738 1490.85 Q628.738 1484.52 626.001 1480.83 Q623.263 1477.1 618.585 1477.1 M618.585 1472.14 Q626.223 1472.14 630.584 1477.1 Q634.944 1482.07 634.944 1490.85 Q634.944 1499.6 630.584 1504.6 Q626.223 1509.57 618.585 1509.57 Q610.914 1509.57 606.553 1504.6 Q602.225 1499.6 602.225 1490.85 Q602.225 1482.07 606.553 1477.1 Q610.914 1472.14 618.585 1472.14 M623.009 1456.51 L629.343 1456.51 L618.967 1468.48 L614.097 1468.48 L623.009 1456.51 Z" fill="#000000" fill-rule="evenodd" fill-opacity="1" /><path clip-path="url(#clip720)" d="M652.546 1459.12 L658.402 1459.12 L658.402 1466.53 L652.546 1466.53 L652.546 1459.12 M655.538 1472.14 L655.538 1472.14 M642.106 1473 L669.924 1473 L669.924 1478.34 L647.899 1503.97 L669.924 1503.97 L669.924 1508.64 L641.31 1508.64 L641.31 1503.3 L663.336 1477.67 L642.106 1477.67 L642.106 1473 Z" fill="#000000" fill-rule="evenodd" fill-opacity="1" /><path clip-path="url(#clip720)" d="M708.5 1487.13 L708.5 1508.64 L702.644 1508.64 L702.644 1487.32 Q702.644 1482.26 700.67 1479.74 Q698.697 1477.23 694.75 1477.23 Q690.008 1477.23 687.271 1480.25 Q684.533 1483.28 684.533 1488.5 L684.533 1508.64 L678.645 1508.64 L678.645 1473 L684.533 1473 L684.533 1478.53 Q686.634 1475.32 689.467 1473.73 Q692.331 1472.14 696.055 1472.14 Q702.198 1472.14 705.349 1475.96 Q708.5 1479.74 708.5 1487.13 Z" fill="#000000" fill-rule="evenodd" fill-opacity="1" /><path clip-path="url(#clip720)" d="M720.181 1473 L726.038 1473 L726.038 1508.64 L720.181 1508.64 L720.181 1473 M720.181 1459.12 L726.038 1459.12 L726.038 1466.53 L720.181 1466.53 L720.181 1459.12 Z" fill="#000000" fill-rule="evenodd" fill-opacity="1" /><path clip-path="url(#clip720)" d="M763.946 1474.36 L763.946 1479.84 Q761.463 1478.47 758.948 1477.8 Q756.466 1477.1 753.92 1477.1 Q748.222 1477.1 745.071 1480.73 Q741.92 1484.33 741.92 1490.85 Q741.92 1497.38 745.071 1501 Q748.222 1504.6 753.92 1504.6 Q756.466 1504.6 758.948 1503.93 Q761.463 1503.23 763.946 1501.86 L763.946 1507.28 Q761.495 1508.42 758.853 1508.99 Q756.243 1509.57 753.283 1509.57 Q745.23 1509.57 740.488 1504.51 Q735.745 1499.45 735.745 1490.85 Q735.745 1482.13 740.52 1477.13 Q745.326 1472.14 753.665 1472.14 Q756.37 1472.14 758.948 1472.71 Q761.527 1473.25 763.946 1474.36 Z" fill="#000000" fill-rule="evenodd" fill-opacity="1" /><path clip-path="url(#clip720)" d="M790.331 1490.72 Q783.234 1490.72 780.496 1492.35 Q777.759 1493.97 777.759 1497.89 Q777.759 1501 779.796 1502.85 Q781.865 1504.67 785.398 1504.67 Q790.268 1504.67 793.196 1501.23 Q796.156 1497.76 796.156 1492.03 L796.156 1490.72 L790.331 1490.72 M802.012 1488.31 L802.012 1508.64 L796.156 1508.64 L796.156 1503.23 Q794.151 1506.48 791.159 1508.04 Q788.167 1509.57 783.838 1509.57 Q778.364 1509.57 775.117 1506.51 Q771.903 1503.42 771.903 1498.27 Q771.903 1492.25 775.913 1489.2 Q779.955 1486.14 787.944 1486.14 L796.156 1486.14 L796.156 1485.57 Q796.156 1481.53 793.482 1479.33 Q790.841 1477.1 786.035 1477.1 Q782.979 1477.1 780.083 1477.83 Q777.186 1478.57 774.513 1480.03 L774.513 1474.62 Q777.727 1473.38 780.751 1472.77 Q783.775 1472.14 786.639 1472.14 Q794.374 1472.14 798.193 1476.15 Q802.012 1480.16 802.012 1488.31 Z" fill="#000000" fill-rule="evenodd" fill-opacity="1" /><path clip-path="url(#clip720)" d="M862.55 1479.84 Q864.747 1475.89 867.802 1474.01 Q870.858 1472.14 874.995 1472.14 Q880.565 1472.14 883.589 1476.05 Q886.613 1479.93 886.613 1487.13 L886.613 1508.64 L880.724 1508.64 L880.724 1487.32 Q880.724 1482.19 878.91 1479.71 Q877.096 1477.23 873.372 1477.23 Q868.821 1477.23 866.179 1480.25 Q863.537 1483.28 863.537 1488.5 L863.537 1508.64 L857.649 1508.64 L857.649 1487.32 Q857.649 1482.16 855.835 1479.71 Q854.02 1477.23 850.233 1477.23 Q845.745 1477.23 843.103 1480.28 Q840.461 1483.31 840.461 1488.5 L840.461 1508.64 L834.573 1508.64 L834.573 1473 L840.461 1473 L840.461 1478.53 Q842.467 1475.26 845.267 1473.7 Q848.068 1472.14 851.92 1472.14 Q855.803 1472.14 858.508 1474.11 Q861.245 1476.08 862.55 1479.84 Z" fill="#000000" fill-rule="evenodd" fill-opacity="1" /><path clip-path="url(#clip720)" d="M898.294 1473 L904.15 1473 L904.15 1508.64 L898.294 1508.64 L898.294 1473 M898.294 1459.12 L904.15 1459.12 L904.15 1466.53 L898.294 1466.53 L898.294 1459.12 Z" fill="#000000" fill-rule="evenodd" fill-opacity="1" /><path clip-path="url(#clip720)" d="M946.896 1489.36 L946.896 1492.22 L919.969 1492.22 Q920.351 1498.27 923.597 1501.45 Q926.876 1504.6 932.7 1504.6 Q936.074 1504.6 939.225 1503.77 Q942.408 1502.95 945.527 1501.29 L945.527 1506.83 Q942.376 1508.17 939.066 1508.87 Q935.756 1509.57 932.35 1509.57 Q923.82 1509.57 918.823 1504.6 Q913.858 1499.64 913.858 1491.17 Q913.858 1482.42 918.569 1477.29 Q923.311 1472.14 931.332 1472.14 Q938.525 1472.14 942.695 1476.78 Q946.896 1481.4 946.896 1489.36 M941.039 1487.64 Q940.976 1482.83 938.334 1479.97 Q935.724 1477.1 931.395 1477.1 Q926.494 1477.1 923.534 1479.87 Q920.606 1482.64 920.16 1487.67 L941.039 1487.64 M936.233 1508.64 L940.021 1508.64 Q938.589 1510.59 937.888 1511.99 Q937.22 1513.39 937.22 1514.37 Q937.22 1515.84 938.079 1516.57 Q938.971 1517.3 940.689 1517.3 Q941.708 1517.3 942.695 1517.05 Q943.681 1516.82 944.668 1516.35 L944.668 1520.58 Q943.458 1520.9 942.376 1521.06 Q941.294 1521.22 940.339 1521.22 Q936.456 1521.22 934.61 1519.82 Q932.796 1518.45 932.796 1515.49 Q932.796 1513.96 933.623 1512.27 Q934.483 1510.62 936.233 1508.64 Z" fill="#000000" fill-rule="evenodd" fill-opacity="1" /><path clip-path="url(#clip720)" d="M979.966 1478.41 L979.966 1459.12 L985.822 1459.12 L985.822 1508.64 L979.966 1508.64 L979.966 1503.3 Q978.12 1506.48 975.287 1508.04 Q972.486 1509.57 968.539 1509.57 Q962.078 1509.57 958.004 1504.41 Q953.962 1499.25 953.962 1490.85 Q953.962 1482.45 958.004 1477.29 Q962.078 1472.14 968.539 1472.14 Q972.486 1472.14 975.287 1473.7 Q978.12 1475.22 979.966 1478.41 M960.009 1490.85 Q960.009 1497.31 962.651 1501 Q965.325 1504.67 969.972 1504.67 Q974.619 1504.67 977.292 1501 Q979.966 1497.31 979.966 1490.85 Q979.966 1484.39 977.292 1480.73 Q974.619 1477.04 969.972 1477.04 Q965.325 1477.04 962.651 1480.73 Q960.009 1484.39 960.009 1490.85 Z" fill="#000000" fill-rule="evenodd" fill-opacity="1" /><path clip-path="url(#clip720)" d="M995.339 1473 L1023.16 1473 L1023.16 1478.34 L1001.13 1503.97 L1023.16 1503.97 L1023.16 1508.64 L994.543 1508.64 L994.543 1503.3 L1016.57 1477.67 L995.339 1477.67 L995.339 1473 Z" fill="#000000" fill-rule="evenodd" fill-opacity="1" /><path clip-path="url(#clip720)" d="M1046.93 1511.95 Q1044.45 1518.32 1042.1 1520.26 Q1039.74 1522.2 1035.79 1522.2 L1031.11 1522.2 L1031.11 1517.3 L1034.55 1517.3 Q1036.97 1517.3 1038.31 1516.16 Q1039.64 1515.01 1041.27 1510.74 L1042.32 1508.07 L1027.9 1473 L1034.11 1473 L1045.25 1500.88 L1056.39 1473 L1062.59 1473 L1046.93 1511.95 Z" fill="#000000" fill-rule="evenodd" fill-opacity="1" /><path clip-path="url(#clip720)" d="M1105.21 1477.1 Q1100.5 1477.1 1097.76 1480.79 Q1095.03 1484.45 1095.03 1490.85 Q1095.03 1497.25 1097.73 1500.94 Q1100.47 1504.6 1105.21 1504.6 Q1109.89 1504.6 1112.63 1500.91 Q1115.36 1497.22 1115.36 1490.85 Q1115.36 1484.52 1112.63 1480.83 Q1109.89 1477.1 1105.21 1477.1 M1105.21 1472.14 Q1112.85 1472.14 1117.21 1477.1 Q1121.57 1482.07 1121.57 1490.85 Q1121.57 1499.6 1117.21 1504.6 Q1112.85 1509.57 1105.21 1509.57 Q1097.54 1509.57 1093.18 1504.6 Q1088.85 1499.6 1088.85 1490.85 Q1088.85 1482.07 1093.18 1477.1 Q1097.54 1472.14 1105.21 1472.14 Z" fill="#000000" fill-rule="evenodd" fill-opacity="1" /><path clip-path="url(#clip720)" d="M1156.93 1474.36 L1156.93 1479.84 Q1154.45 1478.47 1151.94 1477.8 Q1149.45 1477.1 1146.91 1477.1 Q1141.21 1477.1 1138.06 1480.73 Q1134.91 1484.33 1134.91 1490.85 Q1134.91 1497.38 1138.06 1501 Q1141.21 1504.6 1146.91 1504.6 Q1149.45 1504.6 1151.94 1503.93 Q1154.45 1503.23 1156.93 1501.86 L1156.93 1507.28 Q1154.48 1508.42 1151.84 1508.99 Q1149.23 1509.57 1146.27 1509.57 Q1138.22 1509.57 1133.47 1504.51 Q1128.73 1499.45 1128.73 1490.85 Q1128.73 1482.13 1133.51 1477.13 Q1138.31 1472.14 1146.65 1472.14 Q1149.36 1472.14 1151.94 1472.71 Q1154.51 1473.25 1156.93 1474.36 Z" fill="#000000" fill-rule="evenodd" fill-opacity="1" /><path clip-path="url(#clip720)" d="M1164.57 1473 L1192.39 1473 L1192.39 1478.34 L1170.36 1503.97 L1192.39 1503.97 L1192.39 1508.64 L1163.78 1508.64 L1163.78 1503.3 L1185.8 1477.67 L1164.57 1477.67 L1164.57 1473 Z" fill="#000000" fill-rule="evenodd" fill-opacity="1" /><path clip-path="url(#clip720)" d="M1231.82 1489.36 L1231.82 1492.22 L1204.9 1492.22 Q1205.28 1498.27 1208.53 1501.45 Q1211.8 1504.6 1217.63 1504.6 Q1221 1504.6 1224.15 1503.77 Q1227.34 1502.95 1230.46 1501.29 L1230.46 1506.83 Q1227.31 1508.17 1224 1508.87 Q1220.68 1509.57 1217.28 1509.57 Q1208.75 1509.57 1203.75 1504.6 Q1198.79 1499.64 1198.79 1491.17 Q1198.79 1482.42 1203.5 1477.29 Q1208.24 1472.14 1216.26 1472.14 Q1223.45 1472.14 1227.62 1476.78 Q1231.82 1481.4 1231.82 1489.36 M1225.97 1487.64 Q1225.9 1482.83 1223.26 1479.97 Q1220.65 1477.1 1216.32 1477.1 Q1211.42 1477.1 1208.46 1479.87 Q1205.53 1482.64 1205.09 1487.67 L1225.97 1487.64 Z" fill="#000000" fill-rule="evenodd" fill-opacity="1" /><path clip-path="url(#clip720)" d="M1241.21 1459.12 L1247.1 1459.12 L1247.1 1488.37 L1264.58 1473 L1272.06 1473 L1253.15 1489.67 L1272.85 1508.64 L1265.21 1508.64 L1247.1 1491.23 L1247.1 1508.64 L1241.21 1508.64 L1241.21 1459.12 Z" fill="#000000" fill-rule="evenodd" fill-opacity="1" /><path clip-path="url(#clip720)" d="M1279.19 1473 L1285.04 1473 L1285.04 1508.64 L1279.19 1508.64 L1279.19 1473 M1279.19 1459.12 L1285.04 1459.12 L1285.04 1466.53 L1279.19 1466.53 L1279.19 1459.12 Z" fill="#000000" fill-rule="evenodd" fill-opacity="1" /><path clip-path="url(#clip720)" d="M1293.89 1473 L1299.75 1473 L1307.07 1500.81 L1314.36 1473 L1321.26 1473 L1328.58 1500.81 L1335.87 1473 L1341.73 1473 L1332.4 1508.64 L1325.5 1508.64 L1317.83 1479.43 L1310.12 1508.64 L1303.22 1508.64 L1293.89 1473 Z" fill="#000000" fill-rule="evenodd" fill-opacity="1" /><path clip-path="url(#clip720)" d="M1366.81 1490.72 Q1359.71 1490.72 1356.97 1492.35 Q1354.24 1493.97 1354.24 1497.89 Q1354.24 1501 1356.27 1502.85 Q1358.34 1504.67 1361.88 1504.67 Q1366.75 1504.67 1369.67 1501.23 Q1372.63 1497.76 1372.63 1492.03 L1372.63 1490.72 L1366.81 1490.72 M1378.49 1488.31 L1378.49 1508.64 L1372.63 1508.64 L1372.63 1503.23 Q1370.63 1506.48 1367.64 1508.04 Q1364.65 1509.57 1360.32 1509.57 Q1354.84 1509.57 1351.6 1506.51 Q1348.38 1503.42 1348.38 1498.27 Q1348.38 1492.25 1352.39 1489.2 Q1356.43 1486.14 1364.42 1486.14 L1372.63 1486.14 L1372.63 1485.57 Q1372.63 1481.53 1369.96 1479.33 Q1367.32 1477.1 1362.51 1477.1 Q1359.46 1477.1 1356.56 1477.83 Q1353.66 1478.57 1350.99 1480.03 L1350.99 1474.62 Q1354.21 1473.38 1357.23 1472.77 Q1360.25 1472.14 1363.12 1472.14 Q1370.85 1472.14 1374.67 1476.15 Q1378.49 1480.16 1378.49 1488.31 Z" fill="#000000" fill-rule="evenodd" fill-opacity="1" /><path clip-path="url(#clip720)" d="M1420.19 1487.13 L1420.19 1508.64 L1414.33 1508.64 L1414.33 1487.32 Q1414.33 1482.26 1412.36 1479.74 Q1410.38 1477.23 1406.44 1477.23 Q1401.69 1477.23 1398.96 1480.25 Q1396.22 1483.28 1396.22 1488.5 L1396.22 1508.64 L1390.33 1508.64 L1390.33 1473 L1396.22 1473 L1396.22 1478.53 Q1398.32 1475.32 1401.15 1473.73 Q1404.02 1472.14 1407.74 1472.14 Q1413.88 1472.14 1417.04 1475.96 Q1420.19 1479.74 1420.19 1487.13 Z" fill="#000000" fill-rule="evenodd" fill-opacity="1" /><path clip-path="url(#clip720)" d="M1431.87 1473 L1437.72 1473 L1437.72 1508.64 L1431.87 1508.64 L1431.87 1473 M1431.87 1459.12 L1437.72 1459.12 L1437.72 1466.53 L1431.87 1466.53 L1431.87 1459.12 Z" fill="#000000" fill-rule="evenodd" fill-opacity="1" /><path clip-path="url(#clip720)" d="M1466.18 1490.72 Q1459.08 1490.72 1456.34 1492.35 Q1453.61 1493.97 1453.61 1497.89 Q1453.61 1501 1455.64 1502.85 Q1457.71 1504.67 1461.25 1504.67 Q1466.11 1504.67 1469.04 1501.23 Q1472 1497.76 1472 1492.03 L1472 1490.72 L1466.18 1490.72 M1477.86 1488.31 L1477.86 1508.64 L1472 1508.64 L1472 1503.23 Q1470 1506.48 1467.01 1508.04 Q1464.01 1509.57 1459.69 1509.57 Q1454.21 1509.57 1450.96 1506.51 Q1447.75 1503.42 1447.75 1498.27 Q1447.75 1492.25 1451.76 1489.2 Q1455.8 1486.14 1463.79 1486.14 L1472 1486.14 L1472 1485.57 Q1472 1481.53 1469.33 1479.33 Q1466.69 1477.1 1461.88 1477.1 Q1458.83 1477.1 1455.93 1477.83 Q1453.03 1478.57 1450.36 1480.03 L1450.36 1474.62 Q1453.57 1473.38 1456.6 1472.77 Q1459.62 1472.14 1462.49 1472.14 Q1470.22 1472.14 1474.04 1476.15 Q1477.86 1480.16 1477.86 1488.31 Z" fill="#000000" fill-rule="evenodd" fill-opacity="1" /><path clip-path="url(#clip720)" d="M1517.68 1479.84 Q1519.87 1475.89 1522.93 1474.01 Q1525.98 1472.14 1530.12 1472.14 Q1535.69 1472.14 1538.72 1476.05 Q1541.74 1479.93 1541.74 1487.13 L1541.74 1508.64 L1535.85 1508.64 L1535.85 1487.32 Q1535.85 1482.19 1534.04 1479.71 Q1532.22 1477.23 1528.5 1477.23 Q1523.95 1477.23 1521.31 1480.25 Q1518.66 1483.28 1518.66 1488.5 L1518.66 1508.64 L1512.78 1508.64 L1512.78 1487.32 Q1512.78 1482.16 1510.96 1479.71 Q1509.15 1477.23 1505.36 1477.23 Q1500.87 1477.23 1498.23 1480.28 Q1495.59 1483.31 1495.59 1488.5 L1495.59 1508.64 L1489.7 1508.64 L1489.7 1473 L1495.59 1473 L1495.59 1478.53 Q1497.59 1475.26 1500.39 1473.7 Q1503.2 1472.14 1507.05 1472.14 Q1510.93 1472.14 1513.63 1474.11 Q1516.37 1476.08 1517.68 1479.84 Z" fill="#000000" fill-rule="evenodd" fill-opacity="1" /><path clip-path="url(#clip720)" d="M1553.42 1473 L1559.28 1473 L1559.28 1508.64 L1553.42 1508.64 L1553.42 1473 M1553.42 1459.12 L1559.28 1459.12 L1559.28 1466.53 L1553.42 1466.53 L1553.42 1459.12 Z" fill="#000000" fill-rule="evenodd" fill-opacity="1" /><path clip-path="url(#clip720)" d="M1592.03 1459.12 L1597.92 1459.12 L1597.92 1488.37 L1615.39 1473 L1622.87 1473 L1603.96 1489.67 L1623.67 1508.64 L1616.03 1508.64 L1597.92 1491.23 L1597.92 1508.64 L1592.03 1508.64 L1592.03 1459.12 Z" fill="#000000" fill-rule="evenodd" fill-opacity="1" /><path clip-path="url(#clip720)" d="M1641.49 1477.1 Q1636.78 1477.1 1634.04 1480.79 Q1631.3 1484.45 1631.3 1490.85 Q1631.3 1497.25 1634.01 1500.94 Q1636.75 1504.6 1641.49 1504.6 Q1646.17 1504.6 1648.91 1500.91 Q1651.64 1497.22 1651.64 1490.85 Q1651.64 1484.52 1648.91 1480.83 Q1646.17 1477.1 1641.49 1477.1 M1641.49 1472.14 Q1649.13 1472.14 1653.49 1477.1 Q1657.85 1482.07 1657.85 1490.85 Q1657.85 1499.6 1653.49 1504.6 Q1649.13 1509.57 1641.49 1509.57 Q1633.82 1509.57 1629.46 1504.6 Q1625.13 1499.6 1625.13 1490.85 Q1625.13 1482.07 1629.46 1477.1 Q1633.82 1472.14 1641.49 1472.14 Z" fill="#000000" fill-rule="evenodd" fill-opacity="1" /><path clip-path="url(#clip720)" d="M1697.19 1487.13 L1697.19 1508.64 L1691.33 1508.64 L1691.33 1487.32 Q1691.33 1482.26 1689.36 1479.74 Q1687.39 1477.23 1683.44 1477.23 Q1678.7 1477.23 1675.96 1480.25 Q1673.22 1483.28 1673.22 1488.5 L1673.22 1508.64 L1667.33 1508.64 L1667.33 1473 L1673.22 1473 L1673.22 1478.53 Q1675.32 1475.32 1678.16 1473.73 Q1681.02 1472.14 1684.75 1472.14 Q1690.89 1472.14 1694.04 1475.96 Q1697.19 1479.74 1697.19 1487.13 Z" fill="#000000" fill-rule="evenodd" fill-opacity="1" /><path clip-path="url(#clip720)" d="M1731.6 1474.05 L1731.6 1479.58 Q1729.11 1478.31 1726.44 1477.67 Q1723.77 1477.04 1720.9 1477.04 Q1716.54 1477.04 1714.35 1478.37 Q1712.18 1479.71 1712.18 1482.39 Q1712.18 1484.42 1713.74 1485.6 Q1715.3 1486.75 1720.01 1487.8 L1722.02 1488.24 Q1728.25 1489.58 1730.86 1492.03 Q1733.51 1494.45 1733.51 1498.81 Q1733.51 1503.77 1729.56 1506.67 Q1725.64 1509.57 1718.77 1509.57 Q1715.91 1509.57 1712.79 1508.99 Q1709.7 1508.45 1706.26 1507.34 L1706.26 1501.29 Q1709.51 1502.98 1712.66 1503.84 Q1715.81 1504.67 1718.9 1504.67 Q1723.03 1504.67 1725.26 1503.26 Q1727.49 1501.83 1727.49 1499.25 Q1727.49 1496.87 1725.87 1495.59 Q1724.28 1494.32 1718.83 1493.14 L1716.8 1492.67 Q1711.35 1491.52 1708.93 1489.16 Q1706.52 1486.78 1706.52 1482.64 Q1706.52 1477.61 1710.08 1474.87 Q1713.65 1472.14 1720.2 1472.14 Q1723.45 1472.14 1726.31 1472.61 Q1729.18 1473.09 1731.6 1474.05 Z" fill="#000000" fill-rule="evenodd" fill-opacity="1" /><path clip-path="url(#clip720)" d="M1742.23 1494.58 L1742.23 1473 L1748.08 1473 L1748.08 1494.35 Q1748.08 1499.41 1750.06 1501.96 Q1752.03 1504.47 1755.98 1504.47 Q1760.72 1504.47 1763.46 1501.45 Q1766.23 1498.43 1766.23 1493.21 L1766.23 1473 L1772.08 1473 L1772.08 1508.64 L1766.23 1508.64 L1766.23 1503.17 Q1764.09 1506.42 1761.26 1508.01 Q1758.46 1509.57 1754.74 1509.57 Q1748.59 1509.57 1745.41 1505.75 Q1742.23 1501.93 1742.23 1494.58 M1756.96 1472.14 L1756.96 1472.14 Z" fill="#000000" fill-rule="evenodd" fill-opacity="1" /><path clip-path="url(#clip720)" d="M1811.9 1479.84 Q1814.1 1475.89 1817.15 1474.01 Q1820.21 1472.14 1824.34 1472.14 Q1829.91 1472.14 1832.94 1476.05 Q1835.96 1479.93 1835.96 1487.13 L1835.96 1508.64 L1830.07 1508.64 L1830.07 1487.32 Q1830.07 1482.19 1828.26 1479.71 Q1826.45 1477.23 1822.72 1477.23 Q1818.17 1477.23 1815.53 1480.25 Q1812.89 1483.28 1812.89 1488.5 L1812.89 1508.64 L1807 1508.64 L1807 1487.32 Q1807 1482.16 1805.18 1479.71 Q1803.37 1477.23 1799.58 1477.23 Q1795.09 1477.23 1792.45 1480.28 Q1789.81 1483.31 1789.81 1488.5 L1789.81 1508.64 L1783.92 1508.64 L1783.92 1473 L1789.81 1473 L1789.81 1478.53 Q1791.82 1475.26 1794.62 1473.7 Q1797.42 1472.14 1801.27 1472.14 Q1805.15 1472.14 1807.86 1474.11 Q1810.6 1476.08 1811.9 1479.84 Z" fill="#000000" fill-rule="evenodd" fill-opacity="1" /><path clip-path="url(#clip720)" d="M1878.14 1489.36 L1878.14 1492.22 L1851.21 1492.22 Q1851.59 1498.27 1854.84 1501.45 Q1858.12 1504.6 1863.94 1504.6 Q1867.31 1504.6 1870.46 1503.77 Q1873.65 1502.95 1876.77 1501.29 L1876.77 1506.83 Q1873.62 1508.17 1870.31 1508.87 Q1867 1509.57 1863.59 1509.57 Q1855.06 1509.57 1850.06 1504.6 Q1845.1 1499.64 1845.1 1491.17 Q1845.1 1482.42 1849.81 1477.29 Q1854.55 1472.14 1862.57 1472.14 Q1869.76 1472.14 1873.93 1476.78 Q1878.14 1481.4 1878.14 1489.36 M1872.28 1487.64 Q1872.22 1482.83 1869.57 1479.97 Q1866.96 1477.1 1862.63 1477.1 Q1857.73 1477.1 1854.77 1479.87 Q1851.84 1482.64 1851.4 1487.67 L1872.28 1487.64 Z" fill="#000000" fill-rule="evenodd" fill-opacity="1" /><path clip-path="url(#clip720)" d="M1917.38 1487.13 L1917.38 1508.64 L1911.52 1508.64 L1911.52 1487.32 Q1911.52 1482.26 1909.55 1479.74 Q1907.58 1477.23 1903.63 1477.23 Q1898.89 1477.23 1896.15 1480.25 Q1893.41 1483.28 1893.41 1488.5 L1893.41 1508.64 L1887.52 1508.64 L1887.52 1473 L1893.41 1473 L1893.41 1478.53 Q1895.51 1475.32 1898.35 1473.73 Q1901.21 1472.14 1904.93 1472.14 Q1911.08 1472.14 1914.23 1475.96 Q1917.38 1479.74 1917.38 1487.13 Z" fill="#000000" fill-rule="evenodd" fill-opacity="1" /><path clip-path="url(#clip720)" d="M1934.85 1462.87 L1934.85 1473 L1946.92 1473 L1946.92 1477.55 L1934.85 1477.55 L1934.85 1496.9 Q1934.85 1501.26 1936.03 1502.5 Q1937.24 1503.74 1940.9 1503.74 L1946.92 1503.74 L1946.92 1508.64 L1940.9 1508.64 Q1934.12 1508.64 1931.54 1506.13 Q1928.97 1503.58 1928.97 1496.9 L1928.97 1477.55 L1924.67 1477.55 L1924.67 1473 L1928.97 1473 L1928.97 1462.87 L1934.85 1462.87 Z" fill="#000000" fill-rule="evenodd" fill-opacity="1" /><path clip-path="url(#clip720)" d="M1968.43 1477.1 Q1963.72 1477.1 1960.98 1480.79 Q1958.25 1484.45 1958.25 1490.85 Q1958.25 1497.25 1960.95 1500.94 Q1963.69 1504.6 1968.43 1504.6 Q1973.11 1504.6 1975.85 1500.91 Q1978.59 1497.22 1978.59 1490.85 Q1978.59 1484.52 1975.85 1480.83 Q1973.11 1477.1 1968.43 1477.1 M1968.43 1472.14 Q1976.07 1472.14 1980.43 1477.1 Q1984.79 1482.07 1984.79 1490.85 Q1984.79 1499.6 1980.43 1504.6 Q1976.07 1509.57 1968.43 1509.57 Q1960.76 1509.57 1956.4 1504.6 Q1952.07 1499.6 1952.07 1490.85 Q1952.07 1482.07 1956.4 1477.1 Q1960.76 1472.14 1968.43 1472.14 M1972.86 1456.51 L1979.19 1456.51 L1968.81 1468.48 L1963.94 1468.48 L1972.86 1456.51 Z" fill="#000000" fill-rule="evenodd" fill-opacity="1" /><path clip-path="url(#clip720)" d="M1991.09 1473 L1996.95 1473 L2004.27 1500.81 L2011.56 1473 L2018.47 1473 L2025.79 1500.81 L2033.08 1473 L2038.93 1473 L2029.61 1508.64 L2022.7 1508.64 L2015.03 1479.43 L2007.33 1508.64 L2000.42 1508.64 L1991.09 1473 Z" fill="#000000" fill-rule="evenodd" fill-opacity="1" /><path clip-path="url(#clip720)" d="M884.448 1562 Q877.351 1562 874.613 1563.63 Q871.876 1565.25 871.876 1569.17 Q871.876 1572.28 873.913 1574.13 Q875.982 1575.95 879.515 1575.95 Q884.385 1575.95 887.313 1572.51 Q890.273 1569.04 890.273 1563.31 L890.273 1562 L884.448 1562 M896.129 1559.59 L896.129 1579.92 L890.273 1579.92 L890.273 1574.51 Q888.268 1577.76 885.276 1579.32 Q882.284 1580.85 877.955 1580.85 Q872.481 1580.85 869.234 1577.79 Q866.02 1574.7 866.02 1569.55 Q866.02 1563.53 870.03 1560.48 Q874.072 1557.42 882.061 1557.42 L890.273 1557.42 L890.273 1556.85 Q890.273 1552.81 887.599 1550.61 Q884.958 1548.38 880.152 1548.38 Q877.096 1548.38 874.2 1549.11 Q871.303 1549.85 868.63 1551.31 L868.63 1545.9 Q871.844 1544.66 874.868 1544.05 Q877.892 1543.42 880.756 1543.42 Q888.491 1543.42 892.31 1547.43 Q896.129 1551.44 896.129 1559.59 Z" fill="#000000" fill-rule="evenodd" fill-opacity="1" /><path clip-path="url(#clip720)" d="M945.591 1527.57 L951.925 1527.57 L941.549 1539.53 L936.679 1539.53 L945.591 1527.57 M951.638 1545.33 L951.638 1550.86 Q949.156 1549.59 946.482 1548.95 Q943.809 1548.32 940.944 1548.32 Q936.584 1548.32 934.387 1549.65 Q932.223 1550.99 932.223 1553.67 Q932.223 1555.7 933.783 1556.88 Q935.342 1558.03 940.053 1559.08 L942.058 1559.52 Q948.296 1560.86 950.906 1563.31 Q953.548 1565.73 953.548 1570.09 Q953.548 1575.05 949.601 1577.95 Q945.686 1580.85 938.812 1580.85 Q935.947 1580.85 932.828 1580.27 Q929.74 1579.73 926.303 1578.62 L926.303 1572.57 Q929.549 1574.26 932.7 1575.12 Q935.851 1575.95 938.939 1575.95 Q943.077 1575.95 945.305 1574.54 Q947.533 1573.11 947.533 1570.53 Q947.533 1568.15 945.909 1566.87 Q944.318 1565.6 938.875 1564.42 L936.838 1563.95 Q931.395 1562.8 928.976 1560.44 Q926.558 1558.06 926.558 1553.92 Q926.558 1548.89 930.122 1546.15 Q933.687 1543.42 940.244 1543.42 Q943.49 1543.42 946.355 1543.89 Q949.219 1544.37 951.638 1545.33 Z" fill="#000000" fill-rule="evenodd" fill-opacity="1" /><path clip-path="url(#clip720)" d="M983.531 1549.75 Q982.544 1549.18 981.366 1548.92 Q980.22 1548.64 978.82 1548.64 Q973.855 1548.64 971.181 1551.88 Q968.539 1555.1 968.539 1561.15 L968.539 1579.92 L962.651 1579.92 L962.651 1544.28 L968.539 1544.28 L968.539 1549.81 Q970.385 1546.57 973.345 1545.01 Q976.306 1543.42 980.539 1543.42 Q981.143 1543.42 981.876 1543.51 Q982.608 1543.58 983.499 1543.73 L983.531 1549.75 Z" fill="#000000" fill-rule="evenodd" fill-opacity="1" /><path clip-path="url(#clip720)" d="M1018.73 1560.64 L1018.73 1563.5 L991.806 1563.5 Q992.188 1569.55 995.434 1572.73 Q998.713 1575.88 1004.54 1575.88 Q1007.91 1575.88 1011.06 1575.05 Q1014.25 1574.23 1017.36 1572.57 L1017.36 1578.11 Q1014.21 1579.45 1010.9 1580.15 Q1007.59 1580.85 1004.19 1580.85 Q995.657 1580.85 990.66 1575.88 Q985.695 1570.92 985.695 1562.45 Q985.695 1553.7 990.406 1548.57 Q995.148 1543.42 1003.17 1543.42 Q1010.36 1543.42 1014.53 1548.06 Q1018.73 1552.68 1018.73 1560.64 M1012.88 1558.92 Q1012.81 1554.11 1010.17 1551.25 Q1007.56 1548.38 1003.23 1548.38 Q998.331 1548.38 995.371 1551.15 Q992.443 1553.92 991.997 1558.95 L1012.88 1558.92 Z" fill="#000000" fill-rule="evenodd" fill-opacity="1" /><path clip-path="url(#clip720)" d="M1051.8 1549.69 L1051.8 1530.4 L1057.66 1530.4 L1057.66 1579.92 L1051.8 1579.92 L1051.8 1574.58 Q1049.96 1577.76 1047.12 1579.32 Q1044.32 1580.85 1040.38 1580.85 Q1033.92 1580.85 1029.84 1575.69 Q1025.8 1570.53 1025.8 1562.13 Q1025.8 1553.73 1029.84 1548.57 Q1033.92 1543.42 1040.38 1543.42 Q1044.32 1543.42 1047.12 1544.98 Q1049.96 1546.5 1051.8 1549.69 M1031.85 1562.13 Q1031.85 1568.59 1034.49 1572.28 Q1037.16 1575.95 1041.81 1575.95 Q1046.46 1575.95 1049.13 1572.28 Q1051.8 1568.59 1051.8 1562.13 Q1051.8 1555.67 1049.13 1552.01 Q1046.46 1548.32 1041.81 1548.32 Q1037.16 1548.32 1034.49 1552.01 Q1031.85 1555.67 1031.85 1562.13 Z" fill="#000000" fill-rule="evenodd" fill-opacity="1" /><path clip-path="url(#clip720)" d="M1099.35 1558.41 L1099.35 1579.92 L1093.5 1579.92 L1093.5 1558.6 Q1093.5 1553.54 1091.52 1551.02 Q1089.55 1548.51 1085.6 1548.51 Q1080.86 1548.51 1078.12 1551.53 Q1075.39 1554.56 1075.39 1559.78 L1075.39 1579.92 L1069.5 1579.92 L1069.5 1544.28 L1075.39 1544.28 L1075.39 1549.81 Q1077.49 1546.6 1080.32 1545.01 Q1083.19 1543.42 1086.91 1543.42 Q1093.05 1543.42 1096.2 1547.24 Q1099.35 1551.02 1099.35 1558.41 Z" fill="#000000" fill-rule="evenodd" fill-opacity="1" /><path clip-path="url(#clip720)" d="M1111.04 1544.28 L1116.89 1544.28 L1116.89 1579.92 L1111.04 1579.92 L1111.04 1544.28 M1111.04 1530.4 L1116.89 1530.4 L1116.89 1537.81 L1111.04 1537.81 L1111.04 1530.4 Z" fill="#000000" fill-rule="evenodd" fill-opacity="1" /><path clip-path="url(#clip720)" d="M1156.9 1551.12 Q1159.1 1547.17 1162.15 1545.29 Q1165.21 1543.42 1169.35 1543.42 Q1174.92 1543.42 1177.94 1547.33 Q1180.96 1551.21 1180.96 1558.41 L1180.96 1579.92 L1175.07 1579.92 L1175.07 1558.6 Q1175.07 1553.47 1173.26 1550.99 Q1171.45 1548.51 1167.72 1548.51 Q1163.17 1548.51 1160.53 1551.53 Q1157.89 1554.56 1157.89 1559.78 L1157.89 1579.92 L1152 1579.92 L1152 1558.6 Q1152 1553.44 1150.18 1550.99 Q1148.37 1548.51 1144.58 1548.51 Q1140.1 1548.51 1137.45 1551.56 Q1134.81 1554.59 1134.81 1559.78 L1134.81 1579.92 L1128.92 1579.92 L1128.92 1544.28 L1134.81 1544.28 L1134.81 1549.81 Q1136.82 1546.54 1139.62 1544.98 Q1142.42 1543.42 1146.27 1543.42 Q1150.15 1543.42 1152.86 1545.39 Q1155.6 1547.36 1156.9 1551.12 Z" fill="#000000" fill-rule="evenodd" fill-opacity="1" /><path clip-path="url(#clip720)" d="M1219.03 1574.58 L1219.03 1593.48 L1213.14 1593.48 L1213.14 1544.28 L1219.03 1544.28 L1219.03 1549.69 Q1220.88 1546.5 1223.68 1544.98 Q1226.51 1543.42 1230.42 1543.42 Q1236.92 1543.42 1240.96 1548.57 Q1245.03 1553.73 1245.03 1562.13 Q1245.03 1570.53 1240.96 1575.69 Q1236.92 1580.85 1230.42 1580.85 Q1226.51 1580.85 1223.68 1579.32 Q1220.88 1577.76 1219.03 1574.58 M1238.95 1562.13 Q1238.95 1555.67 1236.28 1552.01 Q1233.64 1548.32 1228.99 1548.32 Q1224.35 1548.32 1221.67 1552.01 Q1219.03 1555.67 1219.03 1562.13 Q1219.03 1568.59 1221.67 1572.28 Q1224.35 1575.95 1228.99 1575.95 Q1233.64 1575.95 1236.28 1572.28 Q1238.95 1568.59 1238.95 1562.13 Z" fill="#000000" fill-rule="evenodd" fill-opacity="1" /><path clip-path="url(#clip720)" d="M1268.56 1548.38 Q1263.84 1548.38 1261.11 1552.07 Q1258.37 1555.73 1258.37 1562.13 Q1258.37 1568.53 1261.08 1572.22 Q1263.81 1575.88 1268.56 1575.88 Q1273.23 1575.88 1275.97 1572.19 Q1278.71 1568.5 1278.71 1562.13 Q1278.71 1555.8 1275.97 1552.11 Q1273.23 1548.38 1268.56 1548.38 M1268.56 1543.42 Q1276.19 1543.42 1280.55 1548.38 Q1284.91 1553.35 1284.91 1562.13 Q1284.91 1570.88 1280.55 1575.88 Q1276.19 1580.85 1268.56 1580.85 Q1260.88 1580.85 1256.52 1575.88 Q1252.2 1570.88 1252.2 1562.13 Q1252.2 1553.35 1256.52 1548.38 Q1260.88 1543.42 1268.56 1543.42 Z" fill="#000000" fill-rule="evenodd" fill-opacity="1" /><path clip-path="url(#clip720)" d="M1292.08 1544.28 L1319.89 1544.28 L1319.89 1549.62 L1297.87 1575.25 L1319.89 1575.25 L1319.89 1579.92 L1291.28 1579.92 L1291.28 1574.58 L1313.31 1548.95 L1292.08 1548.95 L1292.08 1544.28 Z" fill="#000000" fill-rule="evenodd" fill-opacity="1" /><path clip-path="url(#clip720)" d="M1328.84 1544.28 L1334.69 1544.28 L1334.69 1579.92 L1328.84 1579.92 L1328.84 1544.28 M1328.84 1530.4 L1334.69 1530.4 L1334.69 1537.81 L1328.84 1537.81 L1328.84 1530.4 Z" fill="#000000" fill-rule="evenodd" fill-opacity="1" /><path clip-path="url(#clip720)" d="M1360.76 1548.38 Q1356.05 1548.38 1353.31 1552.07 Q1350.58 1555.73 1350.58 1562.13 Q1350.58 1568.53 1353.28 1572.22 Q1356.02 1575.88 1360.76 1575.88 Q1365.44 1575.88 1368.18 1572.19 Q1370.92 1568.5 1370.92 1562.13 Q1370.92 1555.8 1368.18 1552.11 Q1365.44 1548.38 1360.76 1548.38 M1360.76 1543.42 Q1368.4 1543.42 1372.76 1548.38 Q1377.12 1553.35 1377.12 1562.13 Q1377.12 1570.88 1372.76 1575.88 Q1368.4 1580.85 1360.76 1580.85 Q1353.09 1580.85 1348.73 1575.88 Q1344.4 1570.88 1344.4 1562.13 Q1344.4 1553.35 1348.73 1548.38 Q1353.09 1543.42 1360.76 1543.42 Z" fill="#000000" fill-rule="evenodd" fill-opacity="1" /><path clip-path="url(#clip720)" d="M1414.58 1551.12 Q1416.78 1547.17 1419.84 1545.29 Q1422.89 1543.42 1427.03 1543.42 Q1432.6 1543.42 1435.62 1547.33 Q1438.65 1551.21 1438.65 1558.41 L1438.65 1579.92 L1432.76 1579.92 L1432.76 1558.6 Q1432.76 1553.47 1430.94 1550.99 Q1429.13 1548.51 1425.41 1548.51 Q1420.85 1548.51 1418.21 1551.53 Q1415.57 1554.56 1415.57 1559.78 L1415.57 1579.92 L1409.68 1579.92 L1409.68 1558.6 Q1409.68 1553.44 1407.87 1550.99 Q1406.05 1548.51 1402.27 1548.51 Q1397.78 1548.51 1395.14 1551.56 Q1392.5 1554.59 1392.5 1559.78 L1392.5 1579.92 L1386.61 1579.92 L1386.61 1544.28 L1392.5 1544.28 L1392.5 1549.81 Q1394.5 1546.54 1397.3 1544.98 Q1400.1 1543.42 1403.95 1543.42 Q1407.84 1543.42 1410.54 1545.39 Q1413.28 1547.36 1414.58 1551.12 Z" fill="#000000" fill-rule="evenodd" fill-opacity="1" /><path clip-path="url(#clip720)" d="M1480.82 1560.64 L1480.82 1563.5 L1453.89 1563.5 Q1454.27 1569.55 1457.52 1572.73 Q1460.8 1575.88 1466.62 1575.88 Q1470 1575.88 1473.15 1575.05 Q1476.33 1574.23 1479.45 1572.57 L1479.45 1578.11 Q1476.3 1579.45 1472.99 1580.15 Q1469.68 1580.85 1466.27 1580.85 Q1457.74 1580.85 1452.75 1575.88 Q1447.78 1570.92 1447.78 1562.45 Q1447.78 1553.7 1452.49 1548.57 Q1457.23 1543.42 1465.26 1543.42 Q1472.45 1543.42 1476.62 1548.06 Q1480.82 1552.68 1480.82 1560.64 M1474.96 1558.92 Q1474.9 1554.11 1472.26 1551.25 Q1469.65 1548.38 1465.32 1548.38 Q1460.42 1548.38 1457.46 1551.15 Q1454.53 1553.92 1454.08 1558.95 L1474.96 1558.92 Z" fill="#000000" fill-rule="evenodd" fill-opacity="1" /><path clip-path="url(#clip720)" d="M1518.19 1551.12 Q1520.38 1547.17 1523.44 1545.29 Q1526.49 1543.42 1530.63 1543.42 Q1536.2 1543.42 1539.22 1547.33 Q1542.25 1551.21 1542.25 1558.41 L1542.25 1579.92 L1536.36 1579.92 L1536.36 1558.6 Q1536.36 1553.47 1534.55 1550.99 Q1532.73 1548.51 1529.01 1548.51 Q1524.46 1548.51 1521.81 1551.53 Q1519.17 1554.56 1519.17 1559.78 L1519.17 1579.92 L1513.28 1579.92 L1513.28 1558.6 Q1513.28 1553.44 1511.47 1550.99 Q1509.66 1548.51 1505.87 1548.51 Q1501.38 1548.51 1498.74 1551.56 Q1496.1 1554.59 1496.1 1559.78 L1496.1 1579.92 L1490.21 1579.92 L1490.21 1544.28 L1496.1 1544.28 L1496.1 1549.81 Q1498.1 1546.54 1500.9 1544.98 Q1503.7 1543.42 1507.56 1543.42 Q1511.44 1543.42 1514.14 1545.39 Q1516.88 1547.36 1518.19 1551.12 Z" fill="#000000" fill-rule="evenodd" fill-opacity="1" /><path clip-path="url(#clip720)" d="M1574.65 1544.28 L1580.51 1544.28 L1580.51 1580.56 Q1580.51 1587.37 1577.9 1590.43 Q1575.32 1593.48 1569.56 1593.48 L1567.33 1593.48 L1567.33 1588.52 L1568.89 1588.52 Q1572.23 1588.52 1573.44 1586.96 Q1574.65 1585.43 1574.65 1580.56 L1574.65 1544.28 M1574.65 1530.4 L1580.51 1530.4 L1580.51 1537.81 L1574.65 1537.81 L1574.65 1530.4 Z" fill="#000000" fill-rule="evenodd" fill-opacity="1" /><path clip-path="url(#clip720)" d="M1608.96 1562 Q1601.86 1562 1599.13 1563.63 Q1596.39 1565.25 1596.39 1569.17 Q1596.39 1572.28 1598.43 1574.13 Q1600.49 1575.95 1604.03 1575.95 Q1608.9 1575.95 1611.83 1572.51 Q1614.79 1569.04 1614.79 1563.31 L1614.79 1562 L1608.96 1562 M1620.64 1559.59 L1620.64 1579.92 L1614.79 1579.92 L1614.79 1574.51 Q1612.78 1577.76 1609.79 1579.32 Q1606.8 1580.85 1602.47 1580.85 Q1596.99 1580.85 1593.75 1577.79 Q1590.53 1574.7 1590.53 1569.55 Q1590.53 1563.53 1594.54 1560.48 Q1598.59 1557.42 1606.57 1557.42 L1614.79 1557.42 L1614.79 1556.85 Q1614.79 1552.81 1612.11 1550.61 Q1609.47 1548.38 1604.66 1548.38 Q1601.61 1548.38 1598.71 1549.11 Q1595.82 1549.85 1593.14 1551.31 L1593.14 1545.9 Q1596.36 1544.66 1599.38 1544.05 Q1602.4 1543.42 1605.27 1543.42 Q1613 1543.42 1616.82 1547.43 Q1620.64 1551.44 1620.64 1559.59 Z" fill="#000000" fill-rule="evenodd" fill-opacity="1" /><path clip-path="url(#clip720)" d="M1632.48 1530.4 L1638.37 1530.4 L1638.37 1559.65 L1655.84 1544.28 L1663.32 1544.28 L1644.42 1560.95 L1664.12 1579.92 L1656.48 1579.92 L1638.37 1562.51 L1638.37 1579.92 L1632.48 1579.92 L1632.48 1530.4 Z" fill="#000000" fill-rule="evenodd" fill-opacity="1" /><path clip-path="url(#clip720)" d="M1681.94 1548.38 Q1677.23 1548.38 1674.5 1552.07 Q1671.76 1555.73 1671.76 1562.13 Q1671.76 1568.53 1674.46 1572.22 Q1677.2 1575.88 1681.94 1575.88 Q1686.62 1575.88 1689.36 1572.19 Q1692.1 1568.5 1692.1 1562.13 Q1692.1 1555.8 1689.36 1552.11 Q1686.62 1548.38 1681.94 1548.38 M1681.94 1543.42 Q1689.58 1543.42 1693.94 1548.38 Q1698.3 1553.35 1698.3 1562.13 Q1698.3 1570.88 1693.94 1575.88 Q1689.58 1580.85 1681.94 1580.85 Q1674.27 1580.85 1669.91 1575.88 Q1665.58 1570.88 1665.58 1562.13 Q1665.58 1553.35 1669.91 1548.38 Q1674.27 1543.42 1681.94 1543.42 Z" fill="#000000" fill-rule="evenodd" fill-opacity="1" /><path clip-path="url(#clip720)" d="M1724.69 1527.57 L1731.02 1527.57 L1720.65 1539.53 L1715.78 1539.53 L1724.69 1527.57 M1730.74 1545.33 L1730.74 1550.86 Q1728.25 1549.59 1725.58 1548.95 Q1722.91 1548.32 1720.04 1548.32 Q1715.68 1548.32 1713.49 1549.65 Q1711.32 1550.99 1711.32 1553.67 Q1711.32 1555.7 1712.88 1556.88 Q1714.44 1558.03 1719.15 1559.08 L1721.16 1559.52 Q1727.4 1560.86 1730.01 1563.31 Q1732.65 1565.73 1732.65 1570.09 Q1732.65 1575.05 1728.7 1577.95 Q1724.79 1580.85 1717.91 1580.85 Q1715.05 1580.85 1711.93 1580.27 Q1708.84 1579.73 1705.4 1578.62 L1705.4 1572.57 Q1708.65 1574.26 1711.8 1575.12 Q1714.95 1575.95 1718.04 1575.95 Q1722.18 1575.95 1724.4 1574.54 Q1726.63 1573.11 1726.63 1570.53 Q1726.63 1568.15 1725.01 1566.87 Q1723.42 1565.6 1717.97 1564.42 L1715.94 1563.95 Q1710.49 1562.8 1708.08 1560.44 Q1705.66 1558.06 1705.66 1553.92 Q1705.66 1548.89 1709.22 1546.15 Q1712.79 1543.42 1719.34 1543.42 Q1722.59 1543.42 1725.45 1543.89 Q1728.32 1544.37 1730.74 1545.33 Z" fill="#000000" fill-rule="evenodd" fill-opacity="1" /><path clip-path="url(#clip720)" d="M1767.63 1545.64 L1767.63 1551.12 Q1765.14 1549.75 1762.63 1549.08 Q1760.15 1548.38 1757.6 1548.38 Q1751.9 1548.38 1748.75 1552.01 Q1745.6 1555.61 1745.6 1562.13 Q1745.6 1568.66 1748.75 1572.28 Q1751.9 1575.88 1757.6 1575.88 Q1760.15 1575.88 1762.63 1575.21 Q1765.14 1574.51 1767.63 1573.14 L1767.63 1578.56 Q1765.18 1579.7 1762.53 1580.27 Q1759.92 1580.85 1756.96 1580.85 Q1748.91 1580.85 1744.17 1575.79 Q1739.43 1570.73 1739.43 1562.13 Q1739.43 1553.41 1744.2 1548.41 Q1749.01 1543.42 1757.35 1543.42 Q1760.05 1543.42 1762.63 1543.99 Q1765.21 1544.53 1767.63 1545.64 Z" fill="#000000" fill-rule="evenodd" fill-opacity="1" /><path clip-path="url(#clip720)" d="M1777.81 1544.28 L1783.67 1544.28 L1783.67 1579.92 L1777.81 1579.92 L1777.81 1544.28 M1777.81 1530.4 L1783.67 1530.4 L1783.67 1537.81 L1777.81 1537.81 L1777.81 1530.4 Z" fill="#000000" fill-rule="evenodd" fill-opacity="1" /><polyline clip-path="url(#clip722)" style="stroke:#000000; stroke-linecap:round; stroke-linejoin:round; stroke-width:2; stroke-opacity:0.1; fill:none" points="
  272.297,1276.48 2352.76,1276.48 
  "/>
<polyline clip-path="url(#clip722)" style="stroke:#000000; stroke-linecap:round; stroke-linejoin:round; stroke-width:2; stroke-opacity:0.1; fill:none" points="
  272.297,984.293 2352.76,984.293 
  "/>
<polyline clip-path="url(#clip722)" style="stroke:#000000; stroke-linecap:round; stroke-linejoin:round; stroke-width:2; stroke-opacity:0.1; fill:none" points="
  272.297,692.107 2352.76,692.107 
  "/>
<polyline clip-path="url(#clip722)" style="stroke:#000000; stroke-linecap:round; stroke-linejoin:round; stroke-width:2; stroke-opacity:0.1; fill:none" points="
  272.297,399.92 2352.76,399.92 
  "/>
<polyline clip-path="url(#clip722)" style="stroke:#000000; stroke-linecap:round; stroke-linejoin:round; stroke-width:2; stroke-opacity:0.1; fill:none" points="
  272.297,107.734 2352.76,107.734 
  "/>
<polyline clip-path="url(#clip720)" style="stroke:#000000; stroke-linecap:round; stroke-linejoin:round; stroke-width:4; stroke-opacity:1; fill:none" points="
  272.297,1375.66 272.297,47.2441 
  "/>
<polyline clip-path="url(#clip720)" style="stroke:#000000; stroke-linecap:round; stroke-linejoin:round; stroke-width:4; stroke-opacity:1; fill:none" points="
  272.297,1276.48 291.194,1276.48 
  "/>
<polyline clip-path="url(#clip720)" style="stroke:#000000; stroke-linecap:round; stroke-linejoin:round; stroke-width:4; stroke-opacity:1; fill:none" points="
  272.297,984.293 291.194,984.293 
  "/>
<polyline clip-path="url(#clip720)" style="stroke:#000000; stroke-linecap:round; stroke-linejoin:round; stroke-width:4; stroke-opacity:1; fill:none" points="
  272.297,692.107 291.194,692.107 
  "/>
<polyline clip-path="url(#clip720)" style="stroke:#000000; stroke-linecap:round; stroke-linejoin:round; stroke-width:4; stroke-opacity:1; fill:none" points="
  272.297,399.92 291.194,399.92 
  "/>
<polyline clip-path="url(#clip720)" style="stroke:#000000; stroke-linecap:round; stroke-linejoin:round; stroke-width:4; stroke-opacity:1; fill:none" points="
  272.297,107.734 291.194,107.734 
  "/>
<path clip-path="url(#clip720)" d="M114.26 1276.93 L143.936 1276.93 L143.936 1280.87 L114.26 1280.87 L114.26 1276.93 Z" fill="#000000" fill-rule="evenodd" fill-opacity="1" /><path clip-path="url(#clip720)" d="M154.839 1289.82 L162.477 1289.82 L162.477 1263.46 L154.167 1265.12 L154.167 1260.87 L162.431 1259.2 L167.107 1259.2 L167.107 1289.82 L174.746 1289.82 L174.746 1293.76 L154.839 1293.76 L154.839 1289.82 Z" fill="#000000" fill-rule="evenodd" fill-opacity="1" /><path clip-path="url(#clip720)" d="M194.19 1262.28 Q190.579 1262.28 188.75 1265.84 Q186.945 1269.38 186.945 1276.51 Q186.945 1283.62 188.75 1287.18 Q190.579 1290.73 194.19 1290.73 Q197.825 1290.73 199.63 1287.18 Q201.459 1283.62 201.459 1276.51 Q201.459 1269.38 199.63 1265.84 Q197.825 1262.28 194.19 1262.28 M194.19 1258.57 Q200 1258.57 203.056 1263.18 Q206.135 1267.76 206.135 1276.51 Q206.135 1285.24 203.056 1289.85 Q200 1294.43 194.19 1294.43 Q188.38 1294.43 185.301 1289.85 Q182.246 1285.24 182.246 1276.51 Q182.246 1267.76 185.301 1263.18 Q188.38 1258.57 194.19 1258.57 Z" fill="#000000" fill-rule="evenodd" fill-opacity="1" /><path clip-path="url(#clip720)" d="M224.352 1262.28 Q220.741 1262.28 218.912 1265.84 Q217.107 1269.38 217.107 1276.51 Q217.107 1283.62 218.912 1287.18 Q220.741 1290.73 224.352 1290.73 Q227.986 1290.73 229.792 1287.18 Q231.621 1283.62 231.621 1276.51 Q231.621 1269.38 229.792 1265.84 Q227.986 1262.28 224.352 1262.28 M224.352 1258.57 Q230.162 1258.57 233.218 1263.18 Q236.297 1267.76 236.297 1276.51 Q236.297 1285.24 233.218 1289.85 Q230.162 1294.43 224.352 1294.43 Q218.542 1294.43 215.463 1289.85 Q212.408 1285.24 212.408 1276.51 Q212.408 1267.76 215.463 1263.18 Q218.542 1258.57 224.352 1258.57 Z" fill="#000000" fill-rule="evenodd" fill-opacity="1" /><path clip-path="url(#clip720)" d="M224.352 970.091 Q220.741 970.091 218.912 973.656 Q217.107 977.198 217.107 984.328 Q217.107 991.434 218.912 994.999 Q220.741 998.54 224.352 998.54 Q227.986 998.54 229.792 994.999 Q231.621 991.434 231.621 984.328 Q231.621 977.198 229.792 973.656 Q227.986 970.091 224.352 970.091 M224.352 966.388 Q230.162 966.388 233.218 970.994 Q236.297 975.578 236.297 984.328 Q236.297 993.054 233.218 997.661 Q230.162 1002.24 224.352 1002.24 Q218.542 1002.24 215.463 997.661 Q212.408 993.054 212.408 984.328 Q212.408 975.578 215.463 970.994 Q218.542 966.388 224.352 966.388 Z" fill="#000000" fill-rule="evenodd" fill-opacity="1" /><path clip-path="url(#clip720)" d="M154.839 705.451 L162.477 705.451 L162.477 679.086 L154.167 680.753 L154.167 676.493 L162.431 674.827 L167.107 674.827 L167.107 705.451 L174.746 705.451 L174.746 709.387 L154.839 709.387 L154.839 705.451 Z" fill="#000000" fill-rule="evenodd" fill-opacity="1" /><path clip-path="url(#clip720)" d="M194.19 677.905 Q190.579 677.905 188.75 681.47 Q186.945 685.012 186.945 692.141 Q186.945 699.248 188.75 702.813 Q190.579 706.354 194.19 706.354 Q197.825 706.354 199.63 702.813 Q201.459 699.248 201.459 692.141 Q201.459 685.012 199.63 681.47 Q197.825 677.905 194.19 677.905 M194.19 674.202 Q200 674.202 203.056 678.808 Q206.135 683.391 206.135 692.141 Q206.135 700.868 203.056 705.475 Q200 710.058 194.19 710.058 Q188.38 710.058 185.301 705.475 Q182.246 700.868 182.246 692.141 Q182.246 683.391 185.301 678.808 Q188.38 674.202 194.19 674.202 Z" fill="#000000" fill-rule="evenodd" fill-opacity="1" /><path clip-path="url(#clip720)" d="M224.352 677.905 Q220.741 677.905 218.912 681.47 Q217.107 685.012 217.107 692.141 Q217.107 699.248 218.912 702.813 Q220.741 706.354 224.352 706.354 Q227.986 706.354 229.792 702.813 Q231.621 699.248 231.621 692.141 Q231.621 685.012 229.792 681.47 Q227.986 677.905 224.352 677.905 M224.352 674.202 Q230.162 674.202 233.218 678.808 Q236.297 683.391 236.297 692.141 Q236.297 700.868 233.218 705.475 Q230.162 710.058 224.352 710.058 Q218.542 710.058 215.463 705.475 Q212.408 700.868 212.408 692.141 Q212.408 683.391 215.463 678.808 Q218.542 674.202 224.352 674.202 Z" fill="#000000" fill-rule="evenodd" fill-opacity="1" /><path clip-path="url(#clip720)" d="M158.056 413.265 L174.376 413.265 L174.376 417.2 L152.431 417.2 L152.431 413.265 Q155.093 410.511 159.677 405.881 Q164.283 401.228 165.464 399.886 Q167.709 397.363 168.589 395.626 Q169.491 393.867 169.491 392.177 Q169.491 389.423 167.547 387.687 Q165.626 385.951 162.524 385.951 Q160.325 385.951 157.871 386.714 Q155.44 387.478 152.663 389.029 L152.663 384.307 Q155.487 383.173 157.94 382.594 Q160.394 382.015 162.431 382.015 Q167.802 382.015 170.996 384.701 Q174.19 387.386 174.19 391.876 Q174.19 394.006 173.38 395.927 Q172.593 397.826 170.487 400.418 Q169.908 401.089 166.806 404.307 Q163.704 407.501 158.056 413.265 Z" fill="#000000" fill-rule="evenodd" fill-opacity="1" /><path clip-path="url(#clip720)" d="M194.19 385.719 Q190.579 385.719 188.75 389.284 Q186.945 392.826 186.945 399.955 Q186.945 407.062 188.75 410.626 Q190.579 414.168 194.19 414.168 Q197.825 414.168 199.63 410.626 Q201.459 407.062 201.459 399.955 Q201.459 392.826 199.63 389.284 Q197.825 385.719 194.19 385.719 M194.19 382.015 Q200 382.015 203.056 386.622 Q206.135 391.205 206.135 399.955 Q206.135 408.682 203.056 413.288 Q200 417.872 194.19 417.872 Q188.38 417.872 185.301 413.288 Q182.246 408.682 182.246 399.955 Q182.246 391.205 185.301 386.622 Q188.38 382.015 194.19 382.015 Z" fill="#000000" fill-rule="evenodd" fill-opacity="1" /><path clip-path="url(#clip720)" d="M224.352 385.719 Q220.741 385.719 218.912 389.284 Q217.107 392.826 217.107 399.955 Q217.107 407.062 218.912 410.626 Q220.741 414.168 224.352 414.168 Q227.986 414.168 229.792 410.626 Q231.621 407.062 231.621 399.955 Q231.621 392.826 229.792 389.284 Q227.986 385.719 224.352 385.719 M224.352 382.015 Q230.162 382.015 233.218 386.622 Q236.297 391.205 236.297 399.955 Q236.297 408.682 233.218 413.288 Q230.162 417.872 224.352 417.872 Q218.542 417.872 215.463 413.288 Q212.408 408.682 212.408 399.955 Q212.408 391.205 215.463 386.622 Q218.542 382.015 224.352 382.015 Z" fill="#000000" fill-rule="evenodd" fill-opacity="1" /><path clip-path="url(#clip720)" d="M168.195 106.38 Q171.552 107.098 173.427 109.366 Q175.325 111.635 175.325 114.968 Q175.325 120.084 171.806 122.885 Q168.288 125.686 161.806 125.686 Q159.63 125.686 157.315 125.246 Q155.024 124.829 152.57 123.973 L152.57 119.459 Q154.515 120.593 156.829 121.172 Q159.144 121.75 161.667 121.75 Q166.065 121.75 168.357 120.014 Q170.672 118.278 170.672 114.968 Q170.672 111.912 168.519 110.2 Q166.39 108.463 162.57 108.463 L158.542 108.463 L158.542 104.621 L162.755 104.621 Q166.204 104.621 168.033 103.255 Q169.862 101.866 169.862 99.2737 Q169.862 96.6116 167.964 95.1996 Q166.089 93.7644 162.57 93.7644 Q160.649 93.7644 158.45 94.1811 Q156.251 94.5978 153.612 95.4774 L153.612 91.3107 Q156.274 90.57 158.589 90.1996 Q160.927 89.8293 162.987 89.8293 Q168.311 89.8293 171.413 92.2598 Q174.514 94.6672 174.514 98.7875 Q174.514 101.658 172.871 103.649 Q171.227 105.616 168.195 106.38 Z" fill="#000000" fill-rule="evenodd" fill-opacity="1" /><path clip-path="url(#clip720)" d="M194.19 93.5329 Q190.579 93.5329 188.75 97.0977 Q186.945 100.639 186.945 107.769 Q186.945 114.875 188.75 118.44 Q190.579 121.982 194.19 121.982 Q197.825 121.982 199.63 118.44 Q201.459 114.875 201.459 107.769 Q201.459 100.639 199.63 97.0977 Q197.825 93.5329 194.19 93.5329 M194.19 89.8293 Q200 89.8293 203.056 94.4357 Q206.135 99.019 206.135 107.769 Q206.135 116.496 203.056 121.102 Q200 125.686 194.19 125.686 Q188.38 125.686 185.301 121.102 Q182.246 116.496 182.246 107.769 Q182.246 99.019 185.301 94.4357 Q188.38 89.8293 194.19 89.8293 Z" fill="#000000" fill-rule="evenodd" fill-opacity="1" /><path clip-path="url(#clip720)" d="M224.352 93.5329 Q220.741 93.5329 218.912 97.0977 Q217.107 100.639 217.107 107.769 Q217.107 114.875 218.912 118.44 Q220.741 121.982 224.352 121.982 Q227.986 121.982 229.792 118.44 Q231.621 114.875 231.621 107.769 Q231.621 100.639 229.792 97.0977 Q227.986 93.5329 224.352 93.5329 M224.352 89.8293 Q230.162 89.8293 233.218 94.4357 Q236.297 99.019 236.297 107.769 Q236.297 116.496 233.218 121.102 Q230.162 125.686 224.352 125.686 Q218.542 125.686 215.463 121.102 Q212.408 116.496 212.408 107.769 Q212.408 99.019 215.463 94.4357 Q218.542 89.8293 224.352 89.8293 Z" fill="#000000" fill-rule="evenodd" fill-opacity="1" /><path clip-path="url(#clip720)" d="M3.52994 971.03 L3.52994 965.141 L11.9327 972.398 L11.9327 977.268 L3.52994 971.03 M18.0438 958.935 L24.314 958.935 Q22.5634 962.595 21.704 965.842 Q20.8447 969.088 20.8447 972.112 Q20.8447 977.363 22.8817 980.228 Q24.9187 983.061 28.6745 983.061 Q31.8255 983.061 33.4488 981.183 Q35.0402 979.273 36.0269 973.99 L36.8226 970.107 Q38.1912 962.913 41.6605 959.508 Q45.098 956.07 50.8908 956.07 Q57.7976 956.07 61.3624 960.717 Q64.9272 965.332 64.9272 974.276 Q64.9272 977.65 64.1633 981.469 Q63.3994 985.257 61.9035 989.331 L55.2831 989.331 Q57.4793 985.416 58.5933 981.66 Q59.7073 977.905 59.7073 974.276 Q59.7073 968.77 57.543 965.778 Q55.3786 962.786 51.3682 962.786 Q47.8671 962.786 45.8937 964.95 Q43.9204 967.083 42.9337 971.984 L42.1698 975.899 Q40.7375 983.093 37.682 986.307 Q34.6264 989.522 29.1837 989.522 Q22.8817 989.522 19.2532 985.098 Q15.6248 980.642 15.6248 972.844 Q15.6248 969.502 16.2295 966.032 Q16.8343 962.563 18.0438 958.935 Z" fill="#000000" fill-rule="evenodd" fill-opacity="1" /><path clip-path="url(#clip720)" d="M33.8307 925.642 Q33.2578 926.629 33.0032 927.806 Q32.7167 928.952 32.7167 930.353 Q32.7167 935.318 35.9632 937.992 Q39.1779 940.633 45.2253 940.633 L64.0042 940.633 L64.0042 946.522 L28.3562 946.522 L28.3562 940.633 L33.8944 940.633 Q30.6479 938.787 29.0883 935.827 Q27.4968 932.867 27.4968 928.634 Q27.4968 928.029 27.5923 927.297 Q27.656 926.565 27.8151 925.674 L33.8307 925.642 Z" fill="#000000" fill-rule="evenodd" fill-opacity="1" /><path clip-path="url(#clip720)" d="M44.7161 890.44 L47.5806 890.44 L47.5806 917.367 Q53.6281 916.985 56.8109 913.738 Q59.9619 910.46 59.9619 904.635 Q59.9619 901.261 59.1344 898.11 Q58.3069 894.928 56.6518 891.808 L62.1899 891.808 Q63.5267 894.959 64.227 898.27 Q64.9272 901.58 64.9272 904.985 Q64.9272 913.515 59.9619 918.512 Q54.9967 923.478 46.5303 923.478 Q37.7774 923.478 32.6531 918.767 Q27.4968 914.025 27.4968 906.004 Q27.4968 898.811 32.1438 894.641 Q36.7589 890.44 44.7161 890.44 M42.9973 896.296 Q38.1912 896.36 35.3266 899.002 Q32.4621 901.612 32.4621 905.94 Q32.4621 910.842 35.2312 913.802 Q38.0002 916.73 43.0292 917.176 L42.9973 896.296 Z" fill="#000000" fill-rule="evenodd" fill-opacity="1" /><path clip-path="url(#clip720)" d="M33.7671 857.37 L14.479 857.37 L14.479 851.513 L64.0042 851.513 L64.0042 857.37 L58.657 857.37 Q61.8398 859.216 63.3994 862.049 Q64.9272 864.85 64.9272 868.796 Q64.9272 875.258 59.771 879.332 Q54.6147 883.374 46.212 883.374 Q37.8093 883.374 32.6531 879.332 Q27.4968 875.258 27.4968 868.796 Q27.4968 864.85 29.0564 862.049 Q30.5842 859.216 33.7671 857.37 M46.212 877.326 Q52.6732 877.326 56.3653 874.685 Q60.0256 872.011 60.0256 867.364 Q60.0256 862.717 56.3653 860.043 Q52.6732 857.37 46.212 857.37 Q39.7508 857.37 36.0905 860.043 Q32.3984 862.717 32.3984 867.364 Q32.3984 872.011 36.0905 874.685 Q39.7508 877.326 46.212 877.326 Z" fill="#000000" fill-rule="evenodd" fill-opacity="1" /><path clip-path="url(#clip720)" d="M42.4881 809.818 L64.0042 809.818 L64.0042 815.675 L42.679 815.675 Q37.6183 815.675 35.1038 817.648 Q32.5894 819.621 32.5894 823.568 Q32.5894 828.31 35.6131 831.048 Q38.6368 833.785 43.8567 833.785 L64.0042 833.785 L64.0042 839.673 L28.3562 839.673 L28.3562 833.785 L33.8944 833.785 Q30.6797 831.684 29.0883 828.852 Q27.4968 825.987 27.4968 822.263 Q27.4968 816.12 31.3163 812.969 Q35.1038 809.818 42.4881 809.818 Z" fill="#000000" fill-rule="evenodd" fill-opacity="1" /><path clip-path="url(#clip720)" d="M28.3562 798.137 L28.3562 792.281 L64.0042 792.281 L64.0042 798.137 L28.3562 798.137 M14.479 798.137 L14.479 792.281 L21.895 792.281 L21.895 798.137 L14.479 798.137 Z" fill="#000000" fill-rule="evenodd" fill-opacity="1" /><path clip-path="url(#clip720)" d="M28.3562 761.852 L28.3562 734.034 L33.7034 734.034 L59.3254 756.06 L59.3254 734.034 L64.0042 734.034 L64.0042 762.648 L58.657 762.648 L33.035 740.623 L33.035 761.852 L28.3562 761.852 Z" fill="#000000" fill-rule="evenodd" fill-opacity="1" /><path clip-path="url(#clip720)" d="M67.3143 710.258 Q73.68 712.741 75.6216 715.096 Q77.5631 717.452 77.5631 721.398 L77.5631 726.077 L72.6615 726.077 L72.6615 722.64 Q72.6615 720.221 71.5157 718.884 Q70.3699 717.547 66.1048 715.924 L63.4312 714.874 L28.3562 729.292 L28.3562 723.085 L56.238 711.945 L28.3562 700.805 L28.3562 694.599 L67.3143 710.258 Z" fill="#000000" fill-rule="evenodd" fill-opacity="1" /><path clip-path="url(#clip720)" d="M29.4065 663.789 L34.9447 663.789 Q33.6716 666.271 33.035 668.945 Q32.3984 671.619 32.3984 674.483 Q32.3984 678.844 33.7352 681.04 Q35.072 683.204 37.7456 683.204 Q39.7826 683.204 40.9603 681.645 Q42.1061 680.085 43.1565 675.374 L43.6021 673.369 Q44.9389 667.131 47.3897 664.521 Q49.8086 661.879 54.1691 661.879 Q59.1344 661.879 62.0308 665.826 Q64.9272 669.741 64.9272 676.616 Q64.9272 679.48 64.3543 682.599 Q63.8132 685.687 62.6992 689.124 L56.6518 689.124 Q58.3387 685.878 59.198 682.727 Q60.0256 679.576 60.0256 676.488 Q60.0256 672.351 58.6251 670.123 Q57.1929 667.895 54.6147 667.895 Q52.2276 667.895 50.9545 669.518 Q49.6813 671.109 48.5037 676.552 L48.0262 678.589 Q46.8804 684.032 44.5251 686.451 Q42.138 688.87 38.0002 688.87 Q32.9713 688.87 30.2341 685.305 Q27.4968 681.74 27.4968 675.183 Q27.4968 671.937 27.9743 669.072 Q28.4517 666.208 29.4065 663.789 Z" fill="#000000" fill-rule="evenodd" fill-opacity="1" /><path clip-path="url(#clip720)" d="M14.479 652.776 L14.479 646.888 L43.7294 646.888 L28.3562 629.414 L28.3562 621.934 L45.0344 640.84 L64.0042 621.139 L64.0042 628.777 L46.5939 646.888 L64.0042 646.888 L64.0042 652.776 L14.479 652.776 Z" fill="#000000" fill-rule="evenodd" fill-opacity="1" /><path clip-path="url(#clip720)" d="M14.479 576.037 L19.3487 576.037 L19.3487 581.639 Q19.3487 584.79 20.6219 586.032 Q21.895 587.241 25.2052 587.241 L28.3562 587.241 L28.3562 577.597 L32.9077 577.597 L32.9077 587.241 L64.0042 587.241 L64.0042 593.129 L32.9077 593.129 L32.9077 598.731 L28.3562 598.731 L28.3562 593.129 L25.8736 593.129 Q19.9216 593.129 17.2162 590.36 Q14.479 587.591 14.479 581.576 L14.479 576.037 Z" fill="#000000" fill-rule="evenodd" fill-opacity="1" /><path clip-path="url(#clip720)" d="M28.3562 571.136 L28.3562 565.279 L64.0042 565.279 L64.0042 571.136 L28.3562 571.136 M14.479 571.136 L14.479 565.279 L21.895 565.279 L21.895 571.136 L14.479 571.136 Z" fill="#000000" fill-rule="evenodd" fill-opacity="1" /><path clip-path="url(#clip720)" d="M33.8307 532.369 Q33.2578 533.355 33.0032 534.533 Q32.7167 535.679 32.7167 537.079 Q32.7167 542.045 35.9632 544.718 Q39.1779 547.36 45.2253 547.36 L64.0042 547.36 L64.0042 553.248 L28.3562 553.248 L28.3562 547.36 L33.8944 547.36 Q30.6479 545.514 29.0883 542.554 Q27.4968 539.594 27.4968 535.361 Q27.4968 534.756 27.5923 534.024 Q27.656 533.292 27.8151 532.401 L33.8307 532.369 Z" fill="#000000" fill-rule="evenodd" fill-opacity="1" /><path clip-path="url(#clip720)" d="M35.1993 499.617 Q31.2526 497.421 29.3747 494.365 Q27.4968 491.31 27.4968 487.172 Q27.4968 481.602 31.4117 478.579 Q35.2948 475.555 42.4881 475.555 L64.0042 475.555 L64.0042 481.443 L42.679 481.443 Q37.5546 481.443 35.072 483.257 Q32.5894 485.072 32.5894 488.795 Q32.5894 493.347 35.6131 495.989 Q38.6368 498.63 43.8567 498.63 L64.0042 498.63 L64.0042 504.519 L42.679 504.519 Q37.5228 504.519 35.072 506.333 Q32.5894 508.147 32.5894 511.935 Q32.5894 516.423 35.6449 519.064 Q38.6686 521.706 43.8567 521.706 L64.0042 521.706 L64.0042 527.594 L28.3562 527.594 L28.3562 521.706 L33.8944 521.706 Q30.616 519.701 29.0564 516.9 Q27.4968 514.099 27.4968 510.248 Q27.4968 506.365 29.4702 503.659 Q31.4436 500.922 35.1993 499.617 Z" fill="#000000" fill-rule="evenodd" fill-opacity="1" /><path clip-path="url(#clip720)" d="M67.3143 449.042 Q73.68 451.524 75.6216 453.88 Q77.5631 456.235 77.5631 460.182 L77.5631 464.86 L72.6615 464.86 L72.6615 461.423 Q72.6615 459.004 71.5157 457.667 Q70.3699 456.33 66.1048 454.707 L63.4312 453.657 L28.3562 468.075 L28.3562 461.869 L56.238 450.729 L28.3562 439.589 L28.3562 433.382 L67.3143 449.042 Z" fill="#000000" fill-rule="evenodd" fill-opacity="1" /><circle clip-path="url(#clip722)" cx="366.963" cy="612.462" r="14.4" fill="#009af9" fill-rule="evenodd" fill-opacity="1" stroke="#000000" stroke-opacity="1" stroke-width="3.2"/>
<circle clip-path="url(#clip722)" cx="642.236" cy="839.158" r="14.4" fill="#009af9" fill-rule="evenodd" fill-opacity="1" stroke="#000000" stroke-opacity="1" stroke-width="3.2"/>
<circle clip-path="url(#clip722)" cx="917.509" cy="912.895" r="14.4" fill="#009af9" fill-rule="evenodd" fill-opacity="1" stroke="#000000" stroke-opacity="1" stroke-width="3.2"/>
<circle clip-path="url(#clip722)" cx="1192.78" cy="906.153" r="14.4" fill="#009af9" fill-rule="evenodd" fill-opacity="1" stroke="#000000" stroke-opacity="1" stroke-width="3.2"/>
<circle clip-path="url(#clip722)" cx="1468.06" cy="1152.54" r="14.4" fill="#009af9" fill-rule="evenodd" fill-opacity="1" stroke="#000000" stroke-opacity="1" stroke-width="3.2"/>
<circle clip-path="url(#clip722)" cx="1743.33" cy="1155.88" r="14.4" fill="#009af9" fill-rule="evenodd" fill-opacity="1" stroke="#000000" stroke-opacity="1" stroke-width="3.2"/>
<circle clip-path="url(#clip722)" cx="2018.6" cy="1338.06" r="14.4" fill="#009af9" fill-rule="evenodd" fill-opacity="1" stroke="#000000" stroke-opacity="1" stroke-width="3.2"/>
<circle clip-path="url(#clip722)" cx="2293.87" cy="950.315" r="14.4" fill="#009af9" fill-rule="evenodd" fill-opacity="1" stroke="#000000" stroke-opacity="1" stroke-width="3.2"/>
<polyline clip-path="url(#clip722)" style="stroke:#009af9; stroke-linecap:round; stroke-linejoin:round; stroke-width:4; stroke-opacity:1; fill:none" points="
  366.963,740.315 2293.87,1226.55 
  "/>
<circle clip-path="url(#clip722)" cx="331.177" cy="338.294" r="14.4" fill="#e26f46" fill-rule="evenodd" fill-opacity="1" stroke="#000000" stroke-opacity="1" stroke-width="3.2"/>
<circle clip-path="url(#clip722)" cx="570.608" cy="720.254" r="14.4" fill="#e26f46" fill-rule="evenodd" fill-opacity="1" stroke="#000000" stroke-opacity="1" stroke-width="3.2"/>
<circle clip-path="url(#clip722)" cx="810.039" cy="770.444" r="14.4" fill="#e26f46" fill-rule="evenodd" fill-opacity="1" stroke="#000000" stroke-opacity="1" stroke-width="3.2"/>
<circle clip-path="url(#clip722)" cx="1049.47" cy="954.828" r="14.4" fill="#e26f46" fill-rule="evenodd" fill-opacity="1" stroke="#000000" stroke-opacity="1" stroke-width="3.2"/>
<circle clip-path="url(#clip722)" cx="1288.9" cy="996.281" r="14.4" fill="#e26f46" fill-rule="evenodd" fill-opacity="1" stroke="#000000" stroke-opacity="1" stroke-width="3.2"/>
<circle clip-path="url(#clip722)" cx="1528.33" cy="1036.49" r="14.4" fill="#e26f46" fill-rule="evenodd" fill-opacity="1" stroke="#000000" stroke-opacity="1" stroke-width="3.2"/>
<circle clip-path="url(#clip722)" cx="1767.76" cy="84.8408" r="14.4" fill="#e26f46" fill-rule="evenodd" fill-opacity="1" stroke="#000000" stroke-opacity="1" stroke-width="3.2"/>
<circle clip-path="url(#clip722)" cx="2007.19" cy="655.079" r="14.4" fill="#e26f46" fill-rule="evenodd" fill-opacity="1" stroke="#000000" stroke-opacity="1" stroke-width="3.2"/>
<polyline clip-path="url(#clip722)" style="stroke:#e26f46; stroke-linecap:round; stroke-linejoin:round; stroke-width:4; stroke-opacity:1; fill:none" points="
  331.177,699.563 2007.19,689.564 
  "/>
<path clip-path="url(#clip720)" d="
M1241.96 247.045 L2283.41 247.045 L2283.41 91.5246 L1241.96 91.5246  Z
  " fill="#ffffff" fill-rule="evenodd" fill-opacity="1"/>
<polyline clip-path="url(#clip720)" style="stroke:#000000; stroke-linecap:round; stroke-linejoin:round; stroke-width:4; stroke-opacity:1; fill:none" points="
  1241.96,247.045 2283.41,247.045 2283.41,91.5246 1241.96,91.5246 1241.96,247.045 
  "/>
<circle clip-path="url(#clip720)" cx="1334.43" cy="143.365" r="23.04" fill="#009af9" fill-rule="evenodd" fill-opacity="1" stroke="#000000" stroke-opacity="1" stroke-width="5.12"/>
<path clip-path="url(#clip720)" d="M1431.57 144.14 L1431.57 156.802 L1439.07 156.802 Q1442.84 156.802 1444.65 155.251 Q1446.48 153.677 1446.48 150.459 Q1446.48 147.219 1444.65 145.691 Q1442.84 144.14 1439.07 144.14 L1431.57 144.14 M1431.57 129.927 L1431.57 140.344 L1438.49 140.344 Q1441.92 140.344 1443.58 139.071 Q1445.27 137.774 1445.27 135.135 Q1445.27 132.52 1443.58 131.223 Q1441.92 129.927 1438.49 129.927 L1431.57 129.927 M1426.89 126.085 L1438.84 126.085 Q1444.18 126.085 1447.08 128.307 Q1449.97 130.529 1449.97 134.626 Q1449.97 137.798 1448.49 139.673 Q1447.01 141.547 1444.14 142.01 Q1447.59 142.751 1449.49 145.112 Q1451.41 147.45 1451.41 150.969 Q1451.41 155.598 1448.26 158.121 Q1445.11 160.645 1439.3 160.645 L1426.89 160.645 L1426.89 126.085 Z" fill="#000000" fill-rule="evenodd" fill-opacity="1" /><path clip-path="url(#clip720)" d="M1474.25 138.7 Q1473.54 138.284 1472.68 138.098 Q1471.85 137.89 1470.83 137.89 Q1467.22 137.89 1465.27 140.251 Q1463.35 142.589 1463.35 146.987 L1463.35 160.645 L1459.07 160.645 L1459.07 134.719 L1463.35 134.719 L1463.35 138.747 Q1464.69 136.385 1466.85 135.251 Q1469 134.094 1472.08 134.094 Q1472.52 134.094 1473.05 134.163 Q1473.58 134.21 1474.23 134.325 L1474.25 138.7 Z" fill="#000000" fill-rule="evenodd" fill-opacity="1" /><path clip-path="url(#clip720)" d="M1490.5 147.612 Q1485.34 147.612 1483.35 148.793 Q1481.36 149.973 1481.36 152.821 Q1481.36 155.089 1482.84 156.432 Q1484.35 157.751 1486.92 157.751 Q1490.46 157.751 1492.59 155.251 Q1494.74 152.728 1494.74 148.561 L1494.74 147.612 L1490.5 147.612 M1499 145.853 L1499 160.645 L1494.74 160.645 L1494.74 156.709 Q1493.28 159.071 1491.11 160.205 Q1488.93 161.316 1485.78 161.316 Q1481.8 161.316 1479.44 159.094 Q1477.1 156.848 1477.1 153.098 Q1477.1 148.723 1480.02 146.501 Q1482.96 144.279 1488.77 144.279 L1494.74 144.279 L1494.74 143.862 Q1494.74 140.923 1492.8 139.325 Q1490.87 137.705 1487.38 137.705 Q1485.16 137.705 1483.05 138.237 Q1480.94 138.77 1479 139.835 L1479 135.899 Q1481.34 134.997 1483.54 134.557 Q1485.74 134.094 1487.82 134.094 Q1493.44 134.094 1496.22 137.01 Q1499 139.927 1499 145.853 Z" fill="#000000" fill-rule="evenodd" fill-opacity="1" /><path clip-path="url(#clip720)" d="M1507.61 124.626 L1511.89 124.626 L1511.89 145.899 L1524.6 134.719 L1530.04 134.719 L1516.29 146.848 L1530.62 160.645 L1525.06 160.645 L1511.89 147.983 L1511.89 160.645 L1507.61 160.645 L1507.61 124.626 Z" fill="#000000" fill-rule="evenodd" fill-opacity="1" /><path clip-path="url(#clip720)" d="M1568.91 147.705 Q1568.91 143.006 1566.96 140.344 Q1565.04 137.659 1561.66 137.659 Q1558.28 137.659 1556.34 140.344 Q1554.42 143.006 1554.42 147.705 Q1554.42 152.404 1556.34 155.089 Q1558.28 157.751 1561.66 157.751 Q1565.04 157.751 1566.96 155.089 Q1568.91 152.404 1568.91 147.705 M1554.42 138.654 Q1555.76 136.339 1557.79 135.228 Q1559.85 134.094 1562.7 134.094 Q1567.42 134.094 1570.36 137.844 Q1573.33 141.594 1573.33 147.705 Q1573.33 153.816 1570.36 157.566 Q1567.42 161.316 1562.7 161.316 Q1559.85 161.316 1557.79 160.205 Q1555.76 159.071 1554.42 156.756 L1554.42 160.645 L1550.13 160.645 L1550.13 124.626 L1554.42 124.626 L1554.42 138.654 Z" fill="#000000" fill-rule="evenodd" fill-opacity="1" /><path clip-path="url(#clip720)" d="M1592.17 147.612 Q1587.01 147.612 1585.02 148.793 Q1583.03 149.973 1583.03 152.821 Q1583.03 155.089 1584.51 156.432 Q1586.01 157.751 1588.58 157.751 Q1592.12 157.751 1594.25 155.251 Q1596.41 152.728 1596.41 148.561 L1596.41 147.612 L1592.17 147.612 M1600.66 145.853 L1600.66 160.645 L1596.41 160.645 L1596.41 156.709 Q1594.95 159.071 1592.77 160.205 Q1590.6 161.316 1587.45 161.316 Q1583.47 161.316 1581.1 159.094 Q1578.77 156.848 1578.77 153.098 Q1578.77 148.723 1581.68 146.501 Q1584.62 144.279 1590.43 144.279 L1596.41 144.279 L1596.41 143.862 Q1596.41 140.923 1594.46 139.325 Q1592.54 137.705 1589.04 137.705 Q1586.82 137.705 1584.72 138.237 Q1582.61 138.77 1580.67 139.835 L1580.67 135.899 Q1583 134.997 1585.2 134.557 Q1587.4 134.094 1589.48 134.094 Q1595.11 134.094 1597.89 137.01 Q1600.66 139.927 1600.66 145.853 Z" fill="#000000" fill-rule="evenodd" fill-opacity="1" /><path clip-path="url(#clip720)" d="M1626.5 138.654 L1626.5 124.626 L1630.76 124.626 L1630.76 160.645 L1626.5 160.645 L1626.5 156.756 Q1625.16 159.071 1623.1 160.205 Q1621.06 161.316 1618.19 161.316 Q1613.49 161.316 1610.53 157.566 Q1607.59 153.816 1607.59 147.705 Q1607.59 141.594 1610.53 137.844 Q1613.49 134.094 1618.19 134.094 Q1621.06 134.094 1623.1 135.228 Q1625.16 136.339 1626.5 138.654 M1611.98 147.705 Q1611.98 152.404 1613.91 155.089 Q1615.85 157.751 1619.23 157.751 Q1622.61 157.751 1624.55 155.089 Q1626.5 152.404 1626.5 147.705 Q1626.5 143.006 1624.55 140.344 Q1622.61 137.659 1619.23 137.659 Q1615.85 137.659 1613.91 140.344 Q1611.98 143.006 1611.98 147.705 Z" fill="#000000" fill-rule="evenodd" fill-opacity="1" /><path clip-path="url(#clip720)" d="M1651.31 147.612 Q1646.15 147.612 1644.16 148.793 Q1642.17 149.973 1642.17 152.821 Q1642.17 155.089 1643.65 156.432 Q1645.16 157.751 1647.72 157.751 Q1651.27 157.751 1653.4 155.251 Q1655.55 152.728 1655.55 148.561 L1655.55 147.612 L1651.31 147.612 M1659.81 145.853 L1659.81 160.645 L1655.55 160.645 L1655.55 156.709 Q1654.09 159.071 1651.91 160.205 Q1649.74 161.316 1646.59 161.316 Q1642.61 161.316 1640.25 159.094 Q1637.91 156.848 1637.91 153.098 Q1637.91 148.723 1640.83 146.501 Q1643.77 144.279 1649.58 144.279 L1655.55 144.279 L1655.55 143.862 Q1655.55 140.923 1653.6 139.325 Q1651.68 137.705 1648.19 137.705 Q1645.97 137.705 1643.86 138.237 Q1641.75 138.77 1639.81 139.835 L1639.81 135.899 Q1642.15 134.997 1644.35 134.557 Q1646.54 134.094 1648.63 134.094 Q1654.25 134.094 1657.03 137.01 Q1659.81 139.927 1659.81 145.853 Z" fill="#000000" fill-rule="evenodd" fill-opacity="1" /><path clip-path="url(#clip720)" d="M1680.71 122.566 L1685.32 122.566 L1677.77 131.27 L1674.23 131.27 L1680.71 122.566 M1690.13 144.997 L1690.13 160.645 L1685.87 160.645 L1685.87 145.135 Q1685.87 141.455 1684.44 139.626 Q1683 137.798 1680.13 137.798 Q1676.68 137.798 1674.69 139.997 Q1672.7 142.196 1672.7 145.992 L1672.7 160.645 L1668.42 160.645 L1668.42 134.719 L1672.7 134.719 L1672.7 138.747 Q1674.23 136.409 1676.29 135.251 Q1678.37 134.094 1681.08 134.094 Q1685.55 134.094 1687.84 136.872 Q1690.13 139.626 1690.13 144.997 Z" fill="#000000" fill-rule="evenodd" fill-opacity="1" /><path clip-path="url(#clip720)" d="M1713.53 124.626 L1717.82 124.626 L1717.82 145.899 L1730.53 134.719 L1735.97 134.719 L1722.22 146.848 L1736.54 160.645 L1730.99 160.645 L1717.82 147.983 L1717.82 160.645 L1713.53 160.645 L1713.53 124.626 Z" fill="#000000" fill-rule="evenodd" fill-opacity="1" /><path clip-path="url(#clip720)" d="M1749.51 137.705 Q1746.08 137.705 1744.09 140.39 Q1742.1 143.052 1742.1 147.705 Q1742.1 152.358 1744.07 155.043 Q1746.06 157.705 1749.51 157.705 Q1752.91 157.705 1754.9 155.02 Q1756.89 152.334 1756.89 147.705 Q1756.89 143.098 1754.9 140.413 Q1752.91 137.705 1749.51 137.705 M1749.51 134.094 Q1755.06 134.094 1758.23 137.705 Q1761.4 141.316 1761.4 147.705 Q1761.4 154.071 1758.23 157.705 Q1755.06 161.316 1749.51 161.316 Q1743.93 161.316 1740.76 157.705 Q1737.61 154.071 1737.61 147.705 Q1737.61 141.316 1740.76 137.705 Q1743.93 134.094 1749.51 134.094 Z" fill="#000000" fill-rule="evenodd" fill-opacity="1" /><path clip-path="url(#clip720)" d="M1790.02 144.997 L1790.02 160.645 L1785.76 160.645 L1785.76 145.135 Q1785.76 141.455 1784.32 139.626 Q1782.89 137.798 1780.02 137.798 Q1776.57 137.798 1774.58 139.997 Q1772.59 142.196 1772.59 145.992 L1772.59 160.645 L1768.3 160.645 L1768.3 134.719 L1772.59 134.719 L1772.59 138.747 Q1774.11 136.409 1776.17 135.251 Q1778.26 134.094 1780.96 134.094 Q1785.43 134.094 1787.72 136.872 Q1790.02 139.626 1790.02 144.997 Z" fill="#000000" fill-rule="evenodd" fill-opacity="1" /><path clip-path="url(#clip720)" d="M1815.04 135.483 L1815.04 139.51 Q1813.23 138.585 1811.29 138.122 Q1809.34 137.659 1807.26 137.659 Q1804.09 137.659 1802.49 138.631 Q1800.92 139.603 1800.92 141.547 Q1800.92 143.029 1802.05 143.885 Q1803.19 144.719 1806.61 145.483 L1808.07 145.807 Q1812.61 146.779 1814.51 148.561 Q1816.43 150.321 1816.43 153.492 Q1816.43 157.103 1813.56 159.209 Q1810.71 161.316 1805.71 161.316 Q1803.63 161.316 1801.36 160.899 Q1799.11 160.506 1796.61 159.696 L1796.61 155.297 Q1798.97 156.524 1801.27 157.149 Q1803.56 157.751 1805.8 157.751 Q1808.81 157.751 1810.43 156.733 Q1812.05 155.691 1812.05 153.816 Q1812.05 152.08 1810.87 151.154 Q1809.71 150.228 1805.76 149.372 L1804.27 149.024 Q1800.32 148.191 1798.56 146.478 Q1796.8 144.742 1796.8 141.733 Q1796.8 138.075 1799.39 136.085 Q1801.98 134.094 1806.75 134.094 Q1809.11 134.094 1811.2 134.441 Q1813.28 134.788 1815.04 135.483 Z" fill="#000000" fill-rule="evenodd" fill-opacity="1" /><path clip-path="url(#clip720)" d="M1822.77 150.413 L1822.77 134.719 L1827.03 134.719 L1827.03 150.251 Q1827.03 153.932 1828.46 155.784 Q1829.9 157.612 1832.77 157.612 Q1836.22 157.612 1838.21 155.413 Q1840.22 153.214 1840.22 149.418 L1840.22 134.719 L1844.48 134.719 L1844.48 160.645 L1840.22 160.645 L1840.22 156.663 Q1838.67 159.024 1836.61 160.182 Q1834.58 161.316 1831.87 161.316 Q1827.4 161.316 1825.09 158.538 Q1822.77 155.76 1822.77 150.413 M1833.49 134.094 L1833.49 134.094 Z" fill="#000000" fill-rule="evenodd" fill-opacity="1" /><path clip-path="url(#clip720)" d="M1873.44 139.696 Q1875.04 136.825 1877.26 135.46 Q1879.48 134.094 1882.49 134.094 Q1886.54 134.094 1888.74 136.941 Q1890.94 139.765 1890.94 144.997 L1890.94 160.645 L1886.66 160.645 L1886.66 145.135 Q1886.66 141.409 1885.34 139.603 Q1884.02 137.798 1881.31 137.798 Q1878 137.798 1876.08 139.997 Q1874.16 142.196 1874.16 145.992 L1874.16 160.645 L1869.88 160.645 L1869.88 145.135 Q1869.88 141.385 1868.56 139.603 Q1867.24 137.798 1864.48 137.798 Q1861.22 137.798 1859.3 140.02 Q1857.38 142.219 1857.38 145.992 L1857.38 160.645 L1853.09 160.645 L1853.09 134.719 L1857.38 134.719 L1857.38 138.747 Q1858.83 136.362 1860.87 135.228 Q1862.91 134.094 1865.71 134.094 Q1868.53 134.094 1870.5 135.529 Q1872.49 136.964 1873.44 139.696 Z" fill="#000000" fill-rule="evenodd" fill-opacity="1" /><path clip-path="url(#clip720)" d="M1921.61 146.617 L1921.61 148.7 L1902.03 148.7 Q1902.31 153.098 1904.67 155.413 Q1907.05 157.705 1911.29 157.705 Q1913.74 157.705 1916.03 157.103 Q1918.35 156.501 1920.62 155.297 L1920.62 159.325 Q1918.33 160.297 1915.92 160.807 Q1913.51 161.316 1911.03 161.316 Q1904.83 161.316 1901.2 157.705 Q1897.58 154.094 1897.58 147.936 Q1897.58 141.571 1901.01 137.844 Q1904.46 134.094 1910.29 134.094 Q1915.52 134.094 1918.56 137.473 Q1921.61 140.83 1921.61 146.617 M1917.35 145.367 Q1917.31 141.872 1915.39 139.788 Q1913.49 137.705 1910.34 137.705 Q1906.77 137.705 1904.62 139.719 Q1902.49 141.733 1902.17 145.39 L1917.35 145.367 Z" fill="#000000" fill-rule="evenodd" fill-opacity="1" /><path clip-path="url(#clip720)" d="M1950.15 144.997 L1950.15 160.645 L1945.89 160.645 L1945.89 145.135 Q1945.89 141.455 1944.46 139.626 Q1943.02 137.798 1940.15 137.798 Q1936.7 137.798 1934.71 139.997 Q1932.72 142.196 1932.72 145.992 L1932.72 160.645 L1928.44 160.645 L1928.44 134.719 L1932.72 134.719 L1932.72 138.747 Q1934.25 136.409 1936.31 135.251 Q1938.39 134.094 1941.1 134.094 Q1945.57 134.094 1947.86 136.872 Q1950.15 139.626 1950.15 144.997 Z" fill="#000000" fill-rule="evenodd" fill-opacity="1" /><path clip-path="url(#clip720)" d="M1962.86 127.358 L1962.86 134.719 L1971.64 134.719 L1971.64 138.029 L1962.86 138.029 L1962.86 152.103 Q1962.86 155.274 1963.72 156.177 Q1964.6 157.08 1967.26 157.08 L1971.64 157.08 L1971.64 160.645 L1967.26 160.645 Q1962.33 160.645 1960.45 158.816 Q1958.58 156.964 1958.58 152.103 L1958.58 138.029 L1955.45 138.029 L1955.45 134.719 L1958.58 134.719 L1958.58 127.358 L1962.86 127.358 Z" fill="#000000" fill-rule="evenodd" fill-opacity="1" /><path clip-path="url(#clip720)" d="M1987.28 137.705 Q1983.86 137.705 1981.87 140.39 Q1979.88 143.052 1979.88 147.705 Q1979.88 152.358 1981.84 155.043 Q1983.83 157.705 1987.28 157.705 Q1990.69 157.705 1992.68 155.02 Q1994.67 152.334 1994.67 147.705 Q1994.67 143.098 1992.68 140.413 Q1990.69 137.705 1987.28 137.705 M1987.28 134.094 Q1992.84 134.094 1996.01 137.705 Q1999.18 141.316 1999.18 147.705 Q1999.18 154.071 1996.01 157.705 Q1992.84 161.316 1987.28 161.316 Q1981.7 161.316 1978.53 157.705 Q1975.39 154.071 1975.39 147.705 Q1975.39 141.316 1978.53 137.705 Q1981.7 134.094 1987.28 134.094 M1990.5 122.728 L1995.11 122.728 L1987.56 131.432 L1984.02 131.432 L1990.5 122.728 Z" fill="#000000" fill-rule="evenodd" fill-opacity="1" /><path clip-path="url(#clip720)" d="M2003.76 134.719 L2008.02 134.719 L2013.35 154.95 L2018.65 134.719 L2023.67 134.719 L2029 154.95 L2034.3 134.719 L2038.56 134.719 L2031.77 160.645 L2026.75 160.645 L2021.17 139.395 L2015.57 160.645 L2010.55 160.645 L2003.76 134.719 Z" fill="#000000" fill-rule="evenodd" fill-opacity="1" /><circle clip-path="url(#clip720)" cx="1334.43" cy="195.205" r="23.04" fill="#e26f46" fill-rule="evenodd" fill-opacity="1" stroke="#000000" stroke-opacity="1" stroke-width="5.12"/>
<path clip-path="url(#clip720)" d="M1426.89 177.925 L1431.61 177.925 L1438.88 207.137 L1446.13 177.925 L1451.38 177.925 L1458.65 207.137 L1465.9 177.925 L1470.64 177.925 L1461.96 212.485 L1456.08 212.485 L1448.79 182.485 L1441.43 212.485 L1435.55 212.485 L1426.89 177.925 Z" fill="#000000" fill-rule="evenodd" fill-opacity="1" /><path clip-path="url(#clip720)" d="M1486.61 214.892 Q1484.81 219.522 1483.1 220.934 Q1481.38 222.346 1478.51 222.346 L1475.11 222.346 L1475.11 218.781 L1477.61 218.781 Q1479.37 218.781 1480.34 217.948 Q1481.31 217.114 1482.49 214.012 L1483.26 212.068 L1472.77 186.559 L1477.29 186.559 L1485.39 206.837 L1493.49 186.559 L1498 186.559 L1486.61 214.892 Z" fill="#000000" fill-rule="evenodd" fill-opacity="1" /><path clip-path="url(#clip720)" d="M1503.72 176.466 L1508 176.466 L1508 197.739 L1520.71 186.559 L1526.15 186.559 L1512.4 198.688 L1526.73 212.485 L1521.17 212.485 L1508 199.823 L1508 212.485 L1503.72 212.485 L1503.72 176.466 Z" fill="#000000" fill-rule="evenodd" fill-opacity="1" /><path clip-path="url(#clip720)" d="M1539.69 189.545 Q1536.27 189.545 1534.28 192.23 Q1532.29 194.892 1532.29 199.545 Q1532.29 204.198 1534.25 206.883 Q1536.24 209.545 1539.69 209.545 Q1543.1 209.545 1545.09 206.86 Q1547.08 204.174 1547.08 199.545 Q1547.08 194.938 1545.09 192.253 Q1543.1 189.545 1539.69 189.545 M1539.69 185.934 Q1545.25 185.934 1548.42 189.545 Q1551.59 193.156 1551.59 199.545 Q1551.59 205.911 1548.42 209.545 Q1545.25 213.156 1539.69 213.156 Q1534.11 213.156 1530.94 209.545 Q1527.79 205.911 1527.79 199.545 Q1527.79 193.156 1530.94 189.545 Q1534.11 185.934 1539.69 185.934 Z" fill="#000000" fill-rule="evenodd" fill-opacity="1" /><path clip-path="url(#clip720)" d="M1580.2 196.837 L1580.2 212.485 L1575.94 212.485 L1575.94 196.975 Q1575.94 193.295 1574.51 191.466 Q1573.07 189.638 1570.2 189.638 Q1566.75 189.638 1564.76 191.837 Q1562.77 194.036 1562.77 197.832 L1562.77 212.485 L1558.49 212.485 L1558.49 186.559 L1562.77 186.559 L1562.77 190.587 Q1564.3 188.249 1566.36 187.091 Q1568.44 185.934 1571.15 185.934 Q1575.62 185.934 1577.91 188.712 Q1580.2 191.466 1580.2 196.837 Z" fill="#000000" fill-rule="evenodd" fill-opacity="1" /><path clip-path="url(#clip720)" d="M1599.48 214.892 Q1597.68 219.522 1595.97 220.934 Q1594.25 222.346 1591.38 222.346 L1587.98 222.346 L1587.98 218.781 L1590.48 218.781 Q1592.24 218.781 1593.21 217.948 Q1594.18 217.114 1595.36 214.012 L1596.13 212.068 L1585.64 186.559 L1590.16 186.559 L1598.26 206.837 L1606.36 186.559 L1610.87 186.559 L1599.48 214.892 Z" fill="#000000" fill-rule="evenodd" fill-opacity="1" /><path clip-path="url(#clip720)" d="M1614.28 186.559 L1618.54 186.559 L1623.86 206.79 L1629.16 186.559 L1634.18 186.559 L1639.51 206.79 L1644.81 186.559 L1649.07 186.559 L1642.29 212.485 L1637.26 212.485 L1631.68 191.235 L1626.08 212.485 L1621.06 212.485 L1614.28 186.559 Z" fill="#000000" fill-rule="evenodd" fill-opacity="1" /><path clip-path="url(#clip720)" d="M1667.31 199.452 Q1662.15 199.452 1660.16 200.633 Q1658.16 201.813 1658.16 204.661 Q1658.16 206.929 1659.65 208.272 Q1661.15 209.591 1663.72 209.591 Q1667.26 209.591 1669.39 207.091 Q1671.54 204.568 1671.54 200.401 L1671.54 199.452 L1667.31 199.452 M1675.8 197.693 L1675.8 212.485 L1671.54 212.485 L1671.54 208.549 Q1670.09 210.911 1667.91 212.045 Q1665.73 213.156 1662.59 213.156 Q1658.6 213.156 1656.24 210.934 Q1653.91 208.688 1653.91 204.938 Q1653.91 200.563 1656.82 198.341 Q1659.76 196.119 1665.57 196.119 L1671.54 196.119 L1671.54 195.702 Q1671.54 192.763 1669.6 191.165 Q1667.68 189.545 1664.18 189.545 Q1661.96 189.545 1659.85 190.077 Q1657.75 190.61 1655.8 191.675 L1655.8 187.739 Q1658.14 186.837 1660.34 186.397 Q1662.54 185.934 1664.62 185.934 Q1670.25 185.934 1673.03 188.85 Q1675.8 191.767 1675.8 197.693 Z" fill="#000000" fill-rule="evenodd" fill-opacity="1" /><path clip-path="url(#clip720)" d="M1706.13 196.837 L1706.13 212.485 L1701.87 212.485 L1701.87 196.975 Q1701.87 193.295 1700.43 191.466 Q1699 189.638 1696.13 189.638 Q1692.68 189.638 1690.69 191.837 Q1688.7 194.036 1688.7 197.832 L1688.7 212.485 L1684.41 212.485 L1684.41 186.559 L1688.7 186.559 L1688.7 190.587 Q1690.22 188.249 1692.28 187.091 Q1694.37 185.934 1697.08 185.934 Q1701.54 185.934 1703.84 188.712 Q1706.13 191.466 1706.13 196.837 Z" fill="#000000" fill-rule="evenodd" fill-opacity="1" /><path clip-path="url(#clip720)" d="M1714.62 186.559 L1718.88 186.559 L1718.88 212.485 L1714.62 212.485 L1714.62 186.559 M1714.62 176.466 L1718.88 176.466 L1718.88 181.86 L1714.62 181.86 L1714.62 176.466 Z" fill="#000000" fill-rule="evenodd" fill-opacity="1" /><path clip-path="url(#clip720)" d="M1749.97 198.457 L1749.97 200.54 L1730.39 200.54 Q1730.66 204.938 1733.03 207.253 Q1735.41 209.545 1739.65 209.545 Q1742.1 209.545 1744.39 208.943 Q1746.71 208.341 1748.97 207.137 L1748.97 211.165 Q1746.68 212.137 1744.28 212.647 Q1741.87 213.156 1739.39 213.156 Q1733.19 213.156 1729.55 209.545 Q1725.94 205.934 1725.94 199.776 Q1725.94 193.411 1729.37 189.684 Q1732.82 185.934 1738.65 185.934 Q1743.88 185.934 1746.91 189.313 Q1749.97 192.67 1749.97 198.457 M1745.71 197.207 Q1745.66 193.712 1743.74 191.628 Q1741.84 189.545 1738.7 189.545 Q1735.13 189.545 1732.98 191.559 Q1730.85 193.573 1730.53 197.23 L1745.71 197.207 Z" fill="#000000" fill-rule="evenodd" fill-opacity="1" /><path clip-path="url(#clip720)" d="M1790.64 199.545 Q1790.64 194.846 1788.7 192.184 Q1786.78 189.499 1783.4 189.499 Q1780.02 189.499 1778.07 192.184 Q1776.15 194.846 1776.15 199.545 Q1776.15 204.244 1778.07 206.929 Q1780.02 209.591 1783.4 209.591 Q1786.78 209.591 1788.7 206.929 Q1790.64 204.244 1790.64 199.545 M1776.15 190.494 Q1777.49 188.179 1779.53 187.068 Q1781.59 185.934 1784.44 185.934 Q1789.16 185.934 1792.1 189.684 Q1795.06 193.434 1795.06 199.545 Q1795.06 205.656 1792.1 209.406 Q1789.16 213.156 1784.44 213.156 Q1781.59 213.156 1779.53 212.045 Q1777.49 210.911 1776.15 208.596 L1776.15 212.485 L1771.87 212.485 L1771.87 176.466 L1776.15 176.466 L1776.15 190.494 Z" fill="#000000" fill-rule="evenodd" fill-opacity="1" /><path clip-path="url(#clip720)" d="M1813.9 199.452 Q1808.74 199.452 1806.75 200.633 Q1804.76 201.813 1804.76 204.661 Q1804.76 206.929 1806.24 208.272 Q1807.75 209.591 1810.32 209.591 Q1813.86 209.591 1815.99 207.091 Q1818.14 204.568 1818.14 200.401 L1818.14 199.452 L1813.9 199.452 M1822.4 197.693 L1822.4 212.485 L1818.14 212.485 L1818.14 208.549 Q1816.68 210.911 1814.51 212.045 Q1812.33 213.156 1809.18 213.156 Q1805.2 213.156 1802.84 210.934 Q1800.5 208.688 1800.5 204.938 Q1800.5 200.563 1803.42 198.341 Q1806.36 196.119 1812.17 196.119 L1818.14 196.119 L1818.14 195.702 Q1818.14 192.763 1816.2 191.165 Q1814.27 189.545 1810.78 189.545 Q1808.56 189.545 1806.45 190.077 Q1804.34 190.61 1802.4 191.675 L1802.4 187.739 Q1804.74 186.837 1806.94 186.397 Q1809.14 185.934 1811.22 185.934 Q1816.84 185.934 1819.62 188.85 Q1822.4 191.767 1822.4 197.693 Z" fill="#000000" fill-rule="evenodd" fill-opacity="1" /><path clip-path="url(#clip720)" d="M1848.23 190.494 L1848.23 176.466 L1852.49 176.466 L1852.49 212.485 L1848.23 212.485 L1848.23 208.596 Q1846.89 210.911 1844.83 212.045 Q1842.79 213.156 1839.92 213.156 Q1835.22 213.156 1832.26 209.406 Q1829.32 205.656 1829.32 199.545 Q1829.32 193.434 1832.26 189.684 Q1835.22 185.934 1839.92 185.934 Q1842.79 185.934 1844.83 187.068 Q1846.89 188.179 1848.23 190.494 M1833.72 199.545 Q1833.72 204.244 1835.64 206.929 Q1837.58 209.591 1840.96 209.591 Q1844.34 209.591 1846.29 206.929 Q1848.23 204.244 1848.23 199.545 Q1848.23 194.846 1846.29 192.184 Q1844.34 189.499 1840.96 189.499 Q1837.58 189.499 1835.64 192.184 Q1833.72 194.846 1833.72 199.545 Z" fill="#000000" fill-rule="evenodd" fill-opacity="1" /><path clip-path="url(#clip720)" d="M1873.05 199.452 Q1867.89 199.452 1865.9 200.633 Q1863.9 201.813 1863.9 204.661 Q1863.9 206.929 1865.39 208.272 Q1866.89 209.591 1869.46 209.591 Q1873 209.591 1875.13 207.091 Q1877.28 204.568 1877.28 200.401 L1877.28 199.452 L1873.05 199.452 M1881.54 197.693 L1881.54 212.485 L1877.28 212.485 L1877.28 208.549 Q1875.83 210.911 1873.65 212.045 Q1871.47 213.156 1868.33 213.156 Q1864.34 213.156 1861.98 210.934 Q1859.65 208.688 1859.65 204.938 Q1859.65 200.563 1862.56 198.341 Q1865.5 196.119 1871.31 196.119 L1877.28 196.119 L1877.28 195.702 Q1877.28 192.763 1875.34 191.165 Q1873.42 189.545 1869.92 189.545 Q1867.7 189.545 1865.59 190.077 Q1863.49 190.61 1861.54 191.675 L1861.54 187.739 Q1863.88 186.837 1866.08 186.397 Q1868.28 185.934 1870.36 185.934 Q1875.99 185.934 1878.77 188.85 Q1881.54 191.767 1881.54 197.693 Z" fill="#000000" fill-rule="evenodd" fill-opacity="1" /><path clip-path="url(#clip720)" d="M1902.45 174.406 L1907.05 174.406 L1899.51 183.11 L1895.96 183.11 L1902.45 174.406 M1911.87 196.837 L1911.87 212.485 L1907.61 212.485 L1907.61 196.975 Q1907.61 193.295 1906.17 191.466 Q1904.74 189.638 1901.87 189.638 Q1898.42 189.638 1896.43 191.837 Q1894.44 194.036 1894.44 197.832 L1894.44 212.485 L1890.15 212.485 L1890.15 186.559 L1894.44 186.559 L1894.44 190.587 Q1895.96 188.249 1898.02 187.091 Q1900.11 185.934 1902.82 185.934 Q1907.28 185.934 1909.58 188.712 Q1911.87 191.466 1911.87 196.837 Z" fill="#000000" fill-rule="evenodd" fill-opacity="1" /><path clip-path="url(#clip720)" d="M1935.27 176.466 L1939.55 176.466 L1939.55 197.739 L1952.26 186.559 L1957.7 186.559 L1943.95 198.688 L1958.28 212.485 L1952.72 212.485 L1939.55 199.823 L1939.55 212.485 L1935.27 212.485 L1935.27 176.466 Z" fill="#000000" fill-rule="evenodd" fill-opacity="1" /><path clip-path="url(#clip720)" d="M1971.24 189.545 Q1967.82 189.545 1965.83 192.23 Q1963.83 194.892 1963.83 199.545 Q1963.83 204.198 1965.8 206.883 Q1967.79 209.545 1971.24 209.545 Q1974.64 209.545 1976.64 206.86 Q1978.63 204.174 1978.63 199.545 Q1978.63 194.938 1976.64 192.253 Q1974.64 189.545 1971.24 189.545 M1971.24 185.934 Q1976.8 185.934 1979.97 189.545 Q1983.14 193.156 1983.14 199.545 Q1983.14 205.911 1979.97 209.545 Q1976.8 213.156 1971.24 213.156 Q1965.66 213.156 1962.49 209.545 Q1959.34 205.911 1959.34 199.545 Q1959.34 193.156 1962.49 189.545 Q1965.66 185.934 1971.24 185.934 Z" fill="#000000" fill-rule="evenodd" fill-opacity="1" /><path clip-path="url(#clip720)" d="M2011.75 196.837 L2011.75 212.485 L2007.49 212.485 L2007.49 196.975 Q2007.49 193.295 2006.06 191.466 Q2004.62 189.638 2001.75 189.638 Q1998.3 189.638 1996.31 191.837 Q1994.32 194.036 1994.32 197.832 L1994.32 212.485 L1990.04 212.485 L1990.04 186.559 L1994.32 186.559 L1994.32 190.587 Q1995.85 188.249 1997.91 187.091 Q1999.99 185.934 2002.7 185.934 Q2007.17 185.934 2009.46 188.712 Q2011.75 191.466 2011.75 196.837 Z" fill="#000000" fill-rule="evenodd" fill-opacity="1" /><path clip-path="url(#clip720)" d="M2036.77 187.323 L2036.77 191.35 Q2034.97 190.425 2033.02 189.962 Q2031.08 189.499 2029 189.499 Q2025.82 189.499 2024.23 190.471 Q2022.65 191.443 2022.65 193.387 Q2022.65 194.869 2023.79 195.725 Q2024.92 196.559 2028.35 197.323 L2029.81 197.647 Q2034.34 198.619 2036.24 200.401 Q2038.16 202.161 2038.16 205.332 Q2038.16 208.943 2035.29 211.049 Q2032.45 213.156 2027.45 213.156 Q2025.36 213.156 2023.09 212.739 Q2020.85 212.346 2018.35 211.536 L2018.35 207.137 Q2020.71 208.364 2023 208.989 Q2025.29 209.591 2027.54 209.591 Q2030.55 209.591 2032.17 208.573 Q2033.79 207.531 2033.79 205.656 Q2033.79 203.92 2032.61 202.994 Q2031.45 202.068 2027.49 201.212 L2026.01 200.864 Q2022.05 200.031 2020.29 198.318 Q2018.53 196.582 2018.53 193.573 Q2018.53 189.915 2021.13 187.925 Q2023.72 185.934 2028.49 185.934 Q2030.85 185.934 2032.93 186.281 Q2035.01 186.628 2036.77 187.323 Z" fill="#000000" fill-rule="evenodd" fill-opacity="1" /><path clip-path="url(#clip720)" d="M2044.51 202.253 L2044.51 186.559 L2048.76 186.559 L2048.76 202.091 Q2048.76 205.772 2050.2 207.624 Q2051.63 209.452 2054.51 209.452 Q2057.95 209.452 2059.94 207.253 Q2061.96 205.054 2061.96 201.258 L2061.96 186.559 L2066.22 186.559 L2066.22 212.485 L2061.96 212.485 L2061.96 208.503 Q2060.41 210.864 2058.35 212.022 Q2056.31 213.156 2053.6 213.156 Q2049.13 213.156 2046.82 210.378 Q2044.51 207.6 2044.51 202.253 M2055.22 185.934 L2055.22 185.934 Z" fill="#000000" fill-rule="evenodd" fill-opacity="1" /><path clip-path="url(#clip720)" d="M2095.18 191.536 Q2096.77 188.665 2099 187.3 Q2101.22 185.934 2104.23 185.934 Q2108.28 185.934 2110.48 188.781 Q2112.68 191.605 2112.68 196.837 L2112.68 212.485 L2108.39 212.485 L2108.39 196.975 Q2108.39 193.249 2107.07 191.443 Q2105.75 189.638 2103.05 189.638 Q2099.74 189.638 2097.82 191.837 Q2095.89 194.036 2095.89 197.832 L2095.89 212.485 L2091.61 212.485 L2091.61 196.975 Q2091.61 193.225 2090.29 191.443 Q2088.97 189.638 2086.22 189.638 Q2082.95 189.638 2081.03 191.86 Q2079.11 194.059 2079.11 197.832 L2079.11 212.485 L2074.83 212.485 L2074.83 186.559 L2079.11 186.559 L2079.11 190.587 Q2080.57 188.202 2082.61 187.068 Q2084.64 185.934 2087.44 185.934 Q2090.27 185.934 2092.24 187.369 Q2094.23 188.804 2095.18 191.536 Z" fill="#000000" fill-rule="evenodd" fill-opacity="1" /><path clip-path="url(#clip720)" d="M2143.35 198.457 L2143.35 200.54 L2123.76 200.54 Q2124.04 204.938 2126.4 207.253 Q2128.79 209.545 2133.02 209.545 Q2135.48 209.545 2137.77 208.943 Q2140.08 208.341 2142.35 207.137 L2142.35 211.165 Q2140.06 212.137 2137.65 212.647 Q2135.25 213.156 2132.77 213.156 Q2126.56 213.156 2122.93 209.545 Q2119.32 205.934 2119.32 199.776 Q2119.32 193.411 2122.75 189.684 Q2126.19 185.934 2132.03 185.934 Q2137.26 185.934 2140.29 189.313 Q2143.35 192.67 2143.35 198.457 M2139.09 197.207 Q2139.04 193.712 2137.12 191.628 Q2135.22 189.545 2132.07 189.545 Q2128.51 189.545 2126.36 191.559 Q2124.23 193.573 2123.9 197.23 L2139.09 197.207 Z" fill="#000000" fill-rule="evenodd" fill-opacity="1" /><path clip-path="url(#clip720)" d="M2171.89 196.837 L2171.89 212.485 L2167.63 212.485 L2167.63 196.975 Q2167.63 193.295 2166.19 191.466 Q2164.76 189.638 2161.89 189.638 Q2158.44 189.638 2156.45 191.837 Q2154.46 194.036 2154.46 197.832 L2154.46 212.485 L2150.18 212.485 L2150.18 186.559 L2154.46 186.559 L2154.46 190.587 Q2155.99 188.249 2158.05 187.091 Q2160.13 185.934 2162.84 185.934 Q2167.31 185.934 2169.6 188.712 Q2171.89 191.466 2171.89 196.837 Z" fill="#000000" fill-rule="evenodd" fill-opacity="1" /><path clip-path="url(#clip720)" d="M2184.6 179.198 L2184.6 186.559 L2193.37 186.559 L2193.37 189.869 L2184.6 189.869 L2184.6 203.943 Q2184.6 207.114 2185.45 208.017 Q2186.33 208.92 2189 208.92 L2193.37 208.92 L2193.37 212.485 L2189 212.485 Q2184.06 212.485 2182.19 210.656 Q2180.31 208.804 2180.31 203.943 L2180.31 189.869 L2177.19 189.869 L2177.19 186.559 L2180.31 186.559 L2180.31 179.198 L2184.6 179.198 Z" fill="#000000" fill-rule="evenodd" fill-opacity="1" /><path clip-path="url(#clip720)" d="M2209.02 189.545 Q2205.59 189.545 2203.6 192.23 Q2201.61 194.892 2201.61 199.545 Q2201.61 204.198 2203.58 206.883 Q2205.57 209.545 2209.02 209.545 Q2212.42 209.545 2214.41 206.86 Q2216.4 204.174 2216.4 199.545 Q2216.4 194.938 2214.41 192.253 Q2212.42 189.545 2209.02 189.545 M2209.02 185.934 Q2214.57 185.934 2217.74 189.545 Q2220.92 193.156 2220.92 199.545 Q2220.92 205.911 2217.74 209.545 Q2214.57 213.156 2209.02 213.156 Q2203.44 213.156 2200.27 209.545 Q2197.12 205.911 2197.12 199.545 Q2197.12 193.156 2200.27 189.545 Q2203.44 185.934 2209.02 185.934 M2212.24 174.568 L2216.84 174.568 L2209.3 183.272 L2205.75 183.272 L2212.24 174.568 Z" fill="#000000" fill-rule="evenodd" fill-opacity="1" /><path clip-path="url(#clip720)" d="M2225.5 186.559 L2229.76 186.559 L2235.08 206.79 L2240.38 186.559 L2245.41 186.559 L2250.73 206.79 L2256.03 186.559 L2260.29 186.559 L2253.51 212.485 L2248.49 212.485 L2242.91 191.235 L2237.31 212.485 L2232.28 212.485 L2225.5 186.559 Z" fill="#000000" fill-rule="evenodd" fill-opacity="1" /></svg>
