<svg class="main-svg" xmlns="http://www.w3.org/2000/svg" xmlns:xlink="http://www.w3.org/1999/xlink" width="700" height="500" style="" viewBox="0 0 700 500"><rect x="0" y="0" width="700" height="500" style="fill: rgb(255, 255, 255); fill-opacity: 1;"/><defs id="defs-e40c89"><g class="clips"><clipPath id="clipe40c89xyplot" class="plotclip"><rect width="539" height="387"/></clipPath><clipPath class="axesclip" id="clipe40c89x"><rect x="57" y="0" width="539" height="500"/></clipPath><clipPath class="axesclip" id="clipe40c89y"><rect x="0" y="60" width="700" height="387"/></clipPath><clipPath class="axesclip" id="clipe40c89xy"><rect x="57" y="60" width="539" height="387"/></clipPath><clipPath class="contourclip" id="clipf728db"><path d="M0,0L539,0L539,387L0,387Z"/></clipPath></g><g class="gradients"/></defs><g class="bglayer"><rect class="bg" x="57" y="60" width="539" height="387" style="fill: rgb(229, 236, 246); fill-opacity: 1; stroke-width: 0;"/></g><g class="layer-below"><g class="imagelayer"/><g class="shapelayer"/></g><g class="cartesianlayer"><g class="subplot xy"><g class="layer-subplot"><g class="shapelayer"/><g class="imagelayer"/></g><g class="gridlayer"><g class="x"><path class="xgrid crisp" transform="translate(78.59,0)" d="M0,60v387" style="stroke: rgb(255, 255, 255); stroke-opacity: 1; stroke-width: 1px;"/><path class="xgrid crisp" transform="translate(207.97,0)" d="M0,60v387" style="stroke: rgb(255, 255, 255); stroke-opacity: 1; stroke-width: 1px;"/><path class="xgrid crisp" transform="translate(337.36,0)" d="M0,60v387" style="stroke: rgb(255, 255, 255); stroke-opacity: 1; stroke-width: 1px;"/><path class="xgrid crisp" transform="translate(466.75,0)" d="M0,60v387" style="stroke: rgb(255, 255, 255); stroke-opacity: 1; stroke-width: 1px;"/></g><g class="y"><path class="ygrid crisp" transform="translate(0,431.49)" d="M57,0h539" style="stroke: rgb(255, 255, 255); stroke-opacity: 1; stroke-width: 1px;"/><path class="ygrid crisp" transform="translate(0,385.04)" d="M57,0h539" style="stroke: rgb(255, 255, 255); stroke-opacity: 1; stroke-width: 1px;"/><path class="ygrid crisp" transform="translate(0,338.59)" d="M57,0h539" style="stroke: rgb(255, 255, 255); stroke-opacity: 1; stroke-width: 1px;"/><path class="ygrid crisp" transform="translate(0,292.14)" d="M57,0h539" style="stroke: rgb(255, 255, 255); stroke-opacity: 1; stroke-width: 1px;"/><path class="ygrid crisp" transform="translate(0,245.68)" d="M57,0h539" style="stroke: rgb(255, 255, 255); stroke-opacity: 1; stroke-width: 1px;"/><path class="ygrid crisp" transform="translate(0,199.23)" d="M57,0h539" style="stroke: rgb(255, 255, 255); stroke-opacity: 1; stroke-width: 1px;"/><path class="ygrid crisp" transform="translate(0,152.78)" d="M57,0h539" style="stroke: rgb(255, 255, 255); stroke-opacity: 1; stroke-width: 1px;"/><path class="ygrid crisp" transform="translate(0,106.33)" d="M57,0h539" style="stroke: rgb(255, 255, 255); stroke-opacity: 1; stroke-width: 1px;"/></g></g><g class="zerolinelayer"/><path class="xlines-below"/><path class="ylines-below"/><g class="overlines-below"/><g class="xaxislayer-below"/><g class="yaxislayer-below"/><g class="overaxes-below"/><g class="plot" transform="translate(57,60)" clip-path="url('#clipe40c89xyplot')"><g class="contourlayer mlayer"><g class="contour" clip-path="url('#clipf728db')" style="opacity: 1;"><g class="heatmapcoloring"/><g class="contourbg"><path d="M0,0L539,0L539,387L0,387Z" style="stroke: none; fill: rgb(0, 0, 0);"/></g><g class="contourfill"><path d="M0,0L539,0L539,387L0,387Z" style="stroke: none; fill: rgb(22, 0, 74);"/><path d="M539,362.96L499.4,387L0,387L0,0L539,0Z" style="stroke: none; fill: rgb(56, 0, 100);"/><path d="M539,336.33L455.54,387L0,387L0,0L539,0Z" style="stroke: none; fill: rgb(96, 0, 100);"/><path d="M539,309.7Q538.5,309.7 538.46,309.6Q538.4,309.46 539,308.82ZM539,57.47Q450.02,58.7 431.2,66.02C423.42,69.05 416.81,73.32 416.63,77.4C416.44,81.63 424.9,84.64 431.2,91.02C444.31,104.3 479.04,130.48 489.31,154.8C499.04,177.85 504.46,213.93 493.96,232.2C483.96,249.6 454.26,252.46 431.2,263.9C403.12,277.84 354.49,298.05 337.45,309.6C330.18,314.53 328.49,315.85 323.4,322.37Q313.4,335.18 288.7,387L0,387L0,0L539,0Z" style="stroke: none; fill: rgb(129, 20, 78);"/><path d="M293.58,0Q313.34,23.4 323.4,35.87C334.1,49.13 342.02,62.16 355.93,77.4C375.82,99.18 428.26,133.16 434.40999999999997,151.275C437.06,159.09 436.57,165.73 431.2,171.08C418.67,183.56 346.29,173.29 323.4,188.1C307.49,198.39 302.91,214.8 294.57,232.2C284.2,253.83 279.98,284.23 269.35,309.6Q258.35,335.86 229.22,387L0,387L0,0ZM539,29.82Q459.87,25.36 431.2,18.59Q411.18,13.87 381.76,0L539,0Z" style="stroke: none; fill: rgb(151, 70, 22);"/><path d="M229.15,0Q261.04,61.93 254.18,77.4C249.23,88.56 227.02,84.73 215.6,94.76C200.86,107.71 178.27,135.25 178.59,154.8C178.9,173.86 204.57,196.75 215.6,210.68C222.92,219.92 233.79,222.5 235.83,232.2C238.76,246.12 231.01,276.65 215.6,289.56C194.67,307.1 121.23,287.96 104.87,307.815Q91.13,324.49 107.16,387L0,387L0,0ZM539,2.17L526.66,0L539,0Z" style="stroke: none; fill: rgb(183, 127, 0);"/><path d="M0,252.49Q7.68,289.11 11.91,309.6Q16.83,333.44 27.71,387L0,387ZM185.09,0Q165,51.4 156.98,77.4C149.08,103.01 139.11,128.83 137.19,154.8C135.3,180.43 153.83,216.29 145.17,232.2C138.81,243.88 123.96,249.12 107.8,251.25Q81.6,254.71 0,228.39L0,0Z" style="stroke: none; fill: rgb(222, 188, 0);"/><path d="M0,27.26L31.66,0L146.44,0Q122,42.86 107.8,56.16C96.72,66.54 85.45,67.28 72.14,77.4Q51.51,93.09 0,146.41Z" style="stroke: none; fill: rgb(241, 222, 98);"/></g><g class="contourlines"><g class="contourlevel"/><g class="contourlevel"><path class="openline" d="M539,362.96L499.4,387" style="stroke-miterlimit: 1; vector-effect: non-scaling-stroke; fill: none; stroke: rgb(0, 0, 0); stroke-opacity: 1; stroke-width: 0.5px;"/></g><g class="contourlevel"><path class="openline" d="M539,336.33L455.54,387" style="stroke-miterlimit: 1; vector-effect: non-scaling-stroke; fill: none; stroke: rgb(0, 0, 0); stroke-opacity: 1; stroke-width: 0.5px;"/></g><g class="contourlevel"><path class="openline" d="M539,309.7Q538.5,309.7 538.46,309.6Q538.4,309.46 539,308.82" style="stroke-miterlimit: 1; vector-effect: non-scaling-stroke; fill: none; stroke: rgb(0, 0, 0); stroke-opacity: 1; stroke-width: 0.5px;"/><path class="openline" d="M539,57.47Q450.02,58.7 431.2,66.02C423.42,69.05 416.81,73.32 416.63,77.4C416.44,81.63 424.9,84.64 431.2,91.02C444.31,104.3 479.04,130.48 489.31,154.8C499.04,177.85 504.46,213.93 493.96,232.2C483.96,249.6 454.26,252.46 431.2,263.9C403.12,277.84 354.49,298.05 337.45,309.6C330.18,314.53 328.49,315.85 323.4,322.37Q313.4,335.18 288.7,387" style="stroke-miterlimit: 1; vector-effect: non-scaling-stroke; fill: none; stroke: rgb(0, 0, 0); stroke-opacity: 1; stroke-width: 0.5px;"/></g><g class="contourlevel"><path class="openline" d="M293.58,0Q313.34,23.4 323.4,35.87C334.1,49.13 342.02,62.16 355.93,77.4C375.82,99.18 428.26,133.16 434.40999999999997,151.275C437.06,159.09 436.57,165.73 431.2,171.08C418.67,183.56 346.29,173.29 323.4,188.1C307.49,198.39 302.91,214.8 294.57,232.2C284.2,253.83 279.98,284.23 269.35,309.6Q258.35,335.86 229.22,387" style="stroke-miterlimit: 1; vector-effect: non-scaling-stroke; fill: none; stroke: rgb(0, 0, 0); stroke-opacity: 1; stroke-width: 0.5px;"/><path class="openline" d="M539,29.82Q459.87,25.36 431.2,18.59Q411.18,13.87 381.76,0" style="stroke-miterlimit: 1; vector-effect: non-scaling-stroke; fill: none; stroke: rgb(0, 0, 0); stroke-opacity: 1; stroke-width: 0.5px;"/></g><g class="contourlevel"><path class="openline" d="M229.15,0Q261.04,61.93 254.18,77.4C249.23,88.56 227.02,84.73 215.6,94.76C200.86,107.71 178.27,135.25 178.59,154.8C178.9,173.86 204.57,196.75 215.6,210.68C222.92,219.92 233.79,222.5 235.83,232.2C238.76,246.12 231.01,276.65 215.6,289.56C194.67,307.1 121.23,287.96 104.87,307.815Q91.13,324.49 107.16,387" style="stroke-miterlimit: 1; vector-effect: non-scaling-stroke; fill: none; stroke: rgb(0, 0, 0); stroke-opacity: 1; stroke-width: 0.5px;"/><path class="openline" d="M539,2.17L526.66,0" style="stroke-miterlimit: 1; vector-effect: non-scaling-stroke; fill: none; stroke: rgb(0, 0, 0); stroke-opacity: 1; stroke-width: 0.5px;"/></g><g class="contourlevel"><path class="openline" d="M0,252.49Q7.68,289.11 11.91,309.6Q16.83,333.44 27.71,387" style="stroke-miterlimit: 1; vector-effect: non-scaling-stroke; fill: none; stroke: rgb(0, 0, 0); stroke-opacity: 1; stroke-width: 0.5px;"/><path class="openline" d="M185.09,0Q165,51.4 156.98,77.4C149.08,103.01 139.11,128.83 137.19,154.8C135.3,180.43 153.83,216.29 145.17,232.2C138.81,243.88 123.96,249.12 107.8,251.25Q81.6,254.71 0,228.39" style="stroke-miterlimit: 1; vector-effect: non-scaling-stroke; fill: none; stroke: rgb(0, 0, 0); stroke-opacity: 1; stroke-width: 0.5px;"/></g><g class="contourlevel"><path class="openline" d="M0,27.26L31.66,0" style="stroke-miterlimit: 1; vector-effect: non-scaling-stroke; fill: none; stroke: rgb(0, 0, 0); stroke-opacity: 1; stroke-width: 0.5px;"/><path class="openline" d="M146.44,0Q122,42.86 107.8,56.16C96.72,66.54 85.45,67.28 72.14,77.4Q51.51,93.09 0,146.41" style="stroke-miterlimit: 1; vector-effect: non-scaling-stroke; fill: none; stroke: rgb(0, 0, 0); stroke-opacity: 1; stroke-width: 0.5px;"/></g><g class="contourlevel"/></g></g></g></g><g class="overplot"/><path class="xlines-above crisp" d="M0,0" style="fill: none;"/><path class="ylines-above crisp" d="M0,0" style="fill: none;"/><g class="overlines-above"/><g class="xaxislayer-above"><g class="xtick"><text text-anchor="middle" x="0" y="460" transform="translate(78.59,0)" style="font-family: 'Open Sans', verdana, arial, sans-serif; font-size: 12px; fill: rgb(42, 63, 95); fill-opacity: 1; white-space: pre;">0.2</text></g><g class="xtick"><text text-anchor="middle" x="0" y="460" transform="translate(207.97,0)" style="font-family: 'Open Sans', verdana, arial, sans-serif; font-size: 12px; fill: rgb(42, 63, 95); fill-opacity: 1; white-space: pre;">0.4</text></g><g class="xtick"><text text-anchor="middle" x="0" y="460" transform="translate(337.36,0)" style="font-family: 'Open Sans', verdana, arial, sans-serif; font-size: 12px; fill: rgb(42, 63, 95); fill-opacity: 1; white-space: pre;">0.6</text></g><g class="xtick"><text text-anchor="middle" x="0" y="460" transform="translate(466.75,0)" style="font-family: 'Open Sans', verdana, arial, sans-serif; font-size: 12px; fill: rgb(42, 63, 95); fill-opacity: 1; white-space: pre;">0.8</text></g></g><g class="yaxislayer-above"><g class="ytick"><text text-anchor="end" x="56" y="4.199999999999999" transform="translate(0,431.49)" style="font-family: 'Open Sans', verdana, arial, sans-serif; font-size: 12px; fill: rgb(42, 63, 95); fill-opacity: 1; white-space: pre;">0.2</text></g><g class="ytick"><text text-anchor="end" x="56" y="4.199999999999999" transform="translate(0,385.04)" style="font-family: 'Open Sans', verdana, arial, sans-serif; font-size: 12px; fill: rgb(42, 63, 95); fill-opacity: 1; white-space: pre;">0.3</text></g><g class="ytick"><text text-anchor="end" x="56" y="4.199999999999999" transform="translate(0,338.59)" style="font-family: 'Open Sans', verdana, arial, sans-serif; font-size: 12px; fill: rgb(42, 63, 95); fill-opacity: 1; white-space: pre;">0.4</text></g><g class="ytick"><text text-anchor="end" x="56" y="4.199999999999999" transform="translate(0,292.14)" style="font-family: 'Open Sans', verdana, arial, sans-serif; font-size: 12px; fill: rgb(42, 63, 95); fill-opacity: 1; white-space: pre;">0.5</text></g><g class="ytick"><text text-anchor="end" x="56" y="4.199999999999999" transform="translate(0,245.68)" style="font-family: 'Open Sans', verdana, arial, sans-serif; font-size: 12px; fill: rgb(42, 63, 95); fill-opacity: 1; white-space: pre;">0.6</text></g><g class="ytick"><text text-anchor="end" x="56" y="4.199999999999999" transform="translate(0,199.23)" style="font-family: 'Open Sans', verdana, arial, sans-serif; font-size: 12px; fill: rgb(42, 63, 95); fill-opacity: 1; white-space: pre;">0.7</text></g><g class="ytick"><text text-anchor="end" x="56" y="4.199999999999999" transform="translate(0,152.78)" style="font-family: 'Open Sans', verdana, arial, sans-serif; font-size: 12px; fill: rgb(42, 63, 95); fill-opacity: 1; white-space: pre;">0.8</text></g><g class="ytick"><text text-anchor="end" x="56" y="4.199999999999999" transform="translate(0,106.33)" style="font-family: 'Open Sans', verdana, arial, sans-serif; font-size: 12px; fill: rgb(42, 63, 95); fill-opacity: 1; white-space: pre;">0.9</text></g></g><g class="overaxes-above"/></g></g><g class="polarlayer"/><g class="ternarylayer"/><g class="geolayer"/><g class="funnelarealayer"/><g class="pielayer"/><g class="treemaplayer"/><g class="sunburstlayer"/><g class="glimages"/><defs id="topdefs-e40c89"><g class="clips"/></defs><g class="layer-above"><g class="imagelayer"/><g class="shapelayer"/></g><g class="infolayer"><g class="cbf728db colorbar" transform="translate(57,60)"><rect class="cbbg" x="550" y="0" width="80.90625" height="387" style="fill: rgb(0, 0, 0); fill-opacity: 0; stroke: rgb(68, 68, 68); stroke-opacity: 1; stroke-width: 0;"/><g class="cbfills" transform="translate(0,10)"><rect class="cbfill" x="560" width="30" y="1" height="366" fill="#000000" style=""/><rect class="cbfill" x="560" width="30" y="1" height="346" fill="#16004a" style=""/><rect class="cbfill" x="560" width="30" y="1" height="305" fill="#380064" style=""/><rect class="cbfill" x="560" width="30" y="1" height="264" fill="#600064" style=""/><rect class="cbfill" x="560" width="30" y="1" height="223" fill="#81144e" style=""/><rect class="cbfill" x="560" width="30" y="1" height="183" fill="#974616" style=""/><rect class="cbfill" x="560" width="30" y="1" height="142" fill="#b77f00" style=""/><rect class="cbfill" x="560" width="30" y="1" height="101" fill="#debc00" style=""/><rect class="cbfill" x="560" width="30" y="1" height="60" fill="#f1de62" style=""/><rect class="cbfill" x="560" width="30" y="0" height="20" fill="#fffadc" style=""/></g><g class="cblines" transform="translate(0,10)"><path class="cbline" d="M560,347.25h30" style="fill: none; stroke: rgb(0, 0, 0); stroke-opacity: 1; stroke-width: 0.5px;"/><path class="cbline" d="M560,306.25h30" style="fill: none; stroke: rgb(0, 0, 0); stroke-opacity: 1; stroke-width: 0.5px;"/><path class="cbline" d="M560,265.25h30" style="fill: none; stroke: rgb(0, 0, 0); stroke-opacity: 1; stroke-width: 0.5px;"/><path class="cbline" d="M560,224.25h30" style="fill: none; stroke: rgb(0, 0, 0); stroke-opacity: 1; stroke-width: 0.5px;"/><path class="cbline" d="M560,184.25h30" style="fill: none; stroke: rgb(0, 0, 0); stroke-opacity: 1; stroke-width: 0.5px;"/><path class="cbline" d="M560,143.25h30" style="fill: none; stroke: rgb(0, 0, 0); stroke-opacity: 1; stroke-width: 0.5px;"/><path class="cbline" d="M560,102.25h30" style="fill: none; stroke: rgb(0, 0, 0); stroke-opacity: 1; stroke-width: 0.5px;"/><path class="cbline" d="M560,61.25h30" style="fill: none; stroke: rgb(0, 0, 0); stroke-opacity: 1; stroke-width: 0.5px;"/><path class="cbline" d="M560,20.25h30" style="fill: none; stroke: rgb(0, 0, 0); stroke-opacity: 1; stroke-width: 0.5px;"/></g><g class="cbaxis crisp" transform="translate(0,-60)"><g class="ycbf728dbtick"><text text-anchor="start" x="592.9" y="4.199999999999999" transform="translate(0,416.61)" style="font-family: 'Open Sans', verdana, arial, sans-serif; font-size: 12px; fill: rgb(42, 63, 95); fill-opacity: 1; white-space: pre;">463</text></g><g class="ycbf728dbtick"><text text-anchor="start" x="592.9" y="4.199999999999999" transform="translate(0,335.06)" style="font-family: 'Open Sans', verdana, arial, sans-serif; font-size: 12px; fill: rgb(42, 63, 95); fill-opacity: 1; white-space: pre;">730</text></g><g class="ycbf728dbtick"><text text-anchor="start" x="592.9" y="4.199999999999999" transform="translate(0,253.5)" style="font-family: 'Open Sans', verdana, arial, sans-serif; font-size: 12px; fill: rgb(42, 63, 95); fill-opacity: 1; white-space: pre;">998</text></g><g class="ycbf728dbtick"><text text-anchor="start" x="592.9" y="4.199999999999999" transform="translate(0,171.94)" style="font-family: 'Open Sans', verdana, arial, sans-serif; font-size: 12px; fill: rgb(42, 63, 95); fill-opacity: 1; white-space: pre;">1265</text></g><g class="ycbf728dbtick"><text text-anchor="start" x="592.9" y="4.199999999999999" transform="translate(0,90.39)" style="font-family: 'Open Sans', verdana, arial, sans-serif; font-size: 12px; fill: rgb(42, 63, 95); fill-opacity: 1; white-space: pre;">1533</text></g></g><g class="cbtitleunshift" transform="translate(-57,-60)"><g class="cbtitle"/></g><rect class="cboutline" x="560" y="10" width="30" height="367" style="stroke: rgb(68, 68, 68); stroke-opacity: 1; fill: none; stroke-width: 0;"/></g><g class="g-gtitle"/><g class="g-xtitle"><text class="xtitle" x="326.5" y="487.8" text-anchor="middle" style="font-family: 'Open Sans', verdana, arial, sans-serif; font-size: 14px; fill: rgb(42, 63, 95); opacity: 1; font-weight: normal; white-space: pre;">λ_ind, produkty oceniane osobiście</text></g><g class="g-ytitle" transform="translate(2.4248046875,0)"><text class="ytitle" transform="rotate(-90,11.575000000000003,253.5)" x="11.575000000000003" y="253.5" text-anchor="middle" style="font-family: 'Open Sans', verdana, arial, sans-serif; font-size: 14px; fill: rgb(42, 63, 95); opacity: 1; font-weight: normal; white-space: pre;">λ_wom, produkty oceniane przez sąsiadów</text></g></g></svg>