<svg class="main-svg" xmlns="http://www.w3.org/2000/svg" xmlns:xlink="http://www.w3.org/1999/xlink" width="700" height="500" style="" viewBox="0 0 700 500"><rect x="0" y="0" width="700" height="500" style="fill: rgb(255, 255, 255); fill-opacity: 1;"/><defs id="defs-03f934"><g class="clips"><clipPath id="clip03f934xyplot" class="plotclip"><rect width="539" height="387"/></clipPath><clipPath class="axesclip" id="clip03f934x"><rect x="57" y="0" width="539" height="500"/></clipPath><clipPath class="axesclip" id="clip03f934y"><rect x="0" y="60" width="700" height="387"/></clipPath><clipPath class="axesclip" id="clip03f934xy"><rect x="57" y="60" width="539" height="387"/></clipPath><clipPath class="contourclip" id="clip575b3e"><path d="M0,0L539,0L539,387L0,387Z"/></clipPath></g><g class="gradients"/></defs><g class="bglayer"><rect class="bg" x="57" y="60" width="539" height="387" style="fill: rgb(229, 236, 246); fill-opacity: 1; stroke-width: 0;"/></g><g class="layer-below"><g class="imagelayer"/><g class="shapelayer"/></g><g class="cartesianlayer"><g class="subplot xy"><g class="layer-subplot"><g class="shapelayer"/><g class="imagelayer"/></g><g class="gridlayer"><g class="x"><path class="xgrid crisp" transform="translate(78.59,0)" d="M0,60v387" style="stroke: rgb(255, 255, 255); stroke-opacity: 1; stroke-width: 1px;"/><path class="xgrid crisp" transform="translate(207.97,0)" d="M0,60v387" style="stroke: rgb(255, 255, 255); stroke-opacity: 1; stroke-width: 1px;"/><path class="xgrid crisp" transform="translate(337.36,0)" d="M0,60v387" style="stroke: rgb(255, 255, 255); stroke-opacity: 1; stroke-width: 1px;"/><path class="xgrid crisp" transform="translate(466.75,0)" d="M0,60v387" style="stroke: rgb(255, 255, 255); stroke-opacity: 1; stroke-width: 1px;"/></g><g class="y"><path class="ygrid crisp" transform="translate(0,431.49)" d="M57,0h539" style="stroke: rgb(255, 255, 255); stroke-opacity: 1; stroke-width: 1px;"/><path class="ygrid crisp" transform="translate(0,385.04)" d="M57,0h539" style="stroke: rgb(255, 255, 255); stroke-opacity: 1; stroke-width: 1px;"/><path class="ygrid crisp" transform="translate(0,338.59)" d="M57,0h539" style="stroke: rgb(255, 255, 255); stroke-opacity: 1; stroke-width: 1px;"/><path class="ygrid crisp" transform="translate(0,292.14)" d="M57,0h539" style="stroke: rgb(255, 255, 255); stroke-opacity: 1; stroke-width: 1px;"/><path class="ygrid crisp" transform="translate(0,245.68)" d="M57,0h539" style="stroke: rgb(255, 255, 255); stroke-opacity: 1; stroke-width: 1px;"/><path class="ygrid crisp" transform="translate(0,199.23)" d="M57,0h539" style="stroke: rgb(255, 255, 255); stroke-opacity: 1; stroke-width: 1px;"/><path class="ygrid crisp" transform="translate(0,152.78)" d="M57,0h539" style="stroke: rgb(255, 255, 255); stroke-opacity: 1; stroke-width: 1px;"/><path class="ygrid crisp" transform="translate(0,106.33)" d="M57,0h539" style="stroke: rgb(255, 255, 255); stroke-opacity: 1; stroke-width: 1px;"/></g></g><g class="zerolinelayer"/><path class="xlines-below"/><path class="ylines-below"/><g class="overlines-below"/><g class="xaxislayer-below"/><g class="yaxislayer-below"/><g class="overaxes-below"/><g class="plot" transform="translate(57,60)" clip-path="url('#clip03f934xyplot')"><g class="contourlayer mlayer"><g class="contour" clip-path="url('#clip575b3e')" style="opacity: 1;"><g class="heatmapcoloring"/><g class="contourbg"><path d="M0,0L539,0L539,387L0,387Z" style="stroke: none; fill: rgb(0, 0, 0);"/></g><g class="contourfill"><path d="M0,0L539,0L539,387L0,387Z" style="stroke: none; fill: rgb(22, 0, 74);"/><path d="M0,0L539,0L539,387L0,387Z" style="stroke: none; fill: rgb(56, 0, 100);"/><path d="M539,342.68L506.76,387L0,387L0,0L539,0Z" style="stroke: none; fill: rgb(96, 0, 100);"/><path d="M539,84.29Q510.84,131.52 493.63,154.8C475.06,179.93 446.45,202.68 430.62,229.42C415.77,254.5 394.92,291.23 399.72,309.6C403.03,322.27 421.53,324.54 431.2,335.67Q442.95,349.18 462.81,387L0,387L0,0L481.51,0L539,72.41Z" style="stroke: none; fill: rgb(129, 20, 78);"/><path d="M385.77,0Q344.29,52.83 323.4,65.21C308.32,74.15 289.08,66.57 277.99,77.4C263.46,91.59 246.61,137.69 255.2,154.8C263.35,171.04 302.03,167.76 323.4,180.02C346.12,193.06 385.35,212.51 386.92,232.2C388.61,253.46 341.11,293.5 323.4,304.01C314.34,309.39 306.4,303.44 298.93,309.6Q285.2,320.91 264.66,387L0,387L0,0ZM167.28,232.2C167.2,250.55 200.2,288.01 215.6,287.58C230.65,287.16 258.79,250.55 258.72,232.2C258.65,213.94 230.65,178.15 215.6,177.73C200.2,177.3 167.36,213.93 167.28,232.2Z" style="stroke: none; fill: rgb(151, 70, 22);"/><path d="M197.96,0Q123.29,49.23 116.51,77.4C110.72,101.47 143.54,128.96 143.77,154.8C144,180.56 118.76,206.29 118.06,232.2C117.37,257.9 144.7,291.42 139.21,309.6C135.25,322.7 120.23,326.69 107.8,337.02Q90.52,351.38 44.61,387L0,387L0,0ZM323.4,255.26C316.53,255.29 302.09,239.02 302.63,232.2C303.13,225.87 316.52,215.42 323.4,215.45C330.24,215.48 343.29,225.88 343.79,232.2C344.33,239.03 330.25,255.23 323.4,255.26Z" style="stroke: none; fill: rgb(183, 127, 0);"/><path d="M118.15,0Q77.71,51.2 59.66,77.4C42.15,102.82 11.14,129.02 11.2,154.8C11.26,180.62 64.48,212.24 60.14,232.2Q56.3,249.88 0,271.49L0,0Z" style="stroke: none; fill: rgb(222, 188, 0);"/><path d="M33.8,0Q15.22,63.41 8.09,77.4Q5.15,83.17 0,88.69L0,0Z" style="stroke: none; fill: rgb(241, 222, 98);"/></g><g class="contourlines"><g class="contourlevel"/><g class="contourlevel"/><g class="contourlevel"><path class="openline" d="M539,342.68L506.76,387" style="stroke-miterlimit: 1; vector-effect: non-scaling-stroke; fill: none; stroke: rgb(0, 0, 0); stroke-opacity: 1; stroke-width: 0.5px;"/></g><g class="contourlevel"><path class="openline" d="M539,84.29Q510.84,131.52 493.63,154.8C475.06,179.93 446.45,202.68 430.62,229.42C415.77,254.5 394.92,291.23 399.72,309.6C403.03,322.27 421.53,324.54 431.2,335.67Q442.95,349.18 462.81,387" style="stroke-miterlimit: 1; vector-effect: non-scaling-stroke; fill: none; stroke: rgb(0, 0, 0); stroke-opacity: 1; stroke-width: 0.5px;"/><path class="openline" d="M481.51,0L539,72.41" style="stroke-miterlimit: 1; vector-effect: non-scaling-stroke; fill: none; stroke: rgb(0, 0, 0); stroke-opacity: 1; stroke-width: 0.5px;"/></g><g class="contourlevel"><path class="openline" d="M385.77,0Q344.29,52.83 323.4,65.21C308.32,74.15 289.08,66.57 277.99,77.4C263.46,91.59 246.61,137.69 255.2,154.8C263.35,171.04 302.03,167.76 323.4,180.02C346.12,193.06 385.35,212.51 386.92,232.2C388.61,253.46 341.11,293.5 323.4,304.01C314.34,309.39 306.4,303.44 298.93,309.6Q285.2,320.91 264.66,387" style="stroke-miterlimit: 1; vector-effect: non-scaling-stroke; fill: none; stroke: rgb(0, 0, 0); stroke-opacity: 1; stroke-width: 0.5px;"/><path class="closedline" d="M167.28,232.2C167.2,250.55 200.2,288.01 215.6,287.58C230.65,287.16 258.79,250.55 258.72,232.2C258.65,213.94 230.65,178.15 215.6,177.73C200.2,177.3 167.36,213.93 167.28,232.2Z" style="stroke-miterlimit: 1; vector-effect: non-scaling-stroke; fill: none; stroke: rgb(0, 0, 0); stroke-opacity: 1; stroke-width: 0.5px;"/></g><g class="contourlevel"><path class="openline" d="M197.96,0Q123.29,49.23 116.51,77.4C110.72,101.47 143.54,128.96 143.77,154.8C144,180.56 118.76,206.29 118.06,232.2C117.37,257.9 144.7,291.42 139.21,309.6C135.25,322.7 120.23,326.69 107.8,337.02Q90.52,351.38 44.61,387" style="stroke-miterlimit: 1; vector-effect: non-scaling-stroke; fill: none; stroke: rgb(0, 0, 0); stroke-opacity: 1; stroke-width: 0.5px;"/><path class="closedline" d="M323.4,255.26C316.53,255.29 302.09,239.02 302.63,232.2C303.13,225.87 316.52,215.42 323.4,215.45C330.24,215.48 343.29,225.88 343.79,232.2C344.33,239.03 330.25,255.23 323.4,255.26Z" style="stroke-miterlimit: 1; vector-effect: non-scaling-stroke; fill: none; stroke: rgb(0, 0, 0); stroke-opacity: 1; stroke-width: 0.5px;"/></g><g class="contourlevel"><path class="openline" d="M118.15,0Q77.71,51.2 59.66,77.4C42.15,102.82 11.14,129.02 11.2,154.8C11.26,180.62 64.48,212.24 60.14,232.2Q56.3,249.88 0,271.49" style="stroke-miterlimit: 1; vector-effect: non-scaling-stroke; fill: none; stroke: rgb(0, 0, 0); stroke-opacity: 1; stroke-width: 0.5px;"/></g><g class="contourlevel"><path class="openline" d="M33.8,0Q15.22,63.41 8.09,77.4Q5.15,83.17 0,88.69" style="stroke-miterlimit: 1; vector-effect: non-scaling-stroke; fill: none; stroke: rgb(0, 0, 0); stroke-opacity: 1; stroke-width: 0.5px;"/></g><g class="contourlevel"/></g></g></g></g><g class="overplot"/><path class="xlines-above crisp" d="M0,0" style="fill: none;"/><path class="ylines-above crisp" d="M0,0" style="fill: none;"/><g class="overlines-above"/><g class="xaxislayer-above"><g class="xtick"><text text-anchor="middle" x="0" y="460" transform="translate(78.59,0)" style="font-family: 'Open Sans', verdana, arial, sans-serif; font-size: 12px; fill: rgb(42, 63, 95); fill-opacity: 1; white-space: pre;">0.2</text></g><g class="xtick"><text text-anchor="middle" x="0" y="460" transform="translate(207.97,0)" style="font-family: 'Open Sans', verdana, arial, sans-serif; font-size: 12px; fill: rgb(42, 63, 95); fill-opacity: 1; white-space: pre;">0.4</text></g><g class="xtick"><text text-anchor="middle" x="0" y="460" transform="translate(337.36,0)" style="font-family: 'Open Sans', verdana, arial, sans-serif; font-size: 12px; fill: rgb(42, 63, 95); fill-opacity: 1; white-space: pre;">0.6</text></g><g class="xtick"><text text-anchor="middle" x="0" y="460" transform="translate(466.75,0)" style="font-family: 'Open Sans', verdana, arial, sans-serif; font-size: 12px; fill: rgb(42, 63, 95); fill-opacity: 1; white-space: pre;">0.8</text></g></g><g class="yaxislayer-above"><g class="ytick"><text text-anchor="end" x="56" y="4.199999999999999" transform="translate(0,431.49)" style="font-family: 'Open Sans', verdana, arial, sans-serif; font-size: 12px; fill: rgb(42, 63, 95); fill-opacity: 1; white-space: pre;">0.2</text></g><g class="ytick"><text text-anchor="end" x="56" y="4.199999999999999" transform="translate(0,385.04)" style="font-family: 'Open Sans', verdana, arial, sans-serif; font-size: 12px; fill: rgb(42, 63, 95); fill-opacity: 1; white-space: pre;">0.3</text></g><g class="ytick"><text text-anchor="end" x="56" y="4.199999999999999" transform="translate(0,338.59)" style="font-family: 'Open Sans', verdana, arial, sans-serif; font-size: 12px; fill: rgb(42, 63, 95); fill-opacity: 1; white-space: pre;">0.4</text></g><g class="ytick"><text text-anchor="end" x="56" y="4.199999999999999" transform="translate(0,292.14)" style="font-family: 'Open Sans', verdana, arial, sans-serif; font-size: 12px; fill: rgb(42, 63, 95); fill-opacity: 1; white-space: pre;">0.5</text></g><g class="ytick"><text text-anchor="end" x="56" y="4.199999999999999" transform="translate(0,245.68)" style="font-family: 'Open Sans', verdana, arial, sans-serif; font-size: 12px; fill: rgb(42, 63, 95); fill-opacity: 1; white-space: pre;">0.6</text></g><g class="ytick"><text text-anchor="end" x="56" y="4.199999999999999" transform="translate(0,199.23)" style="font-family: 'Open Sans', verdana, arial, sans-serif; font-size: 12px; fill: rgb(42, 63, 95); fill-opacity: 1; white-space: pre;">0.7</text></g><g class="ytick"><text text-anchor="end" x="56" y="4.199999999999999" transform="translate(0,152.78)" style="font-family: 'Open Sans', verdana, arial, sans-serif; font-size: 12px; fill: rgb(42, 63, 95); fill-opacity: 1; white-space: pre;">0.8</text></g><g class="ytick"><text text-anchor="end" x="56" y="4.199999999999999" transform="translate(0,106.33)" style="font-family: 'Open Sans', verdana, arial, sans-serif; font-size: 12px; fill: rgb(42, 63, 95); fill-opacity: 1; white-space: pre;">0.9</text></g></g><g class="overaxes-above"/></g></g><g class="polarlayer"/><g class="ternarylayer"/><g class="geolayer"/><g class="funnelarealayer"/><g class="pielayer"/><g class="treemaplayer"/><g class="sunburstlayer"/><g class="glimages"/><defs id="topdefs-03f934"><g class="clips"/></defs><g class="layer-above"><g class="imagelayer"/><g class="shapelayer"/></g><g class="infolayer"><g class="cb575b3e colorbar" transform="translate(57,60)"><rect class="cbbg" x="550" y="0" width="80.90625" height="387" style="fill: rgb(0, 0, 0); fill-opacity: 0; stroke: rgb(68, 68, 68); stroke-opacity: 1; stroke-width: 0;"/><g class="cbfills" transform="translate(0,10)"><rect class="cbfill" x="560" width="30" y="1" height="366" fill="#000000" style=""/><rect class="cbfill" x="560" width="30" y="1" height="346" fill="#16004a" style=""/><rect class="cbfill" x="560" width="30" y="1" height="305" fill="#380064" style=""/><rect class="cbfill" x="560" width="30" y="1" height="264" fill="#600064" style=""/><rect class="cbfill" x="560" width="30" y="1" height="223" fill="#81144e" style=""/><rect class="cbfill" x="560" width="30" y="1" height="183" fill="#974616" style=""/><rect class="cbfill" x="560" width="30" y="1" height="142" fill="#b77f00" style=""/><rect class="cbfill" x="560" width="30" y="1" height="101" fill="#debc00" style=""/><rect class="cbfill" x="560" width="30" y="1" height="60" fill="#f1de62" style=""/><rect class="cbfill" x="560" width="30" y="0" height="20" fill="#fffadc" style=""/></g><g class="cblines" transform="translate(0,10)"><path class="cbline" d="M560,347.25h30" style="fill: none; stroke: rgb(0, 0, 0); stroke-opacity: 1; stroke-width: 0.5px;"/><path class="cbline" d="M560,306.25h30" style="fill: none; stroke: rgb(0, 0, 0); stroke-opacity: 1; stroke-width: 0.5px;"/><path class="cbline" d="M560,265.25h30" style="fill: none; stroke: rgb(0, 0, 0); stroke-opacity: 1; stroke-width: 0.5px;"/><path class="cbline" d="M560,224.25h30" style="fill: none; stroke: rgb(0, 0, 0); stroke-opacity: 1; stroke-width: 0.5px;"/><path class="cbline" d="M560,184.25h30" style="fill: none; stroke: rgb(0, 0, 0); stroke-opacity: 1; stroke-width: 0.5px;"/><path class="cbline" d="M560,143.25h30" style="fill: none; stroke: rgb(0, 0, 0); stroke-opacity: 1; stroke-width: 0.5px;"/><path class="cbline" d="M560,102.25h30" style="fill: none; stroke: rgb(0, 0, 0); stroke-opacity: 1; stroke-width: 0.5px;"/><path class="cbline" d="M560,61.25h30" style="fill: none; stroke: rgb(0, 0, 0); stroke-opacity: 1; stroke-width: 0.5px;"/><path class="cbline" d="M560,20.25h30" style="fill: none; stroke: rgb(0, 0, 0); stroke-opacity: 1; stroke-width: 0.5px;"/></g><g class="cbaxis crisp" transform="translate(0,-60)"><g class="ycb575b3etick"><text text-anchor="start" x="592.9" y="4.199999999999999" transform="translate(0,416.61)" style="font-family: 'Open Sans', verdana, arial, sans-serif; font-size: 12px; fill: rgb(42, 63, 95); fill-opacity: 1; white-space: pre;">463</text></g><g class="ycb575b3etick"><text text-anchor="start" x="592.9" y="4.199999999999999" transform="translate(0,335.06)" style="font-family: 'Open Sans', verdana, arial, sans-serif; font-size: 12px; fill: rgb(42, 63, 95); fill-opacity: 1; white-space: pre;">730</text></g><g class="ycb575b3etick"><text text-anchor="start" x="592.9" y="4.199999999999999" transform="translate(0,253.5)" style="font-family: 'Open Sans', verdana, arial, sans-serif; font-size: 12px; fill: rgb(42, 63, 95); fill-opacity: 1; white-space: pre;">998</text></g><g class="ycb575b3etick"><text text-anchor="start" x="592.9" y="4.199999999999999" transform="translate(0,171.94)" style="font-family: 'Open Sans', verdana, arial, sans-serif; font-size: 12px; fill: rgb(42, 63, 95); fill-opacity: 1; white-space: pre;">1265</text></g><g class="ycb575b3etick"><text text-anchor="start" x="592.9" y="4.199999999999999" transform="translate(0,90.39)" style="font-family: 'Open Sans', verdana, arial, sans-serif; font-size: 12px; fill: rgb(42, 63, 95); fill-opacity: 1; white-space: pre;">1533</text></g></g><g class="cbtitleunshift" transform="translate(-57,-60)"><g class="cbtitle"/></g><rect class="cboutline" x="560" y="10" width="30" height="367" style="stroke: rgb(68, 68, 68); stroke-opacity: 1; fill: none; stroke-width: 0;"/></g><g class="g-gtitle"/><g class="g-xtitle"><text class="xtitle" x="326.5" y="487.8" text-anchor="middle" style="font-family: 'Open Sans', verdana, arial, sans-serif; font-size: 14px; fill: rgb(42, 63, 95); opacity: 1; font-weight: normal; white-space: pre;">λ_ind, produkty oceniane osobiście</text></g><g class="g-ytitle" transform="translate(2.4248046875,0)"><text class="ytitle" transform="rotate(-90,11.575000000000003,253.5)" x="11.575000000000003" y="253.5" text-anchor="middle" style="font-family: 'Open Sans', verdana, arial, sans-serif; font-size: 14px; fill: rgb(42, 63, 95); opacity: 1; font-weight: normal; white-space: pre;">λ_wom, produkty oceniane przez sąsiadów</text></g></g></svg>