<svg class="main-svg" xmlns="http://www.w3.org/2000/svg" xmlns:xlink="http://www.w3.org/1999/xlink" width="700" height="500" style="" viewBox="0 0 700 500"><rect x="0" y="0" width="700" height="500" style="fill: rgb(255, 255, 255); fill-opacity: 1;"/><defs id="defs-b2f68e"><g class="clips"><clipPath id="clipb2f68exyplot" class="plotclip"><rect width="539" height="387"/></clipPath><clipPath class="axesclip" id="clipb2f68ex"><rect x="57" y="0" width="539" height="500"/></clipPath><clipPath class="axesclip" id="clipb2f68ey"><rect x="0" y="60" width="700" height="387"/></clipPath><clipPath class="axesclip" id="clipb2f68exy"><rect x="57" y="60" width="539" height="387"/></clipPath><clipPath class="contourclip" id="clipe606ac"><path d="M0,0L539,0L539,387L0,387Z"/></clipPath></g><g class="gradients"/></defs><g class="bglayer"><rect class="bg" x="57" y="60" width="539" height="387" style="fill: rgb(229, 236, 246); fill-opacity: 1; stroke-width: 0;"/></g><g class="layer-below"><g class="imagelayer"/><g class="shapelayer"/></g><g class="cartesianlayer"><g class="subplot xy"><g class="layer-subplot"><g class="shapelayer"/><g class="imagelayer"/></g><g class="gridlayer"><g class="x"><path class="xgrid crisp" transform="translate(78.59,0)" d="M0,60v387" style="stroke: rgb(255, 255, 255); stroke-opacity: 1; stroke-width: 1px;"/><path class="xgrid crisp" transform="translate(207.97,0)" d="M0,60v387" style="stroke: rgb(255, 255, 255); stroke-opacity: 1; stroke-width: 1px;"/><path class="xgrid crisp" transform="translate(337.36,0)" d="M0,60v387" style="stroke: rgb(255, 255, 255); stroke-opacity: 1; stroke-width: 1px;"/><path class="xgrid crisp" transform="translate(466.75,0)" d="M0,60v387" style="stroke: rgb(255, 255, 255); stroke-opacity: 1; stroke-width: 1px;"/></g><g class="y"><path class="ygrid crisp" transform="translate(0,431.49)" d="M57,0h539" style="stroke: rgb(255, 255, 255); stroke-opacity: 1; stroke-width: 1px;"/><path class="ygrid crisp" transform="translate(0,385.04)" d="M57,0h539" style="stroke: rgb(255, 255, 255); stroke-opacity: 1; stroke-width: 1px;"/><path class="ygrid crisp" transform="translate(0,338.59)" d="M57,0h539" style="stroke: rgb(255, 255, 255); stroke-opacity: 1; stroke-width: 1px;"/><path class="ygrid crisp" transform="translate(0,292.14)" d="M57,0h539" style="stroke: rgb(255, 255, 255); stroke-opacity: 1; stroke-width: 1px;"/><path class="ygrid crisp" transform="translate(0,245.68)" d="M57,0h539" style="stroke: rgb(255, 255, 255); stroke-opacity: 1; stroke-width: 1px;"/><path class="ygrid crisp" transform="translate(0,199.23)" d="M57,0h539" style="stroke: rgb(255, 255, 255); stroke-opacity: 1; stroke-width: 1px;"/><path class="ygrid crisp" transform="translate(0,152.78)" d="M57,0h539" style="stroke: rgb(255, 255, 255); stroke-opacity: 1; stroke-width: 1px;"/><path class="ygrid crisp" transform="translate(0,106.33)" d="M57,0h539" style="stroke: rgb(255, 255, 255); stroke-opacity: 1; stroke-width: 1px;"/></g></g><g class="zerolinelayer"/><path class="xlines-below"/><path class="ylines-below"/><g class="overlines-below"/><g class="xaxislayer-below"/><g class="yaxislayer-below"/><g class="overaxes-below"/><g class="plot" transform="translate(57,60)" clip-path="url('#clipb2f68exyplot')"><g class="contourlayer mlayer"><g class="contour" clip-path="url('#clipe606ac')" style="opacity: 1;"><g class="heatmapcoloring"/><g class="contourbg"><path d="M0,0L539,0L539,387L0,387Z" style="stroke: none; fill: rgb(0, 0, 0);"/></g><g class="contourfill"><path d="M0,0L539,0L539,387L0,387Z" style="stroke: none; fill: rgb(22, 0, 74);"/><path d="M539,375.48L508.76,387L0,387L0,0L539,0Z" style="stroke: none; fill: rgb(56, 0, 100);"/><path d="M539,315Q455.52,354.93 431.2,368.63Q418.21,375.95 402.18,387L0,387L0,0L539,0Z" style="stroke: none; fill: rgb(96, 0, 100);"/><path d="M518.86,0Q545.1,53.34 538.46,77.4C530.69,105.58 466.57,127 460.94,154.8C456.02,179.08 490.13,206.04 492.43,232.2C494.67,257.66 488.68,292.78 475.84,309.6C465.6,323.01 448.24,322.94 431.2,332.72Q406.99,346.62 345.46,387L0,387L0,0Z" style="stroke: none; fill: rgb(129, 20, 78);"/><path d="M472,0Q471.5,60.26 461.56,77.4C454.6,89.4 441.97,100.21 431.2,100.68C419.74,101.18 409.32,84.53 394.62,77.4C375.23,68 346.92,52.37 323.4,52.49C300.21,52.61 257.6,63.46 254.47,77.4C250.74,94 318.73,126.56 327.715,151.16000000000003C334.12,168.7 325.56,188.99 323.4,203.79C321.8,214.77 322.09,220.94 317.41,232.2C309.06,252.3 279.12,282.86 266.77,309.6Q255.24,334.58 244.04,387L0,387L0,0Z" style="stroke: none; fill: rgb(151, 70, 22);"/><path d="M412.59,0Q354.42,12.19 323.4,20.08C289.05,28.82 246.71,39.9 215.6,50.7C191.01,59.23 151.3,67.5 150.88,77.4C150.45,87.5 196.38,97.43 215.6,110.8C233.8,123.46 262.59,138.31 263.88,154.8C265.28,172.72 236.25,202.1 215.6,215C194.82,227.98 146.95,217.15 139.42,232.2C131.58,247.88 179.86,288.89 174.1,309.6C168.48,329.8 134.07,347.19 107.8,355.67Q77.44,365.47 0,357.54L0,0Z" style="stroke: none; fill: rgb(183, 127, 0);"/><path d="M0,176.49Q52.84,209.29 66.09,232.2C78.73,254.05 90.69,294.15 80.04,309.6Q69.2,325.32 0,324.59ZM233.52,0Q224.13,2.33 215.6,3.57C194.83,6.59 131.51,-2.34 107.8,13.5C88.43,26.44 90.37,58.5 74.16,77.4Q55.83,98.77 0,132.31L0,0Z" style="stroke: none; fill: rgb(222, 188, 0);"/><path d="M0,215.06Q19.06,224.83 20.33,232.2Q21.89,241.27 0,266.96ZM0,3.91Q25.15,62.96 20.16,77.4Q17.3,85.69 0,92.33Z" style="stroke: none; fill: rgb(241, 222, 98);"/></g><g class="contourlines"><g class="contourlevel"/><g class="contourlevel"><path class="openline" d="M539,375.48L508.76,387" style="stroke-miterlimit: 1; vector-effect: non-scaling-stroke; fill: none; stroke: rgb(0, 0, 0); stroke-opacity: 1; stroke-width: 0.5px;"/></g><g class="contourlevel"><path class="openline" d="M539,315Q455.52,354.93 431.2,368.63Q418.21,375.95 402.18,387" style="stroke-miterlimit: 1; vector-effect: non-scaling-stroke; fill: none; stroke: rgb(0, 0, 0); stroke-opacity: 1; stroke-width: 0.5px;"/></g><g class="contourlevel"><path class="openline" d="M518.86,0Q545.1,53.34 538.46,77.4C530.69,105.58 466.57,127 460.94,154.8C456.02,179.08 490.13,206.04 492.43,232.2C494.67,257.66 488.68,292.78 475.84,309.6C465.6,323.01 448.24,322.94 431.2,332.72Q406.99,346.62 345.46,387" style="stroke-miterlimit: 1; vector-effect: non-scaling-stroke; fill: none; stroke: rgb(0, 0, 0); stroke-opacity: 1; stroke-width: 0.5px;"/></g><g class="contourlevel"><path class="openline" d="M472,0Q471.5,60.26 461.56,77.4C454.6,89.4 441.97,100.21 431.2,100.68C419.74,101.18 409.32,84.53 394.62,77.4C375.23,68 346.92,52.37 323.4,52.49C300.21,52.61 257.6,63.46 254.47,77.4C250.74,94 318.73,126.56 327.715,151.16000000000003C334.12,168.7 325.56,188.99 323.4,203.79C321.8,214.77 322.09,220.94 317.41,232.2C309.06,252.3 279.12,282.86 266.77,309.6Q255.24,334.58 244.04,387" style="stroke-miterlimit: 1; vector-effect: non-scaling-stroke; fill: none; stroke: rgb(0, 0, 0); stroke-opacity: 1; stroke-width: 0.5px;"/></g><g class="contourlevel"><path class="openline" d="M412.59,0Q354.42,12.19 323.4,20.08C289.05,28.82 246.71,39.9 215.6,50.7C191.01,59.23 151.3,67.5 150.88,77.4C150.45,87.5 196.38,97.43 215.6,110.8C233.8,123.46 262.59,138.31 263.88,154.8C265.28,172.72 236.25,202.1 215.6,215C194.82,227.98 146.95,217.15 139.42,232.2C131.58,247.88 179.86,288.89 174.1,309.6C168.48,329.8 134.07,347.19 107.8,355.67Q77.44,365.47 0,357.54" style="stroke-miterlimit: 1; vector-effect: non-scaling-stroke; fill: none; stroke: rgb(0, 0, 0); stroke-opacity: 1; stroke-width: 0.5px;"/></g><g class="contourlevel"><path class="openline" d="M0,176.49Q52.84,209.29 66.09,232.2C78.73,254.05 90.69,294.15 80.04,309.6Q69.2,325.32 0,324.59" style="stroke-miterlimit: 1; vector-effect: non-scaling-stroke; fill: none; stroke: rgb(0, 0, 0); stroke-opacity: 1; stroke-width: 0.5px;"/><path class="openline" d="M233.52,0Q224.13,2.33 215.6,3.57C194.83,6.59 131.51,-2.34 107.8,13.5C88.43,26.44 90.37,58.5 74.16,77.4Q55.83,98.77 0,132.31" style="stroke-miterlimit: 1; vector-effect: non-scaling-stroke; fill: none; stroke: rgb(0, 0, 0); stroke-opacity: 1; stroke-width: 0.5px;"/></g><g class="contourlevel"><path class="openline" d="M0,215.06Q19.06,224.83 20.33,232.2Q21.89,241.27 0,266.96" style="stroke-miterlimit: 1; vector-effect: non-scaling-stroke; fill: none; stroke: rgb(0, 0, 0); stroke-opacity: 1; stroke-width: 0.5px;"/><path class="openline" d="M0,3.91Q25.15,62.96 20.16,77.4Q17.3,85.69 0,92.33" style="stroke-miterlimit: 1; vector-effect: non-scaling-stroke; fill: none; stroke: rgb(0, 0, 0); stroke-opacity: 1; stroke-width: 0.5px;"/></g><g class="contourlevel"/></g></g></g></g><g class="overplot"/><path class="xlines-above crisp" d="M0,0" style="fill: none;"/><path class="ylines-above crisp" d="M0,0" style="fill: none;"/><g class="overlines-above"/><g class="xaxislayer-above"><g class="xtick"><text text-anchor="middle" x="0" y="460" transform="translate(78.59,0)" style="font-family: 'Open Sans', verdana, arial, sans-serif; font-size: 12px; fill: rgb(42, 63, 95); fill-opacity: 1; white-space: pre;">0.2</text></g><g class="xtick"><text text-anchor="middle" x="0" y="460" transform="translate(207.97,0)" style="font-family: 'Open Sans', verdana, arial, sans-serif; font-size: 12px; fill: rgb(42, 63, 95); fill-opacity: 1; white-space: pre;">0.4</text></g><g class="xtick"><text text-anchor="middle" x="0" y="460" transform="translate(337.36,0)" style="font-family: 'Open Sans', verdana, arial, sans-serif; font-size: 12px; fill: rgb(42, 63, 95); fill-opacity: 1; white-space: pre;">0.6</text></g><g class="xtick"><text text-anchor="middle" x="0" y="460" transform="translate(466.75,0)" style="font-family: 'Open Sans', verdana, arial, sans-serif; font-size: 12px; fill: rgb(42, 63, 95); fill-opacity: 1; white-space: pre;">0.8</text></g></g><g class="yaxislayer-above"><g class="ytick"><text text-anchor="end" x="56" y="4.199999999999999" transform="translate(0,431.49)" style="font-family: 'Open Sans', verdana, arial, sans-serif; font-size: 12px; fill: rgb(42, 63, 95); fill-opacity: 1; white-space: pre;">0.2</text></g><g class="ytick"><text text-anchor="end" x="56" y="4.199999999999999" transform="translate(0,385.04)" style="font-family: 'Open Sans', verdana, arial, sans-serif; font-size: 12px; fill: rgb(42, 63, 95); fill-opacity: 1; white-space: pre;">0.3</text></g><g class="ytick"><text text-anchor="end" x="56" y="4.199999999999999" transform="translate(0,338.59)" style="font-family: 'Open Sans', verdana, arial, sans-serif; font-size: 12px; fill: rgb(42, 63, 95); fill-opacity: 1; white-space: pre;">0.4</text></g><g class="ytick"><text text-anchor="end" x="56" y="4.199999999999999" transform="translate(0,292.14)" style="font-family: 'Open Sans', verdana, arial, sans-serif; font-size: 12px; fill: rgb(42, 63, 95); fill-opacity: 1; white-space: pre;">0.5</text></g><g class="ytick"><text text-anchor="end" x="56" y="4.199999999999999" transform="translate(0,245.68)" style="font-family: 'Open Sans', verdana, arial, sans-serif; font-size: 12px; fill: rgb(42, 63, 95); fill-opacity: 1; white-space: pre;">0.6</text></g><g class="ytick"><text text-anchor="end" x="56" y="4.199999999999999" transform="translate(0,199.23)" style="font-family: 'Open Sans', verdana, arial, sans-serif; font-size: 12px; fill: rgb(42, 63, 95); fill-opacity: 1; white-space: pre;">0.7</text></g><g class="ytick"><text text-anchor="end" x="56" y="4.199999999999999" transform="translate(0,152.78)" style="font-family: 'Open Sans', verdana, arial, sans-serif; font-size: 12px; fill: rgb(42, 63, 95); fill-opacity: 1; white-space: pre;">0.8</text></g><g class="ytick"><text text-anchor="end" x="56" y="4.199999999999999" transform="translate(0,106.33)" style="font-family: 'Open Sans', verdana, arial, sans-serif; font-size: 12px; fill: rgb(42, 63, 95); fill-opacity: 1; white-space: pre;">0.9</text></g></g><g class="overaxes-above"/></g></g><g class="polarlayer"/><g class="ternarylayer"/><g class="geolayer"/><g class="funnelarealayer"/><g class="pielayer"/><g class="treemaplayer"/><g class="sunburstlayer"/><g class="glimages"/><defs id="topdefs-b2f68e"><g class="clips"/></defs><g class="layer-above"><g class="imagelayer"/><g class="shapelayer"/></g><g class="infolayer"><g class="cbe606ac colorbar" transform="translate(57,60)"><rect class="cbbg" x="550" y="0" width="80.90625" height="387" style="fill: rgb(0, 0, 0); fill-opacity: 0; stroke: rgb(68, 68, 68); stroke-opacity: 1; stroke-width: 0;"/><g class="cbfills" transform="translate(0,10)"><rect class="cbfill" x="560" width="30" y="1" height="366" fill="#000000" style=""/><rect class="cbfill" x="560" width="30" y="1" height="346" fill="#16004a" style=""/><rect class="cbfill" x="560" width="30" y="1" height="305" fill="#380064" style=""/><rect class="cbfill" x="560" width="30" y="1" height="264" fill="#600064" style=""/><rect class="cbfill" x="560" width="30" y="1" height="223" fill="#81144e" style=""/><rect class="cbfill" x="560" width="30" y="1" height="183" fill="#974616" style=""/><rect class="cbfill" x="560" width="30" y="1" height="142" fill="#b77f00" style=""/><rect class="cbfill" x="560" width="30" y="1" height="101" fill="#debc00" style=""/><rect class="cbfill" x="560" width="30" y="1" height="60" fill="#f1de62" style=""/><rect class="cbfill" x="560" width="30" y="0" height="20" fill="#fffadc" style=""/></g><g class="cblines" transform="translate(0,10)"><path class="cbline" d="M560,347.25h30" style="fill: none; stroke: rgb(0, 0, 0); stroke-opacity: 1; stroke-width: 0.5px;"/><path class="cbline" d="M560,306.25h30" style="fill: none; stroke: rgb(0, 0, 0); stroke-opacity: 1; stroke-width: 0.5px;"/><path class="cbline" d="M560,265.25h30" style="fill: none; stroke: rgb(0, 0, 0); stroke-opacity: 1; stroke-width: 0.5px;"/><path class="cbline" d="M560,224.25h30" style="fill: none; stroke: rgb(0, 0, 0); stroke-opacity: 1; stroke-width: 0.5px;"/><path class="cbline" d="M560,184.25h30" style="fill: none; stroke: rgb(0, 0, 0); stroke-opacity: 1; stroke-width: 0.5px;"/><path class="cbline" d="M560,143.25h30" style="fill: none; stroke: rgb(0, 0, 0); stroke-opacity: 1; stroke-width: 0.5px;"/><path class="cbline" d="M560,102.25h30" style="fill: none; stroke: rgb(0, 0, 0); stroke-opacity: 1; stroke-width: 0.5px;"/><path class="cbline" d="M560,61.25h30" style="fill: none; stroke: rgb(0, 0, 0); stroke-opacity: 1; stroke-width: 0.5px;"/><path class="cbline" d="M560,20.25h30" style="fill: none; stroke: rgb(0, 0, 0); stroke-opacity: 1; stroke-width: 0.5px;"/></g><g class="cbaxis crisp" transform="translate(0,-60)"><g class="ycbe606actick"><text text-anchor="start" x="592.9" y="4.199999999999999" transform="translate(0,416.61)" style="font-family: 'Open Sans', verdana, arial, sans-serif; font-size: 12px; fill: rgb(42, 63, 95); fill-opacity: 1; white-space: pre;">463</text></g><g class="ycbe606actick"><text text-anchor="start" x="592.9" y="4.199999999999999" transform="translate(0,335.06)" style="font-family: 'Open Sans', verdana, arial, sans-serif; font-size: 12px; fill: rgb(42, 63, 95); fill-opacity: 1; white-space: pre;">730</text></g><g class="ycbe606actick"><text text-anchor="start" x="592.9" y="4.199999999999999" transform="translate(0,253.5)" style="font-family: 'Open Sans', verdana, arial, sans-serif; font-size: 12px; fill: rgb(42, 63, 95); fill-opacity: 1; white-space: pre;">998</text></g><g class="ycbe606actick"><text text-anchor="start" x="592.9" y="4.199999999999999" transform="translate(0,171.94)" style="font-family: 'Open Sans', verdana, arial, sans-serif; font-size: 12px; fill: rgb(42, 63, 95); fill-opacity: 1; white-space: pre;">1265</text></g><g class="ycbe606actick"><text text-anchor="start" x="592.9" y="4.199999999999999" transform="translate(0,90.39)" style="font-family: 'Open Sans', verdana, arial, sans-serif; font-size: 12px; fill: rgb(42, 63, 95); fill-opacity: 1; white-space: pre;">1533</text></g></g><g class="cbtitleunshift" transform="translate(-57,-60)"><g class="cbtitle"/></g><rect class="cboutline" x="560" y="10" width="30" height="367" style="stroke: rgb(68, 68, 68); stroke-opacity: 1; fill: none; stroke-width: 0;"/></g><g class="g-gtitle"/><g class="g-xtitle"><text class="xtitle" x="326.5" y="487.8" text-anchor="middle" style="font-family: 'Open Sans', verdana, arial, sans-serif; font-size: 14px; fill: rgb(42, 63, 95); opacity: 1; font-weight: normal; white-space: pre;">λ_ind, produkty oceniane osobiście</text></g><g class="g-ytitle" transform="translate(2.4248046875,0)"><text class="ytitle" transform="rotate(-90,11.575000000000003,253.5)" x="11.575000000000003" y="253.5" text-anchor="middle" style="font-family: 'Open Sans', verdana, arial, sans-serif; font-size: 14px; fill: rgb(42, 63, 95); opacity: 1; font-weight: normal; white-space: pre;">λ_wom, produkty oceniane przez sąsiadów</text></g></g></svg>