<?xml version="1.0" encoding="utf-8"?>
<svg xmlns="http://www.w3.org/2000/svg" xmlns:xlink="http://www.w3.org/1999/xlink" width="600" height="400" viewBox="0 0 2400 1600">
<defs>
  <clipPath id="clip740">
    <rect x="0" y="0" width="2400" height="1600"/>
  </clipPath>
</defs>
<path clip-path="url(#clip740)" d="
M0 1600 L2400 1600 L2400 0 L0 0  Z
  " fill="#ffffff" fill-rule="evenodd" fill-opacity="1"/>
<defs>
  <clipPath id="clip741">
    <rect x="480" y="0" width="1681" height="1600"/>
  </clipPath>
</defs>
<path clip-path="url(#clip740)" d="
M250.028 1423.18 L2352.76 1423.18 L2352.76 123.472 L250.028 123.472  Z
  " fill="#ffffff" fill-rule="evenodd" fill-opacity="1"/>
<defs>
  <clipPath id="clip742">
    <rect x="250" y="123" width="2104" height="1301"/>
  </clipPath>
</defs>
<polyline clip-path="url(#clip742)" style="stroke:#000000; stroke-linecap:butt; stroke-linejoin:round; stroke-width:2; stroke-opacity:0.1; fill:none" points="
  365.682,1423.18 365.682,123.472 
  "/>
<polyline clip-path="url(#clip742)" style="stroke:#000000; stroke-linecap:butt; stroke-linejoin:round; stroke-width:2; stroke-opacity:0.1; fill:none" points="
  900.373,1423.18 900.373,123.472 
  "/>
<polyline clip-path="url(#clip742)" style="stroke:#000000; stroke-linecap:butt; stroke-linejoin:round; stroke-width:2; stroke-opacity:0.1; fill:none" points="
  1435.06,1423.18 1435.06,123.472 
  "/>
<polyline clip-path="url(#clip742)" style="stroke:#000000; stroke-linecap:butt; stroke-linejoin:round; stroke-width:2; stroke-opacity:0.1; fill:none" points="
  1969.76,1423.18 1969.76,123.472 
  "/>
<polyline clip-path="url(#clip740)" style="stroke:#000000; stroke-linecap:butt; stroke-linejoin:round; stroke-width:4; stroke-opacity:1; fill:none" points="
  250.028,1423.18 2352.76,1423.18 
  "/>
<polyline clip-path="url(#clip740)" style="stroke:#000000; stroke-linecap:butt; stroke-linejoin:round; stroke-width:4; stroke-opacity:1; fill:none" points="
  365.682,1423.18 365.682,1404.28 
  "/>
<polyline clip-path="url(#clip740)" style="stroke:#000000; stroke-linecap:butt; stroke-linejoin:round; stroke-width:4; stroke-opacity:1; fill:none" points="
  900.373,1423.18 900.373,1404.28 
  "/>
<polyline clip-path="url(#clip740)" style="stroke:#000000; stroke-linecap:butt; stroke-linejoin:round; stroke-width:4; stroke-opacity:1; fill:none" points="
  1435.06,1423.18 1435.06,1404.28 
  "/>
<polyline clip-path="url(#clip740)" style="stroke:#000000; stroke-linecap:butt; stroke-linejoin:round; stroke-width:4; stroke-opacity:1; fill:none" points="
  1969.76,1423.18 1969.76,1404.28 
  "/>
<path clip-path="url(#clip740)" d="M365.682 1454.1 Q362.071 1454.1 360.242 1457.66 Q358.437 1461.2 358.437 1468.33 Q358.437 1475.44 360.242 1479.01 Q362.071 1482.55 365.682 1482.55 Q369.316 1482.55 371.122 1479.01 Q372.95 1475.44 372.95 1468.33 Q372.95 1461.2 371.122 1457.66 Q369.316 1454.1 365.682 1454.1 M365.682 1450.39 Q371.492 1450.39 374.548 1455 Q377.626 1459.58 377.626 1468.33 Q377.626 1477.06 374.548 1481.67 Q371.492 1486.25 365.682 1486.25 Q359.872 1486.25 356.793 1481.67 Q353.738 1477.06 353.738 1468.33 Q353.738 1459.58 356.793 1455 Q359.872 1450.39 365.682 1450.39 Z" fill="#000000" fill-rule="evenodd" fill-opacity="1" /><path clip-path="url(#clip740)" d="M879.147 1481.64 L895.466 1481.64 L895.466 1485.58 L873.522 1485.58 L873.522 1481.64 Q876.184 1478.89 880.767 1474.26 Q885.373 1469.61 886.554 1468.27 Q888.799 1465.74 889.679 1464.01 Q890.582 1462.25 890.582 1460.56 Q890.582 1457.8 888.637 1456.07 Q886.716 1454.33 883.614 1454.33 Q881.415 1454.33 878.961 1455.09 Q876.531 1455.86 873.753 1457.41 L873.753 1452.69 Q876.577 1451.55 879.031 1450.97 Q881.485 1450.39 883.522 1450.39 Q888.892 1450.39 892.086 1453.08 Q895.281 1455.77 895.281 1460.26 Q895.281 1462.39 894.471 1464.31 Q893.684 1466.2 891.577 1468.8 Q890.998 1469.47 887.897 1472.69 Q884.795 1475.88 879.147 1481.64 Z" fill="#000000" fill-rule="evenodd" fill-opacity="1" /><path clip-path="url(#clip740)" d="M915.281 1454.1 Q911.67 1454.1 909.841 1457.66 Q908.035 1461.2 908.035 1468.33 Q908.035 1475.44 909.841 1479.01 Q911.67 1482.55 915.281 1482.55 Q918.915 1482.55 920.721 1479.01 Q922.549 1475.44 922.549 1468.33 Q922.549 1461.2 920.721 1457.66 Q918.915 1454.1 915.281 1454.1 M915.281 1450.39 Q921.091 1450.39 924.146 1455 Q927.225 1459.58 927.225 1468.33 Q927.225 1477.06 924.146 1481.67 Q921.091 1486.25 915.281 1486.25 Q909.471 1486.25 906.392 1481.67 Q903.336 1477.06 903.336 1468.33 Q903.336 1459.58 906.392 1455 Q909.471 1450.39 915.281 1450.39 Z" fill="#000000" fill-rule="evenodd" fill-opacity="1" /><path clip-path="url(#clip740)" d="M1423.24 1455.09 L1411.43 1473.54 L1423.24 1473.54 L1423.24 1455.09 M1422.01 1451.02 L1427.89 1451.02 L1427.89 1473.54 L1432.82 1473.54 L1432.82 1477.43 L1427.89 1477.43 L1427.89 1485.58 L1423.24 1485.58 L1423.24 1477.43 L1407.63 1477.43 L1407.63 1472.92 L1422.01 1451.02 Z" fill="#000000" fill-rule="evenodd" fill-opacity="1" /><path clip-path="url(#clip740)" d="M1450.55 1454.1 Q1446.94 1454.1 1445.11 1457.66 Q1443.31 1461.2 1443.31 1468.33 Q1443.31 1475.44 1445.11 1479.01 Q1446.94 1482.55 1450.55 1482.55 Q1454.19 1482.55 1455.99 1479.01 Q1457.82 1475.44 1457.82 1468.33 Q1457.82 1461.2 1455.99 1457.66 Q1454.19 1454.1 1450.55 1454.1 M1450.55 1450.39 Q1456.36 1450.39 1459.42 1455 Q1462.5 1459.58 1462.5 1468.33 Q1462.5 1477.06 1459.42 1481.67 Q1456.36 1486.25 1450.55 1486.25 Q1444.74 1486.25 1441.66 1481.67 Q1438.61 1477.06 1438.61 1468.33 Q1438.61 1459.58 1441.66 1455 Q1444.74 1450.39 1450.55 1450.39 Z" fill="#000000" fill-rule="evenodd" fill-opacity="1" /><path clip-path="url(#clip740)" d="M1955.16 1466.44 Q1952.01 1466.44 1950.16 1468.59 Q1948.33 1470.74 1948.33 1474.49 Q1948.33 1478.22 1950.16 1480.39 Q1952.01 1482.55 1955.16 1482.55 Q1958.31 1482.55 1960.14 1480.39 Q1961.99 1478.22 1961.99 1474.49 Q1961.99 1470.74 1960.14 1468.59 Q1958.31 1466.44 1955.16 1466.44 M1964.44 1451.78 L1964.44 1456.04 Q1962.68 1455.21 1960.88 1454.77 Q1959.1 1454.33 1957.34 1454.33 Q1952.71 1454.33 1950.25 1457.45 Q1947.82 1460.58 1947.48 1466.9 Q1948.84 1464.89 1950.9 1463.82 Q1952.96 1462.73 1955.44 1462.73 Q1960.65 1462.73 1963.66 1465.9 Q1966.69 1469.05 1966.69 1474.49 Q1966.69 1479.82 1963.54 1483.03 Q1960.39 1486.25 1955.16 1486.25 Q1949.17 1486.25 1945.99 1481.67 Q1942.82 1477.06 1942.82 1468.33 Q1942.82 1460.14 1946.71 1455.28 Q1950.6 1450.39 1957.15 1450.39 Q1958.91 1450.39 1960.69 1450.74 Q1962.5 1451.09 1964.44 1451.78 Z" fill="#000000" fill-rule="evenodd" fill-opacity="1" /><path clip-path="url(#clip740)" d="M1984.74 1454.1 Q1981.13 1454.1 1979.3 1457.66 Q1977.5 1461.2 1977.5 1468.33 Q1977.5 1475.44 1979.3 1479.01 Q1981.13 1482.55 1984.74 1482.55 Q1988.38 1482.55 1990.18 1479.01 Q1992.01 1475.44 1992.01 1468.33 Q1992.01 1461.2 1990.18 1457.66 Q1988.38 1454.1 1984.74 1454.1 M1984.74 1450.39 Q1990.55 1450.39 1993.61 1455 Q1996.69 1459.58 1996.69 1468.33 Q1996.69 1477.06 1993.61 1481.67 Q1990.55 1486.25 1984.74 1486.25 Q1978.93 1486.25 1975.86 1481.67 Q1972.8 1477.06 1972.8 1468.33 Q1972.8 1459.58 1975.86 1455 Q1978.93 1450.39 1984.74 1450.39 Z" fill="#000000" fill-rule="evenodd" fill-opacity="1" /><path clip-path="url(#clip740)" d="M967.654 1524.18 L967.654 1530.96 Q964.407 1527.94 960.715 1526.44 Q957.055 1524.95 952.917 1524.95 Q944.769 1524.95 940.441 1529.95 Q936.112 1534.91 936.112 1544.33 Q936.112 1553.72 940.441 1558.72 Q944.769 1563.68 952.917 1563.68 Q957.055 1563.68 960.715 1562.19 Q964.407 1560.69 967.654 1557.67 L967.654 1564.38 Q964.28 1566.68 960.493 1567.82 Q956.737 1568.97 952.535 1568.97 Q941.746 1568.97 935.539 1562.38 Q929.332 1555.76 929.332 1544.33 Q929.332 1532.87 935.539 1526.28 Q941.746 1519.66 952.535 1519.66 Q956.8 1519.66 960.556 1520.81 Q964.344 1521.92 967.654 1524.18 Z" fill="#000000" fill-rule="evenodd" fill-opacity="1" /><path clip-path="url(#clip740)" d="M974.784 1532.4 L1002.6 1532.4 L1002.6 1537.74 L980.576 1563.37 L1002.6 1563.37 L1002.6 1568.04 L973.988 1568.04 L973.988 1562.7 L996.013 1537.07 L974.784 1537.07 L974.784 1532.4 Z" fill="#000000" fill-rule="evenodd" fill-opacity="1" /><path clip-path="url(#clip740)" d="M1042.04 1548.76 L1042.04 1551.62 L1015.11 1551.62 Q1015.49 1557.67 1018.74 1560.85 Q1022.02 1564 1027.84 1564 Q1031.22 1564 1034.37 1563.17 Q1037.55 1562.35 1040.67 1560.69 L1040.67 1566.23 Q1037.52 1567.57 1034.21 1568.27 Q1030.9 1568.97 1027.49 1568.97 Q1018.96 1568.97 1013.96 1564 Q1009 1559.04 1009 1550.57 Q1009 1541.82 1013.71 1536.69 Q1018.45 1531.54 1026.47 1531.54 Q1033.67 1531.54 1037.84 1536.18 Q1042.04 1540.8 1042.04 1548.76 M1036.18 1547.04 Q1036.12 1542.23 1033.48 1539.37 Q1030.87 1536.5 1026.54 1536.5 Q1021.64 1536.5 1018.68 1539.27 Q1015.75 1542.04 1015.3 1547.07 L1036.18 1547.04 M1031.37 1568.04 L1035.16 1568.04 Q1033.73 1569.99 1033.03 1571.39 Q1032.36 1572.79 1032.36 1573.77 Q1032.36 1575.24 1033.22 1575.97 Q1034.11 1576.7 1035.83 1576.7 Q1036.85 1576.7 1037.84 1576.45 Q1038.82 1576.22 1039.81 1575.75 L1039.81 1579.98 Q1038.6 1580.3 1037.52 1580.46 Q1036.44 1580.62 1035.48 1580.62 Q1031.6 1580.62 1029.75 1579.22 Q1027.94 1577.85 1027.94 1574.89 Q1027.94 1573.36 1028.76 1571.67 Q1029.62 1570.02 1031.37 1568.04 Z" fill="#000000" fill-rule="evenodd" fill-opacity="1" /><path clip-path="url(#clip740)" d="M1074.38 1533.45 L1074.38 1538.98 Q1071.89 1537.71 1069.22 1537.07 Q1066.55 1536.44 1063.68 1536.44 Q1059.32 1536.44 1057.12 1537.77 Q1054.96 1539.11 1054.96 1541.79 Q1054.96 1543.82 1056.52 1545 Q1058.08 1546.15 1062.79 1547.2 L1064.79 1547.64 Q1071.03 1548.98 1073.64 1551.43 Q1076.28 1553.85 1076.28 1558.21 Q1076.28 1563.17 1072.34 1566.07 Q1068.42 1568.97 1061.55 1568.97 Q1058.68 1568.97 1055.56 1568.39 Q1052.48 1567.85 1049.04 1566.74 L1049.04 1560.69 Q1052.29 1562.38 1055.44 1563.24 Q1058.59 1564.07 1061.68 1564.07 Q1065.81 1564.07 1068.04 1562.66 Q1070.27 1561.23 1070.27 1558.65 Q1070.27 1556.27 1068.65 1554.99 Q1067.05 1553.72 1061.61 1552.54 L1059.57 1552.07 Q1054.13 1550.92 1051.71 1548.56 Q1049.29 1546.18 1049.29 1542.04 Q1049.29 1537.01 1052.86 1534.27 Q1056.42 1531.54 1062.98 1531.54 Q1066.23 1531.54 1069.09 1532.01 Q1071.96 1532.49 1074.38 1533.45 Z" fill="#000000" fill-rule="evenodd" fill-opacity="1" /><path clip-path="url(#clip740)" d="M1091.4 1522.27 L1091.4 1532.4 L1103.47 1532.4 L1103.47 1536.95 L1091.4 1536.95 L1091.4 1556.3 Q1091.4 1560.66 1092.58 1561.9 Q1093.79 1563.14 1097.45 1563.14 L1103.47 1563.14 L1103.47 1568.04 L1097.45 1568.04 Q1090.67 1568.04 1088.09 1565.53 Q1085.51 1562.98 1085.51 1556.3 L1085.51 1536.95 L1081.22 1536.95 L1081.22 1532.4 L1085.51 1532.4 L1085.51 1522.27 L1091.4 1522.27 Z" fill="#000000" fill-rule="evenodd" fill-opacity="1" /><path clip-path="url(#clip740)" d="M1124.98 1536.5 Q1120.27 1536.5 1117.53 1540.19 Q1114.8 1543.85 1114.8 1550.25 Q1114.8 1556.65 1117.5 1560.34 Q1120.24 1564 1124.98 1564 Q1129.66 1564 1132.4 1560.31 Q1135.14 1556.62 1135.14 1550.25 Q1135.14 1543.92 1132.4 1540.23 Q1129.66 1536.5 1124.98 1536.5 M1124.98 1531.54 Q1132.62 1531.54 1136.98 1536.5 Q1141.34 1541.47 1141.34 1550.25 Q1141.34 1559 1136.98 1564 Q1132.62 1568.97 1124.98 1568.97 Q1117.31 1568.97 1112.95 1564 Q1108.62 1559 1108.62 1550.25 Q1108.62 1541.47 1112.95 1536.5 Q1117.31 1531.54 1124.98 1531.54 Z" fill="#000000" fill-rule="evenodd" fill-opacity="1" /><path clip-path="url(#clip740)" d="M1156.84 1522.27 L1156.84 1532.4 L1168.91 1532.4 L1168.91 1536.95 L1156.84 1536.95 L1156.84 1556.3 Q1156.84 1560.66 1158.02 1561.9 Q1159.23 1563.14 1162.89 1563.14 L1168.91 1563.14 L1168.91 1568.04 L1162.89 1568.04 Q1156.11 1568.04 1153.53 1565.53 Q1150.95 1562.98 1150.95 1556.3 L1150.95 1536.95 L1146.66 1536.95 L1146.66 1532.4 L1150.95 1532.4 L1150.95 1522.27 L1156.84 1522.27 Z" fill="#000000" fill-rule="evenodd" fill-opacity="1" /><path clip-path="url(#clip740)" d="M1176.61 1518.52 L1182.46 1518.52 L1182.46 1568.04 L1176.61 1568.04 L1176.61 1518.52 Z" fill="#000000" fill-rule="evenodd" fill-opacity="1" /><path clip-path="url(#clip740)" d="M1194.72 1532.4 L1200.58 1532.4 L1200.58 1568.04 L1194.72 1568.04 L1194.72 1532.4 M1194.72 1518.52 L1200.58 1518.52 L1200.58 1525.93 L1194.72 1525.93 L1194.72 1518.52 Z" fill="#000000" fill-rule="evenodd" fill-opacity="1" /><path clip-path="url(#clip740)" d="M1209.42 1532.4 L1215.28 1532.4 L1222.6 1560.21 L1229.89 1532.4 L1236.8 1532.4 L1244.12 1560.21 L1251.41 1532.4 L1257.26 1532.4 L1247.94 1568.04 L1241.03 1568.04 L1233.36 1538.83 L1225.66 1568.04 L1218.75 1568.04 L1209.42 1532.4 Z" fill="#000000" fill-rule="evenodd" fill-opacity="1" /><path clip-path="url(#clip740)" d="M1279.96 1536.5 Q1275.24 1536.5 1272.51 1540.19 Q1269.77 1543.85 1269.77 1550.25 Q1269.77 1556.65 1272.48 1560.34 Q1275.21 1564 1279.96 1564 Q1284.63 1564 1287.37 1560.31 Q1290.11 1556.62 1290.11 1550.25 Q1290.11 1543.92 1287.37 1540.23 Q1284.63 1536.5 1279.96 1536.5 M1279.96 1531.54 Q1287.59 1531.54 1291.95 1536.5 Q1296.32 1541.47 1296.32 1550.25 Q1296.32 1559 1291.95 1564 Q1287.59 1568.97 1279.96 1568.97 Q1272.28 1568.97 1267.92 1564 Q1263.6 1559 1263.6 1550.25 Q1263.6 1541.47 1267.92 1536.5 Q1272.28 1531.54 1279.96 1531.54 Z" fill="#000000" fill-rule="evenodd" fill-opacity="1" /><path clip-path="url(#clip740)" d="M1322.7 1515.69 L1329.04 1515.69 L1318.66 1527.65 L1313.79 1527.65 L1322.7 1515.69 M1328.75 1533.45 L1328.75 1538.98 Q1326.27 1537.71 1323.59 1537.07 Q1320.92 1536.44 1318.05 1536.44 Q1313.69 1536.44 1311.5 1537.77 Q1309.33 1539.11 1309.33 1541.79 Q1309.33 1543.82 1310.89 1545 Q1312.45 1546.15 1317.16 1547.2 L1319.17 1547.64 Q1325.41 1548.98 1328.02 1551.43 Q1330.66 1553.85 1330.66 1558.21 Q1330.66 1563.17 1326.71 1566.07 Q1322.8 1568.97 1315.92 1568.97 Q1313.06 1568.97 1309.94 1568.39 Q1306.85 1567.85 1303.41 1566.74 L1303.41 1560.69 Q1306.66 1562.38 1309.81 1563.24 Q1312.96 1564.07 1316.05 1564.07 Q1320.19 1564.07 1322.41 1562.66 Q1324.64 1561.23 1324.64 1558.65 Q1324.64 1556.27 1323.02 1554.99 Q1321.43 1553.72 1315.99 1552.54 L1313.95 1552.07 Q1308.51 1550.92 1306.09 1548.56 Q1303.67 1546.18 1303.67 1542.04 Q1303.67 1537.01 1307.23 1534.27 Q1310.8 1531.54 1317.35 1531.54 Q1320.6 1531.54 1323.47 1532.01 Q1326.33 1532.49 1328.75 1533.45 Z" fill="#000000" fill-rule="evenodd" fill-opacity="1" /><path clip-path="url(#clip740)" d="M1365.64 1533.76 L1365.64 1539.24 Q1363.16 1537.87 1360.64 1537.2 Q1358.16 1536.5 1355.61 1536.5 Q1349.91 1536.5 1346.76 1540.13 Q1343.61 1543.73 1343.61 1550.25 Q1343.61 1556.78 1346.76 1560.4 Q1349.91 1564 1355.61 1564 Q1358.16 1564 1360.64 1563.33 Q1363.16 1562.63 1365.64 1561.26 L1365.64 1566.68 Q1363.19 1567.82 1360.55 1568.39 Q1357.94 1568.97 1354.98 1568.97 Q1346.92 1568.97 1342.18 1563.91 Q1337.44 1558.85 1337.44 1550.25 Q1337.44 1541.53 1342.21 1536.53 Q1347.02 1531.54 1355.36 1531.54 Q1358.06 1531.54 1360.64 1532.11 Q1363.22 1532.65 1365.64 1533.76 M1358.92 1515.91 L1365.26 1515.91 L1354.88 1527.88 L1350.01 1527.88 L1358.92 1515.91 Z" fill="#000000" fill-rule="evenodd" fill-opacity="1" /><path clip-path="url(#clip740)" d="M1394 1532.4 L1421.82 1532.4 L1421.82 1537.74 L1399.79 1563.37 L1421.82 1563.37 L1421.82 1568.04 L1393.2 1568.04 L1393.2 1562.7 L1415.23 1537.07 L1394 1537.07 L1394 1532.4 Z" fill="#000000" fill-rule="evenodd" fill-opacity="1" /><path clip-path="url(#clip740)" d="M1446.96 1550.12 Q1439.86 1550.12 1437.12 1551.75 Q1434.39 1553.37 1434.39 1557.29 Q1434.39 1560.4 1436.42 1562.25 Q1438.49 1564.07 1442.03 1564.07 Q1446.9 1564.07 1449.82 1560.63 Q1452.78 1557.16 1452.78 1551.43 L1452.78 1550.12 L1446.96 1550.12 M1458.64 1547.71 L1458.64 1568.04 L1452.78 1568.04 L1452.78 1562.63 Q1450.78 1565.88 1447.79 1567.44 Q1444.8 1568.97 1440.47 1568.97 Q1434.99 1568.97 1431.75 1565.91 Q1428.53 1562.82 1428.53 1557.67 Q1428.53 1551.65 1432.54 1548.6 Q1436.58 1545.54 1444.57 1545.54 L1452.78 1545.54 L1452.78 1544.97 Q1452.78 1540.93 1450.11 1538.73 Q1447.47 1536.5 1442.66 1536.5 Q1439.61 1536.5 1436.71 1537.23 Q1433.81 1537.97 1431.14 1539.43 L1431.14 1534.02 Q1434.36 1532.78 1437.38 1532.17 Q1440.4 1531.54 1443.27 1531.54 Q1451 1531.54 1454.82 1535.55 Q1458.64 1539.56 1458.64 1547.71 Z" fill="#000000" fill-rule="evenodd" fill-opacity="1" /><path clip-path="url(#clip740)" d="M1470.48 1518.52 L1476.37 1518.52 L1476.37 1547.77 L1493.84 1532.4 L1501.32 1532.4 L1482.42 1549.07 L1502.12 1568.04 L1494.48 1568.04 L1476.37 1550.63 L1476.37 1568.04 L1470.48 1568.04 L1470.48 1518.52 Z" fill="#000000" fill-rule="evenodd" fill-opacity="1" /><path clip-path="url(#clip740)" d="M1505.84 1553.98 L1505.84 1532.4 L1511.7 1532.4 L1511.7 1553.75 Q1511.7 1558.81 1513.67 1561.36 Q1515.65 1563.87 1519.59 1563.87 Q1524.33 1563.87 1527.07 1560.85 Q1529.84 1557.83 1529.84 1552.61 L1529.84 1532.4 L1535.7 1532.4 L1535.7 1568.04 L1529.84 1568.04 L1529.84 1562.57 Q1527.71 1565.82 1524.88 1567.41 Q1522.08 1568.97 1518.35 1568.97 Q1512.21 1568.97 1509.03 1565.15 Q1505.84 1561.33 1505.84 1553.98 M1520.58 1531.54 L1520.58 1531.54 Z" fill="#000000" fill-rule="evenodd" fill-opacity="1" /><path clip-path="url(#clip740)" d="M1553.43 1562.7 L1553.43 1581.6 L1547.54 1581.6 L1547.54 1532.4 L1553.43 1532.4 L1553.43 1537.81 Q1555.27 1534.62 1558.07 1533.1 Q1560.91 1531.54 1564.82 1531.54 Q1571.31 1531.54 1575.36 1536.69 Q1579.43 1541.85 1579.43 1550.25 Q1579.43 1558.65 1575.36 1563.81 Q1571.31 1568.97 1564.82 1568.97 Q1560.91 1568.97 1558.07 1567.44 Q1555.27 1565.88 1553.43 1562.7 M1573.35 1550.25 Q1573.35 1543.79 1570.68 1540.13 Q1568.04 1536.44 1563.39 1536.44 Q1558.74 1536.44 1556.07 1540.13 Q1553.43 1543.79 1553.43 1550.25 Q1553.43 1556.71 1556.07 1560.4 Q1558.74 1564.07 1563.39 1564.07 Q1568.04 1564.07 1570.68 1560.4 Q1573.35 1556.71 1573.35 1550.25 Z" fill="#000000" fill-rule="evenodd" fill-opacity="1" /><path clip-path="url(#clip740)" d="M1602.95 1536.5 Q1598.24 1536.5 1595.5 1540.19 Q1592.77 1543.85 1592.77 1550.25 Q1592.77 1556.65 1595.47 1560.34 Q1598.21 1564 1602.95 1564 Q1607.63 1564 1610.37 1560.31 Q1613.1 1556.62 1613.1 1550.25 Q1613.1 1543.92 1610.37 1540.23 Q1607.63 1536.5 1602.95 1536.5 M1602.95 1531.54 Q1610.59 1531.54 1614.95 1536.5 Q1619.31 1541.47 1619.31 1550.25 Q1619.31 1559 1614.95 1564 Q1610.59 1568.97 1602.95 1568.97 Q1595.28 1568.97 1590.92 1564 Q1586.59 1559 1586.59 1550.25 Q1586.59 1541.47 1590.92 1536.5 Q1595.28 1531.54 1602.95 1531.54 M1607.38 1515.91 L1613.71 1515.91 L1603.33 1527.88 L1598.46 1527.88 L1607.38 1515.91 Z" fill="#000000" fill-rule="evenodd" fill-opacity="1" /><path clip-path="url(#clip740)" d="M1625.61 1532.4 L1631.47 1532.4 L1638.79 1560.21 L1646.08 1532.4 L1652.99 1532.4 L1660.31 1560.21 L1667.6 1532.4 L1673.45 1532.4 L1664.13 1568.04 L1657.22 1568.04 L1649.55 1538.83 L1641.85 1568.04 L1634.94 1568.04 L1625.61 1532.4 Z" fill="#000000" fill-rule="evenodd" fill-opacity="1" /><polyline clip-path="url(#clip742)" style="stroke:#000000; stroke-linecap:butt; stroke-linejoin:round; stroke-width:2; stroke-opacity:0.1; fill:none" points="
  250.028,1423.18 2352.76,1423.18 
  "/>
<polyline clip-path="url(#clip742)" style="stroke:#000000; stroke-linecap:butt; stroke-linejoin:round; stroke-width:2; stroke-opacity:0.1; fill:none" points="
  250.028,1098.25 2352.76,1098.25 
  "/>
<polyline clip-path="url(#clip742)" style="stroke:#000000; stroke-linecap:butt; stroke-linejoin:round; stroke-width:2; stroke-opacity:0.1; fill:none" points="
  250.028,773.326 2352.76,773.326 
  "/>
<polyline clip-path="url(#clip742)" style="stroke:#000000; stroke-linecap:butt; stroke-linejoin:round; stroke-width:2; stroke-opacity:0.1; fill:none" points="
  250.028,448.399 2352.76,448.399 
  "/>
<polyline clip-path="url(#clip742)" style="stroke:#000000; stroke-linecap:butt; stroke-linejoin:round; stroke-width:2; stroke-opacity:0.1; fill:none" points="
  250.028,123.472 2352.76,123.472 
  "/>
<polyline clip-path="url(#clip740)" style="stroke:#000000; stroke-linecap:butt; stroke-linejoin:round; stroke-width:4; stroke-opacity:1; fill:none" points="
  250.028,1423.18 250.028,123.472 
  "/>
<polyline clip-path="url(#clip740)" style="stroke:#000000; stroke-linecap:butt; stroke-linejoin:round; stroke-width:4; stroke-opacity:1; fill:none" points="
  250.028,1423.18 268.926,1423.18 
  "/>
<polyline clip-path="url(#clip740)" style="stroke:#000000; stroke-linecap:butt; stroke-linejoin:round; stroke-width:4; stroke-opacity:1; fill:none" points="
  250.028,1098.25 268.926,1098.25 
  "/>
<polyline clip-path="url(#clip740)" style="stroke:#000000; stroke-linecap:butt; stroke-linejoin:round; stroke-width:4; stroke-opacity:1; fill:none" points="
  250.028,773.326 268.926,773.326 
  "/>
<polyline clip-path="url(#clip740)" style="stroke:#000000; stroke-linecap:butt; stroke-linejoin:round; stroke-width:4; stroke-opacity:1; fill:none" points="
  250.028,448.399 268.926,448.399 
  "/>
<polyline clip-path="url(#clip740)" style="stroke:#000000; stroke-linecap:butt; stroke-linejoin:round; stroke-width:4; stroke-opacity:1; fill:none" points="
  250.028,123.472 268.926,123.472 
  "/>
<path clip-path="url(#clip740)" d="M126.691 1408.98 Q123.08 1408.98 121.251 1412.54 Q119.445 1416.08 119.445 1423.21 Q119.445 1430.32 121.251 1433.89 Q123.08 1437.43 126.691 1437.43 Q130.325 1437.43 132.13 1433.89 Q133.959 1430.32 133.959 1423.21 Q133.959 1416.08 132.13 1412.54 Q130.325 1408.98 126.691 1408.98 M126.691 1405.27 Q132.501 1405.27 135.556 1409.88 Q138.635 1414.46 138.635 1423.21 Q138.635 1431.94 135.556 1436.55 Q132.501 1441.13 126.691 1441.13 Q120.88 1441.13 117.802 1436.55 Q114.746 1431.94 114.746 1423.21 Q114.746 1414.46 117.802 1409.88 Q120.88 1405.27 126.691 1405.27 Z" fill="#000000" fill-rule="evenodd" fill-opacity="1" /><path clip-path="url(#clip740)" d="M146.853 1434.58 L151.737 1434.58 L151.737 1440.46 L146.853 1440.46 L146.853 1434.58 Z" fill="#000000" fill-rule="evenodd" fill-opacity="1" /><path clip-path="url(#clip740)" d="M171.922 1408.98 Q168.311 1408.98 166.482 1412.54 Q164.677 1416.08 164.677 1423.21 Q164.677 1430.32 166.482 1433.89 Q168.311 1437.43 171.922 1437.43 Q175.556 1437.43 177.362 1433.89 Q179.19 1430.32 179.19 1423.21 Q179.19 1416.08 177.362 1412.54 Q175.556 1408.98 171.922 1408.98 M171.922 1405.27 Q177.732 1405.27 180.788 1409.88 Q183.866 1414.46 183.866 1423.21 Q183.866 1431.94 180.788 1436.55 Q177.732 1441.13 171.922 1441.13 Q166.112 1441.13 163.033 1436.55 Q159.978 1431.94 159.978 1423.21 Q159.978 1414.46 163.033 1409.88 Q166.112 1405.27 171.922 1405.27 Z" fill="#000000" fill-rule="evenodd" fill-opacity="1" /><path clip-path="url(#clip740)" d="M202.084 1408.98 Q198.473 1408.98 196.644 1412.54 Q194.838 1416.08 194.838 1423.21 Q194.838 1430.32 196.644 1433.89 Q198.473 1437.43 202.084 1437.43 Q205.718 1437.43 207.524 1433.89 Q209.352 1430.32 209.352 1423.21 Q209.352 1416.08 207.524 1412.54 Q205.718 1408.98 202.084 1408.98 M202.084 1405.27 Q207.894 1405.27 210.949 1409.88 Q214.028 1414.46 214.028 1423.21 Q214.028 1431.94 210.949 1436.55 Q207.894 1441.13 202.084 1441.13 Q196.274 1441.13 193.195 1436.55 Q190.139 1431.94 190.139 1423.21 Q190.139 1414.46 193.195 1409.88 Q196.274 1405.27 202.084 1405.27 Z" fill="#000000" fill-rule="evenodd" fill-opacity="1" /><path clip-path="url(#clip740)" d="M128.288 1084.05 Q124.677 1084.05 122.848 1087.62 Q121.043 1091.16 121.043 1098.29 Q121.043 1105.39 122.848 1108.96 Q124.677 1112.5 128.288 1112.5 Q131.922 1112.5 133.728 1108.96 Q135.556 1105.39 135.556 1098.29 Q135.556 1091.16 133.728 1087.62 Q131.922 1084.05 128.288 1084.05 M128.288 1080.35 Q134.098 1080.35 137.154 1084.95 Q140.232 1089.54 140.232 1098.29 Q140.232 1107.01 137.154 1111.62 Q134.098 1116.2 128.288 1116.2 Q122.478 1116.2 119.399 1111.62 Q116.343 1107.01 116.343 1098.29 Q116.343 1089.54 119.399 1084.95 Q122.478 1080.35 128.288 1080.35 Z" fill="#000000" fill-rule="evenodd" fill-opacity="1" /><path clip-path="url(#clip740)" d="M148.45 1109.65 L153.334 1109.65 L153.334 1115.53 L148.45 1115.53 L148.45 1109.65 Z" fill="#000000" fill-rule="evenodd" fill-opacity="1" /><path clip-path="url(#clip740)" d="M173.519 1084.05 Q169.908 1084.05 168.079 1087.62 Q166.274 1091.16 166.274 1098.29 Q166.274 1105.39 168.079 1108.96 Q169.908 1112.5 173.519 1112.5 Q177.153 1112.5 178.959 1108.96 Q180.788 1105.39 180.788 1098.29 Q180.788 1091.16 178.959 1087.62 Q177.153 1084.05 173.519 1084.05 M173.519 1080.35 Q179.329 1080.35 182.385 1084.95 Q185.463 1089.54 185.463 1098.29 Q185.463 1107.01 182.385 1111.62 Q179.329 1116.2 173.519 1116.2 Q167.709 1116.2 164.63 1111.62 Q161.575 1107.01 161.575 1098.29 Q161.575 1089.54 164.63 1084.95 Q167.709 1080.35 173.519 1080.35 Z" fill="#000000" fill-rule="evenodd" fill-opacity="1" /><path clip-path="url(#clip740)" d="M197.709 1111.6 L214.028 1111.6 L214.028 1115.53 L192.084 1115.53 L192.084 1111.6 Q194.746 1108.84 199.329 1104.21 Q203.936 1099.56 205.116 1098.22 Q207.362 1095.7 208.241 1093.96 Q209.144 1092.2 209.144 1090.51 Q209.144 1087.76 207.199 1086.02 Q205.278 1084.28 202.176 1084.28 Q199.977 1084.28 197.524 1085.05 Q195.093 1085.81 192.315 1087.36 L192.315 1082.64 Q195.139 1081.51 197.593 1080.93 Q200.047 1080.35 202.084 1080.35 Q207.454 1080.35 210.649 1083.03 Q213.843 1085.72 213.843 1090.21 Q213.843 1092.34 213.033 1094.26 Q212.246 1096.16 210.139 1098.75 Q209.561 1099.42 206.459 1102.64 Q203.357 1105.83 197.709 1111.6 Z" fill="#000000" fill-rule="evenodd" fill-opacity="1" /><path clip-path="url(#clip740)" d="M126.205 759.125 Q122.593 759.125 120.765 762.689 Q118.959 766.231 118.959 773.361 Q118.959 780.467 120.765 784.032 Q122.593 787.574 126.205 787.574 Q129.839 787.574 131.644 784.032 Q133.473 780.467 133.473 773.361 Q133.473 766.231 131.644 762.689 Q129.839 759.125 126.205 759.125 M126.205 755.421 Q132.015 755.421 135.07 760.027 Q138.149 764.611 138.149 773.361 Q138.149 782.088 135.07 786.694 Q132.015 791.277 126.205 791.277 Q120.394 791.277 117.316 786.694 Q114.26 782.088 114.26 773.361 Q114.26 764.611 117.316 760.027 Q120.394 755.421 126.205 755.421 Z" fill="#000000" fill-rule="evenodd" fill-opacity="1" /><path clip-path="url(#clip740)" d="M146.366 784.726 L151.251 784.726 L151.251 790.606 L146.366 790.606 L146.366 784.726 Z" fill="#000000" fill-rule="evenodd" fill-opacity="1" /><path clip-path="url(#clip740)" d="M171.436 759.125 Q167.825 759.125 165.996 762.689 Q164.19 766.231 164.19 773.361 Q164.19 780.467 165.996 784.032 Q167.825 787.574 171.436 787.574 Q175.07 787.574 176.876 784.032 Q178.704 780.467 178.704 773.361 Q178.704 766.231 176.876 762.689 Q175.07 759.125 171.436 759.125 M171.436 755.421 Q177.246 755.421 180.301 760.027 Q183.38 764.611 183.38 773.361 Q183.38 782.088 180.301 786.694 Q177.246 791.277 171.436 791.277 Q165.626 791.277 162.547 786.694 Q159.491 782.088 159.491 773.361 Q159.491 764.611 162.547 760.027 Q165.626 755.421 171.436 755.421 Z" fill="#000000" fill-rule="evenodd" fill-opacity="1" /><path clip-path="url(#clip740)" d="M204.445 760.12 L192.639 778.569 L204.445 778.569 L204.445 760.12 M203.218 756.046 L209.098 756.046 L209.098 778.569 L214.028 778.569 L214.028 782.458 L209.098 782.458 L209.098 790.606 L204.445 790.606 L204.445 782.458 L188.843 782.458 L188.843 777.944 L203.218 756.046 Z" fill="#000000" fill-rule="evenodd" fill-opacity="1" /><path clip-path="url(#clip740)" d="M126.529 434.198 Q122.918 434.198 121.089 437.763 Q119.283 441.304 119.283 448.434 Q119.283 455.54 121.089 459.105 Q122.918 462.647 126.529 462.647 Q130.163 462.647 131.968 459.105 Q133.797 455.54 133.797 448.434 Q133.797 441.304 131.968 437.763 Q130.163 434.198 126.529 434.198 M126.529 430.494 Q132.339 430.494 135.394 435.101 Q138.473 439.684 138.473 448.434 Q138.473 457.161 135.394 461.767 Q132.339 466.35 126.529 466.35 Q120.718 466.35 117.64 461.767 Q114.584 457.161 114.584 448.434 Q114.584 439.684 117.64 435.101 Q120.718 430.494 126.529 430.494 Z" fill="#000000" fill-rule="evenodd" fill-opacity="1" /><path clip-path="url(#clip740)" d="M146.691 459.799 L151.575 459.799 L151.575 465.679 L146.691 465.679 L146.691 459.799 Z" fill="#000000" fill-rule="evenodd" fill-opacity="1" /><path clip-path="url(#clip740)" d="M171.76 434.198 Q168.149 434.198 166.32 437.763 Q164.515 441.304 164.515 448.434 Q164.515 455.54 166.32 459.105 Q168.149 462.647 171.76 462.647 Q175.394 462.647 177.2 459.105 Q179.028 455.54 179.028 448.434 Q179.028 441.304 177.2 437.763 Q175.394 434.198 171.76 434.198 M171.76 430.494 Q177.57 430.494 180.626 435.101 Q183.704 439.684 183.704 448.434 Q183.704 457.161 180.626 461.767 Q177.57 466.35 171.76 466.35 Q165.95 466.35 162.871 461.767 Q159.815 457.161 159.815 448.434 Q159.815 439.684 162.871 435.101 Q165.95 430.494 171.76 430.494 Z" fill="#000000" fill-rule="evenodd" fill-opacity="1" /><path clip-path="url(#clip740)" d="M202.5 446.536 Q199.352 446.536 197.5 448.688 Q195.672 450.841 195.672 454.591 Q195.672 458.318 197.5 460.494 Q199.352 462.647 202.5 462.647 Q205.649 462.647 207.477 460.494 Q209.329 458.318 209.329 454.591 Q209.329 450.841 207.477 448.688 Q205.649 446.536 202.5 446.536 M211.783 431.883 L211.783 436.142 Q210.024 435.309 208.218 434.869 Q206.436 434.429 204.676 434.429 Q200.047 434.429 197.593 437.554 Q195.163 440.679 194.815 446.999 Q196.181 444.985 198.241 443.92 Q200.301 442.832 202.778 442.832 Q207.987 442.832 210.996 446.003 Q214.028 449.151 214.028 454.591 Q214.028 459.915 210.88 463.133 Q207.732 466.35 202.5 466.35 Q196.505 466.35 193.334 461.767 Q190.163 457.161 190.163 448.434 Q190.163 440.239 194.051 435.378 Q197.94 430.494 204.491 430.494 Q206.25 430.494 208.033 430.841 Q209.838 431.188 211.783 431.883 Z" fill="#000000" fill-rule="evenodd" fill-opacity="1" /><path clip-path="url(#clip740)" d="M126.783 109.271 Q123.172 109.271 121.343 112.836 Q119.538 116.377 119.538 123.507 Q119.538 130.613 121.343 134.178 Q123.172 137.72 126.783 137.72 Q130.417 137.72 132.223 134.178 Q134.052 130.613 134.052 123.507 Q134.052 116.377 132.223 112.836 Q130.417 109.271 126.783 109.271 M126.783 105.567 Q132.593 105.567 135.649 110.174 Q138.728 114.757 138.728 123.507 Q138.728 132.234 135.649 136.84 Q132.593 141.423 126.783 141.423 Q120.973 141.423 117.894 136.84 Q114.839 132.234 114.839 123.507 Q114.839 114.757 117.894 110.174 Q120.973 105.567 126.783 105.567 Z" fill="#000000" fill-rule="evenodd" fill-opacity="1" /><path clip-path="url(#clip740)" d="M146.945 134.873 L151.829 134.873 L151.829 140.752 L146.945 140.752 L146.945 134.873 Z" fill="#000000" fill-rule="evenodd" fill-opacity="1" /><path clip-path="url(#clip740)" d="M172.014 109.271 Q168.403 109.271 166.575 112.836 Q164.769 116.377 164.769 123.507 Q164.769 130.613 166.575 134.178 Q168.403 137.72 172.014 137.72 Q175.649 137.72 177.454 134.178 Q179.283 130.613 179.283 123.507 Q179.283 116.377 177.454 112.836 Q175.649 109.271 172.014 109.271 M172.014 105.567 Q177.825 105.567 180.88 110.174 Q183.959 114.757 183.959 123.507 Q183.959 132.234 180.88 136.84 Q177.825 141.423 172.014 141.423 Q166.204 141.423 163.126 136.84 Q160.07 132.234 160.07 123.507 Q160.07 114.757 163.126 110.174 Q166.204 105.567 172.014 105.567 Z" fill="#000000" fill-rule="evenodd" fill-opacity="1" /><path clip-path="url(#clip740)" d="M202.176 124.34 Q198.843 124.34 196.922 126.123 Q195.024 127.905 195.024 131.03 Q195.024 134.155 196.922 135.937 Q198.843 137.72 202.176 137.72 Q205.51 137.72 207.431 135.937 Q209.352 134.132 209.352 131.03 Q209.352 127.905 207.431 126.123 Q205.533 124.34 202.176 124.34 M197.5 122.349 Q194.491 121.609 192.801 119.549 Q191.135 117.488 191.135 114.525 Q191.135 110.382 194.075 107.975 Q197.037 105.567 202.176 105.567 Q207.338 105.567 210.278 107.975 Q213.218 110.382 213.218 114.525 Q213.218 117.488 211.528 119.549 Q209.861 121.609 206.875 122.349 Q210.255 123.136 212.13 125.428 Q214.028 127.72 214.028 131.03 Q214.028 136.053 210.949 138.738 Q207.894 141.423 202.176 141.423 Q196.459 141.423 193.38 138.738 Q190.325 136.053 190.325 131.03 Q190.325 127.72 192.223 125.428 Q194.121 123.136 197.5 122.349 M195.787 114.965 Q195.787 117.65 197.454 119.155 Q199.144 120.66 202.176 120.66 Q205.186 120.66 206.875 119.155 Q208.588 117.65 208.588 114.965 Q208.588 112.28 206.875 110.775 Q205.186 109.271 202.176 109.271 Q199.144 109.271 197.454 110.775 Q195.787 112.28 195.787 114.965 Z" fill="#000000" fill-rule="evenodd" fill-opacity="1" /><path clip-path="url(#clip740)" d="M14.479 803.277 L19.3487 803.277 L19.3487 808.878 Q19.3487 812.029 20.6219 813.271 Q21.895 814.48 25.2052 814.48 L28.3562 814.48 L28.3562 804.836 L32.9077 804.836 L32.9077 814.48 L64.0042 814.48 L64.0042 820.369 L32.9077 820.369 L32.9077 825.97 L28.3562 825.97 L28.3562 820.369 L25.8736 820.369 Q19.9216 820.369 17.2162 817.599 Q14.479 814.83 14.479 808.815 L14.479 803.277 Z" fill="#000000" fill-rule="evenodd" fill-opacity="1" /><path clip-path="url(#clip740)" d="M14.5426 784.307 Q21.8632 788.572 29.0246 790.641 Q36.186 792.71 43.5384 792.71 Q50.8908 792.71 58.1159 790.641 Q65.3091 788.54 72.5979 784.307 L72.5979 789.399 Q65.1182 794.174 57.8931 796.561 Q50.668 798.916 43.5384 798.916 Q36.4406 798.916 29.2474 796.561 Q22.0542 794.206 14.5426 789.399 L14.5426 784.307 Z" fill="#000000" fill-rule="evenodd" fill-opacity="1" /><path clip-path="url(#clip740)" d="M28.3562 743.312 L45.7028 756.202 L64.0042 742.643 L64.0042 749.55 L49.9996 759.926 L64.0042 770.302 L64.0042 777.209 L45.3526 763.364 L28.3562 776.031 L28.3562 769.125 L41.0558 759.672 L28.3562 750.218 L28.3562 743.312 Z" fill="#000000" fill-rule="evenodd" fill-opacity="1" /><path clip-path="url(#clip740)" d="M14.5426 735.291 L14.5426 730.198 Q22.0542 725.424 29.2474 723.069 Q36.4406 720.682 43.5384 720.682 Q50.668 720.682 57.8931 723.069 Q65.1182 725.424 72.5979 730.198 L72.5979 735.291 Q65.3091 731.058 58.1159 728.989 Q50.8908 726.888 43.5384 726.888 Q36.186 726.888 29.0246 728.989 Q21.8632 731.058 14.5426 735.291 Z" fill="#000000" fill-rule="evenodd" fill-opacity="1" /><path clip-path="url(#clip740)" d="M481.854 16.7545 L481.854 25.383 Q477.722 21.5346 473.023 19.6307 Q468.364 17.7268 463.098 17.7268 Q452.728 17.7268 447.218 24.0867 Q441.709 30.4061 441.709 42.3968 Q441.709 54.3469 447.218 60.7069 Q452.728 67.0263 463.098 67.0263 Q468.364 67.0263 473.023 65.1223 Q477.722 63.2184 481.854 59.3701 L481.854 67.9175 Q477.56 70.8341 472.739 72.2924 Q467.959 73.7508 462.612 73.7508 Q448.879 73.7508 440.98 65.3654 Q433.081 56.9395 433.081 42.3968 Q433.081 27.8135 440.98 19.4281 Q448.879 11.0023 462.612 11.0023 Q468.04 11.0023 472.82 12.4606 Q477.641 13.8784 481.854 16.7545 Z" fill="#000000" fill-rule="evenodd" fill-opacity="1" /><path clip-path="url(#clip740)" d="M490.928 27.2059 L526.333 27.2059 L526.333 34.0114 L498.3 66.6212 L526.333 66.6212 L526.333 72.576 L489.915 72.576 L489.915 65.7705 L517.947 33.1607 L490.928 33.1607 L490.928 27.2059 Z" fill="#000000" fill-rule="evenodd" fill-opacity="1" /><path clip-path="url(#clip740)" d="M576.523 48.0275 L576.523 51.6733 L542.253 51.6733 Q542.739 59.3701 546.871 63.421 Q551.043 67.4314 558.456 67.4314 Q562.75 67.4314 566.761 66.3781 Q570.811 65.3249 574.781 63.2184 L574.781 70.267 Q570.771 71.9684 566.558 72.8596 Q562.345 73.7508 558.011 73.7508 Q547.154 73.7508 540.794 67.4314 Q534.475 61.1119 534.475 50.3365 Q534.475 39.1965 540.47 32.6746 Q546.506 26.1121 556.714 26.1121 Q565.869 26.1121 571.176 32.0264 Q576.523 37.9003 576.523 48.0275 M569.07 45.84 Q568.989 39.7232 565.626 36.0774 Q562.305 32.4315 556.795 32.4315 Q550.557 32.4315 546.79 35.9558 Q543.063 39.4801 542.496 45.8805 L569.07 45.84 M562.953 72.576 L567.773 72.576 Q565.95 75.0471 565.059 76.8294 Q564.208 78.6118 564.208 79.8676 Q564.208 81.731 565.302 82.6628 Q566.436 83.5945 568.624 83.5945 Q569.92 83.5945 571.176 83.2704 Q572.432 82.9868 573.688 82.3792 L573.688 87.7669 Q572.148 88.172 570.771 88.3745 Q569.394 88.5771 568.178 88.5771 Q563.236 88.5771 560.887 86.7947 Q558.578 85.0528 558.578 81.2854 Q558.578 79.341 559.631 77.194 Q560.725 75.0876 562.953 72.576 Z" fill="#000000" fill-rule="evenodd" fill-opacity="1" /><path clip-path="url(#clip740)" d="M617.68 28.5427 L617.68 35.5912 Q614.521 33.9709 611.118 33.1607 Q607.715 32.3505 604.069 32.3505 Q598.52 32.3505 595.725 34.0519 Q592.97 35.7533 592.97 39.156 Q592.97 41.7486 594.955 43.2475 Q596.94 44.7058 602.935 46.0426 L605.487 46.6097 Q613.427 48.3111 616.749 51.4303 Q620.111 54.509 620.111 60.0587 Q620.111 66.3781 615.088 70.0644 Q610.105 73.7508 601.355 73.7508 Q597.709 73.7508 593.74 73.0216 Q589.81 72.3329 585.435 70.9151 L585.435 63.2184 Q589.567 65.3654 593.578 66.4591 Q597.588 67.5124 601.517 67.5124 Q606.783 67.5124 609.619 65.73 Q612.455 63.9071 612.455 60.6258 Q612.455 57.5877 610.389 55.9673 Q608.363 54.3469 601.436 52.8481 L598.844 52.2405 Q591.917 50.7821 588.838 47.7845 Q585.759 44.7463 585.759 39.4801 Q585.759 33.0797 590.296 29.5959 Q594.833 26.1121 603.178 26.1121 Q607.31 26.1121 610.956 26.7198 Q614.602 27.3274 617.68 28.5427 Z" fill="#000000" fill-rule="evenodd" fill-opacity="1" /><path clip-path="url(#clip740)" d="M639.353 14.324 L639.353 27.2059 L654.706 27.2059 L654.706 32.9987 L639.353 32.9987 L639.353 57.6282 Q639.353 63.1779 640.852 64.7578 Q642.391 66.3376 647.049 66.3376 L654.706 66.3376 L654.706 72.576 L647.049 72.576 Q638.421 72.576 635.14 69.3758 Q631.859 66.1351 631.859 57.6282 L631.859 32.9987 L626.39 32.9987 L626.39 27.2059 L631.859 27.2059 L631.859 14.324 L639.353 14.324 Z" fill="#000000" fill-rule="evenodd" fill-opacity="1" /><path clip-path="url(#clip740)" d="M682.09 32.4315 Q676.094 32.4315 672.611 37.1306 Q669.127 41.7891 669.127 49.9314 Q669.127 58.0738 672.57 62.7728 Q676.054 67.4314 682.09 67.4314 Q688.045 67.4314 691.528 62.7323 Q695.012 58.0333 695.012 49.9314 Q695.012 41.8701 691.528 37.1711 Q688.045 32.4315 682.09 32.4315 M682.09 26.1121 Q691.812 26.1121 697.362 32.4315 Q702.911 38.7509 702.911 49.9314 Q702.911 61.0714 697.362 67.4314 Q691.812 73.7508 682.09 73.7508 Q672.327 73.7508 666.777 67.4314 Q661.268 61.0714 661.268 49.9314 Q661.268 38.7509 666.777 32.4315 Q672.327 26.1121 682.09 26.1121 Z" fill="#000000" fill-rule="evenodd" fill-opacity="1" /><path clip-path="url(#clip740)" d="M722.639 14.324 L722.639 27.2059 L737.992 27.2059 L737.992 32.9987 L722.639 32.9987 L722.639 57.6282 Q722.639 63.1779 724.138 64.7578 Q725.678 66.3376 730.336 66.3376 L737.992 66.3376 L737.992 72.576 L730.336 72.576 Q721.708 72.576 718.426 69.3758 Q715.145 66.1351 715.145 57.6282 L715.145 32.9987 L709.676 32.9987 L709.676 27.2059 L715.145 27.2059 L715.145 14.324 L722.639 14.324 Z" fill="#000000" fill-rule="evenodd" fill-opacity="1" /><path clip-path="url(#clip740)" d="M747.795 9.54393 L755.249 9.54393 L755.249 72.576 L747.795 72.576 L747.795 9.54393 Z" fill="#000000" fill-rule="evenodd" fill-opacity="1" /><path clip-path="url(#clip740)" d="M770.845 27.2059 L778.299 27.2059 L778.299 72.576 L770.845 72.576 L770.845 27.2059 M770.845 9.54393 L778.299 9.54393 L778.299 18.9825 L770.845 18.9825 L770.845 9.54393 Z" fill="#000000" fill-rule="evenodd" fill-opacity="1" /><path clip-path="url(#clip740)" d="M789.56 27.2059 L797.014 27.2059 L806.331 62.6108 L815.608 27.2059 L824.398 27.2059 L833.715 62.6108 L842.992 27.2059 L850.445 27.2059 L838.576 72.576 L829.786 72.576 L820.023 35.3887 L810.22 72.576 L801.429 72.576 L789.56 27.2059 Z" fill="#000000" fill-rule="evenodd" fill-opacity="1" /><path clip-path="url(#clip740)" d="M879.328 32.4315 Q873.333 32.4315 869.849 37.1306 Q866.365 41.7891 866.365 49.9314 Q866.365 58.0738 869.809 62.7728 Q873.292 67.4314 879.328 67.4314 Q885.283 67.4314 888.767 62.7323 Q892.251 58.0333 892.251 49.9314 Q892.251 41.8701 888.767 37.1711 Q885.283 32.4315 879.328 32.4315 M879.328 26.1121 Q889.05 26.1121 894.6 32.4315 Q900.15 38.7509 900.15 49.9314 Q900.15 61.0714 894.6 67.4314 Q889.05 73.7508 879.328 73.7508 Q869.566 73.7508 864.016 67.4314 Q858.507 61.0714 858.507 49.9314 Q858.507 38.7509 864.016 32.4315 Q869.566 26.1121 879.328 26.1121 Z" fill="#000000" fill-rule="evenodd" fill-opacity="1" /><path clip-path="url(#clip740)" d="M933.732 5.93863 L941.793 5.93863 L928.587 21.17 L922.389 21.17 L933.732 5.93863 M941.429 28.5427 L941.429 35.5912 Q938.269 33.9709 934.866 33.1607 Q931.463 32.3505 927.818 32.3505 Q922.268 32.3505 919.473 34.0519 Q916.718 35.7533 916.718 39.156 Q916.718 41.7486 918.703 43.2475 Q920.688 44.7058 926.683 46.0426 L929.235 46.6097 Q937.175 48.3111 940.497 51.4303 Q943.859 54.509 943.859 60.0587 Q943.859 66.3781 938.836 70.0644 Q933.853 73.7508 925.104 73.7508 Q921.458 73.7508 917.488 73.0216 Q913.558 72.3329 909.183 70.9151 L909.183 63.2184 Q913.315 65.3654 917.326 66.4591 Q921.336 67.5124 925.266 67.5124 Q930.532 67.5124 933.367 65.73 Q936.203 63.9071 936.203 60.6258 Q936.203 57.5877 934.137 55.9673 Q932.112 54.3469 925.185 52.8481 L922.592 52.2405 Q915.665 50.7821 912.586 47.7845 Q909.508 44.7463 909.508 39.4801 Q909.508 33.0797 914.045 29.5959 Q918.582 26.1121 926.926 26.1121 Q931.058 26.1121 934.704 26.7198 Q938.35 27.3274 941.429 28.5427 Z" fill="#000000" fill-rule="evenodd" fill-opacity="1" /><path clip-path="url(#clip740)" d="M988.379 28.9478 L988.379 35.9153 Q985.219 34.1734 982.019 33.3227 Q978.859 32.4315 975.618 32.4315 Q968.367 32.4315 964.357 37.0496 Q960.346 41.6271 960.346 49.9314 Q960.346 58.2358 964.357 62.8538 Q968.367 67.4314 975.618 67.4314 Q978.859 67.4314 982.019 66.5807 Q985.219 65.6895 988.379 63.9476 L988.379 70.8341 Q985.259 72.2924 981.897 73.0216 Q978.575 73.7508 974.808 73.7508 Q964.559 73.7508 958.523 67.3098 Q952.488 60.8689 952.488 49.9314 Q952.488 38.832 958.564 32.472 Q964.681 26.1121 975.294 26.1121 Q978.738 26.1121 982.019 26.8413 Q985.3 27.5299 988.379 28.9478 M979.831 6.22219 L987.893 6.22219 L974.687 21.4536 L968.489 21.4536 L979.831 6.22219 Z" fill="#000000" fill-rule="evenodd" fill-opacity="1" /><path clip-path="url(#clip740)" d="M1024.47 27.2059 L1059.88 27.2059 L1059.88 34.0114 L1031.84 66.6212 L1059.88 66.6212 L1059.88 72.576 L1023.46 72.576 L1023.46 65.7705 L1051.49 33.1607 L1024.47 33.1607 L1024.47 27.2059 Z" fill="#000000" fill-rule="evenodd" fill-opacity="1" /><path clip-path="url(#clip740)" d="M1091.88 49.7694 Q1082.85 49.7694 1079.36 51.8354 Q1075.88 53.9013 1075.88 58.8839 Q1075.88 62.8538 1078.47 65.2034 Q1081.1 67.5124 1085.6 67.5124 Q1091.8 67.5124 1095.53 63.1374 Q1099.29 58.7219 1099.29 51.4303 L1099.29 49.7694 L1091.88 49.7694 M1106.75 46.6907 L1106.75 72.576 L1099.29 72.576 L1099.29 65.6895 Q1096.74 69.8214 1092.93 71.8063 Q1089.12 73.7508 1083.62 73.7508 Q1076.65 73.7508 1072.52 69.8619 Q1068.42 65.9325 1068.42 59.3701 Q1068.42 51.7138 1073.53 47.825 Q1078.67 43.9361 1088.84 43.9361 L1099.29 43.9361 L1099.29 43.2069 Q1099.29 38.0623 1095.89 35.2672 Q1092.53 32.4315 1086.41 32.4315 Q1082.52 32.4315 1078.84 33.3632 Q1075.15 34.295 1071.75 36.1584 L1071.75 29.2718 Q1075.84 27.692 1079.69 26.9223 Q1083.53 26.1121 1087.18 26.1121 Q1097.02 26.1121 1101.88 31.2163 Q1106.75 36.3204 1106.75 46.6907 Z" fill="#000000" fill-rule="evenodd" fill-opacity="1" /><path clip-path="url(#clip740)" d="M1121.82 9.54393 L1129.31 9.54393 L1129.31 46.7717 L1151.55 27.2059 L1161.07 27.2059 L1137.01 48.4326 L1162.08 72.576 L1152.36 72.576 L1129.31 50.4176 L1129.31 72.576 L1121.82 72.576 L1121.82 9.54393 Z" fill="#000000" fill-rule="evenodd" fill-opacity="1" /><path clip-path="url(#clip740)" d="M1166.82 54.671 L1166.82 27.2059 L1174.27 27.2059 L1174.27 54.3874 Q1174.27 60.8284 1176.79 64.0691 Q1179.3 67.2693 1184.32 67.2693 Q1190.36 67.2693 1193.84 63.421 Q1197.36 59.5726 1197.36 52.9291 L1197.36 27.2059 L1204.82 27.2059 L1204.82 72.576 L1197.36 72.576 L1197.36 65.6084 Q1194.65 69.7404 1191.05 71.7658 Q1187.48 73.7508 1182.74 73.7508 Q1174.92 73.7508 1170.87 68.8897 Q1166.82 64.0286 1166.82 54.671 M1185.58 26.1121 L1185.58 26.1121 Z" fill="#000000" fill-rule="evenodd" fill-opacity="1" /><path clip-path="url(#clip740)" d="M1227.38 65.7705 L1227.38 89.8329 L1219.89 89.8329 L1219.89 27.2059 L1227.38 27.2059 L1227.38 34.0924 Q1229.73 30.0415 1233.3 28.0971 Q1236.9 26.1121 1241.88 26.1121 Q1250.15 26.1121 1255.29 32.6746 Q1260.48 39.2371 1260.48 49.9314 Q1260.48 60.6258 1255.29 67.1883 Q1250.15 73.7508 1241.88 73.7508 Q1236.9 73.7508 1233.3 71.8063 Q1229.73 69.8214 1227.38 65.7705 M1252.74 49.9314 Q1252.74 41.7081 1249.34 37.0496 Q1245.98 32.3505 1240.06 32.3505 Q1234.15 32.3505 1230.74 37.0496 Q1227.38 41.7081 1227.38 49.9314 Q1227.38 58.1548 1230.74 62.8538 Q1234.15 67.5124 1240.06 67.5124 Q1245.98 67.5124 1249.34 62.8538 Q1252.74 58.1548 1252.74 49.9314 Z" fill="#000000" fill-rule="evenodd" fill-opacity="1" /><path clip-path="url(#clip740)" d="M1290.41 32.4315 Q1284.42 32.4315 1280.93 37.1306 Q1277.45 41.7891 1277.45 49.9314 Q1277.45 58.0738 1280.89 62.7728 Q1284.38 67.4314 1290.41 67.4314 Q1296.37 67.4314 1299.85 62.7323 Q1303.34 58.0333 1303.34 49.9314 Q1303.34 41.8701 1299.85 37.1711 Q1296.37 32.4315 1290.41 32.4315 M1290.41 26.1121 Q1300.14 26.1121 1305.69 32.4315 Q1311.24 38.7509 1311.24 49.9314 Q1311.24 61.0714 1305.69 67.4314 Q1300.14 73.7508 1290.41 73.7508 Q1280.65 73.7508 1275.1 67.4314 Q1269.59 61.0714 1269.59 49.9314 Q1269.59 38.7509 1275.1 32.4315 Q1280.65 26.1121 1290.41 26.1121 M1296.04 6.22219 L1304.11 6.22219 L1290.9 21.4536 L1284.7 21.4536 L1296.04 6.22219 Z" fill="#000000" fill-rule="evenodd" fill-opacity="1" /><path clip-path="url(#clip740)" d="M1319.26 27.2059 L1326.71 27.2059 L1336.03 62.6108 L1345.3 27.2059 L1354.09 27.2059 L1363.41 62.6108 L1372.69 27.2059 L1380.14 27.2059 L1368.27 72.576 L1359.48 72.576 L1349.72 35.3887 L1339.92 72.576 L1331.13 72.576 L1319.26 27.2059 Z" fill="#000000" fill-rule="evenodd" fill-opacity="1" /><path clip-path="url(#clip740)" d="M1393.35 62.2867 L1401.89 62.2867 L1401.89 69.2543 L1395.25 82.2172 L1390.03 82.2172 L1393.35 69.2543 L1393.35 62.2867 Z" fill="#000000" fill-rule="evenodd" fill-opacity="1" /><path clip-path="url(#clip740)" d="M1444.19 27.2059 L1451.64 27.2059 L1451.64 72.576 L1444.19 72.576 L1444.19 27.2059 M1444.19 9.54393 L1451.64 9.54393 L1451.64 18.9825 L1444.19 18.9825 L1444.19 9.54393 Z" fill="#000000" fill-rule="evenodd" fill-opacity="1" /><path clip-path="url(#clip740)" d="M1497.09 34.0924 L1497.09 9.54393 L1504.54 9.54393 L1504.54 72.576 L1497.09 72.576 L1497.09 65.7705 Q1494.74 69.8214 1491.14 71.8063 Q1487.57 73.7508 1482.55 73.7508 Q1474.33 73.7508 1469.14 67.1883 Q1464 60.6258 1464 49.9314 Q1464 39.2371 1469.14 32.6746 Q1474.33 26.1121 1482.55 26.1121 Q1487.57 26.1121 1491.14 28.0971 Q1494.74 30.0415 1497.09 34.0924 M1471.69 49.9314 Q1471.69 58.1548 1475.05 62.8538 Q1478.46 67.5124 1484.37 67.5124 Q1490.29 67.5124 1493.69 62.8538 Q1497.09 58.1548 1497.09 49.9314 Q1497.09 41.7081 1493.69 37.0496 Q1490.29 32.3505 1484.37 32.3505 Q1478.46 32.3505 1475.05 37.0496 Q1471.69 41.7081 1471.69 49.9314 Z" fill="#000000" fill-rule="evenodd" fill-opacity="1" /><path clip-path="url(#clip740)" d="M1558.71 48.0275 L1558.71 51.6733 L1524.43 51.6733 Q1524.92 59.3701 1529.05 63.421 Q1533.23 67.4314 1540.64 67.4314 Q1544.93 67.4314 1548.94 66.3781 Q1552.99 65.3249 1556.96 63.2184 L1556.96 70.267 Q1552.95 71.9684 1548.74 72.8596 Q1544.53 73.7508 1540.19 73.7508 Q1529.34 73.7508 1522.98 67.4314 Q1516.66 61.1119 1516.66 50.3365 Q1516.66 39.1965 1522.65 32.6746 Q1528.69 26.1121 1538.9 26.1121 Q1548.05 26.1121 1553.36 32.0264 Q1558.71 37.9003 1558.71 48.0275 M1551.25 45.84 Q1551.17 39.7232 1547.81 36.0774 Q1544.49 32.4315 1538.98 32.4315 Q1532.74 32.4315 1528.97 35.9558 Q1525.24 39.4801 1524.68 45.8805 L1551.25 45.84 Z" fill="#000000" fill-rule="evenodd" fill-opacity="1" /><path clip-path="url(#clip740)" d="M1608.65 45.1919 L1608.65 72.576 L1601.2 72.576 L1601.2 45.4349 Q1601.2 38.994 1598.69 35.7938 Q1596.18 32.5936 1591.15 32.5936 Q1585.12 32.5936 1581.63 36.4419 Q1578.15 40.2903 1578.15 46.9338 L1578.15 72.576 L1570.66 72.576 L1570.66 27.2059 L1578.15 27.2059 L1578.15 34.2544 Q1580.82 30.163 1584.43 28.1376 Q1588.07 26.1121 1592.81 26.1121 Q1600.63 26.1121 1604.64 30.9732 Q1608.65 35.7938 1608.65 45.1919 Z" fill="#000000" fill-rule="evenodd" fill-opacity="1" /><path clip-path="url(#clip740)" d="M1630.89 14.324 L1630.89 27.2059 L1646.25 27.2059 L1646.25 32.9987 L1630.89 32.9987 L1630.89 57.6282 Q1630.89 63.1779 1632.39 64.7578 Q1633.93 66.3376 1638.59 66.3376 L1646.25 66.3376 L1646.25 72.576 L1638.59 72.576 Q1629.96 72.576 1626.68 69.3758 Q1623.4 66.1351 1623.4 57.6282 L1623.4 32.9987 L1617.93 32.9987 L1617.93 27.2059 L1623.4 27.2059 L1623.4 14.324 L1630.89 14.324 Z" fill="#000000" fill-rule="evenodd" fill-opacity="1" /><path clip-path="url(#clip740)" d="M1674.93 76.7889 Q1671.77 84.8907 1668.77 87.3618 Q1665.77 89.8329 1660.75 89.8329 L1654.79 89.8329 L1654.79 83.5945 L1659.17 83.5945 Q1662.25 83.5945 1663.95 82.1361 Q1665.65 80.6778 1667.72 75.2496 L1669.05 71.8468 L1650.7 27.2059 L1658.6 27.2059 L1672.78 62.6918 L1686.96 27.2059 L1694.86 27.2059 L1674.93 76.7889 Z" fill="#000000" fill-rule="evenodd" fill-opacity="1" /><path clip-path="url(#clip740)" d="M1737.8 28.9478 L1737.8 35.9153 Q1734.64 34.1734 1731.44 33.3227 Q1728.28 32.4315 1725.04 32.4315 Q1717.78 32.4315 1713.77 37.0496 Q1709.76 41.6271 1709.76 49.9314 Q1709.76 58.2358 1713.77 62.8538 Q1717.78 67.4314 1725.04 67.4314 Q1728.28 67.4314 1731.44 66.5807 Q1734.64 65.6895 1737.8 63.9476 L1737.8 70.8341 Q1734.68 72.2924 1731.31 73.0216 Q1727.99 73.7508 1724.23 73.7508 Q1713.98 73.7508 1707.94 67.3098 Q1701.9 60.8689 1701.9 49.9314 Q1701.9 38.832 1707.98 32.472 Q1714.1 26.1121 1724.71 26.1121 Q1728.15 26.1121 1731.44 26.8413 Q1734.72 27.5299 1737.8 28.9478 Z" fill="#000000" fill-rule="evenodd" fill-opacity="1" /><path clip-path="url(#clip740)" d="M1747.52 27.2059 L1782.92 27.2059 L1782.92 34.0114 L1754.89 66.6212 L1782.92 66.6212 L1782.92 72.576 L1746.51 72.576 L1746.51 65.7705 L1774.54 33.1607 L1747.52 33.1607 L1747.52 27.2059 Z" fill="#000000" fill-rule="evenodd" fill-opacity="1" /><path clip-path="url(#clip740)" d="M1832.02 45.1919 L1832.02 72.576 L1824.57 72.576 L1824.57 45.4349 Q1824.57 38.994 1822.05 35.7938 Q1819.54 32.5936 1814.52 32.5936 Q1808.48 32.5936 1805 36.4419 Q1801.52 40.2903 1801.52 46.9338 L1801.52 72.576 L1794.02 72.576 L1794.02 27.2059 L1801.52 27.2059 L1801.52 34.2544 Q1804.19 30.163 1807.8 28.1376 Q1811.44 26.1121 1816.18 26.1121 Q1824 26.1121 1828.01 30.9732 Q1832.02 35.7938 1832.02 45.1919 Z" fill="#000000" fill-rule="evenodd" fill-opacity="1" /><path clip-path="url(#clip740)" d="M1867.51 49.7694 Q1858.47 49.7694 1854.99 51.8354 Q1851.5 53.9013 1851.5 58.8839 Q1851.5 62.8538 1854.1 65.2034 Q1856.73 67.5124 1861.23 67.5124 Q1867.42 67.5124 1871.15 63.1374 Q1874.92 58.7219 1874.92 51.4303 L1874.92 49.7694 L1867.51 49.7694 M1882.37 46.6907 L1882.37 72.576 L1874.92 72.576 L1874.92 65.6895 Q1872.37 69.8214 1868.56 71.8063 Q1864.75 73.7508 1859.24 73.7508 Q1852.27 73.7508 1848.14 69.8619 Q1844.05 65.9325 1844.05 59.3701 Q1844.05 51.7138 1849.16 47.825 Q1854.3 43.9361 1864.47 43.9361 L1874.92 43.9361 L1874.92 43.2069 Q1874.92 38.0623 1871.52 35.2672 Q1868.15 32.4315 1862.04 32.4315 Q1858.15 32.4315 1854.46 33.3632 Q1850.78 34.295 1847.37 36.1584 L1847.37 29.2718 Q1851.46 27.692 1855.31 26.9223 Q1859.16 26.1121 1862.81 26.1121 Q1872.65 26.1121 1877.51 31.2163 Q1882.37 36.3204 1882.37 46.6907 Z" fill="#000000" fill-rule="evenodd" fill-opacity="1" /><path clip-path="url(#clip740)" d="M1924.1 27.2059 L1931.55 27.2059 L1931.55 73.3862 Q1931.55 82.0551 1928.23 85.944 Q1924.95 89.8329 1917.62 89.8329 L1914.78 89.8329 L1914.78 83.5134 L1916.76 83.5134 Q1921.02 83.5134 1922.56 81.5285 Q1924.1 79.5841 1924.1 73.3862 L1924.1 27.2059 M1924.1 9.54393 L1931.55 9.54393 L1931.55 18.9825 L1924.1 18.9825 L1924.1 9.54393 Z" fill="#000000" fill-rule="evenodd" fill-opacity="1" /><path clip-path="url(#clip740)" d="M1967.77 49.7694 Q1958.73 49.7694 1955.25 51.8354 Q1951.76 53.9013 1951.76 58.8839 Q1951.76 62.8538 1954.36 65.2034 Q1956.99 67.5124 1961.49 67.5124 Q1967.68 67.5124 1971.41 63.1374 Q1975.18 58.7219 1975.18 51.4303 L1975.18 49.7694 L1967.77 49.7694 M1982.63 46.6907 L1982.63 72.576 L1975.18 72.576 L1975.18 65.6895 Q1972.63 69.8214 1968.82 71.8063 Q1965.01 73.7508 1959.5 73.7508 Q1952.53 73.7508 1948.4 69.8619 Q1944.31 65.9325 1944.31 59.3701 Q1944.31 51.7138 1949.42 47.825 Q1954.56 43.9361 1964.73 43.9361 L1975.18 43.9361 L1975.18 43.2069 Q1975.18 38.0623 1971.78 35.2672 Q1968.41 32.4315 1962.3 32.4315 Q1958.41 32.4315 1954.72 33.3632 Q1951.04 34.295 1947.63 36.1584 L1947.63 29.2718 Q1951.72 27.692 1955.57 26.9223 Q1959.42 26.1121 1963.07 26.1121 Q1972.91 26.1121 1977.77 31.2163 Q1982.63 36.3204 1982.63 46.6907 Z" fill="#000000" fill-rule="evenodd" fill-opacity="1" /><path clip-path="url(#clip740)" d="M1997.7 9.54393 L2005.2 9.54393 L2005.2 46.7717 L2027.44 27.2059 L2036.96 27.2059 L2012.89 48.4326 L2037.97 72.576 L2028.25 72.576 L2005.2 50.4176 L2005.2 72.576 L1997.7 72.576 L1997.7 9.54393 Z" fill="#000000" fill-rule="evenodd" fill-opacity="1" /><path clip-path="url(#clip740)" d="M2060.65 32.4315 Q2054.66 32.4315 2051.17 37.1306 Q2047.69 41.7891 2047.69 49.9314 Q2047.69 58.0738 2051.13 62.7728 Q2054.62 67.4314 2060.65 67.4314 Q2066.61 67.4314 2070.09 62.7323 Q2073.58 58.0333 2073.58 49.9314 Q2073.58 41.8701 2070.09 37.1711 Q2066.61 32.4315 2060.65 32.4315 M2060.65 26.1121 Q2070.38 26.1121 2075.92 32.4315 Q2081.47 38.7509 2081.47 49.9314 Q2081.47 61.0714 2075.92 67.4314 Q2070.38 73.7508 2060.65 73.7508 Q2050.89 73.7508 2045.34 67.4314 Q2039.83 61.0714 2039.83 49.9314 Q2039.83 38.7509 2045.34 32.4315 Q2050.89 26.1121 2060.65 26.1121 Z" fill="#000000" fill-rule="evenodd" fill-opacity="1" /><path clip-path="url(#clip740)" d="M2115.06 5.93863 L2123.12 5.93863 L2109.91 21.17 L2103.71 21.17 L2115.06 5.93863 M2122.75 28.5427 L2122.75 35.5912 Q2119.59 33.9709 2116.19 33.1607 Q2112.79 32.3505 2109.14 32.3505 Q2103.59 32.3505 2100.8 34.0519 Q2098.04 35.7533 2098.04 39.156 Q2098.04 41.7486 2100.03 43.2475 Q2102.01 44.7058 2108.01 46.0426 L2110.56 46.6097 Q2118.5 48.3111 2121.82 51.4303 Q2125.18 54.509 2125.18 60.0587 Q2125.18 66.3781 2120.16 70.0644 Q2115.18 73.7508 2106.43 73.7508 Q2102.78 73.7508 2098.81 73.0216 Q2094.88 72.3329 2090.51 70.9151 L2090.51 63.2184 Q2094.64 65.3654 2098.65 66.4591 Q2102.66 67.5124 2106.59 67.5124 Q2111.86 67.5124 2114.69 65.73 Q2117.53 63.9071 2117.53 60.6258 Q2117.53 57.5877 2115.46 55.9673 Q2113.44 54.3469 2106.51 52.8481 L2103.92 52.2405 Q2096.99 50.7821 2093.91 47.7845 Q2090.83 44.7463 2090.83 39.4801 Q2090.83 33.0797 2095.37 29.5959 Q2099.91 26.1121 2108.25 26.1121 Q2112.38 26.1121 2116.03 26.7198 Q2119.67 27.3274 2122.75 28.5427 Z" fill="#000000" fill-rule="evenodd" fill-opacity="1" /><path clip-path="url(#clip740)" d="M2169.7 28.9478 L2169.7 35.9153 Q2166.54 34.1734 2163.34 33.3227 Q2160.18 32.4315 2156.94 32.4315 Q2149.69 32.4315 2145.68 37.0496 Q2141.67 41.6271 2141.67 49.9314 Q2141.67 58.2358 2145.68 62.8538 Q2149.69 67.4314 2156.94 67.4314 Q2160.18 67.4314 2163.34 66.5807 Q2166.54 65.6895 2169.7 63.9476 L2169.7 70.8341 Q2166.58 72.2924 2163.22 73.0216 Q2159.9 73.7508 2156.13 73.7508 Q2145.88 73.7508 2139.85 67.3098 Q2133.81 60.8689 2133.81 49.9314 Q2133.81 38.832 2139.89 32.472 Q2146.01 26.1121 2156.62 26.1121 Q2160.06 26.1121 2163.34 26.8413 Q2166.62 27.5299 2169.7 28.9478 M2161.16 6.22219 L2169.22 6.22219 L2156.01 21.4536 L2149.81 21.4536 L2161.16 6.22219 Z" fill="#000000" fill-rule="evenodd" fill-opacity="1" /><path clip-path="url(#clip742)" d="
M365.682 1417.15 L365.682 1423.18 L499.355 1423.18 L499.355 1417.15 L365.682 1417.15 L365.682 1417.15  Z
  " fill="#009af9" fill-rule="evenodd" fill-opacity="0.25"/>
<polyline clip-path="url(#clip742)" style="stroke:#000000; stroke-linecap:butt; stroke-linejoin:round; stroke-width:4; stroke-opacity:0.25; fill:none" points="
  365.682,1417.15 365.682,1423.18 499.355,1423.18 499.355,1417.15 365.682,1417.15 
  "/>
<path clip-path="url(#clip742)" d="
M499.355 1411.12 L499.355 1423.18 L633.028 1423.18 L633.028 1411.12 L499.355 1411.12 L499.355 1411.12  Z
  " fill="#009af9" fill-rule="evenodd" fill-opacity="0.25"/>
<polyline clip-path="url(#clip742)" style="stroke:#000000; stroke-linecap:butt; stroke-linejoin:round; stroke-width:4; stroke-opacity:0.25; fill:none" points="
  499.355,1411.12 499.355,1423.18 633.028,1423.18 633.028,1411.12 499.355,1411.12 
  "/>
<path clip-path="url(#clip742)" d="
M633.028 1411.12 L633.028 1423.18 L766.701 1423.18 L766.701 1411.12 L633.028 1411.12 L633.028 1411.12  Z
  " fill="#009af9" fill-rule="evenodd" fill-opacity="0.25"/>
<polyline clip-path="url(#clip742)" style="stroke:#000000; stroke-linecap:butt; stroke-linejoin:round; stroke-width:4; stroke-opacity:0.25; fill:none" points="
  633.028,1411.12 633.028,1423.18 766.701,1423.18 766.701,1411.12 633.028,1411.12 
  "/>
<path clip-path="url(#clip742)" d="
M766.701 1362.9 L766.701 1423.18 L900.373 1423.18 L900.373 1362.9 L766.701 1362.9 L766.701 1362.9  Z
  " fill="#009af9" fill-rule="evenodd" fill-opacity="0.25"/>
<polyline clip-path="url(#clip742)" style="stroke:#000000; stroke-linecap:butt; stroke-linejoin:round; stroke-width:4; stroke-opacity:0.25; fill:none" points="
  766.701,1362.9 766.701,1423.18 900.373,1423.18 900.373,1362.9 766.701,1362.9 
  "/>
<path clip-path="url(#clip742)" d="
M900.373 1290.56 L900.373 1423.18 L1034.05 1423.18 L1034.05 1290.56 L900.373 1290.56 L900.373 1290.56  Z
  " fill="#009af9" fill-rule="evenodd" fill-opacity="0.25"/>
<polyline clip-path="url(#clip742)" style="stroke:#000000; stroke-linecap:butt; stroke-linejoin:round; stroke-width:4; stroke-opacity:0.25; fill:none" points="
  900.373,1290.56 900.373,1423.18 1034.05,1423.18 1034.05,1290.56 900.373,1290.56 
  "/>
<path clip-path="url(#clip742)" d="
M1034.05 1085.59 L1034.05 1423.18 L1167.72 1423.18 L1167.72 1085.59 L1034.05 1085.59 L1034.05 1085.59  Z
  " fill="#009af9" fill-rule="evenodd" fill-opacity="0.25"/>
<polyline clip-path="url(#clip742)" style="stroke:#000000; stroke-linecap:butt; stroke-linejoin:round; stroke-width:4; stroke-opacity:0.25; fill:none" points="
  1034.05,1085.59 1034.05,1423.18 1167.72,1423.18 1167.72,1085.59 1034.05,1085.59 
  "/>
<path clip-path="url(#clip742)" d="
M1167.72 778.149 L1167.72 1423.18 L1301.39 1423.18 L1301.39 778.149 L1167.72 778.149 L1167.72 778.149  Z
  " fill="#009af9" fill-rule="evenodd" fill-opacity="0.25"/>
<polyline clip-path="url(#clip742)" style="stroke:#000000; stroke-linecap:butt; stroke-linejoin:round; stroke-width:4; stroke-opacity:0.25; fill:none" points="
  1167.72,778.149 1167.72,1423.18 1301.39,1423.18 1301.39,778.149 1167.72,778.149 
  "/>
<path clip-path="url(#clip742)" d="
M1301.39 428.506 L1301.39 1423.18 L1435.06 1423.18 L1435.06 428.506 L1301.39 428.506 L1301.39 428.506  Z
  " fill="#009af9" fill-rule="evenodd" fill-opacity="0.25"/>
<polyline clip-path="url(#clip742)" style="stroke:#000000; stroke-linecap:butt; stroke-linejoin:round; stroke-width:4; stroke-opacity:0.25; fill:none" points="
  1301.39,428.506 1301.39,1423.18 1435.06,1423.18 1435.06,428.506 1301.39,428.506 
  "/>
<path clip-path="url(#clip742)" d="
M1435.06 729.922 L1435.06 1423.18 L1568.74 1423.18 L1568.74 729.922 L1435.06 729.922 L1435.06 729.922  Z
  " fill="#009af9" fill-rule="evenodd" fill-opacity="0.25"/>
<polyline clip-path="url(#clip742)" style="stroke:#000000; stroke-linecap:butt; stroke-linejoin:round; stroke-width:4; stroke-opacity:0.25; fill:none" points="
  1435.06,729.922 1435.06,1423.18 1568.74,1423.18 1568.74,729.922 1435.06,729.922 
  "/>
<path clip-path="url(#clip742)" d="
M1568.74 1163.96 L1568.74 1423.18 L1702.41 1423.18 L1702.41 1163.96 L1568.74 1163.96 L1568.74 1163.96  Z
  " fill="#009af9" fill-rule="evenodd" fill-opacity="0.25"/>
<polyline clip-path="url(#clip742)" style="stroke:#000000; stroke-linecap:butt; stroke-linejoin:round; stroke-width:4; stroke-opacity:0.25; fill:none" points="
  1568.74,1163.96 1568.74,1423.18 1702.41,1423.18 1702.41,1163.96 1568.74,1163.96 
  "/>
<path clip-path="url(#clip742)" d="
M1702.41 1362.9 L1702.41 1423.18 L1836.08 1423.18 L1836.08 1362.9 L1702.41 1362.9 L1702.41 1362.9  Z
  " fill="#009af9" fill-rule="evenodd" fill-opacity="0.25"/>
<polyline clip-path="url(#clip742)" style="stroke:#000000; stroke-linecap:butt; stroke-linejoin:round; stroke-width:4; stroke-opacity:0.25; fill:none" points="
  1702.41,1362.9 1702.41,1423.18 1836.08,1423.18 1836.08,1362.9 1702.41,1362.9 
  "/>
<path clip-path="url(#clip742)" d="
M1836.08 1387.01 L1836.08 1423.18 L1969.76 1423.18 L1969.76 1387.01 L1836.08 1387.01 L1836.08 1387.01  Z
  " fill="#009af9" fill-rule="evenodd" fill-opacity="0.25"/>
<polyline clip-path="url(#clip742)" style="stroke:#000000; stroke-linecap:butt; stroke-linejoin:round; stroke-width:4; stroke-opacity:0.25; fill:none" points="
  1836.08,1387.01 1836.08,1423.18 1969.76,1423.18 1969.76,1387.01 1836.08,1387.01 
  "/>
<path clip-path="url(#clip742)" d="
M1969.76 1423.18 L1969.76 1423.18 L2103.43 1423.18 L2103.43 1423.18 L1969.76 1423.18 L1969.76 1423.18  Z
  " fill="#009af9" fill-rule="evenodd" fill-opacity="0.25"/>
<polyline clip-path="url(#clip742)" style="stroke:#000000; stroke-linecap:butt; stroke-linejoin:round; stroke-width:4; stroke-opacity:0.25; fill:none" points="
  1969.76,1423.18 1969.76,1423.18 2103.43,1423.18 1969.76,1423.18 
  "/>
<path clip-path="url(#clip742)" d="
M2103.43 1423.18 L2103.43 1423.18 L2237.1 1423.18 L2237.1 1423.18 L2103.43 1423.18 L2103.43 1423.18  Z
  " fill="#009af9" fill-rule="evenodd" fill-opacity="0.25"/>
<polyline clip-path="url(#clip742)" style="stroke:#000000; stroke-linecap:butt; stroke-linejoin:round; stroke-width:4; stroke-opacity:0.25; fill:none" points="
  2103.43,1423.18 2103.43,1423.18 2237.1,1423.18 2103.43,1423.18 
  "/>
<circle clip-path="url(#clip742)" style="fill:#009af9; stroke:none; fill-opacity:0" cx="432.518" cy="1417.15" r="2"/>
<circle clip-path="url(#clip742)" style="fill:#009af9; stroke:none; fill-opacity:0" cx="566.191" cy="1411.12" r="2"/>
<circle clip-path="url(#clip742)" style="fill:#009af9; stroke:none; fill-opacity:0" cx="699.864" cy="1411.12" r="2"/>
<circle clip-path="url(#clip742)" style="fill:#009af9; stroke:none; fill-opacity:0" cx="833.537" cy="1362.9" r="2"/>
<circle clip-path="url(#clip742)" style="fill:#009af9; stroke:none; fill-opacity:0" cx="967.21" cy="1290.56" r="2"/>
<circle clip-path="url(#clip742)" style="fill:#009af9; stroke:none; fill-opacity:0" cx="1100.88" cy="1085.59" r="2"/>
<circle clip-path="url(#clip742)" style="fill:#009af9; stroke:none; fill-opacity:0" cx="1234.56" cy="778.149" r="2"/>
<circle clip-path="url(#clip742)" style="fill:#009af9; stroke:none; fill-opacity:0" cx="1368.23" cy="428.506" r="2"/>
<circle clip-path="url(#clip742)" style="fill:#009af9; stroke:none; fill-opacity:0" cx="1501.9" cy="729.922" r="2"/>
<circle clip-path="url(#clip742)" style="fill:#009af9; stroke:none; fill-opacity:0" cx="1635.57" cy="1163.96" r="2"/>
<circle clip-path="url(#clip742)" style="fill:#009af9; stroke:none; fill-opacity:0" cx="1769.25" cy="1362.9" r="2"/>
<circle clip-path="url(#clip742)" style="fill:#009af9; stroke:none; fill-opacity:0" cx="1902.92" cy="1387.01" r="2"/>
<circle clip-path="url(#clip742)" style="fill:#009af9; stroke:none; fill-opacity:0" cx="2036.59" cy="1423.18" r="2"/>
<circle clip-path="url(#clip742)" style="fill:#009af9; stroke:none; fill-opacity:0" cx="2170.27" cy="1423.18" r="2"/>
<path clip-path="url(#clip742)" d="
M365.682 1417.15 L365.682 1423.18 L499.355 1423.18 L499.355 1417.15 L365.682 1417.15 L365.682 1417.15  Z
  " fill="#e26f46" fill-rule="evenodd" fill-opacity="0.25"/>
<polyline clip-path="url(#clip742)" style="stroke:#000000; stroke-linecap:butt; stroke-linejoin:round; stroke-width:4; stroke-opacity:0.25; fill:none" points="
  365.682,1417.15 365.682,1423.18 499.355,1423.18 499.355,1417.15 365.682,1417.15 
  "/>
<path clip-path="url(#clip742)" d="
M499.355 1411.12 L499.355 1423.18 L633.028 1423.18 L633.028 1411.12 L499.355 1411.12 L499.355 1411.12  Z
  " fill="#e26f46" fill-rule="evenodd" fill-opacity="0.25"/>
<polyline clip-path="url(#clip742)" style="stroke:#000000; stroke-linecap:butt; stroke-linejoin:round; stroke-width:4; stroke-opacity:0.25; fill:none" points="
  499.355,1411.12 499.355,1423.18 633.028,1423.18 633.028,1411.12 499.355,1411.12 
  "/>
<path clip-path="url(#clip742)" d="
M633.028 1405.09 L633.028 1423.18 L766.701 1423.18 L766.701 1405.09 L633.028 1405.09 L633.028 1405.09  Z
  " fill="#e26f46" fill-rule="evenodd" fill-opacity="0.25"/>
<polyline clip-path="url(#clip742)" style="stroke:#000000; stroke-linecap:butt; stroke-linejoin:round; stroke-width:4; stroke-opacity:0.25; fill:none" points="
  633.028,1405.09 633.028,1423.18 766.701,1423.18 766.701,1405.09 633.028,1405.09 
  "/>
<path clip-path="url(#clip742)" d="
M766.701 1362.9 L766.701 1423.18 L900.373 1423.18 L900.373 1362.9 L766.701 1362.9 L766.701 1362.9  Z
  " fill="#e26f46" fill-rule="evenodd" fill-opacity="0.25"/>
<polyline clip-path="url(#clip742)" style="stroke:#000000; stroke-linecap:butt; stroke-linejoin:round; stroke-width:4; stroke-opacity:0.25; fill:none" points="
  766.701,1362.9 766.701,1423.18 900.373,1423.18 900.373,1362.9 766.701,1362.9 
  "/>
<path clip-path="url(#clip742)" d="
M900.373 1272.47 L900.373 1423.18 L1034.05 1423.18 L1034.05 1272.47 L900.373 1272.47 L900.373 1272.47  Z
  " fill="#e26f46" fill-rule="evenodd" fill-opacity="0.25"/>
<polyline clip-path="url(#clip742)" style="stroke:#000000; stroke-linecap:butt; stroke-linejoin:round; stroke-width:4; stroke-opacity:0.25; fill:none" points="
  900.373,1272.47 900.373,1423.18 1034.05,1423.18 1034.05,1272.47 900.373,1272.47 
  "/>
<path clip-path="url(#clip742)" d="
M1034.05 1031.34 L1034.05 1423.18 L1167.72 1423.18 L1167.72 1031.34 L1034.05 1031.34 L1034.05 1031.34  Z
  " fill="#e26f46" fill-rule="evenodd" fill-opacity="0.25"/>
<polyline clip-path="url(#clip742)" style="stroke:#000000; stroke-linecap:butt; stroke-linejoin:round; stroke-width:4; stroke-opacity:0.25; fill:none" points="
  1034.05,1031.34 1034.05,1423.18 1167.72,1423.18 1167.72,1031.34 1034.05,1031.34 
  "/>
<path clip-path="url(#clip742)" d="
M1167.72 687.724 L1167.72 1423.18 L1301.39 1423.18 L1301.39 687.724 L1167.72 687.724 L1167.72 687.724  Z
  " fill="#e26f46" fill-rule="evenodd" fill-opacity="0.25"/>
<polyline clip-path="url(#clip742)" style="stroke:#000000; stroke-linecap:butt; stroke-linejoin:round; stroke-width:4; stroke-opacity:0.25; fill:none" points="
  1167.72,687.724 1167.72,1423.18 1301.39,1423.18 1301.39,687.724 1167.72,687.724 
  "/>
<path clip-path="url(#clip742)" d="
M1301.39 398.364 L1301.39 1423.18 L1435.06 1423.18 L1435.06 398.364 L1301.39 398.364 L1301.39 398.364  Z
  " fill="#e26f46" fill-rule="evenodd" fill-opacity="0.25"/>
<polyline clip-path="url(#clip742)" style="stroke:#000000; stroke-linecap:butt; stroke-linejoin:round; stroke-width:4; stroke-opacity:0.25; fill:none" points="
  1301.39,398.364 1301.39,1423.18 1435.06,1423.18 1435.06,398.364 1301.39,398.364 
  "/>
<path clip-path="url(#clip742)" d="
M1435.06 754.035 L1435.06 1423.18 L1568.74 1423.18 L1568.74 754.035 L1435.06 754.035 L1435.06 754.035  Z
  " fill="#e26f46" fill-rule="evenodd" fill-opacity="0.25"/>
<polyline clip-path="url(#clip742)" style="stroke:#000000; stroke-linecap:butt; stroke-linejoin:round; stroke-width:4; stroke-opacity:0.25; fill:none" points="
  1435.06,754.035 1435.06,1423.18 1568.74,1423.18 1568.74,754.035 1435.06,754.035 
  "/>
<path clip-path="url(#clip742)" d="
M1568.74 1260.41 L1568.74 1423.18 L1702.41 1423.18 L1702.41 1260.41 L1568.74 1260.41 L1568.74 1260.41  Z
  " fill="#e26f46" fill-rule="evenodd" fill-opacity="0.25"/>
<polyline clip-path="url(#clip742)" style="stroke:#000000; stroke-linecap:butt; stroke-linejoin:round; stroke-width:4; stroke-opacity:0.25; fill:none" points="
  1568.74,1260.41 1568.74,1423.18 1702.41,1423.18 1702.41,1260.41 1568.74,1260.41 
  "/>
<path clip-path="url(#clip742)" d="
M1702.41 1405.09 L1702.41 1423.18 L1836.08 1423.18 L1836.08 1405.09 L1702.41 1405.09 L1702.41 1405.09  Z
  " fill="#e26f46" fill-rule="evenodd" fill-opacity="0.25"/>
<polyline clip-path="url(#clip742)" style="stroke:#000000; stroke-linecap:butt; stroke-linejoin:round; stroke-width:4; stroke-opacity:0.25; fill:none" points="
  1702.41,1405.09 1702.41,1423.18 1836.08,1423.18 1836.08,1405.09 1702.41,1405.09 
  "/>
<path clip-path="url(#clip742)" d="
M1836.08 1423.18 L1836.08 1423.18 L1969.76 1423.18 L1969.76 1423.18 L1836.08 1423.18 L1836.08 1423.18  Z
  " fill="#e26f46" fill-rule="evenodd" fill-opacity="0.25"/>
<polyline clip-path="url(#clip742)" style="stroke:#000000; stroke-linecap:butt; stroke-linejoin:round; stroke-width:4; stroke-opacity:0.25; fill:none" points="
  1836.08,1423.18 1836.08,1423.18 1969.76,1423.18 1836.08,1423.18 
  "/>
<path clip-path="url(#clip742)" d="
M1969.76 1423.18 L1969.76 1423.18 L2103.43 1423.18 L2103.43 1423.18 L1969.76 1423.18 L1969.76 1423.18  Z
  " fill="#e26f46" fill-rule="evenodd" fill-opacity="0.25"/>
<polyline clip-path="url(#clip742)" style="stroke:#000000; stroke-linecap:butt; stroke-linejoin:round; stroke-width:4; stroke-opacity:0.25; fill:none" points="
  1969.76,1423.18 1969.76,1423.18 2103.43,1423.18 1969.76,1423.18 
  "/>
<path clip-path="url(#clip742)" d="
M2103.43 1423.18 L2103.43 1423.18 L2237.1 1423.18 L2237.1 1423.18 L2103.43 1423.18 L2103.43 1423.18  Z
  " fill="#e26f46" fill-rule="evenodd" fill-opacity="0.25"/>
<polyline clip-path="url(#clip742)" style="stroke:#000000; stroke-linecap:butt; stroke-linejoin:round; stroke-width:4; stroke-opacity:0.25; fill:none" points="
  2103.43,1423.18 2103.43,1423.18 2237.1,1423.18 2103.43,1423.18 
  "/>
<circle clip-path="url(#clip742)" style="fill:#e26f46; stroke:none; fill-opacity:0" cx="432.518" cy="1417.15" r="2"/>
<circle clip-path="url(#clip742)" style="fill:#e26f46; stroke:none; fill-opacity:0" cx="566.191" cy="1411.12" r="2"/>
<circle clip-path="url(#clip742)" style="fill:#e26f46; stroke:none; fill-opacity:0" cx="699.864" cy="1405.09" r="2"/>
<circle clip-path="url(#clip742)" style="fill:#e26f46; stroke:none; fill-opacity:0" cx="833.537" cy="1362.9" r="2"/>
<circle clip-path="url(#clip742)" style="fill:#e26f46; stroke:none; fill-opacity:0" cx="967.21" cy="1272.47" r="2"/>
<circle clip-path="url(#clip742)" style="fill:#e26f46; stroke:none; fill-opacity:0" cx="1100.88" cy="1031.34" r="2"/>
<circle clip-path="url(#clip742)" style="fill:#e26f46; stroke:none; fill-opacity:0" cx="1234.56" cy="687.724" r="2"/>
<circle clip-path="url(#clip742)" style="fill:#e26f46; stroke:none; fill-opacity:0" cx="1368.23" cy="398.364" r="2"/>
<circle clip-path="url(#clip742)" style="fill:#e26f46; stroke:none; fill-opacity:0" cx="1501.9" cy="754.035" r="2"/>
<circle clip-path="url(#clip742)" style="fill:#e26f46; stroke:none; fill-opacity:0" cx="1635.57" cy="1260.41" r="2"/>
<circle clip-path="url(#clip742)" style="fill:#e26f46; stroke:none; fill-opacity:0" cx="1769.25" cy="1405.09" r="2"/>
<circle clip-path="url(#clip742)" style="fill:#e26f46; stroke:none; fill-opacity:0" cx="1902.92" cy="1423.18" r="2"/>
<circle clip-path="url(#clip742)" style="fill:#e26f46; stroke:none; fill-opacity:0" cx="2036.59" cy="1423.18" r="2"/>
<circle clip-path="url(#clip742)" style="fill:#e26f46; stroke:none; fill-opacity:0" cx="2170.27" cy="1423.18" r="2"/>
<path clip-path="url(#clip740)" d="
M1459.24 322.316 L2282.66 322.316 L2282.66 166.796 L1459.24 166.796  Z
  " fill="#ffffff" fill-rule="evenodd" fill-opacity="1"/>
<polyline clip-path="url(#clip740)" style="stroke:#000000; stroke-linecap:butt; stroke-linejoin:round; stroke-width:4; stroke-opacity:1; fill:none" points="
  1459.24,322.316 2282.66,322.316 2282.66,166.796 1459.24,166.796 1459.24,322.316 
  "/>
<path clip-path="url(#clip740)" d="
M1482.6 239.372 L1622.79 239.372 L1622.79 197.9 L1482.6 197.9 L1482.6 239.372  Z
  " fill="#009af9" fill-rule="evenodd" fill-opacity="0.25"/>
<polyline clip-path="url(#clip740)" style="stroke:#000000; stroke-linecap:butt; stroke-linejoin:round; stroke-width:4; stroke-opacity:1; fill:none" points="
  1482.6,239.372 1622.79,239.372 1622.79,197.9 1482.6,197.9 1482.6,239.372 
  "/>
<path clip-path="url(#clip740)" d="M1662.54 219.712 Q1664.04 220.221 1665.45 221.888 Q1666.89 223.555 1668.32 226.471 L1673.07 235.916 L1668.05 235.916 L1663.63 227.05 Q1661.91 223.578 1660.29 222.444 Q1658.7 221.309 1655.92 221.309 L1650.83 221.309 L1650.83 235.916 L1646.15 235.916 L1646.15 201.356 L1656.7 201.356 Q1662.63 201.356 1665.55 203.833 Q1668.46 206.309 1668.46 211.309 Q1668.46 214.573 1666.94 216.726 Q1665.43 218.879 1662.54 219.712 M1650.83 205.198 L1650.83 217.467 L1656.7 217.467 Q1660.08 217.467 1661.8 215.916 Q1663.53 214.342 1663.53 211.309 Q1663.53 208.277 1661.8 206.749 Q1660.08 205.198 1656.7 205.198 L1650.83 205.198 Z" fill="#000000" fill-rule="evenodd" fill-opacity="1" /><path clip-path="url(#clip740)" d="M1687.1 238.323 Q1685.29 242.953 1683.58 244.365 Q1681.87 245.777 1679 245.777 L1675.59 245.777 L1675.59 242.212 L1678.09 242.212 Q1679.85 242.212 1680.82 241.379 Q1681.8 240.545 1682.98 237.443 L1683.74 235.499 L1673.26 209.99 L1677.77 209.99 L1685.87 230.268 L1693.97 209.99 L1698.49 209.99 L1687.1 238.323 Z" fill="#000000" fill-rule="evenodd" fill-opacity="1" /><path clip-path="url(#clip740)" d="M1725.92 220.268 L1725.92 235.916 L1721.66 235.916 L1721.66 220.407 Q1721.66 216.726 1720.22 214.897 Q1718.79 213.069 1715.92 213.069 Q1712.47 213.069 1710.48 215.268 Q1708.49 217.467 1708.49 221.263 L1708.49 235.916 L1704.2 235.916 L1704.2 209.99 L1708.49 209.99 L1708.49 214.018 Q1710.01 211.68 1712.07 210.522 Q1714.16 209.365 1716.87 209.365 Q1721.33 209.365 1723.63 212.143 Q1725.92 214.897 1725.92 220.268 Z" fill="#000000" fill-rule="evenodd" fill-opacity="1" /><path clip-path="url(#clip740)" d="M1756.59 221.888 L1756.59 223.971 L1737.01 223.971 Q1737.28 228.369 1739.64 230.684 Q1742.03 232.976 1746.26 232.976 Q1748.72 232.976 1751.01 232.374 Q1753.32 231.772 1755.59 230.569 L1755.59 234.596 Q1753.3 235.568 1750.89 236.078 Q1748.49 236.587 1746.01 236.587 Q1739.81 236.587 1736.17 232.976 Q1732.56 229.365 1732.56 223.207 Q1732.56 216.842 1735.99 213.115 Q1739.44 209.365 1745.27 209.365 Q1750.5 209.365 1753.53 212.745 Q1756.59 216.101 1756.59 221.888 M1752.33 220.638 Q1752.28 217.143 1750.36 215.059 Q1748.46 212.976 1745.32 212.976 Q1741.75 212.976 1739.6 214.99 Q1737.47 217.004 1737.14 220.661 L1752.33 220.638 Z" fill="#000000" fill-rule="evenodd" fill-opacity="1" /><path clip-path="url(#clip740)" d="M1763.42 199.897 L1767.7 199.897 L1767.7 221.17 L1780.41 209.99 L1785.85 209.99 L1772.1 222.119 L1786.43 235.916 L1780.87 235.916 L1767.7 223.254 L1767.7 235.916 L1763.42 235.916 L1763.42 199.897 Z" fill="#000000" fill-rule="evenodd" fill-opacity="1" /><path clip-path="url(#clip740)" d="M1803.63 209.99 L1807.88 209.99 L1813.21 230.221 L1818.51 209.99 L1823.53 209.99 L1828.86 230.221 L1834.16 209.99 L1838.42 209.99 L1831.63 235.916 L1826.61 235.916 L1821.03 214.666 L1815.43 235.916 L1810.41 235.916 L1803.63 209.99 Z" fill="#000000" fill-rule="evenodd" fill-opacity="1" /><path clip-path="url(#clip740)" d="M1849.09 202.629 L1849.09 209.99 L1857.86 209.99 L1857.86 213.3 L1849.09 213.3 L1849.09 227.374 Q1849.09 230.545 1849.94 231.448 Q1850.82 232.351 1853.49 232.351 L1857.86 232.351 L1857.86 235.916 L1853.49 235.916 Q1848.56 235.916 1846.68 234.087 Q1844.81 232.235 1844.81 227.374 L1844.81 213.3 L1841.68 213.3 L1841.68 209.99 L1844.81 209.99 L1844.81 202.629 L1849.09 202.629 Z" fill="#000000" fill-rule="evenodd" fill-opacity="1" /><path clip-path="url(#clip740)" d="M1873.51 212.976 Q1870.08 212.976 1868.09 215.661 Q1866.1 218.323 1866.1 222.976 Q1866.1 227.629 1868.07 230.314 Q1870.06 232.976 1873.51 232.976 Q1876.91 232.976 1878.9 230.291 Q1880.89 227.606 1880.89 222.976 Q1880.89 218.37 1878.9 215.684 Q1876.91 212.976 1873.51 212.976 M1873.51 209.365 Q1879.06 209.365 1882.24 212.976 Q1885.41 216.587 1885.41 222.976 Q1885.41 229.342 1882.24 232.976 Q1879.06 236.587 1873.51 236.587 Q1867.93 236.587 1864.76 232.976 Q1861.61 229.342 1861.61 222.976 Q1861.61 216.587 1864.76 212.976 Q1867.93 209.365 1873.51 209.365 M1876.73 197.999 L1881.33 197.999 L1873.79 206.703 L1870.25 206.703 L1876.73 197.999 Z" fill="#000000" fill-rule="evenodd" fill-opacity="1" /><path clip-path="url(#clip740)" d="M1907.49 213.971 Q1906.77 213.555 1905.92 213.37 Q1905.08 213.161 1904.06 213.161 Q1900.45 213.161 1898.51 215.522 Q1896.59 217.86 1896.59 222.258 L1896.59 235.916 L1892.31 235.916 L1892.31 209.99 L1896.59 209.99 L1896.59 214.018 Q1897.93 211.657 1900.08 210.522 Q1902.24 209.365 1905.31 209.365 Q1905.75 209.365 1906.29 209.434 Q1906.82 209.481 1907.47 209.596 L1907.49 213.971 Z" fill="#000000" fill-rule="evenodd" fill-opacity="1" /><path clip-path="url(#clip740)" d="M1932.68 220.268 L1932.68 235.916 L1928.42 235.916 L1928.42 220.407 Q1928.42 216.726 1926.98 214.897 Q1925.55 213.069 1922.68 213.069 Q1919.23 213.069 1917.24 215.268 Q1915.24 217.467 1915.24 221.263 L1915.24 235.916 L1910.96 235.916 L1910.96 209.99 L1915.24 209.99 L1915.24 214.018 Q1916.77 211.68 1918.83 210.522 Q1920.92 209.365 1923.62 209.365 Q1928.09 209.365 1930.38 212.143 Q1932.68 214.897 1932.68 220.268 Z" fill="#000000" fill-rule="evenodd" fill-opacity="1" /><path clip-path="url(#clip740)" d="M1951.96 238.323 Q1950.15 242.953 1948.44 244.365 Q1946.73 245.777 1943.86 245.777 L1940.45 245.777 L1940.45 242.212 L1942.95 242.212 Q1944.71 242.212 1945.68 241.379 Q1946.66 240.545 1947.84 237.443 L1948.6 235.499 L1938.12 209.99 L1942.63 209.99 L1950.73 230.268 L1958.83 209.99 L1963.35 209.99 L1951.96 238.323 Z" fill="#000000" fill-rule="evenodd" fill-opacity="1" /><path clip-path="url(#clip740)" d="M1984.3 209.99 L1988.55 209.99 L1988.55 235.916 L1984.3 235.916 L1984.3 209.99 M1984.3 199.897 L1988.55 199.897 L1988.55 205.291 L1984.3 205.291 L1984.3 199.897 Z" fill="#000000" fill-rule="evenodd" fill-opacity="1" /><path clip-path="url(#clip740)" d="M2013.99 210.754 L2013.99 214.782 Q2012.19 213.856 2010.24 213.393 Q2008.3 212.93 2006.22 212.93 Q2003.05 212.93 2001.45 213.902 Q1999.87 214.874 1999.87 216.819 Q1999.87 218.3 2001.01 219.157 Q2002.14 219.99 2005.57 220.754 L2007.03 221.078 Q2011.56 222.05 2013.46 223.832 Q2015.38 225.592 2015.38 228.763 Q2015.38 232.374 2012.51 234.481 Q2009.67 236.587 2004.67 236.587 Q2002.58 236.587 2000.31 236.17 Q1998.07 235.777 1995.57 234.967 L1995.57 230.569 Q1997.93 231.795 2000.22 232.42 Q2002.51 233.022 2004.76 233.022 Q2007.77 233.022 2009.39 232.004 Q2011.01 230.962 2011.01 229.087 Q2011.01 227.351 2009.83 226.425 Q2008.67 225.499 2004.71 224.643 L2003.23 224.295 Q1999.27 223.462 1997.51 221.749 Q1995.75 220.013 1995.75 217.004 Q1995.75 213.346 1998.35 211.356 Q2000.94 209.365 2005.71 209.365 Q2008.07 209.365 2010.15 209.712 Q2012.24 210.059 2013.99 210.754 Z" fill="#000000" fill-rule="evenodd" fill-opacity="1" /><path clip-path="url(#clip740)" d="M2026.38 202.629 L2026.38 209.99 L2035.15 209.99 L2035.15 213.3 L2026.38 213.3 L2026.38 227.374 Q2026.38 230.545 2027.24 231.448 Q2028.11 232.351 2030.78 232.351 L2035.15 232.351 L2035.15 235.916 L2030.78 235.916 Q2025.85 235.916 2023.97 234.087 Q2022.1 232.235 2022.1 227.374 L2022.1 213.3 L2018.97 213.3 L2018.97 209.99 L2022.1 209.99 L2022.1 202.629 L2026.38 202.629 Z" fill="#000000" fill-rule="evenodd" fill-opacity="1" /><path clip-path="url(#clip740)" d="M2062.3 220.268 L2062.3 235.916 L2058.05 235.916 L2058.05 220.407 Q2058.05 216.726 2056.61 214.897 Q2055.17 213.069 2052.3 213.069 Q2048.86 213.069 2046.86 215.268 Q2044.87 217.467 2044.87 221.263 L2044.87 235.916 L2040.59 235.916 L2040.59 209.99 L2044.87 209.99 L2044.87 214.018 Q2046.4 211.68 2048.46 210.522 Q2050.55 209.365 2053.25 209.365 Q2057.72 209.365 2060.01 212.143 Q2062.3 214.897 2062.3 220.268 Z" fill="#000000" fill-rule="evenodd" fill-opacity="1" /><path clip-path="url(#clip740)" d="M2070.8 209.99 L2075.06 209.99 L2075.06 235.916 L2070.8 235.916 L2070.8 209.99 M2070.8 199.897 L2075.06 199.897 L2075.06 205.291 L2070.8 205.291 L2070.8 199.897 Z" fill="#000000" fill-rule="evenodd" fill-opacity="1" /><path clip-path="url(#clip740)" d="M2106.15 221.888 L2106.15 223.971 L2086.56 223.971 Q2086.84 228.369 2089.2 230.684 Q2091.59 232.976 2095.82 232.976 Q2098.28 232.976 2100.57 232.374 Q2102.88 231.772 2105.15 230.569 L2105.15 234.596 Q2102.86 235.568 2100.45 236.078 Q2098.04 236.587 2095.57 236.587 Q2089.36 236.587 2085.73 232.976 Q2082.12 229.365 2082.12 223.207 Q2082.12 216.842 2085.54 213.115 Q2088.99 209.365 2094.83 209.365 Q2100.06 209.365 2103.09 212.745 Q2106.15 216.101 2106.15 221.888 M2101.89 220.638 Q2101.84 217.143 2099.92 215.059 Q2098.02 212.976 2094.87 212.976 Q2091.31 212.976 2089.16 214.99 Q2087.03 217.004 2086.7 220.661 L2101.89 220.638 Z" fill="#000000" fill-rule="evenodd" fill-opacity="1" /><path clip-path="url(#clip740)" d="M2113.14 209.99 L2117.4 209.99 L2117.4 236.379 Q2117.4 241.332 2115.5 243.555 Q2113.62 245.777 2109.43 245.777 L2107.81 245.777 L2107.81 242.166 L2108.95 242.166 Q2111.38 242.166 2112.26 241.031 Q2113.14 239.92 2113.14 236.379 L2113.14 209.99 M2113.14 199.897 L2117.4 199.897 L2117.4 205.291 L2113.14 205.291 L2113.14 199.897 Z" fill="#000000" fill-rule="evenodd" fill-opacity="1" /><path clip-path="url(#clip740)" d="M2148.48 221.888 L2148.48 223.971 L2128.9 223.971 Q2129.18 228.369 2131.54 230.684 Q2133.92 232.976 2138.16 232.976 Q2140.61 232.976 2142.91 232.374 Q2145.22 231.772 2147.49 230.569 L2147.49 234.596 Q2145.2 235.568 2142.79 236.078 Q2140.38 236.587 2137.91 236.587 Q2131.7 236.587 2128.07 232.976 Q2124.46 229.365 2124.46 223.207 Q2124.46 216.842 2127.88 213.115 Q2131.33 209.365 2137.17 209.365 Q2142.4 209.365 2145.43 212.745 Q2148.48 216.101 2148.48 221.888 M2144.23 220.638 Q2144.18 217.143 2142.26 215.059 Q2140.36 212.976 2137.21 212.976 Q2133.65 212.976 2131.49 214.99 Q2129.36 217.004 2129.04 220.661 L2144.23 220.638 Z" fill="#000000" fill-rule="evenodd" fill-opacity="1" /><path clip-path="url(#clip740)" d="
M1482.6 291.212 L1622.79 291.212 L1622.79 249.74 L1482.6 249.74 L1482.6 291.212  Z
  " fill="#e26f46" fill-rule="evenodd" fill-opacity="0.25"/>
<polyline clip-path="url(#clip740)" style="stroke:#000000; stroke-linecap:butt; stroke-linejoin:round; stroke-width:4; stroke-opacity:1; fill:none" points="
  1482.6,291.212 1622.79,291.212 1622.79,249.74 1482.6,249.74 1482.6,291.212 
  "/>
<path clip-path="url(#clip740)" d="M1662.54 271.552 Q1664.04 272.061 1665.45 273.728 Q1666.89 275.395 1668.32 278.311 L1673.07 287.756 L1668.05 287.756 L1663.63 278.89 Q1661.91 275.418 1660.29 274.284 Q1658.7 273.149 1655.92 273.149 L1650.83 273.149 L1650.83 287.756 L1646.15 287.756 L1646.15 253.196 L1656.7 253.196 Q1662.63 253.196 1665.55 255.673 Q1668.46 258.149 1668.46 263.149 Q1668.46 266.413 1666.94 268.566 Q1665.43 270.719 1662.54 271.552 M1650.83 257.038 L1650.83 269.307 L1656.7 269.307 Q1660.08 269.307 1661.8 267.756 Q1663.53 266.182 1663.53 263.149 Q1663.53 260.117 1661.8 258.589 Q1660.08 257.038 1656.7 257.038 L1650.83 257.038 Z" fill="#000000" fill-rule="evenodd" fill-opacity="1" /><path clip-path="url(#clip740)" d="M1687.1 290.163 Q1685.29 294.793 1683.58 296.205 Q1681.87 297.617 1679 297.617 L1675.59 297.617 L1675.59 294.052 L1678.09 294.052 Q1679.85 294.052 1680.82 293.219 Q1681.8 292.385 1682.98 289.283 L1683.74 287.339 L1673.26 261.83 L1677.77 261.83 L1685.87 282.108 L1693.97 261.83 L1698.49 261.83 L1687.1 290.163 Z" fill="#000000" fill-rule="evenodd" fill-opacity="1" /><path clip-path="url(#clip740)" d="M1725.92 272.108 L1725.92 287.756 L1721.66 287.756 L1721.66 272.247 Q1721.66 268.566 1720.22 266.737 Q1718.79 264.909 1715.92 264.909 Q1712.47 264.909 1710.48 267.108 Q1708.49 269.307 1708.49 273.103 L1708.49 287.756 L1704.2 287.756 L1704.2 261.83 L1708.49 261.83 L1708.49 265.858 Q1710.01 263.52 1712.07 262.362 Q1714.16 261.205 1716.87 261.205 Q1721.33 261.205 1723.63 263.983 Q1725.92 266.737 1725.92 272.108 Z" fill="#000000" fill-rule="evenodd" fill-opacity="1" /><path clip-path="url(#clip740)" d="M1756.59 273.728 L1756.59 275.811 L1737.01 275.811 Q1737.28 280.209 1739.64 282.524 Q1742.03 284.816 1746.26 284.816 Q1748.72 284.816 1751.01 284.214 Q1753.32 283.612 1755.59 282.409 L1755.59 286.436 Q1753.3 287.408 1750.89 287.918 Q1748.49 288.427 1746.01 288.427 Q1739.81 288.427 1736.17 284.816 Q1732.56 281.205 1732.56 275.047 Q1732.56 268.682 1735.99 264.955 Q1739.44 261.205 1745.27 261.205 Q1750.5 261.205 1753.53 264.585 Q1756.59 267.941 1756.59 273.728 M1752.33 272.478 Q1752.28 268.983 1750.36 266.899 Q1748.46 264.816 1745.32 264.816 Q1741.75 264.816 1739.6 266.83 Q1737.47 268.844 1737.14 272.501 L1752.33 272.478 Z" fill="#000000" fill-rule="evenodd" fill-opacity="1" /><path clip-path="url(#clip740)" d="M1763.42 251.737 L1767.7 251.737 L1767.7 273.01 L1780.41 261.83 L1785.85 261.83 L1772.1 273.959 L1786.43 287.756 L1780.87 287.756 L1767.7 275.094 L1767.7 287.756 L1763.42 287.756 L1763.42 251.737 Z" fill="#000000" fill-rule="evenodd" fill-opacity="1" /><path clip-path="url(#clip740)" d="M1803.63 261.83 L1807.88 261.83 L1813.21 282.061 L1818.51 261.83 L1823.53 261.83 L1828.86 282.061 L1834.16 261.83 L1838.42 261.83 L1831.63 287.756 L1826.61 287.756 L1821.03 266.506 L1815.43 287.756 L1810.41 287.756 L1803.63 261.83 Z" fill="#000000" fill-rule="evenodd" fill-opacity="1" /><path clip-path="url(#clip740)" d="M1849.09 254.469 L1849.09 261.83 L1857.86 261.83 L1857.86 265.14 L1849.09 265.14 L1849.09 279.214 Q1849.09 282.385 1849.94 283.288 Q1850.82 284.191 1853.49 284.191 L1857.86 284.191 L1857.86 287.756 L1853.49 287.756 Q1848.56 287.756 1846.68 285.927 Q1844.81 284.075 1844.81 279.214 L1844.81 265.14 L1841.68 265.14 L1841.68 261.83 L1844.81 261.83 L1844.81 254.469 L1849.09 254.469 Z" fill="#000000" fill-rule="evenodd" fill-opacity="1" /><path clip-path="url(#clip740)" d="M1873.51 264.816 Q1870.08 264.816 1868.09 267.501 Q1866.1 270.163 1866.1 274.816 Q1866.1 279.469 1868.07 282.154 Q1870.06 284.816 1873.51 284.816 Q1876.91 284.816 1878.9 282.131 Q1880.89 279.446 1880.89 274.816 Q1880.89 270.21 1878.9 267.524 Q1876.91 264.816 1873.51 264.816 M1873.51 261.205 Q1879.06 261.205 1882.24 264.816 Q1885.41 268.427 1885.41 274.816 Q1885.41 281.182 1882.24 284.816 Q1879.06 288.427 1873.51 288.427 Q1867.93 288.427 1864.76 284.816 Q1861.61 281.182 1861.61 274.816 Q1861.61 268.427 1864.76 264.816 Q1867.93 261.205 1873.51 261.205 M1876.73 249.839 L1881.33 249.839 L1873.79 258.543 L1870.25 258.543 L1876.73 249.839 Z" fill="#000000" fill-rule="evenodd" fill-opacity="1" /><path clip-path="url(#clip740)" d="M1907.49 265.811 Q1906.77 265.395 1905.92 265.21 Q1905.08 265.001 1904.06 265.001 Q1900.45 265.001 1898.51 267.362 Q1896.59 269.7 1896.59 274.098 L1896.59 287.756 L1892.31 287.756 L1892.31 261.83 L1896.59 261.83 L1896.59 265.858 Q1897.93 263.497 1900.08 262.362 Q1902.24 261.205 1905.31 261.205 Q1905.75 261.205 1906.29 261.274 Q1906.82 261.321 1907.47 261.436 L1907.49 265.811 Z" fill="#000000" fill-rule="evenodd" fill-opacity="1" /><path clip-path="url(#clip740)" d="M1932.68 272.108 L1932.68 287.756 L1928.42 287.756 L1928.42 272.247 Q1928.42 268.566 1926.98 266.737 Q1925.55 264.909 1922.68 264.909 Q1919.23 264.909 1917.24 267.108 Q1915.24 269.307 1915.24 273.103 L1915.24 287.756 L1910.96 287.756 L1910.96 261.83 L1915.24 261.83 L1915.24 265.858 Q1916.77 263.52 1918.83 262.362 Q1920.92 261.205 1923.62 261.205 Q1928.09 261.205 1930.38 263.983 Q1932.68 266.737 1932.68 272.108 Z" fill="#000000" fill-rule="evenodd" fill-opacity="1" /><path clip-path="url(#clip740)" d="M1951.96 290.163 Q1950.15 294.793 1948.44 296.205 Q1946.73 297.617 1943.86 297.617 L1940.45 297.617 L1940.45 294.052 L1942.95 294.052 Q1944.71 294.052 1945.68 293.219 Q1946.66 292.385 1947.84 289.283 L1948.6 287.339 L1938.12 261.83 L1942.63 261.83 L1950.73 282.108 L1958.83 261.83 L1963.35 261.83 L1951.96 290.163 Z" fill="#000000" fill-rule="evenodd" fill-opacity="1" /><path clip-path="url(#clip740)" d="M2005.85 272.108 L2005.85 287.756 L2001.59 287.756 L2001.59 272.247 Q2001.59 268.566 2000.15 266.737 Q1998.72 264.909 1995.85 264.909 Q1992.4 264.909 1990.41 267.108 Q1988.42 269.307 1988.42 273.103 L1988.42 287.756 L1984.13 287.756 L1984.13 261.83 L1988.42 261.83 L1988.42 265.858 Q1989.94 263.52 1992 262.362 Q1994.09 261.205 1996.8 261.205 Q2001.26 261.205 2003.55 263.983 Q2005.85 266.737 2005.85 272.108 Z" fill="#000000" fill-rule="evenodd" fill-opacity="1" /><path clip-path="url(#clip740)" d="M2014.34 261.83 L2018.6 261.83 L2018.6 287.756 L2014.34 287.756 L2014.34 261.83 M2014.34 251.737 L2018.6 251.737 L2018.6 257.131 L2014.34 257.131 L2014.34 251.737 Z" fill="#000000" fill-rule="evenodd" fill-opacity="1" /><path clip-path="url(#clip740)" d="M2049.69 273.728 L2049.69 275.811 L2030.11 275.811 Q2030.38 280.209 2032.74 282.524 Q2035.13 284.816 2039.36 284.816 Q2041.82 284.816 2044.11 284.214 Q2046.42 283.612 2048.69 282.409 L2048.69 286.436 Q2046.4 287.408 2043.99 287.918 Q2041.59 288.427 2039.11 288.427 Q2032.91 288.427 2029.27 284.816 Q2025.66 281.205 2025.66 275.047 Q2025.66 268.682 2029.09 264.955 Q2032.54 261.205 2038.37 261.205 Q2043.6 261.205 2046.63 264.585 Q2049.69 267.941 2049.69 273.728 M2045.43 272.478 Q2045.38 268.983 2043.46 266.899 Q2041.56 264.816 2038.42 264.816 Q2034.85 264.816 2032.7 266.83 Q2030.57 268.844 2030.24 272.501 L2045.43 272.478 Z" fill="#000000" fill-rule="evenodd" fill-opacity="1" /><path clip-path="url(#clip740)" d="M2071.75 261.83 L2076.01 261.83 L2076.01 287.756 L2071.75 287.756 L2071.75 261.83 M2071.75 251.737 L2076.01 251.737 L2076.01 257.131 L2071.75 257.131 L2071.75 251.737 Z" fill="#000000" fill-rule="evenodd" fill-opacity="1" /><path clip-path="url(#clip740)" d="M2101.45 262.594 L2101.45 266.622 Q2099.64 265.696 2097.7 265.233 Q2095.75 264.77 2093.67 264.77 Q2090.5 264.77 2088.9 265.742 Q2087.33 266.714 2087.33 268.659 Q2087.33 270.14 2088.46 270.997 Q2089.6 271.83 2093.02 272.594 L2094.48 272.918 Q2099.02 273.89 2100.92 275.672 Q2102.84 277.432 2102.84 280.603 Q2102.84 284.214 2099.97 286.321 Q2097.12 288.427 2092.12 288.427 Q2090.04 288.427 2087.77 288.01 Q2085.52 287.617 2083.02 286.807 L2083.02 282.409 Q2085.38 283.635 2087.67 284.26 Q2089.97 284.862 2092.21 284.862 Q2095.22 284.862 2096.84 283.844 Q2098.46 282.802 2098.46 280.927 Q2098.46 279.191 2097.28 278.265 Q2096.12 277.339 2092.17 276.483 L2090.68 276.135 Q2086.73 275.302 2084.97 273.589 Q2083.21 271.853 2083.21 268.844 Q2083.21 265.186 2085.8 263.196 Q2088.39 261.205 2093.16 261.205 Q2095.52 261.205 2097.61 261.552 Q2099.69 261.899 2101.45 262.594 Z" fill="#000000" fill-rule="evenodd" fill-opacity="1" /><path clip-path="url(#clip740)" d="M2113.83 254.469 L2113.83 261.83 L2122.6 261.83 L2122.6 265.14 L2113.83 265.14 L2113.83 279.214 Q2113.83 282.385 2114.69 283.288 Q2115.57 284.191 2118.23 284.191 L2122.6 284.191 L2122.6 287.756 L2118.23 287.756 Q2113.3 287.756 2111.42 285.927 Q2109.55 284.075 2109.55 279.214 L2109.55 265.14 L2106.42 265.14 L2106.42 261.83 L2109.55 261.83 L2109.55 254.469 L2113.83 254.469 Z" fill="#000000" fill-rule="evenodd" fill-opacity="1" /><path clip-path="url(#clip740)" d="M2149.76 272.108 L2149.76 287.756 L2145.5 287.756 L2145.5 272.247 Q2145.5 268.566 2144.06 266.737 Q2142.63 264.909 2139.76 264.909 Q2136.31 264.909 2134.32 267.108 Q2132.33 269.307 2132.33 273.103 L2132.33 287.756 L2128.04 287.756 L2128.04 261.83 L2132.33 261.83 L2132.33 265.858 Q2133.85 263.52 2135.92 262.362 Q2138 261.205 2140.71 261.205 Q2145.17 261.205 2147.47 263.983 Q2149.76 266.737 2149.76 272.108 Z" fill="#000000" fill-rule="evenodd" fill-opacity="1" /><path clip-path="url(#clip740)" d="M2158.25 261.83 L2162.51 261.83 L2162.51 287.756 L2158.25 287.756 L2158.25 261.83 M2158.25 251.737 L2162.51 251.737 L2162.51 257.131 L2158.25 257.131 L2158.25 251.737 Z" fill="#000000" fill-rule="evenodd" fill-opacity="1" /><path clip-path="url(#clip740)" d="M2193.6 273.728 L2193.6 275.811 L2174.02 275.811 Q2174.29 280.209 2176.66 282.524 Q2179.04 284.816 2183.28 284.816 Q2185.73 284.816 2188.02 284.214 Q2190.34 283.612 2192.6 282.409 L2192.6 286.436 Q2190.31 287.408 2187.91 287.918 Q2185.5 288.427 2183.02 288.427 Q2176.82 288.427 2173.18 284.816 Q2169.57 281.205 2169.57 275.047 Q2169.57 268.682 2173 264.955 Q2176.45 261.205 2182.28 261.205 Q2187.51 261.205 2190.54 264.585 Q2193.6 267.941 2193.6 273.728 M2189.34 272.478 Q2189.29 268.983 2187.37 266.899 Q2185.48 264.816 2182.33 264.816 Q2178.76 264.816 2176.61 266.83 Q2174.48 268.844 2174.16 272.501 L2189.34 272.478 Z" fill="#000000" fill-rule="evenodd" fill-opacity="1" /><path clip-path="url(#clip740)" d="M2200.59 261.83 L2204.85 261.83 L2204.85 288.219 Q2204.85 293.172 2202.95 295.395 Q2201.08 297.617 2196.89 297.617 L2195.27 297.617 L2195.27 294.006 L2196.4 294.006 Q2198.83 294.006 2199.71 292.871 Q2200.59 291.76 2200.59 288.219 L2200.59 261.83 M2200.59 251.737 L2204.85 251.737 L2204.85 257.131 L2200.59 257.131 L2200.59 251.737 Z" fill="#000000" fill-rule="evenodd" fill-opacity="1" /><path clip-path="url(#clip740)" d="M2235.94 273.728 L2235.94 275.811 L2216.35 275.811 Q2216.63 280.209 2218.99 282.524 Q2221.38 284.816 2225.61 284.816 Q2228.07 284.816 2230.36 284.214 Q2232.67 283.612 2234.94 282.409 L2234.94 286.436 Q2232.65 287.408 2230.24 287.918 Q2227.84 288.427 2225.36 288.427 Q2219.16 288.427 2215.52 284.816 Q2211.91 281.205 2211.91 275.047 Q2211.91 268.682 2215.34 264.955 Q2218.79 261.205 2224.62 261.205 Q2229.85 261.205 2232.88 264.585 Q2235.94 267.941 2235.94 273.728 M2231.68 272.478 Q2231.63 268.983 2229.71 266.899 Q2227.81 264.816 2224.66 264.816 Q2221.1 264.816 2218.95 266.83 Q2216.82 268.844 2216.49 272.501 L2231.68 272.478 Z" fill="#000000" fill-rule="evenodd" fill-opacity="1" /></svg>
