<?xml version="1.0" encoding="utf-8"?>
<svg xmlns="http://www.w3.org/2000/svg" xmlns:xlink="http://www.w3.org/1999/xlink" width="600" height="400" viewBox="0 0 2400 1600">
<defs>
  <clipPath id="clip400">
    <rect x="0" y="0" width="2400" height="1600"/>
  </clipPath>
</defs>
<path clip-path="url(#clip400)" d="
M0 1600 L2400 1600 L2400 0 L0 0  Z
  " fill="#ffffff" fill-rule="evenodd" fill-opacity="1"/>
<defs>
  <clipPath id="clip401">
    <rect x="480" y="0" width="1681" height="1600"/>
  </clipPath>
</defs>
<path clip-path="url(#clip400)" d="
M249.542 1423.18 L2352.76 1423.18 L2352.76 123.472 L249.542 123.472  Z
  " fill="#ffffff" fill-rule="evenodd" fill-opacity="1"/>
<defs>
  <clipPath id="clip402">
    <rect x="249" y="123" width="2104" height="1301"/>
  </clipPath>
</defs>
<polyline clip-path="url(#clip402)" style="stroke:#000000; stroke-linecap:butt; stroke-linejoin:round; stroke-width:2; stroke-opacity:0.1; fill:none" points="
  306.584,1423.18 306.584,123.472 
  "/>
<polyline clip-path="url(#clip402)" style="stroke:#000000; stroke-linecap:butt; stroke-linejoin:round; stroke-width:2; stroke-opacity:0.1; fill:none" points="
  803.245,1423.18 803.245,123.472 
  "/>
<polyline clip-path="url(#clip402)" style="stroke:#000000; stroke-linecap:butt; stroke-linejoin:round; stroke-width:2; stroke-opacity:0.1; fill:none" points="
  1299.91,1423.18 1299.91,123.472 
  "/>
<polyline clip-path="url(#clip402)" style="stroke:#000000; stroke-linecap:butt; stroke-linejoin:round; stroke-width:2; stroke-opacity:0.1; fill:none" points="
  1796.57,1423.18 1796.57,123.472 
  "/>
<polyline clip-path="url(#clip402)" style="stroke:#000000; stroke-linecap:butt; stroke-linejoin:round; stroke-width:2; stroke-opacity:0.1; fill:none" points="
  2293.23,1423.18 2293.23,123.472 
  "/>
<polyline clip-path="url(#clip400)" style="stroke:#000000; stroke-linecap:butt; stroke-linejoin:round; stroke-width:4; stroke-opacity:1; fill:none" points="
  249.542,1423.18 2352.76,1423.18 
  "/>
<polyline clip-path="url(#clip400)" style="stroke:#000000; stroke-linecap:butt; stroke-linejoin:round; stroke-width:4; stroke-opacity:1; fill:none" points="
  306.584,1423.18 306.584,1404.28 
  "/>
<polyline clip-path="url(#clip400)" style="stroke:#000000; stroke-linecap:butt; stroke-linejoin:round; stroke-width:4; stroke-opacity:1; fill:none" points="
  803.245,1423.18 803.245,1404.28 
  "/>
<polyline clip-path="url(#clip400)" style="stroke:#000000; stroke-linecap:butt; stroke-linejoin:round; stroke-width:4; stroke-opacity:1; fill:none" points="
  1299.91,1423.18 1299.91,1404.28 
  "/>
<polyline clip-path="url(#clip400)" style="stroke:#000000; stroke-linecap:butt; stroke-linejoin:round; stroke-width:4; stroke-opacity:1; fill:none" points="
  1796.57,1423.18 1796.57,1404.28 
  "/>
<polyline clip-path="url(#clip400)" style="stroke:#000000; stroke-linecap:butt; stroke-linejoin:round; stroke-width:4; stroke-opacity:1; fill:none" points="
  2293.23,1423.18 2293.23,1404.28 
  "/>
<path clip-path="url(#clip400)" d="M306.584 1454.1 Q302.973 1454.1 301.144 1457.66 Q299.338 1461.2 299.338 1468.33 Q299.338 1475.44 301.144 1479.01 Q302.973 1482.55 306.584 1482.55 Q310.218 1482.55 312.023 1479.01 Q313.852 1475.44 313.852 1468.33 Q313.852 1461.2 312.023 1457.66 Q310.218 1454.1 306.584 1454.1 M306.584 1450.39 Q312.394 1450.39 315.449 1455 Q318.528 1459.58 318.528 1468.33 Q318.528 1477.06 315.449 1481.67 Q312.394 1486.25 306.584 1486.25 Q300.773 1486.25 297.695 1481.67 Q294.639 1477.06 294.639 1468.33 Q294.639 1459.58 297.695 1455 Q300.773 1450.39 306.584 1450.39 Z" fill="#000000" fill-rule="evenodd" fill-opacity="1" /><path clip-path="url(#clip400)" d="M766.938 1481.64 L783.257 1481.64 L783.257 1485.58 L761.313 1485.58 L761.313 1481.64 Q763.975 1478.89 768.558 1474.26 Q773.165 1469.61 774.345 1468.27 Q776.591 1465.74 777.47 1464.01 Q778.373 1462.25 778.373 1460.56 Q778.373 1457.8 776.428 1456.07 Q774.507 1454.33 771.405 1454.33 Q769.206 1454.33 766.753 1455.09 Q764.322 1455.86 761.544 1457.41 L761.544 1452.69 Q764.368 1451.55 766.822 1450.97 Q769.276 1450.39 771.313 1450.39 Q776.683 1450.39 779.878 1453.08 Q783.072 1455.77 783.072 1460.26 Q783.072 1462.39 782.262 1464.31 Q781.475 1466.2 779.368 1468.8 Q778.79 1469.47 775.688 1472.69 Q772.586 1475.88 766.938 1481.64 Z" fill="#000000" fill-rule="evenodd" fill-opacity="1" /><path clip-path="url(#clip400)" d="M803.072 1454.1 Q799.461 1454.1 797.632 1457.66 Q795.827 1461.2 795.827 1468.33 Q795.827 1475.44 797.632 1479.01 Q799.461 1482.55 803.072 1482.55 Q806.706 1482.55 808.512 1479.01 Q810.34 1475.44 810.34 1468.33 Q810.34 1461.2 808.512 1457.66 Q806.706 1454.1 803.072 1454.1 M803.072 1450.39 Q808.882 1450.39 811.938 1455 Q815.016 1459.58 815.016 1468.33 Q815.016 1477.06 811.938 1481.67 Q808.882 1486.25 803.072 1486.25 Q797.262 1486.25 794.183 1481.67 Q791.127 1477.06 791.127 1468.33 Q791.127 1459.58 794.183 1455 Q797.262 1450.39 803.072 1450.39 Z" fill="#000000" fill-rule="evenodd" fill-opacity="1" /><path clip-path="url(#clip400)" d="M833.234 1454.1 Q829.623 1454.1 827.794 1457.66 Q825.988 1461.2 825.988 1468.33 Q825.988 1475.44 827.794 1479.01 Q829.623 1482.55 833.234 1482.55 Q836.868 1482.55 838.674 1479.01 Q840.502 1475.44 840.502 1468.33 Q840.502 1461.2 838.674 1457.66 Q836.868 1454.1 833.234 1454.1 M833.234 1450.39 Q839.044 1450.39 842.099 1455 Q845.178 1459.58 845.178 1468.33 Q845.178 1477.06 842.099 1481.67 Q839.044 1486.25 833.234 1486.25 Q827.424 1486.25 824.345 1481.67 Q821.289 1477.06 821.289 1468.33 Q821.289 1459.58 824.345 1455 Q827.424 1450.39 833.234 1450.39 Z" fill="#000000" fill-rule="evenodd" fill-opacity="1" /><path clip-path="url(#clip400)" d="M1273 1455.09 L1261.19 1473.54 L1273 1473.54 L1273 1455.09 M1271.77 1451.02 L1277.65 1451.02 L1277.65 1473.54 L1282.58 1473.54 L1282.58 1477.43 L1277.65 1477.43 L1277.65 1485.58 L1273 1485.58 L1273 1477.43 L1257.4 1477.43 L1257.4 1472.92 L1271.77 1451.02 Z" fill="#000000" fill-rule="evenodd" fill-opacity="1" /><path clip-path="url(#clip400)" d="M1300.31 1454.1 Q1296.7 1454.1 1294.87 1457.66 Q1293.07 1461.2 1293.07 1468.33 Q1293.07 1475.44 1294.87 1479.01 Q1296.7 1482.55 1300.31 1482.55 Q1303.95 1482.55 1305.75 1479.01 Q1307.58 1475.44 1307.58 1468.33 Q1307.58 1461.2 1305.75 1457.66 Q1303.95 1454.1 1300.31 1454.1 M1300.31 1450.39 Q1306.12 1450.39 1309.18 1455 Q1312.26 1459.58 1312.26 1468.33 Q1312.26 1477.06 1309.18 1481.67 Q1306.12 1486.25 1300.31 1486.25 Q1294.5 1486.25 1291.42 1481.67 Q1288.37 1477.06 1288.37 1468.33 Q1288.37 1459.58 1291.42 1455 Q1294.5 1450.39 1300.31 1450.39 Z" fill="#000000" fill-rule="evenodd" fill-opacity="1" /><path clip-path="url(#clip400)" d="M1330.47 1454.1 Q1326.86 1454.1 1325.03 1457.66 Q1323.23 1461.2 1323.23 1468.33 Q1323.23 1475.44 1325.03 1479.01 Q1326.86 1482.55 1330.47 1482.55 Q1334.11 1482.55 1335.91 1479.01 Q1337.74 1475.44 1337.74 1468.33 Q1337.74 1461.2 1335.91 1457.66 Q1334.11 1454.1 1330.47 1454.1 M1330.47 1450.39 Q1336.28 1450.39 1339.34 1455 Q1342.42 1459.58 1342.42 1468.33 Q1342.42 1477.06 1339.34 1481.67 Q1336.28 1486.25 1330.47 1486.25 Q1324.66 1486.25 1321.59 1481.67 Q1318.53 1477.06 1318.53 1468.33 Q1318.53 1459.58 1321.59 1455 Q1324.66 1450.39 1330.47 1450.39 Z" fill="#000000" fill-rule="evenodd" fill-opacity="1" /><path clip-path="url(#clip400)" d="M1766.89 1466.44 Q1763.75 1466.44 1761.89 1468.59 Q1760.06 1470.74 1760.06 1474.49 Q1760.06 1478.22 1761.89 1480.39 Q1763.75 1482.55 1766.89 1482.55 Q1770.04 1482.55 1771.87 1480.39 Q1773.72 1478.22 1773.72 1474.49 Q1773.72 1470.74 1771.87 1468.59 Q1770.04 1466.44 1766.89 1466.44 M1776.18 1451.78 L1776.18 1456.04 Q1774.42 1455.21 1772.61 1454.77 Q1770.83 1454.33 1769.07 1454.33 Q1764.44 1454.33 1761.99 1457.45 Q1759.56 1460.58 1759.21 1466.9 Q1760.57 1464.89 1762.63 1463.82 Q1764.69 1462.73 1767.17 1462.73 Q1772.38 1462.73 1775.39 1465.9 Q1778.42 1469.05 1778.42 1474.49 Q1778.42 1479.82 1775.27 1483.03 Q1772.12 1486.25 1766.89 1486.25 Q1760.9 1486.25 1757.73 1481.67 Q1754.56 1477.06 1754.56 1468.33 Q1754.56 1460.14 1758.44 1455.28 Q1762.33 1450.39 1768.88 1450.39 Q1770.64 1450.39 1772.43 1450.74 Q1774.23 1451.09 1776.18 1451.78 Z" fill="#000000" fill-rule="evenodd" fill-opacity="1" /><path clip-path="url(#clip400)" d="M1796.48 1454.1 Q1792.87 1454.1 1791.04 1457.66 Q1789.23 1461.2 1789.23 1468.33 Q1789.23 1475.44 1791.04 1479.01 Q1792.87 1482.55 1796.48 1482.55 Q1800.11 1482.55 1801.92 1479.01 Q1803.75 1475.44 1803.75 1468.33 Q1803.75 1461.2 1801.92 1457.66 Q1800.11 1454.1 1796.48 1454.1 M1796.48 1450.39 Q1802.29 1450.39 1805.34 1455 Q1808.42 1459.58 1808.42 1468.33 Q1808.42 1477.06 1805.34 1481.67 Q1802.29 1486.25 1796.48 1486.25 Q1790.67 1486.25 1787.59 1481.67 Q1784.53 1477.06 1784.53 1468.33 Q1784.53 1459.58 1787.59 1455 Q1790.67 1450.39 1796.48 1450.39 Z" fill="#000000" fill-rule="evenodd" fill-opacity="1" /><path clip-path="url(#clip400)" d="M1826.64 1454.1 Q1823.03 1454.1 1821.2 1457.66 Q1819.39 1461.2 1819.39 1468.33 Q1819.39 1475.44 1821.2 1479.01 Q1823.03 1482.55 1826.64 1482.55 Q1830.27 1482.55 1832.08 1479.01 Q1833.91 1475.44 1833.91 1468.33 Q1833.91 1461.2 1832.08 1457.66 Q1830.27 1454.1 1826.64 1454.1 M1826.64 1450.39 Q1832.45 1450.39 1835.5 1455 Q1838.58 1459.58 1838.58 1468.33 Q1838.58 1477.06 1835.5 1481.67 Q1832.45 1486.25 1826.64 1486.25 Q1820.83 1486.25 1817.75 1481.67 Q1814.69 1477.06 1814.69 1468.33 Q1814.69 1459.58 1817.75 1455 Q1820.83 1450.39 1826.64 1450.39 Z" fill="#000000" fill-rule="evenodd" fill-opacity="1" /><path clip-path="url(#clip400)" d="M2263.02 1469.17 Q2259.69 1469.17 2257.77 1470.95 Q2255.87 1472.73 2255.87 1475.86 Q2255.87 1478.98 2257.77 1480.77 Q2259.69 1482.55 2263.02 1482.55 Q2266.36 1482.55 2268.28 1480.77 Q2270.2 1478.96 2270.2 1475.86 Q2270.2 1472.73 2268.28 1470.95 Q2266.38 1469.17 2263.02 1469.17 M2258.35 1467.18 Q2255.34 1466.44 2253.65 1464.38 Q2251.98 1462.32 2251.98 1459.35 Q2251.98 1455.21 2254.92 1452.8 Q2257.88 1450.39 2263.02 1450.39 Q2268.18 1450.39 2271.12 1452.8 Q2274.06 1455.21 2274.06 1459.35 Q2274.06 1462.32 2272.37 1464.38 Q2270.71 1466.44 2267.72 1467.18 Q2271.1 1467.96 2272.98 1470.26 Q2274.87 1472.55 2274.87 1475.86 Q2274.87 1480.88 2271.8 1483.57 Q2268.74 1486.25 2263.02 1486.25 Q2257.31 1486.25 2254.23 1483.57 Q2251.17 1480.88 2251.17 1475.86 Q2251.17 1472.55 2253.07 1470.26 Q2254.97 1467.96 2258.35 1467.18 M2256.63 1459.79 Q2256.63 1462.48 2258.3 1463.98 Q2259.99 1465.49 2263.02 1465.49 Q2266.03 1465.49 2267.72 1463.98 Q2269.43 1462.48 2269.43 1459.79 Q2269.43 1457.11 2267.72 1455.6 Q2266.03 1454.1 2263.02 1454.1 Q2259.99 1454.1 2258.3 1455.6 Q2256.63 1457.11 2256.63 1459.79 Z" fill="#000000" fill-rule="evenodd" fill-opacity="1" /><path clip-path="url(#clip400)" d="M2293.18 1454.1 Q2289.57 1454.1 2287.74 1457.66 Q2285.94 1461.2 2285.94 1468.33 Q2285.94 1475.44 2287.74 1479.01 Q2289.57 1482.55 2293.18 1482.55 Q2296.82 1482.55 2298.62 1479.01 Q2300.45 1475.44 2300.45 1468.33 Q2300.45 1461.2 2298.62 1457.66 Q2296.82 1454.1 2293.18 1454.1 M2293.18 1450.39 Q2298.99 1450.39 2302.05 1455 Q2305.13 1459.58 2305.13 1468.33 Q2305.13 1477.06 2302.05 1481.67 Q2298.99 1486.25 2293.18 1486.25 Q2287.37 1486.25 2284.3 1481.67 Q2281.24 1477.06 2281.24 1468.33 Q2281.24 1459.58 2284.3 1455 Q2287.37 1450.39 2293.18 1450.39 Z" fill="#000000" fill-rule="evenodd" fill-opacity="1" /><path clip-path="url(#clip400)" d="M2323.35 1454.1 Q2319.74 1454.1 2317.91 1457.66 Q2316.1 1461.2 2316.1 1468.33 Q2316.1 1475.44 2317.91 1479.01 Q2319.74 1482.55 2323.35 1482.55 Q2326.98 1482.55 2328.79 1479.01 Q2330.62 1475.44 2330.62 1468.33 Q2330.62 1461.2 2328.79 1457.66 Q2326.98 1454.1 2323.35 1454.1 M2323.35 1450.39 Q2329.16 1450.39 2332.21 1455 Q2335.29 1459.58 2335.29 1468.33 Q2335.29 1477.06 2332.21 1481.67 Q2329.16 1486.25 2323.35 1486.25 Q2317.54 1486.25 2314.46 1481.67 Q2311.4 1477.06 2311.4 1468.33 Q2311.4 1459.58 2314.46 1455 Q2317.54 1450.39 2323.35 1450.39 Z" fill="#000000" fill-rule="evenodd" fill-opacity="1" /><path clip-path="url(#clip400)" d="M1300.21 1522.27 L1300.21 1532.4 L1312.27 1532.4 L1312.27 1536.95 L1300.21 1536.95 L1300.21 1556.3 Q1300.21 1560.66 1301.39 1561.9 Q1302.6 1563.14 1306.26 1563.14 L1312.27 1563.14 L1312.27 1568.04 L1306.26 1568.04 Q1299.48 1568.04 1296.9 1565.53 Q1294.32 1562.98 1294.32 1556.3 L1294.32 1536.95 L1290.02 1536.95 L1290.02 1532.4 L1294.32 1532.4 L1294.32 1522.27 L1300.21 1522.27 Z" fill="#000000" fill-rule="evenodd" fill-opacity="1" /><polyline clip-path="url(#clip402)" style="stroke:#000000; stroke-linecap:butt; stroke-linejoin:round; stroke-width:2; stroke-opacity:0.1; fill:none" points="
  249.542,1350.42 2352.76,1350.42 
  "/>
<polyline clip-path="url(#clip402)" style="stroke:#000000; stroke-linecap:butt; stroke-linejoin:round; stroke-width:2; stroke-opacity:0.1; fill:none" points="
  249.542,1165.38 2352.76,1165.38 
  "/>
<polyline clip-path="url(#clip402)" style="stroke:#000000; stroke-linecap:butt; stroke-linejoin:round; stroke-width:2; stroke-opacity:0.1; fill:none" points="
  249.542,980.352 2352.76,980.352 
  "/>
<polyline clip-path="url(#clip402)" style="stroke:#000000; stroke-linecap:butt; stroke-linejoin:round; stroke-width:2; stroke-opacity:0.1; fill:none" points="
  249.542,795.318 2352.76,795.318 
  "/>
<polyline clip-path="url(#clip402)" style="stroke:#000000; stroke-linecap:butt; stroke-linejoin:round; stroke-width:2; stroke-opacity:0.1; fill:none" points="
  249.542,610.285 2352.76,610.285 
  "/>
<polyline clip-path="url(#clip402)" style="stroke:#000000; stroke-linecap:butt; stroke-linejoin:round; stroke-width:2; stroke-opacity:0.1; fill:none" points="
  249.542,425.252 2352.76,425.252 
  "/>
<polyline clip-path="url(#clip402)" style="stroke:#000000; stroke-linecap:butt; stroke-linejoin:round; stroke-width:2; stroke-opacity:0.1; fill:none" points="
  249.542,240.219 2352.76,240.219 
  "/>
<polyline clip-path="url(#clip400)" style="stroke:#000000; stroke-linecap:butt; stroke-linejoin:round; stroke-width:4; stroke-opacity:1; fill:none" points="
  249.542,1423.18 249.542,123.472 
  "/>
<polyline clip-path="url(#clip400)" style="stroke:#000000; stroke-linecap:butt; stroke-linejoin:round; stroke-width:4; stroke-opacity:1; fill:none" points="
  249.542,1350.42 268.44,1350.42 
  "/>
<polyline clip-path="url(#clip400)" style="stroke:#000000; stroke-linecap:butt; stroke-linejoin:round; stroke-width:4; stroke-opacity:1; fill:none" points="
  249.542,1165.38 268.44,1165.38 
  "/>
<polyline clip-path="url(#clip400)" style="stroke:#000000; stroke-linecap:butt; stroke-linejoin:round; stroke-width:4; stroke-opacity:1; fill:none" points="
  249.542,980.352 268.44,980.352 
  "/>
<polyline clip-path="url(#clip400)" style="stroke:#000000; stroke-linecap:butt; stroke-linejoin:round; stroke-width:4; stroke-opacity:1; fill:none" points="
  249.542,795.318 268.44,795.318 
  "/>
<polyline clip-path="url(#clip400)" style="stroke:#000000; stroke-linecap:butt; stroke-linejoin:round; stroke-width:4; stroke-opacity:1; fill:none" points="
  249.542,610.285 268.44,610.285 
  "/>
<polyline clip-path="url(#clip400)" style="stroke:#000000; stroke-linecap:butt; stroke-linejoin:round; stroke-width:4; stroke-opacity:1; fill:none" points="
  249.542,425.252 268.44,425.252 
  "/>
<polyline clip-path="url(#clip400)" style="stroke:#000000; stroke-linecap:butt; stroke-linejoin:round; stroke-width:4; stroke-opacity:1; fill:none" points="
  249.542,240.219 268.44,240.219 
  "/>
<path clip-path="url(#clip400)" d="M127.2 1336.22 Q123.589 1336.22 121.76 1339.78 Q119.955 1343.32 119.955 1350.45 Q119.955 1357.56 121.76 1361.12 Q123.589 1364.67 127.2 1364.67 Q130.834 1364.67 132.64 1361.12 Q134.468 1357.56 134.468 1350.45 Q134.468 1343.32 132.64 1339.78 Q130.834 1336.22 127.2 1336.22 M127.2 1332.51 Q133.01 1332.51 136.066 1337.12 Q139.144 1341.7 139.144 1350.45 Q139.144 1359.18 136.066 1363.79 Q133.01 1368.37 127.2 1368.37 Q121.39 1368.37 118.311 1363.79 Q115.256 1359.18 115.256 1350.45 Q115.256 1341.7 118.311 1337.12 Q121.39 1332.51 127.2 1332.51 Z" fill="#000000" fill-rule="evenodd" fill-opacity="1" /><path clip-path="url(#clip400)" d="M147.362 1361.82 L152.246 1361.82 L152.246 1367.7 L147.362 1367.7 L147.362 1361.82 Z" fill="#000000" fill-rule="evenodd" fill-opacity="1" /><path clip-path="url(#clip400)" d="M166.459 1363.76 L182.778 1363.76 L182.778 1367.7 L160.834 1367.7 L160.834 1363.76 Q163.496 1361.01 168.079 1356.38 Q172.686 1351.73 173.866 1350.38 Q176.112 1347.86 176.991 1346.12 Q177.894 1344.36 177.894 1342.68 Q177.894 1339.92 175.95 1338.18 Q174.028 1336.45 170.927 1336.45 Q168.727 1336.45 166.274 1337.21 Q163.843 1337.98 161.065 1339.53 L161.065 1334.8 Q163.89 1333.67 166.343 1333.09 Q168.797 1332.51 170.834 1332.51 Q176.204 1332.51 179.399 1335.2 Q182.593 1337.88 182.593 1342.37 Q182.593 1344.5 181.783 1346.42 Q180.996 1348.32 178.889 1350.92 Q178.311 1351.59 175.209 1354.8 Q172.107 1358 166.459 1363.76 Z" fill="#000000" fill-rule="evenodd" fill-opacity="1" /><path clip-path="url(#clip400)" d="M192.639 1333.14 L210.996 1333.14 L210.996 1337.07 L196.922 1337.07 L196.922 1345.55 Q197.94 1345.2 198.959 1345.04 Q199.977 1344.85 200.996 1344.85 Q206.783 1344.85 210.162 1348.02 Q213.542 1351.19 213.542 1356.61 Q213.542 1362.19 210.07 1365.29 Q206.598 1368.37 200.278 1368.37 Q198.102 1368.37 195.834 1368 Q193.588 1367.63 191.181 1366.89 L191.181 1362.19 Q193.264 1363.32 195.487 1363.88 Q197.709 1364.43 200.186 1364.43 Q204.19 1364.43 206.528 1362.33 Q208.866 1360.22 208.866 1356.61 Q208.866 1353 206.528 1350.89 Q204.19 1348.79 200.186 1348.79 Q198.311 1348.79 196.436 1349.2 Q194.584 1349.62 192.639 1350.5 L192.639 1333.14 Z" fill="#000000" fill-rule="evenodd" fill-opacity="1" /><path clip-path="url(#clip400)" d="M126.205 1151.18 Q122.593 1151.18 120.765 1154.75 Q118.959 1158.29 118.959 1165.42 Q118.959 1172.53 120.765 1176.09 Q122.593 1179.63 126.205 1179.63 Q129.839 1179.63 131.644 1176.09 Q133.473 1172.53 133.473 1165.42 Q133.473 1158.29 131.644 1154.75 Q129.839 1151.18 126.205 1151.18 M126.205 1147.48 Q132.015 1147.48 135.07 1152.09 Q138.149 1156.67 138.149 1165.42 Q138.149 1174.15 135.07 1178.75 Q132.015 1183.34 126.205 1183.34 Q120.394 1183.34 117.316 1178.75 Q114.26 1174.15 114.26 1165.42 Q114.26 1156.67 117.316 1152.09 Q120.394 1147.48 126.205 1147.48 Z" fill="#000000" fill-rule="evenodd" fill-opacity="1" /><path clip-path="url(#clip400)" d="M146.366 1176.79 L151.251 1176.79 L151.251 1182.66 L146.366 1182.66 L146.366 1176.79 Z" fill="#000000" fill-rule="evenodd" fill-opacity="1" /><path clip-path="url(#clip400)" d="M161.482 1148.1 L179.839 1148.1 L179.839 1152.04 L165.765 1152.04 L165.765 1160.51 Q166.783 1160.16 167.802 1160 Q168.82 1159.82 169.839 1159.82 Q175.626 1159.82 179.005 1162.99 Q182.385 1166.16 182.385 1171.58 Q182.385 1177.16 178.913 1180.26 Q175.44 1183.34 169.121 1183.34 Q166.945 1183.34 164.677 1182.97 Q162.431 1182.6 160.024 1181.85 L160.024 1177.16 Q162.107 1178.29 164.329 1178.85 Q166.552 1179.4 169.028 1179.4 Q173.033 1179.4 175.371 1177.29 Q177.709 1175.19 177.709 1171.58 Q177.709 1167.97 175.371 1165.86 Q173.033 1163.75 169.028 1163.75 Q167.153 1163.75 165.278 1164.17 Q163.427 1164.59 161.482 1165.47 L161.482 1148.1 Z" fill="#000000" fill-rule="evenodd" fill-opacity="1" /><path clip-path="url(#clip400)" d="M201.598 1151.18 Q197.987 1151.18 196.158 1154.75 Q194.352 1158.29 194.352 1165.42 Q194.352 1172.53 196.158 1176.09 Q197.987 1179.63 201.598 1179.63 Q205.232 1179.63 207.037 1176.09 Q208.866 1172.53 208.866 1165.42 Q208.866 1158.29 207.037 1154.75 Q205.232 1151.18 201.598 1151.18 M201.598 1147.48 Q207.408 1147.48 210.463 1152.09 Q213.542 1156.67 213.542 1165.42 Q213.542 1174.15 210.463 1178.75 Q207.408 1183.34 201.598 1183.34 Q195.787 1183.34 192.709 1178.75 Q189.653 1174.15 189.653 1165.42 Q189.653 1156.67 192.709 1152.09 Q195.787 1147.48 201.598 1147.48 Z" fill="#000000" fill-rule="evenodd" fill-opacity="1" /><path clip-path="url(#clip400)" d="M127.2 966.15 Q123.589 966.15 121.76 969.715 Q119.955 973.257 119.955 980.386 Q119.955 987.493 121.76 991.058 Q123.589 994.599 127.2 994.599 Q130.834 994.599 132.64 991.058 Q134.468 987.493 134.468 980.386 Q134.468 973.257 132.64 969.715 Q130.834 966.15 127.2 966.15 M127.2 962.447 Q133.01 962.447 136.066 967.053 Q139.144 971.636 139.144 980.386 Q139.144 989.113 136.066 993.72 Q133.01 998.303 127.2 998.303 Q121.39 998.303 118.311 993.72 Q115.256 989.113 115.256 980.386 Q115.256 971.636 118.311 967.053 Q121.39 962.447 127.2 962.447 Z" fill="#000000" fill-rule="evenodd" fill-opacity="1" /><path clip-path="url(#clip400)" d="M147.362 991.752 L152.246 991.752 L152.246 997.632 L147.362 997.632 L147.362 991.752 Z" fill="#000000" fill-rule="evenodd" fill-opacity="1" /><path clip-path="url(#clip400)" d="M161.251 963.072 L183.473 963.072 L183.473 965.062 L170.927 997.632 L166.042 997.632 L177.848 967.007 L161.251 967.007 L161.251 963.072 Z" fill="#000000" fill-rule="evenodd" fill-opacity="1" /><path clip-path="url(#clip400)" d="M192.639 963.072 L210.996 963.072 L210.996 967.007 L196.922 967.007 L196.922 975.479 Q197.94 975.132 198.959 974.97 Q199.977 974.784 200.996 974.784 Q206.783 974.784 210.162 977.956 Q213.542 981.127 213.542 986.544 Q213.542 992.122 210.07 995.224 Q206.598 998.303 200.278 998.303 Q198.102 998.303 195.834 997.932 Q193.588 997.562 191.181 996.821 L191.181 992.122 Q193.264 993.257 195.487 993.812 Q197.709 994.368 200.186 994.368 Q204.19 994.368 206.528 992.261 Q208.866 990.155 208.866 986.544 Q208.866 982.933 206.528 980.826 Q204.19 978.72 200.186 978.72 Q198.311 978.72 196.436 979.136 Q194.584 979.553 192.639 980.433 L192.639 963.072 Z" fill="#000000" fill-rule="evenodd" fill-opacity="1" /><path clip-path="url(#clip400)" d="M117.015 808.663 L124.654 808.663 L124.654 782.298 L116.343 783.964 L116.343 779.705 L124.607 778.038 L129.283 778.038 L129.283 808.663 L136.922 808.663 L136.922 812.598 L117.015 812.598 L117.015 808.663 Z" fill="#000000" fill-rule="evenodd" fill-opacity="1" /><path clip-path="url(#clip400)" d="M146.366 806.719 L151.251 806.719 L151.251 812.598 L146.366 812.598 L146.366 806.719 Z" fill="#000000" fill-rule="evenodd" fill-opacity="1" /><path clip-path="url(#clip400)" d="M171.436 781.117 Q167.825 781.117 165.996 784.682 Q164.19 788.223 164.19 795.353 Q164.19 802.46 165.996 806.024 Q167.825 809.566 171.436 809.566 Q175.07 809.566 176.876 806.024 Q178.704 802.46 178.704 795.353 Q178.704 788.223 176.876 784.682 Q175.07 781.117 171.436 781.117 M171.436 777.413 Q177.246 777.413 180.301 782.02 Q183.38 786.603 183.38 795.353 Q183.38 804.08 180.301 808.686 Q177.246 813.27 171.436 813.27 Q165.626 813.27 162.547 808.686 Q159.491 804.08 159.491 795.353 Q159.491 786.603 162.547 782.02 Q165.626 777.413 171.436 777.413 Z" fill="#000000" fill-rule="evenodd" fill-opacity="1" /><path clip-path="url(#clip400)" d="M201.598 781.117 Q197.987 781.117 196.158 784.682 Q194.352 788.223 194.352 795.353 Q194.352 802.46 196.158 806.024 Q197.987 809.566 201.598 809.566 Q205.232 809.566 207.037 806.024 Q208.866 802.46 208.866 795.353 Q208.866 788.223 207.037 784.682 Q205.232 781.117 201.598 781.117 M201.598 777.413 Q207.408 777.413 210.463 782.02 Q213.542 786.603 213.542 795.353 Q213.542 804.08 210.463 808.686 Q207.408 813.27 201.598 813.27 Q195.787 813.27 192.709 808.686 Q189.653 804.08 189.653 795.353 Q189.653 786.603 192.709 782.02 Q195.787 777.413 201.598 777.413 Z" fill="#000000" fill-rule="evenodd" fill-opacity="1" /><path clip-path="url(#clip400)" d="M118.01 623.63 L125.649 623.63 L125.649 597.264 L117.339 598.931 L117.339 594.672 L125.603 593.005 L130.279 593.005 L130.279 623.63 L137.917 623.63 L137.917 627.565 L118.01 627.565 L118.01 623.63 Z" fill="#000000" fill-rule="evenodd" fill-opacity="1" /><path clip-path="url(#clip400)" d="M147.362 621.686 L152.246 621.686 L152.246 627.565 L147.362 627.565 L147.362 621.686 Z" fill="#000000" fill-rule="evenodd" fill-opacity="1" /><path clip-path="url(#clip400)" d="M166.459 623.63 L182.778 623.63 L182.778 627.565 L160.834 627.565 L160.834 623.63 Q163.496 620.875 168.079 616.246 Q172.686 611.593 173.866 610.25 Q176.112 607.727 176.991 605.991 Q177.894 604.232 177.894 602.542 Q177.894 599.787 175.95 598.051 Q174.028 596.315 170.927 596.315 Q168.727 596.315 166.274 597.079 Q163.843 597.843 161.065 599.394 L161.065 594.672 Q163.89 593.538 166.343 592.959 Q168.797 592.38 170.834 592.38 Q176.204 592.38 179.399 595.065 Q182.593 597.75 182.593 602.241 Q182.593 604.371 181.783 606.292 Q180.996 608.19 178.889 610.783 Q178.311 611.454 175.209 614.672 Q172.107 617.866 166.459 623.63 Z" fill="#000000" fill-rule="evenodd" fill-opacity="1" /><path clip-path="url(#clip400)" d="M192.639 593.005 L210.996 593.005 L210.996 596.94 L196.922 596.94 L196.922 605.412 Q197.94 605.065 198.959 604.903 Q199.977 604.718 200.996 604.718 Q206.783 604.718 210.162 607.889 Q213.542 611.061 213.542 616.477 Q213.542 622.056 210.07 625.158 Q206.598 628.236 200.278 628.236 Q198.102 628.236 195.834 627.866 Q193.588 627.496 191.181 626.755 L191.181 622.056 Q193.264 623.19 195.487 623.746 Q197.709 624.301 200.186 624.301 Q204.19 624.301 206.528 622.195 Q208.866 620.088 208.866 616.477 Q208.866 612.866 206.528 610.76 Q204.19 608.653 200.186 608.653 Q198.311 608.653 196.436 609.07 Q194.584 609.487 192.639 610.366 L192.639 593.005 Z" fill="#000000" fill-rule="evenodd" fill-opacity="1" /><path clip-path="url(#clip400)" d="M117.015 438.597 L124.654 438.597 L124.654 412.231 L116.343 413.898 L116.343 409.639 L124.607 407.972 L129.283 407.972 L129.283 438.597 L136.922 438.597 L136.922 442.532 L117.015 442.532 L117.015 438.597 Z" fill="#000000" fill-rule="evenodd" fill-opacity="1" /><path clip-path="url(#clip400)" d="M146.366 436.652 L151.251 436.652 L151.251 442.532 L146.366 442.532 L146.366 436.652 Z" fill="#000000" fill-rule="evenodd" fill-opacity="1" /><path clip-path="url(#clip400)" d="M161.482 407.972 L179.839 407.972 L179.839 411.907 L165.765 411.907 L165.765 420.379 Q166.783 420.032 167.802 419.87 Q168.82 419.685 169.839 419.685 Q175.626 419.685 179.005 422.856 Q182.385 426.027 182.385 431.444 Q182.385 437.023 178.913 440.124 Q175.44 443.203 169.121 443.203 Q166.945 443.203 164.677 442.833 Q162.431 442.462 160.024 441.722 L160.024 437.023 Q162.107 438.157 164.329 438.712 Q166.552 439.268 169.028 439.268 Q173.033 439.268 175.371 437.162 Q177.709 435.055 177.709 431.444 Q177.709 427.833 175.371 425.726 Q173.033 423.62 169.028 423.62 Q167.153 423.62 165.278 424.037 Q163.427 424.453 161.482 425.333 L161.482 407.972 Z" fill="#000000" fill-rule="evenodd" fill-opacity="1" /><path clip-path="url(#clip400)" d="M201.598 411.051 Q197.987 411.051 196.158 414.615 Q194.352 418.157 194.352 425.287 Q194.352 432.393 196.158 435.958 Q197.987 439.499 201.598 439.499 Q205.232 439.499 207.037 435.958 Q208.866 432.393 208.866 425.287 Q208.866 418.157 207.037 414.615 Q205.232 411.051 201.598 411.051 M201.598 407.347 Q207.408 407.347 210.463 411.953 Q213.542 416.537 213.542 425.287 Q213.542 434.013 210.463 438.62 Q207.408 443.203 201.598 443.203 Q195.787 443.203 192.709 438.62 Q189.653 434.013 189.653 425.287 Q189.653 416.537 192.709 411.953 Q195.787 407.347 201.598 407.347 Z" fill="#000000" fill-rule="evenodd" fill-opacity="1" /><path clip-path="url(#clip400)" d="M118.01 253.564 L125.649 253.564 L125.649 227.198 L117.339 228.865 L117.339 224.605 L125.603 222.939 L130.279 222.939 L130.279 253.564 L137.917 253.564 L137.917 257.499 L118.01 257.499 L118.01 253.564 Z" fill="#000000" fill-rule="evenodd" fill-opacity="1" /><path clip-path="url(#clip400)" d="M147.362 251.619 L152.246 251.619 L152.246 257.499 L147.362 257.499 L147.362 251.619 Z" fill="#000000" fill-rule="evenodd" fill-opacity="1" /><path clip-path="url(#clip400)" d="M161.251 222.939 L183.473 222.939 L183.473 224.929 L170.927 257.499 L166.042 257.499 L177.848 226.874 L161.251 226.874 L161.251 222.939 Z" fill="#000000" fill-rule="evenodd" fill-opacity="1" /><path clip-path="url(#clip400)" d="M192.639 222.939 L210.996 222.939 L210.996 226.874 L196.922 226.874 L196.922 235.346 Q197.94 234.999 198.959 234.837 Q199.977 234.652 200.996 234.652 Q206.783 234.652 210.162 237.823 Q213.542 240.994 213.542 246.411 Q213.542 251.989 210.07 255.091 Q206.598 258.17 200.278 258.17 Q198.102 258.17 195.834 257.8 Q193.588 257.429 191.181 256.688 L191.181 251.989 Q193.264 253.124 195.487 253.679 Q197.709 254.235 200.186 254.235 Q204.19 254.235 206.528 252.128 Q208.866 250.022 208.866 246.411 Q208.866 242.8 206.528 240.693 Q204.19 238.587 200.186 238.587 Q198.311 238.587 196.436 239.003 Q194.584 239.42 192.639 240.3 L192.639 222.939 Z" fill="#000000" fill-rule="evenodd" fill-opacity="1" /><path clip-path="url(#clip400)" d="M20.1444 813.653 L26.9239 813.653 Q23.9002 816.899 22.4043 820.591 Q20.9083 824.252 20.9083 828.389 Q20.9083 836.537 25.9054 840.866 Q30.8707 845.195 40.2919 845.195 Q49.6813 845.195 54.6784 840.866 Q59.6436 836.537 59.6436 828.389 Q59.6436 824.252 58.1477 820.591 Q56.6518 816.899 53.6281 813.653 L60.3439 813.653 Q62.6355 817.027 63.7814 820.814 Q64.9272 824.57 64.9272 828.771 Q64.9272 839.561 58.3387 845.768 Q51.7183 851.974 40.2919 851.974 Q28.8336 851.974 22.2451 845.768 Q15.6248 839.561 15.6248 828.771 Q15.6248 824.506 16.7706 820.75 Q17.8846 816.963 20.1444 813.653 Z" fill="#000000" fill-rule="evenodd" fill-opacity="1" /><path clip-path="url(#clip400)" d="M44.7161 773.485 L47.5806 773.485 L47.5806 800.412 Q53.6281 800.03 56.8109 796.784 Q59.9619 793.505 59.9619 787.681 Q59.9619 784.307 59.1344 781.156 Q58.3069 777.973 56.6518 774.854 L62.1899 774.854 Q63.5267 778.005 64.227 781.315 Q64.9272 784.625 64.9272 788.031 Q64.9272 796.561 59.9619 801.558 Q54.9967 806.523 46.5303 806.523 Q37.7774 806.523 32.6531 801.813 Q27.4968 797.07 27.4968 789.049 Q27.4968 781.856 32.1438 777.686 Q36.7589 773.485 44.7161 773.485 M42.9973 779.342 Q38.1912 779.405 35.3266 782.047 Q32.4621 784.657 32.4621 788.986 Q32.4621 793.887 35.2312 796.847 Q38.0002 799.775 43.0292 800.221 L42.9973 779.342 Z" fill="#000000" fill-rule="evenodd" fill-opacity="1" /><path clip-path="url(#clip400)" d="M42.4881 734.241 L64.0042 734.241 L64.0042 740.097 L42.679 740.097 Q37.6183 740.097 35.1038 742.07 Q32.5894 744.044 32.5894 747.99 Q32.5894 752.733 35.6131 755.47 Q38.6368 758.207 43.8567 758.207 L64.0042 758.207 L64.0042 764.096 L28.3562 764.096 L28.3562 758.207 L33.8944 758.207 Q30.6797 756.107 29.0883 753.274 Q27.4968 750.409 27.4968 746.686 Q27.4968 740.543 31.3163 737.392 Q35.1038 734.241 42.4881 734.241 Z" fill="#000000" fill-rule="evenodd" fill-opacity="1" /><path clip-path="url(#clip400)" d="M46.0847 706.359 Q46.0847 713.457 47.7079 716.194 Q49.3312 718.931 53.2461 718.931 Q56.3653 718.931 58.2114 716.894 Q60.0256 714.825 60.0256 711.292 Q60.0256 706.422 56.5881 703.494 Q53.1188 700.534 47.3897 700.534 L46.0847 700.534 L46.0847 706.359 M43.6657 694.678 L64.0042 694.678 L64.0042 700.534 L58.5933 700.534 Q61.8398 702.539 63.3994 705.531 Q64.9272 708.523 64.9272 712.852 Q64.9272 718.326 61.8716 721.573 Q58.7843 724.787 53.6281 724.787 Q47.6125 724.787 44.5569 720.777 Q41.5014 716.735 41.5014 708.746 L41.5014 700.534 L40.9285 700.534 Q36.8862 700.534 34.6901 703.208 Q32.4621 705.849 32.4621 710.656 Q32.4621 713.711 33.1941 716.608 Q33.9262 719.504 35.3903 722.178 L29.9795 722.178 Q28.7381 718.963 28.1334 715.939 Q27.4968 712.915 27.4968 710.051 Q27.4968 702.317 31.5072 698.497 Q35.5176 694.678 43.6657 694.678 Z" fill="#000000" fill-rule="evenodd" fill-opacity="1" /><path clip-path="url(#clip400)" d="M1249.82 16.7545 L1249.82 25.383 Q1245.69 21.5346 1240.99 19.6307 Q1236.33 17.7268 1231.07 17.7268 Q1220.7 17.7268 1215.19 24.0867 Q1209.68 30.4061 1209.68 42.3968 Q1209.68 54.3469 1215.19 60.7069 Q1220.7 67.0263 1231.07 67.0263 Q1236.33 67.0263 1240.99 65.1223 Q1245.69 63.2184 1249.82 59.3701 L1249.82 67.9175 Q1245.53 70.8341 1240.71 72.2924 Q1235.93 73.7508 1230.58 73.7508 Q1216.85 73.7508 1208.95 65.3654 Q1201.05 56.9395 1201.05 42.3968 Q1201.05 27.8135 1208.95 19.4281 Q1216.85 11.0023 1230.58 11.0023 Q1236.01 11.0023 1240.79 12.4606 Q1245.61 13.8784 1249.82 16.7545 Z" fill="#000000" fill-rule="evenodd" fill-opacity="1" /><path clip-path="url(#clip400)" d="M1300.95 48.0275 L1300.95 51.6733 L1266.68 51.6733 Q1267.16 59.3701 1271.29 63.421 Q1275.47 67.4314 1282.88 67.4314 Q1287.17 67.4314 1291.18 66.3781 Q1295.23 65.3249 1299.2 63.2184 L1299.2 70.267 Q1295.19 71.9684 1290.98 72.8596 Q1286.77 73.7508 1282.43 73.7508 Q1271.58 73.7508 1265.22 67.4314 Q1258.9 61.1119 1258.9 50.3365 Q1258.9 39.1965 1264.89 32.6746 Q1270.93 26.1121 1281.14 26.1121 Q1290.29 26.1121 1295.6 32.0264 Q1300.95 37.9003 1300.95 48.0275 M1293.49 45.84 Q1293.41 39.7232 1290.05 36.0774 Q1286.73 32.4315 1281.22 32.4315 Q1274.98 32.4315 1271.21 35.9558 Q1267.49 39.4801 1266.92 45.8805 L1293.49 45.84 Z" fill="#000000" fill-rule="evenodd" fill-opacity="1" /><path clip-path="url(#clip400)" d="M1350.89 45.1919 L1350.89 72.576 L1343.44 72.576 L1343.44 45.4349 Q1343.44 38.994 1340.93 35.7938 Q1338.42 32.5936 1333.39 32.5936 Q1327.36 32.5936 1323.87 36.4419 Q1320.39 40.2903 1320.39 46.9338 L1320.39 72.576 L1312.9 72.576 L1312.9 27.2059 L1320.39 27.2059 L1320.39 34.2544 Q1323.06 30.163 1326.67 28.1376 Q1330.32 26.1121 1335.06 26.1121 Q1342.87 26.1121 1346.88 30.9732 Q1350.89 35.7938 1350.89 45.1919 Z" fill="#000000" fill-rule="evenodd" fill-opacity="1" /><path clip-path="url(#clip400)" d="M1386.38 49.7694 Q1377.35 49.7694 1373.86 51.8354 Q1370.38 53.9013 1370.38 58.8839 Q1370.38 62.8538 1372.97 65.2034 Q1375.6 67.5124 1380.1 67.5124 Q1386.3 67.5124 1390.03 63.1374 Q1393.79 58.7219 1393.79 51.4303 L1393.79 49.7694 L1386.38 49.7694 M1401.25 46.6907 L1401.25 72.576 L1393.79 72.576 L1393.79 65.6895 Q1391.24 69.8214 1387.43 71.8063 Q1383.63 73.7508 1378.12 73.7508 Q1371.15 73.7508 1367.02 69.8619 Q1362.93 65.9325 1362.93 59.3701 Q1362.93 51.7138 1368.03 47.825 Q1373.17 43.9361 1383.34 43.9361 L1393.79 43.9361 L1393.79 43.2069 Q1393.79 38.0623 1390.39 35.2672 Q1387.03 32.4315 1380.91 32.4315 Q1377.02 32.4315 1373.34 33.3632 Q1369.65 34.295 1366.25 36.1584 L1366.25 29.2718 Q1370.34 27.692 1374.19 26.9223 Q1378.04 26.1121 1381.68 26.1121 Q1391.52 26.1121 1396.39 31.2163 Q1401.25 36.3204 1401.25 46.6907 Z" fill="#000000" fill-rule="evenodd" fill-opacity="1" /><polyline clip-path="url(#clip402)" style="stroke:#0000ff; stroke-linecap:butt; stroke-linejoin:round; stroke-width:4; stroke-opacity:1; fill:none" points="
  309.067,1043.63 311.55,1094.4 314.034,1102.55 316.517,1094.48 319,1101.15 321.483,1057.3 323.967,1089.25 326.45,1109.24 328.933,1078.57 331.417,1076.96 
  333.9,1060.53 336.383,1035.89 338.867,1035.89 341.35,1035.89 343.833,1039.94 346.317,1015.85 348.8,988.06 351.283,1012.02 353.767,1017.03 356.25,1028.01 
  358.733,1017.03 361.216,1007.71 363.7,978.561 366.183,1011.32 368.666,1019.03 371.15,1049.91 373.633,1036.51 376.116,984.869 378.6,961.126 381.083,945.379 
  383.566,961.126 386.05,900.505 388.533,879.784 391.016,879.784 393.499,825.612 395.983,895.241 398.466,863.87 400.949,825.065 403.433,825.065 405.916,825.065 
  408.399,787.658 410.883,841.648 413.366,779.286 415.849,779.286 418.333,779.286 420.816,792.345 423.299,779.286 425.782,779.286 428.266,779.286 430.749,819.885 
  433.232,812.184 435.716,791.641 438.199,747.545 440.682,772.21 443.166,747.545 445.649,747.545 448.132,747.545 450.616,747.545 453.099,739.478 455.582,736.864 
  458.066,739.478 460.549,739.478 463.032,741.819 465.515,682.383 467.999,648.489 470.482,687.383 472.965,687.383 475.449,658.606 477.932,662.533 480.415,662.533 
  482.899,662.533 485.382,689.606 487.865,754.154 490.349,689.606 492.832,703.551 495.315,664.107 497.798,749.212 500.282,795.219 502.765,795.219 505.248,795.219 
  507.732,795.219 510.215,797.56 512.698,795.219 515.182,805.241 517.665,844.938 520.148,818.61 522.632,818.61 525.115,821.356 527.598,821.356 530.081,795.922 
  532.565,789.885 535.048,789.885 537.531,789.885 540.015,872.966 542.498,789.885 544.981,753.176 547.465,730.79 549.948,735.684 552.431,735.684 554.915,735.684 
  557.398,735.684 559.881,735.684 562.364,705.88 564.848,794.432 567.331,794.432 569.814,794.432 572.298,794.432 574.781,828.679 577.264,844.344 579.748,857.185 
  582.231,848.873 584.714,857.185 587.198,857.185 589.681,892.6 592.164,886.916 594.648,855.826 597.131,842.589 599.614,842.589 602.097,842.589 604.581,783.153 
  607.064,783.153 609.547,782.62 612.031,865.558 614.514,889.447 616.997,900.492 619.481,900.492 621.964,919.86 624.447,869.853 626.931,869.853 629.414,847.683 
  631.897,847.683 634.38,847.683 636.864,795.025 639.347,795.025 641.83,754.17 644.314,795.025 646.797,797.436 649.28,795.025 651.764,769.304 654.247,705.726 
  656.73,800.839 659.214,828.122 661.697,838.823 664.18,897.37 666.663,838.823 669.147,874.32 671.63,838.823 674.113,833.769 676.597,838.823 679.08,838.823 
  681.563,823.545 684.047,855.134 686.53,823.545 689.013,851.732 691.497,820.017 693.98,803.171 696.463,832.215 698.946,920.523 701.43,916.391 703.913,955.386 
  706.396,953.207 708.88,931.157 711.363,877.76 713.846,900.707 716.33,942.749 718.813,979.854 721.296,980.648 723.78,941.117 726.263,930.897 728.746,930.897 
  731.23,930.897 733.713,989.974 736.196,1014.59 738.679,989.974 741.163,960.418 743.646,918.652 746.129,960.418 748.613,960.418 751.096,942.642 753.579,924.956 
  756.063,865.555 758.546,863.896 761.029,863.896 763.513,863.896 765.996,863.896 768.479,872.171 770.962,880.753 773.446,880.753 775.929,880.753 778.412,860.365 
  780.896,813.638 783.379,792.148 785.862,792.148 788.346,721.942 790.829,606.189 793.312,581.197 795.796,496.981 798.279,581.197 800.762,605.003 803.245,553.801 
  805.729,667.958 808.212,667.958 810.695,610.283 813.179,571.51 815.662,610.283 818.145,610.283 820.629,636.477 823.112,678.86 825.595,732.495 828.079,768.146 
  830.562,732.495 833.045,732.495 835.528,732.495 838.012,724.432 840.495,670.945 842.978,695.004 845.462,695.004 847.945,779.595 850.428,716.317 852.912,708.128 
  855.395,749.191 857.878,731.268 860.362,650.671 862.845,731.268 865.328,688.113 867.812,709.072 870.295,702.06 872.778,734.372 875.261,702.06 877.745,725.237 
  880.228,702.06 882.711,763.968 885.195,726.102 887.678,744.968 890.161,778.309 892.645,825.846 895.128,854.16 897.611,877.81 900.095,914.551 902.578,914.551 
  905.061,889.532 907.544,852.655 910.028,850.672 912.511,865.961 914.994,874.553 917.478,896.349 919.961,874.553 922.444,877.969 924.928,923.003 927.411,923.003 
  929.894,952.401 932.378,955.31 934.861,935.128 937.344,921.591 939.827,953.159 942.311,944.532 944.794,938.086 947.277,938.086 949.761,946.155 952.244,938.086 
  954.727,953.115 957.211,940.591 959.694,940.591 962.177,932.015 964.661,940.591 967.144,940.591 969.627,978.516 972.111,1004.52 974.594,974.434 977.077,988.893 
  979.56,983.342 982.044,997.277 984.527,987.408 987.01,965.503 989.494,961.531 991.977,918.692 994.46,961.531 996.944,959.677 999.427,952.77 1001.91,977.485 
  1004.39,946.294 1006.88,977.485 1009.36,974.754 1011.84,963.961 1014.33,974.754 1016.81,988.618 1019.29,956.517 1021.78,965.334 1024.26,965.334 1026.74,974.183 
  1029.23,950.149 1031.71,972.56 1034.19,987.878 1036.68,981.695 1039.16,997.477 1041.64,956.35 1044.13,956.35 1046.61,956.35 1049.09,989.381 1051.58,989.754 
  1054.06,989.381 1056.54,989.381 1059.03,988.246 1061.51,989.696 1063.99,988.246 1066.48,988.246 1068.96,1010.78 1071.44,988.246 1073.93,1007.61 1076.41,992.135 
  1078.89,992.135 1081.38,1018.84 1083.86,1019.33 1086.34,1018.84 1088.83,1018.84 1091.31,1018.84 1093.79,1018.84 1096.28,1018.84 1098.76,1023.27 1101.24,1023.27 
  1103.73,1003.14 1106.21,1003.4 1108.69,968.285 1111.18,960.548 1113.66,950.264 1116.14,893.654 1118.63,844.08 1121.11,873.717 1123.59,844.08 1126.08,839.982 
  1128.56,816.623 1131.04,825.455 1133.53,829.56 1136.01,777.051 1138.49,753.578 1140.98,777.051 1143.46,760.133 1145.94,682.925 1148.43,689.857 1150.91,682.925 
  1153.39,637.484 1155.88,671.782 1158.36,675.156 1160.84,671.212 1163.33,669.576 1165.81,673.095 1168.29,673.095 1170.78,689.092 1173.26,689.081 1175.74,654.423 
  1178.23,689.081 1180.71,689.081 1183.19,655.729 1185.68,684.252 1188.16,705.357 1190.64,705.357 1193.13,721.067 1195.61,792.014 1198.09,817.697 1200.57,816.826 
  1203.06,846.99 1205.54,846.07 1208.02,875.96 1210.51,906.263 1212.99,875.96 1215.47,875.96 1217.96,908.885 1220.44,875.96 1222.92,875.96 1225.41,875.96 
  1227.89,821.495 1230.37,866.886 1232.86,821.495 1235.34,855.671 1237.82,936.523 1240.31,936.141 1242.79,969.1 1245.27,1001.73 1247.76,1041.52 1250.24,1001.73 
  1252.72,1011.77 1255.21,1001.73 1257.69,1001.73 1260.17,1001.73 1262.66,1044.14 1265.14,1025.9 1267.62,1011.28 1270.11,1028.75 1272.59,1025.06 1275.07,1041.91 
  1277.56,1025.06 1280.04,1038.27 1282.52,1054.88 1285.01,1054.88 1287.49,1049.77 1289.97,1054.88 1292.46,1062.03 1294.94,1073.89 1297.42,1088.62 1299.91,1092.08 
  1302.39,1069.57 1304.87,1059.12 1307.36,1048.59 1309.84,1048.59 1312.32,1020.12 1314.81,1020.12 1317.29,1020.12 1319.77,1025.27 1322.26,1025.45 1324.74,1047.67 
  1327.22,1062 1329.71,1081.57 1332.19,1063.57 1334.67,1048.15 1337.16,1048.15 1339.64,1085.02 1342.12,1048.15 1344.61,1044.6 1347.09,1043.14 1349.57,1043.14 
  1352.06,1043.14 1354.54,1004.39 1357.02,1036.11 1359.51,1044.14 1361.99,1036.11 1364.47,1008.13 1366.96,1002.61 1369.44,1012.83 1371.92,999.43 1374.41,1012.8 
  1376.89,1028.59 1379.37,1034.88 1381.86,1058.22 1384.34,1034.88 1386.82,1034.88 1389.31,1043.28 1391.79,1044.14 1394.27,1044.14 1396.76,1045.45 1399.24,1078.28 
  1401.72,1045.45 1404.21,1069.86 1406.69,1095.77 1409.17,1069.86 1411.66,1065.16 1414.14,1062.94 1416.62,1064.94 1419.11,1051.12 1421.59,1051.12 1424.07,1051.12 
  1426.56,1051.12 1429.04,1045.31 1431.52,999.181 1434.01,1045.31 1436.49,1046.18 1438.97,1045.31 1441.46,1045.31 1443.94,1045.31 1446.42,1065.23 1448.91,1044.3 
  1451.39,1044.3 1453.87,1058.88 1456.36,1050.2 1458.84,1058.88 1461.32,1070.73 1463.81,1025.21 1466.29,1055.07 1468.77,1025.21 1471.26,1029.05 1473.74,1016.12 
  1476.22,1037.22 1478.71,1037.22 1481.19,1020.88 1483.67,1045.79 1486.16,1020.88 1488.64,1020.88 1491.12,1020.88 1493.61,1008.86 1496.09,1022.47 1498.57,1022.47 
  1501.06,1014.64 1503.54,1022.2 1506.02,1039.18 1508.51,1039.18 1510.99,1068.59 1513.47,1039.18 1515.96,1034.53 1518.44,1039.18 1520.92,1072.5 1523.41,1072.5 
  1525.89,1088.22 1528.37,1084.33 1530.86,1090.92 1533.34,1099.8 1535.82,1099.8 1538.3,1096.76 1540.79,1099.8 1543.27,1094.79 1545.75,1099.8 1548.24,1089.77 
  1550.72,1122.37 1553.2,1132.24 1555.69,1132.24 1558.17,1152.8 1560.65,1152.8 1563.14,1151.47 1565.62,1160.11 1568.1,1155.09 1570.59,1128.09 1573.07,1155.09 
  1575.55,1142.95 1578.04,1155.09 1580.52,1159.19 1583,1155.09 1585.49,1138.79 1587.97,1134.49 1590.45,1127.62 1592.94,1151.35 1595.42,1151.35 1597.9,1151.35 
  1600.39,1151.35 1602.87,1151.35 1605.35,1131.16 1607.84,1145.82 1610.32,1168.34 1612.8,1168.34 1615.29,1181.58 1617.77,1175.26 1620.25,1181.58 1622.74,1173.4 
  1625.22,1181.58 1627.7,1152.81 1630.19,1181.58 1632.67,1181.58 1635.15,1181.58 1637.64,1181.58 1640.12,1181.26 1642.6,1181.26 1645.09,1194.15 1647.57,1177.33 
  1650.05,1185.08 1652.54,1185.08 1655.02,1202.85 1657.5,1198.87 1659.99,1197.79 1662.47,1192.01 1664.95,1192.32 1667.44,1192.32 1669.92,1192.32 1672.4,1192.32 
  1674.89,1192.32 1677.37,1192.32 1679.85,1192.32 1682.34,1192.32 1684.82,1192.32 1687.3,1182.35 1689.79,1182.35 1692.27,1173.09 1694.75,1173.09 1697.24,1157.03 
  1699.72,1154.34 1702.2,1173.55 1704.69,1165.33 1707.17,1173.55 1709.65,1150.61 1712.14,1111.75 1714.62,1120.77 1717.1,1120.77 1719.59,1120.77 1722.07,1133.66 
  1724.55,1096.91 1727.04,1096.57 1729.52,1112.55 1732,1092.89 1734.49,1122.03 1736.97,1122.03 1739.45,1122.03 1741.94,1122.03 1744.42,1122.03 1746.9,1136.65 
  1749.39,1162.59 1751.87,1161.38 1754.35,1117.45 1756.84,1119.02 1759.32,1081.17 1761.8,1098.06 1764.29,1103.05 1766.77,1127.22 1769.25,1127.22 1771.74,1127.22 
  1774.22,1136.21 1776.7,1136.21 1779.19,1132.03 1781.67,1120.01 1784.15,1105.65 1786.64,1046.67 1789.12,1052.7 1791.6,1051.81 1794.09,1055.58 1796.57,1044.81 
  1799.05,1003.49 1801.54,1003.49 1804.02,1003.49 1806.5,1038.32 1808.99,1068.1 1811.47,1069.96 1813.95,1069.96 1816.44,1088.91 1818.92,1069.96 1821.4,1088.91 
  1823.89,1048.92 1826.37,1022.86 1828.85,1048.92 1831.34,1066.65 1833.82,1048.92 1836.3,1038.96 1838.79,1074.76 1841.27,1014.55 1843.75,1024.29 1846.24,1042.8 
  1848.72,1050.08 1851.2,1050.08 1853.69,1050.08 1856.17,1045.61 1858.65,1045.61 1861.14,1045.61 1863.62,969.237 1866.1,1045.61 1868.59,1047.41 1871.07,1045.61 
  1873.55,1024.48 1876.04,992.864 1878.52,992.864 1881,992.864 1883.48,992.864 1885.97,987.896 1888.45,992.864 1890.93,1031.52 1893.42,992.864 1895.9,998.162 
  1898.38,998.162 1900.87,998.162 1903.35,998.162 1905.83,1034.78 1908.32,1071.51 1910.8,1083.39 1913.28,1108.44 1915.77,1121.28 1918.25,1123.8 1920.73,1121.28 
  1923.22,1121.28 1925.7,1129.85 1928.18,1125.83 1930.67,1129.85 1933.15,1129.85 1935.63,1144.74 1938.12,1144.15 1940.6,1144.74 1943.08,1144.74 1945.57,1161.05 
  1948.05,1168.17 1950.53,1161.05 1953.02,1154.56 1955.5,1105.24 1957.98,1130.53 1960.47,1147.16 1962.95,1101.88 1965.43,1110.81 1967.92,1110.81 1970.4,1120.06 
  1972.88,1110.81 1975.37,1110.81 1977.85,1110.81 1980.33,1106.47 1982.82,1106.47 1985.3,1116.34 1987.78,1106.47 1990.27,1106.47 1992.75,1068.6 1995.23,1068.6 
  1997.72,1097.61 2000.2,1115.25 2002.68,1115.25 2005.17,1117.08 2007.65,1117.08 2010.13,1117.08 2012.62,1093.79 2015.1,1124.21 2017.58,1140.72 2020.07,1117.58 
  2022.55,1082.17 2025.03,1082.17 2027.52,1103.13 2030,1104.07 2032.48,1075.6 2034.97,1088.99 2037.45,1092.99 2039.93,1115.77 2042.42,1092.99 2044.9,1092.99 
  2047.38,1092.99 2049.87,1093.38 2052.35,1093.38 2054.83,1097.77 2057.32,1093.38 2059.8,1096.54 2062.28,1121.74 2064.77,1096.54 2067.25,1111.77 2069.73,1098.11 
  2072.22,1098.11 2074.7,1118.96 2077.18,1118.96 2079.67,1107.71 2082.15,1107.71 2084.63,1107.71 2087.12,1105.86 2089.6,1105.86 2092.08,1129.59 2094.57,1083.2 
  2097.05,1085.46 2099.53,1087.46 2102.02,1084.46 2104.5,1117.6 2106.98,1105.62 2109.47,1098.75 2111.95,1098.75 2114.43,1098.39 2116.92,1094.62 2119.4,1130.91 
  2121.88,1121.59 2124.37,1116.37 2126.85,1124.32 2129.33,1124.32 2131.82,1144.44 2134.3,1100.88 2136.78,1144.44 2139.27,1144.44 2141.75,1141.19 2144.23,1141.19 
  2146.72,1137.57 2149.2,1137.57 2151.68,1150.17 2154.17,1160.88 2156.65,1150.17 2159.13,1150.17 2161.62,1150.17 2164.1,1143.62 2166.58,1141.31 2169.07,1113.13 
  2171.55,1132.51 2174.03,1113.13 2176.52,1144.22 2179,1113.13 2181.48,1131.55 2183.97,1145.37 2186.45,1131.55 2188.93,1121.45 2191.42,1120.29 2193.9,1141.89 
  2196.38,1120.29 2198.87,1135.37 2201.35,1120.29 2203.83,1120.29 2206.32,1124.66 2208.8,1127.39 2211.28,1124.66 2213.77,1124.87 2216.25,1139.59 2218.73,1124.87 
  2221.22,1124.87 2223.7,1149.18 2226.18,1124.21 2228.66,1124.21 2231.15,1149.13 2233.63,1186.2 2236.11,1172.3 2238.6,1168.61 2241.08,1139.57 2243.56,1130.9 
  2246.05,1102.84 2248.53,1102.84 2251.01,1102.84 2253.5,1074.82 2255.98,1089.28 2258.46,1089.28 2260.95,1089.28 2263.43,1089.28 2265.91,1089.28 2268.4,1084.55 
  2270.88,1095.66 2273.36,1095.66 2275.85,1086.37 2278.33,1098.16 2280.81,1044.28 2283.3,1045.65 2285.78,1036.67 2288.26,1082.38 2290.75,1081.49 2293.23,1082.38 
  
  "/>
<polyline clip-path="url(#clip402)" style="stroke:#ffa500; stroke-linecap:butt; stroke-linejoin:round; stroke-width:4; stroke-opacity:1; fill:none" points="
  309.067,1017.97 311.55,1071.69 314.034,1094.61 316.517,1092.05 319,1083.29 321.483,1082 323.967,1045.64 326.45,979.194 328.933,1025.76 331.417,1025.76 
  333.9,1049.97 336.383,1049.97 338.867,1012.78 341.35,1049.97 343.833,1072.58 346.317,1072.84 348.8,1072.84 351.283,1053.69 353.767,1077.06 356.25,1101.49 
  358.733,1077.06 361.216,1070.07 363.7,1070.07 366.183,1107.46 368.666,1070.07 371.15,1088.24 373.633,1088.24 376.116,1088.24 378.6,1088.24 381.083,1072.82 
  383.566,1063.2 386.05,1039.34 388.533,1039.34 391.016,1039.34 393.499,1045 395.983,1049.8 398.466,1045 400.949,1042.54 403.433,1048.52 405.916,1042.54 
  408.399,1061.63 410.883,1041.14 413.366,1030.92 415.849,1043.98 418.333,1038.86 420.816,1038.86 423.299,1030.31 425.782,991.445 428.266,981.952 430.749,991.081 
  433.232,1017.74 435.716,1017.74 438.199,1024.74 440.682,1024.74 443.166,989.527 445.649,971.097 448.132,993.21 450.616,993.21 453.099,993.21 455.582,993.21 
  458.066,993.21 460.549,969.776 463.032,999.373 465.515,981.907 467.999,1057.27 470.482,981.907 472.965,976.768 475.449,959.554 477.932,970.14 480.415,970.14 
  482.899,922.963 485.382,922.963 487.865,922.963 490.349,922.963 492.832,917.627 495.315,942.369 497.798,942.369 500.282,913.709 502.765,868.824 505.248,887.585 
  507.732,878.994 510.215,878.994 512.698,869.399 515.182,878.994 517.665,880.833 520.148,880.833 522.632,880.833 525.115,880.833 527.598,895.452 530.081,933.546 
  532.565,928.689 535.048,935.88 537.531,955.826 540.015,914.808 542.498,931.613 544.981,920.537 547.465,932.434 549.948,912.516 552.431,880.651 554.915,859.836 
  557.398,859.836 559.881,859.836 562.364,859.836 564.848,845.237 567.331,808.944 569.814,808.944 572.298,808.944 574.781,828.056 577.264,844.429 579.748,876.185 
  582.231,910.057 584.714,855.8 587.198,910.057 589.681,855.8 592.164,855.8 594.648,855.8 597.131,855.8 599.614,855.8 602.097,820.74 604.581,751.963 
  607.064,751.963 609.547,645.279 612.031,713.103 614.514,645.279 616.997,713.103 619.481,713.103 621.964,716.2 624.447,658.55 626.931,589.494 629.414,590.589 
  631.897,590.589 634.38,590.589 636.864,590.589 639.347,591.829 641.83,591.829 644.314,577.849 646.797,512.984 649.28,580.961 651.764,572.267 654.247,610.683 
  656.73,682.124 659.214,698.024 661.697,682.124 664.18,682.124 666.663,737.053 669.147,668.339 671.63,575.657 674.113,570.926 676.597,576.361 679.08,508.675 
  681.563,576.361 684.047,615.94 686.53,635.675 689.013,615.94 691.497,574.385 693.98,545.902 696.463,459.348 698.946,298.198 701.43,160.256 703.913,190.256 
  706.396,242.268 708.88,190.256 711.363,315.585 713.846,212.091 716.33,242.233 718.813,263.547 721.296,242.233 723.78,242.233 726.263,269.729 728.746,359.98 
  731.23,269.729 733.713,394.674 736.196,373.002 738.679,275.55 741.163,373.002 743.646,408.998 746.129,330.671 748.613,317.207 751.096,330.671 753.579,330.671 
  756.063,330.671 758.546,330.671 761.029,330.82 763.513,425.599 765.996,403.771 768.479,403.771 770.962,405.661 773.446,405.661 775.929,471.644 778.412,405.661 
  780.896,474.237 783.379,439.034 785.862,474.237 788.346,474.237 790.829,488.497 793.312,427.269 795.796,445.318 798.279,445.318 800.762,416.046 803.245,433.905 
  805.729,416.046 808.212,433.905 810.695,500.435 813.179,500.435 815.662,500.435 818.145,562.103 820.629,500.435 823.112,523.375 825.595,523.375 828.079,606.301 
  830.562,523.375 833.045,550.39 835.528,523.375 838.012,569.061 840.495,569.061 842.978,550.344 845.462,550.451 847.945,602.805 850.428,601.494 852.912,601.494 
  855.395,601.494 857.878,582.279 860.362,624.454 862.845,669.065 865.328,624.454 867.812,605.241 870.295,640.107 872.778,640.107 875.261,640.107 877.745,629.232 
  880.228,653.675 882.711,677.545 885.195,720.012 887.678,717.864 890.161,717.172 892.645,724.427 895.128,724.427 897.611,724.427 900.095,762.207 902.578,775.508 
  905.061,808.421 907.544,808.421 910.028,830.109 912.511,855.877 914.994,855.877 917.478,873.318 919.961,873.318 922.444,887.61 924.928,895.344 927.411,904.028 
  929.894,909.656 932.378,922.831 934.861,924.957 937.344,924.957 939.827,927.548 942.311,919.46 944.794,922.28 947.277,960.894 949.761,964.634 952.244,975.566 
  954.727,975.566 957.211,957.408 959.694,963.861 962.177,963.861 964.661,970.885 967.144,970.885 969.627,990.177 972.111,990.177 974.594,997.893 977.077,1012.29 
  979.56,1006.58 982.044,1006.58 984.527,1006.58 987.01,1006.58 989.494,1007.96 991.977,1026.64 994.46,1026.64 996.944,1047.93 999.427,1069.8 1001.91,1069.8 
  1004.39,1079.79 1006.88,1079.79 1009.36,1079.79 1011.84,1079.79 1014.33,1078.97 1016.81,1088.96 1019.29,1088.96 1021.78,1088.96 1024.26,1079.17 1026.74,1090.36 
  1029.23,1090.36 1031.71,1092.3 1034.19,1083.42 1036.68,1112.36 1039.16,1119.79 1041.64,1138.34 1044.13,1138.34 1046.61,1133.51 1049.09,1150.15 1051.58,1148.71 
  1054.06,1148.71 1056.54,1147.75 1059.03,1136.14 1061.51,1136.14 1063.99,1122.61 1066.48,1100.29 1068.96,1124.28 1071.44,1124.28 1073.93,1124.28 1076.41,1118.24 
  1078.89,1108.7 1081.38,1108.7 1083.86,1104.16 1086.34,1107.95 1088.83,1107.95 1091.31,1132.68 1093.79,1133.56 1096.28,1133.56 1098.76,1125.61 1101.24,1127.46 
  1103.73,1127.46 1106.21,1111.5 1108.69,1111.5 1111.18,1105.8 1113.66,1105.8 1116.14,1114.68 1118.63,1114.68 1121.11,1115.3 1123.59,1122.07 1126.08,1130.45 
  1128.56,1130.45 1131.04,1139.51 1133.53,1131.82 1136.01,1133.31 1138.49,1106.3 1140.98,1127.25 1143.46,1127.25 1145.94,1143.48 1148.43,1149.88 1150.91,1160.93 
  1153.39,1160.93 1155.88,1174.65 1158.36,1174.65 1160.84,1179.17 1163.33,1179.17 1165.81,1181.85 1168.29,1168.32 1170.78,1168.32 1173.26,1168.32 1175.74,1163.67 
  1178.23,1164.77 1180.71,1163.67 1183.19,1180.39 1185.68,1171.49 1188.16,1192.43 1190.64,1185.4 1193.13,1185.4 1195.61,1193.75 1198.09,1193.75 1200.57,1184.17 
  1203.06,1184.17 1205.54,1184.17 1208.02,1184.17 1210.51,1184.17 1212.99,1171.86 1215.47,1176.64 1217.96,1187.05 1220.44,1187.05 1222.92,1189.13 1225.41,1184.3 
  1227.89,1189.13 1230.37,1186.03 1232.86,1195.36 1235.34,1211.54 1237.82,1211.54 1240.31,1225.78 1242.79,1225.78 1245.27,1225.78 1247.76,1225.26 1250.24,1196.51 
  1252.72,1196.51 1255.21,1196.51 1257.69,1168 1260.17,1159.22 1262.66,1148.64 1265.14,1148.64 1267.62,1160.28 1270.11,1152.48 1272.59,1159.27 1275.07,1152.48 
  1277.56,1166.89 1280.04,1185.18 1282.52,1185.18 1285.01,1185.18 1287.49,1188.23 1289.97,1175.48 1292.46,1175.48 1294.94,1162.55 1297.42,1162.55 1299.91,1178.52 
  1302.39,1173.65 1304.87,1173.65 1307.36,1186.11 1309.84,1168.76 1312.32,1168.76 1314.81,1168.76 1317.29,1160.34 1319.77,1153.4 1322.26,1153.4 1324.74,1173.9 
  1327.22,1173.9 1329.71,1183.97 1332.19,1192.94 1334.67,1192.94 1337.16,1203.97 1339.64,1232.54 1342.12,1238.74 1344.61,1238.13 1347.09,1239 1349.57,1239 
  1352.06,1253.49 1354.54,1250.24 1357.02,1250.24 1359.51,1254.16 1361.99,1240.88 1364.47,1254.16 1366.96,1269.64 1369.44,1267.11 1371.92,1267.11 1374.41,1267.11 
  1376.89,1279.29 1379.37,1279.29 1381.86,1275.66 1384.34,1265.47 1386.82,1253.47 1389.31,1253.71 1391.79,1251.69 1394.27,1263.08 1396.76,1269.93 1399.24,1269.99 
  1401.72,1267.09 1404.21,1249.62 1406.69,1235.24 1409.17,1267.78 1411.66,1265 1414.14,1246.29 1416.62,1241.28 1419.11,1246.29 1421.59,1240.12 1424.07,1247.19 
  1426.56,1260.76 1429.04,1240.42 1431.52,1240.42 1434.01,1241.53 1436.49,1240.35 1438.97,1228.53 1441.46,1222.79 1443.94,1211.47 1446.42,1211.47 1448.91,1211.47 
  1451.39,1225.33 1453.87,1239.07 1456.36,1257.14 1458.84,1259.43 1461.32,1246.89 1463.81,1265.55 1466.29,1270.36 1468.77,1271.73 1471.26,1271.73 1473.74,1267.62 
  1476.22,1268.43 1478.71,1268.43 1481.19,1280.42 1483.67,1286.18 1486.16,1298.89 1488.64,1311.04 1491.12,1315.23 1493.61,1329.68 1496.09,1329.68 1498.57,1336.94 
  1501.06,1343.1 1503.54,1362.99 1506.02,1372.04 1508.51,1373.78 1510.99,1373.78 1513.47,1375.75 1515.96,1380.83 1518.44,1380.83 1520.92,1380.83 1523.41,1373.89 
  1525.89,1373.89 1528.37,1380.99 1530.86,1380.99 1533.34,1380.99 1535.82,1380.99 1538.3,1380.99 1540.79,1380.99 1543.27,1380.99 1545.75,1380.99 1548.24,1380.99 
  1550.72,1380.99 1553.2,1380.99 1555.69,1381.02 1558.17,1381.02 1560.65,1381.02 1563.14,1382.14 1565.62,1382.14 1568.1,1377.05 1570.59,1377.8 1573.07,1377.8 
  1575.55,1377.8 1578.04,1377.8 1580.52,1378.41 1583,1378.41 1585.49,1378.41 1587.97,1381.85 1590.45,1381.85 1592.94,1381.85 1595.42,1381.85 1597.9,1381.85 
  1600.39,1381.85 1602.87,1382.59 1605.35,1382.59 1607.84,1378.57 1610.32,1378.57 1612.8,1378.57 1615.29,1371.91 1617.77,1378.58 1620.25,1378.58 1622.74,1377.49 
  1625.22,1377.49 1627.7,1377.49 1630.19,1377.49 1632.67,1374.06 1635.15,1371.79 1637.64,1379.94 1640.12,1379.94 1642.6,1379.94 1645.09,1384.63 1647.57,1384.63 
  1650.05,1384.63 1652.54,1384.63 1655.02,1384.63 1657.5,1384.63 1659.99,1384.63 1662.47,1384.51 1664.95,1379.5 1667.44,1379.5 1669.92,1379.5 1672.4,1379.5 
  1674.89,1379.5 1677.37,1379.5 1679.85,1371.3 1682.34,1371.74 1684.82,1379.11 1687.3,1379.11 1689.79,1379.11 1692.27,1377.98 1694.75,1377.98 1697.24,1377.98 
  1699.72,1377.98 1702.2,1377.98 1704.69,1370.59 1707.17,1364.47 1709.65,1370.11 1712.14,1355.58 1714.62,1353.89 1717.1,1353.89 1719.59,1353.89 1722.07,1342.35 
  1724.55,1342.35 1727.04,1351.19 1729.52,1360.33 1732,1372.84 1734.49,1372.84 1736.97,1381.7 1739.45,1381.7 1741.94,1382.22 1744.42,1382.22 1746.9,1382.22 
  1749.39,1382.22 1751.87,1375.04 1754.35,1375.04 1756.84,1372.2 1759.32,1372.2 1761.8,1362.77 1764.29,1360.89 1766.77,1354.08 1769.25,1345.54 1771.74,1359.67 
  1774.22,1362.9 1776.7,1361.32 1779.19,1370.45 1781.67,1370.45 1784.15,1370.45 1786.64,1374.56 1789.12,1370.45 1791.6,1371.31 1794.09,1372.35 1796.57,1372.35 
  1799.05,1372.35 1801.54,1372.35 1804.02,1372.61 1806.5,1372.61 1808.99,1382.37 1811.47,1382.37 1813.95,1384.32 1816.44,1384.32 1818.92,1384.32 1821.4,1384.32 
  1823.89,1384.32 1826.37,1384.32 1828.85,1384.32 1831.34,1384.32 1833.82,1384.32 1836.3,1384.32 1838.79,1384.32 1841.27,1384.32 1843.75,1384.32 1846.24,1384.32 
  1848.72,1384.32 1851.2,1384.32 1853.69,1384.32 1856.17,1384.32 1858.65,1384.32 1861.14,1384.32 1863.62,1384.32 1866.1,1384.32 1868.59,1384.75 1871.07,1384.75 
  1873.55,1384.75 1876.04,1384.75 1878.52,1384.75 1881,1383.6 1883.48,1383.6 1885.97,1383.6 1888.45,1383.6 1890.93,1383.6 1893.42,1383.6 1895.9,1383.6 
  1898.38,1383.6 1900.87,1381.99 1903.35,1381.99 1905.83,1381.99 1908.32,1381.99 1910.8,1385.96 1913.28,1385.96 1915.77,1385.96 1918.25,1385.96 1920.73,1385.96 
  1923.22,1385.96 1925.7,1385.96 1928.18,1385.96 1930.67,1385.96 1933.15,1385.96 1935.63,1385.96 1938.12,1385.96 1940.6,1385.96 1943.08,1385.96 1945.57,1385.96 
  1948.05,1385.96 1950.53,1385.96 1953.02,1385.96 1955.5,1385.96 1957.98,1385.96 1960.47,1385.96 1962.95,1385.96 1965.43,1385.96 1967.92,1385.96 1970.4,1385.96 
  1972.88,1385.96 1975.37,1385.96 1977.85,1385.96 1980.33,1385.96 1982.82,1386.4 1985.3,1386.4 1987.78,1386.4 1990.27,1386.4 1992.75,1386.4 1995.23,1386.4 
  1997.72,1386.4 2000.2,1378.25 2002.68,1378.25 2005.17,1378.25 2007.65,1378.25 2010.13,1378.25 2012.62,1378.25 2015.1,1378.25 2017.58,1377.43 2020.07,1371.74 
  2022.55,1367.59 2025.03,1353.59 2027.52,1349.59 2030,1354.03 2032.48,1357.42 2034.97,1351.97 2037.45,1351.97 2039.93,1354.42 2042.42,1352.74 2044.9,1357.65 
  2047.38,1357.65 2049.87,1357.8 2052.35,1357.8 2054.83,1357.8 2057.32,1366.38 2059.8,1366.38 2062.28,1355.75 2064.77,1349.81 2067.25,1347.48 2069.73,1343.3 
  2072.22,1345.42 2074.7,1354.37 2077.18,1352.97 2079.67,1366.22 2082.15,1366.22 2084.63,1366.22 2087.12,1367.18 2089.6,1367.18 2092.08,1367.18 2094.57,1367.18 
  2097.05,1365.86 2099.53,1365.86 2102.02,1376.73 2104.5,1376.73 2106.98,1381.99 2109.47,1381.99 2111.95,1381.99 2114.43,1381.99 2116.92,1381.99 2119.4,1382.01 
  2121.88,1373.15 2124.37,1374.67 2126.85,1381.02 2129.33,1381.02 2131.82,1381.02 2134.3,1376.9 2136.78,1375.95 2139.27,1375.95 2141.75,1375.95 2144.23,1372.99 
  2146.72,1372.99 2149.2,1372.99 2151.68,1377.78 2154.17,1377.78 2156.65,1377.78 2159.13,1380.75 2161.62,1380.75 2164.1,1380.75 2166.58,1376.33 2169.07,1378.74 
  2171.55,1380.29 2174.03,1367.5 2176.52,1354.21 2179,1339.96 2181.48,1347.47 2183.97,1347.47 2186.45,1361.11 2188.93,1362.27 2191.42,1351.86 2193.9,1351.86 
  2196.38,1351.86 2198.87,1351.5 2201.35,1351.5 2203.83,1355.31 2206.32,1357.04 2208.8,1354.39 2211.28,1354.39 2213.77,1354.39 2216.25,1351.42 2218.73,1361.29 
  2221.22,1369.48 2223.7,1369.53 2226.18,1369.53 2228.66,1369.53 2231.15,1358.76 2233.63,1345.02 2236.11,1345.02 2238.6,1344.05 2241.08,1346.33 2243.56,1346.33 
  2246.05,1342.75 2248.53,1342.75 2251.01,1322.51 2253.5,1322.51 2255.98,1328.97 2258.46,1333.17 2260.95,1333.17 2263.43,1333.17 2265.91,1334.41 2268.4,1333.17 
  2270.88,1333.98 2273.36,1321.02 2275.85,1321.02 2278.33,1321.02 2280.81,1321.02 2283.3,1324.94 2285.78,1328.07 2288.26,1333.65 2290.75,1333.65 2293.23,1317.92 
  
  "/>
<path clip-path="url(#clip400)" d="
M1773.54 322.316 L2282.65 322.316 L2282.65 166.796 L1773.54 166.796  Z
  " fill="#ffffff" fill-rule="evenodd" fill-opacity="1"/>
<polyline clip-path="url(#clip400)" style="stroke:#000000; stroke-linecap:butt; stroke-linejoin:round; stroke-width:4; stroke-opacity:1; fill:none" points="
  1773.54,322.316 2282.65,322.316 2282.65,166.796 1773.54,166.796 1773.54,322.316 
  "/>
<polyline clip-path="url(#clip400)" style="stroke:#0000ff; stroke-linecap:butt; stroke-linejoin:round; stroke-width:4; stroke-opacity:1; fill:none" points="
  1796.91,218.636 1937.13,218.636 
  "/>
<path clip-path="url(#clip400)" d="M1965.17 205.198 L1965.17 218.184 L1971.05 218.184 Q1974.31 218.184 1976.1 216.495 Q1977.88 214.805 1977.88 211.68 Q1977.88 208.578 1976.1 206.888 Q1974.31 205.198 1971.05 205.198 L1965.17 205.198 M1960.5 201.356 L1971.05 201.356 Q1976.86 201.356 1979.82 203.995 Q1982.81 206.61 1982.81 211.68 Q1982.81 216.795 1979.82 219.411 Q1976.86 222.027 1971.05 222.027 L1965.17 222.027 L1965.17 235.916 L1960.5 235.916 L1960.5 201.356 Z" fill="#000000" fill-rule="evenodd" fill-opacity="1" /><path clip-path="url(#clip400)" d="M2003.09 213.971 Q2002.37 213.555 2001.51 213.37 Q2000.68 213.161 1999.66 213.161 Q1996.05 213.161 1994.11 215.522 Q1992.19 217.86 1992.19 222.258 L1992.19 235.916 L1987.9 235.916 L1987.9 209.99 L1992.19 209.99 L1992.19 214.018 Q1993.53 211.657 1995.68 210.522 Q1997.83 209.365 2000.91 209.365 Q2001.35 209.365 2001.88 209.434 Q2002.42 209.481 2003.06 209.596 L2003.09 213.971 Z" fill="#000000" fill-rule="evenodd" fill-opacity="1" /><path clip-path="url(#clip400)" d="M2016.56 212.976 Q2013.13 212.976 2011.14 215.661 Q2009.15 218.323 2009.15 222.976 Q2009.15 227.629 2011.12 230.314 Q2013.11 232.976 2016.56 232.976 Q2019.96 232.976 2021.95 230.291 Q2023.94 227.606 2023.94 222.976 Q2023.94 218.37 2021.95 215.684 Q2019.96 212.976 2016.56 212.976 M2016.56 209.365 Q2022.12 209.365 2025.29 212.976 Q2028.46 216.587 2028.46 222.976 Q2028.46 229.342 2025.29 232.976 Q2022.12 236.587 2016.56 236.587 Q2010.98 236.587 2007.81 232.976 Q2004.66 229.342 2004.66 222.976 Q2004.66 216.587 2007.81 212.976 Q2010.98 209.365 2016.56 209.365 Z" fill="#000000" fill-rule="evenodd" fill-opacity="1" /><path clip-path="url(#clip400)" d="M2052.58 213.925 L2052.58 199.897 L2056.84 199.897 L2056.84 235.916 L2052.58 235.916 L2052.58 232.027 Q2051.24 234.342 2049.18 235.476 Q2047.14 236.587 2044.27 236.587 Q2039.57 236.587 2036.61 232.837 Q2033.67 229.087 2033.67 222.976 Q2033.67 216.865 2036.61 213.115 Q2039.57 209.365 2044.27 209.365 Q2047.14 209.365 2049.18 210.499 Q2051.24 211.61 2052.58 213.925 M2038.06 222.976 Q2038.06 227.675 2039.99 230.36 Q2041.93 233.022 2045.31 233.022 Q2048.69 233.022 2050.63 230.36 Q2052.58 227.675 2052.58 222.976 Q2052.58 218.277 2050.63 215.615 Q2048.69 212.93 2045.31 212.93 Q2041.93 212.93 2039.99 215.615 Q2038.06 218.277 2038.06 222.976 Z" fill="#000000" fill-rule="evenodd" fill-opacity="1" /><path clip-path="url(#clip400)" d="M2065.17 225.684 L2065.17 209.99 L2069.43 209.99 L2069.43 225.522 Q2069.43 229.203 2070.87 231.055 Q2072.3 232.883 2075.17 232.883 Q2078.62 232.883 2080.61 230.684 Q2082.62 228.485 2082.62 224.689 L2082.62 209.99 L2086.88 209.99 L2086.88 235.916 L2082.62 235.916 L2082.62 231.934 Q2081.07 234.295 2079.01 235.453 Q2076.98 236.587 2074.27 236.587 Q2069.8 236.587 2067.49 233.809 Q2065.17 231.031 2065.17 225.684 M2075.89 209.365 L2075.89 209.365 Z" fill="#000000" fill-rule="evenodd" fill-opacity="1" /><path clip-path="url(#clip400)" d="M2114.31 210.985 L2114.31 214.967 Q2112.51 213.971 2110.68 213.485 Q2108.87 212.976 2107.02 212.976 Q2102.88 212.976 2100.59 215.615 Q2098.3 218.231 2098.3 222.976 Q2098.3 227.721 2100.59 230.36 Q2102.88 232.976 2107.02 232.976 Q2108.87 232.976 2110.68 232.49 Q2112.51 231.981 2114.31 230.985 L2114.31 234.92 Q2112.53 235.754 2110.61 236.17 Q2108.71 236.587 2106.56 236.587 Q2100.7 236.587 2097.25 232.906 Q2093.8 229.226 2093.8 222.976 Q2093.8 216.633 2097.28 212.999 Q2100.77 209.365 2106.84 209.365 Q2108.8 209.365 2110.68 209.782 Q2112.55 210.175 2114.31 210.985 Z" fill="#000000" fill-rule="evenodd" fill-opacity="1" /><path clip-path="url(#clip400)" d="M2143.9 221.888 L2143.9 223.971 L2124.31 223.971 Q2124.59 228.369 2126.95 230.684 Q2129.34 232.976 2133.57 232.976 Q2136.03 232.976 2138.32 232.374 Q2140.63 231.772 2142.9 230.569 L2142.9 234.596 Q2140.61 235.568 2138.2 236.078 Q2135.8 236.587 2133.32 236.587 Q2127.11 236.587 2123.48 232.976 Q2119.87 229.365 2119.87 223.207 Q2119.87 216.842 2123.3 213.115 Q2126.74 209.365 2132.58 209.365 Q2137.81 209.365 2140.84 212.745 Q2143.9 216.101 2143.9 221.888 M2139.64 220.638 Q2139.59 217.143 2137.67 215.059 Q2135.77 212.976 2132.62 212.976 Q2129.06 212.976 2126.91 214.99 Q2124.78 217.004 2124.45 220.661 L2139.64 220.638 Z" fill="#000000" fill-rule="evenodd" fill-opacity="1" /><path clip-path="url(#clip400)" d="M2172.44 220.268 L2172.44 235.916 L2168.18 235.916 L2168.18 220.407 Q2168.18 216.726 2166.74 214.897 Q2165.31 213.069 2162.44 213.069 Q2158.99 213.069 2157 215.268 Q2155.01 217.467 2155.01 221.263 L2155.01 235.916 L2150.73 235.916 L2150.73 209.99 L2155.01 209.99 L2155.01 214.018 Q2156.54 211.68 2158.6 210.522 Q2160.68 209.365 2163.39 209.365 Q2167.86 209.365 2170.15 212.143 Q2172.44 214.897 2172.44 220.268 Z" fill="#000000" fill-rule="evenodd" fill-opacity="1" /><path clip-path="url(#clip400)" d="M2185.15 202.629 L2185.15 209.99 L2193.92 209.99 L2193.92 213.3 L2185.15 213.3 L2185.15 227.374 Q2185.15 230.545 2186 231.448 Q2186.88 232.351 2189.55 232.351 L2193.92 232.351 L2193.92 235.916 L2189.55 235.916 Q2184.61 235.916 2182.74 234.087 Q2180.86 232.235 2180.86 227.374 L2180.86 213.3 L2177.74 213.3 L2177.74 209.99 L2180.86 209.99 L2180.86 202.629 L2185.15 202.629 Z" fill="#000000" fill-rule="evenodd" fill-opacity="1" /><path clip-path="url(#clip400)" d="M2216 231.981 L2223.64 231.981 L2223.64 205.615 L2215.33 207.282 L2215.33 203.022 L2223.6 201.356 L2228.27 201.356 L2228.27 231.981 L2235.91 231.981 L2235.91 235.916 L2216 235.916 L2216 231.981 Z" fill="#000000" fill-rule="evenodd" fill-opacity="1" /><polyline clip-path="url(#clip400)" style="stroke:#ffa500; stroke-linecap:butt; stroke-linejoin:round; stroke-width:4; stroke-opacity:1; fill:none" points="
  1796.91,270.476 1937.13,270.476 
  "/>
<path clip-path="url(#clip400)" d="M1965.17 257.038 L1965.17 270.024 L1971.05 270.024 Q1974.31 270.024 1976.1 268.335 Q1977.88 266.645 1977.88 263.52 Q1977.88 260.418 1976.1 258.728 Q1974.31 257.038 1971.05 257.038 L1965.17 257.038 M1960.5 253.196 L1971.05 253.196 Q1976.86 253.196 1979.82 255.835 Q1982.81 258.45 1982.81 263.52 Q1982.81 268.635 1979.82 271.251 Q1976.86 273.867 1971.05 273.867 L1965.17 273.867 L1965.17 287.756 L1960.5 287.756 L1960.5 253.196 Z" fill="#000000" fill-rule="evenodd" fill-opacity="1" /><path clip-path="url(#clip400)" d="M2003.09 265.811 Q2002.37 265.395 2001.51 265.21 Q2000.68 265.001 1999.66 265.001 Q1996.05 265.001 1994.11 267.362 Q1992.19 269.7 1992.19 274.098 L1992.19 287.756 L1987.9 287.756 L1987.9 261.83 L1992.19 261.83 L1992.19 265.858 Q1993.53 263.497 1995.68 262.362 Q1997.83 261.205 2000.91 261.205 Q2001.35 261.205 2001.88 261.274 Q2002.42 261.321 2003.06 261.436 L2003.09 265.811 Z" fill="#000000" fill-rule="evenodd" fill-opacity="1" /><path clip-path="url(#clip400)" d="M2016.56 264.816 Q2013.13 264.816 2011.14 267.501 Q2009.15 270.163 2009.15 274.816 Q2009.15 279.469 2011.12 282.154 Q2013.11 284.816 2016.56 284.816 Q2019.96 284.816 2021.95 282.131 Q2023.94 279.446 2023.94 274.816 Q2023.94 270.21 2021.95 267.524 Q2019.96 264.816 2016.56 264.816 M2016.56 261.205 Q2022.12 261.205 2025.29 264.816 Q2028.46 268.427 2028.46 274.816 Q2028.46 281.182 2025.29 284.816 Q2022.12 288.427 2016.56 288.427 Q2010.98 288.427 2007.81 284.816 Q2004.66 281.182 2004.66 274.816 Q2004.66 268.427 2007.81 264.816 Q2010.98 261.205 2016.56 261.205 Z" fill="#000000" fill-rule="evenodd" fill-opacity="1" /><path clip-path="url(#clip400)" d="M2052.58 265.765 L2052.58 251.737 L2056.84 251.737 L2056.84 287.756 L2052.58 287.756 L2052.58 283.867 Q2051.24 286.182 2049.18 287.316 Q2047.14 288.427 2044.27 288.427 Q2039.57 288.427 2036.61 284.677 Q2033.67 280.927 2033.67 274.816 Q2033.67 268.705 2036.61 264.955 Q2039.57 261.205 2044.27 261.205 Q2047.14 261.205 2049.18 262.339 Q2051.24 263.45 2052.58 265.765 M2038.06 274.816 Q2038.06 279.515 2039.99 282.2 Q2041.93 284.862 2045.31 284.862 Q2048.69 284.862 2050.63 282.2 Q2052.58 279.515 2052.58 274.816 Q2052.58 270.117 2050.63 267.455 Q2048.69 264.77 2045.31 264.77 Q2041.93 264.77 2039.99 267.455 Q2038.06 270.117 2038.06 274.816 Z" fill="#000000" fill-rule="evenodd" fill-opacity="1" /><path clip-path="url(#clip400)" d="M2065.17 277.524 L2065.17 261.83 L2069.43 261.83 L2069.43 277.362 Q2069.43 281.043 2070.87 282.895 Q2072.3 284.723 2075.17 284.723 Q2078.62 284.723 2080.61 282.524 Q2082.62 280.325 2082.62 276.529 L2082.62 261.83 L2086.88 261.83 L2086.88 287.756 L2082.62 287.756 L2082.62 283.774 Q2081.07 286.135 2079.01 287.293 Q2076.98 288.427 2074.27 288.427 Q2069.8 288.427 2067.49 285.649 Q2065.17 282.871 2065.17 277.524 M2075.89 261.205 L2075.89 261.205 Z" fill="#000000" fill-rule="evenodd" fill-opacity="1" /><path clip-path="url(#clip400)" d="M2114.31 262.825 L2114.31 266.807 Q2112.51 265.811 2110.68 265.325 Q2108.87 264.816 2107.02 264.816 Q2102.88 264.816 2100.59 267.455 Q2098.3 270.071 2098.3 274.816 Q2098.3 279.561 2100.59 282.2 Q2102.88 284.816 2107.02 284.816 Q2108.87 284.816 2110.68 284.33 Q2112.51 283.821 2114.31 282.825 L2114.31 286.76 Q2112.53 287.594 2110.61 288.01 Q2108.71 288.427 2106.56 288.427 Q2100.7 288.427 2097.25 284.746 Q2093.8 281.066 2093.8 274.816 Q2093.8 268.473 2097.28 264.839 Q2100.77 261.205 2106.84 261.205 Q2108.8 261.205 2110.68 261.622 Q2112.55 262.015 2114.31 262.825 Z" fill="#000000" fill-rule="evenodd" fill-opacity="1" /><path clip-path="url(#clip400)" d="M2143.9 273.728 L2143.9 275.811 L2124.31 275.811 Q2124.59 280.209 2126.95 282.524 Q2129.34 284.816 2133.57 284.816 Q2136.03 284.816 2138.32 284.214 Q2140.63 283.612 2142.9 282.409 L2142.9 286.436 Q2140.61 287.408 2138.2 287.918 Q2135.8 288.427 2133.32 288.427 Q2127.11 288.427 2123.48 284.816 Q2119.87 281.205 2119.87 275.047 Q2119.87 268.682 2123.3 264.955 Q2126.74 261.205 2132.58 261.205 Q2137.81 261.205 2140.84 264.585 Q2143.9 267.941 2143.9 273.728 M2139.64 272.478 Q2139.59 268.983 2137.67 266.899 Q2135.77 264.816 2132.62 264.816 Q2129.06 264.816 2126.91 266.83 Q2124.78 268.844 2124.45 272.501 L2139.64 272.478 Z" fill="#000000" fill-rule="evenodd" fill-opacity="1" /><path clip-path="url(#clip400)" d="M2172.44 272.108 L2172.44 287.756 L2168.18 287.756 L2168.18 272.247 Q2168.18 268.566 2166.74 266.737 Q2165.31 264.909 2162.44 264.909 Q2158.99 264.909 2157 267.108 Q2155.01 269.307 2155.01 273.103 L2155.01 287.756 L2150.73 287.756 L2150.73 261.83 L2155.01 261.83 L2155.01 265.858 Q2156.54 263.52 2158.6 262.362 Q2160.68 261.205 2163.39 261.205 Q2167.86 261.205 2170.15 263.983 Q2172.44 266.737 2172.44 272.108 Z" fill="#000000" fill-rule="evenodd" fill-opacity="1" /><path clip-path="url(#clip400)" d="M2185.15 254.469 L2185.15 261.83 L2193.92 261.83 L2193.92 265.14 L2185.15 265.14 L2185.15 279.214 Q2185.15 282.385 2186 283.288 Q2186.88 284.191 2189.55 284.191 L2193.92 284.191 L2193.92 287.756 L2189.55 287.756 Q2184.61 287.756 2182.74 285.927 Q2180.86 284.075 2180.86 279.214 L2180.86 265.14 L2177.74 265.14 L2177.74 261.83 L2180.86 261.83 L2180.86 254.469 L2185.15 254.469 Z" fill="#000000" fill-rule="evenodd" fill-opacity="1" /><path clip-path="url(#clip400)" d="M2219.22 283.821 L2235.54 283.821 L2235.54 287.756 L2213.6 287.756 L2213.6 283.821 Q2216.26 281.066 2220.84 276.436 Q2225.45 271.784 2226.63 270.441 Q2228.87 267.918 2229.75 266.182 Q2230.66 264.423 2230.66 262.733 Q2230.66 259.978 2228.71 258.242 Q2226.79 256.506 2223.69 256.506 Q2221.49 256.506 2219.04 257.27 Q2216.61 258.034 2213.83 259.585 L2213.83 254.862 Q2216.65 253.728 2219.11 253.149 Q2221.56 252.571 2223.6 252.571 Q2228.97 252.571 2232.16 255.256 Q2235.36 257.941 2235.36 262.432 Q2235.36 264.561 2234.54 266.483 Q2233.76 268.381 2231.65 270.973 Q2231.07 271.645 2227.97 274.862 Q2224.87 278.057 2219.22 283.821 Z" fill="#000000" fill-rule="evenodd" fill-opacity="1" /></svg>
