<?xml version="1.0" encoding="utf-8"?>
<svg xmlns="http://www.w3.org/2000/svg" xmlns:xlink="http://www.w3.org/1999/xlink" width="600" height="400" viewBox="0 0 2400 1600">
<defs>
  <clipPath id="clip360">
    <rect x="0" y="0" width="2400" height="1600"/>
  </clipPath>
</defs>
<path clip-path="url(#clip360)" d="
M0 1600 L2400 1600 L2400 0 L0 0  Z
  " fill="#ffffff" fill-rule="evenodd" fill-opacity="1"/>
<defs>
  <clipPath id="clip361">
    <rect x="480" y="0" width="1681" height="1600"/>
  </clipPath>
</defs>
<path clip-path="url(#clip360)" d="
M242.135 1423.18 L2352.76 1423.18 L2352.76 123.472 L242.135 123.472  Z
  " fill="#ffffff" fill-rule="evenodd" fill-opacity="1"/>
<defs>
  <clipPath id="clip362">
    <rect x="242" y="123" width="2112" height="1301"/>
  </clipPath>
</defs>
<polyline clip-path="url(#clip362)" style="stroke:#000000; stroke-linecap:butt; stroke-linejoin:round; stroke-width:2; stroke-opacity:0.1; fill:none" points="
  299.377,1423.18 299.377,123.472 
  "/>
<polyline clip-path="url(#clip362)" style="stroke:#000000; stroke-linecap:butt; stroke-linejoin:round; stroke-width:2; stroke-opacity:0.1; fill:none" points="
  797.788,1423.18 797.788,123.472 
  "/>
<polyline clip-path="url(#clip362)" style="stroke:#000000; stroke-linecap:butt; stroke-linejoin:round; stroke-width:2; stroke-opacity:0.1; fill:none" points="
  1296.2,1423.18 1296.2,123.472 
  "/>
<polyline clip-path="url(#clip362)" style="stroke:#000000; stroke-linecap:butt; stroke-linejoin:round; stroke-width:2; stroke-opacity:0.1; fill:none" points="
  1794.61,1423.18 1794.61,123.472 
  "/>
<polyline clip-path="url(#clip362)" style="stroke:#000000; stroke-linecap:butt; stroke-linejoin:round; stroke-width:2; stroke-opacity:0.1; fill:none" points="
  2293.02,1423.18 2293.02,123.472 
  "/>
<polyline clip-path="url(#clip360)" style="stroke:#000000; stroke-linecap:butt; stroke-linejoin:round; stroke-width:4; stroke-opacity:1; fill:none" points="
  242.135,1423.18 2352.76,1423.18 
  "/>
<polyline clip-path="url(#clip360)" style="stroke:#000000; stroke-linecap:butt; stroke-linejoin:round; stroke-width:4; stroke-opacity:1; fill:none" points="
  299.377,1423.18 299.377,1404.28 
  "/>
<polyline clip-path="url(#clip360)" style="stroke:#000000; stroke-linecap:butt; stroke-linejoin:round; stroke-width:4; stroke-opacity:1; fill:none" points="
  797.788,1423.18 797.788,1404.28 
  "/>
<polyline clip-path="url(#clip360)" style="stroke:#000000; stroke-linecap:butt; stroke-linejoin:round; stroke-width:4; stroke-opacity:1; fill:none" points="
  1296.2,1423.18 1296.2,1404.28 
  "/>
<polyline clip-path="url(#clip360)" style="stroke:#000000; stroke-linecap:butt; stroke-linejoin:round; stroke-width:4; stroke-opacity:1; fill:none" points="
  1794.61,1423.18 1794.61,1404.28 
  "/>
<polyline clip-path="url(#clip360)" style="stroke:#000000; stroke-linecap:butt; stroke-linejoin:round; stroke-width:4; stroke-opacity:1; fill:none" points="
  2293.02,1423.18 2293.02,1404.28 
  "/>
<path clip-path="url(#clip360)" d="M299.377 1454.1 Q295.766 1454.1 293.937 1457.66 Q292.132 1461.2 292.132 1468.33 Q292.132 1475.44 293.937 1479.01 Q295.766 1482.55 299.377 1482.55 Q303.011 1482.55 304.817 1479.01 Q306.646 1475.44 306.646 1468.33 Q306.646 1461.2 304.817 1457.66 Q303.011 1454.1 299.377 1454.1 M299.377 1450.39 Q305.187 1450.39 308.243 1455 Q311.322 1459.58 311.322 1468.33 Q311.322 1477.06 308.243 1481.67 Q305.187 1486.25 299.377 1486.25 Q293.567 1486.25 290.488 1481.67 Q287.433 1477.06 287.433 1468.33 Q287.433 1459.58 290.488 1455 Q293.567 1450.39 299.377 1450.39 Z" fill="#000000" fill-rule="evenodd" fill-opacity="1" /><path clip-path="url(#clip360)" d="M761.481 1481.64 L777.8 1481.64 L777.8 1485.58 L755.856 1485.58 L755.856 1481.64 Q758.518 1478.89 763.101 1474.26 Q767.707 1469.61 768.888 1468.27 Q771.133 1465.74 772.013 1464.01 Q772.916 1462.25 772.916 1460.56 Q772.916 1457.8 770.971 1456.07 Q769.05 1454.33 765.948 1454.33 Q763.749 1454.33 761.295 1455.09 Q758.865 1455.86 756.087 1457.41 L756.087 1452.69 Q758.911 1451.55 761.365 1450.97 Q763.818 1450.39 765.856 1450.39 Q771.226 1450.39 774.42 1453.08 Q777.615 1455.77 777.615 1460.26 Q777.615 1462.39 776.805 1464.31 Q776.017 1466.2 773.911 1468.8 Q773.332 1469.47 770.23 1472.69 Q767.129 1475.88 761.481 1481.64 Z" fill="#000000" fill-rule="evenodd" fill-opacity="1" /><path clip-path="url(#clip360)" d="M797.615 1454.1 Q794.004 1454.1 792.175 1457.66 Q790.369 1461.2 790.369 1468.33 Q790.369 1475.44 792.175 1479.01 Q794.004 1482.55 797.615 1482.55 Q801.249 1482.55 803.054 1479.01 Q804.883 1475.44 804.883 1468.33 Q804.883 1461.2 803.054 1457.66 Q801.249 1454.1 797.615 1454.1 M797.615 1450.39 Q803.425 1450.39 806.48 1455 Q809.559 1459.58 809.559 1468.33 Q809.559 1477.06 806.48 1481.67 Q803.425 1486.25 797.615 1486.25 Q791.804 1486.25 788.726 1481.67 Q785.67 1477.06 785.67 1468.33 Q785.67 1459.58 788.726 1455 Q791.804 1450.39 797.615 1450.39 Z" fill="#000000" fill-rule="evenodd" fill-opacity="1" /><path clip-path="url(#clip360)" d="M827.776 1454.1 Q824.165 1454.1 822.337 1457.66 Q820.531 1461.2 820.531 1468.33 Q820.531 1475.44 822.337 1479.01 Q824.165 1482.55 827.776 1482.55 Q831.411 1482.55 833.216 1479.01 Q835.045 1475.44 835.045 1468.33 Q835.045 1461.2 833.216 1457.66 Q831.411 1454.1 827.776 1454.1 M827.776 1450.39 Q833.587 1450.39 836.642 1455 Q839.721 1459.58 839.721 1468.33 Q839.721 1477.06 836.642 1481.67 Q833.587 1486.25 827.776 1486.25 Q821.966 1486.25 818.888 1481.67 Q815.832 1477.06 815.832 1468.33 Q815.832 1459.58 818.888 1455 Q821.966 1450.39 827.776 1450.39 Z" fill="#000000" fill-rule="evenodd" fill-opacity="1" /><path clip-path="url(#clip360)" d="M1269.29 1455.09 L1257.48 1473.54 L1269.29 1473.54 L1269.29 1455.09 M1268.06 1451.02 L1273.94 1451.02 L1273.94 1473.54 L1278.87 1473.54 L1278.87 1477.43 L1273.94 1477.43 L1273.94 1485.58 L1269.29 1485.58 L1269.29 1477.43 L1253.69 1477.43 L1253.69 1472.92 L1268.06 1451.02 Z" fill="#000000" fill-rule="evenodd" fill-opacity="1" /><path clip-path="url(#clip360)" d="M1296.6 1454.1 Q1292.99 1454.1 1291.16 1457.66 Q1289.36 1461.2 1289.36 1468.33 Q1289.36 1475.44 1291.16 1479.01 Q1292.99 1482.55 1296.6 1482.55 Q1300.24 1482.55 1302.04 1479.01 Q1303.87 1475.44 1303.87 1468.33 Q1303.87 1461.2 1302.04 1457.66 Q1300.24 1454.1 1296.6 1454.1 M1296.6 1450.39 Q1302.41 1450.39 1305.47 1455 Q1308.55 1459.58 1308.55 1468.33 Q1308.55 1477.06 1305.47 1481.67 Q1302.41 1486.25 1296.6 1486.25 Q1290.79 1486.25 1287.72 1481.67 Q1284.66 1477.06 1284.66 1468.33 Q1284.66 1459.58 1287.72 1455 Q1290.79 1450.39 1296.6 1450.39 Z" fill="#000000" fill-rule="evenodd" fill-opacity="1" /><path clip-path="url(#clip360)" d="M1326.77 1454.1 Q1323.16 1454.1 1321.33 1457.66 Q1319.52 1461.2 1319.52 1468.33 Q1319.52 1475.44 1321.33 1479.01 Q1323.16 1482.55 1326.77 1482.55 Q1330.4 1482.55 1332.21 1479.01 Q1334.03 1475.44 1334.03 1468.33 Q1334.03 1461.2 1332.21 1457.66 Q1330.4 1454.1 1326.77 1454.1 M1326.77 1450.39 Q1332.58 1450.39 1335.63 1455 Q1338.71 1459.58 1338.71 1468.33 Q1338.71 1477.06 1335.63 1481.67 Q1332.58 1486.25 1326.77 1486.25 Q1320.96 1486.25 1317.88 1481.67 Q1314.82 1477.06 1314.82 1468.33 Q1314.82 1459.58 1317.88 1455 Q1320.96 1450.39 1326.77 1450.39 Z" fill="#000000" fill-rule="evenodd" fill-opacity="1" /><path clip-path="url(#clip360)" d="M1764.93 1466.44 Q1761.79 1466.44 1759.93 1468.59 Q1758.11 1470.74 1758.11 1474.49 Q1758.11 1478.22 1759.93 1480.39 Q1761.79 1482.55 1764.93 1482.55 Q1768.08 1482.55 1769.91 1480.39 Q1771.76 1478.22 1771.76 1474.49 Q1771.76 1470.74 1769.91 1468.59 Q1768.08 1466.44 1764.93 1466.44 M1774.22 1451.78 L1774.22 1456.04 Q1772.46 1455.21 1770.65 1454.77 Q1768.87 1454.33 1767.11 1454.33 Q1762.48 1454.33 1760.03 1457.45 Q1757.6 1460.58 1757.25 1466.9 Q1758.62 1464.89 1760.68 1463.82 Q1762.74 1462.73 1765.21 1462.73 Q1770.42 1462.73 1773.43 1465.9 Q1776.46 1469.05 1776.46 1474.49 Q1776.46 1479.82 1773.31 1483.03 Q1770.17 1486.25 1764.93 1486.25 Q1758.94 1486.25 1755.77 1481.67 Q1752.6 1477.06 1752.6 1468.33 Q1752.6 1460.14 1756.49 1455.28 Q1760.37 1450.39 1766.93 1450.39 Q1768.68 1450.39 1770.47 1450.74 Q1772.27 1451.09 1774.22 1451.78 Z" fill="#000000" fill-rule="evenodd" fill-opacity="1" /><path clip-path="url(#clip360)" d="M1794.52 1454.1 Q1790.91 1454.1 1789.08 1457.66 Q1787.27 1461.2 1787.27 1468.33 Q1787.27 1475.44 1789.08 1479.01 Q1790.91 1482.55 1794.52 1482.55 Q1798.15 1482.55 1799.96 1479.01 Q1801.79 1475.44 1801.79 1468.33 Q1801.79 1461.2 1799.96 1457.66 Q1798.15 1454.1 1794.52 1454.1 M1794.52 1450.39 Q1800.33 1450.39 1803.38 1455 Q1806.46 1459.58 1806.46 1468.33 Q1806.46 1477.06 1803.38 1481.67 Q1800.33 1486.25 1794.52 1486.25 Q1788.71 1486.25 1785.63 1481.67 Q1782.57 1477.06 1782.57 1468.33 Q1782.57 1459.58 1785.63 1455 Q1788.71 1450.39 1794.52 1450.39 Z" fill="#000000" fill-rule="evenodd" fill-opacity="1" /><path clip-path="url(#clip360)" d="M1824.68 1454.1 Q1821.07 1454.1 1819.24 1457.66 Q1817.43 1461.2 1817.43 1468.33 Q1817.43 1475.44 1819.24 1479.01 Q1821.07 1482.55 1824.68 1482.55 Q1828.31 1482.55 1830.12 1479.01 Q1831.95 1475.44 1831.95 1468.33 Q1831.95 1461.2 1830.12 1457.66 Q1828.31 1454.1 1824.68 1454.1 M1824.68 1450.39 Q1830.49 1450.39 1833.55 1455 Q1836.62 1459.58 1836.62 1468.33 Q1836.62 1477.06 1833.55 1481.67 Q1830.49 1486.25 1824.68 1486.25 Q1818.87 1486.25 1815.79 1481.67 Q1812.74 1477.06 1812.74 1468.33 Q1812.74 1459.58 1815.79 1455 Q1818.87 1450.39 1824.68 1450.39 Z" fill="#000000" fill-rule="evenodd" fill-opacity="1" /><path clip-path="url(#clip360)" d="M2262.81 1469.17 Q2259.48 1469.17 2257.56 1470.95 Q2255.66 1472.73 2255.66 1475.86 Q2255.66 1478.98 2257.56 1480.77 Q2259.48 1482.55 2262.81 1482.55 Q2266.15 1482.55 2268.07 1480.77 Q2269.99 1478.96 2269.99 1475.86 Q2269.99 1472.73 2268.07 1470.95 Q2266.17 1469.17 2262.81 1469.17 M2258.14 1467.18 Q2255.13 1466.44 2253.44 1464.38 Q2251.77 1462.32 2251.77 1459.35 Q2251.77 1455.21 2254.71 1452.8 Q2257.67 1450.39 2262.81 1450.39 Q2267.98 1450.39 2270.91 1452.8 Q2273.85 1455.21 2273.85 1459.35 Q2273.85 1462.32 2272.16 1464.38 Q2270.5 1466.44 2267.51 1467.18 Q2270.89 1467.96 2272.77 1470.26 Q2274.66 1472.55 2274.66 1475.86 Q2274.66 1480.88 2271.59 1483.57 Q2268.53 1486.25 2262.81 1486.25 Q2257.1 1486.25 2254.02 1483.57 Q2250.96 1480.88 2250.96 1475.86 Q2250.96 1472.55 2252.86 1470.26 Q2254.76 1467.96 2258.14 1467.18 M2256.42 1459.79 Q2256.42 1462.48 2258.09 1463.98 Q2259.78 1465.49 2262.81 1465.49 Q2265.82 1465.49 2267.51 1463.98 Q2269.23 1462.48 2269.23 1459.79 Q2269.23 1457.11 2267.51 1455.6 Q2265.82 1454.1 2262.81 1454.1 Q2259.78 1454.1 2258.09 1455.6 Q2256.42 1457.11 2256.42 1459.79 Z" fill="#000000" fill-rule="evenodd" fill-opacity="1" /><path clip-path="url(#clip360)" d="M2292.98 1454.1 Q2289.36 1454.1 2287.54 1457.66 Q2285.73 1461.2 2285.73 1468.33 Q2285.73 1475.44 2287.54 1479.01 Q2289.36 1482.55 2292.98 1482.55 Q2296.61 1482.55 2298.41 1479.01 Q2300.24 1475.44 2300.24 1468.33 Q2300.24 1461.2 2298.41 1457.66 Q2296.61 1454.1 2292.98 1454.1 M2292.98 1450.39 Q2298.79 1450.39 2301.84 1455 Q2304.92 1459.58 2304.92 1468.33 Q2304.92 1477.06 2301.84 1481.67 Q2298.79 1486.25 2292.98 1486.25 Q2287.16 1486.25 2284.09 1481.67 Q2281.03 1477.06 2281.03 1468.33 Q2281.03 1459.58 2284.09 1455 Q2287.16 1450.39 2292.98 1450.39 Z" fill="#000000" fill-rule="evenodd" fill-opacity="1" /><path clip-path="url(#clip360)" d="M2323.14 1454.1 Q2319.53 1454.1 2317.7 1457.66 Q2315.89 1461.2 2315.89 1468.33 Q2315.89 1475.44 2317.7 1479.01 Q2319.53 1482.55 2323.14 1482.55 Q2326.77 1482.55 2328.58 1479.01 Q2330.41 1475.44 2330.41 1468.33 Q2330.41 1461.2 2328.58 1457.66 Q2326.77 1454.1 2323.14 1454.1 M2323.14 1450.39 Q2328.95 1450.39 2332 1455 Q2335.08 1459.58 2335.08 1468.33 Q2335.08 1477.06 2332 1481.67 Q2328.95 1486.25 2323.14 1486.25 Q2317.33 1486.25 2314.25 1481.67 Q2311.19 1477.06 2311.19 1468.33 Q2311.19 1459.58 2314.25 1455 Q2317.33 1450.39 2323.14 1450.39 Z" fill="#000000" fill-rule="evenodd" fill-opacity="1" /><path clip-path="url(#clip360)" d="M1296.51 1522.27 L1296.51 1532.4 L1308.57 1532.4 L1308.57 1536.95 L1296.51 1536.95 L1296.51 1556.3 Q1296.51 1560.66 1297.68 1561.9 Q1298.89 1563.14 1302.55 1563.14 L1308.57 1563.14 L1308.57 1568.04 L1302.55 1568.04 Q1295.77 1568.04 1293.2 1565.53 Q1290.62 1562.98 1290.62 1556.3 L1290.62 1536.95 L1286.32 1536.95 L1286.32 1532.4 L1290.62 1532.4 L1290.62 1522.27 L1296.51 1522.27 Z" fill="#000000" fill-rule="evenodd" fill-opacity="1" /><polyline clip-path="url(#clip362)" style="stroke:#000000; stroke-linecap:butt; stroke-linejoin:round; stroke-width:2; stroke-opacity:0.1; fill:none" points="
  242.135,1308.68 2352.76,1308.68 
  "/>
<polyline clip-path="url(#clip362)" style="stroke:#000000; stroke-linecap:butt; stroke-linejoin:round; stroke-width:2; stroke-opacity:0.1; fill:none" points="
  242.135,1053.04 2352.76,1053.04 
  "/>
<polyline clip-path="url(#clip362)" style="stroke:#000000; stroke-linecap:butt; stroke-linejoin:round; stroke-width:2; stroke-opacity:0.1; fill:none" points="
  242.135,797.405 2352.76,797.405 
  "/>
<polyline clip-path="url(#clip362)" style="stroke:#000000; stroke-linecap:butt; stroke-linejoin:round; stroke-width:2; stroke-opacity:0.1; fill:none" points="
  242.135,541.769 2352.76,541.769 
  "/>
<polyline clip-path="url(#clip362)" style="stroke:#000000; stroke-linecap:butt; stroke-linejoin:round; stroke-width:2; stroke-opacity:0.1; fill:none" points="
  242.135,286.134 2352.76,286.134 
  "/>
<polyline clip-path="url(#clip360)" style="stroke:#000000; stroke-linecap:butt; stroke-linejoin:round; stroke-width:4; stroke-opacity:1; fill:none" points="
  242.135,1423.18 242.135,123.472 
  "/>
<polyline clip-path="url(#clip360)" style="stroke:#000000; stroke-linecap:butt; stroke-linejoin:round; stroke-width:4; stroke-opacity:1; fill:none" points="
  242.135,1308.68 261.032,1308.68 
  "/>
<polyline clip-path="url(#clip360)" style="stroke:#000000; stroke-linecap:butt; stroke-linejoin:round; stroke-width:4; stroke-opacity:1; fill:none" points="
  242.135,1053.04 261.032,1053.04 
  "/>
<polyline clip-path="url(#clip360)" style="stroke:#000000; stroke-linecap:butt; stroke-linejoin:round; stroke-width:4; stroke-opacity:1; fill:none" points="
  242.135,797.405 261.032,797.405 
  "/>
<polyline clip-path="url(#clip360)" style="stroke:#000000; stroke-linecap:butt; stroke-linejoin:round; stroke-width:4; stroke-opacity:1; fill:none" points="
  242.135,541.769 261.032,541.769 
  "/>
<polyline clip-path="url(#clip360)" style="stroke:#000000; stroke-linecap:butt; stroke-linejoin:round; stroke-width:4; stroke-opacity:1; fill:none" points="
  242.135,286.134 261.032,286.134 
  "/>
<path clip-path="url(#clip360)" d="M114.26 1309.13 L143.936 1309.13 L143.936 1313.06 L114.26 1313.06 L114.26 1309.13 Z" fill="#000000" fill-rule="evenodd" fill-opacity="1" /><path clip-path="url(#clip360)" d="M154.839 1322.02 L162.477 1322.02 L162.477 1295.65 L154.167 1297.32 L154.167 1293.06 L162.431 1291.4 L167.107 1291.4 L167.107 1322.02 L174.746 1322.02 L174.746 1325.96 L154.839 1325.96 L154.839 1322.02 Z" fill="#000000" fill-rule="evenodd" fill-opacity="1" /><path clip-path="url(#clip360)" d="M194.19 1294.47 Q190.579 1294.47 188.75 1298.04 Q186.945 1301.58 186.945 1308.71 Q186.945 1315.82 188.75 1319.38 Q190.579 1322.92 194.19 1322.92 Q197.825 1322.92 199.63 1319.38 Q201.459 1315.82 201.459 1308.71 Q201.459 1301.58 199.63 1298.04 Q197.825 1294.47 194.19 1294.47 M194.19 1290.77 Q200 1290.77 203.056 1295.38 Q206.135 1299.96 206.135 1308.71 Q206.135 1317.44 203.056 1322.04 Q200 1326.63 194.19 1326.63 Q188.38 1326.63 185.301 1322.04 Q182.246 1317.44 182.246 1308.71 Q182.246 1299.96 185.301 1295.38 Q188.38 1290.77 194.19 1290.77 Z" fill="#000000" fill-rule="evenodd" fill-opacity="1" /><path clip-path="url(#clip360)" d="M194.19 1038.84 Q190.579 1038.84 188.75 1042.4 Q186.945 1045.95 186.945 1053.07 Q186.945 1060.18 188.75 1063.75 Q190.579 1067.29 194.19 1067.29 Q197.825 1067.29 199.63 1063.75 Q201.459 1060.18 201.459 1053.07 Q201.459 1045.95 199.63 1042.4 Q197.825 1038.84 194.19 1038.84 M194.19 1035.13 Q200 1035.13 203.056 1039.74 Q206.135 1044.32 206.135 1053.07 Q206.135 1061.8 203.056 1066.41 Q200 1070.99 194.19 1070.99 Q188.38 1070.99 185.301 1066.41 Q182.246 1061.8 182.246 1053.07 Q182.246 1044.32 185.301 1039.74 Q188.38 1035.13 194.19 1035.13 Z" fill="#000000" fill-rule="evenodd" fill-opacity="1" /><path clip-path="url(#clip360)" d="M154.839 810.749 L162.477 810.749 L162.477 784.384 L154.167 786.051 L154.167 781.791 L162.431 780.125 L167.107 780.125 L167.107 810.749 L174.746 810.749 L174.746 814.685 L154.839 814.685 L154.839 810.749 Z" fill="#000000" fill-rule="evenodd" fill-opacity="1" /><path clip-path="url(#clip360)" d="M194.19 783.203 Q190.579 783.203 188.75 786.768 Q186.945 790.31 186.945 797.439 Q186.945 804.546 188.75 808.111 Q190.579 811.652 194.19 811.652 Q197.825 811.652 199.63 808.111 Q201.459 804.546 201.459 797.439 Q201.459 790.31 199.63 786.768 Q197.825 783.203 194.19 783.203 M194.19 779.5 Q200 779.5 203.056 784.106 Q206.135 788.689 206.135 797.439 Q206.135 806.166 203.056 810.773 Q200 815.356 194.19 815.356 Q188.38 815.356 185.301 810.773 Q182.246 806.166 182.246 797.439 Q182.246 788.689 185.301 784.106 Q188.38 779.5 194.19 779.5 Z" fill="#000000" fill-rule="evenodd" fill-opacity="1" /><path clip-path="url(#clip360)" d="M158.056 555.114 L174.376 555.114 L174.376 559.049 L152.431 559.049 L152.431 555.114 Q155.093 552.36 159.677 547.73 Q164.283 543.077 165.464 541.735 Q167.709 539.211 168.589 537.475 Q169.491 535.716 169.491 534.026 Q169.491 531.272 167.547 529.536 Q165.626 527.799 162.524 527.799 Q160.325 527.799 157.871 528.563 Q155.44 529.327 152.663 530.878 L152.663 526.156 Q155.487 525.022 157.94 524.443 Q160.394 523.864 162.431 523.864 Q167.802 523.864 170.996 526.549 Q174.19 529.235 174.19 533.725 Q174.19 535.855 173.38 537.776 Q172.593 539.674 170.487 542.267 Q169.908 542.938 166.806 546.156 Q163.704 549.35 158.056 555.114 Z" fill="#000000" fill-rule="evenodd" fill-opacity="1" /><path clip-path="url(#clip360)" d="M194.19 527.568 Q190.579 527.568 188.75 531.133 Q186.945 534.674 186.945 541.804 Q186.945 548.91 188.75 552.475 Q190.579 556.017 194.19 556.017 Q197.825 556.017 199.63 552.475 Q201.459 548.91 201.459 541.804 Q201.459 534.674 199.63 531.133 Q197.825 527.568 194.19 527.568 M194.19 523.864 Q200 523.864 203.056 528.471 Q206.135 533.054 206.135 541.804 Q206.135 550.531 203.056 555.137 Q200 559.721 194.19 559.721 Q188.38 559.721 185.301 555.137 Q182.246 550.531 182.246 541.804 Q182.246 533.054 185.301 528.471 Q188.38 523.864 194.19 523.864 Z" fill="#000000" fill-rule="evenodd" fill-opacity="1" /><path clip-path="url(#clip360)" d="M168.195 284.78 Q171.552 285.497 173.427 287.766 Q175.325 290.034 175.325 293.368 Q175.325 298.483 171.806 301.284 Q168.288 304.085 161.806 304.085 Q159.63 304.085 157.315 303.645 Q155.024 303.229 152.57 302.372 L152.57 297.858 Q154.515 298.993 156.829 299.571 Q159.144 300.15 161.667 300.15 Q166.065 300.15 168.357 298.414 Q170.672 296.678 170.672 293.368 Q170.672 290.312 168.519 288.599 Q166.39 286.863 162.57 286.863 L158.542 286.863 L158.542 283.021 L162.755 283.021 Q166.204 283.021 168.033 281.655 Q169.862 280.266 169.862 277.673 Q169.862 275.011 167.964 273.599 Q166.089 272.164 162.57 272.164 Q160.649 272.164 158.45 272.581 Q156.251 272.997 153.612 273.877 L153.612 269.71 Q156.274 268.97 158.589 268.599 Q160.927 268.229 162.987 268.229 Q168.311 268.229 171.413 270.66 Q174.514 273.067 174.514 277.187 Q174.514 280.058 172.871 282.048 Q171.227 284.016 168.195 284.78 Z" fill="#000000" fill-rule="evenodd" fill-opacity="1" /><path clip-path="url(#clip360)" d="M194.19 271.933 Q190.579 271.933 188.75 275.497 Q186.945 279.039 186.945 286.169 Q186.945 293.275 188.75 296.84 Q190.579 300.382 194.19 300.382 Q197.825 300.382 199.63 296.84 Q201.459 293.275 201.459 286.169 Q201.459 279.039 199.63 275.497 Q197.825 271.933 194.19 271.933 M194.19 268.229 Q200 268.229 203.056 272.835 Q206.135 277.419 206.135 286.169 Q206.135 294.895 203.056 299.502 Q200 304.085 194.19 304.085 Q188.38 304.085 185.301 299.502 Q182.246 294.895 182.246 286.169 Q182.246 277.419 185.301 272.835 Q188.38 268.229 194.19 268.229 Z" fill="#000000" fill-rule="evenodd" fill-opacity="1" /><path clip-path="url(#clip360)" d="M16.4842 1129.93 L16.4842 1121.28 L56.238 1100.21 L16.4842 1100.21 L16.4842 1093.97 L64.0042 1093.97 L64.0042 1102.62 L24.2503 1123.69 L64.0042 1123.69 L64.0042 1129.93 L16.4842 1129.93 Z" fill="#000000" fill-rule="evenodd" fill-opacity="1" /><path clip-path="url(#clip360)" d="M46.0847 1065.23 Q46.0847 1072.32 47.7079 1075.06 Q49.3312 1077.8 53.2461 1077.8 Q56.3653 1077.8 58.2114 1075.76 Q60.0256 1073.69 60.0256 1070.16 Q60.0256 1065.29 56.5881 1062.36 Q53.1188 1059.4 47.3897 1059.4 L46.0847 1059.4 L46.0847 1065.23 M43.6657 1053.54 L64.0042 1053.54 L64.0042 1059.4 L58.5933 1059.4 Q61.8398 1061.41 63.3994 1064.4 Q64.9272 1067.39 64.9272 1071.72 Q64.9272 1077.19 61.8716 1080.44 Q58.7843 1083.65 53.6281 1083.65 Q47.6125 1083.65 44.5569 1079.64 Q41.5014 1075.6 41.5014 1067.61 L41.5014 1059.4 L40.9285 1059.4 Q36.8862 1059.4 34.6901 1062.07 Q32.4621 1064.72 32.4621 1069.52 Q32.4621 1072.58 33.1941 1075.47 Q33.9262 1078.37 35.3903 1081.04 L29.9795 1081.04 Q28.7381 1077.83 28.1334 1074.81 Q27.4968 1071.78 27.4968 1068.92 Q27.4968 1061.18 31.5072 1057.36 Q35.5176 1053.54 43.6657 1053.54 Z" fill="#000000" fill-rule="evenodd" fill-opacity="1" /><path clip-path="url(#clip360)" d="M33.7671 1018.02 L14.479 1018.02 L14.479 1012.17 L64.0042 1012.17 L64.0042 1018.02 L58.657 1018.02 Q61.8398 1019.87 63.3994 1022.7 Q64.9272 1025.5 64.9272 1029.45 Q64.9272 1035.91 59.771 1039.99 Q54.6147 1044.03 46.212 1044.03 Q37.8093 1044.03 32.6531 1039.99 Q27.4968 1035.91 27.4968 1029.45 Q27.4968 1025.5 29.0564 1022.7 Q30.5842 1019.87 33.7671 1018.02 M46.212 1037.98 Q52.6732 1037.98 56.3653 1035.34 Q60.0256 1032.66 60.0256 1028.02 Q60.0256 1023.37 56.3653 1020.7 Q52.6732 1018.02 46.212 1018.02 Q39.7508 1018.02 36.0905 1020.7 Q32.3984 1023.37 32.3984 1028.02 Q32.3984 1032.66 36.0905 1035.34 Q39.7508 1037.98 46.212 1037.98 Z" fill="#000000" fill-rule="evenodd" fill-opacity="1" /><path clip-path="url(#clip360)" d="M28.3562 1003.51 L28.3562 997.653 L56.1743 990.333 L28.3562 983.044 L28.3562 976.137 L56.1743 968.817 L28.3562 961.528 L28.3562 955.672 L64.0042 964.997 L64.0042 971.904 L34.7856 979.575 L64.0042 987.277 L64.0042 994.184 L28.3562 1003.51 Z" fill="#000000" fill-rule="evenodd" fill-opacity="1" /><path clip-path="url(#clip360)" d="M67.3143 931.959 Q73.68 934.442 75.6216 936.797 Q77.5631 939.153 77.5631 943.099 L77.5631 947.778 L72.6615 947.778 L72.6615 944.341 Q72.6615 941.922 71.5157 940.585 Q70.3699 939.248 66.1048 937.625 L63.4312 936.575 L28.3562 950.993 L28.3562 944.786 L56.238 933.646 L28.3562 922.506 L28.3562 916.3 L67.3143 931.959 Z" fill="#000000" fill-rule="evenodd" fill-opacity="1" /><path clip-path="url(#clip360)" d="M14.479 900.322 L14.479 894.465 L21.895 894.465 L21.895 900.322 L14.479 900.322 M27.4968 897.33 L27.4968 897.33 M28.3562 910.762 L28.3562 882.943 L33.7034 882.943 L59.3254 904.969 L59.3254 882.943 L64.0042 882.943 L64.0042 911.557 L58.657 911.557 L33.035 889.532 L33.035 910.762 L28.3562 910.762 Z" fill="#000000" fill-rule="evenodd" fill-opacity="1" /><path clip-path="url(#clip360)" d="M14.479 874.222 L14.479 868.334 L43.7294 868.334 L28.3562 850.86 L28.3562 843.381 L45.0344 862.287 L64.0042 842.585 L64.0042 850.224 L46.5939 868.334 L64.0042 868.334 L64.0042 874.222 L14.479 874.222 Z" fill="#000000" fill-rule="evenodd" fill-opacity="1" /><path clip-path="url(#clip360)" d="M46.0847 821.196 Q46.0847 828.294 47.7079 831.031 Q49.3312 833.768 53.2461 833.768 Q56.3653 833.768 58.2114 831.731 Q60.0256 829.662 60.0256 826.13 Q60.0256 821.26 56.5881 818.332 Q53.1188 815.371 47.3897 815.371 L46.0847 815.371 L46.0847 821.196 M43.6657 809.515 L64.0042 809.515 L64.0042 815.371 L58.5933 815.371 Q61.8398 817.377 63.3994 820.369 Q64.9272 823.36 64.9272 827.689 Q64.9272 833.164 61.8716 836.41 Q58.7843 839.625 53.6281 839.625 Q47.6125 839.625 44.5569 835.614 Q41.5014 831.572 41.5014 823.583 L41.5014 815.371 L40.9285 815.371 Q36.8862 815.371 34.6901 818.045 Q32.4621 820.687 32.4621 825.493 Q32.4621 828.548 33.1941 831.445 Q33.9262 834.341 35.3903 837.015 L29.9795 837.015 Q28.7381 833.8 28.1334 830.776 Q27.4968 827.753 27.4968 824.888 Q27.4968 817.154 31.5072 813.334 Q35.5176 809.515 43.6657 809.515 Z" fill="#000000" fill-rule="evenodd" fill-opacity="1" /><path clip-path="url(#clip360)" d="M58.657 771.066 L77.5631 771.066 L77.5631 776.954 L28.3562 776.954 L28.3562 771.066 L33.7671 771.066 Q30.5842 769.22 29.0564 766.419 Q27.4968 763.586 27.4968 759.672 Q27.4968 753.179 32.6531 749.136 Q37.8093 745.062 46.212 745.062 Q54.6147 745.062 59.771 749.136 Q64.9272 753.179 64.9272 759.672 Q64.9272 763.586 63.3994 766.419 Q61.8398 769.22 58.657 771.066 M46.212 751.141 Q39.7508 751.141 36.0905 753.815 Q32.3984 756.457 32.3984 761.104 Q32.3984 765.751 36.0905 768.424 Q39.7508 771.066 46.212 771.066 Q52.6732 771.066 56.3653 768.424 Q60.0256 765.751 60.0256 761.104 Q60.0256 756.457 56.3653 753.815 Q52.6732 751.141 46.212 751.141 Z" fill="#000000" fill-rule="evenodd" fill-opacity="1" /><path clip-path="url(#clip360)" d="M33.8307 714.698 Q33.2578 715.685 33.0032 716.862 Q32.7167 718.008 32.7167 719.408 Q32.7167 724.374 35.9632 727.047 Q39.1779 729.689 45.2253 729.689 L64.0042 729.689 L64.0042 735.577 L28.3562 735.577 L28.3562 729.689 L33.8944 729.689 Q30.6479 727.843 29.0883 724.883 Q27.4968 721.923 27.4968 717.69 Q27.4968 717.085 27.5923 716.353 Q27.656 715.621 27.8151 714.73 L33.8307 714.698 Z" fill="#000000" fill-rule="evenodd" fill-opacity="1" /><path clip-path="url(#clip360)" d="M32.4621 696.174 Q32.4621 700.884 36.1542 703.621 Q39.8145 706.359 46.212 706.359 Q52.6095 706.359 56.3017 703.653 Q59.9619 700.916 59.9619 696.174 Q59.9619 691.495 56.2698 688.758 Q52.5777 686.02 46.212 686.02 Q39.8781 686.02 36.186 688.758 Q32.4621 691.495 32.4621 696.174 M27.4968 696.174 Q27.4968 688.535 32.4621 684.174 Q37.4273 679.814 46.212 679.814 Q54.9649 679.814 59.9619 684.174 Q64.9272 688.535 64.9272 696.174 Q64.9272 703.844 59.9619 708.205 Q54.9649 712.533 46.212 712.533 Q37.4273 712.533 32.4621 708.205 Q27.4968 703.844 27.4968 696.174 Z" fill="#000000" fill-rule="evenodd" fill-opacity="1" /><path clip-path="url(#clip360)" d="M33.7671 646.648 L14.479 646.648 L14.479 640.792 L64.0042 640.792 L64.0042 646.648 L58.657 646.648 Q61.8398 648.494 63.3994 651.327 Q64.9272 654.128 64.9272 658.075 Q64.9272 664.536 59.771 668.61 Q54.6147 672.652 46.212 672.652 Q37.8093 672.652 32.6531 668.61 Q27.4968 664.536 27.4968 658.075 Q27.4968 654.128 29.0564 651.327 Q30.5842 648.494 33.7671 646.648 M46.212 666.605 Q52.6732 666.605 56.3653 663.963 Q60.0256 661.29 60.0256 656.643 Q60.0256 651.996 56.3653 649.322 Q52.6732 646.648 46.212 646.648 Q39.7508 646.648 36.0905 649.322 Q32.3984 651.996 32.3984 656.643 Q32.3984 661.29 36.0905 663.963 Q39.7508 666.605 46.212 666.605 Z" fill="#000000" fill-rule="evenodd" fill-opacity="1" /><path clip-path="url(#clip360)" d="M49.9359 629.334 L28.3562 629.334 L28.3562 623.477 L49.7131 623.477 Q54.7739 623.477 57.3202 621.504 Q59.8346 619.531 59.8346 615.584 Q59.8346 610.841 56.8109 608.104 Q53.7872 605.335 48.5673 605.335 L28.3562 605.335 L28.3562 599.479 L64.0042 599.479 L64.0042 605.335 L58.5296 605.335 Q61.7762 607.467 63.3676 610.3 Q64.9272 613.101 64.9272 616.825 Q64.9272 622.968 61.1078 626.151 Q57.2883 629.334 49.9359 629.334 M27.4968 614.597 L27.4968 614.597 Z" fill="#000000" fill-rule="evenodd" fill-opacity="1" /><path clip-path="url(#clip360)" d="M29.7248 561.762 L35.1993 561.762 Q33.8307 564.244 33.1623 566.759 Q32.4621 569.241 32.4621 571.788 Q32.4621 577.485 36.0905 580.636 Q39.6872 583.787 46.212 583.787 Q52.7369 583.787 56.3653 580.636 Q59.9619 577.485 59.9619 571.788 Q59.9619 569.241 59.2935 566.759 Q58.5933 564.244 57.2247 561.762 L62.6355 561.762 Q63.7814 564.213 64.3543 566.854 Q64.9272 569.464 64.9272 572.424 Q64.9272 580.477 59.8664 585.219 Q54.8057 589.962 46.212 589.962 Q37.491 589.962 32.4939 585.188 Q27.4968 580.381 27.4968 572.042 Q27.4968 569.337 28.0697 566.759 Q28.6108 564.181 29.7248 561.762 Z" fill="#000000" fill-rule="evenodd" fill-opacity="1" /><path clip-path="url(#clip360)" d="M44.7161 521.085 L47.5806 521.085 L47.5806 548.012 Q53.6281 547.63 56.8109 544.383 Q59.9619 541.105 59.9619 535.28 Q59.9619 531.907 59.1344 528.756 Q58.3069 525.573 56.6518 522.453 L62.1899 522.453 Q63.5267 525.605 64.227 528.915 Q64.9272 532.225 64.9272 535.63 Q64.9272 544.161 59.9619 549.158 Q54.9967 554.123 46.5303 554.123 Q37.7774 554.123 32.6531 549.412 Q27.4968 544.67 27.4968 536.649 Q27.4968 529.456 32.1438 525.286 Q36.7589 521.085 44.7161 521.085 M42.9973 526.941 Q38.1912 527.005 35.3266 529.647 Q32.4621 532.257 32.4621 536.585 Q32.4621 541.487 35.2312 544.447 Q38.0002 547.375 43.0292 547.821 L42.9973 526.941 Z" fill="#000000" fill-rule="evenodd" fill-opacity="1" /><path clip-path="url(#clip360)" d="M42.4881 481.84 L64.0042 481.84 L64.0042 487.697 L42.679 487.697 Q37.6183 487.697 35.1038 489.67 Q32.5894 491.643 32.5894 495.59 Q32.5894 500.333 35.6131 503.07 Q38.6368 505.807 43.8567 505.807 L64.0042 505.807 L64.0042 511.695 L28.3562 511.695 L28.3562 505.807 L33.8944 505.807 Q30.6797 503.706 29.0883 500.874 Q27.4968 498.009 27.4968 494.285 Q27.4968 488.142 31.3163 484.991 Q35.1038 481.84 42.4881 481.84 Z" fill="#000000" fill-rule="evenodd" fill-opacity="1" /><path clip-path="url(#clip360)" d="M18.2347 464.366 L28.3562 464.366 L28.3562 452.303 L32.9077 452.303 L32.9077 464.366 L52.2594 464.366 Q56.6199 464.366 57.8613 463.189 Q59.1026 461.979 59.1026 458.319 L59.1026 452.303 L64.0042 452.303 L64.0042 458.319 Q64.0042 465.098 61.4897 467.677 Q58.9434 470.255 52.2594 470.255 L32.9077 470.255 L32.9077 474.552 L28.3562 474.552 L28.3562 470.255 L18.2347 470.255 L18.2347 464.366 Z" fill="#000000" fill-rule="evenodd" fill-opacity="1" /><path clip-path="url(#clip360)" d="M46.0847 428.4 Q46.0847 435.498 47.7079 438.235 Q49.3312 440.972 53.2461 440.972 Q56.3653 440.972 58.2114 438.935 Q60.0256 436.867 60.0256 433.334 Q60.0256 428.464 56.5881 425.536 Q53.1188 422.576 47.3897 422.576 L46.0847 422.576 L46.0847 428.4 M43.6657 416.719 L64.0042 416.719 L64.0042 422.576 L58.5933 422.576 Q61.8398 424.581 63.3994 427.573 Q64.9272 430.565 64.9272 434.893 Q64.9272 440.368 61.8716 443.614 Q58.7843 446.829 53.6281 446.829 Q47.6125 446.829 44.5569 442.818 Q41.5014 438.776 41.5014 430.787 L41.5014 422.576 L40.9285 422.576 Q36.8862 422.576 34.6901 425.249 Q32.4621 427.891 32.4621 432.697 Q32.4621 435.753 33.1941 438.649 Q33.9262 441.545 35.3903 444.219 L29.9795 444.219 Q28.7381 441.004 28.1334 437.981 Q27.4968 434.957 27.4968 432.092 Q27.4968 424.358 31.5072 420.539 Q35.5176 416.719 43.6657 416.719 Z" fill="#000000" fill-rule="evenodd" fill-opacity="1" /><path clip-path="url(#clip360)" d="M843.582 12.096 L854.6 12.096 L881.417 62.6918 L881.417 12.096 L889.357 12.096 L889.357 72.576 L878.339 72.576 L851.522 21.9802 L851.522 72.576 L843.582 72.576 L843.582 12.096 Z" fill="#000000" fill-rule="evenodd" fill-opacity="1" /><path clip-path="url(#clip360)" d="M925.937 49.7694 Q916.903 49.7694 913.42 51.8354 Q909.936 53.9013 909.936 58.8839 Q909.936 62.8538 912.528 65.2034 Q915.161 67.5124 919.658 67.5124 Q925.856 67.5124 929.583 63.1374 Q933.35 58.7219 933.35 51.4303 L933.35 49.7694 L925.937 49.7694 M940.804 46.6907 L940.804 72.576 L933.35 72.576 L933.35 65.6895 Q930.798 69.8214 926.99 71.8063 Q923.182 73.7508 917.673 73.7508 Q910.705 73.7508 906.574 69.8619 Q902.482 65.9325 902.482 59.3701 Q902.482 51.7138 907.586 47.825 Q912.731 43.9361 922.899 43.9361 L933.35 43.9361 L933.35 43.2069 Q933.35 38.0623 929.947 35.2672 Q926.585 32.4315 920.468 32.4315 Q916.579 32.4315 912.893 33.3632 Q909.207 34.295 905.804 36.1584 L905.804 29.2718 Q909.895 27.692 913.744 26.9223 Q917.592 26.1121 921.238 26.1121 Q931.082 26.1121 935.943 31.2163 Q940.804 36.3204 940.804 46.6907 Z" fill="#000000" fill-rule="evenodd" fill-opacity="1" /><path clip-path="url(#clip360)" d="M986.012 34.0924 L986.012 9.54393 L993.465 9.54393 L993.465 72.576 L986.012 72.576 L986.012 65.7705 Q983.662 69.8214 980.057 71.8063 Q976.492 73.7508 971.469 73.7508 Q963.246 73.7508 958.061 67.1883 Q952.916 60.6258 952.916 49.9314 Q952.916 39.2371 958.061 32.6746 Q963.246 26.1121 971.469 26.1121 Q976.492 26.1121 980.057 28.0971 Q983.662 30.0415 986.012 34.0924 M960.613 49.9314 Q960.613 58.1548 963.975 62.8538 Q967.378 67.5124 973.292 67.5124 Q979.206 67.5124 982.609 62.8538 Q986.012 58.1548 986.012 49.9314 Q986.012 41.7081 982.609 37.0496 Q979.206 32.3505 973.292 32.3505 Q967.378 32.3505 963.975 37.0496 Q960.613 41.7081 960.613 49.9314 Z" fill="#000000" fill-rule="evenodd" fill-opacity="1" /><path clip-path="url(#clip360)" d="M1004.48 27.2059 L1011.94 27.2059 L1021.25 62.6108 L1030.53 27.2059 L1039.32 27.2059 L1048.64 62.6108 L1057.92 27.2059 L1065.37 27.2059 L1053.5 72.576 L1044.71 72.576 L1034.95 35.3887 L1025.14 72.576 L1016.35 72.576 L1004.48 27.2059 Z" fill="#000000" fill-rule="evenodd" fill-opacity="1" /><path clip-path="url(#clip360)" d="M1095.55 76.7889 Q1092.39 84.8907 1089.39 87.3618 Q1086.39 89.8329 1081.37 89.8329 L1075.42 89.8329 L1075.42 83.5945 L1079.79 83.5945 Q1082.87 83.5945 1084.57 82.1361 Q1086.27 80.6778 1088.34 75.2496 L1089.67 71.8468 L1071.32 27.2059 L1079.22 27.2059 L1093.4 62.6918 L1107.58 27.2059 L1115.48 27.2059 L1095.55 76.7889 Z" fill="#000000" fill-rule="evenodd" fill-opacity="1" /><path clip-path="url(#clip360)" d="M1135.81 9.54393 L1143.27 9.54393 L1143.27 18.9825 L1135.81 18.9825 L1135.81 9.54393 M1139.62 26.1121 L1139.62 26.1121 M1122.53 27.2059 L1157.93 27.2059 L1157.93 34.0114 L1129.9 66.6212 L1157.93 66.6212 L1157.93 72.576 L1121.51 72.576 L1121.51 65.7705 L1149.55 33.1607 L1122.53 33.1607 L1122.53 27.2059 Z" fill="#000000" fill-rule="evenodd" fill-opacity="1" /><path clip-path="url(#clip360)" d="M1169.03 9.54393 L1176.53 9.54393 L1176.53 46.7717 L1198.77 27.2059 L1208.28 27.2059 L1184.22 48.4326 L1209.3 72.576 L1199.58 72.576 L1176.53 50.4176 L1176.53 72.576 L1169.03 72.576 L1169.03 9.54393 Z" fill="#000000" fill-rule="evenodd" fill-opacity="1" /><path clip-path="url(#clip360)" d="M1236.52 49.7694 Q1227.49 49.7694 1224 51.8354 Q1220.52 53.9013 1220.52 58.8839 Q1220.52 62.8538 1223.11 65.2034 Q1225.74 67.5124 1230.24 67.5124 Q1236.44 67.5124 1240.17 63.1374 Q1243.93 58.7219 1243.93 51.4303 L1243.93 49.7694 L1236.52 49.7694 M1251.39 46.6907 L1251.39 72.576 L1243.93 72.576 L1243.93 65.6895 Q1241.38 69.8214 1237.57 71.8063 Q1233.77 73.7508 1228.26 73.7508 Q1221.29 73.7508 1217.16 69.8619 Q1213.06 65.9325 1213.06 59.3701 Q1213.06 51.7138 1218.17 47.825 Q1223.31 43.9361 1233.48 43.9361 L1243.93 43.9361 L1243.93 43.2069 Q1243.93 38.0623 1240.53 35.2672 Q1237.17 32.4315 1231.05 32.4315 Q1227.16 32.4315 1223.48 33.3632 Q1219.79 34.295 1216.39 36.1584 L1216.39 29.2718 Q1220.48 27.692 1224.33 26.9223 Q1228.17 26.1121 1231.82 26.1121 Q1241.66 26.1121 1246.53 31.2163 Q1251.39 36.3204 1251.39 46.6907 Z" fill="#000000" fill-rule="evenodd" fill-opacity="1" /><path clip-path="url(#clip360)" d="M1300.32 65.7705 L1300.32 89.8329 L1292.83 89.8329 L1292.83 27.2059 L1300.32 27.2059 L1300.32 34.0924 Q1302.67 30.0415 1306.24 28.0971 Q1309.84 26.1121 1314.82 26.1121 Q1323.09 26.1121 1328.23 32.6746 Q1333.42 39.2371 1333.42 49.9314 Q1333.42 60.6258 1328.23 67.1883 Q1323.09 73.7508 1314.82 73.7508 Q1309.84 73.7508 1306.24 71.8063 Q1302.67 69.8214 1300.32 65.7705 M1325.68 49.9314 Q1325.68 41.7081 1322.28 37.0496 Q1318.92 32.3505 1313 32.3505 Q1307.09 32.3505 1303.68 37.0496 Q1300.32 41.7081 1300.32 49.9314 Q1300.32 58.1548 1303.68 62.8538 Q1307.09 67.5124 1313 67.5124 Q1318.92 67.5124 1322.28 62.8538 Q1325.68 58.1548 1325.68 49.9314 Z" fill="#000000" fill-rule="evenodd" fill-opacity="1" /><path clip-path="url(#clip360)" d="M1372.06 34.1734 Q1370.81 33.4443 1369.31 33.1202 Q1367.85 32.7556 1366.07 32.7556 Q1359.75 32.7556 1356.35 36.8875 Q1352.98 40.9789 1352.98 48.6757 L1352.98 72.576 L1345.49 72.576 L1345.49 27.2059 L1352.98 27.2059 L1352.98 34.2544 Q1355.33 30.1225 1359.1 28.1376 Q1362.87 26.1121 1368.26 26.1121 Q1369.02 26.1121 1369.96 26.2337 Q1370.89 26.3147 1372.02 26.5172 L1372.06 34.1734 Z" fill="#000000" fill-rule="evenodd" fill-opacity="1" /><path clip-path="url(#clip360)" d="M1395.64 32.4315 Q1389.64 32.4315 1386.16 37.1306 Q1382.68 41.7891 1382.68 49.9314 Q1382.68 58.0738 1386.12 62.7728 Q1389.6 67.4314 1395.64 67.4314 Q1401.59 67.4314 1405.08 62.7323 Q1408.56 58.0333 1408.56 49.9314 Q1408.56 41.8701 1405.08 37.1711 Q1401.59 32.4315 1395.64 32.4315 M1395.64 26.1121 Q1405.36 26.1121 1410.91 32.4315 Q1416.46 38.7509 1416.46 49.9314 Q1416.46 61.0714 1410.91 67.4314 Q1405.36 73.7508 1395.64 73.7508 Q1385.88 73.7508 1380.33 67.4314 Q1374.82 61.0714 1374.82 49.9314 Q1374.82 38.7509 1380.33 32.4315 Q1385.88 26.1121 1395.64 26.1121 Z" fill="#000000" fill-rule="evenodd" fill-opacity="1" /><path clip-path="url(#clip360)" d="M1458.67 34.0924 L1458.67 9.54393 L1466.12 9.54393 L1466.12 72.576 L1458.67 72.576 L1458.67 65.7705 Q1456.32 69.8214 1452.72 71.8063 Q1449.15 73.7508 1444.13 73.7508 Q1435.91 73.7508 1430.72 67.1883 Q1425.58 60.6258 1425.58 49.9314 Q1425.58 39.2371 1430.72 32.6746 Q1435.91 26.1121 1444.13 26.1121 Q1449.15 26.1121 1452.72 28.0971 Q1456.32 30.0415 1458.67 34.0924 M1433.27 49.9314 Q1433.27 58.1548 1436.63 62.8538 Q1440.04 67.5124 1445.95 67.5124 Q1451.87 67.5124 1455.27 62.8538 Q1458.67 58.1548 1458.67 49.9314 Q1458.67 41.7081 1455.27 37.0496 Q1451.87 32.3505 1445.95 32.3505 Q1440.04 32.3505 1436.63 37.0496 Q1433.27 41.7081 1433.27 49.9314 Z" fill="#000000" fill-rule="evenodd" fill-opacity="1" /><path clip-path="url(#clip360)" d="M1480.71 54.671 L1480.71 27.2059 L1488.16 27.2059 L1488.16 54.3874 Q1488.16 60.8284 1490.67 64.0691 Q1493.18 67.2693 1498.21 67.2693 Q1504.24 67.2693 1507.73 63.421 Q1511.25 59.5726 1511.25 52.9291 L1511.25 27.2059 L1518.71 27.2059 L1518.71 72.576 L1511.25 72.576 L1511.25 65.6084 Q1508.54 69.7404 1504.93 71.7658 Q1501.37 73.7508 1496.63 73.7508 Q1488.81 73.7508 1484.76 68.8897 Q1480.71 64.0286 1480.71 54.671 M1499.46 26.1121 L1499.46 26.1121 Z" fill="#000000" fill-rule="evenodd" fill-opacity="1" /><path clip-path="url(#clip360)" d="M1566.71 28.9478 L1566.71 35.9153 Q1563.55 34.1734 1560.35 33.3227 Q1557.19 32.4315 1553.95 32.4315 Q1546.7 32.4315 1542.69 37.0496 Q1538.68 41.6271 1538.68 49.9314 Q1538.68 58.2358 1542.69 62.8538 Q1546.7 67.4314 1553.95 67.4314 Q1557.19 67.4314 1560.35 66.5807 Q1563.55 65.6895 1566.71 63.9476 L1566.71 70.8341 Q1563.59 72.2924 1560.23 73.0216 Q1556.91 73.7508 1553.14 73.7508 Q1542.89 73.7508 1536.85 67.3098 Q1530.82 60.8689 1530.82 49.9314 Q1530.82 38.832 1536.89 32.472 Q1543.01 26.1121 1553.62 26.1121 Q1557.07 26.1121 1560.35 26.8413 Q1563.63 27.5299 1566.71 28.9478 Z" fill="#000000" fill-rule="evenodd" fill-opacity="1" /><path clip-path="url(#clip360)" d="M1618.48 48.0275 L1618.48 51.6733 L1584.21 51.6733 Q1584.69 59.3701 1588.83 63.421 Q1593 67.4314 1600.41 67.4314 Q1604.71 67.4314 1608.72 66.3781 Q1612.77 65.3249 1616.74 63.2184 L1616.74 70.267 Q1612.73 71.9684 1608.51 72.8596 Q1604.3 73.7508 1599.97 73.7508 Q1589.11 73.7508 1582.75 67.4314 Q1576.43 61.1119 1576.43 50.3365 Q1576.43 39.1965 1582.43 32.6746 Q1588.46 26.1121 1598.67 26.1121 Q1607.83 26.1121 1613.13 32.0264 Q1618.48 37.9003 1618.48 48.0275 M1611.03 45.84 Q1610.94 39.7232 1607.58 36.0774 Q1604.26 32.4315 1598.75 32.4315 Q1592.51 32.4315 1588.75 35.9558 Q1585.02 39.4801 1584.45 45.8805 L1611.03 45.84 Z" fill="#000000" fill-rule="evenodd" fill-opacity="1" /><path clip-path="url(#clip360)" d="M1668.43 45.1919 L1668.43 72.576 L1660.97 72.576 L1660.97 45.4349 Q1660.97 38.994 1658.46 35.7938 Q1655.95 32.5936 1650.93 32.5936 Q1644.89 32.5936 1641.41 36.4419 Q1637.92 40.2903 1637.92 46.9338 L1637.92 72.576 L1630.43 72.576 L1630.43 27.2059 L1637.92 27.2059 L1637.92 34.2544 Q1640.6 30.163 1644.2 28.1376 Q1647.85 26.1121 1652.59 26.1121 Q1660.41 26.1121 1664.42 30.9732 Q1668.43 35.7938 1668.43 45.1919 Z" fill="#000000" fill-rule="evenodd" fill-opacity="1" /><path clip-path="url(#clip360)" d="M1690.67 14.324 L1690.67 27.2059 L1706.02 27.2059 L1706.02 32.9987 L1690.67 32.9987 L1690.67 57.6282 Q1690.67 63.1779 1692.17 64.7578 Q1693.7 66.3376 1698.36 66.3376 L1706.02 66.3376 L1706.02 72.576 L1698.36 72.576 Q1689.73 72.576 1686.45 69.3758 Q1683.17 66.1351 1683.17 57.6282 L1683.17 32.9987 L1677.7 32.9987 L1677.7 27.2059 L1683.17 27.2059 L1683.17 14.324 L1690.67 14.324 Z" fill="#000000" fill-rule="evenodd" fill-opacity="1" /><path clip-path="url(#clip360)" d="M1736.44 49.7694 Q1727.41 49.7694 1723.92 51.8354 Q1720.44 53.9013 1720.44 58.8839 Q1720.44 62.8538 1723.03 65.2034 Q1725.67 67.5124 1730.16 67.5124 Q1736.36 67.5124 1740.09 63.1374 Q1743.85 58.7219 1743.85 51.4303 L1743.85 49.7694 L1736.44 49.7694 M1751.31 46.6907 L1751.31 72.576 L1743.85 72.576 L1743.85 65.6895 Q1741.3 69.8214 1737.5 71.8063 Q1733.69 73.7508 1728.18 73.7508 Q1721.21 73.7508 1717.08 69.8619 Q1712.99 65.9325 1712.99 59.3701 Q1712.99 51.7138 1718.09 47.825 Q1723.24 43.9361 1733.4 43.9361 L1743.85 43.9361 L1743.85 43.2069 Q1743.85 38.0623 1740.45 35.2672 Q1737.09 32.4315 1730.97 32.4315 Q1727.08 32.4315 1723.4 33.3632 Q1719.71 34.295 1716.31 36.1584 L1716.31 29.2718 Q1720.4 27.692 1724.25 26.9223 Q1728.1 26.1121 1731.74 26.1121 Q1741.59 26.1121 1746.45 31.2163 Q1751.31 36.3204 1751.31 46.6907 Z" fill="#000000" fill-rule="evenodd" fill-opacity="1" /><polyline clip-path="url(#clip362)" style="stroke:#0000ff; stroke-linecap:butt; stroke-linejoin:round; stroke-width:4; stroke-opacity:1; fill:none" points="
  301.869,1095.32 304.361,1048.44 306.853,1002.36 309.345,1092.65 311.837,1027.38 314.33,1118.1 316.822,1021.01 319.314,1013.13 321.806,1049.02 324.298,1086.04 
  326.79,1062.17 329.282,1013.82 331.774,1069.81 334.266,1052.56 336.758,1069.93 339.25,1017.96 341.742,1086.36 344.234,1045.37 346.726,1049.28 349.218,1060.48 
  351.71,1054.06 354.202,999.097 356.694,1033.71 359.186,1043.16 361.679,1053.04 364.171,1063.79 366.663,1036.27 369.155,1053.04 371.647,1067.88 374.139,1033.2 
  376.631,1067.88 379.123,1063.73 381.615,1058.21 384.107,1016.9 386.599,1048.47 389.091,1059.97 391.583,1005.07 394.075,1125.82 396.567,936.613 399.059,1110.12 
  401.551,999.522 404.043,1046.58 406.536,1052.57 409.028,947.38 411.52,954.384 414.012,1015.93 416.504,1106.64 418.996,1024.53 421.488,1119.78 423.98,933.581 
  426.472,873.12 428.964,1132.83 431.456,1047.03 433.948,947.598 436.44,960.822 438.932,1063.07 441.424,963.669 443.916,1088.14 446.408,829.079 448.9,1003.21 
  451.393,963.566 453.885,1167.16 456.377,1065.55 458.869,944.994 461.361,1132 463.853,1085.3 466.345,858.556 468.837,1029.24 471.329,992.925 473.821,856.212 
  476.313,968.239 478.805,982.055 481.297,925.762 483.789,982.247 486.281,1052.05 488.773,1055.79 491.265,953.25 493.757,966.764 496.25,1009.29 498.742,981.233 
  501.234,971.673 503.726,1008.15 506.218,1099.37 508.71,1047.76 511.202,956.271 513.694,1082.01 516.186,911.531 518.678,1077.66 521.17,880.828 523.662,884.426 
  526.154,992.017 528.646,991.423 531.138,974.398 533.63,1001.35 536.122,970.206 538.614,959.858 541.107,973.643 543.599,1030.82 546.091,821.412 548.583,907.28 
  551.075,987.36 553.567,1002.57 556.059,985.371 558.551,832.721 561.043,1051.59 563.535,869.727 566.027,965.57 568.519,806.016 571.011,946.595 573.503,962.029 
  575.995,873.234 578.487,986.477 580.979,955.468 583.471,784.966 585.964,1047.7 588.456,889.039 590.948,882.793 593.44,969.481 595.932,1062.04 598.424,933.961 
  600.916,910.507 603.408,906.069 605.9,894.793 608.392,955.663 610.884,961.977 613.376,971.609 615.868,987.196 618.36,888.018 620.852,922.333 623.344,944.661 
  625.836,970.894 628.328,952.78 630.821,1010.79 633.313,898.746 635.805,1046.18 638.297,943.872 640.789,935.019 643.281,829.955 645.773,1044.74 648.265,917.706 
  650.757,847.1 653.249,977.145 655.741,1000.59 658.233,849.712 660.725,943.111 663.217,1097.87 665.709,973.605 668.201,839.58 670.693,967.135 673.185,1019.29 
  675.678,971.455 678.17,869.351 680.662,850.577 683.154,1048.82 685.646,1021.55 688.138,1031.67 690.63,732.474 693.122,964.021 695.614,743.431 698.106,875.829 
  700.598,969.024 703.09,808.223 705.582,978.684 708.074,875.229 710.566,935.629 713.058,843.181 715.55,952.997 718.042,993.271 720.535,916.896 723.027,905.379 
  725.519,841.025 728.011,999.083 730.503,882.801 732.995,929.492 735.487,969.825 737.979,883.233 740.471,967.076 742.963,879.409 745.455,981.149 747.947,886.009 
  750.439,1033.77 752.931,869.265 755.423,845.596 757.915,632.662 760.407,937.615 762.899,721.516 765.391,799.581 767.884,720.951 770.376,799.335 772.868,807.974 
  775.36,798.073 777.852,777.182 780.344,806.576 782.836,772.119 785.328,930.535 787.82,709.44 790.312,816.344 792.804,442.556 795.296,588.197 797.788,1017.56 
  800.28,264.541 802.772,252.167 805.264,845.537 807.756,615.732 810.248,799.376 812.741,741.572 815.233,572.245 817.725,451.767 820.217,177.507 822.709,737.245 
  825.201,847.277 827.693,775.62 830.185,528.84 832.677,752.987 835.169,635.111 837.661,449.427 840.153,644.706 842.645,372.42 845.137,545.752 847.629,471.251 
  850.121,433.355 852.613,589.101 855.105,873.595 857.598,408.82 860.09,570.371 862.582,503.246 865.074,368.92 867.566,568.207 870.058,604.903 872.55,706.665 
  875.042,615.806 877.534,160.256 880.026,607.951 882.518,493.837 885.01,493.342 887.502,344.203 889.994,271.304 892.486,476.285 894.978,480.389 897.47,428.869 
  899.962,726.551 902.455,758.962 904.947,786.93 907.439,690.365 909.931,418.679 912.423,609.883 914.915,565.838 917.407,741.028 919.899,383.866 922.391,442.841 
  924.883,526.402 927.375,606.158 929.867,649.668 932.359,799.59 934.851,572.567 937.343,718.251 939.835,778.434 942.327,687.648 944.819,786.866 947.312,615.176 
  949.804,904.852 952.296,641.674 954.788,706.169 957.28,681.18 959.772,606.762 962.264,586.074 964.756,574.816 967.248,497.701 969.74,702.812 972.232,616.738 
  974.724,585.49 977.216,663.508 979.708,735.007 982.2,801.515 984.692,741.75 987.184,772.816 989.676,750.952 992.169,646.195 994.661,633.988 997.153,541.304 
  999.645,678.218 1002.14,668.497 1004.63,598.002 1007.12,660.514 1009.61,608.058 1012.1,610.107 1014.6,817.081 1017.09,571.604 1019.58,690.99 1022.07,529.743 
  1024.57,815.548 1027.06,548.057 1029.55,666.634 1032.04,768.329 1034.53,659.329 1037.03,851.541 1039.52,681.114 1042.01,648.872 1044.5,733.064 1046.99,775.296 
  1049.49,626.32 1051.98,728.46 1054.47,770.18 1056.96,845.733 1059.45,627.677 1061.95,769.687 1064.44,835.922 1066.93,765.798 1069.42,712.395 1071.91,819.493 
  1074.41,828.765 1076.9,835.014 1079.39,897.706 1081.88,722.57 1084.37,800.713 1086.87,825.277 1089.36,894.079 1091.85,801.045 1094.34,814.012 1096.83,886.479 
  1099.33,790.025 1101.82,750.849 1104.31,855.13 1106.8,879.168 1109.3,852.023 1111.79,683.547 1114.28,916.663 1116.77,667.865 1119.26,833.305 1121.76,715.281 
  1124.25,675.663 1126.74,714.504 1129.23,564.451 1131.72,1082.17 1134.22,551.955 1136.71,703.328 1139.2,751.745 1141.69,692.846 1144.18,735.297 1146.68,612.781 
  1149.17,636.672 1151.66,566.44 1154.15,823.392 1156.64,827.027 1159.14,377.878 1161.63,900.196 1164.12,799.667 1166.61,437.247 1169.1,750.73 1171.6,808.116 
  1174.09,588.598 1176.58,780.917 1179.07,639.441 1181.56,603.599 1184.06,814.192 1186.55,768.354 1189.04,765.878 1191.53,500.06 1194.02,695.921 1196.52,756.235 
  1199.01,813.659 1201.5,835.738 1203.99,724.741 1206.49,605.054 1208.98,884.265 1211.47,694.898 1213.96,711.94 1216.45,810.399 1218.95,840.244 1221.44,706.149 
  1223.93,843.464 1226.42,719.195 1228.91,658.695 1231.41,752.556 1233.9,634.435 1236.39,838.901 1238.88,725.708 1241.37,799.113 1243.87,737.615 1246.36,896.829 
  1248.85,794.229 1251.34,777.659 1253.83,811.948 1256.33,824.284 1258.82,700.47 1261.31,860.912 1263.8,760.555 1266.29,803.941 1268.79,836.78 1271.28,901.307 
  1273.77,844.024 1276.26,752.161 1278.75,872.708 1281.25,694.787 1283.74,911.217 1286.23,770.275 1288.72,765.479 1291.22,833.992 1293.71,768.471 1296.2,789.135 
  1298.69,836.132 1301.18,717.291 1303.68,786.914 1306.17,727.639 1308.66,732.389 1311.15,802.384 1313.64,712.763 1316.14,686.002 1318.63,626.735 1321.12,731.287 
  1323.61,643.28 1326.1,708.644 1328.6,787.739 1331.09,802.698 1333.58,748.097 1336.07,913.225 1338.56,681.125 1341.06,740.392 1343.55,805.269 1346.04,796.847 
  1348.53,748.201 1351.02,868.294 1353.52,577.094 1356.01,791.442 1358.5,788.291 1360.99,676.839 1363.48,754.599 1365.98,745.001 1368.47,688.629 1370.96,647.159 
  1373.45,658.422 1375.95,658.811 1378.44,642.842 1380.93,730.054 1383.42,705.253 1385.91,675.882 1388.41,722.407 1390.9,733.631 1393.39,727.26 1395.88,669.372 
  1398.37,837.466 1400.87,712.697 1403.36,729.933 1405.85,799.72 1408.34,759.484 1410.83,729.808 1413.33,734.381 1415.82,694.764 1418.31,666.188 1420.8,768.812 
  1423.29,612.043 1425.79,700.583 1428.28,823.083 1430.77,631.666 1433.26,643.78 1435.75,720.53 1438.25,768.467 1440.74,662.757 1443.23,671.819 1445.72,720.883 
  1448.21,746.087 1450.71,704.755 1453.2,766.12 1455.69,726.201 1458.18,757.573 1460.67,843.305 1463.17,758.695 1465.66,765.251 1468.15,696.006 1470.64,797.497 
  1473.14,619.208 1475.63,721.183 1478.12,706.99 1480.61,586.815 1483.1,763.012 1485.6,654.811 1488.09,518.9 1490.58,806.437 1493.07,773.652 1495.56,535.19 
  1498.06,764.706 1500.55,471.004 1503.04,888.761 1505.53,614.129 1508.02,634.433 1510.52,802.394 1513.01,689.432 1515.5,652.533 1517.99,701.26 1520.48,531.063 
  1522.98,809.963 1525.47,501.366 1527.96,561.66 1530.45,757.531 1532.94,613.08 1535.44,816.732 1537.93,769.907 1540.42,753.619 1542.91,702.807 1545.4,793.646 
  1547.9,699.885 1550.39,637.912 1552.88,764.459 1555.37,733.364 1557.87,763.58 1560.36,754.379 1562.85,717.058 1565.34,764.912 1567.83,924.924 1570.33,830.478 
  1572.82,852.983 1575.31,758.671 1577.8,832.087 1580.29,903.006 1582.79,1061.42 1585.28,1068.21 1587.77,1014.75 1590.26,860.506 1592.75,915.688 1595.25,835.166 
  1597.74,807.398 1600.23,846.65 1602.72,978.577 1605.21,922.993 1607.71,751.987 1610.2,765.095 1612.69,772.49 1615.18,859.568 1617.67,728.949 1620.17,841.453 
  1622.66,867.205 1625.15,975.118 1627.64,908.773 1630.13,764.997 1632.63,821.662 1635.12,829.241 1637.61,776.869 1640.1,810.397 1642.59,794.646 1645.09,862.383 
  1647.58,817.352 1650.07,879.028 1652.56,864.517 1655.06,945.759 1657.55,939.926 1660.04,903.264 1662.53,908.195 1665.02,836.252 1667.52,911.414 1670.01,960.786 
  1672.5,926.75 1674.99,870.583 1677.48,1039.18 1679.98,988.464 1682.47,994.932 1684.96,1017.76 1687.45,984.687 1689.94,1041.12 1692.44,1017.32 1694.93,1067.45 
  1697.42,996.952 1699.91,1012.48 1702.4,997.868 1704.9,926.666 1707.39,1033.54 1709.88,1124.75 1712.37,1166.56 1714.86,1124.11 1717.36,1074.06 1719.85,1097.72 
  1722.34,1075.98 1724.83,1004.93 1727.32,976.575 1729.82,977.733 1732.31,1013.11 1734.8,949.361 1737.29,915.294 1739.79,908.044 1742.28,953.562 1744.77,904.94 
  1747.26,981.034 1749.75,980.881 1752.25,996.417 1754.74,1036.18 1757.23,1035.4 1759.72,963.953 1762.21,1045.93 1764.71,980.666 1767.2,1059.65 1769.69,1031.52 
  1772.18,1084.14 1774.67,998.301 1777.17,1066.83 1779.66,1061.63 1782.15,993.926 1784.64,1021.9 1787.13,1012.8 1789.63,1016.22 1792.12,969.148 1794.61,931.395 
  1797.1,1096.65 1799.59,936.184 1802.09,1008.69 1804.58,965.086 1807.07,1036.28 1809.56,994.485 1812.05,1012.71 1814.55,995.197 1817.04,1035.37 1819.53,996.281 
  1822.02,1039.28 1824.51,1018.81 1827.01,1002.63 1829.5,1038.87 1831.99,1036.54 1834.48,981.539 1836.98,1027.09 1839.47,1024.4 1841.96,1000.21 1844.45,1046.17 
  1846.94,1095.09 1849.44,1006.32 1851.93,988.383 1854.42,1088.93 1856.91,973.137 1859.4,1030.55 1861.9,1049.26 1864.39,1028.5 1866.88,1031.24 1869.37,1010.64 
  1871.86,998.757 1874.36,1017.6 1876.85,1027.34 1879.34,1053.12 1881.83,1025.54 1884.32,1007.21 1886.82,1073.9 1889.31,1031.14 1891.8,1039.79 1894.29,1026.44 
  1896.78,1034.41 1899.28,989.872 1901.77,1015.37 1904.26,1032.39 1906.75,987.603 1909.24,988.276 1911.74,964.615 1914.23,1009.81 1916.72,1014.36 1919.21,971.623 
  1921.71,960.613 1924.2,1027.65 1926.69,987.647 1929.18,1013.26 1931.67,942.686 1934.17,1023.03 1936.66,966.838 1939.15,980.27 1941.64,1030.39 1944.13,965.226 
  1946.63,1028.49 1949.12,977.974 1951.61,951.686 1954.1,1050.41 1956.59,947.207 1959.09,1012.03 1961.58,1091.75 1964.07,1017.33 1966.56,957.23 1969.05,1051.16 
  1971.55,987.393 1974.04,1058.21 1976.53,982.546 1979.02,1007.63 1981.51,951.169 1984.01,962.547 1986.5,996.226 1988.99,991.644 1991.48,1017.75 1993.97,990.789 
  1996.47,1034.08 1998.96,1007.44 2001.45,993.515 2003.94,1011.66 2006.43,920.209 2008.93,1035.81 2011.42,955.746 2013.91,977.15 2016.4,994.65 2018.9,1032.69 
  2021.39,1031.38 2023.88,1039.27 2026.37,1017.28 2028.86,1030.59 2031.36,1011.37 2033.85,1066.89 2036.34,1013.7 2038.83,1076.66 2041.32,1005.68 2043.82,1040.52 
  2046.31,1067.38 2048.8,1003.72 2051.29,1011.15 2053.78,1014.84 2056.28,1004.05 2058.77,1011.31 2061.26,1027.28 2063.75,1054.18 2066.24,1061.11 2068.74,1074.12 
  2071.23,1020.7 2073.72,1042.16 2076.21,985.763 2078.7,1028.82 2081.2,976.967 2083.69,1032.5 2086.18,994.813 2088.67,1034.64 2091.16,1046.69 2093.66,1032.4 
  2096.15,1016.96 2098.64,1038.31 2101.13,1034.54 2103.63,990.629 2106.12,1043.39 2108.61,1029.06 2111.1,982.89 2113.59,984.679 2116.09,1014.35 2118.58,975.087 
  2121.07,976.639 2123.56,991.775 2126.05,944.964 2128.55,885.292 2131.04,937.014 2133.53,995.223 2136.02,933.649 2138.51,945.112 2141.01,982.681 2143.5,944.465 
  2145.99,980.513 2148.48,925.935 2150.97,1012.78 2153.47,1037.42 2155.96,1041.07 2158.45,1007.23 2160.94,1030.99 2163.43,1031.38 2165.93,1005.16 2168.42,1006.68 
  2170.91,994.363 2173.4,1000.38 2175.89,981.076 2178.39,1059.79 2180.88,968.778 2183.37,986.725 2185.86,1068.2 2188.36,1024.85 2190.85,1020.65 2193.34,964.465 
  2195.83,993.432 2198.32,992.285 2200.82,1019.67 2203.31,973.638 2205.8,986.934 2208.29,1026.4 2210.78,992.097 2213.28,974.126 2215.77,986.951 2218.26,999.545 
  2220.75,989.722 2223.24,966.061 2225.74,917.75 2228.23,1027.5 2230.72,959.177 2233.21,949.654 2235.7,968.937 2238.2,960.469 2240.69,938.277 2243.18,1026.02 
  2245.67,978.133 2248.16,970.889 2250.66,973.799 2253.15,981.751 2255.64,937.423 2258.13,946.793 2260.62,980.943 2263.12,959.479 2265.61,938.153 2268.1,923.645 
  2270.59,941.037 2273.08,957.38 2275.58,985.225 2278.07,908.937 2280.56,1035.28 2283.05,974.814 2285.55,987.75 2288.04,937.239 2290.53,941.679 2293.02,939.7 
  
  "/>
<polyline clip-path="url(#clip362)" style="stroke:#ffa500; stroke-linecap:butt; stroke-linejoin:round; stroke-width:4; stroke-opacity:1; fill:none" points="
  301.869,1171.72 304.361,1022.87 306.853,1122.54 309.345,1099.3 311.837,1190.21 314.33,1120.33 316.822,1017.51 319.314,1261.97 321.806,1046.2 324.298,989.928 
  326.79,1042.43 329.282,1136.41 331.774,1061.98 334.266,1002.78 336.758,1067.66 339.25,1086.62 341.742,952.554 344.234,1125.56 346.726,913.22 349.218,1091.14 
  351.71,1062.39 354.202,1052.84 356.694,1069.09 359.186,996.07 361.679,1020.62 364.171,1064.78 366.663,996.449 369.155,1011.85 371.647,1063.69 374.139,1081.22 
  376.631,934.072 379.123,1033.52 381.615,930.792 384.107,1083.72 386.599,1010.92 389.091,1008.29 391.583,936.783 394.075,1097.24 396.567,973.51 399.059,936.817 
  401.551,943.679 404.043,953.233 406.536,958.864 409.028,969.705 411.52,916.233 414.012,839.193 416.504,924.267 418.996,779.9 421.488,927.676 423.98,809.295 
  426.472,952.992 428.964,850.799 431.456,941.6 433.948,693.822 436.44,978.42 438.932,940.481 441.424,698.157 443.916,862.097 446.408,776.059 448.9,757.763 
  451.393,851.405 453.885,804.069 456.377,701.003 458.869,838.311 461.361,700.53 463.853,947.548 466.345,844.032 468.837,789.09 471.329,808.851 473.821,707.87 
  476.313,649.32 478.805,861.633 481.297,757.104 483.789,716.796 486.281,683.726 488.773,670.232 491.265,778.011 493.757,619.261 496.25,701.726 498.742,724.995 
  501.234,813.52 503.726,624.054 506.218,724.686 508.71,649.944 511.202,667.329 513.694,472.076 516.186,753.558 518.678,817.694 521.17,594.62 523.662,659.451 
  526.154,724.804 528.646,569.52 531.138,525.586 533.63,860.439 536.122,659.257 538.614,752.523 541.107,704.451 543.599,692.776 546.091,993.549 548.583,887.185 
  551.075,739.342 553.567,858.232 556.059,938.243 558.551,846.57 561.043,995.981 563.535,950.853 566.027,1066.28 568.519,963.846 571.011,693.501 573.503,696.283 
  575.995,593.498 578.487,799.102 580.979,480.579 583.471,835.175 585.964,718.458 588.456,814.826 590.948,608.549 593.44,784.441 595.932,875.498 598.424,955.035 
  600.916,750.811 603.408,785.924 605.9,650.859 608.392,835.861 610.884,650.699 613.376,491.61 615.868,562.295 618.36,855.571 620.852,811.144 623.344,683.301 
  625.836,704.137 628.328,647.999 630.821,801.845 633.313,823.499 635.805,628.376 638.297,726.585 640.789,731.921 643.281,503.102 645.773,812.466 648.265,592.059 
  650.757,498.389 653.249,650.847 655.741,640.889 658.233,661.905 660.725,579.445 663.217,795.609 665.709,770.667 668.201,678.61 670.693,580.153 673.185,777.291 
  675.678,459.396 678.17,487.707 680.662,681.528 683.154,613.88 685.646,561.878 688.138,730.966 690.63,1105.68 693.122,1074.68 695.614,1132.57 698.106,968.894 
  700.598,601.03 703.09,700.633 705.582,592.039 708.074,1028.29 710.566,535.62 713.058,757.398 715.55,584.344 718.042,622.214 720.535,483.497 723.027,672.751 
  725.519,862.459 728.011,502.554 730.503,666.831 732.995,845.679 735.487,714.033 737.979,581.804 740.471,700.86 742.963,915.41 745.455,684.629 747.947,581.915 
  750.439,691.063 752.931,608.543 755.423,883.38 757.915,814.693 760.407,503.415 762.899,779.973 765.391,864.375 767.884,726.808 770.376,751.317 772.868,852.692 
  775.36,818.378 777.852,1124.57 780.344,1045.17 782.836,1037.6 785.328,1032.83 787.82,1386.4 790.312,1214.01 792.804,1127.17 795.296,1101.33 797.788,1070.43 
  800.28,1286.32 802.772,1184.1 805.264,1045.91 807.756,963.713 810.248,948.289 812.741,1026.26 815.233,1108.92 817.725,851.861 820.217,889.31 822.709,843.696 
  825.201,998.397 827.693,751.639 830.185,967.593 832.677,1065.77 835.169,1020.21 837.661,1178.61 840.153,1166.7 842.645,1048.46 845.137,812.173 847.629,948.95 
  850.121,917.437 852.613,1034.09 855.105,953.134 857.598,932.183 860.09,980.961 862.582,915.907 865.074,986.7 867.566,924.852 870.058,893.927 872.55,950.931 
  875.042,1039.65 877.534,1069.64 880.026,1023.41 882.518,1053.04 885.01,1053.04 887.502,1053.04 889.994,1053.04 892.486,1053.04 894.978,1053.04 897.47,1053.04 
  899.962,1053.04 902.455,1053.04 904.947,1053.04 907.439,1053.04 909.931,1053.04 912.423,1053.04 914.915,1053.04 917.407,1053.04 919.899,1053.04 922.391,1053.04 
  924.883,1053.04 927.375,1053.04 929.867,1053.04 932.359,1053.04 934.851,1053.04 937.343,1053.04 939.835,1053.04 942.327,1053.04 944.819,1053.04 947.312,1053.04 
  949.804,1053.04 952.296,1053.04 954.788,1053.04 957.28,1053.04 959.772,1053.04 962.264,1053.04 964.756,1053.04 967.248,1053.04 969.74,1053.04 972.232,1053.04 
  974.724,1053.04 977.216,1053.04 979.708,1053.04 982.2,1053.04 984.692,1053.04 987.184,1053.04 989.676,1053.04 992.169,1053.04 994.661,1053.04 997.153,1053.04 
  999.645,1053.04 1002.14,1053.04 1004.63,1053.04 1007.12,1053.04 1009.61,1053.04 1012.1,1053.04 1014.6,1053.04 1017.09,1053.04 1019.58,1053.04 1022.07,1053.04 
  1024.57,1053.04 1027.06,1053.04 1029.55,1053.04 1032.04,1053.04 1034.53,1053.04 1037.03,1053.04 1039.52,1053.04 1042.01,1053.04 1044.5,1053.04 1046.99,1053.04 
  1049.49,1053.04 1051.98,1053.04 1054.47,1053.04 1056.96,1053.04 1059.45,1053.04 1061.95,1053.04 1064.44,1053.04 1066.93,1053.04 1069.42,1053.04 1071.91,1053.04 
  1074.41,1053.04 1076.9,1053.04 1079.39,1053.04 1081.88,1053.04 1084.37,1053.04 1086.87,1053.04 1089.36,1053.04 1091.85,1053.04 1094.34,1053.04 1096.83,1053.04 
  1099.33,1053.04 1101.82,1053.04 1104.31,1053.04 1106.8,1053.04 1109.3,1053.04 1111.79,1053.04 1114.28,1053.04 1116.77,1053.04 1119.26,1053.04 1121.76,1053.04 
  1124.25,1053.04 1126.74,1053.04 1129.23,1053.04 1131.72,1053.04 1134.22,1053.04 1136.71,1053.04 1139.2,1053.04 1141.69,1053.04 1144.18,1053.04 1146.68,1053.04 
  1149.17,1053.04 1151.66,1053.04 1154.15,1053.04 1156.64,1053.04 1159.14,1053.04 1161.63,1053.04 1164.12,1053.04 1166.61,1053.04 1169.1,1053.04 1171.6,1053.04 
  1174.09,1058.8 1176.58,1053.04 1179.07,1053.04 1181.56,1053.04 1184.06,1053.04 1186.55,1053.04 1189.04,1053.04 1191.53,1053.04 1194.02,1053.04 1196.52,1053.04 
  1199.01,1053.04 1201.5,1053.04 1203.99,1053.04 1206.49,1053.04 1208.98,1053.04 1211.47,1070.84 1213.96,1043.37 1216.45,1050.32 1218.95,1053.04 1221.44,1069.61 
  1223.93,1040.91 1226.42,1053.04 1228.91,1053.04 1231.41,1053.04 1233.9,1053.04 1236.39,1053.04 1238.88,1053.04 1241.37,1053.04 1243.87,1053.04 1246.36,1053.04 
  1248.85,1053.04 1251.34,1053.04 1253.83,1053.04 1256.33,1053.04 1258.82,1053.04 1261.31,1053.04 1263.8,1053.04 1266.29,1053.04 1268.79,1067.99 1271.28,1040.05 
  1273.77,1071.98 1276.26,1071.87 1278.75,1041.16 1281.25,1056.83 1283.74,1056.69 1286.23,1059.71 1288.72,1043.67 1291.22,1052.72 1293.71,1068.56 1296.2,1041.59 
  1298.69,1053.04 1301.18,1053.04 1303.68,1053.04 1306.17,1053.04 1308.66,1053.04 1311.15,1053.04 1313.64,1053.04 1316.14,1053.04 1318.63,1053.04 1321.12,1053.04 
  1323.61,1053.04 1326.1,1053.04 1328.6,1053.04 1331.09,1053.04 1333.58,1053.04 1336.07,1053.04 1338.56,1053.04 1341.06,1053.04 1343.55,1053.04 1346.04,1053.04 
  1348.53,1053.04 1351.02,1053.04 1353.52,1053.04 1356.01,1059.95 1358.5,1060.27 1360.99,1069.66 1363.48,1043.32 1365.98,1053.04 1368.47,1053.04 1370.96,1053.04 
  1373.45,1053.04 1375.95,1053.04 1378.44,1053.04 1380.93,1053.04 1383.42,1053.04 1385.91,1053.04 1388.41,1053.04 1390.9,1053.04 1393.39,1053.04 1395.88,1067.53 
  1398.37,1067.79 1400.87,1049.3 1403.36,1046.61 1405.85,1064.33 1408.34,1048.44 1410.83,1061.03 1413.33,1057.73 1415.82,1043.85 1418.31,1060.38 1420.8,1043.32 
  1423.29,1062.96 1425.79,1056.47 1428.28,1040.32 1430.77,1052.83 1433.26,1086.24 1435.75,1036.61 1438.25,1058.55 1440.74,1048.81 1443.23,1059.21 1445.72,1028.65 
  1448.21,1046.81 1450.71,1062.04 1453.2,1035.18 1455.69,1050.96 1458.18,1052.95 1460.67,1062.43 1463.17,1054.87 1465.66,1041.27 1468.15,1053.04 1470.64,1053.04 
  1473.14,1053.04 1475.63,1053.04 1478.12,1053.04 1480.61,1053.04 1483.1,1053.04 1485.6,1053.04 1488.09,1053.04 1490.58,1053.04 1493.07,1053.04 1495.56,1053.04 
  1498.06,1053.04 1500.55,1053.04 1503.04,1053.04 1505.53,1053.04 1508.02,1053.04 1510.52,1053.04 1513.01,1053.04 1515.5,1053.04 1517.99,1053.04 1520.48,1053.04 
  1522.98,1053.04 1525.47,1053.04 1527.96,1053.04 1530.45,1053.04 1532.94,1053.04 1535.44,1053.04 1537.93,1053.04 1540.42,1053.04 1542.91,1053.04 1545.4,1053.04 
  1547.9,1053.04 1550.39,1053.04 1552.88,1053.04 1555.37,1053.04 1557.87,1053.04 1560.36,1075.52 1562.85,1040.74 1565.34,1050.77 1567.83,1053.04 1570.33,1053.04 
  1572.82,1053.04 1575.31,1053.04 1577.8,1053.04 1580.29,1053.04 1582.79,1053.04 1585.28,1053.04 1587.77,1053.04 1590.26,1053.04 1592.75,1053.04 1595.25,1053.04 
  1597.74,1053.04 1600.23,1053.04 1602.72,1053.04 1605.21,1053.04 1607.71,1053.04 1610.2,1053.04 1612.69,1053.04 1615.18,1053.04 1617.67,1053.04 1620.17,1053.04 
  1622.66,1053.04 1625.15,1053.04 1627.64,1053.04 1630.13,1053.04 1632.63,1053.04 1635.12,1053.04 1637.61,1053.04 1640.1,1053.04 1642.59,1053.04 1645.09,1053.04 
  1647.58,1053.04 1650.07,1053.04 1652.56,1053.04 1655.06,1053.04 1657.55,1053.04 1660.04,1053.04 1662.53,1053.04 1665.02,1053.04 1667.52,1053.04 1670.01,1053.04 
  1672.5,1053.04 1674.99,1053.04 1677.48,1053.04 1679.98,1053.04 1682.47,1053.04 1684.96,1053.04 1687.45,1053.04 1689.94,1053.04 1692.44,1053.04 1694.93,1053.04 
  1697.42,1053.04 1699.91,1053.04 1702.4,1053.04 1704.9,1053.04 1707.39,1060.16 1709.88,1048.86 1712.37,1060.58 1714.86,1054.31 1717.36,1055.91 1719.85,1046.09 
  1722.34,1060.63 1724.83,1063.7 1727.32,1041.77 1729.82,1051.58 1732.31,1053.04 1734.8,1053.04 1737.29,1053.04 1739.79,1053.04 1742.28,1053.04 1744.77,1053.04 
  1747.26,1053.04 1749.75,1053.04 1752.25,1053.04 1754.74,1053.04 1757.23,1053.04 1759.72,1053.04 1762.21,1053.04 1764.71,1065.51 1767.2,1087.63 1769.69,1040.39 
  1772.18,1048.44 1774.67,1054.53 1777.17,1054.27 1779.66,1059.97 1782.15,1049.76 1784.64,1053.23 1787.13,1054.27 1789.63,1054.3 1792.12,1055.55 1794.61,1061.19 
  1797.1,1051.06 1799.59,1054.41 1802.09,1054.99 1804.58,1054.99 1807.07,1055.49 1809.56,1060.78 1812.05,1055.56 1814.55,1049.11 1817.04,1054.33 1819.53,1053.04 
  1822.02,1053.04 1824.51,1053.04 1827.01,1053.04 1829.5,1053.04 1831.99,1053.04 1834.48,1053.04 1836.98,1053.04 1839.47,1053.04 1841.96,1053.04 1844.45,1053.04 
  1846.94,1053.04 1849.44,1053.04 1851.93,1053.04 1854.42,1053.04 1856.91,1053.04 1859.4,1053.04 1861.9,1053.04 1864.39,1053.04 1866.88,1053.04 1869.37,1053.04 
  1871.86,1053.04 1874.36,1053.04 1876.85,1053.04 1879.34,1053.04 1881.83,1053.04 1884.32,1053.04 1886.82,1053.04 1889.31,1053.04 1891.8,1053.04 1894.29,1053.04 
  1896.78,1053.04 1899.28,1053.04 1901.77,1053.04 1904.26,1053.04 1906.75,1053.04 1909.24,1053.04 1911.74,1053.04 1914.23,1053.04 1916.72,1053.04 1919.21,1053.04 
  1921.71,1053.04 1924.2,1053.04 1926.69,1053.04 1929.18,1053.04 1931.67,1053.04 1934.17,1053.04 1936.66,1053.04 1939.15,1053.04 1941.64,1053.04 1944.13,1053.04 
  1946.63,1053.04 1949.12,1053.04 1951.61,1053.04 1954.1,1053.04 1956.59,1053.04 1959.09,1053.04 1961.58,1053.04 1964.07,1053.04 1966.56,1053.04 1969.05,1053.04 
  1971.55,1053.04 1974.04,1053.04 1976.53,1053.04 1979.02,1053.04 1981.51,1053.04 1984.01,1053.04 1986.5,1053.04 1988.99,1053.04 1991.48,1053.04 1993.97,1053.04 
  1996.47,1053.04 1998.96,1053.04 2001.45,1053.04 2003.94,1053.04 2006.43,1053.04 2008.93,1053.04 2011.42,1053.04 2013.91,1053.04 2016.4,1053.04 2018.9,1053.04 
  2021.39,1053.04 2023.88,1053.04 2026.37,1053.04 2028.86,1053.04 2031.36,1053.04 2033.85,1053.04 2036.34,1053.04 2038.83,1063.92 2041.32,1068.75 2043.82,1046.48 
  2046.31,1065.24 2048.8,1049.93 2051.29,1056.07 2053.78,1062.2 2056.28,1046.9 2058.77,1053.04 2061.26,1053.04 2063.75,1053.04 2066.24,1053.04 2068.74,1053.04 
  2071.23,1053.04 2073.72,1053.04 2076.21,1053.04 2078.7,1053.04 2081.2,1053.04 2083.69,1053.04 2086.18,1053.04 2088.67,1053.04 2091.16,1053.04 2093.66,1053.04 
  2096.15,1053.04 2098.64,1053.04 2101.13,1053.04 2103.63,1053.04 2106.12,1053.04 2108.61,1053.04 2111.1,1053.04 2113.59,1053.04 2116.09,1053.04 2118.58,1053.04 
  2121.07,1053.04 2123.56,1053.04 2126.05,1053.04 2128.55,1053.04 2131.04,1053.04 2133.53,1053.04 2136.02,1053.04 2138.51,1053.04 2141.01,1053.04 2143.5,1053.04 
  2145.99,1053.04 2148.48,1053.04 2150.97,1053.04 2153.47,1053.04 2155.96,1053.04 2158.45,1053.04 2160.94,1053.04 2163.43,1053.04 2165.93,1053.04 2168.42,1053.04 
  2170.91,1053.04 2173.4,1053.04 2175.89,1053.04 2178.39,1053.04 2180.88,1053.04 2183.37,1053.04 2185.86,1053.04 2188.36,1053.04 2190.85,1053.04 2193.34,1053.04 
  2195.83,1053.04 2198.32,1053.04 2200.82,1053.04 2203.31,1066.95 2205.8,1086.69 2208.29,1066.23 2210.78,1059.69 2213.28,1058.2 2215.77,1070.95 2218.26,1047.48 
  2220.75,1066.96 2223.24,1060.09 2225.74,1072.92 2228.23,1042.89 2230.72,1051.67 2233.21,1053.04 2235.7,1053.04 2238.2,1053.04 2240.69,1053.04 2243.18,1053.04 
  2245.67,1053.04 2248.16,1053.04 2250.66,1053.04 2253.15,1053.04 2255.64,1053.04 2258.13,1053.04 2260.62,1053.04 2263.12,1053.04 2265.61,1056.3 2268.1,1053.04 
  2270.59,1053.04 2273.08,1053.04 2275.58,1053.04 2278.07,1053.04 2280.56,1053.04 2283.05,1053.04 2285.55,1053.04 2288.04,1053.04 2290.53,1053.04 2293.02,1053.04 
  
  "/>
<path clip-path="url(#clip360)" d="
M1772.47 322.316 L2282.4 322.316 L2282.4 166.796 L1772.47 166.796  Z
  " fill="#ffffff" fill-rule="evenodd" fill-opacity="1"/>
<polyline clip-path="url(#clip360)" style="stroke:#000000; stroke-linecap:butt; stroke-linejoin:round; stroke-width:4; stroke-opacity:1; fill:none" points="
  1772.47,322.316 2282.4,322.316 2282.4,166.796 1772.47,166.796 1772.47,322.316 
  "/>
<polyline clip-path="url(#clip360)" style="stroke:#0000ff; stroke-linecap:butt; stroke-linejoin:round; stroke-width:4; stroke-opacity:1; fill:none" points="
  1795.92,218.636 1936.63,218.636 
  "/>
<path clip-path="url(#clip360)" d="M1964.76 205.198 L1964.76 218.184 L1970.64 218.184 Q1973.9 218.184 1975.69 216.495 Q1977.47 214.805 1977.47 211.68 Q1977.47 208.578 1975.69 206.888 Q1973.9 205.198 1970.64 205.198 L1964.76 205.198 M1960.08 201.356 L1970.64 201.356 Q1976.45 201.356 1979.41 203.995 Q1982.4 206.61 1982.4 211.68 Q1982.4 216.795 1979.41 219.411 Q1976.45 222.027 1970.64 222.027 L1964.76 222.027 L1964.76 235.916 L1960.08 235.916 L1960.08 201.356 Z" fill="#000000" fill-rule="evenodd" fill-opacity="1" /><path clip-path="url(#clip360)" d="M2002.68 213.971 Q2001.96 213.555 2001.1 213.37 Q2000.27 213.161 1999.25 213.161 Q1995.64 213.161 1993.69 215.522 Q1991.77 217.86 1991.77 222.258 L1991.77 235.916 L1987.49 235.916 L1987.49 209.99 L1991.77 209.99 L1991.77 214.018 Q1993.12 211.657 1995.27 210.522 Q1997.42 209.365 2000.5 209.365 Q2000.94 209.365 2001.47 209.434 Q2002.01 209.481 2002.65 209.596 L2002.68 213.971 Z" fill="#000000" fill-rule="evenodd" fill-opacity="1" /><path clip-path="url(#clip360)" d="M2016.15 212.976 Q2012.72 212.976 2010.73 215.661 Q2008.74 218.323 2008.74 222.976 Q2008.74 227.629 2010.71 230.314 Q2012.7 232.976 2016.15 232.976 Q2019.55 232.976 2021.54 230.291 Q2023.53 227.606 2023.53 222.976 Q2023.53 218.37 2021.54 215.684 Q2019.55 212.976 2016.15 212.976 M2016.15 209.365 Q2021.7 209.365 2024.88 212.976 Q2028.05 216.587 2028.05 222.976 Q2028.05 229.342 2024.88 232.976 Q2021.7 236.587 2016.15 236.587 Q2010.57 236.587 2007.4 232.976 Q2004.25 229.342 2004.25 222.976 Q2004.25 216.587 2007.4 212.976 Q2010.57 209.365 2016.15 209.365 Z" fill="#000000" fill-rule="evenodd" fill-opacity="1" /><path clip-path="url(#clip360)" d="M2052.17 213.925 L2052.17 199.897 L2056.43 199.897 L2056.43 235.916 L2052.17 235.916 L2052.17 232.027 Q2050.82 234.342 2048.76 235.476 Q2046.73 236.587 2043.86 236.587 Q2039.16 236.587 2036.19 232.837 Q2033.25 229.087 2033.25 222.976 Q2033.25 216.865 2036.19 213.115 Q2039.16 209.365 2043.86 209.365 Q2046.73 209.365 2048.76 210.499 Q2050.82 211.61 2052.17 213.925 M2037.65 222.976 Q2037.65 227.675 2039.57 230.36 Q2041.52 233.022 2044.9 233.022 Q2048.28 233.022 2050.22 230.36 Q2052.17 227.675 2052.17 222.976 Q2052.17 218.277 2050.22 215.615 Q2048.28 212.93 2044.9 212.93 Q2041.52 212.93 2039.57 215.615 Q2037.65 218.277 2037.65 222.976 Z" fill="#000000" fill-rule="evenodd" fill-opacity="1" /><path clip-path="url(#clip360)" d="M2064.76 225.684 L2064.76 209.99 L2069.02 209.99 L2069.02 225.522 Q2069.02 229.203 2070.45 231.055 Q2071.89 232.883 2074.76 232.883 Q2078.21 232.883 2080.2 230.684 Q2082.21 228.485 2082.21 224.689 L2082.21 209.99 L2086.47 209.99 L2086.47 235.916 L2082.21 235.916 L2082.21 231.934 Q2080.66 234.295 2078.6 235.453 Q2076.56 236.587 2073.86 236.587 Q2069.39 236.587 2067.07 233.809 Q2064.76 231.031 2064.76 225.684 M2075.48 209.365 L2075.48 209.365 Z" fill="#000000" fill-rule="evenodd" fill-opacity="1" /><path clip-path="url(#clip360)" d="M2113.9 210.985 L2113.9 214.967 Q2112.1 213.971 2110.27 213.485 Q2108.46 212.976 2106.61 212.976 Q2102.47 212.976 2100.18 215.615 Q2097.88 218.231 2097.88 222.976 Q2097.88 227.721 2100.18 230.36 Q2102.47 232.976 2106.61 232.976 Q2108.46 232.976 2110.27 232.49 Q2112.1 231.981 2113.9 230.985 L2113.9 234.92 Q2112.12 235.754 2110.2 236.17 Q2108.3 236.587 2106.15 236.587 Q2100.29 236.587 2096.84 232.906 Q2093.39 229.226 2093.39 222.976 Q2093.39 216.633 2096.87 212.999 Q2100.36 209.365 2106.43 209.365 Q2108.39 209.365 2110.27 209.782 Q2112.14 210.175 2113.9 210.985 Z" fill="#000000" fill-rule="evenodd" fill-opacity="1" /><path clip-path="url(#clip360)" d="M2143.49 221.888 L2143.49 223.971 L2123.9 223.971 Q2124.18 228.369 2126.54 230.684 Q2128.93 232.976 2133.16 232.976 Q2135.62 232.976 2137.91 232.374 Q2140.22 231.772 2142.49 230.569 L2142.49 234.596 Q2140.2 235.568 2137.79 236.078 Q2135.38 236.587 2132.91 236.587 Q2126.7 236.587 2123.07 232.976 Q2119.46 229.365 2119.46 223.207 Q2119.46 216.842 2122.88 213.115 Q2126.33 209.365 2132.17 209.365 Q2137.4 209.365 2140.43 212.745 Q2143.49 216.101 2143.49 221.888 M2139.23 220.638 Q2139.18 217.143 2137.26 215.059 Q2135.36 212.976 2132.21 212.976 Q2128.65 212.976 2126.5 214.99 Q2124.37 217.004 2124.04 220.661 L2139.23 220.638 Z" fill="#000000" fill-rule="evenodd" fill-opacity="1" /><path clip-path="url(#clip360)" d="M2172.03 220.268 L2172.03 235.916 L2167.77 235.916 L2167.77 220.407 Q2167.77 216.726 2166.33 214.897 Q2164.9 213.069 2162.03 213.069 Q2158.58 213.069 2156.59 215.268 Q2154.6 217.467 2154.6 221.263 L2154.6 235.916 L2150.31 235.916 L2150.31 209.99 L2154.6 209.99 L2154.6 214.018 Q2156.12 211.68 2158.18 210.522 Q2160.27 209.365 2162.98 209.365 Q2167.44 209.365 2169.74 212.143 Q2172.03 214.897 2172.03 220.268 Z" fill="#000000" fill-rule="evenodd" fill-opacity="1" /><path clip-path="url(#clip360)" d="M2184.74 202.629 L2184.74 209.99 L2193.51 209.99 L2193.51 213.3 L2184.74 213.3 L2184.74 227.374 Q2184.74 230.545 2185.59 231.448 Q2186.47 232.351 2189.13 232.351 L2193.51 232.351 L2193.51 235.916 L2189.13 235.916 Q2184.2 235.916 2182.33 234.087 Q2180.45 232.235 2180.45 227.374 L2180.45 213.3 L2177.33 213.3 L2177.33 209.99 L2180.45 209.99 L2180.45 202.629 L2184.74 202.629 Z" fill="#000000" fill-rule="evenodd" fill-opacity="1" /><path clip-path="url(#clip360)" d="M2215.59 231.981 L2223.23 231.981 L2223.23 205.615 L2214.92 207.282 L2214.92 203.022 L2223.18 201.356 L2227.86 201.356 L2227.86 231.981 L2235.5 231.981 L2235.5 235.916 L2215.59 235.916 L2215.59 231.981 Z" fill="#000000" fill-rule="evenodd" fill-opacity="1" /><polyline clip-path="url(#clip360)" style="stroke:#ffa500; stroke-linecap:butt; stroke-linejoin:round; stroke-width:4; stroke-opacity:1; fill:none" points="
  1795.92,270.476 1936.63,270.476 
  "/>
<path clip-path="url(#clip360)" d="M1964.76 257.038 L1964.76 270.024 L1970.64 270.024 Q1973.9 270.024 1975.69 268.335 Q1977.47 266.645 1977.47 263.52 Q1977.47 260.418 1975.69 258.728 Q1973.9 257.038 1970.64 257.038 L1964.76 257.038 M1960.08 253.196 L1970.64 253.196 Q1976.45 253.196 1979.41 255.835 Q1982.4 258.45 1982.4 263.52 Q1982.4 268.635 1979.41 271.251 Q1976.45 273.867 1970.64 273.867 L1964.76 273.867 L1964.76 287.756 L1960.08 287.756 L1960.08 253.196 Z" fill="#000000" fill-rule="evenodd" fill-opacity="1" /><path clip-path="url(#clip360)" d="M2002.68 265.811 Q2001.96 265.395 2001.1 265.21 Q2000.27 265.001 1999.25 265.001 Q1995.64 265.001 1993.69 267.362 Q1991.77 269.7 1991.77 274.098 L1991.77 287.756 L1987.49 287.756 L1987.49 261.83 L1991.77 261.83 L1991.77 265.858 Q1993.12 263.497 1995.27 262.362 Q1997.42 261.205 2000.5 261.205 Q2000.94 261.205 2001.47 261.274 Q2002.01 261.321 2002.65 261.436 L2002.68 265.811 Z" fill="#000000" fill-rule="evenodd" fill-opacity="1" /><path clip-path="url(#clip360)" d="M2016.15 264.816 Q2012.72 264.816 2010.73 267.501 Q2008.74 270.163 2008.74 274.816 Q2008.74 279.469 2010.71 282.154 Q2012.7 284.816 2016.15 284.816 Q2019.55 284.816 2021.54 282.131 Q2023.53 279.446 2023.53 274.816 Q2023.53 270.21 2021.54 267.524 Q2019.55 264.816 2016.15 264.816 M2016.15 261.205 Q2021.7 261.205 2024.88 264.816 Q2028.05 268.427 2028.05 274.816 Q2028.05 281.182 2024.88 284.816 Q2021.7 288.427 2016.15 288.427 Q2010.57 288.427 2007.4 284.816 Q2004.25 281.182 2004.25 274.816 Q2004.25 268.427 2007.4 264.816 Q2010.57 261.205 2016.15 261.205 Z" fill="#000000" fill-rule="evenodd" fill-opacity="1" /><path clip-path="url(#clip360)" d="M2052.17 265.765 L2052.17 251.737 L2056.43 251.737 L2056.43 287.756 L2052.17 287.756 L2052.17 283.867 Q2050.82 286.182 2048.76 287.316 Q2046.73 288.427 2043.86 288.427 Q2039.16 288.427 2036.19 284.677 Q2033.25 280.927 2033.25 274.816 Q2033.25 268.705 2036.19 264.955 Q2039.16 261.205 2043.86 261.205 Q2046.73 261.205 2048.76 262.339 Q2050.82 263.45 2052.17 265.765 M2037.65 274.816 Q2037.65 279.515 2039.57 282.2 Q2041.52 284.862 2044.9 284.862 Q2048.28 284.862 2050.22 282.2 Q2052.17 279.515 2052.17 274.816 Q2052.17 270.117 2050.22 267.455 Q2048.28 264.77 2044.9 264.77 Q2041.52 264.77 2039.57 267.455 Q2037.65 270.117 2037.65 274.816 Z" fill="#000000" fill-rule="evenodd" fill-opacity="1" /><path clip-path="url(#clip360)" d="M2064.76 277.524 L2064.76 261.83 L2069.02 261.83 L2069.02 277.362 Q2069.02 281.043 2070.45 282.895 Q2071.89 284.723 2074.76 284.723 Q2078.21 284.723 2080.2 282.524 Q2082.21 280.325 2082.21 276.529 L2082.21 261.83 L2086.47 261.83 L2086.47 287.756 L2082.21 287.756 L2082.21 283.774 Q2080.66 286.135 2078.6 287.293 Q2076.56 288.427 2073.86 288.427 Q2069.39 288.427 2067.07 285.649 Q2064.76 282.871 2064.76 277.524 M2075.48 261.205 L2075.48 261.205 Z" fill="#000000" fill-rule="evenodd" fill-opacity="1" /><path clip-path="url(#clip360)" d="M2113.9 262.825 L2113.9 266.807 Q2112.1 265.811 2110.27 265.325 Q2108.46 264.816 2106.61 264.816 Q2102.47 264.816 2100.18 267.455 Q2097.88 270.071 2097.88 274.816 Q2097.88 279.561 2100.18 282.2 Q2102.47 284.816 2106.61 284.816 Q2108.46 284.816 2110.27 284.33 Q2112.1 283.821 2113.9 282.825 L2113.9 286.76 Q2112.12 287.594 2110.2 288.01 Q2108.3 288.427 2106.15 288.427 Q2100.29 288.427 2096.84 284.746 Q2093.39 281.066 2093.39 274.816 Q2093.39 268.473 2096.87 264.839 Q2100.36 261.205 2106.43 261.205 Q2108.39 261.205 2110.27 261.622 Q2112.14 262.015 2113.9 262.825 Z" fill="#000000" fill-rule="evenodd" fill-opacity="1" /><path clip-path="url(#clip360)" d="M2143.49 273.728 L2143.49 275.811 L2123.9 275.811 Q2124.18 280.209 2126.54 282.524 Q2128.93 284.816 2133.16 284.816 Q2135.62 284.816 2137.91 284.214 Q2140.22 283.612 2142.49 282.409 L2142.49 286.436 Q2140.2 287.408 2137.79 287.918 Q2135.38 288.427 2132.91 288.427 Q2126.7 288.427 2123.07 284.816 Q2119.46 281.205 2119.46 275.047 Q2119.46 268.682 2122.88 264.955 Q2126.33 261.205 2132.17 261.205 Q2137.4 261.205 2140.43 264.585 Q2143.49 267.941 2143.49 273.728 M2139.23 272.478 Q2139.18 268.983 2137.26 266.899 Q2135.36 264.816 2132.21 264.816 Q2128.65 264.816 2126.5 266.83 Q2124.37 268.844 2124.04 272.501 L2139.23 272.478 Z" fill="#000000" fill-rule="evenodd" fill-opacity="1" /><path clip-path="url(#clip360)" d="M2172.03 272.108 L2172.03 287.756 L2167.77 287.756 L2167.77 272.247 Q2167.77 268.566 2166.33 266.737 Q2164.9 264.909 2162.03 264.909 Q2158.58 264.909 2156.59 267.108 Q2154.6 269.307 2154.6 273.103 L2154.6 287.756 L2150.31 287.756 L2150.31 261.83 L2154.6 261.83 L2154.6 265.858 Q2156.12 263.52 2158.18 262.362 Q2160.27 261.205 2162.98 261.205 Q2167.44 261.205 2169.74 263.983 Q2172.03 266.737 2172.03 272.108 Z" fill="#000000" fill-rule="evenodd" fill-opacity="1" /><path clip-path="url(#clip360)" d="M2184.74 254.469 L2184.74 261.83 L2193.51 261.83 L2193.51 265.14 L2184.74 265.14 L2184.74 279.214 Q2184.74 282.385 2185.59 283.288 Q2186.47 284.191 2189.13 284.191 L2193.51 284.191 L2193.51 287.756 L2189.13 287.756 Q2184.2 287.756 2182.33 285.927 Q2180.45 284.075 2180.45 279.214 L2180.45 265.14 L2177.33 265.14 L2177.33 261.83 L2180.45 261.83 L2180.45 254.469 L2184.74 254.469 Z" fill="#000000" fill-rule="evenodd" fill-opacity="1" /><path clip-path="url(#clip360)" d="M2218.81 283.821 L2235.13 283.821 L2235.13 287.756 L2213.18 287.756 L2213.18 283.821 Q2215.85 281.066 2220.43 276.436 Q2225.04 271.784 2226.22 270.441 Q2228.46 267.918 2229.34 266.182 Q2230.24 264.423 2230.24 262.733 Q2230.24 259.978 2228.3 258.242 Q2226.38 256.506 2223.28 256.506 Q2221.08 256.506 2218.62 257.27 Q2216.19 258.034 2213.42 259.585 L2213.42 254.862 Q2216.24 253.728 2218.69 253.149 Q2221.15 252.571 2223.18 252.571 Q2228.55 252.571 2231.75 255.256 Q2234.94 257.941 2234.94 262.432 Q2234.94 264.561 2234.13 266.483 Q2233.35 268.381 2231.24 270.973 Q2230.66 271.645 2227.56 274.862 Q2224.46 278.057 2218.81 283.821 Z" fill="#000000" fill-rule="evenodd" fill-opacity="1" /></svg>
