<?xml version="1.0" encoding="utf-8"?>
<svg xmlns="http://www.w3.org/2000/svg" xmlns:xlink="http://www.w3.org/1999/xlink" width="600" height="400" viewBox="0 0 2400 1600">
<defs>
  <clipPath id="clip280">
    <rect x="0" y="0" width="2400" height="1600"/>
  </clipPath>
</defs>
<path clip-path="url(#clip280)" d="
M0 1600 L2400 1600 L2400 0 L0 0  Z
  " fill="#ffffff" fill-rule="evenodd" fill-opacity="1"/>
<defs>
  <clipPath id="clip281">
    <rect x="480" y="0" width="1681" height="1600"/>
  </clipPath>
</defs>
<path clip-path="url(#clip280)" d="
M249.542 1423.18 L2352.76 1423.18 L2352.76 123.472 L249.542 123.472  Z
  " fill="#ffffff" fill-rule="evenodd" fill-opacity="1"/>
<defs>
  <clipPath id="clip282">
    <rect x="249" y="123" width="2104" height="1301"/>
  </clipPath>
</defs>
<polyline clip-path="url(#clip282)" style="stroke:#000000; stroke-linecap:butt; stroke-linejoin:round; stroke-width:2; stroke-opacity:0.1; fill:none" points="
  306.584,1423.18 306.584,123.472 
  "/>
<polyline clip-path="url(#clip282)" style="stroke:#000000; stroke-linecap:butt; stroke-linejoin:round; stroke-width:2; stroke-opacity:0.1; fill:none" points="
  803.245,1423.18 803.245,123.472 
  "/>
<polyline clip-path="url(#clip282)" style="stroke:#000000; stroke-linecap:butt; stroke-linejoin:round; stroke-width:2; stroke-opacity:0.1; fill:none" points="
  1299.91,1423.18 1299.91,123.472 
  "/>
<polyline clip-path="url(#clip282)" style="stroke:#000000; stroke-linecap:butt; stroke-linejoin:round; stroke-width:2; stroke-opacity:0.1; fill:none" points="
  1796.57,1423.18 1796.57,123.472 
  "/>
<polyline clip-path="url(#clip282)" style="stroke:#000000; stroke-linecap:butt; stroke-linejoin:round; stroke-width:2; stroke-opacity:0.1; fill:none" points="
  2293.23,1423.18 2293.23,123.472 
  "/>
<polyline clip-path="url(#clip280)" style="stroke:#000000; stroke-linecap:butt; stroke-linejoin:round; stroke-width:4; stroke-opacity:1; fill:none" points="
  249.542,1423.18 2352.76,1423.18 
  "/>
<polyline clip-path="url(#clip280)" style="stroke:#000000; stroke-linecap:butt; stroke-linejoin:round; stroke-width:4; stroke-opacity:1; fill:none" points="
  306.584,1423.18 306.584,1404.28 
  "/>
<polyline clip-path="url(#clip280)" style="stroke:#000000; stroke-linecap:butt; stroke-linejoin:round; stroke-width:4; stroke-opacity:1; fill:none" points="
  803.245,1423.18 803.245,1404.28 
  "/>
<polyline clip-path="url(#clip280)" style="stroke:#000000; stroke-linecap:butt; stroke-linejoin:round; stroke-width:4; stroke-opacity:1; fill:none" points="
  1299.91,1423.18 1299.91,1404.28 
  "/>
<polyline clip-path="url(#clip280)" style="stroke:#000000; stroke-linecap:butt; stroke-linejoin:round; stroke-width:4; stroke-opacity:1; fill:none" points="
  1796.57,1423.18 1796.57,1404.28 
  "/>
<polyline clip-path="url(#clip280)" style="stroke:#000000; stroke-linecap:butt; stroke-linejoin:round; stroke-width:4; stroke-opacity:1; fill:none" points="
  2293.23,1423.18 2293.23,1404.28 
  "/>
<path clip-path="url(#clip280)" d="M306.584 1454.1 Q302.973 1454.1 301.144 1457.66 Q299.338 1461.2 299.338 1468.33 Q299.338 1475.44 301.144 1479.01 Q302.973 1482.55 306.584 1482.55 Q310.218 1482.55 312.023 1479.01 Q313.852 1475.44 313.852 1468.33 Q313.852 1461.2 312.023 1457.66 Q310.218 1454.1 306.584 1454.1 M306.584 1450.39 Q312.394 1450.39 315.449 1455 Q318.528 1459.58 318.528 1468.33 Q318.528 1477.06 315.449 1481.67 Q312.394 1486.25 306.584 1486.25 Q300.773 1486.25 297.695 1481.67 Q294.639 1477.06 294.639 1468.33 Q294.639 1459.58 297.695 1455 Q300.773 1450.39 306.584 1450.39 Z" fill="#000000" fill-rule="evenodd" fill-opacity="1" /><path clip-path="url(#clip280)" d="M766.938 1481.64 L783.257 1481.64 L783.257 1485.58 L761.313 1485.58 L761.313 1481.64 Q763.975 1478.89 768.558 1474.26 Q773.165 1469.61 774.345 1468.27 Q776.591 1465.74 777.47 1464.01 Q778.373 1462.25 778.373 1460.56 Q778.373 1457.8 776.428 1456.07 Q774.507 1454.33 771.405 1454.33 Q769.206 1454.33 766.753 1455.09 Q764.322 1455.86 761.544 1457.41 L761.544 1452.69 Q764.368 1451.55 766.822 1450.97 Q769.276 1450.39 771.313 1450.39 Q776.683 1450.39 779.878 1453.08 Q783.072 1455.77 783.072 1460.26 Q783.072 1462.39 782.262 1464.31 Q781.475 1466.2 779.368 1468.8 Q778.79 1469.47 775.688 1472.69 Q772.586 1475.88 766.938 1481.64 Z" fill="#000000" fill-rule="evenodd" fill-opacity="1" /><path clip-path="url(#clip280)" d="M803.072 1454.1 Q799.461 1454.1 797.632 1457.66 Q795.827 1461.2 795.827 1468.33 Q795.827 1475.44 797.632 1479.01 Q799.461 1482.55 803.072 1482.55 Q806.706 1482.55 808.512 1479.01 Q810.34 1475.44 810.34 1468.33 Q810.34 1461.2 808.512 1457.66 Q806.706 1454.1 803.072 1454.1 M803.072 1450.39 Q808.882 1450.39 811.938 1455 Q815.016 1459.58 815.016 1468.33 Q815.016 1477.06 811.938 1481.67 Q808.882 1486.25 803.072 1486.25 Q797.262 1486.25 794.183 1481.67 Q791.127 1477.06 791.127 1468.33 Q791.127 1459.58 794.183 1455 Q797.262 1450.39 803.072 1450.39 Z" fill="#000000" fill-rule="evenodd" fill-opacity="1" /><path clip-path="url(#clip280)" d="M833.234 1454.1 Q829.623 1454.1 827.794 1457.66 Q825.988 1461.2 825.988 1468.33 Q825.988 1475.44 827.794 1479.01 Q829.623 1482.55 833.234 1482.55 Q836.868 1482.55 838.674 1479.01 Q840.502 1475.44 840.502 1468.33 Q840.502 1461.2 838.674 1457.66 Q836.868 1454.1 833.234 1454.1 M833.234 1450.39 Q839.044 1450.39 842.099 1455 Q845.178 1459.58 845.178 1468.33 Q845.178 1477.06 842.099 1481.67 Q839.044 1486.25 833.234 1486.25 Q827.424 1486.25 824.345 1481.67 Q821.289 1477.06 821.289 1468.33 Q821.289 1459.58 824.345 1455 Q827.424 1450.39 833.234 1450.39 Z" fill="#000000" fill-rule="evenodd" fill-opacity="1" /><path clip-path="url(#clip280)" d="M1273 1455.09 L1261.19 1473.54 L1273 1473.54 L1273 1455.09 M1271.77 1451.02 L1277.65 1451.02 L1277.65 1473.54 L1282.58 1473.54 L1282.58 1477.43 L1277.65 1477.43 L1277.65 1485.58 L1273 1485.58 L1273 1477.43 L1257.4 1477.43 L1257.4 1472.92 L1271.77 1451.02 Z" fill="#000000" fill-rule="evenodd" fill-opacity="1" /><path clip-path="url(#clip280)" d="M1300.31 1454.1 Q1296.7 1454.1 1294.87 1457.66 Q1293.07 1461.2 1293.07 1468.33 Q1293.07 1475.44 1294.87 1479.01 Q1296.7 1482.55 1300.31 1482.55 Q1303.95 1482.55 1305.75 1479.01 Q1307.58 1475.44 1307.58 1468.33 Q1307.58 1461.2 1305.75 1457.66 Q1303.95 1454.1 1300.31 1454.1 M1300.31 1450.39 Q1306.12 1450.39 1309.18 1455 Q1312.26 1459.58 1312.26 1468.33 Q1312.26 1477.06 1309.18 1481.67 Q1306.12 1486.25 1300.31 1486.25 Q1294.5 1486.25 1291.42 1481.67 Q1288.37 1477.06 1288.37 1468.33 Q1288.37 1459.58 1291.42 1455 Q1294.5 1450.39 1300.31 1450.39 Z" fill="#000000" fill-rule="evenodd" fill-opacity="1" /><path clip-path="url(#clip280)" d="M1330.47 1454.1 Q1326.86 1454.1 1325.03 1457.66 Q1323.23 1461.2 1323.23 1468.33 Q1323.23 1475.44 1325.03 1479.01 Q1326.86 1482.55 1330.47 1482.55 Q1334.11 1482.55 1335.91 1479.01 Q1337.74 1475.44 1337.74 1468.33 Q1337.74 1461.2 1335.91 1457.66 Q1334.11 1454.1 1330.47 1454.1 M1330.47 1450.39 Q1336.28 1450.39 1339.34 1455 Q1342.42 1459.58 1342.42 1468.33 Q1342.42 1477.06 1339.34 1481.67 Q1336.28 1486.25 1330.47 1486.25 Q1324.66 1486.25 1321.59 1481.67 Q1318.53 1477.06 1318.53 1468.33 Q1318.53 1459.58 1321.59 1455 Q1324.66 1450.39 1330.47 1450.39 Z" fill="#000000" fill-rule="evenodd" fill-opacity="1" /><path clip-path="url(#clip280)" d="M1766.89 1466.44 Q1763.75 1466.44 1761.89 1468.59 Q1760.06 1470.74 1760.06 1474.49 Q1760.06 1478.22 1761.89 1480.39 Q1763.75 1482.55 1766.89 1482.55 Q1770.04 1482.55 1771.87 1480.39 Q1773.72 1478.22 1773.72 1474.49 Q1773.72 1470.74 1771.87 1468.59 Q1770.04 1466.44 1766.89 1466.44 M1776.18 1451.78 L1776.18 1456.04 Q1774.42 1455.21 1772.61 1454.77 Q1770.83 1454.33 1769.07 1454.33 Q1764.44 1454.33 1761.99 1457.45 Q1759.56 1460.58 1759.21 1466.9 Q1760.57 1464.89 1762.63 1463.82 Q1764.69 1462.73 1767.17 1462.73 Q1772.38 1462.73 1775.39 1465.9 Q1778.42 1469.05 1778.42 1474.49 Q1778.42 1479.82 1775.27 1483.03 Q1772.12 1486.25 1766.89 1486.25 Q1760.9 1486.25 1757.73 1481.67 Q1754.56 1477.06 1754.56 1468.33 Q1754.56 1460.14 1758.44 1455.28 Q1762.33 1450.39 1768.88 1450.39 Q1770.64 1450.39 1772.43 1450.74 Q1774.23 1451.09 1776.18 1451.78 Z" fill="#000000" fill-rule="evenodd" fill-opacity="1" /><path clip-path="url(#clip280)" d="M1796.48 1454.1 Q1792.87 1454.1 1791.04 1457.66 Q1789.23 1461.2 1789.23 1468.33 Q1789.23 1475.44 1791.04 1479.01 Q1792.87 1482.55 1796.48 1482.55 Q1800.11 1482.55 1801.92 1479.01 Q1803.75 1475.44 1803.75 1468.33 Q1803.75 1461.2 1801.92 1457.66 Q1800.11 1454.1 1796.48 1454.1 M1796.48 1450.39 Q1802.29 1450.39 1805.34 1455 Q1808.42 1459.58 1808.42 1468.33 Q1808.42 1477.06 1805.34 1481.67 Q1802.29 1486.25 1796.48 1486.25 Q1790.67 1486.25 1787.59 1481.67 Q1784.53 1477.06 1784.53 1468.33 Q1784.53 1459.58 1787.59 1455 Q1790.67 1450.39 1796.48 1450.39 Z" fill="#000000" fill-rule="evenodd" fill-opacity="1" /><path clip-path="url(#clip280)" d="M1826.64 1454.1 Q1823.03 1454.1 1821.2 1457.66 Q1819.39 1461.2 1819.39 1468.33 Q1819.39 1475.44 1821.2 1479.01 Q1823.03 1482.55 1826.64 1482.55 Q1830.27 1482.55 1832.08 1479.01 Q1833.91 1475.44 1833.91 1468.33 Q1833.91 1461.2 1832.08 1457.66 Q1830.27 1454.1 1826.64 1454.1 M1826.64 1450.39 Q1832.45 1450.39 1835.5 1455 Q1838.58 1459.58 1838.58 1468.33 Q1838.58 1477.06 1835.5 1481.67 Q1832.45 1486.25 1826.64 1486.25 Q1820.83 1486.25 1817.75 1481.67 Q1814.69 1477.06 1814.69 1468.33 Q1814.69 1459.58 1817.75 1455 Q1820.83 1450.39 1826.64 1450.39 Z" fill="#000000" fill-rule="evenodd" fill-opacity="1" /><path clip-path="url(#clip280)" d="M2263.02 1469.17 Q2259.69 1469.17 2257.77 1470.95 Q2255.87 1472.73 2255.87 1475.86 Q2255.87 1478.98 2257.77 1480.77 Q2259.69 1482.55 2263.02 1482.55 Q2266.36 1482.55 2268.28 1480.77 Q2270.2 1478.96 2270.2 1475.86 Q2270.2 1472.73 2268.28 1470.95 Q2266.38 1469.17 2263.02 1469.17 M2258.35 1467.18 Q2255.34 1466.44 2253.65 1464.38 Q2251.98 1462.32 2251.98 1459.35 Q2251.98 1455.21 2254.92 1452.8 Q2257.88 1450.39 2263.02 1450.39 Q2268.18 1450.39 2271.12 1452.8 Q2274.06 1455.21 2274.06 1459.35 Q2274.06 1462.32 2272.37 1464.38 Q2270.71 1466.44 2267.72 1467.18 Q2271.1 1467.96 2272.98 1470.26 Q2274.87 1472.55 2274.87 1475.86 Q2274.87 1480.88 2271.8 1483.57 Q2268.74 1486.25 2263.02 1486.25 Q2257.31 1486.25 2254.23 1483.57 Q2251.17 1480.88 2251.17 1475.86 Q2251.17 1472.55 2253.07 1470.26 Q2254.97 1467.96 2258.35 1467.18 M2256.63 1459.79 Q2256.63 1462.48 2258.3 1463.98 Q2259.99 1465.49 2263.02 1465.49 Q2266.03 1465.49 2267.72 1463.98 Q2269.43 1462.48 2269.43 1459.79 Q2269.43 1457.11 2267.72 1455.6 Q2266.03 1454.1 2263.02 1454.1 Q2259.99 1454.1 2258.3 1455.6 Q2256.63 1457.11 2256.63 1459.79 Z" fill="#000000" fill-rule="evenodd" fill-opacity="1" /><path clip-path="url(#clip280)" d="M2293.18 1454.1 Q2289.57 1454.1 2287.74 1457.66 Q2285.94 1461.2 2285.94 1468.33 Q2285.94 1475.44 2287.74 1479.01 Q2289.57 1482.55 2293.18 1482.55 Q2296.82 1482.55 2298.62 1479.01 Q2300.45 1475.44 2300.45 1468.33 Q2300.45 1461.2 2298.62 1457.66 Q2296.82 1454.1 2293.18 1454.1 M2293.18 1450.39 Q2298.99 1450.39 2302.05 1455 Q2305.13 1459.58 2305.13 1468.33 Q2305.13 1477.06 2302.05 1481.67 Q2298.99 1486.25 2293.18 1486.25 Q2287.37 1486.25 2284.3 1481.67 Q2281.24 1477.06 2281.24 1468.33 Q2281.24 1459.58 2284.3 1455 Q2287.37 1450.39 2293.18 1450.39 Z" fill="#000000" fill-rule="evenodd" fill-opacity="1" /><path clip-path="url(#clip280)" d="M2323.35 1454.1 Q2319.74 1454.1 2317.91 1457.66 Q2316.1 1461.2 2316.1 1468.33 Q2316.1 1475.44 2317.91 1479.01 Q2319.74 1482.55 2323.35 1482.55 Q2326.98 1482.55 2328.79 1479.01 Q2330.62 1475.44 2330.62 1468.33 Q2330.62 1461.2 2328.79 1457.66 Q2326.98 1454.1 2323.35 1454.1 M2323.35 1450.39 Q2329.16 1450.39 2332.21 1455 Q2335.29 1459.58 2335.29 1468.33 Q2335.29 1477.06 2332.21 1481.67 Q2329.16 1486.25 2323.35 1486.25 Q2317.54 1486.25 2314.46 1481.67 Q2311.4 1477.06 2311.4 1468.33 Q2311.4 1459.58 2314.46 1455 Q2317.54 1450.39 2323.35 1450.39 Z" fill="#000000" fill-rule="evenodd" fill-opacity="1" /><path clip-path="url(#clip280)" d="M1300.21 1522.27 L1300.21 1532.4 L1312.27 1532.4 L1312.27 1536.95 L1300.21 1536.95 L1300.21 1556.3 Q1300.21 1560.66 1301.39 1561.9 Q1302.6 1563.14 1306.26 1563.14 L1312.27 1563.14 L1312.27 1568.04 L1306.26 1568.04 Q1299.48 1568.04 1296.9 1565.53 Q1294.32 1562.98 1294.32 1556.3 L1294.32 1536.95 L1290.02 1536.95 L1290.02 1532.4 L1294.32 1532.4 L1294.32 1522.27 L1300.21 1522.27 Z" fill="#000000" fill-rule="evenodd" fill-opacity="1" /><polyline clip-path="url(#clip282)" style="stroke:#000000; stroke-linecap:butt; stroke-linejoin:round; stroke-width:2; stroke-opacity:0.1; fill:none" points="
  249.542,1181.96 2352.76,1181.96 
  "/>
<polyline clip-path="url(#clip282)" style="stroke:#000000; stroke-linecap:butt; stroke-linejoin:round; stroke-width:2; stroke-opacity:0.1; fill:none" points="
  249.542,926.122 2352.76,926.122 
  "/>
<polyline clip-path="url(#clip282)" style="stroke:#000000; stroke-linecap:butt; stroke-linejoin:round; stroke-width:2; stroke-opacity:0.1; fill:none" points="
  249.542,670.283 2352.76,670.283 
  "/>
<polyline clip-path="url(#clip282)" style="stroke:#000000; stroke-linecap:butt; stroke-linejoin:round; stroke-width:2; stroke-opacity:0.1; fill:none" points="
  249.542,414.445 2352.76,414.445 
  "/>
<polyline clip-path="url(#clip282)" style="stroke:#000000; stroke-linecap:butt; stroke-linejoin:round; stroke-width:2; stroke-opacity:0.1; fill:none" points="
  249.542,158.606 2352.76,158.606 
  "/>
<polyline clip-path="url(#clip280)" style="stroke:#000000; stroke-linecap:butt; stroke-linejoin:round; stroke-width:4; stroke-opacity:1; fill:none" points="
  249.542,1423.18 249.542,123.472 
  "/>
<polyline clip-path="url(#clip280)" style="stroke:#000000; stroke-linecap:butt; stroke-linejoin:round; stroke-width:4; stroke-opacity:1; fill:none" points="
  249.542,1181.96 268.44,1181.96 
  "/>
<polyline clip-path="url(#clip280)" style="stroke:#000000; stroke-linecap:butt; stroke-linejoin:round; stroke-width:4; stroke-opacity:1; fill:none" points="
  249.542,926.122 268.44,926.122 
  "/>
<polyline clip-path="url(#clip280)" style="stroke:#000000; stroke-linecap:butt; stroke-linejoin:round; stroke-width:4; stroke-opacity:1; fill:none" points="
  249.542,670.283 268.44,670.283 
  "/>
<polyline clip-path="url(#clip280)" style="stroke:#000000; stroke-linecap:butt; stroke-linejoin:round; stroke-width:4; stroke-opacity:1; fill:none" points="
  249.542,414.445 268.44,414.445 
  "/>
<polyline clip-path="url(#clip280)" style="stroke:#000000; stroke-linecap:butt; stroke-linejoin:round; stroke-width:4; stroke-opacity:1; fill:none" points="
  249.542,158.606 268.44,158.606 
  "/>
<path clip-path="url(#clip280)" d="M126.205 1167.76 Q122.593 1167.76 120.765 1171.32 Q118.959 1174.87 118.959 1182 Q118.959 1189.1 120.765 1192.67 Q122.593 1196.21 126.205 1196.21 Q129.839 1196.21 131.644 1192.67 Q133.473 1189.1 133.473 1182 Q133.473 1174.87 131.644 1171.32 Q129.839 1167.76 126.205 1167.76 M126.205 1164.06 Q132.015 1164.06 135.07 1168.66 Q138.149 1173.25 138.149 1182 Q138.149 1190.72 135.07 1195.33 Q132.015 1199.91 126.205 1199.91 Q120.394 1199.91 117.316 1195.33 Q114.26 1190.72 114.26 1182 Q114.26 1173.25 117.316 1168.66 Q120.394 1164.06 126.205 1164.06 Z" fill="#000000" fill-rule="evenodd" fill-opacity="1" /><path clip-path="url(#clip280)" d="M146.366 1193.36 L151.251 1193.36 L151.251 1199.24 L146.366 1199.24 L146.366 1193.36 Z" fill="#000000" fill-rule="evenodd" fill-opacity="1" /><path clip-path="url(#clip280)" d="M171.436 1167.76 Q167.825 1167.76 165.996 1171.32 Q164.19 1174.87 164.19 1182 Q164.19 1189.1 165.996 1192.67 Q167.825 1196.21 171.436 1196.21 Q175.07 1196.21 176.876 1192.67 Q178.704 1189.1 178.704 1182 Q178.704 1174.87 176.876 1171.32 Q175.07 1167.76 171.436 1167.76 M171.436 1164.06 Q177.246 1164.06 180.301 1168.66 Q183.38 1173.25 183.38 1182 Q183.38 1190.72 180.301 1195.33 Q177.246 1199.91 171.436 1199.91 Q165.626 1199.91 162.547 1195.33 Q159.491 1190.72 159.491 1182 Q159.491 1173.25 162.547 1168.66 Q165.626 1164.06 171.436 1164.06 Z" fill="#000000" fill-rule="evenodd" fill-opacity="1" /><path clip-path="url(#clip280)" d="M201.598 1167.76 Q197.987 1167.76 196.158 1171.32 Q194.352 1174.87 194.352 1182 Q194.352 1189.1 196.158 1192.67 Q197.987 1196.21 201.598 1196.21 Q205.232 1196.21 207.037 1192.67 Q208.866 1189.1 208.866 1182 Q208.866 1174.87 207.037 1171.32 Q205.232 1167.76 201.598 1167.76 M201.598 1164.06 Q207.408 1164.06 210.463 1168.66 Q213.542 1173.25 213.542 1182 Q213.542 1190.72 210.463 1195.33 Q207.408 1199.91 201.598 1199.91 Q195.787 1199.91 192.709 1195.33 Q189.653 1190.72 189.653 1182 Q189.653 1173.25 192.709 1168.66 Q195.787 1164.06 201.598 1164.06 Z" fill="#000000" fill-rule="evenodd" fill-opacity="1" /><path clip-path="url(#clip280)" d="M127.2 911.921 Q123.589 911.921 121.76 915.486 Q119.955 919.027 119.955 926.157 Q119.955 933.263 121.76 936.828 Q123.589 940.37 127.2 940.37 Q130.834 940.37 132.64 936.828 Q134.468 933.263 134.468 926.157 Q134.468 919.027 132.64 915.486 Q130.834 911.921 127.2 911.921 M127.2 908.217 Q133.01 908.217 136.066 912.824 Q139.144 917.407 139.144 926.157 Q139.144 934.884 136.066 939.49 Q133.01 944.073 127.2 944.073 Q121.39 944.073 118.311 939.49 Q115.256 934.884 115.256 926.157 Q115.256 917.407 118.311 912.824 Q121.39 908.217 127.2 908.217 Z" fill="#000000" fill-rule="evenodd" fill-opacity="1" /><path clip-path="url(#clip280)" d="M147.362 937.523 L152.246 937.523 L152.246 943.402 L147.362 943.402 L147.362 937.523 Z" fill="#000000" fill-rule="evenodd" fill-opacity="1" /><path clip-path="url(#clip280)" d="M166.459 939.467 L182.778 939.467 L182.778 943.402 L160.834 943.402 L160.834 939.467 Q163.496 936.712 168.079 932.083 Q172.686 927.43 173.866 926.087 Q176.112 923.564 176.991 921.828 Q177.894 920.069 177.894 918.379 Q177.894 915.624 175.95 913.888 Q174.028 912.152 170.927 912.152 Q168.727 912.152 166.274 912.916 Q163.843 913.68 161.065 915.231 L161.065 910.509 Q163.89 909.375 166.343 908.796 Q168.797 908.217 170.834 908.217 Q176.204 908.217 179.399 910.902 Q182.593 913.587 182.593 918.078 Q182.593 920.208 181.783 922.129 Q180.996 924.027 178.889 926.62 Q178.311 927.291 175.209 930.509 Q172.107 933.703 166.459 939.467 Z" fill="#000000" fill-rule="evenodd" fill-opacity="1" /><path clip-path="url(#clip280)" d="M192.639 908.842 L210.996 908.842 L210.996 912.777 L196.922 912.777 L196.922 921.249 Q197.94 920.902 198.959 920.74 Q199.977 920.555 200.996 920.555 Q206.783 920.555 210.162 923.726 Q213.542 926.898 213.542 932.314 Q213.542 937.893 210.07 940.995 Q206.598 944.073 200.278 944.073 Q198.102 944.073 195.834 943.703 Q193.588 943.333 191.181 942.592 L191.181 937.893 Q193.264 939.027 195.487 939.583 Q197.709 940.138 200.186 940.138 Q204.19 940.138 206.528 938.032 Q208.866 935.925 208.866 932.314 Q208.866 928.703 206.528 926.597 Q204.19 924.49 200.186 924.49 Q198.311 924.49 196.436 924.907 Q194.584 925.323 192.639 926.203 L192.639 908.842 Z" fill="#000000" fill-rule="evenodd" fill-opacity="1" /><path clip-path="url(#clip280)" d="M126.205 656.082 Q122.593 656.082 120.765 659.647 Q118.959 663.189 118.959 670.318 Q118.959 677.425 120.765 680.989 Q122.593 684.531 126.205 684.531 Q129.839 684.531 131.644 680.989 Q133.473 677.425 133.473 670.318 Q133.473 663.189 131.644 659.647 Q129.839 656.082 126.205 656.082 M126.205 652.378 Q132.015 652.378 135.07 656.985 Q138.149 661.568 138.149 670.318 Q138.149 679.045 135.07 683.651 Q132.015 688.235 126.205 688.235 Q120.394 688.235 117.316 683.651 Q114.26 679.045 114.26 670.318 Q114.26 661.568 117.316 656.985 Q120.394 652.378 126.205 652.378 Z" fill="#000000" fill-rule="evenodd" fill-opacity="1" /><path clip-path="url(#clip280)" d="M146.366 681.684 L151.251 681.684 L151.251 687.563 L146.366 687.563 L146.366 681.684 Z" fill="#000000" fill-rule="evenodd" fill-opacity="1" /><path clip-path="url(#clip280)" d="M161.482 653.003 L179.839 653.003 L179.839 656.939 L165.765 656.939 L165.765 665.411 Q166.783 665.064 167.802 664.902 Q168.82 664.716 169.839 664.716 Q175.626 664.716 179.005 667.888 Q182.385 671.059 182.385 676.476 Q182.385 682.054 178.913 685.156 Q175.44 688.235 169.121 688.235 Q166.945 688.235 164.677 687.864 Q162.431 687.494 160.024 686.753 L160.024 682.054 Q162.107 683.188 164.329 683.744 Q166.552 684.3 169.028 684.3 Q173.033 684.3 175.371 682.193 Q177.709 680.087 177.709 676.476 Q177.709 672.864 175.371 670.758 Q173.033 668.652 169.028 668.652 Q167.153 668.652 165.278 669.068 Q163.427 669.485 161.482 670.364 L161.482 653.003 Z" fill="#000000" fill-rule="evenodd" fill-opacity="1" /><path clip-path="url(#clip280)" d="M201.598 656.082 Q197.987 656.082 196.158 659.647 Q194.352 663.189 194.352 670.318 Q194.352 677.425 196.158 680.989 Q197.987 684.531 201.598 684.531 Q205.232 684.531 207.037 680.989 Q208.866 677.425 208.866 670.318 Q208.866 663.189 207.037 659.647 Q205.232 656.082 201.598 656.082 M201.598 652.378 Q207.408 652.378 210.463 656.985 Q213.542 661.568 213.542 670.318 Q213.542 679.045 210.463 683.651 Q207.408 688.235 201.598 688.235 Q195.787 688.235 192.709 683.651 Q189.653 679.045 189.653 670.318 Q189.653 661.568 192.709 656.985 Q195.787 652.378 201.598 652.378 Z" fill="#000000" fill-rule="evenodd" fill-opacity="1" /><path clip-path="url(#clip280)" d="M127.2 400.244 Q123.589 400.244 121.76 403.808 Q119.955 407.35 119.955 414.48 Q119.955 421.586 121.76 425.151 Q123.589 428.692 127.2 428.692 Q130.834 428.692 132.64 425.151 Q134.468 421.586 134.468 414.48 Q134.468 407.35 132.64 403.808 Q130.834 400.244 127.2 400.244 M127.2 396.54 Q133.01 396.54 136.066 401.146 Q139.144 405.73 139.144 414.48 Q139.144 423.206 136.066 427.813 Q133.01 432.396 127.2 432.396 Q121.39 432.396 118.311 427.813 Q115.256 423.206 115.256 414.48 Q115.256 405.73 118.311 401.146 Q121.39 396.54 127.2 396.54 Z" fill="#000000" fill-rule="evenodd" fill-opacity="1" /><path clip-path="url(#clip280)" d="M147.362 425.845 L152.246 425.845 L152.246 431.725 L147.362 431.725 L147.362 425.845 Z" fill="#000000" fill-rule="evenodd" fill-opacity="1" /><path clip-path="url(#clip280)" d="M161.251 397.165 L183.473 397.165 L183.473 399.156 L170.927 431.725 L166.042 431.725 L177.848 401.1 L161.251 401.1 L161.251 397.165 Z" fill="#000000" fill-rule="evenodd" fill-opacity="1" /><path clip-path="url(#clip280)" d="M192.639 397.165 L210.996 397.165 L210.996 401.1 L196.922 401.1 L196.922 409.572 Q197.94 409.225 198.959 409.063 Q199.977 408.878 200.996 408.878 Q206.783 408.878 210.162 412.049 Q213.542 415.22 213.542 420.637 Q213.542 426.216 210.07 429.317 Q206.598 432.396 200.278 432.396 Q198.102 432.396 195.834 432.026 Q193.588 431.655 191.181 430.915 L191.181 426.216 Q193.264 427.35 195.487 427.905 Q197.709 428.461 200.186 428.461 Q204.19 428.461 206.528 426.355 Q208.866 424.248 208.866 420.637 Q208.866 417.026 206.528 414.919 Q204.19 412.813 200.186 412.813 Q198.311 412.813 196.436 413.23 Q194.584 413.646 192.639 414.526 L192.639 397.165 Z" fill="#000000" fill-rule="evenodd" fill-opacity="1" /><path clip-path="url(#clip280)" d="M117.015 171.951 L124.654 171.951 L124.654 145.585 L116.343 147.252 L116.343 142.993 L124.607 141.326 L129.283 141.326 L129.283 171.951 L136.922 171.951 L136.922 175.886 L117.015 175.886 L117.015 171.951 Z" fill="#000000" fill-rule="evenodd" fill-opacity="1" /><path clip-path="url(#clip280)" d="M146.366 170.007 L151.251 170.007 L151.251 175.886 L146.366 175.886 L146.366 170.007 Z" fill="#000000" fill-rule="evenodd" fill-opacity="1" /><path clip-path="url(#clip280)" d="M171.436 144.405 Q167.825 144.405 165.996 147.97 Q164.19 151.511 164.19 158.641 Q164.19 165.747 165.996 169.312 Q167.825 172.854 171.436 172.854 Q175.07 172.854 176.876 169.312 Q178.704 165.747 178.704 158.641 Q178.704 151.511 176.876 147.97 Q175.07 144.405 171.436 144.405 M171.436 140.701 Q177.246 140.701 180.301 145.308 Q183.38 149.891 183.38 158.641 Q183.38 167.368 180.301 171.974 Q177.246 176.558 171.436 176.558 Q165.626 176.558 162.547 171.974 Q159.491 167.368 159.491 158.641 Q159.491 149.891 162.547 145.308 Q165.626 140.701 171.436 140.701 Z" fill="#000000" fill-rule="evenodd" fill-opacity="1" /><path clip-path="url(#clip280)" d="M201.598 144.405 Q197.987 144.405 196.158 147.97 Q194.352 151.511 194.352 158.641 Q194.352 165.747 196.158 169.312 Q197.987 172.854 201.598 172.854 Q205.232 172.854 207.037 169.312 Q208.866 165.747 208.866 158.641 Q208.866 151.511 207.037 147.97 Q205.232 144.405 201.598 144.405 M201.598 140.701 Q207.408 140.701 210.463 145.308 Q213.542 149.891 213.542 158.641 Q213.542 167.368 210.463 171.974 Q207.408 176.558 201.598 176.558 Q195.787 176.558 192.709 171.974 Q189.653 167.368 189.653 158.641 Q189.653 149.891 192.709 145.308 Q195.787 140.701 201.598 140.701 Z" fill="#000000" fill-rule="evenodd" fill-opacity="1" /><path clip-path="url(#clip280)" d="M16.4842 908.231 L16.4842 898.651 L48.8219 886.524 L16.4842 874.334 L16.4842 864.753 L64.0042 864.753 L64.0042 871.024 L22.277 871.024 L54.8694 883.278 L54.8694 889.739 L22.277 901.993 L64.0042 901.993 L64.0042 908.231 L16.4842 908.231 Z" fill="#000000" fill-rule="evenodd" fill-opacity="1" /><path clip-path="url(#clip280)" d="M46.0847 836.044 Q46.0847 843.142 47.7079 845.879 Q49.3312 848.616 53.2461 848.616 Q56.3653 848.616 58.2114 846.579 Q60.0256 844.51 60.0256 840.978 Q60.0256 836.108 56.5881 833.18 Q53.1188 830.219 47.3897 830.219 L46.0847 830.219 L46.0847 836.044 M43.6657 824.363 L64.0042 824.363 L64.0042 830.219 L58.5933 830.219 Q61.8398 832.225 63.3994 835.217 Q64.9272 838.208 64.9272 842.537 Q64.9272 848.012 61.8716 851.258 Q58.7843 854.473 53.6281 854.473 Q47.6125 854.473 44.5569 850.462 Q41.5014 846.42 41.5014 838.431 L41.5014 830.219 L40.9285 830.219 Q36.8862 830.219 34.6901 832.893 Q32.4621 835.535 32.4621 840.341 Q32.4621 843.396 33.1941 846.293 Q33.9262 849.189 35.3903 851.863 L29.9795 851.863 Q28.7381 848.648 28.1334 845.624 Q27.4968 842.601 27.4968 839.736 Q27.4968 832.002 31.5072 828.182 Q35.5176 824.363 43.6657 824.363 Z" fill="#000000" fill-rule="evenodd" fill-opacity="1" /><path clip-path="url(#clip280)" d="M33.8307 791.643 Q33.2578 792.63 33.0032 793.808 Q32.7167 794.953 32.7167 796.354 Q32.7167 801.319 35.9632 803.993 Q39.1779 806.635 45.2253 806.635 L64.0042 806.635 L64.0042 812.523 L28.3562 812.523 L28.3562 806.635 L33.8944 806.635 Q30.6479 804.788 29.0883 801.828 Q27.4968 798.868 27.4968 794.635 Q27.4968 794.03 27.5923 793.298 Q27.656 792.566 27.8151 791.675 L33.8307 791.643 Z" fill="#000000" fill-rule="evenodd" fill-opacity="1" /><path clip-path="url(#clip280)" d="M14.479 777.607 L14.479 771.75 L21.895 771.75 L21.895 777.607 L14.479 777.607 M27.4968 774.615 L27.4968 774.615 M28.3562 788.047 L28.3562 760.229 L33.7034 760.229 L59.3254 782.254 L59.3254 760.229 L64.0042 760.229 L64.0042 788.842 L58.657 788.842 L33.035 766.817 L33.035 788.047 L28.3562 788.047 Z" fill="#000000" fill-rule="evenodd" fill-opacity="1" /><path clip-path="url(#clip280)" d="M46.0847 735.084 Q46.0847 742.182 47.7079 744.919 Q49.3312 747.656 53.2461 747.656 Q56.3653 747.656 58.2114 745.619 Q60.0256 743.55 60.0256 740.017 Q60.0256 735.148 56.5881 732.219 Q53.1188 729.259 47.3897 729.259 L46.0847 729.259 L46.0847 735.084 M43.6657 723.403 L64.0042 723.403 L64.0042 729.259 L58.5933 729.259 Q61.8398 731.265 63.3994 734.256 Q64.9272 737.248 64.9272 741.577 Q64.9272 747.052 61.8716 750.298 Q58.7843 753.513 53.6281 753.513 Q47.6125 753.513 44.5569 749.502 Q41.5014 745.46 41.5014 737.471 L41.5014 729.259 L40.9285 729.259 Q36.8862 729.259 34.6901 731.933 Q32.4621 734.575 32.4621 739.381 Q32.4621 742.436 33.1941 745.333 Q33.9262 748.229 35.3903 750.903 L29.9795 750.903 Q28.7381 747.688 28.1334 744.664 Q27.4968 741.641 27.4968 738.776 Q27.4968 731.042 31.5072 727.222 Q35.5176 723.403 43.6657 723.403 Z" fill="#000000" fill-rule="evenodd" fill-opacity="1" /><path clip-path="url(#clip280)" d="M43.0928 649.37 Q43.0928 652.139 45.4481 653.73 Q47.8034 655.29 52.0048 655.29 Q56.1425 655.29 58.5296 653.73 Q60.885 652.139 60.885 649.37 Q60.885 646.664 58.5296 645.105 Q56.1425 643.513 52.0048 643.513 Q47.8353 643.513 45.48 645.105 Q43.0928 646.664 43.0928 649.37 M39.0506 649.37 Q39.0506 644.341 42.5517 641.381 Q46.0529 638.421 52.0048 638.421 Q57.9567 638.421 61.4579 641.413 Q64.9272 644.373 64.9272 649.37 Q64.9272 654.462 61.4579 657.422 Q57.9567 660.382 52.0048 660.382 Q46.021 660.382 42.5517 657.422 Q39.0506 654.43 39.0506 649.37 M19.667 682.217 Q19.667 684.954 22.0542 686.545 Q24.4095 688.105 28.5472 688.105 Q32.7485 688.105 35.1038 686.545 Q37.4592 684.986 37.4592 682.217 Q37.4592 679.448 35.1038 677.888 Q32.7485 676.297 28.5472 676.297 Q24.4413 676.297 22.0542 677.888 Q19.667 679.48 19.667 682.217 M15.6248 653.476 L15.6248 648.383 L64.9272 678.111 L64.9272 683.203 L15.6248 653.476 M15.6248 682.217 Q15.6248 677.188 19.1259 674.196 Q22.5952 671.204 28.5472 671.204 Q34.5628 671.204 38.0321 674.196 Q41.5014 677.156 41.5014 682.217 Q41.5014 687.278 38.0321 690.238 Q34.5309 693.166 28.5472 693.166 Q22.6271 693.166 19.1259 690.206 Q15.6248 687.246 15.6248 682.217 Z" fill="#000000" fill-rule="evenodd" fill-opacity="1" /><path clip-path="url(#clip280)" d="M1129.45 12.096 L1141.64 12.096 L1157.08 53.2532 L1172.59 12.096 L1184.79 12.096 L1184.79 72.576 L1176.81 72.576 L1176.81 19.4686 L1161.21 60.9499 L1152.99 60.9499 L1137.39 19.4686 L1137.39 72.576 L1129.45 72.576 L1129.45 12.096 Z" fill="#000000" fill-rule="evenodd" fill-opacity="1" /><path clip-path="url(#clip280)" d="M1221.33 49.7694 Q1212.29 49.7694 1208.81 51.8354 Q1205.32 53.9013 1205.32 58.8839 Q1205.32 62.8538 1207.92 65.2034 Q1210.55 67.5124 1215.05 67.5124 Q1221.24 67.5124 1224.97 63.1374 Q1228.74 58.7219 1228.74 51.4303 L1228.74 49.7694 L1221.33 49.7694 M1236.19 46.6907 L1236.19 72.576 L1228.74 72.576 L1228.74 65.6895 Q1226.19 69.8214 1222.38 71.8063 Q1218.57 73.7508 1213.06 73.7508 Q1206.09 73.7508 1201.96 69.8619 Q1197.87 65.9325 1197.87 59.3701 Q1197.87 51.7138 1202.98 47.825 Q1208.12 43.9361 1218.29 43.9361 L1228.74 43.9361 L1228.74 43.2069 Q1228.74 38.0623 1225.34 35.2672 Q1221.97 32.4315 1215.86 32.4315 Q1211.97 32.4315 1208.28 33.3632 Q1204.6 34.295 1201.19 36.1584 L1201.19 29.2718 Q1205.28 27.692 1209.13 26.9223 Q1212.98 26.1121 1216.63 26.1121 Q1226.47 26.1121 1231.33 31.2163 Q1236.19 36.3204 1236.19 46.6907 Z" fill="#000000" fill-rule="evenodd" fill-opacity="1" /><path clip-path="url(#clip280)" d="M1277.84 34.1734 Q1276.58 33.4443 1275.08 33.1202 Q1273.62 32.7556 1271.84 32.7556 Q1265.52 32.7556 1262.12 36.8875 Q1258.76 40.9789 1258.76 48.6757 L1258.76 72.576 L1251.26 72.576 L1251.26 27.2059 L1258.76 27.2059 L1258.76 34.2544 Q1261.11 30.1225 1264.87 28.1376 Q1268.64 26.1121 1274.03 26.1121 Q1274.8 26.1121 1275.73 26.2337 Q1276.66 26.3147 1277.8 26.5172 L1277.84 34.1734 Z" fill="#000000" fill-rule="evenodd" fill-opacity="1" /><path clip-path="url(#clip280)" d="M1295.7 9.54393 L1303.15 9.54393 L1303.15 18.9825 L1295.7 18.9825 L1295.7 9.54393 M1299.51 26.1121 L1299.51 26.1121 M1282.41 27.2059 L1317.82 27.2059 L1317.82 34.0114 L1289.79 66.6212 L1317.82 66.6212 L1317.82 72.576 L1281.4 72.576 L1281.4 65.7705 L1309.43 33.1607 L1282.41 33.1607 L1282.41 27.2059 Z" fill="#000000" fill-rule="evenodd" fill-opacity="1" /><path clip-path="url(#clip280)" d="M1349.82 49.7694 Q1340.79 49.7694 1337.3 51.8354 Q1333.82 53.9013 1333.82 58.8839 Q1333.82 62.8538 1336.41 65.2034 Q1339.05 67.5124 1343.54 67.5124 Q1349.74 67.5124 1353.47 63.1374 Q1357.23 58.7219 1357.23 51.4303 L1357.23 49.7694 L1349.82 49.7694 M1364.69 46.6907 L1364.69 72.576 L1357.23 72.576 L1357.23 65.6895 Q1354.68 69.8214 1350.87 71.8063 Q1347.07 73.7508 1341.56 73.7508 Q1334.59 73.7508 1330.46 69.8619 Q1326.37 65.9325 1326.37 59.3701 Q1326.37 51.7138 1331.47 47.825 Q1336.61 43.9361 1346.78 43.9361 L1357.23 43.9361 L1357.23 43.2069 Q1357.23 38.0623 1353.83 35.2672 Q1350.47 32.4315 1344.35 32.4315 Q1340.46 32.4315 1336.78 33.3632 Q1333.09 34.295 1329.69 36.1584 L1329.69 29.2718 Q1333.78 27.692 1337.63 26.9223 Q1341.48 26.1121 1345.12 26.1121 Q1354.97 26.1121 1359.83 31.2163 Q1364.69 36.3204 1364.69 46.6907 Z" fill="#000000" fill-rule="evenodd" fill-opacity="1" /><path clip-path="url(#clip280)" d="M1458.91 45.9616 Q1455.39 45.9616 1453.36 48.9592 Q1451.38 51.9569 1451.38 57.3041 Q1451.38 62.5703 1453.36 65.6084 Q1455.39 68.6061 1458.91 68.6061 Q1462.35 68.6061 1464.34 65.6084 Q1466.37 62.5703 1466.37 57.3041 Q1466.37 51.9974 1464.34 48.9997 Q1462.35 45.9616 1458.91 45.9616 M1458.91 40.8169 Q1465.31 40.8169 1469.08 45.2729 Q1472.85 49.7289 1472.85 57.3041 Q1472.85 64.8793 1469.04 69.3353 Q1465.27 73.7508 1458.91 73.7508 Q1452.43 73.7508 1448.66 69.3353 Q1444.9 64.8793 1444.9 57.3041 Q1444.9 49.6884 1448.66 45.2729 Q1452.47 40.8169 1458.91 40.8169 M1417.11 16.1469 Q1413.62 16.1469 1411.6 19.1851 Q1409.61 22.1828 1409.61 27.4489 Q1409.61 32.7961 1411.6 35.7938 Q1413.58 38.7915 1417.11 38.7915 Q1420.63 38.7915 1422.62 35.7938 Q1424.64 32.7961 1424.64 27.4489 Q1424.64 22.2233 1422.62 19.1851 Q1420.59 16.1469 1417.11 16.1469 M1453.69 11.0023 L1460.17 11.0023 L1422.33 73.7508 L1415.85 73.7508 L1453.69 11.0023 M1417.11 11.0023 Q1423.51 11.0023 1427.31 15.4583 Q1431.12 19.8737 1431.12 27.4489 Q1431.12 35.1051 1427.31 39.5206 Q1423.55 43.9361 1417.11 43.9361 Q1410.67 43.9361 1406.9 39.5206 Q1403.17 35.0646 1403.17 27.4489 Q1403.17 19.9142 1406.94 15.4583 Q1410.71 11.0023 1417.11 11.0023 Z" fill="#000000" fill-rule="evenodd" fill-opacity="1" /><polyline clip-path="url(#clip282)" style="stroke:#0000ff; stroke-linecap:butt; stroke-linejoin:round; stroke-width:4; stroke-opacity:1; fill:none" points="
  309.067,1185.29 311.55,1214.09 314.034,1263.8 316.517,1223.17 319,1255.09 321.483,1204 323.967,1229.02 326.45,1272.77 328.933,1223.25 331.417,1223.25 
  333.9,1223.25 336.383,1172.31 338.867,1172.31 341.35,1172.31 343.833,1180.67 346.317,1130.86 348.8,1130.86 351.283,1130.86 353.767,1085.94 356.25,1109.64 
  358.733,1085.94 361.216,1085.94 363.7,1082.7 366.183,1054.59 368.666,1054.59 371.15,1081.1 373.633,1081.1 376.116,1034.44 378.6,1034.44 381.083,1028.93 
  383.566,1034.44 386.05,998.515 388.533,959.133 391.016,959.133 393.499,959.133 395.983,984.616 398.466,984.616 400.949,948.155 403.433,948.155 405.916,948.155 
  408.399,958.527 410.883,1000.29 413.366,975.684 415.849,975.684 418.333,975.684 420.816,996.921 423.299,975.684 425.782,975.684 428.266,975.684 430.749,975.684 
  433.232,1015.77 435.716,1016.14 438.199,975.355 440.682,999.036 443.166,975.355 445.649,975.355 448.132,975.355 450.616,975.355 453.099,1023.1 455.582,1051.85 
  458.066,1023.1 460.549,1023.1 463.032,1033.57 465.515,1030.22 467.999,1030.22 470.482,1065.36 472.965,1065.36 475.449,1026.68 477.932,987.36 480.415,987.36 
  482.899,987.36 485.382,987.36 487.865,987.36 490.349,987.36 492.832,1021.15 495.315,1021.15 497.798,997.919 500.282,997.919 502.765,997.919 505.248,997.919 
  507.732,997.919 510.215,1048.65 512.698,997.919 515.182,1008.04 517.665,1008.04 520.148,992.549 522.632,992.549 525.115,979.347 527.598,979.347 530.081,935.681 
  532.565,922.817 535.048,922.817 537.531,922.817 540.015,943.412 542.498,922.817 544.981,922.817 547.465,883.262 549.948,860.211 552.431,860.211 554.915,860.211 
  557.398,860.211 559.881,860.211 562.364,860.211 564.848,896.965 567.331,896.965 569.814,896.965 572.298,896.965 574.781,896.268 577.264,896.268 579.748,896.268 
  582.231,903.777 584.714,896.268 587.198,896.268 589.681,896.268 592.164,896.268 594.648,942.153 597.131,893.692 599.614,893.692 602.097,893.692 604.581,893.692 
  607.064,893.692 609.547,892.764 612.031,912.142 614.514,930.516 616.997,899.962 619.481,899.962 621.964,899.962 624.447,855.299 626.931,855.299 629.414,855.299 
  631.897,855.299 634.38,855.299 636.864,855.299 639.347,855.299 641.83,856.384 644.314,855.299 646.797,855.299 649.28,855.299 651.764,839.037 654.247,867.229 
  656.73,914.915 659.214,914.915 661.697,913.168 664.18,900.5 666.663,913.168 669.147,955.96 671.63,913.168 674.113,909.125 676.597,913.168 679.08,913.168 
  681.563,910.073 684.047,910.073 686.53,910.073 689.013,910.073 691.497,910.073 693.98,867.669 696.463,867.669 698.946,893.517 701.43,860.459 703.913,901.474 
  706.396,896.577 708.88,847.012 711.363,833.098 713.846,880.976 716.33,905.314 718.813,955.99 721.296,911.864 723.78,869.44 726.263,868.392 728.746,868.392 
  731.23,868.392 733.713,910.138 736.196,910.138 738.679,910.138 741.163,958.619 743.646,958.195 746.129,958.619 748.613,958.619 751.096,954.625 753.579,954.625 
  756.063,907.248 758.546,857.039 761.029,857.039 763.513,857.039 765.996,857.039 768.479,824.06 770.962,824.06 773.446,824.06 775.929,824.06 778.412,811.384 
  780.896,811.384 783.379,811.384 785.862,811.384 788.346,793.012 790.829,753.175 793.312,745.341 795.796,733.266 798.279,745.341 800.762,745.341 803.245,706.024 
  805.729,702.562 808.212,702.562 810.695,714.244 813.179,665.519 815.662,714.244 818.145,714.244 820.629,755.221 823.112,788.714 825.595,801.142 828.079,826.634 
  830.562,801.142 833.045,801.142 835.528,801.142 838.012,801.142 840.495,801.142 842.978,759.326 845.462,759.326 847.945,755.353 850.428,755.353 852.912,711.686 
  855.395,711.686 857.878,748.441 860.362,748.441 862.845,748.441 865.328,711.163 867.812,711.163 870.295,711.163 872.778,742.851 875.261,711.163 877.745,691.224 
  880.228,711.163 882.711,711.108 885.195,734.991 887.678,734.991 890.161,689.386 892.645,689.386 895.128,674.666 897.611,646.407 900.095,689.478 902.578,689.478 
  905.061,677.707 907.544,712.903 910.028,664.547 912.511,622.212 914.994,595.775 917.478,595.775 919.961,595.775 922.444,562.944 924.928,562.944 927.411,562.944 
  929.894,553.452 932.378,553.452 934.861,553.452 937.344,553.452 939.827,553.452 942.311,515.422 944.794,521.787 947.277,521.787 949.761,532.718 952.244,521.787 
  954.727,568.836 957.211,568.836 959.694,568.836 962.177,598.133 964.661,568.836 967.144,568.836 969.627,568.836 972.111,568.836 974.594,606.633 977.077,606.633 
  979.56,580.556 982.044,580.556 984.527,580.556 987.01,580.556 989.494,577.537 991.977,536.713 994.46,577.537 996.944,589.912 999.427,540.574 1001.91,560.052 
  1004.39,560.052 1006.88,560.052 1009.36,535.447 1011.84,537.688 1014.33,535.447 1016.81,584.085 1019.29,584.085 1021.78,548.038 1024.26,548.038 1026.74,570.699 
  1029.23,570.699 1031.71,570.699 1034.19,555.727 1036.68,555.727 1039.16,555.727 1041.64,570.408 1044.13,570.408 1046.61,570.408 1049.09,570.408 1051.58,574.471 
  1054.06,570.408 1056.54,570.408 1059.03,567.011 1061.51,567.011 1063.99,567.011 1066.48,567.011 1068.96,616.569 1071.44,567.011 1073.93,599.182 1076.41,599.182 
  1078.89,599.182 1081.38,599.182 1083.86,599.182 1086.34,599.182 1088.83,599.182 1091.31,599.182 1093.79,599.182 1096.28,599.182 1098.76,590.388 1101.24,590.388 
  1103.73,619.578 1106.21,579.491 1108.69,569.53 1111.18,569.53 1113.66,569.53 1116.14,587.4 1118.63,587.4 1121.11,597.134 1123.59,587.4 1126.08,540.003 
  1128.56,540.003 1131.04,560.464 1133.53,580.099 1136.01,606.585 1138.49,557.104 1140.98,606.585 1143.46,570.922 1145.94,571.46 1148.43,585.827 1150.91,571.46 
  1153.39,571.46 1155.88,571.46 1158.36,610.237 1160.84,596.768 1163.33,646.095 1165.81,652.431 1168.29,652.431 1170.78,659.976 1173.26,659.976 1175.74,687.055 
  1178.23,659.976 1180.71,659.976 1183.19,609.621 1185.68,609.621 1188.16,660.055 1190.64,660.055 1193.13,689.3 1195.61,689.3 1198.09,689.3 1200.57,689.3 
  1203.06,670.607 1205.54,668.557 1208.02,688.088 1210.51,653.708 1212.99,688.088 1215.47,688.088 1217.96,674.957 1220.44,688.088 1222.92,688.088 1225.41,688.088 
  1227.89,664.841 1230.37,664.841 1232.86,664.841 1235.34,638.541 1237.82,654.574 1240.31,653.586 1242.79,634.962 1245.27,682.588 1247.76,712.882 1250.24,682.588 
  1252.72,682.588 1255.21,682.588 1257.69,682.588 1260.17,682.588 1262.66,680.019 1265.14,680.019 1267.62,680.019 1270.11,730.866 1272.59,737.527 1275.07,775.289 
  1277.56,737.527 1280.04,785.11 1282.52,759.498 1285.01,759.498 1287.49,759.498 1289.97,759.498 1292.46,726.522 1294.94,726.522 1297.42,726.522 1299.91,737.941 
  1302.39,698.696 1304.87,698.696 1307.36,670.93 1309.84,670.93 1312.32,665.521 1314.81,665.521 1317.29,665.521 1319.77,665.521 1322.26,642.239 1324.74,624.783 
  1327.22,664.399 1329.71,664.399 1332.19,664.399 1334.67,664.399 1337.16,664.399 1339.64,711.652 1342.12,664.399 1344.61,688.043 1347.09,688.043 1349.57,688.043 
  1352.06,688.043 1354.54,721.258 1357.02,691.707 1359.51,680.377 1361.99,691.707 1364.47,669.281 1366.96,661.688 1369.44,691.297 1371.92,652.467 1374.41,693.14 
  1376.89,720.149 1379.37,695.431 1381.86,742.22 1384.34,695.431 1386.82,695.431 1389.31,722.658 1391.79,722.658 1394.27,722.658 1396.76,722.658 1399.24,722.658 
  1401.72,722.658 1404.21,742.515 1406.69,742.515 1409.17,742.515 1411.66,727.737 1414.14,770.001 1416.62,770.001 1419.11,727.843 1421.59,727.843 1424.07,727.843 
  1426.56,727.843 1429.04,710.109 1431.52,711.903 1434.01,710.109 1436.49,710.109 1438.97,710.109 1441.46,710.109 1443.94,710.109 1446.42,710.109 1448.91,722.995 
  1451.39,722.995 1453.87,766.988 1456.36,717.43 1458.84,766.988 1461.32,808.345 1463.81,808.345 1466.29,827.703 1468.77,808.345 1471.26,759.042 1473.74,722.109 
  1476.22,725.389 1478.71,725.389 1481.19,725.389 1483.67,714.662 1486.16,725.389 1488.64,725.389 1491.12,725.389 1493.61,725.389 1496.09,725.389 1498.57,725.389 
  1501.06,700.067 1503.54,721.901 1506.02,713.933 1508.51,713.933 1510.99,713.933 1513.47,713.933 1515.96,751.994 1518.44,713.933 1520.92,674.45 1523.41,674.45 
  1525.89,637.753 1528.37,588.964 1530.86,588.964 1533.34,588.964 1535.82,588.964 1538.3,577.696 1540.79,588.964 1543.27,570.385 1545.75,588.964 1548.24,595.975 
  1550.72,573.576 1553.2,531.219 1555.69,531.219 1558.17,529.08 1560.65,529.08 1563.14,513.189 1565.62,513.189 1568.1,479.377 1570.59,483.458 1573.07,479.377 
  1575.55,478.678 1578.04,479.377 1580.52,479.377 1583,479.377 1585.49,513.813 1587.97,495.378 1590.45,495.378 1592.94,495.378 1595.42,495.378 1597.9,495.378 
  1600.39,495.378 1602.87,495.378 1605.35,495.378 1607.84,495.378 1610.32,495.378 1612.8,495.378 1615.29,539.069 1617.77,583.337 1620.25,539.069 1622.74,516.321 
  1625.22,539.069 1627.7,539.069 1630.19,539.069 1632.67,539.069 1635.15,539.069 1637.64,539.069 1640.12,493.465 1642.6,493.465 1645.09,467.977 1647.57,467.977 
  1650.05,456.564 1652.54,456.564 1655.02,412.735 1657.5,388.489 1659.99,382.665 1662.47,350.068 1664.95,350.068 1667.44,350.068 1669.92,350.068 1672.4,350.068 
  1674.89,350.068 1677.37,350.068 1679.85,350.068 1682.34,350.068 1684.82,350.068 1687.3,332.423 1689.79,332.423 1692.27,283.285 1694.75,283.285 1697.24,293.27 
  1699.72,279.69 1702.2,297.874 1704.69,254.549 1707.17,297.874 1709.65,297.874 1712.14,279.6 1714.62,250.071 1717.1,250.071 1719.59,250.071 1722.07,298.355 
  1724.55,339.529 1727.04,334.616 1729.52,295.911 1732,308.116 1734.49,271.447 1736.97,271.447 1739.45,271.447 1741.94,271.447 1744.42,271.447 1746.9,263.29 
  1749.39,253.121 1751.87,246.804 1754.35,202.892 1756.84,161.15 1759.32,202.48 1761.8,166.348 1764.29,166.348 1766.77,166.348 1769.25,166.348 1771.74,166.348 
  1774.22,211.264 1776.7,211.264 1779.19,190.378 1781.67,190.378 1784.15,187.638 1786.64,208.585 1789.12,208.585 1791.6,208.585 1794.09,208.585 1796.57,208.585 
  1799.05,208.106 1801.54,208.106 1804.02,208.106 1806.5,171.67 1808.99,213.024 1811.47,164.014 1813.95,164.014 1816.44,164.014 1818.92,164.014 1821.4,164.014 
  1823.89,209.278 1826.37,162.827 1828.85,209.278 1831.34,209.278 1833.82,209.278 1836.3,181.61 1838.79,181.61 1841.27,181.61 1843.75,165.299 1846.24,165.299 
  1848.72,165.299 1851.2,165.299 1853.69,165.299 1856.17,165.299 1858.65,165.299 1861.14,165.299 1863.62,172.307 1866.1,165.299 1868.59,165.299 1871.07,165.299 
  1873.55,193.544 1876.04,235.568 1878.52,235.568 1881,235.568 1883.48,235.568 1885.97,217.53 1888.45,235.568 1890.93,235.568 1893.42,235.568 1895.9,227.532 
  1898.38,227.532 1900.87,227.532 1903.35,227.532 1905.83,227.532 1908.32,227.532 1910.8,227.532 1913.28,227.532 1915.77,178.767 1918.25,178.767 1920.73,178.767 
  1923.22,178.767 1925.7,220.7 1928.18,201.01 1930.67,220.7 1933.15,220.7 1935.63,206.197 1938.12,203.201 1940.6,206.197 1943.08,206.197 1945.57,206.197 
  1948.05,238.854 1950.53,206.197 1953.02,254.104 1955.5,249.59 1957.98,249.59 1960.47,249.59 1962.95,298.967 1965.43,298.967 1967.92,298.967 1970.4,298.967 
  1972.88,298.967 1975.37,298.967 1977.85,298.967 1980.33,298.967 1982.82,298.967 1985.3,342.855 1987.78,298.967 1990.27,298.967 1992.75,298.967 1995.23,298.967 
  1997.72,298.967 2000.2,267.03 2002.68,267.03 2005.17,267.03 2007.65,267.03 2010.13,267.03 2012.62,267.03 2015.1,274.991 2017.58,274.991 2020.07,229.941 
  2022.55,189.537 2025.03,189.537 2027.52,189.537 2030,193.939 2032.48,160.815 2034.97,160.256 2037.45,178.562 2039.93,181.508 2042.42,178.562 2044.9,178.562 
  2047.38,178.562 2049.87,178.562 2052.35,178.562 2054.83,169.415 2057.32,178.562 2059.8,193.069 2062.28,181.912 2064.77,193.069 2067.25,193.069 2069.73,237.655 
  2072.22,237.655 2074.7,237.655 2077.18,237.655 2079.67,220.943 2082.15,220.943 2084.63,220.943 2087.12,220.943 2089.6,220.943 2092.08,220.943 2094.57,257.454 
  2097.05,260.655 2099.53,269.283 2102.02,319.833 2104.5,369.624 2106.98,369.624 2109.47,364.378 2111.95,364.378 2114.43,373.372 2116.92,328.015 2119.4,368.038 
  2121.88,325.72 2124.37,301.979 2126.85,338.095 2129.33,338.095 2131.82,338.095 2134.3,296.813 2136.78,338.095 2139.27,338.095 2141.75,322.55 2144.23,322.55 
  2146.72,368.693 2149.2,368.693 2151.68,368.693 2154.17,414.758 2156.65,368.693 2159.13,368.693 2161.62,368.693 2164.1,337.461 2166.58,371.861 2169.07,384.8 
  2171.55,393.103 2174.03,384.8 2176.52,366.052 2179,384.8 2181.48,384.8 2183.97,349.757 2186.45,384.8 2188.93,384.8 2191.42,405.789 2193.9,405.789 
  2196.38,405.789 2198.87,387.552 2201.35,405.789 2203.83,405.789 2206.32,405.789 2208.8,393.632 2211.28,405.789 2213.77,406.699 2216.25,385.391 2218.73,406.699 
  2221.22,406.699 2223.7,406.699 2226.18,358.051 2228.66,358.051 2231.15,358.051 2233.63,390.746 2236.11,390.746 2238.6,372.332 2241.08,341.841 2243.56,323.708 
  2246.05,328.96 2248.53,328.96 2251.01,328.96 2253.5,321.011 2255.98,295.107 2258.46,295.107 2260.95,295.107 2263.43,295.107 2265.91,295.107 2268.4,266.148 
  2270.88,313.934 2273.36,313.934 2275.85,283.907 2278.33,247.132 2280.81,247.132 2283.3,247.132 2285.78,228.987 2288.26,228.987 2290.75,228.987 2293.23,228.987 
  
  "/>
<polyline clip-path="url(#clip282)" style="stroke:#ffa500; stroke-linecap:butt; stroke-linejoin:round; stroke-width:4; stroke-opacity:1; fill:none" points="
  309.067,1178.63 311.55,1207.43 314.034,1257.15 316.517,1297.78 319,1297.78 321.483,1297.78 323.967,1272.77 326.45,1229.01 328.933,1229.01 331.417,1229.01 
  333.9,1201.43 336.383,1201.43 338.867,1201.43 341.35,1201.43 343.833,1201.43 346.317,1151.62 348.8,1151.62 351.283,1160.2 353.767,1160.2 356.25,1183.9 
  358.733,1160.2 361.216,1160.2 363.7,1160.2 366.183,1188.31 368.666,1160.2 371.15,1133.69 373.633,1133.69 376.116,1133.69 378.6,1133.69 381.083,1128.19 
  383.566,1104.52 386.05,1068.6 388.533,1068.6 391.016,1068.6 393.499,1103.77 395.983,1129.25 398.466,1103.77 400.949,1067.31 403.433,1095.24 405.916,1067.31 
  408.399,1056.94 410.883,1015.17 413.366,990.563 415.849,957.11 418.333,944.1 420.816,944.1 423.299,899.238 425.782,889.162 428.266,870.999 430.749,870.999 
  433.232,870.999 435.716,870.999 438.199,870.999 440.682,870.999 443.166,891.242 445.649,891.242 448.132,856.112 450.616,856.112 453.099,856.112 455.582,856.112 
  458.066,856.112 460.549,850.336 463.032,839.861 465.515,843.214 467.999,885.792 470.482,843.214 472.965,830.569 475.449,791.888 477.932,752.57 480.415,752.57 
  482.899,738.047 485.382,738.047 487.865,738.047 490.349,738.047 492.832,704.257 495.315,674.354 497.798,674.354 500.282,681.8 502.765,647.655 505.248,647.655 
  507.732,627 510.215,627 512.698,627 515.182,627 517.665,611.238 520.148,611.238 522.632,611.238 525.115,611.238 527.598,611.238 530.081,611.238 
  532.565,598.374 535.048,598.374 537.531,558.814 540.015,538.22 542.498,506.927 544.981,506.927 547.465,467.372 549.948,490.424 552.431,518.384 554.915,504.398 
  557.398,504.398 559.881,504.398 562.364,504.398 564.848,467.643 567.331,467.643 569.814,467.643 572.298,467.643 574.781,467.643 577.264,456.151 579.748,479.036 
  582.231,479.036 584.714,479.036 587.198,479.036 589.681,479.036 592.164,479.036 594.648,479.036 597.131,479.036 599.614,479.036 602.097,459.867 604.581,459.867 
  607.064,459.867 609.547,459.867 612.031,440.489 614.514,459.867 616.997,440.489 619.481,440.489 621.964,401.343 624.447,401.343 626.931,401.343 629.414,374.999 
  631.897,374.999 634.38,374.999 636.864,374.999 639.347,374.999 641.83,374.999 644.314,388.054 646.797,388.054 649.28,420.063 651.764,403.802 654.247,431.994 
  656.73,384.309 659.214,365.75 661.697,384.309 664.18,384.309 666.663,356.067 669.147,313.274 671.63,313.274 674.113,317.316 676.597,317.316 679.08,282.022 
  681.563,317.316 684.047,317.316 686.53,300.381 689.013,317.316 691.497,317.316 693.98,317.316 696.463,317.316 698.946,291.468 701.43,291.468 703.913,291.468 
  706.396,286.571 708.88,291.468 711.363,291.468 713.846,243.591 716.33,219.252 718.813,168.576 721.296,219.252 723.78,219.252 726.263,220.301 728.746,200.536 
  731.23,220.301 733.713,262.047 736.196,225.13 738.679,225.13 741.163,225.13 743.646,225.13 746.129,216.479 748.613,185.916 751.096,216.479 753.579,216.479 
  756.063,216.479 758.546,216.479 761.029,216.479 763.513,216.479 765.996,182.95 768.479,182.95 770.962,190 773.446,190 775.929,190 778.412,190 
  780.896,190 783.379,185.915 785.862,190 788.346,190 790.829,190 793.312,182.166 795.796,170.091 798.279,170.091 800.762,168.816 803.245,168.816 
  805.729,168.816 808.212,168.816 810.695,180.498 813.179,180.498 815.662,180.498 818.145,181.801 820.629,180.498 823.112,213.991 825.595,213.991 828.079,239.483 
  830.562,213.991 833.045,251.443 835.528,213.991 838.012,183.621 840.495,183.621 842.978,225.437 845.462,260.27 847.945,256.297 850.428,285.043 852.912,285.043 
  855.395,285.043 857.878,321.798 860.362,342.759 862.845,388.526 865.328,342.759 867.812,303.478 870.295,308.178 872.778,308.178 875.261,308.178 877.745,328.117 
  880.228,378.751 882.711,378.805 885.195,402.688 887.678,408.344 890.161,453.95 892.645,469.478 895.128,469.478 897.611,469.478 900.095,512.55 902.578,541.667 
  905.061,553.438 907.544,553.438 910.028,601.794 912.511,644.128 914.994,644.128 917.478,684.196 919.961,684.196 922.444,717.028 924.928,740.781 927.411,742.429 
  929.894,751.921 932.378,782.519 934.861,808.981 937.344,808.981 939.827,814.906 942.311,814.906 944.794,821.271 947.277,863.029 949.761,873.961 952.244,915.848 
  954.727,915.848 957.211,915.848 959.694,929.068 962.177,929.068 964.661,948.648 967.144,948.648 969.627,986.202 972.111,986.202 974.594,1024 977.077,1049.17 
  979.56,1049.17 982.044,1049.17 984.527,1049.17 987.01,1049.17 989.494,1052.19 991.977,1093.02 994.46,1093.02 996.944,1105.39 999.427,1154.73 1001.91,1154.73 
  1004.39,1163.45 1006.88,1163.45 1009.36,1163.45 1011.84,1163.45 1014.33,1179.8 1016.81,1228.44 1019.29,1228.44 1021.78,1228.44 1024.26,1228.44 1026.74,1251.1 
  1029.23,1251.1 1031.71,1255.26 1034.19,1270.23 1036.68,1298.16 1039.16,1326.47 1041.64,1341.15 1044.13,1341.15 1046.61,1341.15 1049.09,1348.94 1051.58,1348.94 
  1054.06,1348.94 1056.54,1348.94 1059.03,1352.34 1061.51,1352.34 1063.99,1352.34 1066.48,1306.23 1068.96,1355.79 1071.44,1355.79 1073.93,1355.79 1076.41,1355.79 
  1078.89,1355.79 1081.38,1355.79 1083.86,1332.2 1086.34,1309.53 1088.83,1309.53 1091.31,1350.88 1093.79,1352.75 1096.28,1352.75 1098.76,1361.54 1101.24,1366.88 
  1103.73,1366.88 1106.21,1326.79 1108.69,1326.79 1111.18,1340.79 1113.66,1340.79 1116.14,1358.66 1118.63,1358.66 1121.11,1368.39 1123.59,1381.59 1126.08,1381.59 
  1128.56,1381.59 1131.04,1381.59 1133.53,1361.96 1136.01,1361.96 1138.49,1312.48 1140.98,1325.26 1143.46,1325.26 1145.94,1325.8 1148.43,1340.17 1150.91,1345.59 
  1153.39,1345.59 1155.88,1377.09 1158.36,1377.09 1160.84,1363.62 1163.33,1363.62 1165.81,1369.95 1168.29,1369.95 1170.78,1369.95 1173.26,1369.95 1175.74,1369.95 
  1178.23,1369.95 1180.71,1369.95 1183.19,1369.95 1185.68,1328.75 1188.16,1379.19 1190.64,1328.62 1193.13,1328.62 1195.61,1349.51 1198.09,1349.51 1200.57,1326.28 
  1203.06,1326.28 1205.54,1326.28 1208.02,1326.28 1210.51,1326.28 1212.99,1282.67 1215.47,1282.67 1217.96,1295.8 1220.44,1295.8 1222.92,1334.65 1225.41,1340.38 
  1227.89,1334.65 1230.37,1357.46 1232.86,1357.46 1235.34,1383.76 1237.82,1383.76 1240.31,1384.75 1242.79,1384.75 1245.27,1384.75 1247.76,1384.75 1250.24,1346.55 
  1252.72,1346.55 1255.21,1346.55 1257.69,1307.38 1260.17,1277.56 1262.66,1274.99 1265.14,1274.99 1267.62,1274.99 1270.11,1224.14 1272.59,1230.8 1275.07,1224.14 
  1277.56,1272.89 1280.04,1320.47 1282.52,1320.47 1285.01,1320.47 1287.49,1320.47 1289.97,1297.51 1292.46,1297.51 1294.94,1277.02 1297.42,1277.02 1299.91,1288.44 
  1302.39,1249.19 1304.87,1249.19 1307.36,1249.19 1309.84,1210.86 1312.32,1210.86 1314.81,1210.86 1317.29,1210.86 1319.77,1171.81 1322.26,1171.81 1324.74,1189.27 
  1327.22,1189.27 1329.71,1217.56 1332.19,1242.78 1334.67,1242.78 1337.16,1268.29 1339.64,1315.54 1342.12,1333.76 1344.61,1333.76 1347.09,1333.22 1349.57,1333.22 
  1352.06,1333.46 1354.54,1366.68 1357.02,1366.68 1359.51,1378.01 1361.99,1378.01 1364.47,1378.01 1366.96,1385.6 1369.44,1385.6 1371.92,1385.6 1374.41,1385.6 
  1376.89,1385.6 1379.37,1385.6 1381.86,1385.6 1384.34,1361.82 1386.82,1361.82 1389.31,1361.82 1391.79,1354.36 1394.27,1342.79 1396.76,1347.84 1399.24,1347.84 
  1401.72,1347.84 1404.21,1327.99 1406.69,1283.83 1409.17,1283.83 1411.66,1269.05 1414.14,1226.79 1416.62,1239.74 1419.11,1226.79 1421.59,1205.92 1424.07,1205.92 
  1426.56,1204.62 1429.04,1186.88 1431.52,1186.88 1434.01,1171.21 1436.49,1218.19 1438.97,1186.57 1441.46,1150.15 1443.94,1111.96 1446.42,1111.96 1448.91,1111.96 
  1451.39,1111.96 1453.87,1155.95 1456.36,1205.51 1458.84,1213.77 1461.32,1172.41 1463.81,1189.75 1466.29,1170.39 1468.77,1120.39 1471.26,1120.39 1473.74,1120.39 
  1476.22,1123.67 1478.71,1123.67 1481.19,1132.36 1483.67,1143.09 1486.16,1189.82 1488.64,1236.99 1491.12,1255.09 1493.61,1289.51 1496.09,1289.51 1498.57,1321.83 
  1501.06,1347.16 1503.54,1368.99 1506.02,1376.96 1508.51,1385.8 1510.99,1385.8 1513.47,1385.8 1515.96,1385.8 1518.44,1385.8 1520.92,1385.8 1523.41,1385.8 
  1525.89,1385.8 1528.37,1385.8 1530.86,1385.8 1533.34,1385.8 1535.82,1385.8 1538.3,1385.8 1540.79,1385.8 1543.27,1385.8 1545.75,1385.8 1548.24,1385.8 
  1550.72,1385.8 1553.2,1385.8 1555.69,1385.94 1558.17,1385.94 1560.65,1385.94 1563.14,1385.94 1565.62,1385.94 1568.1,1352.13 1570.59,1356.21 1573.07,1356.21 
  1575.55,1356.21 1578.04,1356.21 1580.52,1359.49 1583,1359.49 1585.49,1359.49 1587.97,1377.93 1590.45,1377.93 1592.94,1377.93 1595.42,1377.93 1597.9,1377.93 
  1600.39,1377.93 1602.87,1381.95 1605.35,1381.95 1607.84,1381.95 1610.32,1381.95 1612.8,1381.95 1615.29,1381.95 1617.77,1381.95 1620.25,1381.95 1622.74,1381.95 
  1625.22,1381.95 1627.7,1381.95 1630.19,1381.95 1632.67,1344.95 1635.15,1314.31 1637.64,1358.7 1640.12,1358.7 1642.6,1358.7 1645.09,1384.19 1647.57,1384.19 
  1650.05,1384.19 1652.54,1384.19 1655.02,1384.19 1657.5,1384.19 1659.99,1384.19 1662.47,1384.19 1664.95,1384.19 1667.44,1384.19 1669.92,1384.19 1672.4,1384.19 
  1674.89,1384.19 1677.37,1384.19 1679.85,1384.19 1682.34,1384.19 1684.82,1384.19 1687.3,1384.19 1689.79,1384.19 1692.27,1384.19 1694.75,1384.19 1697.24,1384.19 
  1699.72,1384.19 1702.2,1384.19 1704.69,1384.19 1707.17,1384.19 1709.65,1384.19 1712.14,1384.19 1714.62,1354.66 1717.1,1354.66 1719.59,1354.66 1722.07,1306.37 
  1724.55,1306.37 1727.04,1311.29 1729.52,1349.99 1732,1337.79 1734.49,1337.79 1736.97,1385.08 1739.45,1385.08 1741.94,1385.08 1744.42,1385.08 1746.9,1385.08 
  1749.39,1385.08 1751.87,1385.08 1754.35,1385.08 1756.84,1385.08 1759.32,1385.08 1761.8,1385.08 1764.29,1385.08 1766.77,1385.08 1769.25,1385.08 1771.74,1385.08 
  1774.22,1385.08 1776.7,1385.08 1779.19,1364.19 1781.67,1364.19 1784.15,1364.19 1786.64,1385.14 1789.12,1364.19 1791.6,1368.58 1794.09,1368.58 1796.57,1368.58 
  1799.05,1368.58 1801.54,1368.58 1804.02,1333 1806.5,1333 1808.99,1374.36 1811.47,1374.36 1813.95,1384.97 1816.44,1384.97 1818.92,1384.97 1821.4,1384.97 
  1823.89,1384.97 1826.37,1384.97 1828.85,1384.97 1831.34,1384.97 1833.82,1384.97 1836.3,1384.97 1838.79,1384.97 1841.27,1384.97 1843.75,1384.97 1846.24,1384.97 
  1848.72,1384.97 1851.2,1384.97 1853.69,1384.97 1856.17,1384.97 1858.65,1384.97 1861.14,1384.97 1863.62,1384.97 1866.1,1384.97 1868.59,1384.97 1871.07,1384.97 
  1873.55,1384.97 1876.04,1384.97 1878.52,1384.97 1881,1384.97 1883.48,1384.97 1885.97,1384.97 1888.45,1384.97 1890.93,1384.97 1893.42,1384.97 1895.9,1384.97 
  1898.38,1384.97 1900.87,1384.97 1903.35,1384.97 1905.83,1384.97 1908.32,1384.97 1910.8,1384.97 1913.28,1384.97 1915.77,1384.97 1918.25,1384.97 1920.73,1384.97 
  1923.22,1384.97 1925.7,1384.97 1928.18,1384.97 1930.67,1384.97 1933.15,1384.97 1935.63,1384.97 1938.12,1384.97 1940.6,1384.97 1943.08,1384.97 1945.57,1384.97 
  1948.05,1384.97 1950.53,1384.97 1953.02,1384.97 1955.5,1384.97 1957.98,1384.97 1960.47,1384.97 1962.95,1384.97 1965.43,1384.97 1967.92,1384.97 1970.4,1384.97 
  1972.88,1384.97 1975.37,1384.97 1977.85,1384.97 1980.33,1384.97 1982.82,1384.97 1985.3,1384.97 1987.78,1384.97 1990.27,1384.97 1992.75,1384.97 1995.23,1384.97 
  1997.72,1384.97 2000.2,1384.97 2002.68,1384.97 2005.17,1384.97 2007.65,1384.97 2010.13,1384.97 2012.62,1384.97 2015.1,1384.97 2017.58,1384.97 2020.07,1384.97 
  2022.55,1384.97 2025.03,1384.97 2027.52,1384.97 2030,1384.97 2032.48,1384.97 2034.97,1384.41 2037.45,1384.41 2039.93,1384.41 2042.42,1384.41 2044.9,1384.41 
  2047.38,1384.41 2049.87,1384.41 2052.35,1384.41 2054.83,1384.41 2057.32,1384.41 2059.8,1384.41 2062.28,1384.41 2064.77,1384.41 2067.25,1384.41 2069.73,1384.41 
  2072.22,1362.3 2074.7,1362.3 2077.18,1362.3 2079.67,1362.3 2082.15,1362.3 2084.63,1362.3 2087.12,1362.3 2089.6,1362.3 2092.08,1362.3 2094.57,1362.3 
  2097.05,1362.3 2099.53,1362.3 2102.02,1362.3 2104.5,1362.3 2106.98,1378.34 2109.47,1378.34 2111.95,1378.34 2114.43,1378.34 2116.92,1378.34 2119.4,1378.34 
  2121.88,1378.34 2124.37,1378.34 2126.85,1378.34 2129.33,1378.34 2131.82,1378.34 2134.3,1378.34 2136.78,1378.34 2139.27,1378.34 2141.75,1378.34 2144.23,1378.34 
  2146.72,1378.34 2149.2,1378.34 2151.68,1378.34 2154.17,1378.34 2156.65,1378.34 2159.13,1386.4 2161.62,1386.4 2164.1,1386.4 2166.58,1352 2169.07,1364.93 
  2171.55,1373.24 2174.03,1380.53 2176.52,1380.53 2179,1380.53 2181.48,1380.53 2183.97,1380.53 2186.45,1382.23 2188.93,1384.78 2191.42,1384.78 2193.9,1384.78 
  2196.38,1384.78 2198.87,1384.78 2201.35,1384.78 2203.83,1384.78 2206.32,1384.78 2208.8,1372.62 2211.28,1372.62 2213.77,1372.62 2216.25,1351.31 2218.73,1383.95 
  2221.22,1383.95 2223.7,1383.95 2226.18,1383.95 2228.66,1383.95 2231.15,1384.93 2233.63,1384.93 2236.11,1384.93 2238.6,1384.93 2241.08,1384.93 2243.56,1384.93 
  2246.05,1384.93 2248.53,1384.93 2251.01,1350.71 2253.5,1350.71 2255.98,1376.62 2258.46,1376.62 2260.95,1376.62 2263.43,1376.62 2265.91,1376.62 2268.4,1376.62 
  2270.88,1376.62 2273.36,1358.91 2275.85,1358.91 2278.33,1358.91 2280.81,1358.91 2283.3,1358.91 2285.78,1358.91 2288.26,1339.46 2290.75,1339.46 2293.23,1348.78 
  
  "/>
<path clip-path="url(#clip280)" d="
M1773.54 322.316 L2282.65 322.316 L2282.65 166.796 L1773.54 166.796  Z
  " fill="#ffffff" fill-rule="evenodd" fill-opacity="1"/>
<polyline clip-path="url(#clip280)" style="stroke:#000000; stroke-linecap:butt; stroke-linejoin:round; stroke-width:4; stroke-opacity:1; fill:none" points="
  1773.54,322.316 2282.65,322.316 2282.65,166.796 1773.54,166.796 1773.54,322.316 
  "/>
<polyline clip-path="url(#clip280)" style="stroke:#0000ff; stroke-linecap:butt; stroke-linejoin:round; stroke-width:4; stroke-opacity:1; fill:none" points="
  1796.91,218.636 1937.13,218.636 
  "/>
<path clip-path="url(#clip280)" d="M1965.17 205.198 L1965.17 218.184 L1971.05 218.184 Q1974.31 218.184 1976.1 216.495 Q1977.88 214.805 1977.88 211.68 Q1977.88 208.578 1976.1 206.888 Q1974.31 205.198 1971.05 205.198 L1965.17 205.198 M1960.5 201.356 L1971.05 201.356 Q1976.86 201.356 1979.82 203.995 Q1982.81 206.61 1982.81 211.68 Q1982.81 216.795 1979.82 219.411 Q1976.86 222.027 1971.05 222.027 L1965.17 222.027 L1965.17 235.916 L1960.5 235.916 L1960.5 201.356 Z" fill="#000000" fill-rule="evenodd" fill-opacity="1" /><path clip-path="url(#clip280)" d="M2003.09 213.971 Q2002.37 213.555 2001.51 213.37 Q2000.68 213.161 1999.66 213.161 Q1996.05 213.161 1994.11 215.522 Q1992.19 217.86 1992.19 222.258 L1992.19 235.916 L1987.9 235.916 L1987.9 209.99 L1992.19 209.99 L1992.19 214.018 Q1993.53 211.657 1995.68 210.522 Q1997.83 209.365 2000.91 209.365 Q2001.35 209.365 2001.88 209.434 Q2002.42 209.481 2003.06 209.596 L2003.09 213.971 Z" fill="#000000" fill-rule="evenodd" fill-opacity="1" /><path clip-path="url(#clip280)" d="M2016.56 212.976 Q2013.13 212.976 2011.14 215.661 Q2009.15 218.323 2009.15 222.976 Q2009.15 227.629 2011.12 230.314 Q2013.11 232.976 2016.56 232.976 Q2019.96 232.976 2021.95 230.291 Q2023.94 227.606 2023.94 222.976 Q2023.94 218.37 2021.95 215.684 Q2019.96 212.976 2016.56 212.976 M2016.56 209.365 Q2022.12 209.365 2025.29 212.976 Q2028.46 216.587 2028.46 222.976 Q2028.46 229.342 2025.29 232.976 Q2022.12 236.587 2016.56 236.587 Q2010.98 236.587 2007.81 232.976 Q2004.66 229.342 2004.66 222.976 Q2004.66 216.587 2007.81 212.976 Q2010.98 209.365 2016.56 209.365 Z" fill="#000000" fill-rule="evenodd" fill-opacity="1" /><path clip-path="url(#clip280)" d="M2052.58 213.925 L2052.58 199.897 L2056.84 199.897 L2056.84 235.916 L2052.58 235.916 L2052.58 232.027 Q2051.24 234.342 2049.18 235.476 Q2047.14 236.587 2044.27 236.587 Q2039.57 236.587 2036.61 232.837 Q2033.67 229.087 2033.67 222.976 Q2033.67 216.865 2036.61 213.115 Q2039.57 209.365 2044.27 209.365 Q2047.14 209.365 2049.18 210.499 Q2051.24 211.61 2052.58 213.925 M2038.06 222.976 Q2038.06 227.675 2039.99 230.36 Q2041.93 233.022 2045.31 233.022 Q2048.69 233.022 2050.63 230.36 Q2052.58 227.675 2052.58 222.976 Q2052.58 218.277 2050.63 215.615 Q2048.69 212.93 2045.31 212.93 Q2041.93 212.93 2039.99 215.615 Q2038.06 218.277 2038.06 222.976 Z" fill="#000000" fill-rule="evenodd" fill-opacity="1" /><path clip-path="url(#clip280)" d="M2065.17 225.684 L2065.17 209.99 L2069.43 209.99 L2069.43 225.522 Q2069.43 229.203 2070.87 231.055 Q2072.3 232.883 2075.17 232.883 Q2078.62 232.883 2080.61 230.684 Q2082.62 228.485 2082.62 224.689 L2082.62 209.99 L2086.88 209.99 L2086.88 235.916 L2082.62 235.916 L2082.62 231.934 Q2081.07 234.295 2079.01 235.453 Q2076.98 236.587 2074.27 236.587 Q2069.8 236.587 2067.49 233.809 Q2065.17 231.031 2065.17 225.684 M2075.89 209.365 L2075.89 209.365 Z" fill="#000000" fill-rule="evenodd" fill-opacity="1" /><path clip-path="url(#clip280)" d="M2114.31 210.985 L2114.31 214.967 Q2112.51 213.971 2110.68 213.485 Q2108.87 212.976 2107.02 212.976 Q2102.88 212.976 2100.59 215.615 Q2098.3 218.231 2098.3 222.976 Q2098.3 227.721 2100.59 230.36 Q2102.88 232.976 2107.02 232.976 Q2108.87 232.976 2110.68 232.49 Q2112.51 231.981 2114.31 230.985 L2114.31 234.92 Q2112.53 235.754 2110.61 236.17 Q2108.71 236.587 2106.56 236.587 Q2100.7 236.587 2097.25 232.906 Q2093.8 229.226 2093.8 222.976 Q2093.8 216.633 2097.28 212.999 Q2100.77 209.365 2106.84 209.365 Q2108.8 209.365 2110.68 209.782 Q2112.55 210.175 2114.31 210.985 Z" fill="#000000" fill-rule="evenodd" fill-opacity="1" /><path clip-path="url(#clip280)" d="M2143.9 221.888 L2143.9 223.971 L2124.31 223.971 Q2124.59 228.369 2126.95 230.684 Q2129.34 232.976 2133.57 232.976 Q2136.03 232.976 2138.32 232.374 Q2140.63 231.772 2142.9 230.569 L2142.9 234.596 Q2140.61 235.568 2138.2 236.078 Q2135.8 236.587 2133.32 236.587 Q2127.11 236.587 2123.48 232.976 Q2119.87 229.365 2119.87 223.207 Q2119.87 216.842 2123.3 213.115 Q2126.74 209.365 2132.58 209.365 Q2137.81 209.365 2140.84 212.745 Q2143.9 216.101 2143.9 221.888 M2139.64 220.638 Q2139.59 217.143 2137.67 215.059 Q2135.77 212.976 2132.62 212.976 Q2129.06 212.976 2126.91 214.99 Q2124.78 217.004 2124.45 220.661 L2139.64 220.638 Z" fill="#000000" fill-rule="evenodd" fill-opacity="1" /><path clip-path="url(#clip280)" d="M2172.44 220.268 L2172.44 235.916 L2168.18 235.916 L2168.18 220.407 Q2168.18 216.726 2166.74 214.897 Q2165.31 213.069 2162.44 213.069 Q2158.99 213.069 2157 215.268 Q2155.01 217.467 2155.01 221.263 L2155.01 235.916 L2150.73 235.916 L2150.73 209.99 L2155.01 209.99 L2155.01 214.018 Q2156.54 211.68 2158.6 210.522 Q2160.68 209.365 2163.39 209.365 Q2167.86 209.365 2170.15 212.143 Q2172.44 214.897 2172.44 220.268 Z" fill="#000000" fill-rule="evenodd" fill-opacity="1" /><path clip-path="url(#clip280)" d="M2185.15 202.629 L2185.15 209.99 L2193.92 209.99 L2193.92 213.3 L2185.15 213.3 L2185.15 227.374 Q2185.15 230.545 2186 231.448 Q2186.88 232.351 2189.55 232.351 L2193.92 232.351 L2193.92 235.916 L2189.55 235.916 Q2184.61 235.916 2182.74 234.087 Q2180.86 232.235 2180.86 227.374 L2180.86 213.3 L2177.74 213.3 L2177.74 209.99 L2180.86 209.99 L2180.86 202.629 L2185.15 202.629 Z" fill="#000000" fill-rule="evenodd" fill-opacity="1" /><path clip-path="url(#clip280)" d="M2216 231.981 L2223.64 231.981 L2223.64 205.615 L2215.33 207.282 L2215.33 203.022 L2223.6 201.356 L2228.27 201.356 L2228.27 231.981 L2235.91 231.981 L2235.91 235.916 L2216 235.916 L2216 231.981 Z" fill="#000000" fill-rule="evenodd" fill-opacity="1" /><polyline clip-path="url(#clip280)" style="stroke:#ffa500; stroke-linecap:butt; stroke-linejoin:round; stroke-width:4; stroke-opacity:1; fill:none" points="
  1796.91,270.476 1937.13,270.476 
  "/>
<path clip-path="url(#clip280)" d="M1965.17 257.038 L1965.17 270.024 L1971.05 270.024 Q1974.31 270.024 1976.1 268.335 Q1977.88 266.645 1977.88 263.52 Q1977.88 260.418 1976.1 258.728 Q1974.31 257.038 1971.05 257.038 L1965.17 257.038 M1960.5 253.196 L1971.05 253.196 Q1976.86 253.196 1979.82 255.835 Q1982.81 258.45 1982.81 263.52 Q1982.81 268.635 1979.82 271.251 Q1976.86 273.867 1971.05 273.867 L1965.17 273.867 L1965.17 287.756 L1960.5 287.756 L1960.5 253.196 Z" fill="#000000" fill-rule="evenodd" fill-opacity="1" /><path clip-path="url(#clip280)" d="M2003.09 265.811 Q2002.37 265.395 2001.51 265.21 Q2000.68 265.001 1999.66 265.001 Q1996.05 265.001 1994.11 267.362 Q1992.19 269.7 1992.19 274.098 L1992.19 287.756 L1987.9 287.756 L1987.9 261.83 L1992.19 261.83 L1992.19 265.858 Q1993.53 263.497 1995.68 262.362 Q1997.83 261.205 2000.91 261.205 Q2001.35 261.205 2001.88 261.274 Q2002.42 261.321 2003.06 261.436 L2003.09 265.811 Z" fill="#000000" fill-rule="evenodd" fill-opacity="1" /><path clip-path="url(#clip280)" d="M2016.56 264.816 Q2013.13 264.816 2011.14 267.501 Q2009.15 270.163 2009.15 274.816 Q2009.15 279.469 2011.12 282.154 Q2013.11 284.816 2016.56 284.816 Q2019.96 284.816 2021.95 282.131 Q2023.94 279.446 2023.94 274.816 Q2023.94 270.21 2021.95 267.524 Q2019.96 264.816 2016.56 264.816 M2016.56 261.205 Q2022.12 261.205 2025.29 264.816 Q2028.46 268.427 2028.46 274.816 Q2028.46 281.182 2025.29 284.816 Q2022.12 288.427 2016.56 288.427 Q2010.98 288.427 2007.81 284.816 Q2004.66 281.182 2004.66 274.816 Q2004.66 268.427 2007.81 264.816 Q2010.98 261.205 2016.56 261.205 Z" fill="#000000" fill-rule="evenodd" fill-opacity="1" /><path clip-path="url(#clip280)" d="M2052.58 265.765 L2052.58 251.737 L2056.84 251.737 L2056.84 287.756 L2052.58 287.756 L2052.58 283.867 Q2051.24 286.182 2049.18 287.316 Q2047.14 288.427 2044.27 288.427 Q2039.57 288.427 2036.61 284.677 Q2033.67 280.927 2033.67 274.816 Q2033.67 268.705 2036.61 264.955 Q2039.57 261.205 2044.27 261.205 Q2047.14 261.205 2049.18 262.339 Q2051.24 263.45 2052.58 265.765 M2038.06 274.816 Q2038.06 279.515 2039.99 282.2 Q2041.93 284.862 2045.31 284.862 Q2048.69 284.862 2050.63 282.2 Q2052.58 279.515 2052.58 274.816 Q2052.58 270.117 2050.63 267.455 Q2048.69 264.77 2045.31 264.77 Q2041.93 264.77 2039.99 267.455 Q2038.06 270.117 2038.06 274.816 Z" fill="#000000" fill-rule="evenodd" fill-opacity="1" /><path clip-path="url(#clip280)" d="M2065.17 277.524 L2065.17 261.83 L2069.43 261.83 L2069.43 277.362 Q2069.43 281.043 2070.87 282.895 Q2072.3 284.723 2075.17 284.723 Q2078.62 284.723 2080.61 282.524 Q2082.62 280.325 2082.62 276.529 L2082.62 261.83 L2086.88 261.83 L2086.88 287.756 L2082.62 287.756 L2082.62 283.774 Q2081.07 286.135 2079.01 287.293 Q2076.98 288.427 2074.27 288.427 Q2069.8 288.427 2067.49 285.649 Q2065.17 282.871 2065.17 277.524 M2075.89 261.205 L2075.89 261.205 Z" fill="#000000" fill-rule="evenodd" fill-opacity="1" /><path clip-path="url(#clip280)" d="M2114.31 262.825 L2114.31 266.807 Q2112.51 265.811 2110.68 265.325 Q2108.87 264.816 2107.02 264.816 Q2102.88 264.816 2100.59 267.455 Q2098.3 270.071 2098.3 274.816 Q2098.3 279.561 2100.59 282.2 Q2102.88 284.816 2107.02 284.816 Q2108.87 284.816 2110.68 284.33 Q2112.51 283.821 2114.31 282.825 L2114.31 286.76 Q2112.53 287.594 2110.61 288.01 Q2108.71 288.427 2106.56 288.427 Q2100.7 288.427 2097.25 284.746 Q2093.8 281.066 2093.8 274.816 Q2093.8 268.473 2097.28 264.839 Q2100.77 261.205 2106.84 261.205 Q2108.8 261.205 2110.68 261.622 Q2112.55 262.015 2114.31 262.825 Z" fill="#000000" fill-rule="evenodd" fill-opacity="1" /><path clip-path="url(#clip280)" d="M2143.9 273.728 L2143.9 275.811 L2124.31 275.811 Q2124.59 280.209 2126.95 282.524 Q2129.34 284.816 2133.57 284.816 Q2136.03 284.816 2138.32 284.214 Q2140.63 283.612 2142.9 282.409 L2142.9 286.436 Q2140.61 287.408 2138.2 287.918 Q2135.8 288.427 2133.32 288.427 Q2127.11 288.427 2123.48 284.816 Q2119.87 281.205 2119.87 275.047 Q2119.87 268.682 2123.3 264.955 Q2126.74 261.205 2132.58 261.205 Q2137.81 261.205 2140.84 264.585 Q2143.9 267.941 2143.9 273.728 M2139.64 272.478 Q2139.59 268.983 2137.67 266.899 Q2135.77 264.816 2132.62 264.816 Q2129.06 264.816 2126.91 266.83 Q2124.78 268.844 2124.45 272.501 L2139.64 272.478 Z" fill="#000000" fill-rule="evenodd" fill-opacity="1" /><path clip-path="url(#clip280)" d="M2172.44 272.108 L2172.44 287.756 L2168.18 287.756 L2168.18 272.247 Q2168.18 268.566 2166.74 266.737 Q2165.31 264.909 2162.44 264.909 Q2158.99 264.909 2157 267.108 Q2155.01 269.307 2155.01 273.103 L2155.01 287.756 L2150.73 287.756 L2150.73 261.83 L2155.01 261.83 L2155.01 265.858 Q2156.54 263.52 2158.6 262.362 Q2160.68 261.205 2163.39 261.205 Q2167.86 261.205 2170.15 263.983 Q2172.44 266.737 2172.44 272.108 Z" fill="#000000" fill-rule="evenodd" fill-opacity="1" /><path clip-path="url(#clip280)" d="M2185.15 254.469 L2185.15 261.83 L2193.92 261.83 L2193.92 265.14 L2185.15 265.14 L2185.15 279.214 Q2185.15 282.385 2186 283.288 Q2186.88 284.191 2189.55 284.191 L2193.92 284.191 L2193.92 287.756 L2189.55 287.756 Q2184.61 287.756 2182.74 285.927 Q2180.86 284.075 2180.86 279.214 L2180.86 265.14 L2177.74 265.14 L2177.74 261.83 L2180.86 261.83 L2180.86 254.469 L2185.15 254.469 Z" fill="#000000" fill-rule="evenodd" fill-opacity="1" /><path clip-path="url(#clip280)" d="M2219.22 283.821 L2235.54 283.821 L2235.54 287.756 L2213.6 287.756 L2213.6 283.821 Q2216.26 281.066 2220.84 276.436 Q2225.45 271.784 2226.63 270.441 Q2228.87 267.918 2229.75 266.182 Q2230.66 264.423 2230.66 262.733 Q2230.66 259.978 2228.71 258.242 Q2226.79 256.506 2223.69 256.506 Q2221.49 256.506 2219.04 257.27 Q2216.61 258.034 2213.83 259.585 L2213.83 254.862 Q2216.65 253.728 2219.11 253.149 Q2221.56 252.571 2223.6 252.571 Q2228.97 252.571 2232.16 255.256 Q2235.36 257.941 2235.36 262.432 Q2235.36 264.561 2234.54 266.483 Q2233.76 268.381 2231.65 270.973 Q2231.07 271.645 2227.97 274.862 Q2224.87 278.057 2219.22 283.821 Z" fill="#000000" fill-rule="evenodd" fill-opacity="1" /></svg>
