<?xml version="1.0" encoding="utf-8" standalone="no"?>
<!DOCTYPE svg PUBLIC "-//W3C//DTD SVG 1.1//EN"
  "http://www.w3.org/Graphics/SVG/1.1/DTD/svg11.dtd">
<svg xmlns:xlink="http://www.w3.org/1999/xlink" width="432pt" height="288pt" viewBox="0 0 432 288" xmlns="http://www.w3.org/2000/svg" version="1.1">
 <metadata>
  <rdf:RDF xmlns:dc="http://purl.org/dc/elements/1.1/" xmlns:cc="http://creativecommons.org/ns#" xmlns:rdf="http://www.w3.org/1999/02/22-rdf-syntax-ns#">
   <cc:Work>
    <dc:type rdf:resource="http://purl.org/dc/dcmitype/StillImage"/>
    <dc:date>2022-12-12T14:46:04.563265</dc:date>
    <dc:format>image/svg+xml</dc:format>
    <dc:creator>
     <cc:Agent>
      <dc:title>Matplotlib v3.5.2, https://matplotlib.org/</dc:title>
     </cc:Agent>
    </dc:creator>
   </cc:Work>
  </rdf:RDF>
 </metadata>
 <defs>
  <style type="text/css">*{stroke-linejoin: round; stroke-linecap: butt}</style>
 </defs>
 <g id="figure_1">
  <g id="patch_1">
   <path d="M 0 288 
L 432 288 
L 432 0 
L 0 0 
z
" style="fill: #ffffff"/>
  </g>
  <g id="axes_1">
   <g id="patch_2">
    <path d="M 43.991537 257.505354 
L 429.165354 257.505354 
L 429.165354 20.354646 
L 43.991537 20.354646 
z
" style="fill: #ffffff"/>
   </g>
   <g id="matplotlib.axis_1">
    <g id="xtick_1">
     <g id="line2d_1">
      <path d="M 106.8029 257.505354 
L 106.8029 20.354646 
" clip-path="url(#pa798a60cc4)" style="fill: none; stroke: #000000; stroke-opacity: 0.1; stroke-width: 0.5; stroke-linecap: square"/>
     </g>
     <g id="line2d_2">
      <defs>
       <path id="m7876b079e3" d="M 0 0 
L 0 -2.5 
" style="stroke: #000000; stroke-width: 0.5"/>
      </defs>
      <g>
       <use xlink:href="#m7876b079e3" x="106.8029" y="257.505354" style="stroke: #000000; stroke-width: 0.5"/>
      </g>
     </g>
     <g id="text_1">
      <!-- $2$ -->
      <g transform="translate(104.2429 267.084104)scale(0.08 -0.08)">
       <defs>
        <path id="DejaVuSans-32" d="M 1228 531 
L 3431 531 
L 3431 0 
L 469 0 
L 469 531 
Q 828 903 1448 1529 
Q 2069 2156 2228 2338 
Q 2531 2678 2651 2914 
Q 2772 3150 2772 3378 
Q 2772 3750 2511 3984 
Q 2250 4219 1831 4219 
Q 1534 4219 1204 4116 
Q 875 4013 500 3803 
L 500 4441 
Q 881 4594 1212 4672 
Q 1544 4750 1819 4750 
Q 2544 4750 2975 4387 
Q 3406 4025 3406 3419 
Q 3406 3131 3298 2873 
Q 3191 2616 2906 2266 
Q 2828 2175 2409 1742 
Q 1991 1309 1228 531 
z
" transform="scale(0.015625)"/>
       </defs>
       <use xlink:href="#DejaVuSans-32" transform="translate(0 0.78125)"/>
      </g>
     </g>
    </g>
    <g id="xtick_2">
     <g id="line2d_3">
      <path d="M 180.960355 257.505354 
L 180.960355 20.354646 
" clip-path="url(#pa798a60cc4)" style="fill: none; stroke: #000000; stroke-opacity: 0.1; stroke-width: 0.5; stroke-linecap: square"/>
     </g>
     <g id="line2d_4">
      <g>
       <use xlink:href="#m7876b079e3" x="180.960355" y="257.505354" style="stroke: #000000; stroke-width: 0.5"/>
      </g>
     </g>
     <g id="text_2">
      <!-- $4$ -->
      <g transform="translate(178.400355 267.084104)scale(0.08 -0.08)">
       <defs>
        <path id="DejaVuSans-34" d="M 2419 4116 
L 825 1625 
L 2419 1625 
L 2419 4116 
z
M 2253 4666 
L 3047 4666 
L 3047 1625 
L 3713 1625 
L 3713 1100 
L 3047 1100 
L 3047 0 
L 2419 0 
L 2419 1100 
L 313 1100 
L 313 1709 
L 2253 4666 
z
" transform="scale(0.015625)"/>
       </defs>
       <use xlink:href="#DejaVuSans-34" transform="translate(0 0.09375)"/>
      </g>
     </g>
    </g>
    <g id="xtick_3">
     <g id="line2d_5">
      <path d="M 255.117809 257.505354 
L 255.117809 20.354646 
" clip-path="url(#pa798a60cc4)" style="fill: none; stroke: #000000; stroke-opacity: 0.1; stroke-width: 0.5; stroke-linecap: square"/>
     </g>
     <g id="line2d_6">
      <g>
       <use xlink:href="#m7876b079e3" x="255.117809" y="257.505354" style="stroke: #000000; stroke-width: 0.5"/>
      </g>
     </g>
     <g id="text_3">
      <!-- $6$ -->
      <g transform="translate(252.557809 267.084104)scale(0.08 -0.08)">
       <defs>
        <path id="DejaVuSans-36" d="M 2113 2584 
Q 1688 2584 1439 2293 
Q 1191 2003 1191 1497 
Q 1191 994 1439 701 
Q 1688 409 2113 409 
Q 2538 409 2786 701 
Q 3034 994 3034 1497 
Q 3034 2003 2786 2293 
Q 2538 2584 2113 2584 
z
M 3366 4563 
L 3366 3988 
Q 3128 4100 2886 4159 
Q 2644 4219 2406 4219 
Q 1781 4219 1451 3797 
Q 1122 3375 1075 2522 
Q 1259 2794 1537 2939 
Q 1816 3084 2150 3084 
Q 2853 3084 3261 2657 
Q 3669 2231 3669 1497 
Q 3669 778 3244 343 
Q 2819 -91 2113 -91 
Q 1303 -91 875 529 
Q 447 1150 447 2328 
Q 447 3434 972 4092 
Q 1497 4750 2381 4750 
Q 2619 4750 2861 4703 
Q 3103 4656 3366 4563 
z
" transform="scale(0.015625)"/>
       </defs>
       <use xlink:href="#DejaVuSans-36" transform="translate(0 0.78125)"/>
      </g>
     </g>
    </g>
    <g id="xtick_4">
     <g id="line2d_7">
      <path d="M 329.275263 257.505354 
L 329.275263 20.354646 
" clip-path="url(#pa798a60cc4)" style="fill: none; stroke: #000000; stroke-opacity: 0.1; stroke-width: 0.5; stroke-linecap: square"/>
     </g>
     <g id="line2d_8">
      <g>
       <use xlink:href="#m7876b079e3" x="329.275263" y="257.505354" style="stroke: #000000; stroke-width: 0.5"/>
      </g>
     </g>
     <g id="text_4">
      <!-- $8$ -->
      <g transform="translate(326.715263 267.084104)scale(0.08 -0.08)">
       <defs>
        <path id="DejaVuSans-38" d="M 2034 2216 
Q 1584 2216 1326 1975 
Q 1069 1734 1069 1313 
Q 1069 891 1326 650 
Q 1584 409 2034 409 
Q 2484 409 2743 651 
Q 3003 894 3003 1313 
Q 3003 1734 2745 1975 
Q 2488 2216 2034 2216 
z
M 1403 2484 
Q 997 2584 770 2862 
Q 544 3141 544 3541 
Q 544 4100 942 4425 
Q 1341 4750 2034 4750 
Q 2731 4750 3128 4425 
Q 3525 4100 3525 3541 
Q 3525 3141 3298 2862 
Q 3072 2584 2669 2484 
Q 3125 2378 3379 2068 
Q 3634 1759 3634 1313 
Q 3634 634 3220 271 
Q 2806 -91 2034 -91 
Q 1263 -91 848 271 
Q 434 634 434 1313 
Q 434 1759 690 2068 
Q 947 2378 1403 2484 
z
M 1172 3481 
Q 1172 3119 1398 2916 
Q 1625 2713 2034 2713 
Q 2441 2713 2670 2916 
Q 2900 3119 2900 3481 
Q 2900 3844 2670 4047 
Q 2441 4250 2034 4250 
Q 1625 4250 1398 4047 
Q 1172 3844 1172 3481 
z
" transform="scale(0.015625)"/>
       </defs>
       <use xlink:href="#DejaVuSans-38" transform="translate(0 0.78125)"/>
      </g>
     </g>
    </g>
    <g id="xtick_5">
     <g id="line2d_9">
      <path d="M 403.432718 257.505354 
L 403.432718 20.354646 
" clip-path="url(#pa798a60cc4)" style="fill: none; stroke: #000000; stroke-opacity: 0.1; stroke-width: 0.5; stroke-linecap: square"/>
     </g>
     <g id="line2d_10">
      <g>
       <use xlink:href="#m7876b079e3" x="403.432718" y="257.505354" style="stroke: #000000; stroke-width: 0.5"/>
      </g>
     </g>
     <g id="text_5">
      <!-- $10$ -->
      <g transform="translate(398.312718 267.084104)scale(0.08 -0.08)">
       <defs>
        <path id="DejaVuSans-31" d="M 794 531 
L 1825 531 
L 1825 4091 
L 703 3866 
L 703 4441 
L 1819 4666 
L 2450 4666 
L 2450 531 
L 3481 531 
L 3481 0 
L 794 0 
L 794 531 
z
" transform="scale(0.015625)"/>
        <path id="DejaVuSans-30" d="M 2034 4250 
Q 1547 4250 1301 3770 
Q 1056 3291 1056 2328 
Q 1056 1369 1301 889 
Q 1547 409 2034 409 
Q 2525 409 2770 889 
Q 3016 1369 3016 2328 
Q 3016 3291 2770 3770 
Q 2525 4250 2034 4250 
z
M 2034 4750 
Q 2819 4750 3233 4129 
Q 3647 3509 3647 2328 
Q 3647 1150 3233 529 
Q 2819 -91 2034 -91 
Q 1250 -91 836 529 
Q 422 1150 422 2328 
Q 422 3509 836 4129 
Q 1250 4750 2034 4750 
z
" transform="scale(0.015625)"/>
       </defs>
       <use xlink:href="#DejaVuSans-31" transform="translate(0 0.78125)"/>
       <use xlink:href="#DejaVuSans-30" transform="translate(63.623047 0.78125)"/>
      </g>
     </g>
    </g>
    <g id="text_6">
     <!-- Maksymalna przydatność dobra [liczba okresów] -->
     <g transform="translate(102.499617 281.583948)scale(0.11 -0.11)">
      <defs>
       <path id="DejaVuSans-4d" d="M 628 4666 
L 1569 4666 
L 2759 1491 
L 3956 4666 
L 4897 4666 
L 4897 0 
L 4281 0 
L 4281 4097 
L 3078 897 
L 2444 897 
L 1241 4097 
L 1241 0 
L 628 0 
L 628 4666 
z
" transform="scale(0.015625)"/>
       <path id="DejaVuSans-61" d="M 2194 1759 
Q 1497 1759 1228 1600 
Q 959 1441 959 1056 
Q 959 750 1161 570 
Q 1363 391 1709 391 
Q 2188 391 2477 730 
Q 2766 1069 2766 1631 
L 2766 1759 
L 2194 1759 
z
M 3341 1997 
L 3341 0 
L 2766 0 
L 2766 531 
Q 2569 213 2275 61 
Q 1981 -91 1556 -91 
Q 1019 -91 701 211 
Q 384 513 384 1019 
Q 384 1609 779 1909 
Q 1175 2209 1959 2209 
L 2766 2209 
L 2766 2266 
Q 2766 2663 2505 2880 
Q 2244 3097 1772 3097 
Q 1472 3097 1187 3025 
Q 903 2953 641 2809 
L 641 3341 
Q 956 3463 1253 3523 
Q 1550 3584 1831 3584 
Q 2591 3584 2966 3190 
Q 3341 2797 3341 1997 
z
" transform="scale(0.015625)"/>
       <path id="DejaVuSans-6b" d="M 581 4863 
L 1159 4863 
L 1159 1991 
L 2875 3500 
L 3609 3500 
L 1753 1863 
L 3688 0 
L 2938 0 
L 1159 1709 
L 1159 0 
L 581 0 
L 581 4863 
z
" transform="scale(0.015625)"/>
       <path id="DejaVuSans-73" d="M 2834 3397 
L 2834 2853 
Q 2591 2978 2328 3040 
Q 2066 3103 1784 3103 
Q 1356 3103 1142 2972 
Q 928 2841 928 2578 
Q 928 2378 1081 2264 
Q 1234 2150 1697 2047 
L 1894 2003 
Q 2506 1872 2764 1633 
Q 3022 1394 3022 966 
Q 3022 478 2636 193 
Q 2250 -91 1575 -91 
Q 1294 -91 989 -36 
Q 684 19 347 128 
L 347 722 
Q 666 556 975 473 
Q 1284 391 1588 391 
Q 1994 391 2212 530 
Q 2431 669 2431 922 
Q 2431 1156 2273 1281 
Q 2116 1406 1581 1522 
L 1381 1569 
Q 847 1681 609 1914 
Q 372 2147 372 2553 
Q 372 3047 722 3315 
Q 1072 3584 1716 3584 
Q 2034 3584 2315 3537 
Q 2597 3491 2834 3397 
z
" transform="scale(0.015625)"/>
       <path id="DejaVuSans-79" d="M 2059 -325 
Q 1816 -950 1584 -1140 
Q 1353 -1331 966 -1331 
L 506 -1331 
L 506 -850 
L 844 -850 
Q 1081 -850 1212 -737 
Q 1344 -625 1503 -206 
L 1606 56 
L 191 3500 
L 800 3500 
L 1894 763 
L 2988 3500 
L 3597 3500 
L 2059 -325 
z
" transform="scale(0.015625)"/>
       <path id="DejaVuSans-6d" d="M 3328 2828 
Q 3544 3216 3844 3400 
Q 4144 3584 4550 3584 
Q 5097 3584 5394 3201 
Q 5691 2819 5691 2113 
L 5691 0 
L 5113 0 
L 5113 2094 
Q 5113 2597 4934 2840 
Q 4756 3084 4391 3084 
Q 3944 3084 3684 2787 
Q 3425 2491 3425 1978 
L 3425 0 
L 2847 0 
L 2847 2094 
Q 2847 2600 2669 2842 
Q 2491 3084 2119 3084 
Q 1678 3084 1418 2786 
Q 1159 2488 1159 1978 
L 1159 0 
L 581 0 
L 581 3500 
L 1159 3500 
L 1159 2956 
Q 1356 3278 1631 3431 
Q 1906 3584 2284 3584 
Q 2666 3584 2933 3390 
Q 3200 3197 3328 2828 
z
" transform="scale(0.015625)"/>
       <path id="DejaVuSans-6c" d="M 603 4863 
L 1178 4863 
L 1178 0 
L 603 0 
L 603 4863 
z
" transform="scale(0.015625)"/>
       <path id="DejaVuSans-6e" d="M 3513 2113 
L 3513 0 
L 2938 0 
L 2938 2094 
Q 2938 2591 2744 2837 
Q 2550 3084 2163 3084 
Q 1697 3084 1428 2787 
Q 1159 2491 1159 1978 
L 1159 0 
L 581 0 
L 581 3500 
L 1159 3500 
L 1159 2956 
Q 1366 3272 1645 3428 
Q 1925 3584 2291 3584 
Q 2894 3584 3203 3211 
Q 3513 2838 3513 2113 
z
" transform="scale(0.015625)"/>
       <path id="DejaVuSans-20" transform="scale(0.015625)"/>
       <path id="DejaVuSans-70" d="M 1159 525 
L 1159 -1331 
L 581 -1331 
L 581 3500 
L 1159 3500 
L 1159 2969 
Q 1341 3281 1617 3432 
Q 1894 3584 2278 3584 
Q 2916 3584 3314 3078 
Q 3713 2572 3713 1747 
Q 3713 922 3314 415 
Q 2916 -91 2278 -91 
Q 1894 -91 1617 61 
Q 1341 213 1159 525 
z
M 3116 1747 
Q 3116 2381 2855 2742 
Q 2594 3103 2138 3103 
Q 1681 3103 1420 2742 
Q 1159 2381 1159 1747 
Q 1159 1113 1420 752 
Q 1681 391 2138 391 
Q 2594 391 2855 752 
Q 3116 1113 3116 1747 
z
" transform="scale(0.015625)"/>
       <path id="DejaVuSans-72" d="M 2631 2963 
Q 2534 3019 2420 3045 
Q 2306 3072 2169 3072 
Q 1681 3072 1420 2755 
Q 1159 2438 1159 1844 
L 1159 0 
L 581 0 
L 581 3500 
L 1159 3500 
L 1159 2956 
Q 1341 3275 1631 3429 
Q 1922 3584 2338 3584 
Q 2397 3584 2469 3576 
Q 2541 3569 2628 3553 
L 2631 2963 
z
" transform="scale(0.015625)"/>
       <path id="DejaVuSans-7a" d="M 353 3500 
L 3084 3500 
L 3084 2975 
L 922 459 
L 3084 459 
L 3084 0 
L 275 0 
L 275 525 
L 2438 3041 
L 353 3041 
L 353 3500 
z
" transform="scale(0.015625)"/>
       <path id="DejaVuSans-64" d="M 2906 2969 
L 2906 4863 
L 3481 4863 
L 3481 0 
L 2906 0 
L 2906 525 
Q 2725 213 2448 61 
Q 2172 -91 1784 -91 
Q 1150 -91 751 415 
Q 353 922 353 1747 
Q 353 2572 751 3078 
Q 1150 3584 1784 3584 
Q 2172 3584 2448 3432 
Q 2725 3281 2906 2969 
z
M 947 1747 
Q 947 1113 1208 752 
Q 1469 391 1925 391 
Q 2381 391 2643 752 
Q 2906 1113 2906 1747 
Q 2906 2381 2643 2742 
Q 2381 3103 1925 3103 
Q 1469 3103 1208 2742 
Q 947 2381 947 1747 
z
" transform="scale(0.015625)"/>
       <path id="DejaVuSans-74" d="M 1172 4494 
L 1172 3500 
L 2356 3500 
L 2356 3053 
L 1172 3053 
L 1172 1153 
Q 1172 725 1289 603 
Q 1406 481 1766 481 
L 2356 481 
L 2356 0 
L 1766 0 
Q 1100 0 847 248 
Q 594 497 594 1153 
L 594 3053 
L 172 3053 
L 172 3500 
L 594 3500 
L 594 4494 
L 1172 4494 
z
" transform="scale(0.015625)"/>
       <path id="DejaVuSans-6f" d="M 1959 3097 
Q 1497 3097 1228 2736 
Q 959 2375 959 1747 
Q 959 1119 1226 758 
Q 1494 397 1959 397 
Q 2419 397 2687 759 
Q 2956 1122 2956 1747 
Q 2956 2369 2687 2733 
Q 2419 3097 1959 3097 
z
M 1959 3584 
Q 2709 3584 3137 3096 
Q 3566 2609 3566 1747 
Q 3566 888 3137 398 
Q 2709 -91 1959 -91 
Q 1206 -91 779 398 
Q 353 888 353 1747 
Q 353 2609 779 3096 
Q 1206 3584 1959 3584 
z
" transform="scale(0.015625)"/>
       <path id="DejaVuSans-15b" d="M 2241 5141 
L 2863 5141 
L 1844 3966 
L 1366 3966 
L 2241 5141 
z
M 2834 3397 
L 2834 2853 
Q 2591 2978 2328 3040 
Q 2066 3103 1784 3103 
Q 1356 3103 1142 2972 
Q 928 2841 928 2578 
Q 928 2378 1081 2264 
Q 1234 2150 1697 2047 
L 1894 2003 
Q 2506 1872 2764 1633 
Q 3022 1394 3022 966 
Q 3022 478 2636 193 
Q 2250 -91 1575 -91 
Q 1294 -91 989 -36 
Q 684 19 347 128 
L 347 722 
Q 666 556 975 473 
Q 1284 391 1588 391 
Q 1994 391 2212 530 
Q 2431 669 2431 922 
Q 2431 1156 2273 1281 
Q 2116 1406 1581 1522 
L 1381 1569 
Q 847 1681 609 1914 
Q 372 2147 372 2553 
Q 372 3047 722 3315 
Q 1072 3584 1716 3584 
Q 2034 3584 2315 3537 
Q 2597 3491 2834 3397 
z
" transform="scale(0.015625)"/>
       <path id="DejaVuSans-107" d="M 3122 3366 
L 3122 2828 
Q 2878 2963 2633 3030 
Q 2388 3097 2138 3097 
Q 1578 3097 1268 2742 
Q 959 2388 959 1747 
Q 959 1106 1268 751 
Q 1578 397 2138 397 
Q 2388 397 2633 464 
Q 2878 531 3122 666 
L 3122 134 
Q 2881 22 2623 -34 
Q 2366 -91 2075 -91 
Q 1284 -91 818 406 
Q 353 903 353 1747 
Q 353 2603 823 3093 
Q 1294 3584 2113 3584 
Q 2378 3584 2631 3529 
Q 2884 3475 3122 3366 
z
M 2463 5119 
L 3084 5119 
L 2066 3944 
L 1588 3944 
L 2463 5119 
z
" transform="scale(0.015625)"/>
       <path id="DejaVuSans-62" d="M 3116 1747 
Q 3116 2381 2855 2742 
Q 2594 3103 2138 3103 
Q 1681 3103 1420 2742 
Q 1159 2381 1159 1747 
Q 1159 1113 1420 752 
Q 1681 391 2138 391 
Q 2594 391 2855 752 
Q 3116 1113 3116 1747 
z
M 1159 2969 
Q 1341 3281 1617 3432 
Q 1894 3584 2278 3584 
Q 2916 3584 3314 3078 
Q 3713 2572 3713 1747 
Q 3713 922 3314 415 
Q 2916 -91 2278 -91 
Q 1894 -91 1617 61 
Q 1341 213 1159 525 
L 1159 0 
L 581 0 
L 581 4863 
L 1159 4863 
L 1159 2969 
z
" transform="scale(0.015625)"/>
       <path id="DejaVuSans-5b" d="M 550 4863 
L 1875 4863 
L 1875 4416 
L 1125 4416 
L 1125 -397 
L 1875 -397 
L 1875 -844 
L 550 -844 
L 550 4863 
z
" transform="scale(0.015625)"/>
       <path id="DejaVuSans-69" d="M 603 3500 
L 1178 3500 
L 1178 0 
L 603 0 
L 603 3500 
z
M 603 4863 
L 1178 4863 
L 1178 4134 
L 603 4134 
L 603 4863 
z
" transform="scale(0.015625)"/>
       <path id="DejaVuSans-63" d="M 3122 3366 
L 3122 2828 
Q 2878 2963 2633 3030 
Q 2388 3097 2138 3097 
Q 1578 3097 1268 2742 
Q 959 2388 959 1747 
Q 959 1106 1268 751 
Q 1578 397 2138 397 
Q 2388 397 2633 464 
Q 2878 531 3122 666 
L 3122 134 
Q 2881 22 2623 -34 
Q 2366 -91 2075 -91 
Q 1284 -91 818 406 
Q 353 903 353 1747 
Q 353 2603 823 3093 
Q 1294 3584 2113 3584 
Q 2378 3584 2631 3529 
Q 2884 3475 3122 3366 
z
" transform="scale(0.015625)"/>
       <path id="DejaVuSans-65" d="M 3597 1894 
L 3597 1613 
L 953 1613 
Q 991 1019 1311 708 
Q 1631 397 2203 397 
Q 2534 397 2845 478 
Q 3156 559 3463 722 
L 3463 178 
Q 3153 47 2828 -22 
Q 2503 -91 2169 -91 
Q 1331 -91 842 396 
Q 353 884 353 1716 
Q 353 2575 817 3079 
Q 1281 3584 2069 3584 
Q 2775 3584 3186 3129 
Q 3597 2675 3597 1894 
z
M 3022 2063 
Q 3016 2534 2758 2815 
Q 2500 3097 2075 3097 
Q 1594 3097 1305 2825 
Q 1016 2553 972 2059 
L 3022 2063 
z
" transform="scale(0.015625)"/>
       <path id="DejaVuSans-f3" d="M 1959 3097 
Q 1497 3097 1228 2736 
Q 959 2375 959 1747 
Q 959 1119 1226 758 
Q 1494 397 1959 397 
Q 2419 397 2687 759 
Q 2956 1122 2956 1747 
Q 2956 2369 2687 2733 
Q 2419 3097 1959 3097 
z
M 1959 3584 
Q 2709 3584 3137 3096 
Q 3566 2609 3566 1747 
Q 3566 888 3137 398 
Q 2709 -91 1959 -91 
Q 1206 -91 779 398 
Q 353 888 353 1747 
Q 353 2609 779 3096 
Q 1206 3584 1959 3584 
z
M 2394 5119 
L 3016 5119 
L 1997 3944 
L 1519 3944 
L 2394 5119 
z
" transform="scale(0.015625)"/>
       <path id="DejaVuSans-77" d="M 269 3500 
L 844 3500 
L 1563 769 
L 2278 3500 
L 2956 3500 
L 3675 769 
L 4391 3500 
L 4966 3500 
L 4050 0 
L 3372 0 
L 2619 2869 
L 1863 0 
L 1184 0 
L 269 3500 
z
" transform="scale(0.015625)"/>
       <path id="DejaVuSans-5d" d="M 1947 4863 
L 1947 -844 
L 622 -844 
L 622 -397 
L 1369 -397 
L 1369 4416 
L 622 4416 
L 622 4863 
L 1947 4863 
z
" transform="scale(0.015625)"/>
      </defs>
      <use xlink:href="#DejaVuSans-4d"/>
      <use xlink:href="#DejaVuSans-61" x="86.279297"/>
      <use xlink:href="#DejaVuSans-6b" x="147.558594"/>
      <use xlink:href="#DejaVuSans-73" x="205.46875"/>
      <use xlink:href="#DejaVuSans-79" x="257.568359"/>
      <use xlink:href="#DejaVuSans-6d" x="316.748047"/>
      <use xlink:href="#DejaVuSans-61" x="414.160156"/>
      <use xlink:href="#DejaVuSans-6c" x="475.439453"/>
      <use xlink:href="#DejaVuSans-6e" x="503.222656"/>
      <use xlink:href="#DejaVuSans-61" x="566.601562"/>
      <use xlink:href="#DejaVuSans-20" x="627.880859"/>
      <use xlink:href="#DejaVuSans-70" x="659.667969"/>
      <use xlink:href="#DejaVuSans-72" x="723.144531"/>
      <use xlink:href="#DejaVuSans-7a" x="764.257812"/>
      <use xlink:href="#DejaVuSans-79" x="816.748047"/>
      <use xlink:href="#DejaVuSans-64" x="875.927734"/>
      <use xlink:href="#DejaVuSans-61" x="939.404297"/>
      <use xlink:href="#DejaVuSans-74" x="1000.683594"/>
      <use xlink:href="#DejaVuSans-6e" x="1039.892578"/>
      <use xlink:href="#DejaVuSans-6f" x="1103.271484"/>
      <use xlink:href="#DejaVuSans-15b" x="1164.453125"/>
      <use xlink:href="#DejaVuSans-107" x="1216.552734"/>
      <use xlink:href="#DejaVuSans-20" x="1271.533203"/>
      <use xlink:href="#DejaVuSans-64" x="1303.320312"/>
      <use xlink:href="#DejaVuSans-6f" x="1366.796875"/>
      <use xlink:href="#DejaVuSans-62" x="1427.978516"/>
      <use xlink:href="#DejaVuSans-72" x="1491.455078"/>
      <use xlink:href="#DejaVuSans-61" x="1532.568359"/>
      <use xlink:href="#DejaVuSans-20" x="1593.847656"/>
      <use xlink:href="#DejaVuSans-5b" x="1625.634766"/>
      <use xlink:href="#DejaVuSans-6c" x="1664.648438"/>
      <use xlink:href="#DejaVuSans-69" x="1692.431641"/>
      <use xlink:href="#DejaVuSans-63" x="1720.214844"/>
      <use xlink:href="#DejaVuSans-7a" x="1775.195312"/>
      <use xlink:href="#DejaVuSans-62" x="1827.685547"/>
      <use xlink:href="#DejaVuSans-61" x="1891.162109"/>
      <use xlink:href="#DejaVuSans-20" x="1952.441406"/>
      <use xlink:href="#DejaVuSans-6f" x="1984.228516"/>
      <use xlink:href="#DejaVuSans-6b" x="2045.410156"/>
      <use xlink:href="#DejaVuSans-72" x="2103.320312"/>
      <use xlink:href="#DejaVuSans-65" x="2142.183594"/>
      <use xlink:href="#DejaVuSans-73" x="2203.707031"/>
      <use xlink:href="#DejaVuSans-f3" x="2255.806641"/>
      <use xlink:href="#DejaVuSans-77" x="2316.988281"/>
      <use xlink:href="#DejaVuSans-5d" x="2398.775391"/>
     </g>
    </g>
   </g>
   <g id="matplotlib.axis_2">
    <g id="ytick_1">
     <g id="line2d_11">
      <path d="M 43.991537 257.505354 
L 429.165354 257.505354 
" clip-path="url(#pa798a60cc4)" style="fill: none; stroke: #000000; stroke-opacity: 0.1; stroke-width: 0.5; stroke-linecap: square"/>
     </g>
     <g id="line2d_12">
      <defs>
       <path id="me893c53a57" d="M 0 0 
L 2.5 0 
" style="stroke: #000000; stroke-width: 0.5"/>
      </defs>
      <g>
       <use xlink:href="#me893c53a57" x="43.991537" y="257.505354" style="stroke: #000000; stroke-width: 0.5"/>
      </g>
     </g>
     <g id="text_7">
      <!-- $-500$ -->
      <g transform="translate(18.491537 260.544729)scale(0.08 -0.08)">
       <defs>
        <path id="DejaVuSans-2212" d="M 678 2272 
L 4684 2272 
L 4684 1741 
L 678 1741 
L 678 2272 
z
" transform="scale(0.015625)"/>
        <path id="DejaVuSans-35" d="M 691 4666 
L 3169 4666 
L 3169 4134 
L 1269 4134 
L 1269 2991 
Q 1406 3038 1543 3061 
Q 1681 3084 1819 3084 
Q 2600 3084 3056 2656 
Q 3513 2228 3513 1497 
Q 3513 744 3044 326 
Q 2575 -91 1722 -91 
Q 1428 -91 1123 -41 
Q 819 9 494 109 
L 494 744 
Q 775 591 1075 516 
Q 1375 441 1709 441 
Q 2250 441 2565 725 
Q 2881 1009 2881 1497 
Q 2881 1984 2565 2268 
Q 2250 2553 1709 2553 
Q 1456 2553 1204 2497 
Q 953 2441 691 2322 
L 691 4666 
z
" transform="scale(0.015625)"/>
       </defs>
       <use xlink:href="#DejaVuSans-2212" transform="translate(0 0.78125)"/>
       <use xlink:href="#DejaVuSans-35" transform="translate(83.789062 0.78125)"/>
       <use xlink:href="#DejaVuSans-30" transform="translate(147.412109 0.78125)"/>
       <use xlink:href="#DejaVuSans-30" transform="translate(211.035156 0.78125)"/>
      </g>
     </g>
    </g>
    <g id="ytick_2">
     <g id="line2d_13">
      <path d="M 43.991537 223.626682 
L 429.165354 223.626682 
" clip-path="url(#pa798a60cc4)" style="fill: none; stroke: #000000; stroke-opacity: 0.1; stroke-width: 0.5; stroke-linecap: square"/>
     </g>
     <g id="line2d_14">
      <g>
       <use xlink:href="#me893c53a57" x="43.991537" y="223.626682" style="stroke: #000000; stroke-width: 0.5"/>
      </g>
     </g>
     <g id="text_8">
      <!-- $0$ -->
      <g transform="translate(35.371537 226.666057)scale(0.08 -0.08)">
       <use xlink:href="#DejaVuSans-30" transform="translate(0 0.78125)"/>
      </g>
     </g>
    </g>
    <g id="ytick_3">
     <g id="line2d_15">
      <path d="M 43.991537 189.748009 
L 429.165354 189.748009 
" clip-path="url(#pa798a60cc4)" style="fill: none; stroke: #000000; stroke-opacity: 0.1; stroke-width: 0.5; stroke-linecap: square"/>
     </g>
     <g id="line2d_16">
      <g>
       <use xlink:href="#me893c53a57" x="43.991537" y="189.748009" style="stroke: #000000; stroke-width: 0.5"/>
      </g>
     </g>
     <g id="text_9">
      <!-- $500$ -->
      <g transform="translate(25.211537 192.787384)scale(0.08 -0.08)">
       <use xlink:href="#DejaVuSans-35" transform="translate(0 0.78125)"/>
       <use xlink:href="#DejaVuSans-30" transform="translate(63.623047 0.78125)"/>
       <use xlink:href="#DejaVuSans-30" transform="translate(127.246094 0.78125)"/>
      </g>
     </g>
    </g>
    <g id="ytick_4">
     <g id="line2d_17">
      <path d="M 43.991537 155.869336 
L 429.165354 155.869336 
" clip-path="url(#pa798a60cc4)" style="fill: none; stroke: #000000; stroke-opacity: 0.1; stroke-width: 0.5; stroke-linecap: square"/>
     </g>
     <g id="line2d_18">
      <g>
       <use xlink:href="#me893c53a57" x="43.991537" y="155.869336" style="stroke: #000000; stroke-width: 0.5"/>
      </g>
     </g>
     <g id="text_10">
      <!-- $1000$ -->
      <g transform="translate(20.091537 158.908711)scale(0.08 -0.08)">
       <use xlink:href="#DejaVuSans-31" transform="translate(0 0.78125)"/>
       <use xlink:href="#DejaVuSans-30" transform="translate(63.623047 0.78125)"/>
       <use xlink:href="#DejaVuSans-30" transform="translate(127.246094 0.78125)"/>
       <use xlink:href="#DejaVuSans-30" transform="translate(190.869141 0.78125)"/>
      </g>
     </g>
    </g>
    <g id="ytick_5">
     <g id="line2d_19">
      <path d="M 43.991537 121.990664 
L 429.165354 121.990664 
" clip-path="url(#pa798a60cc4)" style="fill: none; stroke: #000000; stroke-opacity: 0.1; stroke-width: 0.5; stroke-linecap: square"/>
     </g>
     <g id="line2d_20">
      <g>
       <use xlink:href="#me893c53a57" x="43.991537" y="121.990664" style="stroke: #000000; stroke-width: 0.5"/>
      </g>
     </g>
     <g id="text_11">
      <!-- $1500$ -->
      <g transform="translate(20.091537 125.030039)scale(0.08 -0.08)">
       <use xlink:href="#DejaVuSans-31" transform="translate(0 0.78125)"/>
       <use xlink:href="#DejaVuSans-35" transform="translate(63.623047 0.78125)"/>
       <use xlink:href="#DejaVuSans-30" transform="translate(127.246094 0.78125)"/>
       <use xlink:href="#DejaVuSans-30" transform="translate(190.869141 0.78125)"/>
      </g>
     </g>
    </g>
    <g id="ytick_6">
     <g id="line2d_21">
      <path d="M 43.991537 88.111991 
L 429.165354 88.111991 
" clip-path="url(#pa798a60cc4)" style="fill: none; stroke: #000000; stroke-opacity: 0.1; stroke-width: 0.5; stroke-linecap: square"/>
     </g>
     <g id="line2d_22">
      <g>
       <use xlink:href="#me893c53a57" x="43.991537" y="88.111991" style="stroke: #000000; stroke-width: 0.5"/>
      </g>
     </g>
     <g id="text_12">
      <!-- $2000$ -->
      <g transform="translate(20.091537 91.151366)scale(0.08 -0.08)">
       <use xlink:href="#DejaVuSans-32" transform="translate(0 0.78125)"/>
       <use xlink:href="#DejaVuSans-30" transform="translate(63.623047 0.78125)"/>
       <use xlink:href="#DejaVuSans-30" transform="translate(127.246094 0.78125)"/>
       <use xlink:href="#DejaVuSans-30" transform="translate(190.869141 0.78125)"/>
      </g>
     </g>
    </g>
    <g id="ytick_7">
     <g id="line2d_23">
      <path d="M 43.991537 54.233318 
L 429.165354 54.233318 
" clip-path="url(#pa798a60cc4)" style="fill: none; stroke: #000000; stroke-opacity: 0.1; stroke-width: 0.5; stroke-linecap: square"/>
     </g>
     <g id="line2d_24">
      <g>
       <use xlink:href="#me893c53a57" x="43.991537" y="54.233318" style="stroke: #000000; stroke-width: 0.5"/>
      </g>
     </g>
     <g id="text_13">
      <!-- $2500$ -->
      <g transform="translate(20.091537 57.272693)scale(0.08 -0.08)">
       <use xlink:href="#DejaVuSans-32" transform="translate(0 0.78125)"/>
       <use xlink:href="#DejaVuSans-35" transform="translate(63.623047 0.78125)"/>
       <use xlink:href="#DejaVuSans-30" transform="translate(127.246094 0.78125)"/>
       <use xlink:href="#DejaVuSans-30" transform="translate(190.869141 0.78125)"/>
      </g>
     </g>
    </g>
    <g id="ytick_8">
     <g id="line2d_25">
      <path d="M 43.991537 20.354646 
L 429.165354 20.354646 
" clip-path="url(#pa798a60cc4)" style="fill: none; stroke: #000000; stroke-opacity: 0.1; stroke-width: 0.5; stroke-linecap: square"/>
     </g>
     <g id="line2d_26">
      <g>
       <use xlink:href="#me893c53a57" x="43.991537" y="20.354646" style="stroke: #000000; stroke-width: 0.5"/>
      </g>
     </g>
     <g id="text_14">
      <!-- $3000$ -->
      <g transform="translate(20.091537 23.394021)scale(0.08 -0.08)">
       <defs>
        <path id="DejaVuSans-33" d="M 2597 2516 
Q 3050 2419 3304 2112 
Q 3559 1806 3559 1356 
Q 3559 666 3084 287 
Q 2609 -91 1734 -91 
Q 1441 -91 1130 -33 
Q 819 25 488 141 
L 488 750 
Q 750 597 1062 519 
Q 1375 441 1716 441 
Q 2309 441 2620 675 
Q 2931 909 2931 1356 
Q 2931 1769 2642 2001 
Q 2353 2234 1838 2234 
L 1294 2234 
L 1294 2753 
L 1863 2753 
Q 2328 2753 2575 2939 
Q 2822 3125 2822 3475 
Q 2822 3834 2567 4026 
Q 2313 4219 1838 4219 
Q 1578 4219 1281 4162 
Q 984 4106 628 3988 
L 628 4550 
Q 988 4650 1302 4700 
Q 1616 4750 1894 4750 
Q 2613 4750 3031 4423 
Q 3450 4097 3450 3541 
Q 3450 3153 3228 2886 
Q 3006 2619 2597 2516 
z
" transform="scale(0.015625)"/>
       </defs>
       <use xlink:href="#DejaVuSans-33" transform="translate(0 0.78125)"/>
       <use xlink:href="#DejaVuSans-30" transform="translate(63.623047 0.78125)"/>
       <use xlink:href="#DejaVuSans-30" transform="translate(127.246094 0.78125)"/>
       <use xlink:href="#DejaVuSans-30" transform="translate(190.869141 0.78125)"/>
      </g>
     </g>
    </g>
    <g id="text_15">
     <!-- Zysk firmy -->
     <g transform="translate(12.20388 167.992344)rotate(-90)scale(0.11 -0.11)">
      <defs>
       <path id="DejaVuSans-5a" d="M 359 4666 
L 4025 4666 
L 4025 4184 
L 1075 531 
L 4097 531 
L 4097 0 
L 288 0 
L 288 481 
L 3238 4134 
L 359 4134 
L 359 4666 
z
" transform="scale(0.015625)"/>
       <path id="DejaVuSans-66" d="M 2375 4863 
L 2375 4384 
L 1825 4384 
Q 1516 4384 1395 4259 
Q 1275 4134 1275 3809 
L 1275 3500 
L 2222 3500 
L 2222 3053 
L 1275 3053 
L 1275 0 
L 697 0 
L 697 3053 
L 147 3053 
L 147 3500 
L 697 3500 
L 697 3744 
Q 697 4328 969 4595 
Q 1241 4863 1831 4863 
L 2375 4863 
z
" transform="scale(0.015625)"/>
      </defs>
      <use xlink:href="#DejaVuSans-5a"/>
      <use xlink:href="#DejaVuSans-79" x="68.505859"/>
      <use xlink:href="#DejaVuSans-73" x="127.685547"/>
      <use xlink:href="#DejaVuSans-6b" x="179.785156"/>
      <use xlink:href="#DejaVuSans-20" x="237.695312"/>
      <use xlink:href="#DejaVuSans-66" x="269.482422"/>
      <use xlink:href="#DejaVuSans-69" x="304.6875"/>
      <use xlink:href="#DejaVuSans-72" x="332.470703"/>
      <use xlink:href="#DejaVuSans-6d" x="371.833984"/>
      <use xlink:href="#DejaVuSans-79" x="469.246094"/>
     </g>
    </g>
   </g>
   <g id="patch_3">
    <path d="M 69.724173 223.771256 
L 62.308428 223.771256 
L 77.139919 223.771256 
L 69.724173 223.771256 
L 69.724173 223.526364 
" clip-path="url(#pa798a60cc4)" style="fill: #009afa; stroke: #000000; stroke-linejoin: miter"/>
   </g>
   <g id="patch_4">
    <path d="M 84.555664 223.526364 
L 84.555664 223.00282 
L 54.892682 223.00282 
L 54.892682 223.526364 
L 84.555664 223.526364 
L 84.555664 223.00282 
" clip-path="url(#pa798a60cc4)" style="fill: #009afa; stroke: #000000; stroke-linejoin: miter"/>
   </g>
   <g id="patch_5">
    <path d="M 84.555664 214.705449 
L 54.892682 214.705449 
L 54.892682 223.00282 
L 84.555664 223.00282 
L 84.555664 214.705449 
L 69.724173 214.705449 
" clip-path="url(#pa798a60cc4)" style="fill: #009afa; stroke: #000000; stroke-linejoin: miter"/>
   </g>
   <g id="patch_6">
    <path d="M 69.724173 201.686001 
L 62.308428 201.686001 
L 77.139919 201.686001 
L 69.724173 201.686001 
L 69.724173 214.705449 
" clip-path="url(#pa798a60cc4)" style="fill: #009afa; stroke: #000000; stroke-linejoin: miter"/>
   </g>
   <g id="PathCollection_1">
    <defs>
     <path id="m224820b4c7" d="M 0 2 
C 0.530406 2 1.03916 1.789267 1.414214 1.414214 
C 1.789267 1.03916 2 0.530406 2 0 
C 2 -0.530406 1.789267 -1.03916 1.414214 -1.414214 
C 1.03916 -1.789267 0.530406 -2 0 -2 
C -0.530406 -2 -1.03916 -1.789267 -1.414214 -1.414214 
C -1.789267 -1.03916 -2 -0.530406 -2 0 
C -2 0.530406 -1.789267 1.03916 -1.414214 1.414214 
C -1.03916 1.789267 -0.530406 2 0 2 
z
" style="stroke: #000000"/>
    </defs>
    <g clip-path="url(#pa798a60cc4)">
     <use xlink:href="#m224820b4c7" x="69.724173" y="196.484686" style="fill: #009afa; stroke: #000000"/>
     <use xlink:href="#m224820b4c7" x="69.724173" y="193.753296" style="fill: #009afa; stroke: #000000"/>
     <use xlink:href="#m224820b4c7" x="69.724173" y="193.067151" style="fill: #009afa; stroke: #000000"/>
     <use xlink:href="#m224820b4c7" x="69.724173" y="150.156104" style="fill: #009afa; stroke: #000000"/>
     <use xlink:href="#m224820b4c7" x="69.724173" y="130.456259" style="fill: #009afa; stroke: #000000"/>
     <use xlink:href="#m224820b4c7" x="69.724173" y="160.118454" style="fill: #009afa; stroke: #000000"/>
     <use xlink:href="#m224820b4c7" x="69.724173" y="177.481008" style="fill: #009afa; stroke: #000000"/>
     <use xlink:href="#m224820b4c7" x="69.724173" y="170.557519" style="fill: #009afa; stroke: #000000"/>
     <use xlink:href="#m224820b4c7" x="69.724173" y="129.257084" style="fill: #009afa; stroke: #000000"/>
     <use xlink:href="#m224820b4c7" x="69.724173" y="200.028794" style="fill: #009afa; stroke: #000000"/>
     <use xlink:href="#m224820b4c7" x="69.724173" y="185.911459" style="fill: #009afa; stroke: #000000"/>
     <use xlink:href="#m224820b4c7" x="69.724173" y="195.937523" style="fill: #009afa; stroke: #000000"/>
     <use xlink:href="#m224820b4c7" x="69.724173" y="175.075253" style="fill: #009afa; stroke: #000000"/>
     <use xlink:href="#m224820b4c7" x="69.724173" y="180.198872" style="fill: #009afa; stroke: #000000"/>
     <use xlink:href="#m224820b4c7" x="69.724173" y="198.369744" style="fill: #009afa; stroke: #000000"/>
     <use xlink:href="#m224820b4c7" x="69.724173" y="175.975215" style="fill: #009afa; stroke: #000000"/>
     <use xlink:href="#m224820b4c7" x="69.724173" y="195.968695" style="fill: #009afa; stroke: #000000"/>
     <use xlink:href="#m224820b4c7" x="69.724173" y="196.343477" style="fill: #009afa; stroke: #000000"/>
     <use xlink:href="#m224820b4c7" x="69.724173" y="177.173794" style="fill: #009afa; stroke: #000000"/>
     <use xlink:href="#m224820b4c7" x="69.724173" y="103.111252" style="fill: #009afa; stroke: #000000"/>
     <use xlink:href="#m224820b4c7" x="69.724173" y="168.232783" style="fill: #009afa; stroke: #000000"/>
     <use xlink:href="#m224820b4c7" x="69.724173" y="151.860402" style="fill: #009afa; stroke: #000000"/>
     <use xlink:href="#m224820b4c7" x="69.724173" y="192.62151" style="fill: #009afa; stroke: #000000"/>
     <use xlink:href="#m224820b4c7" x="69.724173" y="200.343275" style="fill: #009afa; stroke: #000000"/>
     <use xlink:href="#m224820b4c7" x="69.724173" y="176.576766" style="fill: #009afa; stroke: #000000"/>
     <use xlink:href="#m224820b4c7" x="69.724173" y="187.804166" style="fill: #009afa; stroke: #000000"/>
     <use xlink:href="#m224820b4c7" x="69.724173" y="171.692027" style="fill: #009afa; stroke: #000000"/>
     <use xlink:href="#m224820b4c7" x="69.724173" y="170.962986" style="fill: #009afa; stroke: #000000"/>
     <use xlink:href="#m224820b4c7" x="69.724173" y="181.542409" style="fill: #009afa; stroke: #000000"/>
     <use xlink:href="#m224820b4c7" x="69.724173" y="174.843541" style="fill: #009afa; stroke: #000000"/>
     <use xlink:href="#m224820b4c7" x="69.724173" y="133.968709" style="fill: #009afa; stroke: #000000"/>
     <use xlink:href="#m224820b4c7" x="69.724173" y="198.261946" style="fill: #009afa; stroke: #000000"/>
     <use xlink:href="#m224820b4c7" x="69.724173" y="189.611347" style="fill: #009afa; stroke: #000000"/>
     <use xlink:href="#m224820b4c7" x="69.724173" y="166.656931" style="fill: #009afa; stroke: #000000"/>
     <use xlink:href="#m224820b4c7" x="69.724173" y="197.693302" style="fill: #009afa; stroke: #000000"/>
     <use xlink:href="#m224820b4c7" x="69.724173" y="151.758267" style="fill: #009afa; stroke: #000000"/>
     <use xlink:href="#m224820b4c7" x="69.724173" y="181.036108" style="fill: #009afa; stroke: #000000"/>
     <use xlink:href="#m224820b4c7" x="69.724173" y="182.402248" style="fill: #009afa; stroke: #000000"/>
     <use xlink:href="#m224820b4c7" x="69.724173" y="167.007375" style="fill: #009afa; stroke: #000000"/>
     <use xlink:href="#m224820b4c7" x="69.724173" y="191.483949" style="fill: #009afa; stroke: #000000"/>
     <use xlink:href="#m224820b4c7" x="69.724173" y="148.429641" style="fill: #009afa; stroke: #000000"/>
     <use xlink:href="#m224820b4c7" x="69.724173" y="156.867941" style="fill: #009afa; stroke: #000000"/>
     <use xlink:href="#m224820b4c7" x="69.724173" y="201.053057" style="fill: #009afa; stroke: #000000"/>
     <use xlink:href="#m224820b4c7" x="69.724173" y="192.757236" style="fill: #009afa; stroke: #000000"/>
     <use xlink:href="#m224820b4c7" x="69.724173" y="184.074937" style="fill: #009afa; stroke: #000000"/>
     <use xlink:href="#m224820b4c7" x="69.724173" y="153.169337" style="fill: #009afa; stroke: #000000"/>
     <use xlink:href="#m224820b4c7" x="69.724173" y="191.447182" style="fill: #009afa; stroke: #000000"/>
     <use xlink:href="#m224820b4c7" x="69.724173" y="188.643501" style="fill: #009afa; stroke: #000000"/>
     <use xlink:href="#m224820b4c7" x="69.724173" y="198.485386" style="fill: #009afa; stroke: #000000"/>
     <use xlink:href="#m224820b4c7" x="69.724173" y="168.487664" style="fill: #009afa; stroke: #000000"/>
     <use xlink:href="#m224820b4c7" x="69.724173" y="194.022151" style="fill: #009afa; stroke: #000000"/>
     <use xlink:href="#m224820b4c7" x="69.724173" y="164.545482" style="fill: #009afa; stroke: #000000"/>
     <use xlink:href="#m224820b4c7" x="69.724173" y="168.886293" style="fill: #009afa; stroke: #000000"/>
     <use xlink:href="#m224820b4c7" x="69.724173" y="195.289301" style="fill: #009afa; stroke: #000000"/>
    </g>
   </g>
   <g id="patch_7">
    <path d="M 106.8029 229.377874 
L 99.387155 229.377874 
L 114.218646 229.377874 
L 106.8029 229.377874 
L 106.8029 220.991192 
" clip-path="url(#pa798a60cc4)" style="fill: #e36f47; stroke: #000000; stroke-linejoin: miter"/>
   </g>
   <g id="patch_8">
    <path d="M 121.634391 220.991192 
L 121.634391 212.994458 
L 91.971409 212.994458 
L 91.971409 220.991192 
L 121.634391 220.991192 
L 121.634391 212.994458 
" clip-path="url(#pa798a60cc4)" style="fill: #e36f47; stroke: #000000; stroke-linejoin: miter"/>
   </g>
   <g id="patch_9">
    <path d="M 121.634391 175.975213 
L 91.971409 175.975213 
L 91.971409 212.994458 
L 121.634391 212.994458 
L 121.634391 175.975213 
L 106.8029 175.975213 
" clip-path="url(#pa798a60cc4)" style="fill: #e36f47; stroke: #000000; stroke-linejoin: miter"/>
   </g>
   <g id="patch_10">
    <path d="M 106.8029 112.695708 
L 99.387155 112.695708 
L 114.218646 112.695708 
L 106.8029 112.695708 
L 106.8029 175.975213 
" clip-path="url(#pa798a60cc4)" style="fill: #e36f47; stroke: #000000; stroke-linejoin: miter"/>
   </g>
   <g id="PathCollection_2">
    <defs>
     <path id="m22320f6024" d="M 0 2 
C 0.530406 2 1.03916 1.789267 1.414214 1.414214 
C 1.789267 1.03916 2 0.530406 2 0 
C 2 -0.530406 1.789267 -1.03916 1.414214 -1.414214 
C 1.03916 -1.789267 0.530406 -2 0 -2 
C -0.530406 -2 -1.03916 -1.789267 -1.414214 -1.414214 
C -1.789267 -1.03916 -2 -0.530406 -2 0 
C -2 0.530406 -1.789267 1.03916 -1.414214 1.414214 
C -1.03916 1.789267 -0.530406 2 0 2 
z
" style="stroke: #000000"/>
    </defs>
    <g clip-path="url(#pa798a60cc4)">
     <use xlink:href="#m22320f6024" x="106.8029" y="97.793029" style="fill: #e36f47; stroke: #000000"/>
     <use xlink:href="#m22320f6024" x="106.8029" y="82.792097" style="fill: #e36f47; stroke: #000000"/>
     <use xlink:href="#m22320f6024" x="106.8029" y="86.54596" style="fill: #e36f47; stroke: #000000"/>
     <use xlink:href="#m22320f6024" x="106.8029" y="106.507868" style="fill: #e36f47; stroke: #000000"/>
     <use xlink:href="#m22320f6024" x="106.8029" y="106.677122" style="fill: #e36f47; stroke: #000000"/>
    </g>
   </g>
   <g id="patch_11">
    <path d="M 43.991537 257.505354 
L 43.991537 20.354646 
" style="fill: none; stroke: #000000; stroke-linejoin: miter; stroke-linecap: square"/>
   </g>
   <g id="patch_12">
    <path d="M 43.991537 257.505354 
L 429.165354 257.505354 
" style="fill: none; stroke: #000000; stroke-linejoin: miter; stroke-linecap: square"/>
   </g>
   <g id="patch_13">
    <path d="M 143.881628 237.260373 
L 136.465882 237.260373 
L 151.297373 237.260373 
L 143.881628 237.260373 
L 143.881628 218.724193 
" clip-path="url(#pa798a60cc4)" style="fill: #3ea44e; stroke: #000000; stroke-linejoin: miter"/>
   </g>
   <g id="patch_14">
    <path d="M 158.713118 218.724193 
L 158.713118 194.317375 
L 129.050137 194.317375 
L 129.050137 218.724193 
L 158.713118 218.724193 
L 158.713118 194.317375 
" clip-path="url(#pa798a60cc4)" style="fill: #3ea44e; stroke: #000000; stroke-linejoin: miter"/>
   </g>
   <g id="patch_15">
    <path d="M 158.713118 166.802877 
L 129.050137 166.802877 
L 129.050137 194.317375 
L 158.713118 194.317375 
L 158.713118 166.802877 
L 143.881628 166.802877 
" clip-path="url(#pa798a60cc4)" style="fill: #3ea44e; stroke: #000000; stroke-linejoin: miter"/>
   </g>
   <g id="patch_16">
    <path d="M 143.881628 93.249668 
L 136.465882 93.249668 
L 151.297373 93.249668 
L 143.881628 93.249668 
L 143.881628 166.802877 
" clip-path="url(#pa798a60cc4)" style="fill: #3ea44e; stroke: #000000; stroke-linejoin: miter"/>
   </g>
   <g id="text_16">
    <!-- Zysk firmy, która nie bada konsumentów -->
    <g transform="translate(93.147352 14.354646)scale(0.14 -0.14)">
     <defs>
      <path id="DejaVuSans-2c" d="M 750 794 
L 1409 794 
L 1409 256 
L 897 -744 
L 494 -744 
L 750 256 
L 750 794 
z
" transform="scale(0.015625)"/>
      <path id="DejaVuSans-75" d="M 544 1381 
L 544 3500 
L 1119 3500 
L 1119 1403 
Q 1119 906 1312 657 
Q 1506 409 1894 409 
Q 2359 409 2629 706 
Q 2900 1003 2900 1516 
L 2900 3500 
L 3475 3500 
L 3475 0 
L 2900 0 
L 2900 538 
Q 2691 219 2414 64 
Q 2138 -91 1772 -91 
Q 1169 -91 856 284 
Q 544 659 544 1381 
z
M 1991 3584 
L 1991 3584 
z
" transform="scale(0.015625)"/>
     </defs>
     <use xlink:href="#DejaVuSans-5a"/>
     <use xlink:href="#DejaVuSans-79" x="68.505859"/>
     <use xlink:href="#DejaVuSans-73" x="127.685547"/>
     <use xlink:href="#DejaVuSans-6b" x="179.785156"/>
     <use xlink:href="#DejaVuSans-20" x="237.695312"/>
     <use xlink:href="#DejaVuSans-66" x="269.482422"/>
     <use xlink:href="#DejaVuSans-69" x="304.6875"/>
     <use xlink:href="#DejaVuSans-72" x="332.470703"/>
     <use xlink:href="#DejaVuSans-6d" x="371.833984"/>
     <use xlink:href="#DejaVuSans-79" x="469.246094"/>
     <use xlink:href="#DejaVuSans-2c" x="528.425781"/>
     <use xlink:href="#DejaVuSans-20" x="560.212891"/>
     <use xlink:href="#DejaVuSans-6b" x="592"/>
     <use xlink:href="#DejaVuSans-74" x="649.910156"/>
     <use xlink:href="#DejaVuSans-f3" x="689.119141"/>
     <use xlink:href="#DejaVuSans-72" x="750.300781"/>
     <use xlink:href="#DejaVuSans-61" x="791.414062"/>
     <use xlink:href="#DejaVuSans-20" x="852.693359"/>
     <use xlink:href="#DejaVuSans-6e" x="884.480469"/>
     <use xlink:href="#DejaVuSans-69" x="947.859375"/>
     <use xlink:href="#DejaVuSans-65" x="975.642578"/>
     <use xlink:href="#DejaVuSans-20" x="1037.166016"/>
     <use xlink:href="#DejaVuSans-62" x="1068.953125"/>
     <use xlink:href="#DejaVuSans-61" x="1132.429688"/>
     <use xlink:href="#DejaVuSans-64" x="1193.708984"/>
     <use xlink:href="#DejaVuSans-61" x="1257.185547"/>
     <use xlink:href="#DejaVuSans-20" x="1318.464844"/>
     <use xlink:href="#DejaVuSans-6b" x="1350.251953"/>
     <use xlink:href="#DejaVuSans-6f" x="1404.537109"/>
     <use xlink:href="#DejaVuSans-6e" x="1465.71875"/>
     <use xlink:href="#DejaVuSans-73" x="1529.097656"/>
     <use xlink:href="#DejaVuSans-75" x="1581.197266"/>
     <use xlink:href="#DejaVuSans-6d" x="1644.576172"/>
     <use xlink:href="#DejaVuSans-65" x="1741.988281"/>
     <use xlink:href="#DejaVuSans-6e" x="1803.511719"/>
     <use xlink:href="#DejaVuSans-74" x="1866.890625"/>
     <use xlink:href="#DejaVuSans-f3" x="1906.099609"/>
     <use xlink:href="#DejaVuSans-77" x="1967.28125"/>
    </g>
   </g>
   <g id="PathCollection_3">
    <defs>
     <path id="m827e285531" d="M 0 2 
C 0.530406 2 1.03916 1.789267 1.414214 1.414214 
C 1.789267 1.03916 2 0.530406 2 0 
C 2 -0.530406 1.789267 -1.03916 1.414214 -1.414214 
C 1.03916 -1.789267 0.530406 -2 0 -2 
C -0.530406 -2 -1.03916 -1.789267 -1.414214 -1.414214 
C -1.789267 -1.03916 -2 -0.530406 -2 0 
C -2 0.530406 -1.789267 1.03916 -1.414214 1.414214 
C -1.03916 1.789267 -0.530406 2 0 2 
z
" style="stroke: #000000"/>
    </defs>
    <g clip-path="url(#pa798a60cc4)">
     <use xlink:href="#m827e285531" x="143.881628" y="81.42023" style="fill: #3ea44e; stroke: #000000"/>
     <use xlink:href="#m827e285531" x="143.881628" y="84.581305" style="fill: #3ea44e; stroke: #000000"/>
     <use xlink:href="#m827e285531" x="143.881628" y="88.078845" style="fill: #3ea44e; stroke: #000000"/>
     <use xlink:href="#m827e285531" x="143.881628" y="68.602811" style="fill: #3ea44e; stroke: #000000"/>
     <use xlink:href="#m827e285531" x="143.881628" y="78.213442" style="fill: #3ea44e; stroke: #000000"/>
    </g>
   </g>
   <g id="patch_17">
    <path d="M 180.960355 237.802912 
L 173.544609 237.802912 
L 188.3761 237.802912 
L 180.960355 237.802912 
L 180.960355 218.092355 
" clip-path="url(#pa798a60cc4)" style="fill: #c371d2; stroke: #000000; stroke-linejoin: miter"/>
   </g>
   <g id="patch_18">
    <path d="M 195.791846 218.092355 
L 195.791846 189.753451 
L 166.128864 189.753451 
L 166.128864 218.092355 
L 195.791846 218.092355 
L 195.791846 189.753451 
" clip-path="url(#pa798a60cc4)" style="fill: #c371d2; stroke: #000000; stroke-linejoin: miter"/>
   </g>
   <g id="patch_19">
    <path d="M 195.791846 160.688969 
L 166.128864 160.688969 
L 166.128864 189.753451 
L 195.791846 189.753451 
L 195.791846 160.688969 
L 180.960355 160.688969 
" clip-path="url(#pa798a60cc4)" style="fill: #c371d2; stroke: #000000; stroke-linejoin: miter"/>
   </g>
   <g id="patch_20">
    <path d="M 180.960355 90.053786 
L 173.544609 90.053786 
L 188.3761 90.053786 
L 180.960355 90.053786 
L 180.960355 160.688969 
" clip-path="url(#pa798a60cc4)" style="fill: #c371d2; stroke: #000000; stroke-linejoin: miter"/>
   </g>
   <g id="patch_21">
    <path d="M 218.039082 248.11581 
L 210.623336 248.11581 
L 225.454827 248.11581 
L 218.039082 248.11581 
L 218.039082 219.129177 
" clip-path="url(#pa798a60cc4)" style="fill: #ac8e18; stroke: #000000; stroke-linejoin: miter"/>
   </g>
   <g id="patch_22">
    <path d="M 232.870573 219.129177 
L 232.870573 194.514027 
L 203.207591 194.514027 
L 203.207591 219.129177 
L 232.870573 219.129177 
L 232.870573 194.514027 
" clip-path="url(#pa798a60cc4)" style="fill: #ac8e18; stroke: #000000; stroke-linejoin: miter"/>
   </g>
   <g id="patch_23">
    <path d="M 232.870573 172.554154 
L 203.207591 172.554154 
L 203.207591 194.514027 
L 232.870573 194.514027 
L 232.870573 172.554154 
L 218.039082 172.554154 
" clip-path="url(#pa798a60cc4)" style="fill: #ac8e18; stroke: #000000; stroke-linejoin: miter"/>
   </g>
   <g id="patch_24">
    <path d="M 218.039082 115.388971 
L 210.623336 115.388971 
L 225.454827 115.388971 
L 218.039082 115.388971 
L 218.039082 172.554154 
" clip-path="url(#pa798a60cc4)" style="fill: #ac8e18; stroke: #000000; stroke-linejoin: miter"/>
   </g>
   <g id="PathCollection_4">
    <defs>
     <path id="mbb510f85f5" d="M 0 2 
C 0.530406 2 1.03916 1.789267 1.414214 1.414214 
C 1.789267 1.03916 2 0.530406 2 0 
C 2 -0.530406 1.789267 -1.03916 1.414214 -1.414214 
C 1.03916 -1.789267 0.530406 -2 0 -2 
C -0.530406 -2 -1.03916 -1.789267 -1.414214 -1.414214 
C -1.789267 -1.03916 -2 -0.530406 -2 0 
C -2 0.530406 -1.789267 1.03916 -1.414214 1.414214 
C -1.03916 1.789267 -0.530406 2 0 2 
z
" style="stroke: #000000"/>
    </defs>
    <g clip-path="url(#pa798a60cc4)">
     <use xlink:href="#mbb510f85f5" x="218.039082" y="82.797325" style="fill: #ac8e18; stroke: #000000"/>
     <use xlink:href="#mbb510f85f5" x="218.039082" y="96.542741" style="fill: #ac8e18; stroke: #000000"/>
    </g>
   </g>
   <g id="patch_25">
    <path d="M 255.117809 246.700683 
L 247.702064 246.700683 
L 262.533554 246.700683 
L 255.117809 246.700683 
L 255.117809 220.54733 
" clip-path="url(#pa798a60cc4)" style="fill: #00aaae; stroke: #000000; stroke-linejoin: miter"/>
   </g>
   <g id="patch_26">
    <path d="M 269.9493 220.54733 
L 269.9493 206.632201 
L 240.286318 206.632201 
L 240.286318 220.54733 
L 269.9493 220.54733 
L 269.9493 206.632201 
" clip-path="url(#pa798a60cc4)" style="fill: #00aaae; stroke: #000000; stroke-linejoin: miter"/>
   </g>
   <g id="patch_27">
    <path d="M 269.9493 180.740879 
L 240.286318 180.740879 
L 240.286318 206.632201 
L 269.9493 206.632201 
L 269.9493 180.740879 
L 255.117809 180.740879 
" clip-path="url(#pa798a60cc4)" style="fill: #00aaae; stroke: #000000; stroke-linejoin: miter"/>
   </g>
   <g id="patch_28">
    <path d="M 255.117809 121.785326 
L 247.702064 121.785326 
L 262.533554 121.785326 
L 255.117809 121.785326 
L 255.117809 180.740879 
" clip-path="url(#pa798a60cc4)" style="fill: #00aaae; stroke: #000000; stroke-linejoin: miter"/>
   </g>
   <g id="PathCollection_5">
    <defs>
     <path id="ma74fc87f0e" d="M 0 2 
C 0.530406 2 1.03916 1.789267 1.414214 1.414214 
C 1.789267 1.03916 2 0.530406 2 0 
C 2 -0.530406 1.789267 -1.03916 1.414214 -1.414214 
C 1.03916 -1.789267 0.530406 -2 0 -2 
C -0.530406 -2 -1.03916 -1.789267 -1.414214 -1.414214 
C -1.789267 -1.03916 -2 -0.530406 -2 0 
C -2 0.530406 -1.789267 1.03916 -1.414214 1.414214 
C -1.03916 1.789267 -0.530406 2 0 2 
z
" style="stroke: #000000"/>
    </defs>
    <g clip-path="url(#pa798a60cc4)">
     <use xlink:href="#ma74fc87f0e" x="255.117809" y="101.417422" style="fill: #00aaae; stroke: #000000"/>
     <use xlink:href="#ma74fc87f0e" x="255.117809" y="111.792289" style="fill: #00aaae; stroke: #000000"/>
     <use xlink:href="#ma74fc87f0e" x="255.117809" y="96.030805" style="fill: #00aaae; stroke: #000000"/>
     <use xlink:href="#ma74fc87f0e" x="255.117809" y="93.486634" style="fill: #00aaae; stroke: #000000"/>
    </g>
   </g>
   <g id="patch_29">
    <path d="M 292.196536 244.052491 
L 284.780791 244.052491 
L 299.612282 244.052491 
L 292.196536 244.052491 
L 292.196536 219.92358 
" clip-path="url(#pa798a60cc4)" style="fill: #ed5e93; stroke: #000000; stroke-linejoin: miter"/>
   </g>
   <g id="patch_30">
    <path d="M 307.028027 219.92358 
L 307.028027 204.137455 
L 277.365045 204.137455 
L 277.365045 219.92358 
L 307.028027 219.92358 
L 307.028027 204.137455 
" clip-path="url(#pa798a60cc4)" style="fill: #ed5e93; stroke: #000000; stroke-linejoin: miter"/>
   </g>
   <g id="patch_31">
    <path d="M 307.028027 179.984136 
L 277.365045 179.984136 
L 277.365045 204.137455 
L 307.028027 204.137455 
L 307.028027 179.984136 
L 292.196536 179.984136 
" clip-path="url(#pa798a60cc4)" style="fill: #ed5e93; stroke: #000000; stroke-linejoin: miter"/>
   </g>
   <g id="patch_32">
    <path d="M 292.196536 125.974903 
L 284.780791 125.974903 
L 299.612282 125.974903 
L 292.196536 125.974903 
L 292.196536 179.984136 
" clip-path="url(#pa798a60cc4)" style="fill: #ed5e93; stroke: #000000; stroke-linejoin: miter"/>
   </g>
   <g id="PathCollection_6">
    <defs>
     <path id="mb0a23b1a70" d="M 0 2 
C 0.530406 2 1.03916 1.789267 1.414214 1.414214 
C 1.789267 1.03916 2 0.530406 2 0 
C 2 -0.530406 1.789267 -1.03916 1.414214 -1.414214 
C 1.03916 -1.789267 0.530406 -2 0 -2 
C -0.530406 -2 -1.03916 -1.789267 -1.414214 -1.414214 
C -1.789267 -1.03916 -2 -0.530406 -2 0 
C -2 0.530406 -1.789267 1.03916 -1.414214 1.414214 
C -1.03916 1.789267 -0.530406 2 0 2 
z
" style="stroke: #000000"/>
    </defs>
    <g clip-path="url(#pa798a60cc4)">
     <use xlink:href="#mb0a23b1a70" x="292.196536" y="113.577734" style="fill: #ed5e93; stroke: #000000"/>
    </g>
   </g>
   <g id="patch_33">
    <path d="M 329.275263 244.388663 
L 321.859518 244.388663 
L 336.691009 244.388663 
L 329.275263 244.388663 
L 329.275263 220.848958 
" clip-path="url(#pa798a60cc4)" style="fill: #c68225; stroke: #000000; stroke-linejoin: miter"/>
   </g>
   <g id="patch_34">
    <path d="M 344.106754 220.848958 
L 344.106754 209.311036 
L 314.443772 209.311036 
L 314.443772 220.848958 
L 344.106754 220.848958 
L 344.106754 209.311036 
" clip-path="url(#pa798a60cc4)" style="fill: #c68225; stroke: #000000; stroke-linejoin: miter"/>
   </g>
   <g id="patch_35">
    <path d="M 344.106754 183.099327 
L 314.443772 183.099327 
L 314.443772 209.311036 
L 344.106754 209.311036 
L 344.106754 183.099327 
L 329.275263 183.099327 
" clip-path="url(#pa798a60cc4)" style="fill: #c68225; stroke: #000000; stroke-linejoin: miter"/>
   </g>
   <g id="patch_36">
    <path d="M 329.275263 131.395461 
L 321.859518 131.395461 
L 336.691009 131.395461 
L 329.275263 131.395461 
L 329.275263 183.099327 
" clip-path="url(#pa798a60cc4)" style="fill: #c68225; stroke: #000000; stroke-linejoin: miter"/>
   </g>
   <g id="PathCollection_7">
    <defs>
     <path id="mdbc903c74b" d="M 0 2 
C 0.530406 2 1.03916 1.789267 1.414214 1.414214 
C 1.789267 1.03916 2 0.530406 2 0 
C 2 -0.530406 1.789267 -1.03916 1.414214 -1.414214 
C 1.03916 -1.789267 0.530406 -2 0 -2 
C -0.530406 -2 -1.03916 -1.789267 -1.414214 -1.414214 
C -1.789267 -1.03916 -2 -0.530406 -2 0 
C -2 0.530406 -1.789267 1.03916 -1.414214 1.414214 
C -1.03916 1.789267 -0.530406 2 0 2 
z
" style="stroke: #000000"/>
    </defs>
    <g clip-path="url(#pa798a60cc4)">
     <use xlink:href="#mdbc903c74b" x="329.275263" y="115.375833" style="fill: #c68225; stroke: #000000"/>
     <use xlink:href="#mdbc903c74b" x="329.275263" y="125.753326" style="fill: #c68225; stroke: #000000"/>
     <use xlink:href="#mdbc903c74b" x="329.275263" y="106.076879" style="fill: #c68225; stroke: #000000"/>
    </g>
   </g>
   <g id="patch_37">
    <path d="M 366.353991 246.028974 
L 358.938245 246.028974 
L 373.769736 246.028974 
L 366.353991 246.028974 
L 366.353991 221.3374 
" clip-path="url(#pa798a60cc4)" style="fill: #00a98d; stroke: #000000; stroke-linejoin: miter"/>
   </g>
   <g id="patch_38">
    <path d="M 381.185481 221.3374 
L 381.185481 212.825185 
L 351.5225 212.825185 
L 351.5225 221.3374 
L 381.185481 221.3374 
L 381.185481 212.825185 
" clip-path="url(#pa798a60cc4)" style="fill: #00a98d; stroke: #000000; stroke-linejoin: miter"/>
   </g>
   <g id="patch_39">
    <path d="M 381.185481 191.654459 
L 351.5225 191.654459 
L 351.5225 212.825185 
L 381.185481 212.825185 
L 381.185481 191.654459 
L 366.353991 191.654459 
" clip-path="url(#pa798a60cc4)" style="fill: #00a98d; stroke: #000000; stroke-linejoin: miter"/>
   </g>
   <g id="patch_40">
    <path d="M 366.353991 152.607316 
L 358.938245 152.607316 
L 373.769736 152.607316 
L 366.353991 152.607316 
L 366.353991 191.654459 
" clip-path="url(#pa798a60cc4)" style="fill: #00a98d; stroke: #000000; stroke-linejoin: miter"/>
   </g>
   <g id="PathCollection_8">
    <defs>
     <path id="m8a94dce686" d="M 0 2 
C 0.530406 2 1.03916 1.789267 1.414214 1.414214 
C 1.789267 1.03916 2 0.530406 2 0 
C 2 -0.530406 1.789267 -1.03916 1.414214 -1.414214 
C 1.03916 -1.789267 0.530406 -2 0 -2 
C -0.530406 -2 -1.03916 -1.789267 -1.414214 -1.414214 
C -1.789267 -1.03916 -2 -0.530406 -2 0 
C -2 0.530406 -1.789267 1.03916 -1.414214 1.414214 
C -1.03916 1.789267 -0.530406 2 0 2 
z
" style="stroke: #000000"/>
    </defs>
    <g clip-path="url(#pa798a60cc4)">
     <use xlink:href="#m8a94dce686" x="366.353991" y="143.684734" style="fill: #00a98d; stroke: #000000"/>
     <use xlink:href="#m8a94dce686" x="366.353991" y="144.603087" style="fill: #00a98d; stroke: #000000"/>
     <use xlink:href="#m8a94dce686" x="366.353991" y="143.386695" style="fill: #00a98d; stroke: #000000"/>
     <use xlink:href="#m8a94dce686" x="366.353991" y="132.164043" style="fill: #00a98d; stroke: #000000"/>
     <use xlink:href="#m8a94dce686" x="366.353991" y="138.560086" style="fill: #00a98d; stroke: #000000"/>
     <use xlink:href="#m8a94dce686" x="366.353991" y="83.91828" style="fill: #00a98d; stroke: #000000"/>
     <use xlink:href="#m8a94dce686" x="366.353991" y="133.786204" style="fill: #00a98d; stroke: #000000"/>
     <use xlink:href="#m8a94dce686" x="366.353991" y="117.781316" style="fill: #00a98d; stroke: #000000"/>
     <use xlink:href="#m8a94dce686" x="366.353991" y="141.188027" style="fill: #00a98d; stroke: #000000"/>
     <use xlink:href="#m8a94dce686" x="366.353991" y="142.373377" style="fill: #00a98d; stroke: #000000"/>
    </g>
   </g>
   <g id="patch_41">
    <path d="M 403.432718 253.219421 
L 396.016972 253.219421 
L 410.848463 253.219421 
L 403.432718 253.219421 
L 403.432718 221.538768 
" clip-path="url(#pa798a60cc4)" style="fill: #8e971e; stroke: #000000; stroke-linejoin: miter"/>
   </g>
   <g id="patch_42">
    <path d="M 418.264209 221.538768 
L 418.264209 212.321793 
L 388.601227 212.321793 
L 388.601227 221.538768 
L 418.264209 221.538768 
L 418.264209 212.321793 
" clip-path="url(#pa798a60cc4)" style="fill: #8e971e; stroke: #000000; stroke-linejoin: miter"/>
   </g>
   <g id="patch_43">
    <path d="M 418.264209 191.72904 
L 388.601227 191.72904 
L 388.601227 212.321793 
L 418.264209 212.321793 
L 418.264209 191.72904 
L 403.432718 191.72904 
" clip-path="url(#pa798a60cc4)" style="fill: #8e971e; stroke: #000000; stroke-linejoin: miter"/>
   </g>
   <g id="patch_44">
    <path d="M 403.432718 150.815038 
L 396.016972 150.815038 
L 410.848463 150.815038 
L 403.432718 150.815038 
L 403.432718 191.72904 
" clip-path="url(#pa798a60cc4)" style="fill: #8e971e; stroke: #000000; stroke-linejoin: miter"/>
   </g>
   <g id="PathCollection_9">
    <defs>
     <path id="mf7e1544e36" d="M 0 2 
C 0.530406 2 1.03916 1.789267 1.414214 1.414214 
C 1.789267 1.03916 2 0.530406 2 0 
C 2 -0.530406 1.789267 -1.03916 1.414214 -1.414214 
C 1.03916 -1.789267 0.530406 -2 0 -2 
C -0.530406 -2 -1.03916 -1.789267 -1.414214 -1.414214 
C -1.789267 -1.03916 -2 -0.530406 -2 0 
C -2 0.530406 -1.789267 1.03916 -1.414214 1.414214 
C -1.03916 1.789267 -0.530406 2 0 2 
z
" style="stroke: #000000"/>
    </defs>
    <g clip-path="url(#pa798a60cc4)">
     <use xlink:href="#mf7e1544e36" x="403.432718" y="125.122286" style="fill: #8e971e; stroke: #000000"/>
     <use xlink:href="#mf7e1544e36" x="403.432718" y="145.381566" style="fill: #8e971e; stroke: #000000"/>
     <use xlink:href="#mf7e1544e36" x="403.432718" y="132.782523" style="fill: #8e971e; stroke: #000000"/>
    </g>
   </g>
  </g>
 </g>
 <defs>
  <clipPath id="pa798a60cc4">
   <rect x="43.991537" y="20.354646" width="385.173818" height="237.150709"/>
  </clipPath>
 </defs>
</svg>
