<?xml version="1.0" encoding="utf-8"?>
<svg xmlns="http://www.w3.org/2000/svg" xmlns:xlink="http://www.w3.org/1999/xlink" width="600" height="400" viewBox="0 0 2400 1600">
<defs>
  <clipPath id="clip970">
    <rect x="0" y="0" width="2400" height="1600"/>
  </clipPath>
</defs>
<path clip-path="url(#clip970)" d="
M0 1600 L2400 1600 L2400 0 L0 0  Z
  " fill="#ffffff" fill-rule="evenodd" fill-opacity="1"/>
<defs>
  <clipPath id="clip971">
    <rect x="480" y="0" width="1681" height="1600"/>
  </clipPath>
</defs>
<path clip-path="url(#clip970)" d="
M249.542 1423.18 L2352.76 1423.18 L2352.76 123.472 L249.542 123.472  Z
  " fill="#ffffff" fill-rule="evenodd" fill-opacity="1"/>
<defs>
  <clipPath id="clip972">
    <rect x="249" y="123" width="2104" height="1301"/>
  </clipPath>
</defs>
<polyline clip-path="url(#clip972)" style="stroke:#000000; stroke-linecap:butt; stroke-linejoin:round; stroke-width:2; stroke-opacity:0.1; fill:none" points="
  630.58,1423.18 630.58,123.472 
  "/>
<polyline clip-path="url(#clip972)" style="stroke:#000000; stroke-linecap:butt; stroke-linejoin:round; stroke-width:2; stroke-opacity:0.1; fill:none" points="
  1050.93,1423.18 1050.93,123.472 
  "/>
<polyline clip-path="url(#clip972)" style="stroke:#000000; stroke-linecap:butt; stroke-linejoin:round; stroke-width:2; stroke-opacity:0.1; fill:none" points="
  1471.28,1423.18 1471.28,123.472 
  "/>
<polyline clip-path="url(#clip972)" style="stroke:#000000; stroke-linecap:butt; stroke-linejoin:round; stroke-width:2; stroke-opacity:0.1; fill:none" points="
  1891.63,1423.18 1891.63,123.472 
  "/>
<polyline clip-path="url(#clip972)" style="stroke:#000000; stroke-linecap:butt; stroke-linejoin:round; stroke-width:2; stroke-opacity:0.1; fill:none" points="
  2311.98,1423.18 2311.98,123.472 
  "/>
<polyline clip-path="url(#clip970)" style="stroke:#000000; stroke-linecap:butt; stroke-linejoin:round; stroke-width:4; stroke-opacity:1; fill:none" points="
  249.542,1423.18 2352.76,1423.18 
  "/>
<polyline clip-path="url(#clip970)" style="stroke:#000000; stroke-linecap:butt; stroke-linejoin:round; stroke-width:4; stroke-opacity:1; fill:none" points="
  630.58,1423.18 630.58,1404.28 
  "/>
<polyline clip-path="url(#clip970)" style="stroke:#000000; stroke-linecap:butt; stroke-linejoin:round; stroke-width:4; stroke-opacity:1; fill:none" points="
  1050.93,1423.18 1050.93,1404.28 
  "/>
<polyline clip-path="url(#clip970)" style="stroke:#000000; stroke-linecap:butt; stroke-linejoin:round; stroke-width:4; stroke-opacity:1; fill:none" points="
  1471.28,1423.18 1471.28,1404.28 
  "/>
<polyline clip-path="url(#clip970)" style="stroke:#000000; stroke-linecap:butt; stroke-linejoin:round; stroke-width:4; stroke-opacity:1; fill:none" points="
  1891.63,1423.18 1891.63,1404.28 
  "/>
<polyline clip-path="url(#clip970)" style="stroke:#000000; stroke-linecap:butt; stroke-linejoin:round; stroke-width:4; stroke-opacity:1; fill:none" points="
  2311.98,1423.18 2311.98,1404.28 
  "/>
<path clip-path="url(#clip970)" d="M630.58 1454.1 Q626.969 1454.1 625.141 1457.66 Q623.335 1461.2 623.335 1468.33 Q623.335 1475.44 625.141 1479.01 Q626.969 1482.55 630.58 1482.55 Q634.215 1482.55 636.02 1479.01 Q637.849 1475.44 637.849 1468.33 Q637.849 1461.2 636.02 1457.66 Q634.215 1454.1 630.58 1454.1 M630.58 1450.39 Q636.391 1450.39 639.446 1455 Q642.525 1459.58 642.525 1468.33 Q642.525 1477.06 639.446 1481.67 Q636.391 1486.25 630.58 1486.25 Q624.77 1486.25 621.692 1481.67 Q618.636 1477.06 618.636 1468.33 Q618.636 1459.58 621.692 1455 Q624.77 1450.39 630.58 1450.39 Z" fill="#000000" fill-rule="evenodd" fill-opacity="1" /><path clip-path="url(#clip970)" d="M1045.58 1481.64 L1061.9 1481.64 L1061.9 1485.58 L1039.96 1485.58 L1039.96 1481.64 Q1042.62 1478.89 1047.2 1474.26 Q1051.81 1469.61 1052.99 1468.27 Q1055.24 1465.74 1056.11 1464.01 Q1057.02 1462.25 1057.02 1460.56 Q1057.02 1457.8 1055.07 1456.07 Q1053.15 1454.33 1050.05 1454.33 Q1047.85 1454.33 1045.4 1455.09 Q1042.97 1455.86 1040.19 1457.41 L1040.19 1452.69 Q1043.01 1451.55 1045.47 1450.97 Q1047.92 1450.39 1049.96 1450.39 Q1055.33 1450.39 1058.52 1453.08 Q1061.72 1455.77 1061.72 1460.26 Q1061.72 1462.39 1060.91 1464.31 Q1060.12 1466.2 1058.01 1468.8 Q1057.43 1469.47 1054.33 1472.69 Q1051.23 1475.88 1045.58 1481.64 Z" fill="#000000" fill-rule="evenodd" fill-opacity="1" /><path clip-path="url(#clip970)" d="M1474.29 1455.09 L1462.48 1473.54 L1474.29 1473.54 L1474.29 1455.09 M1473.06 1451.02 L1478.94 1451.02 L1478.94 1473.54 L1483.87 1473.54 L1483.87 1477.43 L1478.94 1477.43 L1478.94 1485.58 L1474.29 1485.58 L1474.29 1477.43 L1458.69 1477.43 L1458.69 1472.92 L1473.06 1451.02 Z" fill="#000000" fill-rule="evenodd" fill-opacity="1" /><path clip-path="url(#clip970)" d="M1892.03 1466.44 Q1888.89 1466.44 1887.03 1468.59 Q1885.2 1470.74 1885.2 1474.49 Q1885.2 1478.22 1887.03 1480.39 Q1888.89 1482.55 1892.03 1482.55 Q1895.18 1482.55 1897.01 1480.39 Q1898.86 1478.22 1898.86 1474.49 Q1898.86 1470.74 1897.01 1468.59 Q1895.18 1466.44 1892.03 1466.44 M1901.32 1451.78 L1901.32 1456.04 Q1899.56 1455.21 1897.75 1454.77 Q1895.97 1454.33 1894.21 1454.33 Q1889.58 1454.33 1887.13 1457.45 Q1884.7 1460.58 1884.35 1466.9 Q1885.71 1464.89 1887.77 1463.82 Q1889.83 1462.73 1892.31 1462.73 Q1897.52 1462.73 1900.53 1465.9 Q1903.56 1469.05 1903.56 1474.49 Q1903.56 1479.82 1900.41 1483.03 Q1897.26 1486.25 1892.03 1486.25 Q1886.04 1486.25 1882.87 1481.67 Q1879.7 1477.06 1879.7 1468.33 Q1879.7 1460.14 1883.58 1455.28 Q1887.47 1450.39 1894.02 1450.39 Q1895.78 1450.39 1897.57 1450.74 Q1899.37 1451.09 1901.32 1451.78 Z" fill="#000000" fill-rule="evenodd" fill-opacity="1" /><path clip-path="url(#clip970)" d="M2311.98 1469.17 Q2308.64 1469.17 2306.72 1470.95 Q2304.82 1472.73 2304.82 1475.86 Q2304.82 1478.98 2306.72 1480.77 Q2308.64 1482.55 2311.98 1482.55 Q2315.31 1482.55 2317.23 1480.77 Q2319.15 1478.96 2319.15 1475.86 Q2319.15 1472.73 2317.23 1470.95 Q2315.33 1469.17 2311.98 1469.17 M2307.3 1467.18 Q2304.29 1466.44 2302.6 1464.38 Q2300.94 1462.32 2300.94 1459.35 Q2300.94 1455.21 2303.88 1452.8 Q2306.84 1450.39 2311.98 1450.39 Q2317.14 1450.39 2320.08 1452.8 Q2323.02 1455.21 2323.02 1459.35 Q2323.02 1462.32 2321.33 1464.38 Q2319.66 1466.44 2316.68 1467.18 Q2320.06 1467.96 2321.93 1470.26 Q2323.83 1472.55 2323.83 1475.86 Q2323.83 1480.88 2320.75 1483.57 Q2317.7 1486.25 2311.98 1486.25 Q2306.26 1486.25 2303.18 1483.57 Q2300.13 1480.88 2300.13 1475.86 Q2300.13 1472.55 2302.02 1470.26 Q2303.92 1467.96 2307.3 1467.18 M2305.59 1459.79 Q2305.59 1462.48 2307.26 1463.98 Q2308.95 1465.49 2311.98 1465.49 Q2314.99 1465.49 2316.68 1463.98 Q2318.39 1462.48 2318.39 1459.79 Q2318.39 1457.11 2316.68 1455.6 Q2314.99 1454.1 2311.98 1454.1 Q2308.95 1454.1 2307.26 1455.6 Q2305.59 1457.11 2305.59 1459.79 Z" fill="#000000" fill-rule="evenodd" fill-opacity="1" /><path clip-path="url(#clip970)" d="M944.542 1520.52 L953.199 1520.52 L974.27 1560.28 L974.27 1520.52 L980.508 1520.52 L980.508 1568.04 L971.851 1568.04 L950.78 1528.29 L950.78 1568.04 L944.542 1568.04 L944.542 1520.52 Z" fill="#000000" fill-rule="evenodd" fill-opacity="1" /><path clip-path="url(#clip970)" d="M1009.25 1550.12 Q1002.15 1550.12 999.414 1551.75 Q996.677 1553.37 996.677 1557.29 Q996.677 1560.4 998.714 1562.25 Q1000.78 1564.07 1004.32 1564.07 Q1009.19 1564.07 1012.11 1560.63 Q1015.07 1557.16 1015.07 1551.43 L1015.07 1550.12 L1009.25 1550.12 M1020.93 1547.71 L1020.93 1568.04 L1015.07 1568.04 L1015.07 1562.63 Q1013.07 1565.88 1010.08 1567.44 Q1007.09 1568.97 1002.76 1568.97 Q997.282 1568.97 994.035 1565.91 Q990.821 1562.82 990.821 1557.67 Q990.821 1551.65 994.831 1548.6 Q998.873 1545.54 1006.86 1545.54 L1015.07 1545.54 L1015.07 1544.97 Q1015.07 1540.93 1012.4 1538.73 Q1009.76 1536.5 1004.95 1536.5 Q1001.9 1536.5 999.001 1537.23 Q996.104 1537.97 993.431 1539.43 L993.431 1534.02 Q996.645 1532.78 999.669 1532.17 Q1002.69 1531.54 1005.56 1531.54 Q1013.29 1531.54 1017.11 1535.55 Q1020.93 1539.56 1020.93 1547.71 Z" fill="#000000" fill-rule="evenodd" fill-opacity="1" /><path clip-path="url(#clip970)" d="M1056.45 1537.81 L1056.45 1518.52 L1062.31 1518.52 L1062.31 1568.04 L1056.45 1568.04 L1056.45 1562.7 Q1054.61 1565.88 1051.77 1567.44 Q1048.97 1568.97 1045.02 1568.97 Q1038.56 1568.97 1034.49 1563.81 Q1030.45 1558.65 1030.45 1550.25 Q1030.45 1541.85 1034.49 1536.69 Q1038.56 1531.54 1045.02 1531.54 Q1048.97 1531.54 1051.77 1533.1 Q1054.61 1534.62 1056.45 1537.81 M1036.49 1550.25 Q1036.49 1556.71 1039.14 1560.4 Q1041.81 1564.07 1046.46 1564.07 Q1051.1 1564.07 1053.78 1560.4 Q1056.45 1556.71 1056.45 1550.25 Q1056.45 1543.79 1053.78 1540.13 Q1051.1 1536.44 1046.46 1536.44 Q1041.81 1536.44 1039.14 1540.13 Q1036.49 1543.79 1036.49 1550.25 Z" fill="#000000" fill-rule="evenodd" fill-opacity="1" /><path clip-path="url(#clip970)" d="M1070.97 1532.4 L1076.82 1532.4 L1084.14 1560.21 L1091.43 1532.4 L1098.34 1532.4 L1105.66 1560.21 L1112.95 1532.4 L1118.8 1532.4 L1109.48 1568.04 L1102.57 1568.04 L1094.9 1538.83 L1087.2 1568.04 L1080.29 1568.04 L1070.97 1532.4 Z" fill="#000000" fill-rule="evenodd" fill-opacity="1" /><path clip-path="url(#clip970)" d="M1142.52 1571.35 Q1140.03 1577.72 1137.68 1579.66 Q1135.32 1581.6 1131.38 1581.6 L1126.7 1581.6 L1126.7 1576.7 L1130.13 1576.7 Q1132.55 1576.7 1133.89 1575.56 Q1135.23 1574.41 1136.85 1570.14 L1137.9 1567.47 L1123.48 1532.4 L1129.69 1532.4 L1140.83 1560.28 L1151.97 1532.4 L1158.18 1532.4 L1142.52 1571.35 Z" fill="#000000" fill-rule="evenodd" fill-opacity="1" /><path clip-path="url(#clip970)" d="M1174.15 1518.52 L1180.01 1518.52 L1180.01 1525.93 L1174.15 1525.93 L1174.15 1518.52 M1177.15 1531.54 L1177.15 1531.54 M1163.71 1532.4 L1191.53 1532.4 L1191.53 1537.74 L1169.51 1563.37 L1191.53 1563.37 L1191.53 1568.04 L1162.92 1568.04 L1162.92 1562.7 L1184.94 1537.07 L1163.71 1537.07 L1163.71 1532.4 Z" fill="#000000" fill-rule="evenodd" fill-opacity="1" /><path clip-path="url(#clip970)" d="M1200.25 1518.52 L1206.14 1518.52 L1206.14 1547.77 L1223.61 1532.4 L1231.09 1532.4 L1212.19 1549.07 L1231.89 1568.04 L1224.25 1568.04 L1206.14 1550.63 L1206.14 1568.04 L1200.25 1568.04 L1200.25 1518.52 Z" fill="#000000" fill-rule="evenodd" fill-opacity="1" /><path clip-path="url(#clip970)" d="M1253.28 1550.12 Q1246.18 1550.12 1243.44 1551.75 Q1240.71 1553.37 1240.71 1557.29 Q1240.71 1560.4 1242.74 1562.25 Q1244.81 1564.07 1248.35 1564.07 Q1253.22 1564.07 1256.14 1560.63 Q1259.1 1557.16 1259.1 1551.43 L1259.1 1550.12 L1253.28 1550.12 M1264.96 1547.71 L1264.96 1568.04 L1259.1 1568.04 L1259.1 1562.63 Q1257.1 1565.88 1254.11 1567.44 Q1251.11 1568.97 1246.79 1568.97 Q1241.31 1568.97 1238.06 1565.91 Q1234.85 1562.82 1234.85 1557.67 Q1234.85 1551.65 1238.86 1548.6 Q1242.9 1545.54 1250.89 1545.54 L1259.1 1545.54 L1259.1 1544.97 Q1259.1 1540.93 1256.43 1538.73 Q1253.79 1536.5 1248.98 1536.5 Q1245.93 1536.5 1243.03 1537.23 Q1240.13 1537.97 1237.46 1539.43 L1237.46 1534.02 Q1240.67 1532.78 1243.7 1532.17 Q1246.72 1531.54 1249.59 1531.54 Q1257.32 1531.54 1261.14 1535.55 Q1264.96 1539.56 1264.96 1547.71 Z" fill="#000000" fill-rule="evenodd" fill-opacity="1" /><path clip-path="url(#clip970)" d="M1303.41 1562.7 L1303.41 1581.6 L1297.52 1581.6 L1297.52 1532.4 L1303.41 1532.4 L1303.41 1537.81 Q1305.25 1534.62 1308.06 1533.1 Q1310.89 1531.54 1314.8 1531.54 Q1321.3 1531.54 1325.34 1536.69 Q1329.41 1541.85 1329.41 1550.25 Q1329.41 1558.65 1325.34 1563.81 Q1321.3 1568.97 1314.8 1568.97 Q1310.89 1568.97 1308.06 1567.44 Q1305.25 1565.88 1303.41 1562.7 M1323.33 1550.25 Q1323.33 1543.79 1320.66 1540.13 Q1318.02 1536.44 1313.37 1536.44 Q1308.72 1536.44 1306.05 1540.13 Q1303.41 1543.79 1303.41 1550.25 Q1303.41 1556.71 1306.05 1560.4 Q1308.72 1564.07 1313.37 1564.07 Q1318.02 1564.07 1320.66 1560.4 Q1323.33 1556.71 1323.33 1550.25 Z" fill="#000000" fill-rule="evenodd" fill-opacity="1" /><path clip-path="url(#clip970)" d="M1359.78 1537.87 Q1358.79 1537.3 1357.61 1537.04 Q1356.47 1536.76 1355.07 1536.76 Q1350.1 1536.76 1347.43 1540 Q1344.79 1543.22 1344.79 1549.27 L1344.79 1568.04 L1338.9 1568.04 L1338.9 1532.4 L1344.79 1532.4 L1344.79 1537.93 Q1346.63 1534.69 1349.59 1533.13 Q1352.55 1531.54 1356.79 1531.54 Q1357.39 1531.54 1358.12 1531.63 Q1358.85 1531.7 1359.75 1531.85 L1359.78 1537.87 Z" fill="#000000" fill-rule="evenodd" fill-opacity="1" /><path clip-path="url(#clip970)" d="M1378.3 1536.5 Q1373.59 1536.5 1370.85 1540.19 Q1368.12 1543.85 1368.12 1550.25 Q1368.12 1556.65 1370.82 1560.34 Q1373.56 1564 1378.3 1564 Q1382.98 1564 1385.72 1560.31 Q1388.45 1556.62 1388.45 1550.25 Q1388.45 1543.92 1385.72 1540.23 Q1382.98 1536.5 1378.3 1536.5 M1378.3 1531.54 Q1385.94 1531.54 1390.3 1536.5 Q1394.66 1541.47 1394.66 1550.25 Q1394.66 1559 1390.3 1564 Q1385.94 1568.97 1378.3 1568.97 Q1370.63 1568.97 1366.27 1564 Q1361.94 1559 1361.94 1550.25 Q1361.94 1541.47 1366.27 1536.5 Q1370.63 1531.54 1378.3 1531.54 Z" fill="#000000" fill-rule="evenodd" fill-opacity="1" /><path clip-path="url(#clip970)" d="M1427.83 1537.81 L1427.83 1518.52 L1433.68 1518.52 L1433.68 1568.04 L1427.83 1568.04 L1427.83 1562.7 Q1425.98 1565.88 1423.15 1567.44 Q1420.35 1568.97 1416.4 1568.97 Q1409.94 1568.97 1405.86 1563.81 Q1401.82 1558.65 1401.82 1550.25 Q1401.82 1541.85 1405.86 1536.69 Q1409.94 1531.54 1416.4 1531.54 Q1420.35 1531.54 1423.15 1533.1 Q1425.98 1534.62 1427.83 1537.81 M1407.87 1550.25 Q1407.87 1556.71 1410.51 1560.4 Q1413.19 1564.07 1417.83 1564.07 Q1422.48 1564.07 1425.15 1560.4 Q1427.83 1556.71 1427.83 1550.25 Q1427.83 1543.79 1425.15 1540.13 Q1422.48 1536.44 1417.83 1536.44 Q1413.19 1536.44 1410.51 1540.13 Q1407.87 1543.79 1407.87 1550.25 Z" fill="#000000" fill-rule="evenodd" fill-opacity="1" /><path clip-path="url(#clip970)" d="M1445.14 1553.98 L1445.14 1532.4 L1451 1532.4 L1451 1553.75 Q1451 1558.81 1452.97 1561.36 Q1454.94 1563.87 1458.89 1563.87 Q1463.63 1563.87 1466.37 1560.85 Q1469.14 1557.83 1469.14 1552.61 L1469.14 1532.4 L1475 1532.4 L1475 1568.04 L1469.14 1568.04 L1469.14 1562.57 Q1467.01 1565.82 1464.17 1567.41 Q1461.37 1568.97 1457.65 1568.97 Q1451.51 1568.97 1448.32 1565.15 Q1445.14 1561.33 1445.14 1553.98 M1459.88 1531.54 L1459.88 1531.54 Z" fill="#000000" fill-rule="evenodd" fill-opacity="1" /><path clip-path="url(#clip970)" d="M1512.71 1533.76 L1512.71 1539.24 Q1510.23 1537.87 1507.72 1537.2 Q1505.23 1536.5 1502.69 1536.5 Q1496.99 1536.5 1493.84 1540.13 Q1490.69 1543.73 1490.69 1550.25 Q1490.69 1556.78 1493.84 1560.4 Q1496.99 1564 1502.69 1564 Q1505.23 1564 1507.72 1563.33 Q1510.23 1562.63 1512.71 1561.26 L1512.71 1566.68 Q1510.26 1567.82 1507.62 1568.39 Q1505.01 1568.97 1502.05 1568.97 Q1494 1568.97 1489.26 1563.91 Q1484.51 1558.85 1484.51 1550.25 Q1484.51 1541.53 1489.29 1536.53 Q1494.09 1531.54 1502.43 1531.54 Q1505.14 1531.54 1507.72 1532.11 Q1510.29 1532.65 1512.71 1533.76 Z" fill="#000000" fill-rule="evenodd" fill-opacity="1" /><path clip-path="url(#clip970)" d="M1553.39 1548.76 L1553.39 1551.62 L1526.46 1551.62 Q1526.85 1557.67 1530.09 1560.85 Q1533.37 1564 1539.19 1564 Q1542.57 1564 1545.72 1563.17 Q1548.9 1562.35 1552.02 1560.69 L1552.02 1566.23 Q1548.87 1567.57 1545.56 1568.27 Q1542.25 1568.97 1538.84 1568.97 Q1530.31 1568.97 1525.32 1564 Q1520.35 1559.04 1520.35 1550.57 Q1520.35 1541.82 1525.06 1536.69 Q1529.81 1531.54 1537.83 1531.54 Q1545.02 1531.54 1549.19 1536.18 Q1553.39 1540.8 1553.39 1548.76 M1547.53 1547.04 Q1547.47 1542.23 1544.83 1539.37 Q1542.22 1536.5 1537.89 1536.5 Q1532.99 1536.5 1530.03 1539.27 Q1527.1 1542.04 1526.65 1547.07 L1547.53 1547.04 Z" fill="#000000" fill-rule="evenodd" fill-opacity="1" /><path clip-path="url(#clip970)" d="M1592.63 1546.53 L1592.63 1568.04 L1586.78 1568.04 L1586.78 1546.72 Q1586.78 1541.66 1584.8 1539.14 Q1582.83 1536.63 1578.88 1536.63 Q1574.14 1536.63 1571.41 1539.65 Q1568.67 1542.68 1568.67 1547.9 L1568.67 1568.04 L1562.78 1568.04 L1562.78 1532.4 L1568.67 1532.4 L1568.67 1537.93 Q1570.77 1534.72 1573.6 1533.13 Q1576.47 1531.54 1580.19 1531.54 Q1586.33 1531.54 1589.48 1535.36 Q1592.63 1539.14 1592.63 1546.53 Z" fill="#000000" fill-rule="evenodd" fill-opacity="1" /><path clip-path="url(#clip970)" d="M1610.11 1522.27 L1610.11 1532.4 L1622.17 1532.4 L1622.17 1536.95 L1610.11 1536.95 L1610.11 1556.3 Q1610.11 1560.66 1611.29 1561.9 Q1612.5 1563.14 1616.16 1563.14 L1622.17 1563.14 L1622.17 1568.04 L1616.16 1568.04 Q1609.38 1568.04 1606.8 1565.53 Q1604.22 1562.98 1604.22 1556.3 L1604.22 1536.95 L1599.92 1536.95 L1599.92 1532.4 L1604.22 1532.4 L1604.22 1522.27 L1610.11 1522.27 Z" fill="#000000" fill-rule="evenodd" fill-opacity="1" /><path clip-path="url(#clip970)" d="M1646.07 1550.12 Q1638.98 1550.12 1636.24 1551.75 Q1633.5 1553.37 1633.5 1557.29 Q1633.5 1560.4 1635.54 1562.25 Q1637.61 1564.07 1641.14 1564.07 Q1646.01 1564.07 1648.94 1560.63 Q1651.9 1557.16 1651.9 1551.43 L1651.9 1550.12 L1646.07 1550.12 M1657.76 1547.71 L1657.76 1568.04 L1651.9 1568.04 L1651.9 1562.63 Q1649.89 1565.88 1646.9 1567.44 Q1643.91 1568.97 1639.58 1568.97 Q1634.11 1568.97 1630.86 1565.91 Q1627.65 1562.82 1627.65 1557.67 Q1627.65 1551.65 1631.66 1548.6 Q1635.7 1545.54 1643.69 1545.54 L1651.9 1545.54 L1651.9 1544.97 Q1651.9 1540.93 1649.23 1538.73 Q1646.58 1536.5 1641.78 1536.5 Q1638.72 1536.5 1635.83 1537.23 Q1632.93 1537.97 1630.26 1539.43 L1630.26 1534.02 Q1633.47 1532.78 1636.49 1532.17 Q1639.52 1531.54 1642.38 1531.54 Q1650.12 1531.54 1653.94 1535.55 Q1657.76 1539.56 1657.76 1547.71 Z" fill="#000000" fill-rule="evenodd" fill-opacity="1" /><polyline clip-path="url(#clip972)" style="stroke:#000000; stroke-linecap:butt; stroke-linejoin:round; stroke-width:2; stroke-opacity:0.1; fill:none" points="
  249.542,1392.56 2352.76,1392.56 
  "/>
<polyline clip-path="url(#clip972)" style="stroke:#000000; stroke-linecap:butt; stroke-linejoin:round; stroke-width:2; stroke-opacity:0.1; fill:none" points="
  249.542,1084.48 2352.76,1084.48 
  "/>
<polyline clip-path="url(#clip972)" style="stroke:#000000; stroke-linecap:butt; stroke-linejoin:round; stroke-width:2; stroke-opacity:0.1; fill:none" points="
  249.542,776.407 2352.76,776.407 
  "/>
<polyline clip-path="url(#clip972)" style="stroke:#000000; stroke-linecap:butt; stroke-linejoin:round; stroke-width:2; stroke-opacity:0.1; fill:none" points="
  249.542,468.332 2352.76,468.332 
  "/>
<polyline clip-path="url(#clip972)" style="stroke:#000000; stroke-linecap:butt; stroke-linejoin:round; stroke-width:2; stroke-opacity:0.1; fill:none" points="
  249.542,160.256 2352.76,160.256 
  "/>
<polyline clip-path="url(#clip970)" style="stroke:#000000; stroke-linecap:butt; stroke-linejoin:round; stroke-width:4; stroke-opacity:1; fill:none" points="
  249.542,1423.18 249.542,123.472 
  "/>
<polyline clip-path="url(#clip970)" style="stroke:#000000; stroke-linecap:butt; stroke-linejoin:round; stroke-width:4; stroke-opacity:1; fill:none" points="
  249.542,1392.56 268.44,1392.56 
  "/>
<polyline clip-path="url(#clip970)" style="stroke:#000000; stroke-linecap:butt; stroke-linejoin:round; stroke-width:4; stroke-opacity:1; fill:none" points="
  249.542,1084.48 268.44,1084.48 
  "/>
<polyline clip-path="url(#clip970)" style="stroke:#000000; stroke-linecap:butt; stroke-linejoin:round; stroke-width:4; stroke-opacity:1; fill:none" points="
  249.542,776.407 268.44,776.407 
  "/>
<polyline clip-path="url(#clip970)" style="stroke:#000000; stroke-linecap:butt; stroke-linejoin:round; stroke-width:4; stroke-opacity:1; fill:none" points="
  249.542,468.332 268.44,468.332 
  "/>
<polyline clip-path="url(#clip970)" style="stroke:#000000; stroke-linecap:butt; stroke-linejoin:round; stroke-width:4; stroke-opacity:1; fill:none" points="
  249.542,160.256 268.44,160.256 
  "/>
<path clip-path="url(#clip970)" d="M126.205 1378.36 Q122.593 1378.36 120.765 1381.92 Q118.959 1385.46 118.959 1392.59 Q118.959 1399.7 120.765 1403.26 Q122.593 1406.8 126.205 1406.8 Q129.839 1406.8 131.644 1403.26 Q133.473 1399.7 133.473 1392.59 Q133.473 1385.46 131.644 1381.92 Q129.839 1378.36 126.205 1378.36 M126.205 1374.65 Q132.015 1374.65 135.07 1379.26 Q138.149 1383.84 138.149 1392.59 Q138.149 1401.32 135.07 1405.93 Q132.015 1410.51 126.205 1410.51 Q120.394 1410.51 117.316 1405.93 Q114.26 1401.32 114.26 1392.59 Q114.26 1383.84 117.316 1379.26 Q120.394 1374.65 126.205 1374.65 Z" fill="#000000" fill-rule="evenodd" fill-opacity="1" /><path clip-path="url(#clip970)" d="M146.366 1403.96 L151.251 1403.96 L151.251 1409.84 L146.366 1409.84 L146.366 1403.96 Z" fill="#000000" fill-rule="evenodd" fill-opacity="1" /><path clip-path="url(#clip970)" d="M171.436 1378.36 Q167.825 1378.36 165.996 1381.92 Q164.19 1385.46 164.19 1392.59 Q164.19 1399.7 165.996 1403.26 Q167.825 1406.8 171.436 1406.8 Q175.07 1406.8 176.876 1403.26 Q178.704 1399.7 178.704 1392.59 Q178.704 1385.46 176.876 1381.92 Q175.07 1378.36 171.436 1378.36 M171.436 1374.65 Q177.246 1374.65 180.301 1379.26 Q183.38 1383.84 183.38 1392.59 Q183.38 1401.32 180.301 1405.93 Q177.246 1410.51 171.436 1410.51 Q165.626 1410.51 162.547 1405.93 Q159.491 1401.32 159.491 1392.59 Q159.491 1383.84 162.547 1379.26 Q165.626 1374.65 171.436 1374.65 Z" fill="#000000" fill-rule="evenodd" fill-opacity="1" /><path clip-path="url(#clip970)" d="M201.598 1378.36 Q197.987 1378.36 196.158 1381.92 Q194.352 1385.46 194.352 1392.59 Q194.352 1399.7 196.158 1403.26 Q197.987 1406.8 201.598 1406.8 Q205.232 1406.8 207.037 1403.26 Q208.866 1399.7 208.866 1392.59 Q208.866 1385.46 207.037 1381.92 Q205.232 1378.36 201.598 1378.36 M201.598 1374.65 Q207.408 1374.65 210.463 1379.26 Q213.542 1383.84 213.542 1392.59 Q213.542 1401.32 210.463 1405.93 Q207.408 1410.51 201.598 1410.51 Q195.787 1410.51 192.709 1405.93 Q189.653 1401.32 189.653 1392.59 Q189.653 1383.84 192.709 1379.26 Q195.787 1374.65 201.598 1374.65 Z" fill="#000000" fill-rule="evenodd" fill-opacity="1" /><path clip-path="url(#clip970)" d="M127.2 1070.28 Q123.589 1070.28 121.76 1073.85 Q119.955 1077.39 119.955 1084.52 Q119.955 1091.62 121.76 1095.19 Q123.589 1098.73 127.2 1098.73 Q130.834 1098.73 132.64 1095.19 Q134.468 1091.62 134.468 1084.52 Q134.468 1077.39 132.64 1073.85 Q130.834 1070.28 127.2 1070.28 M127.2 1066.58 Q133.01 1066.58 136.066 1071.18 Q139.144 1075.77 139.144 1084.52 Q139.144 1093.24 136.066 1097.85 Q133.01 1102.43 127.2 1102.43 Q121.39 1102.43 118.311 1097.85 Q115.256 1093.24 115.256 1084.52 Q115.256 1075.77 118.311 1071.18 Q121.39 1066.58 127.2 1066.58 Z" fill="#000000" fill-rule="evenodd" fill-opacity="1" /><path clip-path="url(#clip970)" d="M147.362 1095.88 L152.246 1095.88 L152.246 1101.76 L147.362 1101.76 L147.362 1095.88 Z" fill="#000000" fill-rule="evenodd" fill-opacity="1" /><path clip-path="url(#clip970)" d="M166.459 1097.83 L182.778 1097.83 L182.778 1101.76 L160.834 1101.76 L160.834 1097.83 Q163.496 1095.07 168.079 1090.44 Q172.686 1085.79 173.866 1084.45 Q176.112 1081.92 176.991 1080.19 Q177.894 1078.43 177.894 1076.74 Q177.894 1073.98 175.95 1072.25 Q174.028 1070.51 170.927 1070.51 Q168.727 1070.51 166.274 1071.28 Q163.843 1072.04 161.065 1073.59 L161.065 1068.87 Q163.89 1067.73 166.343 1067.16 Q168.797 1066.58 170.834 1066.58 Q176.204 1066.58 179.399 1069.26 Q182.593 1071.95 182.593 1076.44 Q182.593 1078.57 181.783 1080.49 Q180.996 1082.39 178.889 1084.98 Q178.311 1085.65 175.209 1088.87 Q172.107 1092.06 166.459 1097.83 Z" fill="#000000" fill-rule="evenodd" fill-opacity="1" /><path clip-path="url(#clip970)" d="M192.639 1067.2 L210.996 1067.2 L210.996 1071.14 L196.922 1071.14 L196.922 1079.61 Q197.94 1079.26 198.959 1079.1 Q199.977 1078.91 200.996 1078.91 Q206.783 1078.91 210.162 1082.09 Q213.542 1085.26 213.542 1090.67 Q213.542 1096.25 210.07 1099.35 Q206.598 1102.43 200.278 1102.43 Q198.102 1102.43 195.834 1102.06 Q193.588 1101.69 191.181 1100.95 L191.181 1096.25 Q193.264 1097.39 195.487 1097.94 Q197.709 1098.5 200.186 1098.5 Q204.19 1098.5 206.528 1096.39 Q208.866 1094.29 208.866 1090.67 Q208.866 1087.06 206.528 1084.96 Q204.19 1082.85 200.186 1082.85 Q198.311 1082.85 196.436 1083.27 Q194.584 1083.68 192.639 1084.56 L192.639 1067.2 Z" fill="#000000" fill-rule="evenodd" fill-opacity="1" /><path clip-path="url(#clip970)" d="M126.205 762.205 Q122.593 762.205 120.765 765.77 Q118.959 769.312 118.959 776.441 Q118.959 783.548 120.765 787.113 Q122.593 790.654 126.205 790.654 Q129.839 790.654 131.644 787.113 Q133.473 783.548 133.473 776.441 Q133.473 769.312 131.644 765.77 Q129.839 762.205 126.205 762.205 M126.205 758.502 Q132.015 758.502 135.07 763.108 Q138.149 767.692 138.149 776.441 Q138.149 785.168 135.07 789.775 Q132.015 794.358 126.205 794.358 Q120.394 794.358 117.316 789.775 Q114.26 785.168 114.26 776.441 Q114.26 767.692 117.316 763.108 Q120.394 758.502 126.205 758.502 Z" fill="#000000" fill-rule="evenodd" fill-opacity="1" /><path clip-path="url(#clip970)" d="M146.366 787.807 L151.251 787.807 L151.251 793.687 L146.366 793.687 L146.366 787.807 Z" fill="#000000" fill-rule="evenodd" fill-opacity="1" /><path clip-path="url(#clip970)" d="M161.482 759.127 L179.839 759.127 L179.839 763.062 L165.765 763.062 L165.765 771.534 Q166.783 771.187 167.802 771.025 Q168.82 770.84 169.839 770.84 Q175.626 770.84 179.005 774.011 Q182.385 777.182 182.385 782.599 Q182.385 788.178 178.913 791.279 Q175.44 794.358 169.121 794.358 Q166.945 794.358 164.677 793.988 Q162.431 793.617 160.024 792.877 L160.024 788.178 Q162.107 789.312 164.329 789.867 Q166.552 790.423 169.028 790.423 Q173.033 790.423 175.371 788.316 Q177.709 786.21 177.709 782.599 Q177.709 778.988 175.371 776.881 Q173.033 774.775 169.028 774.775 Q167.153 774.775 165.278 775.191 Q163.427 775.608 161.482 776.488 L161.482 759.127 Z" fill="#000000" fill-rule="evenodd" fill-opacity="1" /><path clip-path="url(#clip970)" d="M201.598 762.205 Q197.987 762.205 196.158 765.77 Q194.352 769.312 194.352 776.441 Q194.352 783.548 196.158 787.113 Q197.987 790.654 201.598 790.654 Q205.232 790.654 207.037 787.113 Q208.866 783.548 208.866 776.441 Q208.866 769.312 207.037 765.77 Q205.232 762.205 201.598 762.205 M201.598 758.502 Q207.408 758.502 210.463 763.108 Q213.542 767.692 213.542 776.441 Q213.542 785.168 210.463 789.775 Q207.408 794.358 201.598 794.358 Q195.787 794.358 192.709 789.775 Q189.653 785.168 189.653 776.441 Q189.653 767.692 192.709 763.108 Q195.787 758.502 201.598 758.502 Z" fill="#000000" fill-rule="evenodd" fill-opacity="1" /><path clip-path="url(#clip970)" d="M127.2 454.13 Q123.589 454.13 121.76 457.695 Q119.955 461.237 119.955 468.366 Q119.955 475.473 121.76 479.037 Q123.589 482.579 127.2 482.579 Q130.834 482.579 132.64 479.037 Q134.468 475.473 134.468 468.366 Q134.468 461.237 132.64 457.695 Q130.834 454.13 127.2 454.13 M127.2 450.427 Q133.01 450.427 136.066 455.033 Q139.144 459.616 139.144 468.366 Q139.144 477.093 136.066 481.7 Q133.01 486.283 127.2 486.283 Q121.39 486.283 118.311 481.7 Q115.256 477.093 115.256 468.366 Q115.256 459.616 118.311 455.033 Q121.39 450.427 127.2 450.427 Z" fill="#000000" fill-rule="evenodd" fill-opacity="1" /><path clip-path="url(#clip970)" d="M147.362 479.732 L152.246 479.732 L152.246 485.612 L147.362 485.612 L147.362 479.732 Z" fill="#000000" fill-rule="evenodd" fill-opacity="1" /><path clip-path="url(#clip970)" d="M161.251 451.052 L183.473 451.052 L183.473 453.042 L170.927 485.612 L166.042 485.612 L177.848 454.987 L161.251 454.987 L161.251 451.052 Z" fill="#000000" fill-rule="evenodd" fill-opacity="1" /><path clip-path="url(#clip970)" d="M192.639 451.052 L210.996 451.052 L210.996 454.987 L196.922 454.987 L196.922 463.459 Q197.94 463.112 198.959 462.95 Q199.977 462.764 200.996 462.764 Q206.783 462.764 210.162 465.936 Q213.542 469.107 213.542 474.524 Q213.542 480.102 210.07 483.204 Q206.598 486.283 200.278 486.283 Q198.102 486.283 195.834 485.912 Q193.588 485.542 191.181 484.801 L191.181 480.102 Q193.264 481.237 195.487 481.792 Q197.709 482.348 200.186 482.348 Q204.19 482.348 206.528 480.241 Q208.866 478.135 208.866 474.524 Q208.866 470.913 206.528 468.806 Q204.19 466.7 200.186 466.7 Q198.311 466.7 196.436 467.116 Q194.584 467.533 192.639 468.413 L192.639 451.052 Z" fill="#000000" fill-rule="evenodd" fill-opacity="1" /><path clip-path="url(#clip970)" d="M117.015 173.601 L124.654 173.601 L124.654 147.236 L116.343 148.902 L116.343 144.643 L124.607 142.976 L129.283 142.976 L129.283 173.601 L136.922 173.601 L136.922 177.536 L117.015 177.536 L117.015 173.601 Z" fill="#000000" fill-rule="evenodd" fill-opacity="1" /><path clip-path="url(#clip970)" d="M146.366 171.657 L151.251 171.657 L151.251 177.536 L146.366 177.536 L146.366 171.657 Z" fill="#000000" fill-rule="evenodd" fill-opacity="1" /><path clip-path="url(#clip970)" d="M171.436 146.055 Q167.825 146.055 165.996 149.62 Q164.19 153.161 164.19 160.291 Q164.19 167.397 165.996 170.962 Q167.825 174.504 171.436 174.504 Q175.07 174.504 176.876 170.962 Q178.704 167.397 178.704 160.291 Q178.704 153.161 176.876 149.62 Q175.07 146.055 171.436 146.055 M171.436 142.351 Q177.246 142.351 180.301 146.958 Q183.38 151.541 183.38 160.291 Q183.38 169.018 180.301 173.624 Q177.246 178.208 171.436 178.208 Q165.626 178.208 162.547 173.624 Q159.491 169.018 159.491 160.291 Q159.491 151.541 162.547 146.958 Q165.626 142.351 171.436 142.351 Z" fill="#000000" fill-rule="evenodd" fill-opacity="1" /><path clip-path="url(#clip970)" d="M201.598 146.055 Q197.987 146.055 196.158 149.62 Q194.352 153.161 194.352 160.291 Q194.352 167.397 196.158 170.962 Q197.987 174.504 201.598 174.504 Q205.232 174.504 207.037 170.962 Q208.866 167.397 208.866 160.291 Q208.866 153.161 207.037 149.62 Q205.232 146.055 201.598 146.055 M201.598 142.351 Q207.408 142.351 210.463 146.958 Q213.542 151.541 213.542 160.291 Q213.542 169.018 210.463 173.624 Q207.408 178.208 201.598 178.208 Q195.787 178.208 192.709 173.624 Q189.653 169.018 189.653 160.291 Q189.653 151.541 192.709 146.958 Q195.787 142.351 201.598 142.351 Z" fill="#000000" fill-rule="evenodd" fill-opacity="1" /><path clip-path="url(#clip970)" d="M16.4842 830.792 L16.4842 803.484 L21.895 803.484 L21.895 824.363 L35.8996 824.363 L35.8996 805.521 L41.3104 805.521 L41.3104 824.363 L64.0042 824.363 L64.0042 830.792 L16.4842 830.792 Z" fill="#000000" fill-rule="evenodd" fill-opacity="1" /><path clip-path="url(#clip970)" d="M14.5426 779.485 Q21.8632 783.75 29.0246 785.819 Q36.186 787.888 43.5384 787.888 Q50.8908 787.888 58.1159 785.819 Q65.3091 783.718 72.5979 779.485 L72.5979 784.577 Q65.1182 789.352 57.8931 791.739 Q50.668 794.094 43.5384 794.094 Q36.4406 794.094 29.2474 791.739 Q22.0542 789.383 14.5426 784.577 L14.5426 779.485 Z" fill="#000000" fill-rule="evenodd" fill-opacity="1" /><path clip-path="url(#clip970)" d="M28.3562 738.49 L45.7028 751.38 L64.0042 737.821 L64.0042 744.728 L49.9996 755.104 L64.0042 765.48 L64.0042 772.387 L45.3526 758.542 L28.3562 771.209 L28.3562 764.303 L41.0558 754.85 L28.3562 745.396 L28.3562 738.49 Z" fill="#000000" fill-rule="evenodd" fill-opacity="1" /><path clip-path="url(#clip970)" d="M14.5426 730.469 L14.5426 725.376 Q22.0542 720.602 29.2474 718.247 Q36.4406 715.86 43.5384 715.86 Q50.668 715.86 57.8931 718.247 Q65.1182 720.602 72.5979 725.376 L72.5979 730.469 Q65.3091 726.236 58.1159 724.167 Q50.8908 722.066 43.5384 722.066 Q36.186 722.066 29.0246 724.167 Q21.8632 726.236 14.5426 730.469 Z" fill="#000000" fill-rule="evenodd" fill-opacity="1" /><path clip-path="url(#clip970)" d="M282.022 18.8205 L282.022 65.8515 L291.907 65.8515 Q304.424 65.8515 310.217 60.1802 Q316.05 54.509 316.05 42.2752 Q316.05 30.1225 310.217 24.4918 Q304.424 18.8205 291.907 18.8205 L282.022 18.8205 M273.84 12.096 L290.651 12.096 Q308.232 12.096 316.455 19.4281 Q324.679 26.7198 324.679 42.2752 Q324.679 57.9117 316.415 65.2439 Q308.151 72.576 290.651 72.576 L273.84 72.576 L273.84 12.096 Z" fill="#000000" fill-rule="evenodd" fill-opacity="1" /><path clip-path="url(#clip970)" d="M356.276 76.7889 Q353.116 84.8907 350.118 87.3618 Q347.121 89.8329 342.097 89.8329 L336.143 89.8329 L336.143 83.5945 L340.518 83.5945 Q343.596 83.5945 345.298 82.1361 Q346.999 80.6778 349.065 75.2496 L350.402 71.8468 L332.051 27.2059 L339.95 27.2059 L354.129 62.6918 L368.307 27.2059 L376.206 27.2059 L356.276 76.7889 Z" fill="#000000" fill-rule="evenodd" fill-opacity="1" /><path clip-path="url(#clip970)" d="M415.419 28.5427 L415.419 35.5912 Q412.259 33.9709 408.856 33.1607 Q405.454 32.3505 401.808 32.3505 Q396.258 32.3505 393.463 34.0519 Q390.708 35.7533 390.708 39.156 Q390.708 41.7486 392.693 43.2475 Q394.678 44.7058 400.673 46.0426 L403.226 46.6097 Q411.165 48.3111 414.487 51.4303 Q417.849 54.509 417.849 60.0587 Q417.849 66.3781 412.826 70.0644 Q407.844 73.7508 399.094 73.7508 Q395.448 73.7508 391.478 73.0216 Q387.549 72.3329 383.174 70.9151 L383.174 63.2184 Q387.305 65.3654 391.316 66.4591 Q395.326 67.5124 399.256 67.5124 Q404.522 67.5124 407.357 65.73 Q410.193 63.9071 410.193 60.6258 Q410.193 57.5877 408.127 55.9673 Q406.102 54.3469 399.175 52.8481 L396.582 52.2405 Q389.655 50.7821 386.576 47.7845 Q383.498 44.7463 383.498 39.4801 Q383.498 33.0797 388.035 29.5959 Q392.572 26.1121 400.917 26.1121 Q405.048 26.1121 408.694 26.7198 Q412.34 27.3274 415.419 28.5427 Z" fill="#000000" fill-rule="evenodd" fill-opacity="1" /><path clip-path="url(#clip970)" d="M437.091 14.324 L437.091 27.2059 L452.444 27.2059 L452.444 32.9987 L437.091 32.9987 L437.091 57.6282 Q437.091 63.1779 438.59 64.7578 Q440.129 66.3376 444.788 66.3376 L452.444 66.3376 L452.444 72.576 L444.788 72.576 Q436.159 72.576 432.878 69.3758 Q429.597 66.1351 429.597 57.6282 L429.597 32.9987 L424.128 32.9987 L424.128 27.2059 L429.597 27.2059 L429.597 14.324 L437.091 14.324 Z" fill="#000000" fill-rule="evenodd" fill-opacity="1" /><path clip-path="url(#clip970)" d="M488.538 34.1734 Q487.282 33.4443 485.783 33.1202 Q484.325 32.7556 482.542 32.7556 Q476.223 32.7556 472.82 36.8875 Q469.458 40.9789 469.458 48.6757 L469.458 72.576 L461.964 72.576 L461.964 27.2059 L469.458 27.2059 L469.458 34.2544 Q471.807 30.1225 475.575 28.1376 Q479.342 26.1121 484.73 26.1121 Q485.499 26.1121 486.431 26.2337 Q487.363 26.3147 488.497 26.5172 L488.538 34.1734 Z" fill="#000000" fill-rule="evenodd" fill-opacity="1" /><path clip-path="url(#clip970)" d="M515.233 76.7889 Q512.073 84.8907 509.076 87.3618 Q506.078 89.8329 501.055 89.8329 L495.1 89.8329 L495.1 83.5945 L499.475 83.5945 Q502.554 83.5945 504.255 82.1361 Q505.956 80.6778 508.022 75.2496 L509.359 71.8468 L491.009 27.2059 L498.908 27.2059 L513.086 62.6918 L527.264 27.2059 L535.163 27.2059 L515.233 76.7889 Z" fill="#000000" fill-rule="evenodd" fill-opacity="1" /><path clip-path="url(#clip970)" d="M578.022 49.9314 Q578.022 41.7081 574.619 37.0496 Q571.257 32.3505 565.343 32.3505 Q559.428 32.3505 556.026 37.0496 Q552.663 41.7081 552.663 49.9314 Q552.663 58.1548 556.026 62.8538 Q559.428 67.5124 565.343 67.5124 Q571.257 67.5124 574.619 62.8538 Q578.022 58.1548 578.022 49.9314 M552.663 34.0924 Q555.013 30.0415 558.578 28.0971 Q562.183 26.1121 567.166 26.1121 Q575.429 26.1121 580.574 32.6746 Q585.759 39.2371 585.759 49.9314 Q585.759 60.6258 580.574 67.1883 Q575.429 73.7508 567.166 73.7508 Q562.183 73.7508 558.578 71.8063 Q555.013 69.8214 552.663 65.7705 L552.663 72.576 L545.169 72.576 L545.169 9.54393 L552.663 9.54393 L552.663 34.0924 Z" fill="#000000" fill-rule="evenodd" fill-opacity="1" /><path clip-path="url(#clip970)" d="M597.345 54.671 L597.345 27.2059 L604.799 27.2059 L604.799 54.3874 Q604.799 60.8284 607.31 64.0691 Q609.822 67.2693 614.845 67.2693 Q620.881 67.2693 624.364 63.421 Q627.889 59.5726 627.889 52.9291 L627.889 27.2059 L635.342 27.2059 L635.342 72.576 L627.889 72.576 L627.889 65.6084 Q625.175 69.7404 621.569 71.7658 Q618.004 73.7508 613.265 73.7508 Q605.447 73.7508 601.396 68.8897 Q597.345 64.0286 597.345 54.671 M616.101 26.1121 L616.101 26.1121 Z" fill="#000000" fill-rule="evenodd" fill-opacity="1" /><path clip-path="url(#clip970)" d="M671.314 49.7694 Q662.281 49.7694 658.797 51.8354 Q655.313 53.9013 655.313 58.8839 Q655.313 62.8538 657.906 65.2034 Q660.539 67.5124 665.035 67.5124 Q671.233 67.5124 674.96 63.1374 Q678.728 58.7219 678.728 51.4303 L678.728 49.7694 L671.314 49.7694 M686.181 46.6907 L686.181 72.576 L678.728 72.576 L678.728 65.6895 Q676.175 69.8214 672.368 71.8063 Q668.56 73.7508 663.051 73.7508 Q656.083 73.7508 651.951 69.8619 Q647.86 65.9325 647.86 59.3701 Q647.86 51.7138 652.964 47.825 Q658.108 43.9361 668.276 43.9361 L678.728 43.9361 L678.728 43.2069 Q678.728 38.0623 675.325 35.2672 Q671.963 32.4315 665.846 32.4315 Q661.957 32.4315 658.27 33.3632 Q654.584 34.295 651.181 36.1584 L651.181 29.2718 Q655.273 27.692 659.121 26.9223 Q662.97 26.1121 666.615 26.1121 Q676.459 26.1121 681.32 31.2163 Q686.181 36.3204 686.181 46.6907 Z" fill="#000000" fill-rule="evenodd" fill-opacity="1" /><path clip-path="url(#clip970)" d="M739.248 45.1919 L739.248 72.576 L731.794 72.576 L731.794 45.4349 Q731.794 38.994 729.283 35.7938 Q726.771 32.5936 721.748 32.5936 Q715.712 32.5936 712.229 36.4419 Q708.745 40.2903 708.745 46.9338 L708.745 72.576 L701.251 72.576 L701.251 27.2059 L708.745 27.2059 L708.745 34.2544 Q711.418 30.163 715.024 28.1376 Q718.669 26.1121 723.409 26.1121 Q731.227 26.1121 735.238 30.9732 Q739.248 35.7938 739.248 45.1919 Z" fill="#000000" fill-rule="evenodd" fill-opacity="1" /><path clip-path="url(#clip970)" d="M761.488 14.324 L761.488 27.2059 L776.84 27.2059 L776.84 32.9987 L761.488 32.9987 L761.488 57.6282 Q761.488 63.1779 762.986 64.7578 Q764.526 66.3376 769.184 66.3376 L776.84 66.3376 L776.84 72.576 L769.184 72.576 Q760.556 72.576 757.275 69.3758 Q753.993 66.1351 753.993 57.6282 L753.993 32.9987 L748.525 32.9987 L748.525 27.2059 L753.993 27.2059 L753.993 14.324 L761.488 14.324 Z" fill="#000000" fill-rule="evenodd" fill-opacity="1" /><path clip-path="url(#clip970)" d="M807.263 49.7694 Q798.229 49.7694 794.745 51.8354 Q791.262 53.9013 791.262 58.8839 Q791.262 62.8538 793.854 65.2034 Q796.487 67.5124 800.984 67.5124 Q807.182 67.5124 810.909 63.1374 Q814.676 58.7219 814.676 51.4303 L814.676 49.7694 L807.263 49.7694 M822.13 46.6907 L822.13 72.576 L814.676 72.576 L814.676 65.6895 Q812.124 69.8214 808.316 71.8063 Q804.508 73.7508 798.999 73.7508 Q792.031 73.7508 787.899 69.8619 Q783.808 65.9325 783.808 59.3701 Q783.808 51.7138 788.912 47.825 Q794.057 43.9361 804.225 43.9361 L814.676 43.9361 L814.676 43.2069 Q814.676 38.0623 811.273 35.2672 Q807.911 32.4315 801.794 32.4315 Q797.905 32.4315 794.219 33.3632 Q790.532 34.295 787.13 36.1584 L787.13 29.2718 Q791.221 27.692 795.07 26.9223 Q798.918 26.1121 802.564 26.1121 Q812.407 26.1121 817.268 31.2163 Q822.13 36.3204 822.13 46.6907 Z" fill="#000000" fill-rule="evenodd" fill-opacity="1" /><path clip-path="url(#clip970)" d="M902.662 48.0275 L902.662 51.6733 L868.391 51.6733 Q868.877 59.3701 873.009 63.421 Q877.181 67.4314 884.594 67.4314 Q888.888 67.4314 892.899 66.3781 Q896.95 65.3249 900.92 63.2184 L900.92 70.267 Q896.909 71.9684 892.696 72.8596 Q888.483 73.7508 884.149 73.7508 Q873.292 73.7508 866.933 67.4314 Q860.613 61.1119 860.613 50.3365 Q860.613 39.1965 866.608 32.6746 Q872.644 26.1121 882.853 26.1121 Q892.008 26.1121 897.314 32.0264 Q902.662 37.9003 902.662 48.0275 M895.208 45.84 Q895.127 39.7232 891.765 36.0774 Q888.443 32.4315 882.934 32.4315 Q876.695 32.4315 872.928 35.9558 Q869.201 39.4801 868.634 45.8805 L895.208 45.84 Z" fill="#000000" fill-rule="evenodd" fill-opacity="1" /><path clip-path="url(#clip970)" d="M950.219 35.9153 Q953.014 30.8922 956.903 28.5022 Q960.792 26.1121 966.058 26.1121 Q973.147 26.1121 976.996 31.0947 Q980.844 36.0368 980.844 45.1919 L980.844 72.576 L973.35 72.576 L973.35 45.4349 Q973.35 38.913 971.041 35.7533 Q968.732 32.5936 963.992 32.5936 Q958.199 32.5936 954.837 36.4419 Q951.475 40.2903 951.475 46.9338 L951.475 72.576 L943.981 72.576 L943.981 45.4349 Q943.981 38.8725 941.672 35.7533 Q939.363 32.5936 934.542 32.5936 Q928.83 32.5936 925.468 36.4824 Q922.106 40.3308 922.106 46.9338 L922.106 72.576 L914.612 72.576 L914.612 27.2059 L922.106 27.2059 L922.106 34.2544 Q924.658 30.082 928.223 28.0971 Q931.788 26.1121 936.689 26.1121 Q941.631 26.1121 945.074 28.6237 Q948.558 31.1352 950.219 35.9153 Z" fill="#000000" fill-rule="evenodd" fill-opacity="1" /><path clip-path="url(#clip970)" d="M1002.92 65.7705 L1002.92 89.8329 L995.427 89.8329 L995.427 27.2059 L1002.92 27.2059 L1002.92 34.0924 Q1005.27 30.0415 1008.84 28.0971 Q1012.44 26.1121 1017.42 26.1121 Q1025.69 26.1121 1030.83 32.6746 Q1036.02 39.2371 1036.02 49.9314 Q1036.02 60.6258 1030.83 67.1883 Q1025.69 73.7508 1017.42 73.7508 Q1012.44 73.7508 1008.84 71.8063 Q1005.27 69.8214 1002.92 65.7705 M1028.28 49.9314 Q1028.28 41.7081 1024.88 37.0496 Q1021.52 32.3505 1015.6 32.3505 Q1009.69 32.3505 1006.28 37.0496 Q1002.92 41.7081 1002.92 49.9314 Q1002.92 58.1548 1006.28 62.8538 Q1009.69 67.5124 1015.6 67.5124 Q1021.52 67.5124 1024.88 62.8538 Q1028.28 58.1548 1028.28 49.9314 Z" fill="#000000" fill-rule="evenodd" fill-opacity="1" /><path clip-path="url(#clip970)" d="M1048.37 27.2059 L1055.83 27.2059 L1055.83 72.576 L1048.37 72.576 L1048.37 27.2059 M1048.37 9.54393 L1055.83 9.54393 L1055.83 18.9825 L1048.37 18.9825 L1048.37 9.54393 Z" fill="#000000" fill-rule="evenodd" fill-opacity="1" /><path clip-path="url(#clip970)" d="M1097.71 34.1734 Q1096.46 33.4443 1094.96 33.1202 Q1093.5 32.7556 1091.72 32.7556 Q1085.4 32.7556 1082 36.8875 Q1078.63 40.9789 1078.63 48.6757 L1078.63 72.576 L1071.14 72.576 L1071.14 27.2059 L1078.63 27.2059 L1078.63 34.2544 Q1080.98 30.1225 1084.75 28.1376 Q1088.52 26.1121 1093.9 26.1121 Q1094.67 26.1121 1095.61 26.2337 Q1096.54 26.3147 1097.67 26.5172 L1097.71 34.1734 Z" fill="#000000" fill-rule="evenodd" fill-opacity="1" /><path clip-path="url(#clip970)" d="M1124.41 76.7889 Q1121.25 84.8907 1118.25 87.3618 Q1115.25 89.8329 1110.23 89.8329 L1104.28 89.8329 L1104.28 83.5945 L1108.65 83.5945 Q1111.73 83.5945 1113.43 82.1361 Q1115.13 80.6778 1117.2 75.2496 L1118.53 71.8468 L1100.18 27.2059 L1108.08 27.2059 L1122.26 62.6918 L1136.44 27.2059 L1144.34 27.2059 L1124.41 76.7889 Z" fill="#000000" fill-rule="evenodd" fill-opacity="1" /><path clip-path="url(#clip970)" d="M1187.28 28.9478 L1187.28 35.9153 Q1184.12 34.1734 1180.92 33.3227 Q1177.76 32.4315 1174.52 32.4315 Q1167.27 32.4315 1163.26 37.0496 Q1159.25 41.6271 1159.25 49.9314 Q1159.25 58.2358 1163.26 62.8538 Q1167.27 67.4314 1174.52 67.4314 Q1177.76 67.4314 1180.92 66.5807 Q1184.12 65.6895 1187.28 63.9476 L1187.28 70.8341 Q1184.16 72.2924 1180.8 73.0216 Q1177.47 73.7508 1173.71 73.7508 Q1163.46 73.7508 1157.42 67.3098 Q1151.39 60.8689 1151.39 49.9314 Q1151.39 38.832 1157.46 32.472 Q1163.58 26.1121 1174.19 26.1121 Q1177.64 26.1121 1180.92 26.8413 Q1184.2 27.5299 1187.28 28.9478 Z" fill="#000000" fill-rule="evenodd" fill-opacity="1" /><path clip-path="url(#clip970)" d="M1197 27.2059 L1232.41 27.2059 L1232.41 34.0114 L1204.37 66.6212 L1232.41 66.6212 L1232.41 72.576 L1195.99 72.576 L1195.99 65.7705 L1224.02 33.1607 L1197 33.1607 L1197 27.2059 Z" fill="#000000" fill-rule="evenodd" fill-opacity="1" /><path clip-path="url(#clip970)" d="M1281.5 45.1919 L1281.5 72.576 L1274.05 72.576 L1274.05 45.4349 Q1274.05 38.994 1271.54 35.7938 Q1269.03 32.5936 1264 32.5936 Q1257.97 32.5936 1254.48 36.4419 Q1251 40.2903 1251 46.9338 L1251 72.576 L1243.5 72.576 L1243.5 27.2059 L1251 27.2059 L1251 34.2544 Q1253.67 30.163 1257.28 28.1376 Q1260.92 26.1121 1265.66 26.1121 Q1273.48 26.1121 1277.49 30.9732 Q1281.5 35.7938 1281.5 45.1919 Z" fill="#000000" fill-rule="evenodd" fill-opacity="1" /><path clip-path="url(#clip970)" d="M1316.99 49.7694 Q1307.95 49.7694 1304.47 51.8354 Q1300.99 53.9013 1300.99 58.8839 Q1300.99 62.8538 1303.58 65.2034 Q1306.21 67.5124 1310.71 67.5124 Q1316.91 67.5124 1320.63 63.1374 Q1324.4 58.7219 1324.4 51.4303 L1324.4 49.7694 L1316.99 49.7694 M1331.85 46.6907 L1331.85 72.576 L1324.4 72.576 L1324.4 65.6895 Q1321.85 69.8214 1318.04 71.8063 Q1314.23 73.7508 1308.72 73.7508 Q1301.76 73.7508 1297.62 69.8619 Q1293.53 65.9325 1293.53 59.3701 Q1293.53 51.7138 1298.64 47.825 Q1303.78 43.9361 1313.95 43.9361 L1324.4 43.9361 L1324.4 43.2069 Q1324.4 38.0623 1321 35.2672 Q1317.64 32.4315 1311.52 32.4315 Q1307.63 32.4315 1303.94 33.3632 Q1300.26 34.295 1296.86 36.1584 L1296.86 29.2718 Q1300.95 27.692 1304.79 26.9223 Q1308.64 26.1121 1312.29 26.1121 Q1322.13 26.1121 1326.99 31.2163 Q1331.85 36.3204 1331.85 46.6907 Z" fill="#000000" fill-rule="evenodd" fill-opacity="1" /><path clip-path="url(#clip970)" d="M1369.81 46.5287 L1391.65 46.5287 L1391.65 53.1722 L1369.81 53.1722 L1369.81 46.5287 Z" fill="#000000" fill-rule="evenodd" fill-opacity="1" /><path clip-path="url(#clip970)" d="M1467.6 45.1919 L1467.6 72.576 L1460.15 72.576 L1460.15 45.4349 Q1460.15 38.994 1457.64 35.7938 Q1455.12 32.5936 1450.1 32.5936 Q1444.06 32.5936 1440.58 36.4419 Q1437.1 40.2903 1437.1 46.9338 L1437.1 72.576 L1429.6 72.576 L1429.6 27.2059 L1437.1 27.2059 L1437.1 34.2544 Q1439.77 30.163 1443.38 28.1376 Q1447.02 26.1121 1451.76 26.1121 Q1459.58 26.1121 1463.59 30.9732 Q1467.6 35.7938 1467.6 45.1919 Z" fill="#000000" fill-rule="evenodd" fill-opacity="1" /><path clip-path="url(#clip970)" d="M1503.09 49.7694 Q1494.05 49.7694 1490.57 51.8354 Q1487.09 53.9013 1487.09 58.8839 Q1487.09 62.8538 1489.68 65.2034 Q1492.31 67.5124 1496.81 67.5124 Q1503.01 67.5124 1506.73 63.1374 Q1510.5 58.7219 1510.5 51.4303 L1510.5 49.7694 L1503.09 49.7694 M1517.95 46.6907 L1517.95 72.576 L1510.5 72.576 L1510.5 65.6895 Q1507.95 69.8214 1504.14 71.8063 Q1500.33 73.7508 1494.82 73.7508 Q1487.86 73.7508 1483.72 69.8619 Q1479.63 65.9325 1479.63 59.3701 Q1479.63 51.7138 1484.74 47.825 Q1489.88 43.9361 1500.05 43.9361 L1510.5 43.9361 L1510.5 43.2069 Q1510.5 38.0623 1507.1 35.2672 Q1503.73 32.4315 1497.62 32.4315 Q1493.73 32.4315 1490.04 33.3632 Q1486.36 34.295 1482.95 36.1584 L1482.95 29.2718 Q1487.04 27.692 1490.89 26.9223 Q1494.74 26.1121 1498.39 26.1121 Q1508.23 26.1121 1513.09 31.2163 Q1517.95 36.3204 1517.95 46.6907 Z" fill="#000000" fill-rule="evenodd" fill-opacity="1" /><path clip-path="url(#clip970)" d="M1563.16 34.0924 L1563.16 9.54393 L1570.62 9.54393 L1570.62 72.576 L1563.16 72.576 L1563.16 65.7705 Q1560.81 69.8214 1557.21 71.8063 Q1553.64 73.7508 1548.62 73.7508 Q1540.4 73.7508 1535.21 67.1883 Q1530.07 60.6258 1530.07 49.9314 Q1530.07 39.2371 1535.21 32.6746 Q1540.4 26.1121 1548.62 26.1121 Q1553.64 26.1121 1557.21 28.0971 Q1560.81 30.0415 1563.16 34.0924 M1537.76 49.9314 Q1537.76 58.1548 1541.12 62.8538 Q1544.53 67.5124 1550.44 67.5124 Q1556.36 67.5124 1559.76 62.8538 Q1563.16 58.1548 1563.16 49.9314 Q1563.16 41.7081 1559.76 37.0496 Q1556.36 32.3505 1550.44 32.3505 Q1544.53 32.3505 1541.12 37.0496 Q1537.76 41.7081 1537.76 49.9314 Z" fill="#000000" fill-rule="evenodd" fill-opacity="1" /><path clip-path="url(#clip970)" d="M1581.63 27.2059 L1589.09 27.2059 L1598.4 62.6108 L1607.68 27.2059 L1616.47 27.2059 L1625.79 62.6108 L1635.07 27.2059 L1642.52 27.2059 L1630.65 72.576 L1621.86 72.576 L1612.1 35.3887 L1602.29 72.576 L1593.5 72.576 L1581.63 27.2059 Z" fill="#000000" fill-rule="evenodd" fill-opacity="1" /><path clip-path="url(#clip970)" d="M1672.7 76.7889 Q1669.54 84.8907 1666.54 87.3618 Q1663.54 89.8329 1658.52 89.8329 L1652.56 89.8329 L1652.56 83.5945 L1656.94 83.5945 Q1660.02 83.5945 1661.72 82.1361 Q1663.42 80.6778 1665.49 75.2496 L1666.82 71.8468 L1648.47 27.2059 L1656.37 27.2059 L1670.55 62.6918 L1684.73 27.2059 L1692.63 27.2059 L1672.7 76.7889 Z" fill="#000000" fill-rule="evenodd" fill-opacity="1" /><path clip-path="url(#clip970)" d="M1712.96 9.54393 L1720.42 9.54393 L1720.42 18.9825 L1712.96 18.9825 L1712.96 9.54393 M1716.77 26.1121 L1716.77 26.1121 M1699.68 27.2059 L1735.08 27.2059 L1735.08 34.0114 L1707.05 66.6212 L1735.08 66.6212 L1735.08 72.576 L1698.66 72.576 L1698.66 65.7705 L1726.7 33.1607 L1699.68 33.1607 L1699.68 27.2059 Z" fill="#000000" fill-rule="evenodd" fill-opacity="1" /><path clip-path="url(#clip970)" d="M1746.18 9.54393 L1753.68 9.54393 L1753.68 46.7717 L1775.91 27.2059 L1785.43 27.2059 L1761.37 48.4326 L1786.45 72.576 L1776.73 72.576 L1753.68 50.4176 L1753.68 72.576 L1746.18 72.576 L1746.18 9.54393 Z" fill="#000000" fill-rule="evenodd" fill-opacity="1" /><path clip-path="url(#clip970)" d="M1813.67 49.7694 Q1804.64 49.7694 1801.15 51.8354 Q1797.67 53.9013 1797.67 58.8839 Q1797.67 62.8538 1800.26 65.2034 Q1802.89 67.5124 1807.39 67.5124 Q1813.59 67.5124 1817.32 63.1374 Q1821.08 58.7219 1821.08 51.4303 L1821.08 49.7694 L1813.67 49.7694 M1828.54 46.6907 L1828.54 72.576 L1821.08 72.576 L1821.08 65.6895 Q1818.53 69.8214 1814.72 71.8063 Q1810.91 73.7508 1805.41 73.7508 Q1798.44 73.7508 1794.31 69.8619 Q1790.21 65.9325 1790.21 59.3701 Q1790.21 51.7138 1795.32 47.825 Q1800.46 43.9361 1810.63 43.9361 L1821.08 43.9361 L1821.08 43.2069 Q1821.08 38.0623 1817.68 35.2672 Q1814.32 32.4315 1808.2 32.4315 Q1804.31 32.4315 1800.63 33.3632 Q1796.94 34.295 1793.54 36.1584 L1793.54 29.2718 Q1797.63 27.692 1801.48 26.9223 Q1805.32 26.1121 1808.97 26.1121 Q1818.81 26.1121 1823.68 31.2163 Q1828.54 36.3204 1828.54 46.6907 Z" fill="#000000" fill-rule="evenodd" fill-opacity="1" /><path clip-path="url(#clip970)" d="M1877.47 65.7705 L1877.47 89.8329 L1869.98 89.8329 L1869.98 27.2059 L1877.47 27.2059 L1877.47 34.0924 Q1879.82 30.0415 1883.39 28.0971 Q1886.99 26.1121 1891.97 26.1121 Q1900.24 26.1121 1905.38 32.6746 Q1910.57 39.2371 1910.57 49.9314 Q1910.57 60.6258 1905.38 67.1883 Q1900.24 73.7508 1891.97 73.7508 Q1886.99 73.7508 1883.39 71.8063 Q1879.82 69.8214 1877.47 65.7705 M1902.83 49.9314 Q1902.83 41.7081 1899.43 37.0496 Q1896.06 32.3505 1890.15 32.3505 Q1884.24 32.3505 1880.83 37.0496 Q1877.47 41.7081 1877.47 49.9314 Q1877.47 58.1548 1880.83 62.8538 Q1884.24 67.5124 1890.15 67.5124 Q1896.06 67.5124 1899.43 62.8538 Q1902.83 58.1548 1902.83 49.9314 Z" fill="#000000" fill-rule="evenodd" fill-opacity="1" /><path clip-path="url(#clip970)" d="M1949.21 34.1734 Q1947.96 33.4443 1946.46 33.1202 Q1945 32.7556 1943.22 32.7556 Q1936.9 32.7556 1933.5 36.8875 Q1930.13 40.9789 1930.13 48.6757 L1930.13 72.576 L1922.64 72.576 L1922.64 27.2059 L1930.13 27.2059 L1930.13 34.2544 Q1932.48 30.1225 1936.25 28.1376 Q1940.02 26.1121 1945.4 26.1121 Q1946.17 26.1121 1947.11 26.2337 Q1948.04 26.3147 1949.17 26.5172 L1949.21 34.1734 Z" fill="#000000" fill-rule="evenodd" fill-opacity="1" /><path clip-path="url(#clip970)" d="M1972.79 32.4315 Q1966.79 32.4315 1963.31 37.1306 Q1959.83 41.7891 1959.83 49.9314 Q1959.83 58.0738 1963.27 62.7728 Q1966.75 67.4314 1972.79 67.4314 Q1978.74 67.4314 1982.23 62.7323 Q1985.71 58.0333 1985.71 49.9314 Q1985.71 41.8701 1982.23 37.1711 Q1978.74 32.4315 1972.79 32.4315 M1972.79 26.1121 Q1982.51 26.1121 1988.06 32.4315 Q1993.61 38.7509 1993.61 49.9314 Q1993.61 61.0714 1988.06 67.4314 Q1982.51 73.7508 1972.79 73.7508 Q1963.03 73.7508 1957.48 67.4314 Q1951.97 61.0714 1951.97 49.9314 Q1951.97 38.7509 1957.48 32.4315 Q1963.03 26.1121 1972.79 26.1121 Z" fill="#000000" fill-rule="evenodd" fill-opacity="1" /><path clip-path="url(#clip970)" d="M2035.82 34.0924 L2035.82 9.54393 L2043.27 9.54393 L2043.27 72.576 L2035.82 72.576 L2035.82 65.7705 Q2033.47 69.8214 2029.87 71.8063 Q2026.3 73.7508 2021.28 73.7508 Q2013.05 73.7508 2007.87 67.1883 Q2002.73 60.6258 2002.73 49.9314 Q2002.73 39.2371 2007.87 32.6746 Q2013.05 26.1121 2021.28 26.1121 Q2026.3 26.1121 2029.87 28.0971 Q2033.47 30.0415 2035.82 34.0924 M2010.42 49.9314 Q2010.42 58.1548 2013.78 62.8538 Q2017.19 67.5124 2023.1 67.5124 Q2029.02 67.5124 2032.42 62.8538 Q2035.82 58.1548 2035.82 49.9314 Q2035.82 41.7081 2032.42 37.0496 Q2029.02 32.3505 2023.1 32.3505 Q2017.19 32.3505 2013.78 37.0496 Q2010.42 41.7081 2010.42 49.9314 Z" fill="#000000" fill-rule="evenodd" fill-opacity="1" /><path clip-path="url(#clip970)" d="M2057.86 54.671 L2057.86 27.2059 L2065.31 27.2059 L2065.31 54.3874 Q2065.31 60.8284 2067.82 64.0691 Q2070.33 67.2693 2075.36 67.2693 Q2081.39 67.2693 2084.88 63.421 Q2088.4 59.5726 2088.4 52.9291 L2088.4 27.2059 L2095.86 27.2059 L2095.86 72.576 L2088.4 72.576 L2088.4 65.6084 Q2085.69 69.7404 2082.08 71.7658 Q2078.52 73.7508 2073.78 73.7508 Q2065.96 73.7508 2061.91 68.8897 Q2057.86 64.0286 2057.86 54.671 M2076.61 26.1121 L2076.61 26.1121 Z" fill="#000000" fill-rule="evenodd" fill-opacity="1" /><path clip-path="url(#clip970)" d="M2143.86 28.9478 L2143.86 35.9153 Q2140.7 34.1734 2137.5 33.3227 Q2134.34 32.4315 2131.1 32.4315 Q2123.85 32.4315 2119.84 37.0496 Q2115.83 41.6271 2115.83 49.9314 Q2115.83 58.2358 2119.84 62.8538 Q2123.85 67.4314 2131.1 67.4314 Q2134.34 67.4314 2137.5 66.5807 Q2140.7 65.6895 2143.86 63.9476 L2143.86 70.8341 Q2140.74 72.2924 2137.38 73.0216 Q2134.06 73.7508 2130.29 73.7508 Q2120.04 73.7508 2114 67.3098 Q2107.97 60.8689 2107.97 49.9314 Q2107.97 38.832 2114.04 32.472 Q2120.16 26.1121 2130.77 26.1121 Q2134.22 26.1121 2137.5 26.8413 Q2140.78 27.5299 2143.86 28.9478 Z" fill="#000000" fill-rule="evenodd" fill-opacity="1" /><path clip-path="url(#clip970)" d="M2195.63 48.0275 L2195.63 51.6733 L2161.36 51.6733 Q2161.84 59.3701 2165.98 63.421 Q2170.15 67.4314 2177.56 67.4314 Q2181.86 67.4314 2185.87 66.3781 Q2189.92 65.3249 2193.89 63.2184 L2193.89 70.267 Q2189.88 71.9684 2185.66 72.8596 Q2181.45 73.7508 2177.12 73.7508 Q2166.26 73.7508 2159.9 67.4314 Q2153.58 61.1119 2153.58 50.3365 Q2153.58 39.1965 2159.58 32.6746 Q2165.61 26.1121 2175.82 26.1121 Q2184.98 26.1121 2190.28 32.0264 Q2195.63 37.9003 2195.63 48.0275 M2188.18 45.84 Q2188.09 39.7232 2184.73 36.0774 Q2181.41 32.4315 2175.9 32.4315 Q2169.66 32.4315 2165.9 35.9558 Q2162.17 39.4801 2161.6 45.8805 L2188.18 45.84 Z" fill="#000000" fill-rule="evenodd" fill-opacity="1" /><path clip-path="url(#clip970)" d="M2245.58 45.1919 L2245.58 72.576 L2238.12 72.576 L2238.12 45.4349 Q2238.12 38.994 2235.61 35.7938 Q2233.1 32.5936 2228.08 32.5936 Q2222.04 32.5936 2218.56 36.4419 Q2215.07 40.2903 2215.07 46.9338 L2215.07 72.576 L2207.58 72.576 L2207.58 27.2059 L2215.07 27.2059 L2215.07 34.2544 Q2217.75 30.163 2221.35 28.1376 Q2225 26.1121 2229.74 26.1121 Q2237.56 26.1121 2241.57 30.9732 Q2245.58 35.7938 2245.58 45.1919 Z" fill="#000000" fill-rule="evenodd" fill-opacity="1" /><path clip-path="url(#clip970)" d="M2267.82 14.324 L2267.82 27.2059 L2283.17 27.2059 L2283.17 32.9987 L2267.82 32.9987 L2267.82 57.6282 Q2267.82 63.1779 2269.32 64.7578 Q2270.85 66.3376 2275.51 66.3376 L2283.17 66.3376 L2283.17 72.576 L2275.51 72.576 Q2266.88 72.576 2263.6 69.3758 Q2260.32 66.1351 2260.32 57.6282 L2260.32 32.9987 L2254.85 32.9987 L2254.85 27.2059 L2260.32 27.2059 L2260.32 14.324 L2267.82 14.324 Z" fill="#000000" fill-rule="evenodd" fill-opacity="1" /><path clip-path="url(#clip970)" d="M2313.59 49.7694 Q2304.56 49.7694 2301.07 51.8354 Q2297.59 53.9013 2297.59 58.8839 Q2297.59 62.8538 2300.18 65.2034 Q2302.82 67.5124 2307.31 67.5124 Q2313.51 67.5124 2317.24 63.1374 Q2321 58.7219 2321 51.4303 L2321 49.7694 L2313.59 49.7694 M2328.46 46.6907 L2328.46 72.576 L2321 72.576 L2321 65.6895 Q2318.45 69.8214 2314.64 71.8063 Q2310.84 73.7508 2305.33 73.7508 Q2298.36 73.7508 2294.23 69.8619 Q2290.14 65.9325 2290.14 59.3701 Q2290.14 51.7138 2295.24 47.825 Q2300.39 43.9361 2310.55 43.9361 L2321 43.9361 L2321 43.2069 Q2321 38.0623 2317.6 35.2672 Q2314.24 32.4315 2308.12 32.4315 Q2304.23 32.4315 2300.55 33.3632 Q2296.86 34.295 2293.46 36.1584 L2293.46 29.2718 Q2297.55 27.692 2301.4 26.9223 Q2305.25 26.1121 2308.89 26.1121 Q2318.74 26.1121 2323.6 31.2163 Q2328.46 36.3204 2328.46 46.6907 Z" fill="#000000" fill-rule="evenodd" fill-opacity="1" /><polyline clip-path="url(#clip972)" style="stroke:#009af9; stroke-linecap:butt; stroke-linejoin:round; stroke-width:4; stroke-opacity:1; fill:none" points="
  309.067,1386.4 332.104,1380.23 373.592,1374.07 492.658,1367.91 494.723,1361.75 502.588,1355.59 511.479,1349.43 519.461,1343.27 534.22,1337.1 549.922,1330.94 
  564.329,1324.78 565.019,1318.62 567.177,1312.46 574.592,1306.3 575.464,1300.13 578.111,1293.97 587.08,1287.81 596.14,1281.65 599.962,1275.49 600.474,1269.33 
  603.134,1263.17 617.425,1257 618.153,1250.84 632.404,1244.68 636.764,1238.52 637.346,1232.36 650.715,1226.2 658.29,1220.04 658.455,1213.87 661.235,1207.71 
  662.001,1201.55 674.454,1195.39 674.557,1189.23 675.09,1183.07 676.347,1176.9 680.984,1170.74 681.017,1164.58 681.933,1158.42 682.904,1152.26 683.685,1146.1 
  684.843,1139.94 685.009,1133.77 687.279,1127.61 690.854,1121.45 691.619,1115.29 694.135,1109.13 695.943,1102.97 697.361,1096.8 700.243,1090.64 700.516,1084.48 
  700.556,1078.32 701.571,1072.16 704.605,1066 705.071,1059.84 709.553,1053.67 712.337,1047.51 712.951,1041.35 716.289,1035.19 717.543,1029.03 718.528,1022.87 
  718.989,1016.71 721.311,1010.54 730.036,1004.38 733.834,998.221 734.529,992.059 735.698,985.898 735.958,979.736 736.924,973.575 737.667,967.413 738.14,961.252 
  738.663,955.09 739.493,948.929 752.408,942.767 753.242,936.606 755.877,930.444 757.599,924.283 759.138,918.121 760.689,911.96 764.464,905.798 764.663,899.637 
  764.701,893.475 770.254,887.314 770.856,881.152 771.337,874.991 771.389,868.829 772.851,862.668 773.052,856.506 778.63,850.345 778.994,844.183 782.74,838.022 
  787.304,831.86 790.073,825.699 797.339,819.537 797.735,813.376 799.92,807.214 800.331,801.053 803.547,794.891 805.729,788.73 809.848,782.568 814.151,776.407 
  815.579,770.245 816.228,764.084 819.539,757.922 819.631,751.761 826.492,745.599 832.456,739.438 836.826,733.276 838.881,727.115 845.577,720.953 861.169,714.792 
  865.032,708.63 865.146,702.469 865.696,696.307 869.544,690.146 870.692,683.984 871.643,677.823 879.929,671.661 882.35,665.5 892.422,659.338 896.287,653.177 
  896.545,647.015 897.07,640.854 900.448,634.692 906.759,628.531 915.023,622.369 916.437,616.208 920.774,610.046 922.233,603.885 926.766,597.723 931.221,591.562 
  932.115,585.4 932.275,579.239 933.346,573.077 934.564,566.916 942.767,560.754 956.346,554.593 957.086,548.431 958.555,542.27 971.688,536.108 984.4,529.947 
  984.812,523.785 990.276,517.624 1002.8,511.462 1007.01,505.301 1016.25,499.139 1016.9,492.978 1027.25,486.816 1029.17,480.655 1029.9,474.493 1034.03,468.332 
  1048.7,462.17 1050.64,456.009 1052.85,449.847 1056.82,443.686 1061.06,437.524 1066.04,431.362 1066.22,425.201 1067.3,419.039 1070.92,412.878 1075.06,406.716 
  1115.48,400.555 1116.02,394.393 1129.21,388.232 1132.26,382.07 1138.84,375.909 1145.24,369.747 1150.03,363.586 1153.79,357.424 1188.38,351.263 1193.76,345.101 
  1194.45,338.94 1212.51,332.778 1215.76,326.617 1220.51,320.455 1220.52,314.294 1231.11,308.132 1242.06,301.971 1268.63,295.809 1275.75,289.648 1337.48,283.486 
  1367.45,277.325 1374.44,271.163 1377.09,265.002 1384.21,258.84 1390.86,252.679 1409.07,246.517 1414.47,240.356 1435.5,234.194 1456.18,228.033 1456.66,221.871 
  1479.38,215.71 1497.11,209.548 1526.1,203.387 1588.09,197.225 1625.84,191.064 1756.47,184.902 1824.87,178.741 1853.83,172.579 1869.16,166.418 1907.99,160.256 
  
  "/>
<polyline clip-path="url(#clip972)" style="stroke:#e26f46; stroke-linecap:butt; stroke-linejoin:round; stroke-width:4; stroke-opacity:1; fill:none" points="
  406.842,1386.4 422.74,1380.23 437.091,1374.07 460.566,1367.91 463.405,1361.75 510.305,1355.59 522.046,1349.43 535.049,1343.27 535.085,1337.1 547.12,1330.94 
  563.035,1324.78 568.876,1318.62 571.187,1312.46 575.802,1306.3 576.109,1300.13 583.422,1293.97 587.546,1287.81 588.454,1281.65 588.728,1275.49 605.587,1269.33 
  605.694,1263.17 621.534,1257 626.325,1250.84 627.576,1244.68 630.141,1238.52 633.894,1232.36 643.793,1226.2 649.646,1220.04 651.074,1213.87 652.409,1207.71 
  656.433,1201.55 656.494,1195.39 667.103,1189.23 668.74,1183.07 669.014,1176.9 669.364,1170.74 671.254,1164.58 677.825,1158.42 687.475,1152.26 698.987,1146.1 
  700.059,1139.94 700.062,1133.77 703.161,1127.61 704.953,1121.45 706.967,1115.29 714.963,1109.13 715.553,1102.97 716.885,1096.8 720.3,1090.64 722.09,1084.48 
  729.562,1078.32 732.055,1072.16 733.993,1066 736.641,1059.84 739.947,1053.67 740.719,1047.51 746.194,1041.35 748.501,1035.19 748.843,1029.03 757.424,1022.87 
  757.781,1016.71 758.785,1010.54 759.762,1004.38 760.252,998.221 763.096,992.059 765.36,985.898 765.882,979.736 767.495,973.575 773.896,967.413 776.31,961.252 
  779.813,955.09 781.757,948.929 793.177,942.767 794.779,936.606 796.571,930.444 801.843,924.283 805.49,918.121 815.336,911.96 819.812,905.798 828.311,899.637 
  828.463,893.475 829.314,887.314 836.375,881.152 836.863,874.991 837.947,868.829 838.545,862.668 841.727,856.506 844.097,850.345 844.862,844.183 848.686,838.022 
  849.161,831.86 851.077,825.699 852.931,819.537 853.775,813.376 858.043,807.214 859.506,801.053 867.744,794.891 868.123,788.73 868.364,782.568 869.258,776.407 
  871.358,770.245 876.468,764.084 877.178,757.922 878.048,751.761 881.988,745.599 884.604,739.438 887.814,733.276 893.002,727.115 895.115,720.953 899.284,714.792 
  899.306,708.63 909.291,702.469 921.441,696.307 927.716,690.146 932.215,683.984 933.637,677.823 953.188,671.661 962.474,665.5 965.235,659.338 965.433,653.177 
  966.01,647.015 966.249,640.854 978.626,634.692 989.949,628.531 992.112,622.369 994.954,616.208 998.441,610.046 1001.11,603.885 1006.49,597.723 1007.35,591.562 
  1014,585.4 1018.21,579.239 1019.13,573.077 1021.44,566.916 1028.83,560.754 1029.97,554.593 1045.16,548.431 1051.57,542.27 1054.95,536.108 1054.98,529.947 
  1059.25,523.785 1068.81,517.624 1083.51,511.462 1083.93,505.301 1090.69,499.139 1092.87,492.978 1093.46,486.816 1094.32,480.655 1117,474.493 1119.88,468.332 
  1126.81,462.17 1148.18,456.009 1155.28,449.847 1174.27,443.686 1177.24,437.524 1184.51,431.362 1186.1,425.201 1200.74,419.039 1203.03,412.878 1255.73,406.716 
  1265.04,400.555 1266.67,394.393 1278.79,388.232 1284.79,382.07 1298.8,375.909 1302.34,369.747 1303.73,363.586 1309.33,357.424 1313.92,351.263 1317.23,345.101 
  1345.06,338.94 1351.03,332.778 1381.88,326.617 1403.34,320.455 1411.16,314.294 1411.95,308.132 1415.42,301.971 1419.65,295.809 1467.51,289.648 1496.45,283.486 
  1498.4,277.325 1513.78,271.163 1605.19,265.002 1635.94,258.84 1679.15,252.679 1698.82,246.517 1713,240.356 1770.65,234.194 1794.18,228.033 1813.24,221.871 
  1819.06,215.71 1827.57,209.548 1828.81,203.387 1837.08,197.225 1929.52,191.064 1942.31,184.902 2080.35,178.741 2139.71,172.579 2178.68,166.418 2293.23,160.256 
  
  "/>
<path clip-path="url(#clip970)" d="
M1471.06 1379.86 L2282.65 1379.86 L2282.65 1302.1 L1471.06 1302.1  Z
  " fill="#ffffff" fill-rule="evenodd" fill-opacity="1"/>
<polyline clip-path="url(#clip970)" style="stroke:#000000; stroke-linecap:butt; stroke-linejoin:round; stroke-width:4; stroke-opacity:1; fill:none" points="
  1471.06,1379.86 2282.65,1379.86 2282.65,1302.1 1471.06,1302.1 1471.06,1379.86 
  "/>
<polyline clip-path="url(#clip970)" style="stroke:#009af9; stroke-linecap:butt; stroke-linejoin:round; stroke-width:3; stroke-opacity:1; fill:none" points="
  1494.43,1340.98 1634.65,1340.98 
  "/>
<path clip-path="url(#clip970)" d="M1666.83 1321.44 L1670.38 1321.44 L1670.38 1325 L1666.83 1325 L1666.83 1321.44 M1658.41 1328.02 L1678.78 1328.02 L1678.78 1330.69 L1662.39 1350.98 L1679.18 1350.98 L1679.18 1353.94 L1658.01 1353.94 L1658.01 1351.26 L1674.4 1330.97 L1658.41 1330.97 L1658.41 1328.02 Z" fill="#000000" fill-rule="evenodd" fill-opacity="1" /><path clip-path="url(#clip970)" d="M1692.96 1344.16 Q1689.09 1344.16 1687.6 1345.05 Q1686.1 1345.93 1686.1 1348.07 Q1686.1 1349.77 1687.22 1350.78 Q1688.34 1351.77 1690.27 1351.77 Q1692.93 1351.77 1694.52 1349.89 Q1696.14 1348 1696.14 1344.87 L1696.14 1344.16 L1692.96 1344.16 M1699.33 1342.84 L1699.33 1353.94 L1696.14 1353.94 L1696.14 1350.98 Q1695.05 1352.76 1693.41 1353.61 Q1691.78 1354.44 1689.42 1354.44 Q1686.43 1354.44 1684.66 1352.77 Q1682.91 1351.09 1682.91 1348.28 Q1682.91 1345 1685.1 1343.33 Q1687.3 1341.66 1691.66 1341.66 L1696.14 1341.66 L1696.14 1341.35 Q1696.14 1339.14 1694.68 1337.95 Q1693.24 1336.73 1690.62 1336.73 Q1688.95 1336.73 1687.37 1337.13 Q1685.79 1337.53 1684.33 1338.33 L1684.33 1335.38 Q1686.09 1334.7 1687.74 1334.37 Q1689.39 1334.02 1690.95 1334.02 Q1695.17 1334.02 1697.25 1336.21 Q1699.33 1338.4 1699.33 1342.84 Z" fill="#000000" fill-rule="evenodd" fill-opacity="1" /><path clip-path="url(#clip970)" d="M1718.71 1337.44 L1718.71 1326.92 L1721.9 1326.92 L1721.9 1353.94 L1718.71 1353.94 L1718.71 1351.02 Q1717.7 1352.76 1716.16 1353.61 Q1714.63 1354.44 1712.48 1354.44 Q1708.95 1354.44 1706.73 1351.63 Q1704.52 1348.81 1704.52 1344.23 Q1704.52 1339.65 1706.73 1336.84 Q1708.95 1334.02 1712.48 1334.02 Q1714.63 1334.02 1716.16 1334.87 Q1717.7 1335.71 1718.71 1337.44 M1707.82 1344.23 Q1707.82 1347.76 1709.26 1349.77 Q1710.72 1351.77 1713.26 1351.77 Q1715.79 1351.77 1717.25 1349.77 Q1718.71 1347.76 1718.71 1344.23 Q1718.71 1340.71 1717.25 1338.71 Q1715.79 1336.7 1713.26 1336.7 Q1710.72 1336.7 1709.26 1338.71 Q1707.82 1340.71 1707.82 1344.23 Z" fill="#000000" fill-rule="evenodd" fill-opacity="1" /><path clip-path="url(#clip970)" d="M1745.11 1343.42 L1745.11 1344.98 L1730.43 1344.98 Q1730.64 1348.28 1732.41 1350.01 Q1734.19 1351.73 1737.37 1351.73 Q1739.21 1351.73 1740.93 1351.28 Q1742.67 1350.83 1744.37 1349.93 L1744.37 1352.95 Q1742.65 1353.68 1740.84 1354.06 Q1739.04 1354.44 1737.18 1354.44 Q1732.53 1354.44 1729.8 1351.73 Q1727.09 1349.02 1727.09 1344.41 Q1727.09 1339.63 1729.66 1336.84 Q1732.25 1334.02 1736.63 1334.02 Q1740.55 1334.02 1742.82 1336.56 Q1745.11 1339.08 1745.11 1343.42 M1741.92 1342.48 Q1741.89 1339.86 1740.44 1338.29 Q1739.02 1336.73 1736.66 1336.73 Q1733.99 1336.73 1732.37 1338.24 Q1730.77 1339.75 1730.53 1342.5 L1741.92 1342.48 Z" fill="#000000" fill-rule="evenodd" fill-opacity="1" /><path clip-path="url(#clip970)" d="M1766.52 1342.2 L1766.52 1353.94 L1763.33 1353.94 L1763.33 1342.3 Q1763.33 1339.54 1762.25 1338.17 Q1761.17 1336.8 1759.02 1336.8 Q1756.43 1336.8 1754.94 1338.45 Q1753.45 1340.1 1753.45 1342.95 L1753.45 1353.94 L1750.24 1353.94 L1750.24 1334.49 L1753.45 1334.49 L1753.45 1337.51 Q1754.59 1335.76 1756.14 1334.89 Q1757.7 1334.02 1759.73 1334.02 Q1763.08 1334.02 1764.8 1336.11 Q1766.52 1338.17 1766.52 1342.2 Z" fill="#000000" fill-rule="evenodd" fill-opacity="1" /><path clip-path="url(#clip970)" d="M1787.28 1351.02 L1787.28 1361.33 L1784.07 1361.33 L1784.07 1334.49 L1787.28 1334.49 L1787.28 1337.44 Q1788.29 1335.71 1789.82 1334.87 Q1791.36 1334.02 1793.5 1334.02 Q1797.04 1334.02 1799.25 1336.84 Q1801.47 1339.65 1801.47 1344.23 Q1801.47 1348.81 1799.25 1351.63 Q1797.04 1354.44 1793.5 1354.44 Q1791.36 1354.44 1789.82 1353.61 Q1788.29 1352.76 1787.28 1351.02 M1798.15 1344.23 Q1798.15 1340.71 1796.69 1338.71 Q1795.25 1336.7 1792.72 1336.7 Q1790.18 1336.7 1788.73 1338.71 Q1787.28 1340.71 1787.28 1344.23 Q1787.28 1347.76 1788.73 1349.77 Q1790.18 1351.77 1792.72 1351.77 Q1795.25 1351.77 1796.69 1349.77 Q1798.15 1347.76 1798.15 1344.23 Z" fill="#000000" fill-rule="evenodd" fill-opacity="1" /><path clip-path="url(#clip970)" d="M1818.03 1337.48 Q1817.49 1337.17 1816.85 1337.03 Q1816.23 1336.87 1815.46 1336.87 Q1812.75 1336.87 1811.29 1338.64 Q1809.85 1340.39 1809.85 1343.69 L1809.85 1353.94 L1806.64 1353.94 L1806.64 1334.49 L1809.85 1334.49 L1809.85 1337.51 Q1810.86 1335.74 1812.48 1334.89 Q1814.09 1334.02 1816.4 1334.02 Q1816.73 1334.02 1817.13 1334.08 Q1817.53 1334.11 1818.01 1334.2 L1818.03 1337.48 Z" fill="#000000" fill-rule="evenodd" fill-opacity="1" /><path clip-path="url(#clip970)" d="M1828.14 1336.73 Q1825.57 1336.73 1824.07 1338.75 Q1822.58 1340.74 1822.58 1344.23 Q1822.58 1347.72 1824.06 1349.73 Q1825.55 1351.73 1828.14 1351.73 Q1830.69 1351.73 1832.18 1349.72 Q1833.67 1347.7 1833.67 1344.23 Q1833.67 1340.78 1832.18 1338.76 Q1830.69 1336.73 1828.14 1336.73 M1828.14 1334.02 Q1832.3 1334.02 1834.68 1336.73 Q1837.06 1339.44 1837.06 1344.23 Q1837.06 1349.01 1834.68 1351.73 Q1832.3 1354.44 1828.14 1354.44 Q1823.95 1354.44 1821.57 1351.73 Q1819.21 1349.01 1819.21 1344.23 Q1819.21 1339.44 1821.57 1336.73 Q1823.95 1334.02 1828.14 1334.02 Z" fill="#000000" fill-rule="evenodd" fill-opacity="1" /><path clip-path="url(#clip970)" d="M1855.15 1337.44 L1855.15 1326.92 L1858.34 1326.92 L1858.34 1353.94 L1855.15 1353.94 L1855.15 1351.02 Q1854.14 1352.76 1852.6 1353.61 Q1851.07 1354.44 1848.92 1354.44 Q1845.39 1354.44 1843.17 1351.63 Q1840.96 1348.81 1840.96 1344.23 Q1840.96 1339.65 1843.17 1336.84 Q1845.39 1334.02 1848.92 1334.02 Q1851.07 1334.02 1852.6 1334.87 Q1854.14 1335.71 1855.15 1337.44 M1844.26 1344.23 Q1844.26 1347.76 1845.7 1349.77 Q1847.16 1351.77 1849.7 1351.77 Q1852.23 1351.77 1853.69 1349.77 Q1855.15 1347.76 1855.15 1344.23 Q1855.15 1340.71 1853.69 1338.71 Q1852.23 1336.7 1849.7 1336.7 Q1847.16 1336.7 1845.7 1338.71 Q1844.26 1340.71 1844.26 1344.23 Z" fill="#000000" fill-rule="evenodd" fill-opacity="1" /><path clip-path="url(#clip970)" d="M1864.59 1346.26 L1864.59 1334.49 L1867.79 1334.49 L1867.79 1346.14 Q1867.79 1348.9 1868.86 1350.29 Q1869.94 1351.66 1872.09 1351.66 Q1874.68 1351.66 1876.17 1350.01 Q1877.68 1348.36 1877.68 1345.52 L1877.68 1334.49 L1880.88 1334.49 L1880.88 1353.94 L1877.68 1353.94 L1877.68 1350.95 Q1876.52 1352.72 1874.98 1353.59 Q1873.45 1354.44 1871.42 1354.44 Q1868.07 1354.44 1866.33 1352.36 Q1864.59 1350.27 1864.59 1346.26 M1872.63 1334.02 L1872.63 1334.02 Z" fill="#000000" fill-rule="evenodd" fill-opacity="1" /><path clip-path="url(#clip970)" d="M1901.45 1335.24 L1901.45 1338.22 Q1900.1 1337.48 1898.72 1337.11 Q1897.37 1336.73 1895.98 1336.73 Q1892.87 1336.73 1891.16 1338.71 Q1889.44 1340.67 1889.44 1344.23 Q1889.44 1347.79 1891.16 1349.77 Q1892.87 1351.73 1895.98 1351.73 Q1897.37 1351.73 1898.72 1351.37 Q1900.1 1350.98 1901.45 1350.24 L1901.45 1353.19 Q1900.11 1353.81 1898.67 1354.13 Q1897.25 1354.44 1895.63 1354.44 Q1891.24 1354.44 1888.66 1351.68 Q1886.07 1348.92 1886.07 1344.23 Q1886.07 1339.47 1888.67 1336.75 Q1891.29 1334.02 1895.84 1334.02 Q1897.32 1334.02 1898.72 1334.34 Q1900.13 1334.63 1901.45 1335.24 Z" fill="#000000" fill-rule="evenodd" fill-opacity="1" /><path clip-path="url(#clip970)" d="M1923.64 1343.42 L1923.64 1344.98 L1908.95 1344.98 Q1909.16 1348.28 1910.93 1350.01 Q1912.72 1351.73 1915.9 1351.73 Q1917.74 1351.73 1919.45 1351.28 Q1921.19 1350.83 1922.89 1349.93 L1922.89 1352.95 Q1921.17 1353.68 1919.37 1354.06 Q1917.56 1354.44 1915.7 1354.44 Q1911.05 1354.44 1908.33 1351.73 Q1905.62 1349.02 1905.62 1344.41 Q1905.62 1339.63 1908.19 1336.84 Q1910.77 1334.02 1915.15 1334.02 Q1919.07 1334.02 1921.35 1336.56 Q1923.64 1339.08 1923.64 1343.42 M1920.44 1342.48 Q1920.41 1339.86 1918.97 1338.29 Q1917.54 1336.73 1915.18 1336.73 Q1912.51 1336.73 1910.9 1338.24 Q1909.3 1339.75 1909.05 1342.5 L1920.44 1342.48 Z" fill="#000000" fill-rule="evenodd" fill-opacity="1" /><path clip-path="url(#clip970)" d="M1945.04 1342.2 L1945.04 1353.94 L1941.85 1353.94 L1941.85 1342.3 Q1941.85 1339.54 1940.77 1338.17 Q1939.7 1336.8 1937.54 1336.8 Q1934.96 1336.8 1933.46 1338.45 Q1931.97 1340.1 1931.97 1342.95 L1931.97 1353.94 L1928.76 1353.94 L1928.76 1334.49 L1931.97 1334.49 L1931.97 1337.51 Q1933.12 1335.76 1934.66 1334.89 Q1936.22 1334.02 1938.26 1334.02 Q1941.61 1334.02 1943.33 1336.11 Q1945.04 1338.17 1945.04 1342.2 Z" fill="#000000" fill-rule="evenodd" fill-opacity="1" /><path clip-path="url(#clip970)" d="M1954.58 1328.97 L1954.58 1334.49 L1961.16 1334.49 L1961.16 1336.97 L1954.58 1336.97 L1954.58 1347.53 Q1954.58 1349.91 1955.22 1350.59 Q1955.88 1351.26 1957.87 1351.26 L1961.16 1351.26 L1961.16 1353.94 L1957.87 1353.94 Q1954.18 1353.94 1952.77 1352.56 Q1951.36 1351.18 1951.36 1347.53 L1951.36 1336.97 L1949.02 1336.97 L1949.02 1334.49 L1951.36 1334.49 L1951.36 1328.97 L1954.58 1328.97 Z" fill="#000000" fill-rule="evenodd" fill-opacity="1" /><path clip-path="url(#clip970)" d="M1992.82 1342.2 L1992.82 1353.94 L1989.63 1353.94 L1989.63 1342.3 Q1989.63 1339.54 1988.55 1338.17 Q1987.47 1336.8 1985.32 1336.8 Q1982.73 1336.8 1981.24 1338.45 Q1979.75 1340.1 1979.75 1342.95 L1979.75 1353.94 L1976.54 1353.94 L1976.54 1334.49 L1979.75 1334.49 L1979.75 1337.51 Q1980.89 1335.76 1982.44 1334.89 Q1984 1334.02 1986.03 1334.02 Q1989.38 1334.02 1991.1 1336.11 Q1992.82 1338.17 1992.82 1342.2 Z" fill="#000000" fill-rule="evenodd" fill-opacity="1" /><path clip-path="url(#clip970)" d="M1999.19 1334.49 L2002.39 1334.49 L2002.39 1353.94 L1999.19 1353.94 L1999.19 1334.49 M1999.19 1326.92 L2002.39 1326.92 L2002.39 1330.97 L1999.19 1330.97 L1999.19 1326.92 Z" fill="#000000" fill-rule="evenodd" fill-opacity="1" /><path clip-path="url(#clip970)" d="M2025.7 1343.42 L2025.7 1344.98 L2011.02 1344.98 Q2011.22 1348.28 2013 1350.01 Q2014.78 1351.73 2017.96 1351.73 Q2019.8 1351.73 2021.52 1351.28 Q2023.26 1350.83 2024.96 1349.93 L2024.96 1352.95 Q2023.24 1353.68 2021.43 1354.06 Q2019.63 1354.44 2017.77 1354.44 Q2013.12 1354.44 2010.39 1351.73 Q2007.68 1349.02 2007.68 1344.41 Q2007.68 1339.63 2010.25 1336.84 Q2012.84 1334.02 2017.21 1334.02 Q2021.14 1334.02 2023.41 1336.56 Q2025.7 1339.08 2025.7 1343.42 M2022.51 1342.48 Q2022.47 1339.86 2021.03 1338.29 Q2019.61 1336.73 2017.25 1336.73 Q2014.58 1336.73 2012.96 1338.24 Q2011.36 1339.75 2011.12 1342.5 L2022.51 1342.48 Z" fill="#000000" fill-rule="evenodd" fill-opacity="1" /><path clip-path="url(#clip970)" d="M2056.21 1344.23 Q2056.21 1340.71 2054.75 1338.71 Q2053.31 1336.7 2050.77 1336.7 Q2048.24 1336.7 2046.78 1338.71 Q2045.34 1340.71 2045.34 1344.23 Q2045.34 1347.76 2046.78 1349.77 Q2048.24 1351.77 2050.77 1351.77 Q2053.31 1351.77 2054.75 1349.77 Q2056.21 1347.76 2056.21 1344.23 M2045.34 1337.44 Q2046.35 1335.71 2047.87 1334.87 Q2049.42 1334.02 2051.55 1334.02 Q2055.1 1334.02 2057.3 1336.84 Q2059.52 1339.65 2059.52 1344.23 Q2059.52 1348.81 2057.3 1351.63 Q2055.1 1354.44 2051.55 1354.44 Q2049.42 1354.44 2047.87 1353.61 Q2046.35 1352.76 2045.34 1351.02 L2045.34 1353.94 L2042.13 1353.94 L2042.13 1326.92 L2045.34 1326.92 L2045.34 1337.44 Z" fill="#000000" fill-rule="evenodd" fill-opacity="1" /><path clip-path="url(#clip970)" d="M2073.65 1344.16 Q2069.78 1344.16 2068.29 1345.05 Q2066.8 1345.93 2066.8 1348.07 Q2066.8 1349.77 2067.91 1350.78 Q2069.04 1351.77 2070.96 1351.77 Q2073.62 1351.77 2075.22 1349.89 Q2076.83 1348 2076.83 1344.87 L2076.83 1344.16 L2073.65 1344.16 M2080.03 1342.84 L2080.03 1353.94 L2076.83 1353.94 L2076.83 1350.98 Q2075.74 1352.76 2074.11 1353.61 Q2072.47 1354.44 2070.11 1354.44 Q2067.13 1354.44 2065.36 1352.77 Q2063.6 1351.09 2063.6 1348.28 Q2063.6 1345 2065.79 1343.33 Q2067.99 1341.66 2072.35 1341.66 L2076.83 1341.66 L2076.83 1341.35 Q2076.83 1339.14 2075.37 1337.95 Q2073.93 1336.73 2071.31 1336.73 Q2069.64 1336.73 2068.06 1337.13 Q2066.48 1337.53 2065.03 1338.33 L2065.03 1335.38 Q2066.78 1334.7 2068.43 1334.37 Q2070.08 1334.02 2071.64 1334.02 Q2075.86 1334.02 2077.94 1336.21 Q2080.03 1338.4 2080.03 1342.84 Z" fill="#000000" fill-rule="evenodd" fill-opacity="1" /><path clip-path="url(#clip970)" d="M2099.4 1337.44 L2099.4 1326.92 L2102.6 1326.92 L2102.6 1353.94 L2099.4 1353.94 L2099.4 1351.02 Q2098.39 1352.76 2096.85 1353.61 Q2095.32 1354.44 2093.17 1354.44 Q2089.64 1354.44 2087.42 1351.63 Q2085.22 1348.81 2085.22 1344.23 Q2085.22 1339.65 2087.42 1336.84 Q2089.64 1334.02 2093.17 1334.02 Q2095.32 1334.02 2096.85 1334.87 Q2098.39 1335.71 2099.4 1337.44 M2088.52 1344.23 Q2088.52 1347.76 2089.96 1349.77 Q2091.41 1351.77 2093.95 1351.77 Q2096.48 1351.77 2097.94 1349.77 Q2099.4 1347.76 2099.4 1344.23 Q2099.4 1340.71 2097.94 1338.71 Q2096.48 1336.7 2093.95 1336.7 Q2091.41 1336.7 2089.96 1338.71 Q2088.52 1340.71 2088.52 1344.23 Z" fill="#000000" fill-rule="evenodd" fill-opacity="1" /><path clip-path="url(#clip970)" d="M2118.01 1344.16 Q2114.14 1344.16 2112.65 1345.05 Q2111.15 1345.93 2111.15 1348.07 Q2111.15 1349.77 2112.27 1350.78 Q2113.39 1351.77 2115.32 1351.77 Q2117.98 1351.77 2119.57 1349.89 Q2121.19 1348 2121.19 1344.87 L2121.19 1344.16 L2118.01 1344.16 M2124.38 1342.84 L2124.38 1353.94 L2121.19 1353.94 L2121.19 1350.98 Q2120.1 1352.76 2118.46 1353.61 Q2116.83 1354.44 2114.47 1354.44 Q2111.48 1354.44 2109.71 1352.77 Q2107.96 1351.09 2107.96 1348.28 Q2107.96 1345 2110.15 1343.33 Q2112.35 1341.66 2116.71 1341.66 L2121.19 1341.66 L2121.19 1341.35 Q2121.19 1339.14 2119.73 1337.95 Q2118.29 1336.73 2115.67 1336.73 Q2114 1336.73 2112.42 1337.13 Q2110.84 1337.53 2109.38 1338.33 L2109.38 1335.38 Q2111.14 1334.7 2112.79 1334.37 Q2114.44 1334.02 2116 1334.02 Q2120.22 1334.02 2122.3 1336.21 Q2124.38 1338.4 2124.38 1342.84 Z" fill="#000000" fill-rule="evenodd" fill-opacity="1" /><path clip-path="url(#clip970)" d="M2153.53 1337.48 Q2152.99 1337.17 2152.35 1337.03 Q2151.73 1336.87 2150.96 1336.87 Q2148.25 1336.87 2146.8 1338.64 Q2145.36 1340.39 2145.36 1343.69 L2145.36 1353.94 L2142.14 1353.94 L2142.14 1334.49 L2145.36 1334.49 L2145.36 1337.51 Q2146.36 1335.74 2147.98 1334.89 Q2149.59 1334.02 2151.9 1334.02 Q2152.23 1334.02 2152.63 1334.08 Q2153.03 1334.11 2153.52 1334.2 L2153.53 1337.48 Z" fill="#000000" fill-rule="evenodd" fill-opacity="1" /><path clip-path="url(#clip970)" d="M2164.97 1355.74 Q2163.62 1359.21 2162.33 1360.27 Q2161.05 1361.33 2158.9 1361.33 L2156.35 1361.33 L2156.35 1358.66 L2158.22 1358.66 Q2159.54 1358.66 2160.27 1358.03 Q2161 1357.41 2161.88 1355.08 L2162.46 1353.62 L2154.59 1334.49 L2157.98 1334.49 L2164.05 1349.7 L2170.13 1334.49 L2173.52 1334.49 L2164.97 1355.74 Z" fill="#000000" fill-rule="evenodd" fill-opacity="1" /><path clip-path="url(#clip970)" d="M2194.09 1342.2 L2194.09 1353.94 L2190.89 1353.94 L2190.89 1342.3 Q2190.89 1339.54 2189.82 1338.17 Q2188.74 1336.8 2186.59 1336.8 Q2184 1336.8 2182.51 1338.45 Q2181.02 1340.1 2181.02 1342.95 L2181.02 1353.94 L2177.8 1353.94 L2177.8 1334.49 L2181.02 1334.49 L2181.02 1337.51 Q2182.16 1335.76 2183.71 1334.89 Q2185.27 1334.02 2187.3 1334.02 Q2190.65 1334.02 2192.37 1336.11 Q2194.09 1338.17 2194.09 1342.2 Z" fill="#000000" fill-rule="evenodd" fill-opacity="1" /><path clip-path="url(#clip970)" d="M2200.34 1326.92 L2203.55 1326.92 L2203.55 1342.88 L2213.08 1334.49 L2217.16 1334.49 L2206.85 1343.59 L2217.59 1353.94 L2213.43 1353.94 L2203.55 1344.44 L2203.55 1353.94 L2200.34 1353.94 L2200.34 1326.92 Z" fill="#000000" fill-rule="evenodd" fill-opacity="1" /><path clip-path="url(#clip970)" d="M2219.63 1346.26 L2219.63 1334.49 L2222.82 1334.49 L2222.82 1346.14 Q2222.82 1348.9 2223.9 1350.29 Q2224.97 1351.66 2227.13 1351.66 Q2229.71 1351.66 2231.21 1350.01 Q2232.72 1348.36 2232.72 1345.52 L2232.72 1334.49 L2235.91 1334.49 L2235.91 1353.94 L2232.72 1353.94 L2232.72 1350.95 Q2231.55 1352.72 2230.01 1353.59 Q2228.48 1354.44 2226.45 1354.44 Q2223.1 1354.44 2221.36 1352.36 Q2219.63 1350.27 2219.63 1346.26 M2227.66 1334.02 L2227.66 1334.02 Z" fill="#000000" fill-rule="evenodd" fill-opacity="1" /></svg>
