<?xml version="1.0" encoding="utf-8"?>
<svg xmlns="http://www.w3.org/2000/svg" xmlns:xlink="http://www.w3.org/1999/xlink" width="600" height="400" viewBox="0 0 2400 1600">
<defs>
  <clipPath id="clip420">
    <rect x="0" y="0" width="2400" height="1600"/>
  </clipPath>
</defs>
<path clip-path="url(#clip420)" d="
M0 1600 L2400 1600 L2400 0 L0 0  Z
  " fill="#ffffff" fill-rule="evenodd" fill-opacity="1"/>
<defs>
  <clipPath id="clip421">
    <rect x="480" y="0" width="1681" height="1600"/>
  </clipPath>
</defs>
<path clip-path="url(#clip420)" d="
M203.964 1101.22 L2352.76 1101.22 L2352.76 123.472 L203.964 123.472  Z
  " fill="#ffffff" fill-rule="evenodd" fill-opacity="1"/>
<defs>
  <clipPath id="clip422">
    <rect x="203" y="123" width="2150" height="979"/>
  </clipPath>
</defs>
<polyline clip-path="url(#clip422)" style="stroke:#000000; stroke-linecap:butt; stroke-linejoin:round; stroke-width:2; stroke-opacity:0.1; fill:none" points="
  243.88,1101.22 243.88,123.472 
  "/>
<polyline clip-path="url(#clip422)" style="stroke:#000000; stroke-linecap:butt; stroke-linejoin:round; stroke-width:2; stroke-opacity:0.1; fill:none" points="
  766.344,1101.22 766.344,123.472 
  "/>
<polyline clip-path="url(#clip422)" style="stroke:#000000; stroke-linecap:butt; stroke-linejoin:round; stroke-width:2; stroke-opacity:0.1; fill:none" points="
  1288.81,1101.22 1288.81,123.472 
  "/>
<polyline clip-path="url(#clip422)" style="stroke:#000000; stroke-linecap:butt; stroke-linejoin:round; stroke-width:2; stroke-opacity:0.1; fill:none" points="
  1811.27,1101.22 1811.27,123.472 
  "/>
<polyline clip-path="url(#clip422)" style="stroke:#000000; stroke-linecap:butt; stroke-linejoin:round; stroke-width:2; stroke-opacity:0.1; fill:none" points="
  2333.74,1101.22 2333.74,123.472 
  "/>
<polyline clip-path="url(#clip420)" style="stroke:#000000; stroke-linecap:butt; stroke-linejoin:round; stroke-width:4; stroke-opacity:1; fill:none" points="
  203.964,1101.22 2352.76,1101.22 
  "/>
<polyline clip-path="url(#clip420)" style="stroke:#000000; stroke-linecap:butt; stroke-linejoin:round; stroke-width:4; stroke-opacity:1; fill:none" points="
  243.88,1101.22 243.88,1087 
  "/>
<polyline clip-path="url(#clip420)" style="stroke:#000000; stroke-linecap:butt; stroke-linejoin:round; stroke-width:4; stroke-opacity:1; fill:none" points="
  766.344,1101.22 766.344,1087 
  "/>
<polyline clip-path="url(#clip420)" style="stroke:#000000; stroke-linecap:butt; stroke-linejoin:round; stroke-width:4; stroke-opacity:1; fill:none" points="
  1288.81,1101.22 1288.81,1087 
  "/>
<polyline clip-path="url(#clip420)" style="stroke:#000000; stroke-linecap:butt; stroke-linejoin:round; stroke-width:4; stroke-opacity:1; fill:none" points="
  1811.27,1101.22 1811.27,1087 
  "/>
<polyline clip-path="url(#clip420)" style="stroke:#000000; stroke-linecap:butt; stroke-linejoin:round; stroke-width:4; stroke-opacity:1; fill:none" points="
  2333.74,1101.22 2333.74,1087 
  "/>
<path clip-path="url(#clip420)" d="M243.88 1132.13 Q240.269 1132.13 238.44 1135.7 Q236.635 1139.24 236.635 1146.37 Q236.635 1153.48 238.44 1157.04 Q240.269 1160.58 243.88 1160.58 Q247.514 1160.58 249.32 1157.04 Q251.148 1153.48 251.148 1146.37 Q251.148 1139.24 249.32 1135.7 Q247.514 1132.13 243.88 1132.13 M243.88 1128.43 Q249.69 1128.43 252.746 1133.04 Q255.824 1137.62 255.824 1146.37 Q255.824 1155.1 252.746 1159.7 Q249.69 1164.29 243.88 1164.29 Q238.07 1164.29 234.991 1159.7 Q231.935 1155.1 231.935 1146.37 Q231.935 1137.62 234.991 1133.04 Q238.07 1128.43 243.88 1128.43 Z" fill="#000000" fill-rule="evenodd" fill-opacity="1" /><path clip-path="url(#clip420)" d="M745.615 1159.68 L761.935 1159.68 L761.935 1163.62 L739.99 1163.62 L739.99 1159.68 Q742.652 1156.93 747.236 1152.3 Q751.842 1147.64 753.023 1146.3 Q755.268 1143.78 756.148 1142.04 Q757.051 1140.28 757.051 1138.59 Q757.051 1135.84 755.106 1134.1 Q753.185 1132.37 750.083 1132.37 Q747.884 1132.37 745.43 1133.13 Q743 1133.89 740.222 1135.45 L740.222 1130.72 Q743.046 1129.59 745.5 1129.01 Q747.953 1128.43 749.99 1128.43 Q755.361 1128.43 758.555 1131.12 Q761.75 1133.8 761.75 1138.29 Q761.75 1140.42 760.939 1142.34 Q760.152 1144.24 758.046 1146.83 Q757.467 1147.51 754.365 1150.72 Q751.264 1153.92 745.615 1159.68 Z" fill="#000000" fill-rule="evenodd" fill-opacity="1" /><path clip-path="url(#clip420)" d="M771.796 1129.06 L790.152 1129.06 L790.152 1132.99 L776.078 1132.99 L776.078 1141.46 Q777.097 1141.12 778.115 1140.95 Q779.134 1140.77 780.152 1140.77 Q785.939 1140.77 789.319 1143.94 Q792.698 1147.11 792.698 1152.53 Q792.698 1158.11 789.226 1161.21 Q785.754 1164.29 779.435 1164.29 Q777.259 1164.29 774.99 1163.92 Q772.745 1163.55 770.337 1162.81 L770.337 1158.11 Q772.421 1159.24 774.643 1159.8 Q776.865 1160.35 779.342 1160.35 Q783.347 1160.35 785.685 1158.25 Q788.023 1156.14 788.023 1152.53 Q788.023 1148.92 785.685 1146.81 Q783.347 1144.7 779.342 1144.7 Q777.467 1144.7 775.592 1145.12 Q773.74 1145.54 771.796 1146.42 L771.796 1129.06 Z" fill="#000000" fill-rule="evenodd" fill-opacity="1" /><path clip-path="url(#clip420)" d="M1263.51 1129.06 L1281.86 1129.06 L1281.86 1132.99 L1267.79 1132.99 L1267.79 1141.46 Q1268.81 1141.12 1269.83 1140.95 Q1270.85 1140.77 1271.86 1140.77 Q1277.65 1140.77 1281.03 1143.94 Q1284.41 1147.11 1284.41 1152.53 Q1284.41 1158.11 1280.94 1161.21 Q1277.47 1164.29 1271.15 1164.29 Q1268.97 1164.29 1266.7 1163.92 Q1264.46 1163.55 1262.05 1162.81 L1262.05 1158.11 Q1264.13 1159.24 1266.36 1159.8 Q1268.58 1160.35 1271.05 1160.35 Q1275.06 1160.35 1277.4 1158.25 Q1279.74 1156.14 1279.74 1152.53 Q1279.74 1148.92 1277.4 1146.81 Q1275.06 1144.7 1271.05 1144.7 Q1269.18 1144.7 1267.3 1145.12 Q1265.45 1145.54 1263.51 1146.42 L1263.51 1129.06 Z" fill="#000000" fill-rule="evenodd" fill-opacity="1" /><path clip-path="url(#clip420)" d="M1303.62 1132.13 Q1300.01 1132.13 1298.18 1135.7 Q1296.38 1139.24 1296.38 1146.37 Q1296.38 1153.48 1298.18 1157.04 Q1300.01 1160.58 1303.62 1160.58 Q1307.26 1160.58 1309.06 1157.04 Q1310.89 1153.48 1310.89 1146.37 Q1310.89 1139.24 1309.06 1135.7 Q1307.26 1132.13 1303.62 1132.13 M1303.62 1128.43 Q1309.43 1128.43 1312.49 1133.04 Q1315.57 1137.62 1315.57 1146.37 Q1315.57 1155.1 1312.49 1159.7 Q1309.43 1164.29 1303.62 1164.29 Q1297.81 1164.29 1294.73 1159.7 Q1291.68 1155.1 1291.68 1146.37 Q1291.68 1137.62 1294.73 1133.04 Q1297.81 1128.43 1303.62 1128.43 Z" fill="#000000" fill-rule="evenodd" fill-opacity="1" /><path clip-path="url(#clip420)" d="M1785.13 1129.06 L1807.35 1129.06 L1807.35 1131.05 L1794.8 1163.62 L1789.92 1163.62 L1801.73 1132.99 L1785.13 1132.99 L1785.13 1129.06 Z" fill="#000000" fill-rule="evenodd" fill-opacity="1" /><path clip-path="url(#clip420)" d="M1816.52 1129.06 L1834.87 1129.06 L1834.87 1132.99 L1820.8 1132.99 L1820.8 1141.46 Q1821.82 1141.12 1822.84 1140.95 Q1823.85 1140.77 1824.87 1140.77 Q1830.66 1140.77 1834.04 1143.94 Q1837.42 1147.11 1837.42 1152.53 Q1837.42 1158.11 1833.95 1161.21 Q1830.47 1164.29 1824.16 1164.29 Q1821.98 1164.29 1819.71 1163.92 Q1817.47 1163.55 1815.06 1162.81 L1815.06 1158.11 Q1817.14 1159.24 1819.36 1159.8 Q1821.59 1160.35 1824.06 1160.35 Q1828.07 1160.35 1830.41 1158.25 Q1832.74 1156.14 1832.74 1152.53 Q1832.74 1148.92 1830.41 1146.81 Q1828.07 1144.7 1824.06 1144.7 Q1822.19 1144.7 1820.31 1145.12 Q1818.46 1145.54 1816.52 1146.42 L1816.52 1129.06 Z" fill="#000000" fill-rule="evenodd" fill-opacity="1" /><path clip-path="url(#clip420)" d="M2293.34 1159.68 L2300.98 1159.68 L2300.98 1133.32 L2292.67 1134.98 L2292.67 1130.72 L2300.94 1129.06 L2305.61 1129.06 L2305.61 1159.68 L2313.25 1159.68 L2313.25 1163.62 L2293.34 1163.62 L2293.34 1159.68 Z" fill="#000000" fill-rule="evenodd" fill-opacity="1" /><path clip-path="url(#clip420)" d="M2332.7 1132.13 Q2329.09 1132.13 2327.26 1135.7 Q2325.45 1139.24 2325.45 1146.37 Q2325.45 1153.48 2327.26 1157.04 Q2329.09 1160.58 2332.7 1160.58 Q2336.33 1160.58 2338.14 1157.04 Q2339.97 1153.48 2339.97 1146.37 Q2339.97 1139.24 2338.14 1135.7 Q2336.33 1132.13 2332.7 1132.13 M2332.7 1128.43 Q2338.51 1128.43 2341.56 1133.04 Q2344.64 1137.62 2344.64 1146.37 Q2344.64 1155.1 2341.56 1159.7 Q2338.51 1164.29 2332.7 1164.29 Q2326.89 1164.29 2323.81 1159.7 Q2320.75 1155.1 2320.75 1146.37 Q2320.75 1137.62 2323.81 1133.04 Q2326.89 1128.43 2332.7 1128.43 Z" fill="#000000" fill-rule="evenodd" fill-opacity="1" /><path clip-path="url(#clip420)" d="M2362.86 1132.13 Q2359.25 1132.13 2357.42 1135.7 Q2355.61 1139.24 2355.61 1146.37 Q2355.61 1153.48 2357.42 1157.04 Q2359.25 1160.58 2362.86 1160.58 Q2366.49 1160.58 2368.3 1157.04 Q2370.13 1153.48 2370.13 1146.37 Q2370.13 1139.24 2368.3 1135.7 Q2366.49 1132.13 2362.86 1132.13 M2362.86 1128.43 Q2368.67 1128.43 2371.72 1133.04 Q2374.8 1137.62 2374.8 1146.37 Q2374.8 1155.1 2371.72 1159.7 Q2368.67 1164.29 2362.86 1164.29 Q2357.05 1164.29 2353.97 1159.7 Q2350.91 1155.1 2350.91 1146.37 Q2350.91 1137.62 2353.97 1133.04 Q2357.05 1128.43 2362.86 1128.43 Z" fill="#000000" fill-rule="evenodd" fill-opacity="1" /><path clip-path="url(#clip420)" d="M1277.42 1200.31 L1277.42 1210.43 L1289.48 1210.43 L1289.48 1214.98 L1277.42 1214.98 L1277.42 1234.34 Q1277.42 1238.7 1278.6 1239.94 Q1279.81 1241.18 1283.47 1241.18 L1289.48 1241.18 L1289.48 1246.08 L1283.47 1246.08 Q1276.69 1246.08 1274.11 1243.57 Q1271.53 1241.02 1271.53 1234.34 L1271.53 1214.98 L1267.24 1214.98 L1267.24 1210.43 L1271.53 1210.43 L1271.53 1200.31 L1277.42 1200.31 Z" fill="#000000" fill-rule="evenodd" fill-opacity="1" /><polyline clip-path="url(#clip422)" style="stroke:#000000; stroke-linecap:butt; stroke-linejoin:round; stroke-width:2; stroke-opacity:0.1; fill:none" points="
  203.964,1073.54 2352.76,1073.54 
  "/>
<polyline clip-path="url(#clip422)" style="stroke:#000000; stroke-linecap:butt; stroke-linejoin:round; stroke-width:2; stroke-opacity:0.1; fill:none" points="
  203.964,908.83 2352.76,908.83 
  "/>
<polyline clip-path="url(#clip422)" style="stroke:#000000; stroke-linecap:butt; stroke-linejoin:round; stroke-width:2; stroke-opacity:0.1; fill:none" points="
  203.964,744.116 2352.76,744.116 
  "/>
<polyline clip-path="url(#clip422)" style="stroke:#000000; stroke-linecap:butt; stroke-linejoin:round; stroke-width:2; stroke-opacity:0.1; fill:none" points="
  203.964,579.401 2352.76,579.401 
  "/>
<polyline clip-path="url(#clip422)" style="stroke:#000000; stroke-linecap:butt; stroke-linejoin:round; stroke-width:2; stroke-opacity:0.1; fill:none" points="
  203.964,414.687 2352.76,414.687 
  "/>
<polyline clip-path="url(#clip422)" style="stroke:#000000; stroke-linecap:butt; stroke-linejoin:round; stroke-width:2; stroke-opacity:0.1; fill:none" points="
  203.964,249.973 2352.76,249.973 
  "/>
<polyline clip-path="url(#clip420)" style="stroke:#000000; stroke-linecap:butt; stroke-linejoin:round; stroke-width:4; stroke-opacity:1; fill:none" points="
  203.964,1101.22 203.964,123.472 
  "/>
<polyline clip-path="url(#clip420)" style="stroke:#000000; stroke-linecap:butt; stroke-linejoin:round; stroke-width:4; stroke-opacity:1; fill:none" points="
  203.964,1073.54 222.861,1073.54 
  "/>
<polyline clip-path="url(#clip420)" style="stroke:#000000; stroke-linecap:butt; stroke-linejoin:round; stroke-width:4; stroke-opacity:1; fill:none" points="
  203.964,908.83 222.861,908.83 
  "/>
<polyline clip-path="url(#clip420)" style="stroke:#000000; stroke-linecap:butt; stroke-linejoin:round; stroke-width:4; stroke-opacity:1; fill:none" points="
  203.964,744.116 222.861,744.116 
  "/>
<polyline clip-path="url(#clip420)" style="stroke:#000000; stroke-linecap:butt; stroke-linejoin:round; stroke-width:4; stroke-opacity:1; fill:none" points="
  203.964,579.401 222.861,579.401 
  "/>
<polyline clip-path="url(#clip420)" style="stroke:#000000; stroke-linecap:butt; stroke-linejoin:round; stroke-width:4; stroke-opacity:1; fill:none" points="
  203.964,414.687 222.861,414.687 
  "/>
<polyline clip-path="url(#clip420)" style="stroke:#000000; stroke-linecap:butt; stroke-linejoin:round; stroke-width:4; stroke-opacity:1; fill:none" points="
  203.964,249.973 222.861,249.973 
  "/>
<path clip-path="url(#clip420)" d="M156.019 1059.34 Q152.408 1059.34 150.579 1062.91 Q148.774 1066.45 148.774 1073.58 Q148.774 1080.69 150.579 1084.25 Q152.408 1087.79 156.019 1087.79 Q159.653 1087.79 161.459 1084.25 Q163.288 1080.69 163.288 1073.58 Q163.288 1066.45 161.459 1062.91 Q159.653 1059.34 156.019 1059.34 M156.019 1055.64 Q161.829 1055.64 164.885 1060.25 Q167.964 1064.83 167.964 1073.58 Q167.964 1082.31 164.885 1086.91 Q161.829 1091.5 156.019 1091.5 Q150.209 1091.5 147.13 1086.91 Q144.075 1082.31 144.075 1073.58 Q144.075 1064.83 147.13 1060.25 Q150.209 1055.64 156.019 1055.64 Z" fill="#000000" fill-rule="evenodd" fill-opacity="1" /><path clip-path="url(#clip420)" d="M147.061 891.55 L165.417 891.55 L165.417 895.485 L151.343 895.485 L151.343 903.957 Q152.362 903.61 153.38 903.448 Q154.399 903.263 155.417 903.263 Q161.204 903.263 164.584 906.434 Q167.964 909.605 167.964 915.022 Q167.964 920.601 164.491 923.703 Q161.019 926.781 154.7 926.781 Q152.524 926.781 150.255 926.411 Q148.01 926.04 145.603 925.3 L145.603 920.601 Q147.686 921.735 149.908 922.291 Q152.13 922.846 154.607 922.846 Q158.612 922.846 160.95 920.74 Q163.288 918.633 163.288 915.022 Q163.288 911.411 160.95 909.304 Q158.612 907.198 154.607 907.198 Q152.732 907.198 150.857 907.615 Q149.005 908.031 147.061 908.911 L147.061 891.55 Z" fill="#000000" fill-rule="evenodd" fill-opacity="1" /><path clip-path="url(#clip420)" d="M116.668 757.46 L124.306 757.46 L124.306 731.095 L115.996 732.762 L115.996 728.502 L124.26 726.836 L128.936 726.836 L128.936 757.46 L136.575 757.46 L136.575 761.396 L116.668 761.396 L116.668 757.46 Z" fill="#000000" fill-rule="evenodd" fill-opacity="1" /><path clip-path="url(#clip420)" d="M156.019 729.914 Q152.408 729.914 150.579 733.479 Q148.774 737.021 148.774 744.15 Q148.774 751.257 150.579 754.822 Q152.408 758.363 156.019 758.363 Q159.653 758.363 161.459 754.822 Q163.288 751.257 163.288 744.15 Q163.288 737.021 161.459 733.479 Q159.653 729.914 156.019 729.914 M156.019 726.211 Q161.829 726.211 164.885 730.817 Q167.964 735.4 167.964 744.15 Q167.964 752.877 164.885 757.484 Q161.829 762.067 156.019 762.067 Q150.209 762.067 147.13 757.484 Q144.075 752.877 144.075 744.15 Q144.075 735.4 147.13 730.817 Q150.209 726.211 156.019 726.211 Z" fill="#000000" fill-rule="evenodd" fill-opacity="1" /><path clip-path="url(#clip420)" d="M117.663 592.746 L125.302 592.746 L125.302 566.381 L116.992 568.047 L116.992 563.788 L125.255 562.121 L129.931 562.121 L129.931 592.746 L137.57 592.746 L137.57 596.681 L117.663 596.681 L117.663 592.746 Z" fill="#000000" fill-rule="evenodd" fill-opacity="1" /><path clip-path="url(#clip420)" d="M147.061 562.121 L165.417 562.121 L165.417 566.056 L151.343 566.056 L151.343 574.529 Q152.362 574.181 153.38 574.019 Q154.399 573.834 155.417 573.834 Q161.204 573.834 164.584 577.006 Q167.964 580.177 167.964 585.593 Q167.964 591.172 164.491 594.274 Q161.019 597.353 154.7 597.353 Q152.524 597.353 150.255 596.982 Q148.01 596.612 145.603 595.871 L145.603 591.172 Q147.686 592.306 149.908 592.862 Q152.13 593.417 154.607 593.417 Q158.612 593.417 160.95 591.311 Q163.288 589.205 163.288 585.593 Q163.288 581.982 160.95 579.876 Q158.612 577.769 154.607 577.769 Q152.732 577.769 150.857 578.186 Q149.005 578.603 147.061 579.482 L147.061 562.121 Z" fill="#000000" fill-rule="evenodd" fill-opacity="1" /><path clip-path="url(#clip420)" d="M119.885 428.032 L136.204 428.032 L136.204 431.967 L114.26 431.967 L114.26 428.032 Q116.922 425.277 121.505 420.648 Q126.112 415.995 127.292 414.652 Q129.538 412.129 130.417 410.393 Q131.32 408.634 131.32 406.944 Q131.32 404.189 129.376 402.453 Q127.455 400.717 124.353 400.717 Q122.154 400.717 119.7 401.481 Q117.269 402.245 114.492 403.796 L114.492 399.074 Q117.316 397.939 119.769 397.361 Q122.223 396.782 124.26 396.782 Q129.63 396.782 132.825 399.467 Q136.019 402.152 136.019 406.643 Q136.019 408.773 135.209 410.694 Q134.422 412.592 132.316 415.185 Q131.737 415.856 128.635 419.074 Q125.533 422.268 119.885 428.032 Z" fill="#000000" fill-rule="evenodd" fill-opacity="1" /><path clip-path="url(#clip420)" d="M156.019 400.486 Q152.408 400.486 150.579 404.051 Q148.774 407.592 148.774 414.722 Q148.774 421.828 150.579 425.393 Q152.408 428.935 156.019 428.935 Q159.653 428.935 161.459 425.393 Q163.288 421.828 163.288 414.722 Q163.288 407.592 161.459 404.051 Q159.653 400.486 156.019 400.486 M156.019 396.782 Q161.829 396.782 164.885 401.388 Q167.964 405.972 167.964 414.722 Q167.964 423.449 164.885 428.055 Q161.829 432.638 156.019 432.638 Q150.209 432.638 147.13 428.055 Q144.075 423.449 144.075 414.722 Q144.075 405.972 147.13 401.388 Q150.209 396.782 156.019 396.782 Z" fill="#000000" fill-rule="evenodd" fill-opacity="1" /><path clip-path="url(#clip420)" d="M120.88 263.318 L137.2 263.318 L137.2 267.253 L115.256 267.253 L115.256 263.318 Q117.918 260.563 122.501 255.933 Q127.107 251.281 128.288 249.938 Q130.533 247.415 131.413 245.679 Q132.316 243.92 132.316 242.23 Q132.316 239.475 130.371 237.739 Q128.45 236.003 125.348 236.003 Q123.149 236.003 120.695 236.767 Q118.265 237.531 115.487 239.082 L115.487 234.359 Q118.311 233.225 120.765 232.646 Q123.218 232.068 125.255 232.068 Q130.626 232.068 133.82 234.753 Q137.015 237.438 137.015 241.929 Q137.015 244.058 136.204 245.98 Q135.417 247.878 133.311 250.47 Q132.732 251.142 129.63 254.359 Q126.529 257.554 120.88 263.318 Z" fill="#000000" fill-rule="evenodd" fill-opacity="1" /><path clip-path="url(#clip420)" d="M147.061 232.693 L165.417 232.693 L165.417 236.628 L151.343 236.628 L151.343 245.1 Q152.362 244.753 153.38 244.591 Q154.399 244.406 155.417 244.406 Q161.204 244.406 164.584 247.577 Q167.964 250.748 167.964 256.165 Q167.964 261.743 164.491 264.845 Q161.019 267.924 154.7 267.924 Q152.524 267.924 150.255 267.554 Q148.01 267.183 145.603 266.443 L145.603 261.743 Q147.686 262.878 149.908 263.433 Q152.13 263.989 154.607 263.989 Q158.612 263.989 160.95 261.882 Q163.288 259.776 163.288 256.165 Q163.288 252.554 160.95 250.447 Q158.612 248.341 154.607 248.341 Q152.732 248.341 150.857 248.757 Q149.005 249.174 147.061 250.054 L147.061 232.693 Z" fill="#000000" fill-rule="evenodd" fill-opacity="1" /><path clip-path="url(#clip420)" d="M16.4842 910.355 L16.4842 903.862 L56.6518 893.868 L16.4842 883.905 L16.4842 876.68 L56.6518 866.686 L16.4842 856.724 L16.4842 850.199 L64.0042 862.135 L64.0042 870.219 L22.7544 880.245 L64.0042 890.366 L64.0042 898.451 L16.4842 910.355 Z" fill="#000000" fill-rule="evenodd" fill-opacity="1" /><path clip-path="url(#clip420)" d="M28.3562 843.356 L28.3562 837.499 L64.0042 837.499 L64.0042 843.356 L28.3562 843.356 M14.479 843.356 L14.479 837.499 L21.895 837.499 L21.895 843.356 L14.479 843.356 Z" fill="#000000" fill-rule="evenodd" fill-opacity="1" /><path clip-path="url(#clip420)" d="M44.7161 794.754 L47.5806 794.754 L47.5806 821.68 Q53.6281 821.299 56.8109 818.052 Q59.9619 814.774 59.9619 808.949 Q59.9619 805.575 59.1344 802.424 Q58.3069 799.241 56.6518 796.122 L62.1899 796.122 Q63.5267 799.273 64.227 802.583 Q64.9272 805.893 64.9272 809.299 Q64.9272 817.829 59.9619 822.826 Q54.9967 827.792 46.5303 827.792 Q37.7774 827.792 32.6531 823.081 Q27.4968 818.338 27.4968 810.318 Q27.4968 803.124 32.1438 798.955 Q36.7589 794.754 44.7161 794.754 M42.9973 800.61 Q38.1912 800.674 35.3266 803.315 Q32.4621 805.925 32.4621 810.254 Q32.4621 815.156 35.2312 818.116 Q38.0002 821.044 43.0292 821.489 L42.9973 800.61 Z" fill="#000000" fill-rule="evenodd" fill-opacity="1" /><path clip-path="url(#clip420)" d="M14.479 785.141 L14.479 779.285 L64.0042 779.285 L64.0042 785.141 L14.479 785.141 Z" fill="#000000" fill-rule="evenodd" fill-opacity="1" /><path clip-path="url(#clip420)" d="M14.479 767.254 L14.479 761.365 L43.7294 761.365 L28.3562 743.892 L28.3562 736.412 L45.0344 755.318 L64.0042 735.616 L64.0042 743.255 L46.5939 761.365 L64.0042 761.365 L64.0042 767.254 L14.479 767.254 Z" fill="#000000" fill-rule="evenodd" fill-opacity="1" /><path clip-path="url(#clip420)" d="M32.4621 717.792 Q32.4621 722.503 36.1542 725.24 Q39.8145 727.977 46.212 727.977 Q52.6095 727.977 56.3017 725.272 Q59.9619 722.535 59.9619 717.792 Q59.9619 713.113 56.2698 710.376 Q52.5777 707.639 46.212 707.639 Q39.8781 707.639 36.186 710.376 Q32.4621 713.113 32.4621 717.792 M27.4968 717.792 Q27.4968 710.153 32.4621 705.793 Q37.4273 701.432 46.212 701.432 Q54.9649 701.432 59.9619 705.793 Q64.9272 710.153 64.9272 717.792 Q64.9272 725.463 59.9619 729.823 Q54.9649 734.152 46.212 734.152 Q37.4273 734.152 32.4621 729.823 Q27.4968 725.463 27.4968 717.792 Z" fill="#000000" fill-rule="evenodd" fill-opacity="1" /><path clip-path="url(#clip420)" d="M11.6462 675.046 L11.6462 668.713 L23.6137 679.089 L23.6137 683.958 L11.6462 675.046 M29.4065 668.999 L34.9447 668.999 Q33.6716 671.482 33.035 674.155 Q32.3984 676.829 32.3984 679.693 Q32.3984 684.054 33.7352 686.25 Q35.072 688.414 37.7456 688.414 Q39.7826 688.414 40.9603 686.855 Q42.1061 685.295 43.1565 680.585 L43.6021 678.579 Q44.9389 672.341 47.3897 669.731 Q49.8086 667.089 54.1691 667.089 Q59.1344 667.089 62.0308 671.036 Q64.9272 674.951 64.9272 681.826 Q64.9272 684.69 64.3543 687.81 Q63.8132 690.897 62.6992 694.334 L56.6518 694.334 Q58.3387 691.088 59.198 687.937 Q60.0256 684.786 60.0256 681.699 Q60.0256 677.561 58.6251 675.333 Q57.1929 673.105 54.6147 673.105 Q52.2276 673.105 50.9545 674.728 Q49.6813 676.32 48.5037 681.762 L48.0262 683.799 Q46.8804 689.242 44.5251 691.661 Q42.138 694.08 38.0002 694.08 Q32.9713 694.08 30.2341 690.515 Q27.4968 686.95 27.4968 680.394 Q27.4968 677.147 27.9743 674.283 Q28.4517 671.418 29.4065 668.999 Z" fill="#000000" fill-rule="evenodd" fill-opacity="1" /><path clip-path="url(#clip420)" d="M29.7248 632.11 L35.1993 632.11 Q33.8307 634.592 33.1623 637.107 Q32.4621 639.589 32.4621 642.136 Q32.4621 647.833 36.0905 650.984 Q39.6872 654.135 46.212 654.135 Q52.7369 654.135 56.3653 650.984 Q59.9619 647.833 59.9619 642.136 Q59.9619 639.589 59.2935 637.107 Q58.5933 634.592 57.2247 632.11 L62.6355 632.11 Q63.7814 634.561 64.3543 637.202 Q64.9272 639.812 64.9272 642.772 Q64.9272 650.825 59.8664 655.567 Q54.8057 660.31 46.212 660.31 Q37.491 660.31 32.4939 655.536 Q27.4968 650.729 27.4968 642.39 Q27.4968 639.685 28.0697 637.107 Q28.6108 634.529 29.7248 632.11 M11.869 638.826 L11.869 632.492 L23.8365 642.868 L23.8365 647.738 L11.869 638.826 Z" fill="#000000" fill-rule="evenodd" fill-opacity="1" /><path clip-path="url(#clip420)" d="M58.657 595.539 L77.5631 595.539 L77.5631 601.427 L28.3562 601.427 L28.3562 595.539 L33.7671 595.539 Q30.5842 593.693 29.0564 590.892 Q27.4968 588.059 27.4968 584.144 Q27.4968 577.651 32.6531 573.609 Q37.8093 569.535 46.212 569.535 Q54.6147 569.535 59.771 573.609 Q64.9272 577.651 64.9272 584.144 Q64.9272 588.059 63.3994 590.892 Q61.8398 593.693 58.657 595.539 M46.212 575.614 Q39.7508 575.614 36.0905 578.288 Q32.3984 580.929 32.3984 585.576 Q32.3984 590.223 36.0905 592.897 Q39.7508 595.539 46.212 595.539 Q52.6732 595.539 56.3653 592.897 Q60.0256 590.223 60.0256 585.576 Q60.0256 580.929 56.3653 578.288 Q52.6732 575.614 46.212 575.614 Z" fill="#000000" fill-rule="evenodd" fill-opacity="1" /><path clip-path="url(#clip420)" d="M33.8307 539.17 Q33.2578 540.157 33.0032 541.335 Q32.7167 542.481 32.7167 543.881 Q32.7167 548.846 35.9632 551.52 Q39.1779 554.162 45.2253 554.162 L64.0042 554.162 L64.0042 560.05 L28.3562 560.05 L28.3562 554.162 L33.8944 554.162 Q30.6479 552.316 29.0883 549.356 Q27.4968 546.395 27.4968 542.162 Q27.4968 541.558 27.5923 540.825 Q27.656 540.093 27.8151 539.202 L33.8307 539.17 Z" fill="#000000" fill-rule="evenodd" fill-opacity="1" /><path clip-path="url(#clip420)" d="M32.4621 520.646 Q32.4621 525.357 36.1542 528.094 Q39.8145 530.831 46.212 530.831 Q52.6095 530.831 56.3017 528.126 Q59.9619 525.389 59.9619 520.646 Q59.9619 515.967 56.2698 513.23 Q52.5777 510.493 46.212 510.493 Q39.8781 510.493 36.186 513.23 Q32.4621 515.967 32.4621 520.646 M27.4968 520.646 Q27.4968 513.007 32.4621 508.647 Q37.4273 504.286 46.212 504.286 Q54.9649 504.286 59.9619 508.647 Q64.9272 513.007 64.9272 520.646 Q64.9272 528.317 59.9619 532.677 Q54.9649 537.006 46.212 537.006 Q37.4273 537.006 32.4621 532.677 Q27.4968 528.317 27.4968 520.646 Z" fill="#000000" fill-rule="evenodd" fill-opacity="1" /><path clip-path="url(#clip420)" d="M33.7671 471.121 L14.479 471.121 L14.479 465.265 L64.0042 465.265 L64.0042 471.121 L58.657 471.121 Q61.8398 472.967 63.3994 475.8 Q64.9272 478.601 64.9272 482.547 Q64.9272 489.009 59.771 493.083 Q54.6147 497.125 46.212 497.125 Q37.8093 497.125 32.6531 493.083 Q27.4968 489.009 27.4968 482.547 Q27.4968 478.601 29.0564 475.8 Q30.5842 472.967 33.7671 471.121 M46.212 491.077 Q52.6732 491.077 56.3653 488.436 Q60.0256 485.762 60.0256 481.115 Q60.0256 476.468 56.3653 473.795 Q52.6732 471.121 46.212 471.121 Q39.7508 471.121 36.0905 473.795 Q32.3984 476.468 32.3984 481.115 Q32.3984 485.762 36.0905 488.436 Q39.7508 491.077 46.212 491.077 Z" fill="#000000" fill-rule="evenodd" fill-opacity="1" /><path clip-path="url(#clip420)" d="M49.9359 453.806 L28.3562 453.806 L28.3562 447.95 L49.7131 447.95 Q54.7739 447.95 57.3202 445.976 Q59.8346 444.003 59.8346 440.056 Q59.8346 435.314 56.8109 432.577 Q53.7872 429.808 48.5673 429.808 L28.3562 429.808 L28.3562 423.951 L64.0042 423.951 L64.0042 429.808 L58.5296 429.808 Q61.7762 431.94 63.3676 434.773 Q64.9272 437.574 64.9272 441.298 Q64.9272 447.441 61.1078 450.623 Q57.2883 453.806 49.9359 453.806 M27.4968 439.07 L27.4968 439.07 Z" fill="#000000" fill-rule="evenodd" fill-opacity="1" /><path clip-path="url(#clip420)" d="M14.479 412.111 L14.479 406.223 L43.7294 406.223 L28.3562 388.749 L28.3562 381.269 L45.0344 400.175 L64.0042 380.473 L64.0042 388.112 L46.5939 406.223 L64.0042 406.223 L64.0042 412.111 L14.479 412.111 Z" fill="#000000" fill-rule="evenodd" fill-opacity="1" /><path clip-path="url(#clip420)" d="M29.7248 348.486 L35.1993 348.486 Q33.8307 350.968 33.1623 353.483 Q32.4621 355.965 32.4621 358.512 Q32.4621 364.209 36.0905 367.36 Q39.6872 370.511 46.212 370.511 Q52.7369 370.511 56.3653 367.36 Q59.9619 364.209 59.9619 358.512 Q59.9619 355.965 59.2935 353.483 Q58.5933 350.968 57.2247 348.486 L62.6355 348.486 Q63.7814 350.936 64.3543 353.578 Q64.9272 356.188 64.9272 359.148 Q64.9272 367.201 59.8664 371.943 Q54.8057 376.686 46.212 376.686 Q37.491 376.686 32.4939 371.911 Q27.4968 367.105 27.4968 358.766 Q27.4968 356.061 28.0697 353.483 Q28.6108 350.905 29.7248 348.486 Z" fill="#000000" fill-rule="evenodd" fill-opacity="1" /><path clip-path="url(#clip420)" d="M28.3562 338.301 L28.3562 332.444 L64.6407 332.444 Q71.452 332.444 74.5076 335.054 Q77.5631 337.632 77.5631 343.393 L77.5631 345.621 L72.5979 345.621 L72.5979 344.061 Q72.5979 340.719 71.0383 339.51 Q69.5105 338.301 64.6407 338.301 L28.3562 338.301 M14.479 338.301 L14.479 332.444 L21.895 332.444 L21.895 338.301 L14.479 338.301 Z" fill="#000000" fill-rule="evenodd" fill-opacity="1" /><path clip-path="url(#clip420)" d="M28.3562 320.19 L28.3562 314.334 L64.0042 314.334 L64.0042 320.19 L28.3562 320.19 M14.479 320.19 L14.479 314.334 L21.895 314.334 L21.895 320.19 L14.479 320.19 Z" fill="#000000" fill-rule="evenodd" fill-opacity="1" /><path clip-path="url(#clip420)" d="M899.074 12.096 L907.337 12.096 L920.057 63.2184 L932.737 12.096 L941.932 12.096 L954.652 63.2184 L967.331 12.096 L975.636 12.096 L960.445 72.576 L950.155 72.576 L937.395 20.0763 L924.513 72.576 L914.224 72.576 L899.074 12.096 Z" fill="#000000" fill-rule="evenodd" fill-opacity="1" /><path clip-path="url(#clip420)" d="M984.345 27.2059 L991.799 27.2059 L991.799 72.576 L984.345 72.576 L984.345 27.2059 M984.345 9.54393 L991.799 9.54393 L991.799 18.9825 L984.345 18.9825 L984.345 9.54393 Z" fill="#000000" fill-rule="evenodd" fill-opacity="1" /><path clip-path="url(#clip420)" d="M1046.2 48.0275 L1046.2 51.6733 L1011.93 51.6733 Q1012.42 59.3701 1016.55 63.421 Q1020.72 67.4314 1028.14 67.4314 Q1032.43 67.4314 1036.44 66.3781 Q1040.49 65.3249 1044.46 63.2184 L1044.46 70.267 Q1040.45 71.9684 1036.24 72.8596 Q1032.02 73.7508 1027.69 73.7508 Q1016.83 73.7508 1010.47 67.4314 Q1004.15 61.1119 1004.15 50.3365 Q1004.15 39.1965 1010.15 32.6746 Q1016.19 26.1121 1026.39 26.1121 Q1035.55 26.1121 1040.86 32.0264 Q1046.2 37.9003 1046.2 48.0275 M1038.75 45.84 Q1038.67 39.7232 1035.31 36.0774 Q1031.98 32.4315 1026.47 32.4315 Q1020.24 32.4315 1016.47 35.9558 Q1012.74 39.4801 1012.17 45.8805 L1038.75 45.84 Z" fill="#000000" fill-rule="evenodd" fill-opacity="1" /><path clip-path="url(#clip420)" d="M1058.44 9.54393 L1065.89 9.54393 L1065.89 72.576 L1058.44 72.576 L1058.44 9.54393 Z" fill="#000000" fill-rule="evenodd" fill-opacity="1" /><path clip-path="url(#clip420)" d="M1081.2 9.54393 L1088.7 9.54393 L1088.7 46.7717 L1110.94 27.2059 L1120.46 27.2059 L1096.39 48.4326 L1121.47 72.576 L1111.75 72.576 L1088.7 50.4176 L1088.7 72.576 L1081.2 72.576 L1081.2 9.54393 Z" fill="#000000" fill-rule="evenodd" fill-opacity="1" /><path clip-path="url(#clip420)" d="M1144.15 32.4315 Q1138.16 32.4315 1134.67 37.1306 Q1131.19 41.7891 1131.19 49.9314 Q1131.19 58.0738 1134.63 62.7728 Q1138.12 67.4314 1144.15 67.4314 Q1150.11 67.4314 1153.59 62.7323 Q1157.08 58.0333 1157.08 49.9314 Q1157.08 41.8701 1153.59 37.1711 Q1150.11 32.4315 1144.15 32.4315 M1144.15 26.1121 Q1153.88 26.1121 1159.43 32.4315 Q1164.97 38.7509 1164.97 49.9314 Q1164.97 61.0714 1159.43 67.4314 Q1153.88 73.7508 1144.15 73.7508 Q1134.39 73.7508 1128.84 67.4314 Q1123.33 61.0714 1123.33 49.9314 Q1123.33 38.7509 1128.84 32.4315 Q1134.39 26.1121 1144.15 26.1121 Z" fill="#000000" fill-rule="evenodd" fill-opacity="1" /><path clip-path="url(#clip420)" d="M1198.56 5.93863 L1206.62 5.93863 L1193.41 21.17 L1187.21 21.17 L1198.56 5.93863 M1206.25 28.5427 L1206.25 35.5912 Q1203.09 33.9709 1199.69 33.1607 Q1196.29 32.3505 1192.64 32.3505 Q1187.09 32.3505 1184.3 34.0519 Q1181.54 35.7533 1181.54 39.156 Q1181.54 41.7486 1183.53 43.2475 Q1185.51 44.7058 1191.51 46.0426 L1194.06 46.6097 Q1202 48.3111 1205.32 51.4303 Q1208.68 54.509 1208.68 60.0587 Q1208.68 66.3781 1203.66 70.0644 Q1198.68 73.7508 1189.93 73.7508 Q1186.28 73.7508 1182.31 73.0216 Q1178.38 72.3329 1174.01 70.9151 L1174.01 63.2184 Q1178.14 65.3654 1182.15 66.4591 Q1186.16 67.5124 1190.09 67.5124 Q1195.36 67.5124 1198.19 65.73 Q1201.03 63.9071 1201.03 60.6258 Q1201.03 57.5877 1198.96 55.9673 Q1196.94 54.3469 1190.01 52.8481 L1187.42 52.2405 Q1180.49 50.7821 1177.41 47.7845 Q1174.33 44.7463 1174.33 39.4801 Q1174.33 33.0797 1178.87 29.5959 Q1183.41 26.1121 1191.75 26.1121 Q1195.88 26.1121 1199.53 26.7198 Q1203.17 27.3274 1206.25 28.5427 Z" fill="#000000" fill-rule="evenodd" fill-opacity="1" /><path clip-path="url(#clip420)" d="M1253.2 28.9478 L1253.2 35.9153 Q1250.04 34.1734 1246.84 33.3227 Q1243.68 32.4315 1240.44 32.4315 Q1233.19 32.4315 1229.18 37.0496 Q1225.17 41.6271 1225.17 49.9314 Q1225.17 58.2358 1229.18 62.8538 Q1233.19 67.4314 1240.44 67.4314 Q1243.68 67.4314 1246.84 66.5807 Q1250.04 65.6895 1253.2 63.9476 L1253.2 70.8341 Q1250.08 72.2924 1246.72 73.0216 Q1243.4 73.7508 1239.63 73.7508 Q1229.38 73.7508 1223.35 67.3098 Q1217.31 60.8689 1217.31 49.9314 Q1217.31 38.832 1223.39 32.472 Q1229.51 26.1121 1240.12 26.1121 Q1243.56 26.1121 1246.84 26.8413 Q1250.12 27.5299 1253.2 28.9478 M1244.66 6.22219 L1252.72 6.22219 L1239.51 21.4536 L1233.31 21.4536 L1244.66 6.22219 Z" fill="#000000" fill-rule="evenodd" fill-opacity="1" /><path clip-path="url(#clip420)" d="M1299.75 65.7705 L1299.75 89.8329 L1292.25 89.8329 L1292.25 27.2059 L1299.75 27.2059 L1299.75 34.0924 Q1302.1 30.0415 1305.66 28.0971 Q1309.27 26.1121 1314.25 26.1121 Q1322.51 26.1121 1327.66 32.6746 Q1332.84 39.2371 1332.84 49.9314 Q1332.84 60.6258 1327.66 67.1883 Q1322.51 73.7508 1314.25 73.7508 Q1309.27 73.7508 1305.66 71.8063 Q1302.1 69.8214 1299.75 65.7705 M1325.11 49.9314 Q1325.11 41.7081 1321.7 37.0496 Q1318.34 32.3505 1312.43 32.3505 Q1306.51 32.3505 1303.11 37.0496 Q1299.75 41.7081 1299.75 49.9314 Q1299.75 58.1548 1303.11 62.8538 Q1306.51 67.5124 1312.43 67.5124 Q1318.34 67.5124 1321.7 62.8538 Q1325.11 58.1548 1325.11 49.9314 Z" fill="#000000" fill-rule="evenodd" fill-opacity="1" /><path clip-path="url(#clip420)" d="M1371.49 34.1734 Q1370.23 33.4443 1368.74 33.1202 Q1367.28 32.7556 1365.49 32.7556 Q1359.18 32.7556 1355.77 36.8875 Q1352.41 40.9789 1352.41 48.6757 L1352.41 72.576 L1344.92 72.576 L1344.92 27.2059 L1352.41 27.2059 L1352.41 34.2544 Q1354.76 30.1225 1358.53 28.1376 Q1362.29 26.1121 1367.68 26.1121 Q1368.45 26.1121 1369.38 26.2337 Q1370.32 26.3147 1371.45 26.5172 L1371.49 34.1734 Z" fill="#000000" fill-rule="evenodd" fill-opacity="1" /><path clip-path="url(#clip420)" d="M1395.07 32.4315 Q1389.07 32.4315 1385.59 37.1306 Q1382.1 41.7891 1382.1 49.9314 Q1382.1 58.0738 1385.55 62.7728 Q1389.03 67.4314 1395.07 67.4314 Q1401.02 67.4314 1404.5 62.7323 Q1407.99 58.0333 1407.99 49.9314 Q1407.99 41.8701 1404.5 37.1711 Q1401.02 32.4315 1395.07 32.4315 M1395.07 26.1121 Q1404.79 26.1121 1410.34 32.4315 Q1415.89 38.7509 1415.89 49.9314 Q1415.89 61.0714 1410.34 67.4314 Q1404.79 73.7508 1395.07 73.7508 Q1385.3 73.7508 1379.75 67.4314 Q1374.24 61.0714 1374.24 49.9314 Q1374.24 38.7509 1379.75 32.4315 Q1385.3 26.1121 1395.07 26.1121 Z" fill="#000000" fill-rule="evenodd" fill-opacity="1" /><path clip-path="url(#clip420)" d="M1458.1 34.0924 L1458.1 9.54393 L1465.55 9.54393 L1465.55 72.576 L1458.1 72.576 L1458.1 65.7705 Q1455.75 69.8214 1452.14 71.8063 Q1448.58 73.7508 1443.56 73.7508 Q1435.33 73.7508 1430.15 67.1883 Q1425 60.6258 1425 49.9314 Q1425 39.2371 1430.15 32.6746 Q1435.33 26.1121 1443.56 26.1121 Q1448.58 26.1121 1452.14 28.0971 Q1455.75 30.0415 1458.1 34.0924 M1432.7 49.9314 Q1432.7 58.1548 1436.06 62.8538 Q1439.46 67.5124 1445.38 67.5124 Q1451.29 67.5124 1454.7 62.8538 Q1458.1 58.1548 1458.1 49.9314 Q1458.1 41.7081 1454.7 37.0496 Q1451.29 32.3505 1445.38 32.3505 Q1439.46 32.3505 1436.06 37.0496 Q1432.7 41.7081 1432.7 49.9314 Z" fill="#000000" fill-rule="evenodd" fill-opacity="1" /><path clip-path="url(#clip420)" d="M1480.14 54.671 L1480.14 27.2059 L1487.59 27.2059 L1487.59 54.3874 Q1487.59 60.8284 1490.1 64.0691 Q1492.61 67.2693 1497.64 67.2693 Q1503.67 67.2693 1507.15 63.421 Q1510.68 59.5726 1510.68 52.9291 L1510.68 27.2059 L1518.13 27.2059 L1518.13 72.576 L1510.68 72.576 L1510.68 65.6084 Q1507.96 69.7404 1504.36 71.7658 Q1500.79 73.7508 1496.06 73.7508 Q1488.24 73.7508 1484.19 68.8897 Q1480.14 64.0286 1480.14 54.671 M1498.89 26.1121 L1498.89 26.1121 Z" fill="#000000" fill-rule="evenodd" fill-opacity="1" /><path clip-path="url(#clip420)" d="M1533.2 9.54393 L1540.7 9.54393 L1540.7 46.7717 L1562.94 27.2059 L1572.46 27.2059 L1548.39 48.4326 L1573.47 72.576 L1563.75 72.576 L1540.7 50.4176 L1540.7 72.576 L1533.2 72.576 L1533.2 9.54393 Z" fill="#000000" fill-rule="evenodd" fill-opacity="1" /><path clip-path="url(#clip420)" d="M1614.18 28.9478 L1614.18 35.9153 Q1611.02 34.1734 1607.82 33.3227 Q1604.66 32.4315 1601.42 32.4315 Q1594.17 32.4315 1590.16 37.0496 Q1586.15 41.6271 1586.15 49.9314 Q1586.15 58.2358 1590.16 62.8538 Q1594.17 67.4314 1601.42 67.4314 Q1604.66 67.4314 1607.82 66.5807 Q1611.02 65.6895 1614.18 63.9476 L1614.18 70.8341 Q1611.06 72.2924 1607.7 73.0216 Q1604.38 73.7508 1600.61 73.7508 Q1590.36 73.7508 1584.32 67.3098 Q1578.29 60.8689 1578.29 49.9314 Q1578.29 38.832 1584.37 32.472 Q1590.48 26.1121 1601.1 26.1121 Q1604.54 26.1121 1607.82 26.8413 Q1611.1 27.5299 1614.18 28.9478 Z" fill="#000000" fill-rule="evenodd" fill-opacity="1" /><path clip-path="url(#clip420)" d="M1627.14 27.2059 L1634.6 27.2059 L1634.6 73.3862 Q1634.6 82.0551 1631.27 85.944 Q1627.99 89.8329 1620.66 89.8329 L1617.83 89.8329 L1617.83 83.5134 L1619.81 83.5134 Q1624.06 83.5134 1625.6 81.5285 Q1627.14 79.5841 1627.14 73.3862 L1627.14 27.2059 M1627.14 9.54393 L1634.6 9.54393 L1634.6 18.9825 L1627.14 18.9825 L1627.14 9.54393 Z" fill="#000000" fill-rule="evenodd" fill-opacity="1" /><path clip-path="url(#clip420)" d="M1650.19 27.2059 L1657.65 27.2059 L1657.65 72.576 L1650.19 72.576 L1650.19 27.2059 M1650.19 9.54393 L1657.65 9.54393 L1657.65 18.9825 L1650.19 18.9825 L1650.19 9.54393 Z" fill="#000000" fill-rule="evenodd" fill-opacity="1" /><polyline clip-path="url(#clip422)" style="stroke:#1f77b4; stroke-linecap:butt; stroke-linejoin:round; stroke-width:8; stroke-opacity:1; fill:none" points="
  264.778,151.144 285.677,151.144 306.576,1073.54 327.474,1073.54 348.373,1073.54 369.271,1073.54 390.17,1073.54 411.069,1073.54 431.967,1073.54 452.866,1073.54 
  473.764,1073.54 494.663,1073.54 515.561,1073.54 536.46,1073.54 557.359,1073.54 578.257,908.83 599.156,908.83 620.054,1073.54 640.953,1073.54 661.852,1073.54 
  682.75,1073.54 703.649,1073.54 724.547,1073.54 745.446,1073.54 766.344,1073.54 787.243,1073.54 808.142,1073.54 829.04,1073.54 849.939,1073.54 870.837,1073.54 
  891.736,1073.54 912.635,1073.54 933.533,1073.54 954.432,941.773 975.33,1073.54 996.229,1073.54 1017.13,1073.54 1038.03,1073.54 1058.92,1073.54 1079.82,1073.54 
  1100.72,1073.54 1121.62,1073.54 1142.52,1073.54 1163.42,1073.54 1184.32,1073.54 1205.21,1073.54 1226.11,1073.54 1247.01,1073.54 1267.91,1073.54 1288.81,1073.54 
  1309.71,1073.54 1330.61,1073.54 1351.5,1073.54 1372.4,1073.54 1393.3,1073.54 1414.2,1073.54 1435.1,1073.54 1456,1073.54 1476.9,1073.54 1497.79,1073.54 
  1518.69,1073.54 1539.59,1073.54 1560.49,1073.54 1581.39,1073.54 1602.29,1073.54 1623.19,1073.54 1644.08,1073.54 1664.98,1073.54 1685.88,1073.54 1706.78,1073.54 
  1727.68,1073.54 1748.58,1073.54 1769.48,1073.54 1790.38,1073.54 1811.27,1073.54 1832.17,1073.54 1853.07,1073.54 1873.97,1073.54 1894.87,1073.54 1915.77,908.83 
  1936.67,744.116 1957.56,1073.54 1978.46,1007.66 1999.36,842.944 2020.26,1073.54 2041.16,908.83 2062.06,810.001 2082.96,810.001 2103.85,711.173 2124.75,612.344 
  2145.65,612.344 2166.55,777.058 2187.45,612.344 2208.35,612.344 2229.25,777.058 2250.14,1073.54 2271.04,1073.54 2291.94,1007.66 
  "/>
<polyline clip-path="url(#clip422)" style="stroke:#1f77b4; stroke-linecap:butt; stroke-linejoin:round; stroke-width:8; stroke-opacity:1; fill:none" stroke-dasharray="4, 8" points="
  264.778,151.144 285.677,151.144 306.576,1073.54 327.474,1073.54 348.373,1073.54 369.271,1073.54 390.17,1073.54 411.069,1073.54 431.967,1073.54 452.866,1073.54 
  473.764,1073.54 494.663,1073.54 515.561,1073.54 536.46,1073.54 557.359,1073.54 578.257,908.83 599.156,908.83 620.054,1073.54 640.953,1073.54 661.852,1073.54 
  682.75,1073.54 703.649,1073.54 724.547,1073.54 745.446,1073.54 766.344,1073.54 787.243,1073.54 808.142,1073.54 829.04,1073.54 849.939,1073.54 870.837,1073.54 
  891.736,1073.54 912.635,1073.54 933.533,1073.54 954.432,941.773 975.33,1073.54 996.229,1073.54 1017.13,1073.54 1038.03,1073.54 1058.92,1073.54 1079.82,1073.54 
  1100.72,1073.54 1121.62,1073.54 1142.52,1073.54 1163.42,1073.54 1184.32,1073.54 1205.21,1073.54 1226.11,1073.54 1247.01,1073.54 1267.91,1073.54 1288.81,1073.54 
  1309.71,1073.54 1330.61,1073.54 1351.5,1073.54 1372.4,1073.54 1393.3,1073.54 1414.2,1073.54 1435.1,1073.54 1456,1073.54 1476.9,1073.54 1497.79,1073.54 
  1518.69,1073.54 1539.59,1073.54 1560.49,1073.54 1581.39,1073.54 1602.29,1073.54 1623.19,1073.54 1644.08,1073.54 1664.98,1073.54 1685.88,1073.54 1706.78,1073.54 
  1727.68,1073.54 1748.58,1073.54 1769.48,1073.54 1790.38,1073.54 1811.27,1073.54 1832.17,1073.54 1853.07,1073.54 1873.97,1073.54 1894.87,1073.54 1915.77,908.83 
  1936.67,744.116 1957.56,1073.54 1978.46,1007.66 1999.36,1073.54 2020.26,1073.54 2041.16,1073.54 2062.06,1073.54 2082.96,1073.54 2103.85,1073.54 2124.75,1073.54 
  2145.65,1040.6 2166.55,1073.54 2187.45,1040.6 2208.35,1073.54 2229.25,1073.54 2250.14,1073.54 2271.04,1073.54 2291.94,1073.54 
  "/>
<path clip-path="url(#clip420)" d="
M430.971 1423.18 L1326.11 1423.18 L1326.11 1267.66 L430.971 1267.66  Z
  " fill="#ffffff" fill-rule="evenodd" fill-opacity="1"/>
<polyline clip-path="url(#clip420)" style="stroke:#000000; stroke-linecap:butt; stroke-linejoin:round; stroke-width:4; stroke-opacity:1; fill:none" points="
  430.971,1423.18 1326.11,1423.18 1326.11,1267.66 430.971,1267.66 430.971,1423.18 
  "/>
<polyline clip-path="url(#clip420)" style="stroke:#1f77b4; stroke-linecap:butt; stroke-linejoin:round; stroke-width:4; stroke-opacity:1; fill:none" points="
  454.846,1319.5 598.099,1319.5 
  "/>
<path clip-path="url(#clip420)" d="M621.974 1302.22 L641.835 1302.22 L641.835 1306.16 L626.65 1306.16 L626.65 1316.34 L640.354 1316.34 L640.354 1320.28 L626.65 1320.28 L626.65 1336.78 L621.974 1336.78 L621.974 1302.22 Z" fill="#000000" fill-rule="evenodd" fill-opacity="1" /><path clip-path="url(#clip420)" d="M645.609 1310.85 L649.868 1310.85 L649.868 1336.78 L645.609 1336.78 L645.609 1310.85 M645.609 1300.76 L649.868 1300.76 L649.868 1306.16 L645.609 1306.16 L645.609 1300.76 Z" fill="#000000" fill-rule="evenodd" fill-opacity="1" /><path clip-path="url(#clip420)" d="M673.803 1314.84 Q673.085 1314.42 672.229 1314.23 Q671.395 1314.03 670.377 1314.03 Q666.766 1314.03 664.821 1316.39 Q662.9 1318.72 662.9 1323.12 L662.9 1336.78 L658.618 1336.78 L658.618 1310.85 L662.9 1310.85 L662.9 1314.88 Q664.243 1312.52 666.395 1311.39 Q668.548 1310.23 671.627 1310.23 Q672.067 1310.23 672.599 1310.3 Q673.132 1310.34 673.78 1310.46 L673.803 1314.84 Z" fill="#000000" fill-rule="evenodd" fill-opacity="1" /><path clip-path="url(#clip420)" d="M697.622 1315.83 Q699.219 1312.96 701.442 1311.59 Q703.664 1310.23 706.673 1310.23 Q710.724 1310.23 712.923 1313.08 Q715.122 1315.9 715.122 1321.13 L715.122 1336.78 L710.84 1336.78 L710.84 1321.27 Q710.84 1317.54 709.52 1315.74 Q708.201 1313.93 705.492 1313.93 Q702.182 1313.93 700.261 1316.13 Q698.34 1318.33 698.34 1322.13 L698.34 1336.78 L694.057 1336.78 L694.057 1321.27 Q694.057 1317.52 692.738 1315.74 Q691.418 1313.93 688.664 1313.93 Q685.4 1313.93 683.479 1316.15 Q681.557 1318.35 681.557 1322.13 L681.557 1336.78 L677.275 1336.78 L677.275 1310.85 L681.557 1310.85 L681.557 1314.88 Q683.016 1312.5 685.053 1311.36 Q687.09 1310.23 689.891 1310.23 Q692.715 1310.23 694.682 1311.66 Q696.673 1313.1 697.622 1315.83 Z" fill="#000000" fill-rule="evenodd" fill-opacity="1" /><path clip-path="url(#clip420)" d="M735.4 1323.75 Q730.238 1323.75 728.247 1324.93 Q726.256 1326.11 726.256 1328.96 Q726.256 1331.22 727.738 1332.57 Q729.242 1333.89 731.812 1333.89 Q735.353 1333.89 737.483 1331.39 Q739.636 1328.86 739.636 1324.7 L739.636 1323.75 L735.4 1323.75 M743.895 1321.99 L743.895 1336.78 L739.636 1336.78 L739.636 1332.84 Q738.177 1335.21 736.002 1336.34 Q733.826 1337.45 730.677 1337.45 Q726.696 1337.45 724.335 1335.23 Q721.997 1332.98 721.997 1329.23 Q721.997 1324.86 724.914 1322.64 Q727.853 1320.41 733.664 1320.41 L739.636 1320.41 L739.636 1320 Q739.636 1317.06 737.691 1315.46 Q735.77 1313.84 732.275 1313.84 Q730.052 1313.84 727.946 1314.37 Q725.84 1314.9 723.895 1315.97 L723.895 1312.03 Q726.233 1311.13 728.432 1310.69 Q730.631 1310.23 732.715 1310.23 Q738.339 1310.23 741.117 1313.15 Q743.895 1316.06 743.895 1321.99 Z" fill="#000000" fill-rule="evenodd" fill-opacity="1" /><path clip-path="url(#clip420)" d="M769.15 1332.84 L776.788 1332.84 L776.788 1306.48 L768.478 1308.15 L768.478 1303.89 L776.742 1302.22 L781.418 1302.22 L781.418 1332.84 L789.057 1332.84 L789.057 1336.78 L769.15 1336.78 L769.15 1332.84 Z" fill="#000000" fill-rule="evenodd" fill-opacity="1" /><path clip-path="url(#clip420)" d="M798.987 1330.9 L803.872 1330.9 L803.872 1336.78 L798.987 1336.78 L798.987 1330.9 M798.987 1312.27 L803.872 1312.27 L803.872 1318.15 L798.987 1318.15 L798.987 1312.27 Z" fill="#000000" fill-rule="evenodd" fill-opacity="1" /><path clip-path="url(#clip420)" d="M826.464 1310.85 L830.723 1310.85 L836.047 1331.09 L841.348 1310.85 L846.371 1310.85 L851.695 1331.09 L856.996 1310.85 L861.255 1310.85 L854.473 1336.78 L849.45 1336.78 L843.871 1315.53 L838.27 1336.78 L833.246 1336.78 L826.464 1310.85 Z" fill="#000000" fill-rule="evenodd" fill-opacity="1" /><path clip-path="url(#clip420)" d="M867.714 1310.85 L871.973 1310.85 L871.973 1336.78 L867.714 1336.78 L867.714 1310.85 M867.714 1300.76 L871.973 1300.76 L871.973 1306.16 L867.714 1306.16 L867.714 1300.76 Z" fill="#000000" fill-rule="evenodd" fill-opacity="1" /><path clip-path="url(#clip420)" d="M903.061 1322.75 L903.061 1324.84 L883.478 1324.84 Q883.755 1329.23 886.116 1331.55 Q888.501 1333.84 892.737 1333.84 Q895.19 1333.84 897.482 1333.24 Q899.797 1332.64 902.065 1331.43 L902.065 1335.46 Q899.774 1336.43 897.366 1336.94 Q894.959 1337.45 892.482 1337.45 Q886.279 1337.45 882.644 1333.84 Q879.033 1330.23 879.033 1324.07 Q879.033 1317.71 882.459 1313.98 Q885.908 1310.23 891.741 1310.23 Q896.973 1310.23 900.005 1313.61 Q903.061 1316.97 903.061 1322.75 M898.802 1321.5 Q898.755 1318.01 896.834 1315.92 Q894.936 1313.84 891.788 1313.84 Q888.223 1313.84 886.07 1315.85 Q883.941 1317.87 883.616 1321.53 L898.802 1321.5 Z" fill="#000000" fill-rule="evenodd" fill-opacity="1" /><path clip-path="url(#clip420)" d="M910.052 1300.76 L914.311 1300.76 L914.311 1336.78 L910.052 1336.78 L910.052 1300.76 Z" fill="#000000" fill-rule="evenodd" fill-opacity="1" /><path clip-path="url(#clip420)" d="M923.061 1300.76 L927.343 1300.76 L927.343 1322.03 L940.051 1310.85 L945.491 1310.85 L931.741 1322.98 L946.07 1336.78 L940.514 1336.78 L927.343 1324.12 L927.343 1336.78 L923.061 1336.78 L923.061 1300.76 Z" fill="#000000" fill-rule="evenodd" fill-opacity="1" /><path clip-path="url(#clip420)" d="M959.033 1313.84 Q955.607 1313.84 953.616 1316.53 Q951.625 1319.19 951.625 1323.84 Q951.625 1328.49 953.593 1331.18 Q955.584 1333.84 959.033 1333.84 Q962.436 1333.84 964.426 1331.15 Q966.417 1328.47 966.417 1323.84 Q966.417 1319.23 964.426 1316.55 Q962.436 1313.84 959.033 1313.84 M959.033 1310.23 Q964.588 1310.23 967.76 1313.84 Q970.931 1317.45 970.931 1323.84 Q970.931 1330.21 967.76 1333.84 Q964.588 1337.45 959.033 1337.45 Q953.454 1337.45 950.283 1333.84 Q947.135 1330.21 947.135 1323.84 Q947.135 1317.45 950.283 1313.84 Q953.454 1310.23 959.033 1310.23 Z" fill="#000000" fill-rule="evenodd" fill-opacity="1" /><path clip-path="url(#clip420)" d="M990.121 1298.7 L994.727 1298.7 L987.181 1307.4 L983.639 1307.4 L990.121 1298.7 M994.519 1311.62 L994.519 1315.65 Q992.713 1314.72 990.769 1314.26 Q988.824 1313.79 986.741 1313.79 Q983.57 1313.79 981.972 1314.77 Q980.398 1315.74 980.398 1317.68 Q980.398 1319.16 981.533 1320.02 Q982.667 1320.85 986.093 1321.62 L987.551 1321.94 Q992.088 1322.91 993.986 1324.7 Q995.908 1326.46 995.908 1329.63 Q995.908 1333.24 993.037 1335.34 Q990.19 1337.45 985.19 1337.45 Q983.107 1337.45 980.838 1337.03 Q978.593 1336.64 976.093 1335.83 L976.093 1331.43 Q978.454 1332.66 980.746 1333.28 Q983.037 1333.89 985.283 1333.89 Q988.292 1333.89 989.912 1332.87 Q991.533 1331.83 991.533 1329.95 Q991.533 1328.22 990.352 1327.29 Q989.195 1326.36 985.236 1325.51 L983.755 1325.16 Q979.797 1324.33 978.037 1322.61 Q976.278 1320.88 976.278 1317.87 Q976.278 1314.21 978.871 1312.22 Q981.463 1310.23 986.232 1310.23 Q988.593 1310.23 990.676 1310.58 Q992.759 1310.92 994.519 1311.62 Z" fill="#000000" fill-rule="evenodd" fill-opacity="1" /><path clip-path="url(#clip420)" d="M1021.35 1311.85 L1021.35 1315.83 Q1019.54 1314.84 1017.71 1314.35 Q1015.91 1313.84 1014.06 1313.84 Q1009.91 1313.84 1007.62 1316.48 Q1005.33 1319.09 1005.33 1323.84 Q1005.33 1328.59 1007.62 1331.22 Q1009.91 1333.84 1014.06 1333.84 Q1015.91 1333.84 1017.71 1333.35 Q1019.54 1332.84 1021.35 1331.85 L1021.35 1335.78 Q1019.56 1336.62 1017.64 1337.03 Q1015.75 1337.45 1013.59 1337.45 Q1007.74 1337.45 1004.29 1333.77 Q1000.84 1330.09 1000.84 1323.84 Q1000.84 1317.5 1004.31 1313.86 Q1007.81 1310.23 1013.87 1310.23 Q1015.84 1310.23 1017.71 1310.65 Q1019.59 1311.04 1021.35 1311.85 M1016.46 1298.86 L1021.07 1298.86 L1013.52 1307.57 L1009.98 1307.57 L1016.46 1298.86 Z" fill="#000000" fill-rule="evenodd" fill-opacity="1" /><path clip-path="url(#clip420)" d="M1047.94 1332.89 L1047.94 1346.64 L1043.66 1346.64 L1043.66 1310.85 L1047.94 1310.85 L1047.94 1314.79 Q1049.29 1312.47 1051.32 1311.36 Q1053.38 1310.23 1056.23 1310.23 Q1060.95 1310.23 1063.89 1313.98 Q1066.86 1317.73 1066.86 1323.84 Q1066.86 1329.95 1063.89 1333.7 Q1060.95 1337.45 1056.23 1337.45 Q1053.38 1337.45 1051.32 1336.34 Q1049.29 1335.21 1047.94 1332.89 M1062.43 1323.84 Q1062.43 1319.14 1060.49 1316.48 Q1058.57 1313.79 1055.19 1313.79 Q1051.81 1313.79 1049.87 1316.48 Q1047.94 1319.14 1047.94 1323.84 Q1047.94 1328.54 1049.87 1331.22 Q1051.81 1333.89 1055.19 1333.89 Q1058.57 1333.89 1060.49 1331.22 Q1062.43 1328.54 1062.43 1323.84 Z" fill="#000000" fill-rule="evenodd" fill-opacity="1" /><path clip-path="url(#clip420)" d="M1088.94 1314.84 Q1088.22 1314.42 1087.37 1314.23 Q1086.53 1314.03 1085.51 1314.03 Q1081.9 1314.03 1079.96 1316.39 Q1078.04 1318.72 1078.04 1323.12 L1078.04 1336.78 L1073.75 1336.78 L1073.75 1310.85 L1078.04 1310.85 L1078.04 1314.88 Q1079.38 1312.52 1081.53 1311.39 Q1083.68 1310.23 1086.76 1310.23 Q1087.2 1310.23 1087.74 1310.3 Q1088.27 1310.34 1088.92 1310.46 L1088.94 1314.84 Z" fill="#000000" fill-rule="evenodd" fill-opacity="1" /><path clip-path="url(#clip420)" d="M1102.41 1313.84 Q1098.99 1313.84 1096.99 1316.53 Q1095 1319.19 1095 1323.84 Q1095 1328.49 1096.97 1331.18 Q1098.96 1333.84 1102.41 1333.84 Q1105.81 1333.84 1107.81 1331.15 Q1109.8 1328.47 1109.8 1323.84 Q1109.8 1319.23 1107.81 1316.55 Q1105.81 1313.84 1102.41 1313.84 M1102.41 1310.23 Q1107.97 1310.23 1111.14 1313.84 Q1114.31 1317.45 1114.31 1323.84 Q1114.31 1330.21 1111.14 1333.84 Q1107.97 1337.45 1102.41 1337.45 Q1096.83 1337.45 1093.66 1333.84 Q1090.51 1330.21 1090.51 1323.84 Q1090.51 1317.45 1093.66 1313.84 Q1096.83 1310.23 1102.41 1310.23 Z" fill="#000000" fill-rule="evenodd" fill-opacity="1" /><path clip-path="url(#clip420)" d="M1138.43 1314.79 L1138.43 1300.76 L1142.69 1300.76 L1142.69 1336.78 L1138.43 1336.78 L1138.43 1332.89 Q1137.09 1335.21 1135.03 1336.34 Q1132.99 1337.45 1130.12 1337.45 Q1125.42 1337.45 1122.46 1333.7 Q1119.52 1329.95 1119.52 1323.84 Q1119.52 1317.73 1122.46 1313.98 Q1125.42 1310.23 1130.12 1310.23 Q1132.99 1310.23 1135.03 1311.36 Q1137.09 1312.47 1138.43 1314.79 M1123.92 1323.84 Q1123.92 1328.54 1125.84 1331.22 Q1127.78 1333.89 1131.16 1333.89 Q1134.54 1333.89 1136.49 1331.22 Q1138.43 1328.54 1138.43 1323.84 Q1138.43 1319.14 1136.49 1316.48 Q1134.54 1313.79 1131.16 1313.79 Q1127.78 1313.79 1125.84 1316.48 Q1123.92 1319.14 1123.92 1323.84 Z" fill="#000000" fill-rule="evenodd" fill-opacity="1" /><path clip-path="url(#clip420)" d="M1151.02 1326.55 L1151.02 1310.85 L1155.28 1310.85 L1155.28 1326.39 Q1155.28 1330.07 1156.72 1331.92 Q1158.15 1333.75 1161.02 1333.75 Q1164.47 1333.75 1166.46 1331.55 Q1168.48 1329.35 1168.48 1325.55 L1168.48 1310.85 L1172.74 1310.85 L1172.74 1336.78 L1168.48 1336.78 L1168.48 1332.8 Q1166.93 1335.16 1164.86 1336.32 Q1162.83 1337.45 1160.12 1337.45 Q1155.65 1337.45 1153.34 1334.67 Q1151.02 1331.9 1151.02 1326.55 M1161.74 1310.23 L1161.74 1310.23 Z" fill="#000000" fill-rule="evenodd" fill-opacity="1" /><path clip-path="url(#clip420)" d="M1181.35 1300.76 L1185.63 1300.76 L1185.63 1322.03 L1198.34 1310.85 L1203.78 1310.85 L1190.03 1322.98 L1204.36 1336.78 L1198.8 1336.78 L1185.63 1324.12 L1185.63 1336.78 L1181.35 1336.78 L1181.35 1300.76 Z" fill="#000000" fill-rule="evenodd" fill-opacity="1" /><path clip-path="url(#clip420)" d="M1227.62 1311.85 L1227.62 1315.83 Q1225.81 1314.84 1223.99 1314.35 Q1222.18 1313.84 1220.33 1313.84 Q1216.18 1313.84 1213.89 1316.48 Q1211.6 1319.09 1211.6 1323.84 Q1211.6 1328.59 1213.89 1331.22 Q1216.18 1333.84 1220.33 1333.84 Q1222.18 1333.84 1223.99 1333.35 Q1225.81 1332.84 1227.62 1331.85 L1227.62 1335.78 Q1225.84 1336.62 1223.92 1337.03 Q1222.02 1337.45 1219.86 1337.45 Q1214.01 1337.45 1210.56 1333.77 Q1207.11 1330.09 1207.11 1323.84 Q1207.11 1317.5 1210.58 1313.86 Q1214.08 1310.23 1220.14 1310.23 Q1222.11 1310.23 1223.99 1310.65 Q1225.86 1311.04 1227.62 1311.85 Z" fill="#000000" fill-rule="evenodd" fill-opacity="1" /><path clip-path="url(#clip420)" d="M1235.03 1310.85 L1239.29 1310.85 L1239.29 1337.24 Q1239.29 1342.2 1237.39 1344.42 Q1235.51 1346.64 1231.32 1346.64 L1229.7 1346.64 L1229.7 1343.03 L1230.84 1343.03 Q1233.27 1343.03 1234.15 1341.9 Q1235.03 1340.78 1235.03 1337.24 L1235.03 1310.85 M1235.03 1300.76 L1239.29 1300.76 L1239.29 1306.16 L1235.03 1306.16 L1235.03 1300.76 Z" fill="#000000" fill-rule="evenodd" fill-opacity="1" /><path clip-path="url(#clip420)" d="M1248.2 1310.85 L1252.46 1310.85 L1252.46 1336.78 L1248.2 1336.78 L1248.2 1310.85 M1248.2 1300.76 L1252.46 1300.76 L1252.46 1306.16 L1248.2 1306.16 L1248.2 1300.76 Z" fill="#000000" fill-rule="evenodd" fill-opacity="1" /><polyline clip-path="url(#clip420)" style="stroke:#1f77b4; stroke-linecap:butt; stroke-linejoin:round; stroke-width:4; stroke-opacity:1; fill:none" stroke-dasharray="2, 4" points="
  454.846,1371.34 598.099,1371.34 
  "/>
<path clip-path="url(#clip420)" d="M621.974 1354.06 L641.835 1354.06 L641.835 1358 L626.65 1358 L626.65 1368.18 L640.354 1368.18 L640.354 1372.12 L626.65 1372.12 L626.65 1388.62 L621.974 1388.62 L621.974 1354.06 Z" fill="#000000" fill-rule="evenodd" fill-opacity="1" /><path clip-path="url(#clip420)" d="M645.609 1362.69 L649.868 1362.69 L649.868 1388.62 L645.609 1388.62 L645.609 1362.69 M645.609 1352.6 L649.868 1352.6 L649.868 1358 L645.609 1358 L645.609 1352.6 Z" fill="#000000" fill-rule="evenodd" fill-opacity="1" /><path clip-path="url(#clip420)" d="M673.803 1366.68 Q673.085 1366.26 672.229 1366.07 Q671.395 1365.87 670.377 1365.87 Q666.766 1365.87 664.821 1368.23 Q662.9 1370.56 662.9 1374.96 L662.9 1388.62 L658.618 1388.62 L658.618 1362.69 L662.9 1362.69 L662.9 1366.72 Q664.243 1364.36 666.395 1363.23 Q668.548 1362.07 671.627 1362.07 Q672.067 1362.07 672.599 1362.14 Q673.132 1362.18 673.78 1362.3 L673.803 1366.68 Z" fill="#000000" fill-rule="evenodd" fill-opacity="1" /><path clip-path="url(#clip420)" d="M697.622 1367.67 Q699.219 1364.8 701.442 1363.43 Q703.664 1362.07 706.673 1362.07 Q710.724 1362.07 712.923 1364.92 Q715.122 1367.74 715.122 1372.97 L715.122 1388.62 L710.84 1388.62 L710.84 1373.11 Q710.84 1369.38 709.52 1367.58 Q708.201 1365.77 705.492 1365.77 Q702.182 1365.77 700.261 1367.97 Q698.34 1370.17 698.34 1373.97 L698.34 1388.62 L694.057 1388.62 L694.057 1373.11 Q694.057 1369.36 692.738 1367.58 Q691.418 1365.77 688.664 1365.77 Q685.4 1365.77 683.479 1367.99 Q681.557 1370.19 681.557 1373.97 L681.557 1388.62 L677.275 1388.62 L677.275 1362.69 L681.557 1362.69 L681.557 1366.72 Q683.016 1364.34 685.053 1363.2 Q687.09 1362.07 689.891 1362.07 Q692.715 1362.07 694.682 1363.5 Q696.673 1364.94 697.622 1367.67 Z" fill="#000000" fill-rule="evenodd" fill-opacity="1" /><path clip-path="url(#clip420)" d="M735.4 1375.59 Q730.238 1375.59 728.247 1376.77 Q726.256 1377.95 726.256 1380.8 Q726.256 1383.06 727.738 1384.41 Q729.242 1385.73 731.812 1385.73 Q735.353 1385.73 737.483 1383.23 Q739.636 1380.7 739.636 1376.54 L739.636 1375.59 L735.4 1375.59 M743.895 1373.83 L743.895 1388.62 L739.636 1388.62 L739.636 1384.68 Q738.177 1387.05 736.002 1388.18 Q733.826 1389.29 730.677 1389.29 Q726.696 1389.29 724.335 1387.07 Q721.997 1384.82 721.997 1381.07 Q721.997 1376.7 724.914 1374.48 Q727.853 1372.25 733.664 1372.25 L739.636 1372.25 L739.636 1371.84 Q739.636 1368.9 737.691 1367.3 Q735.77 1365.68 732.275 1365.68 Q730.052 1365.68 727.946 1366.21 Q725.84 1366.74 723.895 1367.81 L723.895 1363.87 Q726.233 1362.97 728.432 1362.53 Q730.631 1362.07 732.715 1362.07 Q738.339 1362.07 741.117 1364.99 Q743.895 1367.9 743.895 1373.83 Z" fill="#000000" fill-rule="evenodd" fill-opacity="1" /><path clip-path="url(#clip420)" d="M769.15 1384.68 L776.788 1384.68 L776.788 1358.32 L768.478 1359.99 L768.478 1355.73 L776.742 1354.06 L781.418 1354.06 L781.418 1384.68 L789.057 1384.68 L789.057 1388.62 L769.15 1388.62 L769.15 1384.68 Z" fill="#000000" fill-rule="evenodd" fill-opacity="1" /><path clip-path="url(#clip420)" d="M798.987 1382.74 L803.872 1382.74 L803.872 1388.62 L798.987 1388.62 L798.987 1382.74 M798.987 1364.11 L803.872 1364.11 L803.872 1369.99 L798.987 1369.99 L798.987 1364.11 Z" fill="#000000" fill-rule="evenodd" fill-opacity="1" /><path clip-path="url(#clip420)" d="M826.464 1362.69 L830.723 1362.69 L836.047 1382.93 L841.348 1362.69 L846.371 1362.69 L851.695 1382.93 L856.996 1362.69 L861.255 1362.69 L854.473 1388.62 L849.45 1388.62 L843.871 1367.37 L838.27 1388.62 L833.246 1388.62 L826.464 1362.69 Z" fill="#000000" fill-rule="evenodd" fill-opacity="1" /><path clip-path="url(#clip420)" d="M867.714 1362.69 L871.973 1362.69 L871.973 1388.62 L867.714 1388.62 L867.714 1362.69 M867.714 1352.6 L871.973 1352.6 L871.973 1358 L867.714 1358 L867.714 1352.6 Z" fill="#000000" fill-rule="evenodd" fill-opacity="1" /><path clip-path="url(#clip420)" d="M903.061 1374.59 L903.061 1376.68 L883.478 1376.68 Q883.755 1381.07 886.116 1383.39 Q888.501 1385.68 892.737 1385.68 Q895.19 1385.68 897.482 1385.08 Q899.797 1384.48 902.065 1383.27 L902.065 1387.3 Q899.774 1388.27 897.366 1388.78 Q894.959 1389.29 892.482 1389.29 Q886.279 1389.29 882.644 1385.68 Q879.033 1382.07 879.033 1375.91 Q879.033 1369.55 882.459 1365.82 Q885.908 1362.07 891.741 1362.07 Q896.973 1362.07 900.005 1365.45 Q903.061 1368.81 903.061 1374.59 M898.802 1373.34 Q898.755 1369.85 896.834 1367.76 Q894.936 1365.68 891.788 1365.68 Q888.223 1365.68 886.07 1367.69 Q883.941 1369.71 883.616 1373.37 L898.802 1373.34 Z" fill="#000000" fill-rule="evenodd" fill-opacity="1" /><path clip-path="url(#clip420)" d="M910.052 1352.6 L914.311 1352.6 L914.311 1388.62 L910.052 1388.62 L910.052 1352.6 Z" fill="#000000" fill-rule="evenodd" fill-opacity="1" /><path clip-path="url(#clip420)" d="M923.061 1352.6 L927.343 1352.6 L927.343 1373.87 L940.051 1362.69 L945.491 1362.69 L931.741 1374.82 L946.07 1388.62 L940.514 1388.62 L927.343 1375.96 L927.343 1388.62 L923.061 1388.62 L923.061 1352.6 Z" fill="#000000" fill-rule="evenodd" fill-opacity="1" /><path clip-path="url(#clip420)" d="M959.033 1365.68 Q955.607 1365.68 953.616 1368.37 Q951.625 1371.03 951.625 1375.68 Q951.625 1380.33 953.593 1383.02 Q955.584 1385.68 959.033 1385.68 Q962.436 1385.68 964.426 1382.99 Q966.417 1380.31 966.417 1375.68 Q966.417 1371.07 964.426 1368.39 Q962.436 1365.68 959.033 1365.68 M959.033 1362.07 Q964.588 1362.07 967.76 1365.68 Q970.931 1369.29 970.931 1375.68 Q970.931 1382.05 967.76 1385.68 Q964.588 1389.29 959.033 1389.29 Q953.454 1389.29 950.283 1385.68 Q947.135 1382.05 947.135 1375.68 Q947.135 1369.29 950.283 1365.68 Q953.454 1362.07 959.033 1362.07 Z" fill="#000000" fill-rule="evenodd" fill-opacity="1" /><path clip-path="url(#clip420)" d="M990.121 1350.54 L994.727 1350.54 L987.181 1359.24 L983.639 1359.24 L990.121 1350.54 M994.519 1363.46 L994.519 1367.49 Q992.713 1366.56 990.769 1366.1 Q988.824 1365.63 986.741 1365.63 Q983.57 1365.63 981.972 1366.61 Q980.398 1367.58 980.398 1369.52 Q980.398 1371 981.533 1371.86 Q982.667 1372.69 986.093 1373.46 L987.551 1373.78 Q992.088 1374.75 993.986 1376.54 Q995.908 1378.3 995.908 1381.47 Q995.908 1385.08 993.037 1387.18 Q990.19 1389.29 985.19 1389.29 Q983.107 1389.29 980.838 1388.87 Q978.593 1388.48 976.093 1387.67 L976.093 1383.27 Q978.454 1384.5 980.746 1385.12 Q983.037 1385.73 985.283 1385.73 Q988.292 1385.73 989.912 1384.71 Q991.533 1383.67 991.533 1381.79 Q991.533 1380.06 990.352 1379.13 Q989.195 1378.2 985.236 1377.35 L983.755 1377 Q979.797 1376.17 978.037 1374.45 Q976.278 1372.72 976.278 1369.71 Q976.278 1366.05 978.871 1364.06 Q981.463 1362.07 986.232 1362.07 Q988.593 1362.07 990.676 1362.42 Q992.759 1362.76 994.519 1363.46 Z" fill="#000000" fill-rule="evenodd" fill-opacity="1" /><path clip-path="url(#clip420)" d="M1021.35 1363.69 L1021.35 1367.67 Q1019.54 1366.68 1017.71 1366.19 Q1015.91 1365.68 1014.06 1365.68 Q1009.91 1365.68 1007.62 1368.32 Q1005.33 1370.93 1005.33 1375.68 Q1005.33 1380.43 1007.62 1383.06 Q1009.91 1385.68 1014.06 1385.68 Q1015.91 1385.68 1017.71 1385.19 Q1019.54 1384.68 1021.35 1383.69 L1021.35 1387.62 Q1019.56 1388.46 1017.64 1388.87 Q1015.75 1389.29 1013.59 1389.29 Q1007.74 1389.29 1004.29 1385.61 Q1000.84 1381.93 1000.84 1375.68 Q1000.84 1369.34 1004.31 1365.7 Q1007.81 1362.07 1013.87 1362.07 Q1015.84 1362.07 1017.71 1362.49 Q1019.59 1362.88 1021.35 1363.69 M1016.46 1350.7 L1021.07 1350.7 L1013.52 1359.41 L1009.98 1359.41 L1016.46 1350.7 Z" fill="#000000" fill-rule="evenodd" fill-opacity="1" /><path clip-path="url(#clip420)" d="M1060.35 1363.46 L1060.35 1367.49 Q1058.55 1366.56 1056.6 1366.1 Q1054.66 1365.63 1052.57 1365.63 Q1049.4 1365.63 1047.81 1366.61 Q1046.23 1367.58 1046.23 1369.52 Q1046.23 1371 1047.37 1371.86 Q1048.5 1372.69 1051.93 1373.46 L1053.38 1373.78 Q1057.92 1374.75 1059.82 1376.54 Q1061.74 1378.3 1061.74 1381.47 Q1061.74 1385.08 1058.87 1387.18 Q1056.02 1389.29 1051.02 1389.29 Q1048.94 1389.29 1046.67 1388.87 Q1044.43 1388.48 1041.93 1387.67 L1041.93 1383.27 Q1044.29 1384.5 1046.58 1385.12 Q1048.87 1385.73 1051.12 1385.73 Q1054.12 1385.73 1055.75 1384.71 Q1057.37 1383.67 1057.37 1381.79 Q1057.37 1380.06 1056.19 1379.13 Q1055.03 1378.2 1051.07 1377.35 L1049.59 1377 Q1045.63 1376.17 1043.87 1374.45 Q1042.11 1372.72 1042.11 1369.71 Q1042.11 1366.05 1044.7 1364.06 Q1047.3 1362.07 1052.06 1362.07 Q1054.43 1362.07 1056.51 1362.42 Q1058.59 1362.76 1060.35 1363.46 Z" fill="#000000" fill-rule="evenodd" fill-opacity="1" /><path clip-path="url(#clip420)" d="M1072.64 1384.73 L1072.64 1398.48 L1068.36 1398.48 L1068.36 1362.69 L1072.64 1362.69 L1072.64 1366.63 Q1073.99 1364.31 1076.02 1363.2 Q1078.08 1362.07 1080.93 1362.07 Q1085.65 1362.07 1088.59 1365.82 Q1091.56 1369.57 1091.56 1375.68 Q1091.56 1381.79 1088.59 1385.54 Q1085.65 1389.29 1080.93 1389.29 Q1078.08 1389.29 1076.02 1388.18 Q1073.99 1387.05 1072.64 1384.73 M1087.13 1375.68 Q1087.13 1370.98 1085.19 1368.32 Q1083.27 1365.63 1079.89 1365.63 Q1076.51 1365.63 1074.56 1368.32 Q1072.64 1370.98 1072.64 1375.68 Q1072.64 1380.38 1074.56 1383.06 Q1076.51 1385.73 1079.89 1385.73 Q1083.27 1385.73 1085.19 1383.06 Q1087.13 1380.38 1087.13 1375.68 Z" fill="#000000" fill-rule="evenodd" fill-opacity="1" /><path clip-path="url(#clip420)" d="M1113.64 1366.68 Q1112.92 1366.26 1112.06 1366.07 Q1111.23 1365.87 1110.21 1365.87 Q1106.6 1365.87 1104.66 1368.23 Q1102.74 1370.56 1102.74 1374.96 L1102.74 1388.62 L1098.45 1388.62 L1098.45 1362.69 L1102.74 1362.69 L1102.74 1366.72 Q1104.08 1364.36 1106.23 1363.23 Q1108.38 1362.07 1111.46 1362.07 Q1111.9 1362.07 1112.43 1362.14 Q1112.97 1362.18 1113.62 1362.3 L1113.64 1366.68 Z" fill="#000000" fill-rule="evenodd" fill-opacity="1" /><path clip-path="url(#clip420)" d="M1116.25 1362.69 L1136.49 1362.69 L1136.49 1366.58 L1120.47 1385.22 L1136.49 1385.22 L1136.49 1388.62 L1115.68 1388.62 L1115.68 1384.73 L1131.69 1366.1 L1116.25 1366.1 L1116.25 1362.69 Z" fill="#000000" fill-rule="evenodd" fill-opacity="1" /><path clip-path="url(#clip420)" d="M1165.17 1374.59 L1165.17 1376.68 L1145.58 1376.68 Q1145.86 1381.07 1148.22 1383.39 Q1150.61 1385.68 1154.84 1385.68 Q1157.3 1385.68 1159.59 1385.08 Q1161.9 1384.48 1164.17 1383.27 L1164.17 1387.3 Q1161.88 1388.27 1159.47 1388.78 Q1157.06 1389.29 1154.59 1389.29 Q1148.38 1389.29 1144.75 1385.68 Q1141.14 1382.07 1141.14 1375.91 Q1141.14 1369.55 1144.56 1365.82 Q1148.01 1362.07 1153.85 1362.07 Q1159.08 1362.07 1162.11 1365.45 Q1165.17 1368.81 1165.17 1374.59 M1160.91 1373.34 Q1160.86 1369.85 1158.94 1367.76 Q1157.04 1365.68 1153.89 1365.68 Q1150.33 1365.68 1148.18 1367.69 Q1146.05 1369.71 1145.72 1373.37 L1160.91 1373.34 Z" fill="#000000" fill-rule="evenodd" fill-opacity="1" /><path clip-path="url(#clip420)" d="M1189.22 1366.63 L1189.22 1352.6 L1193.48 1352.6 L1193.48 1388.62 L1189.22 1388.62 L1189.22 1384.73 Q1187.87 1387.05 1185.81 1388.18 Q1183.78 1389.29 1180.91 1389.29 Q1176.21 1389.29 1173.24 1385.54 Q1170.3 1381.79 1170.3 1375.68 Q1170.3 1369.57 1173.24 1365.82 Q1176.21 1362.07 1180.91 1362.07 Q1183.78 1362.07 1185.81 1363.2 Q1187.87 1364.31 1189.22 1366.63 M1174.7 1375.68 Q1174.7 1380.38 1176.62 1383.06 Q1178.57 1385.73 1181.95 1385.73 Q1185.33 1385.73 1187.27 1383.06 Q1189.22 1380.38 1189.22 1375.68 Q1189.22 1370.98 1187.27 1368.32 Q1185.33 1365.63 1181.95 1365.63 Q1178.57 1365.63 1176.62 1368.32 Q1174.7 1370.98 1174.7 1375.68 Z" fill="#000000" fill-rule="evenodd" fill-opacity="1" /><path clip-path="url(#clip420)" d="M1214.03 1375.59 Q1208.87 1375.59 1206.88 1376.77 Q1204.89 1377.95 1204.89 1380.8 Q1204.89 1383.06 1206.37 1384.41 Q1207.87 1385.73 1210.44 1385.73 Q1213.99 1385.73 1216.11 1383.23 Q1218.27 1380.7 1218.27 1376.54 L1218.27 1375.59 L1214.03 1375.59 M1222.53 1373.83 L1222.53 1388.62 L1218.27 1388.62 L1218.27 1384.68 Q1216.81 1387.05 1214.63 1388.18 Q1212.46 1389.29 1209.31 1389.29 Q1205.33 1389.29 1202.97 1387.07 Q1200.63 1384.82 1200.63 1381.07 Q1200.63 1376.7 1203.55 1374.48 Q1206.49 1372.25 1212.3 1372.25 L1218.27 1372.25 L1218.27 1371.84 Q1218.27 1368.9 1216.32 1367.3 Q1214.4 1365.68 1210.91 1365.68 Q1208.68 1365.68 1206.58 1366.21 Q1204.47 1366.74 1202.53 1367.81 L1202.53 1363.87 Q1204.86 1362.97 1207.06 1362.53 Q1209.26 1362.07 1211.35 1362.07 Q1216.97 1362.07 1219.75 1364.99 Q1222.53 1367.9 1222.53 1373.83 Z" fill="#000000" fill-rule="evenodd" fill-opacity="1" /><path clip-path="url(#clip420)" d="M1237.04 1352.6 L1241.3 1352.6 L1241.3 1358 L1237.04 1358 L1237.04 1352.6 M1239.22 1362.07 L1239.22 1362.07 M1229.45 1362.69 L1249.68 1362.69 L1249.68 1366.58 L1233.66 1385.22 L1249.68 1385.22 L1249.68 1388.62 L1228.87 1388.62 L1228.87 1384.73 L1244.89 1366.1 L1229.45 1366.1 L1229.45 1362.69 Z" fill="#000000" fill-rule="evenodd" fill-opacity="1" /><path clip-path="url(#clip420)" d="M1266.97 1391.03 Q1265.17 1395.66 1263.45 1397.07 Q1261.74 1398.48 1258.87 1398.48 L1255.47 1398.48 L1255.47 1394.92 L1257.97 1394.92 Q1259.73 1394.92 1260.7 1394.08 Q1261.67 1393.25 1262.85 1390.15 L1263.61 1388.2 L1253.13 1362.69 L1257.64 1362.69 L1265.74 1382.97 L1273.85 1362.69 L1278.36 1362.69 L1266.97 1391.03 Z" fill="#000000" fill-rule="evenodd" fill-opacity="1" /></svg>
