<?xml version="1.0" encoding="utf-8"?>
<svg xmlns="http://www.w3.org/2000/svg" xmlns:xlink="http://www.w3.org/1999/xlink" width="600" height="400" viewBox="0 0 2400 1600">
<defs>
  <clipPath id="clip160">
    <rect x="0" y="0" width="2400" height="1600"/>
  </clipPath>
</defs>
<path clip-path="url(#clip160)" d="
M0 1600 L2400 1600 L2400 0 L0 0  Z
  " fill="#ffffff" fill-rule="evenodd" fill-opacity="1"/>
<defs>
  <clipPath id="clip161">
    <rect x="480" y="0" width="1681" height="1600"/>
  </clipPath>
</defs>
<path clip-path="url(#clip160)" d="
M203.964 1049.38 L2352.76 1049.38 L2352.76 123.472 L203.964 123.472  Z
  " fill="#ffffff" fill-rule="evenodd" fill-opacity="1"/>
<defs>
  <clipPath id="clip162">
    <rect x="203" y="123" width="2150" height="927"/>
  </clipPath>
</defs>
<polyline clip-path="url(#clip162)" style="stroke:#000000; stroke-linecap:butt; stroke-linejoin:round; stroke-width:2; stroke-opacity:0.1; fill:none" points="
  254.488,1049.38 254.488,123.472 
  "/>
<polyline clip-path="url(#clip162)" style="stroke:#000000; stroke-linecap:butt; stroke-linejoin:round; stroke-width:2; stroke-opacity:0.1; fill:none" points="
  768.997,1049.38 768.997,123.472 
  "/>
<polyline clip-path="url(#clip162)" style="stroke:#000000; stroke-linecap:butt; stroke-linejoin:round; stroke-width:2; stroke-opacity:0.1; fill:none" points="
  1283.5,1049.38 1283.5,123.472 
  "/>
<polyline clip-path="url(#clip162)" style="stroke:#000000; stroke-linecap:butt; stroke-linejoin:round; stroke-width:2; stroke-opacity:0.1; fill:none" points="
  1798.01,1049.38 1798.01,123.472 
  "/>
<polyline clip-path="url(#clip162)" style="stroke:#000000; stroke-linecap:butt; stroke-linejoin:round; stroke-width:2; stroke-opacity:0.1; fill:none" points="
  2312.52,1049.38 2312.52,123.472 
  "/>
<polyline clip-path="url(#clip160)" style="stroke:#000000; stroke-linecap:butt; stroke-linejoin:round; stroke-width:4; stroke-opacity:1; fill:none" points="
  203.964,1049.38 2352.76,1049.38 
  "/>
<polyline clip-path="url(#clip160)" style="stroke:#000000; stroke-linecap:butt; stroke-linejoin:round; stroke-width:4; stroke-opacity:1; fill:none" points="
  254.488,1049.38 254.488,1035.91 
  "/>
<polyline clip-path="url(#clip160)" style="stroke:#000000; stroke-linecap:butt; stroke-linejoin:round; stroke-width:4; stroke-opacity:1; fill:none" points="
  768.997,1049.38 768.997,1035.91 
  "/>
<polyline clip-path="url(#clip160)" style="stroke:#000000; stroke-linecap:butt; stroke-linejoin:round; stroke-width:4; stroke-opacity:1; fill:none" points="
  1283.5,1049.38 1283.5,1035.91 
  "/>
<polyline clip-path="url(#clip160)" style="stroke:#000000; stroke-linecap:butt; stroke-linejoin:round; stroke-width:4; stroke-opacity:1; fill:none" points="
  1798.01,1049.38 1798.01,1035.91 
  "/>
<polyline clip-path="url(#clip160)" style="stroke:#000000; stroke-linecap:butt; stroke-linejoin:round; stroke-width:4; stroke-opacity:1; fill:none" points="
  2312.52,1049.38 2312.52,1035.91 
  "/>
<path clip-path="url(#clip160)" d="M254.488 1080.29 Q250.877 1080.29 249.048 1083.86 Q247.243 1087.4 247.243 1094.53 Q247.243 1101.64 249.048 1105.2 Q250.877 1108.74 254.488 1108.74 Q258.123 1108.74 259.928 1105.2 Q261.757 1101.64 261.757 1094.53 Q261.757 1087.4 259.928 1083.86 Q258.123 1080.29 254.488 1080.29 M254.488 1076.59 Q260.298 1076.59 263.354 1081.2 Q266.433 1085.78 266.433 1094.53 Q266.433 1103.26 263.354 1107.86 Q260.298 1112.45 254.488 1112.45 Q248.678 1112.45 245.599 1107.86 Q242.544 1103.26 242.544 1094.53 Q242.544 1085.78 245.599 1081.2 Q248.678 1076.59 254.488 1076.59 Z" fill="#000000" fill-rule="evenodd" fill-opacity="1" /><path clip-path="url(#clip160)" d="M743.696 1077.22 L762.052 1077.22 L762.052 1081.15 L747.978 1081.15 L747.978 1089.62 Q748.997 1089.28 750.015 1089.11 Q751.034 1088.93 752.052 1088.93 Q757.839 1088.93 761.219 1092.1 Q764.598 1095.27 764.598 1100.69 Q764.598 1106.27 761.126 1109.37 Q757.654 1112.45 751.335 1112.45 Q749.159 1112.45 746.89 1112.08 Q744.645 1111.71 742.237 1110.97 L742.237 1106.27 Q744.321 1107.4 746.543 1107.96 Q748.765 1108.51 751.242 1108.51 Q755.247 1108.51 757.585 1106.41 Q759.923 1104.3 759.923 1100.69 Q759.923 1097.08 757.585 1094.97 Q755.247 1092.86 751.242 1092.86 Q749.367 1092.86 747.492 1093.28 Q745.64 1093.7 743.696 1094.58 L743.696 1077.22 Z" fill="#000000" fill-rule="evenodd" fill-opacity="1" /><path clip-path="url(#clip160)" d="M783.811 1080.29 Q780.2 1080.29 778.372 1083.86 Q776.566 1087.4 776.566 1094.53 Q776.566 1101.64 778.372 1105.2 Q780.2 1108.74 783.811 1108.74 Q787.446 1108.74 789.251 1105.2 Q791.08 1101.64 791.08 1094.53 Q791.08 1087.4 789.251 1083.86 Q787.446 1080.29 783.811 1080.29 M783.811 1076.59 Q789.621 1076.59 792.677 1081.2 Q795.756 1085.78 795.756 1094.53 Q795.756 1103.26 792.677 1107.86 Q789.621 1112.45 783.811 1112.45 Q778.001 1112.45 774.922 1107.86 Q771.867 1103.26 771.867 1094.53 Q771.867 1085.78 774.922 1081.2 Q778.001 1076.59 783.811 1076.59 Z" fill="#000000" fill-rule="evenodd" fill-opacity="1" /><path clip-path="url(#clip160)" d="M1243.11 1107.84 L1250.75 1107.84 L1250.75 1081.48 L1242.44 1083.14 L1242.44 1078.88 L1250.7 1077.22 L1255.38 1077.22 L1255.38 1107.84 L1263.02 1107.84 L1263.02 1111.78 L1243.11 1111.78 L1243.11 1107.84 Z" fill="#000000" fill-rule="evenodd" fill-opacity="1" /><path clip-path="url(#clip160)" d="M1282.46 1080.29 Q1278.85 1080.29 1277.02 1083.86 Q1275.22 1087.4 1275.22 1094.53 Q1275.22 1101.64 1277.02 1105.2 Q1278.85 1108.74 1282.46 1108.74 Q1286.1 1108.74 1287.9 1105.2 Q1289.73 1101.64 1289.73 1094.53 Q1289.73 1087.4 1287.9 1083.86 Q1286.1 1080.29 1282.46 1080.29 M1282.46 1076.59 Q1288.27 1076.59 1291.33 1081.2 Q1294.41 1085.78 1294.41 1094.53 Q1294.41 1103.26 1291.33 1107.86 Q1288.27 1112.45 1282.46 1112.45 Q1276.65 1112.45 1273.57 1107.86 Q1270.52 1103.26 1270.52 1094.53 Q1270.52 1085.78 1273.57 1081.2 Q1276.65 1076.59 1282.46 1076.59 Z" fill="#000000" fill-rule="evenodd" fill-opacity="1" /><path clip-path="url(#clip160)" d="M1312.63 1080.29 Q1309.01 1080.29 1307.19 1083.86 Q1305.38 1087.4 1305.38 1094.53 Q1305.38 1101.64 1307.19 1105.2 Q1309.01 1108.74 1312.63 1108.74 Q1316.26 1108.74 1318.06 1105.2 Q1319.89 1101.64 1319.89 1094.53 Q1319.89 1087.4 1318.06 1083.86 Q1316.26 1080.29 1312.63 1080.29 M1312.63 1076.59 Q1318.44 1076.59 1321.49 1081.2 Q1324.57 1085.78 1324.57 1094.53 Q1324.57 1103.26 1321.49 1107.86 Q1318.44 1112.45 1312.63 1112.45 Q1306.81 1112.45 1303.74 1107.86 Q1300.68 1103.26 1300.68 1094.53 Q1300.68 1085.78 1303.74 1081.2 Q1306.81 1076.59 1312.63 1076.59 Z" fill="#000000" fill-rule="evenodd" fill-opacity="1" /><path clip-path="url(#clip160)" d="M1757.62 1107.84 L1765.26 1107.84 L1765.26 1081.48 L1756.95 1083.14 L1756.95 1078.88 L1765.21 1077.22 L1769.89 1077.22 L1769.89 1107.84 L1777.53 1107.84 L1777.53 1111.78 L1757.62 1111.78 L1757.62 1107.84 Z" fill="#000000" fill-rule="evenodd" fill-opacity="1" /><path clip-path="url(#clip160)" d="M1787.02 1077.22 L1805.37 1077.22 L1805.37 1081.15 L1791.3 1081.15 L1791.3 1089.62 Q1792.32 1089.28 1793.34 1089.11 Q1794.36 1088.93 1795.37 1088.93 Q1801.16 1088.93 1804.54 1092.1 Q1807.92 1095.27 1807.92 1100.69 Q1807.92 1106.27 1804.45 1109.37 Q1800.98 1112.45 1794.66 1112.45 Q1792.48 1112.45 1790.21 1112.08 Q1787.97 1111.71 1785.56 1110.97 L1785.56 1106.27 Q1787.64 1107.4 1789.86 1107.96 Q1792.09 1108.51 1794.56 1108.51 Q1798.57 1108.51 1800.91 1106.41 Q1803.24 1104.3 1803.24 1100.69 Q1803.24 1097.08 1800.91 1094.97 Q1798.57 1092.86 1794.56 1092.86 Q1792.69 1092.86 1790.81 1093.28 Q1788.96 1093.7 1787.02 1094.58 L1787.02 1077.22 Z" fill="#000000" fill-rule="evenodd" fill-opacity="1" /><path clip-path="url(#clip160)" d="M1827.13 1080.29 Q1823.52 1080.29 1821.69 1083.86 Q1819.89 1087.4 1819.89 1094.53 Q1819.89 1101.64 1821.69 1105.2 Q1823.52 1108.74 1827.13 1108.74 Q1830.77 1108.74 1832.57 1105.2 Q1834.4 1101.64 1834.4 1094.53 Q1834.4 1087.4 1832.57 1083.86 Q1830.77 1080.29 1827.13 1080.29 M1827.13 1076.59 Q1832.94 1076.59 1836 1081.2 Q1839.08 1085.78 1839.08 1094.53 Q1839.08 1103.26 1836 1107.86 Q1832.94 1112.45 1827.13 1112.45 Q1821.32 1112.45 1818.24 1107.86 Q1815.19 1103.26 1815.19 1094.53 Q1815.19 1085.78 1818.24 1081.2 Q1821.32 1076.59 1827.13 1076.59 Z" fill="#000000" fill-rule="evenodd" fill-opacity="1" /><path clip-path="url(#clip160)" d="M2276.21 1107.84 L2292.53 1107.84 L2292.53 1111.78 L2270.59 1111.78 L2270.59 1107.84 Q2273.25 1105.09 2277.83 1100.46 Q2282.44 1095.8 2283.62 1094.46 Q2285.87 1091.94 2286.75 1090.2 Q2287.65 1088.44 2287.65 1086.75 Q2287.65 1084 2285.7 1082.26 Q2283.78 1080.53 2280.68 1080.53 Q2278.48 1080.53 2276.03 1081.29 Q2273.6 1082.05 2270.82 1083.61 L2270.82 1078.88 Q2273.64 1077.75 2276.1 1077.17 Q2278.55 1076.59 2280.59 1076.59 Q2285.96 1076.59 2289.15 1079.28 Q2292.35 1081.96 2292.35 1086.45 Q2292.35 1088.58 2291.54 1090.5 Q2290.75 1092.4 2288.64 1094.99 Q2288.07 1095.67 2284.96 1098.88 Q2281.86 1102.08 2276.21 1107.84 Z" fill="#000000" fill-rule="evenodd" fill-opacity="1" /><path clip-path="url(#clip160)" d="M2312.35 1080.29 Q2308.74 1080.29 2306.91 1083.86 Q2305.1 1087.4 2305.1 1094.53 Q2305.1 1101.64 2306.91 1105.2 Q2308.74 1108.74 2312.35 1108.74 Q2315.98 1108.74 2317.79 1105.2 Q2319.62 1101.64 2319.62 1094.53 Q2319.62 1087.4 2317.79 1083.86 Q2315.98 1080.29 2312.35 1080.29 M2312.35 1076.59 Q2318.16 1076.59 2321.21 1081.2 Q2324.29 1085.78 2324.29 1094.53 Q2324.29 1103.26 2321.21 1107.86 Q2318.16 1112.45 2312.35 1112.45 Q2306.54 1112.45 2303.46 1107.86 Q2300.4 1103.26 2300.4 1094.53 Q2300.4 1085.78 2303.46 1081.2 Q2306.54 1076.59 2312.35 1076.59 Z" fill="#000000" fill-rule="evenodd" fill-opacity="1" /><path clip-path="url(#clip160)" d="M2342.51 1080.29 Q2338.9 1080.29 2337.07 1083.86 Q2335.26 1087.4 2335.26 1094.53 Q2335.26 1101.64 2337.07 1105.2 Q2338.9 1108.74 2342.51 1108.74 Q2346.14 1108.74 2347.95 1105.2 Q2349.78 1101.64 2349.78 1094.53 Q2349.78 1087.4 2347.95 1083.86 Q2346.14 1080.29 2342.51 1080.29 M2342.51 1076.59 Q2348.32 1076.59 2351.38 1081.2 Q2354.45 1085.78 2354.45 1094.53 Q2354.45 1103.26 2351.38 1107.86 Q2348.32 1112.45 2342.51 1112.45 Q2336.7 1112.45 2333.62 1107.86 Q2330.57 1103.26 2330.57 1094.53 Q2330.57 1085.78 2333.62 1081.2 Q2336.7 1076.59 2342.51 1076.59 Z" fill="#000000" fill-rule="evenodd" fill-opacity="1" /><path clip-path="url(#clip160)" d="M1277.42 1148.47 L1277.42 1158.59 L1289.48 1158.59 L1289.48 1163.14 L1277.42 1163.14 L1277.42 1182.5 Q1277.42 1186.86 1278.6 1188.1 Q1279.81 1189.34 1283.47 1189.34 L1289.48 1189.34 L1289.48 1194.24 L1283.47 1194.24 Q1276.69 1194.24 1274.11 1191.73 Q1271.53 1189.18 1271.53 1182.5 L1271.53 1163.14 L1267.24 1163.14 L1267.24 1158.59 L1271.53 1158.59 L1271.53 1148.47 L1277.42 1148.47 Z" fill="#000000" fill-rule="evenodd" fill-opacity="1" /><polyline clip-path="url(#clip162)" style="stroke:#000000; stroke-linecap:butt; stroke-linejoin:round; stroke-width:2; stroke-opacity:0.1; fill:none" points="
  203.964,1023.17 2352.76,1023.17 
  "/>
<polyline clip-path="url(#clip162)" style="stroke:#000000; stroke-linecap:butt; stroke-linejoin:round; stroke-width:2; stroke-opacity:0.1; fill:none" points="
  203.964,732.007 2352.76,732.007 
  "/>
<polyline clip-path="url(#clip162)" style="stroke:#000000; stroke-linecap:butt; stroke-linejoin:round; stroke-width:2; stroke-opacity:0.1; fill:none" points="
  203.964,440.842 2352.76,440.842 
  "/>
<polyline clip-path="url(#clip162)" style="stroke:#000000; stroke-linecap:butt; stroke-linejoin:round; stroke-width:2; stroke-opacity:0.1; fill:none" points="
  203.964,149.677 2352.76,149.677 
  "/>
<polyline clip-path="url(#clip160)" style="stroke:#000000; stroke-linecap:butt; stroke-linejoin:round; stroke-width:4; stroke-opacity:1; fill:none" points="
  203.964,1049.38 203.964,123.472 
  "/>
<polyline clip-path="url(#clip160)" style="stroke:#000000; stroke-linecap:butt; stroke-linejoin:round; stroke-width:4; stroke-opacity:1; fill:none" points="
  203.964,1023.17 222.861,1023.17 
  "/>
<polyline clip-path="url(#clip160)" style="stroke:#000000; stroke-linecap:butt; stroke-linejoin:round; stroke-width:4; stroke-opacity:1; fill:none" points="
  203.964,732.007 222.861,732.007 
  "/>
<polyline clip-path="url(#clip160)" style="stroke:#000000; stroke-linecap:butt; stroke-linejoin:round; stroke-width:4; stroke-opacity:1; fill:none" points="
  203.964,440.842 222.861,440.842 
  "/>
<polyline clip-path="url(#clip160)" style="stroke:#000000; stroke-linecap:butt; stroke-linejoin:round; stroke-width:4; stroke-opacity:1; fill:none" points="
  203.964,149.677 222.861,149.677 
  "/>
<path clip-path="url(#clip160)" d="M156.019 1008.97 Q152.408 1008.97 150.579 1012.53 Q148.774 1016.08 148.774 1023.21 Q148.774 1030.31 150.579 1033.88 Q152.408 1037.42 156.019 1037.42 Q159.653 1037.42 161.459 1033.88 Q163.288 1030.31 163.288 1023.21 Q163.288 1016.08 161.459 1012.53 Q159.653 1008.97 156.019 1008.97 M156.019 1005.27 Q161.829 1005.27 164.885 1009.87 Q167.964 1014.46 167.964 1023.21 Q167.964 1031.93 164.885 1036.54 Q161.829 1041.12 156.019 1041.12 Q150.209 1041.12 147.13 1036.54 Q144.075 1031.93 144.075 1023.21 Q144.075 1014.46 147.13 1009.87 Q150.209 1005.27 156.019 1005.27 Z" fill="#000000" fill-rule="evenodd" fill-opacity="1" /><path clip-path="url(#clip160)" d="M116.668 745.351 L124.306 745.351 L124.306 718.986 L115.996 720.652 L115.996 716.393 L124.26 714.727 L128.936 714.727 L128.936 745.351 L136.575 745.351 L136.575 749.287 L116.668 749.287 L116.668 745.351 Z" fill="#000000" fill-rule="evenodd" fill-opacity="1" /><path clip-path="url(#clip160)" d="M156.019 717.805 Q152.408 717.805 150.579 721.37 Q148.774 724.912 148.774 732.041 Q148.774 739.148 150.579 742.713 Q152.408 746.254 156.019 746.254 Q159.653 746.254 161.459 742.713 Q163.288 739.148 163.288 732.041 Q163.288 724.912 161.459 721.37 Q159.653 717.805 156.019 717.805 M156.019 714.102 Q161.829 714.102 164.885 718.708 Q167.964 723.291 167.964 732.041 Q167.964 740.768 164.885 745.375 Q161.829 749.958 156.019 749.958 Q150.209 749.958 147.13 745.375 Q144.075 740.768 144.075 732.041 Q144.075 723.291 147.13 718.708 Q150.209 714.102 156.019 714.102 Z" fill="#000000" fill-rule="evenodd" fill-opacity="1" /><path clip-path="url(#clip160)" d="M119.885 454.187 L136.204 454.187 L136.204 458.122 L114.26 458.122 L114.26 454.187 Q116.922 451.432 121.505 446.802 Q126.112 442.15 127.292 440.807 Q129.538 438.284 130.417 436.548 Q131.32 434.789 131.32 433.099 Q131.32 430.344 129.376 428.608 Q127.455 426.872 124.353 426.872 Q122.154 426.872 119.7 427.636 Q117.269 428.4 114.492 429.951 L114.492 425.228 Q117.316 424.094 119.769 423.515 Q122.223 422.937 124.26 422.937 Q129.63 422.937 132.825 425.622 Q136.019 428.307 136.019 432.798 Q136.019 434.927 135.209 436.849 Q134.422 438.747 132.316 441.339 Q131.737 442.011 128.635 445.228 Q125.533 448.423 119.885 454.187 Z" fill="#000000" fill-rule="evenodd" fill-opacity="1" /><path clip-path="url(#clip160)" d="M156.019 426.64 Q152.408 426.64 150.579 430.205 Q148.774 433.747 148.774 440.877 Q148.774 447.983 150.579 451.548 Q152.408 455.089 156.019 455.089 Q159.653 455.089 161.459 451.548 Q163.288 447.983 163.288 440.877 Q163.288 433.747 161.459 430.205 Q159.653 426.64 156.019 426.64 M156.019 422.937 Q161.829 422.937 164.885 427.543 Q167.964 432.127 167.964 440.877 Q167.964 449.603 164.885 454.21 Q161.829 458.793 156.019 458.793 Q150.209 458.793 147.13 454.21 Q144.075 449.603 144.075 440.877 Q144.075 432.127 147.13 427.543 Q150.209 422.937 156.019 422.937 Z" fill="#000000" fill-rule="evenodd" fill-opacity="1" /><path clip-path="url(#clip160)" d="M130.024 148.323 Q133.38 149.04 135.255 151.309 Q137.154 153.577 137.154 156.911 Q137.154 162.026 133.635 164.827 Q130.117 167.628 123.635 167.628 Q121.459 167.628 119.144 167.188 Q116.853 166.772 114.399 165.915 L114.399 161.401 Q116.343 162.536 118.658 163.114 Q120.973 163.693 123.496 163.693 Q127.894 163.693 130.186 161.957 Q132.501 160.221 132.501 156.911 Q132.501 153.855 130.348 152.142 Q128.218 150.406 124.399 150.406 L120.371 150.406 L120.371 146.564 L124.584 146.564 Q128.033 146.564 129.862 145.198 Q131.691 143.809 131.691 141.216 Q131.691 138.554 129.792 137.142 Q127.917 135.707 124.399 135.707 Q122.478 135.707 120.279 136.124 Q118.08 136.54 115.441 137.42 L115.441 133.253 Q118.103 132.513 120.418 132.142 Q122.755 131.772 124.816 131.772 Q130.14 131.772 133.242 134.203 Q136.343 136.61 136.343 140.73 Q136.343 143.601 134.7 145.591 Q133.056 147.559 130.024 148.323 Z" fill="#000000" fill-rule="evenodd" fill-opacity="1" /><path clip-path="url(#clip160)" d="M156.019 135.476 Q152.408 135.476 150.579 139.04 Q148.774 142.582 148.774 149.712 Q148.774 156.818 150.579 160.383 Q152.408 163.925 156.019 163.925 Q159.653 163.925 161.459 160.383 Q163.288 156.818 163.288 149.712 Q163.288 142.582 161.459 139.04 Q159.653 135.476 156.019 135.476 M156.019 131.772 Q161.829 131.772 164.885 136.378 Q167.964 140.962 167.964 149.712 Q167.964 158.438 164.885 163.045 Q161.829 167.628 156.019 167.628 Q150.209 167.628 147.13 163.045 Q144.075 158.438 144.075 149.712 Q144.075 140.962 147.13 136.378 Q150.209 131.772 156.019 131.772 Z" fill="#000000" fill-rule="evenodd" fill-opacity="1" /><path clip-path="url(#clip160)" d="M16.4842 884.435 L16.4842 877.942 L56.6518 867.948 L16.4842 857.985 L16.4842 850.76 L56.6518 840.766 L16.4842 830.804 L16.4842 824.279 L64.0042 836.215 L64.0042 844.299 L22.7544 854.325 L64.0042 864.446 L64.0042 872.531 L16.4842 884.435 Z" fill="#000000" fill-rule="evenodd" fill-opacity="1" /><path clip-path="url(#clip160)" d="M28.3562 817.436 L28.3562 811.579 L64.0042 811.579 L64.0042 817.436 L28.3562 817.436 M14.479 817.436 L14.479 811.579 L21.895 811.579 L21.895 817.436 L14.479 817.436 Z" fill="#000000" fill-rule="evenodd" fill-opacity="1" /><path clip-path="url(#clip160)" d="M44.7161 768.834 L47.5806 768.834 L47.5806 795.76 Q53.6281 795.379 56.8109 792.132 Q59.9619 788.854 59.9619 783.029 Q59.9619 779.655 59.1344 776.504 Q58.3069 773.321 56.6518 770.202 L62.1899 770.202 Q63.5267 773.353 64.227 776.663 Q64.9272 779.973 64.9272 783.379 Q64.9272 791.909 59.9619 796.906 Q54.9967 801.872 46.5303 801.872 Q37.7774 801.872 32.6531 797.161 Q27.4968 792.418 27.4968 784.398 Q27.4968 777.204 32.1438 773.035 Q36.7589 768.834 44.7161 768.834 M42.9973 774.69 Q38.1912 774.754 35.3266 777.395 Q32.4621 780.005 32.4621 784.334 Q32.4621 789.236 35.2312 792.196 Q38.0002 795.124 43.0292 795.569 L42.9973 774.69 Z" fill="#000000" fill-rule="evenodd" fill-opacity="1" /><path clip-path="url(#clip160)" d="M14.479 759.221 L14.479 753.365 L64.0042 753.365 L64.0042 759.221 L14.479 759.221 Z" fill="#000000" fill-rule="evenodd" fill-opacity="1" /><path clip-path="url(#clip160)" d="M14.479 741.334 L14.479 735.445 L43.7294 735.445 L28.3562 717.972 L28.3562 710.492 L45.0344 729.398 L64.0042 709.696 L64.0042 717.335 L46.5939 735.445 L64.0042 735.445 L64.0042 741.334 L14.479 741.334 Z" fill="#000000" fill-rule="evenodd" fill-opacity="1" /><path clip-path="url(#clip160)" d="M32.4621 691.872 Q32.4621 696.583 36.1542 699.32 Q39.8145 702.057 46.212 702.057 Q52.6095 702.057 56.3017 699.352 Q59.9619 696.615 59.9619 691.872 Q59.9619 687.193 56.2698 684.456 Q52.5777 681.719 46.212 681.719 Q39.8781 681.719 36.186 684.456 Q32.4621 687.193 32.4621 691.872 M27.4968 691.872 Q27.4968 684.233 32.4621 679.873 Q37.4273 675.512 46.212 675.512 Q54.9649 675.512 59.9619 679.873 Q64.9272 684.233 64.9272 691.872 Q64.9272 699.543 59.9619 703.903 Q54.9649 708.232 46.212 708.232 Q37.4273 708.232 32.4621 703.903 Q27.4968 699.543 27.4968 691.872 Z" fill="#000000" fill-rule="evenodd" fill-opacity="1" /><path clip-path="url(#clip160)" d="M11.6462 649.126 L11.6462 642.793 L23.6137 653.169 L23.6137 658.038 L11.6462 649.126 M29.4065 643.079 L34.9447 643.079 Q33.6716 645.562 33.035 648.235 Q32.3984 650.909 32.3984 653.773 Q32.3984 658.134 33.7352 660.33 Q35.072 662.494 37.7456 662.494 Q39.7826 662.494 40.9603 660.935 Q42.1061 659.375 43.1565 654.665 L43.6021 652.659 Q44.9389 646.421 47.3897 643.811 Q49.8086 641.169 54.1691 641.169 Q59.1344 641.169 62.0308 645.116 Q64.9272 649.031 64.9272 655.906 Q64.9272 658.77 64.3543 661.89 Q63.8132 664.977 62.6992 668.414 L56.6518 668.414 Q58.3387 665.168 59.198 662.017 Q60.0256 658.866 60.0256 655.779 Q60.0256 651.641 58.6251 649.413 Q57.1929 647.185 54.6147 647.185 Q52.2276 647.185 50.9545 648.808 Q49.6813 650.4 48.5037 655.842 L48.0262 657.879 Q46.8804 663.322 44.5251 665.741 Q42.138 668.16 38.0002 668.16 Q32.9713 668.16 30.2341 664.595 Q27.4968 661.03 27.4968 654.474 Q27.4968 651.227 27.9743 648.363 Q28.4517 645.498 29.4065 643.079 Z" fill="#000000" fill-rule="evenodd" fill-opacity="1" /><path clip-path="url(#clip160)" d="M29.7248 606.19 L35.1993 606.19 Q33.8307 608.672 33.1623 611.187 Q32.4621 613.669 32.4621 616.216 Q32.4621 621.913 36.0905 625.064 Q39.6872 628.215 46.212 628.215 Q52.7369 628.215 56.3653 625.064 Q59.9619 621.913 59.9619 616.216 Q59.9619 613.669 59.2935 611.187 Q58.5933 608.672 57.2247 606.19 L62.6355 606.19 Q63.7814 608.641 64.3543 611.282 Q64.9272 613.892 64.9272 616.852 Q64.9272 624.905 59.8664 629.647 Q54.8057 634.39 46.212 634.39 Q37.491 634.39 32.4939 629.616 Q27.4968 624.809 27.4968 616.47 Q27.4968 613.765 28.0697 611.187 Q28.6108 608.609 29.7248 606.19 M11.869 612.906 L11.869 606.572 L23.8365 616.948 L23.8365 621.818 L11.869 612.906 Z" fill="#000000" fill-rule="evenodd" fill-opacity="1" /><path clip-path="url(#clip160)" d="M58.657 569.619 L77.5631 569.619 L77.5631 575.507 L28.3562 575.507 L28.3562 569.619 L33.7671 569.619 Q30.5842 567.773 29.0564 564.972 Q27.4968 562.139 27.4968 558.224 Q27.4968 551.731 32.6531 547.689 Q37.8093 543.615 46.212 543.615 Q54.6147 543.615 59.771 547.689 Q64.9272 551.731 64.9272 558.224 Q64.9272 562.139 63.3994 564.972 Q61.8398 567.773 58.657 569.619 M46.212 549.694 Q39.7508 549.694 36.0905 552.368 Q32.3984 555.009 32.3984 559.656 Q32.3984 564.303 36.0905 566.977 Q39.7508 569.619 46.212 569.619 Q52.6732 569.619 56.3653 566.977 Q60.0256 564.303 60.0256 559.656 Q60.0256 555.009 56.3653 552.368 Q52.6732 549.694 46.212 549.694 Z" fill="#000000" fill-rule="evenodd" fill-opacity="1" /><path clip-path="url(#clip160)" d="M33.8307 513.25 Q33.2578 514.237 33.0032 515.415 Q32.7167 516.561 32.7167 517.961 Q32.7167 522.926 35.9632 525.6 Q39.1779 528.242 45.2253 528.242 L64.0042 528.242 L64.0042 534.13 L28.3562 534.13 L28.3562 528.242 L33.8944 528.242 Q30.6479 526.396 29.0883 523.436 Q27.4968 520.475 27.4968 516.242 Q27.4968 515.638 27.5923 514.905 Q27.656 514.173 27.8151 513.282 L33.8307 513.25 Z" fill="#000000" fill-rule="evenodd" fill-opacity="1" /><path clip-path="url(#clip160)" d="M32.4621 494.726 Q32.4621 499.437 36.1542 502.174 Q39.8145 504.911 46.212 504.911 Q52.6095 504.911 56.3017 502.206 Q59.9619 499.469 59.9619 494.726 Q59.9619 490.047 56.2698 487.31 Q52.5777 484.573 46.212 484.573 Q39.8781 484.573 36.186 487.31 Q32.4621 490.047 32.4621 494.726 M27.4968 494.726 Q27.4968 487.087 32.4621 482.727 Q37.4273 478.366 46.212 478.366 Q54.9649 478.366 59.9619 482.727 Q64.9272 487.087 64.9272 494.726 Q64.9272 502.397 59.9619 506.757 Q54.9649 511.086 46.212 511.086 Q37.4273 511.086 32.4621 506.757 Q27.4968 502.397 27.4968 494.726 Z" fill="#000000" fill-rule="evenodd" fill-opacity="1" /><path clip-path="url(#clip160)" d="M33.7671 445.201 L14.479 445.201 L14.479 439.345 L64.0042 439.345 L64.0042 445.201 L58.657 445.201 Q61.8398 447.047 63.3994 449.88 Q64.9272 452.681 64.9272 456.627 Q64.9272 463.089 59.771 467.163 Q54.6147 471.205 46.212 471.205 Q37.8093 471.205 32.6531 467.163 Q27.4968 463.089 27.4968 456.627 Q27.4968 452.681 29.0564 449.88 Q30.5842 447.047 33.7671 445.201 M46.212 465.157 Q52.6732 465.157 56.3653 462.516 Q60.0256 459.842 60.0256 455.195 Q60.0256 450.548 56.3653 447.875 Q52.6732 445.201 46.212 445.201 Q39.7508 445.201 36.0905 447.875 Q32.3984 450.548 32.3984 455.195 Q32.3984 459.842 36.0905 462.516 Q39.7508 465.157 46.212 465.157 Z" fill="#000000" fill-rule="evenodd" fill-opacity="1" /><path clip-path="url(#clip160)" d="M49.9359 427.886 L28.3562 427.886 L28.3562 422.03 L49.7131 422.03 Q54.7739 422.03 57.3202 420.056 Q59.8346 418.083 59.8346 414.136 Q59.8346 409.394 56.8109 406.657 Q53.7872 403.888 48.5673 403.888 L28.3562 403.888 L28.3562 398.031 L64.0042 398.031 L64.0042 403.888 L58.5296 403.888 Q61.7762 406.02 63.3676 408.853 Q64.9272 411.654 64.9272 415.378 Q64.9272 421.521 61.1078 424.703 Q57.2883 427.886 49.9359 427.886 M27.4968 413.15 L27.4968 413.15 Z" fill="#000000" fill-rule="evenodd" fill-opacity="1" /><path clip-path="url(#clip160)" d="M14.479 386.191 L14.479 380.303 L43.7294 380.303 L28.3562 362.829 L28.3562 355.349 L45.0344 374.255 L64.0042 354.553 L64.0042 362.192 L46.5939 380.303 L64.0042 380.303 L64.0042 386.191 L14.479 386.191 Z" fill="#000000" fill-rule="evenodd" fill-opacity="1" /><path clip-path="url(#clip160)" d="M29.7248 322.566 L35.1993 322.566 Q33.8307 325.048 33.1623 327.563 Q32.4621 330.045 32.4621 332.592 Q32.4621 338.289 36.0905 341.44 Q39.6872 344.591 46.212 344.591 Q52.7369 344.591 56.3653 341.44 Q59.9619 338.289 59.9619 332.592 Q59.9619 330.045 59.2935 327.563 Q58.5933 325.048 57.2247 322.566 L62.6355 322.566 Q63.7814 325.016 64.3543 327.658 Q64.9272 330.268 64.9272 333.228 Q64.9272 341.281 59.8664 346.023 Q54.8057 350.766 46.212 350.766 Q37.491 350.766 32.4939 345.991 Q27.4968 341.185 27.4968 332.846 Q27.4968 330.141 28.0697 327.563 Q28.6108 324.985 29.7248 322.566 Z" fill="#000000" fill-rule="evenodd" fill-opacity="1" /><path clip-path="url(#clip160)" d="M28.3562 312.381 L28.3562 306.524 L64.6407 306.524 Q71.452 306.524 74.5076 309.134 Q77.5631 311.712 77.5631 317.473 L77.5631 319.701 L72.5979 319.701 L72.5979 318.141 Q72.5979 314.799 71.0383 313.59 Q69.5105 312.381 64.6407 312.381 L28.3562 312.381 M14.479 312.381 L14.479 306.524 L21.895 306.524 L21.895 312.381 L14.479 312.381 Z" fill="#000000" fill-rule="evenodd" fill-opacity="1" /><path clip-path="url(#clip160)" d="M28.3562 294.27 L28.3562 288.414 L64.0042 288.414 L64.0042 294.27 L28.3562 294.27 M14.479 294.27 L14.479 288.414 L21.895 288.414 L21.895 294.27 L14.479 294.27 Z" fill="#000000" fill-rule="evenodd" fill-opacity="1" /><path clip-path="url(#clip160)" d="M899.074 12.096 L907.337 12.096 L920.057 63.2184 L932.737 12.096 L941.932 12.096 L954.652 63.2184 L967.331 12.096 L975.636 12.096 L960.445 72.576 L950.155 72.576 L937.395 20.0763 L924.513 72.576 L914.224 72.576 L899.074 12.096 Z" fill="#000000" fill-rule="evenodd" fill-opacity="1" /><path clip-path="url(#clip160)" d="M984.345 27.2059 L991.799 27.2059 L991.799 72.576 L984.345 72.576 L984.345 27.2059 M984.345 9.54393 L991.799 9.54393 L991.799 18.9825 L984.345 18.9825 L984.345 9.54393 Z" fill="#000000" fill-rule="evenodd" fill-opacity="1" /><path clip-path="url(#clip160)" d="M1046.2 48.0275 L1046.2 51.6733 L1011.93 51.6733 Q1012.42 59.3701 1016.55 63.421 Q1020.72 67.4314 1028.14 67.4314 Q1032.43 67.4314 1036.44 66.3781 Q1040.49 65.3249 1044.46 63.2184 L1044.46 70.267 Q1040.45 71.9684 1036.24 72.8596 Q1032.02 73.7508 1027.69 73.7508 Q1016.83 73.7508 1010.47 67.4314 Q1004.15 61.1119 1004.15 50.3365 Q1004.15 39.1965 1010.15 32.6746 Q1016.19 26.1121 1026.39 26.1121 Q1035.55 26.1121 1040.86 32.0264 Q1046.2 37.9003 1046.2 48.0275 M1038.75 45.84 Q1038.67 39.7232 1035.31 36.0774 Q1031.98 32.4315 1026.47 32.4315 Q1020.24 32.4315 1016.47 35.9558 Q1012.74 39.4801 1012.17 45.8805 L1038.75 45.84 Z" fill="#000000" fill-rule="evenodd" fill-opacity="1" /><path clip-path="url(#clip160)" d="M1058.44 9.54393 L1065.89 9.54393 L1065.89 72.576 L1058.44 72.576 L1058.44 9.54393 Z" fill="#000000" fill-rule="evenodd" fill-opacity="1" /><path clip-path="url(#clip160)" d="M1081.2 9.54393 L1088.7 9.54393 L1088.7 46.7717 L1110.94 27.2059 L1120.46 27.2059 L1096.39 48.4326 L1121.47 72.576 L1111.75 72.576 L1088.7 50.4176 L1088.7 72.576 L1081.2 72.576 L1081.2 9.54393 Z" fill="#000000" fill-rule="evenodd" fill-opacity="1" /><path clip-path="url(#clip160)" d="M1144.15 32.4315 Q1138.16 32.4315 1134.67 37.1306 Q1131.19 41.7891 1131.19 49.9314 Q1131.19 58.0738 1134.63 62.7728 Q1138.12 67.4314 1144.15 67.4314 Q1150.11 67.4314 1153.59 62.7323 Q1157.08 58.0333 1157.08 49.9314 Q1157.08 41.8701 1153.59 37.1711 Q1150.11 32.4315 1144.15 32.4315 M1144.15 26.1121 Q1153.88 26.1121 1159.43 32.4315 Q1164.97 38.7509 1164.97 49.9314 Q1164.97 61.0714 1159.43 67.4314 Q1153.88 73.7508 1144.15 73.7508 Q1134.39 73.7508 1128.84 67.4314 Q1123.33 61.0714 1123.33 49.9314 Q1123.33 38.7509 1128.84 32.4315 Q1134.39 26.1121 1144.15 26.1121 Z" fill="#000000" fill-rule="evenodd" fill-opacity="1" /><path clip-path="url(#clip160)" d="M1198.56 5.93863 L1206.62 5.93863 L1193.41 21.17 L1187.21 21.17 L1198.56 5.93863 M1206.25 28.5427 L1206.25 35.5912 Q1203.09 33.9709 1199.69 33.1607 Q1196.29 32.3505 1192.64 32.3505 Q1187.09 32.3505 1184.3 34.0519 Q1181.54 35.7533 1181.54 39.156 Q1181.54 41.7486 1183.53 43.2475 Q1185.51 44.7058 1191.51 46.0426 L1194.06 46.6097 Q1202 48.3111 1205.32 51.4303 Q1208.68 54.509 1208.68 60.0587 Q1208.68 66.3781 1203.66 70.0644 Q1198.68 73.7508 1189.93 73.7508 Q1186.28 73.7508 1182.31 73.0216 Q1178.38 72.3329 1174.01 70.9151 L1174.01 63.2184 Q1178.14 65.3654 1182.15 66.4591 Q1186.16 67.5124 1190.09 67.5124 Q1195.36 67.5124 1198.19 65.73 Q1201.03 63.9071 1201.03 60.6258 Q1201.03 57.5877 1198.96 55.9673 Q1196.94 54.3469 1190.01 52.8481 L1187.42 52.2405 Q1180.49 50.7821 1177.41 47.7845 Q1174.33 44.7463 1174.33 39.4801 Q1174.33 33.0797 1178.87 29.5959 Q1183.41 26.1121 1191.75 26.1121 Q1195.88 26.1121 1199.53 26.7198 Q1203.17 27.3274 1206.25 28.5427 Z" fill="#000000" fill-rule="evenodd" fill-opacity="1" /><path clip-path="url(#clip160)" d="M1253.2 28.9478 L1253.2 35.9153 Q1250.04 34.1734 1246.84 33.3227 Q1243.68 32.4315 1240.44 32.4315 Q1233.19 32.4315 1229.18 37.0496 Q1225.17 41.6271 1225.17 49.9314 Q1225.17 58.2358 1229.18 62.8538 Q1233.19 67.4314 1240.44 67.4314 Q1243.68 67.4314 1246.84 66.5807 Q1250.04 65.6895 1253.2 63.9476 L1253.2 70.8341 Q1250.08 72.2924 1246.72 73.0216 Q1243.4 73.7508 1239.63 73.7508 Q1229.38 73.7508 1223.35 67.3098 Q1217.31 60.8689 1217.31 49.9314 Q1217.31 38.832 1223.39 32.472 Q1229.51 26.1121 1240.12 26.1121 Q1243.56 26.1121 1246.84 26.8413 Q1250.12 27.5299 1253.2 28.9478 M1244.66 6.22219 L1252.72 6.22219 L1239.51 21.4536 L1233.31 21.4536 L1244.66 6.22219 Z" fill="#000000" fill-rule="evenodd" fill-opacity="1" /><path clip-path="url(#clip160)" d="M1299.75 65.7705 L1299.75 89.8329 L1292.25 89.8329 L1292.25 27.2059 L1299.75 27.2059 L1299.75 34.0924 Q1302.1 30.0415 1305.66 28.0971 Q1309.27 26.1121 1314.25 26.1121 Q1322.51 26.1121 1327.66 32.6746 Q1332.84 39.2371 1332.84 49.9314 Q1332.84 60.6258 1327.66 67.1883 Q1322.51 73.7508 1314.25 73.7508 Q1309.27 73.7508 1305.66 71.8063 Q1302.1 69.8214 1299.75 65.7705 M1325.11 49.9314 Q1325.11 41.7081 1321.7 37.0496 Q1318.34 32.3505 1312.43 32.3505 Q1306.51 32.3505 1303.11 37.0496 Q1299.75 41.7081 1299.75 49.9314 Q1299.75 58.1548 1303.11 62.8538 Q1306.51 67.5124 1312.43 67.5124 Q1318.34 67.5124 1321.7 62.8538 Q1325.11 58.1548 1325.11 49.9314 Z" fill="#000000" fill-rule="evenodd" fill-opacity="1" /><path clip-path="url(#clip160)" d="M1371.49 34.1734 Q1370.23 33.4443 1368.74 33.1202 Q1367.28 32.7556 1365.49 32.7556 Q1359.18 32.7556 1355.77 36.8875 Q1352.41 40.9789 1352.41 48.6757 L1352.41 72.576 L1344.92 72.576 L1344.92 27.2059 L1352.41 27.2059 L1352.41 34.2544 Q1354.76 30.1225 1358.53 28.1376 Q1362.29 26.1121 1367.68 26.1121 Q1368.45 26.1121 1369.38 26.2337 Q1370.32 26.3147 1371.45 26.5172 L1371.49 34.1734 Z" fill="#000000" fill-rule="evenodd" fill-opacity="1" /><path clip-path="url(#clip160)" d="M1395.07 32.4315 Q1389.07 32.4315 1385.59 37.1306 Q1382.1 41.7891 1382.1 49.9314 Q1382.1 58.0738 1385.55 62.7728 Q1389.03 67.4314 1395.07 67.4314 Q1401.02 67.4314 1404.5 62.7323 Q1407.99 58.0333 1407.99 49.9314 Q1407.99 41.8701 1404.5 37.1711 Q1401.02 32.4315 1395.07 32.4315 M1395.07 26.1121 Q1404.79 26.1121 1410.34 32.4315 Q1415.89 38.7509 1415.89 49.9314 Q1415.89 61.0714 1410.34 67.4314 Q1404.79 73.7508 1395.07 73.7508 Q1385.3 73.7508 1379.75 67.4314 Q1374.24 61.0714 1374.24 49.9314 Q1374.24 38.7509 1379.75 32.4315 Q1385.3 26.1121 1395.07 26.1121 Z" fill="#000000" fill-rule="evenodd" fill-opacity="1" /><path clip-path="url(#clip160)" d="M1458.1 34.0924 L1458.1 9.54393 L1465.55 9.54393 L1465.55 72.576 L1458.1 72.576 L1458.1 65.7705 Q1455.75 69.8214 1452.14 71.8063 Q1448.58 73.7508 1443.56 73.7508 Q1435.33 73.7508 1430.15 67.1883 Q1425 60.6258 1425 49.9314 Q1425 39.2371 1430.15 32.6746 Q1435.33 26.1121 1443.56 26.1121 Q1448.58 26.1121 1452.14 28.0971 Q1455.75 30.0415 1458.1 34.0924 M1432.7 49.9314 Q1432.7 58.1548 1436.06 62.8538 Q1439.46 67.5124 1445.38 67.5124 Q1451.29 67.5124 1454.7 62.8538 Q1458.1 58.1548 1458.1 49.9314 Q1458.1 41.7081 1454.7 37.0496 Q1451.29 32.3505 1445.38 32.3505 Q1439.46 32.3505 1436.06 37.0496 Q1432.7 41.7081 1432.7 49.9314 Z" fill="#000000" fill-rule="evenodd" fill-opacity="1" /><path clip-path="url(#clip160)" d="M1480.14 54.671 L1480.14 27.2059 L1487.59 27.2059 L1487.59 54.3874 Q1487.59 60.8284 1490.1 64.0691 Q1492.61 67.2693 1497.64 67.2693 Q1503.67 67.2693 1507.15 63.421 Q1510.68 59.5726 1510.68 52.9291 L1510.68 27.2059 L1518.13 27.2059 L1518.13 72.576 L1510.68 72.576 L1510.68 65.6084 Q1507.96 69.7404 1504.36 71.7658 Q1500.79 73.7508 1496.06 73.7508 Q1488.24 73.7508 1484.19 68.8897 Q1480.14 64.0286 1480.14 54.671 M1498.89 26.1121 L1498.89 26.1121 Z" fill="#000000" fill-rule="evenodd" fill-opacity="1" /><path clip-path="url(#clip160)" d="M1533.2 9.54393 L1540.7 9.54393 L1540.7 46.7717 L1562.94 27.2059 L1572.46 27.2059 L1548.39 48.4326 L1573.47 72.576 L1563.75 72.576 L1540.7 50.4176 L1540.7 72.576 L1533.2 72.576 L1533.2 9.54393 Z" fill="#000000" fill-rule="evenodd" fill-opacity="1" /><path clip-path="url(#clip160)" d="M1614.18 28.9478 L1614.18 35.9153 Q1611.02 34.1734 1607.82 33.3227 Q1604.66 32.4315 1601.42 32.4315 Q1594.17 32.4315 1590.16 37.0496 Q1586.15 41.6271 1586.15 49.9314 Q1586.15 58.2358 1590.16 62.8538 Q1594.17 67.4314 1601.42 67.4314 Q1604.66 67.4314 1607.82 66.5807 Q1611.02 65.6895 1614.18 63.9476 L1614.18 70.8341 Q1611.06 72.2924 1607.7 73.0216 Q1604.38 73.7508 1600.61 73.7508 Q1590.36 73.7508 1584.32 67.3098 Q1578.29 60.8689 1578.29 49.9314 Q1578.29 38.832 1584.37 32.472 Q1590.48 26.1121 1601.1 26.1121 Q1604.54 26.1121 1607.82 26.8413 Q1611.1 27.5299 1614.18 28.9478 Z" fill="#000000" fill-rule="evenodd" fill-opacity="1" /><path clip-path="url(#clip160)" d="M1627.14 27.2059 L1634.6 27.2059 L1634.6 73.3862 Q1634.6 82.0551 1631.27 85.944 Q1627.99 89.8329 1620.66 89.8329 L1617.83 89.8329 L1617.83 83.5134 L1619.81 83.5134 Q1624.06 83.5134 1625.6 81.5285 Q1627.14 79.5841 1627.14 73.3862 L1627.14 27.2059 M1627.14 9.54393 L1634.6 9.54393 L1634.6 18.9825 L1627.14 18.9825 L1627.14 9.54393 Z" fill="#000000" fill-rule="evenodd" fill-opacity="1" /><path clip-path="url(#clip160)" d="M1650.19 27.2059 L1657.65 27.2059 L1657.65 72.576 L1650.19 72.576 L1650.19 27.2059 M1650.19 9.54393 L1657.65 9.54393 L1657.65 18.9825 L1650.19 18.9825 L1650.19 9.54393 Z" fill="#000000" fill-rule="evenodd" fill-opacity="1" /><polyline clip-path="url(#clip162)" style="stroke:#ff7e0d; stroke-linecap:butt; stroke-linejoin:round; stroke-width:8; stroke-opacity:1; fill:none" points="
  264.778,1023.17 275.069,1023.17 285.359,877.589 295.649,732.007 305.939,586.424 316.229,586.424 326.519,440.842 336.81,295.259 347.1,440.842 357.39,440.842 
  367.68,586.424 377.97,586.424 388.26,732.007 398.551,877.589 408.841,732.007 419.131,877.589 429.421,732.007 439.711,877.589 450.001,877.589 460.292,877.589 
  470.582,732.007 480.872,877.589 491.162,877.589 501.452,877.589 511.742,1023.17 522.033,1023.17 532.323,1023.17 542.613,1023.17 552.903,1023.17 563.193,1023.17 
  573.483,1023.17 583.774,1023.17 594.064,1023.17 604.354,877.589 614.644,877.589 624.934,877.589 635.224,877.589 645.515,1023.17 655.805,1023.17 666.095,1023.17 
  676.385,1023.17 686.675,1023.17 696.965,877.589 707.256,732.007 717.546,586.424 727.836,732.007 738.126,877.589 748.416,732.007 758.706,732.007 768.997,732.007 
  779.287,586.424 789.577,732.007 799.867,877.589 810.157,1023.17 820.447,877.589 830.738,1023.17 841.028,877.589 851.318,877.589 861.608,1023.17 871.898,877.589 
  882.188,1023.17 892.479,1023.17 902.769,1023.17 913.059,1023.17 923.349,1023.17 933.639,1023.17 943.929,1023.17 954.22,1023.17 964.51,1023.17 974.8,877.589 
  985.09,1023.17 995.38,1023.17 1005.67,1023.17 1015.96,1023.17 1026.25,1023.17 1036.54,1023.17 1046.83,1023.17 1057.12,877.589 1067.41,1023.17 1077.7,1023.17 
  1087.99,1023.17 1098.28,1023.17 1108.57,877.589 1118.86,877.589 1129.15,1023.17 1139.44,877.589 1149.73,1023.17 1160.02,877.589 1170.31,877.589 1180.6,1023.17 
  1190.89,877.589 1201.18,732.007 1211.47,732.007 1221.76,877.589 1232.05,1023.17 1242.34,1023.17 1252.63,1023.17 1262.92,1023.17 1273.21,1023.17 1283.5,1023.17 
  1293.79,1023.17 1304.09,877.589 1314.38,732.007 1324.67,732.007 1334.96,732.007 1345.25,877.589 1355.54,877.589 1365.83,732.007 1376.12,877.589 1386.41,877.589 
  1396.7,732.007 1406.99,877.589 1417.28,877.589 1427.57,732.007 1437.86,732.007 1448.15,877.589 1458.44,732.007 1468.73,877.589 1479.02,877.589 1489.31,877.589 
  1499.6,732.007 1509.89,877.589 1520.18,1023.17 1530.47,1023.17 1540.76,1023.17 1551.05,1023.17 1561.34,1023.17 1571.63,877.589 1581.92,877.589 1592.21,1023.17 
  1602.5,877.589 1612.79,1023.17 1623.08,1023.17 1633.37,1023.17 1643.66,1023.17 1653.95,1023.17 1664.24,1023.17 1674.53,1023.17 1684.82,877.589 1695.11,1023.17 
  1705.4,1023.17 1715.69,877.589 1725.98,877.589 1736.27,732.007 1746.56,877.589 1756.85,877.589 1767.14,877.589 1777.43,877.589 1787.72,877.589 1798.01,1023.17 
  1808.3,1023.17 1818.59,1023.17 1828.88,1023.17 1839.17,1023.17 1849.46,1023.17 1859.75,1023.17 1870.04,1023.17 1880.33,877.589 1890.62,1023.17 1900.91,1023.17 
  1911.2,877.589 1921.5,732.007 1931.79,877.589 1942.08,732.007 1952.37,877.589 1962.66,877.589 1972.95,877.589 1983.24,1023.17 1993.53,1023.17 2003.82,1023.17 
  2014.11,1023.17 2024.4,1023.17 2034.69,1023.17 2044.98,877.589 2055.27,732.007 2065.56,732.007 2075.85,586.424 2086.14,440.842 2096.43,440.842 2106.72,295.259 
  2117.01,149.677 2127.3,295.259 2137.59,440.842 2147.88,586.424 2158.17,586.424 2168.46,732.007 2178.75,586.424 2189.04,586.424 2199.33,586.424 2209.62,440.842 
  2219.91,295.259 2230.2,440.842 2240.49,586.424 2250.78,732.007 2261.07,732.007 2271.36,732.007 2281.65,586.424 2291.94,586.424 
  "/>
<polyline clip-path="url(#clip162)" style="stroke:#ff7e0d; stroke-linecap:butt; stroke-linejoin:round; stroke-width:8; stroke-opacity:1; fill:none" stroke-dasharray="4, 8" points="
  264.778,1023.17 275.069,1023.17 285.359,994.055 295.649,819.356 305.939,761.123 316.229,790.24 326.519,732.007 336.81,528.191 347.1,673.774 357.39,673.774 
  367.68,848.473 377.97,877.589 388.26,906.705 398.551,994.055 408.841,906.705 419.131,906.705 429.421,819.356 439.711,906.705 450.001,994.055 460.292,935.822 
  470.582,819.356 480.872,994.055 491.162,935.822 501.452,906.705 511.742,1023.17 522.033,1023.17 532.323,1023.17 542.613,1023.17 552.903,1023.17 563.193,1023.17 
  573.483,1023.17 583.774,1023.17 594.064,1023.17 604.354,906.705 614.644,964.938 624.934,964.938 635.224,935.822 645.515,1023.17 655.805,1023.17 666.095,1023.17 
  676.385,1023.17 686.675,1023.17 696.965,964.938 707.256,877.589 717.546,848.473 727.836,877.589 738.126,964.938 748.416,848.473 758.706,877.589 768.997,906.705 
  779.287,790.24 789.577,848.473 799.867,994.055 810.157,1023.17 820.447,964.938 830.738,1023.17 841.028,935.822 851.318,906.705 861.608,1023.17 871.898,964.938 
  882.188,1023.17 892.479,1023.17 902.769,1023.17 913.059,1023.17 923.349,1023.17 933.639,1023.17 943.929,1023.17 954.22,1023.17 964.51,1023.17 974.8,935.822 
  985.09,1023.17 995.38,1023.17 1005.67,1023.17 1015.96,1023.17 1026.25,1023.17 1036.54,1023.17 1046.83,1023.17 1057.12,906.705 1067.41,1023.17 1077.7,1023.17 
  1087.99,1023.17 1098.28,1023.17 1108.57,935.822 1118.86,1023.17 1129.15,1023.17 1139.44,994.055 1149.73,1023.17 1160.02,994.055 1170.31,906.705 1180.6,1023.17 
  1190.89,964.938 1201.18,877.589 1211.47,906.705 1221.76,906.705 1232.05,1023.17 1242.34,1023.17 1252.63,1023.17 1262.92,1023.17 1273.21,1023.17 1283.5,1023.17 
  1293.79,1023.17 1304.09,964.938 1314.38,877.589 1324.67,964.938 1334.96,935.822 1345.25,935.822 1355.54,935.822 1365.83,877.589 1376.12,935.822 1386.41,906.705 
  1396.7,906.705 1406.99,935.822 1417.28,935.822 1427.57,877.589 1437.86,906.705 1448.15,964.938 1458.44,906.705 1468.73,964.938 1479.02,1023.17 1489.31,964.938 
  1499.6,877.589 1509.89,994.055 1520.18,1023.17 1530.47,1023.17 1540.76,1023.17 1551.05,1023.17 1561.34,1023.17 1571.63,935.822 1581.92,935.822 1592.21,1023.17 
  1602.5,964.938 1612.79,1023.17 1623.08,1023.17 1633.37,1023.17 1643.66,1023.17 1653.95,1023.17 1664.24,1023.17 1674.53,1023.17 1684.82,964.938 1695.11,1023.17 
  1705.4,1023.17 1715.69,964.938 1725.98,935.822 1736.27,935.822 1746.56,935.822 1756.85,964.938 1767.14,906.705 1777.43,964.938 1787.72,964.938 1798.01,1023.17 
  1808.3,1023.17 1818.59,1023.17 1828.88,1023.17 1839.17,1023.17 1849.46,1023.17 1859.75,1023.17 1870.04,1023.17 1880.33,935.822 1890.62,1023.17 1900.91,1023.17 
  1911.2,1023.17 1921.5,906.705 1931.79,935.822 1942.08,761.123 1952.37,935.822 1962.66,964.938 1972.95,964.938 1983.24,1023.17 1993.53,1023.17 2003.82,1023.17 
  2014.11,1023.17 2024.4,1023.17 2034.69,1023.17 2044.98,935.822 2055.27,964.938 2065.56,935.822 2075.85,906.705 2086.14,702.89 2096.43,644.657 2106.72,615.541 
  2117.01,615.541 2127.3,615.541 2137.59,673.774 2147.88,819.356 2158.17,790.24 2168.46,877.589 2178.75,732.007 2189.04,877.589 2199.33,877.589 2209.62,819.356 
  2219.91,702.89 2230.2,790.24 2240.49,819.356 2250.78,964.938 2261.07,790.24 2271.36,877.589 2281.65,848.473 2291.94,790.24 
  "/>
<polyline clip-path="url(#clip162)" style="stroke:#ff7e0d; stroke-linecap:butt; stroke-linejoin:round; stroke-width:8; stroke-opacity:1; fill:none" stroke-dasharray="32, 20" points="
  264.778,1023.17 275.069,1023.17 285.359,906.705 295.649,935.822 305.939,848.473 316.229,819.356 326.519,732.007 336.81,790.24 347.1,790.24 357.39,790.24 
  367.68,761.123 377.97,732.007 388.26,848.473 398.551,906.705 408.841,848.473 419.131,994.055 429.421,935.822 439.711,994.055 450.001,906.705 460.292,964.938 
  470.582,935.822 480.872,906.705 491.162,964.938 501.452,994.055 511.742,1023.17 522.033,1023.17 532.323,1023.17 542.613,1023.17 552.903,1023.17 563.193,1023.17 
  573.483,1023.17 583.774,1023.17 594.064,1023.17 604.354,994.055 614.644,935.822 624.934,935.822 635.224,964.938 645.515,1023.17 655.805,1023.17 666.095,1023.17 
  676.385,1023.17 686.675,1023.17 696.965,935.822 707.256,877.589 717.546,761.123 727.836,877.589 738.126,935.822 748.416,906.705 758.706,877.589 768.997,848.473 
  779.287,819.356 789.577,906.705 799.867,906.705 810.157,1023.17 820.447,935.822 830.738,1023.17 841.028,964.938 851.318,994.055 861.608,1023.17 871.898,935.822 
  882.188,1023.17 892.479,1023.17 902.769,1023.17 913.059,1023.17 923.349,1023.17 933.639,1023.17 943.929,1023.17 954.22,1023.17 964.51,1023.17 974.8,964.938 
  985.09,1023.17 995.38,1023.17 1005.67,1023.17 1015.96,1023.17 1026.25,1023.17 1036.54,1023.17 1046.83,1023.17 1057.12,994.055 1067.41,1023.17 1077.7,1023.17 
  1087.99,1023.17 1098.28,1023.17 1108.57,964.938 1118.86,877.589 1129.15,1023.17 1139.44,906.705 1149.73,1023.17 1160.02,906.705 1170.31,994.055 1180.6,1023.17 
  1190.89,935.822 1201.18,877.589 1211.47,848.473 1221.76,994.055 1232.05,1023.17 1242.34,1023.17 1252.63,1023.17 1262.92,1023.17 1273.21,1023.17 1283.5,1023.17 
  1293.79,1023.17 1304.09,935.822 1314.38,877.589 1324.67,790.24 1334.96,819.356 1345.25,964.938 1355.54,964.938 1365.83,877.589 1376.12,964.938 1386.41,994.055 
  1396.7,848.473 1406.99,964.938 1417.28,964.938 1427.57,877.589 1437.86,848.473 1448.15,935.822 1458.44,848.473 1468.73,935.822 1479.02,877.589 1489.31,935.822 
  1499.6,877.589 1509.89,906.705 1520.18,1023.17 1530.47,1023.17 1540.76,1023.17 1551.05,1023.17 1561.34,1023.17 1571.63,964.938 1581.92,964.938 1592.21,1023.17 
  1602.5,935.822 1612.79,1023.17 1623.08,1023.17 1633.37,1023.17 1643.66,1023.17 1653.95,1023.17 1664.24,1023.17 1674.53,1023.17 1684.82,935.822 1695.11,1023.17 
  1705.4,1023.17 1715.69,935.822 1725.98,964.938 1736.27,819.356 1746.56,964.938 1756.85,935.822 1767.14,994.055 1777.43,935.822 1787.72,935.822 1798.01,1023.17 
  1808.3,1023.17 1818.59,1023.17 1828.88,1023.17 1839.17,1023.17 1849.46,1023.17 1859.75,1023.17 1870.04,1023.17 1880.33,964.938 1890.62,1023.17 1900.91,1023.17 
  1911.2,877.589 1921.5,848.473 1931.79,964.938 1942.08,994.055 1952.37,964.938 1962.66,935.822 1972.95,935.822 1983.24,1023.17 1993.53,1023.17 2003.82,1023.17 
  2014.11,1023.17 2024.4,1023.17 2034.69,1023.17 2044.98,964.938 2055.27,848.473 2065.56,819.356 2075.85,702.89 2086.14,761.123 2096.43,819.356 2106.72,702.89 
  2117.01,557.308 2127.3,702.89 2137.59,790.24 2147.88,790.24 2158.17,819.356 2168.46,877.589 2178.75,877.589 2189.04,732.007 2199.33,732.007 2209.62,644.657 
  2219.91,615.541 2230.2,673.774 2240.49,790.24 2250.78,790.24 2261.07,964.938 2271.36,877.589 2281.65,761.123 2291.94,819.356 
  "/>
<path clip-path="url(#clip160)" d="
M430.971 1423.18 L1326.11 1423.18 L1326.11 1215.82 L430.971 1215.82  Z
  " fill="#ffffff" fill-rule="evenodd" fill-opacity="1"/>
<polyline clip-path="url(#clip160)" style="stroke:#000000; stroke-linecap:butt; stroke-linejoin:round; stroke-width:4; stroke-opacity:1; fill:none" points="
  430.971,1423.18 1326.11,1423.18 1326.11,1215.82 430.971,1215.82 430.971,1423.18 
  "/>
<polyline clip-path="url(#clip160)" style="stroke:#ff7e0d; stroke-linecap:butt; stroke-linejoin:round; stroke-width:4; stroke-opacity:1; fill:none" points="
  454.846,1267.66 598.099,1267.66 
  "/>
<path clip-path="url(#clip160)" d="M621.974 1250.38 L641.835 1250.38 L641.835 1254.32 L626.65 1254.32 L626.65 1264.5 L640.354 1264.5 L640.354 1268.44 L626.65 1268.44 L626.65 1284.94 L621.974 1284.94 L621.974 1250.38 Z" fill="#000000" fill-rule="evenodd" fill-opacity="1" /><path clip-path="url(#clip160)" d="M645.609 1259.01 L649.868 1259.01 L649.868 1284.94 L645.609 1284.94 L645.609 1259.01 M645.609 1248.92 L649.868 1248.92 L649.868 1254.32 L645.609 1254.32 L645.609 1248.92 Z" fill="#000000" fill-rule="evenodd" fill-opacity="1" /><path clip-path="url(#clip160)" d="M673.803 1263 Q673.085 1262.58 672.229 1262.39 Q671.395 1262.19 670.377 1262.19 Q666.766 1262.19 664.821 1264.55 Q662.9 1266.88 662.9 1271.28 L662.9 1284.94 L658.618 1284.94 L658.618 1259.01 L662.9 1259.01 L662.9 1263.04 Q664.243 1260.68 666.395 1259.55 Q668.548 1258.39 671.627 1258.39 Q672.067 1258.39 672.599 1258.46 Q673.132 1258.5 673.78 1258.62 L673.803 1263 Z" fill="#000000" fill-rule="evenodd" fill-opacity="1" /><path clip-path="url(#clip160)" d="M697.622 1263.99 Q699.219 1261.12 701.442 1259.75 Q703.664 1258.39 706.673 1258.39 Q710.724 1258.39 712.923 1261.24 Q715.122 1264.06 715.122 1269.29 L715.122 1284.94 L710.84 1284.94 L710.84 1269.43 Q710.84 1265.7 709.52 1263.9 Q708.201 1262.09 705.492 1262.09 Q702.182 1262.09 700.261 1264.29 Q698.34 1266.49 698.34 1270.29 L698.34 1284.94 L694.057 1284.94 L694.057 1269.43 Q694.057 1265.68 692.738 1263.9 Q691.418 1262.09 688.664 1262.09 Q685.4 1262.09 683.479 1264.31 Q681.557 1266.51 681.557 1270.29 L681.557 1284.94 L677.275 1284.94 L677.275 1259.01 L681.557 1259.01 L681.557 1263.04 Q683.016 1260.66 685.053 1259.52 Q687.09 1258.39 689.891 1258.39 Q692.715 1258.39 694.682 1259.82 Q696.673 1261.26 697.622 1263.99 Z" fill="#000000" fill-rule="evenodd" fill-opacity="1" /><path clip-path="url(#clip160)" d="M735.4 1271.91 Q730.238 1271.91 728.247 1273.09 Q726.256 1274.27 726.256 1277.12 Q726.256 1279.38 727.738 1280.73 Q729.242 1282.05 731.812 1282.05 Q735.353 1282.05 737.483 1279.55 Q739.636 1277.02 739.636 1272.86 L739.636 1271.91 L735.4 1271.91 M743.895 1270.15 L743.895 1284.94 L739.636 1284.94 L739.636 1281 Q738.177 1283.37 736.002 1284.5 Q733.826 1285.61 730.677 1285.61 Q726.696 1285.61 724.335 1283.39 Q721.997 1281.14 721.997 1277.39 Q721.997 1273.02 724.914 1270.8 Q727.853 1268.57 733.664 1268.57 L739.636 1268.57 L739.636 1268.16 Q739.636 1265.22 737.691 1263.62 Q735.77 1262 732.275 1262 Q730.052 1262 727.946 1262.53 Q725.84 1263.06 723.895 1264.13 L723.895 1260.19 Q726.233 1259.29 728.432 1258.85 Q730.631 1258.39 732.715 1258.39 Q738.339 1258.39 741.117 1261.31 Q743.895 1264.22 743.895 1270.15 Z" fill="#000000" fill-rule="evenodd" fill-opacity="1" /><path clip-path="url(#clip160)" d="M772.367 1281 L788.686 1281 L788.686 1284.94 L766.742 1284.94 L766.742 1281 Q769.404 1278.25 773.987 1273.62 Q778.594 1268.97 779.774 1267.63 Q782.02 1265.1 782.899 1263.37 Q783.802 1261.61 783.802 1259.92 Q783.802 1257.16 781.858 1255.43 Q779.936 1253.69 776.835 1253.69 Q774.636 1253.69 772.182 1254.45 Q769.751 1255.22 766.974 1256.77 L766.974 1252.05 Q769.798 1250.91 772.251 1250.33 Q774.705 1249.75 776.742 1249.75 Q782.112 1249.75 785.307 1252.44 Q788.501 1255.13 788.501 1259.62 Q788.501 1261.75 787.691 1263.67 Q786.904 1265.56 784.798 1268.16 Q784.219 1268.83 781.117 1272.05 Q778.015 1275.24 772.367 1281 Z" fill="#000000" fill-rule="evenodd" fill-opacity="1" /><path clip-path="url(#clip160)" d="M798.987 1279.06 L803.872 1279.06 L803.872 1284.94 L798.987 1284.94 L798.987 1279.06 M798.987 1260.43 L803.872 1260.43 L803.872 1266.31 L798.987 1266.31 L798.987 1260.43 Z" fill="#000000" fill-rule="evenodd" fill-opacity="1" /><path clip-path="url(#clip160)" d="M826.464 1259.01 L830.723 1259.01 L836.047 1279.25 L841.348 1259.01 L846.371 1259.01 L851.695 1279.25 L856.996 1259.01 L861.255 1259.01 L854.473 1284.94 L849.45 1284.94 L843.871 1263.69 L838.27 1284.94 L833.246 1284.94 L826.464 1259.01 Z" fill="#000000" fill-rule="evenodd" fill-opacity="1" /><path clip-path="url(#clip160)" d="M867.714 1259.01 L871.973 1259.01 L871.973 1284.94 L867.714 1284.94 L867.714 1259.01 M867.714 1248.92 L871.973 1248.92 L871.973 1254.32 L867.714 1254.32 L867.714 1248.92 Z" fill="#000000" fill-rule="evenodd" fill-opacity="1" /><path clip-path="url(#clip160)" d="M903.061 1270.91 L903.061 1273 L883.478 1273 Q883.755 1277.39 886.116 1279.71 Q888.501 1282 892.737 1282 Q895.19 1282 897.482 1281.4 Q899.797 1280.8 902.065 1279.59 L902.065 1283.62 Q899.774 1284.59 897.366 1285.1 Q894.959 1285.61 892.482 1285.61 Q886.279 1285.61 882.644 1282 Q879.033 1278.39 879.033 1272.23 Q879.033 1265.87 882.459 1262.14 Q885.908 1258.39 891.741 1258.39 Q896.973 1258.39 900.005 1261.77 Q903.061 1265.13 903.061 1270.91 M898.802 1269.66 Q898.755 1266.17 896.834 1264.08 Q894.936 1262 891.788 1262 Q888.223 1262 886.07 1264.01 Q883.941 1266.03 883.616 1269.69 L898.802 1269.66 Z" fill="#000000" fill-rule="evenodd" fill-opacity="1" /><path clip-path="url(#clip160)" d="M910.052 1248.92 L914.311 1248.92 L914.311 1284.94 L910.052 1284.94 L910.052 1248.92 Z" fill="#000000" fill-rule="evenodd" fill-opacity="1" /><path clip-path="url(#clip160)" d="M923.061 1248.92 L927.343 1248.92 L927.343 1270.19 L940.051 1259.01 L945.491 1259.01 L931.741 1271.14 L946.07 1284.94 L940.514 1284.94 L927.343 1272.28 L927.343 1284.94 L923.061 1284.94 L923.061 1248.92 Z" fill="#000000" fill-rule="evenodd" fill-opacity="1" /><path clip-path="url(#clip160)" d="M959.033 1262 Q955.607 1262 953.616 1264.69 Q951.625 1267.35 951.625 1272 Q951.625 1276.65 953.593 1279.34 Q955.584 1282 959.033 1282 Q962.436 1282 964.426 1279.31 Q966.417 1276.63 966.417 1272 Q966.417 1267.39 964.426 1264.71 Q962.436 1262 959.033 1262 M959.033 1258.39 Q964.588 1258.39 967.76 1262 Q970.931 1265.61 970.931 1272 Q970.931 1278.37 967.76 1282 Q964.588 1285.61 959.033 1285.61 Q953.454 1285.61 950.283 1282 Q947.135 1278.37 947.135 1272 Q947.135 1265.61 950.283 1262 Q953.454 1258.39 959.033 1258.39 Z" fill="#000000" fill-rule="evenodd" fill-opacity="1" /><path clip-path="url(#clip160)" d="M990.121 1246.86 L994.727 1246.86 L987.181 1255.56 L983.639 1255.56 L990.121 1246.86 M994.519 1259.78 L994.519 1263.81 Q992.713 1262.88 990.769 1262.42 Q988.824 1261.95 986.741 1261.95 Q983.57 1261.95 981.972 1262.93 Q980.398 1263.9 980.398 1265.84 Q980.398 1267.32 981.533 1268.18 Q982.667 1269.01 986.093 1269.78 L987.551 1270.1 Q992.088 1271.07 993.986 1272.86 Q995.908 1274.62 995.908 1277.79 Q995.908 1281.4 993.037 1283.5 Q990.19 1285.61 985.19 1285.61 Q983.107 1285.61 980.838 1285.19 Q978.593 1284.8 976.093 1283.99 L976.093 1279.59 Q978.454 1280.82 980.746 1281.44 Q983.037 1282.05 985.283 1282.05 Q988.292 1282.05 989.912 1281.03 Q991.533 1279.99 991.533 1278.11 Q991.533 1276.38 990.352 1275.45 Q989.195 1274.52 985.236 1273.67 L983.755 1273.32 Q979.797 1272.49 978.037 1270.77 Q976.278 1269.04 976.278 1266.03 Q976.278 1262.37 978.871 1260.38 Q981.463 1258.39 986.232 1258.39 Q988.593 1258.39 990.676 1258.74 Q992.759 1259.08 994.519 1259.78 Z" fill="#000000" fill-rule="evenodd" fill-opacity="1" /><path clip-path="url(#clip160)" d="M1021.35 1260.01 L1021.35 1263.99 Q1019.54 1263 1017.71 1262.51 Q1015.91 1262 1014.06 1262 Q1009.91 1262 1007.62 1264.64 Q1005.33 1267.25 1005.33 1272 Q1005.33 1276.75 1007.62 1279.38 Q1009.91 1282 1014.06 1282 Q1015.91 1282 1017.71 1281.51 Q1019.54 1281 1021.35 1280.01 L1021.35 1283.94 Q1019.56 1284.78 1017.64 1285.19 Q1015.75 1285.61 1013.59 1285.61 Q1007.74 1285.61 1004.29 1281.93 Q1000.84 1278.25 1000.84 1272 Q1000.84 1265.66 1004.31 1262.02 Q1007.81 1258.39 1013.87 1258.39 Q1015.84 1258.39 1017.71 1258.81 Q1019.59 1259.2 1021.35 1260.01 M1016.46 1247.02 L1021.07 1247.02 L1013.52 1255.73 L1009.98 1255.73 L1016.46 1247.02 Z" fill="#000000" fill-rule="evenodd" fill-opacity="1" /><path clip-path="url(#clip160)" d="M1047.94 1281.05 L1047.94 1294.8 L1043.66 1294.8 L1043.66 1259.01 L1047.94 1259.01 L1047.94 1262.95 Q1049.29 1260.63 1051.32 1259.52 Q1053.38 1258.39 1056.23 1258.39 Q1060.95 1258.39 1063.89 1262.14 Q1066.86 1265.89 1066.86 1272 Q1066.86 1278.11 1063.89 1281.86 Q1060.95 1285.61 1056.23 1285.61 Q1053.38 1285.61 1051.32 1284.5 Q1049.29 1283.37 1047.94 1281.05 M1062.43 1272 Q1062.43 1267.3 1060.49 1264.64 Q1058.57 1261.95 1055.19 1261.95 Q1051.81 1261.95 1049.87 1264.64 Q1047.94 1267.3 1047.94 1272 Q1047.94 1276.7 1049.87 1279.38 Q1051.81 1282.05 1055.19 1282.05 Q1058.57 1282.05 1060.49 1279.38 Q1062.43 1276.7 1062.43 1272 Z" fill="#000000" fill-rule="evenodd" fill-opacity="1" /><path clip-path="url(#clip160)" d="M1088.94 1263 Q1088.22 1262.58 1087.37 1262.39 Q1086.53 1262.19 1085.51 1262.19 Q1081.9 1262.19 1079.96 1264.55 Q1078.04 1266.88 1078.04 1271.28 L1078.04 1284.94 L1073.75 1284.94 L1073.75 1259.01 L1078.04 1259.01 L1078.04 1263.04 Q1079.38 1260.68 1081.53 1259.55 Q1083.68 1258.39 1086.76 1258.39 Q1087.2 1258.39 1087.74 1258.46 Q1088.27 1258.5 1088.92 1258.62 L1088.94 1263 Z" fill="#000000" fill-rule="evenodd" fill-opacity="1" /><path clip-path="url(#clip160)" d="M1102.41 1262 Q1098.99 1262 1096.99 1264.69 Q1095 1267.35 1095 1272 Q1095 1276.65 1096.97 1279.34 Q1098.96 1282 1102.41 1282 Q1105.81 1282 1107.81 1279.31 Q1109.8 1276.63 1109.8 1272 Q1109.8 1267.39 1107.81 1264.71 Q1105.81 1262 1102.41 1262 M1102.41 1258.39 Q1107.97 1258.39 1111.14 1262 Q1114.31 1265.61 1114.31 1272 Q1114.31 1278.37 1111.14 1282 Q1107.97 1285.61 1102.41 1285.61 Q1096.83 1285.61 1093.66 1282 Q1090.51 1278.37 1090.51 1272 Q1090.51 1265.61 1093.66 1262 Q1096.83 1258.39 1102.41 1258.39 Z" fill="#000000" fill-rule="evenodd" fill-opacity="1" /><path clip-path="url(#clip160)" d="M1138.43 1262.95 L1138.43 1248.92 L1142.69 1248.92 L1142.69 1284.94 L1138.43 1284.94 L1138.43 1281.05 Q1137.09 1283.37 1135.03 1284.5 Q1132.99 1285.61 1130.12 1285.61 Q1125.42 1285.61 1122.46 1281.86 Q1119.52 1278.11 1119.52 1272 Q1119.52 1265.89 1122.46 1262.14 Q1125.42 1258.39 1130.12 1258.39 Q1132.99 1258.39 1135.03 1259.52 Q1137.09 1260.63 1138.43 1262.95 M1123.92 1272 Q1123.92 1276.7 1125.84 1279.38 Q1127.78 1282.05 1131.16 1282.05 Q1134.54 1282.05 1136.49 1279.38 Q1138.43 1276.7 1138.43 1272 Q1138.43 1267.3 1136.49 1264.64 Q1134.54 1261.95 1131.16 1261.95 Q1127.78 1261.95 1125.84 1264.64 Q1123.92 1267.3 1123.92 1272 Z" fill="#000000" fill-rule="evenodd" fill-opacity="1" /><path clip-path="url(#clip160)" d="M1151.02 1274.71 L1151.02 1259.01 L1155.28 1259.01 L1155.28 1274.55 Q1155.28 1278.23 1156.72 1280.08 Q1158.15 1281.91 1161.02 1281.91 Q1164.47 1281.91 1166.46 1279.71 Q1168.48 1277.51 1168.48 1273.71 L1168.48 1259.01 L1172.74 1259.01 L1172.74 1284.94 L1168.48 1284.94 L1168.48 1280.96 Q1166.93 1283.32 1164.86 1284.48 Q1162.83 1285.61 1160.12 1285.61 Q1155.65 1285.61 1153.34 1282.83 Q1151.02 1280.06 1151.02 1274.71 M1161.74 1258.39 L1161.74 1258.39 Z" fill="#000000" fill-rule="evenodd" fill-opacity="1" /><path clip-path="url(#clip160)" d="M1181.35 1248.92 L1185.63 1248.92 L1185.63 1270.19 L1198.34 1259.01 L1203.78 1259.01 L1190.03 1271.14 L1204.36 1284.94 L1198.8 1284.94 L1185.63 1272.28 L1185.63 1284.94 L1181.35 1284.94 L1181.35 1248.92 Z" fill="#000000" fill-rule="evenodd" fill-opacity="1" /><path clip-path="url(#clip160)" d="M1227.62 1260.01 L1227.62 1263.99 Q1225.81 1263 1223.99 1262.51 Q1222.18 1262 1220.33 1262 Q1216.18 1262 1213.89 1264.64 Q1211.6 1267.25 1211.6 1272 Q1211.6 1276.75 1213.89 1279.38 Q1216.18 1282 1220.33 1282 Q1222.18 1282 1223.99 1281.51 Q1225.81 1281 1227.62 1280.01 L1227.62 1283.94 Q1225.84 1284.78 1223.92 1285.19 Q1222.02 1285.61 1219.86 1285.61 Q1214.01 1285.61 1210.56 1281.93 Q1207.11 1278.25 1207.11 1272 Q1207.11 1265.66 1210.58 1262.02 Q1214.08 1258.39 1220.14 1258.39 Q1222.11 1258.39 1223.99 1258.81 Q1225.86 1259.2 1227.62 1260.01 Z" fill="#000000" fill-rule="evenodd" fill-opacity="1" /><path clip-path="url(#clip160)" d="M1235.03 1259.01 L1239.29 1259.01 L1239.29 1285.4 Q1239.29 1290.36 1237.39 1292.58 Q1235.51 1294.8 1231.32 1294.8 L1229.7 1294.8 L1229.7 1291.19 L1230.84 1291.19 Q1233.27 1291.19 1234.15 1290.06 Q1235.03 1288.94 1235.03 1285.4 L1235.03 1259.01 M1235.03 1248.92 L1239.29 1248.92 L1239.29 1254.32 L1235.03 1254.32 L1235.03 1248.92 Z" fill="#000000" fill-rule="evenodd" fill-opacity="1" /><path clip-path="url(#clip160)" d="M1248.2 1259.01 L1252.46 1259.01 L1252.46 1284.94 L1248.2 1284.94 L1248.2 1259.01 M1248.2 1248.92 L1252.46 1248.92 L1252.46 1254.32 L1248.2 1254.32 L1248.2 1248.92 Z" fill="#000000" fill-rule="evenodd" fill-opacity="1" /><polyline clip-path="url(#clip160)" style="stroke:#ff7e0d; stroke-linecap:butt; stroke-linejoin:round; stroke-width:4; stroke-opacity:1; fill:none" stroke-dasharray="2, 4" points="
  454.846,1319.5 598.099,1319.5 
  "/>
<path clip-path="url(#clip160)" d="M621.974 1302.22 L641.835 1302.22 L641.835 1306.16 L626.65 1306.16 L626.65 1316.34 L640.354 1316.34 L640.354 1320.28 L626.65 1320.28 L626.65 1336.78 L621.974 1336.78 L621.974 1302.22 Z" fill="#000000" fill-rule="evenodd" fill-opacity="1" /><path clip-path="url(#clip160)" d="M645.609 1310.85 L649.868 1310.85 L649.868 1336.78 L645.609 1336.78 L645.609 1310.85 M645.609 1300.76 L649.868 1300.76 L649.868 1306.16 L645.609 1306.16 L645.609 1300.76 Z" fill="#000000" fill-rule="evenodd" fill-opacity="1" /><path clip-path="url(#clip160)" d="M673.803 1314.84 Q673.085 1314.42 672.229 1314.23 Q671.395 1314.03 670.377 1314.03 Q666.766 1314.03 664.821 1316.39 Q662.9 1318.72 662.9 1323.12 L662.9 1336.78 L658.618 1336.78 L658.618 1310.85 L662.9 1310.85 L662.9 1314.88 Q664.243 1312.52 666.395 1311.39 Q668.548 1310.23 671.627 1310.23 Q672.067 1310.23 672.599 1310.3 Q673.132 1310.34 673.78 1310.46 L673.803 1314.84 Z" fill="#000000" fill-rule="evenodd" fill-opacity="1" /><path clip-path="url(#clip160)" d="M697.622 1315.83 Q699.219 1312.96 701.442 1311.59 Q703.664 1310.23 706.673 1310.23 Q710.724 1310.23 712.923 1313.08 Q715.122 1315.9 715.122 1321.13 L715.122 1336.78 L710.84 1336.78 L710.84 1321.27 Q710.84 1317.54 709.52 1315.74 Q708.201 1313.93 705.492 1313.93 Q702.182 1313.93 700.261 1316.13 Q698.34 1318.33 698.34 1322.13 L698.34 1336.78 L694.057 1336.78 L694.057 1321.27 Q694.057 1317.52 692.738 1315.74 Q691.418 1313.93 688.664 1313.93 Q685.4 1313.93 683.479 1316.15 Q681.557 1318.35 681.557 1322.13 L681.557 1336.78 L677.275 1336.78 L677.275 1310.85 L681.557 1310.85 L681.557 1314.88 Q683.016 1312.5 685.053 1311.36 Q687.09 1310.23 689.891 1310.23 Q692.715 1310.23 694.682 1311.66 Q696.673 1313.1 697.622 1315.83 Z" fill="#000000" fill-rule="evenodd" fill-opacity="1" /><path clip-path="url(#clip160)" d="M735.4 1323.75 Q730.238 1323.75 728.247 1324.93 Q726.256 1326.11 726.256 1328.96 Q726.256 1331.22 727.738 1332.57 Q729.242 1333.89 731.812 1333.89 Q735.353 1333.89 737.483 1331.39 Q739.636 1328.86 739.636 1324.7 L739.636 1323.75 L735.4 1323.75 M743.895 1321.99 L743.895 1336.78 L739.636 1336.78 L739.636 1332.84 Q738.177 1335.21 736.002 1336.34 Q733.826 1337.45 730.677 1337.45 Q726.696 1337.45 724.335 1335.23 Q721.997 1332.98 721.997 1329.23 Q721.997 1324.86 724.914 1322.64 Q727.853 1320.41 733.664 1320.41 L739.636 1320.41 L739.636 1320 Q739.636 1317.06 737.691 1315.46 Q735.77 1313.84 732.275 1313.84 Q730.052 1313.84 727.946 1314.37 Q725.84 1314.9 723.895 1315.97 L723.895 1312.03 Q726.233 1311.13 728.432 1310.69 Q730.631 1310.23 732.715 1310.23 Q738.339 1310.23 741.117 1313.15 Q743.895 1316.06 743.895 1321.99 Z" fill="#000000" fill-rule="evenodd" fill-opacity="1" /><path clip-path="url(#clip160)" d="M772.367 1332.84 L788.686 1332.84 L788.686 1336.78 L766.742 1336.78 L766.742 1332.84 Q769.404 1330.09 773.987 1325.46 Q778.594 1320.81 779.774 1319.47 Q782.02 1316.94 782.899 1315.21 Q783.802 1313.45 783.802 1311.76 Q783.802 1309 781.858 1307.27 Q779.936 1305.53 776.835 1305.53 Q774.636 1305.53 772.182 1306.29 Q769.751 1307.06 766.974 1308.61 L766.974 1303.89 Q769.798 1302.75 772.251 1302.17 Q774.705 1301.59 776.742 1301.59 Q782.112 1301.59 785.307 1304.28 Q788.501 1306.97 788.501 1311.46 Q788.501 1313.59 787.691 1315.51 Q786.904 1317.4 784.798 1320 Q784.219 1320.67 781.117 1323.89 Q778.015 1327.08 772.367 1332.84 Z" fill="#000000" fill-rule="evenodd" fill-opacity="1" /><path clip-path="url(#clip160)" d="M798.987 1330.9 L803.872 1330.9 L803.872 1336.78 L798.987 1336.78 L798.987 1330.9 M798.987 1312.27 L803.872 1312.27 L803.872 1318.15 L798.987 1318.15 L798.987 1312.27 Z" fill="#000000" fill-rule="evenodd" fill-opacity="1" /><path clip-path="url(#clip160)" d="M826.464 1310.85 L830.723 1310.85 L836.047 1331.09 L841.348 1310.85 L846.371 1310.85 L851.695 1331.09 L856.996 1310.85 L861.255 1310.85 L854.473 1336.78 L849.45 1336.78 L843.871 1315.53 L838.27 1336.78 L833.246 1336.78 L826.464 1310.85 Z" fill="#000000" fill-rule="evenodd" fill-opacity="1" /><path clip-path="url(#clip160)" d="M867.714 1310.85 L871.973 1310.85 L871.973 1336.78 L867.714 1336.78 L867.714 1310.85 M867.714 1300.76 L871.973 1300.76 L871.973 1306.16 L867.714 1306.16 L867.714 1300.76 Z" fill="#000000" fill-rule="evenodd" fill-opacity="1" /><path clip-path="url(#clip160)" d="M903.061 1322.75 L903.061 1324.84 L883.478 1324.84 Q883.755 1329.23 886.116 1331.55 Q888.501 1333.84 892.737 1333.84 Q895.19 1333.84 897.482 1333.24 Q899.797 1332.64 902.065 1331.43 L902.065 1335.46 Q899.774 1336.43 897.366 1336.94 Q894.959 1337.45 892.482 1337.45 Q886.279 1337.45 882.644 1333.84 Q879.033 1330.23 879.033 1324.07 Q879.033 1317.71 882.459 1313.98 Q885.908 1310.23 891.741 1310.23 Q896.973 1310.23 900.005 1313.61 Q903.061 1316.97 903.061 1322.75 M898.802 1321.5 Q898.755 1318.01 896.834 1315.92 Q894.936 1313.84 891.788 1313.84 Q888.223 1313.84 886.07 1315.85 Q883.941 1317.87 883.616 1321.53 L898.802 1321.5 Z" fill="#000000" fill-rule="evenodd" fill-opacity="1" /><path clip-path="url(#clip160)" d="M910.052 1300.76 L914.311 1300.76 L914.311 1336.78 L910.052 1336.78 L910.052 1300.76 Z" fill="#000000" fill-rule="evenodd" fill-opacity="1" /><path clip-path="url(#clip160)" d="M923.061 1300.76 L927.343 1300.76 L927.343 1322.03 L940.051 1310.85 L945.491 1310.85 L931.741 1322.98 L946.07 1336.78 L940.514 1336.78 L927.343 1324.12 L927.343 1336.78 L923.061 1336.78 L923.061 1300.76 Z" fill="#000000" fill-rule="evenodd" fill-opacity="1" /><path clip-path="url(#clip160)" d="M959.033 1313.84 Q955.607 1313.84 953.616 1316.53 Q951.625 1319.19 951.625 1323.84 Q951.625 1328.49 953.593 1331.18 Q955.584 1333.84 959.033 1333.84 Q962.436 1333.84 964.426 1331.15 Q966.417 1328.47 966.417 1323.84 Q966.417 1319.23 964.426 1316.55 Q962.436 1313.84 959.033 1313.84 M959.033 1310.23 Q964.588 1310.23 967.76 1313.84 Q970.931 1317.45 970.931 1323.84 Q970.931 1330.21 967.76 1333.84 Q964.588 1337.45 959.033 1337.45 Q953.454 1337.45 950.283 1333.84 Q947.135 1330.21 947.135 1323.84 Q947.135 1317.45 950.283 1313.84 Q953.454 1310.23 959.033 1310.23 Z" fill="#000000" fill-rule="evenodd" fill-opacity="1" /><path clip-path="url(#clip160)" d="M990.121 1298.7 L994.727 1298.7 L987.181 1307.4 L983.639 1307.4 L990.121 1298.7 M994.519 1311.62 L994.519 1315.65 Q992.713 1314.72 990.769 1314.26 Q988.824 1313.79 986.741 1313.79 Q983.57 1313.79 981.972 1314.77 Q980.398 1315.74 980.398 1317.68 Q980.398 1319.16 981.533 1320.02 Q982.667 1320.85 986.093 1321.62 L987.551 1321.94 Q992.088 1322.91 993.986 1324.7 Q995.908 1326.46 995.908 1329.63 Q995.908 1333.24 993.037 1335.34 Q990.19 1337.45 985.19 1337.45 Q983.107 1337.45 980.838 1337.03 Q978.593 1336.64 976.093 1335.83 L976.093 1331.43 Q978.454 1332.66 980.746 1333.28 Q983.037 1333.89 985.283 1333.89 Q988.292 1333.89 989.912 1332.87 Q991.533 1331.83 991.533 1329.95 Q991.533 1328.22 990.352 1327.29 Q989.195 1326.36 985.236 1325.51 L983.755 1325.16 Q979.797 1324.33 978.037 1322.61 Q976.278 1320.88 976.278 1317.87 Q976.278 1314.21 978.871 1312.22 Q981.463 1310.23 986.232 1310.23 Q988.593 1310.23 990.676 1310.58 Q992.759 1310.92 994.519 1311.62 Z" fill="#000000" fill-rule="evenodd" fill-opacity="1" /><path clip-path="url(#clip160)" d="M1021.35 1311.85 L1021.35 1315.83 Q1019.54 1314.84 1017.71 1314.35 Q1015.91 1313.84 1014.06 1313.84 Q1009.91 1313.84 1007.62 1316.48 Q1005.33 1319.09 1005.33 1323.84 Q1005.33 1328.59 1007.62 1331.22 Q1009.91 1333.84 1014.06 1333.84 Q1015.91 1333.84 1017.71 1333.35 Q1019.54 1332.84 1021.35 1331.85 L1021.35 1335.78 Q1019.56 1336.62 1017.64 1337.03 Q1015.75 1337.45 1013.59 1337.45 Q1007.74 1337.45 1004.29 1333.77 Q1000.84 1330.09 1000.84 1323.84 Q1000.84 1317.5 1004.31 1313.86 Q1007.81 1310.23 1013.87 1310.23 Q1015.84 1310.23 1017.71 1310.65 Q1019.59 1311.04 1021.35 1311.85 M1016.46 1298.86 L1021.07 1298.86 L1013.52 1307.57 L1009.98 1307.57 L1016.46 1298.86 Z" fill="#000000" fill-rule="evenodd" fill-opacity="1" /><path clip-path="url(#clip160)" d="M1060.35 1311.62 L1060.35 1315.65 Q1058.55 1314.72 1056.6 1314.26 Q1054.66 1313.79 1052.57 1313.79 Q1049.4 1313.79 1047.81 1314.77 Q1046.23 1315.74 1046.23 1317.68 Q1046.23 1319.16 1047.37 1320.02 Q1048.5 1320.85 1051.93 1321.62 L1053.38 1321.94 Q1057.92 1322.91 1059.82 1324.7 Q1061.74 1326.46 1061.74 1329.63 Q1061.74 1333.24 1058.87 1335.34 Q1056.02 1337.45 1051.02 1337.45 Q1048.94 1337.45 1046.67 1337.03 Q1044.43 1336.64 1041.93 1335.83 L1041.93 1331.43 Q1044.29 1332.66 1046.58 1333.28 Q1048.87 1333.89 1051.12 1333.89 Q1054.12 1333.89 1055.75 1332.87 Q1057.37 1331.83 1057.37 1329.95 Q1057.37 1328.22 1056.19 1327.29 Q1055.03 1326.36 1051.07 1325.51 L1049.59 1325.16 Q1045.63 1324.33 1043.87 1322.61 Q1042.11 1320.88 1042.11 1317.87 Q1042.11 1314.21 1044.7 1312.22 Q1047.3 1310.23 1052.06 1310.23 Q1054.43 1310.23 1056.51 1310.58 Q1058.59 1310.92 1060.35 1311.62 Z" fill="#000000" fill-rule="evenodd" fill-opacity="1" /><path clip-path="url(#clip160)" d="M1072.64 1332.89 L1072.64 1346.64 L1068.36 1346.64 L1068.36 1310.85 L1072.64 1310.85 L1072.64 1314.79 Q1073.99 1312.47 1076.02 1311.36 Q1078.08 1310.23 1080.93 1310.23 Q1085.65 1310.23 1088.59 1313.98 Q1091.56 1317.73 1091.56 1323.84 Q1091.56 1329.95 1088.59 1333.7 Q1085.65 1337.45 1080.93 1337.45 Q1078.08 1337.45 1076.02 1336.34 Q1073.99 1335.21 1072.64 1332.89 M1087.13 1323.84 Q1087.13 1319.14 1085.19 1316.48 Q1083.27 1313.79 1079.89 1313.79 Q1076.51 1313.79 1074.56 1316.48 Q1072.64 1319.14 1072.64 1323.84 Q1072.64 1328.54 1074.56 1331.22 Q1076.51 1333.89 1079.89 1333.89 Q1083.27 1333.89 1085.19 1331.22 Q1087.13 1328.54 1087.13 1323.84 Z" fill="#000000" fill-rule="evenodd" fill-opacity="1" /><path clip-path="url(#clip160)" d="M1113.64 1314.84 Q1112.92 1314.42 1112.06 1314.23 Q1111.23 1314.03 1110.21 1314.03 Q1106.6 1314.03 1104.66 1316.39 Q1102.74 1318.72 1102.74 1323.12 L1102.74 1336.78 L1098.45 1336.78 L1098.45 1310.85 L1102.74 1310.85 L1102.74 1314.88 Q1104.08 1312.52 1106.23 1311.39 Q1108.38 1310.23 1111.46 1310.23 Q1111.9 1310.23 1112.43 1310.3 Q1112.97 1310.34 1113.62 1310.46 L1113.64 1314.84 Z" fill="#000000" fill-rule="evenodd" fill-opacity="1" /><path clip-path="url(#clip160)" d="M1116.25 1310.85 L1136.49 1310.85 L1136.49 1314.74 L1120.47 1333.38 L1136.49 1333.38 L1136.49 1336.78 L1115.68 1336.78 L1115.68 1332.89 L1131.69 1314.26 L1116.25 1314.26 L1116.25 1310.85 Z" fill="#000000" fill-rule="evenodd" fill-opacity="1" /><path clip-path="url(#clip160)" d="M1165.17 1322.75 L1165.17 1324.84 L1145.58 1324.84 Q1145.86 1329.23 1148.22 1331.55 Q1150.61 1333.84 1154.84 1333.84 Q1157.3 1333.84 1159.59 1333.24 Q1161.9 1332.64 1164.17 1331.43 L1164.17 1335.46 Q1161.88 1336.43 1159.47 1336.94 Q1157.06 1337.45 1154.59 1337.45 Q1148.38 1337.45 1144.75 1333.84 Q1141.14 1330.23 1141.14 1324.07 Q1141.14 1317.71 1144.56 1313.98 Q1148.01 1310.23 1153.85 1310.23 Q1159.08 1310.23 1162.11 1313.61 Q1165.17 1316.97 1165.17 1322.75 M1160.91 1321.5 Q1160.86 1318.01 1158.94 1315.92 Q1157.04 1313.84 1153.89 1313.84 Q1150.33 1313.84 1148.18 1315.85 Q1146.05 1317.87 1145.72 1321.53 L1160.91 1321.5 Z" fill="#000000" fill-rule="evenodd" fill-opacity="1" /><path clip-path="url(#clip160)" d="M1189.22 1314.79 L1189.22 1300.76 L1193.48 1300.76 L1193.48 1336.78 L1189.22 1336.78 L1189.22 1332.89 Q1187.87 1335.21 1185.81 1336.34 Q1183.78 1337.45 1180.91 1337.45 Q1176.21 1337.45 1173.24 1333.7 Q1170.3 1329.95 1170.3 1323.84 Q1170.3 1317.73 1173.24 1313.98 Q1176.21 1310.23 1180.91 1310.23 Q1183.78 1310.23 1185.81 1311.36 Q1187.87 1312.47 1189.22 1314.79 M1174.7 1323.84 Q1174.7 1328.54 1176.62 1331.22 Q1178.57 1333.89 1181.95 1333.89 Q1185.33 1333.89 1187.27 1331.22 Q1189.22 1328.54 1189.22 1323.84 Q1189.22 1319.14 1187.27 1316.48 Q1185.33 1313.79 1181.95 1313.79 Q1178.57 1313.79 1176.62 1316.48 Q1174.7 1319.14 1174.7 1323.84 Z" fill="#000000" fill-rule="evenodd" fill-opacity="1" /><path clip-path="url(#clip160)" d="M1214.03 1323.75 Q1208.87 1323.75 1206.88 1324.93 Q1204.89 1326.11 1204.89 1328.96 Q1204.89 1331.22 1206.37 1332.57 Q1207.87 1333.89 1210.44 1333.89 Q1213.99 1333.89 1216.11 1331.39 Q1218.27 1328.86 1218.27 1324.7 L1218.27 1323.75 L1214.03 1323.75 M1222.53 1321.99 L1222.53 1336.78 L1218.27 1336.78 L1218.27 1332.84 Q1216.81 1335.21 1214.63 1336.34 Q1212.46 1337.45 1209.31 1337.45 Q1205.33 1337.45 1202.97 1335.23 Q1200.63 1332.98 1200.63 1329.23 Q1200.63 1324.86 1203.55 1322.64 Q1206.49 1320.41 1212.3 1320.41 L1218.27 1320.41 L1218.27 1320 Q1218.27 1317.06 1216.32 1315.46 Q1214.4 1313.84 1210.91 1313.84 Q1208.68 1313.84 1206.58 1314.37 Q1204.47 1314.9 1202.53 1315.97 L1202.53 1312.03 Q1204.86 1311.13 1207.06 1310.69 Q1209.26 1310.23 1211.35 1310.23 Q1216.97 1310.23 1219.75 1313.15 Q1222.53 1316.06 1222.53 1321.99 Z" fill="#000000" fill-rule="evenodd" fill-opacity="1" /><path clip-path="url(#clip160)" d="M1237.04 1300.76 L1241.3 1300.76 L1241.3 1306.16 L1237.04 1306.16 L1237.04 1300.76 M1239.22 1310.23 L1239.22 1310.23 M1229.45 1310.85 L1249.68 1310.85 L1249.68 1314.74 L1233.66 1333.38 L1249.68 1333.38 L1249.68 1336.78 L1228.87 1336.78 L1228.87 1332.89 L1244.89 1314.26 L1229.45 1314.26 L1229.45 1310.85 Z" fill="#000000" fill-rule="evenodd" fill-opacity="1" /><path clip-path="url(#clip160)" d="M1266.97 1339.19 Q1265.17 1343.82 1263.45 1345.23 Q1261.74 1346.64 1258.87 1346.64 L1255.47 1346.64 L1255.47 1343.08 L1257.97 1343.08 Q1259.73 1343.08 1260.7 1342.24 Q1261.67 1341.41 1262.85 1338.31 L1263.61 1336.36 L1253.13 1310.85 L1257.64 1310.85 L1265.74 1331.13 L1273.85 1310.85 L1278.36 1310.85 L1266.97 1339.19 Z" fill="#000000" fill-rule="evenodd" fill-opacity="1" /><polyline clip-path="url(#clip160)" style="stroke:#ff7e0d; stroke-linecap:butt; stroke-linejoin:round; stroke-width:4; stroke-opacity:1; fill:none" stroke-dasharray="16, 10" points="
  454.846,1371.34 598.099,1371.34 
  "/>
<path clip-path="url(#clip160)" d="M621.974 1354.06 L641.835 1354.06 L641.835 1358 L626.65 1358 L626.65 1368.18 L640.354 1368.18 L640.354 1372.12 L626.65 1372.12 L626.65 1388.62 L621.974 1388.62 L621.974 1354.06 Z" fill="#000000" fill-rule="evenodd" fill-opacity="1" /><path clip-path="url(#clip160)" d="M645.609 1362.69 L649.868 1362.69 L649.868 1388.62 L645.609 1388.62 L645.609 1362.69 M645.609 1352.6 L649.868 1352.6 L649.868 1358 L645.609 1358 L645.609 1352.6 Z" fill="#000000" fill-rule="evenodd" fill-opacity="1" /><path clip-path="url(#clip160)" d="M673.803 1366.68 Q673.085 1366.26 672.229 1366.07 Q671.395 1365.87 670.377 1365.87 Q666.766 1365.87 664.821 1368.23 Q662.9 1370.56 662.9 1374.96 L662.9 1388.62 L658.618 1388.62 L658.618 1362.69 L662.9 1362.69 L662.9 1366.72 Q664.243 1364.36 666.395 1363.23 Q668.548 1362.07 671.627 1362.07 Q672.067 1362.07 672.599 1362.14 Q673.132 1362.18 673.78 1362.3 L673.803 1366.68 Z" fill="#000000" fill-rule="evenodd" fill-opacity="1" /><path clip-path="url(#clip160)" d="M697.622 1367.67 Q699.219 1364.8 701.442 1363.43 Q703.664 1362.07 706.673 1362.07 Q710.724 1362.07 712.923 1364.92 Q715.122 1367.74 715.122 1372.97 L715.122 1388.62 L710.84 1388.62 L710.84 1373.11 Q710.84 1369.38 709.52 1367.58 Q708.201 1365.77 705.492 1365.77 Q702.182 1365.77 700.261 1367.97 Q698.34 1370.17 698.34 1373.97 L698.34 1388.62 L694.057 1388.62 L694.057 1373.11 Q694.057 1369.36 692.738 1367.58 Q691.418 1365.77 688.664 1365.77 Q685.4 1365.77 683.479 1367.99 Q681.557 1370.19 681.557 1373.97 L681.557 1388.62 L677.275 1388.62 L677.275 1362.69 L681.557 1362.69 L681.557 1366.72 Q683.016 1364.34 685.053 1363.2 Q687.09 1362.07 689.891 1362.07 Q692.715 1362.07 694.682 1363.5 Q696.673 1364.94 697.622 1367.67 Z" fill="#000000" fill-rule="evenodd" fill-opacity="1" /><path clip-path="url(#clip160)" d="M735.4 1375.59 Q730.238 1375.59 728.247 1376.77 Q726.256 1377.95 726.256 1380.8 Q726.256 1383.06 727.738 1384.41 Q729.242 1385.73 731.812 1385.73 Q735.353 1385.73 737.483 1383.23 Q739.636 1380.7 739.636 1376.54 L739.636 1375.59 L735.4 1375.59 M743.895 1373.83 L743.895 1388.62 L739.636 1388.62 L739.636 1384.68 Q738.177 1387.05 736.002 1388.18 Q733.826 1389.29 730.677 1389.29 Q726.696 1389.29 724.335 1387.07 Q721.997 1384.82 721.997 1381.07 Q721.997 1376.7 724.914 1374.48 Q727.853 1372.25 733.664 1372.25 L739.636 1372.25 L739.636 1371.84 Q739.636 1368.9 737.691 1367.3 Q735.77 1365.68 732.275 1365.68 Q730.052 1365.68 727.946 1366.21 Q725.84 1366.74 723.895 1367.81 L723.895 1363.87 Q726.233 1362.97 728.432 1362.53 Q730.631 1362.07 732.715 1362.07 Q738.339 1362.07 741.117 1364.99 Q743.895 1367.9 743.895 1373.83 Z" fill="#000000" fill-rule="evenodd" fill-opacity="1" /><path clip-path="url(#clip160)" d="M772.367 1384.68 L788.686 1384.68 L788.686 1388.62 L766.742 1388.62 L766.742 1384.68 Q769.404 1381.93 773.987 1377.3 Q778.594 1372.65 779.774 1371.31 Q782.02 1368.78 782.899 1367.05 Q783.802 1365.29 783.802 1363.6 Q783.802 1360.84 781.858 1359.11 Q779.936 1357.37 776.835 1357.37 Q774.636 1357.37 772.182 1358.13 Q769.751 1358.9 766.974 1360.45 L766.974 1355.73 Q769.798 1354.59 772.251 1354.01 Q774.705 1353.43 776.742 1353.43 Q782.112 1353.43 785.307 1356.12 Q788.501 1358.81 788.501 1363.3 Q788.501 1365.43 787.691 1367.35 Q786.904 1369.24 784.798 1371.84 Q784.219 1372.51 781.117 1375.73 Q778.015 1378.92 772.367 1384.68 Z" fill="#000000" fill-rule="evenodd" fill-opacity="1" /><path clip-path="url(#clip160)" d="M798.987 1382.74 L803.872 1382.74 L803.872 1388.62 L798.987 1388.62 L798.987 1382.74 M798.987 1364.11 L803.872 1364.11 L803.872 1369.99 L798.987 1369.99 L798.987 1364.11 Z" fill="#000000" fill-rule="evenodd" fill-opacity="1" /><path clip-path="url(#clip160)" d="M826.464 1362.69 L830.723 1362.69 L836.047 1382.93 L841.348 1362.69 L846.371 1362.69 L851.695 1382.93 L856.996 1362.69 L861.255 1362.69 L854.473 1388.62 L849.45 1388.62 L843.871 1367.37 L838.27 1388.62 L833.246 1388.62 L826.464 1362.69 Z" fill="#000000" fill-rule="evenodd" fill-opacity="1" /><path clip-path="url(#clip160)" d="M867.714 1362.69 L871.973 1362.69 L871.973 1388.62 L867.714 1388.62 L867.714 1362.69 M867.714 1352.6 L871.973 1352.6 L871.973 1358 L867.714 1358 L867.714 1352.6 Z" fill="#000000" fill-rule="evenodd" fill-opacity="1" /><path clip-path="url(#clip160)" d="M903.061 1374.59 L903.061 1376.68 L883.478 1376.68 Q883.755 1381.07 886.116 1383.39 Q888.501 1385.68 892.737 1385.68 Q895.19 1385.68 897.482 1385.08 Q899.797 1384.48 902.065 1383.27 L902.065 1387.3 Q899.774 1388.27 897.366 1388.78 Q894.959 1389.29 892.482 1389.29 Q886.279 1389.29 882.644 1385.68 Q879.033 1382.07 879.033 1375.91 Q879.033 1369.55 882.459 1365.82 Q885.908 1362.07 891.741 1362.07 Q896.973 1362.07 900.005 1365.45 Q903.061 1368.81 903.061 1374.59 M898.802 1373.34 Q898.755 1369.85 896.834 1367.76 Q894.936 1365.68 891.788 1365.68 Q888.223 1365.68 886.07 1367.69 Q883.941 1369.71 883.616 1373.37 L898.802 1373.34 Z" fill="#000000" fill-rule="evenodd" fill-opacity="1" /><path clip-path="url(#clip160)" d="M910.052 1352.6 L914.311 1352.6 L914.311 1388.62 L910.052 1388.62 L910.052 1352.6 Z" fill="#000000" fill-rule="evenodd" fill-opacity="1" /><path clip-path="url(#clip160)" d="M923.061 1352.6 L927.343 1352.6 L927.343 1373.87 L940.051 1362.69 L945.491 1362.69 L931.741 1374.82 L946.07 1388.62 L940.514 1388.62 L927.343 1375.96 L927.343 1388.62 L923.061 1388.62 L923.061 1352.6 Z" fill="#000000" fill-rule="evenodd" fill-opacity="1" /><path clip-path="url(#clip160)" d="M959.033 1365.68 Q955.607 1365.68 953.616 1368.37 Q951.625 1371.03 951.625 1375.68 Q951.625 1380.33 953.593 1383.02 Q955.584 1385.68 959.033 1385.68 Q962.436 1385.68 964.426 1382.99 Q966.417 1380.31 966.417 1375.68 Q966.417 1371.07 964.426 1368.39 Q962.436 1365.68 959.033 1365.68 M959.033 1362.07 Q964.588 1362.07 967.76 1365.68 Q970.931 1369.29 970.931 1375.68 Q970.931 1382.05 967.76 1385.68 Q964.588 1389.29 959.033 1389.29 Q953.454 1389.29 950.283 1385.68 Q947.135 1382.05 947.135 1375.68 Q947.135 1369.29 950.283 1365.68 Q953.454 1362.07 959.033 1362.07 Z" fill="#000000" fill-rule="evenodd" fill-opacity="1" /><path clip-path="url(#clip160)" d="M990.121 1350.54 L994.727 1350.54 L987.181 1359.24 L983.639 1359.24 L990.121 1350.54 M994.519 1363.46 L994.519 1367.49 Q992.713 1366.56 990.769 1366.1 Q988.824 1365.63 986.741 1365.63 Q983.57 1365.63 981.972 1366.61 Q980.398 1367.58 980.398 1369.52 Q980.398 1371 981.533 1371.86 Q982.667 1372.69 986.093 1373.46 L987.551 1373.78 Q992.088 1374.75 993.986 1376.54 Q995.908 1378.3 995.908 1381.47 Q995.908 1385.08 993.037 1387.18 Q990.19 1389.29 985.19 1389.29 Q983.107 1389.29 980.838 1388.87 Q978.593 1388.48 976.093 1387.67 L976.093 1383.27 Q978.454 1384.5 980.746 1385.12 Q983.037 1385.73 985.283 1385.73 Q988.292 1385.73 989.912 1384.71 Q991.533 1383.67 991.533 1381.79 Q991.533 1380.06 990.352 1379.13 Q989.195 1378.2 985.236 1377.35 L983.755 1377 Q979.797 1376.17 978.037 1374.45 Q976.278 1372.72 976.278 1369.71 Q976.278 1366.05 978.871 1364.06 Q981.463 1362.07 986.232 1362.07 Q988.593 1362.07 990.676 1362.42 Q992.759 1362.76 994.519 1363.46 Z" fill="#000000" fill-rule="evenodd" fill-opacity="1" /><path clip-path="url(#clip160)" d="M1021.35 1363.69 L1021.35 1367.67 Q1019.54 1366.68 1017.71 1366.19 Q1015.91 1365.68 1014.06 1365.68 Q1009.91 1365.68 1007.62 1368.32 Q1005.33 1370.93 1005.33 1375.68 Q1005.33 1380.43 1007.62 1383.06 Q1009.91 1385.68 1014.06 1385.68 Q1015.91 1385.68 1017.71 1385.19 Q1019.54 1384.68 1021.35 1383.69 L1021.35 1387.62 Q1019.56 1388.46 1017.64 1388.87 Q1015.75 1389.29 1013.59 1389.29 Q1007.74 1389.29 1004.29 1385.61 Q1000.84 1381.93 1000.84 1375.68 Q1000.84 1369.34 1004.31 1365.7 Q1007.81 1362.07 1013.87 1362.07 Q1015.84 1362.07 1017.71 1362.49 Q1019.59 1362.88 1021.35 1363.69 M1016.46 1350.7 L1021.07 1350.7 L1013.52 1359.41 L1009.98 1359.41 L1016.46 1350.7 Z" fill="#000000" fill-rule="evenodd" fill-opacity="1" /><path clip-path="url(#clip160)" d="M1043.82 1352.6 L1048.08 1352.6 L1048.08 1388.62 L1043.82 1388.62 L1043.82 1352.6 Z" fill="#000000" fill-rule="evenodd" fill-opacity="1" /><path clip-path="url(#clip160)" d="M1079.17 1374.59 L1079.17 1376.68 L1059.59 1376.68 Q1059.87 1381.07 1062.23 1383.39 Q1064.61 1385.68 1068.85 1385.68 Q1071.3 1385.68 1073.59 1385.08 Q1075.91 1384.48 1078.18 1383.27 L1078.18 1387.3 Q1075.88 1388.27 1073.48 1388.78 Q1071.07 1389.29 1068.59 1389.29 Q1062.39 1389.29 1058.75 1385.68 Q1055.14 1382.07 1055.14 1375.91 Q1055.14 1369.55 1058.57 1365.82 Q1062.02 1362.07 1067.85 1362.07 Q1073.08 1362.07 1076.12 1365.45 Q1079.17 1368.81 1079.17 1374.59 M1074.91 1373.34 Q1074.87 1369.85 1072.94 1367.76 Q1071.05 1365.68 1067.9 1365.68 Q1064.33 1365.68 1062.18 1367.69 Q1060.05 1369.71 1059.73 1373.37 L1074.91 1373.34 Z" fill="#000000" fill-rule="evenodd" fill-opacity="1" /><path clip-path="url(#clip160)" d="M1097.94 1375.59 Q1092.78 1375.59 1090.79 1376.77 Q1088.8 1377.95 1088.8 1380.8 Q1088.8 1383.06 1090.28 1384.41 Q1091.79 1385.73 1094.36 1385.73 Q1097.9 1385.73 1100.03 1383.23 Q1102.18 1380.7 1102.18 1376.54 L1102.18 1375.59 L1097.94 1375.59 M1106.44 1373.83 L1106.44 1388.62 L1102.18 1388.62 L1102.18 1384.68 Q1100.72 1387.05 1098.55 1388.18 Q1096.37 1389.29 1093.22 1389.29 Q1089.24 1389.29 1086.88 1387.07 Q1084.54 1384.82 1084.54 1381.07 Q1084.54 1376.7 1087.46 1374.48 Q1090.4 1372.25 1096.21 1372.25 L1102.18 1372.25 L1102.18 1371.84 Q1102.18 1368.9 1100.24 1367.3 Q1098.31 1365.68 1094.82 1365.68 Q1092.6 1365.68 1090.49 1366.21 Q1088.38 1366.74 1086.44 1367.81 L1086.44 1363.87 Q1088.78 1362.97 1090.98 1362.53 Q1093.18 1362.07 1095.26 1362.07 Q1100.88 1362.07 1103.66 1364.99 Q1106.44 1367.9 1106.44 1373.83 Z" fill="#000000" fill-rule="evenodd" fill-opacity="1" /><path clip-path="url(#clip160)" d="M1131.74 1363.46 L1131.74 1367.49 Q1129.93 1366.56 1127.99 1366.1 Q1126.05 1365.63 1123.96 1365.63 Q1120.79 1365.63 1119.19 1366.61 Q1117.62 1367.58 1117.62 1369.52 Q1117.62 1371 1118.75 1371.86 Q1119.89 1372.69 1123.31 1373.46 L1124.77 1373.78 Q1129.31 1374.75 1131.21 1376.54 Q1133.13 1378.3 1133.13 1381.47 Q1133.13 1385.08 1130.26 1387.18 Q1127.41 1389.29 1122.41 1389.29 Q1120.33 1389.29 1118.06 1388.87 Q1115.81 1388.48 1113.31 1387.67 L1113.31 1383.27 Q1115.68 1384.5 1117.97 1385.12 Q1120.26 1385.73 1122.5 1385.73 Q1125.51 1385.73 1127.13 1384.71 Q1128.75 1383.67 1128.75 1381.79 Q1128.75 1380.06 1127.57 1379.13 Q1126.42 1378.2 1122.46 1377.35 L1120.98 1377 Q1117.02 1376.17 1115.26 1374.45 Q1113.5 1372.72 1113.5 1369.71 Q1113.5 1366.05 1116.09 1364.06 Q1118.68 1362.07 1123.45 1362.07 Q1125.81 1362.07 1127.9 1362.42 Q1129.98 1362.76 1131.74 1363.46 Z" fill="#000000" fill-rule="evenodd" fill-opacity="1" /><path clip-path="url(#clip160)" d="M1139.91 1362.69 L1144.17 1362.69 L1144.17 1388.62 L1139.91 1388.62 L1139.91 1362.69 M1139.91 1352.6 L1144.17 1352.6 L1144.17 1358 L1139.91 1358 L1139.91 1352.6 Z" fill="#000000" fill-rule="evenodd" fill-opacity="1" /><path clip-path="url(#clip160)" d="M1174.63 1372.97 L1174.63 1388.62 L1170.37 1388.62 L1170.37 1373.11 Q1170.37 1369.43 1168.94 1367.6 Q1167.5 1365.77 1164.63 1365.77 Q1161.18 1365.77 1159.19 1367.97 Q1157.2 1370.17 1157.2 1373.97 L1157.2 1388.62 L1152.92 1388.62 L1152.92 1362.69 L1157.2 1362.69 L1157.2 1366.72 Q1158.73 1364.38 1160.79 1363.23 Q1162.87 1362.07 1165.58 1362.07 Q1170.05 1362.07 1172.34 1364.85 Q1174.63 1367.6 1174.63 1372.97 Z" fill="#000000" fill-rule="evenodd" fill-opacity="1" /><path clip-path="url(#clip160)" d="M1200.19 1375.36 Q1200.19 1370.73 1198.27 1368.18 Q1196.37 1365.63 1192.92 1365.63 Q1189.49 1365.63 1187.57 1368.18 Q1185.68 1370.73 1185.68 1375.36 Q1185.68 1379.96 1187.57 1382.51 Q1189.49 1385.06 1192.92 1385.06 Q1196.37 1385.06 1198.27 1382.51 Q1200.19 1379.96 1200.19 1375.36 M1204.45 1385.4 Q1204.45 1392.02 1201.51 1395.24 Q1198.57 1398.48 1192.5 1398.48 Q1190.26 1398.48 1188.27 1398.13 Q1186.28 1397.81 1184.4 1397.12 L1184.4 1392.97 Q1186.28 1393.99 1188.11 1394.48 Q1189.93 1394.96 1191.83 1394.96 Q1196.02 1394.96 1198.11 1392.76 Q1200.19 1390.59 1200.19 1386.17 L1200.19 1384.06 Q1198.87 1386.35 1196.81 1387.49 Q1194.75 1388.62 1191.88 1388.62 Q1187.11 1388.62 1184.19 1384.99 Q1181.28 1381.35 1181.28 1375.36 Q1181.28 1369.34 1184.19 1365.7 Q1187.11 1362.07 1191.88 1362.07 Q1194.75 1362.07 1196.81 1363.2 Q1198.87 1364.34 1200.19 1366.63 L1200.19 1362.69 L1204.45 1362.69 L1204.45 1385.4 Z" fill="#000000" fill-rule="evenodd" fill-opacity="1" /><path clip-path="url(#clip160)" d="M1212.78 1378.39 L1212.78 1362.69 L1217.04 1362.69 L1217.04 1378.23 Q1217.04 1381.91 1218.48 1383.76 Q1219.91 1385.59 1222.78 1385.59 Q1226.23 1385.59 1228.22 1383.39 Q1230.23 1381.19 1230.23 1377.39 L1230.23 1362.69 L1234.49 1362.69 L1234.49 1388.62 L1230.23 1388.62 L1230.23 1384.64 Q1228.68 1387 1226.62 1388.16 Q1224.59 1389.29 1221.88 1389.29 Q1217.41 1389.29 1215.1 1386.51 Q1212.78 1383.74 1212.78 1378.39 M1223.5 1362.07 L1223.5 1362.07 Z" fill="#000000" fill-rule="evenodd" fill-opacity="1" /></svg>
