<?xml version="1.0" encoding="utf-8"?>
<svg xmlns="http://www.w3.org/2000/svg" xmlns:xlink="http://www.w3.org/1999/xlink" width="600" height="400" viewBox="0 0 2400 1600">
<defs>
  <clipPath id="clip290">
    <rect x="0" y="0" width="2400" height="1600"/>
  </clipPath>
</defs>
<path clip-path="url(#clip290)" d="
M0 1600 L2400 1600 L2400 0 L0 0  Z
  " fill="#ffffff" fill-rule="evenodd" fill-opacity="1"/>
<defs>
  <clipPath id="clip291">
    <rect x="480" y="0" width="1681" height="1600"/>
  </clipPath>
</defs>
<path clip-path="url(#clip290)" d="
M243.017 1486.45 L2352.76 1486.45 L2352.76 123.472 L243.017 123.472  Z
  " fill="#ffffff" fill-rule="evenodd" fill-opacity="1"/>
<defs>
  <clipPath id="clip292">
    <rect x="243" y="123" width="2111" height="1364"/>
  </clipPath>
</defs>
<polyline clip-path="url(#clip292)" style="stroke:#000000; stroke-linecap:round; stroke-linejoin:round; stroke-width:2; stroke-opacity:0.1; fill:none" points="
  468.587,1486.45 468.587,123.472 
  "/>
<polyline clip-path="url(#clip292)" style="stroke:#000000; stroke-linecap:round; stroke-linejoin:round; stroke-width:2; stroke-opacity:0.1; fill:none" points="
  745.02,1486.45 745.02,123.472 
  "/>
<polyline clip-path="url(#clip292)" style="stroke:#000000; stroke-linecap:round; stroke-linejoin:round; stroke-width:2; stroke-opacity:0.1; fill:none" points="
  1021.45,1486.45 1021.45,123.472 
  "/>
<polyline clip-path="url(#clip292)" style="stroke:#000000; stroke-linecap:round; stroke-linejoin:round; stroke-width:2; stroke-opacity:0.1; fill:none" points="
  1297.89,1486.45 1297.89,123.472 
  "/>
<polyline clip-path="url(#clip292)" style="stroke:#000000; stroke-linecap:round; stroke-linejoin:round; stroke-width:2; stroke-opacity:0.1; fill:none" points="
  1574.32,1486.45 1574.32,123.472 
  "/>
<polyline clip-path="url(#clip292)" style="stroke:#000000; stroke-linecap:round; stroke-linejoin:round; stroke-width:2; stroke-opacity:0.1; fill:none" points="
  1850.75,1486.45 1850.75,123.472 
  "/>
<polyline clip-path="url(#clip292)" style="stroke:#000000; stroke-linecap:round; stroke-linejoin:round; stroke-width:2; stroke-opacity:0.1; fill:none" points="
  2127.19,1486.45 2127.19,123.472 
  "/>
<polyline clip-path="url(#clip290)" style="stroke:#000000; stroke-linecap:round; stroke-linejoin:round; stroke-width:4; stroke-opacity:1; fill:none" points="
  243.017,1486.45 2352.76,1486.45 
  "/>
<polyline clip-path="url(#clip290)" style="stroke:#000000; stroke-linecap:round; stroke-linejoin:round; stroke-width:4; stroke-opacity:1; fill:none" points="
  468.587,1486.45 468.587,1467.55 
  "/>
<polyline clip-path="url(#clip290)" style="stroke:#000000; stroke-linecap:round; stroke-linejoin:round; stroke-width:4; stroke-opacity:1; fill:none" points="
  745.02,1486.45 745.02,1467.55 
  "/>
<polyline clip-path="url(#clip290)" style="stroke:#000000; stroke-linecap:round; stroke-linejoin:round; stroke-width:4; stroke-opacity:1; fill:none" points="
  1021.45,1486.45 1021.45,1467.55 
  "/>
<polyline clip-path="url(#clip290)" style="stroke:#000000; stroke-linecap:round; stroke-linejoin:round; stroke-width:4; stroke-opacity:1; fill:none" points="
  1297.89,1486.45 1297.89,1467.55 
  "/>
<polyline clip-path="url(#clip290)" style="stroke:#000000; stroke-linecap:round; stroke-linejoin:round; stroke-width:4; stroke-opacity:1; fill:none" points="
  1574.32,1486.45 1574.32,1467.55 
  "/>
<polyline clip-path="url(#clip290)" style="stroke:#000000; stroke-linecap:round; stroke-linejoin:round; stroke-width:4; stroke-opacity:1; fill:none" points="
  1850.75,1486.45 1850.75,1467.55 
  "/>
<polyline clip-path="url(#clip290)" style="stroke:#000000; stroke-linecap:round; stroke-linejoin:round; stroke-width:4; stroke-opacity:1; fill:none" points="
  2127.19,1486.45 2127.19,1467.55 
  "/>
<path clip-path="url(#clip290)" d="M431.388 1517.37 Q427.777 1517.37 425.948 1520.93 Q424.143 1524.47 424.143 1531.6 Q424.143 1538.71 425.948 1542.27 Q427.777 1545.82 431.388 1545.82 Q435.022 1545.82 436.828 1542.27 Q438.656 1538.71 438.656 1531.6 Q438.656 1524.47 436.828 1520.93 Q435.022 1517.37 431.388 1517.37 M431.388 1513.66 Q437.198 1513.66 440.254 1518.27 Q443.332 1522.85 443.332 1531.6 Q443.332 1540.33 440.254 1544.94 Q437.198 1549.52 431.388 1549.52 Q425.578 1549.52 422.499 1544.94 Q419.443 1540.33 419.443 1531.6 Q419.443 1522.85 422.499 1518.27 Q425.578 1513.66 431.388 1513.66 Z" fill="#000000" fill-rule="evenodd" fill-opacity="1" /><path clip-path="url(#clip290)" d="M451.55 1542.97 L456.434 1542.97 L456.434 1548.85 L451.55 1548.85 L451.55 1542.97 Z" fill="#000000" fill-rule="evenodd" fill-opacity="1" /><path clip-path="url(#clip290)" d="M465.439 1514.29 L487.661 1514.29 L487.661 1516.28 L475.114 1548.85 L470.23 1548.85 L482.036 1518.22 L465.439 1518.22 L465.439 1514.29 Z" fill="#000000" fill-rule="evenodd" fill-opacity="1" /><path clip-path="url(#clip290)" d="M496.827 1514.29 L515.184 1514.29 L515.184 1518.22 L501.11 1518.22 L501.11 1526.7 Q502.128 1526.35 503.147 1526.19 Q504.165 1526 505.184 1526 Q510.971 1526 514.35 1529.17 Q517.73 1532.34 517.73 1537.76 Q517.73 1543.34 514.258 1546.44 Q510.786 1549.52 504.466 1549.52 Q502.29 1549.52 500.022 1549.15 Q497.776 1548.78 495.369 1548.04 L495.369 1543.34 Q497.452 1544.47 499.675 1545.03 Q501.897 1545.58 504.374 1545.58 Q508.378 1545.58 510.716 1543.48 Q513.054 1541.37 513.054 1537.76 Q513.054 1534.15 510.716 1532.04 Q508.378 1529.94 504.374 1529.94 Q502.499 1529.94 500.624 1530.35 Q498.772 1530.77 496.827 1531.65 L496.827 1514.29 Z" fill="#000000" fill-rule="evenodd" fill-opacity="1" /><path clip-path="url(#clip290)" d="M697.092 1544.91 L704.731 1544.91 L704.731 1518.55 L696.421 1520.21 L696.421 1515.95 L704.685 1514.29 L709.36 1514.29 L709.36 1544.91 L716.999 1544.91 L716.999 1548.85 L697.092 1548.85 L697.092 1544.91 Z" fill="#000000" fill-rule="evenodd" fill-opacity="1" /><path clip-path="url(#clip290)" d="M726.444 1542.97 L731.328 1542.97 L731.328 1548.85 L726.444 1548.85 L726.444 1542.97 Z" fill="#000000" fill-rule="evenodd" fill-opacity="1" /><path clip-path="url(#clip290)" d="M751.513 1517.37 Q747.902 1517.37 746.073 1520.93 Q744.268 1524.47 744.268 1531.6 Q744.268 1538.71 746.073 1542.27 Q747.902 1545.82 751.513 1545.82 Q755.147 1545.82 756.953 1542.27 Q758.782 1538.71 758.782 1531.6 Q758.782 1524.47 756.953 1520.93 Q755.147 1517.37 751.513 1517.37 M751.513 1513.66 Q757.323 1513.66 760.379 1518.27 Q763.457 1522.85 763.457 1531.6 Q763.457 1540.33 760.379 1544.94 Q757.323 1549.52 751.513 1549.52 Q745.703 1549.52 742.624 1544.94 Q739.569 1540.33 739.569 1531.6 Q739.569 1522.85 742.624 1518.27 Q745.703 1513.66 751.513 1513.66 Z" fill="#000000" fill-rule="evenodd" fill-opacity="1" /><path clip-path="url(#clip290)" d="M781.675 1517.37 Q778.064 1517.37 776.235 1520.93 Q774.43 1524.47 774.43 1531.6 Q774.43 1538.71 776.235 1542.27 Q778.064 1545.82 781.675 1545.82 Q785.309 1545.82 787.115 1542.27 Q788.943 1538.71 788.943 1531.6 Q788.943 1524.47 787.115 1520.93 Q785.309 1517.37 781.675 1517.37 M781.675 1513.66 Q787.485 1513.66 790.541 1518.27 Q793.619 1522.85 793.619 1531.6 Q793.619 1540.33 790.541 1544.94 Q787.485 1549.52 781.675 1549.52 Q775.865 1549.52 772.786 1544.94 Q769.731 1540.33 769.731 1531.6 Q769.731 1522.85 772.786 1518.27 Q775.865 1513.66 781.675 1513.66 Z" fill="#000000" fill-rule="evenodd" fill-opacity="1" /><path clip-path="url(#clip290)" d="M974.023 1544.91 L981.662 1544.91 L981.662 1518.55 L973.352 1520.21 L973.352 1515.95 L981.616 1514.29 L986.291 1514.29 L986.291 1544.91 L993.93 1544.91 L993.93 1548.85 L974.023 1548.85 L974.023 1544.91 Z" fill="#000000" fill-rule="evenodd" fill-opacity="1" /><path clip-path="url(#clip290)" d="M1003.37 1542.97 L1008.26 1542.97 L1008.26 1548.85 L1003.37 1548.85 L1003.37 1542.97 Z" fill="#000000" fill-rule="evenodd" fill-opacity="1" /><path clip-path="url(#clip290)" d="M1022.47 1544.91 L1038.79 1544.91 L1038.79 1548.85 L1016.85 1548.85 L1016.85 1544.91 Q1019.51 1542.16 1024.09 1537.53 Q1028.7 1532.88 1029.88 1531.53 Q1032.12 1529.01 1033 1527.27 Q1033.91 1525.51 1033.91 1523.82 Q1033.91 1521.07 1031.96 1519.33 Q1030.04 1517.6 1026.94 1517.6 Q1024.74 1517.6 1022.29 1518.36 Q1019.86 1519.13 1017.08 1520.68 L1017.08 1515.95 Q1019.9 1514.82 1022.36 1514.24 Q1024.81 1513.66 1026.85 1513.66 Q1032.22 1513.66 1035.41 1516.35 Q1038.61 1519.03 1038.61 1523.52 Q1038.61 1525.65 1037.8 1527.57 Q1037.01 1529.47 1034.9 1532.07 Q1034.32 1532.74 1031.22 1535.95 Q1028.12 1539.15 1022.47 1544.91 Z" fill="#000000" fill-rule="evenodd" fill-opacity="1" /><path clip-path="url(#clip290)" d="M1048.65 1514.29 L1067.01 1514.29 L1067.01 1518.22 L1052.93 1518.22 L1052.93 1526.7 Q1053.95 1526.35 1054.97 1526.19 Q1055.99 1526 1057.01 1526 Q1062.8 1526 1066.18 1529.17 Q1069.55 1532.34 1069.55 1537.76 Q1069.55 1543.34 1066.08 1546.44 Q1062.61 1549.52 1056.29 1549.52 Q1054.12 1549.52 1051.85 1549.15 Q1049.6 1548.78 1047.19 1548.04 L1047.19 1543.34 Q1049.28 1544.47 1051.5 1545.03 Q1053.72 1545.58 1056.2 1545.58 Q1060.2 1545.58 1062.54 1543.48 Q1064.88 1541.37 1064.88 1537.76 Q1064.88 1534.15 1062.54 1532.04 Q1060.2 1529.94 1056.2 1529.94 Q1054.32 1529.94 1052.45 1530.35 Q1050.6 1530.77 1048.65 1531.65 L1048.65 1514.29 Z" fill="#000000" fill-rule="evenodd" fill-opacity="1" /><path clip-path="url(#clip290)" d="M1249.96 1544.91 L1257.6 1544.91 L1257.6 1518.55 L1249.29 1520.21 L1249.29 1515.95 L1257.55 1514.29 L1262.23 1514.29 L1262.23 1544.91 L1269.87 1544.91 L1269.87 1548.85 L1249.96 1548.85 L1249.96 1544.91 Z" fill="#000000" fill-rule="evenodd" fill-opacity="1" /><path clip-path="url(#clip290)" d="M1279.31 1542.97 L1284.19 1542.97 L1284.19 1548.85 L1279.31 1548.85 L1279.31 1542.97 Z" fill="#000000" fill-rule="evenodd" fill-opacity="1" /><path clip-path="url(#clip290)" d="M1294.43 1514.29 L1312.78 1514.29 L1312.78 1518.22 L1298.71 1518.22 L1298.71 1526.7 Q1299.73 1526.35 1300.75 1526.19 Q1301.76 1526 1302.78 1526 Q1308.57 1526 1311.95 1529.17 Q1315.33 1532.34 1315.33 1537.76 Q1315.33 1543.34 1311.86 1546.44 Q1308.38 1549.52 1302.06 1549.52 Q1299.89 1549.52 1297.62 1549.15 Q1295.37 1548.78 1292.97 1548.04 L1292.97 1543.34 Q1295.05 1544.47 1297.27 1545.03 Q1299.5 1545.58 1301.97 1545.58 Q1305.98 1545.58 1308.31 1543.48 Q1310.65 1541.37 1310.65 1537.76 Q1310.65 1534.15 1308.31 1532.04 Q1305.98 1529.94 1301.97 1529.94 Q1300.1 1529.94 1298.22 1530.35 Q1296.37 1530.77 1294.43 1531.65 L1294.43 1514.29 Z" fill="#000000" fill-rule="evenodd" fill-opacity="1" /><path clip-path="url(#clip290)" d="M1334.54 1517.37 Q1330.93 1517.37 1329.1 1520.93 Q1327.3 1524.47 1327.3 1531.6 Q1327.3 1538.71 1329.1 1542.27 Q1330.93 1545.82 1334.54 1545.82 Q1338.18 1545.82 1339.98 1542.27 Q1341.81 1538.71 1341.81 1531.6 Q1341.81 1524.47 1339.98 1520.93 Q1338.18 1517.37 1334.54 1517.37 M1334.54 1513.66 Q1340.35 1513.66 1343.41 1518.27 Q1346.49 1522.85 1346.49 1531.6 Q1346.49 1540.33 1343.41 1544.94 Q1340.35 1549.52 1334.54 1549.52 Q1328.73 1549.52 1325.65 1544.94 Q1322.6 1540.33 1322.6 1531.6 Q1322.6 1522.85 1325.65 1518.27 Q1328.73 1513.66 1334.54 1513.66 Z" fill="#000000" fill-rule="evenodd" fill-opacity="1" /><path clip-path="url(#clip290)" d="M1526.89 1544.91 L1534.53 1544.91 L1534.53 1518.55 L1526.22 1520.21 L1526.22 1515.95 L1534.48 1514.29 L1539.16 1514.29 L1539.16 1544.91 L1546.8 1544.91 L1546.8 1548.85 L1526.89 1548.85 L1526.89 1544.91 Z" fill="#000000" fill-rule="evenodd" fill-opacity="1" /><path clip-path="url(#clip290)" d="M1556.24 1542.97 L1561.13 1542.97 L1561.13 1548.85 L1556.24 1548.85 L1556.24 1542.97 Z" fill="#000000" fill-rule="evenodd" fill-opacity="1" /><path clip-path="url(#clip290)" d="M1570.13 1514.29 L1592.35 1514.29 L1592.35 1516.28 L1579.81 1548.85 L1574.92 1548.85 L1586.73 1518.22 L1570.13 1518.22 L1570.13 1514.29 Z" fill="#000000" fill-rule="evenodd" fill-opacity="1" /><path clip-path="url(#clip290)" d="M1601.52 1514.29 L1619.88 1514.29 L1619.88 1518.22 L1605.8 1518.22 L1605.8 1526.7 Q1606.82 1526.35 1607.84 1526.19 Q1608.86 1526 1609.88 1526 Q1615.66 1526 1619.04 1529.17 Q1622.42 1532.34 1622.42 1537.76 Q1622.42 1543.34 1618.95 1546.44 Q1615.48 1549.52 1609.16 1549.52 Q1606.98 1549.52 1604.71 1549.15 Q1602.47 1548.78 1600.06 1548.04 L1600.06 1543.34 Q1602.14 1544.47 1604.37 1545.03 Q1606.59 1545.58 1609.06 1545.58 Q1613.07 1545.58 1615.41 1543.48 Q1617.75 1541.37 1617.75 1537.76 Q1617.75 1534.15 1615.41 1532.04 Q1613.07 1529.94 1609.06 1529.94 Q1607.19 1529.94 1605.32 1530.35 Q1603.46 1530.77 1601.52 1531.65 L1601.52 1514.29 Z" fill="#000000" fill-rule="evenodd" fill-opacity="1" /><path clip-path="url(#clip290)" d="M1806.91 1544.91 L1823.23 1544.91 L1823.23 1548.85 L1801.29 1548.85 L1801.29 1544.91 Q1803.95 1542.16 1808.53 1537.53 Q1813.14 1532.88 1814.32 1531.53 Q1816.56 1529.01 1817.44 1527.27 Q1818.35 1525.51 1818.35 1523.82 Q1818.35 1521.07 1816.4 1519.33 Q1814.48 1517.6 1811.38 1517.6 Q1809.18 1517.6 1806.73 1518.36 Q1804.3 1519.13 1801.52 1520.68 L1801.52 1515.95 Q1804.34 1514.82 1806.79 1514.24 Q1809.25 1513.66 1811.29 1513.66 Q1816.66 1513.66 1819.85 1516.35 Q1823.04 1519.03 1823.04 1523.52 Q1823.04 1525.65 1822.23 1527.57 Q1821.45 1529.47 1819.34 1532.07 Q1818.76 1532.74 1815.66 1535.95 Q1812.56 1539.15 1806.91 1544.91 Z" fill="#000000" fill-rule="evenodd" fill-opacity="1" /><path clip-path="url(#clip290)" d="M1833.04 1542.97 L1837.93 1542.97 L1837.93 1548.85 L1833.04 1548.85 L1833.04 1542.97 Z" fill="#000000" fill-rule="evenodd" fill-opacity="1" /><path clip-path="url(#clip290)" d="M1858.11 1517.37 Q1854.5 1517.37 1852.67 1520.93 Q1850.87 1524.47 1850.87 1531.6 Q1850.87 1538.71 1852.67 1542.27 Q1854.5 1545.82 1858.11 1545.82 Q1861.75 1545.82 1863.55 1542.27 Q1865.38 1538.71 1865.38 1531.6 Q1865.38 1524.47 1863.55 1520.93 Q1861.75 1517.37 1858.11 1517.37 M1858.11 1513.66 Q1863.92 1513.66 1866.98 1518.27 Q1870.06 1522.85 1870.06 1531.6 Q1870.06 1540.33 1866.98 1544.94 Q1863.92 1549.52 1858.11 1549.52 Q1852.3 1549.52 1849.23 1544.94 Q1846.17 1540.33 1846.17 1531.6 Q1846.17 1522.85 1849.23 1518.27 Q1852.3 1513.66 1858.11 1513.66 Z" fill="#000000" fill-rule="evenodd" fill-opacity="1" /><path clip-path="url(#clip290)" d="M1888.28 1517.37 Q1884.66 1517.37 1882.84 1520.93 Q1881.03 1524.47 1881.03 1531.6 Q1881.03 1538.71 1882.84 1542.27 Q1884.66 1545.82 1888.28 1545.82 Q1891.91 1545.82 1893.72 1542.27 Q1895.54 1538.71 1895.54 1531.6 Q1895.54 1524.47 1893.72 1520.93 Q1891.91 1517.37 1888.28 1517.37 M1888.28 1513.66 Q1894.09 1513.66 1897.14 1518.27 Q1900.22 1522.85 1900.22 1531.6 Q1900.22 1540.33 1897.14 1544.94 Q1894.09 1549.52 1888.28 1549.52 Q1882.47 1549.52 1879.39 1544.94 Q1876.33 1540.33 1876.33 1531.6 Q1876.33 1522.85 1879.39 1518.27 Q1882.47 1513.66 1888.28 1513.66 Z" fill="#000000" fill-rule="evenodd" fill-opacity="1" /><path clip-path="url(#clip290)" d="M2083.84 1544.91 L2100.16 1544.91 L2100.16 1548.85 L2078.22 1548.85 L2078.22 1544.91 Q2080.88 1542.16 2085.46 1537.53 Q2090.07 1532.88 2091.25 1531.53 Q2093.49 1529.01 2094.37 1527.27 Q2095.28 1525.51 2095.28 1523.82 Q2095.28 1521.07 2093.33 1519.33 Q2091.41 1517.6 2088.31 1517.6 Q2086.11 1517.6 2083.66 1518.36 Q2081.23 1519.13 2078.45 1520.68 L2078.45 1515.95 Q2081.27 1514.82 2083.73 1514.24 Q2086.18 1513.66 2088.22 1513.66 Q2093.59 1513.66 2096.78 1516.35 Q2099.98 1519.03 2099.98 1523.52 Q2099.98 1525.65 2099.17 1527.57 Q2098.38 1529.47 2096.27 1532.07 Q2095.69 1532.74 2092.59 1535.95 Q2089.49 1539.15 2083.84 1544.91 Z" fill="#000000" fill-rule="evenodd" fill-opacity="1" /><path clip-path="url(#clip290)" d="M2109.98 1542.97 L2114.86 1542.97 L2114.86 1548.85 L2109.98 1548.85 L2109.98 1542.97 Z" fill="#000000" fill-rule="evenodd" fill-opacity="1" /><path clip-path="url(#clip290)" d="M2129.07 1544.91 L2145.39 1544.91 L2145.39 1548.85 L2123.45 1548.85 L2123.45 1544.91 Q2126.11 1542.16 2130.69 1537.53 Q2135.3 1532.88 2136.48 1531.53 Q2138.73 1529.01 2139.61 1527.27 Q2140.51 1525.51 2140.51 1523.82 Q2140.51 1521.07 2138.56 1519.33 Q2136.64 1517.6 2133.54 1517.6 Q2131.34 1517.6 2128.89 1518.36 Q2126.46 1519.13 2123.68 1520.68 L2123.68 1515.95 Q2126.5 1514.82 2128.96 1514.24 Q2131.41 1513.66 2133.45 1513.66 Q2138.82 1513.66 2142.01 1516.35 Q2145.21 1519.03 2145.21 1523.52 Q2145.21 1525.65 2144.4 1527.57 Q2143.61 1529.47 2141.5 1532.07 Q2140.92 1532.74 2137.82 1535.95 Q2134.72 1539.15 2129.07 1544.91 Z" fill="#000000" fill-rule="evenodd" fill-opacity="1" /><path clip-path="url(#clip290)" d="M2155.25 1514.29 L2173.61 1514.29 L2173.61 1518.22 L2159.54 1518.22 L2159.54 1526.7 Q2160.55 1526.35 2161.57 1526.19 Q2162.59 1526 2163.61 1526 Q2169.4 1526 2172.78 1529.17 Q2176.16 1532.34 2176.16 1537.76 Q2176.16 1543.34 2172.68 1546.44 Q2169.21 1549.52 2162.89 1549.52 Q2160.72 1549.52 2158.45 1549.15 Q2156.2 1548.78 2153.8 1548.04 L2153.8 1543.34 Q2155.88 1544.47 2158.1 1545.03 Q2160.32 1545.58 2162.8 1545.58 Q2166.8 1545.58 2169.14 1543.48 Q2171.48 1541.37 2171.48 1537.76 Q2171.48 1534.15 2169.14 1532.04 Q2166.8 1529.94 2162.8 1529.94 Q2160.92 1529.94 2159.05 1530.35 Q2157.2 1530.77 2155.25 1531.65 L2155.25 1514.29 Z" fill="#000000" fill-rule="evenodd" fill-opacity="1" /><polyline clip-path="url(#clip292)" style="stroke:#000000; stroke-linecap:round; stroke-linejoin:round; stroke-width:2; stroke-opacity:0.1; fill:none" points="
  243.017,1419.7 2352.76,1419.7 
  "/>
<polyline clip-path="url(#clip292)" style="stroke:#000000; stroke-linecap:round; stroke-linejoin:round; stroke-width:2; stroke-opacity:0.1; fill:none" points="
  243.017,1098.38 2352.76,1098.38 
  "/>
<polyline clip-path="url(#clip292)" style="stroke:#000000; stroke-linecap:round; stroke-linejoin:round; stroke-width:2; stroke-opacity:0.1; fill:none" points="
  243.017,777.05 2352.76,777.05 
  "/>
<polyline clip-path="url(#clip292)" style="stroke:#000000; stroke-linecap:round; stroke-linejoin:round; stroke-width:2; stroke-opacity:0.1; fill:none" points="
  243.017,455.725 2352.76,455.725 
  "/>
<polyline clip-path="url(#clip292)" style="stroke:#000000; stroke-linecap:round; stroke-linejoin:round; stroke-width:2; stroke-opacity:0.1; fill:none" points="
  243.017,134.4 2352.76,134.4 
  "/>
<polyline clip-path="url(#clip290)" style="stroke:#000000; stroke-linecap:round; stroke-linejoin:round; stroke-width:4; stroke-opacity:1; fill:none" points="
  243.017,1486.45 243.017,123.472 
  "/>
<polyline clip-path="url(#clip290)" style="stroke:#000000; stroke-linecap:round; stroke-linejoin:round; stroke-width:4; stroke-opacity:1; fill:none" points="
  243.017,1419.7 261.915,1419.7 
  "/>
<polyline clip-path="url(#clip290)" style="stroke:#000000; stroke-linecap:round; stroke-linejoin:round; stroke-width:4; stroke-opacity:1; fill:none" points="
  243.017,1098.38 261.915,1098.38 
  "/>
<polyline clip-path="url(#clip290)" style="stroke:#000000; stroke-linecap:round; stroke-linejoin:round; stroke-width:4; stroke-opacity:1; fill:none" points="
  243.017,777.05 261.915,777.05 
  "/>
<polyline clip-path="url(#clip290)" style="stroke:#000000; stroke-linecap:round; stroke-linejoin:round; stroke-width:4; stroke-opacity:1; fill:none" points="
  243.017,455.725 261.915,455.725 
  "/>
<polyline clip-path="url(#clip290)" style="stroke:#000000; stroke-linecap:round; stroke-linejoin:round; stroke-width:4; stroke-opacity:1; fill:none" points="
  243.017,134.4 261.915,134.4 
  "/>
<path clip-path="url(#clip290)" d="M101.671 1420.15 L131.346 1420.15 L131.346 1424.09 L101.671 1424.09 L101.671 1420.15 Z" fill="#000000" fill-rule="evenodd" fill-opacity="1" /><path clip-path="url(#clip290)" d="M151.439 1405.5 Q147.828 1405.5 145.999 1409.06 Q144.193 1412.61 144.193 1419.73 Q144.193 1426.84 145.999 1430.41 Q147.828 1433.95 151.439 1433.95 Q155.073 1433.95 156.879 1430.41 Q158.707 1426.84 158.707 1419.73 Q158.707 1412.61 156.879 1409.06 Q155.073 1405.5 151.439 1405.5 M151.439 1401.8 Q157.249 1401.8 160.304 1406.4 Q163.383 1410.99 163.383 1419.73 Q163.383 1428.46 160.304 1433.07 Q157.249 1437.65 151.439 1437.65 Q145.629 1437.65 142.55 1433.07 Q139.494 1428.46 139.494 1419.73 Q139.494 1410.99 142.55 1406.4 Q145.629 1401.8 151.439 1401.8 Z" fill="#000000" fill-rule="evenodd" fill-opacity="1" /><path clip-path="url(#clip290)" d="M171.601 1431.1 L176.485 1431.1 L176.485 1436.98 L171.601 1436.98 L171.601 1431.1 Z" fill="#000000" fill-rule="evenodd" fill-opacity="1" /><path clip-path="url(#clip290)" d="M190.698 1433.05 L207.017 1433.05 L207.017 1436.98 L185.073 1436.98 L185.073 1433.05 Q187.735 1430.29 192.318 1425.66 Q196.925 1421.01 198.105 1419.67 Q200.351 1417.14 201.23 1415.41 Q202.133 1413.65 202.133 1411.96 Q202.133 1409.2 200.189 1407.47 Q198.267 1405.73 195.165 1405.73 Q192.966 1405.73 190.513 1406.49 Q188.082 1407.26 185.304 1408.81 L185.304 1404.09 Q188.128 1402.95 190.582 1402.37 Q193.036 1401.8 195.073 1401.8 Q200.443 1401.8 203.638 1404.48 Q206.832 1407.17 206.832 1411.66 Q206.832 1413.79 206.022 1415.71 Q205.235 1417.61 203.128 1420.2 Q202.55 1420.87 199.448 1424.09 Q196.346 1427.28 190.698 1433.05 Z" fill="#000000" fill-rule="evenodd" fill-opacity="1" /><path clip-path="url(#clip290)" d="M101.3 1098.83 L130.976 1098.83 L130.976 1102.76 L101.3 1102.76 L101.3 1098.83 Z" fill="#000000" fill-rule="evenodd" fill-opacity="1" /><path clip-path="url(#clip290)" d="M151.068 1084.17 Q147.457 1084.17 145.629 1087.74 Q143.823 1091.28 143.823 1098.41 Q143.823 1105.52 145.629 1109.08 Q147.457 1112.62 151.068 1112.62 Q154.703 1112.62 156.508 1109.08 Q158.337 1105.52 158.337 1098.41 Q158.337 1091.28 156.508 1087.74 Q154.703 1084.17 151.068 1084.17 M151.068 1080.47 Q156.879 1080.47 159.934 1085.08 Q163.013 1089.66 163.013 1098.41 Q163.013 1107.14 159.934 1111.74 Q156.879 1116.33 151.068 1116.33 Q145.258 1116.33 142.18 1111.74 Q139.124 1107.14 139.124 1098.41 Q139.124 1089.66 142.18 1085.08 Q145.258 1080.47 151.068 1080.47 Z" fill="#000000" fill-rule="evenodd" fill-opacity="1" /><path clip-path="url(#clip290)" d="M171.23 1109.78 L176.115 1109.78 L176.115 1115.66 L171.23 1115.66 L171.23 1109.78 Z" fill="#000000" fill-rule="evenodd" fill-opacity="1" /><path clip-path="url(#clip290)" d="M187.11 1111.72 L194.749 1111.72 L194.749 1085.35 L186.439 1087.02 L186.439 1082.76 L194.702 1081.1 L199.378 1081.1 L199.378 1111.72 L207.017 1111.72 L207.017 1115.66 L187.11 1115.66 L187.11 1111.72 Z" fill="#000000" fill-rule="evenodd" fill-opacity="1" /><path clip-path="url(#clip290)" d="M149.842 762.849 Q146.23 762.849 144.402 766.414 Q142.596 769.956 142.596 777.085 Q142.596 784.192 144.402 787.756 Q146.23 791.298 149.842 791.298 Q153.476 791.298 155.281 787.756 Q157.11 784.192 157.11 777.085 Q157.11 769.956 155.281 766.414 Q153.476 762.849 149.842 762.849 M149.842 759.145 Q155.652 759.145 158.707 763.752 Q161.786 768.335 161.786 777.085 Q161.786 785.812 158.707 790.418 Q155.652 795.002 149.842 795.002 Q144.031 795.002 140.953 790.418 Q137.897 785.812 137.897 777.085 Q137.897 768.335 140.953 763.752 Q144.031 759.145 149.842 759.145 Z" fill="#000000" fill-rule="evenodd" fill-opacity="1" /><path clip-path="url(#clip290)" d="M170.003 788.451 L174.888 788.451 L174.888 794.33 L170.003 794.33 L170.003 788.451 Z" fill="#000000" fill-rule="evenodd" fill-opacity="1" /><path clip-path="url(#clip290)" d="M195.073 762.849 Q191.462 762.849 189.633 766.414 Q187.827 769.956 187.827 777.085 Q187.827 784.192 189.633 787.756 Q191.462 791.298 195.073 791.298 Q198.707 791.298 200.513 787.756 Q202.341 784.192 202.341 777.085 Q202.341 769.956 200.513 766.414 Q198.707 762.849 195.073 762.849 M195.073 759.145 Q200.883 759.145 203.938 763.752 Q207.017 768.335 207.017 777.085 Q207.017 785.812 203.938 790.418 Q200.883 795.002 195.073 795.002 Q189.263 795.002 186.184 790.418 Q183.128 785.812 183.128 777.085 Q183.128 768.335 186.184 763.752 Q189.263 759.145 195.073 759.145 Z" fill="#000000" fill-rule="evenodd" fill-opacity="1" /><path clip-path="url(#clip290)" d="M151.068 441.524 Q147.457 441.524 145.629 445.089 Q143.823 448.631 143.823 455.76 Q143.823 462.867 145.629 466.431 Q147.457 469.973 151.068 469.973 Q154.703 469.973 156.508 466.431 Q158.337 462.867 158.337 455.76 Q158.337 448.631 156.508 445.089 Q154.703 441.524 151.068 441.524 M151.068 437.82 Q156.879 437.82 159.934 442.427 Q163.013 447.01 163.013 455.76 Q163.013 464.487 159.934 469.093 Q156.879 473.677 151.068 473.677 Q145.258 473.677 142.18 469.093 Q139.124 464.487 139.124 455.76 Q139.124 447.01 142.18 442.427 Q145.258 437.82 151.068 437.82 Z" fill="#000000" fill-rule="evenodd" fill-opacity="1" /><path clip-path="url(#clip290)" d="M171.23 467.126 L176.115 467.126 L176.115 473.005 L171.23 473.005 L171.23 467.126 Z" fill="#000000" fill-rule="evenodd" fill-opacity="1" /><path clip-path="url(#clip290)" d="M187.11 469.07 L194.749 469.07 L194.749 442.705 L186.439 444.371 L186.439 440.112 L194.702 438.445 L199.378 438.445 L199.378 469.07 L207.017 469.07 L207.017 473.005 L187.11 473.005 L187.11 469.07 Z" fill="#000000" fill-rule="evenodd" fill-opacity="1" /><path clip-path="url(#clip290)" d="M151.439 120.199 Q147.828 120.199 145.999 123.764 Q144.193 127.306 144.193 134.435 Q144.193 141.542 145.999 145.106 Q147.828 148.648 151.439 148.648 Q155.073 148.648 156.879 145.106 Q158.707 141.542 158.707 134.435 Q158.707 127.306 156.879 123.764 Q155.073 120.199 151.439 120.199 M151.439 116.495 Q157.249 116.495 160.304 121.102 Q163.383 125.685 163.383 134.435 Q163.383 143.162 160.304 147.768 Q157.249 152.352 151.439 152.352 Q145.629 152.352 142.55 147.768 Q139.494 143.162 139.494 134.435 Q139.494 125.685 142.55 121.102 Q145.629 116.495 151.439 116.495 Z" fill="#000000" fill-rule="evenodd" fill-opacity="1" /><path clip-path="url(#clip290)" d="M171.601 145.801 L176.485 145.801 L176.485 151.68 L171.601 151.68 L171.601 145.801 Z" fill="#000000" fill-rule="evenodd" fill-opacity="1" /><path clip-path="url(#clip290)" d="M190.698 147.745 L207.017 147.745 L207.017 151.68 L185.073 151.68 L185.073 147.745 Q187.735 144.991 192.318 140.361 Q196.925 135.708 198.105 134.366 Q200.351 131.843 201.23 130.107 Q202.133 128.347 202.133 126.657 Q202.133 123.903 200.189 122.167 Q198.267 120.431 195.165 120.431 Q192.966 120.431 190.513 121.195 Q188.082 121.958 185.304 123.509 L185.304 118.787 Q188.128 117.653 190.582 117.074 Q193.036 116.495 195.073 116.495 Q200.443 116.495 203.638 119.181 Q206.832 121.866 206.832 126.357 Q206.832 128.486 206.022 130.407 Q205.235 132.306 203.128 134.898 Q202.55 135.569 199.448 138.787 Q196.346 141.981 190.698 147.745 Z" fill="#000000" fill-rule="evenodd" fill-opacity="1" /><path clip-path="url(#clip290)" d="M24.2147 1412.82 L51.0896 1412.82 L51.0896 1407.17 Q51.0896 1400.01 47.8489 1396.7 Q44.6081 1393.37 37.6174 1393.37 Q30.673 1393.37 27.4555 1396.7 Q24.2147 1400.01 24.2147 1407.17 L24.2147 1412.82 M20.3722 1417.49 L20.3722 1407.89 Q20.3722 1397.84 24.5619 1393.14 Q28.7286 1388.44 37.6174 1388.44 Q46.5526 1388.44 50.7424 1393.16 Q54.9322 1397.89 54.9322 1407.89 L54.9322 1417.49 L20.3722 1417.49 Z" fill="#000000" fill-rule="evenodd" fill-opacity="1" /><path clip-path="url(#clip290)" d="M40.9045 1359 L42.9878 1359 L42.9878 1378.58 Q47.3859 1378.3 49.7007 1375.94 Q51.9924 1373.56 51.9924 1369.32 Q51.9924 1366.87 51.3905 1364.58 Q50.7887 1362.26 49.585 1359.99 L53.6127 1359.99 Q54.5849 1362.28 55.0942 1364.69 Q55.6035 1367.1 55.6035 1369.58 Q55.6035 1375.78 51.9924 1379.41 Q48.3813 1383.02 42.2239 1383.02 Q35.8582 1383.02 32.1314 1379.6 Q28.3814 1376.15 28.3814 1370.32 Q28.3814 1365.08 31.761 1362.05 Q35.1174 1359 40.9045 1359 M39.6545 1363.26 Q36.1591 1363.3 34.0758 1365.22 Q31.9925 1367.12 31.9925 1370.27 Q31.9925 1373.83 34.0063 1375.99 Q36.0202 1378.12 39.6776 1378.44 L39.6545 1363.26 Z" fill="#000000" fill-rule="evenodd" fill-opacity="1" /><path clip-path="url(#clip290)" d="M29.0064 1355.06 L29.0064 1350.55 L50.7655 1342.45 L29.0064 1334.34 L29.0064 1329.83 L54.9322 1339.55 L54.9322 1345.34 L29.0064 1355.06 Z" fill="#000000" fill-rule="evenodd" fill-opacity="1" /><path clip-path="url(#clip290)" d="M29.0064 1323.95 L29.0064 1319.69 L54.9322 1319.69 L54.9322 1323.95 L29.0064 1323.95 M18.9138 1323.95 L18.9138 1319.69 L24.3073 1319.69 L24.3073 1323.95 L18.9138 1323.95 Z" fill="#000000" fill-rule="evenodd" fill-opacity="1" /><path clip-path="url(#clip290)" d="M41.8998 1299 Q41.8998 1304.16 43.0804 1306.15 Q44.2609 1308.14 47.1081 1308.14 Q49.3766 1308.14 50.7192 1306.66 Q52.0387 1305.15 52.0387 1302.58 Q52.0387 1299.04 49.5387 1296.91 Q47.0155 1294.76 42.8489 1294.76 L41.8998 1294.76 L41.8998 1299 M40.1406 1290.5 L54.9322 1290.5 L54.9322 1294.76 L50.997 1294.76 Q53.3581 1296.22 54.4923 1298.39 Q55.6035 1300.57 55.6035 1303.72 Q55.6035 1307.7 53.3812 1310.06 Q51.1359 1312.4 47.3859 1312.4 Q43.0109 1312.4 40.7887 1309.48 Q38.5665 1306.54 38.5665 1300.73 L38.5665 1294.76 L38.1498 1294.76 Q35.21 1294.76 33.6128 1296.71 Q31.9925 1298.63 31.9925 1302.12 Q31.9925 1304.34 32.5249 1306.45 Q33.0573 1308.56 34.1221 1310.5 L30.1869 1310.5 Q29.2841 1308.16 28.8443 1305.96 Q28.3814 1303.77 28.3814 1301.68 Q28.3814 1296.06 31.298 1293.28 Q34.2147 1290.5 40.1406 1290.5 Z" fill="#000000" fill-rule="evenodd" fill-opacity="1" /><path clip-path="url(#clip290)" d="M21.6453 1277.52 L29.0064 1277.52 L29.0064 1268.74 L32.3165 1268.74 L32.3165 1277.52 L46.3905 1277.52 Q49.5618 1277.52 50.4646 1276.66 Q51.3674 1275.78 51.3674 1273.12 L51.3674 1268.74 L54.9322 1268.74 L54.9322 1273.12 Q54.9322 1278.05 53.1035 1279.92 Q51.2516 1281.8 46.3905 1281.8 L32.3165 1281.8 L32.3165 1284.92 L29.0064 1284.92 L29.0064 1281.8 L21.6453 1281.8 L21.6453 1277.52 Z" fill="#000000" fill-rule="evenodd" fill-opacity="1" /><path clip-path="url(#clip290)" d="M29.0064 1263.14 L29.0064 1258.88 L54.9322 1258.88 L54.9322 1263.14 L29.0064 1263.14 M18.9138 1263.14 L18.9138 1258.88 L24.3073 1258.88 L24.3073 1263.14 L18.9138 1263.14 Z" fill="#000000" fill-rule="evenodd" fill-opacity="1" /><path clip-path="url(#clip290)" d="M31.9925 1239.92 Q31.9925 1243.35 34.6776 1245.34 Q37.3397 1247.33 41.9924 1247.33 Q46.6452 1247.33 49.3303 1245.36 Q51.9924 1243.37 51.9924 1239.92 Q51.9924 1236.52 49.3072 1234.53 Q46.622 1232.54 41.9924 1232.54 Q37.386 1232.54 34.7008 1234.53 Q31.9925 1236.52 31.9925 1239.92 M28.3814 1239.92 Q28.3814 1234.37 31.9925 1231.2 Q35.6036 1228.02 41.9924 1228.02 Q48.3581 1228.02 51.9924 1231.2 Q55.6035 1234.37 55.6035 1239.92 Q55.6035 1245.5 51.9924 1248.67 Q48.3581 1251.82 41.9924 1251.82 Q35.6036 1251.82 31.9925 1248.67 Q28.3814 1245.5 28.3814 1239.92 Z" fill="#000000" fill-rule="evenodd" fill-opacity="1" /><path clip-path="url(#clip290)" d="M39.2841 1199.41 L54.9322 1199.41 L54.9322 1203.67 L39.423 1203.67 Q35.7424 1203.67 33.9138 1205.11 Q32.0851 1206.54 32.0851 1209.41 Q32.0851 1212.86 34.2841 1214.85 Q36.4832 1216.84 40.2795 1216.84 L54.9322 1216.84 L54.9322 1221.13 L29.0064 1221.13 L29.0064 1216.84 L33.0341 1216.84 Q30.6962 1215.32 29.5388 1213.26 Q28.3814 1211.17 28.3814 1208.46 Q28.3814 1204 31.1591 1201.71 Q33.9138 1199.41 39.2841 1199.41 Z" fill="#000000" fill-rule="evenodd" fill-opacity="1" /><path clip-path="url(#clip290)" d="M31.9925 1165.8 Q31.9925 1169.23 34.6776 1171.22 Q37.3397 1173.21 41.9924 1173.21 Q46.6452 1173.21 49.3303 1171.24 Q51.9924 1169.25 51.9924 1165.8 Q51.9924 1162.4 49.3072 1160.41 Q46.622 1158.42 41.9924 1158.42 Q37.386 1158.42 34.7008 1160.41 Q31.9925 1162.4 31.9925 1165.8 M28.3814 1165.8 Q28.3814 1160.25 31.9925 1157.08 Q35.6036 1153.9 41.9924 1153.9 Q48.3581 1153.9 51.9924 1157.08 Q55.6035 1160.25 55.6035 1165.8 Q55.6035 1171.38 51.9924 1174.55 Q48.3581 1177.7 41.9924 1177.7 Q35.6036 1177.7 31.9925 1174.55 Q28.3814 1171.38 28.3814 1165.8 Z" fill="#000000" fill-rule="evenodd" fill-opacity="1" /><path clip-path="url(#clip290)" d="M18.9138 1133.72 L22.4555 1133.72 L22.4555 1137.79 Q22.4555 1140.09 23.3814 1140.99 Q24.3073 1141.87 26.7147 1141.87 L29.0064 1141.87 L29.0064 1134.85 L32.3165 1134.85 L32.3165 1141.87 L54.9322 1141.87 L54.9322 1146.15 L32.3165 1146.15 L32.3165 1150.22 L29.0064 1150.22 L29.0064 1146.15 L27.2008 1146.15 Q22.8721 1146.15 20.9046 1144.14 Q18.9138 1142.12 18.9138 1137.75 L18.9138 1133.72 Z" fill="#000000" fill-rule="evenodd" fill-opacity="1" /><path clip-path="url(#clip290)" d="M41.8998 1103.3 Q41.8998 1108.47 43.0804 1110.46 Q44.2609 1112.45 47.1081 1112.45 Q49.3766 1112.45 50.7192 1110.97 Q52.0387 1109.46 52.0387 1106.89 Q52.0387 1103.35 49.5387 1101.22 Q47.0155 1099.07 42.8489 1099.07 L41.8998 1099.07 L41.8998 1103.3 M40.1406 1094.81 L54.9322 1094.81 L54.9322 1099.07 L50.997 1099.07 Q53.3581 1100.53 54.4923 1102.7 Q55.6035 1104.88 55.6035 1108.03 Q55.6035 1112.01 53.3812 1114.37 Q51.1359 1116.71 47.3859 1116.71 Q43.0109 1116.71 40.7887 1113.79 Q38.5665 1110.85 38.5665 1105.04 L38.5665 1099.07 L38.1498 1099.07 Q35.21 1099.07 33.6128 1101.01 Q31.9925 1102.93 31.9925 1106.43 Q31.9925 1108.65 32.5249 1110.76 Q33.0573 1112.86 34.1221 1114.81 L30.1869 1114.81 Q29.2841 1112.47 28.8443 1110.27 Q28.3814 1108.07 28.3814 1105.99 Q28.3814 1100.36 31.298 1097.59 Q34.2147 1094.81 40.1406 1094.81 Z" fill="#000000" fill-rule="evenodd" fill-opacity="1" /><path clip-path="url(#clip290)" d="M29.0064 1089.09 L29.0064 1084.58 L50.7655 1076.47 L29.0064 1068.37 L29.0064 1063.86 L54.9322 1073.58 L54.9322 1079.37 L29.0064 1089.09 Z" fill="#000000" fill-rule="evenodd" fill-opacity="1" /><path clip-path="url(#clip290)" d="M40.9045 1035.8 L42.9878 1035.8 L42.9878 1055.39 Q47.3859 1055.11 49.7007 1052.75 Q51.9924 1050.36 51.9924 1046.13 Q51.9924 1043.67 51.3905 1041.38 Q50.7887 1039.07 49.585 1036.8 L53.6127 1036.8 Q54.5849 1039.09 55.0942 1041.5 Q55.6035 1043.91 55.6035 1046.38 Q55.6035 1052.59 51.9924 1056.22 Q48.3813 1059.83 42.2239 1059.83 Q35.8582 1059.83 32.1314 1056.41 Q28.3814 1052.96 28.3814 1047.12 Q28.3814 1041.89 31.761 1038.86 Q35.1174 1035.8 40.9045 1035.8 M39.6545 1040.06 Q36.1591 1040.11 34.0758 1042.03 Q31.9925 1043.93 31.9925 1047.08 Q31.9925 1050.64 34.0063 1052.79 Q36.0202 1054.92 39.6776 1055.25 L39.6545 1040.06 Z" fill="#000000" fill-rule="evenodd" fill-opacity="1" /><path clip-path="url(#clip290)" d="M32.9878 1013.79 Q32.5712 1014.51 32.386 1015.36 Q32.1776 1016.2 32.1776 1017.22 Q32.1776 1020.83 34.5387 1022.77 Q36.8767 1024.69 41.2748 1024.69 L54.9322 1024.69 L54.9322 1028.98 L29.0064 1028.98 L29.0064 1024.69 L33.0341 1024.69 Q30.673 1023.35 29.5388 1021.2 Q28.3814 1019.04 28.3814 1015.97 Q28.3814 1015.53 28.4508 1014.99 Q28.4971 1014.46 28.6129 1013.81 L32.9878 1013.79 Z" fill="#000000" fill-rule="evenodd" fill-opacity="1" /><path clip-path="url(#clip290)" d="M41.8998 997.54 Q41.8998 1002.7 43.0804 1004.69 Q44.2609 1006.68 47.1081 1006.68 Q49.3766 1006.68 50.7192 1005.2 Q52.0387 1003.7 52.0387 1001.13 Q52.0387 997.586 49.5387 995.457 Q47.0155 993.304 42.8489 993.304 L41.8998 993.304 L41.8998 997.54 M40.1406 989.045 L54.9322 989.045 L54.9322 993.304 L50.997 993.304 Q53.3581 994.762 54.4923 996.938 Q55.6035 999.114 55.6035 1002.26 Q55.6035 1006.24 53.3812 1008.6 Q51.1359 1010.94 47.3859 1010.94 Q43.0109 1010.94 40.7887 1008.03 Q38.5665 1005.09 38.5665 999.276 L38.5665 993.304 L38.1498 993.304 Q35.21 993.304 33.6128 995.248 Q31.9925 997.17 31.9925 1000.66 Q31.9925 1002.89 32.5249 1004.99 Q33.0573 1007.1 34.1221 1009.04 L30.1869 1009.04 Q29.2841 1006.71 28.8443 1004.51 Q28.3814 1002.31 28.3814 1000.23 Q28.3814 994.6 31.298 991.822 Q34.2147 989.045 40.1406 989.045 Z" fill="#000000" fill-rule="evenodd" fill-opacity="1" /><path clip-path="url(#clip290)" d="M41.6683 963.211 Q37.0387 963.211 34.4925 965.133 Q31.9462 967.031 31.9462 970.48 Q31.9462 973.906 34.4925 975.827 Q37.0387 977.725 41.6683 977.725 Q46.2748 977.725 48.8211 975.827 Q51.3674 973.906 51.3674 970.48 Q51.3674 967.031 48.8211 965.133 Q46.2748 963.211 41.6683 963.211 M51.7146 958.952 Q58.3349 958.952 61.5525 961.892 Q64.7932 964.832 64.7932 970.897 Q64.7932 973.142 64.446 975.133 Q64.1219 977.123 63.4275 978.998 L59.284 978.998 Q60.3025 977.123 60.7886 975.295 Q61.2747 973.466 61.2747 971.568 Q61.2747 967.378 59.0757 965.295 Q56.8997 963.211 52.4785 963.211 L50.372 963.211 Q52.6637 964.531 53.7979 966.591 Q54.9322 968.651 54.9322 971.522 Q54.9322 976.29 51.2979 979.207 Q47.6637 982.123 41.6683 982.123 Q35.6499 982.123 32.0156 979.207 Q28.3814 976.29 28.3814 971.522 Q28.3814 968.651 29.5156 966.591 Q30.6499 964.531 32.9415 963.211 L29.0064 963.211 L29.0064 958.952 L51.7146 958.952 Z" fill="#000000" fill-rule="evenodd" fill-opacity="1" /><path clip-path="url(#clip290)" d="M40.9045 928.003 L42.9878 928.003 L42.9878 947.587 Q47.3859 947.309 49.7007 944.948 Q51.9924 942.563 51.9924 938.327 Q51.9924 935.874 51.3905 933.582 Q50.7887 931.267 49.585 928.999 L53.6127 928.999 Q54.5849 931.29 55.0942 933.698 Q55.6035 936.105 55.6035 938.582 Q55.6035 944.786 51.9924 948.42 Q48.3813 952.031 42.2239 952.031 Q35.8582 952.031 32.1314 948.605 Q28.3814 945.156 28.3814 939.323 Q28.3814 934.091 31.761 931.059 Q35.1174 928.003 40.9045 928.003 M39.6545 932.263 Q36.1591 932.309 34.0758 934.23 Q31.9925 936.128 31.9925 939.276 Q31.9925 942.841 34.0063 944.994 Q36.0202 947.124 39.6776 947.448 L39.6545 932.263 Z" fill="#000000" fill-rule="evenodd" fill-opacity="1" /><path clip-path="url(#clip290)" d="M51.0433 901.823 L64.7932 901.823 L64.7932 906.105 L29.0064 906.105 L29.0064 901.823 L32.9415 901.823 Q30.6267 900.48 29.5156 898.443 Q28.3814 896.383 28.3814 893.536 Q28.3814 888.814 32.1314 885.874 Q35.8813 882.911 41.9924 882.911 Q48.1035 882.911 51.8535 885.874 Q55.6035 888.814 55.6035 893.536 Q55.6035 896.383 54.4923 898.443 Q53.3581 900.48 51.0433 901.823 M41.9924 887.332 Q37.2934 887.332 34.6313 889.277 Q31.9462 891.198 31.9462 894.578 Q31.9462 897.957 34.6313 899.902 Q37.2934 901.823 41.9924 901.823 Q46.6915 901.823 49.3766 899.902 Q52.0387 897.957 52.0387 894.578 Q52.0387 891.198 49.3766 889.277 Q46.6915 887.332 41.9924 887.332 Z" fill="#000000" fill-rule="evenodd" fill-opacity="1" /><path clip-path="url(#clip290)" d="M41.8998 864.068 Q41.8998 869.23 43.0804 871.221 Q44.2609 873.212 47.1081 873.212 Q49.3766 873.212 50.7192 871.73 Q52.0387 870.226 52.0387 867.656 Q52.0387 864.115 49.5387 861.985 Q47.0155 859.832 42.8489 859.832 L41.8998 859.832 L41.8998 864.068 M40.1406 855.573 L54.9322 855.573 L54.9322 859.832 L50.997 859.832 Q53.3581 861.291 54.4923 863.467 Q55.6035 865.643 55.6035 868.791 Q55.6035 872.772 53.3812 875.133 Q51.1359 877.471 47.3859 877.471 Q43.0109 877.471 40.7887 874.555 Q38.5665 871.615 38.5665 865.805 L38.5665 859.832 L38.1498 859.832 Q35.21 859.832 33.6128 861.777 Q31.9925 863.698 31.9925 867.193 Q31.9925 869.416 32.5249 871.522 Q33.0573 873.629 34.1221 875.573 L30.1869 875.573 Q29.2841 873.235 28.8443 871.036 Q28.3814 868.837 28.3814 866.754 Q28.3814 861.129 31.298 858.351 Q34.2147 855.573 40.1406 855.573 Z" fill="#000000" fill-rule="evenodd" fill-opacity="1" /><path clip-path="url(#clip290)" d="M32.9878 831.777 Q32.5712 832.495 32.386 833.351 Q32.1776 834.184 32.1776 835.203 Q32.1776 838.814 34.5387 840.758 Q36.8767 842.68 41.2748 842.68 L54.9322 842.68 L54.9322 846.962 L29.0064 846.962 L29.0064 842.68 L33.0341 842.68 Q30.673 841.337 29.5388 839.184 Q28.3814 837.032 28.3814 833.953 Q28.3814 833.513 28.4508 832.981 Q28.4971 832.448 28.6129 831.8 L32.9878 831.777 Z" fill="#000000" fill-rule="evenodd" fill-opacity="1" /><path clip-path="url(#clip290)" d="M41.8998 815.527 Q41.8998 820.689 43.0804 822.68 Q44.2609 824.671 47.1081 824.671 Q49.3766 824.671 50.7192 823.189 Q52.0387 821.684 52.0387 819.115 Q52.0387 815.573 49.5387 813.444 Q47.0155 811.291 42.8489 811.291 L41.8998 811.291 L41.8998 815.527 M40.1406 807.032 L54.9322 807.032 L54.9322 811.291 L50.997 811.291 Q53.3581 812.749 54.4923 814.925 Q55.6035 817.101 55.6035 820.249 Q55.6035 824.231 53.3812 826.592 Q51.1359 828.93 47.3859 828.93 Q43.0109 828.93 40.7887 826.013 Q38.5665 823.073 38.5665 817.263 L38.5665 811.291 L38.1498 811.291 Q35.21 811.291 33.6128 813.235 Q31.9925 815.157 31.9925 818.652 Q31.9925 820.874 32.5249 822.981 Q33.0573 825.087 34.1221 827.032 L30.1869 827.032 Q29.2841 824.694 28.8443 822.495 Q28.3814 820.296 28.3814 818.212 Q28.3814 812.587 31.298 809.81 Q34.2147 807.032 40.1406 807.032 Z" fill="#000000" fill-rule="evenodd" fill-opacity="1" /><path clip-path="url(#clip290)" d="M33.9832 778.074 Q31.1128 776.476 29.7471 774.254 Q28.3814 772.032 28.3814 769.023 Q28.3814 764.972 31.2286 762.773 Q34.0526 760.574 39.2841 760.574 L54.9322 760.574 L54.9322 764.856 L39.423 764.856 Q35.6961 764.856 33.8906 766.175 Q32.0851 767.495 32.0851 770.203 Q32.0851 773.513 34.2841 775.435 Q36.4832 777.356 40.2795 777.356 L54.9322 777.356 L54.9322 781.638 L39.423 781.638 Q35.673 781.638 33.8906 782.958 Q32.0851 784.277 32.0851 787.032 Q32.0851 790.296 34.3073 792.217 Q36.5063 794.138 40.2795 794.138 L54.9322 794.138 L54.9322 798.421 L29.0064 798.421 L29.0064 794.138 L33.0341 794.138 Q30.6499 792.68 29.5156 790.643 Q28.3814 788.606 28.3814 785.805 Q28.3814 782.981 29.8166 781.013 Q31.2517 779.023 33.9832 778.074 Z" fill="#000000" fill-rule="evenodd" fill-opacity="1" /><path clip-path="url(#clip290)" d="M40.9045 729.903 L42.9878 729.903 L42.9878 749.486 Q47.3859 749.208 49.7007 746.847 Q51.9924 744.463 51.9924 740.227 Q51.9924 737.773 51.3905 735.481 Q50.7887 733.166 49.585 730.898 L53.6127 730.898 Q54.5849 733.19 55.0942 735.597 Q55.6035 738.004 55.6035 740.481 Q55.6035 746.685 51.9924 750.319 Q48.3813 753.93 42.2239 753.93 Q35.8582 753.93 32.1314 750.504 Q28.3814 747.055 28.3814 741.222 Q28.3814 735.99 31.761 732.958 Q35.1174 729.903 40.9045 729.903 M39.6545 734.162 Q36.1591 734.208 34.0758 736.129 Q31.9925 738.027 31.9925 741.176 Q31.9925 744.74 34.0063 746.893 Q36.0202 749.023 39.6776 749.347 L39.6545 734.162 Z" fill="#000000" fill-rule="evenodd" fill-opacity="1" /><path clip-path="url(#clip290)" d="M21.6453 718.699 L29.0064 718.699 L29.0064 709.926 L32.3165 709.926 L32.3165 718.699 L46.3905 718.699 Q49.5618 718.699 50.4646 717.842 Q51.3674 716.963 51.3674 714.301 L51.3674 709.926 L54.9322 709.926 L54.9322 714.301 Q54.9322 719.231 53.1035 721.106 Q51.2516 722.981 46.3905 722.981 L32.3165 722.981 L32.3165 726.106 L29.0064 726.106 L29.0064 722.981 L21.6453 722.981 L21.6453 718.699 Z" fill="#000000" fill-rule="evenodd" fill-opacity="1" /><path clip-path="url(#clip290)" d="M40.9045 682.148 L42.9878 682.148 L42.9878 701.731 Q47.3859 701.454 49.7007 699.093 Q51.9924 696.708 51.9924 692.472 Q51.9924 690.018 51.3905 687.727 Q50.7887 685.412 49.585 683.144 L53.6127 683.144 Q54.5849 685.435 55.0942 687.843 Q55.6035 690.25 55.6035 692.727 Q55.6035 698.93 51.9924 702.565 Q48.3813 706.176 42.2239 706.176 Q35.8582 706.176 32.1314 702.75 Q28.3814 699.301 28.3814 693.468 Q28.3814 688.236 31.761 685.204 Q35.1174 682.148 40.9045 682.148 M39.6545 686.407 Q36.1591 686.454 34.0758 688.375 Q31.9925 690.273 31.9925 693.421 Q31.9925 696.986 34.0063 699.139 Q36.0202 701.268 39.6776 701.592 L39.6545 686.407 Z" fill="#000000" fill-rule="evenodd" fill-opacity="1" /><path clip-path="url(#clip290)" d="M32.9878 660.134 Q32.5712 660.852 32.386 661.708 Q32.1776 662.542 32.1776 663.56 Q32.1776 667.171 34.5387 669.116 Q36.8767 671.037 41.2748 671.037 L54.9322 671.037 L54.9322 675.319 L29.0064 675.319 L29.0064 671.037 L33.0341 671.037 Q30.673 669.695 29.5388 667.542 Q28.3814 665.389 28.3814 662.31 Q28.3814 661.87 28.4508 661.338 Q28.4971 660.806 28.6129 660.158 L32.9878 660.134 Z" fill="#000000" fill-rule="evenodd" fill-opacity="1" /><path clip-path="url(#clip290)" d="M29.7703 639.139 L33.798 639.139 Q32.8721 640.945 32.4091 642.889 Q31.9462 644.834 31.9462 646.917 Q31.9462 650.088 32.9184 651.685 Q33.8906 653.259 35.835 653.259 Q37.3165 653.259 38.173 652.125 Q39.0063 650.991 39.7702 647.565 L40.0943 646.107 Q41.0665 641.57 42.8489 639.672 Q44.6081 637.75 47.7794 637.75 Q51.3905 637.75 53.497 640.621 Q55.6035 643.468 55.6035 648.468 Q55.6035 650.551 55.1868 652.82 Q54.7933 655.065 53.9831 657.565 L49.585 657.565 Q50.8118 655.204 51.4368 652.912 Q52.0387 650.621 52.0387 648.375 Q52.0387 645.366 51.0201 643.746 Q49.9785 642.125 48.1035 642.125 Q46.3674 642.125 45.4415 643.306 Q44.5155 644.463 43.6591 648.421 L43.3118 649.903 Q42.4785 653.861 40.7656 655.621 Q39.0295 657.38 36.0202 657.38 Q32.3628 657.38 30.3721 654.787 Q28.3814 652.195 28.3814 647.426 Q28.3814 645.065 28.7286 642.982 Q29.0758 640.898 29.7703 639.139 Z" fill="#000000" fill-rule="evenodd" fill-opacity="1" /><path clip-path="url(#clip290)" d="M18.9138 602.774 L22.4555 602.774 L22.4555 606.848 Q22.4555 609.139 23.3814 610.042 Q24.3073 610.922 26.7147 610.922 L29.0064 610.922 L29.0064 603.908 L32.3165 603.908 L32.3165 610.922 L54.9322 610.922 L54.9322 615.204 L32.3165 615.204 L32.3165 619.278 L29.0064 619.278 L29.0064 615.204 L27.2008 615.204 Q22.8721 615.204 20.9046 613.19 Q18.9138 611.176 18.9138 606.801 L18.9138 602.774 Z" fill="#000000" fill-rule="evenodd" fill-opacity="1" /><path clip-path="url(#clip290)" d="M32.9878 584.186 Q32.5712 584.903 32.386 585.76 Q32.1776 586.593 32.1776 587.612 Q32.1776 591.223 34.5387 593.167 Q36.8767 595.088 41.2748 595.088 L54.9322 595.088 L54.9322 599.371 L29.0064 599.371 L29.0064 595.088 L33.0341 595.088 Q30.673 593.746 29.5388 591.593 Q28.3814 589.44 28.3814 586.362 Q28.3814 585.922 28.4508 585.389 Q28.4971 584.857 28.6129 584.209 L32.9878 584.186 Z" fill="#000000" fill-rule="evenodd" fill-opacity="1" /><path clip-path="url(#clip290)" d="M31.9925 570.714 Q31.9925 574.139 34.6776 576.13 Q37.3397 578.121 41.9924 578.121 Q46.6452 578.121 49.3303 576.153 Q51.9924 574.163 51.9924 570.714 Q51.9924 567.311 49.3072 565.32 Q46.622 563.329 41.9924 563.329 Q37.386 563.329 34.7008 565.32 Q31.9925 567.311 31.9925 570.714 M28.3814 570.714 Q28.3814 565.158 31.9925 561.987 Q35.6036 558.815 41.9924 558.815 Q48.3581 558.815 51.9924 561.987 Q55.6035 565.158 55.6035 570.714 Q55.6035 576.292 51.9924 579.464 Q48.3581 582.612 41.9924 582.612 Q35.6036 582.612 31.9925 579.464 Q28.3814 576.292 28.3814 570.714 Z" fill="#000000" fill-rule="evenodd" fill-opacity="1" /><path clip-path="url(#clip290)" d="M33.9832 531.57 Q31.1128 529.973 29.7471 527.751 Q28.3814 525.529 28.3814 522.519 Q28.3814 518.468 31.2286 516.269 Q34.0526 514.07 39.2841 514.07 L54.9322 514.07 L54.9322 518.353 L39.423 518.353 Q35.6961 518.353 33.8906 519.672 Q32.0851 520.992 32.0851 523.7 Q32.0851 527.01 34.2841 528.931 Q36.4832 530.853 40.2795 530.853 L54.9322 530.853 L54.9322 535.135 L39.423 535.135 Q35.673 535.135 33.8906 536.454 Q32.0851 537.774 32.0851 540.529 Q32.0851 543.792 34.3073 545.714 Q36.5063 547.635 40.2795 547.635 L54.9322 547.635 L54.9322 551.917 L29.0064 551.917 L29.0064 547.635 L33.0341 547.635 Q30.6499 546.177 29.5156 544.14 Q28.3814 542.103 28.3814 539.302 Q28.3814 536.478 29.8166 534.51 Q31.2517 532.519 33.9832 531.57 Z" fill="#000000" fill-rule="evenodd" fill-opacity="1" /><path clip-path="url(#clip290)" d="M40.9045 468.33 L42.9878 468.33 L42.9878 487.913 Q47.3859 487.635 49.7007 485.274 Q51.9924 482.89 51.9924 478.654 Q51.9924 476.2 51.3905 473.909 Q50.7887 471.594 49.585 469.325 L53.6127 469.325 Q54.5849 471.617 55.0942 474.024 Q55.6035 476.432 55.6035 478.909 Q55.6035 485.112 51.9924 488.746 Q48.3813 492.358 42.2239 492.358 Q35.8582 492.358 32.1314 488.932 Q28.3814 485.483 28.3814 479.649 Q28.3814 474.418 31.761 471.385 Q35.1174 468.33 40.9045 468.33 M39.6545 472.589 Q36.1591 472.635 34.0758 474.557 Q31.9925 476.455 31.9925 479.603 Q31.9925 483.168 34.0063 485.321 Q36.0202 487.45 39.6776 487.774 L39.6545 472.589 Z" fill="#000000" fill-rule="evenodd" fill-opacity="1" /><path clip-path="url(#clip290)" d="M29.0064 440.622 L41.622 449.997 L54.9322 440.136 L54.9322 445.159 L44.747 452.705 L54.9322 460.251 L54.9322 465.274 L41.3674 455.205 L29.0064 464.418 L29.0064 459.395 L38.2424 452.52 L29.0064 445.645 L29.0064 440.622 Z" fill="#000000" fill-rule="evenodd" fill-opacity="1" /><path clip-path="url(#clip290)" d="M51.0433 429.997 L64.7932 429.997 L64.7932 434.279 L29.0064 434.279 L29.0064 429.997 L32.9415 429.997 Q30.6267 428.654 29.5156 426.617 Q28.3814 424.557 28.3814 421.71 Q28.3814 416.988 32.1314 414.048 Q35.8813 411.085 41.9924 411.085 Q48.1035 411.085 51.8535 414.048 Q55.6035 416.988 55.6035 421.71 Q55.6035 424.557 54.4923 426.617 Q53.3581 428.654 51.0433 429.997 M41.9924 415.506 Q37.2934 415.506 34.6313 417.451 Q31.9462 419.372 31.9462 422.751 Q31.9462 426.131 34.6313 428.075 Q37.2934 429.997 41.9924 429.997 Q46.6915 429.997 49.3766 428.075 Q52.0387 426.131 52.0387 422.751 Q52.0387 419.372 49.3766 417.451 Q46.6915 415.506 41.9924 415.506 Z" fill="#000000" fill-rule="evenodd" fill-opacity="1" /><path clip-path="url(#clip290)" d="M40.9045 381.849 L42.9878 381.849 L42.9878 401.432 Q47.3859 401.154 49.7007 398.793 Q51.9924 396.409 51.9924 392.173 Q51.9924 389.719 51.3905 387.428 Q50.7887 385.113 49.585 382.844 L53.6127 382.844 Q54.5849 385.136 55.0942 387.543 Q55.6035 389.951 55.6035 392.427 Q55.6035 398.631 51.9924 402.265 Q48.3813 405.876 42.2239 405.876 Q35.8582 405.876 32.1314 402.451 Q28.3814 399.002 28.3814 393.168 Q28.3814 387.937 31.761 384.904 Q35.1174 381.849 40.9045 381.849 M39.6545 386.108 Q36.1591 386.154 34.0758 388.076 Q31.9925 389.974 31.9925 393.122 Q31.9925 396.687 34.0063 398.839 Q36.0202 400.969 39.6776 401.293 L39.6545 386.108 Z" fill="#000000" fill-rule="evenodd" fill-opacity="1" /><path clip-path="url(#clip290)" d="M30.0017 356.201 L33.9832 356.201 Q32.9878 358.006 32.5017 359.835 Q31.9925 361.641 31.9925 363.492 Q31.9925 367.636 34.6313 369.928 Q37.2471 372.219 41.9924 372.219 Q46.7378 372.219 49.3766 369.928 Q51.9924 367.636 51.9924 363.492 Q51.9924 361.641 51.5062 359.835 Q50.997 358.006 50.0016 356.201 L53.9368 356.201 Q54.7701 357.983 55.1868 359.905 Q55.6035 361.803 55.6035 363.955 Q55.6035 369.812 51.9229 373.261 Q48.2424 376.71 41.9924 376.71 Q35.6499 376.71 32.0156 373.238 Q28.3814 369.742 28.3814 363.678 Q28.3814 361.71 28.798 359.835 Q29.1916 357.96 30.0017 356.201 Z" fill="#000000" fill-rule="evenodd" fill-opacity="1" /><path clip-path="url(#clip290)" d="M21.6453 344.581 L29.0064 344.581 L29.0064 335.807 L32.3165 335.807 L32.3165 344.581 L46.3905 344.581 Q49.5618 344.581 50.4646 343.724 Q51.3674 342.844 51.3674 340.182 L51.3674 335.807 L54.9322 335.807 L54.9322 340.182 Q54.9322 345.113 53.1035 346.988 Q51.2516 348.863 46.3905 348.863 L32.3165 348.863 L32.3165 351.988 L29.0064 351.988 L29.0064 348.863 L21.6453 348.863 L21.6453 344.581 Z" fill="#000000" fill-rule="evenodd" fill-opacity="1" /><path clip-path="url(#clip290)" d="M41.8998 318.423 Q41.8998 323.585 43.0804 325.576 Q44.2609 327.567 47.1081 327.567 Q49.3766 327.567 50.7192 326.085 Q52.0387 324.581 52.0387 322.011 Q52.0387 318.47 49.5387 316.34 Q47.0155 314.187 42.8489 314.187 L41.8998 314.187 L41.8998 318.423 M40.1406 309.928 L54.9322 309.928 L54.9322 314.187 L50.997 314.187 Q53.3581 315.645 54.4923 317.821 Q55.6035 319.997 55.6035 323.145 Q55.6035 327.127 53.3812 329.488 Q51.1359 331.826 47.3859 331.826 Q43.0109 331.826 40.7887 328.909 Q38.5665 325.97 38.5665 320.159 L38.5665 314.187 L38.1498 314.187 Q35.21 314.187 33.6128 316.132 Q31.9925 318.053 31.9925 321.548 Q31.9925 323.77 32.5249 325.877 Q33.0573 327.983 34.1221 329.928 L30.1869 329.928 Q29.2841 327.59 28.8443 325.391 Q28.3814 323.192 28.3814 321.108 Q28.3814 315.483 31.298 312.706 Q34.2147 309.928 40.1406 309.928 Z" fill="#000000" fill-rule="evenodd" fill-opacity="1" /><path clip-path="url(#clip290)" d="M21.6453 296.942 L29.0064 296.942 L29.0064 288.169 L32.3165 288.169 L32.3165 296.942 L46.3905 296.942 Q49.5618 296.942 50.4646 296.085 Q51.3674 295.206 51.3674 292.544 L51.3674 288.169 L54.9322 288.169 L54.9322 292.544 Q54.9322 297.474 53.1035 299.349 Q51.2516 301.224 46.3905 301.224 L32.3165 301.224 L32.3165 304.349 L29.0064 304.349 L29.0064 301.224 L21.6453 301.224 L21.6453 296.942 Z" fill="#000000" fill-rule="evenodd" fill-opacity="1" /><path clip-path="url(#clip290)" d="M29.0064 282.567 L29.0064 278.308 L54.9322 278.308 L54.9322 282.567 L29.0064 282.567 M18.9138 282.567 L18.9138 278.308 L24.3073 278.308 L24.3073 282.567 L18.9138 282.567 Z" fill="#000000" fill-rule="evenodd" fill-opacity="1" /><path clip-path="url(#clip290)" d="M31.9925 259.349 Q31.9925 262.775 34.6776 264.766 Q37.3397 266.757 41.9924 266.757 Q46.6452 266.757 49.3303 264.789 Q51.9924 262.799 51.9924 259.349 Q51.9924 255.947 49.3072 253.956 Q46.622 251.965 41.9924 251.965 Q37.386 251.965 34.7008 253.956 Q31.9925 255.947 31.9925 259.349 M28.3814 259.349 Q28.3814 253.794 31.9925 250.623 Q35.6036 247.451 41.9924 247.451 Q48.3581 247.451 51.9924 250.623 Q55.6035 253.794 55.6035 259.349 Q55.6035 264.928 51.9924 268.099 Q48.3581 271.248 41.9924 271.248 Q35.6036 271.248 31.9925 268.099 Q28.3814 264.928 28.3814 259.349 Z" fill="#000000" fill-rule="evenodd" fill-opacity="1" /><path clip-path="url(#clip290)" d="M39.2841 218.84 L54.9322 218.84 L54.9322 223.1 L39.423 223.1 Q35.7424 223.1 33.9138 224.535 Q32.0851 225.97 32.0851 228.84 Q32.0851 232.289 34.2841 234.28 Q36.4832 236.271 40.2795 236.271 L54.9322 236.271 L54.9322 240.553 L29.0064 240.553 L29.0064 236.271 L33.0341 236.271 Q30.6962 234.743 29.5388 232.683 Q28.3814 230.6 28.3814 227.891 Q28.3814 223.424 31.1591 221.132 Q33.9138 218.84 39.2841 218.84 Z" fill="#000000" fill-rule="evenodd" fill-opacity="1" /><path clip-path="url(#clip290)" d="M29.7703 193.817 L33.798 193.817 Q32.8721 195.623 32.4091 197.567 Q31.9462 199.512 31.9462 201.595 Q31.9462 204.766 32.9184 206.364 Q33.8906 207.938 35.835 207.938 Q37.3165 207.938 38.173 206.803 Q39.0063 205.669 39.7702 202.243 L40.0943 200.785 Q41.0665 196.248 42.8489 194.35 Q44.6081 192.429 47.7794 192.429 Q51.3905 192.429 53.497 195.299 Q55.6035 198.146 55.6035 203.146 Q55.6035 205.229 55.1868 207.498 Q54.7933 209.743 53.9831 212.243 L49.585 212.243 Q50.8118 209.882 51.4368 207.591 Q52.0387 205.299 52.0387 203.054 Q52.0387 200.044 51.0201 198.424 Q49.9785 196.804 48.1035 196.804 Q46.3674 196.804 45.4415 197.984 Q44.5155 199.141 43.6591 203.1 L43.3118 204.581 Q42.4785 208.54 40.7656 210.299 Q39.0295 212.058 36.0202 212.058 Q32.3628 212.058 30.3721 209.466 Q28.3814 206.873 28.3814 202.104 Q28.3814 199.743 28.7286 197.66 Q29.0758 195.577 29.7703 193.817 Z" fill="#000000" fill-rule="evenodd" fill-opacity="1" /><path clip-path="url(#clip290)" d="M1108.95 18.8205 L1108.95 65.8515 L1118.84 65.8515 Q1131.35 65.8515 1137.15 60.1802 Q1142.98 54.509 1142.98 42.2752 Q1142.98 30.1225 1137.15 24.4918 Q1131.35 18.8205 1118.84 18.8205 L1108.95 18.8205 M1100.77 12.096 L1117.58 12.096 Q1135.16 12.096 1143.39 19.4281 Q1151.61 26.7198 1151.61 42.2752 Q1151.61 57.9117 1143.34 65.2439 Q1135.08 72.576 1117.58 72.576 L1100.77 72.576 L1100.77 12.096 Z" fill="#000000" fill-rule="evenodd" fill-opacity="1" /><path clip-path="url(#clip290)" d="M1163.56 54.671 L1163.56 27.2059 L1171.01 27.2059 L1171.01 54.3874 Q1171.01 60.8284 1173.52 64.0691 Q1176.04 67.2693 1181.06 67.2693 Q1187.09 67.2693 1190.58 63.421 Q1194.1 59.5726 1194.1 52.9291 L1194.1 27.2059 L1201.56 27.2059 L1201.56 72.576 L1194.1 72.576 L1194.1 65.6084 Q1191.39 69.7404 1187.78 71.7658 Q1184.22 73.7508 1179.48 73.7508 Q1171.66 73.7508 1167.61 68.8897 Q1163.56 64.0286 1163.56 54.671 M1182.31 26.1121 L1182.31 26.1121 Z" fill="#000000" fill-rule="evenodd" fill-opacity="1" /><path clip-path="url(#clip290)" d="M1243.2 34.1734 Q1241.94 33.4443 1240.44 33.1202 Q1238.99 32.7556 1237.2 32.7556 Q1230.88 32.7556 1227.48 36.8875 Q1224.12 40.9789 1224.12 48.6757 L1224.12 72.576 L1216.63 72.576 L1216.63 27.2059 L1224.12 27.2059 L1224.12 34.2544 Q1226.47 30.1225 1230.24 28.1376 Q1234 26.1121 1239.39 26.1121 Q1240.16 26.1121 1241.09 26.2337 Q1242.02 26.3147 1243.16 26.5172 L1243.2 34.1734 Z" fill="#000000" fill-rule="evenodd" fill-opacity="1" /><path clip-path="url(#clip290)" d="M1271.64 49.7694 Q1262.6 49.7694 1259.12 51.8354 Q1255.64 53.9013 1255.64 58.8839 Q1255.64 62.8538 1258.23 65.2034 Q1260.86 67.5124 1265.36 67.5124 Q1271.56 67.5124 1275.28 63.1374 Q1279.05 58.7219 1279.05 51.4303 L1279.05 49.7694 L1271.64 49.7694 M1286.5 46.6907 L1286.5 72.576 L1279.05 72.576 L1279.05 65.6895 Q1276.5 69.8214 1272.69 71.8063 Q1268.88 73.7508 1263.37 73.7508 Q1256.41 73.7508 1252.27 69.8619 Q1248.18 65.9325 1248.18 59.3701 Q1248.18 51.7138 1253.29 47.825 Q1258.43 43.9361 1268.6 43.9361 L1279.05 43.9361 L1279.05 43.2069 Q1279.05 38.0623 1275.65 35.2672 Q1272.28 32.4315 1266.17 32.4315 Q1262.28 32.4315 1258.59 33.3632 Q1254.91 34.295 1251.5 36.1584 L1251.5 29.2718 Q1255.6 27.692 1259.44 26.9223 Q1263.29 26.1121 1266.94 26.1121 Q1276.78 26.1121 1281.64 31.2163 Q1286.5 36.3204 1286.5 46.6907 Z" fill="#000000" fill-rule="evenodd" fill-opacity="1" /><path clip-path="url(#clip290)" d="M1334.43 49.9314 Q1334.43 41.7081 1331.02 37.0496 Q1327.66 32.3505 1321.75 32.3505 Q1315.83 32.3505 1312.43 37.0496 Q1309.07 41.7081 1309.07 49.9314 Q1309.07 58.1548 1312.43 62.8538 Q1315.83 67.5124 1321.75 67.5124 Q1327.66 67.5124 1331.02 62.8538 Q1334.43 58.1548 1334.43 49.9314 M1309.07 34.0924 Q1311.42 30.0415 1314.98 28.0971 Q1318.59 26.1121 1323.57 26.1121 Q1331.83 26.1121 1336.98 32.6746 Q1342.16 39.2371 1342.16 49.9314 Q1342.16 60.6258 1336.98 67.1883 Q1331.83 73.7508 1323.57 73.7508 Q1318.59 73.7508 1314.98 71.8063 Q1311.42 69.8214 1309.07 65.7705 L1309.07 72.576 L1301.57 72.576 L1301.57 9.54393 L1309.07 9.54393 L1309.07 34.0924 Z" fill="#000000" fill-rule="evenodd" fill-opacity="1" /><path clip-path="url(#clip290)" d="M1354.52 27.2059 L1361.97 27.2059 L1361.97 72.576 L1354.52 72.576 L1354.52 27.2059 M1354.52 9.54393 L1361.97 9.54393 L1361.97 18.9825 L1354.52 18.9825 L1354.52 9.54393 Z" fill="#000000" fill-rule="evenodd" fill-opacity="1" /><path clip-path="url(#clip290)" d="M1377.57 9.54393 L1385.02 9.54393 L1385.02 72.576 L1377.57 72.576 L1377.57 9.54393 Z" fill="#000000" fill-rule="evenodd" fill-opacity="1" /><path clip-path="url(#clip290)" d="M1400.62 27.2059 L1408.07 27.2059 L1408.07 72.576 L1400.62 72.576 L1400.62 27.2059 M1400.62 9.54393 L1408.07 9.54393 L1408.07 18.9825 L1400.62 18.9825 L1400.62 9.54393 Z" fill="#000000" fill-rule="evenodd" fill-opacity="1" /><path clip-path="url(#clip290)" d="M1431.04 14.324 L1431.04 27.2059 L1446.39 27.2059 L1446.39 32.9987 L1431.04 32.9987 L1431.04 57.6282 Q1431.04 63.1779 1432.54 64.7578 Q1434.08 66.3376 1438.74 66.3376 L1446.39 66.3376 L1446.39 72.576 L1438.74 72.576 Q1430.11 72.576 1426.83 69.3758 Q1423.55 66.1351 1423.55 57.6282 L1423.55 32.9987 L1418.08 32.9987 L1418.08 27.2059 L1423.55 27.2059 L1423.55 14.324 L1431.04 14.324 Z" fill="#000000" fill-rule="evenodd" fill-opacity="1" /><path clip-path="url(#clip290)" d="M1475.07 76.7889 Q1471.91 84.8907 1468.92 87.3618 Q1465.92 89.8329 1460.89 89.8329 L1454.94 89.8329 L1454.94 83.5945 L1459.32 83.5945 Q1462.39 83.5945 1464.1 82.1361 Q1465.8 80.6778 1467.86 75.2496 L1469.2 71.8468 L1450.85 27.2059 L1458.75 27.2059 L1472.93 62.6918 L1487.1 27.2059 L1495 27.2059 L1475.07 76.7889 Z" fill="#000000" fill-rule="evenodd" fill-opacity="1" /><path clip-path="url(#clip292)" d="
M745.02 1059.85 L523.873 1059.85 L966.167 1059.85 L745.02 1059.85 L745.02 835.865 L745.02 1059.85  Z
  " fill="#009af9" fill-rule="evenodd" fill-opacity="1"/>
<polyline clip-path="url(#clip292)" style="stroke:#000000; stroke-linecap:round; stroke-linejoin:round; stroke-width:4; stroke-opacity:1; fill:none" points="
  745.02,1059.85 523.873,1059.85 966.167,1059.85 745.02,1059.85 745.02,835.865 745.02,1059.85 
  "/>
<path clip-path="url(#clip292)" d="
M1187.31 835.865 L1187.31 762.883 L302.727 762.883 L302.727 835.865 L1187.31 835.865 L1187.31 762.883 L1187.31 835.865  Z
  " fill="#009af9" fill-rule="evenodd" fill-opacity="1"/>
<polyline clip-path="url(#clip292)" style="stroke:#000000; stroke-linecap:round; stroke-linejoin:round; stroke-width:4; stroke-opacity:1; fill:none" points="
  1187.31,835.865 1187.31,762.883 302.727,762.883 302.727,835.865 1187.31,835.865 1187.31,762.883 1187.31,835.865 
  "/>
<path clip-path="url(#clip292)" d="
M1187.31 685.838 L302.727 685.838 L302.727 762.883 L1187.31 762.883 L1187.31 685.838 L745.02 685.838 L1187.31 685.838  Z
  " fill="#009af9" fill-rule="evenodd" fill-opacity="1"/>
<polyline clip-path="url(#clip292)" style="stroke:#000000; stroke-linecap:round; stroke-linejoin:round; stroke-width:4; stroke-opacity:1; fill:none" points="
  1187.31,685.838 302.727,685.838 302.727,762.883 1187.31,762.883 1187.31,685.838 745.02,685.838 1187.31,685.838 
  "/>
<path clip-path="url(#clip292)" d="
M745.02 465.655 L523.873 465.655 L966.167 465.655 L745.02 465.655 L745.02 685.838 L745.02 465.655  Z
  " fill="#009af9" fill-rule="evenodd" fill-opacity="1"/>
<polyline clip-path="url(#clip292)" style="stroke:#000000; stroke-linecap:round; stroke-linejoin:round; stroke-width:4; stroke-opacity:1; fill:none" points="
  745.02,465.655 523.873,465.655 966.167,465.655 745.02,465.655 745.02,685.838 745.02,465.655 
  "/>
<circle clip-path="url(#clip292)" cx="745.02" cy="323.151" r="14.4" fill="#009af9" fill-rule="evenodd" fill-opacity="1" stroke="#000000" stroke-opacity="1" stroke-width="3.2"/>
<circle clip-path="url(#clip292)" cx="745.02" cy="452.706" r="14.4" fill="#009af9" fill-rule="evenodd" fill-opacity="1" stroke="#000000" stroke-opacity="1" stroke-width="3.2"/>
<circle clip-path="url(#clip292)" cx="745.02" cy="365.889" r="14.4" fill="#009af9" fill-rule="evenodd" fill-opacity="1" stroke="#000000" stroke-opacity="1" stroke-width="3.2"/>
<circle clip-path="url(#clip292)" cx="745.02" cy="1182.8" r="14.4" fill="#009af9" fill-rule="evenodd" fill-opacity="1" stroke="#000000" stroke-opacity="1" stroke-width="3.2"/>
<circle clip-path="url(#clip292)" cx="745.02" cy="343.779" r="14.4" fill="#009af9" fill-rule="evenodd" fill-opacity="1" stroke="#000000" stroke-opacity="1" stroke-width="3.2"/>
<circle clip-path="url(#clip292)" cx="745.02" cy="365.284" r="14.4" fill="#009af9" fill-rule="evenodd" fill-opacity="1" stroke="#000000" stroke-opacity="1" stroke-width="3.2"/>
<circle clip-path="url(#clip292)" cx="745.02" cy="369.882" r="14.4" fill="#009af9" fill-rule="evenodd" fill-opacity="1" stroke="#000000" stroke-opacity="1" stroke-width="3.2"/>
<circle clip-path="url(#clip292)" cx="745.02" cy="456.277" r="14.4" fill="#009af9" fill-rule="evenodd" fill-opacity="1" stroke="#000000" stroke-opacity="1" stroke-width="3.2"/>
<circle clip-path="url(#clip292)" cx="745.02" cy="325.641" r="14.4" fill="#009af9" fill-rule="evenodd" fill-opacity="1" stroke="#000000" stroke-opacity="1" stroke-width="3.2"/>
<circle clip-path="url(#clip292)" cx="745.02" cy="1157.77" r="14.4" fill="#009af9" fill-rule="evenodd" fill-opacity="1" stroke="#000000" stroke-opacity="1" stroke-width="3.2"/>
<circle clip-path="url(#clip292)" cx="745.02" cy="457.945" r="14.4" fill="#009af9" fill-rule="evenodd" fill-opacity="1" stroke="#000000" stroke-opacity="1" stroke-width="3.2"/>
<circle clip-path="url(#clip292)" cx="745.02" cy="339.616" r="14.4" fill="#009af9" fill-rule="evenodd" fill-opacity="1" stroke="#000000" stroke-opacity="1" stroke-width="3.2"/>
<circle clip-path="url(#clip292)" cx="745.02" cy="334.91" r="14.4" fill="#009af9" fill-rule="evenodd" fill-opacity="1" stroke="#000000" stroke-opacity="1" stroke-width="3.2"/>
<circle clip-path="url(#clip292)" cx="745.02" cy="447.499" r="14.4" fill="#009af9" fill-rule="evenodd" fill-opacity="1" stroke="#000000" stroke-opacity="1" stroke-width="3.2"/>
<circle clip-path="url(#clip292)" cx="745.02" cy="1087.53" r="14.4" fill="#009af9" fill-rule="evenodd" fill-opacity="1" stroke="#000000" stroke-opacity="1" stroke-width="3.2"/>
<circle clip-path="url(#clip292)" cx="745.02" cy="452.664" r="14.4" fill="#009af9" fill-rule="evenodd" fill-opacity="1" stroke="#000000" stroke-opacity="1" stroke-width="3.2"/>
<circle clip-path="url(#clip292)" cx="745.02" cy="439.854" r="14.4" fill="#009af9" fill-rule="evenodd" fill-opacity="1" stroke="#000000" stroke-opacity="1" stroke-width="3.2"/>
<circle clip-path="url(#clip292)" cx="745.02" cy="458.344" r="14.4" fill="#009af9" fill-rule="evenodd" fill-opacity="1" stroke="#000000" stroke-opacity="1" stroke-width="3.2"/>
<circle clip-path="url(#clip292)" cx="745.02" cy="162.047" r="14.4" fill="#009af9" fill-rule="evenodd" fill-opacity="1" stroke="#000000" stroke-opacity="1" stroke-width="3.2"/>
<circle clip-path="url(#clip292)" cx="745.02" cy="1074.38" r="14.4" fill="#009af9" fill-rule="evenodd" fill-opacity="1" stroke="#000000" stroke-opacity="1" stroke-width="3.2"/>
<circle clip-path="url(#clip292)" cx="745.02" cy="450.429" r="14.4" fill="#009af9" fill-rule="evenodd" fill-opacity="1" stroke="#000000" stroke-opacity="1" stroke-width="3.2"/>
<circle clip-path="url(#clip292)" cx="745.02" cy="421.972" r="14.4" fill="#009af9" fill-rule="evenodd" fill-opacity="1" stroke="#000000" stroke-opacity="1" stroke-width="3.2"/>
<circle clip-path="url(#clip292)" cx="745.02" cy="235.508" r="14.4" fill="#009af9" fill-rule="evenodd" fill-opacity="1" stroke="#000000" stroke-opacity="1" stroke-width="3.2"/>
<polyline clip-path="url(#clip292)" style="stroke:#009af9; stroke-linecap:round; stroke-linejoin:round; stroke-width:0; stroke-opacity:1; fill:none" points="
  745.02,1059.85 523.873,1059.85 966.167,1059.85 745.02,1059.85 745.02,835.865 
  "/>
<polyline clip-path="url(#clip292)" style="stroke:#009af9; stroke-linecap:round; stroke-linejoin:round; stroke-width:0; stroke-opacity:1; fill:none" points="
  1187.31,835.865 1187.31,762.883 302.727,762.883 302.727,835.865 1187.31,835.865 1187.31,762.883 
  "/>
<polyline clip-path="url(#clip292)" style="stroke:#009af9; stroke-linecap:round; stroke-linejoin:round; stroke-width:0; stroke-opacity:1; fill:none" points="
  1187.31,685.838 302.727,685.838 302.727,762.883 1187.31,762.883 1187.31,685.838 745.02,685.838 
  "/>
<polyline clip-path="url(#clip292)" style="stroke:#009af9; stroke-linecap:round; stroke-linejoin:round; stroke-width:0; stroke-opacity:1; fill:none" points="
  745.02,465.655 523.873,465.655 966.167,465.655 745.02,465.655 745.02,685.838 
  "/>
<path clip-path="url(#clip292)" d="
M1850.75 1042.77 L1629.61 1042.77 L2071.9 1042.77 L1850.75 1042.77 L1850.75 855.974 L1850.75 1042.77  Z
  " fill="#e26f46" fill-rule="evenodd" fill-opacity="1"/>
<polyline clip-path="url(#clip292)" style="stroke:#000000; stroke-linecap:round; stroke-linejoin:round; stroke-width:4; stroke-opacity:1; fill:none" points="
  1850.75,1042.77 1629.61,1042.77 2071.9,1042.77 1850.75,1042.77 1850.75,855.974 1850.75,1042.77 
  "/>
<path clip-path="url(#clip292)" d="
M2293.05 855.974 L2293.05 794.655 L1408.46 794.655 L1408.46 855.974 L2293.05 855.974 L2293.05 794.655 L2293.05 855.974  Z
  " fill="#e26f46" fill-rule="evenodd" fill-opacity="1"/>
<polyline clip-path="url(#clip292)" style="stroke:#000000; stroke-linecap:round; stroke-linejoin:round; stroke-width:4; stroke-opacity:1; fill:none" points="
  2293.05,855.974 2293.05,794.655 1408.46,794.655 1408.46,855.974 2293.05,855.974 2293.05,794.655 2293.05,855.974 
  "/>
<path clip-path="url(#clip292)" d="
M2293.05 726.227 L1408.46 726.227 L1408.46 794.655 L2293.05 794.655 L2293.05 726.227 L1850.75 726.227 L2293.05 726.227  Z
  " fill="#e26f46" fill-rule="evenodd" fill-opacity="1"/>
<polyline clip-path="url(#clip292)" style="stroke:#000000; stroke-linecap:round; stroke-linejoin:round; stroke-width:4; stroke-opacity:1; fill:none" points="
  2293.05,726.227 1408.46,726.227 1408.46,794.655 2293.05,794.655 2293.05,726.227 1850.75,726.227 2293.05,726.227 
  "/>
<path clip-path="url(#clip292)" d="
M1850.75 534.789 L1629.61 534.789 L2071.9 534.789 L1850.75 534.789 L1850.75 726.227 L1850.75 534.789  Z
  " fill="#e26f46" fill-rule="evenodd" fill-opacity="1"/>
<polyline clip-path="url(#clip292)" style="stroke:#000000; stroke-linecap:round; stroke-linejoin:round; stroke-width:4; stroke-opacity:1; fill:none" points="
  1850.75,534.789 1629.61,534.789 2071.9,534.789 1850.75,534.789 1850.75,726.227 1850.75,534.789 
  "/>
<circle clip-path="url(#clip292)" cx="1850.75" cy="426.268" r="14.4" fill="#e26f46" fill-rule="evenodd" fill-opacity="1" stroke="#000000" stroke-opacity="1" stroke-width="3.2"/>
<circle clip-path="url(#clip292)" cx="1850.75" cy="495.548" r="14.4" fill="#e26f46" fill-rule="evenodd" fill-opacity="1" stroke="#000000" stroke-opacity="1" stroke-width="3.2"/>
<circle clip-path="url(#clip292)" cx="1850.75" cy="1153.64" r="14.4" fill="#e26f46" fill-rule="evenodd" fill-opacity="1" stroke="#000000" stroke-opacity="1" stroke-width="3.2"/>
<circle clip-path="url(#clip292)" cx="1850.75" cy="451.77" r="14.4" fill="#e26f46" fill-rule="evenodd" fill-opacity="1" stroke="#000000" stroke-opacity="1" stroke-width="3.2"/>
<circle clip-path="url(#clip292)" cx="1850.75" cy="522.092" r="14.4" fill="#e26f46" fill-rule="evenodd" fill-opacity="1" stroke="#000000" stroke-opacity="1" stroke-width="3.2"/>
<circle clip-path="url(#clip292)" cx="1850.75" cy="519.204" r="14.4" fill="#e26f46" fill-rule="evenodd" fill-opacity="1" stroke="#000000" stroke-opacity="1" stroke-width="3.2"/>
<circle clip-path="url(#clip292)" cx="1850.75" cy="430.109" r="14.4" fill="#e26f46" fill-rule="evenodd" fill-opacity="1" stroke="#000000" stroke-opacity="1" stroke-width="3.2"/>
<circle clip-path="url(#clip292)" cx="1850.75" cy="1089.58" r="14.4" fill="#e26f46" fill-rule="evenodd" fill-opacity="1" stroke="#000000" stroke-opacity="1" stroke-width="3.2"/>
<circle clip-path="url(#clip292)" cx="1850.75" cy="496.14" r="14.4" fill="#e26f46" fill-rule="evenodd" fill-opacity="1" stroke="#000000" stroke-opacity="1" stroke-width="3.2"/>
<circle clip-path="url(#clip292)" cx="1850.75" cy="1447.87" r="14.4" fill="#e26f46" fill-rule="evenodd" fill-opacity="1" stroke="#000000" stroke-opacity="1" stroke-width="3.2"/>
<circle clip-path="url(#clip292)" cx="1850.75" cy="522.051" r="14.4" fill="#e26f46" fill-rule="evenodd" fill-opacity="1" stroke="#000000" stroke-opacity="1" stroke-width="3.2"/>
<circle clip-path="url(#clip292)" cx="1850.75" cy="484.556" r="14.4" fill="#e26f46" fill-rule="evenodd" fill-opacity="1" stroke="#000000" stroke-opacity="1" stroke-width="3.2"/>
<circle clip-path="url(#clip292)" cx="1850.75" cy="1108.73" r="14.4" fill="#e26f46" fill-rule="evenodd" fill-opacity="1" stroke="#000000" stroke-opacity="1" stroke-width="3.2"/>
<circle clip-path="url(#clip292)" cx="1850.75" cy="1068.05" r="14.4" fill="#e26f46" fill-rule="evenodd" fill-opacity="1" stroke="#000000" stroke-opacity="1" stroke-width="3.2"/>
<circle clip-path="url(#clip292)" cx="1850.75" cy="1132.73" r="14.4" fill="#e26f46" fill-rule="evenodd" fill-opacity="1" stroke="#000000" stroke-opacity="1" stroke-width="3.2"/>
<circle clip-path="url(#clip292)" cx="1850.75" cy="521.376" r="14.4" fill="#e26f46" fill-rule="evenodd" fill-opacity="1" stroke="#000000" stroke-opacity="1" stroke-width="3.2"/>
<circle clip-path="url(#clip292)" cx="1850.75" cy="1446.32" r="14.4" fill="#e26f46" fill-rule="evenodd" fill-opacity="1" stroke="#000000" stroke-opacity="1" stroke-width="3.2"/>
<circle clip-path="url(#clip292)" cx="1850.75" cy="371.036" r="14.4" fill="#e26f46" fill-rule="evenodd" fill-opacity="1" stroke="#000000" stroke-opacity="1" stroke-width="3.2"/>
<circle clip-path="url(#clip292)" cx="1850.75" cy="408.535" r="14.4" fill="#e26f46" fill-rule="evenodd" fill-opacity="1" stroke="#000000" stroke-opacity="1" stroke-width="3.2"/>
<polyline clip-path="url(#clip292)" style="stroke:#e26f46; stroke-linecap:round; stroke-linejoin:round; stroke-width:0; stroke-opacity:1; fill:none" points="
  1850.75,1042.77 1629.61,1042.77 2071.9,1042.77 1850.75,1042.77 1850.75,855.974 
  "/>
<polyline clip-path="url(#clip292)" style="stroke:#e26f46; stroke-linecap:round; stroke-linejoin:round; stroke-width:0; stroke-opacity:1; fill:none" points="
  2293.05,855.974 2293.05,794.655 1408.46,794.655 1408.46,855.974 2293.05,855.974 2293.05,794.655 
  "/>
<polyline clip-path="url(#clip292)" style="stroke:#e26f46; stroke-linecap:round; stroke-linejoin:round; stroke-width:0; stroke-opacity:1; fill:none" points="
  2293.05,726.227 1408.46,726.227 1408.46,794.655 2293.05,794.655 2293.05,726.227 1850.75,726.227 
  "/>
<polyline clip-path="url(#clip292)" style="stroke:#e26f46; stroke-linecap:round; stroke-linejoin:round; stroke-width:0; stroke-opacity:1; fill:none" points="
  1850.75,534.789 1629.61,534.789 2071.9,534.789 1850.75,534.789 1850.75,726.227 
  "/>
</svg>
