<?xml version="1.0" encoding="utf-8"?>
<svg xmlns="http://www.w3.org/2000/svg" xmlns:xlink="http://www.w3.org/1999/xlink" width="600" height="400" viewBox="0 0 2400 1600">
<defs>
  <clipPath id="clip840">
    <rect x="0" y="0" width="2400" height="1600"/>
  </clipPath>
</defs>
<path clip-path="url(#clip840)" d="
M0 1600 L2400 1600 L2400 0 L0 0  Z
  " fill="#ffffff" fill-rule="evenodd" fill-opacity="1"/>
<defs>
  <clipPath id="clip841">
    <rect x="480" y="0" width="1681" height="1600"/>
  </clipPath>
</defs>
<path clip-path="url(#clip840)" d="
M243.017 1486.45 L2352.76 1486.45 L2352.76 123.472 L243.017 123.472  Z
  " fill="#ffffff" fill-rule="evenodd" fill-opacity="1"/>
<defs>
  <clipPath id="clip842">
    <rect x="243" y="123" width="2111" height="1364"/>
  </clipPath>
</defs>
<polyline clip-path="url(#clip842)" style="stroke:#000000; stroke-linecap:round; stroke-linejoin:round; stroke-width:2; stroke-opacity:0.1; fill:none" points="
  468.587,1486.45 468.587,123.472 
  "/>
<polyline clip-path="url(#clip842)" style="stroke:#000000; stroke-linecap:round; stroke-linejoin:round; stroke-width:2; stroke-opacity:0.1; fill:none" points="
  745.02,1486.45 745.02,123.472 
  "/>
<polyline clip-path="url(#clip842)" style="stroke:#000000; stroke-linecap:round; stroke-linejoin:round; stroke-width:2; stroke-opacity:0.1; fill:none" points="
  1021.45,1486.45 1021.45,123.472 
  "/>
<polyline clip-path="url(#clip842)" style="stroke:#000000; stroke-linecap:round; stroke-linejoin:round; stroke-width:2; stroke-opacity:0.1; fill:none" points="
  1297.89,1486.45 1297.89,123.472 
  "/>
<polyline clip-path="url(#clip842)" style="stroke:#000000; stroke-linecap:round; stroke-linejoin:round; stroke-width:2; stroke-opacity:0.1; fill:none" points="
  1574.32,1486.45 1574.32,123.472 
  "/>
<polyline clip-path="url(#clip842)" style="stroke:#000000; stroke-linecap:round; stroke-linejoin:round; stroke-width:2; stroke-opacity:0.1; fill:none" points="
  1850.75,1486.45 1850.75,123.472 
  "/>
<polyline clip-path="url(#clip842)" style="stroke:#000000; stroke-linecap:round; stroke-linejoin:round; stroke-width:2; stroke-opacity:0.1; fill:none" points="
  2127.19,1486.45 2127.19,123.472 
  "/>
<polyline clip-path="url(#clip840)" style="stroke:#000000; stroke-linecap:round; stroke-linejoin:round; stroke-width:4; stroke-opacity:1; fill:none" points="
  243.017,1486.45 2352.76,1486.45 
  "/>
<polyline clip-path="url(#clip840)" style="stroke:#000000; stroke-linecap:round; stroke-linejoin:round; stroke-width:4; stroke-opacity:1; fill:none" points="
  468.587,1486.45 468.587,1467.55 
  "/>
<polyline clip-path="url(#clip840)" style="stroke:#000000; stroke-linecap:round; stroke-linejoin:round; stroke-width:4; stroke-opacity:1; fill:none" points="
  745.02,1486.45 745.02,1467.55 
  "/>
<polyline clip-path="url(#clip840)" style="stroke:#000000; stroke-linecap:round; stroke-linejoin:round; stroke-width:4; stroke-opacity:1; fill:none" points="
  1021.45,1486.45 1021.45,1467.55 
  "/>
<polyline clip-path="url(#clip840)" style="stroke:#000000; stroke-linecap:round; stroke-linejoin:round; stroke-width:4; stroke-opacity:1; fill:none" points="
  1297.89,1486.45 1297.89,1467.55 
  "/>
<polyline clip-path="url(#clip840)" style="stroke:#000000; stroke-linecap:round; stroke-linejoin:round; stroke-width:4; stroke-opacity:1; fill:none" points="
  1574.32,1486.45 1574.32,1467.55 
  "/>
<polyline clip-path="url(#clip840)" style="stroke:#000000; stroke-linecap:round; stroke-linejoin:round; stroke-width:4; stroke-opacity:1; fill:none" points="
  1850.75,1486.45 1850.75,1467.55 
  "/>
<polyline clip-path="url(#clip840)" style="stroke:#000000; stroke-linecap:round; stroke-linejoin:round; stroke-width:4; stroke-opacity:1; fill:none" points="
  2127.19,1486.45 2127.19,1467.55 
  "/>
<path clip-path="url(#clip840)" d="M431.388 1517.37 Q427.777 1517.37 425.948 1520.93 Q424.143 1524.47 424.143 1531.6 Q424.143 1538.71 425.948 1542.27 Q427.777 1545.82 431.388 1545.82 Q435.022 1545.82 436.828 1542.27 Q438.656 1538.71 438.656 1531.6 Q438.656 1524.47 436.828 1520.93 Q435.022 1517.37 431.388 1517.37 M431.388 1513.66 Q437.198 1513.66 440.254 1518.27 Q443.332 1522.85 443.332 1531.6 Q443.332 1540.33 440.254 1544.94 Q437.198 1549.52 431.388 1549.52 Q425.578 1549.52 422.499 1544.94 Q419.443 1540.33 419.443 1531.6 Q419.443 1522.85 422.499 1518.27 Q425.578 1513.66 431.388 1513.66 Z" fill="#000000" fill-rule="evenodd" fill-opacity="1" /><path clip-path="url(#clip840)" d="M451.55 1542.97 L456.434 1542.97 L456.434 1548.85 L451.55 1548.85 L451.55 1542.97 Z" fill="#000000" fill-rule="evenodd" fill-opacity="1" /><path clip-path="url(#clip840)" d="M465.439 1514.29 L487.661 1514.29 L487.661 1516.28 L475.114 1548.85 L470.23 1548.85 L482.036 1518.22 L465.439 1518.22 L465.439 1514.29 Z" fill="#000000" fill-rule="evenodd" fill-opacity="1" /><path clip-path="url(#clip840)" d="M496.827 1514.29 L515.184 1514.29 L515.184 1518.22 L501.11 1518.22 L501.11 1526.7 Q502.128 1526.35 503.147 1526.19 Q504.165 1526 505.184 1526 Q510.971 1526 514.35 1529.17 Q517.73 1532.34 517.73 1537.76 Q517.73 1543.34 514.258 1546.44 Q510.786 1549.52 504.466 1549.52 Q502.29 1549.52 500.022 1549.15 Q497.776 1548.78 495.369 1548.04 L495.369 1543.34 Q497.452 1544.47 499.675 1545.03 Q501.897 1545.58 504.374 1545.58 Q508.378 1545.58 510.716 1543.48 Q513.054 1541.37 513.054 1537.76 Q513.054 1534.15 510.716 1532.04 Q508.378 1529.94 504.374 1529.94 Q502.499 1529.94 500.624 1530.35 Q498.772 1530.77 496.827 1531.65 L496.827 1514.29 Z" fill="#000000" fill-rule="evenodd" fill-opacity="1" /><path clip-path="url(#clip840)" d="M697.092 1544.91 L704.731 1544.91 L704.731 1518.55 L696.421 1520.21 L696.421 1515.95 L704.685 1514.29 L709.36 1514.29 L709.36 1544.91 L716.999 1544.91 L716.999 1548.85 L697.092 1548.85 L697.092 1544.91 Z" fill="#000000" fill-rule="evenodd" fill-opacity="1" /><path clip-path="url(#clip840)" d="M726.444 1542.97 L731.328 1542.97 L731.328 1548.85 L726.444 1548.85 L726.444 1542.97 Z" fill="#000000" fill-rule="evenodd" fill-opacity="1" /><path clip-path="url(#clip840)" d="M751.513 1517.37 Q747.902 1517.37 746.073 1520.93 Q744.268 1524.47 744.268 1531.6 Q744.268 1538.71 746.073 1542.27 Q747.902 1545.82 751.513 1545.82 Q755.147 1545.82 756.953 1542.27 Q758.782 1538.71 758.782 1531.6 Q758.782 1524.47 756.953 1520.93 Q755.147 1517.37 751.513 1517.37 M751.513 1513.66 Q757.323 1513.66 760.379 1518.27 Q763.457 1522.85 763.457 1531.6 Q763.457 1540.33 760.379 1544.94 Q757.323 1549.52 751.513 1549.52 Q745.703 1549.52 742.624 1544.94 Q739.569 1540.33 739.569 1531.6 Q739.569 1522.85 742.624 1518.27 Q745.703 1513.66 751.513 1513.66 Z" fill="#000000" fill-rule="evenodd" fill-opacity="1" /><path clip-path="url(#clip840)" d="M781.675 1517.37 Q778.064 1517.37 776.235 1520.93 Q774.43 1524.47 774.43 1531.6 Q774.43 1538.71 776.235 1542.27 Q778.064 1545.82 781.675 1545.82 Q785.309 1545.82 787.115 1542.27 Q788.943 1538.71 788.943 1531.6 Q788.943 1524.47 787.115 1520.93 Q785.309 1517.37 781.675 1517.37 M781.675 1513.66 Q787.485 1513.66 790.541 1518.27 Q793.619 1522.85 793.619 1531.6 Q793.619 1540.33 790.541 1544.94 Q787.485 1549.52 781.675 1549.52 Q775.865 1549.52 772.786 1544.94 Q769.731 1540.33 769.731 1531.6 Q769.731 1522.85 772.786 1518.27 Q775.865 1513.66 781.675 1513.66 Z" fill="#000000" fill-rule="evenodd" fill-opacity="1" /><path clip-path="url(#clip840)" d="M974.023 1544.91 L981.662 1544.91 L981.662 1518.55 L973.352 1520.21 L973.352 1515.95 L981.616 1514.29 L986.291 1514.29 L986.291 1544.91 L993.93 1544.91 L993.93 1548.85 L974.023 1548.85 L974.023 1544.91 Z" fill="#000000" fill-rule="evenodd" fill-opacity="1" /><path clip-path="url(#clip840)" d="M1003.37 1542.97 L1008.26 1542.97 L1008.26 1548.85 L1003.37 1548.85 L1003.37 1542.97 Z" fill="#000000" fill-rule="evenodd" fill-opacity="1" /><path clip-path="url(#clip840)" d="M1022.47 1544.91 L1038.79 1544.91 L1038.79 1548.85 L1016.85 1548.85 L1016.85 1544.91 Q1019.51 1542.16 1024.09 1537.53 Q1028.7 1532.88 1029.88 1531.53 Q1032.12 1529.01 1033 1527.27 Q1033.91 1525.51 1033.91 1523.82 Q1033.91 1521.07 1031.96 1519.33 Q1030.04 1517.6 1026.94 1517.6 Q1024.74 1517.6 1022.29 1518.36 Q1019.86 1519.13 1017.08 1520.68 L1017.08 1515.95 Q1019.9 1514.82 1022.36 1514.24 Q1024.81 1513.66 1026.85 1513.66 Q1032.22 1513.66 1035.41 1516.35 Q1038.61 1519.03 1038.61 1523.52 Q1038.61 1525.65 1037.8 1527.57 Q1037.01 1529.47 1034.9 1532.07 Q1034.32 1532.74 1031.22 1535.95 Q1028.12 1539.15 1022.47 1544.91 Z" fill="#000000" fill-rule="evenodd" fill-opacity="1" /><path clip-path="url(#clip840)" d="M1048.65 1514.29 L1067.01 1514.29 L1067.01 1518.22 L1052.93 1518.22 L1052.93 1526.7 Q1053.95 1526.35 1054.97 1526.19 Q1055.99 1526 1057.01 1526 Q1062.8 1526 1066.18 1529.17 Q1069.55 1532.34 1069.55 1537.76 Q1069.55 1543.34 1066.08 1546.44 Q1062.61 1549.52 1056.29 1549.52 Q1054.12 1549.52 1051.85 1549.15 Q1049.6 1548.78 1047.19 1548.04 L1047.19 1543.34 Q1049.28 1544.47 1051.5 1545.03 Q1053.72 1545.58 1056.2 1545.58 Q1060.2 1545.58 1062.54 1543.48 Q1064.88 1541.37 1064.88 1537.76 Q1064.88 1534.15 1062.54 1532.04 Q1060.2 1529.94 1056.2 1529.94 Q1054.32 1529.94 1052.45 1530.35 Q1050.6 1530.77 1048.65 1531.65 L1048.65 1514.29 Z" fill="#000000" fill-rule="evenodd" fill-opacity="1" /><path clip-path="url(#clip840)" d="M1249.96 1544.91 L1257.6 1544.91 L1257.6 1518.55 L1249.29 1520.21 L1249.29 1515.95 L1257.55 1514.29 L1262.23 1514.29 L1262.23 1544.91 L1269.87 1544.91 L1269.87 1548.85 L1249.96 1548.85 L1249.96 1544.91 Z" fill="#000000" fill-rule="evenodd" fill-opacity="1" /><path clip-path="url(#clip840)" d="M1279.31 1542.97 L1284.19 1542.97 L1284.19 1548.85 L1279.31 1548.85 L1279.31 1542.97 Z" fill="#000000" fill-rule="evenodd" fill-opacity="1" /><path clip-path="url(#clip840)" d="M1294.43 1514.29 L1312.78 1514.29 L1312.78 1518.22 L1298.71 1518.22 L1298.71 1526.7 Q1299.73 1526.35 1300.75 1526.19 Q1301.76 1526 1302.78 1526 Q1308.57 1526 1311.95 1529.17 Q1315.33 1532.34 1315.33 1537.76 Q1315.33 1543.34 1311.86 1546.44 Q1308.38 1549.52 1302.06 1549.52 Q1299.89 1549.52 1297.62 1549.15 Q1295.37 1548.78 1292.97 1548.04 L1292.97 1543.34 Q1295.05 1544.47 1297.27 1545.03 Q1299.5 1545.58 1301.97 1545.58 Q1305.98 1545.58 1308.31 1543.48 Q1310.65 1541.37 1310.65 1537.76 Q1310.65 1534.15 1308.31 1532.04 Q1305.98 1529.94 1301.97 1529.94 Q1300.1 1529.94 1298.22 1530.35 Q1296.37 1530.77 1294.43 1531.65 L1294.43 1514.29 Z" fill="#000000" fill-rule="evenodd" fill-opacity="1" /><path clip-path="url(#clip840)" d="M1334.54 1517.37 Q1330.93 1517.37 1329.1 1520.93 Q1327.3 1524.47 1327.3 1531.6 Q1327.3 1538.71 1329.1 1542.27 Q1330.93 1545.82 1334.54 1545.82 Q1338.18 1545.82 1339.98 1542.27 Q1341.81 1538.71 1341.81 1531.6 Q1341.81 1524.47 1339.98 1520.93 Q1338.18 1517.37 1334.54 1517.37 M1334.54 1513.66 Q1340.35 1513.66 1343.41 1518.27 Q1346.49 1522.85 1346.49 1531.6 Q1346.49 1540.33 1343.41 1544.94 Q1340.35 1549.52 1334.54 1549.52 Q1328.73 1549.52 1325.65 1544.94 Q1322.6 1540.33 1322.6 1531.6 Q1322.6 1522.85 1325.65 1518.27 Q1328.73 1513.66 1334.54 1513.66 Z" fill="#000000" fill-rule="evenodd" fill-opacity="1" /><path clip-path="url(#clip840)" d="M1526.89 1544.91 L1534.53 1544.91 L1534.53 1518.55 L1526.22 1520.21 L1526.22 1515.95 L1534.48 1514.29 L1539.16 1514.29 L1539.16 1544.91 L1546.8 1544.91 L1546.8 1548.85 L1526.89 1548.85 L1526.89 1544.91 Z" fill="#000000" fill-rule="evenodd" fill-opacity="1" /><path clip-path="url(#clip840)" d="M1556.24 1542.97 L1561.13 1542.97 L1561.13 1548.85 L1556.24 1548.85 L1556.24 1542.97 Z" fill="#000000" fill-rule="evenodd" fill-opacity="1" /><path clip-path="url(#clip840)" d="M1570.13 1514.29 L1592.35 1514.29 L1592.35 1516.28 L1579.81 1548.85 L1574.92 1548.85 L1586.73 1518.22 L1570.13 1518.22 L1570.13 1514.29 Z" fill="#000000" fill-rule="evenodd" fill-opacity="1" /><path clip-path="url(#clip840)" d="M1601.52 1514.29 L1619.88 1514.29 L1619.88 1518.22 L1605.8 1518.22 L1605.8 1526.7 Q1606.82 1526.35 1607.84 1526.19 Q1608.86 1526 1609.88 1526 Q1615.66 1526 1619.04 1529.17 Q1622.42 1532.34 1622.42 1537.76 Q1622.42 1543.34 1618.95 1546.44 Q1615.48 1549.52 1609.16 1549.52 Q1606.98 1549.52 1604.71 1549.15 Q1602.47 1548.78 1600.06 1548.04 L1600.06 1543.34 Q1602.14 1544.47 1604.37 1545.03 Q1606.59 1545.58 1609.06 1545.58 Q1613.07 1545.58 1615.41 1543.48 Q1617.75 1541.37 1617.75 1537.76 Q1617.75 1534.15 1615.41 1532.04 Q1613.07 1529.94 1609.06 1529.94 Q1607.19 1529.94 1605.32 1530.35 Q1603.46 1530.77 1601.52 1531.65 L1601.52 1514.29 Z" fill="#000000" fill-rule="evenodd" fill-opacity="1" /><path clip-path="url(#clip840)" d="M1806.91 1544.91 L1823.23 1544.91 L1823.23 1548.85 L1801.29 1548.85 L1801.29 1544.91 Q1803.95 1542.16 1808.53 1537.53 Q1813.14 1532.88 1814.32 1531.53 Q1816.56 1529.01 1817.44 1527.27 Q1818.35 1525.51 1818.35 1523.82 Q1818.35 1521.07 1816.4 1519.33 Q1814.48 1517.6 1811.38 1517.6 Q1809.18 1517.6 1806.73 1518.36 Q1804.3 1519.13 1801.52 1520.68 L1801.52 1515.95 Q1804.34 1514.82 1806.79 1514.24 Q1809.25 1513.66 1811.29 1513.66 Q1816.66 1513.66 1819.85 1516.35 Q1823.04 1519.03 1823.04 1523.52 Q1823.04 1525.65 1822.23 1527.57 Q1821.45 1529.47 1819.34 1532.07 Q1818.76 1532.74 1815.66 1535.95 Q1812.56 1539.15 1806.91 1544.91 Z" fill="#000000" fill-rule="evenodd" fill-opacity="1" /><path clip-path="url(#clip840)" d="M1833.04 1542.97 L1837.93 1542.97 L1837.93 1548.85 L1833.04 1548.85 L1833.04 1542.97 Z" fill="#000000" fill-rule="evenodd" fill-opacity="1" /><path clip-path="url(#clip840)" d="M1858.11 1517.37 Q1854.5 1517.37 1852.67 1520.93 Q1850.87 1524.47 1850.87 1531.6 Q1850.87 1538.71 1852.67 1542.27 Q1854.5 1545.82 1858.11 1545.82 Q1861.75 1545.82 1863.55 1542.27 Q1865.38 1538.71 1865.38 1531.6 Q1865.38 1524.47 1863.55 1520.93 Q1861.75 1517.37 1858.11 1517.37 M1858.11 1513.66 Q1863.92 1513.66 1866.98 1518.27 Q1870.06 1522.85 1870.06 1531.6 Q1870.06 1540.33 1866.98 1544.94 Q1863.92 1549.52 1858.11 1549.52 Q1852.3 1549.52 1849.23 1544.94 Q1846.17 1540.33 1846.17 1531.6 Q1846.17 1522.85 1849.23 1518.27 Q1852.3 1513.66 1858.11 1513.66 Z" fill="#000000" fill-rule="evenodd" fill-opacity="1" /><path clip-path="url(#clip840)" d="M1888.28 1517.37 Q1884.66 1517.37 1882.84 1520.93 Q1881.03 1524.47 1881.03 1531.6 Q1881.03 1538.71 1882.84 1542.27 Q1884.66 1545.82 1888.28 1545.82 Q1891.91 1545.82 1893.72 1542.27 Q1895.54 1538.71 1895.54 1531.6 Q1895.54 1524.47 1893.72 1520.93 Q1891.91 1517.37 1888.28 1517.37 M1888.28 1513.66 Q1894.09 1513.66 1897.14 1518.27 Q1900.22 1522.85 1900.22 1531.6 Q1900.22 1540.33 1897.14 1544.94 Q1894.09 1549.52 1888.28 1549.52 Q1882.47 1549.52 1879.39 1544.94 Q1876.33 1540.33 1876.33 1531.6 Q1876.33 1522.85 1879.39 1518.27 Q1882.47 1513.66 1888.28 1513.66 Z" fill="#000000" fill-rule="evenodd" fill-opacity="1" /><path clip-path="url(#clip840)" d="M2083.84 1544.91 L2100.16 1544.91 L2100.16 1548.85 L2078.22 1548.85 L2078.22 1544.91 Q2080.88 1542.16 2085.46 1537.53 Q2090.07 1532.88 2091.25 1531.53 Q2093.49 1529.01 2094.37 1527.27 Q2095.28 1525.51 2095.28 1523.82 Q2095.28 1521.07 2093.33 1519.33 Q2091.41 1517.6 2088.31 1517.6 Q2086.11 1517.6 2083.66 1518.36 Q2081.23 1519.13 2078.45 1520.68 L2078.45 1515.95 Q2081.27 1514.82 2083.73 1514.24 Q2086.18 1513.66 2088.22 1513.66 Q2093.59 1513.66 2096.78 1516.35 Q2099.98 1519.03 2099.98 1523.52 Q2099.98 1525.65 2099.17 1527.57 Q2098.38 1529.47 2096.27 1532.07 Q2095.69 1532.74 2092.59 1535.95 Q2089.49 1539.15 2083.84 1544.91 Z" fill="#000000" fill-rule="evenodd" fill-opacity="1" /><path clip-path="url(#clip840)" d="M2109.98 1542.97 L2114.86 1542.97 L2114.86 1548.85 L2109.98 1548.85 L2109.98 1542.97 Z" fill="#000000" fill-rule="evenodd" fill-opacity="1" /><path clip-path="url(#clip840)" d="M2129.07 1544.91 L2145.39 1544.91 L2145.39 1548.85 L2123.45 1548.85 L2123.45 1544.91 Q2126.11 1542.16 2130.69 1537.53 Q2135.3 1532.88 2136.48 1531.53 Q2138.73 1529.01 2139.61 1527.27 Q2140.51 1525.51 2140.51 1523.82 Q2140.51 1521.07 2138.56 1519.33 Q2136.64 1517.6 2133.54 1517.6 Q2131.34 1517.6 2128.89 1518.36 Q2126.46 1519.13 2123.68 1520.68 L2123.68 1515.95 Q2126.5 1514.82 2128.96 1514.24 Q2131.41 1513.66 2133.45 1513.66 Q2138.82 1513.66 2142.01 1516.35 Q2145.21 1519.03 2145.21 1523.52 Q2145.21 1525.65 2144.4 1527.57 Q2143.61 1529.47 2141.5 1532.07 Q2140.92 1532.74 2137.82 1535.95 Q2134.72 1539.15 2129.07 1544.91 Z" fill="#000000" fill-rule="evenodd" fill-opacity="1" /><path clip-path="url(#clip840)" d="M2155.25 1514.29 L2173.61 1514.29 L2173.61 1518.22 L2159.54 1518.22 L2159.54 1526.7 Q2160.55 1526.35 2161.57 1526.19 Q2162.59 1526 2163.61 1526 Q2169.4 1526 2172.78 1529.17 Q2176.16 1532.34 2176.16 1537.76 Q2176.16 1543.34 2172.68 1546.44 Q2169.21 1549.52 2162.89 1549.52 Q2160.72 1549.52 2158.45 1549.15 Q2156.2 1548.78 2153.8 1548.04 L2153.8 1543.34 Q2155.88 1544.47 2158.1 1545.03 Q2160.32 1545.58 2162.8 1545.58 Q2166.8 1545.58 2169.14 1543.48 Q2171.48 1541.37 2171.48 1537.76 Q2171.48 1534.15 2169.14 1532.04 Q2166.8 1529.94 2162.8 1529.94 Q2160.92 1529.94 2159.05 1530.35 Q2157.2 1530.77 2155.25 1531.65 L2155.25 1514.29 Z" fill="#000000" fill-rule="evenodd" fill-opacity="1" /><polyline clip-path="url(#clip842)" style="stroke:#000000; stroke-linecap:round; stroke-linejoin:round; stroke-width:2; stroke-opacity:0.1; fill:none" points="
  243.017,1397.31 2352.76,1397.31 
  "/>
<polyline clip-path="url(#clip842)" style="stroke:#000000; stroke-linecap:round; stroke-linejoin:round; stroke-width:2; stroke-opacity:0.1; fill:none" points="
  243.017,1057.72 2352.76,1057.72 
  "/>
<polyline clip-path="url(#clip842)" style="stroke:#000000; stroke-linecap:round; stroke-linejoin:round; stroke-width:2; stroke-opacity:0.1; fill:none" points="
  243.017,718.136 2352.76,718.136 
  "/>
<polyline clip-path="url(#clip842)" style="stroke:#000000; stroke-linecap:round; stroke-linejoin:round; stroke-width:2; stroke-opacity:0.1; fill:none" points="
  243.017,378.548 2352.76,378.548 
  "/>
<polyline clip-path="url(#clip840)" style="stroke:#000000; stroke-linecap:round; stroke-linejoin:round; stroke-width:4; stroke-opacity:1; fill:none" points="
  243.017,1486.45 243.017,123.472 
  "/>
<polyline clip-path="url(#clip840)" style="stroke:#000000; stroke-linecap:round; stroke-linejoin:round; stroke-width:4; stroke-opacity:1; fill:none" points="
  243.017,1397.31 261.915,1397.31 
  "/>
<polyline clip-path="url(#clip840)" style="stroke:#000000; stroke-linecap:round; stroke-linejoin:round; stroke-width:4; stroke-opacity:1; fill:none" points="
  243.017,1057.72 261.915,1057.72 
  "/>
<polyline clip-path="url(#clip840)" style="stroke:#000000; stroke-linecap:round; stroke-linejoin:round; stroke-width:4; stroke-opacity:1; fill:none" points="
  243.017,718.136 261.915,718.136 
  "/>
<polyline clip-path="url(#clip840)" style="stroke:#000000; stroke-linecap:round; stroke-linejoin:round; stroke-width:4; stroke-opacity:1; fill:none" points="
  243.017,378.548 261.915,378.548 
  "/>
<path clip-path="url(#clip840)" d="M101.3 1397.76 L130.976 1397.76 L130.976 1401.7 L101.3 1401.7 L101.3 1397.76 Z" fill="#000000" fill-rule="evenodd" fill-opacity="1" /><path clip-path="url(#clip840)" d="M151.068 1383.11 Q147.457 1383.11 145.629 1386.67 Q143.823 1390.22 143.823 1397.35 Q143.823 1404.45 145.629 1408.02 Q147.457 1411.56 151.068 1411.56 Q154.703 1411.56 156.508 1408.02 Q158.337 1404.45 158.337 1397.35 Q158.337 1390.22 156.508 1386.67 Q154.703 1383.11 151.068 1383.11 M151.068 1379.41 Q156.879 1379.41 159.934 1384.01 Q163.013 1388.6 163.013 1397.35 Q163.013 1406.07 159.934 1410.68 Q156.879 1415.26 151.068 1415.26 Q145.258 1415.26 142.18 1410.68 Q139.124 1406.07 139.124 1397.35 Q139.124 1388.6 142.18 1384.01 Q145.258 1379.41 151.068 1379.41 Z" fill="#000000" fill-rule="evenodd" fill-opacity="1" /><path clip-path="url(#clip840)" d="M171.23 1408.71 L176.115 1408.71 L176.115 1414.59 L171.23 1414.59 L171.23 1408.71 Z" fill="#000000" fill-rule="evenodd" fill-opacity="1" /><path clip-path="url(#clip840)" d="M187.11 1410.66 L194.749 1410.66 L194.749 1384.29 L186.439 1385.96 L186.439 1381.7 L194.702 1380.03 L199.378 1380.03 L199.378 1410.66 L207.017 1410.66 L207.017 1414.59 L187.11 1414.59 L187.11 1410.66 Z" fill="#000000" fill-rule="evenodd" fill-opacity="1" /><path clip-path="url(#clip840)" d="M149.842 1043.52 Q146.23 1043.52 144.402 1047.09 Q142.596 1050.63 142.596 1057.76 Q142.596 1064.86 144.402 1068.43 Q146.23 1071.97 149.842 1071.97 Q153.476 1071.97 155.281 1068.43 Q157.11 1064.86 157.11 1057.76 Q157.11 1050.63 155.281 1047.09 Q153.476 1043.52 149.842 1043.52 M149.842 1039.82 Q155.652 1039.82 158.707 1044.43 Q161.786 1049.01 161.786 1057.76 Q161.786 1066.49 158.707 1071.09 Q155.652 1075.67 149.842 1075.67 Q144.031 1075.67 140.953 1071.09 Q137.897 1066.49 137.897 1057.76 Q137.897 1049.01 140.953 1044.43 Q144.031 1039.82 149.842 1039.82 Z" fill="#000000" fill-rule="evenodd" fill-opacity="1" /><path clip-path="url(#clip840)" d="M170.003 1069.12 L174.888 1069.12 L174.888 1075 L170.003 1075 L170.003 1069.12 Z" fill="#000000" fill-rule="evenodd" fill-opacity="1" /><path clip-path="url(#clip840)" d="M195.073 1043.52 Q191.462 1043.52 189.633 1047.09 Q187.827 1050.63 187.827 1057.76 Q187.827 1064.86 189.633 1068.43 Q191.462 1071.97 195.073 1071.97 Q198.707 1071.97 200.513 1068.43 Q202.341 1064.86 202.341 1057.76 Q202.341 1050.63 200.513 1047.09 Q198.707 1043.52 195.073 1043.52 M195.073 1039.82 Q200.883 1039.82 203.938 1044.43 Q207.017 1049.01 207.017 1057.76 Q207.017 1066.49 203.938 1071.09 Q200.883 1075.67 195.073 1075.67 Q189.263 1075.67 186.184 1071.09 Q183.128 1066.49 183.128 1057.76 Q183.128 1049.01 186.184 1044.43 Q189.263 1039.82 195.073 1039.82 Z" fill="#000000" fill-rule="evenodd" fill-opacity="1" /><path clip-path="url(#clip840)" d="M151.068 703.935 Q147.457 703.935 145.629 707.499 Q143.823 711.041 143.823 718.171 Q143.823 725.277 145.629 728.842 Q147.457 732.383 151.068 732.383 Q154.703 732.383 156.508 728.842 Q158.337 725.277 158.337 718.171 Q158.337 711.041 156.508 707.499 Q154.703 703.935 151.068 703.935 M151.068 700.231 Q156.879 700.231 159.934 704.837 Q163.013 709.421 163.013 718.171 Q163.013 726.897 159.934 731.504 Q156.879 736.087 151.068 736.087 Q145.258 736.087 142.18 731.504 Q139.124 726.897 139.124 718.171 Q139.124 709.421 142.18 704.837 Q145.258 700.231 151.068 700.231 Z" fill="#000000" fill-rule="evenodd" fill-opacity="1" /><path clip-path="url(#clip840)" d="M171.23 729.536 L176.115 729.536 L176.115 735.416 L171.23 735.416 L171.23 729.536 Z" fill="#000000" fill-rule="evenodd" fill-opacity="1" /><path clip-path="url(#clip840)" d="M187.11 731.481 L194.749 731.481 L194.749 705.115 L186.439 706.782 L186.439 702.523 L194.702 700.856 L199.378 700.856 L199.378 731.481 L207.017 731.481 L207.017 735.416 L187.11 735.416 L187.11 731.481 Z" fill="#000000" fill-rule="evenodd" fill-opacity="1" /><path clip-path="url(#clip840)" d="M151.439 364.347 Q147.828 364.347 145.999 367.912 Q144.193 371.453 144.193 378.583 Q144.193 385.689 145.999 389.254 Q147.828 392.796 151.439 392.796 Q155.073 392.796 156.879 389.254 Q158.707 385.689 158.707 378.583 Q158.707 371.453 156.879 367.912 Q155.073 364.347 151.439 364.347 M151.439 360.643 Q157.249 360.643 160.304 365.25 Q163.383 369.833 163.383 378.583 Q163.383 387.31 160.304 391.916 Q157.249 396.499 151.439 396.499 Q145.629 396.499 142.55 391.916 Q139.494 387.31 139.494 378.583 Q139.494 369.833 142.55 365.25 Q145.629 360.643 151.439 360.643 Z" fill="#000000" fill-rule="evenodd" fill-opacity="1" /><path clip-path="url(#clip840)" d="M171.601 389.949 L176.485 389.949 L176.485 395.828 L171.601 395.828 L171.601 389.949 Z" fill="#000000" fill-rule="evenodd" fill-opacity="1" /><path clip-path="url(#clip840)" d="M190.698 391.893 L207.017 391.893 L207.017 395.828 L185.073 395.828 L185.073 391.893 Q187.735 389.138 192.318 384.509 Q196.925 379.856 198.105 378.513 Q200.351 375.99 201.23 374.254 Q202.133 372.495 202.133 370.805 Q202.133 368.051 200.189 366.314 Q198.267 364.578 195.165 364.578 Q192.966 364.578 190.513 365.342 Q188.082 366.106 185.304 367.657 L185.304 362.935 Q188.128 361.801 190.582 361.222 Q193.036 360.643 195.073 360.643 Q200.443 360.643 203.638 363.328 Q206.832 366.013 206.832 370.504 Q206.832 372.634 206.022 374.555 Q205.235 376.453 203.128 379.046 Q202.55 379.717 199.448 382.935 Q196.346 386.129 190.698 391.893 Z" fill="#000000" fill-rule="evenodd" fill-opacity="1" /><path clip-path="url(#clip840)" d="M23.5434 1353.05 Q23.5434 1358.14 27.3397 1361.15 Q31.136 1364.14 37.6869 1364.14 Q44.2146 1364.14 48.0109 1361.15 Q51.8072 1358.14 51.8072 1353.05 Q51.8072 1347.95 48.0109 1344.99 Q44.2146 1342.01 37.6869 1342.01 Q31.136 1342.01 27.3397 1344.99 Q23.5434 1347.95 23.5434 1353.05 M19.7472 1353.05 Q19.7472 1345.78 24.6314 1341.43 Q29.4925 1337.08 37.6869 1337.08 Q45.8581 1337.08 50.7424 1341.43 Q55.6035 1345.78 55.6035 1353.05 Q55.6035 1360.34 50.7424 1364.71 Q45.8813 1369.07 37.6869 1369.07 Q29.4925 1369.07 24.6314 1364.71 Q19.7472 1360.34 19.7472 1353.05 Z" fill="#000000" fill-rule="evenodd" fill-opacity="1" /><path clip-path="url(#clip840)" d="M32.9415 1312.89 L18.9138 1312.89 L18.9138 1308.63 L54.9322 1308.63 L54.9322 1312.89 L51.0433 1312.89 Q53.3581 1314.23 54.4923 1316.29 Q55.6035 1318.33 55.6035 1321.2 Q55.6035 1325.89 51.8535 1328.86 Q48.1035 1331.8 41.9924 1331.8 Q35.8813 1331.8 32.1314 1328.86 Q28.3814 1325.89 28.3814 1321.2 Q28.3814 1318.33 29.5156 1316.29 Q30.6267 1314.23 32.9415 1312.89 M41.9924 1327.4 Q46.6915 1327.4 49.3766 1325.48 Q52.0387 1323.53 52.0387 1320.15 Q52.0387 1316.77 49.3766 1314.83 Q46.6915 1312.89 41.9924 1312.89 Q37.2934 1312.89 34.6313 1314.83 Q31.9462 1316.77 31.9462 1320.15 Q31.9462 1323.53 34.6313 1325.48 Q37.2934 1327.4 41.9924 1327.4 Z" fill="#000000" fill-rule="evenodd" fill-opacity="1" /><path clip-path="url(#clip840)" d="M30.0017 1281.2 L33.9832 1281.2 Q32.9878 1283 32.5017 1284.83 Q31.9925 1286.64 31.9925 1288.49 Q31.9925 1292.63 34.6313 1294.92 Q37.2471 1297.21 41.9924 1297.21 Q46.7378 1297.21 49.3766 1294.92 Q51.9924 1292.63 51.9924 1288.49 Q51.9924 1286.64 51.5062 1284.83 Q50.997 1283 50.0016 1281.2 L53.9368 1281.2 Q54.7701 1282.98 55.1868 1284.9 Q55.6035 1286.8 55.6035 1288.95 Q55.6035 1294.81 51.9229 1298.26 Q48.2424 1301.71 41.9924 1301.71 Q35.6499 1301.71 32.0156 1298.23 Q28.3814 1294.74 28.3814 1288.67 Q28.3814 1286.71 28.798 1284.83 Q29.1916 1282.96 30.0017 1281.2 Z" fill="#000000" fill-rule="evenodd" fill-opacity="1" /><path clip-path="url(#clip840)" d="M39.2841 1252.24 L54.9322 1252.24 L54.9322 1256.5 L39.423 1256.5 Q35.7424 1256.5 33.9138 1257.93 Q32.0851 1259.37 32.0851 1262.24 Q32.0851 1265.69 34.2841 1267.68 Q36.4832 1269.67 40.2795 1269.67 L54.9322 1269.67 L54.9322 1273.95 L18.9138 1273.95 L18.9138 1269.67 L33.0341 1269.67 Q30.6962 1268.14 29.5388 1266.08 Q28.3814 1264 28.3814 1261.29 Q28.3814 1256.82 31.1591 1254.53 Q33.9138 1252.24 39.2841 1252.24 Z" fill="#000000" fill-rule="evenodd" fill-opacity="1" /><path clip-path="url(#clip840)" d="M57.3396 1232.96 Q61.9692 1234.76 63.3812 1236.47 Q64.7932 1238.19 64.7932 1241.06 L64.7932 1244.46 L61.2284 1244.46 L61.2284 1241.96 Q61.2284 1240.2 60.3951 1239.23 Q59.5618 1238.26 56.4599 1237.08 L54.5155 1236.31 L29.0064 1246.8 L29.0064 1242.28 L49.284 1234.18 L29.0064 1226.08 L29.0064 1221.57 L57.3396 1232.96 Z" fill="#000000" fill-rule="evenodd" fill-opacity="1" /><path clip-path="url(#clip840)" d="M18.9138 1215.69 L18.9138 1211.43 L54.9322 1211.43 L54.9322 1215.69 L18.9138 1215.69 Z" fill="#000000" fill-rule="evenodd" fill-opacity="1" /><path clip-path="url(#clip840)" d="M40.9045 1180.34 L42.9878 1180.34 L42.9878 1199.92 Q47.3859 1199.65 49.7007 1197.28 Q51.9924 1194.9 51.9924 1190.66 Q51.9924 1188.21 51.3905 1185.92 Q50.7887 1183.6 49.585 1181.34 L53.6127 1181.34 Q54.5849 1183.63 55.0942 1186.03 Q55.6035 1188.44 55.6035 1190.92 Q55.6035 1197.12 51.9924 1200.76 Q48.3813 1204.37 42.2239 1204.37 Q35.8582 1204.37 32.1314 1200.94 Q28.3814 1197.49 28.3814 1191.66 Q28.3814 1186.43 31.761 1183.4 Q35.1174 1180.34 40.9045 1180.34 M39.6545 1184.6 Q36.1591 1184.65 34.0758 1186.57 Q31.9925 1188.46 31.9925 1191.61 Q31.9925 1195.18 34.0063 1197.33 Q36.0202 1199.46 39.6776 1199.78 L39.6545 1184.6 Z" fill="#000000" fill-rule="evenodd" fill-opacity="1" /><path clip-path="url(#clip840)" d="M39.2841 1151.8 L54.9322 1151.8 L54.9322 1156.06 L39.423 1156.06 Q35.7424 1156.06 33.9138 1157.49 Q32.0851 1158.93 32.0851 1161.8 Q32.0851 1165.25 34.2841 1167.24 Q36.4832 1169.23 40.2795 1169.23 L54.9322 1169.23 L54.9322 1173.51 L29.0064 1173.51 L29.0064 1169.23 L33.0341 1169.23 Q30.6962 1167.7 29.5388 1165.64 Q28.3814 1163.56 28.3814 1160.85 Q28.3814 1156.38 31.1591 1154.09 Q33.9138 1151.8 39.2841 1151.8 Z" fill="#000000" fill-rule="evenodd" fill-opacity="1" /><path clip-path="url(#clip840)" d="M29.0064 1143.3 L29.0064 1139.04 L54.9322 1139.04 L54.9322 1143.3 L29.0064 1143.3 M18.9138 1143.3 L18.9138 1139.04 L24.3073 1139.04 L24.3073 1143.3 L18.9138 1143.3 Z" fill="#000000" fill-rule="evenodd" fill-opacity="1" /><path clip-path="url(#clip840)" d="M40.9045 1107.96 L42.9878 1107.96 L42.9878 1127.54 Q47.3859 1127.26 49.7007 1124.9 Q51.9924 1122.52 51.9924 1118.28 Q51.9924 1115.83 51.3905 1113.53 Q50.7887 1111.22 49.585 1108.95 L53.6127 1108.95 Q54.5849 1111.24 55.0942 1113.65 Q55.6035 1116.06 55.6035 1118.53 Q55.6035 1124.74 51.9924 1128.37 Q48.3813 1131.98 42.2239 1131.98 Q35.8582 1131.98 32.1314 1128.56 Q28.3814 1125.11 28.3814 1119.28 Q28.3814 1114.04 31.761 1111.01 Q35.1174 1107.96 40.9045 1107.96 M39.6545 1112.22 Q36.1591 1112.26 34.0758 1114.18 Q31.9925 1116.08 31.9925 1119.23 Q31.9925 1122.79 34.0063 1124.95 Q36.0202 1127.08 39.6776 1127.4 L39.6545 1112.22 Z" fill="#000000" fill-rule="evenodd" fill-opacity="1" /><path clip-path="url(#clip840)" d="M51.0433 1081.78 L64.7932 1081.78 L64.7932 1086.06 L29.0064 1086.06 L29.0064 1081.78 L32.9415 1081.78 Q30.6267 1080.43 29.5156 1078.4 Q28.3814 1076.34 28.3814 1073.49 Q28.3814 1068.77 32.1314 1065.83 Q35.8813 1062.86 41.9924 1062.86 Q48.1035 1062.86 51.8535 1065.83 Q55.6035 1068.77 55.6035 1073.49 Q55.6035 1076.34 54.4923 1078.4 Q53.3581 1080.43 51.0433 1081.78 M41.9924 1067.28 Q37.2934 1067.28 34.6313 1069.23 Q31.9462 1071.15 31.9462 1074.53 Q31.9462 1077.91 34.6313 1079.85 Q37.2934 1081.78 41.9924 1081.78 Q46.6915 1081.78 49.3766 1079.85 Q52.0387 1077.91 52.0387 1074.53 Q52.0387 1071.15 49.3766 1069.23 Q46.6915 1067.28 41.9924 1067.28 Z" fill="#000000" fill-rule="evenodd" fill-opacity="1" /><path clip-path="url(#clip840)" d="M41.8998 1044.02 Q41.8998 1049.18 43.0804 1051.17 Q44.2609 1053.16 47.1081 1053.16 Q49.3766 1053.16 50.7192 1051.68 Q52.0387 1050.18 52.0387 1047.61 Q52.0387 1044.07 49.5387 1041.94 Q47.0155 1039.79 42.8489 1039.79 L41.8998 1039.79 L41.8998 1044.02 M40.1406 1035.53 L54.9322 1035.53 L54.9322 1039.79 L50.997 1039.79 Q53.3581 1041.24 54.4923 1043.42 Q55.6035 1045.6 55.6035 1048.74 Q55.6035 1052.72 53.3812 1055.09 Q51.1359 1057.42 47.3859 1057.42 Q43.0109 1057.42 40.7887 1054.51 Q38.5665 1051.57 38.5665 1045.76 L38.5665 1039.79 L38.1498 1039.79 Q35.21 1039.79 33.6128 1041.73 Q31.9925 1043.65 31.9925 1047.15 Q31.9925 1049.37 32.5249 1051.47 Q33.0573 1053.58 34.1221 1055.53 L30.1869 1055.53 Q29.2841 1053.19 28.8443 1050.99 Q28.3814 1048.79 28.3814 1046.71 Q28.3814 1041.08 31.298 1038.3 Q34.2147 1035.53 40.1406 1035.53 Z" fill="#000000" fill-rule="evenodd" fill-opacity="1" /><path clip-path="url(#clip840)" d="M32.9878 1011.73 Q32.5712 1012.45 32.386 1013.3 Q32.1776 1014.14 32.1776 1015.16 Q32.1776 1018.77 34.5387 1020.71 Q36.8767 1022.63 41.2748 1022.63 L54.9322 1022.63 L54.9322 1026.91 L29.0064 1026.91 L29.0064 1022.63 L33.0341 1022.63 Q30.673 1021.29 29.5388 1019.14 Q28.3814 1016.98 28.3814 1013.91 Q28.3814 1013.47 28.4508 1012.93 Q28.4971 1012.4 28.6129 1011.75 L32.9878 1011.73 Z" fill="#000000" fill-rule="evenodd" fill-opacity="1" /><path clip-path="url(#clip840)" d="M41.8998 995.48 Q41.8998 1000.64 43.0804 1002.63 Q44.2609 1004.62 47.1081 1004.62 Q49.3766 1004.62 50.7192 1003.14 Q52.0387 1001.64 52.0387 999.068 Q52.0387 995.526 49.5387 993.396 Q47.0155 991.244 42.8489 991.244 L41.8998 991.244 L41.8998 995.48 M40.1406 986.984 L54.9322 986.984 L54.9322 991.244 L50.997 991.244 Q53.3581 992.702 54.4923 994.878 Q55.6035 997.054 55.6035 1000.2 Q55.6035 1004.18 53.3812 1006.54 Q51.1359 1008.88 47.3859 1008.88 Q43.0109 1008.88 40.7887 1005.97 Q38.5665 1003.03 38.5665 997.216 L38.5665 991.244 L38.1498 991.244 Q35.21 991.244 33.6128 993.188 Q31.9925 995.109 31.9925 998.605 Q31.9925 1000.83 32.5249 1002.93 Q33.0573 1005.04 34.1221 1006.98 L30.1869 1006.98 Q29.2841 1004.65 28.8443 1002.45 Q28.3814 1000.25 28.3814 998.165 Q28.3814 992.54 31.298 989.762 Q34.2147 986.984 40.1406 986.984 Z" fill="#000000" fill-rule="evenodd" fill-opacity="1" /><path clip-path="url(#clip840)" d="M33.9832 958.026 Q31.1128 956.429 29.7471 954.207 Q28.3814 951.985 28.3814 948.975 Q28.3814 944.925 31.2286 942.725 Q34.0526 940.526 39.2841 940.526 L54.9322 940.526 L54.9322 944.809 L39.423 944.809 Q35.6961 944.809 33.8906 946.128 Q32.0851 947.448 32.0851 950.156 Q32.0851 953.466 34.2841 955.387 Q36.4832 957.309 40.2795 957.309 L54.9322 957.309 L54.9322 961.591 L39.423 961.591 Q35.673 961.591 33.8906 962.911 Q32.0851 964.23 32.0851 966.985 Q32.0851 970.248 34.3073 972.17 Q36.5063 974.091 40.2795 974.091 L54.9322 974.091 L54.9322 978.373 L29.0064 978.373 L29.0064 974.091 L33.0341 974.091 Q30.6499 972.633 29.5156 970.596 Q28.3814 968.559 28.3814 965.758 Q28.3814 962.934 29.8166 960.966 Q31.2517 958.975 33.9832 958.026 Z" fill="#000000" fill-rule="evenodd" fill-opacity="1" /><path clip-path="url(#clip840)" d="M40.9045 909.855 L42.9878 909.855 L42.9878 929.438 Q47.3859 929.161 49.7007 926.8 Q51.9924 924.415 51.9924 920.179 Q51.9924 917.726 51.3905 915.434 Q50.7887 913.119 49.585 910.851 L53.6127 910.851 Q54.5849 913.142 55.0942 915.55 Q55.6035 917.957 55.6035 920.434 Q55.6035 926.638 51.9924 930.272 Q48.3813 933.883 42.2239 933.883 Q35.8582 933.883 32.1314 930.457 Q28.3814 927.008 28.3814 921.175 Q28.3814 915.943 31.761 912.911 Q35.1174 909.855 40.9045 909.855 M39.6545 914.115 Q36.1591 914.161 34.0758 916.082 Q31.9925 917.98 31.9925 921.128 Q31.9925 924.693 34.0063 926.846 Q36.0202 928.976 39.6776 929.3 L39.6545 914.115 Z" fill="#000000" fill-rule="evenodd" fill-opacity="1" /><path clip-path="url(#clip840)" d="M21.6453 898.652 L29.0064 898.652 L29.0064 889.879 L32.3165 889.879 L32.3165 898.652 L46.3905 898.652 Q49.5618 898.652 50.4646 897.795 Q51.3674 896.916 51.3674 894.254 L51.3674 889.879 L54.9322 889.879 L54.9322 894.254 Q54.9322 899.184 53.1035 901.059 Q51.2516 902.934 46.3905 902.934 L32.3165 902.934 L32.3165 906.059 L29.0064 906.059 L29.0064 902.934 L21.6453 902.934 L21.6453 898.652 Z" fill="#000000" fill-rule="evenodd" fill-opacity="1" /><path clip-path="url(#clip840)" d="M32.9878 869.254 Q32.5712 869.971 32.386 870.828 Q32.1776 871.661 32.1776 872.68 Q32.1776 876.291 34.5387 878.235 Q36.8767 880.156 41.2748 880.156 L54.9322 880.156 L54.9322 884.439 L29.0064 884.439 L29.0064 880.156 L33.0341 880.156 Q30.673 878.814 29.5388 876.661 Q28.3814 874.508 28.3814 871.43 Q28.3814 870.99 28.4508 870.457 Q28.4971 869.925 28.6129 869.277 L32.9878 869.254 Z" fill="#000000" fill-rule="evenodd" fill-opacity="1" /><path clip-path="url(#clip840)" d="M31.9925 855.781 Q31.9925 859.207 34.6776 861.198 Q37.3397 863.189 41.9924 863.189 Q46.6452 863.189 49.3303 861.221 Q51.9924 859.231 51.9924 855.781 Q51.9924 852.379 49.3072 850.388 Q46.622 848.397 41.9924 848.397 Q37.386 848.397 34.7008 850.388 Q31.9925 852.379 31.9925 855.781 M28.3814 855.781 Q28.3814 850.226 31.9925 847.055 Q35.6036 843.883 41.9924 843.883 Q48.3581 843.883 51.9924 847.055 Q55.6035 850.226 55.6035 855.781 Q55.6035 861.36 51.9924 864.531 Q48.3581 867.68 41.9924 867.68 Q35.6036 867.68 31.9925 864.531 Q28.3814 861.36 28.3814 855.781 M17.0157 852.564 L17.0157 847.957 L25.7194 855.504 L25.7194 859.045 L17.0157 852.564 Z" fill="#000000" fill-rule="evenodd" fill-opacity="1" /><path clip-path="url(#clip840)" d="M29.0064 839.3 L29.0064 835.041 L49.2377 829.717 L29.0064 824.416 L29.0064 819.393 L49.2377 814.069 L29.0064 808.768 L29.0064 804.509 L54.9322 811.291 L54.9322 816.314 L33.6823 821.893 L54.9322 827.495 L54.9322 832.518 L29.0064 839.3 Z" fill="#000000" fill-rule="evenodd" fill-opacity="1" /><path clip-path="url(#clip840)" d="M51.0433 778.861 L64.7932 778.861 L64.7932 783.143 L29.0064 783.143 L29.0064 778.861 L32.9415 778.861 Q30.6267 777.518 29.5156 775.481 Q28.3814 773.421 28.3814 770.574 Q28.3814 765.851 32.1314 762.912 Q35.8813 759.949 41.9924 759.949 Q48.1035 759.949 51.8535 762.912 Q55.6035 765.851 55.6035 770.574 Q55.6035 773.421 54.4923 775.481 Q53.3581 777.518 51.0433 778.861 M41.9924 764.37 Q37.2934 764.37 34.6313 766.314 Q31.9462 768.236 31.9462 771.615 Q31.9462 774.995 34.6313 776.939 Q37.2934 778.861 41.9924 778.861 Q46.6915 778.861 49.3766 776.939 Q52.0387 774.995 52.0387 771.615 Q52.0387 768.236 49.3766 766.314 Q46.6915 764.37 41.9924 764.37 Z" fill="#000000" fill-rule="evenodd" fill-opacity="1" /><path clip-path="url(#clip840)" d="M32.9878 737.865 Q32.5712 738.583 32.386 739.44 Q32.1776 740.273 32.1776 741.291 Q32.1776 744.902 34.5387 746.847 Q36.8767 748.768 41.2748 748.768 L54.9322 748.768 L54.9322 753.051 L29.0064 753.051 L29.0064 748.768 L33.0341 748.768 Q30.673 747.426 29.5388 745.273 Q28.3814 743.12 28.3814 740.041 Q28.3814 739.602 28.4508 739.069 Q28.4971 738.537 28.6129 737.889 L32.9878 737.865 Z" fill="#000000" fill-rule="evenodd" fill-opacity="1" /><path clip-path="url(#clip840)" d="M31.9925 724.393 Q31.9925 727.819 34.6776 729.81 Q37.3397 731.801 41.9924 731.801 Q46.6452 731.801 49.3303 729.833 Q51.9924 727.842 51.9924 724.393 Q51.9924 720.991 49.3072 719 Q46.622 717.009 41.9924 717.009 Q37.386 717.009 34.7008 719 Q31.9925 720.991 31.9925 724.393 M28.3814 724.393 Q28.3814 718.838 31.9925 715.666 Q35.6036 712.495 41.9924 712.495 Q48.3581 712.495 51.9924 715.666 Q55.6035 718.838 55.6035 724.393 Q55.6035 729.972 51.9924 733.143 Q48.3581 736.291 41.9924 736.291 Q35.6036 736.291 31.9925 733.143 Q28.3814 729.972 28.3814 724.393 Z" fill="#000000" fill-rule="evenodd" fill-opacity="1" /><path clip-path="url(#clip840)" d="M32.9415 688.375 L18.9138 688.375 L18.9138 684.116 L54.9322 684.116 L54.9322 688.375 L51.0433 688.375 Q53.3581 689.718 54.4923 691.778 Q55.6035 693.815 55.6035 696.685 Q55.6035 701.384 51.8535 704.347 Q48.1035 707.287 41.9924 707.287 Q35.8813 707.287 32.1314 704.347 Q28.3814 701.384 28.3814 696.685 Q28.3814 693.815 29.5156 691.778 Q30.6267 689.718 32.9415 688.375 M41.9924 702.889 Q46.6915 702.889 49.3766 700.968 Q52.0387 699.023 52.0387 695.643 Q52.0387 692.264 49.3766 690.319 Q46.6915 688.375 41.9924 688.375 Q37.2934 688.375 34.6313 690.319 Q31.9462 692.264 31.9462 695.643 Q31.9462 699.023 34.6313 700.968 Q37.2934 702.889 41.9924 702.889 Z" fill="#000000" fill-rule="evenodd" fill-opacity="1" /><path clip-path="url(#clip840)" d="M44.7007 675.782 L29.0064 675.782 L29.0064 671.523 L44.5387 671.523 Q48.2192 671.523 50.0711 670.088 Q51.8998 668.653 51.8998 665.783 Q51.8998 662.333 49.7007 660.343 Q47.5016 658.329 43.7054 658.329 L29.0064 658.329 L29.0064 654.07 L54.9322 654.07 L54.9322 658.329 L50.9507 658.329 Q53.3118 659.88 54.4692 661.94 Q55.6035 663.977 55.6035 666.685 Q55.6035 671.153 52.8257 673.468 Q50.0479 675.782 44.7007 675.782 M28.3814 665.065 L28.3814 665.065 Z" fill="#000000" fill-rule="evenodd" fill-opacity="1" /><path clip-path="url(#clip840)" d="M18.9138 645.459 L18.9138 641.176 L40.1869 641.176 L29.0064 628.468 L29.0064 623.028 L41.1359 636.778 L54.9322 622.449 L54.9322 628.005 L42.2702 641.176 L54.9322 641.176 L54.9322 645.459 L18.9138 645.459 Z" fill="#000000" fill-rule="evenodd" fill-opacity="1" /><path clip-path="url(#clip840)" d="M21.6453 613.63 L29.0064 613.63 L29.0064 604.857 L32.3165 604.857 L32.3165 613.63 L46.3905 613.63 Q49.5618 613.63 50.4646 612.774 Q51.3674 611.894 51.3674 609.232 L51.3674 604.857 L54.9322 604.857 L54.9322 609.232 Q54.9322 614.162 53.1035 616.037 Q51.2516 617.912 46.3905 617.912 L32.3165 617.912 L32.3165 621.037 L29.0064 621.037 L29.0064 617.912 L21.6453 617.912 L21.6453 613.63 Z" fill="#000000" fill-rule="evenodd" fill-opacity="1" /><path clip-path="url(#clip840)" d="M44.7007 599.695 L29.0064 599.695 L29.0064 595.436 L44.5387 595.436 Q48.2192 595.436 50.0711 594 Q51.8998 592.565 51.8998 589.695 Q51.8998 586.246 49.7007 584.255 Q47.5016 582.241 43.7054 582.241 L29.0064 582.241 L29.0064 577.982 L54.9322 577.982 L54.9322 582.241 L50.9507 582.241 Q53.3118 583.792 54.4692 585.852 Q55.6035 587.889 55.6035 590.598 Q55.6035 595.065 52.8257 597.38 Q50.0479 599.695 44.7007 599.695 M28.3814 588.977 L28.3814 588.977 Z" fill="#000000" fill-rule="evenodd" fill-opacity="1" /><path clip-path="url(#clip840)" d="M31.9925 544.093 Q31.9925 547.519 34.6776 549.51 Q37.3397 551.501 41.9924 551.501 Q46.6452 551.501 49.3303 549.533 Q51.9924 547.542 51.9924 544.093 Q51.9924 540.691 49.3072 538.7 Q46.622 536.709 41.9924 536.709 Q37.386 536.709 34.7008 538.7 Q31.9925 540.691 31.9925 544.093 M28.3814 544.093 Q28.3814 538.538 31.9925 535.367 Q35.6036 532.195 41.9924 532.195 Q48.3581 532.195 51.9924 535.367 Q55.6035 538.538 55.6035 544.093 Q55.6035 549.672 51.9924 552.843 Q48.3581 555.991 41.9924 555.991 Q35.6036 555.991 31.9925 552.843 Q28.3814 549.672 28.3814 544.093 Z" fill="#000000" fill-rule="evenodd" fill-opacity="1" /><path clip-path="url(#clip840)" d="M32.9415 508.075 L18.9138 508.075 L18.9138 503.816 L54.9322 503.816 L54.9322 508.075 L51.0433 508.075 Q53.3581 509.418 54.4923 511.478 Q55.6035 513.515 55.6035 516.385 Q55.6035 521.084 51.8535 524.047 Q48.1035 526.987 41.9924 526.987 Q35.8813 526.987 32.1314 524.047 Q28.3814 521.084 28.3814 516.385 Q28.3814 513.515 29.5156 511.478 Q30.6267 509.418 32.9415 508.075 M41.9924 522.589 Q46.6915 522.589 49.3766 520.668 Q52.0387 518.723 52.0387 515.343 Q52.0387 511.964 49.3766 510.019 Q46.6915 508.075 41.9924 508.075 Q37.2934 508.075 34.6313 510.019 Q31.9462 511.964 31.9462 515.343 Q31.9462 518.723 34.6313 520.668 Q37.2934 522.589 41.9924 522.589 Z" fill="#000000" fill-rule="evenodd" fill-opacity="1" /><path clip-path="url(#clip840)" d="M31.9925 469.927 Q31.9925 473.353 34.6776 475.344 Q37.3397 477.334 41.9924 477.334 Q46.6452 477.334 49.3303 475.367 Q51.9924 473.376 51.9924 469.927 Q51.9924 466.524 49.3072 464.534 Q46.622 462.543 41.9924 462.543 Q37.386 462.543 34.7008 464.534 Q31.9925 466.524 31.9925 469.927 M28.3814 469.927 Q28.3814 464.372 31.9925 461.2 Q35.6036 458.029 41.9924 458.029 Q48.3581 458.029 51.9924 461.2 Q55.6035 464.372 55.6035 469.927 Q55.6035 475.506 51.9924 478.677 Q48.3581 481.825 41.9924 481.825 Q35.6036 481.825 31.9925 478.677 Q28.3814 475.506 28.3814 469.927 Z" fill="#000000" fill-rule="evenodd" fill-opacity="1" /><path clip-path="url(#clip840)" d="M30.0017 432.312 L33.9832 432.312 Q32.9878 434.117 32.5017 435.946 Q31.9925 437.751 31.9925 439.603 Q31.9925 443.747 34.6313 446.038 Q37.2471 448.33 41.9924 448.33 Q46.7378 448.33 49.3766 446.038 Q51.9924 443.747 51.9924 439.603 Q51.9924 437.751 51.5062 435.946 Q50.997 434.117 50.0016 432.312 L53.9368 432.312 Q54.7701 434.094 55.1868 436.015 Q55.6035 437.913 55.6035 440.066 Q55.6035 445.923 51.9229 449.372 Q48.2424 452.821 41.9924 452.821 Q35.6499 452.821 32.0156 449.348 Q28.3814 445.853 28.3814 439.788 Q28.3814 437.821 28.798 435.946 Q29.1916 434.071 30.0017 432.312 Z" fill="#000000" fill-rule="evenodd" fill-opacity="1" /><path clip-path="url(#clip840)" d="M29.0064 426.756 L29.0064 406.525 L32.8952 406.525 L51.5294 422.543 L51.5294 406.525 L54.9322 406.525 L54.9322 427.335 L51.0433 427.335 L32.4091 411.316 L32.4091 426.756 L29.0064 426.756 Z" fill="#000000" fill-rule="evenodd" fill-opacity="1" /><path clip-path="url(#clip840)" d="M40.9045 377.844 L42.9878 377.844 L42.9878 397.427 Q47.3859 397.15 49.7007 394.789 Q51.9924 392.404 51.9924 388.168 Q51.9924 385.715 51.3905 383.423 Q50.7887 381.108 49.585 378.84 L53.6127 378.84 Q54.5849 381.131 55.0942 383.539 Q55.6035 385.946 55.6035 388.423 Q55.6035 394.627 51.9924 398.261 Q48.3813 401.872 42.2239 401.872 Q35.8582 401.872 32.1314 398.446 Q28.3814 394.997 28.3814 389.164 Q28.3814 383.932 31.761 380.9 Q35.1174 377.844 40.9045 377.844 M39.6545 382.103 Q36.1591 382.15 34.0758 384.071 Q31.9925 385.969 31.9925 389.117 Q31.9925 392.682 34.0063 394.835 Q36.0202 396.965 39.6776 397.289 L39.6545 382.103 Z" fill="#000000" fill-rule="evenodd" fill-opacity="1" /><path clip-path="url(#clip840)" d="M18.9138 371.016 L18.9138 366.733 L40.1869 366.733 L29.0064 354.025 L29.0064 348.585 L41.1359 362.335 L54.9322 348.006 L54.9322 353.562 L42.2702 366.733 L54.9322 366.733 L54.9322 371.016 L18.9138 371.016 Z" fill="#000000" fill-rule="evenodd" fill-opacity="1" /><path clip-path="url(#clip840)" d="M29.0064 343.4 L29.0064 339.141 L54.9322 339.141 L54.9322 343.4 L29.0064 343.4 M18.9138 343.4 L18.9138 339.141 L24.3073 339.141 L24.3073 343.4 L18.9138 343.4 Z" fill="#000000" fill-rule="evenodd" fill-opacity="1" /><path clip-path="url(#clip840)" d="M29.0064 332.706 L29.0064 328.446 L49.2377 323.122 L29.0064 317.821 L29.0064 312.798 L49.2377 307.474 L29.0064 302.173 L29.0064 297.914 L54.9322 304.696 L54.9322 309.72 L33.6823 315.298 L54.9322 320.9 L54.9322 325.923 L29.0064 332.706 Z" fill="#000000" fill-rule="evenodd" fill-opacity="1" /><path clip-path="url(#clip840)" d="M41.8998 279.673 Q41.8998 284.835 43.0804 286.826 Q44.2609 288.817 47.1081 288.817 Q49.3766 288.817 50.7192 287.335 Q52.0387 285.831 52.0387 283.261 Q52.0387 279.72 49.5387 277.59 Q47.0155 275.437 42.8489 275.437 L41.8998 275.437 L41.8998 279.673 M40.1406 271.178 L54.9322 271.178 L54.9322 275.437 L50.997 275.437 Q53.3581 276.896 54.4923 279.072 Q55.6035 281.248 55.6035 284.396 Q55.6035 288.377 53.3812 290.738 Q51.1359 293.076 47.3859 293.076 Q43.0109 293.076 40.7887 290.16 Q38.5665 287.22 38.5665 281.41 L38.5665 275.437 L38.1498 275.437 Q35.21 275.437 33.6128 277.382 Q31.9925 279.303 31.9925 282.798 Q31.9925 285.021 32.5249 287.127 Q33.0573 289.234 34.1221 291.178 L30.1869 291.178 Q29.2841 288.84 28.8443 286.641 Q28.3814 284.442 28.3814 282.359 Q28.3814 276.734 31.298 273.956 Q34.2147 271.178 40.1406 271.178 Z" fill="#000000" fill-rule="evenodd" fill-opacity="1" /><path clip-path="url(#clip840)" d="M16.8537 250.275 L16.8537 245.669 L25.5573 253.215 L25.5573 256.757 L16.8537 250.275 M39.2841 240.854 L54.9322 240.854 L54.9322 245.113 L39.423 245.113 Q35.7424 245.113 33.9138 246.549 Q32.0851 247.984 32.0851 250.854 Q32.0851 254.303 34.2841 256.294 Q36.4832 258.285 40.2795 258.285 L54.9322 258.285 L54.9322 262.567 L29.0064 262.567 L29.0064 258.285 L33.0341 258.285 Q30.6962 256.757 29.5388 254.697 Q28.3814 252.613 28.3814 249.905 Q28.3814 245.438 31.1591 243.146 Q33.9138 240.854 39.2841 240.854 Z" fill="#000000" fill-rule="evenodd" fill-opacity="1" /><path clip-path="url(#clip840)" d="M1180.75 12.096 L1188.94 12.096 L1188.94 68.3631 Q1188.94 79.3005 1184.77 84.2426 Q1180.63 89.1847 1171.44 89.1847 L1168.32 89.1847 L1168.32 82.2982 L1170.87 82.2982 Q1176.3 82.2982 1178.53 79.26 Q1180.75 76.2218 1180.75 68.3631 L1180.75 12.096 Z" fill="#000000" fill-rule="evenodd" fill-opacity="1" /><path clip-path="url(#clip840)" d="M1225.52 49.7694 Q1216.48 49.7694 1213 51.8354 Q1209.52 53.9013 1209.52 58.8839 Q1209.52 62.8538 1212.11 65.2034 Q1214.74 67.5124 1219.24 67.5124 Q1225.44 67.5124 1229.16 63.1374 Q1232.93 58.7219 1232.93 51.4303 L1232.93 49.7694 L1225.52 49.7694 M1240.38 46.6907 L1240.38 72.576 L1232.93 72.576 L1232.93 65.6895 Q1230.38 69.8214 1226.57 71.8063 Q1222.76 73.7508 1217.25 73.7508 Q1210.29 73.7508 1206.15 69.8619 Q1202.06 65.9325 1202.06 59.3701 Q1202.06 51.7138 1207.17 47.825 Q1212.31 43.9361 1222.48 43.9361 L1232.93 43.9361 L1232.93 43.2069 Q1232.93 38.0623 1229.53 35.2672 Q1226.17 32.4315 1220.05 32.4315 Q1216.16 32.4315 1212.47 33.3632 Q1208.79 34.295 1205.38 36.1584 L1205.38 29.2718 Q1209.48 27.692 1213.32 26.9223 Q1217.17 26.1121 1220.82 26.1121 Q1230.66 26.1121 1235.52 31.2163 Q1240.38 36.3204 1240.38 46.6907 Z" fill="#000000" fill-rule="evenodd" fill-opacity="1" /><path clip-path="url(#clip840)" d="M1255.45 9.54393 L1262.95 9.54393 L1262.95 46.7717 L1285.19 27.2059 L1294.71 27.2059 L1270.64 48.4326 L1295.72 72.576 L1286 72.576 L1262.95 50.4176 L1262.95 72.576 L1255.45 72.576 L1255.45 9.54393 Z" fill="#000000" fill-rule="evenodd" fill-opacity="1" /><path clip-path="url(#clip840)" d="M1318.4 32.4315 Q1312.41 32.4315 1308.93 37.1306 Q1305.44 41.7891 1305.44 49.9314 Q1305.44 58.0738 1308.88 62.7728 Q1312.37 67.4314 1318.4 67.4314 Q1324.36 67.4314 1327.84 62.7323 Q1331.33 58.0333 1331.33 49.9314 Q1331.33 41.8701 1327.84 37.1711 Q1324.36 32.4315 1318.4 32.4315 M1318.4 26.1121 Q1328.13 26.1121 1333.68 32.4315 Q1339.23 38.7509 1339.23 49.9314 Q1339.23 61.0714 1333.68 67.4314 Q1328.13 73.7508 1318.4 73.7508 Q1308.64 73.7508 1303.09 67.4314 Q1297.58 61.0714 1297.58 49.9314 Q1297.58 38.7509 1303.09 32.4315 Q1308.64 26.1121 1318.4 26.1121 Z" fill="#000000" fill-rule="evenodd" fill-opacity="1" /><path clip-path="url(#clip840)" d="M1372.81 5.93863 L1380.87 5.93863 L1367.66 21.17 L1361.47 21.17 L1372.81 5.93863 M1380.5 28.5427 L1380.5 35.5912 Q1377.35 33.9709 1373.94 33.1607 Q1370.54 32.3505 1366.89 32.3505 Q1361.34 32.3505 1358.55 34.0519 Q1355.79 35.7533 1355.79 39.156 Q1355.79 41.7486 1357.78 43.2475 Q1359.76 44.7058 1365.76 46.0426 L1368.31 46.6097 Q1376.25 48.3111 1379.57 51.4303 Q1382.94 54.509 1382.94 60.0587 Q1382.94 66.3781 1377.91 70.0644 Q1372.93 73.7508 1364.18 73.7508 Q1360.53 73.7508 1356.56 73.0216 Q1352.63 72.3329 1348.26 70.9151 L1348.26 63.2184 Q1352.39 65.3654 1356.4 66.4591 Q1360.41 67.5124 1364.34 67.5124 Q1369.61 67.5124 1372.44 65.73 Q1375.28 63.9071 1375.28 60.6258 Q1375.28 57.5877 1373.21 55.9673 Q1371.19 54.3469 1364.26 52.8481 L1361.67 52.2405 Q1354.74 50.7821 1351.66 47.7845 Q1348.58 44.7463 1348.58 39.4801 Q1348.58 33.0797 1353.12 29.5959 Q1357.66 26.1121 1366 26.1121 Q1370.13 26.1121 1373.78 26.7198 Q1377.43 27.3274 1380.5 28.5427 Z" fill="#000000" fill-rule="evenodd" fill-opacity="1" /><path clip-path="url(#clip840)" d="M1427.45 28.9478 L1427.45 35.9153 Q1424.3 34.1734 1421.09 33.3227 Q1417.94 32.4315 1414.69 32.4315 Q1407.44 32.4315 1403.43 37.0496 Q1399.42 41.6271 1399.42 49.9314 Q1399.42 58.2358 1403.43 62.8538 Q1407.44 67.4314 1414.69 67.4314 Q1417.94 67.4314 1421.09 66.5807 Q1424.3 65.6895 1427.45 63.9476 L1427.45 70.8341 Q1424.34 72.2924 1420.97 73.0216 Q1417.65 73.7508 1413.88 73.7508 Q1403.64 73.7508 1397.6 67.3098 Q1391.56 60.8689 1391.56 49.9314 Q1391.56 38.832 1397.64 32.472 Q1403.76 26.1121 1414.37 26.1121 Q1417.81 26.1121 1421.09 26.8413 Q1424.38 27.5299 1427.45 28.9478 M1418.91 6.22219 L1426.97 6.22219 L1413.76 21.4536 L1407.56 21.4536 L1418.91 6.22219 Z" fill="#000000" fill-rule="evenodd" fill-opacity="1" /><path clip-path="url(#clip842)" d="
M745.02 1317.88 L523.873 1317.88 L966.167 1317.88 L745.02 1317.88 L745.02 1079.33 L745.02 1317.88  Z
  " fill="#009af9" fill-rule="evenodd" fill-opacity="1"/>
<polyline clip-path="url(#clip842)" style="stroke:#000000; stroke-linecap:round; stroke-linejoin:round; stroke-width:4; stroke-opacity:1; fill:none" points="
  745.02,1317.88 523.873,1317.88 966.167,1317.88 745.02,1317.88 745.02,1079.33 745.02,1317.88 
  "/>
<path clip-path="url(#clip842)" d="
M1187.31 1079.33 L1187.31 1005.89 L302.727 1005.89 L302.727 1079.33 L1187.31 1079.33 L1187.31 1005.89 L1187.31 1079.33  Z
  " fill="#009af9" fill-rule="evenodd" fill-opacity="1"/>
<polyline clip-path="url(#clip842)" style="stroke:#000000; stroke-linecap:round; stroke-linejoin:round; stroke-width:4; stroke-opacity:1; fill:none" points="
  1187.31,1079.33 1187.31,1005.89 302.727,1005.89 302.727,1079.33 1187.31,1079.33 1187.31,1005.89 1187.31,1079.33 
  "/>
<path clip-path="url(#clip842)" d="
M1187.31 914.352 L302.727 914.352 L302.727 1005.89 L1187.31 1005.89 L1187.31 914.352 L745.02 914.352 L1187.31 914.352  Z
  " fill="#009af9" fill-rule="evenodd" fill-opacity="1"/>
<polyline clip-path="url(#clip842)" style="stroke:#000000; stroke-linecap:round; stroke-linejoin:round; stroke-width:4; stroke-opacity:1; fill:none" points="
  1187.31,914.352 302.727,914.352 302.727,1005.89 1187.31,1005.89 1187.31,914.352 745.02,914.352 1187.31,914.352 
  "/>
<path clip-path="url(#clip842)" d="
M745.02 671.334 L523.873 671.334 L966.167 671.334 L745.02 671.334 L745.02 914.352 L745.02 671.334  Z
  " fill="#009af9" fill-rule="evenodd" fill-opacity="1"/>
<polyline clip-path="url(#clip842)" style="stroke:#000000; stroke-linecap:round; stroke-linejoin:round; stroke-width:4; stroke-opacity:1; fill:none" points="
  745.02,671.334 523.873,671.334 966.167,671.334 745.02,671.334 745.02,914.352 745.02,671.334 
  "/>
<circle clip-path="url(#clip842)" cx="745.02" cy="1367.8" r="14.4" fill="#009af9" fill-rule="evenodd" fill-opacity="1" stroke="#000000" stroke-opacity="1" stroke-width="3.2"/>
<circle clip-path="url(#clip842)" cx="745.02" cy="557.182" r="14.4" fill="#009af9" fill-rule="evenodd" fill-opacity="1" stroke="#000000" stroke-opacity="1" stroke-width="3.2"/>
<circle clip-path="url(#clip842)" cx="745.02" cy="1328.43" r="14.4" fill="#009af9" fill-rule="evenodd" fill-opacity="1" stroke="#000000" stroke-opacity="1" stroke-width="3.2"/>
<circle clip-path="url(#clip842)" cx="745.02" cy="479.455" r="14.4" fill="#009af9" fill-rule="evenodd" fill-opacity="1" stroke="#000000" stroke-opacity="1" stroke-width="3.2"/>
<circle clip-path="url(#clip842)" cx="745.02" cy="162.047" r="14.4" fill="#009af9" fill-rule="evenodd" fill-opacity="1" stroke="#000000" stroke-opacity="1" stroke-width="3.2"/>
<circle clip-path="url(#clip842)" cx="745.02" cy="588.606" r="14.4" fill="#009af9" fill-rule="evenodd" fill-opacity="1" stroke="#000000" stroke-opacity="1" stroke-width="3.2"/>
<circle clip-path="url(#clip842)" cx="745.02" cy="560.43" r="14.4" fill="#009af9" fill-rule="evenodd" fill-opacity="1" stroke="#000000" stroke-opacity="1" stroke-width="3.2"/>
<circle clip-path="url(#clip842)" cx="745.02" cy="552.727" r="14.4" fill="#009af9" fill-rule="evenodd" fill-opacity="1" stroke="#000000" stroke-opacity="1" stroke-width="3.2"/>
<circle clip-path="url(#clip842)" cx="745.02" cy="571.44" r="14.4" fill="#009af9" fill-rule="evenodd" fill-opacity="1" stroke="#000000" stroke-opacity="1" stroke-width="3.2"/>
<circle clip-path="url(#clip842)" cx="745.02" cy="610.174" r="14.4" fill="#009af9" fill-rule="evenodd" fill-opacity="1" stroke="#000000" stroke-opacity="1" stroke-width="3.2"/>
<circle clip-path="url(#clip842)" cx="745.02" cy="517.317" r="14.4" fill="#009af9" fill-rule="evenodd" fill-opacity="1" stroke="#000000" stroke-opacity="1" stroke-width="3.2"/>
<circle clip-path="url(#clip842)" cx="745.02" cy="1337.48" r="14.4" fill="#009af9" fill-rule="evenodd" fill-opacity="1" stroke="#000000" stroke-opacity="1" stroke-width="3.2"/>
<circle clip-path="url(#clip842)" cx="745.02" cy="603.921" r="14.4" fill="#009af9" fill-rule="evenodd" fill-opacity="1" stroke="#000000" stroke-opacity="1" stroke-width="3.2"/>
<circle clip-path="url(#clip842)" cx="745.02" cy="470.937" r="14.4" fill="#009af9" fill-rule="evenodd" fill-opacity="1" stroke="#000000" stroke-opacity="1" stroke-width="3.2"/>
<circle clip-path="url(#clip842)" cx="745.02" cy="1402.54" r="14.4" fill="#009af9" fill-rule="evenodd" fill-opacity="1" stroke="#000000" stroke-opacity="1" stroke-width="3.2"/>
<circle clip-path="url(#clip842)" cx="745.02" cy="310.436" r="14.4" fill="#009af9" fill-rule="evenodd" fill-opacity="1" stroke="#000000" stroke-opacity="1" stroke-width="3.2"/>
<circle clip-path="url(#clip842)" cx="745.02" cy="625.396" r="14.4" fill="#009af9" fill-rule="evenodd" fill-opacity="1" stroke="#000000" stroke-opacity="1" stroke-width="3.2"/>
<circle clip-path="url(#clip842)" cx="745.02" cy="567.098" r="14.4" fill="#009af9" fill-rule="evenodd" fill-opacity="1" stroke="#000000" stroke-opacity="1" stroke-width="3.2"/>
<circle clip-path="url(#clip842)" cx="745.02" cy="334.291" r="14.4" fill="#009af9" fill-rule="evenodd" fill-opacity="1" stroke="#000000" stroke-opacity="1" stroke-width="3.2"/>
<circle clip-path="url(#clip842)" cx="745.02" cy="585.892" r="14.4" fill="#009af9" fill-rule="evenodd" fill-opacity="1" stroke="#000000" stroke-opacity="1" stroke-width="3.2"/>
<circle clip-path="url(#clip842)" cx="745.02" cy="1447.24" r="14.4" fill="#009af9" fill-rule="evenodd" fill-opacity="1" stroke="#000000" stroke-opacity="1" stroke-width="3.2"/>
<circle clip-path="url(#clip842)" cx="745.02" cy="577.382" r="14.4" fill="#009af9" fill-rule="evenodd" fill-opacity="1" stroke="#000000" stroke-opacity="1" stroke-width="3.2"/>
<circle clip-path="url(#clip842)" cx="745.02" cy="508.736" r="14.4" fill="#009af9" fill-rule="evenodd" fill-opacity="1" stroke="#000000" stroke-opacity="1" stroke-width="3.2"/>
<circle clip-path="url(#clip842)" cx="745.02" cy="554.736" r="14.4" fill="#009af9" fill-rule="evenodd" fill-opacity="1" stroke="#000000" stroke-opacity="1" stroke-width="3.2"/>
<circle clip-path="url(#clip842)" cx="745.02" cy="355.17" r="14.4" fill="#009af9" fill-rule="evenodd" fill-opacity="1" stroke="#000000" stroke-opacity="1" stroke-width="3.2"/>
<circle clip-path="url(#clip842)" cx="745.02" cy="475.676" r="14.4" fill="#009af9" fill-rule="evenodd" fill-opacity="1" stroke="#000000" stroke-opacity="1" stroke-width="3.2"/>
<circle clip-path="url(#clip842)" cx="745.02" cy="517.662" r="14.4" fill="#009af9" fill-rule="evenodd" fill-opacity="1" stroke="#000000" stroke-opacity="1" stroke-width="3.2"/>
<circle clip-path="url(#clip842)" cx="745.02" cy="510.998" r="14.4" fill="#009af9" fill-rule="evenodd" fill-opacity="1" stroke="#000000" stroke-opacity="1" stroke-width="3.2"/>
<circle clip-path="url(#clip842)" cx="745.02" cy="532.028" r="14.4" fill="#009af9" fill-rule="evenodd" fill-opacity="1" stroke="#000000" stroke-opacity="1" stroke-width="3.2"/>
<circle clip-path="url(#clip842)" cx="745.02" cy="450.315" r="14.4" fill="#009af9" fill-rule="evenodd" fill-opacity="1" stroke="#000000" stroke-opacity="1" stroke-width="3.2"/>
<circle clip-path="url(#clip842)" cx="745.02" cy="261.714" r="14.4" fill="#009af9" fill-rule="evenodd" fill-opacity="1" stroke="#000000" stroke-opacity="1" stroke-width="3.2"/>
<circle clip-path="url(#clip842)" cx="745.02" cy="632.66" r="14.4" fill="#009af9" fill-rule="evenodd" fill-opacity="1" stroke="#000000" stroke-opacity="1" stroke-width="3.2"/>
<circle clip-path="url(#clip842)" cx="745.02" cy="607.754" r="14.4" fill="#009af9" fill-rule="evenodd" fill-opacity="1" stroke="#000000" stroke-opacity="1" stroke-width="3.2"/>
<circle clip-path="url(#clip842)" cx="745.02" cy="595.104" r="14.4" fill="#009af9" fill-rule="evenodd" fill-opacity="1" stroke="#000000" stroke-opacity="1" stroke-width="3.2"/>
<circle clip-path="url(#clip842)" cx="745.02" cy="465.603" r="14.4" fill="#009af9" fill-rule="evenodd" fill-opacity="1" stroke="#000000" stroke-opacity="1" stroke-width="3.2"/>
<circle clip-path="url(#clip842)" cx="745.02" cy="1390.23" r="14.4" fill="#009af9" fill-rule="evenodd" fill-opacity="1" stroke="#000000" stroke-opacity="1" stroke-width="3.2"/>
<circle clip-path="url(#clip842)" cx="745.02" cy="1445.04" r="14.4" fill="#009af9" fill-rule="evenodd" fill-opacity="1" stroke="#000000" stroke-opacity="1" stroke-width="3.2"/>
<circle clip-path="url(#clip842)" cx="745.02" cy="1345.77" r="14.4" fill="#009af9" fill-rule="evenodd" fill-opacity="1" stroke="#000000" stroke-opacity="1" stroke-width="3.2"/>
<circle clip-path="url(#clip842)" cx="745.02" cy="628.383" r="14.4" fill="#009af9" fill-rule="evenodd" fill-opacity="1" stroke="#000000" stroke-opacity="1" stroke-width="3.2"/>
<circle clip-path="url(#clip842)" cx="745.02" cy="518.635" r="14.4" fill="#009af9" fill-rule="evenodd" fill-opacity="1" stroke="#000000" stroke-opacity="1" stroke-width="3.2"/>
<polyline clip-path="url(#clip842)" style="stroke:#009af9; stroke-linecap:round; stroke-linejoin:round; stroke-width:0; stroke-opacity:1; fill:none" points="
  745.02,1317.88 523.873,1317.88 966.167,1317.88 745.02,1317.88 745.02,1079.33 
  "/>
<polyline clip-path="url(#clip842)" style="stroke:#009af9; stroke-linecap:round; stroke-linejoin:round; stroke-width:0; stroke-opacity:1; fill:none" points="
  1187.31,1079.33 1187.31,1005.89 302.727,1005.89 302.727,1079.33 1187.31,1079.33 1187.31,1005.89 
  "/>
<polyline clip-path="url(#clip842)" style="stroke:#009af9; stroke-linecap:round; stroke-linejoin:round; stroke-width:0; stroke-opacity:1; fill:none" points="
  1187.31,914.352 302.727,914.352 302.727,1005.89 1187.31,1005.89 1187.31,914.352 745.02,914.352 
  "/>
<polyline clip-path="url(#clip842)" style="stroke:#009af9; stroke-linecap:round; stroke-linejoin:round; stroke-width:0; stroke-opacity:1; fill:none" points="
  745.02,671.334 523.873,671.334 966.167,671.334 745.02,671.334 745.02,914.352 
  "/>
<path clip-path="url(#clip842)" d="
M1850.75 1302.27 L1629.61 1302.27 L2071.9 1302.27 L1850.75 1302.27 L1850.75 1115.9 L1850.75 1302.27  Z
  " fill="#e26f46" fill-rule="evenodd" fill-opacity="1"/>
<polyline clip-path="url(#clip842)" style="stroke:#000000; stroke-linecap:round; stroke-linejoin:round; stroke-width:4; stroke-opacity:1; fill:none" points="
  1850.75,1302.27 1629.61,1302.27 2071.9,1302.27 1850.75,1302.27 1850.75,1115.9 1850.75,1302.27 
  "/>
<path clip-path="url(#clip842)" d="
M2293.05 1115.9 L2293.05 1062.64 L1408.46 1062.64 L1408.46 1115.9 L2293.05 1115.9 L2293.05 1062.64 L2293.05 1115.9  Z
  " fill="#e26f46" fill-rule="evenodd" fill-opacity="1"/>
<polyline clip-path="url(#clip842)" style="stroke:#000000; stroke-linecap:round; stroke-linejoin:round; stroke-width:4; stroke-opacity:1; fill:none" points="
  2293.05,1115.9 2293.05,1062.64 1408.46,1062.64 1408.46,1115.9 2293.05,1115.9 2293.05,1062.64 2293.05,1115.9 
  "/>
<path clip-path="url(#clip842)" d="
M2293.05 988.854 L1408.46 988.854 L1408.46 1062.64 L2293.05 1062.64 L2293.05 988.854 L1850.75 988.854 L2293.05 988.854  Z
  " fill="#e26f46" fill-rule="evenodd" fill-opacity="1"/>
<polyline clip-path="url(#clip842)" style="stroke:#000000; stroke-linecap:round; stroke-linejoin:round; stroke-width:4; stroke-opacity:1; fill:none" points="
  2293.05,988.854 1408.46,988.854 1408.46,1062.64 2293.05,1062.64 2293.05,988.854 1850.75,988.854 2293.05,988.854 
  "/>
<path clip-path="url(#clip842)" d="
M1850.75 802.82 L1629.61 802.82 L2071.9 802.82 L1850.75 802.82 L1850.75 988.854 L1850.75 802.82  Z
  " fill="#e26f46" fill-rule="evenodd" fill-opacity="1"/>
<polyline clip-path="url(#clip842)" style="stroke:#000000; stroke-linecap:round; stroke-linejoin:round; stroke-width:4; stroke-opacity:1; fill:none" points="
  1850.75,802.82 1629.61,802.82 2071.9,802.82 1850.75,802.82 1850.75,988.854 1850.75,802.82 
  "/>
<circle clip-path="url(#clip842)" cx="1850.75" cy="745.441" r="14.4" fill="#e26f46" fill-rule="evenodd" fill-opacity="1" stroke="#000000" stroke-opacity="1" stroke-width="3.2"/>
<circle clip-path="url(#clip842)" cx="1850.75" cy="713.395" r="14.4" fill="#e26f46" fill-rule="evenodd" fill-opacity="1" stroke="#000000" stroke-opacity="1" stroke-width="3.2"/>
<circle clip-path="url(#clip842)" cx="1850.75" cy="790.572" r="14.4" fill="#e26f46" fill-rule="evenodd" fill-opacity="1" stroke="#000000" stroke-opacity="1" stroke-width="3.2"/>
<circle clip-path="url(#clip842)" cx="1850.75" cy="725.195" r="14.4" fill="#e26f46" fill-rule="evenodd" fill-opacity="1" stroke="#000000" stroke-opacity="1" stroke-width="3.2"/>
<circle clip-path="url(#clip842)" cx="1850.75" cy="727.124" r="14.4" fill="#e26f46" fill-rule="evenodd" fill-opacity="1" stroke="#000000" stroke-opacity="1" stroke-width="3.2"/>
<circle clip-path="url(#clip842)" cx="1850.75" cy="1359.34" r="14.4" fill="#e26f46" fill-rule="evenodd" fill-opacity="1" stroke="#000000" stroke-opacity="1" stroke-width="3.2"/>
<circle clip-path="url(#clip842)" cx="1850.75" cy="739.502" r="14.4" fill="#e26f46" fill-rule="evenodd" fill-opacity="1" stroke="#000000" stroke-opacity="1" stroke-width="3.2"/>
<circle clip-path="url(#clip842)" cx="1850.75" cy="774.806" r="14.4" fill="#e26f46" fill-rule="evenodd" fill-opacity="1" stroke="#000000" stroke-opacity="1" stroke-width="3.2"/>
<circle clip-path="url(#clip842)" cx="1850.75" cy="610.417" r="14.4" fill="#e26f46" fill-rule="evenodd" fill-opacity="1" stroke="#000000" stroke-opacity="1" stroke-width="3.2"/>
<circle clip-path="url(#clip842)" cx="1850.75" cy="690.624" r="14.4" fill="#e26f46" fill-rule="evenodd" fill-opacity="1" stroke="#000000" stroke-opacity="1" stroke-width="3.2"/>
<circle clip-path="url(#clip842)" cx="1850.75" cy="1377.03" r="14.4" fill="#e26f46" fill-rule="evenodd" fill-opacity="1" stroke="#000000" stroke-opacity="1" stroke-width="3.2"/>
<circle clip-path="url(#clip842)" cx="1850.75" cy="1382.93" r="14.4" fill="#e26f46" fill-rule="evenodd" fill-opacity="1" stroke="#000000" stroke-opacity="1" stroke-width="3.2"/>
<circle clip-path="url(#clip842)" cx="1850.75" cy="590.335" r="14.4" fill="#e26f46" fill-rule="evenodd" fill-opacity="1" stroke="#000000" stroke-opacity="1" stroke-width="3.2"/>
<circle clip-path="url(#clip842)" cx="1850.75" cy="1447.87" r="14.4" fill="#e26f46" fill-rule="evenodd" fill-opacity="1" stroke="#000000" stroke-opacity="1" stroke-width="3.2"/>
<circle clip-path="url(#clip842)" cx="1850.75" cy="652.123" r="14.4" fill="#e26f46" fill-rule="evenodd" fill-opacity="1" stroke="#000000" stroke-opacity="1" stroke-width="3.2"/>
<circle clip-path="url(#clip842)" cx="1850.75" cy="645.502" r="14.4" fill="#e26f46" fill-rule="evenodd" fill-opacity="1" stroke="#000000" stroke-opacity="1" stroke-width="3.2"/>
<circle clip-path="url(#clip842)" cx="1850.75" cy="758.746" r="14.4" fill="#e26f46" fill-rule="evenodd" fill-opacity="1" stroke="#000000" stroke-opacity="1" stroke-width="3.2"/>
<circle clip-path="url(#clip842)" cx="1850.75" cy="1331.4" r="14.4" fill="#e26f46" fill-rule="evenodd" fill-opacity="1" stroke="#000000" stroke-opacity="1" stroke-width="3.2"/>
<circle clip-path="url(#clip842)" cx="1850.75" cy="731.234" r="14.4" fill="#e26f46" fill-rule="evenodd" fill-opacity="1" stroke="#000000" stroke-opacity="1" stroke-width="3.2"/>
<circle clip-path="url(#clip842)" cx="1850.75" cy="373.95" r="14.4" fill="#e26f46" fill-rule="evenodd" fill-opacity="1" stroke="#000000" stroke-opacity="1" stroke-width="3.2"/>
<circle clip-path="url(#clip842)" cx="1850.75" cy="763.46" r="14.4" fill="#e26f46" fill-rule="evenodd" fill-opacity="1" stroke="#000000" stroke-opacity="1" stroke-width="3.2"/>
<circle clip-path="url(#clip842)" cx="1850.75" cy="295.802" r="14.4" fill="#e26f46" fill-rule="evenodd" fill-opacity="1" stroke="#000000" stroke-opacity="1" stroke-width="3.2"/>
<polyline clip-path="url(#clip842)" style="stroke:#e26f46; stroke-linecap:round; stroke-linejoin:round; stroke-width:0; stroke-opacity:1; fill:none" points="
  1850.75,1302.27 1629.61,1302.27 2071.9,1302.27 1850.75,1302.27 1850.75,1115.9 
  "/>
<polyline clip-path="url(#clip842)" style="stroke:#e26f46; stroke-linecap:round; stroke-linejoin:round; stroke-width:0; stroke-opacity:1; fill:none" points="
  2293.05,1115.9 2293.05,1062.64 1408.46,1062.64 1408.46,1115.9 2293.05,1115.9 2293.05,1062.64 
  "/>
<polyline clip-path="url(#clip842)" style="stroke:#e26f46; stroke-linecap:round; stroke-linejoin:round; stroke-width:0; stroke-opacity:1; fill:none" points="
  2293.05,988.854 1408.46,988.854 1408.46,1062.64 2293.05,1062.64 2293.05,988.854 1850.75,988.854 
  "/>
<polyline clip-path="url(#clip842)" style="stroke:#e26f46; stroke-linecap:round; stroke-linejoin:round; stroke-width:0; stroke-opacity:1; fill:none" points="
  1850.75,802.82 1629.61,802.82 2071.9,802.82 1850.75,802.82 1850.75,988.854 
  "/>
</svg>
