<?xml version="1.0" encoding="utf-8"?>
<svg xmlns="http://www.w3.org/2000/svg" xmlns:xlink="http://www.w3.org/1999/xlink" width="600" height="400" viewBox="0 0 2400 1600">
<defs>
  <clipPath id="clip700">
    <rect x="0" y="0" width="2400" height="1600"/>
  </clipPath>
</defs>
<path clip-path="url(#clip700)" d="
M0 1600 L2400 1600 L2400 0 L0 0  Z
  " fill="#ffffff" fill-rule="evenodd" fill-opacity="1"/>
<defs>
  <clipPath id="clip701">
    <rect x="480" y="0" width="1681" height="1600"/>
  </clipPath>
</defs>
<path clip-path="url(#clip700)" d="
M249.542 1423.18 L2352.76 1423.18 L2352.76 123.472 L249.542 123.472  Z
  " fill="#ffffff" fill-rule="evenodd" fill-opacity="1"/>
<defs>
  <clipPath id="clip702">
    <rect x="249" y="123" width="2104" height="1301"/>
  </clipPath>
</defs>
<polyline clip-path="url(#clip702)" style="stroke:#000000; stroke-linecap:butt; stroke-linejoin:round; stroke-width:2; stroke-opacity:0.1; fill:none" points="
  590.787,1423.18 590.787,123.472 
  "/>
<polyline clip-path="url(#clip702)" style="stroke:#000000; stroke-linecap:butt; stroke-linejoin:round; stroke-width:2; stroke-opacity:0.1; fill:none" points="
  1040.18,1423.18 1040.18,123.472 
  "/>
<polyline clip-path="url(#clip702)" style="stroke:#000000; stroke-linecap:butt; stroke-linejoin:round; stroke-width:2; stroke-opacity:0.1; fill:none" points="
  1489.58,1423.18 1489.58,123.472 
  "/>
<polyline clip-path="url(#clip702)" style="stroke:#000000; stroke-linecap:butt; stroke-linejoin:round; stroke-width:2; stroke-opacity:0.1; fill:none" points="
  1938.97,1423.18 1938.97,123.472 
  "/>
<polyline clip-path="url(#clip700)" style="stroke:#000000; stroke-linecap:butt; stroke-linejoin:round; stroke-width:4; stroke-opacity:1; fill:none" points="
  249.542,1423.18 2352.76,1423.18 
  "/>
<polyline clip-path="url(#clip700)" style="stroke:#000000; stroke-linecap:butt; stroke-linejoin:round; stroke-width:4; stroke-opacity:1; fill:none" points="
  590.787,1423.18 590.787,1404.28 
  "/>
<polyline clip-path="url(#clip700)" style="stroke:#000000; stroke-linecap:butt; stroke-linejoin:round; stroke-width:4; stroke-opacity:1; fill:none" points="
  1040.18,1423.18 1040.18,1404.28 
  "/>
<polyline clip-path="url(#clip700)" style="stroke:#000000; stroke-linecap:butt; stroke-linejoin:round; stroke-width:4; stroke-opacity:1; fill:none" points="
  1489.58,1423.18 1489.58,1404.28 
  "/>
<polyline clip-path="url(#clip700)" style="stroke:#000000; stroke-linecap:butt; stroke-linejoin:round; stroke-width:4; stroke-opacity:1; fill:none" points="
  1938.97,1423.18 1938.97,1404.28 
  "/>
<path clip-path="url(#clip700)" d="M590.787 1454.1 Q587.176 1454.1 585.348 1457.66 Q583.542 1461.2 583.542 1468.33 Q583.542 1475.44 585.348 1479.01 Q587.176 1482.55 590.787 1482.55 Q594.422 1482.55 596.227 1479.01 Q598.056 1475.44 598.056 1468.33 Q598.056 1461.2 596.227 1457.66 Q594.422 1454.1 590.787 1454.1 M590.787 1450.39 Q596.598 1450.39 599.653 1455 Q602.732 1459.58 602.732 1468.33 Q602.732 1477.06 599.653 1481.67 Q596.598 1486.25 590.787 1486.25 Q584.977 1486.25 581.899 1481.67 Q578.843 1477.06 578.843 1468.33 Q578.843 1459.58 581.899 1455 Q584.977 1450.39 590.787 1450.39 Z" fill="#000000" fill-rule="evenodd" fill-opacity="1" /><path clip-path="url(#clip700)" d="M1034.83 1481.64 L1051.15 1481.64 L1051.15 1485.58 L1029.21 1485.58 L1029.21 1481.64 Q1031.87 1478.89 1036.46 1474.26 Q1041.06 1469.61 1042.24 1468.27 Q1044.49 1465.74 1045.37 1464.01 Q1046.27 1462.25 1046.27 1460.56 Q1046.27 1457.8 1044.33 1456.07 Q1042.4 1454.33 1039.3 1454.33 Q1037.1 1454.33 1034.65 1455.09 Q1032.22 1455.86 1029.44 1457.41 L1029.44 1452.69 Q1032.27 1451.55 1034.72 1450.97 Q1037.17 1450.39 1039.21 1450.39 Q1044.58 1450.39 1047.77 1453.08 Q1050.97 1455.77 1050.97 1460.26 Q1050.97 1462.39 1050.16 1464.31 Q1049.37 1466.2 1047.27 1468.8 Q1046.69 1469.47 1043.58 1472.69 Q1040.48 1475.88 1034.83 1481.64 Z" fill="#000000" fill-rule="evenodd" fill-opacity="1" /><path clip-path="url(#clip700)" d="M1492.59 1455.09 L1480.78 1473.54 L1492.59 1473.54 L1492.59 1455.09 M1491.36 1451.02 L1497.24 1451.02 L1497.24 1473.54 L1502.17 1473.54 L1502.17 1477.43 L1497.24 1477.43 L1497.24 1485.58 L1492.59 1485.58 L1492.59 1477.43 L1476.98 1477.43 L1476.98 1472.92 L1491.36 1451.02 Z" fill="#000000" fill-rule="evenodd" fill-opacity="1" /><path clip-path="url(#clip700)" d="M1939.38 1466.44 Q1936.23 1466.44 1934.38 1468.59 Q1932.55 1470.74 1932.55 1474.49 Q1932.55 1478.22 1934.38 1480.39 Q1936.23 1482.55 1939.38 1482.55 Q1942.52 1482.55 1944.35 1480.39 Q1946.2 1478.22 1946.2 1474.49 Q1946.2 1470.74 1944.35 1468.59 Q1942.52 1466.44 1939.38 1466.44 M1948.66 1451.78 L1948.66 1456.04 Q1946.9 1455.21 1945.09 1454.77 Q1943.31 1454.33 1941.55 1454.33 Q1936.92 1454.33 1934.47 1457.45 Q1932.04 1460.58 1931.69 1466.9 Q1933.06 1464.89 1935.12 1463.82 Q1937.18 1462.73 1939.65 1462.73 Q1944.86 1462.73 1947.87 1465.9 Q1950.9 1469.05 1950.9 1474.49 Q1950.9 1479.82 1947.76 1483.03 Q1944.61 1486.25 1939.38 1486.25 Q1933.38 1486.25 1930.21 1481.67 Q1927.04 1477.06 1927.04 1468.33 Q1927.04 1460.14 1930.93 1455.28 Q1934.82 1450.39 1941.37 1450.39 Q1943.13 1450.39 1944.91 1450.74 Q1946.71 1451.09 1948.66 1451.78 Z" fill="#000000" fill-rule="evenodd" fill-opacity="1" /><path clip-path="url(#clip700)" d="M944.542 1520.52 L953.199 1520.52 L974.27 1560.28 L974.27 1520.52 L980.508 1520.52 L980.508 1568.04 L971.851 1568.04 L950.78 1528.29 L950.78 1568.04 L944.542 1568.04 L944.542 1520.52 Z" fill="#000000" fill-rule="evenodd" fill-opacity="1" /><path clip-path="url(#clip700)" d="M1009.25 1550.12 Q1002.15 1550.12 999.414 1551.75 Q996.677 1553.37 996.677 1557.29 Q996.677 1560.4 998.714 1562.25 Q1000.78 1564.07 1004.32 1564.07 Q1009.19 1564.07 1012.11 1560.63 Q1015.07 1557.16 1015.07 1551.43 L1015.07 1550.12 L1009.25 1550.12 M1020.93 1547.71 L1020.93 1568.04 L1015.07 1568.04 L1015.07 1562.63 Q1013.07 1565.88 1010.08 1567.44 Q1007.09 1568.97 1002.76 1568.97 Q997.282 1568.97 994.035 1565.91 Q990.821 1562.82 990.821 1557.67 Q990.821 1551.65 994.831 1548.6 Q998.873 1545.54 1006.86 1545.54 L1015.07 1545.54 L1015.07 1544.97 Q1015.07 1540.93 1012.4 1538.73 Q1009.76 1536.5 1004.95 1536.5 Q1001.9 1536.5 999.001 1537.23 Q996.104 1537.97 993.431 1539.43 L993.431 1534.02 Q996.645 1532.78 999.669 1532.17 Q1002.69 1531.54 1005.56 1531.54 Q1013.29 1531.54 1017.11 1535.55 Q1020.93 1539.56 1020.93 1547.71 Z" fill="#000000" fill-rule="evenodd" fill-opacity="1" /><path clip-path="url(#clip700)" d="M1056.45 1537.81 L1056.45 1518.52 L1062.31 1518.52 L1062.31 1568.04 L1056.45 1568.04 L1056.45 1562.7 Q1054.61 1565.88 1051.77 1567.44 Q1048.97 1568.97 1045.02 1568.97 Q1038.56 1568.97 1034.49 1563.81 Q1030.45 1558.65 1030.45 1550.25 Q1030.45 1541.85 1034.49 1536.69 Q1038.56 1531.54 1045.02 1531.54 Q1048.97 1531.54 1051.77 1533.1 Q1054.61 1534.62 1056.45 1537.81 M1036.49 1550.25 Q1036.49 1556.71 1039.14 1560.4 Q1041.81 1564.07 1046.46 1564.07 Q1051.1 1564.07 1053.78 1560.4 Q1056.45 1556.71 1056.45 1550.25 Q1056.45 1543.79 1053.78 1540.13 Q1051.1 1536.44 1046.46 1536.44 Q1041.81 1536.44 1039.14 1540.13 Q1036.49 1543.79 1036.49 1550.25 Z" fill="#000000" fill-rule="evenodd" fill-opacity="1" /><path clip-path="url(#clip700)" d="M1070.97 1532.4 L1076.82 1532.4 L1084.14 1560.21 L1091.43 1532.4 L1098.34 1532.4 L1105.66 1560.21 L1112.95 1532.4 L1118.8 1532.4 L1109.48 1568.04 L1102.57 1568.04 L1094.9 1538.83 L1087.2 1568.04 L1080.29 1568.04 L1070.97 1532.4 Z" fill="#000000" fill-rule="evenodd" fill-opacity="1" /><path clip-path="url(#clip700)" d="M1142.52 1571.35 Q1140.03 1577.72 1137.68 1579.66 Q1135.32 1581.6 1131.38 1581.6 L1126.7 1581.6 L1126.7 1576.7 L1130.13 1576.7 Q1132.55 1576.7 1133.89 1575.56 Q1135.23 1574.41 1136.85 1570.14 L1137.9 1567.47 L1123.48 1532.4 L1129.69 1532.4 L1140.83 1560.28 L1151.97 1532.4 L1158.18 1532.4 L1142.52 1571.35 Z" fill="#000000" fill-rule="evenodd" fill-opacity="1" /><path clip-path="url(#clip700)" d="M1174.15 1518.52 L1180.01 1518.52 L1180.01 1525.93 L1174.15 1525.93 L1174.15 1518.52 M1177.15 1531.54 L1177.15 1531.54 M1163.71 1532.4 L1191.53 1532.4 L1191.53 1537.74 L1169.51 1563.37 L1191.53 1563.37 L1191.53 1568.04 L1162.92 1568.04 L1162.92 1562.7 L1184.94 1537.07 L1163.71 1537.07 L1163.71 1532.4 Z" fill="#000000" fill-rule="evenodd" fill-opacity="1" /><path clip-path="url(#clip700)" d="M1200.25 1518.52 L1206.14 1518.52 L1206.14 1547.77 L1223.61 1532.4 L1231.09 1532.4 L1212.19 1549.07 L1231.89 1568.04 L1224.25 1568.04 L1206.14 1550.63 L1206.14 1568.04 L1200.25 1568.04 L1200.25 1518.52 Z" fill="#000000" fill-rule="evenodd" fill-opacity="1" /><path clip-path="url(#clip700)" d="M1253.28 1550.12 Q1246.18 1550.12 1243.44 1551.75 Q1240.71 1553.37 1240.71 1557.29 Q1240.71 1560.4 1242.74 1562.25 Q1244.81 1564.07 1248.35 1564.07 Q1253.22 1564.07 1256.14 1560.63 Q1259.1 1557.16 1259.1 1551.43 L1259.1 1550.12 L1253.28 1550.12 M1264.96 1547.71 L1264.96 1568.04 L1259.1 1568.04 L1259.1 1562.63 Q1257.1 1565.88 1254.11 1567.44 Q1251.11 1568.97 1246.79 1568.97 Q1241.31 1568.97 1238.06 1565.91 Q1234.85 1562.82 1234.85 1557.67 Q1234.85 1551.65 1238.86 1548.6 Q1242.9 1545.54 1250.89 1545.54 L1259.1 1545.54 L1259.1 1544.97 Q1259.1 1540.93 1256.43 1538.73 Q1253.79 1536.5 1248.98 1536.5 Q1245.93 1536.5 1243.03 1537.23 Q1240.13 1537.97 1237.46 1539.43 L1237.46 1534.02 Q1240.67 1532.78 1243.7 1532.17 Q1246.72 1531.54 1249.59 1531.54 Q1257.32 1531.54 1261.14 1535.55 Q1264.96 1539.56 1264.96 1547.71 Z" fill="#000000" fill-rule="evenodd" fill-opacity="1" /><path clip-path="url(#clip700)" d="M1303.41 1562.7 L1303.41 1581.6 L1297.52 1581.6 L1297.52 1532.4 L1303.41 1532.4 L1303.41 1537.81 Q1305.25 1534.62 1308.06 1533.1 Q1310.89 1531.54 1314.8 1531.54 Q1321.3 1531.54 1325.34 1536.69 Q1329.41 1541.85 1329.41 1550.25 Q1329.41 1558.65 1325.34 1563.81 Q1321.3 1568.97 1314.8 1568.97 Q1310.89 1568.97 1308.06 1567.44 Q1305.25 1565.88 1303.41 1562.7 M1323.33 1550.25 Q1323.33 1543.79 1320.66 1540.13 Q1318.02 1536.44 1313.37 1536.44 Q1308.72 1536.44 1306.05 1540.13 Q1303.41 1543.79 1303.41 1550.25 Q1303.41 1556.71 1306.05 1560.4 Q1308.72 1564.07 1313.37 1564.07 Q1318.02 1564.07 1320.66 1560.4 Q1323.33 1556.71 1323.33 1550.25 Z" fill="#000000" fill-rule="evenodd" fill-opacity="1" /><path clip-path="url(#clip700)" d="M1359.78 1537.87 Q1358.79 1537.3 1357.61 1537.04 Q1356.47 1536.76 1355.07 1536.76 Q1350.1 1536.76 1347.43 1540 Q1344.79 1543.22 1344.79 1549.27 L1344.79 1568.04 L1338.9 1568.04 L1338.9 1532.4 L1344.79 1532.4 L1344.79 1537.93 Q1346.63 1534.69 1349.59 1533.13 Q1352.55 1531.54 1356.79 1531.54 Q1357.39 1531.54 1358.12 1531.63 Q1358.85 1531.7 1359.75 1531.85 L1359.78 1537.87 Z" fill="#000000" fill-rule="evenodd" fill-opacity="1" /><path clip-path="url(#clip700)" d="M1378.3 1536.5 Q1373.59 1536.5 1370.85 1540.19 Q1368.12 1543.85 1368.12 1550.25 Q1368.12 1556.65 1370.82 1560.34 Q1373.56 1564 1378.3 1564 Q1382.98 1564 1385.72 1560.31 Q1388.45 1556.62 1388.45 1550.25 Q1388.45 1543.92 1385.72 1540.23 Q1382.98 1536.5 1378.3 1536.5 M1378.3 1531.54 Q1385.94 1531.54 1390.3 1536.5 Q1394.66 1541.47 1394.66 1550.25 Q1394.66 1559 1390.3 1564 Q1385.94 1568.97 1378.3 1568.97 Q1370.63 1568.97 1366.27 1564 Q1361.94 1559 1361.94 1550.25 Q1361.94 1541.47 1366.27 1536.5 Q1370.63 1531.54 1378.3 1531.54 Z" fill="#000000" fill-rule="evenodd" fill-opacity="1" /><path clip-path="url(#clip700)" d="M1427.83 1537.81 L1427.83 1518.52 L1433.68 1518.52 L1433.68 1568.04 L1427.83 1568.04 L1427.83 1562.7 Q1425.98 1565.88 1423.15 1567.44 Q1420.35 1568.97 1416.4 1568.97 Q1409.94 1568.97 1405.86 1563.81 Q1401.82 1558.65 1401.82 1550.25 Q1401.82 1541.85 1405.86 1536.69 Q1409.94 1531.54 1416.4 1531.54 Q1420.35 1531.54 1423.15 1533.1 Q1425.98 1534.62 1427.83 1537.81 M1407.87 1550.25 Q1407.87 1556.71 1410.51 1560.4 Q1413.19 1564.07 1417.83 1564.07 Q1422.48 1564.07 1425.15 1560.4 Q1427.83 1556.71 1427.83 1550.25 Q1427.83 1543.79 1425.15 1540.13 Q1422.48 1536.44 1417.83 1536.44 Q1413.19 1536.44 1410.51 1540.13 Q1407.87 1543.79 1407.87 1550.25 Z" fill="#000000" fill-rule="evenodd" fill-opacity="1" /><path clip-path="url(#clip700)" d="M1445.14 1553.98 L1445.14 1532.4 L1451 1532.4 L1451 1553.75 Q1451 1558.81 1452.97 1561.36 Q1454.94 1563.87 1458.89 1563.87 Q1463.63 1563.87 1466.37 1560.85 Q1469.14 1557.83 1469.14 1552.61 L1469.14 1532.4 L1475 1532.4 L1475 1568.04 L1469.14 1568.04 L1469.14 1562.57 Q1467.01 1565.82 1464.17 1567.41 Q1461.37 1568.97 1457.65 1568.97 Q1451.51 1568.97 1448.32 1565.15 Q1445.14 1561.33 1445.14 1553.98 M1459.88 1531.54 L1459.88 1531.54 Z" fill="#000000" fill-rule="evenodd" fill-opacity="1" /><path clip-path="url(#clip700)" d="M1512.71 1533.76 L1512.71 1539.24 Q1510.23 1537.87 1507.72 1537.2 Q1505.23 1536.5 1502.69 1536.5 Q1496.99 1536.5 1493.84 1540.13 Q1490.69 1543.73 1490.69 1550.25 Q1490.69 1556.78 1493.84 1560.4 Q1496.99 1564 1502.69 1564 Q1505.23 1564 1507.72 1563.33 Q1510.23 1562.63 1512.71 1561.26 L1512.71 1566.68 Q1510.26 1567.82 1507.62 1568.39 Q1505.01 1568.97 1502.05 1568.97 Q1494 1568.97 1489.26 1563.91 Q1484.51 1558.85 1484.51 1550.25 Q1484.51 1541.53 1489.29 1536.53 Q1494.09 1531.54 1502.43 1531.54 Q1505.14 1531.54 1507.72 1532.11 Q1510.29 1532.65 1512.71 1533.76 Z" fill="#000000" fill-rule="evenodd" fill-opacity="1" /><path clip-path="url(#clip700)" d="M1553.39 1548.76 L1553.39 1551.62 L1526.46 1551.62 Q1526.85 1557.67 1530.09 1560.85 Q1533.37 1564 1539.19 1564 Q1542.57 1564 1545.72 1563.17 Q1548.9 1562.35 1552.02 1560.69 L1552.02 1566.23 Q1548.87 1567.57 1545.56 1568.27 Q1542.25 1568.97 1538.84 1568.97 Q1530.31 1568.97 1525.32 1564 Q1520.35 1559.04 1520.35 1550.57 Q1520.35 1541.82 1525.06 1536.69 Q1529.81 1531.54 1537.83 1531.54 Q1545.02 1531.54 1549.19 1536.18 Q1553.39 1540.8 1553.39 1548.76 M1547.53 1547.04 Q1547.47 1542.23 1544.83 1539.37 Q1542.22 1536.5 1537.89 1536.5 Q1532.99 1536.5 1530.03 1539.27 Q1527.1 1542.04 1526.65 1547.07 L1547.53 1547.04 Z" fill="#000000" fill-rule="evenodd" fill-opacity="1" /><path clip-path="url(#clip700)" d="M1592.63 1546.53 L1592.63 1568.04 L1586.78 1568.04 L1586.78 1546.72 Q1586.78 1541.66 1584.8 1539.14 Q1582.83 1536.63 1578.88 1536.63 Q1574.14 1536.63 1571.41 1539.65 Q1568.67 1542.68 1568.67 1547.9 L1568.67 1568.04 L1562.78 1568.04 L1562.78 1532.4 L1568.67 1532.4 L1568.67 1537.93 Q1570.77 1534.72 1573.6 1533.13 Q1576.47 1531.54 1580.19 1531.54 Q1586.33 1531.54 1589.48 1535.36 Q1592.63 1539.14 1592.63 1546.53 Z" fill="#000000" fill-rule="evenodd" fill-opacity="1" /><path clip-path="url(#clip700)" d="M1610.11 1522.27 L1610.11 1532.4 L1622.17 1532.4 L1622.17 1536.95 L1610.11 1536.95 L1610.11 1556.3 Q1610.11 1560.66 1611.29 1561.9 Q1612.5 1563.14 1616.16 1563.14 L1622.17 1563.14 L1622.17 1568.04 L1616.16 1568.04 Q1609.38 1568.04 1606.8 1565.53 Q1604.22 1562.98 1604.22 1556.3 L1604.22 1536.95 L1599.92 1536.95 L1599.92 1532.4 L1604.22 1532.4 L1604.22 1522.27 L1610.11 1522.27 Z" fill="#000000" fill-rule="evenodd" fill-opacity="1" /><path clip-path="url(#clip700)" d="M1646.07 1550.12 Q1638.98 1550.12 1636.24 1551.75 Q1633.5 1553.37 1633.5 1557.29 Q1633.5 1560.4 1635.54 1562.25 Q1637.61 1564.07 1641.14 1564.07 Q1646.01 1564.07 1648.94 1560.63 Q1651.9 1557.16 1651.9 1551.43 L1651.9 1550.12 L1646.07 1550.12 M1657.76 1547.71 L1657.76 1568.04 L1651.9 1568.04 L1651.9 1562.63 Q1649.89 1565.88 1646.9 1567.44 Q1643.91 1568.97 1639.58 1568.97 Q1634.11 1568.97 1630.86 1565.91 Q1627.65 1562.82 1627.65 1557.67 Q1627.65 1551.65 1631.66 1548.6 Q1635.7 1545.54 1643.69 1545.54 L1651.9 1545.54 L1651.9 1544.97 Q1651.9 1540.93 1649.23 1538.73 Q1646.58 1536.5 1641.78 1536.5 Q1638.72 1536.5 1635.83 1537.23 Q1632.93 1537.97 1630.26 1539.43 L1630.26 1534.02 Q1633.47 1532.78 1636.49 1532.17 Q1639.52 1531.54 1642.38 1531.54 Q1650.12 1531.54 1653.94 1535.55 Q1657.76 1539.56 1657.76 1547.71 Z" fill="#000000" fill-rule="evenodd" fill-opacity="1" /><polyline clip-path="url(#clip702)" style="stroke:#000000; stroke-linecap:butt; stroke-linejoin:round; stroke-width:2; stroke-opacity:0.1; fill:none" points="
  249.542,1388.85 2352.76,1388.85 
  "/>
<polyline clip-path="url(#clip702)" style="stroke:#000000; stroke-linecap:butt; stroke-linejoin:round; stroke-width:2; stroke-opacity:0.1; fill:none" points="
  249.542,1081.7 2352.76,1081.7 
  "/>
<polyline clip-path="url(#clip702)" style="stroke:#000000; stroke-linecap:butt; stroke-linejoin:round; stroke-width:2; stroke-opacity:0.1; fill:none" points="
  249.542,774.555 2352.76,774.555 
  "/>
<polyline clip-path="url(#clip702)" style="stroke:#000000; stroke-linecap:butt; stroke-linejoin:round; stroke-width:2; stroke-opacity:0.1; fill:none" points="
  249.542,467.405 2352.76,467.405 
  "/>
<polyline clip-path="url(#clip702)" style="stroke:#000000; stroke-linecap:butt; stroke-linejoin:round; stroke-width:2; stroke-opacity:0.1; fill:none" points="
  249.542,160.256 2352.76,160.256 
  "/>
<polyline clip-path="url(#clip700)" style="stroke:#000000; stroke-linecap:butt; stroke-linejoin:round; stroke-width:4; stroke-opacity:1; fill:none" points="
  249.542,1423.18 249.542,123.472 
  "/>
<polyline clip-path="url(#clip700)" style="stroke:#000000; stroke-linecap:butt; stroke-linejoin:round; stroke-width:4; stroke-opacity:1; fill:none" points="
  249.542,1388.85 268.44,1388.85 
  "/>
<polyline clip-path="url(#clip700)" style="stroke:#000000; stroke-linecap:butt; stroke-linejoin:round; stroke-width:4; stroke-opacity:1; fill:none" points="
  249.542,1081.7 268.44,1081.7 
  "/>
<polyline clip-path="url(#clip700)" style="stroke:#000000; stroke-linecap:butt; stroke-linejoin:round; stroke-width:4; stroke-opacity:1; fill:none" points="
  249.542,774.555 268.44,774.555 
  "/>
<polyline clip-path="url(#clip700)" style="stroke:#000000; stroke-linecap:butt; stroke-linejoin:round; stroke-width:4; stroke-opacity:1; fill:none" points="
  249.542,467.405 268.44,467.405 
  "/>
<polyline clip-path="url(#clip700)" style="stroke:#000000; stroke-linecap:butt; stroke-linejoin:round; stroke-width:4; stroke-opacity:1; fill:none" points="
  249.542,160.256 268.44,160.256 
  "/>
<path clip-path="url(#clip700)" d="M126.205 1374.65 Q122.593 1374.65 120.765 1378.22 Q118.959 1381.76 118.959 1388.89 Q118.959 1395.99 120.765 1399.56 Q122.593 1403.1 126.205 1403.1 Q129.839 1403.1 131.644 1399.56 Q133.473 1395.99 133.473 1388.89 Q133.473 1381.76 131.644 1378.22 Q129.839 1374.65 126.205 1374.65 M126.205 1370.95 Q132.015 1370.95 135.07 1375.55 Q138.149 1380.14 138.149 1388.89 Q138.149 1397.61 135.07 1402.22 Q132.015 1406.8 126.205 1406.8 Q120.394 1406.8 117.316 1402.22 Q114.26 1397.61 114.26 1388.89 Q114.26 1380.14 117.316 1375.55 Q120.394 1370.95 126.205 1370.95 Z" fill="#000000" fill-rule="evenodd" fill-opacity="1" /><path clip-path="url(#clip700)" d="M146.366 1400.25 L151.251 1400.25 L151.251 1406.13 L146.366 1406.13 L146.366 1400.25 Z" fill="#000000" fill-rule="evenodd" fill-opacity="1" /><path clip-path="url(#clip700)" d="M171.436 1374.65 Q167.825 1374.65 165.996 1378.22 Q164.19 1381.76 164.19 1388.89 Q164.19 1395.99 165.996 1399.56 Q167.825 1403.1 171.436 1403.1 Q175.07 1403.1 176.876 1399.56 Q178.704 1395.99 178.704 1388.89 Q178.704 1381.76 176.876 1378.22 Q175.07 1374.65 171.436 1374.65 M171.436 1370.95 Q177.246 1370.95 180.301 1375.55 Q183.38 1380.14 183.38 1388.89 Q183.38 1397.61 180.301 1402.22 Q177.246 1406.8 171.436 1406.8 Q165.626 1406.8 162.547 1402.22 Q159.491 1397.61 159.491 1388.89 Q159.491 1380.14 162.547 1375.55 Q165.626 1370.95 171.436 1370.95 Z" fill="#000000" fill-rule="evenodd" fill-opacity="1" /><path clip-path="url(#clip700)" d="M201.598 1374.65 Q197.987 1374.65 196.158 1378.22 Q194.352 1381.76 194.352 1388.89 Q194.352 1395.99 196.158 1399.56 Q197.987 1403.1 201.598 1403.1 Q205.232 1403.1 207.037 1399.56 Q208.866 1395.99 208.866 1388.89 Q208.866 1381.76 207.037 1378.22 Q205.232 1374.65 201.598 1374.65 M201.598 1370.95 Q207.408 1370.95 210.463 1375.55 Q213.542 1380.14 213.542 1388.89 Q213.542 1397.61 210.463 1402.22 Q207.408 1406.8 201.598 1406.8 Q195.787 1406.8 192.709 1402.22 Q189.653 1397.61 189.653 1388.89 Q189.653 1380.14 192.709 1375.55 Q195.787 1370.95 201.598 1370.95 Z" fill="#000000" fill-rule="evenodd" fill-opacity="1" /><path clip-path="url(#clip700)" d="M127.2 1067.5 Q123.589 1067.5 121.76 1071.07 Q119.955 1074.61 119.955 1081.74 Q119.955 1088.84 121.76 1092.41 Q123.589 1095.95 127.2 1095.95 Q130.834 1095.95 132.64 1092.41 Q134.468 1088.84 134.468 1081.74 Q134.468 1074.61 132.64 1071.07 Q130.834 1067.5 127.2 1067.5 M127.2 1063.8 Q133.01 1063.8 136.066 1068.41 Q139.144 1072.99 139.144 1081.74 Q139.144 1090.47 136.066 1095.07 Q133.01 1099.66 127.2 1099.66 Q121.39 1099.66 118.311 1095.07 Q115.256 1090.47 115.256 1081.74 Q115.256 1072.99 118.311 1068.41 Q121.39 1063.8 127.2 1063.8 Z" fill="#000000" fill-rule="evenodd" fill-opacity="1" /><path clip-path="url(#clip700)" d="M147.362 1093.1 L152.246 1093.1 L152.246 1098.98 L147.362 1098.98 L147.362 1093.1 Z" fill="#000000" fill-rule="evenodd" fill-opacity="1" /><path clip-path="url(#clip700)" d="M166.459 1095.05 L182.778 1095.05 L182.778 1098.98 L160.834 1098.98 L160.834 1095.05 Q163.496 1092.29 168.079 1087.66 Q172.686 1083.01 173.866 1081.67 Q176.112 1079.15 176.991 1077.41 Q177.894 1075.65 177.894 1073.96 Q177.894 1071.21 175.95 1069.47 Q174.028 1067.73 170.927 1067.73 Q168.727 1067.73 166.274 1068.5 Q163.843 1069.26 161.065 1070.81 L161.065 1066.09 Q163.89 1064.96 166.343 1064.38 Q168.797 1063.8 170.834 1063.8 Q176.204 1063.8 179.399 1066.48 Q182.593 1069.17 182.593 1073.66 Q182.593 1075.79 181.783 1077.71 Q180.996 1079.61 178.889 1082.2 Q178.311 1082.87 175.209 1086.09 Q172.107 1089.28 166.459 1095.05 Z" fill="#000000" fill-rule="evenodd" fill-opacity="1" /><path clip-path="url(#clip700)" d="M192.639 1064.42 L210.996 1064.42 L210.996 1068.36 L196.922 1068.36 L196.922 1076.83 Q197.94 1076.48 198.959 1076.32 Q199.977 1076.14 200.996 1076.14 Q206.783 1076.14 210.162 1079.31 Q213.542 1082.48 213.542 1087.9 Q213.542 1093.47 210.07 1096.58 Q206.598 1099.66 200.278 1099.66 Q198.102 1099.66 195.834 1099.28 Q193.588 1098.91 191.181 1098.17 L191.181 1093.47 Q193.264 1094.61 195.487 1095.16 Q197.709 1095.72 200.186 1095.72 Q204.19 1095.72 206.528 1093.61 Q208.866 1091.51 208.866 1087.9 Q208.866 1084.28 206.528 1082.18 Q204.19 1080.07 200.186 1080.07 Q198.311 1080.07 196.436 1080.49 Q194.584 1080.91 192.639 1081.78 L192.639 1064.42 Z" fill="#000000" fill-rule="evenodd" fill-opacity="1" /><path clip-path="url(#clip700)" d="M126.205 760.353 Q122.593 760.353 120.765 763.918 Q118.959 767.46 118.959 774.589 Q118.959 781.696 120.765 785.261 Q122.593 788.802 126.205 788.802 Q129.839 788.802 131.644 785.261 Q133.473 781.696 133.473 774.589 Q133.473 767.46 131.644 763.918 Q129.839 760.353 126.205 760.353 M126.205 756.65 Q132.015 756.65 135.07 761.256 Q138.149 765.839 138.149 774.589 Q138.149 783.316 135.07 787.923 Q132.015 792.506 126.205 792.506 Q120.394 792.506 117.316 787.923 Q114.26 783.316 114.26 774.589 Q114.26 765.839 117.316 761.256 Q120.394 756.65 126.205 756.65 Z" fill="#000000" fill-rule="evenodd" fill-opacity="1" /><path clip-path="url(#clip700)" d="M146.366 785.955 L151.251 785.955 L151.251 791.835 L146.366 791.835 L146.366 785.955 Z" fill="#000000" fill-rule="evenodd" fill-opacity="1" /><path clip-path="url(#clip700)" d="M161.482 757.275 L179.839 757.275 L179.839 761.21 L165.765 761.21 L165.765 769.682 Q166.783 769.335 167.802 769.173 Q168.82 768.987 169.839 768.987 Q175.626 768.987 179.005 772.159 Q182.385 775.33 182.385 780.747 Q182.385 786.325 178.913 789.427 Q175.44 792.506 169.121 792.506 Q166.945 792.506 164.677 792.136 Q162.431 791.765 160.024 791.024 L160.024 786.325 Q162.107 787.46 164.329 788.015 Q166.552 788.571 169.028 788.571 Q173.033 788.571 175.371 786.464 Q177.709 784.358 177.709 780.747 Q177.709 777.136 175.371 775.029 Q173.033 772.923 169.028 772.923 Q167.153 772.923 165.278 773.339 Q163.427 773.756 161.482 774.636 L161.482 757.275 Z" fill="#000000" fill-rule="evenodd" fill-opacity="1" /><path clip-path="url(#clip700)" d="M201.598 760.353 Q197.987 760.353 196.158 763.918 Q194.352 767.46 194.352 774.589 Q194.352 781.696 196.158 785.261 Q197.987 788.802 201.598 788.802 Q205.232 788.802 207.037 785.261 Q208.866 781.696 208.866 774.589 Q208.866 767.46 207.037 763.918 Q205.232 760.353 201.598 760.353 M201.598 756.65 Q207.408 756.65 210.463 761.256 Q213.542 765.839 213.542 774.589 Q213.542 783.316 210.463 787.923 Q207.408 792.506 201.598 792.506 Q195.787 792.506 192.709 787.923 Q189.653 783.316 189.653 774.589 Q189.653 765.839 192.709 761.256 Q195.787 756.65 201.598 756.65 Z" fill="#000000" fill-rule="evenodd" fill-opacity="1" /><path clip-path="url(#clip700)" d="M127.2 453.204 Q123.589 453.204 121.76 456.769 Q119.955 460.311 119.955 467.44 Q119.955 474.547 121.76 478.111 Q123.589 481.653 127.2 481.653 Q130.834 481.653 132.64 478.111 Q134.468 474.547 134.468 467.44 Q134.468 460.311 132.64 456.769 Q130.834 453.204 127.2 453.204 M127.2 449.5 Q133.01 449.5 136.066 454.107 Q139.144 458.69 139.144 467.44 Q139.144 476.167 136.066 480.773 Q133.01 485.357 127.2 485.357 Q121.39 485.357 118.311 480.773 Q115.256 476.167 115.256 467.44 Q115.256 458.69 118.311 454.107 Q121.39 449.5 127.2 449.5 Z" fill="#000000" fill-rule="evenodd" fill-opacity="1" /><path clip-path="url(#clip700)" d="M147.362 478.806 L152.246 478.806 L152.246 484.685 L147.362 484.685 L147.362 478.806 Z" fill="#000000" fill-rule="evenodd" fill-opacity="1" /><path clip-path="url(#clip700)" d="M161.251 450.125 L183.473 450.125 L183.473 452.116 L170.927 484.685 L166.042 484.685 L177.848 454.061 L161.251 454.061 L161.251 450.125 Z" fill="#000000" fill-rule="evenodd" fill-opacity="1" /><path clip-path="url(#clip700)" d="M192.639 450.125 L210.996 450.125 L210.996 454.061 L196.922 454.061 L196.922 462.533 Q197.94 462.186 198.959 462.024 Q199.977 461.838 200.996 461.838 Q206.783 461.838 210.162 465.01 Q213.542 468.181 213.542 473.598 Q213.542 479.176 210.07 482.278 Q206.598 485.357 200.278 485.357 Q198.102 485.357 195.834 484.986 Q193.588 484.616 191.181 483.875 L191.181 479.176 Q193.264 480.31 195.487 480.866 Q197.709 481.422 200.186 481.422 Q204.19 481.422 206.528 479.315 Q208.866 477.209 208.866 473.598 Q208.866 469.986 206.528 467.88 Q204.19 465.774 200.186 465.774 Q198.311 465.774 196.436 466.19 Q194.584 466.607 192.639 467.486 L192.639 450.125 Z" fill="#000000" fill-rule="evenodd" fill-opacity="1" /><path clip-path="url(#clip700)" d="M117.015 173.601 L124.654 173.601 L124.654 147.236 L116.343 148.902 L116.343 144.643 L124.607 142.976 L129.283 142.976 L129.283 173.601 L136.922 173.601 L136.922 177.536 L117.015 177.536 L117.015 173.601 Z" fill="#000000" fill-rule="evenodd" fill-opacity="1" /><path clip-path="url(#clip700)" d="M146.366 171.657 L151.251 171.657 L151.251 177.536 L146.366 177.536 L146.366 171.657 Z" fill="#000000" fill-rule="evenodd" fill-opacity="1" /><path clip-path="url(#clip700)" d="M171.436 146.055 Q167.825 146.055 165.996 149.62 Q164.19 153.161 164.19 160.291 Q164.19 167.397 165.996 170.962 Q167.825 174.504 171.436 174.504 Q175.07 174.504 176.876 170.962 Q178.704 167.397 178.704 160.291 Q178.704 153.161 176.876 149.62 Q175.07 146.055 171.436 146.055 M171.436 142.351 Q177.246 142.351 180.301 146.958 Q183.38 151.541 183.38 160.291 Q183.38 169.018 180.301 173.624 Q177.246 178.208 171.436 178.208 Q165.626 178.208 162.547 173.624 Q159.491 169.018 159.491 160.291 Q159.491 151.541 162.547 146.958 Q165.626 142.351 171.436 142.351 Z" fill="#000000" fill-rule="evenodd" fill-opacity="1" /><path clip-path="url(#clip700)" d="M201.598 146.055 Q197.987 146.055 196.158 149.62 Q194.352 153.161 194.352 160.291 Q194.352 167.397 196.158 170.962 Q197.987 174.504 201.598 174.504 Q205.232 174.504 207.037 170.962 Q208.866 167.397 208.866 160.291 Q208.866 153.161 207.037 149.62 Q205.232 146.055 201.598 146.055 M201.598 142.351 Q207.408 142.351 210.463 146.958 Q213.542 151.541 213.542 160.291 Q213.542 169.018 210.463 173.624 Q207.408 178.208 201.598 178.208 Q195.787 178.208 192.709 173.624 Q189.653 169.018 189.653 160.291 Q189.653 151.541 192.709 146.958 Q195.787 142.351 201.598 142.351 Z" fill="#000000" fill-rule="evenodd" fill-opacity="1" /><path clip-path="url(#clip700)" d="M16.4842 830.792 L16.4842 803.484 L21.895 803.484 L21.895 824.363 L35.8996 824.363 L35.8996 805.521 L41.3104 805.521 L41.3104 824.363 L64.0042 824.363 L64.0042 830.792 L16.4842 830.792 Z" fill="#000000" fill-rule="evenodd" fill-opacity="1" /><path clip-path="url(#clip700)" d="M14.5426 779.485 Q21.8632 783.75 29.0246 785.819 Q36.186 787.888 43.5384 787.888 Q50.8908 787.888 58.1159 785.819 Q65.3091 783.718 72.5979 779.485 L72.5979 784.577 Q65.1182 789.352 57.8931 791.739 Q50.668 794.094 43.5384 794.094 Q36.4406 794.094 29.2474 791.739 Q22.0542 789.383 14.5426 784.577 L14.5426 779.485 Z" fill="#000000" fill-rule="evenodd" fill-opacity="1" /><path clip-path="url(#clip700)" d="M28.3562 738.49 L45.7028 751.38 L64.0042 737.821 L64.0042 744.728 L49.9996 755.104 L64.0042 765.48 L64.0042 772.387 L45.3526 758.542 L28.3562 771.209 L28.3562 764.303 L41.0558 754.85 L28.3562 745.396 L28.3562 738.49 Z" fill="#000000" fill-rule="evenodd" fill-opacity="1" /><path clip-path="url(#clip700)" d="M14.5426 730.469 L14.5426 725.376 Q22.0542 720.602 29.2474 718.247 Q36.4406 715.86 43.5384 715.86 Q50.668 715.86 57.8931 718.247 Q65.1182 720.602 72.5979 725.376 L72.5979 730.469 Q65.3091 726.236 58.1159 724.167 Q50.8908 722.066 43.5384 722.066 Q36.186 722.066 29.0246 724.167 Q21.8632 726.236 14.5426 730.469 Z" fill="#000000" fill-rule="evenodd" fill-opacity="1" /><path clip-path="url(#clip700)" d="M282.022 18.8205 L282.022 65.8515 L291.907 65.8515 Q304.424 65.8515 310.217 60.1802 Q316.05 54.509 316.05 42.2752 Q316.05 30.1225 310.217 24.4918 Q304.424 18.8205 291.907 18.8205 L282.022 18.8205 M273.84 12.096 L290.651 12.096 Q308.232 12.096 316.455 19.4281 Q324.679 26.7198 324.679 42.2752 Q324.679 57.9117 316.415 65.2439 Q308.151 72.576 290.651 72.576 L273.84 72.576 L273.84 12.096 Z" fill="#000000" fill-rule="evenodd" fill-opacity="1" /><path clip-path="url(#clip700)" d="M356.276 76.7889 Q353.116 84.8907 350.118 87.3618 Q347.121 89.8329 342.097 89.8329 L336.143 89.8329 L336.143 83.5945 L340.518 83.5945 Q343.596 83.5945 345.298 82.1361 Q346.999 80.6778 349.065 75.2496 L350.402 71.8468 L332.051 27.2059 L339.95 27.2059 L354.129 62.6918 L368.307 27.2059 L376.206 27.2059 L356.276 76.7889 Z" fill="#000000" fill-rule="evenodd" fill-opacity="1" /><path clip-path="url(#clip700)" d="M415.419 28.5427 L415.419 35.5912 Q412.259 33.9709 408.856 33.1607 Q405.454 32.3505 401.808 32.3505 Q396.258 32.3505 393.463 34.0519 Q390.708 35.7533 390.708 39.156 Q390.708 41.7486 392.693 43.2475 Q394.678 44.7058 400.673 46.0426 L403.226 46.6097 Q411.165 48.3111 414.487 51.4303 Q417.849 54.509 417.849 60.0587 Q417.849 66.3781 412.826 70.0644 Q407.844 73.7508 399.094 73.7508 Q395.448 73.7508 391.478 73.0216 Q387.549 72.3329 383.174 70.9151 L383.174 63.2184 Q387.305 65.3654 391.316 66.4591 Q395.326 67.5124 399.256 67.5124 Q404.522 67.5124 407.357 65.73 Q410.193 63.9071 410.193 60.6258 Q410.193 57.5877 408.127 55.9673 Q406.102 54.3469 399.175 52.8481 L396.582 52.2405 Q389.655 50.7821 386.576 47.7845 Q383.498 44.7463 383.498 39.4801 Q383.498 33.0797 388.035 29.5959 Q392.572 26.1121 400.917 26.1121 Q405.048 26.1121 408.694 26.7198 Q412.34 27.3274 415.419 28.5427 Z" fill="#000000" fill-rule="evenodd" fill-opacity="1" /><path clip-path="url(#clip700)" d="M437.091 14.324 L437.091 27.2059 L452.444 27.2059 L452.444 32.9987 L437.091 32.9987 L437.091 57.6282 Q437.091 63.1779 438.59 64.7578 Q440.129 66.3376 444.788 66.3376 L452.444 66.3376 L452.444 72.576 L444.788 72.576 Q436.159 72.576 432.878 69.3758 Q429.597 66.1351 429.597 57.6282 L429.597 32.9987 L424.128 32.9987 L424.128 27.2059 L429.597 27.2059 L429.597 14.324 L437.091 14.324 Z" fill="#000000" fill-rule="evenodd" fill-opacity="1" /><path clip-path="url(#clip700)" d="M488.538 34.1734 Q487.282 33.4443 485.783 33.1202 Q484.325 32.7556 482.542 32.7556 Q476.223 32.7556 472.82 36.8875 Q469.458 40.9789 469.458 48.6757 L469.458 72.576 L461.964 72.576 L461.964 27.2059 L469.458 27.2059 L469.458 34.2544 Q471.807 30.1225 475.575 28.1376 Q479.342 26.1121 484.73 26.1121 Q485.499 26.1121 486.431 26.2337 Q487.363 26.3147 488.497 26.5172 L488.538 34.1734 Z" fill="#000000" fill-rule="evenodd" fill-opacity="1" /><path clip-path="url(#clip700)" d="M515.233 76.7889 Q512.073 84.8907 509.076 87.3618 Q506.078 89.8329 501.055 89.8329 L495.1 89.8329 L495.1 83.5945 L499.475 83.5945 Q502.554 83.5945 504.255 82.1361 Q505.956 80.6778 508.022 75.2496 L509.359 71.8468 L491.009 27.2059 L498.908 27.2059 L513.086 62.6918 L527.264 27.2059 L535.163 27.2059 L515.233 76.7889 Z" fill="#000000" fill-rule="evenodd" fill-opacity="1" /><path clip-path="url(#clip700)" d="M578.022 49.9314 Q578.022 41.7081 574.619 37.0496 Q571.257 32.3505 565.343 32.3505 Q559.428 32.3505 556.026 37.0496 Q552.663 41.7081 552.663 49.9314 Q552.663 58.1548 556.026 62.8538 Q559.428 67.5124 565.343 67.5124 Q571.257 67.5124 574.619 62.8538 Q578.022 58.1548 578.022 49.9314 M552.663 34.0924 Q555.013 30.0415 558.578 28.0971 Q562.183 26.1121 567.166 26.1121 Q575.429 26.1121 580.574 32.6746 Q585.759 39.2371 585.759 49.9314 Q585.759 60.6258 580.574 67.1883 Q575.429 73.7508 567.166 73.7508 Q562.183 73.7508 558.578 71.8063 Q555.013 69.8214 552.663 65.7705 L552.663 72.576 L545.169 72.576 L545.169 9.54393 L552.663 9.54393 L552.663 34.0924 Z" fill="#000000" fill-rule="evenodd" fill-opacity="1" /><path clip-path="url(#clip700)" d="M597.345 54.671 L597.345 27.2059 L604.799 27.2059 L604.799 54.3874 Q604.799 60.8284 607.31 64.0691 Q609.822 67.2693 614.845 67.2693 Q620.881 67.2693 624.364 63.421 Q627.889 59.5726 627.889 52.9291 L627.889 27.2059 L635.342 27.2059 L635.342 72.576 L627.889 72.576 L627.889 65.6084 Q625.175 69.7404 621.569 71.7658 Q618.004 73.7508 613.265 73.7508 Q605.447 73.7508 601.396 68.8897 Q597.345 64.0286 597.345 54.671 M616.101 26.1121 L616.101 26.1121 Z" fill="#000000" fill-rule="evenodd" fill-opacity="1" /><path clip-path="url(#clip700)" d="M671.314 49.7694 Q662.281 49.7694 658.797 51.8354 Q655.313 53.9013 655.313 58.8839 Q655.313 62.8538 657.906 65.2034 Q660.539 67.5124 665.035 67.5124 Q671.233 67.5124 674.96 63.1374 Q678.728 58.7219 678.728 51.4303 L678.728 49.7694 L671.314 49.7694 M686.181 46.6907 L686.181 72.576 L678.728 72.576 L678.728 65.6895 Q676.175 69.8214 672.368 71.8063 Q668.56 73.7508 663.051 73.7508 Q656.083 73.7508 651.951 69.8619 Q647.86 65.9325 647.86 59.3701 Q647.86 51.7138 652.964 47.825 Q658.108 43.9361 668.276 43.9361 L678.728 43.9361 L678.728 43.2069 Q678.728 38.0623 675.325 35.2672 Q671.963 32.4315 665.846 32.4315 Q661.957 32.4315 658.27 33.3632 Q654.584 34.295 651.181 36.1584 L651.181 29.2718 Q655.273 27.692 659.121 26.9223 Q662.97 26.1121 666.615 26.1121 Q676.459 26.1121 681.32 31.2163 Q686.181 36.3204 686.181 46.6907 Z" fill="#000000" fill-rule="evenodd" fill-opacity="1" /><path clip-path="url(#clip700)" d="M739.248 45.1919 L739.248 72.576 L731.794 72.576 L731.794 45.4349 Q731.794 38.994 729.283 35.7938 Q726.771 32.5936 721.748 32.5936 Q715.712 32.5936 712.229 36.4419 Q708.745 40.2903 708.745 46.9338 L708.745 72.576 L701.251 72.576 L701.251 27.2059 L708.745 27.2059 L708.745 34.2544 Q711.418 30.163 715.024 28.1376 Q718.669 26.1121 723.409 26.1121 Q731.227 26.1121 735.238 30.9732 Q739.248 35.7938 739.248 45.1919 Z" fill="#000000" fill-rule="evenodd" fill-opacity="1" /><path clip-path="url(#clip700)" d="M761.488 14.324 L761.488 27.2059 L776.84 27.2059 L776.84 32.9987 L761.488 32.9987 L761.488 57.6282 Q761.488 63.1779 762.986 64.7578 Q764.526 66.3376 769.184 66.3376 L776.84 66.3376 L776.84 72.576 L769.184 72.576 Q760.556 72.576 757.275 69.3758 Q753.993 66.1351 753.993 57.6282 L753.993 32.9987 L748.525 32.9987 L748.525 27.2059 L753.993 27.2059 L753.993 14.324 L761.488 14.324 Z" fill="#000000" fill-rule="evenodd" fill-opacity="1" /><path clip-path="url(#clip700)" d="M807.263 49.7694 Q798.229 49.7694 794.745 51.8354 Q791.262 53.9013 791.262 58.8839 Q791.262 62.8538 793.854 65.2034 Q796.487 67.5124 800.984 67.5124 Q807.182 67.5124 810.909 63.1374 Q814.676 58.7219 814.676 51.4303 L814.676 49.7694 L807.263 49.7694 M822.13 46.6907 L822.13 72.576 L814.676 72.576 L814.676 65.6895 Q812.124 69.8214 808.316 71.8063 Q804.508 73.7508 798.999 73.7508 Q792.031 73.7508 787.899 69.8619 Q783.808 65.9325 783.808 59.3701 Q783.808 51.7138 788.912 47.825 Q794.057 43.9361 804.225 43.9361 L814.676 43.9361 L814.676 43.2069 Q814.676 38.0623 811.273 35.2672 Q807.911 32.4315 801.794 32.4315 Q797.905 32.4315 794.219 33.3632 Q790.532 34.295 787.13 36.1584 L787.13 29.2718 Q791.221 27.692 795.07 26.9223 Q798.918 26.1121 802.564 26.1121 Q812.407 26.1121 817.268 31.2163 Q822.13 36.3204 822.13 46.6907 Z" fill="#000000" fill-rule="evenodd" fill-opacity="1" /><path clip-path="url(#clip700)" d="M902.662 48.0275 L902.662 51.6733 L868.391 51.6733 Q868.877 59.3701 873.009 63.421 Q877.181 67.4314 884.594 67.4314 Q888.888 67.4314 892.899 66.3781 Q896.95 65.3249 900.92 63.2184 L900.92 70.267 Q896.909 71.9684 892.696 72.8596 Q888.483 73.7508 884.149 73.7508 Q873.292 73.7508 866.933 67.4314 Q860.613 61.1119 860.613 50.3365 Q860.613 39.1965 866.608 32.6746 Q872.644 26.1121 882.853 26.1121 Q892.008 26.1121 897.314 32.0264 Q902.662 37.9003 902.662 48.0275 M895.208 45.84 Q895.127 39.7232 891.765 36.0774 Q888.443 32.4315 882.934 32.4315 Q876.695 32.4315 872.928 35.9558 Q869.201 39.4801 868.634 45.8805 L895.208 45.84 Z" fill="#000000" fill-rule="evenodd" fill-opacity="1" /><path clip-path="url(#clip700)" d="M950.219 35.9153 Q953.014 30.8922 956.903 28.5022 Q960.792 26.1121 966.058 26.1121 Q973.147 26.1121 976.996 31.0947 Q980.844 36.0368 980.844 45.1919 L980.844 72.576 L973.35 72.576 L973.35 45.4349 Q973.35 38.913 971.041 35.7533 Q968.732 32.5936 963.992 32.5936 Q958.199 32.5936 954.837 36.4419 Q951.475 40.2903 951.475 46.9338 L951.475 72.576 L943.981 72.576 L943.981 45.4349 Q943.981 38.8725 941.672 35.7533 Q939.363 32.5936 934.542 32.5936 Q928.83 32.5936 925.468 36.4824 Q922.106 40.3308 922.106 46.9338 L922.106 72.576 L914.612 72.576 L914.612 27.2059 L922.106 27.2059 L922.106 34.2544 Q924.658 30.082 928.223 28.0971 Q931.788 26.1121 936.689 26.1121 Q941.631 26.1121 945.074 28.6237 Q948.558 31.1352 950.219 35.9153 Z" fill="#000000" fill-rule="evenodd" fill-opacity="1" /><path clip-path="url(#clip700)" d="M1002.92 65.7705 L1002.92 89.8329 L995.427 89.8329 L995.427 27.2059 L1002.92 27.2059 L1002.92 34.0924 Q1005.27 30.0415 1008.84 28.0971 Q1012.44 26.1121 1017.42 26.1121 Q1025.69 26.1121 1030.83 32.6746 Q1036.02 39.2371 1036.02 49.9314 Q1036.02 60.6258 1030.83 67.1883 Q1025.69 73.7508 1017.42 73.7508 Q1012.44 73.7508 1008.84 71.8063 Q1005.27 69.8214 1002.92 65.7705 M1028.28 49.9314 Q1028.28 41.7081 1024.88 37.0496 Q1021.52 32.3505 1015.6 32.3505 Q1009.69 32.3505 1006.28 37.0496 Q1002.92 41.7081 1002.92 49.9314 Q1002.92 58.1548 1006.28 62.8538 Q1009.69 67.5124 1015.6 67.5124 Q1021.52 67.5124 1024.88 62.8538 Q1028.28 58.1548 1028.28 49.9314 Z" fill="#000000" fill-rule="evenodd" fill-opacity="1" /><path clip-path="url(#clip700)" d="M1048.37 27.2059 L1055.83 27.2059 L1055.83 72.576 L1048.37 72.576 L1048.37 27.2059 M1048.37 9.54393 L1055.83 9.54393 L1055.83 18.9825 L1048.37 18.9825 L1048.37 9.54393 Z" fill="#000000" fill-rule="evenodd" fill-opacity="1" /><path clip-path="url(#clip700)" d="M1097.71 34.1734 Q1096.46 33.4443 1094.96 33.1202 Q1093.5 32.7556 1091.72 32.7556 Q1085.4 32.7556 1082 36.8875 Q1078.63 40.9789 1078.63 48.6757 L1078.63 72.576 L1071.14 72.576 L1071.14 27.2059 L1078.63 27.2059 L1078.63 34.2544 Q1080.98 30.1225 1084.75 28.1376 Q1088.52 26.1121 1093.9 26.1121 Q1094.67 26.1121 1095.61 26.2337 Q1096.54 26.3147 1097.67 26.5172 L1097.71 34.1734 Z" fill="#000000" fill-rule="evenodd" fill-opacity="1" /><path clip-path="url(#clip700)" d="M1124.41 76.7889 Q1121.25 84.8907 1118.25 87.3618 Q1115.25 89.8329 1110.23 89.8329 L1104.28 89.8329 L1104.28 83.5945 L1108.65 83.5945 Q1111.73 83.5945 1113.43 82.1361 Q1115.13 80.6778 1117.2 75.2496 L1118.53 71.8468 L1100.18 27.2059 L1108.08 27.2059 L1122.26 62.6918 L1136.44 27.2059 L1144.34 27.2059 L1124.41 76.7889 Z" fill="#000000" fill-rule="evenodd" fill-opacity="1" /><path clip-path="url(#clip700)" d="M1187.28 28.9478 L1187.28 35.9153 Q1184.12 34.1734 1180.92 33.3227 Q1177.76 32.4315 1174.52 32.4315 Q1167.27 32.4315 1163.26 37.0496 Q1159.25 41.6271 1159.25 49.9314 Q1159.25 58.2358 1163.26 62.8538 Q1167.27 67.4314 1174.52 67.4314 Q1177.76 67.4314 1180.92 66.5807 Q1184.12 65.6895 1187.28 63.9476 L1187.28 70.8341 Q1184.16 72.2924 1180.8 73.0216 Q1177.47 73.7508 1173.71 73.7508 Q1163.46 73.7508 1157.42 67.3098 Q1151.39 60.8689 1151.39 49.9314 Q1151.39 38.832 1157.46 32.472 Q1163.58 26.1121 1174.19 26.1121 Q1177.64 26.1121 1180.92 26.8413 Q1184.2 27.5299 1187.28 28.9478 Z" fill="#000000" fill-rule="evenodd" fill-opacity="1" /><path clip-path="url(#clip700)" d="M1197 27.2059 L1232.41 27.2059 L1232.41 34.0114 L1204.37 66.6212 L1232.41 66.6212 L1232.41 72.576 L1195.99 72.576 L1195.99 65.7705 L1224.02 33.1607 L1197 33.1607 L1197 27.2059 Z" fill="#000000" fill-rule="evenodd" fill-opacity="1" /><path clip-path="url(#clip700)" d="M1281.5 45.1919 L1281.5 72.576 L1274.05 72.576 L1274.05 45.4349 Q1274.05 38.994 1271.54 35.7938 Q1269.03 32.5936 1264 32.5936 Q1257.97 32.5936 1254.48 36.4419 Q1251 40.2903 1251 46.9338 L1251 72.576 L1243.5 72.576 L1243.5 27.2059 L1251 27.2059 L1251 34.2544 Q1253.67 30.163 1257.28 28.1376 Q1260.92 26.1121 1265.66 26.1121 Q1273.48 26.1121 1277.49 30.9732 Q1281.5 35.7938 1281.5 45.1919 Z" fill="#000000" fill-rule="evenodd" fill-opacity="1" /><path clip-path="url(#clip700)" d="M1316.99 49.7694 Q1307.95 49.7694 1304.47 51.8354 Q1300.99 53.9013 1300.99 58.8839 Q1300.99 62.8538 1303.58 65.2034 Q1306.21 67.5124 1310.71 67.5124 Q1316.91 67.5124 1320.63 63.1374 Q1324.4 58.7219 1324.4 51.4303 L1324.4 49.7694 L1316.99 49.7694 M1331.85 46.6907 L1331.85 72.576 L1324.4 72.576 L1324.4 65.6895 Q1321.85 69.8214 1318.04 71.8063 Q1314.23 73.7508 1308.72 73.7508 Q1301.76 73.7508 1297.62 69.8619 Q1293.53 65.9325 1293.53 59.3701 Q1293.53 51.7138 1298.64 47.825 Q1303.78 43.9361 1313.95 43.9361 L1324.4 43.9361 L1324.4 43.2069 Q1324.4 38.0623 1321 35.2672 Q1317.64 32.4315 1311.52 32.4315 Q1307.63 32.4315 1303.94 33.3632 Q1300.26 34.295 1296.86 36.1584 L1296.86 29.2718 Q1300.95 27.692 1304.79 26.9223 Q1308.64 26.1121 1312.29 26.1121 Q1322.13 26.1121 1326.99 31.2163 Q1331.85 36.3204 1331.85 46.6907 Z" fill="#000000" fill-rule="evenodd" fill-opacity="1" /><path clip-path="url(#clip700)" d="M1369.81 46.5287 L1391.65 46.5287 L1391.65 53.1722 L1369.81 53.1722 L1369.81 46.5287 Z" fill="#000000" fill-rule="evenodd" fill-opacity="1" /><path clip-path="url(#clip700)" d="M1467.6 45.1919 L1467.6 72.576 L1460.15 72.576 L1460.15 45.4349 Q1460.15 38.994 1457.64 35.7938 Q1455.12 32.5936 1450.1 32.5936 Q1444.06 32.5936 1440.58 36.4419 Q1437.1 40.2903 1437.1 46.9338 L1437.1 72.576 L1429.6 72.576 L1429.6 27.2059 L1437.1 27.2059 L1437.1 34.2544 Q1439.77 30.163 1443.38 28.1376 Q1447.02 26.1121 1451.76 26.1121 Q1459.58 26.1121 1463.59 30.9732 Q1467.6 35.7938 1467.6 45.1919 Z" fill="#000000" fill-rule="evenodd" fill-opacity="1" /><path clip-path="url(#clip700)" d="M1503.09 49.7694 Q1494.05 49.7694 1490.57 51.8354 Q1487.09 53.9013 1487.09 58.8839 Q1487.09 62.8538 1489.68 65.2034 Q1492.31 67.5124 1496.81 67.5124 Q1503.01 67.5124 1506.73 63.1374 Q1510.5 58.7219 1510.5 51.4303 L1510.5 49.7694 L1503.09 49.7694 M1517.95 46.6907 L1517.95 72.576 L1510.5 72.576 L1510.5 65.6895 Q1507.95 69.8214 1504.14 71.8063 Q1500.33 73.7508 1494.82 73.7508 Q1487.86 73.7508 1483.72 69.8619 Q1479.63 65.9325 1479.63 59.3701 Q1479.63 51.7138 1484.74 47.825 Q1489.88 43.9361 1500.05 43.9361 L1510.5 43.9361 L1510.5 43.2069 Q1510.5 38.0623 1507.1 35.2672 Q1503.73 32.4315 1497.62 32.4315 Q1493.73 32.4315 1490.04 33.3632 Q1486.36 34.295 1482.95 36.1584 L1482.95 29.2718 Q1487.04 27.692 1490.89 26.9223 Q1494.74 26.1121 1498.39 26.1121 Q1508.23 26.1121 1513.09 31.2163 Q1517.95 36.3204 1517.95 46.6907 Z" fill="#000000" fill-rule="evenodd" fill-opacity="1" /><path clip-path="url(#clip700)" d="M1563.16 34.0924 L1563.16 9.54393 L1570.62 9.54393 L1570.62 72.576 L1563.16 72.576 L1563.16 65.7705 Q1560.81 69.8214 1557.21 71.8063 Q1553.64 73.7508 1548.62 73.7508 Q1540.4 73.7508 1535.21 67.1883 Q1530.07 60.6258 1530.07 49.9314 Q1530.07 39.2371 1535.21 32.6746 Q1540.4 26.1121 1548.62 26.1121 Q1553.64 26.1121 1557.21 28.0971 Q1560.81 30.0415 1563.16 34.0924 M1537.76 49.9314 Q1537.76 58.1548 1541.12 62.8538 Q1544.53 67.5124 1550.44 67.5124 Q1556.36 67.5124 1559.76 62.8538 Q1563.16 58.1548 1563.16 49.9314 Q1563.16 41.7081 1559.76 37.0496 Q1556.36 32.3505 1550.44 32.3505 Q1544.53 32.3505 1541.12 37.0496 Q1537.76 41.7081 1537.76 49.9314 Z" fill="#000000" fill-rule="evenodd" fill-opacity="1" /><path clip-path="url(#clip700)" d="M1581.63 27.2059 L1589.09 27.2059 L1598.4 62.6108 L1607.68 27.2059 L1616.47 27.2059 L1625.79 62.6108 L1635.07 27.2059 L1642.52 27.2059 L1630.65 72.576 L1621.86 72.576 L1612.1 35.3887 L1602.29 72.576 L1593.5 72.576 L1581.63 27.2059 Z" fill="#000000" fill-rule="evenodd" fill-opacity="1" /><path clip-path="url(#clip700)" d="M1672.7 76.7889 Q1669.54 84.8907 1666.54 87.3618 Q1663.54 89.8329 1658.52 89.8329 L1652.56 89.8329 L1652.56 83.5945 L1656.94 83.5945 Q1660.02 83.5945 1661.72 82.1361 Q1663.42 80.6778 1665.49 75.2496 L1666.82 71.8468 L1648.47 27.2059 L1656.37 27.2059 L1670.55 62.6918 L1684.73 27.2059 L1692.63 27.2059 L1672.7 76.7889 Z" fill="#000000" fill-rule="evenodd" fill-opacity="1" /><path clip-path="url(#clip700)" d="M1712.96 9.54393 L1720.42 9.54393 L1720.42 18.9825 L1712.96 18.9825 L1712.96 9.54393 M1716.77 26.1121 L1716.77 26.1121 M1699.68 27.2059 L1735.08 27.2059 L1735.08 34.0114 L1707.05 66.6212 L1735.08 66.6212 L1735.08 72.576 L1698.66 72.576 L1698.66 65.7705 L1726.7 33.1607 L1699.68 33.1607 L1699.68 27.2059 Z" fill="#000000" fill-rule="evenodd" fill-opacity="1" /><path clip-path="url(#clip700)" d="M1746.18 9.54393 L1753.68 9.54393 L1753.68 46.7717 L1775.91 27.2059 L1785.43 27.2059 L1761.37 48.4326 L1786.45 72.576 L1776.73 72.576 L1753.68 50.4176 L1753.68 72.576 L1746.18 72.576 L1746.18 9.54393 Z" fill="#000000" fill-rule="evenodd" fill-opacity="1" /><path clip-path="url(#clip700)" d="M1813.67 49.7694 Q1804.64 49.7694 1801.15 51.8354 Q1797.67 53.9013 1797.67 58.8839 Q1797.67 62.8538 1800.26 65.2034 Q1802.89 67.5124 1807.39 67.5124 Q1813.59 67.5124 1817.32 63.1374 Q1821.08 58.7219 1821.08 51.4303 L1821.08 49.7694 L1813.67 49.7694 M1828.54 46.6907 L1828.54 72.576 L1821.08 72.576 L1821.08 65.6895 Q1818.53 69.8214 1814.72 71.8063 Q1810.91 73.7508 1805.41 73.7508 Q1798.44 73.7508 1794.31 69.8619 Q1790.21 65.9325 1790.21 59.3701 Q1790.21 51.7138 1795.32 47.825 Q1800.46 43.9361 1810.63 43.9361 L1821.08 43.9361 L1821.08 43.2069 Q1821.08 38.0623 1817.68 35.2672 Q1814.32 32.4315 1808.2 32.4315 Q1804.31 32.4315 1800.63 33.3632 Q1796.94 34.295 1793.54 36.1584 L1793.54 29.2718 Q1797.63 27.692 1801.48 26.9223 Q1805.32 26.1121 1808.97 26.1121 Q1818.81 26.1121 1823.68 31.2163 Q1828.54 36.3204 1828.54 46.6907 Z" fill="#000000" fill-rule="evenodd" fill-opacity="1" /><path clip-path="url(#clip700)" d="M1877.47 65.7705 L1877.47 89.8329 L1869.98 89.8329 L1869.98 27.2059 L1877.47 27.2059 L1877.47 34.0924 Q1879.82 30.0415 1883.39 28.0971 Q1886.99 26.1121 1891.97 26.1121 Q1900.24 26.1121 1905.38 32.6746 Q1910.57 39.2371 1910.57 49.9314 Q1910.57 60.6258 1905.38 67.1883 Q1900.24 73.7508 1891.97 73.7508 Q1886.99 73.7508 1883.39 71.8063 Q1879.82 69.8214 1877.47 65.7705 M1902.83 49.9314 Q1902.83 41.7081 1899.43 37.0496 Q1896.06 32.3505 1890.15 32.3505 Q1884.24 32.3505 1880.83 37.0496 Q1877.47 41.7081 1877.47 49.9314 Q1877.47 58.1548 1880.83 62.8538 Q1884.24 67.5124 1890.15 67.5124 Q1896.06 67.5124 1899.43 62.8538 Q1902.83 58.1548 1902.83 49.9314 Z" fill="#000000" fill-rule="evenodd" fill-opacity="1" /><path clip-path="url(#clip700)" d="M1949.21 34.1734 Q1947.96 33.4443 1946.46 33.1202 Q1945 32.7556 1943.22 32.7556 Q1936.9 32.7556 1933.5 36.8875 Q1930.13 40.9789 1930.13 48.6757 L1930.13 72.576 L1922.64 72.576 L1922.64 27.2059 L1930.13 27.2059 L1930.13 34.2544 Q1932.48 30.1225 1936.25 28.1376 Q1940.02 26.1121 1945.4 26.1121 Q1946.17 26.1121 1947.11 26.2337 Q1948.04 26.3147 1949.17 26.5172 L1949.21 34.1734 Z" fill="#000000" fill-rule="evenodd" fill-opacity="1" /><path clip-path="url(#clip700)" d="M1972.79 32.4315 Q1966.79 32.4315 1963.31 37.1306 Q1959.83 41.7891 1959.83 49.9314 Q1959.83 58.0738 1963.27 62.7728 Q1966.75 67.4314 1972.79 67.4314 Q1978.74 67.4314 1982.23 62.7323 Q1985.71 58.0333 1985.71 49.9314 Q1985.71 41.8701 1982.23 37.1711 Q1978.74 32.4315 1972.79 32.4315 M1972.79 26.1121 Q1982.51 26.1121 1988.06 32.4315 Q1993.61 38.7509 1993.61 49.9314 Q1993.61 61.0714 1988.06 67.4314 Q1982.51 73.7508 1972.79 73.7508 Q1963.03 73.7508 1957.48 67.4314 Q1951.97 61.0714 1951.97 49.9314 Q1951.97 38.7509 1957.48 32.4315 Q1963.03 26.1121 1972.79 26.1121 Z" fill="#000000" fill-rule="evenodd" fill-opacity="1" /><path clip-path="url(#clip700)" d="M2035.82 34.0924 L2035.82 9.54393 L2043.27 9.54393 L2043.27 72.576 L2035.82 72.576 L2035.82 65.7705 Q2033.47 69.8214 2029.87 71.8063 Q2026.3 73.7508 2021.28 73.7508 Q2013.05 73.7508 2007.87 67.1883 Q2002.73 60.6258 2002.73 49.9314 Q2002.73 39.2371 2007.87 32.6746 Q2013.05 26.1121 2021.28 26.1121 Q2026.3 26.1121 2029.87 28.0971 Q2033.47 30.0415 2035.82 34.0924 M2010.42 49.9314 Q2010.42 58.1548 2013.78 62.8538 Q2017.19 67.5124 2023.1 67.5124 Q2029.02 67.5124 2032.42 62.8538 Q2035.82 58.1548 2035.82 49.9314 Q2035.82 41.7081 2032.42 37.0496 Q2029.02 32.3505 2023.1 32.3505 Q2017.19 32.3505 2013.78 37.0496 Q2010.42 41.7081 2010.42 49.9314 Z" fill="#000000" fill-rule="evenodd" fill-opacity="1" /><path clip-path="url(#clip700)" d="M2057.86 54.671 L2057.86 27.2059 L2065.31 27.2059 L2065.31 54.3874 Q2065.31 60.8284 2067.82 64.0691 Q2070.33 67.2693 2075.36 67.2693 Q2081.39 67.2693 2084.88 63.421 Q2088.4 59.5726 2088.4 52.9291 L2088.4 27.2059 L2095.86 27.2059 L2095.86 72.576 L2088.4 72.576 L2088.4 65.6084 Q2085.69 69.7404 2082.08 71.7658 Q2078.52 73.7508 2073.78 73.7508 Q2065.96 73.7508 2061.91 68.8897 Q2057.86 64.0286 2057.86 54.671 M2076.61 26.1121 L2076.61 26.1121 Z" fill="#000000" fill-rule="evenodd" fill-opacity="1" /><path clip-path="url(#clip700)" d="M2143.86 28.9478 L2143.86 35.9153 Q2140.7 34.1734 2137.5 33.3227 Q2134.34 32.4315 2131.1 32.4315 Q2123.85 32.4315 2119.84 37.0496 Q2115.83 41.6271 2115.83 49.9314 Q2115.83 58.2358 2119.84 62.8538 Q2123.85 67.4314 2131.1 67.4314 Q2134.34 67.4314 2137.5 66.5807 Q2140.7 65.6895 2143.86 63.9476 L2143.86 70.8341 Q2140.74 72.2924 2137.38 73.0216 Q2134.06 73.7508 2130.29 73.7508 Q2120.04 73.7508 2114 67.3098 Q2107.97 60.8689 2107.97 49.9314 Q2107.97 38.832 2114.04 32.472 Q2120.16 26.1121 2130.77 26.1121 Q2134.22 26.1121 2137.5 26.8413 Q2140.78 27.5299 2143.86 28.9478 Z" fill="#000000" fill-rule="evenodd" fill-opacity="1" /><path clip-path="url(#clip700)" d="M2195.63 48.0275 L2195.63 51.6733 L2161.36 51.6733 Q2161.84 59.3701 2165.98 63.421 Q2170.15 67.4314 2177.56 67.4314 Q2181.86 67.4314 2185.87 66.3781 Q2189.92 65.3249 2193.89 63.2184 L2193.89 70.267 Q2189.88 71.9684 2185.66 72.8596 Q2181.45 73.7508 2177.12 73.7508 Q2166.26 73.7508 2159.9 67.4314 Q2153.58 61.1119 2153.58 50.3365 Q2153.58 39.1965 2159.58 32.6746 Q2165.61 26.1121 2175.82 26.1121 Q2184.98 26.1121 2190.28 32.0264 Q2195.63 37.9003 2195.63 48.0275 M2188.18 45.84 Q2188.09 39.7232 2184.73 36.0774 Q2181.41 32.4315 2175.9 32.4315 Q2169.66 32.4315 2165.9 35.9558 Q2162.17 39.4801 2161.6 45.8805 L2188.18 45.84 Z" fill="#000000" fill-rule="evenodd" fill-opacity="1" /><path clip-path="url(#clip700)" d="M2245.58 45.1919 L2245.58 72.576 L2238.12 72.576 L2238.12 45.4349 Q2238.12 38.994 2235.61 35.7938 Q2233.1 32.5936 2228.08 32.5936 Q2222.04 32.5936 2218.56 36.4419 Q2215.07 40.2903 2215.07 46.9338 L2215.07 72.576 L2207.58 72.576 L2207.58 27.2059 L2215.07 27.2059 L2215.07 34.2544 Q2217.75 30.163 2221.35 28.1376 Q2225 26.1121 2229.74 26.1121 Q2237.56 26.1121 2241.57 30.9732 Q2245.58 35.7938 2245.58 45.1919 Z" fill="#000000" fill-rule="evenodd" fill-opacity="1" /><path clip-path="url(#clip700)" d="M2267.82 14.324 L2267.82 27.2059 L2283.17 27.2059 L2283.17 32.9987 L2267.82 32.9987 L2267.82 57.6282 Q2267.82 63.1779 2269.32 64.7578 Q2270.85 66.3376 2275.51 66.3376 L2283.17 66.3376 L2283.17 72.576 L2275.51 72.576 Q2266.88 72.576 2263.6 69.3758 Q2260.32 66.1351 2260.32 57.6282 L2260.32 32.9987 L2254.85 32.9987 L2254.85 27.2059 L2260.32 27.2059 L2260.32 14.324 L2267.82 14.324 Z" fill="#000000" fill-rule="evenodd" fill-opacity="1" /><path clip-path="url(#clip700)" d="M2313.59 49.7694 Q2304.56 49.7694 2301.07 51.8354 Q2297.59 53.9013 2297.59 58.8839 Q2297.59 62.8538 2300.18 65.2034 Q2302.82 67.5124 2307.31 67.5124 Q2313.51 67.5124 2317.24 63.1374 Q2321 58.7219 2321 51.4303 L2321 49.7694 L2313.59 49.7694 M2328.46 46.6907 L2328.46 72.576 L2321 72.576 L2321 65.6895 Q2318.45 69.8214 2314.64 71.8063 Q2310.84 73.7508 2305.33 73.7508 Q2298.36 73.7508 2294.23 69.8619 Q2290.14 65.9325 2290.14 59.3701 Q2290.14 51.7138 2295.24 47.825 Q2300.39 43.9361 2310.55 43.9361 L2321 43.9361 L2321 43.2069 Q2321 38.0623 2317.6 35.2672 Q2314.24 32.4315 2308.12 32.4315 Q2304.23 32.4315 2300.55 33.3632 Q2296.86 34.295 2293.46 36.1584 L2293.46 29.2718 Q2297.55 27.692 2301.4 26.9223 Q2305.25 26.1121 2308.89 26.1121 Q2318.74 26.1121 2323.6 31.2163 Q2328.46 36.3204 2328.46 46.6907 Z" fill="#000000" fill-rule="evenodd" fill-opacity="1" /><polyline clip-path="url(#clip702)" style="stroke:#009af9; stroke-linecap:butt; stroke-linejoin:round; stroke-width:4; stroke-opacity:1; fill:none" points="
  309.067,1386.4 322.296,1383.94 380.788,1381.48 396.95,1379.02 409.489,1376.57 409.749,1374.11 429.103,1371.65 435.496,1369.2 447.387,1366.74 462.52,1364.28 
  477.492,1361.82 479.106,1359.37 497.996,1356.91 515.294,1354.45 519.959,1351.99 522.799,1349.54 538.15,1347.08 540.327,1344.62 552.761,1342.17 563.794,1339.71 
  570.306,1337.25 589.241,1334.79 598.255,1332.34 605.09,1329.88 605.974,1327.42 609.832,1324.97 614.151,1322.51 624.079,1320.05 624.698,1317.59 628.819,1315.14 
  630.321,1312.68 632.455,1310.22 633.078,1307.77 634.363,1305.31 643.894,1302.85 652.069,1300.39 653.159,1297.94 656.391,1295.48 656.936,1293.02 658.983,1290.57 
  665.189,1288.11 666.235,1285.65 666.822,1283.19 670.773,1280.74 670.998,1278.28 673.268,1275.82 673.778,1273.36 680.072,1270.91 681.416,1268.45 682.07,1265.99 
  687.626,1263.54 688.419,1261.08 691.691,1258.62 692.372,1256.16 694.278,1253.71 695.055,1251.25 697.704,1248.79 703.134,1246.34 703.257,1243.88 703.809,1241.42 
  703.915,1238.96 705.069,1236.51 705.315,1234.05 705.836,1231.59 706.018,1229.14 706.592,1226.68 707.867,1224.22 708.023,1221.76 710.693,1219.31 713.653,1216.85 
  714.536,1214.39 718.094,1211.93 718.587,1209.48 719.013,1207.02 719.223,1204.56 722.528,1202.11 723.629,1199.65 723.836,1197.19 726.579,1194.73 726.8,1192.28 
  726.917,1189.82 732.617,1187.36 734.262,1184.91 734.573,1182.45 734.62,1179.99 735.271,1177.53 735.32,1175.08 736.514,1172.62 736.869,1170.16 737.059,1167.71 
  737.544,1165.25 739.715,1162.79 739.856,1160.33 740.12,1157.88 743.432,1155.42 744.761,1152.96 745.047,1150.51 745.179,1148.05 753.464,1145.59 753.657,1143.13 
  754.129,1140.68 757.413,1138.22 757.755,1135.76 759.537,1133.3 760.461,1130.85 760.6,1128.39 761.709,1125.93 762.023,1123.48 762.562,1121.02 765.382,1118.56 
  769.498,1116.1 769.669,1113.65 770.868,1111.19 771.038,1108.73 771.872,1106.28 773.702,1103.82 774.83,1101.36 778.843,1098.9 779.263,1096.45 780.953,1093.99 
  782.628,1091.53 782.754,1089.08 784.762,1086.62 789.284,1084.16 789.638,1081.7 791.18,1079.25 791.515,1076.79 791.95,1074.33 792.252,1071.87 792.866,1069.42 
  798.457,1066.96 800.753,1064.5 801.884,1062.05 801.948,1059.59 802.855,1057.13 803.642,1054.67 803.644,1052.22 803.688,1049.76 804.157,1047.3 806.068,1044.85 
  812.395,1042.39 812.712,1039.93 818.554,1037.47 819.485,1035.02 820.52,1032.56 821.237,1030.1 822.755,1027.65 825.124,1025.19 825.598,1022.73 826.116,1020.27 
  826.984,1017.82 827.367,1015.36 828.453,1012.9 829.688,1010.45 829.956,1007.99 830.222,1005.53 830.279,1003.07 831.738,1000.62 832.05,998.159 842.884,995.702 
  843.148,993.245 844.356,990.788 844.629,988.33 844.755,985.873 845.788,983.416 846.079,980.959 847.446,978.502 848.204,976.044 854.071,973.587 855.754,971.13 
  859.709,968.673 862.709,966.216 864.034,963.758 865.811,961.301 868.244,958.844 870.873,956.387 875.902,953.93 875.941,951.472 876.334,949.015 876.714,946.558 
  877.992,944.101 878.005,941.644 878.119,939.187 878.234,936.729 879.07,934.272 879.976,931.815 880.746,929.358 881.274,926.901 881.77,924.443 882.617,921.986 
  887.196,919.529 891.071,917.072 891.671,914.615 892.762,912.157 893.817,909.7 894.962,907.243 896.823,904.786 896.951,902.329 898.775,899.871 900.653,897.414 
  900.955,894.957 901.544,892.5 903.897,890.043 906.405,887.585 907.358,885.128 908.36,882.671 909.396,880.214 912.37,877.757 912.729,875.299 915.235,872.842 
  916.175,870.385 917.273,867.928 921.258,865.471 922.987,863.014 924.566,860.556 927.784,858.099 927.859,855.642 928.327,853.185 930.387,850.728 930.794,848.27 
  932.382,845.813 933.596,843.356 934.231,840.899 940.441,838.442 942.116,835.984 942.131,833.527 942.65,831.07 943.022,828.613 943.694,826.156 947.774,823.698 
  950.229,821.241 950.429,818.784 953.593,816.327 955.248,813.87 961.26,811.412 961.51,808.955 962.134,806.498 963.815,804.041 966.622,801.584 968.819,799.127 
  970.369,796.669 971.474,794.212 971.778,791.755 973.193,789.298 973.474,786.841 974.202,784.383 974.868,781.926 980.396,779.469 981.924,777.012 982.158,774.555 
  982.876,772.097 983.233,769.64 983.293,767.183 988.79,764.726 988.982,762.269 989.799,759.811 990.344,757.354 990.542,754.897 992.66,752.44 996.417,749.983 
  996.897,747.525 998.826,745.068 1004.5,742.611 1005.46,740.154 1005.7,737.697 1007.03,735.239 1007.42,732.782 1008.16,730.325 1009.49,727.868 1013.08,725.411 
  1013.17,722.954 1015.99,720.496 1017.7,718.039 1017.93,715.582 1019.84,713.125 1019.91,710.668 1021.14,708.21 1022.07,705.753 1023.18,703.296 1023.46,700.839 
  1029.78,698.382 1030.32,695.924 1031.15,693.467 1031.64,691.01 1032.73,688.553 1033.31,686.096 1033.67,683.638 1035.49,681.181 1035.97,678.724 1036.1,676.267 
  1037.54,673.81 1037.81,671.352 1039.78,668.895 1042.16,666.438 1043.37,663.981 1045.06,661.524 1046.9,659.067 1048.7,656.609 1048.74,654.152 1049.98,651.695 
  1056.37,649.238 1056.43,646.781 1060.35,644.323 1064.97,641.866 1065.61,639.409 1069.8,636.952 1071.2,634.495 1075.99,632.037 1076.56,629.58 1080.21,627.123 
  1082.13,624.666 1083.64,622.209 1085.21,619.751 1086.48,617.294 1093.27,614.837 1093.44,612.38 1098.85,609.923 1099.17,607.465 1100.51,605.008 1103.15,602.551 
  1103.16,600.094 1104.18,597.637 1106.05,595.179 1106.85,592.722 1113.81,590.265 1114.9,587.808 1115.43,585.351 1117.62,582.894 1117.87,580.436 1122,577.979 
  1122.48,575.522 1122.68,573.065 1125.26,570.608 1126.87,568.15 1129.45,565.693 1133.24,563.236 1135.97,560.779 1137.39,558.322 1141.28,555.864 1141.43,553.407 
  1143.74,550.95 1144.27,548.493 1144.86,546.036 1146.99,543.578 1150.33,541.121 1155.62,538.664 1157.14,536.207 1159.58,533.75 1159.76,531.292 1163.11,528.835 
  1169.89,526.378 1171.35,523.921 1173.7,521.464 1177.79,519.006 1181.75,516.549 1183.1,514.092 1184.31,511.635 1187.33,509.178 1188.68,506.721 1190.05,504.263 
  1191.05,501.806 1192.15,499.349 1192.85,496.892 1193.91,494.435 1194.78,491.977 1195.81,489.52 1197.24,487.063 1197.48,484.606 1199.86,482.149 1204.73,479.691 
  1207.81,477.234 1209.91,474.777 1212.97,472.32 1213.34,469.863 1213.87,467.405 1213.91,464.948 1215.5,462.491 1215.51,460.034 1216.85,457.577 1222.57,455.119 
  1232.81,452.662 1233.27,450.205 1241.54,447.748 1243.47,445.291 1244.99,442.834 1250.93,440.376 1251.57,437.919 1251.6,435.462 1252.42,433.005 1254.77,430.548 
  1264.1,428.09 1271.43,425.633 1271.8,423.176 1273.65,420.719 1274.65,418.262 1275,415.804 1281.82,413.347 1282.51,410.89 1284.57,408.433 1285.21,405.976 
  1286.07,403.518 1287.87,401.061 1288.45,398.604 1288.9,396.147 1289.23,393.69 1290.16,391.232 1290.71,388.775 1302.7,386.318 1308.31,383.861 1309.64,381.404 
  1314.27,378.946 1314.93,376.489 1317.31,374.032 1317.88,371.575 1319.6,369.118 1320.54,366.661 1332.35,364.203 1336.26,361.746 1340.37,359.289 1340.84,356.832 
  1346.25,354.375 1349.16,351.917 1350.9,349.46 1353.18,347.003 1354.57,344.546 1355.76,342.089 1355.76,339.631 1359.25,337.174 1365.82,334.717 1368.73,332.26 
  1374.41,329.803 1374.85,327.345 1376.85,324.888 1377.01,322.431 1380.88,319.974 1381.29,317.517 1383.54,315.059 1384.81,312.602 1387.82,310.145 1394.89,307.688 
  1398.68,305.231 1404.2,302.774 1416.54,300.316 1429.24,297.859 1431.92,295.402 1435.41,292.945 1437.03,290.488 1439.29,288.03 1447.81,285.573 1448.13,283.116 
  1453.27,280.659 1465.16,278.202 1468.08,275.744 1468.7,273.287 1476.02,270.83 1476.59,268.373 1478.85,265.916 1489.6,263.458 1490.84,261.001 1491.37,258.544 
  1492.69,256.087 1495.12,253.63 1496,251.172 1501.64,248.715 1506.3,246.258 1507.53,243.801 1520.98,241.344 1522.54,238.886 1523.4,236.429 1526.65,233.972 
  1533.71,231.515 1546.12,229.058 1578.32,226.601 1583.97,224.143 1589.43,221.686 1626.28,219.229 1638.21,216.772 1648.08,214.315 1656.15,211.857 1658.05,209.4 
  1673.48,206.943 1674.24,204.486 1680.37,202.029 1691.11,199.571 1697.4,197.114 1700.1,194.657 1702.48,192.2 1702.79,189.743 1711.62,187.285 1721.66,184.828 
  1736.86,182.371 1772.37,179.914 1859,177.457 1873.28,174.999 1940.56,172.542 1942.13,170.085 1992.22,167.628 2022.52,165.171 2131.98,162.713 2293.23,160.256 
  
  "/>
<polyline clip-path="url(#clip702)" style="stroke:#e26f46; stroke-linecap:butt; stroke-linejoin:round; stroke-width:4; stroke-opacity:1; fill:none" points="
  696.376,1386.4 713.892,1383.94 752.211,1381.48 760.279,1379.02 767.927,1376.57 768.86,1374.11 773.099,1371.65 775.199,1369.2 784.917,1366.74 793.21,1364.28 
  797.96,1361.82 797.973,1359.37 805.996,1356.91 814.771,1354.45 816.783,1351.99 826.096,1349.54 827.886,1347.08 836.467,1344.62 842.911,1342.17 844.48,1339.71 
  848.065,1337.25 850.758,1334.79 860.436,1332.34 861.322,1329.88 866.594,1327.42 872.339,1324.97 895.632,1322.51 899.688,1320.05 900.836,1317.59 904.248,1315.14 
  905.174,1312.68 905.348,1310.22 917.982,1307.77 920.36,1305.31 925.593,1302.85 931.214,1300.39 933.052,1297.94 933.7,1295.48 935.778,1293.02 940.583,1290.57 
  941.392,1288.11 941.563,1285.65 943.803,1283.19 947.769,1280.74 949.697,1278.28 949.987,1275.82 952.758,1273.36 952.877,1270.91 953.044,1268.45 953.817,1265.99 
  954.883,1263.54 956.594,1261.08 965.595,1258.62 970.208,1256.16 970.231,1253.71 973.917,1251.25 976.8,1248.79 979.954,1246.34 981.926,1243.88 983.03,1241.42 
  983.831,1238.96 983.975,1236.51 984.489,1234.05 985.784,1231.59 986.294,1229.14 991.353,1226.68 992.126,1224.22 992.201,1221.76 993.127,1219.31 993.185,1216.85 
  996.259,1214.39 999.202,1211.93 1000.06,1209.48 1003.84,1207.02 1004.19,1204.56 1006.87,1202.11 1007.37,1199.65 1008.6,1197.19 1009,1194.73 1011.46,1192.28 
  1012.15,1189.82 1012.29,1187.36 1015.5,1184.91 1017.54,1182.45 1018.41,1179.99 1018.9,1177.53 1019.29,1175.08 1021.34,1172.62 1021.45,1170.16 1022.74,1167.71 
  1023.08,1165.25 1024.59,1162.79 1025.72,1160.33 1026.11,1157.88 1026.56,1155.42 1027.89,1152.96 1031.47,1150.51 1032.2,1148.05 1032.77,1145.59 1033.39,1143.13 
  1035.21,1140.68 1035.23,1138.22 1038.09,1135.76 1038.52,1133.3 1038.7,1130.85 1038.74,1128.39 1039.2,1125.93 1040.9,1123.48 1041.08,1121.02 1042.37,1118.56 
  1042.47,1116.1 1043.02,1113.65 1043.43,1111.19 1044.02,1108.73 1044.76,1106.28 1045.9,1103.82 1048.13,1101.36 1048.99,1098.9 1050.88,1096.45 1051.08,1093.99 
  1053.21,1091.53 1054.9,1089.08 1055.52,1086.62 1056.49,1084.16 1057.59,1081.7 1058.5,1079.25 1058.64,1076.79 1058.86,1074.33 1058.92,1071.87 1059.39,1069.42 
  1059.51,1066.96 1063.94,1064.5 1067.11,1062.05 1068.55,1059.59 1069.07,1057.13 1071.62,1054.67 1071.71,1052.22 1072.02,1049.76 1073.46,1047.3 1077.83,1044.85 
  1078.63,1042.39 1079.25,1039.93 1080.62,1037.47 1082.12,1035.02 1082.19,1032.56 1082.48,1030.1 1082.75,1027.65 1083.27,1025.19 1084.32,1022.73 1084.87,1020.27 
  1086.67,1017.82 1087.69,1015.36 1088.66,1012.9 1088.77,1010.45 1089.98,1007.99 1090.6,1005.53 1091.02,1003.07 1092.06,1000.62 1093.53,998.159 1094.73,995.702 
  1096.69,993.245 1096.92,990.788 1098.74,988.33 1099.96,985.873 1101.21,983.416 1101.34,980.959 1101.95,978.502 1102.17,976.044 1102.47,973.587 1102.81,971.13 
  1103.9,968.673 1104.61,966.216 1104.95,963.758 1105.01,961.301 1105.33,958.844 1109.03,956.387 1109.3,953.93 1109.7,951.472 1111.31,949.015 1112.3,946.558 
  1112.72,944.101 1112.75,941.644 1112.84,939.187 1114.5,936.729 1115.82,934.272 1116.21,931.815 1117.59,929.358 1118.04,926.901 1119.5,924.443 1119.93,921.986 
  1120.48,919.529 1121.97,917.072 1122.43,914.615 1123.14,912.157 1123.76,909.7 1124.66,907.243 1129.65,904.786 1132.36,902.329 1132.75,899.871 1132.82,897.414 
  1137.49,894.957 1139.24,892.5 1140.57,890.043 1141.86,887.585 1142.88,885.128 1144.47,882.671 1144.76,880.214 1145.75,877.757 1148.01,875.299 1148.98,872.842 
  1149.66,870.385 1150.98,867.928 1154.05,865.471 1154.29,863.014 1154.7,860.556 1155.43,858.099 1158.35,855.642 1158.98,853.185 1160.89,850.728 1162.72,848.27 
  1166.13,845.813 1168.52,843.356 1169.82,840.899 1173.4,838.442 1176.72,835.984 1176.74,833.527 1177.86,831.07 1178.59,828.613 1180.2,826.156 1180.3,823.698 
  1180.35,821.241 1181.49,818.784 1182.25,816.327 1184.69,813.87 1186.26,811.412 1187.26,808.955 1187.76,806.498 1190.43,804.041 1190.69,801.584 1191.4,799.127 
  1195.37,796.669 1196.91,794.212 1199.22,791.755 1199.47,789.298 1201.22,786.841 1202.49,784.383 1202.52,781.926 1202.74,779.469 1205.58,777.012 1207.89,774.555 
  1209.25,772.097 1212.09,769.64 1212.73,767.183 1213.33,764.726 1215.53,762.269 1215.69,759.811 1216.1,757.354 1218.86,754.897 1219.21,752.44 1220.12,749.983 
  1222.22,747.525 1225.68,745.068 1225.88,742.611 1226.07,740.154 1226.77,737.697 1230.65,735.239 1230.72,732.782 1235.08,730.325 1237.92,727.868 1238.73,725.411 
  1239.23,722.954 1239.45,720.496 1242.32,718.039 1242.65,715.582 1242.91,713.125 1242.97,710.668 1244.28,708.21 1245.14,705.753 1245.96,703.296 1246.02,700.839 
  1247.48,698.382 1247.84,695.924 1248.09,693.467 1248.25,691.01 1249.25,688.553 1249.42,686.096 1249.87,683.638 1256.33,681.181 1259.32,678.724 1259.97,676.267 
  1261.57,673.81 1262.3,671.352 1264.29,668.895 1265.29,666.438 1265.46,663.981 1266.6,661.524 1267.29,659.067 1267.82,656.609 1269.01,654.152 1272,651.695 
  1272.01,649.238 1272.39,646.781 1272.68,644.323 1273.65,641.866 1281.97,639.409 1283.39,636.952 1283.56,634.495 1284.81,632.037 1285.93,629.58 1287.2,627.123 
  1288.98,624.666 1292.14,622.209 1295.72,619.751 1296.42,617.294 1296.45,614.837 1296.68,612.38 1300.61,609.923 1300.84,607.465 1301.03,605.008 1301.52,602.551 
  1302.04,600.094 1303.83,597.637 1305.52,595.179 1307.81,592.722 1310.05,590.265 1310.35,587.808 1311.05,585.351 1312.79,582.894 1313.3,580.436 1313.6,577.979 
  1314.07,575.522 1315.82,573.065 1315.97,570.608 1317.11,568.15 1317.49,565.693 1325.52,563.236 1327.43,560.779 1327.63,558.322 1330.85,555.864 1331.21,553.407 
  1332.16,550.95 1334.98,548.493 1337.67,546.036 1342.03,543.578 1342.14,541.121 1343.77,538.664 1344.2,536.207 1347.49,533.75 1348.95,531.292 1349.32,528.835 
  1349.81,526.378 1350.68,523.921 1355.79,521.464 1355.86,519.006 1358.2,516.549 1358.2,514.092 1358.34,511.635 1358.83,509.178 1358.85,506.721 1363.31,504.263 
  1368.22,501.806 1369.46,499.349 1371.58,496.892 1372.48,494.435 1372.59,491.977 1372.85,489.52 1373.5,487.063 1375.43,484.606 1375.73,482.149 1378.05,479.691 
  1379.32,477.234 1380.19,474.777 1381.77,472.32 1386.89,469.863 1388.46,467.405 1391.39,464.948 1391.57,462.491 1392.02,460.034 1392.96,457.577 1395.14,455.119 
  1395.76,452.662 1396.56,450.205 1397.52,447.748 1398.29,445.291 1398.43,442.834 1398.62,440.376 1405.94,437.919 1412.24,435.462 1417.58,433.005 1418,430.548 
  1420.35,428.09 1421.87,425.633 1422.51,423.176 1428.53,420.719 1430.74,418.262 1432.34,415.804 1432.34,413.347 1432.35,410.89 1435.33,408.433 1437.6,405.976 
  1439.9,403.518 1442.06,401.061 1443.74,398.604 1445.4,396.147 1445.57,393.69 1445.98,391.232 1447.7,388.775 1449.73,386.318 1451.94,383.861 1452.23,381.404 
  1453.61,378.946 1465.32,376.489 1470.58,374.032 1473.52,371.575 1473.54,369.118 1475.75,366.661 1483.75,364.203 1488.66,361.746 1489.32,359.289 1492.56,356.832 
  1492.7,354.375 1493.05,351.917 1493.17,349.46 1493.93,347.003 1494.44,344.546 1496.4,342.089 1499.63,339.631 1509.24,337.174 1510.02,334.717 1512.44,332.26 
  1517.9,329.803 1517.94,327.345 1525.98,324.888 1526.73,322.431 1530.29,319.974 1533.54,317.517 1537.8,315.059 1540.19,312.602 1541.06,310.145 1542.26,307.688 
  1543.44,305.231 1559.31,302.774 1562.06,300.316 1566.55,297.859 1570.96,295.402 1581.99,292.945 1587.13,290.488 1592.96,288.03 1596.7,285.573 1597.4,283.116 
  1598,280.659 1600,278.202 1601.23,275.744 1611.3,273.287 1618.69,270.83 1638.88,268.373 1640.31,265.916 1640.77,263.458 1641.42,261.001 1652.76,258.544 
  1657.52,256.087 1666.93,253.63 1669.55,251.172 1673.29,248.715 1674.35,246.258 1680.66,243.801 1683.8,241.344 1688.03,238.886 1705.45,236.429 1709.69,233.972 
  1717.66,231.515 1718.26,229.058 1719.94,226.601 1720.54,224.143 1722.21,221.686 1722.31,219.229 1725.12,216.772 1728.28,214.315 1732.04,211.857 1733.96,209.4 
  1738.7,206.943 1740.3,204.486 1748.44,202.029 1754.26,199.571 1759.42,197.114 1760.85,194.657 1775.33,192.2 1784.38,189.743 1805.22,187.285 1810.34,184.828 
  1811.27,182.371 1813.67,179.914 1820.73,177.457 1831.75,174.999 1834.83,172.542 1843.8,170.085 1871.61,167.628 1931.41,165.171 1979.55,162.713 2033.8,160.256 
  
  "/>
<path clip-path="url(#clip700)" d="
M1599.13 1379.86 L2282.65 1379.86 L2282.65 1263.22 L1599.13 1263.22  Z
  " fill="#ffffff" fill-rule="evenodd" fill-opacity="1"/>
<polyline clip-path="url(#clip700)" style="stroke:#000000; stroke-linecap:butt; stroke-linejoin:round; stroke-width:4; stroke-opacity:1; fill:none" points="
  1599.13,1379.86 2282.65,1379.86 2282.65,1263.22 1599.13,1263.22 1599.13,1379.86 
  "/>
<polyline clip-path="url(#clip700)" style="stroke:#009af9; stroke-linecap:butt; stroke-linejoin:round; stroke-width:3; stroke-opacity:1; fill:none" points="
  1622.5,1302.1 1762.72,1302.1 
  "/>
<path clip-path="url(#clip700)" d="M1789.59 1292.02 L1789.59 1301.76 L1794 1301.76 Q1796.45 1301.76 1797.79 1300.49 Q1799.12 1299.22 1799.12 1296.88 Q1799.12 1294.55 1797.79 1293.29 Q1796.45 1292.02 1794 1292.02 L1789.59 1292.02 M1786.09 1289.14 L1794 1289.14 Q1798.36 1289.14 1800.58 1291.12 Q1802.82 1293.08 1802.82 1296.88 Q1802.82 1300.72 1800.58 1302.68 Q1798.36 1304.64 1794 1304.64 L1789.59 1304.64 L1789.59 1315.06 L1786.09 1315.06 L1786.09 1289.14 Z" fill="#000000" fill-rule="evenodd" fill-opacity="1" /><path clip-path="url(#clip700)" d="M1818.03 1298.6 Q1817.49 1298.29 1816.85 1298.15 Q1816.23 1297.99 1815.46 1297.99 Q1812.75 1297.99 1811.29 1299.76 Q1809.85 1301.51 1809.85 1304.81 L1809.85 1315.06 L1806.64 1315.06 L1806.64 1295.61 L1809.85 1295.61 L1809.85 1298.63 Q1810.86 1296.86 1812.48 1296.01 Q1814.09 1295.14 1816.4 1295.14 Q1816.73 1295.14 1817.13 1295.2 Q1817.53 1295.23 1818.01 1295.32 L1818.03 1298.6 Z" fill="#000000" fill-rule="evenodd" fill-opacity="1" /><path clip-path="url(#clip700)" d="M1828.14 1297.85 Q1825.57 1297.85 1824.07 1299.87 Q1822.58 1301.86 1822.58 1305.35 Q1822.58 1308.84 1824.06 1310.85 Q1825.55 1312.85 1828.14 1312.85 Q1830.69 1312.85 1832.18 1310.84 Q1833.67 1308.82 1833.67 1305.35 Q1833.67 1301.9 1832.18 1299.88 Q1830.69 1297.85 1828.14 1297.85 M1828.14 1295.14 Q1832.3 1295.14 1834.68 1297.85 Q1837.06 1300.56 1837.06 1305.35 Q1837.06 1310.13 1834.68 1312.85 Q1832.3 1315.56 1828.14 1315.56 Q1823.95 1315.56 1821.57 1312.85 Q1819.21 1310.13 1819.21 1305.35 Q1819.21 1300.56 1821.57 1297.85 Q1823.95 1295.14 1828.14 1295.14 Z" fill="#000000" fill-rule="evenodd" fill-opacity="1" /><path clip-path="url(#clip700)" d="M1855.15 1298.56 L1855.15 1288.04 L1858.34 1288.04 L1858.34 1315.06 L1855.15 1315.06 L1855.15 1312.14 Q1854.14 1313.88 1852.6 1314.73 Q1851.07 1315.56 1848.92 1315.56 Q1845.39 1315.56 1843.17 1312.75 Q1840.96 1309.93 1840.96 1305.35 Q1840.96 1300.77 1843.17 1297.96 Q1845.39 1295.14 1848.92 1295.14 Q1851.07 1295.14 1852.6 1295.99 Q1854.14 1296.83 1855.15 1298.56 M1844.26 1305.35 Q1844.26 1308.88 1845.7 1310.89 Q1847.16 1312.89 1849.7 1312.89 Q1852.23 1312.89 1853.69 1310.89 Q1855.15 1308.88 1855.15 1305.35 Q1855.15 1301.83 1853.69 1299.83 Q1852.23 1297.82 1849.7 1297.82 Q1847.16 1297.82 1845.7 1299.83 Q1844.26 1301.83 1844.26 1305.35 Z" fill="#000000" fill-rule="evenodd" fill-opacity="1" /><path clip-path="url(#clip700)" d="M1864.59 1307.38 L1864.59 1295.61 L1867.79 1295.61 L1867.79 1307.26 Q1867.79 1310.02 1868.86 1311.41 Q1869.94 1312.78 1872.09 1312.78 Q1874.68 1312.78 1876.17 1311.13 Q1877.68 1309.48 1877.68 1306.64 L1877.68 1295.61 L1880.88 1295.61 L1880.88 1315.06 L1877.68 1315.06 L1877.68 1312.07 Q1876.52 1313.84 1874.98 1314.71 Q1873.45 1315.56 1871.42 1315.56 Q1868.07 1315.56 1866.33 1313.48 Q1864.59 1311.39 1864.59 1307.38 M1872.63 1295.14 L1872.63 1295.14 Z" fill="#000000" fill-rule="evenodd" fill-opacity="1" /><path clip-path="url(#clip700)" d="M1901.45 1296.36 L1901.45 1299.34 Q1900.1 1298.6 1898.72 1298.23 Q1897.37 1297.85 1895.98 1297.85 Q1892.87 1297.85 1891.16 1299.83 Q1889.44 1301.79 1889.44 1305.35 Q1889.44 1308.91 1891.16 1310.89 Q1892.87 1312.85 1895.98 1312.85 Q1897.37 1312.85 1898.72 1312.49 Q1900.1 1312.1 1901.45 1311.36 L1901.45 1314.31 Q1900.11 1314.93 1898.67 1315.25 Q1897.25 1315.56 1895.63 1315.56 Q1891.24 1315.56 1888.66 1312.8 Q1886.07 1310.04 1886.07 1305.35 Q1886.07 1300.59 1888.67 1297.87 Q1891.29 1295.14 1895.84 1295.14 Q1897.32 1295.14 1898.72 1295.46 Q1900.13 1295.75 1901.45 1296.36 Z" fill="#000000" fill-rule="evenodd" fill-opacity="1" /><path clip-path="url(#clip700)" d="M1923.64 1304.54 L1923.64 1306.1 L1908.95 1306.1 Q1909.16 1309.4 1910.93 1311.13 Q1912.72 1312.85 1915.9 1312.85 Q1917.74 1312.85 1919.45 1312.4 Q1921.19 1311.95 1922.89 1311.05 L1922.89 1314.07 Q1921.17 1314.8 1919.37 1315.18 Q1917.56 1315.56 1915.7 1315.56 Q1911.05 1315.56 1908.33 1312.85 Q1905.62 1310.14 1905.62 1305.53 Q1905.62 1300.75 1908.19 1297.96 Q1910.77 1295.14 1915.15 1295.14 Q1919.07 1295.14 1921.35 1297.68 Q1923.64 1300.2 1923.64 1304.54 M1920.44 1303.6 Q1920.41 1300.98 1918.97 1299.41 Q1917.54 1297.85 1915.18 1297.85 Q1912.51 1297.85 1910.9 1299.36 Q1909.3 1300.87 1909.05 1303.62 L1920.44 1303.6 Z" fill="#000000" fill-rule="evenodd" fill-opacity="1" /><path clip-path="url(#clip700)" d="M1945.04 1303.32 L1945.04 1315.06 L1941.85 1315.06 L1941.85 1303.42 Q1941.85 1300.66 1940.77 1299.29 Q1939.7 1297.92 1937.54 1297.92 Q1934.96 1297.92 1933.46 1299.57 Q1931.97 1301.22 1931.97 1304.07 L1931.97 1315.06 L1928.76 1315.06 L1928.76 1295.61 L1931.97 1295.61 L1931.97 1298.63 Q1933.12 1296.88 1934.66 1296.01 Q1936.22 1295.14 1938.26 1295.14 Q1941.61 1295.14 1943.33 1297.23 Q1945.04 1299.29 1945.04 1303.32 Z" fill="#000000" fill-rule="evenodd" fill-opacity="1" /><path clip-path="url(#clip700)" d="M1954.58 1290.09 L1954.58 1295.61 L1961.16 1295.61 L1961.16 1298.09 L1954.58 1298.09 L1954.58 1308.65 Q1954.58 1311.03 1955.22 1311.71 Q1955.88 1312.38 1957.87 1312.38 L1961.16 1312.38 L1961.16 1315.06 L1957.87 1315.06 Q1954.18 1315.06 1952.77 1313.68 Q1951.36 1312.3 1951.36 1308.65 L1951.36 1298.09 L1949.02 1298.09 L1949.02 1295.61 L1951.36 1295.61 L1951.36 1290.09 L1954.58 1290.09 Z" fill="#000000" fill-rule="evenodd" fill-opacity="1" /><path clip-path="url(#clip700)" d="M1992.82 1303.32 L1992.82 1315.06 L1989.63 1315.06 L1989.63 1303.42 Q1989.63 1300.66 1988.55 1299.29 Q1987.47 1297.92 1985.32 1297.92 Q1982.73 1297.92 1981.24 1299.57 Q1979.75 1301.22 1979.75 1304.07 L1979.75 1315.06 L1976.54 1315.06 L1976.54 1295.61 L1979.75 1295.61 L1979.75 1298.63 Q1980.89 1296.88 1982.44 1296.01 Q1984 1295.14 1986.03 1295.14 Q1989.38 1295.14 1991.1 1297.23 Q1992.82 1299.29 1992.82 1303.32 Z" fill="#000000" fill-rule="evenodd" fill-opacity="1" /><path clip-path="url(#clip700)" d="M1999.19 1295.61 L2002.39 1295.61 L2002.39 1315.06 L1999.19 1315.06 L1999.19 1295.61 M1999.19 1288.04 L2002.39 1288.04 L2002.39 1292.09 L1999.19 1292.09 L1999.19 1288.04 Z" fill="#000000" fill-rule="evenodd" fill-opacity="1" /><path clip-path="url(#clip700)" d="M2025.7 1304.54 L2025.7 1306.1 L2011.02 1306.1 Q2011.22 1309.4 2013 1311.13 Q2014.78 1312.85 2017.96 1312.85 Q2019.8 1312.85 2021.52 1312.4 Q2023.26 1311.95 2024.96 1311.05 L2024.96 1314.07 Q2023.24 1314.8 2021.43 1315.18 Q2019.63 1315.56 2017.77 1315.56 Q2013.12 1315.56 2010.39 1312.85 Q2007.68 1310.14 2007.68 1305.53 Q2007.68 1300.75 2010.25 1297.96 Q2012.84 1295.14 2017.21 1295.14 Q2021.14 1295.14 2023.41 1297.68 Q2025.7 1300.2 2025.7 1304.54 M2022.51 1303.6 Q2022.47 1300.98 2021.03 1299.41 Q2019.61 1297.85 2017.25 1297.85 Q2014.58 1297.85 2012.96 1299.36 Q2011.36 1300.87 2011.12 1303.62 L2022.51 1303.6 Z" fill="#000000" fill-rule="evenodd" fill-opacity="1" /><path clip-path="url(#clip700)" d="M2056.21 1305.35 Q2056.21 1301.83 2054.75 1299.83 Q2053.31 1297.82 2050.77 1297.82 Q2048.24 1297.82 2046.78 1299.83 Q2045.34 1301.83 2045.34 1305.35 Q2045.34 1308.88 2046.78 1310.89 Q2048.24 1312.89 2050.77 1312.89 Q2053.31 1312.89 2054.75 1310.89 Q2056.21 1308.88 2056.21 1305.35 M2045.34 1298.56 Q2046.35 1296.83 2047.87 1295.99 Q2049.42 1295.14 2051.55 1295.14 Q2055.1 1295.14 2057.3 1297.96 Q2059.52 1300.77 2059.52 1305.35 Q2059.52 1309.93 2057.3 1312.75 Q2055.1 1315.56 2051.55 1315.56 Q2049.42 1315.56 2047.87 1314.73 Q2046.35 1313.88 2045.34 1312.14 L2045.34 1315.06 L2042.13 1315.06 L2042.13 1288.04 L2045.34 1288.04 L2045.34 1298.56 Z" fill="#000000" fill-rule="evenodd" fill-opacity="1" /><path clip-path="url(#clip700)" d="M2073.65 1305.28 Q2069.78 1305.28 2068.29 1306.17 Q2066.8 1307.05 2066.8 1309.19 Q2066.8 1310.89 2067.91 1311.9 Q2069.04 1312.89 2070.96 1312.89 Q2073.62 1312.89 2075.22 1311.01 Q2076.83 1309.12 2076.83 1305.99 L2076.83 1305.28 L2073.65 1305.28 M2080.03 1303.96 L2080.03 1315.06 L2076.83 1315.06 L2076.83 1312.1 Q2075.74 1313.88 2074.11 1314.73 Q2072.47 1315.56 2070.11 1315.56 Q2067.13 1315.56 2065.36 1313.89 Q2063.6 1312.21 2063.6 1309.4 Q2063.6 1306.12 2065.79 1304.45 Q2067.99 1302.78 2072.35 1302.78 L2076.83 1302.78 L2076.83 1302.47 Q2076.83 1300.26 2075.37 1299.07 Q2073.93 1297.85 2071.31 1297.85 Q2069.64 1297.85 2068.06 1298.25 Q2066.48 1298.65 2065.03 1299.45 L2065.03 1296.5 Q2066.78 1295.82 2068.43 1295.49 Q2070.08 1295.14 2071.64 1295.14 Q2075.86 1295.14 2077.94 1297.33 Q2080.03 1299.52 2080.03 1303.96 Z" fill="#000000" fill-rule="evenodd" fill-opacity="1" /><path clip-path="url(#clip700)" d="M2099.4 1298.56 L2099.4 1288.04 L2102.6 1288.04 L2102.6 1315.06 L2099.4 1315.06 L2099.4 1312.14 Q2098.39 1313.88 2096.85 1314.73 Q2095.32 1315.56 2093.17 1315.56 Q2089.64 1315.56 2087.42 1312.75 Q2085.22 1309.93 2085.22 1305.35 Q2085.22 1300.77 2087.42 1297.96 Q2089.64 1295.14 2093.17 1295.14 Q2095.32 1295.14 2096.85 1295.99 Q2098.39 1296.83 2099.4 1298.56 M2088.52 1305.35 Q2088.52 1308.88 2089.96 1310.89 Q2091.41 1312.89 2093.95 1312.89 Q2096.48 1312.89 2097.94 1310.89 Q2099.4 1308.88 2099.4 1305.35 Q2099.4 1301.83 2097.94 1299.83 Q2096.48 1297.82 2093.95 1297.82 Q2091.41 1297.82 2089.96 1299.83 Q2088.52 1301.83 2088.52 1305.35 Z" fill="#000000" fill-rule="evenodd" fill-opacity="1" /><path clip-path="url(#clip700)" d="M2118.01 1305.28 Q2114.14 1305.28 2112.65 1306.17 Q2111.15 1307.05 2111.15 1309.19 Q2111.15 1310.89 2112.27 1311.9 Q2113.39 1312.89 2115.32 1312.89 Q2117.98 1312.89 2119.57 1311.01 Q2121.19 1309.12 2121.19 1305.99 L2121.19 1305.28 L2118.01 1305.28 M2124.38 1303.96 L2124.38 1315.06 L2121.19 1315.06 L2121.19 1312.1 Q2120.1 1313.88 2118.46 1314.73 Q2116.83 1315.56 2114.47 1315.56 Q2111.48 1315.56 2109.71 1313.89 Q2107.96 1312.21 2107.96 1309.4 Q2107.96 1306.12 2110.15 1304.45 Q2112.35 1302.78 2116.71 1302.78 L2121.19 1302.78 L2121.19 1302.47 Q2121.19 1300.26 2119.73 1299.07 Q2118.29 1297.85 2115.67 1297.85 Q2114 1297.85 2112.42 1298.25 Q2110.84 1298.65 2109.38 1299.45 L2109.38 1296.5 Q2111.14 1295.82 2112.79 1295.49 Q2114.44 1295.14 2116 1295.14 Q2120.22 1295.14 2122.3 1297.33 Q2124.38 1299.52 2124.38 1303.96 Z" fill="#000000" fill-rule="evenodd" fill-opacity="1" /><path clip-path="url(#clip700)" d="M2153.53 1298.6 Q2152.99 1298.29 2152.35 1298.15 Q2151.73 1297.99 2150.96 1297.99 Q2148.25 1297.99 2146.8 1299.76 Q2145.36 1301.51 2145.36 1304.81 L2145.36 1315.06 L2142.14 1315.06 L2142.14 1295.61 L2145.36 1295.61 L2145.36 1298.63 Q2146.36 1296.86 2147.98 1296.01 Q2149.59 1295.14 2151.9 1295.14 Q2152.23 1295.14 2152.63 1295.2 Q2153.03 1295.23 2153.52 1295.32 L2153.53 1298.6 Z" fill="#000000" fill-rule="evenodd" fill-opacity="1" /><path clip-path="url(#clip700)" d="M2164.97 1316.86 Q2163.62 1320.33 2162.33 1321.39 Q2161.05 1322.45 2158.9 1322.45 L2156.35 1322.45 L2156.35 1319.78 L2158.22 1319.78 Q2159.54 1319.78 2160.27 1319.15 Q2161 1318.53 2161.88 1316.2 L2162.46 1314.74 L2154.59 1295.61 L2157.98 1295.61 L2164.05 1310.82 L2170.13 1295.61 L2173.52 1295.61 L2164.97 1316.86 Z" fill="#000000" fill-rule="evenodd" fill-opacity="1" /><path clip-path="url(#clip700)" d="M2194.09 1303.32 L2194.09 1315.06 L2190.89 1315.06 L2190.89 1303.42 Q2190.89 1300.66 2189.82 1299.29 Q2188.74 1297.92 2186.59 1297.92 Q2184 1297.92 2182.51 1299.57 Q2181.02 1301.22 2181.02 1304.07 L2181.02 1315.06 L2177.8 1315.06 L2177.8 1295.61 L2181.02 1295.61 L2181.02 1298.63 Q2182.16 1296.88 2183.71 1296.01 Q2185.27 1295.14 2187.3 1295.14 Q2190.65 1295.14 2192.37 1297.23 Q2194.09 1299.29 2194.09 1303.32 Z" fill="#000000" fill-rule="evenodd" fill-opacity="1" /><path clip-path="url(#clip700)" d="M2200.34 1288.04 L2203.55 1288.04 L2203.55 1304 L2213.08 1295.61 L2217.16 1295.61 L2206.85 1304.71 L2217.59 1315.06 L2213.43 1315.06 L2203.55 1305.56 L2203.55 1315.06 L2200.34 1315.06 L2200.34 1288.04 Z" fill="#000000" fill-rule="evenodd" fill-opacity="1" /><path clip-path="url(#clip700)" d="M2219.63 1307.38 L2219.63 1295.61 L2222.82 1295.61 L2222.82 1307.26 Q2222.82 1310.02 2223.9 1311.41 Q2224.97 1312.78 2227.13 1312.78 Q2229.71 1312.78 2231.21 1311.13 Q2232.72 1309.48 2232.72 1306.64 L2232.72 1295.61 L2235.91 1295.61 L2235.91 1315.06 L2232.72 1315.06 L2232.72 1312.07 Q2231.55 1313.84 2230.01 1314.71 Q2228.48 1315.56 2226.45 1315.56 Q2223.1 1315.56 2221.36 1313.48 Q2219.63 1311.39 2219.63 1307.38 M2227.66 1295.14 L2227.66 1295.14 Z" fill="#000000" fill-rule="evenodd" fill-opacity="1" /><polyline clip-path="url(#clip700)" style="stroke:#e26f46; stroke-linecap:butt; stroke-linejoin:round; stroke-width:3; stroke-opacity:1; fill:none" points="
  1622.5,1340.98 1762.72,1340.98 
  "/>
<path clip-path="url(#clip700)" d="M1789.59 1330.9 L1789.59 1340.64 L1794 1340.64 Q1796.45 1340.64 1797.79 1339.37 Q1799.12 1338.1 1799.12 1335.76 Q1799.12 1333.43 1797.79 1332.17 Q1796.45 1330.9 1794 1330.9 L1789.59 1330.9 M1786.09 1328.02 L1794 1328.02 Q1798.36 1328.02 1800.58 1330 Q1802.82 1331.96 1802.82 1335.76 Q1802.82 1339.6 1800.58 1341.56 Q1798.36 1343.52 1794 1343.52 L1789.59 1343.52 L1789.59 1353.94 L1786.09 1353.94 L1786.09 1328.02 Z" fill="#000000" fill-rule="evenodd" fill-opacity="1" /><path clip-path="url(#clip700)" d="M1818.03 1337.48 Q1817.49 1337.17 1816.85 1337.03 Q1816.23 1336.87 1815.46 1336.87 Q1812.75 1336.87 1811.29 1338.64 Q1809.85 1340.39 1809.85 1343.69 L1809.85 1353.94 L1806.64 1353.94 L1806.64 1334.49 L1809.85 1334.49 L1809.85 1337.51 Q1810.86 1335.74 1812.48 1334.89 Q1814.09 1334.02 1816.4 1334.02 Q1816.73 1334.02 1817.13 1334.08 Q1817.53 1334.11 1818.01 1334.2 L1818.03 1337.48 Z" fill="#000000" fill-rule="evenodd" fill-opacity="1" /><path clip-path="url(#clip700)" d="M1828.14 1336.73 Q1825.57 1336.73 1824.07 1338.75 Q1822.58 1340.74 1822.58 1344.23 Q1822.58 1347.72 1824.06 1349.73 Q1825.55 1351.73 1828.14 1351.73 Q1830.69 1351.73 1832.18 1349.72 Q1833.67 1347.7 1833.67 1344.23 Q1833.67 1340.78 1832.18 1338.76 Q1830.69 1336.73 1828.14 1336.73 M1828.14 1334.02 Q1832.3 1334.02 1834.68 1336.73 Q1837.06 1339.44 1837.06 1344.23 Q1837.06 1349.01 1834.68 1351.73 Q1832.3 1354.44 1828.14 1354.44 Q1823.95 1354.44 1821.57 1351.73 Q1819.21 1349.01 1819.21 1344.23 Q1819.21 1339.44 1821.57 1336.73 Q1823.95 1334.02 1828.14 1334.02 Z" fill="#000000" fill-rule="evenodd" fill-opacity="1" /><path clip-path="url(#clip700)" d="M1855.15 1337.44 L1855.15 1326.92 L1858.34 1326.92 L1858.34 1353.94 L1855.15 1353.94 L1855.15 1351.02 Q1854.14 1352.76 1852.6 1353.61 Q1851.07 1354.44 1848.92 1354.44 Q1845.39 1354.44 1843.17 1351.63 Q1840.96 1348.81 1840.96 1344.23 Q1840.96 1339.65 1843.17 1336.84 Q1845.39 1334.02 1848.92 1334.02 Q1851.07 1334.02 1852.6 1334.87 Q1854.14 1335.71 1855.15 1337.44 M1844.26 1344.23 Q1844.26 1347.76 1845.7 1349.77 Q1847.16 1351.77 1849.7 1351.77 Q1852.23 1351.77 1853.69 1349.77 Q1855.15 1347.76 1855.15 1344.23 Q1855.15 1340.71 1853.69 1338.71 Q1852.23 1336.7 1849.7 1336.7 Q1847.16 1336.7 1845.7 1338.71 Q1844.26 1340.71 1844.26 1344.23 Z" fill="#000000" fill-rule="evenodd" fill-opacity="1" /><path clip-path="url(#clip700)" d="M1864.59 1346.26 L1864.59 1334.49 L1867.79 1334.49 L1867.79 1346.14 Q1867.79 1348.9 1868.86 1350.29 Q1869.94 1351.66 1872.09 1351.66 Q1874.68 1351.66 1876.17 1350.01 Q1877.68 1348.36 1877.68 1345.52 L1877.68 1334.49 L1880.88 1334.49 L1880.88 1353.94 L1877.68 1353.94 L1877.68 1350.95 Q1876.52 1352.72 1874.98 1353.59 Q1873.45 1354.44 1871.42 1354.44 Q1868.07 1354.44 1866.33 1352.36 Q1864.59 1350.27 1864.59 1346.26 M1872.63 1334.02 L1872.63 1334.02 Z" fill="#000000" fill-rule="evenodd" fill-opacity="1" /><path clip-path="url(#clip700)" d="M1901.45 1335.24 L1901.45 1338.22 Q1900.1 1337.48 1898.72 1337.11 Q1897.37 1336.73 1895.98 1336.73 Q1892.87 1336.73 1891.16 1338.71 Q1889.44 1340.67 1889.44 1344.23 Q1889.44 1347.79 1891.16 1349.77 Q1892.87 1351.73 1895.98 1351.73 Q1897.37 1351.73 1898.72 1351.37 Q1900.1 1350.98 1901.45 1350.24 L1901.45 1353.19 Q1900.11 1353.81 1898.67 1354.13 Q1897.25 1354.44 1895.63 1354.44 Q1891.24 1354.44 1888.66 1351.68 Q1886.07 1348.92 1886.07 1344.23 Q1886.07 1339.47 1888.67 1336.75 Q1891.29 1334.02 1895.84 1334.02 Q1897.32 1334.02 1898.72 1334.34 Q1900.13 1334.63 1901.45 1335.24 Z" fill="#000000" fill-rule="evenodd" fill-opacity="1" /><path clip-path="url(#clip700)" d="M1923.64 1343.42 L1923.64 1344.98 L1908.95 1344.98 Q1909.16 1348.28 1910.93 1350.01 Q1912.72 1351.73 1915.9 1351.73 Q1917.74 1351.73 1919.45 1351.28 Q1921.19 1350.83 1922.89 1349.93 L1922.89 1352.95 Q1921.17 1353.68 1919.37 1354.06 Q1917.56 1354.44 1915.7 1354.44 Q1911.05 1354.44 1908.33 1351.73 Q1905.62 1349.02 1905.62 1344.41 Q1905.62 1339.63 1908.19 1336.84 Q1910.77 1334.02 1915.15 1334.02 Q1919.07 1334.02 1921.35 1336.56 Q1923.64 1339.08 1923.64 1343.42 M1920.44 1342.48 Q1920.41 1339.86 1918.97 1338.29 Q1917.54 1336.73 1915.18 1336.73 Q1912.51 1336.73 1910.9 1338.24 Q1909.3 1339.75 1909.05 1342.5 L1920.44 1342.48 Z" fill="#000000" fill-rule="evenodd" fill-opacity="1" /><path clip-path="url(#clip700)" d="M1945.04 1342.2 L1945.04 1353.94 L1941.85 1353.94 L1941.85 1342.3 Q1941.85 1339.54 1940.77 1338.17 Q1939.7 1336.8 1937.54 1336.8 Q1934.96 1336.8 1933.46 1338.45 Q1931.97 1340.1 1931.97 1342.95 L1931.97 1353.94 L1928.76 1353.94 L1928.76 1334.49 L1931.97 1334.49 L1931.97 1337.51 Q1933.12 1335.76 1934.66 1334.89 Q1936.22 1334.02 1938.26 1334.02 Q1941.61 1334.02 1943.33 1336.11 Q1945.04 1338.17 1945.04 1342.2 Z" fill="#000000" fill-rule="evenodd" fill-opacity="1" /><path clip-path="url(#clip700)" d="M1954.58 1328.97 L1954.58 1334.49 L1961.16 1334.49 L1961.16 1336.97 L1954.58 1336.97 L1954.58 1347.53 Q1954.58 1349.91 1955.22 1350.59 Q1955.88 1351.26 1957.87 1351.26 L1961.16 1351.26 L1961.16 1353.94 L1957.87 1353.94 Q1954.18 1353.94 1952.77 1352.56 Q1951.36 1351.18 1951.36 1347.53 L1951.36 1336.97 L1949.02 1336.97 L1949.02 1334.49 L1951.36 1334.49 L1951.36 1328.97 L1954.58 1328.97 Z" fill="#000000" fill-rule="evenodd" fill-opacity="1" /><path clip-path="url(#clip700)" d="M1990.62 1344.23 Q1990.62 1340.71 1989.16 1338.71 Q1987.72 1336.7 1985.18 1336.7 Q1982.65 1336.7 1981.19 1338.71 Q1979.75 1340.71 1979.75 1344.23 Q1979.75 1347.76 1981.19 1349.77 Q1982.65 1351.77 1985.18 1351.77 Q1987.72 1351.77 1989.16 1349.77 Q1990.62 1347.76 1990.62 1344.23 M1979.75 1337.44 Q1980.76 1335.71 1982.28 1334.87 Q1983.83 1334.02 1985.96 1334.02 Q1989.51 1334.02 1991.71 1336.84 Q1993.93 1339.65 1993.93 1344.23 Q1993.93 1348.81 1991.71 1351.63 Q1989.51 1354.44 1985.96 1354.44 Q1983.83 1354.44 1982.28 1353.61 Q1980.76 1352.76 1979.75 1351.02 L1979.75 1353.94 L1976.54 1353.94 L1976.54 1326.92 L1979.75 1326.92 L1979.75 1337.44 Z" fill="#000000" fill-rule="evenodd" fill-opacity="1" /><path clip-path="url(#clip700)" d="M2008.06 1344.16 Q2004.19 1344.16 2002.7 1345.05 Q2001.21 1345.93 2001.21 1348.07 Q2001.21 1349.77 2002.32 1350.78 Q2003.45 1351.77 2005.37 1351.77 Q2008.03 1351.77 2009.63 1349.89 Q2011.24 1348 2011.24 1344.87 L2011.24 1344.16 L2008.06 1344.16 M2014.44 1342.84 L2014.44 1353.94 L2011.24 1353.94 L2011.24 1350.98 Q2010.15 1352.76 2008.52 1353.61 Q2006.88 1354.44 2004.52 1354.44 Q2001.54 1354.44 1999.77 1352.77 Q1998.01 1351.09 1998.01 1348.28 Q1998.01 1345 2000.2 1343.33 Q2002.4 1341.66 2006.76 1341.66 L2011.24 1341.66 L2011.24 1341.35 Q2011.24 1339.14 2009.78 1337.95 Q2008.34 1336.73 2005.72 1336.73 Q2004.05 1336.73 2002.47 1337.13 Q2000.89 1337.53 1999.44 1338.33 L1999.44 1335.38 Q2001.19 1334.7 2002.84 1334.37 Q2004.49 1334.02 2006.05 1334.02 Q2010.27 1334.02 2012.35 1336.21 Q2014.44 1338.4 2014.44 1342.84 Z" fill="#000000" fill-rule="evenodd" fill-opacity="1" /><path clip-path="url(#clip700)" d="M2033.81 1337.44 L2033.81 1326.92 L2037.01 1326.92 L2037.01 1353.94 L2033.81 1353.94 L2033.81 1351.02 Q2032.8 1352.76 2031.26 1353.61 Q2029.73 1354.44 2027.58 1354.44 Q2024.05 1354.44 2021.83 1351.63 Q2019.63 1348.81 2019.63 1344.23 Q2019.63 1339.65 2021.83 1336.84 Q2024.05 1334.02 2027.58 1334.02 Q2029.73 1334.02 2031.26 1334.87 Q2032.8 1335.71 2033.81 1337.44 M2022.93 1344.23 Q2022.93 1347.76 2024.37 1349.77 Q2025.83 1351.77 2028.36 1351.77 Q2030.89 1351.77 2032.35 1349.77 Q2033.81 1347.76 2033.81 1344.23 Q2033.81 1340.71 2032.35 1338.71 Q2030.89 1336.7 2028.36 1336.7 Q2025.83 1336.7 2024.37 1338.71 Q2022.93 1340.71 2022.93 1344.23 Z" fill="#000000" fill-rule="evenodd" fill-opacity="1" /><path clip-path="url(#clip700)" d="M2052.42 1344.16 Q2048.55 1344.16 2047.06 1345.05 Q2045.56 1345.93 2045.56 1348.07 Q2045.56 1349.77 2046.68 1350.78 Q2047.8 1351.77 2049.73 1351.77 Q2052.39 1351.77 2053.98 1349.89 Q2055.6 1348 2055.6 1344.87 L2055.6 1344.16 L2052.42 1344.16 M2058.79 1342.84 L2058.79 1353.94 L2055.6 1353.94 L2055.6 1350.98 Q2054.51 1352.76 2052.87 1353.61 Q2051.24 1354.44 2048.88 1354.44 Q2045.89 1354.44 2044.12 1352.77 Q2042.37 1351.09 2042.37 1348.28 Q2042.37 1345 2044.56 1343.33 Q2046.76 1341.66 2051.12 1341.66 L2055.6 1341.66 L2055.6 1341.35 Q2055.6 1339.14 2054.14 1337.95 Q2052.7 1336.73 2050.08 1336.73 Q2048.41 1336.73 2046.83 1337.13 Q2045.25 1337.53 2043.79 1338.33 L2043.79 1335.38 Q2045.55 1334.7 2047.2 1334.37 Q2048.85 1334.02 2050.41 1334.02 Q2054.63 1334.02 2056.71 1336.21 Q2058.79 1338.4 2058.79 1342.84 Z" fill="#000000" fill-rule="evenodd" fill-opacity="1" /><path clip-path="url(#clip700)" d="M2087.94 1337.48 Q2087.4 1337.17 2086.76 1337.03 Q2086.14 1336.87 2085.37 1336.87 Q2082.66 1336.87 2081.21 1338.64 Q2079.77 1340.39 2079.77 1343.69 L2079.77 1353.94 L2076.55 1353.94 L2076.55 1334.49 L2079.77 1334.49 L2079.77 1337.51 Q2080.77 1335.74 2082.39 1334.89 Q2084 1334.02 2086.31 1334.02 Q2086.64 1334.02 2087.04 1334.08 Q2087.44 1334.11 2087.93 1334.2 L2087.94 1337.48 Z" fill="#000000" fill-rule="evenodd" fill-opacity="1" /><path clip-path="url(#clip700)" d="M2099.38 1355.74 Q2098.03 1359.21 2096.74 1360.27 Q2095.46 1361.33 2093.31 1361.33 L2090.76 1361.33 L2090.76 1358.66 L2092.63 1358.66 Q2093.95 1358.66 2094.68 1358.03 Q2095.41 1357.41 2096.29 1355.08 L2096.87 1353.62 L2089 1334.49 L2092.39 1334.49 L2098.46 1349.7 L2104.54 1334.49 L2107.93 1334.49 L2099.38 1355.74 Z" fill="#000000" fill-rule="evenodd" fill-opacity="1" /><path clip-path="url(#clip700)" d="M2128.5 1342.2 L2128.5 1353.94 L2125.3 1353.94 L2125.3 1342.3 Q2125.3 1339.54 2124.23 1338.17 Q2123.15 1336.8 2121 1336.8 Q2118.41 1336.8 2116.92 1338.45 Q2115.43 1340.1 2115.43 1342.95 L2115.43 1353.94 L2112.21 1353.94 L2112.21 1334.49 L2115.43 1334.49 L2115.43 1337.51 Q2116.57 1335.76 2118.12 1334.89 Q2119.68 1334.02 2121.71 1334.02 Q2125.06 1334.02 2126.78 1336.11 Q2128.5 1338.17 2128.5 1342.2 Z" fill="#000000" fill-rule="evenodd" fill-opacity="1" /><path clip-path="url(#clip700)" d="M2151.5 1343.42 L2151.5 1344.98 L2136.81 1344.98 Q2137.02 1348.28 2138.79 1350.01 Q2140.58 1351.73 2143.76 1351.73 Q2145.6 1351.73 2147.32 1351.28 Q2149.05 1350.83 2150.75 1349.93 L2150.75 1352.95 Q2149.04 1353.68 2147.23 1354.06 Q2145.43 1354.44 2143.57 1354.44 Q2138.91 1354.44 2136.19 1351.73 Q2133.48 1349.02 2133.48 1344.41 Q2133.48 1339.63 2136.05 1336.84 Q2138.64 1334.02 2143.01 1334.02 Q2146.94 1334.02 2149.21 1336.56 Q2151.5 1339.08 2151.5 1343.42 M2148.31 1342.48 Q2148.27 1339.86 2146.83 1338.29 Q2145.41 1336.73 2143.05 1336.73 Q2140.37 1336.73 2138.76 1338.24 Q2137.16 1339.75 2136.92 1342.5 L2148.31 1342.48 Z" fill="#000000" fill-rule="evenodd" fill-opacity="1" /><path clip-path="url(#clip700)" d="M2156.62 1326.92 L2159.83 1326.92 L2159.83 1342.88 L2169.37 1334.49 L2173.45 1334.49 L2163.13 1343.59 L2173.88 1353.94 L2169.71 1353.94 L2159.83 1344.44 L2159.83 1353.94 L2156.62 1353.94 L2156.62 1326.92 Z" fill="#000000" fill-rule="evenodd" fill-opacity="1" /></svg>
