<?xml version="1.0" encoding="utf-8"?>
<svg xmlns="http://www.w3.org/2000/svg" xmlns:xlink="http://www.w3.org/1999/xlink" width="600" height="400" viewBox="0 0 2400 1600">
<defs>
  <clipPath id="clip780">
    <rect x="0" y="0" width="2400" height="1600"/>
  </clipPath>
</defs>
<path clip-path="url(#clip780)" d="
M0 1600 L2400 1600 L2400 0 L0 0  Z
  " fill="#ffffff" fill-rule="evenodd" fill-opacity="1"/>
<defs>
  <clipPath id="clip781">
    <rect x="480" y="0" width="1681" height="1600"/>
  </clipPath>
</defs>
<path clip-path="url(#clip780)" d="
M249.542 1423.18 L2352.76 1423.18 L2352.76 123.472 L249.542 123.472  Z
  " fill="#ffffff" fill-rule="evenodd" fill-opacity="1"/>
<defs>
  <clipPath id="clip782">
    <rect x="249" y="123" width="2104" height="1301"/>
  </clipPath>
</defs>
<polyline clip-path="url(#clip782)" style="stroke:#000000; stroke-linecap:butt; stroke-linejoin:round; stroke-width:2; stroke-opacity:0.1; fill:none" points="
  654.957,1423.18 654.957,123.472 
  "/>
<polyline clip-path="url(#clip782)" style="stroke:#000000; stroke-linecap:butt; stroke-linejoin:round; stroke-width:2; stroke-opacity:0.1; fill:none" points="
  1123.2,1423.18 1123.2,123.472 
  "/>
<polyline clip-path="url(#clip782)" style="stroke:#000000; stroke-linecap:butt; stroke-linejoin:round; stroke-width:2; stroke-opacity:0.1; fill:none" points="
  1591.45,1423.18 1591.45,123.472 
  "/>
<polyline clip-path="url(#clip782)" style="stroke:#000000; stroke-linecap:butt; stroke-linejoin:round; stroke-width:2; stroke-opacity:0.1; fill:none" points="
  2059.7,1423.18 2059.7,123.472 
  "/>
<polyline clip-path="url(#clip780)" style="stroke:#000000; stroke-linecap:butt; stroke-linejoin:round; stroke-width:4; stroke-opacity:1; fill:none" points="
  249.542,1423.18 2352.76,1423.18 
  "/>
<polyline clip-path="url(#clip780)" style="stroke:#000000; stroke-linecap:butt; stroke-linejoin:round; stroke-width:4; stroke-opacity:1; fill:none" points="
  654.957,1423.18 654.957,1404.28 
  "/>
<polyline clip-path="url(#clip780)" style="stroke:#000000; stroke-linecap:butt; stroke-linejoin:round; stroke-width:4; stroke-opacity:1; fill:none" points="
  1123.2,1423.18 1123.2,1404.28 
  "/>
<polyline clip-path="url(#clip780)" style="stroke:#000000; stroke-linecap:butt; stroke-linejoin:round; stroke-width:4; stroke-opacity:1; fill:none" points="
  1591.45,1423.18 1591.45,1404.28 
  "/>
<polyline clip-path="url(#clip780)" style="stroke:#000000; stroke-linecap:butt; stroke-linejoin:round; stroke-width:4; stroke-opacity:1; fill:none" points="
  2059.7,1423.18 2059.7,1404.28 
  "/>
<path clip-path="url(#clip780)" d="M632.341 1454.1 Q628.73 1454.1 626.901 1457.66 Q625.096 1461.2 625.096 1468.33 Q625.096 1475.44 626.901 1479.01 Q628.73 1482.55 632.341 1482.55 Q635.975 1482.55 637.781 1479.01 Q639.609 1475.44 639.609 1468.33 Q639.609 1461.2 637.781 1457.66 Q635.975 1454.1 632.341 1454.1 M632.341 1450.39 Q638.151 1450.39 641.207 1455 Q644.285 1459.58 644.285 1468.33 Q644.285 1477.06 641.207 1481.67 Q638.151 1486.25 632.341 1486.25 Q626.531 1486.25 623.452 1481.67 Q620.397 1477.06 620.397 1468.33 Q620.397 1459.58 623.452 1455 Q626.531 1450.39 632.341 1450.39 Z" fill="#000000" fill-rule="evenodd" fill-opacity="1" /><path clip-path="url(#clip780)" d="M652.503 1479.7 L657.387 1479.7 L657.387 1485.58 L652.503 1485.58 L652.503 1479.7 Z" fill="#000000" fill-rule="evenodd" fill-opacity="1" /><path clip-path="url(#clip780)" d="M677.572 1454.1 Q673.961 1454.1 672.132 1457.66 Q670.327 1461.2 670.327 1468.33 Q670.327 1475.44 672.132 1479.01 Q673.961 1482.55 677.572 1482.55 Q681.206 1482.55 683.012 1479.01 Q684.841 1475.44 684.841 1468.33 Q684.841 1461.2 683.012 1457.66 Q681.206 1454.1 677.572 1454.1 M677.572 1450.39 Q683.382 1450.39 686.438 1455 Q689.517 1459.58 689.517 1468.33 Q689.517 1477.06 686.438 1481.67 Q683.382 1486.25 677.572 1486.25 Q671.762 1486.25 668.683 1481.67 Q665.628 1477.06 665.628 1468.33 Q665.628 1459.58 668.683 1455 Q671.762 1450.39 677.572 1450.39 Z" fill="#000000" fill-rule="evenodd" fill-opacity="1" /><path clip-path="url(#clip780)" d="M1094.94 1481.64 L1111.26 1481.64 L1111.26 1485.58 L1089.31 1485.58 L1089.31 1481.64 Q1091.98 1478.89 1096.56 1474.26 Q1101.17 1469.61 1102.35 1468.27 Q1104.59 1465.74 1105.47 1464.01 Q1106.37 1462.25 1106.37 1460.56 Q1106.37 1457.8 1104.43 1456.07 Q1102.51 1454.33 1099.41 1454.33 Q1097.21 1454.33 1094.75 1455.09 Q1092.32 1455.86 1089.55 1457.41 L1089.55 1452.69 Q1092.37 1451.55 1094.82 1450.97 Q1097.28 1450.39 1099.31 1450.39 Q1104.68 1450.39 1107.88 1453.08 Q1111.07 1455.77 1111.07 1460.26 Q1111.07 1462.39 1110.26 1464.31 Q1109.48 1466.2 1107.37 1468.8 Q1106.79 1469.47 1103.69 1472.69 Q1100.59 1475.88 1094.94 1481.64 Z" fill="#000000" fill-rule="evenodd" fill-opacity="1" /><path clip-path="url(#clip780)" d="M1121.07 1479.7 L1125.96 1479.7 L1125.96 1485.58 L1121.07 1485.58 L1121.07 1479.7 Z" fill="#000000" fill-rule="evenodd" fill-opacity="1" /><path clip-path="url(#clip780)" d="M1136.19 1451.02 L1154.55 1451.02 L1154.55 1454.96 L1140.47 1454.96 L1140.47 1463.43 Q1141.49 1463.08 1142.51 1462.92 Q1143.53 1462.73 1144.55 1462.73 Q1150.33 1462.73 1153.71 1465.9 Q1157.09 1469.08 1157.09 1474.49 Q1157.09 1480.07 1153.62 1483.17 Q1150.15 1486.25 1143.83 1486.25 Q1141.65 1486.25 1139.38 1485.88 Q1137.14 1485.51 1134.73 1484.77 L1134.73 1480.07 Q1136.81 1481.2 1139.04 1481.76 Q1141.26 1482.32 1143.74 1482.32 Q1147.74 1482.32 1150.08 1480.21 Q1152.42 1478.1 1152.42 1474.49 Q1152.42 1470.88 1150.08 1468.77 Q1147.74 1466.67 1143.74 1466.67 Q1141.86 1466.67 1139.99 1467.08 Q1138.13 1467.5 1136.19 1468.38 L1136.19 1451.02 Z" fill="#000000" fill-rule="evenodd" fill-opacity="1" /><path clip-path="url(#clip780)" d="M1558.61 1451.02 L1576.97 1451.02 L1576.97 1454.96 L1562.9 1454.96 L1562.9 1463.43 Q1563.91 1463.08 1564.93 1462.92 Q1565.95 1462.73 1566.97 1462.73 Q1572.76 1462.73 1576.14 1465.9 Q1579.52 1469.08 1579.52 1474.49 Q1579.52 1480.07 1576.04 1483.17 Q1572.57 1486.25 1566.25 1486.25 Q1564.08 1486.25 1561.81 1485.88 Q1559.56 1485.51 1557.16 1484.77 L1557.16 1480.07 Q1559.24 1481.2 1561.46 1481.76 Q1563.68 1482.32 1566.16 1482.32 Q1570.16 1482.32 1572.5 1480.21 Q1574.84 1478.1 1574.84 1474.49 Q1574.84 1470.88 1572.5 1468.77 Q1570.16 1466.67 1566.16 1466.67 Q1564.29 1466.67 1562.41 1467.08 Q1560.56 1467.5 1558.61 1468.38 L1558.61 1451.02 Z" fill="#000000" fill-rule="evenodd" fill-opacity="1" /><path clip-path="url(#clip780)" d="M1588.73 1479.7 L1593.61 1479.7 L1593.61 1485.58 L1588.73 1485.58 L1588.73 1479.7 Z" fill="#000000" fill-rule="evenodd" fill-opacity="1" /><path clip-path="url(#clip780)" d="M1613.8 1454.1 Q1610.19 1454.1 1608.36 1457.66 Q1606.55 1461.2 1606.55 1468.33 Q1606.55 1475.44 1608.36 1479.01 Q1610.19 1482.55 1613.8 1482.55 Q1617.43 1482.55 1619.24 1479.01 Q1621.07 1475.44 1621.07 1468.33 Q1621.07 1461.2 1619.24 1457.66 Q1617.43 1454.1 1613.8 1454.1 M1613.8 1450.39 Q1619.61 1450.39 1622.66 1455 Q1625.74 1459.58 1625.74 1468.33 Q1625.74 1477.06 1622.66 1481.67 Q1619.61 1486.25 1613.8 1486.25 Q1607.99 1486.25 1604.91 1481.67 Q1601.85 1477.06 1601.85 1468.33 Q1601.85 1459.58 1604.91 1455 Q1607.99 1450.39 1613.8 1450.39 Z" fill="#000000" fill-rule="evenodd" fill-opacity="1" /><path clip-path="url(#clip780)" d="M2026.02 1451.02 L2048.24 1451.02 L2048.24 1453.01 L2035.69 1485.58 L2030.81 1485.58 L2042.61 1454.96 L2026.02 1454.96 L2026.02 1451.02 Z" fill="#000000" fill-rule="evenodd" fill-opacity="1" /><path clip-path="url(#clip780)" d="M2057.36 1479.7 L2062.24 1479.7 L2062.24 1485.58 L2057.36 1485.58 L2057.36 1479.7 Z" fill="#000000" fill-rule="evenodd" fill-opacity="1" /><path clip-path="url(#clip780)" d="M2072.47 1451.02 L2090.83 1451.02 L2090.83 1454.96 L2076.76 1454.96 L2076.76 1463.43 Q2077.77 1463.08 2078.79 1462.92 Q2079.81 1462.73 2080.83 1462.73 Q2086.62 1462.73 2090 1465.9 Q2093.38 1469.08 2093.38 1474.49 Q2093.38 1480.07 2089.9 1483.17 Q2086.43 1486.25 2080.11 1486.25 Q2077.94 1486.25 2075.67 1485.88 Q2073.42 1485.51 2071.02 1484.77 L2071.02 1480.07 Q2073.1 1481.2 2075.32 1481.76 Q2077.54 1482.32 2080.02 1482.32 Q2084.02 1482.32 2086.36 1480.21 Q2088.7 1478.1 2088.7 1474.49 Q2088.7 1470.88 2086.36 1468.77 Q2084.02 1466.67 2080.02 1466.67 Q2078.14 1466.67 2076.27 1467.08 Q2074.42 1467.5 2072.47 1468.38 L2072.47 1451.02 Z" fill="#000000" fill-rule="evenodd" fill-opacity="1" /><path clip-path="url(#clip780)" d="M944.542 1520.52 L953.199 1520.52 L974.27 1560.28 L974.27 1520.52 L980.508 1520.52 L980.508 1568.04 L971.851 1568.04 L950.78 1528.29 L950.78 1568.04 L944.542 1568.04 L944.542 1520.52 Z" fill="#000000" fill-rule="evenodd" fill-opacity="1" /><path clip-path="url(#clip780)" d="M1009.25 1550.12 Q1002.15 1550.12 999.414 1551.75 Q996.677 1553.37 996.677 1557.29 Q996.677 1560.4 998.714 1562.25 Q1000.78 1564.07 1004.32 1564.07 Q1009.19 1564.07 1012.11 1560.63 Q1015.07 1557.16 1015.07 1551.43 L1015.07 1550.12 L1009.25 1550.12 M1020.93 1547.71 L1020.93 1568.04 L1015.07 1568.04 L1015.07 1562.63 Q1013.07 1565.88 1010.08 1567.44 Q1007.09 1568.97 1002.76 1568.97 Q997.282 1568.97 994.035 1565.91 Q990.821 1562.82 990.821 1557.67 Q990.821 1551.65 994.831 1548.6 Q998.873 1545.54 1006.86 1545.54 L1015.07 1545.54 L1015.07 1544.97 Q1015.07 1540.93 1012.4 1538.73 Q1009.76 1536.5 1004.95 1536.5 Q1001.9 1536.5 999.001 1537.23 Q996.104 1537.97 993.431 1539.43 L993.431 1534.02 Q996.645 1532.78 999.669 1532.17 Q1002.69 1531.54 1005.56 1531.54 Q1013.29 1531.54 1017.11 1535.55 Q1020.93 1539.56 1020.93 1547.71 Z" fill="#000000" fill-rule="evenodd" fill-opacity="1" /><path clip-path="url(#clip780)" d="M1056.45 1537.81 L1056.45 1518.52 L1062.31 1518.52 L1062.31 1568.04 L1056.45 1568.04 L1056.45 1562.7 Q1054.61 1565.88 1051.77 1567.44 Q1048.97 1568.97 1045.02 1568.97 Q1038.56 1568.97 1034.49 1563.81 Q1030.45 1558.65 1030.45 1550.25 Q1030.45 1541.85 1034.49 1536.69 Q1038.56 1531.54 1045.02 1531.54 Q1048.97 1531.54 1051.77 1533.1 Q1054.61 1534.62 1056.45 1537.81 M1036.49 1550.25 Q1036.49 1556.71 1039.14 1560.4 Q1041.81 1564.07 1046.46 1564.07 Q1051.1 1564.07 1053.78 1560.4 Q1056.45 1556.71 1056.45 1550.25 Q1056.45 1543.79 1053.78 1540.13 Q1051.1 1536.44 1046.46 1536.44 Q1041.81 1536.44 1039.14 1540.13 Q1036.49 1543.79 1036.49 1550.25 Z" fill="#000000" fill-rule="evenodd" fill-opacity="1" /><path clip-path="url(#clip780)" d="M1070.97 1532.4 L1076.82 1532.4 L1084.14 1560.21 L1091.43 1532.4 L1098.34 1532.4 L1105.66 1560.21 L1112.95 1532.4 L1118.8 1532.4 L1109.48 1568.04 L1102.57 1568.04 L1094.9 1538.83 L1087.2 1568.04 L1080.29 1568.04 L1070.97 1532.4 Z" fill="#000000" fill-rule="evenodd" fill-opacity="1" /><path clip-path="url(#clip780)" d="M1142.52 1571.35 Q1140.03 1577.72 1137.68 1579.66 Q1135.32 1581.6 1131.38 1581.6 L1126.7 1581.6 L1126.7 1576.7 L1130.13 1576.7 Q1132.55 1576.7 1133.89 1575.56 Q1135.23 1574.41 1136.85 1570.14 L1137.9 1567.47 L1123.48 1532.4 L1129.69 1532.4 L1140.83 1560.28 L1151.97 1532.4 L1158.18 1532.4 L1142.52 1571.35 Z" fill="#000000" fill-rule="evenodd" fill-opacity="1" /><path clip-path="url(#clip780)" d="M1174.15 1518.52 L1180.01 1518.52 L1180.01 1525.93 L1174.15 1525.93 L1174.15 1518.52 M1177.15 1531.54 L1177.15 1531.54 M1163.71 1532.4 L1191.53 1532.4 L1191.53 1537.74 L1169.51 1563.37 L1191.53 1563.37 L1191.53 1568.04 L1162.92 1568.04 L1162.92 1562.7 L1184.94 1537.07 L1163.71 1537.07 L1163.71 1532.4 Z" fill="#000000" fill-rule="evenodd" fill-opacity="1" /><path clip-path="url(#clip780)" d="M1200.25 1518.52 L1206.14 1518.52 L1206.14 1547.77 L1223.61 1532.4 L1231.09 1532.4 L1212.19 1549.07 L1231.89 1568.04 L1224.25 1568.04 L1206.14 1550.63 L1206.14 1568.04 L1200.25 1568.04 L1200.25 1518.52 Z" fill="#000000" fill-rule="evenodd" fill-opacity="1" /><path clip-path="url(#clip780)" d="M1253.28 1550.12 Q1246.18 1550.12 1243.44 1551.75 Q1240.71 1553.37 1240.71 1557.29 Q1240.71 1560.4 1242.74 1562.25 Q1244.81 1564.07 1248.35 1564.07 Q1253.22 1564.07 1256.14 1560.63 Q1259.1 1557.16 1259.1 1551.43 L1259.1 1550.12 L1253.28 1550.12 M1264.96 1547.71 L1264.96 1568.04 L1259.1 1568.04 L1259.1 1562.63 Q1257.1 1565.88 1254.11 1567.44 Q1251.11 1568.97 1246.79 1568.97 Q1241.31 1568.97 1238.06 1565.91 Q1234.85 1562.82 1234.85 1557.67 Q1234.85 1551.65 1238.86 1548.6 Q1242.9 1545.54 1250.89 1545.54 L1259.1 1545.54 L1259.1 1544.97 Q1259.1 1540.93 1256.43 1538.73 Q1253.79 1536.5 1248.98 1536.5 Q1245.93 1536.5 1243.03 1537.23 Q1240.13 1537.97 1237.46 1539.43 L1237.46 1534.02 Q1240.67 1532.78 1243.7 1532.17 Q1246.72 1531.54 1249.59 1531.54 Q1257.32 1531.54 1261.14 1535.55 Q1264.96 1539.56 1264.96 1547.71 Z" fill="#000000" fill-rule="evenodd" fill-opacity="1" /><path clip-path="url(#clip780)" d="M1303.41 1562.7 L1303.41 1581.6 L1297.52 1581.6 L1297.52 1532.4 L1303.41 1532.4 L1303.41 1537.81 Q1305.25 1534.62 1308.06 1533.1 Q1310.89 1531.54 1314.8 1531.54 Q1321.3 1531.54 1325.34 1536.69 Q1329.41 1541.85 1329.41 1550.25 Q1329.41 1558.65 1325.34 1563.81 Q1321.3 1568.97 1314.8 1568.97 Q1310.89 1568.97 1308.06 1567.44 Q1305.25 1565.88 1303.41 1562.7 M1323.33 1550.25 Q1323.33 1543.79 1320.66 1540.13 Q1318.02 1536.44 1313.37 1536.44 Q1308.72 1536.44 1306.05 1540.13 Q1303.41 1543.79 1303.41 1550.25 Q1303.41 1556.71 1306.05 1560.4 Q1308.72 1564.07 1313.37 1564.07 Q1318.02 1564.07 1320.66 1560.4 Q1323.33 1556.71 1323.33 1550.25 Z" fill="#000000" fill-rule="evenodd" fill-opacity="1" /><path clip-path="url(#clip780)" d="M1359.78 1537.87 Q1358.79 1537.3 1357.61 1537.04 Q1356.47 1536.76 1355.07 1536.76 Q1350.1 1536.76 1347.43 1540 Q1344.79 1543.22 1344.79 1549.27 L1344.79 1568.04 L1338.9 1568.04 L1338.9 1532.4 L1344.79 1532.4 L1344.79 1537.93 Q1346.63 1534.69 1349.59 1533.13 Q1352.55 1531.54 1356.79 1531.54 Q1357.39 1531.54 1358.12 1531.63 Q1358.85 1531.7 1359.75 1531.85 L1359.78 1537.87 Z" fill="#000000" fill-rule="evenodd" fill-opacity="1" /><path clip-path="url(#clip780)" d="M1378.3 1536.5 Q1373.59 1536.5 1370.85 1540.19 Q1368.12 1543.85 1368.12 1550.25 Q1368.12 1556.65 1370.82 1560.34 Q1373.56 1564 1378.3 1564 Q1382.98 1564 1385.72 1560.31 Q1388.45 1556.62 1388.45 1550.25 Q1388.45 1543.92 1385.72 1540.23 Q1382.98 1536.5 1378.3 1536.5 M1378.3 1531.54 Q1385.94 1531.54 1390.3 1536.5 Q1394.66 1541.47 1394.66 1550.25 Q1394.66 1559 1390.3 1564 Q1385.94 1568.97 1378.3 1568.97 Q1370.63 1568.97 1366.27 1564 Q1361.94 1559 1361.94 1550.25 Q1361.94 1541.47 1366.27 1536.5 Q1370.63 1531.54 1378.3 1531.54 Z" fill="#000000" fill-rule="evenodd" fill-opacity="1" /><path clip-path="url(#clip780)" d="M1427.83 1537.81 L1427.83 1518.52 L1433.68 1518.52 L1433.68 1568.04 L1427.83 1568.04 L1427.83 1562.7 Q1425.98 1565.88 1423.15 1567.44 Q1420.35 1568.97 1416.4 1568.97 Q1409.94 1568.97 1405.86 1563.81 Q1401.82 1558.65 1401.82 1550.25 Q1401.82 1541.85 1405.86 1536.69 Q1409.94 1531.54 1416.4 1531.54 Q1420.35 1531.54 1423.15 1533.1 Q1425.98 1534.62 1427.83 1537.81 M1407.87 1550.25 Q1407.87 1556.71 1410.51 1560.4 Q1413.19 1564.07 1417.83 1564.07 Q1422.48 1564.07 1425.15 1560.4 Q1427.83 1556.71 1427.83 1550.25 Q1427.83 1543.79 1425.15 1540.13 Q1422.48 1536.44 1417.83 1536.44 Q1413.19 1536.44 1410.51 1540.13 Q1407.87 1543.79 1407.87 1550.25 Z" fill="#000000" fill-rule="evenodd" fill-opacity="1" /><path clip-path="url(#clip780)" d="M1445.14 1553.98 L1445.14 1532.4 L1451 1532.4 L1451 1553.75 Q1451 1558.81 1452.97 1561.36 Q1454.94 1563.87 1458.89 1563.87 Q1463.63 1563.87 1466.37 1560.85 Q1469.14 1557.83 1469.14 1552.61 L1469.14 1532.4 L1475 1532.4 L1475 1568.04 L1469.14 1568.04 L1469.14 1562.57 Q1467.01 1565.82 1464.17 1567.41 Q1461.37 1568.97 1457.65 1568.97 Q1451.51 1568.97 1448.32 1565.15 Q1445.14 1561.33 1445.14 1553.98 M1459.88 1531.54 L1459.88 1531.54 Z" fill="#000000" fill-rule="evenodd" fill-opacity="1" /><path clip-path="url(#clip780)" d="M1512.71 1533.76 L1512.71 1539.24 Q1510.23 1537.87 1507.72 1537.2 Q1505.23 1536.5 1502.69 1536.5 Q1496.99 1536.5 1493.84 1540.13 Q1490.69 1543.73 1490.69 1550.25 Q1490.69 1556.78 1493.84 1560.4 Q1496.99 1564 1502.69 1564 Q1505.23 1564 1507.72 1563.33 Q1510.23 1562.63 1512.71 1561.26 L1512.71 1566.68 Q1510.26 1567.82 1507.62 1568.39 Q1505.01 1568.97 1502.05 1568.97 Q1494 1568.97 1489.26 1563.91 Q1484.51 1558.85 1484.51 1550.25 Q1484.51 1541.53 1489.29 1536.53 Q1494.09 1531.54 1502.43 1531.54 Q1505.14 1531.54 1507.72 1532.11 Q1510.29 1532.65 1512.71 1533.76 Z" fill="#000000" fill-rule="evenodd" fill-opacity="1" /><path clip-path="url(#clip780)" d="M1553.39 1548.76 L1553.39 1551.62 L1526.46 1551.62 Q1526.85 1557.67 1530.09 1560.85 Q1533.37 1564 1539.19 1564 Q1542.57 1564 1545.72 1563.17 Q1548.9 1562.35 1552.02 1560.69 L1552.02 1566.23 Q1548.87 1567.57 1545.56 1568.27 Q1542.25 1568.97 1538.84 1568.97 Q1530.31 1568.97 1525.32 1564 Q1520.35 1559.04 1520.35 1550.57 Q1520.35 1541.82 1525.06 1536.69 Q1529.81 1531.54 1537.83 1531.54 Q1545.02 1531.54 1549.19 1536.18 Q1553.39 1540.8 1553.39 1548.76 M1547.53 1547.04 Q1547.47 1542.23 1544.83 1539.37 Q1542.22 1536.5 1537.89 1536.5 Q1532.99 1536.5 1530.03 1539.27 Q1527.1 1542.04 1526.65 1547.07 L1547.53 1547.04 Z" fill="#000000" fill-rule="evenodd" fill-opacity="1" /><path clip-path="url(#clip780)" d="M1592.63 1546.53 L1592.63 1568.04 L1586.78 1568.04 L1586.78 1546.72 Q1586.78 1541.66 1584.8 1539.14 Q1582.83 1536.63 1578.88 1536.63 Q1574.14 1536.63 1571.41 1539.65 Q1568.67 1542.68 1568.67 1547.9 L1568.67 1568.04 L1562.78 1568.04 L1562.78 1532.4 L1568.67 1532.4 L1568.67 1537.93 Q1570.77 1534.72 1573.6 1533.13 Q1576.47 1531.54 1580.19 1531.54 Q1586.33 1531.54 1589.48 1535.36 Q1592.63 1539.14 1592.63 1546.53 Z" fill="#000000" fill-rule="evenodd" fill-opacity="1" /><path clip-path="url(#clip780)" d="M1610.11 1522.27 L1610.11 1532.4 L1622.17 1532.4 L1622.17 1536.95 L1610.11 1536.95 L1610.11 1556.3 Q1610.11 1560.66 1611.29 1561.9 Q1612.5 1563.14 1616.16 1563.14 L1622.17 1563.14 L1622.17 1568.04 L1616.16 1568.04 Q1609.38 1568.04 1606.8 1565.53 Q1604.22 1562.98 1604.22 1556.3 L1604.22 1536.95 L1599.92 1536.95 L1599.92 1532.4 L1604.22 1532.4 L1604.22 1522.27 L1610.11 1522.27 Z" fill="#000000" fill-rule="evenodd" fill-opacity="1" /><path clip-path="url(#clip780)" d="M1646.07 1550.12 Q1638.98 1550.12 1636.24 1551.75 Q1633.5 1553.37 1633.5 1557.29 Q1633.5 1560.4 1635.54 1562.25 Q1637.61 1564.07 1641.14 1564.07 Q1646.01 1564.07 1648.94 1560.63 Q1651.9 1557.16 1651.9 1551.43 L1651.9 1550.12 L1646.07 1550.12 M1657.76 1547.71 L1657.76 1568.04 L1651.9 1568.04 L1651.9 1562.63 Q1649.89 1565.88 1646.9 1567.44 Q1643.91 1568.97 1639.58 1568.97 Q1634.11 1568.97 1630.86 1565.91 Q1627.65 1562.82 1627.65 1557.67 Q1627.65 1551.65 1631.66 1548.6 Q1635.7 1545.54 1643.69 1545.54 L1651.9 1545.54 L1651.9 1544.97 Q1651.9 1540.93 1649.23 1538.73 Q1646.58 1536.5 1641.78 1536.5 Q1638.72 1536.5 1635.83 1537.23 Q1632.93 1537.97 1630.26 1539.43 L1630.26 1534.02 Q1633.47 1532.78 1636.49 1532.17 Q1639.52 1531.54 1642.38 1531.54 Q1650.12 1531.54 1653.94 1535.55 Q1657.76 1539.56 1657.76 1547.71 Z" fill="#000000" fill-rule="evenodd" fill-opacity="1" /><polyline clip-path="url(#clip782)" style="stroke:#000000; stroke-linecap:butt; stroke-linejoin:round; stroke-width:2; stroke-opacity:0.1; fill:none" points="
  249.542,1388.85 2352.76,1388.85 
  "/>
<polyline clip-path="url(#clip782)" style="stroke:#000000; stroke-linecap:butt; stroke-linejoin:round; stroke-width:2; stroke-opacity:0.1; fill:none" points="
  249.542,1081.7 2352.76,1081.7 
  "/>
<polyline clip-path="url(#clip782)" style="stroke:#000000; stroke-linecap:butt; stroke-linejoin:round; stroke-width:2; stroke-opacity:0.1; fill:none" points="
  249.542,774.555 2352.76,774.555 
  "/>
<polyline clip-path="url(#clip782)" style="stroke:#000000; stroke-linecap:butt; stroke-linejoin:round; stroke-width:2; stroke-opacity:0.1; fill:none" points="
  249.542,467.405 2352.76,467.405 
  "/>
<polyline clip-path="url(#clip782)" style="stroke:#000000; stroke-linecap:butt; stroke-linejoin:round; stroke-width:2; stroke-opacity:0.1; fill:none" points="
  249.542,160.256 2352.76,160.256 
  "/>
<polyline clip-path="url(#clip780)" style="stroke:#000000; stroke-linecap:butt; stroke-linejoin:round; stroke-width:4; stroke-opacity:1; fill:none" points="
  249.542,1423.18 249.542,123.472 
  "/>
<polyline clip-path="url(#clip780)" style="stroke:#000000; stroke-linecap:butt; stroke-linejoin:round; stroke-width:4; stroke-opacity:1; fill:none" points="
  249.542,1388.85 268.44,1388.85 
  "/>
<polyline clip-path="url(#clip780)" style="stroke:#000000; stroke-linecap:butt; stroke-linejoin:round; stroke-width:4; stroke-opacity:1; fill:none" points="
  249.542,1081.7 268.44,1081.7 
  "/>
<polyline clip-path="url(#clip780)" style="stroke:#000000; stroke-linecap:butt; stroke-linejoin:round; stroke-width:4; stroke-opacity:1; fill:none" points="
  249.542,774.555 268.44,774.555 
  "/>
<polyline clip-path="url(#clip780)" style="stroke:#000000; stroke-linecap:butt; stroke-linejoin:round; stroke-width:4; stroke-opacity:1; fill:none" points="
  249.542,467.405 268.44,467.405 
  "/>
<polyline clip-path="url(#clip780)" style="stroke:#000000; stroke-linecap:butt; stroke-linejoin:round; stroke-width:4; stroke-opacity:1; fill:none" points="
  249.542,160.256 268.44,160.256 
  "/>
<path clip-path="url(#clip780)" d="M126.205 1374.65 Q122.593 1374.65 120.765 1378.22 Q118.959 1381.76 118.959 1388.89 Q118.959 1395.99 120.765 1399.56 Q122.593 1403.1 126.205 1403.1 Q129.839 1403.1 131.644 1399.56 Q133.473 1395.99 133.473 1388.89 Q133.473 1381.76 131.644 1378.22 Q129.839 1374.65 126.205 1374.65 M126.205 1370.95 Q132.015 1370.95 135.07 1375.55 Q138.149 1380.14 138.149 1388.89 Q138.149 1397.61 135.07 1402.22 Q132.015 1406.8 126.205 1406.8 Q120.394 1406.8 117.316 1402.22 Q114.26 1397.61 114.26 1388.89 Q114.26 1380.14 117.316 1375.55 Q120.394 1370.95 126.205 1370.95 Z" fill="#000000" fill-rule="evenodd" fill-opacity="1" /><path clip-path="url(#clip780)" d="M146.366 1400.25 L151.251 1400.25 L151.251 1406.13 L146.366 1406.13 L146.366 1400.25 Z" fill="#000000" fill-rule="evenodd" fill-opacity="1" /><path clip-path="url(#clip780)" d="M171.436 1374.65 Q167.825 1374.65 165.996 1378.22 Q164.19 1381.76 164.19 1388.89 Q164.19 1395.99 165.996 1399.56 Q167.825 1403.1 171.436 1403.1 Q175.07 1403.1 176.876 1399.56 Q178.704 1395.99 178.704 1388.89 Q178.704 1381.76 176.876 1378.22 Q175.07 1374.65 171.436 1374.65 M171.436 1370.95 Q177.246 1370.95 180.301 1375.55 Q183.38 1380.14 183.38 1388.89 Q183.38 1397.61 180.301 1402.22 Q177.246 1406.8 171.436 1406.8 Q165.626 1406.8 162.547 1402.22 Q159.491 1397.61 159.491 1388.89 Q159.491 1380.14 162.547 1375.55 Q165.626 1370.95 171.436 1370.95 Z" fill="#000000" fill-rule="evenodd" fill-opacity="1" /><path clip-path="url(#clip780)" d="M201.598 1374.65 Q197.987 1374.65 196.158 1378.22 Q194.352 1381.76 194.352 1388.89 Q194.352 1395.99 196.158 1399.56 Q197.987 1403.1 201.598 1403.1 Q205.232 1403.1 207.037 1399.56 Q208.866 1395.99 208.866 1388.89 Q208.866 1381.76 207.037 1378.22 Q205.232 1374.65 201.598 1374.65 M201.598 1370.95 Q207.408 1370.95 210.463 1375.55 Q213.542 1380.14 213.542 1388.89 Q213.542 1397.61 210.463 1402.22 Q207.408 1406.8 201.598 1406.8 Q195.787 1406.8 192.709 1402.22 Q189.653 1397.61 189.653 1388.89 Q189.653 1380.14 192.709 1375.55 Q195.787 1370.95 201.598 1370.95 Z" fill="#000000" fill-rule="evenodd" fill-opacity="1" /><path clip-path="url(#clip780)" d="M127.2 1067.5 Q123.589 1067.5 121.76 1071.07 Q119.955 1074.61 119.955 1081.74 Q119.955 1088.84 121.76 1092.41 Q123.589 1095.95 127.2 1095.95 Q130.834 1095.95 132.64 1092.41 Q134.468 1088.84 134.468 1081.74 Q134.468 1074.61 132.64 1071.07 Q130.834 1067.5 127.2 1067.5 M127.2 1063.8 Q133.01 1063.8 136.066 1068.41 Q139.144 1072.99 139.144 1081.74 Q139.144 1090.47 136.066 1095.07 Q133.01 1099.66 127.2 1099.66 Q121.39 1099.66 118.311 1095.07 Q115.256 1090.47 115.256 1081.74 Q115.256 1072.99 118.311 1068.41 Q121.39 1063.8 127.2 1063.8 Z" fill="#000000" fill-rule="evenodd" fill-opacity="1" /><path clip-path="url(#clip780)" d="M147.362 1093.1 L152.246 1093.1 L152.246 1098.98 L147.362 1098.98 L147.362 1093.1 Z" fill="#000000" fill-rule="evenodd" fill-opacity="1" /><path clip-path="url(#clip780)" d="M166.459 1095.05 L182.778 1095.05 L182.778 1098.98 L160.834 1098.98 L160.834 1095.05 Q163.496 1092.29 168.079 1087.66 Q172.686 1083.01 173.866 1081.67 Q176.112 1079.15 176.991 1077.41 Q177.894 1075.65 177.894 1073.96 Q177.894 1071.21 175.95 1069.47 Q174.028 1067.73 170.927 1067.73 Q168.727 1067.73 166.274 1068.5 Q163.843 1069.26 161.065 1070.81 L161.065 1066.09 Q163.89 1064.96 166.343 1064.38 Q168.797 1063.8 170.834 1063.8 Q176.204 1063.8 179.399 1066.48 Q182.593 1069.17 182.593 1073.66 Q182.593 1075.79 181.783 1077.71 Q180.996 1079.61 178.889 1082.2 Q178.311 1082.87 175.209 1086.09 Q172.107 1089.28 166.459 1095.05 Z" fill="#000000" fill-rule="evenodd" fill-opacity="1" /><path clip-path="url(#clip780)" d="M192.639 1064.42 L210.996 1064.42 L210.996 1068.36 L196.922 1068.36 L196.922 1076.83 Q197.94 1076.48 198.959 1076.32 Q199.977 1076.14 200.996 1076.14 Q206.783 1076.14 210.162 1079.31 Q213.542 1082.48 213.542 1087.9 Q213.542 1093.47 210.07 1096.58 Q206.598 1099.66 200.278 1099.66 Q198.102 1099.66 195.834 1099.28 Q193.588 1098.91 191.181 1098.17 L191.181 1093.47 Q193.264 1094.61 195.487 1095.16 Q197.709 1095.72 200.186 1095.72 Q204.19 1095.72 206.528 1093.61 Q208.866 1091.51 208.866 1087.9 Q208.866 1084.28 206.528 1082.18 Q204.19 1080.07 200.186 1080.07 Q198.311 1080.07 196.436 1080.49 Q194.584 1080.91 192.639 1081.78 L192.639 1064.42 Z" fill="#000000" fill-rule="evenodd" fill-opacity="1" /><path clip-path="url(#clip780)" d="M126.205 760.353 Q122.593 760.353 120.765 763.918 Q118.959 767.46 118.959 774.589 Q118.959 781.696 120.765 785.261 Q122.593 788.802 126.205 788.802 Q129.839 788.802 131.644 785.261 Q133.473 781.696 133.473 774.589 Q133.473 767.46 131.644 763.918 Q129.839 760.353 126.205 760.353 M126.205 756.65 Q132.015 756.65 135.07 761.256 Q138.149 765.839 138.149 774.589 Q138.149 783.316 135.07 787.923 Q132.015 792.506 126.205 792.506 Q120.394 792.506 117.316 787.923 Q114.26 783.316 114.26 774.589 Q114.26 765.839 117.316 761.256 Q120.394 756.65 126.205 756.65 Z" fill="#000000" fill-rule="evenodd" fill-opacity="1" /><path clip-path="url(#clip780)" d="M146.366 785.955 L151.251 785.955 L151.251 791.835 L146.366 791.835 L146.366 785.955 Z" fill="#000000" fill-rule="evenodd" fill-opacity="1" /><path clip-path="url(#clip780)" d="M161.482 757.275 L179.839 757.275 L179.839 761.21 L165.765 761.21 L165.765 769.682 Q166.783 769.335 167.802 769.173 Q168.82 768.987 169.839 768.987 Q175.626 768.987 179.005 772.159 Q182.385 775.33 182.385 780.747 Q182.385 786.325 178.913 789.427 Q175.44 792.506 169.121 792.506 Q166.945 792.506 164.677 792.136 Q162.431 791.765 160.024 791.024 L160.024 786.325 Q162.107 787.46 164.329 788.015 Q166.552 788.571 169.028 788.571 Q173.033 788.571 175.371 786.464 Q177.709 784.358 177.709 780.747 Q177.709 777.136 175.371 775.029 Q173.033 772.923 169.028 772.923 Q167.153 772.923 165.278 773.339 Q163.427 773.756 161.482 774.636 L161.482 757.275 Z" fill="#000000" fill-rule="evenodd" fill-opacity="1" /><path clip-path="url(#clip780)" d="M201.598 760.353 Q197.987 760.353 196.158 763.918 Q194.352 767.46 194.352 774.589 Q194.352 781.696 196.158 785.261 Q197.987 788.802 201.598 788.802 Q205.232 788.802 207.037 785.261 Q208.866 781.696 208.866 774.589 Q208.866 767.46 207.037 763.918 Q205.232 760.353 201.598 760.353 M201.598 756.65 Q207.408 756.65 210.463 761.256 Q213.542 765.839 213.542 774.589 Q213.542 783.316 210.463 787.923 Q207.408 792.506 201.598 792.506 Q195.787 792.506 192.709 787.923 Q189.653 783.316 189.653 774.589 Q189.653 765.839 192.709 761.256 Q195.787 756.65 201.598 756.65 Z" fill="#000000" fill-rule="evenodd" fill-opacity="1" /><path clip-path="url(#clip780)" d="M127.2 453.204 Q123.589 453.204 121.76 456.769 Q119.955 460.311 119.955 467.44 Q119.955 474.547 121.76 478.111 Q123.589 481.653 127.2 481.653 Q130.834 481.653 132.64 478.111 Q134.468 474.547 134.468 467.44 Q134.468 460.311 132.64 456.769 Q130.834 453.204 127.2 453.204 M127.2 449.5 Q133.01 449.5 136.066 454.107 Q139.144 458.69 139.144 467.44 Q139.144 476.167 136.066 480.773 Q133.01 485.357 127.2 485.357 Q121.39 485.357 118.311 480.773 Q115.256 476.167 115.256 467.44 Q115.256 458.69 118.311 454.107 Q121.39 449.5 127.2 449.5 Z" fill="#000000" fill-rule="evenodd" fill-opacity="1" /><path clip-path="url(#clip780)" d="M147.362 478.806 L152.246 478.806 L152.246 484.685 L147.362 484.685 L147.362 478.806 Z" fill="#000000" fill-rule="evenodd" fill-opacity="1" /><path clip-path="url(#clip780)" d="M161.251 450.125 L183.473 450.125 L183.473 452.116 L170.927 484.685 L166.042 484.685 L177.848 454.061 L161.251 454.061 L161.251 450.125 Z" fill="#000000" fill-rule="evenodd" fill-opacity="1" /><path clip-path="url(#clip780)" d="M192.639 450.125 L210.996 450.125 L210.996 454.061 L196.922 454.061 L196.922 462.533 Q197.94 462.186 198.959 462.024 Q199.977 461.838 200.996 461.838 Q206.783 461.838 210.162 465.01 Q213.542 468.181 213.542 473.598 Q213.542 479.176 210.07 482.278 Q206.598 485.357 200.278 485.357 Q198.102 485.357 195.834 484.986 Q193.588 484.616 191.181 483.875 L191.181 479.176 Q193.264 480.31 195.487 480.866 Q197.709 481.422 200.186 481.422 Q204.19 481.422 206.528 479.315 Q208.866 477.209 208.866 473.598 Q208.866 469.986 206.528 467.88 Q204.19 465.774 200.186 465.774 Q198.311 465.774 196.436 466.19 Q194.584 466.607 192.639 467.486 L192.639 450.125 Z" fill="#000000" fill-rule="evenodd" fill-opacity="1" /><path clip-path="url(#clip780)" d="M117.015 173.601 L124.654 173.601 L124.654 147.236 L116.343 148.902 L116.343 144.643 L124.607 142.976 L129.283 142.976 L129.283 173.601 L136.922 173.601 L136.922 177.536 L117.015 177.536 L117.015 173.601 Z" fill="#000000" fill-rule="evenodd" fill-opacity="1" /><path clip-path="url(#clip780)" d="M146.366 171.657 L151.251 171.657 L151.251 177.536 L146.366 177.536 L146.366 171.657 Z" fill="#000000" fill-rule="evenodd" fill-opacity="1" /><path clip-path="url(#clip780)" d="M171.436 146.055 Q167.825 146.055 165.996 149.62 Q164.19 153.161 164.19 160.291 Q164.19 167.397 165.996 170.962 Q167.825 174.504 171.436 174.504 Q175.07 174.504 176.876 170.962 Q178.704 167.397 178.704 160.291 Q178.704 153.161 176.876 149.62 Q175.07 146.055 171.436 146.055 M171.436 142.351 Q177.246 142.351 180.301 146.958 Q183.38 151.541 183.38 160.291 Q183.38 169.018 180.301 173.624 Q177.246 178.208 171.436 178.208 Q165.626 178.208 162.547 173.624 Q159.491 169.018 159.491 160.291 Q159.491 151.541 162.547 146.958 Q165.626 142.351 171.436 142.351 Z" fill="#000000" fill-rule="evenodd" fill-opacity="1" /><path clip-path="url(#clip780)" d="M201.598 146.055 Q197.987 146.055 196.158 149.62 Q194.352 153.161 194.352 160.291 Q194.352 167.397 196.158 170.962 Q197.987 174.504 201.598 174.504 Q205.232 174.504 207.037 170.962 Q208.866 167.397 208.866 160.291 Q208.866 153.161 207.037 149.62 Q205.232 146.055 201.598 146.055 M201.598 142.351 Q207.408 142.351 210.463 146.958 Q213.542 151.541 213.542 160.291 Q213.542 169.018 210.463 173.624 Q207.408 178.208 201.598 178.208 Q195.787 178.208 192.709 173.624 Q189.653 169.018 189.653 160.291 Q189.653 151.541 192.709 146.958 Q195.787 142.351 201.598 142.351 Z" fill="#000000" fill-rule="evenodd" fill-opacity="1" /><path clip-path="url(#clip780)" d="M16.4842 830.792 L16.4842 803.484 L21.895 803.484 L21.895 824.363 L35.8996 824.363 L35.8996 805.521 L41.3104 805.521 L41.3104 824.363 L64.0042 824.363 L64.0042 830.792 L16.4842 830.792 Z" fill="#000000" fill-rule="evenodd" fill-opacity="1" /><path clip-path="url(#clip780)" d="M14.5426 779.485 Q21.8632 783.75 29.0246 785.819 Q36.186 787.888 43.5384 787.888 Q50.8908 787.888 58.1159 785.819 Q65.3091 783.718 72.5979 779.485 L72.5979 784.577 Q65.1182 789.352 57.8931 791.739 Q50.668 794.094 43.5384 794.094 Q36.4406 794.094 29.2474 791.739 Q22.0542 789.383 14.5426 784.577 L14.5426 779.485 Z" fill="#000000" fill-rule="evenodd" fill-opacity="1" /><path clip-path="url(#clip780)" d="M28.3562 738.49 L45.7028 751.38 L64.0042 737.821 L64.0042 744.728 L49.9996 755.104 L64.0042 765.48 L64.0042 772.387 L45.3526 758.542 L28.3562 771.209 L28.3562 764.303 L41.0558 754.85 L28.3562 745.396 L28.3562 738.49 Z" fill="#000000" fill-rule="evenodd" fill-opacity="1" /><path clip-path="url(#clip780)" d="M14.5426 730.469 L14.5426 725.376 Q22.0542 720.602 29.2474 718.247 Q36.4406 715.86 43.5384 715.86 Q50.668 715.86 57.8931 718.247 Q65.1182 720.602 72.5979 725.376 L72.5979 730.469 Q65.3091 726.236 58.1159 724.167 Q50.8908 722.066 43.5384 722.066 Q36.186 722.066 29.0246 724.167 Q21.8632 726.236 14.5426 730.469 Z" fill="#000000" fill-rule="evenodd" fill-opacity="1" /><path clip-path="url(#clip780)" d="M282.022 18.8205 L282.022 65.8515 L291.907 65.8515 Q304.424 65.8515 310.217 60.1802 Q316.05 54.509 316.05 42.2752 Q316.05 30.1225 310.217 24.4918 Q304.424 18.8205 291.907 18.8205 L282.022 18.8205 M273.84 12.096 L290.651 12.096 Q308.232 12.096 316.455 19.4281 Q324.679 26.7198 324.679 42.2752 Q324.679 57.9117 316.415 65.2439 Q308.151 72.576 290.651 72.576 L273.84 72.576 L273.84 12.096 Z" fill="#000000" fill-rule="evenodd" fill-opacity="1" /><path clip-path="url(#clip780)" d="M356.276 76.7889 Q353.116 84.8907 350.118 87.3618 Q347.121 89.8329 342.097 89.8329 L336.143 89.8329 L336.143 83.5945 L340.518 83.5945 Q343.596 83.5945 345.298 82.1361 Q346.999 80.6778 349.065 75.2496 L350.402 71.8468 L332.051 27.2059 L339.95 27.2059 L354.129 62.6918 L368.307 27.2059 L376.206 27.2059 L356.276 76.7889 Z" fill="#000000" fill-rule="evenodd" fill-opacity="1" /><path clip-path="url(#clip780)" d="M415.419 28.5427 L415.419 35.5912 Q412.259 33.9709 408.856 33.1607 Q405.454 32.3505 401.808 32.3505 Q396.258 32.3505 393.463 34.0519 Q390.708 35.7533 390.708 39.156 Q390.708 41.7486 392.693 43.2475 Q394.678 44.7058 400.673 46.0426 L403.226 46.6097 Q411.165 48.3111 414.487 51.4303 Q417.849 54.509 417.849 60.0587 Q417.849 66.3781 412.826 70.0644 Q407.844 73.7508 399.094 73.7508 Q395.448 73.7508 391.478 73.0216 Q387.549 72.3329 383.174 70.9151 L383.174 63.2184 Q387.305 65.3654 391.316 66.4591 Q395.326 67.5124 399.256 67.5124 Q404.522 67.5124 407.357 65.73 Q410.193 63.9071 410.193 60.6258 Q410.193 57.5877 408.127 55.9673 Q406.102 54.3469 399.175 52.8481 L396.582 52.2405 Q389.655 50.7821 386.576 47.7845 Q383.498 44.7463 383.498 39.4801 Q383.498 33.0797 388.035 29.5959 Q392.572 26.1121 400.917 26.1121 Q405.048 26.1121 408.694 26.7198 Q412.34 27.3274 415.419 28.5427 Z" fill="#000000" fill-rule="evenodd" fill-opacity="1" /><path clip-path="url(#clip780)" d="M437.091 14.324 L437.091 27.2059 L452.444 27.2059 L452.444 32.9987 L437.091 32.9987 L437.091 57.6282 Q437.091 63.1779 438.59 64.7578 Q440.129 66.3376 444.788 66.3376 L452.444 66.3376 L452.444 72.576 L444.788 72.576 Q436.159 72.576 432.878 69.3758 Q429.597 66.1351 429.597 57.6282 L429.597 32.9987 L424.128 32.9987 L424.128 27.2059 L429.597 27.2059 L429.597 14.324 L437.091 14.324 Z" fill="#000000" fill-rule="evenodd" fill-opacity="1" /><path clip-path="url(#clip780)" d="M488.538 34.1734 Q487.282 33.4443 485.783 33.1202 Q484.325 32.7556 482.542 32.7556 Q476.223 32.7556 472.82 36.8875 Q469.458 40.9789 469.458 48.6757 L469.458 72.576 L461.964 72.576 L461.964 27.2059 L469.458 27.2059 L469.458 34.2544 Q471.807 30.1225 475.575 28.1376 Q479.342 26.1121 484.73 26.1121 Q485.499 26.1121 486.431 26.2337 Q487.363 26.3147 488.497 26.5172 L488.538 34.1734 Z" fill="#000000" fill-rule="evenodd" fill-opacity="1" /><path clip-path="url(#clip780)" d="M515.233 76.7889 Q512.073 84.8907 509.076 87.3618 Q506.078 89.8329 501.055 89.8329 L495.1 89.8329 L495.1 83.5945 L499.475 83.5945 Q502.554 83.5945 504.255 82.1361 Q505.956 80.6778 508.022 75.2496 L509.359 71.8468 L491.009 27.2059 L498.908 27.2059 L513.086 62.6918 L527.264 27.2059 L535.163 27.2059 L515.233 76.7889 Z" fill="#000000" fill-rule="evenodd" fill-opacity="1" /><path clip-path="url(#clip780)" d="M578.022 49.9314 Q578.022 41.7081 574.619 37.0496 Q571.257 32.3505 565.343 32.3505 Q559.428 32.3505 556.026 37.0496 Q552.663 41.7081 552.663 49.9314 Q552.663 58.1548 556.026 62.8538 Q559.428 67.5124 565.343 67.5124 Q571.257 67.5124 574.619 62.8538 Q578.022 58.1548 578.022 49.9314 M552.663 34.0924 Q555.013 30.0415 558.578 28.0971 Q562.183 26.1121 567.166 26.1121 Q575.429 26.1121 580.574 32.6746 Q585.759 39.2371 585.759 49.9314 Q585.759 60.6258 580.574 67.1883 Q575.429 73.7508 567.166 73.7508 Q562.183 73.7508 558.578 71.8063 Q555.013 69.8214 552.663 65.7705 L552.663 72.576 L545.169 72.576 L545.169 9.54393 L552.663 9.54393 L552.663 34.0924 Z" fill="#000000" fill-rule="evenodd" fill-opacity="1" /><path clip-path="url(#clip780)" d="M597.345 54.671 L597.345 27.2059 L604.799 27.2059 L604.799 54.3874 Q604.799 60.8284 607.31 64.0691 Q609.822 67.2693 614.845 67.2693 Q620.881 67.2693 624.364 63.421 Q627.889 59.5726 627.889 52.9291 L627.889 27.2059 L635.342 27.2059 L635.342 72.576 L627.889 72.576 L627.889 65.6084 Q625.175 69.7404 621.569 71.7658 Q618.004 73.7508 613.265 73.7508 Q605.447 73.7508 601.396 68.8897 Q597.345 64.0286 597.345 54.671 M616.101 26.1121 L616.101 26.1121 Z" fill="#000000" fill-rule="evenodd" fill-opacity="1" /><path clip-path="url(#clip780)" d="M671.314 49.7694 Q662.281 49.7694 658.797 51.8354 Q655.313 53.9013 655.313 58.8839 Q655.313 62.8538 657.906 65.2034 Q660.539 67.5124 665.035 67.5124 Q671.233 67.5124 674.96 63.1374 Q678.728 58.7219 678.728 51.4303 L678.728 49.7694 L671.314 49.7694 M686.181 46.6907 L686.181 72.576 L678.728 72.576 L678.728 65.6895 Q676.175 69.8214 672.368 71.8063 Q668.56 73.7508 663.051 73.7508 Q656.083 73.7508 651.951 69.8619 Q647.86 65.9325 647.86 59.3701 Q647.86 51.7138 652.964 47.825 Q658.108 43.9361 668.276 43.9361 L678.728 43.9361 L678.728 43.2069 Q678.728 38.0623 675.325 35.2672 Q671.963 32.4315 665.846 32.4315 Q661.957 32.4315 658.27 33.3632 Q654.584 34.295 651.181 36.1584 L651.181 29.2718 Q655.273 27.692 659.121 26.9223 Q662.97 26.1121 666.615 26.1121 Q676.459 26.1121 681.32 31.2163 Q686.181 36.3204 686.181 46.6907 Z" fill="#000000" fill-rule="evenodd" fill-opacity="1" /><path clip-path="url(#clip780)" d="M739.248 45.1919 L739.248 72.576 L731.794 72.576 L731.794 45.4349 Q731.794 38.994 729.283 35.7938 Q726.771 32.5936 721.748 32.5936 Q715.712 32.5936 712.229 36.4419 Q708.745 40.2903 708.745 46.9338 L708.745 72.576 L701.251 72.576 L701.251 27.2059 L708.745 27.2059 L708.745 34.2544 Q711.418 30.163 715.024 28.1376 Q718.669 26.1121 723.409 26.1121 Q731.227 26.1121 735.238 30.9732 Q739.248 35.7938 739.248 45.1919 Z" fill="#000000" fill-rule="evenodd" fill-opacity="1" /><path clip-path="url(#clip780)" d="M761.488 14.324 L761.488 27.2059 L776.84 27.2059 L776.84 32.9987 L761.488 32.9987 L761.488 57.6282 Q761.488 63.1779 762.986 64.7578 Q764.526 66.3376 769.184 66.3376 L776.84 66.3376 L776.84 72.576 L769.184 72.576 Q760.556 72.576 757.275 69.3758 Q753.993 66.1351 753.993 57.6282 L753.993 32.9987 L748.525 32.9987 L748.525 27.2059 L753.993 27.2059 L753.993 14.324 L761.488 14.324 Z" fill="#000000" fill-rule="evenodd" fill-opacity="1" /><path clip-path="url(#clip780)" d="M807.263 49.7694 Q798.229 49.7694 794.745 51.8354 Q791.262 53.9013 791.262 58.8839 Q791.262 62.8538 793.854 65.2034 Q796.487 67.5124 800.984 67.5124 Q807.182 67.5124 810.909 63.1374 Q814.676 58.7219 814.676 51.4303 L814.676 49.7694 L807.263 49.7694 M822.13 46.6907 L822.13 72.576 L814.676 72.576 L814.676 65.6895 Q812.124 69.8214 808.316 71.8063 Q804.508 73.7508 798.999 73.7508 Q792.031 73.7508 787.899 69.8619 Q783.808 65.9325 783.808 59.3701 Q783.808 51.7138 788.912 47.825 Q794.057 43.9361 804.225 43.9361 L814.676 43.9361 L814.676 43.2069 Q814.676 38.0623 811.273 35.2672 Q807.911 32.4315 801.794 32.4315 Q797.905 32.4315 794.219 33.3632 Q790.532 34.295 787.13 36.1584 L787.13 29.2718 Q791.221 27.692 795.07 26.9223 Q798.918 26.1121 802.564 26.1121 Q812.407 26.1121 817.268 31.2163 Q822.13 36.3204 822.13 46.6907 Z" fill="#000000" fill-rule="evenodd" fill-opacity="1" /><path clip-path="url(#clip780)" d="M902.662 48.0275 L902.662 51.6733 L868.391 51.6733 Q868.877 59.3701 873.009 63.421 Q877.181 67.4314 884.594 67.4314 Q888.888 67.4314 892.899 66.3781 Q896.95 65.3249 900.92 63.2184 L900.92 70.267 Q896.909 71.9684 892.696 72.8596 Q888.483 73.7508 884.149 73.7508 Q873.292 73.7508 866.933 67.4314 Q860.613 61.1119 860.613 50.3365 Q860.613 39.1965 866.608 32.6746 Q872.644 26.1121 882.853 26.1121 Q892.008 26.1121 897.314 32.0264 Q902.662 37.9003 902.662 48.0275 M895.208 45.84 Q895.127 39.7232 891.765 36.0774 Q888.443 32.4315 882.934 32.4315 Q876.695 32.4315 872.928 35.9558 Q869.201 39.4801 868.634 45.8805 L895.208 45.84 Z" fill="#000000" fill-rule="evenodd" fill-opacity="1" /><path clip-path="url(#clip780)" d="M950.219 35.9153 Q953.014 30.8922 956.903 28.5022 Q960.792 26.1121 966.058 26.1121 Q973.147 26.1121 976.996 31.0947 Q980.844 36.0368 980.844 45.1919 L980.844 72.576 L973.35 72.576 L973.35 45.4349 Q973.35 38.913 971.041 35.7533 Q968.732 32.5936 963.992 32.5936 Q958.199 32.5936 954.837 36.4419 Q951.475 40.2903 951.475 46.9338 L951.475 72.576 L943.981 72.576 L943.981 45.4349 Q943.981 38.8725 941.672 35.7533 Q939.363 32.5936 934.542 32.5936 Q928.83 32.5936 925.468 36.4824 Q922.106 40.3308 922.106 46.9338 L922.106 72.576 L914.612 72.576 L914.612 27.2059 L922.106 27.2059 L922.106 34.2544 Q924.658 30.082 928.223 28.0971 Q931.788 26.1121 936.689 26.1121 Q941.631 26.1121 945.074 28.6237 Q948.558 31.1352 950.219 35.9153 Z" fill="#000000" fill-rule="evenodd" fill-opacity="1" /><path clip-path="url(#clip780)" d="M1002.92 65.7705 L1002.92 89.8329 L995.427 89.8329 L995.427 27.2059 L1002.92 27.2059 L1002.92 34.0924 Q1005.27 30.0415 1008.84 28.0971 Q1012.44 26.1121 1017.42 26.1121 Q1025.69 26.1121 1030.83 32.6746 Q1036.02 39.2371 1036.02 49.9314 Q1036.02 60.6258 1030.83 67.1883 Q1025.69 73.7508 1017.42 73.7508 Q1012.44 73.7508 1008.84 71.8063 Q1005.27 69.8214 1002.92 65.7705 M1028.28 49.9314 Q1028.28 41.7081 1024.88 37.0496 Q1021.52 32.3505 1015.6 32.3505 Q1009.69 32.3505 1006.28 37.0496 Q1002.92 41.7081 1002.92 49.9314 Q1002.92 58.1548 1006.28 62.8538 Q1009.69 67.5124 1015.6 67.5124 Q1021.52 67.5124 1024.88 62.8538 Q1028.28 58.1548 1028.28 49.9314 Z" fill="#000000" fill-rule="evenodd" fill-opacity="1" /><path clip-path="url(#clip780)" d="M1048.37 27.2059 L1055.83 27.2059 L1055.83 72.576 L1048.37 72.576 L1048.37 27.2059 M1048.37 9.54393 L1055.83 9.54393 L1055.83 18.9825 L1048.37 18.9825 L1048.37 9.54393 Z" fill="#000000" fill-rule="evenodd" fill-opacity="1" /><path clip-path="url(#clip780)" d="M1097.71 34.1734 Q1096.46 33.4443 1094.96 33.1202 Q1093.5 32.7556 1091.72 32.7556 Q1085.4 32.7556 1082 36.8875 Q1078.63 40.9789 1078.63 48.6757 L1078.63 72.576 L1071.14 72.576 L1071.14 27.2059 L1078.63 27.2059 L1078.63 34.2544 Q1080.98 30.1225 1084.75 28.1376 Q1088.52 26.1121 1093.9 26.1121 Q1094.67 26.1121 1095.61 26.2337 Q1096.54 26.3147 1097.67 26.5172 L1097.71 34.1734 Z" fill="#000000" fill-rule="evenodd" fill-opacity="1" /><path clip-path="url(#clip780)" d="M1124.41 76.7889 Q1121.25 84.8907 1118.25 87.3618 Q1115.25 89.8329 1110.23 89.8329 L1104.28 89.8329 L1104.28 83.5945 L1108.65 83.5945 Q1111.73 83.5945 1113.43 82.1361 Q1115.13 80.6778 1117.2 75.2496 L1118.53 71.8468 L1100.18 27.2059 L1108.08 27.2059 L1122.26 62.6918 L1136.44 27.2059 L1144.34 27.2059 L1124.41 76.7889 Z" fill="#000000" fill-rule="evenodd" fill-opacity="1" /><path clip-path="url(#clip780)" d="M1187.28 28.9478 L1187.28 35.9153 Q1184.12 34.1734 1180.92 33.3227 Q1177.76 32.4315 1174.52 32.4315 Q1167.27 32.4315 1163.26 37.0496 Q1159.25 41.6271 1159.25 49.9314 Q1159.25 58.2358 1163.26 62.8538 Q1167.27 67.4314 1174.52 67.4314 Q1177.76 67.4314 1180.92 66.5807 Q1184.12 65.6895 1187.28 63.9476 L1187.28 70.8341 Q1184.16 72.2924 1180.8 73.0216 Q1177.47 73.7508 1173.71 73.7508 Q1163.46 73.7508 1157.42 67.3098 Q1151.39 60.8689 1151.39 49.9314 Q1151.39 38.832 1157.46 32.472 Q1163.58 26.1121 1174.19 26.1121 Q1177.64 26.1121 1180.92 26.8413 Q1184.2 27.5299 1187.28 28.9478 Z" fill="#000000" fill-rule="evenodd" fill-opacity="1" /><path clip-path="url(#clip780)" d="M1197 27.2059 L1232.41 27.2059 L1232.41 34.0114 L1204.37 66.6212 L1232.41 66.6212 L1232.41 72.576 L1195.99 72.576 L1195.99 65.7705 L1224.02 33.1607 L1197 33.1607 L1197 27.2059 Z" fill="#000000" fill-rule="evenodd" fill-opacity="1" /><path clip-path="url(#clip780)" d="M1281.5 45.1919 L1281.5 72.576 L1274.05 72.576 L1274.05 45.4349 Q1274.05 38.994 1271.54 35.7938 Q1269.03 32.5936 1264 32.5936 Q1257.97 32.5936 1254.48 36.4419 Q1251 40.2903 1251 46.9338 L1251 72.576 L1243.5 72.576 L1243.5 27.2059 L1251 27.2059 L1251 34.2544 Q1253.67 30.163 1257.28 28.1376 Q1260.92 26.1121 1265.66 26.1121 Q1273.48 26.1121 1277.49 30.9732 Q1281.5 35.7938 1281.5 45.1919 Z" fill="#000000" fill-rule="evenodd" fill-opacity="1" /><path clip-path="url(#clip780)" d="M1316.99 49.7694 Q1307.95 49.7694 1304.47 51.8354 Q1300.99 53.9013 1300.99 58.8839 Q1300.99 62.8538 1303.58 65.2034 Q1306.21 67.5124 1310.71 67.5124 Q1316.91 67.5124 1320.63 63.1374 Q1324.4 58.7219 1324.4 51.4303 L1324.4 49.7694 L1316.99 49.7694 M1331.85 46.6907 L1331.85 72.576 L1324.4 72.576 L1324.4 65.6895 Q1321.85 69.8214 1318.04 71.8063 Q1314.23 73.7508 1308.72 73.7508 Q1301.76 73.7508 1297.62 69.8619 Q1293.53 65.9325 1293.53 59.3701 Q1293.53 51.7138 1298.64 47.825 Q1303.78 43.9361 1313.95 43.9361 L1324.4 43.9361 L1324.4 43.2069 Q1324.4 38.0623 1321 35.2672 Q1317.64 32.4315 1311.52 32.4315 Q1307.63 32.4315 1303.94 33.3632 Q1300.26 34.295 1296.86 36.1584 L1296.86 29.2718 Q1300.95 27.692 1304.79 26.9223 Q1308.64 26.1121 1312.29 26.1121 Q1322.13 26.1121 1326.99 31.2163 Q1331.85 36.3204 1331.85 46.6907 Z" fill="#000000" fill-rule="evenodd" fill-opacity="1" /><path clip-path="url(#clip780)" d="M1369.81 46.5287 L1391.65 46.5287 L1391.65 53.1722 L1369.81 53.1722 L1369.81 46.5287 Z" fill="#000000" fill-rule="evenodd" fill-opacity="1" /><path clip-path="url(#clip780)" d="M1467.6 45.1919 L1467.6 72.576 L1460.15 72.576 L1460.15 45.4349 Q1460.15 38.994 1457.64 35.7938 Q1455.12 32.5936 1450.1 32.5936 Q1444.06 32.5936 1440.58 36.4419 Q1437.1 40.2903 1437.1 46.9338 L1437.1 72.576 L1429.6 72.576 L1429.6 27.2059 L1437.1 27.2059 L1437.1 34.2544 Q1439.77 30.163 1443.38 28.1376 Q1447.02 26.1121 1451.76 26.1121 Q1459.58 26.1121 1463.59 30.9732 Q1467.6 35.7938 1467.6 45.1919 Z" fill="#000000" fill-rule="evenodd" fill-opacity="1" /><path clip-path="url(#clip780)" d="M1503.09 49.7694 Q1494.05 49.7694 1490.57 51.8354 Q1487.09 53.9013 1487.09 58.8839 Q1487.09 62.8538 1489.68 65.2034 Q1492.31 67.5124 1496.81 67.5124 Q1503.01 67.5124 1506.73 63.1374 Q1510.5 58.7219 1510.5 51.4303 L1510.5 49.7694 L1503.09 49.7694 M1517.95 46.6907 L1517.95 72.576 L1510.5 72.576 L1510.5 65.6895 Q1507.95 69.8214 1504.14 71.8063 Q1500.33 73.7508 1494.82 73.7508 Q1487.86 73.7508 1483.72 69.8619 Q1479.63 65.9325 1479.63 59.3701 Q1479.63 51.7138 1484.74 47.825 Q1489.88 43.9361 1500.05 43.9361 L1510.5 43.9361 L1510.5 43.2069 Q1510.5 38.0623 1507.1 35.2672 Q1503.73 32.4315 1497.62 32.4315 Q1493.73 32.4315 1490.04 33.3632 Q1486.36 34.295 1482.95 36.1584 L1482.95 29.2718 Q1487.04 27.692 1490.89 26.9223 Q1494.74 26.1121 1498.39 26.1121 Q1508.23 26.1121 1513.09 31.2163 Q1517.95 36.3204 1517.95 46.6907 Z" fill="#000000" fill-rule="evenodd" fill-opacity="1" /><path clip-path="url(#clip780)" d="M1563.16 34.0924 L1563.16 9.54393 L1570.62 9.54393 L1570.62 72.576 L1563.16 72.576 L1563.16 65.7705 Q1560.81 69.8214 1557.21 71.8063 Q1553.64 73.7508 1548.62 73.7508 Q1540.4 73.7508 1535.21 67.1883 Q1530.07 60.6258 1530.07 49.9314 Q1530.07 39.2371 1535.21 32.6746 Q1540.4 26.1121 1548.62 26.1121 Q1553.64 26.1121 1557.21 28.0971 Q1560.81 30.0415 1563.16 34.0924 M1537.76 49.9314 Q1537.76 58.1548 1541.12 62.8538 Q1544.53 67.5124 1550.44 67.5124 Q1556.36 67.5124 1559.76 62.8538 Q1563.16 58.1548 1563.16 49.9314 Q1563.16 41.7081 1559.76 37.0496 Q1556.36 32.3505 1550.44 32.3505 Q1544.53 32.3505 1541.12 37.0496 Q1537.76 41.7081 1537.76 49.9314 Z" fill="#000000" fill-rule="evenodd" fill-opacity="1" /><path clip-path="url(#clip780)" d="M1581.63 27.2059 L1589.09 27.2059 L1598.4 62.6108 L1607.68 27.2059 L1616.47 27.2059 L1625.79 62.6108 L1635.07 27.2059 L1642.52 27.2059 L1630.65 72.576 L1621.86 72.576 L1612.1 35.3887 L1602.29 72.576 L1593.5 72.576 L1581.63 27.2059 Z" fill="#000000" fill-rule="evenodd" fill-opacity="1" /><path clip-path="url(#clip780)" d="M1672.7 76.7889 Q1669.54 84.8907 1666.54 87.3618 Q1663.54 89.8329 1658.52 89.8329 L1652.56 89.8329 L1652.56 83.5945 L1656.94 83.5945 Q1660.02 83.5945 1661.72 82.1361 Q1663.42 80.6778 1665.49 75.2496 L1666.82 71.8468 L1648.47 27.2059 L1656.37 27.2059 L1670.55 62.6918 L1684.73 27.2059 L1692.63 27.2059 L1672.7 76.7889 Z" fill="#000000" fill-rule="evenodd" fill-opacity="1" /><path clip-path="url(#clip780)" d="M1712.96 9.54393 L1720.42 9.54393 L1720.42 18.9825 L1712.96 18.9825 L1712.96 9.54393 M1716.77 26.1121 L1716.77 26.1121 M1699.68 27.2059 L1735.08 27.2059 L1735.08 34.0114 L1707.05 66.6212 L1735.08 66.6212 L1735.08 72.576 L1698.66 72.576 L1698.66 65.7705 L1726.7 33.1607 L1699.68 33.1607 L1699.68 27.2059 Z" fill="#000000" fill-rule="evenodd" fill-opacity="1" /><path clip-path="url(#clip780)" d="M1746.18 9.54393 L1753.68 9.54393 L1753.68 46.7717 L1775.91 27.2059 L1785.43 27.2059 L1761.37 48.4326 L1786.45 72.576 L1776.73 72.576 L1753.68 50.4176 L1753.68 72.576 L1746.18 72.576 L1746.18 9.54393 Z" fill="#000000" fill-rule="evenodd" fill-opacity="1" /><path clip-path="url(#clip780)" d="M1813.67 49.7694 Q1804.64 49.7694 1801.15 51.8354 Q1797.67 53.9013 1797.67 58.8839 Q1797.67 62.8538 1800.26 65.2034 Q1802.89 67.5124 1807.39 67.5124 Q1813.59 67.5124 1817.32 63.1374 Q1821.08 58.7219 1821.08 51.4303 L1821.08 49.7694 L1813.67 49.7694 M1828.54 46.6907 L1828.54 72.576 L1821.08 72.576 L1821.08 65.6895 Q1818.53 69.8214 1814.72 71.8063 Q1810.91 73.7508 1805.41 73.7508 Q1798.44 73.7508 1794.31 69.8619 Q1790.21 65.9325 1790.21 59.3701 Q1790.21 51.7138 1795.32 47.825 Q1800.46 43.9361 1810.63 43.9361 L1821.08 43.9361 L1821.08 43.2069 Q1821.08 38.0623 1817.68 35.2672 Q1814.32 32.4315 1808.2 32.4315 Q1804.31 32.4315 1800.63 33.3632 Q1796.94 34.295 1793.54 36.1584 L1793.54 29.2718 Q1797.63 27.692 1801.48 26.9223 Q1805.32 26.1121 1808.97 26.1121 Q1818.81 26.1121 1823.68 31.2163 Q1828.54 36.3204 1828.54 46.6907 Z" fill="#000000" fill-rule="evenodd" fill-opacity="1" /><path clip-path="url(#clip780)" d="M1877.47 65.7705 L1877.47 89.8329 L1869.98 89.8329 L1869.98 27.2059 L1877.47 27.2059 L1877.47 34.0924 Q1879.82 30.0415 1883.39 28.0971 Q1886.99 26.1121 1891.97 26.1121 Q1900.24 26.1121 1905.38 32.6746 Q1910.57 39.2371 1910.57 49.9314 Q1910.57 60.6258 1905.38 67.1883 Q1900.24 73.7508 1891.97 73.7508 Q1886.99 73.7508 1883.39 71.8063 Q1879.82 69.8214 1877.47 65.7705 M1902.83 49.9314 Q1902.83 41.7081 1899.43 37.0496 Q1896.06 32.3505 1890.15 32.3505 Q1884.24 32.3505 1880.83 37.0496 Q1877.47 41.7081 1877.47 49.9314 Q1877.47 58.1548 1880.83 62.8538 Q1884.24 67.5124 1890.15 67.5124 Q1896.06 67.5124 1899.43 62.8538 Q1902.83 58.1548 1902.83 49.9314 Z" fill="#000000" fill-rule="evenodd" fill-opacity="1" /><path clip-path="url(#clip780)" d="M1949.21 34.1734 Q1947.96 33.4443 1946.46 33.1202 Q1945 32.7556 1943.22 32.7556 Q1936.9 32.7556 1933.5 36.8875 Q1930.13 40.9789 1930.13 48.6757 L1930.13 72.576 L1922.64 72.576 L1922.64 27.2059 L1930.13 27.2059 L1930.13 34.2544 Q1932.48 30.1225 1936.25 28.1376 Q1940.02 26.1121 1945.4 26.1121 Q1946.17 26.1121 1947.11 26.2337 Q1948.04 26.3147 1949.17 26.5172 L1949.21 34.1734 Z" fill="#000000" fill-rule="evenodd" fill-opacity="1" /><path clip-path="url(#clip780)" d="M1972.79 32.4315 Q1966.79 32.4315 1963.31 37.1306 Q1959.83 41.7891 1959.83 49.9314 Q1959.83 58.0738 1963.27 62.7728 Q1966.75 67.4314 1972.79 67.4314 Q1978.74 67.4314 1982.23 62.7323 Q1985.71 58.0333 1985.71 49.9314 Q1985.71 41.8701 1982.23 37.1711 Q1978.74 32.4315 1972.79 32.4315 M1972.79 26.1121 Q1982.51 26.1121 1988.06 32.4315 Q1993.61 38.7509 1993.61 49.9314 Q1993.61 61.0714 1988.06 67.4314 Q1982.51 73.7508 1972.79 73.7508 Q1963.03 73.7508 1957.48 67.4314 Q1951.97 61.0714 1951.97 49.9314 Q1951.97 38.7509 1957.48 32.4315 Q1963.03 26.1121 1972.79 26.1121 Z" fill="#000000" fill-rule="evenodd" fill-opacity="1" /><path clip-path="url(#clip780)" d="M2035.82 34.0924 L2035.82 9.54393 L2043.27 9.54393 L2043.27 72.576 L2035.82 72.576 L2035.82 65.7705 Q2033.47 69.8214 2029.87 71.8063 Q2026.3 73.7508 2021.28 73.7508 Q2013.05 73.7508 2007.87 67.1883 Q2002.73 60.6258 2002.73 49.9314 Q2002.73 39.2371 2007.87 32.6746 Q2013.05 26.1121 2021.28 26.1121 Q2026.3 26.1121 2029.87 28.0971 Q2033.47 30.0415 2035.82 34.0924 M2010.42 49.9314 Q2010.42 58.1548 2013.78 62.8538 Q2017.19 67.5124 2023.1 67.5124 Q2029.02 67.5124 2032.42 62.8538 Q2035.82 58.1548 2035.82 49.9314 Q2035.82 41.7081 2032.42 37.0496 Q2029.02 32.3505 2023.1 32.3505 Q2017.19 32.3505 2013.78 37.0496 Q2010.42 41.7081 2010.42 49.9314 Z" fill="#000000" fill-rule="evenodd" fill-opacity="1" /><path clip-path="url(#clip780)" d="M2057.86 54.671 L2057.86 27.2059 L2065.31 27.2059 L2065.31 54.3874 Q2065.31 60.8284 2067.82 64.0691 Q2070.33 67.2693 2075.36 67.2693 Q2081.39 67.2693 2084.88 63.421 Q2088.4 59.5726 2088.4 52.9291 L2088.4 27.2059 L2095.86 27.2059 L2095.86 72.576 L2088.4 72.576 L2088.4 65.6084 Q2085.69 69.7404 2082.08 71.7658 Q2078.52 73.7508 2073.78 73.7508 Q2065.96 73.7508 2061.91 68.8897 Q2057.86 64.0286 2057.86 54.671 M2076.61 26.1121 L2076.61 26.1121 Z" fill="#000000" fill-rule="evenodd" fill-opacity="1" /><path clip-path="url(#clip780)" d="M2143.86 28.9478 L2143.86 35.9153 Q2140.7 34.1734 2137.5 33.3227 Q2134.34 32.4315 2131.1 32.4315 Q2123.85 32.4315 2119.84 37.0496 Q2115.83 41.6271 2115.83 49.9314 Q2115.83 58.2358 2119.84 62.8538 Q2123.85 67.4314 2131.1 67.4314 Q2134.34 67.4314 2137.5 66.5807 Q2140.7 65.6895 2143.86 63.9476 L2143.86 70.8341 Q2140.74 72.2924 2137.38 73.0216 Q2134.06 73.7508 2130.29 73.7508 Q2120.04 73.7508 2114 67.3098 Q2107.97 60.8689 2107.97 49.9314 Q2107.97 38.832 2114.04 32.472 Q2120.16 26.1121 2130.77 26.1121 Q2134.22 26.1121 2137.5 26.8413 Q2140.78 27.5299 2143.86 28.9478 Z" fill="#000000" fill-rule="evenodd" fill-opacity="1" /><path clip-path="url(#clip780)" d="M2195.63 48.0275 L2195.63 51.6733 L2161.36 51.6733 Q2161.84 59.3701 2165.98 63.421 Q2170.15 67.4314 2177.56 67.4314 Q2181.86 67.4314 2185.87 66.3781 Q2189.92 65.3249 2193.89 63.2184 L2193.89 70.267 Q2189.88 71.9684 2185.66 72.8596 Q2181.45 73.7508 2177.12 73.7508 Q2166.26 73.7508 2159.9 67.4314 Q2153.58 61.1119 2153.58 50.3365 Q2153.58 39.1965 2159.58 32.6746 Q2165.61 26.1121 2175.82 26.1121 Q2184.98 26.1121 2190.28 32.0264 Q2195.63 37.9003 2195.63 48.0275 M2188.18 45.84 Q2188.09 39.7232 2184.73 36.0774 Q2181.41 32.4315 2175.9 32.4315 Q2169.66 32.4315 2165.9 35.9558 Q2162.17 39.4801 2161.6 45.8805 L2188.18 45.84 Z" fill="#000000" fill-rule="evenodd" fill-opacity="1" /><path clip-path="url(#clip780)" d="M2245.58 45.1919 L2245.58 72.576 L2238.12 72.576 L2238.12 45.4349 Q2238.12 38.994 2235.61 35.7938 Q2233.1 32.5936 2228.08 32.5936 Q2222.04 32.5936 2218.56 36.4419 Q2215.07 40.2903 2215.07 46.9338 L2215.07 72.576 L2207.58 72.576 L2207.58 27.2059 L2215.07 27.2059 L2215.07 34.2544 Q2217.75 30.163 2221.35 28.1376 Q2225 26.1121 2229.74 26.1121 Q2237.56 26.1121 2241.57 30.9732 Q2245.58 35.7938 2245.58 45.1919 Z" fill="#000000" fill-rule="evenodd" fill-opacity="1" /><path clip-path="url(#clip780)" d="M2267.82 14.324 L2267.82 27.2059 L2283.17 27.2059 L2283.17 32.9987 L2267.82 32.9987 L2267.82 57.6282 Q2267.82 63.1779 2269.32 64.7578 Q2270.85 66.3376 2275.51 66.3376 L2283.17 66.3376 L2283.17 72.576 L2275.51 72.576 Q2266.88 72.576 2263.6 69.3758 Q2260.32 66.1351 2260.32 57.6282 L2260.32 32.9987 L2254.85 32.9987 L2254.85 27.2059 L2260.32 27.2059 L2260.32 14.324 L2267.82 14.324 Z" fill="#000000" fill-rule="evenodd" fill-opacity="1" /><path clip-path="url(#clip780)" d="M2313.59 49.7694 Q2304.56 49.7694 2301.07 51.8354 Q2297.59 53.9013 2297.59 58.8839 Q2297.59 62.8538 2300.18 65.2034 Q2302.82 67.5124 2307.31 67.5124 Q2313.51 67.5124 2317.24 63.1374 Q2321 58.7219 2321 51.4303 L2321 49.7694 L2313.59 49.7694 M2328.46 46.6907 L2328.46 72.576 L2321 72.576 L2321 65.6895 Q2318.45 69.8214 2314.64 71.8063 Q2310.84 73.7508 2305.33 73.7508 Q2298.36 73.7508 2294.23 69.8619 Q2290.14 65.9325 2290.14 59.3701 Q2290.14 51.7138 2295.24 47.825 Q2300.39 43.9361 2310.55 43.9361 L2321 43.9361 L2321 43.2069 Q2321 38.0623 2317.6 35.2672 Q2314.24 32.4315 2308.12 32.4315 Q2304.23 32.4315 2300.55 33.3632 Q2296.86 34.295 2293.46 36.1584 L2293.46 29.2718 Q2297.55 27.692 2301.4 26.9223 Q2305.25 26.1121 2308.89 26.1121 Q2318.74 26.1121 2323.6 31.2163 Q2328.46 36.3204 2328.46 46.6907 Z" fill="#000000" fill-rule="evenodd" fill-opacity="1" /><polyline clip-path="url(#clip782)" style="stroke:#009af9; stroke-linecap:butt; stroke-linejoin:round; stroke-width:4; stroke-opacity:1; fill:none" points="
  410.066,1386.4 431.31,1383.94 521.694,1381.48 533.752,1379.02 550.426,1376.57 558.068,1374.11 561.977,1371.65 562.826,1369.2 564.514,1366.74 570.685,1364.28 
  574.95,1361.82 576.505,1359.37 578.339,1356.91 581.294,1354.45 587.3,1351.99 588.519,1349.54 591.705,1347.08 594.2,1344.62 598.313,1342.17 606.848,1339.71 
  608.033,1337.25 622.952,1334.79 626.2,1332.34 639.678,1329.88 649.956,1327.42 657.342,1324.97 661.533,1322.51 664.205,1320.05 669.814,1317.59 671.999,1315.14 
  675.042,1312.68 676.12,1310.22 676.569,1307.77 681.266,1305.31 686.143,1302.85 692.955,1300.39 694.836,1297.94 698.724,1295.48 699.258,1293.02 699.477,1290.57 
  706.797,1288.11 707.518,1285.65 708.374,1283.19 709.976,1280.74 713.528,1278.28 713.766,1275.82 715.748,1273.36 719.071,1270.91 719.113,1268.45 727.533,1265.99 
  727.708,1263.54 729.137,1261.08 729.316,1258.62 730.499,1256.16 734.933,1253.71 741.024,1251.25 741.184,1248.79 743.813,1246.34 744.241,1243.88 745.385,1241.42 
  745.853,1238.96 747.6,1236.51 748.427,1234.05 748.696,1231.59 749.131,1229.14 749.981,1226.68 754.63,1224.22 755.562,1221.76 755.579,1219.31 755.789,1216.85 
  755.924,1214.39 758.364,1211.93 758.836,1209.48 761.049,1207.02 765.135,1204.56 765.414,1202.11 765.626,1199.65 765.694,1197.19 767.748,1194.73 771.153,1192.28 
  774.804,1189.82 777.42,1187.36 778.46,1184.91 778.499,1182.45 780.462,1179.99 783.712,1177.53 785.036,1175.08 785.722,1172.62 785.746,1170.16 786.699,1167.71 
  787.77,1165.25 788.567,1162.79 789.119,1160.33 790.219,1157.88 791.559,1155.42 792.584,1152.96 793.426,1150.51 796.428,1148.05 796.761,1145.59 798.278,1143.13 
  799.713,1140.68 800.867,1138.22 802.361,1135.76 805.979,1133.3 806.015,1130.85 806.522,1128.39 808.967,1125.93 809.736,1123.48 811.542,1121.02 812.486,1118.56 
  814.441,1116.1 815.038,1113.65 817.69,1111.19 818.038,1108.73 818.233,1106.28 821.991,1103.82 823.014,1101.36 824.149,1098.9 828.57,1096.45 828.724,1093.99 
  828.867,1091.53 829.424,1089.08 829.842,1086.62 831.898,1084.16 832.732,1081.7 834.014,1079.25 834.073,1076.79 835.02,1074.33 837.094,1071.87 837.367,1069.42 
  839.831,1066.96 843.384,1064.5 844.157,1062.05 845.078,1059.59 845.177,1057.13 845.887,1054.67 846.037,1052.22 847.707,1049.76 849.361,1047.3 851.298,1044.85 
  854.794,1042.39 857.406,1039.93 858.112,1037.47 860.229,1035.02 860.699,1032.56 862.239,1030.1 863.232,1027.65 866.778,1025.19 866.874,1022.73 866.994,1020.27 
  867.793,1017.82 870.186,1015.36 871.183,1012.9 873.861,1010.45 874.666,1007.99 875.189,1005.53 882.12,1003.07 883.612,1000.62 883.904,998.159 884.022,995.702 
  886.376,993.245 886.409,990.788 886.993,988.33 888.638,985.873 889.174,983.416 890.544,980.959 892.245,978.502 893.704,976.044 894.707,973.587 895.355,971.13 
  895.973,968.673 896.963,966.216 900.119,963.758 902.317,961.301 902.411,958.844 903.233,956.387 908.218,953.93 908.724,951.472 910.063,949.015 910.756,946.558 
  911.835,944.101 914.066,941.644 914.996,939.187 915.907,936.729 916.408,934.272 918.597,931.815 919.602,929.358 919.694,926.901 920.178,924.443 920.243,921.986 
  922.326,919.529 924.836,917.072 928.281,914.615 929.62,912.157 932.015,909.7 932.14,907.243 935.026,904.786 937.499,902.329 938.007,899.871 939.299,897.414 
  939.544,894.957 940.359,892.5 940.715,890.043 941.762,887.585 943.724,885.128 943.777,882.671 947.834,880.214 949.201,877.757 949.64,875.299 949.966,872.842 
  950.834,870.385 952.834,867.928 953.676,865.471 958.242,863.014 958.579,860.556 958.695,858.099 961.047,855.642 961.554,853.185 962.327,850.728 966.049,848.27 
  966.73,845.813 967.089,843.356 968.011,840.899 970.971,838.442 971.491,835.984 972.171,833.527 972.689,831.07 972.859,828.613 979.595,826.156 980.724,823.698 
  981.565,821.241 985.826,818.784 988.006,816.327 988.831,813.87 989.13,811.412 989.355,808.955 990.08,806.498 990.532,804.041 990.814,801.584 991.886,799.127 
  992.095,796.669 994.163,794.212 995.64,791.755 996.047,789.298 996.469,786.841 996.734,784.383 996.963,781.926 997.27,779.469 997.413,777.012 998.785,774.555 
  1000.78,772.097 1001.56,769.64 1002.94,767.183 1004.57,764.726 1005.32,762.269 1006.37,759.811 1006.91,757.354 1013.91,754.897 1014.17,752.44 1015.05,749.983 
  1020.73,747.525 1022.5,745.068 1023.27,742.611 1024.5,740.154 1026.04,737.697 1029.23,735.239 1029.85,732.782 1031.38,730.325 1032.09,727.868 1032.38,725.411 
  1034.69,722.954 1040.09,720.496 1040.92,718.039 1041.8,715.582 1045.02,713.125 1045.2,710.668 1045.44,708.21 1047.36,705.753 1049.78,703.296 1051.17,700.839 
  1051.33,698.382 1051.4,695.924 1052.88,693.467 1054.65,691.01 1056.39,688.553 1059.33,686.096 1059.36,683.638 1061.05,681.181 1061.26,678.724 1062.5,676.267 
  1064.42,673.81 1064.89,671.352 1065.5,668.895 1070.66,666.438 1070.94,663.981 1070.97,661.524 1075.89,659.067 1076.96,656.609 1080.33,654.152 1082.41,651.695 
  1083.77,649.238 1083.79,646.781 1083.8,644.323 1086.9,641.866 1090.02,639.409 1092.16,636.952 1093.48,634.495 1098.16,632.037 1098.98,629.58 1099.75,627.123 
  1101.29,624.666 1108.9,622.209 1111.06,619.751 1111.28,617.294 1111.49,614.837 1114.49,612.38 1115.05,609.923 1118.1,607.465 1120.28,605.008 1120.36,602.551 
  1122.11,600.094 1124.54,597.637 1125.11,595.179 1128.42,592.722 1130.67,590.265 1130.71,587.808 1131.02,585.351 1131.99,582.894 1132.13,580.436 1137.68,577.979 
  1141.1,575.522 1142.58,573.065 1144.82,570.608 1145.89,568.15 1146.14,565.693 1149.77,563.236 1150.56,560.779 1150.63,558.322 1150.89,555.864 1152.3,553.407 
  1153.14,550.95 1153.27,548.493 1154.44,546.036 1157.85,543.578 1159.15,541.121 1159.37,538.664 1160.2,536.207 1160.63,533.75 1166.33,531.292 1166.37,528.835 
  1167.41,526.378 1169.67,523.921 1169.83,521.464 1172.65,519.006 1179.7,516.549 1183.06,514.092 1186.82,511.635 1190.42,509.178 1190.92,506.721 1191.85,504.263 
  1192.17,501.806 1192.56,499.349 1196.52,496.892 1197.66,494.435 1199.41,491.977 1201.03,489.52 1201.52,487.063 1206.94,484.606 1208.62,482.149 1212.61,479.691 
  1214.07,477.234 1215.46,474.777 1217.55,472.32 1224.54,469.863 1227.76,467.405 1228.7,464.948 1231.35,462.491 1231.99,460.034 1232.17,457.577 1233.55,455.119 
  1234.53,452.662 1235.49,450.205 1235.99,447.748 1236.35,445.291 1239.53,442.834 1239.69,440.376 1242.02,437.919 1243.29,435.462 1244.18,433.005 1244.65,430.548 
  1246.73,428.09 1246.87,425.633 1248.01,423.176 1248.16,420.719 1248.82,418.262 1257.29,415.804 1257.43,413.347 1258.72,410.89 1262.68,408.433 1262.75,405.976 
  1264.12,403.518 1264.78,401.061 1265.21,398.604 1266.1,396.147 1266.66,393.69 1269.87,391.232 1271.55,388.775 1276.86,386.318 1278.39,383.861 1280.96,381.404 
  1290,378.946 1291.67,376.489 1300.62,374.032 1300.9,371.575 1302.1,369.118 1308.02,366.661 1309.34,364.203 1310.08,361.746 1312.14,359.289 1319.8,356.832 
  1331.38,354.375 1334.84,351.917 1339.49,349.46 1339.53,347.003 1340.95,344.546 1342,342.089 1347.64,339.631 1349.86,337.174 1351.34,334.717 1351.94,332.26 
  1354.88,329.803 1355.19,327.345 1357.26,324.888 1358.38,322.431 1359.4,319.974 1359.53,317.517 1360.59,315.059 1366.23,312.602 1367.34,310.145 1369.94,307.688 
  1371.57,305.231 1372.71,302.774 1374.02,300.316 1374.8,297.859 1377.09,295.402 1379.68,292.945 1381.91,290.488 1385.18,288.03 1386.74,285.573 1390.86,283.116 
  1395.81,280.659 1395.87,278.202 1397.27,275.744 1397.43,273.287 1399.14,270.83 1409.99,268.373 1412.53,265.916 1423.41,263.458 1424.3,261.001 1427.08,258.544 
  1427.99,256.087 1429.44,253.63 1435.91,251.172 1443.73,248.715 1453.71,246.258 1454.75,243.801 1468.6,241.344 1470.75,238.886 1471.16,236.429 1475.14,233.972 
  1484.9,231.515 1486.72,229.058 1499.98,226.601 1515.76,224.143 1517.82,221.686 1531.44,219.229 1533.76,216.772 1543.76,214.315 1558.27,211.857 1560.55,209.4 
  1561.1,206.943 1569.07,204.486 1592.01,202.029 1615.24,199.571 1637.07,197.114 1657.6,194.657 1664.18,192.2 1666.1,189.743 1673.37,187.285 1674.09,184.828 
  1701.16,182.371 1714.65,179.914 1750.64,177.457 1766.42,174.999 1839.73,172.542 1864.66,170.085 1868.7,167.628 1923.75,165.171 1923.84,162.713 2128.09,160.256 
  
  "/>
<polyline clip-path="url(#clip782)" style="stroke:#e26f46; stroke-linecap:butt; stroke-linejoin:round; stroke-width:4; stroke-opacity:1; fill:none" points="
  309.067,1386.4 379.65,1383.94 459.257,1381.48 512.592,1379.02 513.072,1376.57 550.904,1374.11 573.962,1371.65 585.983,1369.2 602.152,1366.74 605.849,1364.28 
  609.478,1361.82 615.547,1359.37 619.389,1356.91 620.507,1354.45 624.537,1351.99 633.845,1349.54 641.283,1347.08 642.213,1344.62 643.331,1342.17 644.947,1339.71 
  651.699,1337.25 652.092,1334.79 658.929,1332.34 661.687,1329.88 662.171,1327.42 663.508,1324.97 668.199,1322.51 671.395,1320.05 674.229,1317.59 674.838,1315.14 
  679.349,1312.68 680.139,1310.22 680.169,1307.77 687.404,1305.31 690.295,1302.85 694.55,1300.39 697.162,1297.94 705.978,1295.48 714.622,1293.02 717.07,1290.57 
  717.464,1288.11 718.965,1285.65 719.398,1283.19 719.403,1280.74 719.887,1278.28 729.761,1275.82 732.729,1273.36 736.633,1270.91 737.708,1268.45 740.922,1265.99 
  745.914,1263.54 747.67,1261.08 749.528,1258.62 751.009,1256.16 752.667,1253.71 752.825,1251.25 756.668,1248.79 757.264,1246.34 757.535,1243.88 758.838,1241.42 
  760.344,1238.96 769.711,1236.51 770.156,1234.05 770.313,1231.59 771.674,1229.14 772.629,1226.68 773.443,1224.22 774.031,1221.76 775.104,1219.31 780.027,1216.85 
  780.708,1214.39 781.62,1211.93 782.153,1209.48 782.665,1207.02 784.604,1204.56 784.837,1202.11 785.291,1199.65 785.549,1197.19 786.549,1194.73 786.628,1192.28 
  786.638,1189.82 786.717,1187.36 787.921,1184.91 789.102,1182.45 792.492,1179.99 792.936,1177.53 794.484,1175.08 797.455,1172.62 798.163,1170.16 799.683,1167.71 
  802.137,1165.25 803.31,1162.79 803.817,1160.33 805.63,1157.88 806.866,1155.42 807.142,1152.96 807.152,1150.51 808.647,1148.05 811.434,1145.59 812.463,1143.13 
  812.485,1140.68 814.234,1138.22 816.013,1135.76 816.546,1133.3 816.587,1130.85 817.476,1128.39 820.194,1125.93 822.861,1123.48 823.094,1121.02 826.164,1118.56 
  828.581,1116.1 828.745,1113.65 830.364,1111.19 830.49,1108.73 831.433,1106.28 832.579,1103.82 834.039,1101.36 835.206,1098.9 835.645,1096.45 835.789,1093.99 
  838.263,1091.53 839.178,1089.08 840.976,1086.62 841.465,1084.16 842.834,1081.7 844.058,1079.25 844.125,1076.79 845.692,1074.33 848.256,1071.87 848.448,1069.42 
  851.26,1066.96 851.412,1064.5 852.016,1062.05 852.16,1059.59 852.794,1057.13 852.981,1054.67 853.868,1052.22 854.381,1049.76 854.933,1047.3 855.033,1044.85 
  855.046,1042.39 858.214,1039.93 859.771,1037.47 860.644,1035.02 860.894,1032.56 862.761,1030.1 865.028,1027.65 867.552,1025.19 869.283,1022.73 869.477,1020.27 
  870.952,1017.82 871.374,1015.36 877.296,1012.9 878.128,1010.45 879.174,1007.99 885.016,1005.53 887.778,1003.07 888.733,1000.62 891.028,998.159 891.275,995.702 
  893.895,993.245 894.233,990.788 895.947,988.33 896.466,985.873 897.788,983.416 898.48,980.959 899.806,978.502 902.365,976.044 903.015,973.587 903.766,971.13 
  904.662,968.673 905.23,966.216 906.467,963.758 907.037,961.301 907.043,958.844 908.807,956.387 912.264,953.93 914.065,951.472 915.174,949.015 915.326,946.558 
  918.365,944.101 918.937,941.644 925.418,939.187 929.191,936.729 933.032,934.272 934.279,931.815 934.286,929.358 937.211,926.901 938.888,924.443 939.984,921.986 
  940.49,919.529 942.345,917.072 942.803,914.615 944.083,912.157 944.959,909.7 948.48,907.243 948.714,904.786 950.112,902.329 950.413,899.871 950.806,897.414 
  953.482,894.957 956.173,892.5 956.195,890.043 957.232,887.585 958.622,885.128 962.415,882.671 965.536,880.214 966.115,877.757 967.529,875.299 969.87,872.842 
  970.519,870.385 972.078,867.928 972.078,865.471 972.398,863.014 972.535,860.556 974.101,858.099 975.536,855.642 978.905,853.185 983.054,850.728 984.848,848.27 
  984.874,845.813 985.368,843.356 986.999,840.899 987.564,838.442 987.993,835.984 988.017,833.527 988.469,831.07 988.544,828.613 989.762,826.156 990.064,823.698 
  992.648,821.241 993.11,818.784 993.226,816.327 994.003,813.87 994.818,811.412 995.526,808.955 997.546,806.498 997.773,804.041 998.458,801.584 1000.85,799.127 
  1001.28,796.669 1001.44,794.212 1002.25,791.755 1004.16,789.298 1004.8,786.841 1006,784.383 1007.02,781.926 1007.05,779.469 1009.39,777.012 1009.83,774.555 
  1015.17,772.097 1016.16,769.64 1017.67,767.183 1020.34,764.726 1022.67,762.269 1024.31,759.811 1025.3,757.354 1026.08,754.897 1026.25,752.44 1030.91,749.983 
  1032.67,747.525 1034.62,745.068 1036.88,742.611 1037.48,740.154 1039.86,737.697 1040.91,735.239 1041.84,732.782 1043,730.325 1044.34,727.868 1045.6,725.411 
  1049,722.954 1049.56,720.496 1052.29,718.039 1054.92,715.582 1055.02,713.125 1059.19,710.668 1059.56,708.21 1062.11,705.753 1063.89,703.296 1068.48,700.839 
  1072.51,698.382 1075.54,695.924 1077.71,693.467 1078.91,691.01 1080.39,688.553 1080.6,686.096 1081.74,683.638 1085.2,681.181 1085.37,678.724 1085.99,676.267 
  1090.5,673.81 1093.59,671.352 1094.1,668.895 1094.66,666.438 1097.58,663.981 1097.76,661.524 1098.97,659.067 1099.22,656.609 1103.78,654.152 1104.44,651.695 
  1105.03,649.238 1107.83,646.781 1109.54,644.323 1111.83,641.866 1112.09,639.409 1115.2,636.952 1116.09,634.495 1117.66,632.037 1118.64,629.58 1118.96,627.123 
  1124.34,624.666 1124.92,622.209 1129.28,619.751 1129.59,617.294 1131.41,614.837 1132.77,612.38 1133.49,609.923 1133.93,607.465 1134.21,605.008 1136.49,602.551 
  1138.32,600.094 1141.57,597.637 1142.31,595.179 1143.79,592.722 1144.08,590.265 1144.87,587.808 1145.73,585.351 1147.03,582.894 1147.76,580.436 1147.78,577.979 
  1151.37,575.522 1162.14,573.065 1165.45,570.608 1167.65,568.15 1168.1,565.693 1169.48,563.236 1170.85,560.779 1174.36,558.322 1182.35,555.864 1182.82,553.407 
  1186.63,550.95 1186.76,548.493 1189.31,546.036 1189.73,543.578 1193.11,541.121 1194.74,538.664 1196.05,536.207 1197.65,533.75 1202.61,531.292 1205.83,528.835 
  1206.99,526.378 1207.24,523.921 1208.76,521.464 1216.45,519.006 1216.61,516.549 1221.86,514.092 1225.58,511.635 1225.71,509.178 1228.54,506.721 1229.88,504.263 
  1231.96,501.806 1237.34,499.349 1241.56,496.892 1241.81,494.435 1243.04,491.977 1243.27,489.52 1244.56,487.063 1253.78,484.606 1255.34,482.149 1257,479.691 
  1259.53,477.234 1260.99,474.777 1261.47,472.32 1261.53,469.863 1264.66,467.405 1266.02,464.948 1267.92,462.491 1269.73,460.034 1272.73,457.577 1273.02,455.119 
  1275.89,452.662 1277.96,450.205 1281.11,447.748 1284.38,445.291 1284.75,442.834 1285.11,440.376 1286.61,437.919 1289.67,435.462 1289.84,433.005 1290.44,430.548 
  1298.22,428.09 1300.78,425.633 1301.4,423.176 1301.95,420.719 1301.97,418.262 1302.61,415.804 1303.78,413.347 1309.63,410.89 1314.27,408.433 1315.11,405.976 
  1320.54,403.518 1322.3,401.061 1323.93,398.604 1328.54,396.147 1329.5,393.69 1332.78,391.232 1335.2,388.775 1339.15,386.318 1343.47,383.861 1344.3,381.404 
  1345.22,378.946 1345.57,376.489 1356.61,374.032 1357.4,371.575 1363.45,369.118 1367.77,366.661 1369.01,364.203 1372.34,361.746 1373.3,359.289 1378.94,356.832 
  1385.52,354.375 1386,351.917 1386.22,349.46 1390.2,347.003 1397.87,344.546 1398.02,342.089 1400.1,339.631 1402.49,337.174 1402.94,334.717 1403.39,332.26 
  1404.19,329.803 1405.87,327.345 1406.45,324.888 1407.12,322.431 1407.98,319.974 1408.56,317.517 1409.34,315.059 1409.8,312.602 1414.15,310.145 1414.63,307.688 
  1422.82,305.231 1423.45,302.774 1424.45,300.316 1426.91,297.859 1429.63,295.402 1430.52,292.945 1439.83,290.488 1444.61,288.03 1445.18,285.573 1446.26,283.116 
  1448.39,280.659 1449.59,278.202 1465.08,275.744 1471.43,273.287 1474.39,270.83 1474.71,268.373 1475.77,265.916 1479.41,263.458 1481.36,261.001 1481.52,258.544 
  1486.17,256.087 1491.56,253.63 1493.76,251.172 1502.1,248.715 1502.19,246.258 1511.38,243.801 1514.34,241.344 1514.4,238.886 1523.42,236.429 1531.19,233.972 
  1536.3,231.515 1542.89,229.058 1565.51,226.601 1582.86,224.143 1584.81,221.686 1605.66,219.229 1611.84,216.772 1621.35,214.315 1632.31,211.857 1636.59,209.4 
  1640.13,206.943 1643.58,204.486 1649.48,202.029 1672,199.571 1683.28,197.114 1686.27,194.657 1700.49,192.2 1720.96,189.743 1725.19,187.285 1727.66,184.828 
  1729.5,182.371 1747.71,179.914 1758.4,177.457 1778.48,174.999 1801.25,172.542 1802.81,170.085 1854.84,167.628 1957.69,165.171 2065.3,162.713 2293.23,160.256 
  
  "/>
<path clip-path="url(#clip780)" d="
M1471.06 1379.86 L2282.65 1379.86 L2282.65 1302.1 L1471.06 1302.1  Z
  " fill="#ffffff" fill-rule="evenodd" fill-opacity="1"/>
<polyline clip-path="url(#clip780)" style="stroke:#000000; stroke-linecap:butt; stroke-linejoin:round; stroke-width:4; stroke-opacity:1; fill:none" points="
  1471.06,1379.86 2282.65,1379.86 2282.65,1302.1 1471.06,1302.1 1471.06,1379.86 
  "/>
<polyline clip-path="url(#clip780)" style="stroke:#009af9; stroke-linecap:butt; stroke-linejoin:round; stroke-width:3; stroke-opacity:1; fill:none" points="
  1494.43,1340.98 1634.65,1340.98 
  "/>
<path clip-path="url(#clip780)" d="M1666.83 1321.44 L1670.38 1321.44 L1670.38 1325 L1666.83 1325 L1666.83 1321.44 M1658.41 1328.02 L1678.78 1328.02 L1678.78 1330.69 L1662.39 1350.98 L1679.18 1350.98 L1679.18 1353.94 L1658.01 1353.94 L1658.01 1351.26 L1674.4 1330.97 L1658.41 1330.97 L1658.41 1328.02 Z" fill="#000000" fill-rule="evenodd" fill-opacity="1" /><path clip-path="url(#clip780)" d="M1692.96 1344.16 Q1689.09 1344.16 1687.6 1345.05 Q1686.1 1345.93 1686.1 1348.07 Q1686.1 1349.77 1687.22 1350.78 Q1688.34 1351.77 1690.27 1351.77 Q1692.93 1351.77 1694.52 1349.89 Q1696.14 1348 1696.14 1344.87 L1696.14 1344.16 L1692.96 1344.16 M1699.33 1342.84 L1699.33 1353.94 L1696.14 1353.94 L1696.14 1350.98 Q1695.05 1352.76 1693.41 1353.61 Q1691.78 1354.44 1689.42 1354.44 Q1686.43 1354.44 1684.66 1352.77 Q1682.91 1351.09 1682.91 1348.28 Q1682.91 1345 1685.1 1343.33 Q1687.3 1341.66 1691.66 1341.66 L1696.14 1341.66 L1696.14 1341.35 Q1696.14 1339.14 1694.68 1337.95 Q1693.24 1336.73 1690.62 1336.73 Q1688.95 1336.73 1687.37 1337.13 Q1685.79 1337.53 1684.33 1338.33 L1684.33 1335.38 Q1686.09 1334.7 1687.74 1334.37 Q1689.39 1334.02 1690.95 1334.02 Q1695.17 1334.02 1697.25 1336.21 Q1699.33 1338.4 1699.33 1342.84 Z" fill="#000000" fill-rule="evenodd" fill-opacity="1" /><path clip-path="url(#clip780)" d="M1718.71 1337.44 L1718.71 1326.92 L1721.9 1326.92 L1721.9 1353.94 L1718.71 1353.94 L1718.71 1351.02 Q1717.7 1352.76 1716.16 1353.61 Q1714.63 1354.44 1712.48 1354.44 Q1708.95 1354.44 1706.73 1351.63 Q1704.52 1348.81 1704.52 1344.23 Q1704.52 1339.65 1706.73 1336.84 Q1708.95 1334.02 1712.48 1334.02 Q1714.63 1334.02 1716.16 1334.87 Q1717.7 1335.71 1718.71 1337.44 M1707.82 1344.23 Q1707.82 1347.76 1709.26 1349.77 Q1710.72 1351.77 1713.26 1351.77 Q1715.79 1351.77 1717.25 1349.77 Q1718.71 1347.76 1718.71 1344.23 Q1718.71 1340.71 1717.25 1338.71 Q1715.79 1336.7 1713.26 1336.7 Q1710.72 1336.7 1709.26 1338.71 Q1707.82 1340.71 1707.82 1344.23 Z" fill="#000000" fill-rule="evenodd" fill-opacity="1" /><path clip-path="url(#clip780)" d="M1745.11 1343.42 L1745.11 1344.98 L1730.43 1344.98 Q1730.64 1348.28 1732.41 1350.01 Q1734.19 1351.73 1737.37 1351.73 Q1739.21 1351.73 1740.93 1351.28 Q1742.67 1350.83 1744.37 1349.93 L1744.37 1352.95 Q1742.65 1353.68 1740.84 1354.06 Q1739.04 1354.44 1737.18 1354.44 Q1732.53 1354.44 1729.8 1351.73 Q1727.09 1349.02 1727.09 1344.41 Q1727.09 1339.63 1729.66 1336.84 Q1732.25 1334.02 1736.63 1334.02 Q1740.55 1334.02 1742.82 1336.56 Q1745.11 1339.08 1745.11 1343.42 M1741.92 1342.48 Q1741.89 1339.86 1740.44 1338.29 Q1739.02 1336.73 1736.66 1336.73 Q1733.99 1336.73 1732.37 1338.24 Q1730.77 1339.75 1730.53 1342.5 L1741.92 1342.48 Z" fill="#000000" fill-rule="evenodd" fill-opacity="1" /><path clip-path="url(#clip780)" d="M1766.52 1342.2 L1766.52 1353.94 L1763.33 1353.94 L1763.33 1342.3 Q1763.33 1339.54 1762.25 1338.17 Q1761.17 1336.8 1759.02 1336.8 Q1756.43 1336.8 1754.94 1338.45 Q1753.45 1340.1 1753.45 1342.95 L1753.45 1353.94 L1750.24 1353.94 L1750.24 1334.49 L1753.45 1334.49 L1753.45 1337.51 Q1754.59 1335.76 1756.14 1334.89 Q1757.7 1334.02 1759.73 1334.02 Q1763.08 1334.02 1764.8 1336.11 Q1766.52 1338.17 1766.52 1342.2 Z" fill="#000000" fill-rule="evenodd" fill-opacity="1" /><path clip-path="url(#clip780)" d="M1787.28 1351.02 L1787.28 1361.33 L1784.07 1361.33 L1784.07 1334.49 L1787.28 1334.49 L1787.28 1337.44 Q1788.29 1335.71 1789.82 1334.87 Q1791.36 1334.02 1793.5 1334.02 Q1797.04 1334.02 1799.25 1336.84 Q1801.47 1339.65 1801.47 1344.23 Q1801.47 1348.81 1799.25 1351.63 Q1797.04 1354.44 1793.5 1354.44 Q1791.36 1354.44 1789.82 1353.61 Q1788.29 1352.76 1787.28 1351.02 M1798.15 1344.23 Q1798.15 1340.71 1796.69 1338.71 Q1795.25 1336.7 1792.72 1336.7 Q1790.18 1336.7 1788.73 1338.71 Q1787.28 1340.71 1787.28 1344.23 Q1787.28 1347.76 1788.73 1349.77 Q1790.18 1351.77 1792.72 1351.77 Q1795.25 1351.77 1796.69 1349.77 Q1798.15 1347.76 1798.15 1344.23 Z" fill="#000000" fill-rule="evenodd" fill-opacity="1" /><path clip-path="url(#clip780)" d="M1818.03 1337.48 Q1817.49 1337.17 1816.85 1337.03 Q1816.23 1336.87 1815.46 1336.87 Q1812.75 1336.87 1811.29 1338.64 Q1809.85 1340.39 1809.85 1343.69 L1809.85 1353.94 L1806.64 1353.94 L1806.64 1334.49 L1809.85 1334.49 L1809.85 1337.51 Q1810.86 1335.74 1812.48 1334.89 Q1814.09 1334.02 1816.4 1334.02 Q1816.73 1334.02 1817.13 1334.08 Q1817.53 1334.11 1818.01 1334.2 L1818.03 1337.48 Z" fill="#000000" fill-rule="evenodd" fill-opacity="1" /><path clip-path="url(#clip780)" d="M1828.14 1336.73 Q1825.57 1336.73 1824.07 1338.75 Q1822.58 1340.74 1822.58 1344.23 Q1822.58 1347.72 1824.06 1349.73 Q1825.55 1351.73 1828.14 1351.73 Q1830.69 1351.73 1832.18 1349.72 Q1833.67 1347.7 1833.67 1344.23 Q1833.67 1340.78 1832.18 1338.76 Q1830.69 1336.73 1828.14 1336.73 M1828.14 1334.02 Q1832.3 1334.02 1834.68 1336.73 Q1837.06 1339.44 1837.06 1344.23 Q1837.06 1349.01 1834.68 1351.73 Q1832.3 1354.44 1828.14 1354.44 Q1823.95 1354.44 1821.57 1351.73 Q1819.21 1349.01 1819.21 1344.23 Q1819.21 1339.44 1821.57 1336.73 Q1823.95 1334.02 1828.14 1334.02 Z" fill="#000000" fill-rule="evenodd" fill-opacity="1" /><path clip-path="url(#clip780)" d="M1855.15 1337.44 L1855.15 1326.92 L1858.34 1326.92 L1858.34 1353.94 L1855.15 1353.94 L1855.15 1351.02 Q1854.14 1352.76 1852.6 1353.61 Q1851.07 1354.44 1848.92 1354.44 Q1845.39 1354.44 1843.17 1351.63 Q1840.96 1348.81 1840.96 1344.23 Q1840.96 1339.65 1843.17 1336.84 Q1845.39 1334.02 1848.92 1334.02 Q1851.07 1334.02 1852.6 1334.87 Q1854.14 1335.71 1855.15 1337.44 M1844.26 1344.23 Q1844.26 1347.76 1845.7 1349.77 Q1847.16 1351.77 1849.7 1351.77 Q1852.23 1351.77 1853.69 1349.77 Q1855.15 1347.76 1855.15 1344.23 Q1855.15 1340.71 1853.69 1338.71 Q1852.23 1336.7 1849.7 1336.7 Q1847.16 1336.7 1845.7 1338.71 Q1844.26 1340.71 1844.26 1344.23 Z" fill="#000000" fill-rule="evenodd" fill-opacity="1" /><path clip-path="url(#clip780)" d="M1864.59 1346.26 L1864.59 1334.49 L1867.79 1334.49 L1867.79 1346.14 Q1867.79 1348.9 1868.86 1350.29 Q1869.94 1351.66 1872.09 1351.66 Q1874.68 1351.66 1876.17 1350.01 Q1877.68 1348.36 1877.68 1345.52 L1877.68 1334.49 L1880.88 1334.49 L1880.88 1353.94 L1877.68 1353.94 L1877.68 1350.95 Q1876.52 1352.72 1874.98 1353.59 Q1873.45 1354.44 1871.42 1354.44 Q1868.07 1354.44 1866.33 1352.36 Q1864.59 1350.27 1864.59 1346.26 M1872.63 1334.02 L1872.63 1334.02 Z" fill="#000000" fill-rule="evenodd" fill-opacity="1" /><path clip-path="url(#clip780)" d="M1901.45 1335.24 L1901.45 1338.22 Q1900.1 1337.48 1898.72 1337.11 Q1897.37 1336.73 1895.98 1336.73 Q1892.87 1336.73 1891.16 1338.71 Q1889.44 1340.67 1889.44 1344.23 Q1889.44 1347.79 1891.16 1349.77 Q1892.87 1351.73 1895.98 1351.73 Q1897.37 1351.73 1898.72 1351.37 Q1900.1 1350.98 1901.45 1350.24 L1901.45 1353.19 Q1900.11 1353.81 1898.67 1354.13 Q1897.25 1354.44 1895.63 1354.44 Q1891.24 1354.44 1888.66 1351.68 Q1886.07 1348.92 1886.07 1344.23 Q1886.07 1339.47 1888.67 1336.75 Q1891.29 1334.02 1895.84 1334.02 Q1897.32 1334.02 1898.72 1334.34 Q1900.13 1334.63 1901.45 1335.24 Z" fill="#000000" fill-rule="evenodd" fill-opacity="1" /><path clip-path="url(#clip780)" d="M1923.64 1343.42 L1923.64 1344.98 L1908.95 1344.98 Q1909.16 1348.28 1910.93 1350.01 Q1912.72 1351.73 1915.9 1351.73 Q1917.74 1351.73 1919.45 1351.28 Q1921.19 1350.83 1922.89 1349.93 L1922.89 1352.95 Q1921.17 1353.68 1919.37 1354.06 Q1917.56 1354.44 1915.7 1354.44 Q1911.05 1354.44 1908.33 1351.73 Q1905.62 1349.02 1905.62 1344.41 Q1905.62 1339.63 1908.19 1336.84 Q1910.77 1334.02 1915.15 1334.02 Q1919.07 1334.02 1921.35 1336.56 Q1923.64 1339.08 1923.64 1343.42 M1920.44 1342.48 Q1920.41 1339.86 1918.97 1338.29 Q1917.54 1336.73 1915.18 1336.73 Q1912.51 1336.73 1910.9 1338.24 Q1909.3 1339.75 1909.05 1342.5 L1920.44 1342.48 Z" fill="#000000" fill-rule="evenodd" fill-opacity="1" /><path clip-path="url(#clip780)" d="M1945.04 1342.2 L1945.04 1353.94 L1941.85 1353.94 L1941.85 1342.3 Q1941.85 1339.54 1940.77 1338.17 Q1939.7 1336.8 1937.54 1336.8 Q1934.96 1336.8 1933.46 1338.45 Q1931.97 1340.1 1931.97 1342.95 L1931.97 1353.94 L1928.76 1353.94 L1928.76 1334.49 L1931.97 1334.49 L1931.97 1337.51 Q1933.12 1335.76 1934.66 1334.89 Q1936.22 1334.02 1938.26 1334.02 Q1941.61 1334.02 1943.33 1336.11 Q1945.04 1338.17 1945.04 1342.2 Z" fill="#000000" fill-rule="evenodd" fill-opacity="1" /><path clip-path="url(#clip780)" d="M1954.58 1328.97 L1954.58 1334.49 L1961.16 1334.49 L1961.16 1336.97 L1954.58 1336.97 L1954.58 1347.53 Q1954.58 1349.91 1955.22 1350.59 Q1955.88 1351.26 1957.87 1351.26 L1961.16 1351.26 L1961.16 1353.94 L1957.87 1353.94 Q1954.18 1353.94 1952.77 1352.56 Q1951.36 1351.18 1951.36 1347.53 L1951.36 1336.97 L1949.02 1336.97 L1949.02 1334.49 L1951.36 1334.49 L1951.36 1328.97 L1954.58 1328.97 Z" fill="#000000" fill-rule="evenodd" fill-opacity="1" /><path clip-path="url(#clip780)" d="M1992.82 1342.2 L1992.82 1353.94 L1989.63 1353.94 L1989.63 1342.3 Q1989.63 1339.54 1988.55 1338.17 Q1987.47 1336.8 1985.32 1336.8 Q1982.73 1336.8 1981.24 1338.45 Q1979.75 1340.1 1979.75 1342.95 L1979.75 1353.94 L1976.54 1353.94 L1976.54 1334.49 L1979.75 1334.49 L1979.75 1337.51 Q1980.89 1335.76 1982.44 1334.89 Q1984 1334.02 1986.03 1334.02 Q1989.38 1334.02 1991.1 1336.11 Q1992.82 1338.17 1992.82 1342.2 Z" fill="#000000" fill-rule="evenodd" fill-opacity="1" /><path clip-path="url(#clip780)" d="M1999.19 1334.49 L2002.39 1334.49 L2002.39 1353.94 L1999.19 1353.94 L1999.19 1334.49 M1999.19 1326.92 L2002.39 1326.92 L2002.39 1330.97 L1999.19 1330.97 L1999.19 1326.92 Z" fill="#000000" fill-rule="evenodd" fill-opacity="1" /><path clip-path="url(#clip780)" d="M2025.7 1343.42 L2025.7 1344.98 L2011.02 1344.98 Q2011.22 1348.28 2013 1350.01 Q2014.78 1351.73 2017.96 1351.73 Q2019.8 1351.73 2021.52 1351.28 Q2023.26 1350.83 2024.96 1349.93 L2024.96 1352.95 Q2023.24 1353.68 2021.43 1354.06 Q2019.63 1354.44 2017.77 1354.44 Q2013.12 1354.44 2010.39 1351.73 Q2007.68 1349.02 2007.68 1344.41 Q2007.68 1339.63 2010.25 1336.84 Q2012.84 1334.02 2017.21 1334.02 Q2021.14 1334.02 2023.41 1336.56 Q2025.7 1339.08 2025.7 1343.42 M2022.51 1342.48 Q2022.47 1339.86 2021.03 1338.29 Q2019.61 1336.73 2017.25 1336.73 Q2014.58 1336.73 2012.96 1338.24 Q2011.36 1339.75 2011.12 1342.5 L2022.51 1342.48 Z" fill="#000000" fill-rule="evenodd" fill-opacity="1" /><path clip-path="url(#clip780)" d="M2056.21 1344.23 Q2056.21 1340.71 2054.75 1338.71 Q2053.31 1336.7 2050.77 1336.7 Q2048.24 1336.7 2046.78 1338.71 Q2045.34 1340.71 2045.34 1344.23 Q2045.34 1347.76 2046.78 1349.77 Q2048.24 1351.77 2050.77 1351.77 Q2053.31 1351.77 2054.75 1349.77 Q2056.21 1347.76 2056.21 1344.23 M2045.34 1337.44 Q2046.35 1335.71 2047.87 1334.87 Q2049.42 1334.02 2051.55 1334.02 Q2055.1 1334.02 2057.3 1336.84 Q2059.52 1339.65 2059.52 1344.23 Q2059.52 1348.81 2057.3 1351.63 Q2055.1 1354.44 2051.55 1354.44 Q2049.42 1354.44 2047.87 1353.61 Q2046.35 1352.76 2045.34 1351.02 L2045.34 1353.94 L2042.13 1353.94 L2042.13 1326.92 L2045.34 1326.92 L2045.34 1337.44 Z" fill="#000000" fill-rule="evenodd" fill-opacity="1" /><path clip-path="url(#clip780)" d="M2073.65 1344.16 Q2069.78 1344.16 2068.29 1345.05 Q2066.8 1345.93 2066.8 1348.07 Q2066.8 1349.77 2067.91 1350.78 Q2069.04 1351.77 2070.96 1351.77 Q2073.62 1351.77 2075.22 1349.89 Q2076.83 1348 2076.83 1344.87 L2076.83 1344.16 L2073.65 1344.16 M2080.03 1342.84 L2080.03 1353.94 L2076.83 1353.94 L2076.83 1350.98 Q2075.74 1352.76 2074.11 1353.61 Q2072.47 1354.44 2070.11 1354.44 Q2067.13 1354.44 2065.36 1352.77 Q2063.6 1351.09 2063.6 1348.28 Q2063.6 1345 2065.79 1343.33 Q2067.99 1341.66 2072.35 1341.66 L2076.83 1341.66 L2076.83 1341.35 Q2076.83 1339.14 2075.37 1337.95 Q2073.93 1336.73 2071.31 1336.73 Q2069.64 1336.73 2068.06 1337.13 Q2066.48 1337.53 2065.03 1338.33 L2065.03 1335.38 Q2066.78 1334.7 2068.43 1334.37 Q2070.08 1334.02 2071.64 1334.02 Q2075.86 1334.02 2077.94 1336.21 Q2080.03 1338.4 2080.03 1342.84 Z" fill="#000000" fill-rule="evenodd" fill-opacity="1" /><path clip-path="url(#clip780)" d="M2099.4 1337.44 L2099.4 1326.92 L2102.6 1326.92 L2102.6 1353.94 L2099.4 1353.94 L2099.4 1351.02 Q2098.39 1352.76 2096.85 1353.61 Q2095.32 1354.44 2093.17 1354.44 Q2089.64 1354.44 2087.42 1351.63 Q2085.22 1348.81 2085.22 1344.23 Q2085.22 1339.65 2087.42 1336.84 Q2089.64 1334.02 2093.17 1334.02 Q2095.32 1334.02 2096.85 1334.87 Q2098.39 1335.71 2099.4 1337.44 M2088.52 1344.23 Q2088.52 1347.76 2089.96 1349.77 Q2091.41 1351.77 2093.95 1351.77 Q2096.48 1351.77 2097.94 1349.77 Q2099.4 1347.76 2099.4 1344.23 Q2099.4 1340.71 2097.94 1338.71 Q2096.48 1336.7 2093.95 1336.7 Q2091.41 1336.7 2089.96 1338.71 Q2088.52 1340.71 2088.52 1344.23 Z" fill="#000000" fill-rule="evenodd" fill-opacity="1" /><path clip-path="url(#clip780)" d="M2118.01 1344.16 Q2114.14 1344.16 2112.65 1345.05 Q2111.15 1345.93 2111.15 1348.07 Q2111.15 1349.77 2112.27 1350.78 Q2113.39 1351.77 2115.32 1351.77 Q2117.98 1351.77 2119.57 1349.89 Q2121.19 1348 2121.19 1344.87 L2121.19 1344.16 L2118.01 1344.16 M2124.38 1342.84 L2124.38 1353.94 L2121.19 1353.94 L2121.19 1350.98 Q2120.1 1352.76 2118.46 1353.61 Q2116.83 1354.44 2114.47 1354.44 Q2111.48 1354.44 2109.71 1352.77 Q2107.96 1351.09 2107.96 1348.28 Q2107.96 1345 2110.15 1343.33 Q2112.35 1341.66 2116.71 1341.66 L2121.19 1341.66 L2121.19 1341.35 Q2121.19 1339.14 2119.73 1337.95 Q2118.29 1336.73 2115.67 1336.73 Q2114 1336.73 2112.42 1337.13 Q2110.84 1337.53 2109.38 1338.33 L2109.38 1335.38 Q2111.14 1334.7 2112.79 1334.37 Q2114.44 1334.02 2116 1334.02 Q2120.22 1334.02 2122.3 1336.21 Q2124.38 1338.4 2124.38 1342.84 Z" fill="#000000" fill-rule="evenodd" fill-opacity="1" /><path clip-path="url(#clip780)" d="M2153.53 1337.48 Q2152.99 1337.17 2152.35 1337.03 Q2151.73 1336.87 2150.96 1336.87 Q2148.25 1336.87 2146.8 1338.64 Q2145.36 1340.39 2145.36 1343.69 L2145.36 1353.94 L2142.14 1353.94 L2142.14 1334.49 L2145.36 1334.49 L2145.36 1337.51 Q2146.36 1335.74 2147.98 1334.89 Q2149.59 1334.02 2151.9 1334.02 Q2152.23 1334.02 2152.63 1334.08 Q2153.03 1334.11 2153.52 1334.2 L2153.53 1337.48 Z" fill="#000000" fill-rule="evenodd" fill-opacity="1" /><path clip-path="url(#clip780)" d="M2164.97 1355.74 Q2163.62 1359.21 2162.33 1360.27 Q2161.05 1361.33 2158.9 1361.33 L2156.35 1361.33 L2156.35 1358.66 L2158.22 1358.66 Q2159.54 1358.66 2160.27 1358.03 Q2161 1357.41 2161.88 1355.08 L2162.46 1353.62 L2154.59 1334.49 L2157.98 1334.49 L2164.05 1349.7 L2170.13 1334.49 L2173.52 1334.49 L2164.97 1355.74 Z" fill="#000000" fill-rule="evenodd" fill-opacity="1" /><path clip-path="url(#clip780)" d="M2194.09 1342.2 L2194.09 1353.94 L2190.89 1353.94 L2190.89 1342.3 Q2190.89 1339.54 2189.82 1338.17 Q2188.74 1336.8 2186.59 1336.8 Q2184 1336.8 2182.51 1338.45 Q2181.02 1340.1 2181.02 1342.95 L2181.02 1353.94 L2177.8 1353.94 L2177.8 1334.49 L2181.02 1334.49 L2181.02 1337.51 Q2182.16 1335.76 2183.71 1334.89 Q2185.27 1334.02 2187.3 1334.02 Q2190.65 1334.02 2192.37 1336.11 Q2194.09 1338.17 2194.09 1342.2 Z" fill="#000000" fill-rule="evenodd" fill-opacity="1" /><path clip-path="url(#clip780)" d="M2200.34 1326.92 L2203.55 1326.92 L2203.55 1342.88 L2213.08 1334.49 L2217.16 1334.49 L2206.85 1343.59 L2217.59 1353.94 L2213.43 1353.94 L2203.55 1344.44 L2203.55 1353.94 L2200.34 1353.94 L2200.34 1326.92 Z" fill="#000000" fill-rule="evenodd" fill-opacity="1" /><path clip-path="url(#clip780)" d="M2219.63 1346.26 L2219.63 1334.49 L2222.82 1334.49 L2222.82 1346.14 Q2222.82 1348.9 2223.9 1350.29 Q2224.97 1351.66 2227.13 1351.66 Q2229.71 1351.66 2231.21 1350.01 Q2232.72 1348.36 2232.72 1345.52 L2232.72 1334.49 L2235.91 1334.49 L2235.91 1353.94 L2232.72 1353.94 L2232.72 1350.95 Q2231.55 1352.72 2230.01 1353.59 Q2228.48 1354.44 2226.45 1354.44 Q2223.1 1354.44 2221.36 1352.36 Q2219.63 1350.27 2219.63 1346.26 M2227.66 1334.02 L2227.66 1334.02 Z" fill="#000000" fill-rule="evenodd" fill-opacity="1" /></svg>
