<?xml version="1.0" encoding="utf-8"?>
<svg xmlns="http://www.w3.org/2000/svg" xmlns:xlink="http://www.w3.org/1999/xlink" width="600" height="400" viewBox="0 0 2400 1600">
<defs>
  <clipPath id="clip610">
    <rect x="0" y="0" width="2400" height="1600"/>
  </clipPath>
</defs>
<path clip-path="url(#clip610)" d="
M0 1600 L2400 1600 L2400 0 L0 0  Z
  " fill="#ffffff" fill-rule="evenodd" fill-opacity="1"/>
<defs>
  <clipPath id="clip611">
    <rect x="480" y="0" width="1681" height="1600"/>
  </clipPath>
</defs>
<path clip-path="url(#clip610)" d="
M234.125 1423.18 L2352.76 1423.18 L2352.76 123.472 L234.125 123.472  Z
  " fill="#ffffff" fill-rule="evenodd" fill-opacity="1"/>
<defs>
  <clipPath id="clip612">
    <rect x="234" y="123" width="2120" height="1301"/>
  </clipPath>
</defs>
<polyline clip-path="url(#clip612)" style="stroke:#000000; stroke-linecap:butt; stroke-linejoin:round; stroke-width:2; stroke-opacity:0.1; fill:none" points="
  294.087,1423.18 294.087,123.472 
  "/>
<polyline clip-path="url(#clip612)" style="stroke:#000000; stroke-linecap:butt; stroke-linejoin:round; stroke-width:2; stroke-opacity:0.1; fill:none" points="
  627.205,1423.18 627.205,123.472 
  "/>
<polyline clip-path="url(#clip612)" style="stroke:#000000; stroke-linecap:butt; stroke-linejoin:round; stroke-width:2; stroke-opacity:0.1; fill:none" points="
  960.323,1423.18 960.323,123.472 
  "/>
<polyline clip-path="url(#clip612)" style="stroke:#000000; stroke-linecap:butt; stroke-linejoin:round; stroke-width:2; stroke-opacity:0.1; fill:none" points="
  1293.44,1423.18 1293.44,123.472 
  "/>
<polyline clip-path="url(#clip612)" style="stroke:#000000; stroke-linecap:butt; stroke-linejoin:round; stroke-width:2; stroke-opacity:0.1; fill:none" points="
  1626.56,1423.18 1626.56,123.472 
  "/>
<polyline clip-path="url(#clip612)" style="stroke:#000000; stroke-linecap:butt; stroke-linejoin:round; stroke-width:2; stroke-opacity:0.1; fill:none" points="
  1959.68,1423.18 1959.68,123.472 
  "/>
<polyline clip-path="url(#clip612)" style="stroke:#000000; stroke-linecap:butt; stroke-linejoin:round; stroke-width:2; stroke-opacity:0.1; fill:none" points="
  2292.79,1423.18 2292.79,123.472 
  "/>
<polyline clip-path="url(#clip610)" style="stroke:#000000; stroke-linecap:butt; stroke-linejoin:round; stroke-width:4; stroke-opacity:1; fill:none" points="
  234.125,1423.18 2352.76,1423.18 
  "/>
<polyline clip-path="url(#clip610)" style="stroke:#000000; stroke-linecap:butt; stroke-linejoin:round; stroke-width:4; stroke-opacity:1; fill:none" points="
  294.087,1423.18 294.087,1404.28 
  "/>
<polyline clip-path="url(#clip610)" style="stroke:#000000; stroke-linecap:butt; stroke-linejoin:round; stroke-width:4; stroke-opacity:1; fill:none" points="
  627.205,1423.18 627.205,1404.28 
  "/>
<polyline clip-path="url(#clip610)" style="stroke:#000000; stroke-linecap:butt; stroke-linejoin:round; stroke-width:4; stroke-opacity:1; fill:none" points="
  960.323,1423.18 960.323,1404.28 
  "/>
<polyline clip-path="url(#clip610)" style="stroke:#000000; stroke-linecap:butt; stroke-linejoin:round; stroke-width:4; stroke-opacity:1; fill:none" points="
  1293.44,1423.18 1293.44,1404.28 
  "/>
<polyline clip-path="url(#clip610)" style="stroke:#000000; stroke-linecap:butt; stroke-linejoin:round; stroke-width:4; stroke-opacity:1; fill:none" points="
  1626.56,1423.18 1626.56,1404.28 
  "/>
<polyline clip-path="url(#clip610)" style="stroke:#000000; stroke-linecap:butt; stroke-linejoin:round; stroke-width:4; stroke-opacity:1; fill:none" points="
  1959.68,1423.18 1959.68,1404.28 
  "/>
<polyline clip-path="url(#clip610)" style="stroke:#000000; stroke-linecap:butt; stroke-linejoin:round; stroke-width:4; stroke-opacity:1; fill:none" points="
  2292.79,1423.18 2292.79,1404.28 
  "/>
<path clip-path="url(#clip610)" d="M226.031 1468.75 L255.707 1468.75 L255.707 1472.69 L226.031 1472.69 L226.031 1468.75 Z" fill="#000000" fill-rule="evenodd" fill-opacity="1" /><path clip-path="url(#clip610)" d="M275.8 1454.1 Q272.189 1454.1 270.36 1457.66 Q268.554 1461.2 268.554 1468.33 Q268.554 1475.44 270.36 1479.01 Q272.189 1482.55 275.8 1482.55 Q279.434 1482.55 281.24 1479.01 Q283.068 1475.44 283.068 1468.33 Q283.068 1461.2 281.24 1457.66 Q279.434 1454.1 275.8 1454.1 M275.8 1450.39 Q281.61 1450.39 284.665 1455 Q287.744 1459.58 287.744 1468.33 Q287.744 1477.06 284.665 1481.67 Q281.61 1486.25 275.8 1486.25 Q269.99 1486.25 266.911 1481.67 Q263.855 1477.06 263.855 1468.33 Q263.855 1459.58 266.911 1455 Q269.99 1450.39 275.8 1450.39 Z" fill="#000000" fill-rule="evenodd" fill-opacity="1" /><path clip-path="url(#clip610)" d="M295.962 1479.7 L300.846 1479.7 L300.846 1485.58 L295.962 1485.58 L295.962 1479.7 Z" fill="#000000" fill-rule="evenodd" fill-opacity="1" /><path clip-path="url(#clip610)" d="M311.841 1481.64 L319.48 1481.64 L319.48 1455.28 L311.17 1456.95 L311.17 1452.69 L319.434 1451.02 L324.11 1451.02 L324.11 1481.64 L331.749 1481.64 L331.749 1485.58 L311.841 1485.58 L311.841 1481.64 Z" fill="#000000" fill-rule="evenodd" fill-opacity="1" /><path clip-path="url(#clip610)" d="M341.239 1451.02 L359.596 1451.02 L359.596 1454.96 L345.522 1454.96 L345.522 1463.43 Q346.54 1463.08 347.559 1462.92 Q348.577 1462.73 349.596 1462.73 Q355.383 1462.73 358.762 1465.9 Q362.142 1469.08 362.142 1474.49 Q362.142 1480.07 358.67 1483.17 Q355.197 1486.25 348.878 1486.25 Q346.702 1486.25 344.434 1485.88 Q342.188 1485.51 339.781 1484.77 L339.781 1480.07 Q341.864 1481.2 344.086 1481.76 Q346.309 1482.32 348.785 1482.32 Q352.79 1482.32 355.128 1480.21 Q357.466 1478.1 357.466 1474.49 Q357.466 1470.88 355.128 1468.77 Q352.79 1466.67 348.785 1466.67 Q346.91 1466.67 345.035 1467.08 Q343.184 1467.5 341.239 1468.38 L341.239 1451.02 Z" fill="#000000" fill-rule="evenodd" fill-opacity="1" /><path clip-path="url(#clip610)" d="M558.652 1468.75 L588.328 1468.75 L588.328 1472.69 L558.652 1472.69 L558.652 1468.75 Z" fill="#000000" fill-rule="evenodd" fill-opacity="1" /><path clip-path="url(#clip610)" d="M608.42 1454.1 Q604.809 1454.1 602.98 1457.66 Q601.175 1461.2 601.175 1468.33 Q601.175 1475.44 602.98 1479.01 Q604.809 1482.55 608.42 1482.55 Q612.054 1482.55 613.86 1479.01 Q615.689 1475.44 615.689 1468.33 Q615.689 1461.2 613.86 1457.66 Q612.054 1454.1 608.42 1454.1 M608.42 1450.39 Q614.23 1450.39 617.286 1455 Q620.364 1459.58 620.364 1468.33 Q620.364 1477.06 617.286 1481.67 Q614.23 1486.25 608.42 1486.25 Q602.61 1486.25 599.531 1481.67 Q596.476 1477.06 596.476 1468.33 Q596.476 1459.58 599.531 1455 Q602.61 1450.39 608.42 1450.39 Z" fill="#000000" fill-rule="evenodd" fill-opacity="1" /><path clip-path="url(#clip610)" d="M628.582 1479.7 L633.466 1479.7 L633.466 1485.58 L628.582 1485.58 L628.582 1479.7 Z" fill="#000000" fill-rule="evenodd" fill-opacity="1" /><path clip-path="url(#clip610)" d="M644.462 1481.64 L652.1 1481.64 L652.1 1455.28 L643.79 1456.95 L643.79 1452.69 L652.054 1451.02 L656.73 1451.02 L656.73 1481.64 L664.369 1481.64 L664.369 1485.58 L644.462 1485.58 L644.462 1481.64 Z" fill="#000000" fill-rule="evenodd" fill-opacity="1" /><path clip-path="url(#clip610)" d="M683.813 1454.1 Q680.202 1454.1 678.373 1457.66 Q676.568 1461.2 676.568 1468.33 Q676.568 1475.44 678.373 1479.01 Q680.202 1482.55 683.813 1482.55 Q687.447 1482.55 689.253 1479.01 Q691.082 1475.44 691.082 1468.33 Q691.082 1461.2 689.253 1457.66 Q687.447 1454.1 683.813 1454.1 M683.813 1450.39 Q689.623 1450.39 692.679 1455 Q695.758 1459.58 695.758 1468.33 Q695.758 1477.06 692.679 1481.67 Q689.623 1486.25 683.813 1486.25 Q678.003 1486.25 674.924 1481.67 Q671.869 1477.06 671.869 1468.33 Q671.869 1459.58 674.924 1455 Q678.003 1450.39 683.813 1450.39 Z" fill="#000000" fill-rule="evenodd" fill-opacity="1" /><path clip-path="url(#clip610)" d="M892.267 1468.75 L921.943 1468.75 L921.943 1472.69 L892.267 1472.69 L892.267 1468.75 Z" fill="#000000" fill-rule="evenodd" fill-opacity="1" /><path clip-path="url(#clip610)" d="M942.036 1454.1 Q938.425 1454.1 936.596 1457.66 Q934.79 1461.2 934.79 1468.33 Q934.79 1475.44 936.596 1479.01 Q938.425 1482.55 942.036 1482.55 Q945.67 1482.55 947.476 1479.01 Q949.304 1475.44 949.304 1468.33 Q949.304 1461.2 947.476 1457.66 Q945.67 1454.1 942.036 1454.1 M942.036 1450.39 Q947.846 1450.39 950.901 1455 Q953.98 1459.58 953.98 1468.33 Q953.98 1477.06 950.901 1481.67 Q947.846 1486.25 942.036 1486.25 Q936.226 1486.25 933.147 1481.67 Q930.091 1477.06 930.091 1468.33 Q930.091 1459.58 933.147 1455 Q936.226 1450.39 942.036 1450.39 Z" fill="#000000" fill-rule="evenodd" fill-opacity="1" /><path clip-path="url(#clip610)" d="M962.198 1479.7 L967.082 1479.7 L967.082 1485.58 L962.198 1485.58 L962.198 1479.7 Z" fill="#000000" fill-rule="evenodd" fill-opacity="1" /><path clip-path="url(#clip610)" d="M987.267 1454.1 Q983.656 1454.1 981.827 1457.66 Q980.022 1461.2 980.022 1468.33 Q980.022 1475.44 981.827 1479.01 Q983.656 1482.55 987.267 1482.55 Q990.901 1482.55 992.707 1479.01 Q994.535 1475.44 994.535 1468.33 Q994.535 1461.2 992.707 1457.66 Q990.901 1454.1 987.267 1454.1 M987.267 1450.39 Q993.077 1450.39 996.133 1455 Q999.211 1459.58 999.211 1468.33 Q999.211 1477.06 996.133 1481.67 Q993.077 1486.25 987.267 1486.25 Q981.457 1486.25 978.378 1481.67 Q975.323 1477.06 975.323 1468.33 Q975.323 1459.58 978.378 1455 Q981.457 1450.39 987.267 1450.39 Z" fill="#000000" fill-rule="evenodd" fill-opacity="1" /><path clip-path="url(#clip610)" d="M1007.48 1451.02 L1025.83 1451.02 L1025.83 1454.96 L1011.76 1454.96 L1011.76 1463.43 Q1012.78 1463.08 1013.79 1462.92 Q1014.81 1462.73 1015.83 1462.73 Q1021.62 1462.73 1025 1465.9 Q1028.38 1469.08 1028.38 1474.49 Q1028.38 1480.07 1024.91 1483.17 Q1021.43 1486.25 1015.11 1486.25 Q1012.94 1486.25 1010.67 1485.88 Q1008.42 1485.51 1006.02 1484.77 L1006.02 1480.07 Q1008.1 1481.2 1010.32 1481.76 Q1012.54 1482.32 1015.02 1482.32 Q1019.03 1482.32 1021.36 1480.21 Q1023.7 1478.1 1023.7 1474.49 Q1023.7 1470.88 1021.36 1468.77 Q1019.03 1466.67 1015.02 1466.67 Q1013.15 1466.67 1011.27 1467.08 Q1009.42 1467.5 1007.48 1468.38 L1007.48 1451.02 Z" fill="#000000" fill-rule="evenodd" fill-opacity="1" /><path clip-path="url(#clip610)" d="M1255.74 1454.1 Q1252.13 1454.1 1250.3 1457.66 Q1248.5 1461.2 1248.5 1468.33 Q1248.5 1475.44 1250.3 1479.01 Q1252.13 1482.55 1255.74 1482.55 Q1259.38 1482.55 1261.18 1479.01 Q1263.01 1475.44 1263.01 1468.33 Q1263.01 1461.2 1261.18 1457.66 Q1259.38 1454.1 1255.74 1454.1 M1255.74 1450.39 Q1261.55 1450.39 1264.61 1455 Q1267.69 1459.58 1267.69 1468.33 Q1267.69 1477.06 1264.61 1481.67 Q1261.55 1486.25 1255.74 1486.25 Q1249.93 1486.25 1246.86 1481.67 Q1243.8 1477.06 1243.8 1468.33 Q1243.8 1459.58 1246.86 1455 Q1249.93 1450.39 1255.74 1450.39 Z" fill="#000000" fill-rule="evenodd" fill-opacity="1" /><path clip-path="url(#clip610)" d="M1275.91 1479.7 L1280.79 1479.7 L1280.79 1485.58 L1275.91 1485.58 L1275.91 1479.7 Z" fill="#000000" fill-rule="evenodd" fill-opacity="1" /><path clip-path="url(#clip610)" d="M1300.98 1454.1 Q1297.36 1454.1 1295.54 1457.66 Q1293.73 1461.2 1293.73 1468.33 Q1293.73 1475.44 1295.54 1479.01 Q1297.36 1482.55 1300.98 1482.55 Q1304.61 1482.55 1306.42 1479.01 Q1308.24 1475.44 1308.24 1468.33 Q1308.24 1461.2 1306.42 1457.66 Q1304.61 1454.1 1300.98 1454.1 M1300.98 1450.39 Q1306.79 1450.39 1309.84 1455 Q1312.92 1459.58 1312.92 1468.33 Q1312.92 1477.06 1309.84 1481.67 Q1306.79 1486.25 1300.98 1486.25 Q1295.17 1486.25 1292.09 1481.67 Q1289.03 1477.06 1289.03 1468.33 Q1289.03 1459.58 1292.09 1455 Q1295.17 1450.39 1300.98 1450.39 Z" fill="#000000" fill-rule="evenodd" fill-opacity="1" /><path clip-path="url(#clip610)" d="M1331.14 1454.1 Q1327.53 1454.1 1325.7 1457.66 Q1323.89 1461.2 1323.89 1468.33 Q1323.89 1475.44 1325.7 1479.01 Q1327.53 1482.55 1331.14 1482.55 Q1334.77 1482.55 1336.58 1479.01 Q1338.41 1475.44 1338.41 1468.33 Q1338.41 1461.2 1336.58 1457.66 Q1334.77 1454.1 1331.14 1454.1 M1331.14 1450.39 Q1336.95 1450.39 1340 1455 Q1343.08 1459.58 1343.08 1468.33 Q1343.08 1477.06 1340 1481.67 Q1336.95 1486.25 1331.14 1486.25 Q1325.33 1486.25 1322.25 1481.67 Q1319.19 1477.06 1319.19 1468.33 Q1319.19 1459.58 1322.25 1455 Q1325.33 1450.39 1331.14 1450.39 Z" fill="#000000" fill-rule="evenodd" fill-opacity="1" /><path clip-path="url(#clip610)" d="M1589.36 1454.1 Q1585.75 1454.1 1583.92 1457.66 Q1582.11 1461.2 1582.11 1468.33 Q1582.11 1475.44 1583.92 1479.01 Q1585.75 1482.55 1589.36 1482.55 Q1592.99 1482.55 1594.8 1479.01 Q1596.63 1475.44 1596.63 1468.33 Q1596.63 1461.2 1594.8 1457.66 Q1592.99 1454.1 1589.36 1454.1 M1589.36 1450.39 Q1595.17 1450.39 1598.23 1455 Q1601.3 1459.58 1601.3 1468.33 Q1601.3 1477.06 1598.23 1481.67 Q1595.17 1486.25 1589.36 1486.25 Q1583.55 1486.25 1580.47 1481.67 Q1577.42 1477.06 1577.42 1468.33 Q1577.42 1459.58 1580.47 1455 Q1583.55 1450.39 1589.36 1450.39 Z" fill="#000000" fill-rule="evenodd" fill-opacity="1" /><path clip-path="url(#clip610)" d="M1609.52 1479.7 L1614.41 1479.7 L1614.41 1485.58 L1609.52 1485.58 L1609.52 1479.7 Z" fill="#000000" fill-rule="evenodd" fill-opacity="1" /><path clip-path="url(#clip610)" d="M1634.59 1454.1 Q1630.98 1454.1 1629.15 1457.66 Q1627.35 1461.2 1627.35 1468.33 Q1627.35 1475.44 1629.15 1479.01 Q1630.98 1482.55 1634.59 1482.55 Q1638.23 1482.55 1640.03 1479.01 Q1641.86 1475.44 1641.86 1468.33 Q1641.86 1461.2 1640.03 1457.66 Q1638.23 1454.1 1634.59 1454.1 M1634.59 1450.39 Q1640.4 1450.39 1643.46 1455 Q1646.54 1459.58 1646.54 1468.33 Q1646.54 1477.06 1643.46 1481.67 Q1640.4 1486.25 1634.59 1486.25 Q1628.78 1486.25 1625.7 1481.67 Q1622.65 1477.06 1622.65 1468.33 Q1622.65 1459.58 1625.7 1455 Q1628.78 1450.39 1634.59 1450.39 Z" fill="#000000" fill-rule="evenodd" fill-opacity="1" /><path clip-path="url(#clip610)" d="M1654.8 1451.02 L1673.16 1451.02 L1673.16 1454.96 L1659.08 1454.96 L1659.08 1463.43 Q1660.1 1463.08 1661.12 1462.92 Q1662.14 1462.73 1663.16 1462.73 Q1668.94 1462.73 1672.32 1465.9 Q1675.7 1469.08 1675.7 1474.49 Q1675.7 1480.07 1672.23 1483.17 Q1668.76 1486.25 1662.44 1486.25 Q1660.26 1486.25 1657.99 1485.88 Q1655.75 1485.51 1653.34 1484.77 L1653.34 1480.07 Q1655.42 1481.2 1657.65 1481.76 Q1659.87 1482.32 1662.35 1482.32 Q1666.35 1482.32 1668.69 1480.21 Q1671.03 1478.1 1671.03 1474.49 Q1671.03 1470.88 1668.69 1468.77 Q1666.35 1466.67 1662.35 1466.67 Q1660.47 1466.67 1658.6 1467.08 Q1656.74 1467.5 1654.8 1468.38 L1654.8 1451.02 Z" fill="#000000" fill-rule="evenodd" fill-opacity="1" /><path clip-path="url(#clip610)" d="M1921.98 1454.1 Q1918.37 1454.1 1916.54 1457.66 Q1914.73 1461.2 1914.73 1468.33 Q1914.73 1475.44 1916.54 1479.01 Q1918.37 1482.55 1921.98 1482.55 Q1925.61 1482.55 1927.42 1479.01 Q1929.25 1475.44 1929.25 1468.33 Q1929.25 1461.2 1927.42 1457.66 Q1925.61 1454.1 1921.98 1454.1 M1921.98 1450.39 Q1927.79 1450.39 1930.85 1455 Q1933.92 1459.58 1933.92 1468.33 Q1933.92 1477.06 1930.85 1481.67 Q1927.79 1486.25 1921.98 1486.25 Q1916.17 1486.25 1913.09 1481.67 Q1910.04 1477.06 1910.04 1468.33 Q1910.04 1459.58 1913.09 1455 Q1916.17 1450.39 1921.98 1450.39 Z" fill="#000000" fill-rule="evenodd" fill-opacity="1" /><path clip-path="url(#clip610)" d="M1942.14 1479.7 L1947.03 1479.7 L1947.03 1485.58 L1942.14 1485.58 L1942.14 1479.7 Z" fill="#000000" fill-rule="evenodd" fill-opacity="1" /><path clip-path="url(#clip610)" d="M1958.02 1481.64 L1965.66 1481.64 L1965.66 1455.28 L1957.35 1456.95 L1957.35 1452.69 L1965.61 1451.02 L1970.29 1451.02 L1970.29 1481.64 L1977.93 1481.64 L1977.93 1485.58 L1958.02 1485.58 L1958.02 1481.64 Z" fill="#000000" fill-rule="evenodd" fill-opacity="1" /><path clip-path="url(#clip610)" d="M1997.37 1454.1 Q1993.76 1454.1 1991.93 1457.66 Q1990.13 1461.2 1990.13 1468.33 Q1990.13 1475.44 1991.93 1479.01 Q1993.76 1482.55 1997.37 1482.55 Q2001.01 1482.55 2002.81 1479.01 Q2004.64 1475.44 2004.64 1468.33 Q2004.64 1461.2 2002.81 1457.66 Q2001.01 1454.1 1997.37 1454.1 M1997.37 1450.39 Q2003.18 1450.39 2006.24 1455 Q2009.32 1459.58 2009.32 1468.33 Q2009.32 1477.06 2006.24 1481.67 Q2003.18 1486.25 1997.37 1486.25 Q1991.56 1486.25 1988.48 1481.67 Q1985.43 1477.06 1985.43 1468.33 Q1985.43 1459.58 1988.48 1455 Q1991.56 1450.39 1997.37 1450.39 Z" fill="#000000" fill-rule="evenodd" fill-opacity="1" /><path clip-path="url(#clip610)" d="M2255.6 1454.1 Q2251.98 1454.1 2250.16 1457.66 Q2248.35 1461.2 2248.35 1468.33 Q2248.35 1475.44 2250.16 1479.01 Q2251.98 1482.55 2255.6 1482.55 Q2259.23 1482.55 2261.04 1479.01 Q2262.86 1475.44 2262.86 1468.33 Q2262.86 1461.2 2261.04 1457.66 Q2259.23 1454.1 2255.6 1454.1 M2255.6 1450.39 Q2261.41 1450.39 2264.46 1455 Q2267.54 1459.58 2267.54 1468.33 Q2267.54 1477.06 2264.46 1481.67 Q2261.41 1486.25 2255.6 1486.25 Q2249.79 1486.25 2246.71 1481.67 Q2243.65 1477.06 2243.65 1468.33 Q2243.65 1459.58 2246.71 1455 Q2249.79 1450.39 2255.6 1450.39 Z" fill="#000000" fill-rule="evenodd" fill-opacity="1" /><path clip-path="url(#clip610)" d="M2275.76 1479.7 L2280.64 1479.7 L2280.64 1485.58 L2275.76 1485.58 L2275.76 1479.7 Z" fill="#000000" fill-rule="evenodd" fill-opacity="1" /><path clip-path="url(#clip610)" d="M2291.64 1481.64 L2299.28 1481.64 L2299.28 1455.28 L2290.97 1456.95 L2290.97 1452.69 L2299.23 1451.02 L2303.91 1451.02 L2303.91 1481.64 L2311.54 1481.64 L2311.54 1485.58 L2291.64 1485.58 L2291.64 1481.64 Z" fill="#000000" fill-rule="evenodd" fill-opacity="1" /><path clip-path="url(#clip610)" d="M2321.04 1451.02 L2339.39 1451.02 L2339.39 1454.96 L2325.32 1454.96 L2325.32 1463.43 Q2326.34 1463.08 2327.35 1462.92 Q2328.37 1462.73 2329.39 1462.73 Q2335.18 1462.73 2338.56 1465.9 Q2341.94 1469.08 2341.94 1474.49 Q2341.94 1480.07 2338.47 1483.17 Q2334.99 1486.25 2328.67 1486.25 Q2326.5 1486.25 2324.23 1485.88 Q2321.98 1485.51 2319.58 1484.77 L2319.58 1480.07 Q2321.66 1481.2 2323.88 1481.76 Q2326.1 1482.32 2328.58 1482.32 Q2332.59 1482.32 2334.92 1480.21 Q2337.26 1478.1 2337.26 1474.49 Q2337.26 1470.88 2334.92 1468.77 Q2332.59 1466.67 2328.58 1466.67 Q2326.71 1466.67 2324.83 1467.08 Q2322.98 1467.5 2321.04 1468.38 L2321.04 1451.02 Z" fill="#000000" fill-rule="evenodd" fill-opacity="1" /><path clip-path="url(#clip610)" d="M448.218 1545.76 Q450.287 1546.46 452.228 1548.76 Q454.202 1551.05 456.175 1555.06 L462.7 1568.04 L455.793 1568.04 L449.714 1555.85 Q447.359 1551.08 445.131 1549.52 Q442.935 1547.96 439.115 1547.96 L432.113 1547.96 L432.113 1568.04 L425.683 1568.04 L425.683 1520.52 L440.197 1520.52 Q448.345 1520.52 452.356 1523.93 Q456.366 1527.34 456.366 1534.21 Q456.366 1538.7 454.265 1541.66 Q452.197 1544.62 448.218 1545.76 M432.113 1525.81 L432.113 1542.68 L440.197 1542.68 Q444.844 1542.68 447.2 1540.54 Q449.587 1538.38 449.587 1534.21 Q449.587 1530.04 447.2 1527.94 Q444.844 1525.81 440.197 1525.81 L432.113 1525.81 Z" fill="#000000" fill-rule="evenodd" fill-opacity="1" /><path clip-path="url(#clip610)" d="M481.606 1536.5 Q476.896 1536.5 474.158 1540.19 Q471.421 1543.85 471.421 1550.25 Q471.421 1556.65 474.126 1560.34 Q476.864 1564 481.606 1564 Q486.285 1564 489.022 1560.31 Q491.759 1556.62 491.759 1550.25 Q491.759 1543.92 489.022 1540.23 Q486.285 1536.5 481.606 1536.5 M481.606 1531.54 Q489.245 1531.54 493.606 1536.5 Q497.966 1541.47 497.966 1550.25 Q497.966 1559 493.606 1564 Q489.245 1568.97 481.606 1568.97 Q473.936 1568.97 469.575 1564 Q465.246 1559 465.246 1550.25 Q465.246 1541.47 469.575 1536.5 Q473.936 1531.54 481.606 1531.54 M486.03 1515.91 L492.364 1515.91 L481.988 1527.88 L477.118 1527.88 L486.03 1515.91 Z" fill="#000000" fill-rule="evenodd" fill-opacity="1" /><path clip-path="url(#clip610)" d="M515.567 1518.52 L521.424 1518.52 L521.424 1525.93 L515.567 1525.93 L515.567 1518.52 M518.559 1531.54 L518.559 1531.54 M505.127 1532.4 L532.946 1532.4 L532.946 1537.74 L510.92 1563.37 L532.946 1563.37 L532.946 1568.04 L504.332 1568.04 L504.332 1562.7 L526.357 1537.07 L505.127 1537.07 L505.127 1532.4 Z" fill="#000000" fill-rule="evenodd" fill-opacity="1" /><path clip-path="url(#clip610)" d="M571.522 1546.53 L571.522 1568.04 L565.665 1568.04 L565.665 1546.72 Q565.665 1541.66 563.692 1539.14 Q561.719 1536.63 557.772 1536.63 Q553.029 1536.63 550.292 1539.65 Q547.555 1542.68 547.555 1547.9 L547.555 1568.04 L541.667 1568.04 L541.667 1532.4 L547.555 1532.4 L547.555 1537.93 Q549.656 1534.72 552.488 1533.13 Q555.353 1531.54 559.077 1531.54 Q565.22 1531.54 568.371 1535.36 Q571.522 1539.14 571.522 1546.53 Z" fill="#000000" fill-rule="evenodd" fill-opacity="1" /><path clip-path="url(#clip610)" d="M583.203 1532.4 L589.059 1532.4 L589.059 1568.04 L583.203 1568.04 L583.203 1532.4 M583.203 1518.52 L589.059 1518.52 L589.059 1525.93 L583.203 1525.93 L583.203 1518.52 Z" fill="#000000" fill-rule="evenodd" fill-opacity="1" /><path clip-path="url(#clip610)" d="M626.967 1533.76 L626.967 1539.24 Q624.484 1537.87 621.97 1537.2 Q619.487 1536.5 616.941 1536.5 Q611.244 1536.5 608.093 1540.13 Q604.942 1543.73 604.942 1550.25 Q604.942 1556.78 608.093 1560.4 Q611.244 1564 616.941 1564 Q619.487 1564 621.97 1563.33 Q624.484 1562.63 626.967 1561.26 L626.967 1566.68 Q624.516 1567.82 621.875 1568.39 Q619.265 1568.97 616.305 1568.97 Q608.252 1568.97 603.509 1563.91 Q598.767 1558.85 598.767 1550.25 Q598.767 1541.53 603.541 1536.53 Q608.347 1531.54 616.686 1531.54 Q619.392 1531.54 621.97 1532.11 Q624.548 1532.65 626.967 1533.76 Z" fill="#000000" fill-rule="evenodd" fill-opacity="1" /><path clip-path="url(#clip610)" d="M653.353 1550.12 Q646.255 1550.12 643.518 1551.75 Q640.781 1553.37 640.781 1557.29 Q640.781 1560.4 642.818 1562.25 Q644.887 1564.07 648.42 1564.07 Q653.289 1564.07 656.218 1560.63 Q659.178 1557.16 659.178 1551.43 L659.178 1550.12 L653.353 1550.12 M665.034 1547.71 L665.034 1568.04 L659.178 1568.04 L659.178 1562.63 Q657.172 1565.88 654.181 1567.44 Q651.189 1568.97 646.86 1568.97 Q641.385 1568.97 638.139 1565.91 Q634.924 1562.82 634.924 1557.67 Q634.924 1551.65 638.935 1548.6 Q642.977 1545.54 650.966 1545.54 L659.178 1545.54 L659.178 1544.97 Q659.178 1540.93 656.504 1538.73 Q653.862 1536.5 649.056 1536.5 Q646.001 1536.5 643.104 1537.23 Q640.208 1537.97 637.534 1539.43 L637.534 1534.02 Q640.749 1532.78 643.773 1532.17 Q646.796 1531.54 649.661 1531.54 Q657.395 1531.54 661.215 1535.55 Q665.034 1539.56 665.034 1547.71 Z" fill="#000000" fill-rule="evenodd" fill-opacity="1" /><path clip-path="url(#clip610)" d="M694.412 1532.4 L700.268 1532.4 L707.589 1560.21 L714.878 1532.4 L721.784 1532.4 L729.105 1560.21 L736.394 1532.4 L742.25 1532.4 L732.924 1568.04 L726.018 1568.04 L718.347 1538.83 L710.644 1568.04 L703.738 1568.04 L694.412 1532.4 Z" fill="#000000" fill-rule="evenodd" fill-opacity="1" /><path clip-path="url(#clip610)" d="M768.445 1532.4 L774.301 1532.4 L781.622 1560.21 L788.911 1532.4 L795.817 1532.4 L803.138 1560.21 L810.427 1532.4 L816.283 1532.4 L806.957 1568.04 L800.051 1568.04 L792.38 1538.83 L784.677 1568.04 L777.771 1568.04 L768.445 1532.4 Z" fill="#000000" fill-rule="evenodd" fill-opacity="1" /><path clip-path="url(#clip610)" d="M825.163 1532.4 L831.02 1532.4 L831.02 1568.04 L825.163 1568.04 L825.163 1532.4 M825.163 1518.52 L831.02 1518.52 L831.02 1525.93 L825.163 1525.93 L825.163 1518.52 Z" fill="#000000" fill-rule="evenodd" fill-opacity="1" /><path clip-path="url(#clip610)" d="M873.766 1548.76 L873.766 1551.62 L846.839 1551.62 Q847.221 1557.67 850.467 1560.85 Q853.745 1564 859.57 1564 Q862.944 1564 866.095 1563.17 Q869.278 1562.35 872.397 1560.69 L872.397 1566.23 Q869.246 1567.57 865.936 1568.27 Q862.626 1568.97 859.22 1568.97 Q850.69 1568.97 845.693 1564 Q840.728 1559.04 840.728 1550.57 Q840.728 1541.82 845.438 1536.69 Q850.181 1531.54 858.201 1531.54 Q865.395 1531.54 869.564 1536.18 Q873.766 1540.8 873.766 1548.76 M867.909 1547.04 Q867.845 1542.23 865.204 1539.37 Q862.594 1536.5 858.265 1536.5 Q853.363 1536.5 850.403 1539.27 Q847.475 1542.04 847.03 1547.07 L867.909 1547.04 Z" fill="#000000" fill-rule="evenodd" fill-opacity="1" /><path clip-path="url(#clip610)" d="M883.378 1518.52 L889.234 1518.52 L889.234 1568.04 L883.378 1568.04 L883.378 1518.52 Z" fill="#000000" fill-rule="evenodd" fill-opacity="1" /><path clip-path="url(#clip610)" d="M901.265 1518.52 L907.154 1518.52 L907.154 1547.77 L924.628 1532.4 L932.107 1532.4 L913.201 1549.07 L932.903 1568.04 L925.264 1568.04 L907.154 1550.63 L907.154 1568.04 L901.265 1568.04 L901.265 1518.52 Z" fill="#000000" fill-rule="evenodd" fill-opacity="1" /><path clip-path="url(#clip610)" d="M950.727 1536.5 Q946.016 1536.5 943.279 1540.19 Q940.542 1543.85 940.542 1550.25 Q940.542 1556.65 943.247 1560.34 Q945.984 1564 950.727 1564 Q955.406 1564 958.143 1560.31 Q960.88 1556.62 960.88 1550.25 Q960.88 1543.92 958.143 1540.23 Q955.406 1536.5 950.727 1536.5 M950.727 1531.54 Q958.366 1531.54 962.726 1536.5 Q967.087 1541.47 967.087 1550.25 Q967.087 1559 962.726 1564 Q958.366 1568.97 950.727 1568.97 Q943.056 1568.97 938.696 1564 Q934.367 1559 934.367 1550.25 Q934.367 1541.47 938.696 1536.5 Q943.056 1531.54 950.727 1531.54 Z" fill="#000000" fill-rule="evenodd" fill-opacity="1" /><path clip-path="url(#clip610)" d="M993.473 1515.69 L999.807 1515.69 L989.43 1527.65 L984.561 1527.65 L993.473 1515.69 M999.52 1533.45 L999.52 1538.98 Q997.037 1537.71 994.364 1537.07 Q991.69 1536.44 988.826 1536.44 Q984.465 1536.44 982.269 1537.77 Q980.105 1539.11 980.105 1541.79 Q980.105 1543.82 981.664 1545 Q983.224 1546.15 987.935 1547.2 L989.94 1547.64 Q996.178 1548.98 998.788 1551.43 Q1001.43 1553.85 1001.43 1558.21 Q1001.43 1563.17 997.483 1566.07 Q993.568 1568.97 986.693 1568.97 Q983.829 1568.97 980.709 1568.39 Q977.622 1567.85 974.185 1566.74 L974.185 1560.69 Q977.431 1562.38 980.582 1563.24 Q983.733 1564.07 986.821 1564.07 Q990.958 1564.07 993.186 1562.66 Q995.414 1561.23 995.414 1558.65 Q995.414 1556.27 993.791 1554.99 Q992.2 1553.72 986.757 1552.54 L984.72 1552.07 Q979.277 1550.92 976.858 1548.56 Q974.439 1546.18 974.439 1542.04 Q974.439 1537.01 978.004 1534.27 Q981.569 1531.54 988.125 1531.54 Q991.372 1531.54 994.237 1532.01 Q997.101 1532.49 999.52 1533.45 Z" fill="#000000" fill-rule="evenodd" fill-opacity="1" /><path clip-path="url(#clip610)" d="M1036.41 1533.76 L1036.41 1539.24 Q1033.93 1537.87 1031.41 1537.2 Q1028.93 1536.5 1026.38 1536.5 Q1020.69 1536.5 1017.54 1540.13 Q1014.38 1543.73 1014.38 1550.25 Q1014.38 1556.78 1017.54 1560.4 Q1020.69 1564 1026.38 1564 Q1028.93 1564 1031.41 1563.33 Q1033.93 1562.63 1036.41 1561.26 L1036.41 1566.68 Q1033.96 1567.82 1031.32 1568.39 Q1028.71 1568.97 1025.75 1568.97 Q1017.69 1568.97 1012.95 1563.91 Q1008.21 1558.85 1008.21 1550.25 Q1008.21 1541.53 1012.98 1536.53 Q1017.79 1531.54 1026.13 1531.54 Q1028.83 1531.54 1031.41 1532.11 Q1033.99 1532.65 1036.41 1533.76 Z" fill="#000000" fill-rule="evenodd" fill-opacity="1" /><path clip-path="url(#clip610)" d="M1046.59 1532.4 L1052.45 1532.4 L1052.45 1568.04 L1046.59 1568.04 L1046.59 1532.4 M1046.59 1518.52 L1052.45 1518.52 L1052.45 1525.93 L1046.59 1525.93 L1046.59 1518.52 Z" fill="#000000" fill-rule="evenodd" fill-opacity="1" /><path clip-path="url(#clip610)" d="M1080.91 1550.12 Q1073.81 1550.12 1071.07 1551.75 Q1068.33 1553.37 1068.33 1557.29 Q1068.33 1560.4 1070.37 1562.25 Q1072.44 1564.07 1075.97 1564.07 Q1080.84 1564.07 1083.77 1560.63 Q1086.73 1557.16 1086.73 1551.43 L1086.73 1550.12 L1080.91 1550.12 M1092.59 1547.71 L1092.59 1568.04 L1086.73 1568.04 L1086.73 1562.63 Q1084.73 1565.88 1081.73 1567.44 Q1078.74 1568.97 1074.41 1568.97 Q1068.94 1568.97 1065.69 1565.91 Q1062.48 1562.82 1062.48 1557.67 Q1062.48 1551.65 1066.49 1548.6 Q1070.53 1545.54 1078.52 1545.54 L1086.73 1545.54 L1086.73 1544.97 Q1086.73 1540.93 1084.06 1538.73 Q1081.41 1536.5 1076.61 1536.5 Q1073.55 1536.5 1070.66 1537.23 Q1067.76 1537.97 1065.09 1539.43 L1065.09 1534.02 Q1068.3 1532.78 1071.33 1532.17 Q1074.35 1531.54 1077.21 1531.54 Q1084.95 1531.54 1088.77 1535.55 Q1092.59 1539.56 1092.59 1547.71 Z" fill="#000000" fill-rule="evenodd" fill-opacity="1" /><path clip-path="url(#clip610)" d="M1130.3 1533.76 L1130.3 1539.24 Q1127.82 1537.87 1125.31 1537.2 Q1122.82 1536.5 1120.28 1536.5 Q1114.58 1536.5 1111.43 1540.13 Q1108.28 1543.73 1108.28 1550.25 Q1108.28 1556.78 1111.43 1560.4 Q1114.58 1564 1120.28 1564 Q1122.82 1564 1125.31 1563.33 Q1127.82 1562.63 1130.3 1561.26 L1130.3 1566.68 Q1127.85 1567.82 1125.21 1568.39 Q1122.6 1568.97 1119.64 1568.97 Q1111.59 1568.97 1106.85 1563.91 Q1102.1 1558.85 1102.1 1550.25 Q1102.1 1541.53 1106.88 1536.53 Q1111.68 1531.54 1120.02 1531.54 Q1122.73 1531.54 1125.31 1532.11 Q1127.88 1532.65 1130.3 1533.76 Z" fill="#000000" fill-rule="evenodd" fill-opacity="1" /><path clip-path="url(#clip610)" d="M1170.12 1546.53 L1170.12 1568.04 L1164.26 1568.04 L1164.26 1546.72 Q1164.26 1541.66 1162.29 1539.14 Q1160.32 1536.63 1156.37 1536.63 Q1151.63 1536.63 1148.89 1539.65 Q1146.15 1542.68 1146.15 1547.9 L1146.15 1568.04 L1140.27 1568.04 L1140.27 1518.52 L1146.15 1518.52 L1146.15 1537.93 Q1148.25 1534.72 1151.09 1533.13 Q1153.95 1531.54 1157.68 1531.54 Q1163.82 1531.54 1166.97 1535.36 Q1170.12 1539.14 1170.12 1546.53 Z" fill="#000000" fill-rule="evenodd" fill-opacity="1" /><path clip-path="url(#clip610)" d="M1225.98 1549.81 Q1225.98 1543.44 1223.34 1539.94 Q1220.73 1536.44 1215.99 1536.44 Q1211.28 1536.44 1208.63 1539.94 Q1206.02 1543.44 1206.02 1549.81 Q1206.02 1556.14 1208.63 1559.64 Q1211.28 1563.14 1215.99 1563.14 Q1220.73 1563.14 1223.34 1559.64 Q1225.98 1556.14 1225.98 1549.81 M1231.84 1563.62 Q1231.84 1572.72 1227.79 1577.15 Q1223.75 1581.6 1215.41 1581.6 Q1212.33 1581.6 1209.59 1581.13 Q1206.85 1580.68 1204.27 1579.72 L1204.27 1574.03 Q1206.85 1575.43 1209.37 1576.1 Q1211.88 1576.76 1214.49 1576.76 Q1220.25 1576.76 1223.12 1573.74 Q1225.98 1570.75 1225.98 1564.67 L1225.98 1561.77 Q1224.17 1564.92 1221.33 1566.48 Q1218.5 1568.04 1214.55 1568.04 Q1208 1568.04 1203.99 1563.05 Q1199.98 1558.05 1199.98 1549.81 Q1199.98 1541.53 1203.99 1536.53 Q1208 1531.54 1214.55 1531.54 Q1218.5 1531.54 1221.33 1533.1 Q1224.17 1534.66 1225.98 1537.81 L1225.98 1532.4 L1231.84 1532.4 L1231.84 1563.62 Z" fill="#000000" fill-rule="evenodd" fill-opacity="1" /><path clip-path="url(#clip610)" d="M1264.56 1537.87 Q1263.57 1537.3 1262.39 1537.04 Q1261.25 1536.76 1259.85 1536.76 Q1254.88 1536.76 1252.21 1540 Q1249.57 1543.22 1249.57 1549.27 L1249.57 1568.04 L1243.68 1568.04 L1243.68 1532.4 L1249.57 1532.4 L1249.57 1537.93 Q1251.41 1534.69 1254.37 1533.13 Q1257.33 1531.54 1261.56 1531.54 Q1262.17 1531.54 1262.9 1531.63 Q1263.63 1531.7 1264.52 1531.85 L1264.56 1537.87 Z" fill="#000000" fill-rule="evenodd" fill-opacity="1" /><path clip-path="url(#clip610)" d="M1270.09 1553.98 L1270.09 1532.4 L1275.95 1532.4 L1275.95 1553.75 Q1275.95 1558.81 1277.92 1561.36 Q1279.9 1563.87 1283.84 1563.87 Q1288.59 1563.87 1291.32 1560.85 Q1294.09 1557.83 1294.09 1552.61 L1294.09 1532.4 L1299.95 1532.4 L1299.95 1568.04 L1294.09 1568.04 L1294.09 1562.57 Q1291.96 1565.82 1289.13 1567.41 Q1286.33 1568.97 1282.6 1568.97 Q1276.46 1568.97 1273.28 1565.15 Q1270.09 1561.33 1270.09 1553.98 M1284.83 1531.54 L1284.83 1531.54 Z" fill="#000000" fill-rule="evenodd" fill-opacity="1" /><path clip-path="url(#clip610)" d="M1317.68 1562.7 L1317.68 1581.6 L1311.79 1581.6 L1311.79 1532.4 L1317.68 1532.4 L1317.68 1537.81 Q1319.52 1534.62 1322.33 1533.1 Q1325.16 1531.54 1329.07 1531.54 Q1335.57 1531.54 1339.61 1536.69 Q1343.68 1541.85 1343.68 1550.25 Q1343.68 1558.65 1339.61 1563.81 Q1335.57 1568.97 1329.07 1568.97 Q1325.16 1568.97 1322.33 1567.44 Q1319.52 1565.88 1317.68 1562.7 M1337.6 1550.25 Q1337.6 1543.79 1334.93 1540.13 Q1332.29 1536.44 1327.64 1536.44 Q1322.99 1536.44 1320.32 1540.13 Q1317.68 1543.79 1317.68 1550.25 Q1317.68 1556.71 1320.32 1560.4 Q1322.99 1564.07 1327.64 1564.07 Q1332.29 1564.07 1334.93 1560.4 Q1337.6 1556.71 1337.6 1550.25 Z" fill="#000000" fill-rule="evenodd" fill-opacity="1" /><path clip-path="url(#clip610)" d="M1399.7 1550.25 Q1399.7 1543.79 1397.03 1540.13 Q1394.38 1536.44 1389.74 1536.44 Q1385.09 1536.44 1382.42 1540.13 Q1379.78 1543.79 1379.78 1550.25 Q1379.78 1556.71 1382.42 1560.4 Q1385.09 1564.07 1389.74 1564.07 Q1394.38 1564.07 1397.03 1560.4 Q1399.7 1556.71 1399.7 1550.25 M1379.78 1537.81 Q1381.62 1534.62 1384.42 1533.1 Q1387.26 1531.54 1391.17 1531.54 Q1397.66 1531.54 1401.71 1536.69 Q1405.78 1541.85 1405.78 1550.25 Q1405.78 1558.65 1401.71 1563.81 Q1397.66 1568.97 1391.17 1568.97 Q1387.26 1568.97 1384.42 1567.44 Q1381.62 1565.88 1379.78 1562.7 L1379.78 1568.04 L1373.89 1568.04 L1373.89 1518.52 L1379.78 1518.52 L1379.78 1537.81 Z" fill="#000000" fill-rule="evenodd" fill-opacity="1" /><path clip-path="url(#clip610)" d="M1431.69 1550.12 Q1424.59 1550.12 1421.85 1551.75 Q1419.12 1553.37 1419.12 1557.29 Q1419.12 1560.4 1421.15 1562.25 Q1423.22 1564.07 1426.75 1564.07 Q1431.62 1564.07 1434.55 1560.63 Q1437.51 1557.16 1437.51 1551.43 L1437.51 1550.12 L1431.69 1550.12 M1443.37 1547.71 L1443.37 1568.04 L1437.51 1568.04 L1437.51 1562.63 Q1435.51 1565.88 1432.52 1567.44 Q1429.52 1568.97 1425.19 1568.97 Q1419.72 1568.97 1416.47 1565.91 Q1413.26 1562.82 1413.26 1557.67 Q1413.26 1551.65 1417.27 1548.6 Q1421.31 1545.54 1429.3 1545.54 L1437.51 1545.54 L1437.51 1544.97 Q1437.51 1540.93 1434.84 1538.73 Q1432.2 1536.5 1427.39 1536.5 Q1424.34 1536.5 1421.44 1537.23 Q1418.54 1537.97 1415.87 1539.43 L1415.87 1534.02 Q1419.08 1532.78 1422.11 1532.17 Q1425.13 1531.54 1428 1531.54 Q1435.73 1531.54 1439.55 1535.55 Q1443.37 1539.56 1443.37 1547.71 Z" fill="#000000" fill-rule="evenodd" fill-opacity="1" /><path clip-path="url(#clip610)" d="M1478.89 1537.81 L1478.89 1518.52 L1484.75 1518.52 L1484.75 1568.04 L1478.89 1568.04 L1478.89 1562.7 Q1477.04 1565.88 1474.21 1567.44 Q1471.41 1568.97 1467.46 1568.97 Q1461 1568.97 1456.93 1563.81 Q1452.89 1558.65 1452.89 1550.25 Q1452.89 1541.85 1456.93 1536.69 Q1461 1531.54 1467.46 1531.54 Q1471.41 1531.54 1474.21 1533.1 Q1477.04 1534.62 1478.89 1537.81 M1458.93 1550.25 Q1458.93 1556.71 1461.57 1560.4 Q1464.25 1564.07 1468.9 1564.07 Q1473.54 1564.07 1476.22 1560.4 Q1478.89 1556.71 1478.89 1550.25 Q1478.89 1543.79 1476.22 1540.13 Q1473.54 1536.44 1468.9 1536.44 Q1464.25 1536.44 1461.57 1540.13 Q1458.93 1543.79 1458.93 1550.25 Z" fill="#000000" fill-rule="evenodd" fill-opacity="1" /><path clip-path="url(#clip610)" d="M1513.01 1550.12 Q1505.91 1550.12 1503.17 1551.75 Q1500.44 1553.37 1500.44 1557.29 Q1500.44 1560.4 1502.47 1562.25 Q1504.54 1564.07 1508.08 1564.07 Q1512.95 1564.07 1515.87 1560.63 Q1518.83 1557.16 1518.83 1551.43 L1518.83 1550.12 L1513.01 1550.12 M1524.69 1547.71 L1524.69 1568.04 L1518.83 1568.04 L1518.83 1562.63 Q1516.83 1565.88 1513.84 1567.44 Q1510.85 1568.97 1506.52 1568.97 Q1501.04 1568.97 1497.8 1565.91 Q1494.58 1562.82 1494.58 1557.67 Q1494.58 1551.65 1498.59 1548.6 Q1502.63 1545.54 1510.62 1545.54 L1518.83 1545.54 L1518.83 1544.97 Q1518.83 1540.93 1516.16 1538.73 Q1513.52 1536.5 1508.71 1536.5 Q1505.66 1536.5 1502.76 1537.23 Q1499.86 1537.97 1497.19 1539.43 L1497.19 1534.02 Q1500.41 1532.78 1503.43 1532.17 Q1506.45 1531.54 1509.32 1531.54 Q1517.05 1531.54 1520.87 1535.55 Q1524.69 1539.56 1524.69 1547.71 Z" fill="#000000" fill-rule="evenodd" fill-opacity="1" /><path clip-path="url(#clip610)" d="M1566.39 1546.53 L1566.39 1568.04 L1560.53 1568.04 L1560.53 1546.72 Q1560.53 1541.66 1558.56 1539.14 Q1556.58 1536.63 1552.64 1536.63 Q1547.89 1536.63 1545.16 1539.65 Q1542.42 1542.68 1542.42 1547.9 L1542.42 1568.04 L1536.53 1568.04 L1536.53 1532.4 L1542.42 1532.4 L1542.42 1537.93 Q1544.52 1534.72 1547.35 1533.13 Q1550.22 1531.54 1553.94 1531.54 Q1560.08 1531.54 1563.24 1535.36 Q1566.39 1539.14 1566.39 1546.53 Z" fill="#000000" fill-rule="evenodd" fill-opacity="1" /><path clip-path="url(#clip610)" d="M1592.9 1571.35 Q1590.42 1577.72 1588.06 1579.66 Q1585.71 1581.6 1581.76 1581.6 L1577.08 1581.6 L1577.08 1576.7 L1580.52 1576.7 Q1582.94 1576.7 1584.27 1575.56 Q1585.61 1574.41 1587.23 1570.14 L1588.28 1567.47 L1573.87 1532.4 L1580.07 1532.4 L1591.21 1560.28 L1602.35 1532.4 L1608.56 1532.4 L1592.9 1571.35 Z" fill="#000000" fill-rule="evenodd" fill-opacity="1" /><path clip-path="url(#clip610)" d="M1642.3 1533.76 L1642.3 1539.24 Q1639.81 1537.87 1637.3 1537.2 Q1634.82 1536.5 1632.27 1536.5 Q1626.57 1536.5 1623.42 1540.13 Q1620.27 1543.73 1620.27 1550.25 Q1620.27 1556.78 1623.42 1560.4 Q1626.57 1564 1632.27 1564 Q1634.82 1564 1637.3 1563.33 Q1639.81 1562.63 1642.3 1561.26 L1642.3 1566.68 Q1639.85 1567.82 1637.2 1568.39 Q1634.59 1568.97 1631.63 1568.97 Q1623.58 1568.97 1618.84 1563.91 Q1614.1 1558.85 1614.1 1550.25 Q1614.1 1541.53 1618.87 1536.53 Q1623.68 1531.54 1632.02 1531.54 Q1634.72 1531.54 1637.3 1532.11 Q1639.88 1532.65 1642.3 1533.76 Z" fill="#000000" fill-rule="evenodd" fill-opacity="1" /><path clip-path="url(#clip610)" d="M1682.11 1546.53 L1682.11 1568.04 L1676.26 1568.04 L1676.26 1546.72 Q1676.26 1541.66 1674.28 1539.14 Q1672.31 1536.63 1668.36 1536.63 Q1663.62 1536.63 1660.89 1539.65 Q1658.15 1542.68 1658.15 1547.9 L1658.15 1568.04 L1652.26 1568.04 L1652.26 1518.52 L1658.15 1518.52 L1658.15 1537.93 Q1660.25 1534.72 1663.08 1533.13 Q1665.95 1531.54 1669.67 1531.54 Q1675.81 1531.54 1678.96 1535.36 Q1682.11 1539.14 1682.11 1546.53 Z" fill="#000000" fill-rule="evenodd" fill-opacity="1" /><path clip-path="url(#clip610)" d="M1714.29 1518.52 L1720.18 1518.52 L1720.18 1547.77 L1737.66 1532.4 L1745.14 1532.4 L1726.23 1549.07 L1745.93 1568.04 L1738.29 1568.04 L1720.18 1550.63 L1720.18 1568.04 L1714.29 1568.04 L1714.29 1518.52 Z" fill="#000000" fill-rule="evenodd" fill-opacity="1" /><path clip-path="url(#clip610)" d="M1763.75 1536.5 Q1759.04 1536.5 1756.31 1540.19 Q1753.57 1543.85 1753.57 1550.25 Q1753.57 1556.65 1756.28 1560.34 Q1759.01 1564 1763.75 1564 Q1768.43 1564 1771.17 1560.31 Q1773.91 1556.62 1773.91 1550.25 Q1773.91 1543.92 1771.17 1540.23 Q1768.43 1536.5 1763.75 1536.5 M1763.75 1531.54 Q1771.39 1531.54 1775.75 1536.5 Q1780.11 1541.47 1780.11 1550.25 Q1780.11 1559 1775.75 1564 Q1771.39 1568.97 1763.75 1568.97 Q1756.08 1568.97 1751.72 1564 Q1747.4 1559 1747.4 1550.25 Q1747.4 1541.47 1751.72 1536.5 Q1756.08 1531.54 1763.75 1531.54 Z" fill="#000000" fill-rule="evenodd" fill-opacity="1" /><path clip-path="url(#clip610)" d="M1819.45 1546.53 L1819.45 1568.04 L1813.6 1568.04 L1813.6 1546.72 Q1813.6 1541.66 1811.63 1539.14 Q1809.65 1536.63 1805.71 1536.63 Q1800.96 1536.63 1798.23 1539.65 Q1795.49 1542.68 1795.49 1547.9 L1795.49 1568.04 L1789.6 1568.04 L1789.6 1532.4 L1795.49 1532.4 L1795.49 1537.93 Q1797.59 1534.72 1800.42 1533.13 Q1803.29 1531.54 1807.01 1531.54 Q1813.15 1531.54 1816.3 1535.36 Q1819.45 1539.14 1819.45 1546.53 Z" fill="#000000" fill-rule="evenodd" fill-opacity="1" /><path clip-path="url(#clip610)" d="M1853.86 1533.45 L1853.86 1538.98 Q1851.38 1537.71 1848.71 1537.07 Q1846.03 1536.44 1843.17 1536.44 Q1838.81 1536.44 1836.61 1537.77 Q1834.45 1539.11 1834.45 1541.79 Q1834.45 1543.82 1836.01 1545 Q1837.57 1546.15 1842.28 1547.2 L1844.28 1547.64 Q1850.52 1548.98 1853.13 1551.43 Q1855.77 1553.85 1855.77 1558.21 Q1855.77 1563.17 1851.82 1566.07 Q1847.91 1568.97 1841.03 1568.97 Q1838.17 1568.97 1835.05 1568.39 Q1831.96 1567.85 1828.53 1566.74 L1828.53 1560.69 Q1831.77 1562.38 1834.92 1563.24 Q1838.07 1564.07 1841.16 1564.07 Q1845.3 1564.07 1847.53 1562.66 Q1849.76 1561.23 1849.76 1558.65 Q1849.76 1556.27 1848.13 1554.99 Q1846.54 1553.72 1841.1 1552.54 L1839.06 1552.07 Q1833.62 1550.92 1831.2 1548.56 Q1828.78 1546.18 1828.78 1542.04 Q1828.78 1537.01 1832.35 1534.27 Q1835.91 1531.54 1842.47 1531.54 Q1845.71 1531.54 1848.58 1532.01 Q1851.44 1532.49 1853.86 1533.45 Z" fill="#000000" fill-rule="evenodd" fill-opacity="1" /><path clip-path="url(#clip610)" d="M1864.49 1553.98 L1864.49 1532.4 L1870.35 1532.4 L1870.35 1553.75 Q1870.35 1558.81 1872.32 1561.36 Q1874.3 1563.87 1878.24 1563.87 Q1882.98 1563.87 1885.72 1560.85 Q1888.49 1557.83 1888.49 1552.61 L1888.49 1532.4 L1894.35 1532.4 L1894.35 1568.04 L1888.49 1568.04 L1888.49 1562.57 Q1886.36 1565.82 1883.53 1567.41 Q1880.72 1568.97 1877 1568.97 Q1870.86 1568.97 1867.68 1565.15 Q1864.49 1561.33 1864.49 1553.98 M1879.23 1531.54 L1879.23 1531.54 Z" fill="#000000" fill-rule="evenodd" fill-opacity="1" /><path clip-path="url(#clip610)" d="M1934.16 1539.24 Q1936.36 1535.29 1939.42 1533.41 Q1942.47 1531.54 1946.61 1531.54 Q1952.18 1531.54 1955.2 1535.45 Q1958.23 1539.33 1958.23 1546.53 L1958.23 1568.04 L1952.34 1568.04 L1952.34 1546.72 Q1952.34 1541.59 1950.52 1539.11 Q1948.71 1536.63 1944.99 1536.63 Q1940.44 1536.63 1937.79 1539.65 Q1935.15 1542.68 1935.15 1547.9 L1935.15 1568.04 L1929.26 1568.04 L1929.26 1546.72 Q1929.26 1541.56 1927.45 1539.11 Q1925.63 1536.63 1921.85 1536.63 Q1917.36 1536.63 1914.72 1539.68 Q1912.08 1542.71 1912.08 1547.9 L1912.08 1568.04 L1906.19 1568.04 L1906.19 1532.4 L1912.08 1532.4 L1912.08 1537.93 Q1914.08 1534.66 1916.88 1533.1 Q1919.68 1531.54 1923.53 1531.54 Q1927.42 1531.54 1930.12 1533.51 Q1932.86 1535.48 1934.16 1539.24 Z" fill="#000000" fill-rule="evenodd" fill-opacity="1" /><path clip-path="url(#clip610)" d="M2000.4 1548.76 L2000.4 1551.62 L1973.47 1551.62 Q1973.86 1557.67 1977.1 1560.85 Q1980.38 1564 1986.2 1564 Q1989.58 1564 1992.73 1563.17 Q1995.91 1562.35 1999.03 1560.69 L1999.03 1566.23 Q1995.88 1567.57 1992.57 1568.27 Q1989.26 1568.97 1985.85 1568.97 Q1977.32 1568.97 1972.33 1564 Q1967.36 1559.04 1967.36 1550.57 Q1967.36 1541.82 1972.07 1536.69 Q1976.82 1531.54 1984.84 1531.54 Q1992.03 1531.54 1996.2 1536.18 Q2000.4 1540.8 2000.4 1548.76 M1994.54 1547.04 Q1994.48 1542.23 1991.84 1539.37 Q1989.23 1536.5 1984.9 1536.5 Q1980 1536.5 1977.04 1539.27 Q1974.11 1542.04 1973.66 1547.07 L1994.54 1547.04 Z" fill="#000000" fill-rule="evenodd" fill-opacity="1" /><path clip-path="url(#clip610)" d="M2039.64 1546.53 L2039.64 1568.04 L2033.79 1568.04 L2033.79 1546.72 Q2033.79 1541.66 2031.81 1539.14 Q2029.84 1536.63 2025.89 1536.63 Q2021.15 1536.63 2018.42 1539.65 Q2015.68 1542.68 2015.68 1547.9 L2015.68 1568.04 L2009.79 1568.04 L2009.79 1532.4 L2015.68 1532.4 L2015.68 1537.93 Q2017.78 1534.72 2020.61 1533.13 Q2023.48 1531.54 2027.2 1531.54 Q2033.34 1531.54 2036.49 1535.36 Q2039.64 1539.14 2039.64 1546.53 Z" fill="#000000" fill-rule="evenodd" fill-opacity="1" /><path clip-path="url(#clip610)" d="M2057.12 1522.27 L2057.12 1532.4 L2069.18 1532.4 L2069.18 1536.95 L2057.12 1536.95 L2057.12 1556.3 Q2057.12 1560.66 2058.3 1561.9 Q2059.51 1563.14 2063.17 1563.14 L2069.18 1563.14 L2069.18 1568.04 L2063.17 1568.04 Q2056.39 1568.04 2053.81 1565.53 Q2051.23 1562.98 2051.23 1556.3 L2051.23 1536.95 L2046.93 1536.95 L2046.93 1532.4 L2051.23 1532.4 L2051.23 1522.27 L2057.12 1522.27 Z" fill="#000000" fill-rule="evenodd" fill-opacity="1" /><path clip-path="url(#clip610)" d="M2090.7 1536.5 Q2085.99 1536.5 2083.25 1540.19 Q2080.51 1543.85 2080.51 1550.25 Q2080.51 1556.65 2083.22 1560.34 Q2085.96 1564 2090.7 1564 Q2095.38 1564 2098.11 1560.31 Q2100.85 1556.62 2100.85 1550.25 Q2100.85 1543.92 2098.11 1540.23 Q2095.38 1536.5 2090.7 1536.5 M2090.7 1531.54 Q2098.34 1531.54 2102.7 1536.5 Q2107.06 1541.47 2107.06 1550.25 Q2107.06 1559 2102.7 1564 Q2098.34 1568.97 2090.7 1568.97 Q2083.03 1568.97 2078.67 1564 Q2074.34 1559 2074.34 1550.25 Q2074.34 1541.47 2078.67 1536.5 Q2083.03 1531.54 2090.7 1531.54 M2095.12 1515.91 L2101.46 1515.91 L2091.08 1527.88 L2086.21 1527.88 L2095.12 1515.91 Z" fill="#000000" fill-rule="evenodd" fill-opacity="1" /><path clip-path="url(#clip610)" d="M2113.36 1532.4 L2119.22 1532.4 L2126.54 1560.21 L2133.83 1532.4 L2140.73 1532.4 L2148.05 1560.21 L2155.34 1532.4 L2161.2 1532.4 L2151.87 1568.04 L2144.97 1568.04 L2137.29 1538.83 L2129.59 1568.04 L2122.69 1568.04 L2113.36 1532.4 Z" fill="#000000" fill-rule="evenodd" fill-opacity="1" /><polyline clip-path="url(#clip612)" style="stroke:#000000; stroke-linecap:butt; stroke-linejoin:round; stroke-width:2; stroke-opacity:0.1; fill:none" points="
  234.125,1324 2352.76,1324 
  "/>
<polyline clip-path="url(#clip612)" style="stroke:#000000; stroke-linecap:butt; stroke-linejoin:round; stroke-width:2; stroke-opacity:0.1; fill:none" points="
  234.125,1100.67 2352.76,1100.67 
  "/>
<polyline clip-path="url(#clip612)" style="stroke:#000000; stroke-linecap:butt; stroke-linejoin:round; stroke-width:2; stroke-opacity:0.1; fill:none" points="
  234.125,877.337 2352.76,877.337 
  "/>
<polyline clip-path="url(#clip612)" style="stroke:#000000; stroke-linecap:butt; stroke-linejoin:round; stroke-width:2; stroke-opacity:0.1; fill:none" points="
  234.125,654.004 2352.76,654.004 
  "/>
<polyline clip-path="url(#clip612)" style="stroke:#000000; stroke-linecap:butt; stroke-linejoin:round; stroke-width:2; stroke-opacity:0.1; fill:none" points="
  234.125,430.67 2352.76,430.67 
  "/>
<polyline clip-path="url(#clip612)" style="stroke:#000000; stroke-linecap:butt; stroke-linejoin:round; stroke-width:2; stroke-opacity:0.1; fill:none" points="
  234.125,207.337 2352.76,207.337 
  "/>
<polyline clip-path="url(#clip610)" style="stroke:#000000; stroke-linecap:butt; stroke-linejoin:round; stroke-width:4; stroke-opacity:1; fill:none" points="
  234.125,1423.18 234.125,123.472 
  "/>
<polyline clip-path="url(#clip610)" style="stroke:#000000; stroke-linecap:butt; stroke-linejoin:round; stroke-width:4; stroke-opacity:1; fill:none" points="
  234.125,1324 253.023,1324 
  "/>
<polyline clip-path="url(#clip610)" style="stroke:#000000; stroke-linecap:butt; stroke-linejoin:round; stroke-width:4; stroke-opacity:1; fill:none" points="
  234.125,1100.67 253.023,1100.67 
  "/>
<polyline clip-path="url(#clip610)" style="stroke:#000000; stroke-linecap:butt; stroke-linejoin:round; stroke-width:4; stroke-opacity:1; fill:none" points="
  234.125,877.337 253.023,877.337 
  "/>
<polyline clip-path="url(#clip610)" style="stroke:#000000; stroke-linecap:butt; stroke-linejoin:round; stroke-width:4; stroke-opacity:1; fill:none" points="
  234.125,654.004 253.023,654.004 
  "/>
<polyline clip-path="url(#clip610)" style="stroke:#000000; stroke-linecap:butt; stroke-linejoin:round; stroke-width:4; stroke-opacity:1; fill:none" points="
  234.125,430.67 253.023,430.67 
  "/>
<polyline clip-path="url(#clip610)" style="stroke:#000000; stroke-linecap:butt; stroke-linejoin:round; stroke-width:4; stroke-opacity:1; fill:none" points="
  234.125,207.337 253.023,207.337 
  "/>
<path clip-path="url(#clip610)" d="M120.88 1337.35 L137.2 1337.35 L137.2 1341.28 L115.256 1341.28 L115.256 1337.35 Q117.918 1334.59 122.501 1329.96 Q127.107 1325.31 128.288 1323.97 Q130.533 1321.45 131.413 1319.71 Q132.316 1317.95 132.316 1316.26 Q132.316 1313.51 130.371 1311.77 Q128.45 1310.03 125.348 1310.03 Q123.149 1310.03 120.695 1310.8 Q118.265 1311.56 115.487 1313.11 L115.487 1308.39 Q118.311 1307.26 120.765 1306.68 Q123.218 1306.1 125.255 1306.1 Q130.626 1306.1 133.82 1308.78 Q137.015 1311.47 137.015 1315.96 Q137.015 1318.09 136.204 1320.01 Q135.417 1321.91 133.311 1324.5 Q132.732 1325.17 129.63 1328.39 Q126.529 1331.58 120.88 1337.35 Z" fill="#000000" fill-rule="evenodd" fill-opacity="1" /><path clip-path="url(#clip610)" d="M147.061 1306.72 L165.417 1306.72 L165.417 1310.66 L151.343 1310.66 L151.343 1319.13 Q152.362 1318.78 153.38 1318.62 Q154.399 1318.44 155.417 1318.44 Q161.204 1318.44 164.584 1321.61 Q167.964 1324.78 167.964 1330.2 Q167.964 1335.77 164.491 1338.88 Q161.019 1341.95 154.7 1341.95 Q152.524 1341.95 150.255 1341.58 Q148.01 1341.21 145.603 1340.47 L145.603 1335.77 Q147.686 1336.91 149.908 1337.46 Q152.13 1338.02 154.607 1338.02 Q158.612 1338.02 160.95 1335.91 Q163.288 1333.81 163.288 1330.2 Q163.288 1326.58 160.95 1324.48 Q158.612 1322.37 154.607 1322.37 Q152.732 1322.37 150.857 1322.79 Q149.005 1323.21 147.061 1324.08 L147.061 1306.72 Z" fill="#000000" fill-rule="evenodd" fill-opacity="1" /><path clip-path="url(#clip610)" d="M177.223 1306.72 L195.579 1306.72 L195.579 1310.66 L181.505 1310.66 L181.505 1319.13 Q182.524 1318.78 183.542 1318.62 Q184.561 1318.44 185.579 1318.44 Q191.366 1318.44 194.746 1321.61 Q198.125 1324.78 198.125 1330.2 Q198.125 1335.77 194.653 1338.88 Q191.181 1341.95 184.862 1341.95 Q182.686 1341.95 180.417 1341.58 Q178.172 1341.21 175.764 1340.47 L175.764 1335.77 Q177.848 1336.91 180.07 1337.46 Q182.292 1338.02 184.769 1338.02 Q188.774 1338.02 191.112 1335.91 Q193.45 1333.81 193.45 1330.2 Q193.45 1326.58 191.112 1324.48 Q188.774 1322.37 184.769 1322.37 Q182.894 1322.37 181.019 1322.79 Q179.167 1323.21 177.223 1324.08 L177.223 1306.72 Z" fill="#000000" fill-rule="evenodd" fill-opacity="1" /><path clip-path="url(#clip610)" d="M119.885 1114.02 L136.204 1114.02 L136.204 1117.95 L114.26 1117.95 L114.26 1114.02 Q116.922 1111.26 121.505 1106.63 Q126.112 1101.98 127.292 1100.64 Q129.538 1098.11 130.417 1096.38 Q131.32 1094.62 131.32 1092.93 Q131.32 1090.17 129.376 1088.44 Q127.455 1086.7 124.353 1086.7 Q122.154 1086.7 119.7 1087.46 Q117.269 1088.23 114.492 1089.78 L114.492 1085.06 Q117.316 1083.92 119.769 1083.34 Q122.223 1082.77 124.26 1082.77 Q129.63 1082.77 132.825 1085.45 Q136.019 1088.14 136.019 1092.63 Q136.019 1094.76 135.209 1096.68 Q134.422 1098.58 132.316 1101.17 Q131.737 1101.84 128.635 1105.06 Q125.533 1108.25 119.885 1114.02 Z" fill="#000000" fill-rule="evenodd" fill-opacity="1" /><path clip-path="url(#clip610)" d="M156.598 1098.81 Q153.45 1098.81 151.598 1100.96 Q149.769 1103.11 149.769 1106.86 Q149.769 1110.59 151.598 1112.77 Q153.45 1114.92 156.598 1114.92 Q159.746 1114.92 161.575 1112.77 Q163.427 1110.59 163.427 1106.86 Q163.427 1103.11 161.575 1100.96 Q159.746 1098.81 156.598 1098.81 M165.88 1084.15 L165.88 1088.41 Q164.121 1087.58 162.315 1087.14 Q160.533 1086.7 158.774 1086.7 Q154.144 1086.7 151.691 1089.83 Q149.26 1092.95 148.913 1099.27 Q150.278 1097.26 152.339 1096.19 Q154.399 1095.1 156.876 1095.1 Q162.084 1095.1 165.093 1098.27 Q168.126 1101.42 168.126 1106.86 Q168.126 1112.19 164.977 1115.4 Q161.829 1118.62 156.598 1118.62 Q150.603 1118.62 147.431 1114.04 Q144.26 1109.43 144.26 1100.71 Q144.26 1092.51 148.149 1087.65 Q152.038 1082.77 158.589 1082.77 Q160.348 1082.77 162.13 1083.11 Q163.936 1083.46 165.88 1084.15 Z" fill="#000000" fill-rule="evenodd" fill-opacity="1" /><path clip-path="url(#clip610)" d="M186.181 1086.47 Q182.57 1086.47 180.741 1090.03 Q178.936 1093.58 178.936 1100.71 Q178.936 1107.81 180.741 1111.38 Q182.57 1114.92 186.181 1114.92 Q189.815 1114.92 191.621 1111.38 Q193.45 1107.81 193.45 1100.71 Q193.45 1093.58 191.621 1090.03 Q189.815 1086.47 186.181 1086.47 M186.181 1082.77 Q191.991 1082.77 195.047 1087.37 Q198.125 1091.96 198.125 1100.71 Q198.125 1109.43 195.047 1114.04 Q191.991 1118.62 186.181 1118.62 Q180.371 1118.62 177.292 1114.04 Q174.237 1109.43 174.237 1100.71 Q174.237 1091.96 177.292 1087.37 Q180.371 1082.77 186.181 1082.77 Z" fill="#000000" fill-rule="evenodd" fill-opacity="1" /><path clip-path="url(#clip610)" d="M120.88 890.682 L137.2 890.682 L137.2 894.617 L115.256 894.617 L115.256 890.682 Q117.918 887.927 122.501 883.298 Q127.107 878.645 128.288 877.302 Q130.533 874.779 131.413 873.043 Q132.316 871.284 132.316 869.594 Q132.316 866.839 130.371 865.103 Q128.45 863.367 125.348 863.367 Q123.149 863.367 120.695 864.131 Q118.265 864.895 115.487 866.446 L115.487 861.724 Q118.311 860.589 120.765 860.011 Q123.218 859.432 125.255 859.432 Q130.626 859.432 133.82 862.117 Q137.015 864.802 137.015 869.293 Q137.015 871.423 136.204 873.344 Q135.417 875.242 133.311 877.835 Q132.732 878.506 129.63 881.724 Q126.529 884.918 120.88 890.682 Z" fill="#000000" fill-rule="evenodd" fill-opacity="1" /><path clip-path="url(#clip610)" d="M157.593 875.474 Q154.445 875.474 152.593 877.626 Q150.765 879.779 150.765 883.529 Q150.765 887.256 152.593 889.432 Q154.445 891.585 157.593 891.585 Q160.741 891.585 162.57 889.432 Q164.422 887.256 164.422 883.529 Q164.422 879.779 162.57 877.626 Q160.741 875.474 157.593 875.474 M166.876 860.821 L166.876 865.08 Q165.116 864.247 163.311 863.807 Q161.528 863.367 159.769 863.367 Q155.14 863.367 152.686 866.492 Q150.255 869.617 149.908 875.937 Q151.274 873.923 153.334 872.858 Q155.394 871.77 157.871 871.77 Q163.079 871.77 166.089 874.941 Q169.121 878.089 169.121 883.529 Q169.121 888.853 165.973 892.071 Q162.825 895.288 157.593 895.288 Q151.598 895.288 148.427 890.705 Q145.255 886.099 145.255 877.372 Q145.255 869.177 149.144 864.316 Q153.033 859.432 159.584 859.432 Q161.343 859.432 163.126 859.779 Q164.931 860.126 166.876 860.821 Z" fill="#000000" fill-rule="evenodd" fill-opacity="1" /><path clip-path="url(#clip610)" d="M177.223 860.057 L195.579 860.057 L195.579 863.992 L181.505 863.992 L181.505 872.464 Q182.524 872.117 183.542 871.955 Q184.561 871.77 185.579 871.77 Q191.366 871.77 194.746 874.941 Q198.125 878.113 198.125 883.529 Q198.125 889.108 194.653 892.21 Q191.181 895.288 184.862 895.288 Q182.686 895.288 180.417 894.918 Q178.172 894.548 175.764 893.807 L175.764 889.108 Q177.848 890.242 180.07 890.798 Q182.292 891.353 184.769 891.353 Q188.774 891.353 191.112 889.247 Q193.45 887.14 193.45 883.529 Q193.45 879.918 191.112 877.812 Q188.774 875.705 184.769 875.705 Q182.894 875.705 181.019 876.122 Q179.167 876.538 177.223 877.418 L177.223 860.057 Z" fill="#000000" fill-rule="evenodd" fill-opacity="1" /><path clip-path="url(#clip610)" d="M119.885 667.349 L136.204 667.349 L136.204 671.284 L114.26 671.284 L114.26 667.349 Q116.922 664.594 121.505 659.964 Q126.112 655.312 127.292 653.969 Q129.538 651.446 130.417 649.71 Q131.32 647.951 131.32 646.261 Q131.32 643.506 129.376 641.77 Q127.455 640.034 124.353 640.034 Q122.154 640.034 119.7 640.798 Q117.269 641.562 114.492 643.113 L114.492 638.39 Q117.316 637.256 119.769 636.677 Q122.223 636.099 124.26 636.099 Q129.63 636.099 132.825 638.784 Q136.019 641.469 136.019 645.96 Q136.019 648.089 135.209 650.011 Q134.422 651.909 132.316 654.501 Q131.737 655.173 128.635 658.39 Q125.533 661.585 119.885 667.349 Z" fill="#000000" fill-rule="evenodd" fill-opacity="1" /><path clip-path="url(#clip610)" d="M144.839 636.724 L167.061 636.724 L167.061 638.714 L154.515 671.284 L149.63 671.284 L161.436 640.659 L144.839 640.659 L144.839 636.724 Z" fill="#000000" fill-rule="evenodd" fill-opacity="1" /><path clip-path="url(#clip610)" d="M186.181 639.802 Q182.57 639.802 180.741 643.367 Q178.936 646.909 178.936 654.038 Q178.936 661.145 180.741 664.71 Q182.57 668.251 186.181 668.251 Q189.815 668.251 191.621 664.71 Q193.45 661.145 193.45 654.038 Q193.45 646.909 191.621 643.367 Q189.815 639.802 186.181 639.802 M186.181 636.099 Q191.991 636.099 195.047 640.705 Q198.125 645.289 198.125 654.038 Q198.125 662.765 195.047 667.372 Q191.991 671.955 186.181 671.955 Q180.371 671.955 177.292 667.372 Q174.237 662.765 174.237 654.038 Q174.237 645.289 177.292 640.705 Q180.371 636.099 186.181 636.099 Z" fill="#000000" fill-rule="evenodd" fill-opacity="1" /><path clip-path="url(#clip610)" d="M120.88 444.015 L137.2 444.015 L137.2 447.95 L115.256 447.95 L115.256 444.015 Q117.918 441.261 122.501 436.631 Q127.107 431.978 128.288 430.636 Q130.533 428.113 131.413 426.377 Q132.316 424.617 132.316 422.927 Q132.316 420.173 130.371 418.437 Q128.45 416.701 125.348 416.701 Q123.149 416.701 120.695 417.465 Q118.265 418.228 115.487 419.779 L115.487 415.057 Q118.311 413.923 120.765 413.344 Q123.218 412.765 125.255 412.765 Q130.626 412.765 133.82 415.451 Q137.015 418.136 137.015 422.627 Q137.015 424.756 136.204 426.677 Q135.417 428.576 133.311 431.168 Q132.732 431.839 129.63 435.057 Q126.529 438.251 120.88 444.015 Z" fill="#000000" fill-rule="evenodd" fill-opacity="1" /><path clip-path="url(#clip610)" d="M145.834 413.39 L168.056 413.39 L168.056 415.381 L155.51 447.95 L150.626 447.95 L162.431 417.326 L145.834 417.326 L145.834 413.39 Z" fill="#000000" fill-rule="evenodd" fill-opacity="1" /><path clip-path="url(#clip610)" d="M177.223 413.39 L195.579 413.39 L195.579 417.326 L181.505 417.326 L181.505 425.798 Q182.524 425.451 183.542 425.289 Q184.561 425.103 185.579 425.103 Q191.366 425.103 194.746 428.275 Q198.125 431.446 198.125 436.863 Q198.125 442.441 194.653 445.543 Q191.181 448.622 184.862 448.622 Q182.686 448.622 180.417 448.251 Q178.172 447.881 175.764 447.14 L175.764 442.441 Q177.848 443.575 180.07 444.131 Q182.292 444.687 184.769 444.687 Q188.774 444.687 191.112 442.58 Q193.45 440.474 193.45 436.863 Q193.45 433.251 191.112 431.145 Q188.774 429.039 184.769 429.039 Q182.894 429.039 181.019 429.455 Q179.167 429.872 177.223 430.751 L177.223 413.39 Z" fill="#000000" fill-rule="evenodd" fill-opacity="1" /><path clip-path="url(#clip610)" d="M119.885 220.682 L136.204 220.682 L136.204 224.617 L114.26 224.617 L114.26 220.682 Q116.922 217.927 121.505 213.298 Q126.112 208.645 127.292 207.302 Q129.538 204.779 130.417 203.043 Q131.32 201.284 131.32 199.594 Q131.32 196.84 129.376 195.103 Q127.455 193.367 124.353 193.367 Q122.154 193.367 119.7 194.131 Q117.269 194.895 114.492 196.446 L114.492 191.724 Q117.316 190.59 119.769 190.011 Q122.223 189.432 124.26 189.432 Q129.63 189.432 132.825 192.117 Q136.019 194.803 136.019 199.293 Q136.019 201.423 135.209 203.344 Q134.422 205.242 132.316 207.835 Q131.737 208.506 128.635 211.724 Q125.533 214.918 119.885 220.682 Z" fill="#000000" fill-rule="evenodd" fill-opacity="1" /><path clip-path="url(#clip610)" d="M156.019 208.205 Q152.686 208.205 150.765 209.988 Q148.866 211.77 148.866 214.895 Q148.866 218.02 150.765 219.802 Q152.686 221.585 156.019 221.585 Q159.353 221.585 161.274 219.802 Q163.195 217.997 163.195 214.895 Q163.195 211.77 161.274 209.988 Q159.376 208.205 156.019 208.205 M151.343 206.215 Q148.334 205.474 146.644 203.414 Q144.978 201.353 144.978 198.39 Q144.978 194.247 147.917 191.84 Q150.88 189.432 156.019 189.432 Q161.181 189.432 164.121 191.84 Q167.061 194.247 167.061 198.39 Q167.061 201.353 165.371 203.414 Q163.704 205.474 160.718 206.215 Q164.098 207.002 165.973 209.293 Q167.871 211.585 167.871 214.895 Q167.871 219.918 164.792 222.603 Q161.737 225.288 156.019 225.288 Q150.302 225.288 147.223 222.603 Q144.167 219.918 144.167 214.895 Q144.167 211.585 146.066 209.293 Q147.964 207.002 151.343 206.215 M149.63 198.83 Q149.63 201.515 151.297 203.02 Q152.987 204.525 156.019 204.525 Q159.028 204.525 160.718 203.02 Q162.431 201.515 162.431 198.83 Q162.431 196.145 160.718 194.641 Q159.028 193.136 156.019 193.136 Q152.987 193.136 151.297 194.641 Q149.63 196.145 149.63 198.83 Z" fill="#000000" fill-rule="evenodd" fill-opacity="1" /><path clip-path="url(#clip610)" d="M186.181 193.136 Q182.57 193.136 180.741 196.701 Q178.936 200.242 178.936 207.372 Q178.936 214.478 180.741 218.043 Q182.57 221.585 186.181 221.585 Q189.815 221.585 191.621 218.043 Q193.45 214.478 193.45 207.372 Q193.45 200.242 191.621 196.701 Q189.815 193.136 186.181 193.136 M186.181 189.432 Q191.991 189.432 195.047 194.039 Q198.125 198.622 198.125 207.372 Q198.125 216.099 195.047 220.705 Q191.991 225.288 186.181 225.288 Q180.371 225.288 177.292 220.705 Q174.237 216.099 174.237 207.372 Q174.237 198.622 177.292 194.039 Q180.371 189.432 186.181 189.432 Z" fill="#000000" fill-rule="evenodd" fill-opacity="1" /><path clip-path="url(#clip610)" d="M16.4842 848.505 L16.4842 811.17 L21.3858 811.17 L58.5933 841.216 L58.5933 810.438 L64.0042 810.438 L64.0042 849.237 L59.1026 849.237 L21.895 819.191 L21.895 848.505 L16.4842 848.505 Z" fill="#000000" fill-rule="evenodd" fill-opacity="1" /><path clip-path="url(#clip610)" d="M67.3143 786.535 Q73.68 789.017 75.6216 791.373 Q77.5631 793.728 77.5631 797.675 L77.5631 802.354 L72.6615 802.354 L72.6615 798.916 Q72.6615 796.497 71.5157 795.16 Q70.3699 793.824 66.1048 792.2 L63.4312 791.15 L28.3562 805.568 L28.3562 799.362 L56.238 788.222 L28.3562 777.082 L28.3562 770.875 L67.3143 786.535 Z" fill="#000000" fill-rule="evenodd" fill-opacity="1" /><path clip-path="url(#clip610)" d="M29.4065 740.065 L34.9447 740.065 Q33.6716 742.548 33.035 745.221 Q32.3984 747.895 32.3984 750.76 Q32.3984 755.12 33.7352 757.316 Q35.072 759.481 37.7456 759.481 Q39.7826 759.481 40.9603 757.921 Q42.1061 756.361 43.1565 751.651 L43.6021 749.646 Q44.9389 743.407 47.3897 740.797 Q49.8086 738.155 54.1691 738.155 Q59.1344 738.155 62.0308 742.102 Q64.9272 746.017 64.9272 752.892 Q64.9272 755.757 64.3543 758.876 Q63.8132 761.963 62.6992 765.401 L56.6518 765.401 Q58.3387 762.154 59.198 759.003 Q60.0256 755.852 60.0256 752.765 Q60.0256 748.627 58.6251 746.399 Q57.1929 744.171 54.6147 744.171 Q52.2276 744.171 50.9545 745.794 Q49.6813 747.386 48.5037 752.828 L48.0262 754.865 Q46.8804 760.308 44.5251 762.727 Q42.138 765.146 38.0002 765.146 Q32.9713 765.146 30.2341 761.581 Q27.4968 758.016 27.4968 751.46 Q27.4968 748.213 27.9743 745.349 Q28.4517 742.484 29.4065 740.065 Z" fill="#000000" fill-rule="evenodd" fill-opacity="1" /><path clip-path="url(#clip610)" d="M14.479 729.052 L14.479 723.164 L43.7294 723.164 L28.3562 705.69 L28.3562 698.211 L45.0344 717.117 L64.0042 697.415 L64.0042 705.054 L46.5939 723.164 L64.0042 723.164 L64.0042 729.052 L14.479 729.052 Z" fill="#000000" fill-rule="evenodd" fill-opacity="1" /><path clip-path="url(#clip610)" d="M608.919 12.096 L656.436 12.096 L656.436 18.3344 L618.195 65.6895 L657.368 65.6895 L657.368 72.576 L607.987 72.576 L607.987 66.3376 L646.228 18.9825 L608.919 18.9825 L608.919 12.096 Z" fill="#000000" fill-rule="evenodd" fill-opacity="1" /><path clip-path="url(#clip610)" d="M687.79 76.7889 Q684.63 84.8907 681.633 87.3618 Q678.635 89.8329 673.612 89.8329 L667.657 89.8329 L667.657 83.5945 L672.032 83.5945 Q675.111 83.5945 676.812 82.1361 Q678.513 80.6778 680.579 75.2496 L681.916 71.8468 L663.566 27.2059 L671.465 27.2059 L685.643 62.6918 L699.821 27.2059 L707.72 27.2059 L687.79 76.7889 Z" fill="#000000" fill-rule="evenodd" fill-opacity="1" /><path clip-path="url(#clip610)" d="M746.933 28.5427 L746.933 35.5912 Q743.773 33.9709 740.371 33.1607 Q736.968 32.3505 733.322 32.3505 Q727.772 32.3505 724.977 34.0519 Q722.223 35.7533 722.223 39.156 Q722.223 41.7486 724.208 43.2475 Q726.193 44.7058 732.188 46.0426 L734.74 46.6097 Q742.68 48.3111 746.001 51.4303 Q749.364 54.509 749.364 60.0587 Q749.364 66.3781 744.341 70.0644 Q739.358 73.7508 730.608 73.7508 Q726.962 73.7508 722.992 73.0216 Q719.063 72.3329 714.688 70.9151 L714.688 63.2184 Q718.82 65.3654 722.83 66.4591 Q726.841 67.5124 730.77 67.5124 Q736.036 67.5124 738.872 65.73 Q741.708 63.9071 741.708 60.6258 Q741.708 57.5877 739.642 55.9673 Q737.616 54.3469 730.689 52.8481 L728.096 52.2405 Q721.169 50.7821 718.091 47.7845 Q715.012 44.7463 715.012 39.4801 Q715.012 33.0797 719.549 29.5959 Q724.086 26.1121 732.431 26.1121 Q736.563 26.1121 740.209 26.7198 Q743.855 27.3274 746.933 28.5427 Z" fill="#000000" fill-rule="evenodd" fill-opacity="1" /><path clip-path="url(#clip610)" d="M760.949 9.54393 L768.443 9.54393 L768.443 46.7717 L790.683 27.2059 L800.203 27.2059 L776.14 48.4326 L801.215 72.576 L791.493 72.576 L768.443 50.4176 L768.443 72.576 L760.949 72.576 L760.949 9.54393 Z" fill="#000000" fill-rule="evenodd" fill-opacity="1" /><path clip-path="url(#clip610)" d="M856.267 49.7694 Q847.234 49.7694 843.75 51.8354 Q840.266 53.9013 840.266 58.8839 Q840.266 62.8538 842.859 65.2034 Q845.492 67.5124 849.988 67.5124 Q856.186 67.5124 859.913 63.1374 Q863.68 58.7219 863.68 51.4303 L863.68 49.7694 L856.267 49.7694 M871.134 46.6907 L871.134 72.576 L863.68 72.576 L863.68 65.6895 Q861.128 69.8214 857.32 71.8063 Q853.512 73.7508 848.003 73.7508 Q841.036 73.7508 836.904 69.8619 Q832.812 65.9325 832.812 59.3701 Q832.812 51.7138 837.916 47.825 Q843.061 43.9361 853.229 43.9361 L863.68 43.9361 L863.68 43.2069 Q863.68 38.0623 860.277 35.2672 Q856.915 32.4315 850.798 32.4315 Q846.91 32.4315 843.223 33.3632 Q839.537 34.295 836.134 36.1584 L836.134 29.2718 Q840.226 27.692 844.074 26.9223 Q847.922 26.1121 851.568 26.1121 Q861.412 26.1121 866.273 31.2163 Q871.134 36.3204 871.134 46.6907 Z" fill="#000000" fill-rule="evenodd" fill-opacity="1" /><path clip-path="url(#clip610)" d="M908.524 27.2059 L915.977 27.2059 L925.295 62.6108 L934.571 27.2059 L943.362 27.2059 L952.679 62.6108 L961.955 27.2059 L969.409 27.2059 L957.54 72.576 L948.749 72.576 L938.987 35.3887 L929.183 72.576 L920.393 72.576 L908.524 27.2059 Z" fill="#000000" fill-rule="evenodd" fill-opacity="1" /><path clip-path="url(#clip610)" d="M980.711 27.2059 L988.165 27.2059 L988.165 72.576 L980.711 72.576 L980.711 27.2059 M980.711 9.54393 L988.165 9.54393 L988.165 18.9825 L980.711 18.9825 L980.711 9.54393 Z" fill="#000000" fill-rule="evenodd" fill-opacity="1" /><path clip-path="url(#clip610)" d="M1042.57 48.0275 L1042.57 51.6733 L1008.3 51.6733 Q1008.78 59.3701 1012.92 63.421 Q1017.09 67.4314 1024.5 67.4314 Q1028.8 67.4314 1032.81 66.3781 Q1036.86 65.3249 1040.83 63.2184 L1040.83 70.267 Q1036.82 71.9684 1032.6 72.8596 Q1028.39 73.7508 1024.06 73.7508 Q1013.2 73.7508 1006.84 67.4314 Q1000.52 61.1119 1000.52 50.3365 Q1000.52 39.1965 1006.52 32.6746 Q1012.55 26.1121 1022.76 26.1121 Q1031.91 26.1121 1037.22 32.0264 Q1042.57 37.9003 1042.57 48.0275 M1035.11 45.84 Q1035.03 39.7232 1031.67 36.0774 Q1028.35 32.4315 1022.84 32.4315 Q1016.6 32.4315 1012.83 35.9558 Q1009.11 39.4801 1008.54 45.8805 L1035.11 45.84 Z" fill="#000000" fill-rule="evenodd" fill-opacity="1" /><path clip-path="url(#clip610)" d="M1054.8 9.54393 L1062.26 9.54393 L1062.26 72.576 L1054.8 72.576 L1054.8 9.54393 Z" fill="#000000" fill-rule="evenodd" fill-opacity="1" /><path clip-path="url(#clip610)" d="M1077.57 9.54393 L1085.06 9.54393 L1085.06 46.7717 L1107.3 27.2059 L1116.82 27.2059 L1092.76 48.4326 L1117.83 72.576 L1108.11 72.576 L1085.06 50.4176 L1085.06 72.576 L1077.57 72.576 L1077.57 9.54393 Z" fill="#000000" fill-rule="evenodd" fill-opacity="1" /><path clip-path="url(#clip610)" d="M1140.52 32.4315 Q1134.52 32.4315 1131.04 37.1306 Q1127.56 41.7891 1127.56 49.9314 Q1127.56 58.0738 1131 62.7728 Q1134.48 67.4314 1140.52 67.4314 Q1146.47 67.4314 1149.96 62.7323 Q1153.44 58.0333 1153.44 49.9314 Q1153.44 41.8701 1149.96 37.1711 Q1146.47 32.4315 1140.52 32.4315 M1140.52 26.1121 Q1150.24 26.1121 1155.79 32.4315 Q1161.34 38.7509 1161.34 49.9314 Q1161.34 61.0714 1155.79 67.4314 Q1150.24 73.7508 1140.52 73.7508 Q1130.76 73.7508 1125.21 67.4314 Q1119.7 61.0714 1119.7 49.9314 Q1119.7 38.7509 1125.21 32.4315 Q1130.76 26.1121 1140.52 26.1121 Z" fill="#000000" fill-rule="evenodd" fill-opacity="1" /><path clip-path="url(#clip610)" d="M1194.92 5.93863 L1202.98 5.93863 L1189.78 21.17 L1183.58 21.17 L1194.92 5.93863 M1202.62 28.5427 L1202.62 35.5912 Q1199.46 33.9709 1196.06 33.1607 Q1192.65 32.3505 1189.01 32.3505 Q1183.46 32.3505 1180.66 34.0519 Q1177.91 35.7533 1177.91 39.156 Q1177.91 41.7486 1179.89 43.2475 Q1181.88 44.7058 1187.87 46.0426 L1190.43 46.6097 Q1198.37 48.3111 1201.69 51.4303 Q1205.05 54.509 1205.05 60.0587 Q1205.05 66.3781 1200.03 70.0644 Q1195.04 73.7508 1186.29 73.7508 Q1182.65 73.7508 1178.68 73.0216 Q1174.75 72.3329 1170.37 70.9151 L1170.37 63.2184 Q1174.51 65.3654 1178.52 66.4591 Q1182.53 67.5124 1186.46 67.5124 Q1191.72 67.5124 1194.56 65.73 Q1197.39 63.9071 1197.39 60.6258 Q1197.39 57.5877 1195.33 55.9673 Q1193.3 54.3469 1186.38 52.8481 L1183.78 52.2405 Q1176.86 50.7821 1173.78 47.7845 Q1170.7 44.7463 1170.7 39.4801 Q1170.7 33.0797 1175.24 29.5959 Q1179.77 26.1121 1188.12 26.1121 Q1192.25 26.1121 1195.89 26.7198 Q1199.54 27.3274 1202.62 28.5427 Z" fill="#000000" fill-rule="evenodd" fill-opacity="1" /><path clip-path="url(#clip610)" d="M1249.57 28.9478 L1249.57 35.9153 Q1246.41 34.1734 1243.21 33.3227 Q1240.05 32.4315 1236.81 32.4315 Q1229.56 32.4315 1225.55 37.0496 Q1221.54 41.6271 1221.54 49.9314 Q1221.54 58.2358 1225.55 62.8538 Q1229.56 67.4314 1236.81 67.4314 Q1240.05 67.4314 1243.21 66.5807 Q1246.41 65.6895 1249.57 63.9476 L1249.57 70.8341 Q1246.45 72.2924 1243.09 73.0216 Q1239.77 73.7508 1236 73.7508 Q1225.75 73.7508 1219.71 67.3098 Q1213.68 60.8689 1213.68 49.9314 Q1213.68 38.832 1219.75 32.472 Q1225.87 26.1121 1236.48 26.1121 Q1239.93 26.1121 1243.21 26.8413 Q1246.49 27.5299 1249.57 28.9478 M1241.02 6.22219 L1249.08 6.22219 L1235.88 21.4536 L1229.68 21.4536 L1241.02 6.22219 Z" fill="#000000" fill-rule="evenodd" fill-opacity="1" /><path clip-path="url(#clip610)" d="M1318.76 49.3643 Q1318.76 41.2625 1315.4 36.8065 Q1312.07 32.3505 1306.04 32.3505 Q1300.04 32.3505 1296.68 36.8065 Q1293.36 41.2625 1293.36 49.3643 Q1293.36 57.4256 1296.68 61.8816 Q1300.04 66.3376 1306.04 66.3376 Q1312.07 66.3376 1315.4 61.8816 Q1318.76 57.4256 1318.76 49.3643 M1326.21 66.9452 Q1326.21 78.5308 1321.07 84.1616 Q1315.92 89.8329 1305.31 89.8329 Q1301.38 89.8329 1297.9 89.2252 Q1294.41 88.6581 1291.13 87.4428 L1291.13 80.1917 Q1294.41 81.9741 1297.61 82.8248 Q1300.81 83.6755 1304.14 83.6755 Q1311.47 83.6755 1315.11 79.8271 Q1318.76 76.0193 1318.76 68.282 L1318.76 64.5957 Q1316.45 68.6061 1312.84 70.5911 Q1309.24 72.576 1304.22 72.576 Q1295.87 72.576 1290.77 66.2161 Q1285.66 59.8562 1285.66 49.3643 Q1285.66 38.832 1290.77 32.472 Q1295.87 26.1121 1304.22 26.1121 Q1309.24 26.1121 1312.84 28.0971 Q1316.45 30.082 1318.76 34.0924 L1318.76 27.2059 L1326.21 27.2059 L1326.21 66.9452 Z" fill="#000000" fill-rule="evenodd" fill-opacity="1" /><path clip-path="url(#clip610)" d="M1367.86 34.1734 Q1366.6 33.4443 1365.1 33.1202 Q1363.64 32.7556 1361.86 32.7556 Q1355.54 32.7556 1352.14 36.8875 Q1348.78 40.9789 1348.78 48.6757 L1348.78 72.576 L1341.28 72.576 L1341.28 27.2059 L1348.78 27.2059 L1348.78 34.2544 Q1351.13 30.1225 1354.89 28.1376 Q1358.66 26.1121 1364.05 26.1121 Q1364.82 26.1121 1365.75 26.2337 Q1366.68 26.3147 1367.82 26.5172 L1367.86 34.1734 Z" fill="#000000" fill-rule="evenodd" fill-opacity="1" /><path clip-path="url(#clip610)" d="M1374.9 54.671 L1374.9 27.2059 L1382.36 27.2059 L1382.36 54.3874 Q1382.36 60.8284 1384.87 64.0691 Q1387.38 67.2693 1392.4 67.2693 Q1398.44 67.2693 1401.92 63.421 Q1405.45 59.5726 1405.45 52.9291 L1405.45 27.2059 L1412.9 27.2059 L1412.9 72.576 L1405.45 72.576 L1405.45 65.6084 Q1402.73 69.7404 1399.13 71.7658 Q1395.56 73.7508 1390.82 73.7508 Q1383.01 73.7508 1378.96 68.8897 Q1374.9 64.0286 1374.9 54.671 M1393.66 26.1121 L1393.66 26.1121 Z" fill="#000000" fill-rule="evenodd" fill-opacity="1" /><path clip-path="url(#clip610)" d="M1435.47 65.7705 L1435.47 89.8329 L1427.97 89.8329 L1427.97 27.2059 L1435.47 27.2059 L1435.47 34.0924 Q1437.81 30.0415 1441.38 28.0971 Q1444.99 26.1121 1449.97 26.1121 Q1458.23 26.1121 1463.38 32.6746 Q1468.56 39.2371 1468.56 49.9314 Q1468.56 60.6258 1463.38 67.1883 Q1458.23 73.7508 1449.97 73.7508 Q1444.99 73.7508 1441.38 71.8063 Q1437.81 69.8214 1435.47 65.7705 M1460.82 49.9314 Q1460.82 41.7081 1457.42 37.0496 Q1454.06 32.3505 1448.14 32.3505 Q1442.23 32.3505 1438.83 37.0496 Q1435.47 41.7081 1435.47 49.9314 Q1435.47 58.1548 1438.83 62.8538 Q1442.23 67.5124 1448.14 67.5124 Q1454.06 67.5124 1457.42 62.8538 Q1460.82 58.1548 1460.82 49.9314 Z" fill="#000000" fill-rule="evenodd" fill-opacity="1" /><path clip-path="url(#clip610)" d="M1499.79 76.7889 Q1496.63 84.8907 1493.64 87.3618 Q1490.64 89.8329 1485.62 89.8329 L1479.66 89.8329 L1479.66 83.5945 L1484.04 83.5945 Q1487.11 83.5945 1488.82 82.1361 Q1490.52 80.6778 1492.58 75.2496 L1493.92 71.8468 L1475.57 27.2059 L1483.47 27.2059 L1497.65 62.6918 L1511.82 27.2059 L1519.72 27.2059 L1499.79 76.7889 Z" fill="#000000" fill-rule="evenodd" fill-opacity="1" /><path clip-path="url(#clip610)" d="M1588.95 49.9314 Q1588.95 41.7081 1585.55 37.0496 Q1582.19 32.3505 1576.27 32.3505 Q1570.36 32.3505 1566.96 37.0496 Q1563.6 41.7081 1563.6 49.9314 Q1563.6 58.1548 1566.96 62.8538 Q1570.36 67.5124 1576.27 67.5124 Q1582.19 67.5124 1585.55 62.8538 Q1588.95 58.1548 1588.95 49.9314 M1563.6 34.0924 Q1565.95 30.0415 1569.51 28.0971 Q1573.12 26.1121 1578.1 26.1121 Q1586.36 26.1121 1591.51 32.6746 Q1596.69 39.2371 1596.69 49.9314 Q1596.69 60.6258 1591.51 67.1883 Q1586.36 73.7508 1578.1 73.7508 Q1573.12 73.7508 1569.51 71.8063 Q1565.95 69.8214 1563.6 65.7705 L1563.6 72.576 L1556.1 72.576 L1556.1 9.54393 L1563.6 9.54393 L1563.6 34.0924 Z" fill="#000000" fill-rule="evenodd" fill-opacity="1" /><path clip-path="url(#clip610)" d="M1629.67 49.7694 Q1620.63 49.7694 1617.15 51.8354 Q1613.66 53.9013 1613.66 58.8839 Q1613.66 62.8538 1616.26 65.2034 Q1618.89 67.5124 1623.39 67.5124 Q1629.58 67.5124 1633.31 63.1374 Q1637.08 58.7219 1637.08 51.4303 L1637.08 49.7694 L1629.67 49.7694 M1644.53 46.6907 L1644.53 72.576 L1637.08 72.576 L1637.08 65.6895 Q1634.53 69.8214 1630.72 71.8063 Q1626.91 73.7508 1621.4 73.7508 Q1614.43 73.7508 1610.3 69.8619 Q1606.21 65.9325 1606.21 59.3701 Q1606.21 51.7138 1611.32 47.825 Q1616.46 43.9361 1626.63 43.9361 L1637.08 43.9361 L1637.08 43.2069 Q1637.08 38.0623 1633.68 35.2672 Q1630.31 32.4315 1624.2 32.4315 Q1620.31 32.4315 1616.62 33.3632 Q1612.94 34.295 1609.53 36.1584 L1609.53 29.2718 Q1613.62 27.692 1617.47 26.9223 Q1621.32 26.1121 1624.97 26.1121 Q1634.81 26.1121 1639.67 31.2163 Q1644.53 36.3204 1644.53 46.6907 Z" fill="#000000" fill-rule="evenodd" fill-opacity="1" /><path clip-path="url(#clip610)" d="M1689.74 34.0924 L1689.74 9.54393 L1697.19 9.54393 L1697.19 72.576 L1689.74 72.576 L1689.74 65.7705 Q1687.39 69.8214 1683.79 71.8063 Q1680.22 73.7508 1675.2 73.7508 Q1666.97 73.7508 1661.79 67.1883 Q1656.64 60.6258 1656.64 49.9314 Q1656.64 39.2371 1661.79 32.6746 Q1666.97 26.1121 1675.2 26.1121 Q1680.22 26.1121 1683.79 28.0971 Q1687.39 30.0415 1689.74 34.0924 M1664.34 49.9314 Q1664.34 58.1548 1667.7 62.8538 Q1671.11 67.5124 1677.02 67.5124 Q1682.94 67.5124 1686.34 62.8538 Q1689.74 58.1548 1689.74 49.9314 Q1689.74 41.7081 1686.34 37.0496 Q1682.94 32.3505 1677.02 32.3505 Q1671.11 32.3505 1667.7 37.0496 Q1664.34 41.7081 1664.34 49.9314 Z" fill="#000000" fill-rule="evenodd" fill-opacity="1" /><path clip-path="url(#clip610)" d="M1733.17 49.7694 Q1724.13 49.7694 1720.65 51.8354 Q1717.17 53.9013 1717.17 58.8839 Q1717.17 62.8538 1719.76 65.2034 Q1722.39 67.5124 1726.89 67.5124 Q1733.09 67.5124 1736.81 63.1374 Q1740.58 58.7219 1740.58 51.4303 L1740.58 49.7694 L1733.17 49.7694 M1748.03 46.6907 L1748.03 72.576 L1740.58 72.576 L1740.58 65.6895 Q1738.03 69.8214 1734.22 71.8063 Q1730.41 73.7508 1724.9 73.7508 Q1717.93 73.7508 1713.8 69.8619 Q1709.71 65.9325 1709.71 59.3701 Q1709.71 51.7138 1714.82 47.825 Q1719.96 43.9361 1730.13 43.9361 L1740.58 43.9361 L1740.58 43.2069 Q1740.58 38.0623 1737.18 35.2672 Q1733.81 32.4315 1727.7 32.4315 Q1723.81 32.4315 1720.12 33.3632 Q1716.44 34.295 1713.03 36.1584 L1713.03 29.2718 Q1717.12 27.692 1720.97 26.9223 Q1724.82 26.1121 1728.47 26.1121 Q1738.31 26.1121 1743.17 31.2163 Q1748.03 36.3204 1748.03 46.6907 Z" fill="#000000" fill-rule="evenodd" fill-opacity="1" /><path clip-path="url(#clip610)" d="M1759.05 27.2059 L1766.51 27.2059 L1775.82 62.6108 L1785.1 27.2059 L1793.89 27.2059 L1803.21 62.6108 L1812.48 27.2059 L1819.94 27.2059 L1808.07 72.576 L1799.28 72.576 L1789.51 35.3887 L1779.71 72.576 L1770.92 72.576 L1759.05 27.2059 Z" fill="#000000" fill-rule="evenodd" fill-opacity="1" /><path clip-path="url(#clip610)" d="M1863.89 28.9478 L1863.89 35.9153 Q1860.73 34.1734 1857.53 33.3227 Q1854.37 32.4315 1851.13 32.4315 Q1843.88 32.4315 1839.87 37.0496 Q1835.86 41.6271 1835.86 49.9314 Q1835.86 58.2358 1839.87 62.8538 Q1843.88 67.4314 1851.13 67.4314 Q1854.37 67.4314 1857.53 66.5807 Q1860.73 65.6895 1863.89 63.9476 L1863.89 70.8341 Q1860.77 72.2924 1857.41 73.0216 Q1854.09 73.7508 1850.32 73.7508 Q1840.07 73.7508 1834.03 67.3098 Q1828 60.8689 1828 49.9314 Q1828 38.832 1834.07 32.472 Q1840.19 26.1121 1850.8 26.1121 Q1854.25 26.1121 1857.53 26.8413 Q1860.81 27.5299 1863.89 28.9478 Z" fill="#000000" fill-rule="evenodd" fill-opacity="1" /><path clip-path="url(#clip610)" d="M1873.61 27.2059 L1909.02 27.2059 L1909.02 34.0114 L1880.98 66.6212 L1909.02 66.6212 L1909.02 72.576 L1872.6 72.576 L1872.6 65.7705 L1900.63 33.1607 L1873.61 33.1607 L1873.61 27.2059 Z" fill="#000000" fill-rule="evenodd" fill-opacity="1" /><path clip-path="url(#clip610)" d="M1959.21 48.0275 L1959.21 51.6733 L1924.94 51.6733 Q1925.42 59.3701 1929.55 63.421 Q1933.73 67.4314 1941.14 67.4314 Q1945.43 67.4314 1949.44 66.3781 Q1953.5 65.3249 1957.46 63.2184 L1957.46 70.267 Q1953.45 71.9684 1949.24 72.8596 Q1945.03 73.7508 1940.69 73.7508 Q1929.84 73.7508 1923.48 67.4314 Q1917.16 61.1119 1917.16 50.3365 Q1917.16 39.1965 1923.15 32.6746 Q1929.19 26.1121 1939.4 26.1121 Q1948.55 26.1121 1953.86 32.0264 Q1959.21 37.9003 1959.21 48.0275 M1951.75 45.84 Q1951.67 39.7232 1948.31 36.0774 Q1944.99 32.4315 1939.48 32.4315 Q1933.24 32.4315 1929.47 35.9558 Q1925.75 39.4801 1925.18 45.8805 L1951.75 45.84 Z" fill="#000000" fill-rule="evenodd" fill-opacity="1" /><path clip-path="url(#clip610)" d="M1971.44 27.2059 L1978.89 27.2059 L1978.89 73.3862 Q1978.89 82.0551 1975.57 85.944 Q1972.29 89.8329 1964.96 89.8329 L1962.12 89.8329 L1962.12 83.5134 L1964.11 83.5134 Q1968.36 83.5134 1969.9 81.5285 Q1971.44 79.5841 1971.44 73.3862 L1971.44 27.2059 M1971.44 9.54393 L1978.89 9.54393 L1978.89 18.9825 L1971.44 18.9825 L1971.44 9.54393 Z" fill="#000000" fill-rule="evenodd" fill-opacity="1" /><circle clip-path="url(#clip612)" cx="294.087" cy="1386.4" r="14" fill="#009af9" fill-rule="evenodd" fill-opacity="1" stroke="#000000" stroke-opacity="1" stroke-width="3.2"/>
<circle clip-path="url(#clip612)" cx="627.205" cy="979.441" r="14" fill="#009af9" fill-rule="evenodd" fill-opacity="1" stroke="#000000" stroke-opacity="1" stroke-width="3.2"/>
<circle clip-path="url(#clip612)" cx="960.323" cy="643.528" r="14" fill="#009af9" fill-rule="evenodd" fill-opacity="1" stroke="#000000" stroke-opacity="1" stroke-width="3.2"/>
<circle clip-path="url(#clip612)" cx="1293.44" cy="569.505" r="14" fill="#009af9" fill-rule="evenodd" fill-opacity="1" stroke="#000000" stroke-opacity="1" stroke-width="3.2"/>
<circle clip-path="url(#clip612)" cx="1626.56" cy="1197.63" r="14" fill="#009af9" fill-rule="evenodd" fill-opacity="1" stroke="#000000" stroke-opacity="1" stroke-width="3.2"/>
<circle clip-path="url(#clip612)" cx="1959.68" cy="659.203" r="14" fill="#009af9" fill-rule="evenodd" fill-opacity="1" stroke="#000000" stroke-opacity="1" stroke-width="3.2"/>
<circle clip-path="url(#clip612)" cx="2292.79" cy="165.401" r="14" fill="#009af9" fill-rule="evenodd" fill-opacity="1" stroke="#000000" stroke-opacity="1" stroke-width="3.2"/>
<polyline clip-path="url(#clip612)" style="stroke:#0000ff; stroke-linecap:butt; stroke-linejoin:round; stroke-width:4; stroke-opacity:1; fill:none" points="
  294.087,1385.34 294.087,1385.34 
  
  
  
  
  
  627.205,980.116 
  
  
  
  
  
  
  
  
  
  
  
  
  960.323,637.395 
  
  
  
  
  
  
  
  
  
  
  
  
  
  
  
  
  
  
  1293.44,585.178 
  
  
  
  
  
  
  
  
  
  
  
  
  
  
  
  
  
  
  
  
  
  
  
  
  
  1626.56,1169.12 
  
  
  
  
  
  
  
  
  
  
  
  
  
  
  
  
  1959.68,680.577 
  
  
  
  
  
  
  
  
  
  
  2292.79,160.256 
  
  
  
  
  
  
  
  
  "/>
</svg>
