<?xml version="1.0" encoding="utf-8"?>
<svg xmlns="http://www.w3.org/2000/svg" xmlns:xlink="http://www.w3.org/1999/xlink" width="600" height="400" viewBox="0 0 2400 1600">
<defs>
  <clipPath id="clip000">
    <rect x="0" y="0" width="2400" height="1600"/>
  </clipPath>
</defs>
<path clip-path="url(#clip000)" d="
M0 1600 L2400 1600 L2400 0 L0 0  Z
  " fill="#ffffff" fill-rule="evenodd" fill-opacity="1"/>
<defs>
  <clipPath id="clip001">
    <rect x="480" y="0" width="1681" height="1600"/>
  </clipPath>
</defs>
<path clip-path="url(#clip000)" d="
M205.121 1423.18 L1908.93 1423.18 L1908.93 47.2441 L205.121 47.2441  Z
  " fill="#ffffff" fill-rule="evenodd" fill-opacity="1"/>
<defs>
  <clipPath id="clip002">
    <rect x="205" y="47" width="1705" height="1377"/>
  </clipPath>
</defs>
<polyline clip-path="url(#clip002)" style="stroke:#000000; stroke-linecap:round; stroke-linejoin:round; stroke-width:2; stroke-opacity:0.1; fill:none" points="
  205.121,1423.18 205.121,47.2441 
  "/>
<polyline clip-path="url(#clip002)" style="stroke:#000000; stroke-linecap:round; stroke-linejoin:round; stroke-width:2; stroke-opacity:0.1; fill:none" points="
  631.073,1423.18 631.073,47.2441 
  "/>
<polyline clip-path="url(#clip002)" style="stroke:#000000; stroke-linecap:round; stroke-linejoin:round; stroke-width:2; stroke-opacity:0.1; fill:none" points="
  1057.02,1423.18 1057.02,47.2441 
  "/>
<polyline clip-path="url(#clip002)" style="stroke:#000000; stroke-linecap:round; stroke-linejoin:round; stroke-width:2; stroke-opacity:0.1; fill:none" points="
  1482.98,1423.18 1482.98,47.2441 
  "/>
<polyline clip-path="url(#clip002)" style="stroke:#000000; stroke-linecap:round; stroke-linejoin:round; stroke-width:2; stroke-opacity:0.1; fill:none" points="
  1908.93,1423.18 1908.93,47.2441 
  "/>
<polyline clip-path="url(#clip000)" style="stroke:#000000; stroke-linecap:round; stroke-linejoin:round; stroke-width:4; stroke-opacity:1; fill:none" points="
  205.121,1423.18 1908.93,1423.18 
  "/>
<polyline clip-path="url(#clip000)" style="stroke:#000000; stroke-linecap:round; stroke-linejoin:round; stroke-width:4; stroke-opacity:1; fill:none" points="
  205.121,1423.18 205.121,1404.28 
  "/>
<polyline clip-path="url(#clip000)" style="stroke:#000000; stroke-linecap:round; stroke-linejoin:round; stroke-width:4; stroke-opacity:1; fill:none" points="
  631.073,1423.18 631.073,1404.28 
  "/>
<polyline clip-path="url(#clip000)" style="stroke:#000000; stroke-linecap:round; stroke-linejoin:round; stroke-width:4; stroke-opacity:1; fill:none" points="
  1057.02,1423.18 1057.02,1404.28 
  "/>
<polyline clip-path="url(#clip000)" style="stroke:#000000; stroke-linecap:round; stroke-linejoin:round; stroke-width:4; stroke-opacity:1; fill:none" points="
  1482.98,1423.18 1482.98,1404.28 
  "/>
<polyline clip-path="url(#clip000)" style="stroke:#000000; stroke-linecap:round; stroke-linejoin:round; stroke-width:4; stroke-opacity:1; fill:none" points="
  1908.93,1423.18 1908.93,1404.28 
  "/>
<path clip-path="url(#clip000)" d="M205.121 1454.1 Q201.51 1454.1 199.681 1457.66 Q197.876 1461.2 197.876 1468.33 Q197.876 1475.44 199.681 1479.01 Q201.51 1482.55 205.121 1482.55 Q208.755 1482.55 210.561 1479.01 Q212.389 1475.44 212.389 1468.33 Q212.389 1461.2 210.561 1457.66 Q208.755 1454.1 205.121 1454.1 M205.121 1450.39 Q210.931 1450.39 213.987 1455 Q217.065 1459.58 217.065 1468.33 Q217.065 1477.06 213.987 1481.67 Q210.931 1486.25 205.121 1486.25 Q199.311 1486.25 196.232 1481.67 Q193.177 1477.06 193.177 1468.33 Q193.177 1459.58 196.232 1455 Q199.311 1450.39 205.121 1450.39 Z" fill="#000000" fill-rule="evenodd" fill-opacity="1" /><path clip-path="url(#clip000)" d="M609.846 1481.64 L626.165 1481.64 L626.165 1485.58 L604.221 1485.58 L604.221 1481.64 Q606.883 1478.89 611.466 1474.26 Q616.073 1469.61 617.254 1468.27 Q619.499 1465.74 620.378 1464.01 Q621.281 1462.25 621.281 1460.56 Q621.281 1457.8 619.337 1456.07 Q617.416 1454.33 614.314 1454.33 Q612.115 1454.33 609.661 1455.09 Q607.23 1455.86 604.453 1457.41 L604.453 1452.69 Q607.277 1451.55 609.73 1450.97 Q612.184 1450.39 614.221 1450.39 Q619.591 1450.39 622.786 1453.08 Q625.98 1455.77 625.98 1460.26 Q625.98 1462.39 625.17 1464.31 Q624.383 1466.2 622.277 1468.8 Q621.698 1469.47 618.596 1472.69 Q615.494 1475.88 609.846 1481.64 Z" fill="#000000" fill-rule="evenodd" fill-opacity="1" /><path clip-path="url(#clip000)" d="M645.98 1454.1 Q642.369 1454.1 640.54 1457.66 Q638.735 1461.2 638.735 1468.33 Q638.735 1475.44 640.54 1479.01 Q642.369 1482.55 645.98 1482.55 Q649.614 1482.55 651.42 1479.01 Q653.249 1475.44 653.249 1468.33 Q653.249 1461.2 651.42 1457.66 Q649.614 1454.1 645.98 1454.1 M645.98 1450.39 Q651.79 1450.39 654.846 1455 Q657.925 1459.58 657.925 1468.33 Q657.925 1477.06 654.846 1481.67 Q651.79 1486.25 645.98 1486.25 Q640.17 1486.25 637.091 1481.67 Q634.036 1477.06 634.036 1468.33 Q634.036 1459.58 637.091 1455 Q640.17 1450.39 645.98 1450.39 Z" fill="#000000" fill-rule="evenodd" fill-opacity="1" /><path clip-path="url(#clip000)" d="M1045.2 1455.09 L1033.39 1473.54 L1045.2 1473.54 L1045.2 1455.09 M1043.97 1451.02 L1049.85 1451.02 L1049.85 1473.54 L1054.78 1473.54 L1054.78 1477.43 L1049.85 1477.43 L1049.85 1485.58 L1045.2 1485.58 L1045.2 1477.43 L1029.59 1477.43 L1029.59 1472.92 L1043.97 1451.02 Z" fill="#000000" fill-rule="evenodd" fill-opacity="1" /><path clip-path="url(#clip000)" d="M1072.51 1454.1 Q1068.9 1454.1 1067.07 1457.66 Q1065.27 1461.2 1065.27 1468.33 Q1065.27 1475.44 1067.07 1479.01 Q1068.9 1482.55 1072.51 1482.55 Q1076.15 1482.55 1077.95 1479.01 Q1079.78 1475.44 1079.78 1468.33 Q1079.78 1461.2 1077.95 1457.66 Q1076.15 1454.1 1072.51 1454.1 M1072.51 1450.39 Q1078.32 1450.39 1081.38 1455 Q1084.46 1459.58 1084.46 1468.33 Q1084.46 1477.06 1081.38 1481.67 Q1078.32 1486.25 1072.51 1486.25 Q1066.7 1486.25 1063.62 1481.67 Q1060.57 1477.06 1060.57 1468.33 Q1060.57 1459.58 1063.62 1455 Q1066.7 1450.39 1072.51 1450.39 Z" fill="#000000" fill-rule="evenodd" fill-opacity="1" /><path clip-path="url(#clip000)" d="M1468.38 1466.44 Q1465.23 1466.44 1463.38 1468.59 Q1461.55 1470.74 1461.55 1474.49 Q1461.55 1478.22 1463.38 1480.39 Q1465.23 1482.55 1468.38 1482.55 Q1471.53 1482.55 1473.36 1480.39 Q1475.21 1478.22 1475.21 1474.49 Q1475.21 1470.74 1473.36 1468.59 Q1471.53 1466.44 1468.38 1466.44 M1477.66 1451.78 L1477.66 1456.04 Q1475.9 1455.21 1474.1 1454.77 Q1472.32 1454.33 1470.56 1454.33 Q1465.93 1454.33 1463.47 1457.45 Q1461.04 1460.58 1460.7 1466.9 Q1462.06 1464.89 1464.12 1463.82 Q1466.18 1462.73 1468.66 1462.73 Q1473.87 1462.73 1476.88 1465.9 Q1479.91 1469.05 1479.91 1474.49 Q1479.91 1479.82 1476.76 1483.03 Q1473.61 1486.25 1468.38 1486.25 Q1462.39 1486.25 1459.22 1481.67 Q1456.04 1477.06 1456.04 1468.33 Q1456.04 1460.14 1459.93 1455.28 Q1463.82 1450.39 1470.37 1450.39 Q1472.13 1450.39 1473.91 1450.74 Q1475.72 1451.09 1477.66 1451.78 Z" fill="#000000" fill-rule="evenodd" fill-opacity="1" /><path clip-path="url(#clip000)" d="M1497.97 1454.1 Q1494.35 1454.1 1492.53 1457.66 Q1490.72 1461.2 1490.72 1468.33 Q1490.72 1475.44 1492.53 1479.01 Q1494.35 1482.55 1497.97 1482.55 Q1501.6 1482.55 1503.4 1479.01 Q1505.23 1475.44 1505.23 1468.33 Q1505.23 1461.2 1503.4 1457.66 Q1501.6 1454.1 1497.97 1454.1 M1497.97 1450.39 Q1503.78 1450.39 1506.83 1455 Q1509.91 1459.58 1509.91 1468.33 Q1509.91 1477.06 1506.83 1481.67 Q1503.78 1486.25 1497.97 1486.25 Q1492.15 1486.25 1489.08 1481.67 Q1486.02 1477.06 1486.02 1468.33 Q1486.02 1459.58 1489.08 1455 Q1492.15 1450.39 1497.97 1450.39 Z" fill="#000000" fill-rule="evenodd" fill-opacity="1" /><path clip-path="url(#clip000)" d="M1893.8 1469.17 Q1890.47 1469.17 1888.55 1470.95 Q1886.65 1472.73 1886.65 1475.86 Q1886.65 1478.98 1888.55 1480.77 Q1890.47 1482.55 1893.8 1482.55 Q1897.13 1482.55 1899.06 1480.77 Q1900.98 1478.96 1900.98 1475.86 Q1900.98 1472.73 1899.06 1470.95 Q1897.16 1469.17 1893.8 1469.17 M1889.13 1467.18 Q1886.12 1466.44 1884.43 1464.38 Q1882.76 1462.32 1882.76 1459.35 Q1882.76 1455.21 1885.7 1452.8 Q1888.66 1450.39 1893.8 1450.39 Q1898.96 1450.39 1901.9 1452.8 Q1904.84 1455.21 1904.84 1459.35 Q1904.84 1462.32 1903.15 1464.38 Q1901.49 1466.44 1898.5 1467.18 Q1901.88 1467.96 1903.75 1470.26 Q1905.65 1472.55 1905.65 1475.86 Q1905.65 1480.88 1902.57 1483.57 Q1899.52 1486.25 1893.8 1486.25 Q1888.08 1486.25 1885.01 1483.57 Q1881.95 1480.88 1881.95 1475.86 Q1881.95 1472.55 1883.85 1470.26 Q1885.75 1467.96 1889.13 1467.18 M1887.41 1459.79 Q1887.41 1462.48 1889.08 1463.98 Q1890.77 1465.49 1893.8 1465.49 Q1896.81 1465.49 1898.5 1463.98 Q1900.21 1462.48 1900.21 1459.79 Q1900.21 1457.11 1898.5 1455.6 Q1896.81 1454.1 1893.8 1454.1 Q1890.77 1454.1 1889.08 1455.6 Q1887.41 1457.11 1887.41 1459.79 Z" fill="#000000" fill-rule="evenodd" fill-opacity="1" /><path clip-path="url(#clip000)" d="M1923.96 1454.1 Q1920.35 1454.1 1918.52 1457.66 Q1916.72 1461.2 1916.72 1468.33 Q1916.72 1475.44 1918.52 1479.01 Q1920.35 1482.55 1923.96 1482.55 Q1927.6 1482.55 1929.4 1479.01 Q1931.23 1475.44 1931.23 1468.33 Q1931.23 1461.2 1929.4 1457.66 Q1927.6 1454.1 1923.96 1454.1 M1923.96 1450.39 Q1929.77 1450.39 1932.83 1455 Q1935.91 1459.58 1935.91 1468.33 Q1935.91 1477.06 1932.83 1481.67 Q1929.77 1486.25 1923.96 1486.25 Q1918.15 1486.25 1915.07 1481.67 Q1912.02 1477.06 1912.02 1468.33 Q1912.02 1459.58 1915.07 1455 Q1918.15 1450.39 1923.96 1450.39 Z" fill="#000000" fill-rule="evenodd" fill-opacity="1" /><path clip-path="url(#clip000)" d="M774.34 1520.52 L780.833 1520.52 L790.827 1560.69 L800.789 1520.52 L808.014 1520.52 L818.008 1560.69 L827.971 1520.52 L834.496 1520.52 L822.56 1568.04 L814.475 1568.04 L804.449 1526.79 L794.328 1568.04 L786.244 1568.04 L774.34 1520.52 Z" fill="#000000" fill-rule="evenodd" fill-opacity="1" /><path clip-path="url(#clip000)" d="M856.457 1571.35 Q853.975 1577.72 851.619 1579.66 Q849.264 1581.6 845.317 1581.6 L840.638 1581.6 L840.638 1576.7 L844.076 1576.7 Q846.495 1576.7 847.832 1575.56 Q849.169 1574.41 850.792 1570.14 L851.842 1567.47 L837.424 1532.4 L843.63 1532.4 L854.77 1560.28 L865.91 1532.4 L872.117 1532.4 L856.457 1571.35 Z" fill="#000000" fill-rule="evenodd" fill-opacity="1" /><path clip-path="url(#clip000)" d="M885.867 1562.7 L885.867 1581.6 L879.979 1581.6 L879.979 1532.4 L885.867 1532.4 L885.867 1537.81 Q887.713 1534.62 890.514 1533.1 Q893.347 1531.54 897.261 1531.54 Q903.754 1531.54 907.797 1536.69 Q911.871 1541.85 911.871 1550.25 Q911.871 1558.65 907.797 1563.81 Q903.754 1568.97 897.261 1568.97 Q893.347 1568.97 890.514 1567.44 Q887.713 1565.88 885.867 1562.7 M905.791 1550.25 Q905.791 1543.79 903.118 1540.13 Q900.476 1536.44 895.829 1536.44 Q891.182 1536.44 888.509 1540.13 Q885.867 1543.79 885.867 1550.25 Q885.867 1556.71 888.509 1560.4 Q891.182 1564.07 895.829 1564.07 Q900.476 1564.07 903.118 1560.4 Q905.791 1556.71 905.791 1550.25 Z" fill="#000000" fill-rule="evenodd" fill-opacity="1" /><path clip-path="url(#clip000)" d="M921.769 1518.52 L927.626 1518.52 L927.626 1537.68 L931.604 1534.81 L934.023 1538.19 L927.626 1542.68 L927.626 1568.04 L921.769 1568.04 L921.769 1546.85 L917.855 1549.65 L915.499 1546.27 L921.769 1541.79 L921.769 1518.52 Z" fill="#000000" fill-rule="evenodd" fill-opacity="1" /><path clip-path="url(#clip000)" d="M956.303 1550.12 Q949.206 1550.12 946.468 1551.75 Q943.731 1553.37 943.731 1557.29 Q943.731 1560.4 945.768 1562.25 Q947.837 1564.07 951.37 1564.07 Q956.24 1564.07 959.168 1560.63 Q962.128 1557.16 962.128 1551.43 L962.128 1550.12 L956.303 1550.12 M967.984 1547.71 L967.984 1568.04 L962.128 1568.04 L962.128 1562.63 Q960.123 1565.88 957.131 1567.44 Q954.139 1568.97 949.81 1568.97 Q944.336 1568.97 941.089 1565.91 Q937.875 1562.82 937.875 1557.67 Q937.875 1551.65 941.885 1548.6 Q945.927 1545.54 953.916 1545.54 L962.128 1545.54 L962.128 1544.97 Q962.128 1540.93 959.454 1538.73 Q956.813 1536.5 952.007 1536.5 Q948.951 1536.5 946.055 1537.23 Q943.158 1537.97 940.485 1539.43 L940.485 1534.02 Q943.699 1532.78 946.723 1532.17 Q949.747 1531.54 952.611 1531.54 Q960.346 1531.54 964.165 1535.55 Q967.984 1539.56 967.984 1547.71 Z" fill="#000000" fill-rule="evenodd" fill-opacity="1" /><path clip-path="url(#clip000)" d="M985.84 1522.27 L985.84 1532.4 L997.903 1532.4 L997.903 1536.95 L985.84 1536.95 L985.84 1556.3 Q985.84 1560.66 987.018 1561.9 Q988.227 1563.14 991.888 1563.14 L997.903 1563.14 L997.903 1568.04 L991.888 1568.04 Q985.108 1568.04 982.53 1565.53 Q979.952 1562.98 979.952 1556.3 L979.952 1536.95 L975.655 1536.95 L975.655 1532.4 L979.952 1532.4 L979.952 1522.27 L985.84 1522.27 Z" fill="#000000" fill-rule="evenodd" fill-opacity="1" /><path clip-path="url(#clip000)" d="M1021.81 1550.12 Q1014.71 1550.12 1011.97 1551.75 Q1009.23 1553.37 1009.23 1557.29 Q1009.23 1560.4 1011.27 1562.25 Q1013.34 1564.07 1016.87 1564.07 Q1021.74 1564.07 1024.67 1560.63 Q1027.63 1557.16 1027.63 1551.43 L1027.63 1550.12 L1021.81 1550.12 M1033.49 1547.71 L1033.49 1568.04 L1027.63 1568.04 L1027.63 1562.63 Q1025.63 1565.88 1022.63 1567.44 Q1019.64 1568.97 1015.31 1568.97 Q1009.84 1568.97 1006.59 1565.91 Q1003.38 1562.82 1003.38 1557.67 Q1003.38 1551.65 1007.39 1548.6 Q1011.43 1545.54 1019.42 1545.54 L1027.63 1545.54 L1027.63 1544.97 Q1027.63 1540.93 1024.96 1538.73 Q1022.32 1536.5 1017.51 1536.5 Q1014.45 1536.5 1011.56 1537.23 Q1008.66 1537.97 1005.99 1539.43 L1005.99 1534.02 Q1009.2 1532.78 1012.23 1532.17 Q1015.25 1531.54 1018.11 1531.54 Q1025.85 1531.54 1029.67 1535.55 Q1033.49 1539.56 1033.49 1547.71 Z" fill="#000000" fill-rule="evenodd" fill-opacity="1" /><path clip-path="url(#clip000)" d="M1084.32 1518.52 L1084.32 1523.39 L1078.72 1523.39 Q1075.56 1523.39 1074.32 1524.66 Q1073.11 1525.93 1073.11 1529.24 L1073.11 1532.4 L1082.76 1532.4 L1082.76 1536.95 L1073.11 1536.95 L1073.11 1568.04 L1067.23 1568.04 L1067.23 1536.95 L1061.62 1536.95 L1061.62 1532.4 L1067.23 1532.4 L1067.23 1529.91 Q1067.23 1523.96 1069.99 1521.26 Q1072.76 1518.52 1078.78 1518.52 L1084.32 1518.52 Z" fill="#000000" fill-rule="evenodd" fill-opacity="1" /><path clip-path="url(#clip000)" d="M1089.22 1532.4 L1095.08 1532.4 L1095.08 1568.04 L1089.22 1568.04 L1089.22 1532.4 M1089.22 1518.52 L1095.08 1518.52 L1095.08 1525.93 L1089.22 1525.93 L1089.22 1518.52 Z" fill="#000000" fill-rule="evenodd" fill-opacity="1" /><path clip-path="url(#clip000)" d="M1127.99 1537.87 Q1127 1537.3 1125.82 1537.04 Q1124.68 1536.76 1123.28 1536.76 Q1118.31 1536.76 1115.64 1540 Q1113 1543.22 1113 1549.27 L1113 1568.04 L1107.11 1568.04 L1107.11 1532.4 L1113 1532.4 L1113 1537.93 Q1114.84 1534.69 1117.8 1533.13 Q1120.76 1531.54 1124.99 1531.54 Q1125.6 1531.54 1126.33 1531.63 Q1127.06 1531.7 1127.95 1531.85 L1127.99 1537.87 Z" fill="#000000" fill-rule="evenodd" fill-opacity="1" /><path clip-path="url(#clip000)" d="M1160.74 1539.24 Q1162.93 1535.29 1165.99 1533.41 Q1169.05 1531.54 1173.18 1531.54 Q1178.75 1531.54 1181.78 1535.45 Q1184.8 1539.33 1184.8 1546.53 L1184.8 1568.04 L1178.91 1568.04 L1178.91 1546.72 Q1178.91 1541.59 1177.1 1539.11 Q1175.28 1536.63 1171.56 1536.63 Q1167.01 1536.63 1164.37 1539.65 Q1161.72 1542.68 1161.72 1547.9 L1161.72 1568.04 L1155.84 1568.04 L1155.84 1546.72 Q1155.84 1541.56 1154.02 1539.11 Q1152.21 1536.63 1148.42 1536.63 Q1143.93 1536.63 1141.29 1539.68 Q1138.65 1542.71 1138.65 1547.9 L1138.65 1568.04 L1132.76 1568.04 L1132.76 1532.4 L1138.65 1532.4 L1138.65 1537.93 Q1140.65 1534.66 1143.46 1533.1 Q1146.26 1531.54 1150.11 1531.54 Q1153.99 1531.54 1156.7 1533.51 Q1159.43 1535.48 1160.74 1539.24 Z" fill="#000000" fill-rule="evenodd" fill-opacity="1" /><path clip-path="url(#clip000)" d="M1211.31 1571.35 Q1208.83 1577.72 1206.48 1579.66 Q1204.12 1581.6 1200.17 1581.6 L1195.49 1581.6 L1195.49 1576.7 L1198.93 1576.7 Q1201.35 1576.7 1202.69 1575.56 Q1204.02 1574.41 1205.65 1570.14 L1206.7 1567.47 L1192.28 1532.4 L1198.49 1532.4 L1209.63 1560.28 L1220.77 1532.4 L1226.97 1532.4 L1211.31 1571.35 Z" fill="#000000" fill-rule="evenodd" fill-opacity="1" /><path clip-path="url(#clip000)" d="M1282.96 1539.37 L1273.7 1539.37 L1271.02 1550 L1280.35 1550 L1282.96 1539.37 M1278.19 1521.26 L1274.88 1534.46 L1284.17 1534.46 L1287.51 1521.26 L1292.6 1521.26 L1289.33 1534.46 L1299.26 1534.46 L1299.26 1539.37 L1288.08 1539.37 L1285.47 1550 L1295.6 1550 L1295.6 1554.87 L1284.23 1554.87 L1280.92 1568.04 L1275.83 1568.04 L1279.11 1554.87 L1269.78 1554.87 L1266.5 1568.04 L1261.38 1568.04 L1264.69 1554.87 L1254.66 1554.87 L1254.66 1550 L1265.87 1550 L1268.54 1539.37 L1258.29 1539.37 L1258.29 1534.46 L1269.78 1534.46 L1273.03 1521.26 L1278.19 1521.26 Z" fill="#000000" fill-rule="evenodd" fill-opacity="1" /><path clip-path="url(#clip000)" d="M1312.34 1562.63 L1322.84 1562.63 L1322.84 1526.38 L1311.41 1528.67 L1311.41 1522.82 L1322.78 1520.52 L1329.21 1520.52 L1329.21 1562.63 L1339.71 1562.63 L1339.71 1568.04 L1312.34 1568.04 L1312.34 1562.63 Z" fill="#000000" fill-rule="evenodd" fill-opacity="1" /><polyline clip-path="url(#clip002)" style="stroke:#000000; stroke-linecap:round; stroke-linejoin:round; stroke-width:2; stroke-opacity:0.1; fill:none" points="
  205.121,1423.18 1908.93,1423.18 
  "/>
<polyline clip-path="url(#clip002)" style="stroke:#000000; stroke-linecap:round; stroke-linejoin:round; stroke-width:2; stroke-opacity:0.1; fill:none" points="
  205.121,1079.2 1908.93,1079.2 
  "/>
<polyline clip-path="url(#clip002)" style="stroke:#000000; stroke-linecap:round; stroke-linejoin:round; stroke-width:2; stroke-opacity:0.1; fill:none" points="
  205.121,735.212 1908.93,735.212 
  "/>
<polyline clip-path="url(#clip002)" style="stroke:#000000; stroke-linecap:round; stroke-linejoin:round; stroke-width:2; stroke-opacity:0.1; fill:none" points="
  205.121,391.228 1908.93,391.228 
  "/>
<polyline clip-path="url(#clip002)" style="stroke:#000000; stroke-linecap:round; stroke-linejoin:round; stroke-width:2; stroke-opacity:0.1; fill:none" points="
  205.121,47.2441 1908.93,47.2441 
  "/>
<polyline clip-path="url(#clip000)" style="stroke:#000000; stroke-linecap:round; stroke-linejoin:round; stroke-width:4; stroke-opacity:1; fill:none" points="
  205.121,1423.18 205.121,47.2441 
  "/>
<polyline clip-path="url(#clip000)" style="stroke:#000000; stroke-linecap:round; stroke-linejoin:round; stroke-width:4; stroke-opacity:1; fill:none" points="
  205.121,1423.18 220.113,1423.18 
  "/>
<polyline clip-path="url(#clip000)" style="stroke:#000000; stroke-linecap:round; stroke-linejoin:round; stroke-width:4; stroke-opacity:1; fill:none" points="
  205.121,1079.2 220.113,1079.2 
  "/>
<polyline clip-path="url(#clip000)" style="stroke:#000000; stroke-linecap:round; stroke-linejoin:round; stroke-width:4; stroke-opacity:1; fill:none" points="
  205.121,735.212 220.113,735.212 
  "/>
<polyline clip-path="url(#clip000)" style="stroke:#000000; stroke-linecap:round; stroke-linejoin:round; stroke-width:4; stroke-opacity:1; fill:none" points="
  205.121,391.228 220.113,391.228 
  "/>
<polyline clip-path="url(#clip000)" style="stroke:#000000; stroke-linecap:round; stroke-linejoin:round; stroke-width:4; stroke-opacity:1; fill:none" points="
  205.121,47.2441 220.113,47.2441 
  "/>
<path clip-path="url(#clip000)" d="M157.177 1408.98 Q153.566 1408.98 151.737 1412.54 Q149.931 1416.08 149.931 1423.21 Q149.931 1430.32 151.737 1433.89 Q153.566 1437.43 157.177 1437.43 Q160.811 1437.43 162.616 1433.89 Q164.445 1430.32 164.445 1423.21 Q164.445 1416.08 162.616 1412.54 Q160.811 1408.98 157.177 1408.98 M157.177 1405.27 Q162.987 1405.27 166.042 1409.88 Q169.121 1414.46 169.121 1423.21 Q169.121 1431.94 166.042 1436.55 Q162.987 1441.13 157.177 1441.13 Q151.366 1441.13 148.288 1436.55 Q145.232 1431.94 145.232 1423.21 Q145.232 1414.46 148.288 1409.88 Q151.366 1405.27 157.177 1405.27 Z" fill="#000000" fill-rule="evenodd" fill-opacity="1" /><path clip-path="url(#clip000)" d="M121.043 1092.54 L137.362 1092.54 L137.362 1096.48 L115.418 1096.48 L115.418 1092.54 Q118.08 1089.79 122.663 1085.16 Q127.269 1080.5 128.45 1079.16 Q130.695 1076.64 131.575 1074.9 Q132.478 1073.14 132.478 1071.45 Q132.478 1068.7 130.533 1066.96 Q128.612 1065.23 125.51 1065.23 Q123.311 1065.23 120.857 1065.99 Q118.427 1066.75 115.649 1068.3 L115.649 1063.58 Q118.473 1062.45 120.927 1061.87 Q123.38 1061.29 125.418 1061.29 Q130.788 1061.29 133.982 1063.98 Q137.177 1066.66 137.177 1071.15 Q137.177 1073.28 136.367 1075.2 Q135.579 1077.1 133.473 1079.69 Q132.894 1080.36 129.792 1083.58 Q126.691 1086.78 121.043 1092.54 Z" fill="#000000" fill-rule="evenodd" fill-opacity="1" /><path clip-path="url(#clip000)" d="M157.177 1064.99 Q153.566 1064.99 151.737 1068.56 Q149.931 1072.1 149.931 1079.23 Q149.931 1086.34 151.737 1089.9 Q153.566 1093.44 157.177 1093.44 Q160.811 1093.44 162.616 1089.9 Q164.445 1086.34 164.445 1079.23 Q164.445 1072.1 162.616 1068.56 Q160.811 1064.99 157.177 1064.99 M157.177 1061.29 Q162.987 1061.29 166.042 1065.9 Q169.121 1070.48 169.121 1079.23 Q169.121 1087.96 166.042 1092.56 Q162.987 1097.15 157.177 1097.15 Q151.366 1097.15 148.288 1092.56 Q145.232 1087.96 145.232 1079.23 Q145.232 1070.48 148.288 1065.9 Q151.366 1061.29 157.177 1061.29 Z" fill="#000000" fill-rule="evenodd" fill-opacity="1" /><path clip-path="url(#clip000)" d="M129.862 722.006 L118.056 740.455 L129.862 740.455 L129.862 722.006 M128.635 717.932 L134.515 717.932 L134.515 740.455 L139.445 740.455 L139.445 744.344 L134.515 744.344 L134.515 752.492 L129.862 752.492 L129.862 744.344 L114.26 744.344 L114.26 739.83 L128.635 717.932 Z" fill="#000000" fill-rule="evenodd" fill-opacity="1" /><path clip-path="url(#clip000)" d="M157.177 721.011 Q153.566 721.011 151.737 724.575 Q149.931 728.117 149.931 735.247 Q149.931 742.353 151.737 745.918 Q153.566 749.46 157.177 749.46 Q160.811 749.46 162.616 745.918 Q164.445 742.353 164.445 735.247 Q164.445 728.117 162.616 724.575 Q160.811 721.011 157.177 721.011 M157.177 717.307 Q162.987 717.307 166.042 721.913 Q169.121 726.497 169.121 735.247 Q169.121 743.973 166.042 748.58 Q162.987 753.163 157.177 753.163 Q151.366 753.163 148.288 748.58 Q145.232 743.973 145.232 735.247 Q145.232 726.497 148.288 721.913 Q151.366 717.307 157.177 717.307 Z" fill="#000000" fill-rule="evenodd" fill-opacity="1" /><path clip-path="url(#clip000)" d="M127.593 389.365 Q124.445 389.365 122.593 391.517 Q120.765 393.67 120.765 397.42 Q120.765 401.147 122.593 403.323 Q124.445 405.476 127.593 405.476 Q130.742 405.476 132.57 403.323 Q134.422 401.147 134.422 397.42 Q134.422 393.67 132.57 391.517 Q130.742 389.365 127.593 389.365 M136.876 374.712 L136.876 378.971 Q135.117 378.138 133.311 377.698 Q131.529 377.258 129.769 377.258 Q125.14 377.258 122.686 380.383 Q120.255 383.508 119.908 389.828 Q121.274 387.814 123.334 386.749 Q125.394 385.661 127.871 385.661 Q133.08 385.661 136.089 388.832 Q139.121 391.98 139.121 397.42 Q139.121 402.744 135.973 405.962 Q132.825 409.179 127.593 409.179 Q121.598 409.179 118.427 404.596 Q115.256 399.99 115.256 391.263 Q115.256 383.068 119.144 378.207 Q123.033 373.323 129.584 373.323 Q131.343 373.323 133.126 373.67 Q134.931 374.017 136.876 374.712 Z" fill="#000000" fill-rule="evenodd" fill-opacity="1" /><path clip-path="url(#clip000)" d="M157.177 377.027 Q153.566 377.027 151.737 380.592 Q149.931 384.133 149.931 391.263 Q149.931 398.369 151.737 401.934 Q153.566 405.476 157.177 405.476 Q160.811 405.476 162.616 401.934 Q164.445 398.369 164.445 391.263 Q164.445 384.133 162.616 380.592 Q160.811 377.027 157.177 377.027 M157.177 373.323 Q162.987 373.323 166.042 377.929 Q169.121 382.513 169.121 391.263 Q169.121 399.99 166.042 404.596 Q162.987 409.179 157.177 409.179 Q151.366 409.179 148.288 404.596 Q145.232 399.99 145.232 391.263 Q145.232 382.513 148.288 377.929 Q151.366 373.323 157.177 373.323 Z" fill="#000000" fill-rule="evenodd" fill-opacity="1" /><path clip-path="url(#clip000)" d="M127.015 48.1121 Q123.681 48.1121 121.76 49.8945 Q119.862 51.6769 119.862 54.8019 Q119.862 57.9269 121.76 59.7093 Q123.681 61.4917 127.015 61.4917 Q130.348 61.4917 132.269 59.7093 Q134.191 57.9038 134.191 54.8019 Q134.191 51.6769 132.269 49.8945 Q130.371 48.1121 127.015 48.1121 M122.339 46.1214 Q119.33 45.3807 117.64 43.3205 Q115.973 41.2603 115.973 38.2974 Q115.973 34.1539 118.913 31.7465 Q121.876 29.3391 127.015 29.3391 Q132.177 29.3391 135.117 31.7465 Q138.056 34.1539 138.056 38.2974 Q138.056 41.2603 136.367 43.3205 Q134.7 45.3807 131.714 46.1214 Q135.093 46.9084 136.968 49.2001 Q138.867 51.4918 138.867 54.8019 Q138.867 59.825 135.788 62.5102 Q132.732 65.1954 127.015 65.1954 Q121.297 65.1954 118.218 62.5102 Q115.163 59.825 115.163 54.8019 Q115.163 51.4918 117.061 49.2001 Q118.959 46.9084 122.339 46.1214 M120.626 38.7372 Q120.626 41.4224 122.293 42.927 Q123.982 44.4316 127.015 44.4316 Q130.024 44.4316 131.714 42.927 Q133.427 41.4224 133.427 38.7372 Q133.427 36.052 131.714 34.5474 Q130.024 33.0428 127.015 33.0428 Q123.982 33.0428 122.293 34.5474 Q120.626 36.052 120.626 38.7372 Z" fill="#000000" fill-rule="evenodd" fill-opacity="1" /><path clip-path="url(#clip000)" d="M157.177 33.0428 Q153.566 33.0428 151.737 36.6076 Q149.931 40.1492 149.931 47.2788 Q149.931 54.3853 151.737 57.9501 Q153.566 61.4917 157.177 61.4917 Q160.811 61.4917 162.616 57.9501 Q164.445 54.3853 164.445 47.2788 Q164.445 40.1492 162.616 36.6076 Q160.811 33.0428 157.177 33.0428 M157.177 29.3391 Q162.987 29.3391 166.042 33.9456 Q169.121 38.5289 169.121 47.2788 Q169.121 56.0056 166.042 60.6121 Q162.987 65.1954 157.177 65.1954 Q151.366 65.1954 148.288 60.6121 Q145.232 56.0056 145.232 47.2788 Q145.232 38.5289 148.288 33.9456 Q151.366 29.3391 157.177 29.3391 Z" fill="#000000" fill-rule="evenodd" fill-opacity="1" /><path clip-path="url(#clip000)" d="M16.4842 1017.64 L16.4842 1011.15 L56.6518 1001.16 L16.4842 991.193 L16.4842 983.968 L56.6518 973.974 L16.4842 964.011 L16.4842 957.487 L64.0042 969.422 L64.0042 977.507 L22.7544 987.533 L64.0042 997.654 L64.0042 1005.74 L16.4842 1017.64 Z" fill="#000000" fill-rule="evenodd" fill-opacity="1" /><path clip-path="url(#clip000)" d="M67.3143 935.525 Q73.68 938.007 75.6216 940.363 Q77.5631 942.718 77.5631 946.665 L77.5631 951.344 L72.6615 951.344 L72.6615 947.906 Q72.6615 945.487 71.5157 944.15 Q70.3699 942.814 66.1048 941.19 L63.4312 940.14 L28.3562 954.558 L28.3562 948.352 L56.238 937.212 L28.3562 926.072 L28.3562 919.865 L67.3143 935.525 Z" fill="#000000" fill-rule="evenodd" fill-opacity="1" /><path clip-path="url(#clip000)" d="M58.657 906.115 L77.5631 906.115 L77.5631 912.004 L28.3562 912.004 L28.3562 906.115 L33.7671 906.115 Q30.5842 904.269 29.0564 901.468 Q27.4968 898.636 27.4968 894.721 Q27.4968 888.228 32.6531 884.185 Q37.8093 880.111 46.212 880.111 Q54.6147 880.111 59.771 884.185 Q64.9272 888.228 64.9272 894.721 Q64.9272 898.636 63.3994 901.468 Q61.8398 904.269 58.657 906.115 M46.212 886.191 Q39.7508 886.191 36.0905 888.864 Q32.3984 891.506 32.3984 896.153 Q32.3984 900.8 36.0905 903.474 Q39.7508 906.115 46.212 906.115 Q52.6732 906.115 56.3653 903.474 Q60.0256 900.8 60.0256 896.153 Q60.0256 891.506 56.3653 888.864 Q52.6732 886.191 46.212 886.191 Z" fill="#000000" fill-rule="evenodd" fill-opacity="1" /><path clip-path="url(#clip000)" d="M14.479 870.213 L14.479 864.356 L33.6397 864.356 L30.7752 860.378 L34.149 857.959 L38.6368 864.356 L64.0042 864.356 L64.0042 870.213 L42.8064 870.213 L45.6073 874.128 L42.2334 876.483 L37.7456 870.213 L14.479 870.213 Z" fill="#000000" fill-rule="evenodd" fill-opacity="1" /><path clip-path="url(#clip000)" d="M46.0847 835.679 Q46.0847 842.776 47.7079 845.514 Q49.3312 848.251 53.2461 848.251 Q56.3653 848.251 58.2114 846.214 Q60.0256 844.145 60.0256 840.612 Q60.0256 835.742 56.5881 832.814 Q53.1188 829.854 47.3897 829.854 L46.0847 829.854 L46.0847 835.679 M43.6657 823.998 L64.0042 823.998 L64.0042 829.854 L58.5933 829.854 Q61.8398 831.859 63.3994 834.851 Q64.9272 837.843 64.9272 842.172 Q64.9272 847.646 61.8716 850.893 Q58.7843 854.107 53.6281 854.107 Q47.6125 854.107 44.5569 850.097 Q41.5014 846.055 41.5014 838.066 L41.5014 829.854 L40.9285 829.854 Q36.8862 829.854 34.6901 832.528 Q32.4621 835.169 32.4621 839.976 Q32.4621 843.031 33.1941 845.928 Q33.9262 848.824 35.3903 851.498 L29.9795 851.498 Q28.7381 848.283 28.1334 845.259 Q27.4968 842.235 27.4968 839.371 Q27.4968 831.637 31.5072 827.817 Q35.5176 823.998 43.6657 823.998 Z" fill="#000000" fill-rule="evenodd" fill-opacity="1" /><path clip-path="url(#clip000)" d="M18.2347 806.142 L28.3562 806.142 L28.3562 794.079 L32.9077 794.079 L32.9077 806.142 L52.2594 806.142 Q56.6199 806.142 57.8613 804.964 Q59.1026 803.755 59.1026 800.094 L59.1026 794.079 L64.0042 794.079 L64.0042 800.094 Q64.0042 806.874 61.4897 809.452 Q58.9434 812.03 52.2594 812.03 L32.9077 812.03 L32.9077 816.327 L28.3562 816.327 L28.3562 812.03 L18.2347 812.03 L18.2347 806.142 Z" fill="#000000" fill-rule="evenodd" fill-opacity="1" /><path clip-path="url(#clip000)" d="M46.0847 770.176 Q46.0847 777.273 47.7079 780.011 Q49.3312 782.748 53.2461 782.748 Q56.3653 782.748 58.2114 780.711 Q60.0256 778.642 60.0256 775.109 Q60.0256 770.239 56.5881 767.311 Q53.1188 764.351 47.3897 764.351 L46.0847 764.351 L46.0847 770.176 M43.6657 758.495 L64.0042 758.495 L64.0042 764.351 L58.5933 764.351 Q61.8398 766.356 63.3994 769.348 Q64.9272 772.34 64.9272 776.669 Q64.9272 782.143 61.8716 785.39 Q58.7843 788.604 53.6281 788.604 Q47.6125 788.604 44.5569 784.594 Q41.5014 780.552 41.5014 772.563 L41.5014 764.351 L40.9285 764.351 Q36.8862 764.351 34.6901 767.025 Q32.4621 769.666 32.4621 774.472 Q32.4621 777.528 33.1941 780.424 Q33.9262 783.321 35.3903 785.994 L29.9795 785.994 Q28.7381 782.78 28.1334 779.756 Q27.4968 776.732 27.4968 773.868 Q27.4968 766.133 31.5072 762.314 Q35.5176 758.495 43.6657 758.495 Z" fill="#000000" fill-rule="evenodd" fill-opacity="1" /><path clip-path="url(#clip000)" d="M14.479 707.664 L19.3487 707.664 L19.3487 713.266 Q19.3487 716.417 20.6219 717.659 Q21.895 718.868 25.2052 718.868 L28.3562 718.868 L28.3562 709.224 L32.9077 709.224 L32.9077 718.868 L64.0042 718.868 L64.0042 724.756 L32.9077 724.756 L32.9077 730.358 L28.3562 730.358 L28.3562 724.756 L25.8736 724.756 Q19.9216 724.756 17.2162 721.987 Q14.479 719.218 14.479 713.203 L14.479 707.664 Z" fill="#000000" fill-rule="evenodd" fill-opacity="1" /><path clip-path="url(#clip000)" d="M28.3562 702.763 L28.3562 696.906 L64.0042 696.906 L64.0042 702.763 L28.3562 702.763 M14.479 702.763 L14.479 696.906 L21.895 696.906 L21.895 702.763 L14.479 702.763 Z" fill="#000000" fill-rule="evenodd" fill-opacity="1" /><path clip-path="url(#clip000)" d="M33.8307 663.996 Q33.2578 664.982 33.0032 666.16 Q32.7167 667.306 32.7167 668.706 Q32.7167 673.671 35.9632 676.345 Q39.1779 678.987 45.2253 678.987 L64.0042 678.987 L64.0042 684.875 L28.3562 684.875 L28.3562 678.987 L33.8944 678.987 Q30.6479 677.141 29.0883 674.181 Q27.4968 671.221 27.4968 666.988 Q27.4968 666.383 27.5923 665.651 Q27.656 664.919 27.8151 664.027 L33.8307 663.996 Z" fill="#000000" fill-rule="evenodd" fill-opacity="1" /><path clip-path="url(#clip000)" d="M35.1993 631.244 Q31.2526 629.048 29.3747 625.992 Q27.4968 622.937 27.4968 618.799 Q27.4968 613.229 31.4117 610.205 Q35.2948 607.182 42.4881 607.182 L64.0042 607.182 L64.0042 613.07 L42.679 613.07 Q37.5546 613.07 35.072 614.884 Q32.5894 616.698 32.5894 620.422 Q32.5894 624.974 35.6131 627.616 Q38.6368 630.257 43.8567 630.257 L64.0042 630.257 L64.0042 636.146 L42.679 636.146 Q37.5228 636.146 35.072 637.96 Q32.5894 639.774 32.5894 643.562 Q32.5894 648.05 35.6449 650.691 Q38.6686 653.333 43.8567 653.333 L64.0042 653.333 L64.0042 659.221 L28.3562 659.221 L28.3562 653.333 L33.8944 653.333 Q30.616 651.328 29.0564 648.527 Q27.4968 645.726 27.4968 641.875 Q27.4968 637.992 29.4702 635.286 Q31.4436 632.549 35.1993 631.244 Z" fill="#000000" fill-rule="evenodd" fill-opacity="1" /><path clip-path="url(#clip000)" d="M67.3143 580.669 Q73.68 583.151 75.6216 585.506 Q77.5631 587.862 77.5631 591.809 L77.5631 596.487 L72.6615 596.487 L72.6615 593.05 Q72.6615 590.631 71.5157 589.294 Q70.3699 587.957 66.1048 586.334 L63.4312 585.284 L28.3562 599.702 L28.3562 593.495 L56.238 582.355 L28.3562 571.215 L28.3562 565.009 L67.3143 580.669 Z" fill="#000000" fill-rule="evenodd" fill-opacity="1" /><path clip-path="url(#clip000)" d="M35.3266 509.022 L35.3266 518.285 L45.9574 520.958 L45.9574 511.632 L35.3266 509.022 M17.2162 513.797 L30.4251 517.107 L30.4251 507.813 L17.2162 504.471 L17.2162 499.378 L30.4251 502.657 L30.4251 492.726 L35.3266 492.726 L35.3266 503.898 L45.9574 506.508 L45.9574 496.387 L50.8271 496.387 L50.8271 507.749 L64.0042 511.06 L64.0042 516.152 L50.8271 512.874 L50.8271 522.2 L64.0042 525.478 L64.0042 530.602 L50.8271 527.292 L50.8271 537.318 L45.9574 537.318 L45.9574 526.114 L35.3266 523.441 L35.3266 533.69 L30.4251 533.69 L30.4251 522.2 L17.2162 518.953 L17.2162 513.797 Z" fill="#000000" fill-rule="evenodd" fill-opacity="1" /><path clip-path="url(#clip000)" d="M58.5933 475.221 L58.5933 452.781 L64.0042 452.781 L64.0042 482.955 L58.5933 482.955 Q54.8057 479.295 48.44 472.993 Q42.0425 466.659 40.1964 465.035 Q36.7271 461.948 34.34 460.739 Q31.921 459.497 29.5975 459.497 Q25.8099 459.497 23.4228 462.171 Q21.0356 464.813 21.0356 469.078 Q21.0356 472.101 22.086 475.475 Q23.1363 478.817 25.2688 482.637 L18.7758 482.637 Q17.2162 478.754 16.4205 475.38 Q15.6248 472.006 15.6248 469.205 Q15.6248 461.821 19.3169 457.428 Q23.009 453.036 29.1837 453.036 Q32.112 453.036 34.7537 454.15 Q37.3637 455.232 40.9285 458.129 Q41.8515 458.924 46.2757 463.189 Q50.668 467.454 58.5933 475.221 Z" fill="#000000" fill-rule="evenodd" fill-opacity="1" /><polyline clip-path="url(#clip002)" style="stroke:#009af9; stroke-linecap:round; stroke-linejoin:round; stroke-width:4; stroke-opacity:1; fill:none" points="
  945.991,824.879 1479.04,622.527 1753.97,172.383 1196.56,394.41 945.991,824.879 
  "/>
<circle clip-path="url(#clip002)" cx="945.991" cy="824.879" r="14.4" fill="#009af9" fill-rule="evenodd" fill-opacity="1" stroke="#000000" stroke-opacity="1" stroke-width="3.2"/>
<circle clip-path="url(#clip002)" cx="1479.04" cy="622.527" r="14.4" fill="#009af9" fill-rule="evenodd" fill-opacity="1" stroke="#000000" stroke-opacity="1" stroke-width="3.2"/>
<circle clip-path="url(#clip002)" cx="1753.97" cy="172.383" r="14.4" fill="#009af9" fill-rule="evenodd" fill-opacity="1" stroke="#000000" stroke-opacity="1" stroke-width="3.2"/>
<circle clip-path="url(#clip002)" cx="1196.56" cy="394.41" r="14.4" fill="#009af9" fill-rule="evenodd" fill-opacity="1" stroke="#000000" stroke-opacity="1" stroke-width="3.2"/>
<circle clip-path="url(#clip002)" cx="945.991" cy="824.879" r="14.4" fill="#009af9" fill-rule="evenodd" fill-opacity="1" stroke="#000000" stroke-opacity="1" stroke-width="3.2"/>
<polyline clip-path="url(#clip002)" style="stroke:#e26f46; stroke-linecap:round; stroke-linejoin:round; stroke-width:4; stroke-opacity:1; fill:none" points="
  945.991,824.879 1159.57,622.527 1434.51,430.37 1196.56,652.398 945.991,824.879 
  "/>
<circle clip-path="url(#clip002)" cx="945.991" cy="824.879" r="14.4" fill="#e26f46" fill-rule="evenodd" fill-opacity="1" stroke="#000000" stroke-opacity="1" stroke-width="3.2"/>
<circle clip-path="url(#clip002)" cx="1159.57" cy="622.527" r="14.4" fill="#e26f46" fill-rule="evenodd" fill-opacity="1" stroke="#000000" stroke-opacity="1" stroke-width="3.2"/>
<circle clip-path="url(#clip002)" cx="1434.51" cy="430.37" r="14.4" fill="#e26f46" fill-rule="evenodd" fill-opacity="1" stroke="#000000" stroke-opacity="1" stroke-width="3.2"/>
<circle clip-path="url(#clip002)" cx="1196.56" cy="652.398" r="14.4" fill="#e26f46" fill-rule="evenodd" fill-opacity="1" stroke="#000000" stroke-opacity="1" stroke-width="3.2"/>
<circle clip-path="url(#clip002)" cx="945.991" cy="824.879" r="14.4" fill="#e26f46" fill-rule="evenodd" fill-opacity="1" stroke="#000000" stroke-opacity="1" stroke-width="3.2"/>
<polyline clip-path="url(#clip002)" style="stroke:#3da44d; stroke-linecap:round; stroke-linejoin:round; stroke-width:4; stroke-opacity:1; fill:none" points="
  945.991,824.879 840.108,622.527 1115.04,688.358 1196.56,910.386 945.991,824.879 
  "/>
<circle clip-path="url(#clip002)" cx="945.991" cy="824.879" r="14.4" fill="#3da44d" fill-rule="evenodd" fill-opacity="1" stroke="#000000" stroke-opacity="1" stroke-width="3.2"/>
<circle clip-path="url(#clip002)" cx="840.108" cy="622.527" r="14.4" fill="#3da44d" fill-rule="evenodd" fill-opacity="1" stroke="#000000" stroke-opacity="1" stroke-width="3.2"/>
<circle clip-path="url(#clip002)" cx="1115.04" cy="688.358" r="14.4" fill="#3da44d" fill-rule="evenodd" fill-opacity="1" stroke="#000000" stroke-opacity="1" stroke-width="3.2"/>
<circle clip-path="url(#clip002)" cx="1196.56" cy="910.386" r="14.4" fill="#3da44d" fill-rule="evenodd" fill-opacity="1" stroke="#000000" stroke-opacity="1" stroke-width="3.2"/>
<circle clip-path="url(#clip002)" cx="945.991" cy="824.879" r="14.4" fill="#3da44d" fill-rule="evenodd" fill-opacity="1" stroke="#000000" stroke-opacity="1" stroke-width="3.2"/>
<polyline clip-path="url(#clip002)" style="stroke:#c271d2; stroke-linecap:round; stroke-linejoin:round; stroke-width:4; stroke-opacity:1; fill:none" points="
  945.991,824.879 520.644,622.527 795.579,946.346 1196.56,1168.37 945.991,824.879 
  "/>
<circle clip-path="url(#clip002)" cx="945.991" cy="824.879" r="14.4" fill="#c271d2" fill-rule="evenodd" fill-opacity="1" stroke="#000000" stroke-opacity="1" stroke-width="3.2"/>
<circle clip-path="url(#clip002)" cx="520.644" cy="622.527" r="14.4" fill="#c271d2" fill-rule="evenodd" fill-opacity="1" stroke="#000000" stroke-opacity="1" stroke-width="3.2"/>
<circle clip-path="url(#clip002)" cx="795.579" cy="946.346" r="14.4" fill="#c271d2" fill-rule="evenodd" fill-opacity="1" stroke="#000000" stroke-opacity="1" stroke-width="3.2"/>
<circle clip-path="url(#clip002)" cx="1196.56" cy="1168.37" r="14.4" fill="#c271d2" fill-rule="evenodd" fill-opacity="1" stroke="#000000" stroke-opacity="1" stroke-width="3.2"/>
<circle clip-path="url(#clip002)" cx="945.991" cy="824.879" r="14.4" fill="#c271d2" fill-rule="evenodd" fill-opacity="1" stroke="#000000" stroke-opacity="1" stroke-width="3.2"/>
<path clip-path="url(#clip000)" d="
M1980.52 884.756 L2352.76 884.756 L2352.76 625.556 L1980.52 625.556  Z
  " fill="#ffffff" fill-rule="evenodd" fill-opacity="1"/>
<polyline clip-path="url(#clip000)" style="stroke:#000000; stroke-linecap:round; stroke-linejoin:round; stroke-width:4; stroke-opacity:1; fill:none" points="
  1980.52,884.756 2352.76,884.756 2352.76,625.556 1980.52,625.556 1980.52,884.756 
  "/>
<polyline clip-path="url(#clip000)" style="stroke:#009af9; stroke-linecap:round; stroke-linejoin:round; stroke-width:4; stroke-opacity:1; fill:none" points="
  2004.38,677.396 2147.55,677.396 
  "/>
<circle clip-path="url(#clip000)" cx="2075.97" cy="677.396" r="19.8855" fill="#009af9" fill-rule="evenodd" fill-opacity="1" stroke="#000000" stroke-opacity="1" stroke-width="5.12"/>
<path clip-path="url(#clip000)" d="M2199.29 662.779 L2199.29 667.709 Q2196.93 665.51 2194.24 664.422 Q2191.58 663.334 2188.57 663.334 Q2182.64 663.334 2179.5 666.968 Q2176.35 670.579 2176.35 677.431 Q2176.35 684.26 2179.5 687.894 Q2182.64 691.505 2188.57 691.505 Q2191.58 691.505 2194.24 690.417 Q2196.93 689.329 2199.29 687.13 L2199.29 692.014 Q2196.83 693.681 2194.08 694.514 Q2191.35 695.348 2188.29 695.348 Q2180.45 695.348 2175.93 690.556 Q2171.42 685.741 2171.42 677.431 Q2171.42 669.098 2175.93 664.306 Q2180.45 659.491 2188.29 659.491 Q2191.39 659.491 2194.13 660.325 Q2196.88 661.135 2199.29 662.779 Z" fill="#000000" fill-rule="evenodd" fill-opacity="1" /><path clip-path="url(#clip000)" d="M2221.95 673.149 L2251.63 673.149 L2251.63 677.038 L2221.95 677.038 L2221.95 673.149 M2221.95 682.593 L2251.63 682.593 L2251.63 686.528 L2221.95 686.528 L2221.95 682.593 Z" fill="#000000" fill-rule="evenodd" fill-opacity="1" /><path clip-path="url(#clip000)" d="M2286.79 663.195 Q2283.18 663.195 2281.35 666.76 Q2279.54 670.302 2279.54 677.431 Q2279.54 684.538 2281.35 688.102 Q2283.18 691.644 2286.79 691.644 Q2290.42 691.644 2292.23 688.102 Q2294.06 684.538 2294.06 677.431 Q2294.06 670.302 2292.23 666.76 Q2290.42 663.195 2286.79 663.195 M2286.79 659.491 Q2292.6 659.491 2295.65 664.098 Q2298.73 668.681 2298.73 677.431 Q2298.73 686.158 2295.65 690.764 Q2292.6 695.348 2286.79 695.348 Q2280.98 695.348 2277.9 690.764 Q2274.84 686.158 2274.84 677.431 Q2274.84 668.681 2277.9 664.098 Q2280.98 659.491 2286.79 659.491 Z" fill="#000000" fill-rule="evenodd" fill-opacity="1" /><polyline clip-path="url(#clip000)" style="stroke:#e26f46; stroke-linecap:round; stroke-linejoin:round; stroke-width:4; stroke-opacity:1; fill:none" points="
  2004.38,729.236 2147.55,729.236 
  "/>
<circle clip-path="url(#clip000)" cx="2075.97" cy="729.236" r="19.8855" fill="#e26f46" fill-rule="evenodd" fill-opacity="1" stroke="#000000" stroke-opacity="1" stroke-width="5.12"/>
<path clip-path="url(#clip000)" d="M2199.29 714.619 L2199.29 719.549 Q2196.93 717.35 2194.24 716.262 Q2191.58 715.174 2188.57 715.174 Q2182.64 715.174 2179.5 718.808 Q2176.35 722.419 2176.35 729.271 Q2176.35 736.1 2179.5 739.734 Q2182.64 743.345 2188.57 743.345 Q2191.58 743.345 2194.24 742.257 Q2196.93 741.169 2199.29 738.97 L2199.29 743.854 Q2196.83 745.521 2194.08 746.354 Q2191.35 747.188 2188.29 747.188 Q2180.45 747.188 2175.93 742.396 Q2171.42 737.581 2171.42 729.271 Q2171.42 720.938 2175.93 716.146 Q2180.45 711.331 2188.29 711.331 Q2191.39 711.331 2194.13 712.165 Q2196.88 712.975 2199.29 714.619 Z" fill="#000000" fill-rule="evenodd" fill-opacity="1" /><path clip-path="url(#clip000)" d="M2221.95 724.989 L2251.63 724.989 L2251.63 728.878 L2221.95 728.878 L2221.95 724.989 M2221.95 734.433 L2251.63 734.433 L2251.63 738.368 L2221.95 738.368 L2221.95 734.433 Z" fill="#000000" fill-rule="evenodd" fill-opacity="1" /><path clip-path="url(#clip000)" d="M2277.6 742.581 L2285.24 742.581 L2285.24 716.216 L2276.93 717.882 L2276.93 713.623 L2285.19 711.956 L2289.87 711.956 L2289.87 742.581 L2297.5 742.581 L2297.5 746.516 L2277.6 746.516 L2277.6 742.581 Z" fill="#000000" fill-rule="evenodd" fill-opacity="1" /><path clip-path="url(#clip000)" d="M2307 711.956 L2325.35 711.956 L2325.35 715.892 L2311.28 715.892 L2311.28 724.364 Q2312.3 724.017 2313.31 723.855 Q2314.33 723.669 2315.35 723.669 Q2321.14 723.669 2324.52 726.841 Q2327.9 730.012 2327.9 735.429 Q2327.9 741.007 2324.43 744.109 Q2320.95 747.188 2314.63 747.188 Q2312.46 747.188 2310.19 746.817 Q2307.94 746.447 2305.54 745.706 L2305.54 741.007 Q2307.62 742.142 2309.84 742.697 Q2312.06 743.253 2314.54 743.253 Q2318.55 743.253 2320.88 741.146 Q2323.22 739.04 2323.22 735.429 Q2323.22 731.817 2320.88 729.711 Q2318.55 727.605 2314.54 727.605 Q2312.67 727.605 2310.79 728.021 Q2308.94 728.438 2307 729.318 L2307 711.956 Z" fill="#000000" fill-rule="evenodd" fill-opacity="1" /><polyline clip-path="url(#clip000)" style="stroke:#3da44d; stroke-linecap:round; stroke-linejoin:round; stroke-width:4; stroke-opacity:1; fill:none" points="
  2004.38,781.076 2147.55,781.076 
  "/>
<circle clip-path="url(#clip000)" cx="2075.97" cy="781.076" r="19.8855" fill="#3da44d" fill-rule="evenodd" fill-opacity="1" stroke="#000000" stroke-opacity="1" stroke-width="5.12"/>
<path clip-path="url(#clip000)" d="M2199.29 766.459 L2199.29 771.389 Q2196.93 769.19 2194.24 768.102 Q2191.58 767.014 2188.57 767.014 Q2182.64 767.014 2179.5 770.648 Q2176.35 774.259 2176.35 781.111 Q2176.35 787.94 2179.5 791.574 Q2182.64 795.185 2188.57 795.185 Q2191.58 795.185 2194.24 794.097 Q2196.93 793.009 2199.29 790.81 L2199.29 795.694 Q2196.83 797.361 2194.08 798.194 Q2191.35 799.028 2188.29 799.028 Q2180.45 799.028 2175.93 794.236 Q2171.42 789.421 2171.42 781.111 Q2171.42 772.778 2175.93 767.986 Q2180.45 763.171 2188.29 763.171 Q2191.39 763.171 2194.13 764.005 Q2196.88 764.815 2199.29 766.459 Z" fill="#000000" fill-rule="evenodd" fill-opacity="1" /><path clip-path="url(#clip000)" d="M2221.95 776.829 L2251.63 776.829 L2251.63 780.718 L2221.95 780.718 L2221.95 776.829 M2221.95 786.273 L2251.63 786.273 L2251.63 790.208 L2221.95 790.208 L2221.95 786.273 Z" fill="#000000" fill-rule="evenodd" fill-opacity="1" /><path clip-path="url(#clip000)" d="M2290.95 779.722 Q2294.31 780.44 2296.19 782.708 Q2298.08 784.977 2298.08 788.31 Q2298.08 793.426 2294.56 796.227 Q2291.05 799.028 2284.56 799.028 Q2282.39 799.028 2280.07 798.588 Q2277.78 798.171 2275.33 797.315 L2275.33 792.801 Q2277.27 793.935 2279.59 794.514 Q2281.9 795.093 2284.43 795.093 Q2288.82 795.093 2291.12 793.357 Q2293.43 791.62 2293.43 788.31 Q2293.43 785.255 2291.28 783.542 Q2289.15 781.806 2285.33 781.806 L2281.3 781.806 L2281.3 777.963 L2285.51 777.963 Q2288.96 777.963 2290.79 776.597 Q2292.62 775.208 2292.62 772.616 Q2292.62 769.954 2290.72 768.542 Q2288.85 767.107 2285.33 767.107 Q2283.41 767.107 2281.21 767.523 Q2279.01 767.94 2276.37 768.82 L2276.37 764.653 Q2279.03 763.912 2281.35 763.542 Q2283.69 763.171 2285.75 763.171 Q2291.07 763.171 2294.17 765.602 Q2297.27 768.009 2297.27 772.13 Q2297.27 775 2295.63 776.991 Q2293.99 778.958 2290.95 779.722 Z" fill="#000000" fill-rule="evenodd" fill-opacity="1" /><path clip-path="url(#clip000)" d="M2316.95 766.875 Q2313.34 766.875 2311.51 770.44 Q2309.7 773.982 2309.7 781.111 Q2309.7 788.218 2311.51 791.782 Q2313.34 795.324 2316.95 795.324 Q2320.58 795.324 2322.39 791.782 Q2324.22 788.218 2324.22 781.111 Q2324.22 773.982 2322.39 770.44 Q2320.58 766.875 2316.95 766.875 M2316.95 763.171 Q2322.76 763.171 2325.81 767.778 Q2328.89 772.361 2328.89 781.111 Q2328.89 789.838 2325.81 794.444 Q2322.76 799.028 2316.95 799.028 Q2311.14 799.028 2308.06 794.444 Q2305 789.838 2305 781.111 Q2305 772.361 2308.06 767.778 Q2311.14 763.171 2316.95 763.171 Z" fill="#000000" fill-rule="evenodd" fill-opacity="1" /><polyline clip-path="url(#clip000)" style="stroke:#c271d2; stroke-linecap:round; stroke-linejoin:round; stroke-width:4; stroke-opacity:1; fill:none" points="
  2004.38,832.916 2147.55,832.916 
  "/>
<circle clip-path="url(#clip000)" cx="2075.97" cy="832.916" r="19.8855" fill="#c271d2" fill-rule="evenodd" fill-opacity="1" stroke="#000000" stroke-opacity="1" stroke-width="5.12"/>
<path clip-path="url(#clip000)" d="M2199.29 818.299 L2199.29 823.229 Q2196.93 821.03 2194.24 819.942 Q2191.58 818.854 2188.57 818.854 Q2182.64 818.854 2179.5 822.488 Q2176.35 826.099 2176.35 832.951 Q2176.35 839.78 2179.5 843.414 Q2182.64 847.025 2188.57 847.025 Q2191.58 847.025 2194.24 845.937 Q2196.93 844.849 2199.29 842.65 L2199.29 847.534 Q2196.83 849.201 2194.08 850.034 Q2191.35 850.868 2188.29 850.868 Q2180.45 850.868 2175.93 846.076 Q2171.42 841.261 2171.42 832.951 Q2171.42 824.618 2175.93 819.826 Q2180.45 815.011 2188.29 815.011 Q2191.39 815.011 2194.13 815.845 Q2196.88 816.655 2199.29 818.299 Z" fill="#000000" fill-rule="evenodd" fill-opacity="1" /><path clip-path="url(#clip000)" d="M2221.95 828.669 L2251.63 828.669 L2251.63 832.558 L2221.95 832.558 L2221.95 828.669 M2221.95 838.113 L2251.63 838.113 L2251.63 842.048 L2221.95 842.048 L2221.95 838.113 Z" fill="#000000" fill-rule="evenodd" fill-opacity="1" /><path clip-path="url(#clip000)" d="M2289.63 819.711 L2277.83 838.16 L2289.63 838.16 L2289.63 819.711 M2288.41 815.636 L2294.29 815.636 L2294.29 838.16 L2299.22 838.16 L2299.22 842.048 L2294.29 842.048 L2294.29 850.196 L2289.63 850.196 L2289.63 842.048 L2274.03 842.048 L2274.03 837.535 L2288.41 815.636 Z" fill="#000000" fill-rule="evenodd" fill-opacity="1" /><path clip-path="url(#clip000)" d="M2307 815.636 L2325.35 815.636 L2325.35 819.572 L2311.28 819.572 L2311.28 828.044 Q2312.3 827.697 2313.31 827.535 Q2314.33 827.349 2315.35 827.349 Q2321.14 827.349 2324.52 830.521 Q2327.9 833.692 2327.9 839.109 Q2327.9 844.687 2324.43 847.789 Q2320.95 850.868 2314.63 850.868 Q2312.46 850.868 2310.19 850.497 Q2307.94 850.127 2305.54 849.386 L2305.54 844.687 Q2307.62 845.822 2309.84 846.377 Q2312.06 846.933 2314.54 846.933 Q2318.55 846.933 2320.88 844.826 Q2323.22 842.72 2323.22 839.109 Q2323.22 835.497 2320.88 833.391 Q2318.55 831.285 2314.54 831.285 Q2312.67 831.285 2310.79 831.701 Q2308.94 832.118 2307 832.998 L2307 815.636 Z" fill="#000000" fill-rule="evenodd" fill-opacity="1" /><path clip-path="url(#clip000)" d="M856.602 840.585 Q853.5 845.91 851.995 851.118 Q850.491 856.326 850.491 861.673 Q850.491 867.021 851.995 872.275 Q853.523 877.507 856.602 882.807 L852.898 882.807 Q849.426 877.368 847.69 872.113 Q845.977 866.858 845.977 861.673 Q845.977 856.511 847.69 851.28 Q849.403 846.048 852.898 840.585 L856.602 840.585 Z" fill="#0000ff" fill-rule="evenodd" fill-opacity="1" /><path clip-path="url(#clip000)" d="M865.051 841.998 L871.347 841.998 L886.671 870.909 L886.671 841.998 L891.208 841.998 L891.208 876.558 L884.912 876.558 L869.588 847.646 L869.588 876.558 L865.051 876.558 L865.051 841.998 Z" fill="#0000ff" fill-rule="evenodd" fill-opacity="1" /><path clip-path="url(#clip000)" d="M901.416 870.678 L906.301 870.678 L906.301 874.659 L902.504 882.067 L899.518 882.067 L901.416 874.659 L901.416 870.678 Z" fill="#0000ff" fill-rule="evenodd" fill-opacity="1" /><path clip-path="url(#clip000)" d="M915.583 841.998 L921.879 841.998 L937.203 870.909 L937.203 841.998 L941.74 841.998 L941.74 876.558 L935.444 876.558 L920.12 847.646 L920.12 876.558 L915.583 876.558 L915.583 841.998 Z" fill="#0000ff" fill-rule="evenodd" fill-opacity="1" /><path clip-path="url(#clip000)" d="M950.189 840.585 L953.893 840.585 Q957.365 846.048 959.078 851.28 Q960.814 856.511 960.814 861.673 Q960.814 866.858 959.078 872.113 Q957.365 877.368 953.893 882.807 L950.189 882.807 Q953.268 877.507 954.773 872.275 Q956.3 867.021 956.3 861.673 Q956.3 856.326 954.773 851.118 Q953.268 845.91 950.189 840.585 Z" fill="#0000ff" fill-rule="evenodd" fill-opacity="1" /><path clip-path="url(#clip000)" d="M1476.1 569.436 Q1473 574.76 1471.49 579.969 Q1469.99 585.177 1469.99 590.524 Q1469.99 595.871 1471.49 601.126 Q1473.02 606.357 1476.1 611.658 L1472.4 611.658 Q1468.92 606.219 1467.19 600.964 Q1465.47 595.709 1465.47 590.524 Q1465.47 585.362 1467.19 580.131 Q1468.9 574.899 1472.4 569.436 L1476.1 569.436 Z" fill="#0000ff" fill-rule="evenodd" fill-opacity="1" /><path clip-path="url(#clip000)" d="M1500.94 589.205 Q1502.44 589.714 1503.85 591.381 Q1505.29 593.047 1506.72 595.964 L1511.47 605.408 L1506.45 605.408 L1502.03 596.543 Q1500.31 593.07 1498.69 591.936 Q1497.09 590.802 1494.32 590.802 L1489.22 590.802 L1489.22 605.408 L1484.55 605.408 L1484.55 570.848 L1495.1 570.848 Q1501.03 570.848 1503.95 573.325 Q1506.86 575.802 1506.86 580.802 Q1506.86 584.066 1505.34 586.219 Q1503.83 588.371 1500.94 589.205 M1489.22 574.691 L1489.22 586.959 L1495.1 586.959 Q1498.48 586.959 1500.2 585.408 Q1501.93 583.834 1501.93 580.802 Q1501.93 577.77 1500.2 576.242 Q1498.48 574.691 1495.1 574.691 L1489.22 574.691 Z" fill="#0000ff" fill-rule="evenodd" fill-opacity="1" /><path clip-path="url(#clip000)" d="M1518.39 599.529 L1523.27 599.529 L1523.27 603.51 L1519.48 610.918 L1516.49 610.918 L1518.39 603.51 L1518.39 599.529 Z" fill="#0000ff" fill-rule="evenodd" fill-opacity="1" /><path clip-path="url(#clip000)" d="M1532.56 570.848 L1538.85 570.848 L1554.18 599.76 L1554.18 570.848 L1558.71 570.848 L1558.71 605.408 L1552.42 605.408 L1537.09 576.496 L1537.09 605.408 L1532.56 605.408 L1532.56 570.848 Z" fill="#0000ff" fill-rule="evenodd" fill-opacity="1" /><path clip-path="url(#clip000)" d="M1567.16 569.436 L1570.87 569.436 Q1574.34 574.899 1576.05 580.131 Q1577.79 585.362 1577.79 590.524 Q1577.79 595.709 1576.05 600.964 Q1574.34 606.219 1570.87 611.658 L1567.16 611.658 Q1570.24 606.357 1571.75 601.126 Q1573.27 595.871 1573.27 590.524 Q1573.27 585.177 1571.75 579.969 Q1570.24 574.76 1567.16 569.436 Z" fill="#0000ff" fill-rule="evenodd" fill-opacity="1" /><path clip-path="url(#clip000)" d="M1752.3 119.292 Q1749.19 124.616 1747.69 129.824 Q1746.18 135.033 1746.18 140.38 Q1746.18 145.727 1747.69 150.982 Q1749.22 156.213 1752.3 161.514 L1748.59 161.514 Q1745.12 156.074 1743.38 150.82 Q1741.67 145.565 1741.67 140.38 Q1741.67 135.218 1743.38 129.986 Q1745.1 124.755 1748.59 119.292 L1752.3 119.292 Z" fill="#0000ff" fill-rule="evenodd" fill-opacity="1" /><path clip-path="url(#clip000)" d="M1777.13 139.061 Q1778.64 139.57 1780.05 141.236 Q1781.49 142.903 1782.92 145.82 L1787.67 155.264 L1782.64 155.264 L1778.22 146.398 Q1776.51 142.926 1774.89 141.792 Q1773.29 140.658 1770.51 140.658 L1765.42 140.658 L1765.42 155.264 L1760.74 155.264 L1760.74 120.704 L1771.3 120.704 Q1777.23 120.704 1780.14 123.181 Q1783.06 125.658 1783.06 130.658 Q1783.06 133.922 1781.53 136.074 Q1780.03 138.227 1777.13 139.061 M1765.42 124.547 L1765.42 136.815 L1771.3 136.815 Q1774.68 136.815 1776.39 135.264 Q1778.13 133.69 1778.13 130.658 Q1778.13 127.625 1776.39 126.098 Q1774.68 124.547 1771.3 124.547 L1765.42 124.547 Z" fill="#0000ff" fill-rule="evenodd" fill-opacity="1" /><path clip-path="url(#clip000)" d="M1794.59 149.385 L1799.47 149.385 L1799.47 153.366 L1795.67 160.773 L1792.69 160.773 L1794.59 153.366 L1794.59 149.385 Z" fill="#0000ff" fill-rule="evenodd" fill-opacity="1" /><path clip-path="url(#clip000)" d="M1825.14 139.061 Q1826.65 139.57 1828.06 141.236 Q1829.49 142.903 1830.93 145.82 L1835.67 155.264 L1830.65 155.264 L1826.23 146.398 Q1824.52 142.926 1822.9 141.792 Q1821.3 140.658 1818.52 140.658 L1813.43 140.658 L1813.43 155.264 L1808.75 155.264 L1808.75 120.704 L1819.31 120.704 Q1825.23 120.704 1828.15 123.181 Q1831.07 125.658 1831.07 130.658 Q1831.07 133.922 1829.54 136.074 Q1828.04 138.227 1825.14 139.061 M1813.43 124.547 L1813.43 136.815 L1819.31 136.815 Q1822.69 136.815 1824.4 135.264 Q1826.14 133.69 1826.14 130.658 Q1826.14 127.625 1824.4 126.098 Q1822.69 124.547 1819.31 124.547 L1813.43 124.547 Z" fill="#0000ff" fill-rule="evenodd" fill-opacity="1" /><path clip-path="url(#clip000)" d="M1840.84 119.292 L1844.54 119.292 Q1848.01 124.755 1849.73 129.986 Q1851.46 135.218 1851.46 140.38 Q1851.46 145.565 1849.73 150.82 Q1848.01 156.074 1844.54 161.514 L1840.84 161.514 Q1843.92 156.213 1845.42 150.982 Q1846.95 145.727 1846.95 140.38 Q1846.95 135.033 1845.42 129.824 Q1843.92 124.616 1840.84 119.292 Z" fill="#0000ff" fill-rule="evenodd" fill-opacity="1" /><path clip-path="url(#clip000)" d="M1108.43 341.32 Q1105.33 346.644 1103.83 351.852 Q1102.32 357.06 1102.32 362.408 Q1102.32 367.755 1103.83 373.009 Q1105.36 378.241 1108.43 383.542 L1104.73 383.542 Q1101.26 378.102 1099.52 372.847 Q1097.81 367.593 1097.81 362.408 Q1097.81 357.246 1099.52 352.014 Q1101.24 346.783 1104.73 341.32 L1108.43 341.32 Z" fill="#0000ff" fill-rule="evenodd" fill-opacity="1" /><path clip-path="url(#clip000)" d="M1116.88 342.732 L1123.18 342.732 L1138.5 371.644 L1138.5 342.732 L1143.04 342.732 L1143.04 377.292 L1136.74 377.292 L1121.42 348.38 L1121.42 377.292 L1116.88 377.292 L1116.88 342.732 Z" fill="#0000ff" fill-rule="evenodd" fill-opacity="1" /><path clip-path="url(#clip000)" d="M1153.25 371.412 L1158.13 371.412 L1158.13 375.394 L1154.34 382.801 L1151.35 382.801 L1153.25 375.394 L1153.25 371.412 Z" fill="#0000ff" fill-rule="evenodd" fill-opacity="1" /><path clip-path="url(#clip000)" d="M1183.8 361.088 Q1185.31 361.597 1186.72 363.264 Q1188.16 364.931 1189.59 367.847 L1194.34 377.292 L1189.31 377.292 L1184.89 368.426 Q1183.18 364.954 1181.56 363.82 Q1179.96 362.685 1177.18 362.685 L1172.09 362.685 L1172.09 377.292 L1167.42 377.292 L1167.42 342.732 L1177.97 342.732 Q1183.9 342.732 1186.81 345.209 Q1189.73 347.685 1189.73 352.685 Q1189.73 355.949 1188.2 358.102 Q1186.7 360.255 1183.8 361.088 M1172.09 346.574 L1172.09 358.843 L1177.97 358.843 Q1181.35 358.843 1183.06 357.292 Q1184.8 355.718 1184.8 352.685 Q1184.8 349.653 1183.06 348.125 Q1181.35 346.574 1177.97 346.574 L1172.09 346.574 Z" fill="#0000ff" fill-rule="evenodd" fill-opacity="1" /><path clip-path="url(#clip000)" d="M1199.5 341.32 L1203.2 341.32 Q1206.67 346.783 1208.39 352.014 Q1210.12 357.246 1210.12 362.408 Q1210.12 367.593 1208.39 372.847 Q1206.67 378.102 1203.2 383.542 L1199.5 383.542 Q1202.58 378.241 1204.08 373.009 Q1205.61 367.755 1205.61 362.408 Q1205.61 357.06 1204.08 351.852 Q1202.58 346.644 1199.5 341.32 Z" fill="#0000ff" fill-rule="evenodd" fill-opacity="1" /><path clip-path="url(#clip000)" d="M1156.64 569.436 Q1153.53 574.76 1152.03 579.969 Q1150.52 585.177 1150.52 590.524 Q1150.52 595.871 1152.03 601.126 Q1153.56 606.357 1156.64 611.658 L1152.93 611.658 Q1149.46 606.219 1147.72 600.964 Q1146.01 595.709 1146.01 590.524 Q1146.01 585.362 1147.72 580.131 Q1149.44 574.899 1152.93 569.436 L1156.64 569.436 Z" fill="#ff0000" fill-rule="evenodd" fill-opacity="1" /><path clip-path="url(#clip000)" d="M1181.47 589.205 Q1182.98 589.714 1184.39 591.381 Q1185.82 593.047 1187.26 595.964 L1192.01 605.408 L1186.98 605.408 L1182.56 596.543 Q1180.85 593.07 1179.23 591.936 Q1177.63 590.802 1174.85 590.802 L1169.76 590.802 L1169.76 605.408 L1165.08 605.408 L1165.08 570.848 L1175.64 570.848 Q1181.57 570.848 1184.48 573.325 Q1187.4 575.802 1187.4 580.802 Q1187.4 584.066 1185.87 586.219 Q1184.37 588.371 1181.47 589.205 M1169.76 574.691 L1169.76 586.959 L1175.64 586.959 Q1179.02 586.959 1180.73 585.408 Q1182.47 583.834 1182.47 580.802 Q1182.47 577.77 1180.73 576.242 Q1179.02 574.691 1175.64 574.691 L1169.76 574.691 Z" fill="#ff0000" fill-rule="evenodd" fill-opacity="1" /><path clip-path="url(#clip000)" d="M1198.93 599.529 L1203.81 599.529 L1203.81 603.51 L1200.01 610.918 L1197.03 610.918 L1198.93 603.51 L1198.93 599.529 Z" fill="#ff0000" fill-rule="evenodd" fill-opacity="1" /><path clip-path="url(#clip000)" d="M1213.09 570.848 L1219.39 570.848 L1234.71 599.76 L1234.71 570.848 L1239.25 570.848 L1239.25 605.408 L1232.95 605.408 L1217.63 576.496 L1217.63 605.408 L1213.09 605.408 L1213.09 570.848 Z" fill="#ff0000" fill-rule="evenodd" fill-opacity="1" /><path clip-path="url(#clip000)" d="M1247.7 569.436 L1251.4 569.436 Q1254.88 574.899 1256.59 580.131 Q1258.32 585.362 1258.32 590.524 Q1258.32 595.709 1256.59 600.964 Q1254.88 606.219 1251.4 611.658 L1247.7 611.658 Q1250.78 606.357 1252.28 601.126 Q1253.81 595.871 1253.81 590.524 Q1253.81 585.177 1252.28 579.969 Q1250.78 574.76 1247.7 569.436 Z" fill="#ff0000" fill-rule="evenodd" fill-opacity="1" /><path clip-path="url(#clip000)" d="M1432.83 377.28 Q1429.73 382.604 1428.23 387.812 Q1426.72 393.021 1426.72 398.368 Q1426.72 403.715 1428.23 408.97 Q1429.75 414.201 1432.83 419.502 L1429.13 419.502 Q1425.66 414.062 1423.92 408.808 Q1422.21 403.553 1422.21 398.368 Q1422.21 393.206 1423.92 387.974 Q1425.63 382.743 1429.13 377.28 L1432.83 377.28 Z" fill="#ff0000" fill-rule="evenodd" fill-opacity="1" /><path clip-path="url(#clip000)" d="M1457.67 397.048 Q1459.17 397.558 1460.59 399.224 Q1462.02 400.891 1463.46 403.808 L1468.2 413.252 L1463.18 413.252 L1458.76 404.386 Q1457.04 400.914 1455.42 399.78 Q1453.83 398.646 1451.05 398.646 L1445.96 398.646 L1445.96 413.252 L1441.28 413.252 L1441.28 378.692 L1451.84 378.692 Q1457.76 378.692 1460.68 381.169 Q1463.6 383.646 1463.6 388.646 Q1463.6 391.91 1462.07 394.062 Q1460.56 396.215 1457.67 397.048 M1445.96 382.535 L1445.96 394.803 L1451.84 394.803 Q1455.22 394.803 1456.93 393.252 Q1458.66 391.678 1458.66 388.646 Q1458.66 385.613 1456.93 384.086 Q1455.22 382.535 1451.84 382.535 L1445.96 382.535 Z" fill="#ff0000" fill-rule="evenodd" fill-opacity="1" /><path clip-path="url(#clip000)" d="M1475.12 407.372 L1480.01 407.372 L1480.01 411.354 L1476.21 418.761 L1473.22 418.761 L1475.12 411.354 L1475.12 407.372 Z" fill="#ff0000" fill-rule="evenodd" fill-opacity="1" /><path clip-path="url(#clip000)" d="M1505.68 397.048 Q1507.18 397.558 1508.6 399.224 Q1510.03 400.891 1511.47 403.808 L1516.21 413.252 L1511.19 413.252 L1506.77 404.386 Q1505.05 400.914 1503.43 399.78 Q1501.84 398.646 1499.06 398.646 L1493.97 398.646 L1493.97 413.252 L1489.29 413.252 L1489.29 378.692 L1499.85 378.692 Q1505.77 378.692 1508.69 381.169 Q1511.6 383.646 1511.6 388.646 Q1511.6 391.91 1510.08 394.062 Q1508.57 396.215 1505.68 397.048 M1493.97 382.535 L1493.97 394.803 L1499.85 394.803 Q1503.22 394.803 1504.94 393.252 Q1506.67 391.678 1506.67 388.646 Q1506.67 385.613 1504.94 384.086 Q1503.22 382.535 1499.85 382.535 L1493.97 382.535 Z" fill="#ff0000" fill-rule="evenodd" fill-opacity="1" /><path clip-path="url(#clip000)" d="M1521.37 377.28 L1525.08 377.28 Q1528.55 382.743 1530.26 387.974 Q1532 393.206 1532 398.368 Q1532 403.553 1530.26 408.808 Q1528.55 414.062 1525.08 419.502 L1521.37 419.502 Q1524.45 414.201 1525.96 408.97 Q1527.48 403.715 1527.48 398.368 Q1527.48 393.021 1525.96 387.812 Q1524.45 382.604 1521.37 377.28 Z" fill="#ff0000" fill-rule="evenodd" fill-opacity="1" /><path clip-path="url(#clip000)" d="M1108.43 668.105 Q1105.33 673.429 1103.83 678.637 Q1102.32 683.845 1102.32 689.192 Q1102.32 694.54 1103.83 699.794 Q1105.36 705.026 1108.43 710.327 L1104.73 710.327 Q1101.26 704.887 1099.52 699.632 Q1097.81 694.378 1097.81 689.192 Q1097.81 684.03 1099.52 678.799 Q1101.24 673.567 1104.73 668.105 L1108.43 668.105 Z" fill="#ff0000" fill-rule="evenodd" fill-opacity="1" /><path clip-path="url(#clip000)" d="M1116.88 669.517 L1123.18 669.517 L1138.5 698.428 L1138.5 669.517 L1143.04 669.517 L1143.04 704.077 L1136.74 704.077 L1121.42 675.165 L1121.42 704.077 L1116.88 704.077 L1116.88 669.517 Z" fill="#ff0000" fill-rule="evenodd" fill-opacity="1" /><path clip-path="url(#clip000)" d="M1153.25 698.197 L1158.13 698.197 L1158.13 702.178 L1154.34 709.586 L1151.35 709.586 L1153.25 702.178 L1153.25 698.197 Z" fill="#ff0000" fill-rule="evenodd" fill-opacity="1" /><path clip-path="url(#clip000)" d="M1183.8 687.873 Q1185.31 688.382 1186.72 690.049 Q1188.16 691.715 1189.59 694.632 L1194.34 704.077 L1189.31 704.077 L1184.89 695.211 Q1183.18 691.739 1181.56 690.604 Q1179.96 689.47 1177.18 689.47 L1172.09 689.47 L1172.09 704.077 L1167.42 704.077 L1167.42 669.517 L1177.97 669.517 Q1183.9 669.517 1186.81 671.993 Q1189.73 674.47 1189.73 679.47 Q1189.73 682.734 1188.2 684.887 Q1186.7 687.04 1183.8 687.873 M1172.09 673.359 L1172.09 685.628 L1177.97 685.628 Q1181.35 685.628 1183.06 684.077 Q1184.8 682.503 1184.8 679.47 Q1184.8 676.438 1183.06 674.91 Q1181.35 673.359 1177.97 673.359 L1172.09 673.359 Z" fill="#ff0000" fill-rule="evenodd" fill-opacity="1" /><path clip-path="url(#clip000)" d="M1199.5 668.105 L1203.2 668.105 Q1206.67 673.567 1208.39 678.799 Q1210.12 684.03 1210.12 689.192 Q1210.12 694.378 1208.39 699.632 Q1206.67 704.887 1203.2 710.327 L1199.5 710.327 Q1202.58 705.026 1204.08 699.794 Q1205.61 694.54 1205.61 689.192 Q1205.61 683.845 1204.08 678.637 Q1202.58 673.429 1199.5 668.105 Z" fill="#ff0000" fill-rule="evenodd" fill-opacity="1" /><path clip-path="url(#clip000)" d="M837.171 569.436 Q834.07 574.76 832.565 579.969 Q831.06 585.177 831.06 590.524 Q831.06 595.871 832.565 601.126 Q834.093 606.357 837.171 611.658 L833.468 611.658 Q829.996 606.219 828.259 600.964 Q826.546 595.709 826.546 590.524 Q826.546 585.362 828.259 580.131 Q829.972 574.899 833.468 569.436 L837.171 569.436 Z" fill="#008000" fill-rule="evenodd" fill-opacity="1" /><path clip-path="url(#clip000)" d="M862.009 589.205 Q863.514 589.714 864.926 591.381 Q866.361 593.047 867.796 595.964 L872.542 605.408 L867.518 605.408 L863.097 596.543 Q861.384 593.07 859.764 591.936 Q858.167 590.802 855.389 590.802 L850.296 590.802 L850.296 605.408 L845.62 605.408 L845.62 570.848 L856.176 570.848 Q862.102 570.848 865.018 573.325 Q867.935 575.802 867.935 580.802 Q867.935 584.066 866.407 586.219 Q864.903 588.371 862.009 589.205 M850.296 574.691 L850.296 586.959 L856.176 586.959 Q859.556 586.959 861.269 585.408 Q863.005 583.834 863.005 580.802 Q863.005 577.77 861.269 576.242 Q859.556 574.691 856.176 574.691 L850.296 574.691 Z" fill="#008000" fill-rule="evenodd" fill-opacity="1" /><path clip-path="url(#clip000)" d="M879.463 599.529 L884.347 599.529 L884.347 603.51 L880.551 610.918 L877.565 610.918 L879.463 603.51 L879.463 599.529 Z" fill="#008000" fill-rule="evenodd" fill-opacity="1" /><path clip-path="url(#clip000)" d="M893.629 570.848 L899.926 570.848 L915.25 599.76 L915.25 570.848 L919.787 570.848 L919.787 605.408 L913.49 605.408 L898.166 576.496 L898.166 605.408 L893.629 605.408 L893.629 570.848 Z" fill="#008000" fill-rule="evenodd" fill-opacity="1" /><path clip-path="url(#clip000)" d="M928.236 569.436 L931.939 569.436 Q935.412 574.899 937.125 580.131 Q938.861 585.362 938.861 590.524 Q938.861 595.709 937.125 600.964 Q935.412 606.219 931.939 611.658 L928.236 611.658 Q931.314 606.357 932.819 601.126 Q934.347 595.871 934.347 590.524 Q934.347 585.177 932.819 579.969 Q931.314 574.76 928.236 569.436 Z" fill="#008000" fill-rule="evenodd" fill-opacity="1" /><path clip-path="url(#clip000)" d="M1113.37 635.268 Q1110.27 640.592 1108.76 645.8 Q1107.26 651.009 1107.26 656.356 Q1107.26 661.703 1108.76 666.958 Q1110.29 672.189 1113.37 677.49 L1109.66 677.49 Q1106.19 672.05 1104.46 666.796 Q1102.74 661.541 1102.74 656.356 Q1102.74 651.194 1104.46 645.962 Q1106.17 640.731 1109.66 635.268 L1113.37 635.268 Z" fill="#008000" fill-rule="evenodd" fill-opacity="1" /><path clip-path="url(#clip000)" d="M1138.21 655.036 Q1139.71 655.546 1141.12 657.212 Q1142.56 658.879 1143.99 661.796 L1148.74 671.24 L1143.71 671.24 L1139.29 662.374 Q1137.58 658.902 1135.96 657.768 Q1134.36 656.634 1131.59 656.634 L1126.49 656.634 L1126.49 671.24 L1121.82 671.24 L1121.82 636.68 L1132.37 636.68 Q1138.3 636.68 1141.21 639.157 Q1144.13 641.634 1144.13 646.634 Q1144.13 649.898 1142.6 652.05 Q1141.1 654.203 1138.21 655.036 M1126.49 640.523 L1126.49 652.791 L1132.37 652.791 Q1135.75 652.791 1137.46 651.24 Q1139.2 649.666 1139.2 646.634 Q1139.2 643.601 1137.46 642.074 Q1135.75 640.523 1132.37 640.523 L1126.49 640.523 Z" fill="#008000" fill-rule="evenodd" fill-opacity="1" /><path clip-path="url(#clip000)" d="M1155.66 665.36 L1160.54 665.36 L1160.54 669.342 L1156.75 676.749 L1153.76 676.749 L1155.66 669.342 L1155.66 665.36 Z" fill="#008000" fill-rule="evenodd" fill-opacity="1" /><path clip-path="url(#clip000)" d="M1186.21 655.036 Q1187.72 655.546 1189.13 657.212 Q1190.57 658.879 1192 661.796 L1196.75 671.24 L1191.72 671.24 L1187.3 662.374 Q1185.59 658.902 1183.97 657.768 Q1182.37 656.634 1179.59 656.634 L1174.5 656.634 L1174.5 671.24 L1169.83 671.24 L1169.83 636.68 L1180.38 636.68 Q1186.31 636.68 1189.22 639.157 Q1192.14 641.634 1192.14 646.634 Q1192.14 649.898 1190.61 652.05 Q1189.11 654.203 1186.21 655.036 M1174.5 640.523 L1174.5 652.791 L1180.38 652.791 Q1183.76 652.791 1185.47 651.24 Q1187.21 649.666 1187.21 646.634 Q1187.21 643.601 1185.47 642.074 Q1183.76 640.523 1180.38 640.523 L1174.5 640.523 Z" fill="#008000" fill-rule="evenodd" fill-opacity="1" /><path clip-path="url(#clip000)" d="M1201.91 635.268 L1205.61 635.268 Q1209.08 640.731 1210.8 645.962 Q1212.53 651.194 1212.53 656.356 Q1212.53 661.541 1210.8 666.796 Q1209.08 672.05 1205.61 677.49 L1201.91 677.49 Q1204.99 672.189 1206.49 666.958 Q1208.02 661.703 1208.02 656.356 Q1208.02 651.009 1206.49 645.8 Q1204.99 640.592 1201.91 635.268 Z" fill="#008000" fill-rule="evenodd" fill-opacity="1" /><path clip-path="url(#clip000)" d="M1108.43 926.092 Q1105.33 931.417 1103.83 936.625 Q1102.32 941.833 1102.32 947.18 Q1102.32 952.528 1103.83 957.782 Q1105.36 963.014 1108.43 968.314 L1104.73 968.314 Q1101.26 962.875 1099.52 957.62 Q1097.81 952.365 1097.81 947.18 Q1097.81 942.018 1099.52 936.787 Q1101.24 931.555 1104.73 926.092 L1108.43 926.092 Z" fill="#008000" fill-rule="evenodd" fill-opacity="1" /><path clip-path="url(#clip000)" d="M1116.88 927.504 L1123.18 927.504 L1138.5 956.416 L1138.5 927.504 L1143.04 927.504 L1143.04 962.064 L1136.74 962.064 L1121.42 933.153 L1121.42 962.064 L1116.88 962.064 L1116.88 927.504 Z" fill="#008000" fill-rule="evenodd" fill-opacity="1" /><path clip-path="url(#clip000)" d="M1153.25 956.185 L1158.13 956.185 L1158.13 960.166 L1154.34 967.574 L1151.35 967.574 L1153.25 960.166 L1153.25 956.185 Z" fill="#008000" fill-rule="evenodd" fill-opacity="1" /><path clip-path="url(#clip000)" d="M1183.8 945.861 Q1185.31 946.37 1186.72 948.037 Q1188.16 949.703 1189.59 952.62 L1194.34 962.064 L1189.31 962.064 L1184.89 953.199 Q1183.18 949.727 1181.56 948.592 Q1179.96 947.458 1177.18 947.458 L1172.09 947.458 L1172.09 962.064 L1167.42 962.064 L1167.42 927.504 L1177.97 927.504 Q1183.9 927.504 1186.81 929.981 Q1189.73 932.458 1189.73 937.458 Q1189.73 940.722 1188.2 942.875 Q1186.7 945.028 1183.8 945.861 M1172.09 931.347 L1172.09 943.616 L1177.97 943.616 Q1181.35 943.616 1183.06 942.065 Q1184.8 940.491 1184.8 937.458 Q1184.8 934.426 1183.06 932.898 Q1181.35 931.347 1177.97 931.347 L1172.09 931.347 Z" fill="#008000" fill-rule="evenodd" fill-opacity="1" /><path clip-path="url(#clip000)" d="M1199.5 926.092 L1203.2 926.092 Q1206.67 931.555 1208.39 936.787 Q1210.12 942.018 1210.12 947.18 Q1210.12 952.365 1208.39 957.62 Q1206.67 962.875 1203.2 968.314 L1199.5 968.314 Q1202.58 963.014 1204.08 957.782 Q1205.61 952.528 1205.61 947.18 Q1205.61 941.833 1204.08 936.625 Q1202.58 931.417 1199.5 926.092 Z" fill="#008000" fill-rule="evenodd" fill-opacity="1" /><path clip-path="url(#clip000)" d="M517.707 569.436 Q514.606 574.76 513.101 579.969 Q511.596 585.177 511.596 590.524 Q511.596 595.871 513.101 601.126 Q514.629 606.357 517.707 611.658 L514.004 611.658 Q510.532 606.219 508.796 600.964 Q507.083 595.709 507.083 590.524 Q507.083 585.362 508.796 580.131 Q510.508 574.899 514.004 569.436 L517.707 569.436 Z" fill="#800080" fill-rule="evenodd" fill-opacity="1" /><path clip-path="url(#clip000)" d="M542.545 589.205 Q544.05 589.714 545.462 591.381 Q546.897 593.047 548.332 595.964 L553.078 605.408 L548.055 605.408 L543.633 596.543 Q541.92 593.07 540.3 591.936 Q538.703 590.802 535.925 590.802 L530.832 590.802 L530.832 605.408 L526.157 605.408 L526.157 570.848 L536.712 570.848 Q542.638 570.848 545.555 573.325 Q548.471 575.802 548.471 580.802 Q548.471 584.066 546.943 586.219 Q545.439 588.371 542.545 589.205 M530.832 574.691 L530.832 586.959 L536.712 586.959 Q540.092 586.959 541.805 585.408 Q543.541 583.834 543.541 580.802 Q543.541 577.77 541.805 576.242 Q540.092 574.691 536.712 574.691 L530.832 574.691 Z" fill="#800080" fill-rule="evenodd" fill-opacity="1" /><path clip-path="url(#clip000)" d="M559.999 599.529 L564.883 599.529 L564.883 603.51 L561.087 610.918 L558.101 610.918 L559.999 603.51 L559.999 599.529 Z" fill="#800080" fill-rule="evenodd" fill-opacity="1" /><path clip-path="url(#clip000)" d="M574.166 570.848 L580.462 570.848 L595.786 599.76 L595.786 570.848 L600.323 570.848 L600.323 605.408 L594.027 605.408 L578.703 576.496 L578.703 605.408 L574.166 605.408 L574.166 570.848 Z" fill="#800080" fill-rule="evenodd" fill-opacity="1" /><path clip-path="url(#clip000)" d="M608.772 569.436 L612.476 569.436 Q615.948 574.899 617.661 580.131 Q619.397 585.362 619.397 590.524 Q619.397 595.709 617.661 600.964 Q615.948 606.219 612.476 611.658 L608.772 611.658 Q611.851 606.357 613.355 601.126 Q614.883 595.871 614.883 590.524 Q614.883 585.177 613.355 579.969 Q611.851 574.76 608.772 569.436 Z" fill="#800080" fill-rule="evenodd" fill-opacity="1" /><path clip-path="url(#clip000)" d="M793.904 893.256 Q790.802 898.58 789.297 903.788 Q787.793 908.997 787.793 914.344 Q787.793 919.691 789.297 924.946 Q790.825 930.177 793.904 935.478 L790.2 935.478 Q786.728 930.038 784.992 924.784 Q783.279 919.529 783.279 914.344 Q783.279 909.182 784.992 903.95 Q786.705 898.719 790.2 893.256 L793.904 893.256 Z" fill="#800080" fill-rule="evenodd" fill-opacity="1" /><path clip-path="url(#clip000)" d="M818.742 913.024 Q820.246 913.534 821.658 915.2 Q823.093 916.867 824.529 919.784 L829.274 929.228 L824.251 929.228 L819.829 920.362 Q818.117 916.89 816.496 915.756 Q814.899 914.622 812.121 914.622 L807.029 914.622 L807.029 929.228 L802.353 929.228 L802.353 894.668 L812.908 894.668 Q818.834 894.668 821.751 897.145 Q824.667 899.622 824.667 904.622 Q824.667 907.886 823.14 910.038 Q821.635 912.191 818.742 913.024 M807.029 898.511 L807.029 910.779 L812.908 910.779 Q816.288 910.779 818.001 909.228 Q819.737 907.654 819.737 904.622 Q819.737 901.589 818.001 900.061 Q816.288 898.511 812.908 898.511 L807.029 898.511 Z" fill="#800080" fill-rule="evenodd" fill-opacity="1" /><path clip-path="url(#clip000)" d="M836.195 923.348 L841.079 923.348 L841.079 927.33 L837.283 934.737 L834.297 934.737 L836.195 927.33 L836.195 923.348 Z" fill="#800080" fill-rule="evenodd" fill-opacity="1" /><path clip-path="url(#clip000)" d="M866.751 913.024 Q868.255 913.534 869.667 915.2 Q871.102 916.867 872.538 919.784 L877.283 929.228 L872.26 929.228 L867.838 920.362 Q866.126 916.89 864.505 915.756 Q862.908 914.622 860.13 914.622 L855.038 914.622 L855.038 929.228 L850.362 929.228 L850.362 894.668 L860.917 894.668 Q866.843 894.668 869.76 897.145 Q872.676 899.622 872.676 904.622 Q872.676 907.886 871.149 910.038 Q869.644 912.191 866.751 913.024 M855.038 898.511 L855.038 910.779 L860.917 910.779 Q864.297 910.779 866.01 909.228 Q867.746 907.654 867.746 904.622 Q867.746 901.589 866.01 900.061 Q864.297 898.511 860.917 898.511 L855.038 898.511 Z" fill="#800080" fill-rule="evenodd" fill-opacity="1" /><path clip-path="url(#clip000)" d="M882.445 893.256 L886.149 893.256 Q889.621 898.719 891.334 903.95 Q893.07 909.182 893.07 914.344 Q893.07 919.529 891.334 924.784 Q889.621 930.038 886.149 935.478 L882.445 935.478 Q885.524 930.177 887.028 924.946 Q888.556 919.691 888.556 914.344 Q888.556 908.997 887.028 903.788 Q885.524 898.58 882.445 893.256 Z" fill="#800080" fill-rule="evenodd" fill-opacity="1" /><path clip-path="url(#clip000)" d="M1108.43 1184.08 Q1105.33 1189.4 1103.83 1194.61 Q1102.32 1199.82 1102.32 1205.17 Q1102.32 1210.52 1103.83 1215.77 Q1105.36 1221 1108.43 1226.3 L1104.73 1226.3 Q1101.26 1220.86 1099.52 1215.61 Q1097.81 1210.35 1097.81 1205.17 Q1097.81 1200.01 1099.52 1194.77 Q1101.24 1189.54 1104.73 1184.08 L1108.43 1184.08 Z" fill="#800080" fill-rule="evenodd" fill-opacity="1" /><path clip-path="url(#clip000)" d="M1116.88 1185.49 L1123.18 1185.49 L1138.5 1214.4 L1138.5 1185.49 L1143.04 1185.49 L1143.04 1220.05 L1136.74 1220.05 L1121.42 1191.14 L1121.42 1220.05 L1116.88 1220.05 L1116.88 1185.49 Z" fill="#800080" fill-rule="evenodd" fill-opacity="1" /><path clip-path="url(#clip000)" d="M1153.25 1214.17 L1158.13 1214.17 L1158.13 1218.15 L1154.34 1225.56 L1151.35 1225.56 L1153.25 1218.15 L1153.25 1214.17 Z" fill="#800080" fill-rule="evenodd" fill-opacity="1" /><path clip-path="url(#clip000)" d="M1183.8 1203.85 Q1185.31 1204.36 1186.72 1206.02 Q1188.16 1207.69 1189.59 1210.61 L1194.34 1220.05 L1189.31 1220.05 L1184.89 1211.19 Q1183.18 1207.71 1181.56 1206.58 Q1179.96 1205.45 1177.18 1205.45 L1172.09 1205.45 L1172.09 1220.05 L1167.42 1220.05 L1167.42 1185.49 L1177.97 1185.49 Q1183.9 1185.49 1186.81 1187.97 Q1189.73 1190.45 1189.73 1195.45 Q1189.73 1198.71 1188.2 1200.86 Q1186.7 1203.02 1183.8 1203.85 M1172.09 1189.34 L1172.09 1201.6 L1177.97 1201.6 Q1181.35 1201.6 1183.06 1200.05 Q1184.8 1198.48 1184.8 1195.45 Q1184.8 1192.41 1183.06 1190.89 Q1181.35 1189.34 1177.97 1189.34 L1172.09 1189.34 Z" fill="#800080" fill-rule="evenodd" fill-opacity="1" /><path clip-path="url(#clip000)" d="M1199.5 1184.08 L1203.2 1184.08 Q1206.67 1189.54 1208.39 1194.77 Q1210.12 1200.01 1210.12 1205.17 Q1210.12 1210.35 1208.39 1215.61 Q1206.67 1220.86 1203.2 1226.3 L1199.5 1226.3 Q1202.58 1221 1204.08 1215.77 Q1205.61 1210.52 1205.61 1205.17 Q1205.61 1199.82 1204.08 1194.61 Q1202.58 1189.4 1199.5 1184.08 Z" fill="#800080" fill-rule="evenodd" fill-opacity="1" /></svg>
