<?xml version="1.0" encoding="utf-8"?>
<svg xmlns="http://www.w3.org/2000/svg" xmlns:xlink="http://www.w3.org/1999/xlink" width="600" height="400" viewBox="0 0 2400 1600">
<defs>
  <clipPath id="clip650">
    <rect x="0" y="0" width="2400" height="1600"/>
  </clipPath>
</defs>
<path clip-path="url(#clip650)" d="
M0 1600 L2400 1600 L2400 0 L0 0  Z
  " fill="#ffffff" fill-rule="evenodd" fill-opacity="1"/>
<defs>
  <clipPath id="clip651">
    <rect x="480" y="0" width="1681" height="1600"/>
  </clipPath>
</defs>
<path clip-path="url(#clip650)" d="
M205.121 1423.18 L1908.93 1423.18 L1908.93 47.2441 L205.121 47.2441  Z
  " fill="#ffffff" fill-rule="evenodd" fill-opacity="1"/>
<defs>
  <clipPath id="clip652">
    <rect x="205" y="47" width="1705" height="1377"/>
  </clipPath>
</defs>
<polyline clip-path="url(#clip652)" style="stroke:#000000; stroke-linecap:round; stroke-linejoin:round; stroke-width:2; stroke-opacity:0.1; fill:none" points="
  205.121,1423.18 205.121,47.2441 
  "/>
<polyline clip-path="url(#clip652)" style="stroke:#000000; stroke-linecap:round; stroke-linejoin:round; stroke-width:2; stroke-opacity:0.1; fill:none" points="
  631.073,1423.18 631.073,47.2441 
  "/>
<polyline clip-path="url(#clip652)" style="stroke:#000000; stroke-linecap:round; stroke-linejoin:round; stroke-width:2; stroke-opacity:0.1; fill:none" points="
  1057.02,1423.18 1057.02,47.2441 
  "/>
<polyline clip-path="url(#clip652)" style="stroke:#000000; stroke-linecap:round; stroke-linejoin:round; stroke-width:2; stroke-opacity:0.1; fill:none" points="
  1482.98,1423.18 1482.98,47.2441 
  "/>
<polyline clip-path="url(#clip652)" style="stroke:#000000; stroke-linecap:round; stroke-linejoin:round; stroke-width:2; stroke-opacity:0.1; fill:none" points="
  1908.93,1423.18 1908.93,47.2441 
  "/>
<polyline clip-path="url(#clip650)" style="stroke:#000000; stroke-linecap:round; stroke-linejoin:round; stroke-width:4; stroke-opacity:1; fill:none" points="
  205.121,1423.18 1908.93,1423.18 
  "/>
<polyline clip-path="url(#clip650)" style="stroke:#000000; stroke-linecap:round; stroke-linejoin:round; stroke-width:4; stroke-opacity:1; fill:none" points="
  205.121,1423.18 205.121,1404.28 
  "/>
<polyline clip-path="url(#clip650)" style="stroke:#000000; stroke-linecap:round; stroke-linejoin:round; stroke-width:4; stroke-opacity:1; fill:none" points="
  631.073,1423.18 631.073,1404.28 
  "/>
<polyline clip-path="url(#clip650)" style="stroke:#000000; stroke-linecap:round; stroke-linejoin:round; stroke-width:4; stroke-opacity:1; fill:none" points="
  1057.02,1423.18 1057.02,1404.28 
  "/>
<polyline clip-path="url(#clip650)" style="stroke:#000000; stroke-linecap:round; stroke-linejoin:round; stroke-width:4; stroke-opacity:1; fill:none" points="
  1482.98,1423.18 1482.98,1404.28 
  "/>
<polyline clip-path="url(#clip650)" style="stroke:#000000; stroke-linecap:round; stroke-linejoin:round; stroke-width:4; stroke-opacity:1; fill:none" points="
  1908.93,1423.18 1908.93,1404.28 
  "/>
<path clip-path="url(#clip650)" d="M205.121 1454.1 Q201.51 1454.1 199.681 1457.66 Q197.876 1461.2 197.876 1468.33 Q197.876 1475.44 199.681 1479.01 Q201.51 1482.55 205.121 1482.55 Q208.755 1482.55 210.561 1479.01 Q212.389 1475.44 212.389 1468.33 Q212.389 1461.2 210.561 1457.66 Q208.755 1454.1 205.121 1454.1 M205.121 1450.39 Q210.931 1450.39 213.987 1455 Q217.065 1459.58 217.065 1468.33 Q217.065 1477.06 213.987 1481.67 Q210.931 1486.25 205.121 1486.25 Q199.311 1486.25 196.232 1481.67 Q193.177 1477.06 193.177 1468.33 Q193.177 1459.58 196.232 1455 Q199.311 1450.39 205.121 1450.39 Z" fill="#000000" fill-rule="evenodd" fill-opacity="1" /><path clip-path="url(#clip650)" d="M609.846 1481.64 L626.165 1481.64 L626.165 1485.58 L604.221 1485.58 L604.221 1481.64 Q606.883 1478.89 611.466 1474.26 Q616.073 1469.61 617.254 1468.27 Q619.499 1465.74 620.378 1464.01 Q621.281 1462.25 621.281 1460.56 Q621.281 1457.8 619.337 1456.07 Q617.416 1454.33 614.314 1454.33 Q612.115 1454.33 609.661 1455.09 Q607.23 1455.86 604.453 1457.41 L604.453 1452.69 Q607.277 1451.55 609.73 1450.97 Q612.184 1450.39 614.221 1450.39 Q619.591 1450.39 622.786 1453.08 Q625.98 1455.77 625.98 1460.26 Q625.98 1462.39 625.17 1464.31 Q624.383 1466.2 622.277 1468.8 Q621.698 1469.47 618.596 1472.69 Q615.494 1475.88 609.846 1481.64 Z" fill="#000000" fill-rule="evenodd" fill-opacity="1" /><path clip-path="url(#clip650)" d="M645.98 1454.1 Q642.369 1454.1 640.54 1457.66 Q638.735 1461.2 638.735 1468.33 Q638.735 1475.44 640.54 1479.01 Q642.369 1482.55 645.98 1482.55 Q649.614 1482.55 651.42 1479.01 Q653.249 1475.44 653.249 1468.33 Q653.249 1461.2 651.42 1457.66 Q649.614 1454.1 645.98 1454.1 M645.98 1450.39 Q651.79 1450.39 654.846 1455 Q657.925 1459.58 657.925 1468.33 Q657.925 1477.06 654.846 1481.67 Q651.79 1486.25 645.98 1486.25 Q640.17 1486.25 637.091 1481.67 Q634.036 1477.06 634.036 1468.33 Q634.036 1459.58 637.091 1455 Q640.17 1450.39 645.98 1450.39 Z" fill="#000000" fill-rule="evenodd" fill-opacity="1" /><path clip-path="url(#clip650)" d="M1045.2 1455.09 L1033.39 1473.54 L1045.2 1473.54 L1045.2 1455.09 M1043.97 1451.02 L1049.85 1451.02 L1049.85 1473.54 L1054.78 1473.54 L1054.78 1477.43 L1049.85 1477.43 L1049.85 1485.58 L1045.2 1485.58 L1045.2 1477.43 L1029.59 1477.43 L1029.59 1472.92 L1043.97 1451.02 Z" fill="#000000" fill-rule="evenodd" fill-opacity="1" /><path clip-path="url(#clip650)" d="M1072.51 1454.1 Q1068.9 1454.1 1067.07 1457.66 Q1065.27 1461.2 1065.27 1468.33 Q1065.27 1475.44 1067.07 1479.01 Q1068.9 1482.55 1072.51 1482.55 Q1076.15 1482.55 1077.95 1479.01 Q1079.78 1475.44 1079.78 1468.33 Q1079.78 1461.2 1077.95 1457.66 Q1076.15 1454.1 1072.51 1454.1 M1072.51 1450.39 Q1078.32 1450.39 1081.38 1455 Q1084.46 1459.58 1084.46 1468.33 Q1084.46 1477.06 1081.38 1481.67 Q1078.32 1486.25 1072.51 1486.25 Q1066.7 1486.25 1063.62 1481.67 Q1060.57 1477.06 1060.57 1468.33 Q1060.57 1459.58 1063.62 1455 Q1066.7 1450.39 1072.51 1450.39 Z" fill="#000000" fill-rule="evenodd" fill-opacity="1" /><path clip-path="url(#clip650)" d="M1468.38 1466.44 Q1465.23 1466.44 1463.38 1468.59 Q1461.55 1470.74 1461.55 1474.49 Q1461.55 1478.22 1463.38 1480.39 Q1465.23 1482.55 1468.38 1482.55 Q1471.53 1482.55 1473.36 1480.39 Q1475.21 1478.22 1475.21 1474.49 Q1475.21 1470.74 1473.36 1468.59 Q1471.53 1466.44 1468.38 1466.44 M1477.66 1451.78 L1477.66 1456.04 Q1475.9 1455.21 1474.1 1454.77 Q1472.32 1454.33 1470.56 1454.33 Q1465.93 1454.33 1463.47 1457.45 Q1461.04 1460.58 1460.7 1466.9 Q1462.06 1464.89 1464.12 1463.82 Q1466.18 1462.73 1468.66 1462.73 Q1473.87 1462.73 1476.88 1465.9 Q1479.91 1469.05 1479.91 1474.49 Q1479.91 1479.82 1476.76 1483.03 Q1473.61 1486.25 1468.38 1486.25 Q1462.39 1486.25 1459.22 1481.67 Q1456.04 1477.06 1456.04 1468.33 Q1456.04 1460.14 1459.93 1455.28 Q1463.82 1450.39 1470.37 1450.39 Q1472.13 1450.39 1473.91 1450.74 Q1475.72 1451.09 1477.66 1451.78 Z" fill="#000000" fill-rule="evenodd" fill-opacity="1" /><path clip-path="url(#clip650)" d="M1497.97 1454.1 Q1494.35 1454.1 1492.53 1457.66 Q1490.72 1461.2 1490.72 1468.33 Q1490.72 1475.44 1492.53 1479.01 Q1494.35 1482.55 1497.97 1482.55 Q1501.6 1482.55 1503.4 1479.01 Q1505.23 1475.44 1505.23 1468.33 Q1505.23 1461.2 1503.4 1457.66 Q1501.6 1454.1 1497.97 1454.1 M1497.97 1450.39 Q1503.78 1450.39 1506.83 1455 Q1509.91 1459.58 1509.91 1468.33 Q1509.91 1477.06 1506.83 1481.67 Q1503.78 1486.25 1497.97 1486.25 Q1492.15 1486.25 1489.08 1481.67 Q1486.02 1477.06 1486.02 1468.33 Q1486.02 1459.58 1489.08 1455 Q1492.15 1450.39 1497.97 1450.39 Z" fill="#000000" fill-rule="evenodd" fill-opacity="1" /><path clip-path="url(#clip650)" d="M1893.8 1469.17 Q1890.47 1469.17 1888.55 1470.95 Q1886.65 1472.73 1886.65 1475.86 Q1886.65 1478.98 1888.55 1480.77 Q1890.47 1482.55 1893.8 1482.55 Q1897.13 1482.55 1899.06 1480.77 Q1900.98 1478.96 1900.98 1475.86 Q1900.98 1472.73 1899.06 1470.95 Q1897.16 1469.17 1893.8 1469.17 M1889.13 1467.18 Q1886.12 1466.44 1884.43 1464.38 Q1882.76 1462.32 1882.76 1459.35 Q1882.76 1455.21 1885.7 1452.8 Q1888.66 1450.39 1893.8 1450.39 Q1898.96 1450.39 1901.9 1452.8 Q1904.84 1455.21 1904.84 1459.35 Q1904.84 1462.32 1903.15 1464.38 Q1901.49 1466.44 1898.5 1467.18 Q1901.88 1467.96 1903.75 1470.26 Q1905.65 1472.55 1905.65 1475.86 Q1905.65 1480.88 1902.57 1483.57 Q1899.52 1486.25 1893.8 1486.25 Q1888.08 1486.25 1885.01 1483.57 Q1881.95 1480.88 1881.95 1475.86 Q1881.95 1472.55 1883.85 1470.26 Q1885.75 1467.96 1889.13 1467.18 M1887.41 1459.79 Q1887.41 1462.48 1889.08 1463.98 Q1890.77 1465.49 1893.8 1465.49 Q1896.81 1465.49 1898.5 1463.98 Q1900.21 1462.48 1900.21 1459.79 Q1900.21 1457.11 1898.5 1455.6 Q1896.81 1454.1 1893.8 1454.1 Q1890.77 1454.1 1889.08 1455.6 Q1887.41 1457.11 1887.41 1459.79 Z" fill="#000000" fill-rule="evenodd" fill-opacity="1" /><path clip-path="url(#clip650)" d="M1923.96 1454.1 Q1920.35 1454.1 1918.52 1457.66 Q1916.72 1461.2 1916.72 1468.33 Q1916.72 1475.44 1918.52 1479.01 Q1920.35 1482.55 1923.96 1482.55 Q1927.6 1482.55 1929.4 1479.01 Q1931.23 1475.44 1931.23 1468.33 Q1931.23 1461.2 1929.4 1457.66 Q1927.6 1454.1 1923.96 1454.1 M1923.96 1450.39 Q1929.77 1450.39 1932.83 1455 Q1935.91 1459.58 1935.91 1468.33 Q1935.91 1477.06 1932.83 1481.67 Q1929.77 1486.25 1923.96 1486.25 Q1918.15 1486.25 1915.07 1481.67 Q1912.02 1477.06 1912.02 1468.33 Q1912.02 1459.58 1915.07 1455 Q1918.15 1450.39 1923.96 1450.39 Z" fill="#000000" fill-rule="evenodd" fill-opacity="1" /><path clip-path="url(#clip650)" d="M831.599 1520.52 L868.934 1520.52 L868.934 1525.43 L838.888 1562.63 L869.666 1562.63 L869.666 1568.04 L830.867 1568.04 L830.867 1563.14 L860.913 1525.93 L831.599 1525.93 L831.599 1520.52 Z" fill="#000000" fill-rule="evenodd" fill-opacity="1" /><path clip-path="url(#clip650)" d="M893.569 1571.35 Q891.087 1577.72 888.731 1579.66 Q886.376 1581.6 882.429 1581.6 L877.751 1581.6 L877.751 1576.7 L881.188 1576.7 Q883.607 1576.7 884.944 1575.56 Q886.281 1574.41 887.904 1570.14 L888.954 1567.47 L874.536 1532.4 L880.742 1532.4 L891.882 1560.28 L903.022 1532.4 L909.229 1532.4 L893.569 1571.35 Z" fill="#000000" fill-rule="evenodd" fill-opacity="1" /><path clip-path="url(#clip650)" d="M940.039 1533.45 L940.039 1538.98 Q937.556 1537.71 934.883 1537.07 Q932.209 1536.44 929.345 1536.44 Q924.984 1536.44 922.788 1537.77 Q920.624 1539.11 920.624 1541.79 Q920.624 1543.82 922.183 1545 Q923.743 1546.15 928.453 1547.2 L930.459 1547.64 Q936.697 1548.98 939.307 1551.43 Q941.949 1553.85 941.949 1558.21 Q941.949 1563.17 938.002 1566.07 Q934.087 1568.97 927.212 1568.97 Q924.348 1568.97 921.228 1568.39 Q918.141 1567.85 914.703 1566.74 L914.703 1560.69 Q917.95 1562.38 921.101 1563.24 Q924.252 1564.07 927.339 1564.07 Q931.477 1564.07 933.705 1562.66 Q935.933 1561.23 935.933 1558.65 Q935.933 1556.27 934.31 1554.99 Q932.718 1553.72 927.276 1552.54 L925.239 1552.07 Q919.796 1550.92 917.377 1548.56 Q914.958 1546.18 914.958 1542.04 Q914.958 1537.01 918.523 1534.27 Q922.088 1531.54 928.644 1531.54 Q931.891 1531.54 934.755 1532.01 Q937.62 1532.49 940.039 1533.45 Z" fill="#000000" fill-rule="evenodd" fill-opacity="1" /><path clip-path="url(#clip650)" d="M951.052 1518.52 L956.94 1518.52 L956.94 1547.77 L974.414 1532.4 L981.894 1532.4 L962.987 1549.07 L982.689 1568.04 L975.05 1568.04 L956.94 1550.63 L956.94 1568.04 L951.052 1568.04 L951.052 1518.52 Z" fill="#000000" fill-rule="evenodd" fill-opacity="1" /><path clip-path="url(#clip650)" d="M1027.79 1518.52 L1027.79 1523.39 L1022.19 1523.39 Q1019.04 1523.39 1017.8 1524.66 Q1016.59 1525.93 1016.59 1529.24 L1016.59 1532.4 L1026.23 1532.4 L1026.23 1536.95 L1016.59 1536.95 L1016.59 1568.04 L1010.7 1568.04 L1010.7 1536.95 L1005.1 1536.95 L1005.1 1532.4 L1010.7 1532.4 L1010.7 1529.91 Q1010.7 1523.96 1013.47 1521.26 Q1016.24 1518.52 1022.25 1518.52 L1027.79 1518.52 Z" fill="#000000" fill-rule="evenodd" fill-opacity="1" /><path clip-path="url(#clip650)" d="M1032.69 1532.4 L1038.55 1532.4 L1038.55 1568.04 L1032.69 1568.04 L1032.69 1532.4 M1032.69 1518.52 L1038.55 1518.52 L1038.55 1525.93 L1032.69 1525.93 L1032.69 1518.52 Z" fill="#000000" fill-rule="evenodd" fill-opacity="1" /><path clip-path="url(#clip650)" d="M1071.46 1537.87 Q1070.47 1537.3 1069.29 1537.04 Q1068.15 1536.76 1066.75 1536.76 Q1061.78 1536.76 1059.11 1540 Q1056.47 1543.22 1056.47 1549.27 L1056.47 1568.04 L1050.58 1568.04 L1050.58 1532.4 L1056.47 1532.4 L1056.47 1537.93 Q1058.31 1534.69 1061.27 1533.13 Q1064.23 1531.54 1068.47 1531.54 Q1069.07 1531.54 1069.8 1531.63 Q1070.54 1531.7 1071.43 1531.85 L1071.46 1537.87 Z" fill="#000000" fill-rule="evenodd" fill-opacity="1" /><path clip-path="url(#clip650)" d="M1104.21 1539.24 Q1106.41 1535.29 1109.46 1533.41 Q1112.52 1531.54 1116.66 1531.54 Q1122.23 1531.54 1125.25 1535.45 Q1128.27 1539.33 1128.27 1546.53 L1128.27 1568.04 L1122.38 1568.04 L1122.38 1546.72 Q1122.38 1541.59 1120.57 1539.11 Q1118.76 1536.63 1115.03 1536.63 Q1110.48 1536.63 1107.84 1539.65 Q1105.2 1542.68 1105.2 1547.9 L1105.2 1568.04 L1099.31 1568.04 L1099.31 1546.72 Q1099.31 1541.56 1097.49 1539.11 Q1095.68 1536.63 1091.89 1536.63 Q1087.41 1536.63 1084.76 1539.68 Q1082.12 1542.71 1082.12 1547.9 L1082.12 1568.04 L1076.23 1568.04 L1076.23 1532.4 L1082.12 1532.4 L1082.12 1537.93 Q1084.13 1534.66 1086.93 1533.1 Q1089.73 1531.54 1093.58 1531.54 Q1097.46 1531.54 1100.17 1533.51 Q1102.91 1535.48 1104.21 1539.24 Z" fill="#000000" fill-rule="evenodd" fill-opacity="1" /><path clip-path="url(#clip650)" d="M1154.79 1571.35 Q1152.3 1577.72 1149.95 1579.66 Q1147.59 1581.6 1143.65 1581.6 L1138.97 1581.6 L1138.97 1576.7 L1142.4 1576.7 Q1144.82 1576.7 1146.16 1575.56 Q1147.5 1574.41 1149.12 1570.14 L1150.17 1567.47 L1135.75 1532.4 L1141.96 1532.4 L1153.1 1560.28 L1164.24 1532.4 L1170.45 1532.4 L1154.79 1571.35 Z" fill="#000000" fill-rule="evenodd" fill-opacity="1" /><path clip-path="url(#clip650)" d="M1226.43 1539.37 L1217.17 1539.37 L1214.5 1550 L1223.82 1550 L1226.43 1539.37 M1221.66 1521.26 L1218.35 1534.46 L1227.64 1534.46 L1230.98 1521.26 L1236.08 1521.26 L1232.8 1534.46 L1242.73 1534.46 L1242.73 1539.37 L1231.56 1539.37 L1228.95 1550 L1239.07 1550 L1239.07 1554.87 L1227.71 1554.87 L1224.4 1568.04 L1219.3 1568.04 L1222.58 1554.87 L1213.26 1554.87 L1209.98 1568.04 L1204.85 1568.04 L1208.16 1554.87 L1198.14 1554.87 L1198.14 1550 L1209.34 1550 L1212.01 1539.37 L1201.77 1539.37 L1201.77 1534.46 L1213.26 1534.46 L1216.5 1521.26 L1221.66 1521.26 Z" fill="#000000" fill-rule="evenodd" fill-opacity="1" /><path clip-path="url(#clip650)" d="M1255.81 1562.63 L1266.31 1562.63 L1266.31 1526.38 L1254.89 1528.67 L1254.89 1522.82 L1266.25 1520.52 L1272.68 1520.52 L1272.68 1562.63 L1283.18 1562.63 L1283.18 1568.04 L1255.81 1568.04 L1255.81 1562.63 Z" fill="#000000" fill-rule="evenodd" fill-opacity="1" /><polyline clip-path="url(#clip652)" style="stroke:#000000; stroke-linecap:round; stroke-linejoin:round; stroke-width:2; stroke-opacity:0.1; fill:none" points="
  205.121,1423.18 1908.93,1423.18 
  "/>
<polyline clip-path="url(#clip652)" style="stroke:#000000; stroke-linecap:round; stroke-linejoin:round; stroke-width:2; stroke-opacity:0.1; fill:none" points="
  205.121,1079.2 1908.93,1079.2 
  "/>
<polyline clip-path="url(#clip652)" style="stroke:#000000; stroke-linecap:round; stroke-linejoin:round; stroke-width:2; stroke-opacity:0.1; fill:none" points="
  205.121,735.212 1908.93,735.212 
  "/>
<polyline clip-path="url(#clip652)" style="stroke:#000000; stroke-linecap:round; stroke-linejoin:round; stroke-width:2; stroke-opacity:0.1; fill:none" points="
  205.121,391.228 1908.93,391.228 
  "/>
<polyline clip-path="url(#clip652)" style="stroke:#000000; stroke-linecap:round; stroke-linejoin:round; stroke-width:2; stroke-opacity:0.1; fill:none" points="
  205.121,47.2441 1908.93,47.2441 
  "/>
<polyline clip-path="url(#clip650)" style="stroke:#000000; stroke-linecap:round; stroke-linejoin:round; stroke-width:4; stroke-opacity:1; fill:none" points="
  205.121,1423.18 205.121,47.2441 
  "/>
<polyline clip-path="url(#clip650)" style="stroke:#000000; stroke-linecap:round; stroke-linejoin:round; stroke-width:4; stroke-opacity:1; fill:none" points="
  205.121,1423.18 220.113,1423.18 
  "/>
<polyline clip-path="url(#clip650)" style="stroke:#000000; stroke-linecap:round; stroke-linejoin:round; stroke-width:4; stroke-opacity:1; fill:none" points="
  205.121,1079.2 220.113,1079.2 
  "/>
<polyline clip-path="url(#clip650)" style="stroke:#000000; stroke-linecap:round; stroke-linejoin:round; stroke-width:4; stroke-opacity:1; fill:none" points="
  205.121,735.212 220.113,735.212 
  "/>
<polyline clip-path="url(#clip650)" style="stroke:#000000; stroke-linecap:round; stroke-linejoin:round; stroke-width:4; stroke-opacity:1; fill:none" points="
  205.121,391.228 220.113,391.228 
  "/>
<polyline clip-path="url(#clip650)" style="stroke:#000000; stroke-linecap:round; stroke-linejoin:round; stroke-width:4; stroke-opacity:1; fill:none" points="
  205.121,47.2441 220.113,47.2441 
  "/>
<path clip-path="url(#clip650)" d="M157.177 1408.98 Q153.566 1408.98 151.737 1412.54 Q149.931 1416.08 149.931 1423.21 Q149.931 1430.32 151.737 1433.89 Q153.566 1437.43 157.177 1437.43 Q160.811 1437.43 162.616 1433.89 Q164.445 1430.32 164.445 1423.21 Q164.445 1416.08 162.616 1412.54 Q160.811 1408.98 157.177 1408.98 M157.177 1405.27 Q162.987 1405.27 166.042 1409.88 Q169.121 1414.46 169.121 1423.21 Q169.121 1431.94 166.042 1436.55 Q162.987 1441.13 157.177 1441.13 Q151.366 1441.13 148.288 1436.55 Q145.232 1431.94 145.232 1423.21 Q145.232 1414.46 148.288 1409.88 Q151.366 1405.27 157.177 1405.27 Z" fill="#000000" fill-rule="evenodd" fill-opacity="1" /><path clip-path="url(#clip650)" d="M121.043 1092.54 L137.362 1092.54 L137.362 1096.48 L115.418 1096.48 L115.418 1092.54 Q118.08 1089.79 122.663 1085.16 Q127.269 1080.5 128.45 1079.16 Q130.695 1076.64 131.575 1074.9 Q132.478 1073.14 132.478 1071.45 Q132.478 1068.7 130.533 1066.96 Q128.612 1065.23 125.51 1065.23 Q123.311 1065.23 120.857 1065.99 Q118.427 1066.75 115.649 1068.3 L115.649 1063.58 Q118.473 1062.45 120.927 1061.87 Q123.38 1061.29 125.418 1061.29 Q130.788 1061.29 133.982 1063.98 Q137.177 1066.66 137.177 1071.15 Q137.177 1073.28 136.367 1075.2 Q135.579 1077.1 133.473 1079.69 Q132.894 1080.36 129.792 1083.58 Q126.691 1086.78 121.043 1092.54 Z" fill="#000000" fill-rule="evenodd" fill-opacity="1" /><path clip-path="url(#clip650)" d="M157.177 1064.99 Q153.566 1064.99 151.737 1068.56 Q149.931 1072.1 149.931 1079.23 Q149.931 1086.34 151.737 1089.9 Q153.566 1093.44 157.177 1093.44 Q160.811 1093.44 162.616 1089.9 Q164.445 1086.34 164.445 1079.23 Q164.445 1072.1 162.616 1068.56 Q160.811 1064.99 157.177 1064.99 M157.177 1061.29 Q162.987 1061.29 166.042 1065.9 Q169.121 1070.48 169.121 1079.23 Q169.121 1087.96 166.042 1092.56 Q162.987 1097.15 157.177 1097.15 Q151.366 1097.15 148.288 1092.56 Q145.232 1087.96 145.232 1079.23 Q145.232 1070.48 148.288 1065.9 Q151.366 1061.29 157.177 1061.29 Z" fill="#000000" fill-rule="evenodd" fill-opacity="1" /><path clip-path="url(#clip650)" d="M129.862 722.006 L118.056 740.455 L129.862 740.455 L129.862 722.006 M128.635 717.932 L134.515 717.932 L134.515 740.455 L139.445 740.455 L139.445 744.344 L134.515 744.344 L134.515 752.492 L129.862 752.492 L129.862 744.344 L114.26 744.344 L114.26 739.83 L128.635 717.932 Z" fill="#000000" fill-rule="evenodd" fill-opacity="1" /><path clip-path="url(#clip650)" d="M157.177 721.011 Q153.566 721.011 151.737 724.575 Q149.931 728.117 149.931 735.247 Q149.931 742.353 151.737 745.918 Q153.566 749.46 157.177 749.46 Q160.811 749.46 162.616 745.918 Q164.445 742.353 164.445 735.247 Q164.445 728.117 162.616 724.575 Q160.811 721.011 157.177 721.011 M157.177 717.307 Q162.987 717.307 166.042 721.913 Q169.121 726.497 169.121 735.247 Q169.121 743.973 166.042 748.58 Q162.987 753.163 157.177 753.163 Q151.366 753.163 148.288 748.58 Q145.232 743.973 145.232 735.247 Q145.232 726.497 148.288 721.913 Q151.366 717.307 157.177 717.307 Z" fill="#000000" fill-rule="evenodd" fill-opacity="1" /><path clip-path="url(#clip650)" d="M127.593 389.365 Q124.445 389.365 122.593 391.517 Q120.765 393.67 120.765 397.42 Q120.765 401.147 122.593 403.323 Q124.445 405.476 127.593 405.476 Q130.742 405.476 132.57 403.323 Q134.422 401.147 134.422 397.42 Q134.422 393.67 132.57 391.517 Q130.742 389.365 127.593 389.365 M136.876 374.712 L136.876 378.971 Q135.117 378.138 133.311 377.698 Q131.529 377.258 129.769 377.258 Q125.14 377.258 122.686 380.383 Q120.255 383.508 119.908 389.828 Q121.274 387.814 123.334 386.749 Q125.394 385.661 127.871 385.661 Q133.08 385.661 136.089 388.832 Q139.121 391.98 139.121 397.42 Q139.121 402.744 135.973 405.962 Q132.825 409.179 127.593 409.179 Q121.598 409.179 118.427 404.596 Q115.256 399.99 115.256 391.263 Q115.256 383.068 119.144 378.207 Q123.033 373.323 129.584 373.323 Q131.343 373.323 133.126 373.67 Q134.931 374.017 136.876 374.712 Z" fill="#000000" fill-rule="evenodd" fill-opacity="1" /><path clip-path="url(#clip650)" d="M157.177 377.027 Q153.566 377.027 151.737 380.592 Q149.931 384.133 149.931 391.263 Q149.931 398.369 151.737 401.934 Q153.566 405.476 157.177 405.476 Q160.811 405.476 162.616 401.934 Q164.445 398.369 164.445 391.263 Q164.445 384.133 162.616 380.592 Q160.811 377.027 157.177 377.027 M157.177 373.323 Q162.987 373.323 166.042 377.929 Q169.121 382.513 169.121 391.263 Q169.121 399.99 166.042 404.596 Q162.987 409.179 157.177 409.179 Q151.366 409.179 148.288 404.596 Q145.232 399.99 145.232 391.263 Q145.232 382.513 148.288 377.929 Q151.366 373.323 157.177 373.323 Z" fill="#000000" fill-rule="evenodd" fill-opacity="1" /><path clip-path="url(#clip650)" d="M127.015 48.1121 Q123.681 48.1121 121.76 49.8945 Q119.862 51.6769 119.862 54.8019 Q119.862 57.9269 121.76 59.7093 Q123.681 61.4917 127.015 61.4917 Q130.348 61.4917 132.269 59.7093 Q134.191 57.9038 134.191 54.8019 Q134.191 51.6769 132.269 49.8945 Q130.371 48.1121 127.015 48.1121 M122.339 46.1214 Q119.33 45.3807 117.64 43.3205 Q115.973 41.2603 115.973 38.2974 Q115.973 34.1539 118.913 31.7465 Q121.876 29.3391 127.015 29.3391 Q132.177 29.3391 135.117 31.7465 Q138.056 34.1539 138.056 38.2974 Q138.056 41.2603 136.367 43.3205 Q134.7 45.3807 131.714 46.1214 Q135.093 46.9084 136.968 49.2001 Q138.867 51.4918 138.867 54.8019 Q138.867 59.825 135.788 62.5102 Q132.732 65.1954 127.015 65.1954 Q121.297 65.1954 118.218 62.5102 Q115.163 59.825 115.163 54.8019 Q115.163 51.4918 117.061 49.2001 Q118.959 46.9084 122.339 46.1214 M120.626 38.7372 Q120.626 41.4224 122.293 42.927 Q123.982 44.4316 127.015 44.4316 Q130.024 44.4316 131.714 42.927 Q133.427 41.4224 133.427 38.7372 Q133.427 36.052 131.714 34.5474 Q130.024 33.0428 127.015 33.0428 Q123.982 33.0428 122.293 34.5474 Q120.626 36.052 120.626 38.7372 Z" fill="#000000" fill-rule="evenodd" fill-opacity="1" /><path clip-path="url(#clip650)" d="M157.177 33.0428 Q153.566 33.0428 151.737 36.6076 Q149.931 40.1492 149.931 47.2788 Q149.931 54.3853 151.737 57.9501 Q153.566 61.4917 157.177 61.4917 Q160.811 61.4917 162.616 57.9501 Q164.445 54.3853 164.445 47.2788 Q164.445 40.1492 162.616 36.6076 Q160.811 33.0428 157.177 33.0428 M157.177 29.3391 Q162.987 29.3391 166.042 33.9456 Q169.121 38.5289 169.121 47.2788 Q169.121 56.0056 166.042 60.6121 Q162.987 65.1954 157.177 65.1954 Q151.366 65.1954 148.288 60.6121 Q145.232 56.0056 145.232 47.2788 Q145.232 38.5289 148.288 33.9456 Q151.366 29.3391 157.177 29.3391 Z" fill="#000000" fill-rule="evenodd" fill-opacity="1" /><path clip-path="url(#clip650)" d="M16.4842 960.383 L16.4842 923.048 L21.3858 923.048 L58.5933 953.094 L58.5933 922.316 L64.0042 922.316 L64.0042 961.115 L59.1026 961.115 L21.895 931.069 L21.895 960.383 L16.4842 960.383 Z" fill="#000000" fill-rule="evenodd" fill-opacity="1" /><path clip-path="url(#clip650)" d="M67.3143 898.413 Q73.68 900.895 75.6216 903.251 Q77.5631 905.606 77.5631 909.553 L77.5631 914.232 L72.6615 914.232 L72.6615 910.794 Q72.6615 908.375 71.5157 907.038 Q70.3699 905.702 66.1048 904.078 L63.4312 903.028 L28.3562 917.446 L28.3562 911.24 L56.238 900.1 L28.3562 888.96 L28.3562 882.753 L67.3143 898.413 Z" fill="#000000" fill-rule="evenodd" fill-opacity="1" /><path clip-path="url(#clip650)" d="M29.4065 851.943 L34.9447 851.943 Q33.6716 854.426 33.035 857.099 Q32.3984 859.773 32.3984 862.638 Q32.3984 866.998 33.7352 869.194 Q35.072 871.359 37.7456 871.359 Q39.7826 871.359 40.9603 869.799 Q42.1061 868.239 43.1565 863.529 L43.6021 861.524 Q44.9389 855.285 47.3897 852.675 Q49.8086 850.033 54.1691 850.033 Q59.1344 850.033 62.0308 853.98 Q64.9272 857.895 64.9272 864.77 Q64.9272 867.635 64.3543 870.754 Q63.8132 873.841 62.6992 877.279 L56.6518 877.279 Q58.3387 874.032 59.198 870.881 Q60.0256 867.73 60.0256 864.643 Q60.0256 860.505 58.6251 858.277 Q57.1929 856.049 54.6147 856.049 Q52.2276 856.049 50.9545 857.672 Q49.6813 859.264 48.5037 864.706 L48.0262 866.743 Q46.8804 872.186 44.5251 874.605 Q42.138 877.024 38.0002 877.024 Q32.9713 877.024 30.2341 873.459 Q27.4968 869.894 27.4968 863.338 Q27.4968 860.091 27.9743 857.227 Q28.4517 854.362 29.4065 851.943 Z" fill="#000000" fill-rule="evenodd" fill-opacity="1" /><path clip-path="url(#clip650)" d="M14.479 840.93 L14.479 835.042 L43.7294 835.042 L28.3562 817.568 L28.3562 810.089 L45.0344 828.995 L64.0042 809.293 L64.0042 816.932 L46.5939 835.042 L64.0042 835.042 L64.0042 840.93 L14.479 840.93 Z" fill="#000000" fill-rule="evenodd" fill-opacity="1" /><path clip-path="url(#clip650)" d="M14.479 764.192 L19.3487 764.192 L19.3487 769.794 Q19.3487 772.945 20.6219 774.186 Q21.895 775.395 25.2052 775.395 L28.3562 775.395 L28.3562 765.751 L32.9077 765.751 L32.9077 775.395 L64.0042 775.395 L64.0042 781.284 L32.9077 781.284 L32.9077 786.886 L28.3562 786.886 L28.3562 781.284 L25.8736 781.284 Q19.9216 781.284 17.2162 778.515 Q14.479 775.746 14.479 769.73 L14.479 764.192 Z" fill="#000000" fill-rule="evenodd" fill-opacity="1" /><path clip-path="url(#clip650)" d="M28.3562 759.29 L28.3562 753.434 L64.0042 753.434 L64.0042 759.29 L28.3562 759.29 M14.479 759.29 L14.479 753.434 L21.895 753.434 L21.895 759.29 L14.479 759.29 Z" fill="#000000" fill-rule="evenodd" fill-opacity="1" /><path clip-path="url(#clip650)" d="M33.8307 720.523 Q33.2578 721.51 33.0032 722.687 Q32.7167 723.833 32.7167 725.234 Q32.7167 730.199 35.9632 732.873 Q39.1779 735.514 45.2253 735.514 L64.0042 735.514 L64.0042 741.403 L28.3562 741.403 L28.3562 735.514 L33.8944 735.514 Q30.6479 733.668 29.0883 730.708 Q27.4968 727.748 27.4968 723.515 Q27.4968 722.91 27.5923 722.178 Q27.656 721.446 27.8151 720.555 L33.8307 720.523 Z" fill="#000000" fill-rule="evenodd" fill-opacity="1" /><path clip-path="url(#clip650)" d="M35.1993 687.772 Q31.2526 685.575 29.3747 682.52 Q27.4968 679.464 27.4968 675.327 Q27.4968 669.757 31.4117 666.733 Q35.2948 663.709 42.4881 663.709 L64.0042 663.709 L64.0042 669.597 L42.679 669.597 Q37.5546 669.597 35.072 671.412 Q32.5894 673.226 32.5894 676.95 Q32.5894 681.501 35.6131 684.143 Q38.6368 686.785 43.8567 686.785 L64.0042 686.785 L64.0042 692.673 L42.679 692.673 Q37.5228 692.673 35.072 694.487 Q32.5894 696.302 32.5894 700.089 Q32.5894 704.577 35.6449 707.219 Q38.6686 709.861 43.8567 709.861 L64.0042 709.861 L64.0042 715.749 L28.3562 715.749 L28.3562 709.861 L33.8944 709.861 Q30.616 707.855 29.0564 705.054 Q27.4968 702.254 27.4968 698.402 Q27.4968 694.519 29.4702 691.814 Q31.4436 689.077 35.1993 687.772 Z" fill="#000000" fill-rule="evenodd" fill-opacity="1" /><path clip-path="url(#clip650)" d="M67.3143 637.196 Q73.68 639.679 75.6216 642.034 Q77.5631 644.389 77.5631 648.336 L77.5631 653.015 L72.6615 653.015 L72.6615 649.577 Q72.6615 647.158 71.5157 645.822 Q70.3699 644.485 66.1048 642.861 L63.4312 641.811 L28.3562 656.229 L28.3562 650.023 L56.238 638.883 L28.3562 627.743 L28.3562 621.536 L67.3143 637.196 Z" fill="#000000" fill-rule="evenodd" fill-opacity="1" /><path clip-path="url(#clip650)" d="M35.3266 565.55 L35.3266 574.812 L45.9574 577.486 L45.9574 568.16 L35.3266 565.55 M17.2162 570.324 L30.4251 573.634 L30.4251 564.34 L17.2162 560.998 L17.2162 555.906 L30.4251 559.184 L30.4251 549.254 L35.3266 549.254 L35.3266 560.426 L45.9574 563.036 L45.9574 552.914 L50.8271 552.914 L50.8271 564.277 L64.0042 567.587 L64.0042 572.68 L50.8271 569.401 L50.8271 578.727 L64.0042 582.005 L64.0042 587.13 L50.8271 583.82 L50.8271 593.846 L45.9574 593.846 L45.9574 582.642 L35.3266 579.968 L35.3266 590.217 L30.4251 590.217 L30.4251 578.727 L17.2162 575.48 L17.2162 570.324 Z" fill="#000000" fill-rule="evenodd" fill-opacity="1" /><path clip-path="url(#clip650)" d="M58.5933 531.748 L58.5933 509.309 L64.0042 509.309 L64.0042 539.482 L58.5933 539.482 Q54.8057 535.822 48.44 529.52 Q42.0425 523.186 40.1964 521.563 Q36.7271 518.476 34.34 517.266 Q31.921 516.025 29.5975 516.025 Q25.8099 516.025 23.4228 518.698 Q21.0356 521.34 21.0356 525.605 Q21.0356 528.629 22.086 532.003 Q23.1363 535.345 25.2688 539.164 L18.7758 539.164 Q17.2162 535.281 16.4205 531.907 Q15.6248 528.533 15.6248 525.732 Q15.6248 518.348 19.3169 513.956 Q23.009 509.564 29.1837 509.564 Q32.112 509.564 34.7537 510.678 Q37.3637 511.76 40.9285 514.656 Q41.8515 515.452 46.2757 519.717 Q50.668 523.982 58.5933 531.748 Z" fill="#000000" fill-rule="evenodd" fill-opacity="1" /><polyline clip-path="url(#clip652)" style="stroke:#009af9; stroke-linecap:round; stroke-linejoin:round; stroke-width:4; stroke-opacity:1; fill:none" points="
  952.473,819.644 1365.7,677.254 1751.91,174.05 1128.79,485.937 952.473,819.644 
  "/>
<circle clip-path="url(#clip652)" cx="952.473" cy="819.644" r="14.4" fill="#009af9" fill-rule="evenodd" fill-opacity="1" stroke="#000000" stroke-opacity="1" stroke-width="3.2"/>
<circle clip-path="url(#clip652)" cx="1365.7" cy="677.254" r="14.4" fill="#009af9" fill-rule="evenodd" fill-opacity="1" stroke="#000000" stroke-opacity="1" stroke-width="3.2"/>
<circle clip-path="url(#clip652)" cx="1751.91" cy="174.05" r="14.4" fill="#009af9" fill-rule="evenodd" fill-opacity="1" stroke="#000000" stroke-opacity="1" stroke-width="3.2"/>
<circle clip-path="url(#clip652)" cx="1128.79" cy="485.937" r="14.4" fill="#009af9" fill-rule="evenodd" fill-opacity="1" stroke="#000000" stroke-opacity="1" stroke-width="3.2"/>
<circle clip-path="url(#clip652)" cx="952.473" cy="819.644" r="14.4" fill="#009af9" fill-rule="evenodd" fill-opacity="1" stroke="#000000" stroke-opacity="1" stroke-width="3.2"/>
<polyline clip-path="url(#clip652)" style="stroke:#e26f46; stroke-linecap:round; stroke-linejoin:round; stroke-width:4; stroke-opacity:1; fill:none" points="
  952.473,819.644 1046.24,677.254 1432.44,432.038 1128.79,743.925 952.473,819.644 
  "/>
<circle clip-path="url(#clip652)" cx="952.473" cy="819.644" r="14.4" fill="#e26f46" fill-rule="evenodd" fill-opacity="1" stroke="#000000" stroke-opacity="1" stroke-width="3.2"/>
<circle clip-path="url(#clip652)" cx="1046.24" cy="677.254" r="14.4" fill="#e26f46" fill-rule="evenodd" fill-opacity="1" stroke="#000000" stroke-opacity="1" stroke-width="3.2"/>
<circle clip-path="url(#clip652)" cx="1432.44" cy="432.038" r="14.4" fill="#e26f46" fill-rule="evenodd" fill-opacity="1" stroke="#000000" stroke-opacity="1" stroke-width="3.2"/>
<circle clip-path="url(#clip652)" cx="1128.79" cy="743.925" r="14.4" fill="#e26f46" fill-rule="evenodd" fill-opacity="1" stroke="#000000" stroke-opacity="1" stroke-width="3.2"/>
<circle clip-path="url(#clip652)" cx="952.473" cy="819.644" r="14.4" fill="#e26f46" fill-rule="evenodd" fill-opacity="1" stroke="#000000" stroke-opacity="1" stroke-width="3.2"/>
<polyline clip-path="url(#clip652)" style="stroke:#3da44d; stroke-linecap:round; stroke-linejoin:round; stroke-width:4; stroke-opacity:1; fill:none" points="
  952.473,819.644 726.772,677.254 1112.98,690.026 1128.79,1001.91 952.473,819.644 
  "/>
<circle clip-path="url(#clip652)" cx="952.473" cy="819.644" r="14.4" fill="#3da44d" fill-rule="evenodd" fill-opacity="1" stroke="#000000" stroke-opacity="1" stroke-width="3.2"/>
<circle clip-path="url(#clip652)" cx="726.772" cy="677.254" r="14.4" fill="#3da44d" fill-rule="evenodd" fill-opacity="1" stroke="#000000" stroke-opacity="1" stroke-width="3.2"/>
<circle clip-path="url(#clip652)" cx="1112.98" cy="690.026" r="14.4" fill="#3da44d" fill-rule="evenodd" fill-opacity="1" stroke="#000000" stroke-opacity="1" stroke-width="3.2"/>
<circle clip-path="url(#clip652)" cx="1128.79" cy="1001.91" r="14.4" fill="#3da44d" fill-rule="evenodd" fill-opacity="1" stroke="#000000" stroke-opacity="1" stroke-width="3.2"/>
<circle clip-path="url(#clip652)" cx="952.473" cy="819.644" r="14.4" fill="#3da44d" fill-rule="evenodd" fill-opacity="1" stroke="#000000" stroke-opacity="1" stroke-width="3.2"/>
<polyline clip-path="url(#clip652)" style="stroke:#c271d2; stroke-linecap:round; stroke-linejoin:round; stroke-width:4; stroke-opacity:1; fill:none" points="
  952.473,819.644 407.308,677.254 793.515,948.014 1128.79,1259.9 952.473,819.644 
  "/>
<circle clip-path="url(#clip652)" cx="952.473" cy="819.644" r="14.4" fill="#c271d2" fill-rule="evenodd" fill-opacity="1" stroke="#000000" stroke-opacity="1" stroke-width="3.2"/>
<circle clip-path="url(#clip652)" cx="407.308" cy="677.254" r="14.4" fill="#c271d2" fill-rule="evenodd" fill-opacity="1" stroke="#000000" stroke-opacity="1" stroke-width="3.2"/>
<circle clip-path="url(#clip652)" cx="793.515" cy="948.014" r="14.4" fill="#c271d2" fill-rule="evenodd" fill-opacity="1" stroke="#000000" stroke-opacity="1" stroke-width="3.2"/>
<circle clip-path="url(#clip652)" cx="1128.79" cy="1259.9" r="14.4" fill="#c271d2" fill-rule="evenodd" fill-opacity="1" stroke="#000000" stroke-opacity="1" stroke-width="3.2"/>
<circle clip-path="url(#clip652)" cx="952.473" cy="819.644" r="14.4" fill="#c271d2" fill-rule="evenodd" fill-opacity="1" stroke="#000000" stroke-opacity="1" stroke-width="3.2"/>
<path clip-path="url(#clip650)" d="
M1980.52 884.756 L2352.76 884.756 L2352.76 625.556 L1980.52 625.556  Z
  " fill="#ffffff" fill-rule="evenodd" fill-opacity="1"/>
<polyline clip-path="url(#clip650)" style="stroke:#000000; stroke-linecap:round; stroke-linejoin:round; stroke-width:4; stroke-opacity:1; fill:none" points="
  1980.52,884.756 2352.76,884.756 2352.76,625.556 1980.52,625.556 1980.52,884.756 
  "/>
<polyline clip-path="url(#clip650)" style="stroke:#009af9; stroke-linecap:round; stroke-linejoin:round; stroke-width:4; stroke-opacity:1; fill:none" points="
  2004.38,677.396 2147.55,677.396 
  "/>
<circle clip-path="url(#clip650)" cx="2075.97" cy="677.396" r="19.8855" fill="#009af9" fill-rule="evenodd" fill-opacity="1" stroke="#000000" stroke-opacity="1" stroke-width="5.12"/>
<path clip-path="url(#clip650)" d="M2199.29 662.779 L2199.29 667.709 Q2196.93 665.51 2194.24 664.422 Q2191.58 663.334 2188.57 663.334 Q2182.64 663.334 2179.5 666.968 Q2176.35 670.579 2176.35 677.431 Q2176.35 684.26 2179.5 687.894 Q2182.64 691.505 2188.57 691.505 Q2191.58 691.505 2194.24 690.417 Q2196.93 689.329 2199.29 687.13 L2199.29 692.014 Q2196.83 693.681 2194.08 694.514 Q2191.35 695.348 2188.29 695.348 Q2180.45 695.348 2175.93 690.556 Q2171.42 685.741 2171.42 677.431 Q2171.42 669.098 2175.93 664.306 Q2180.45 659.491 2188.29 659.491 Q2191.39 659.491 2194.13 660.325 Q2196.88 661.135 2199.29 662.779 Z" fill="#000000" fill-rule="evenodd" fill-opacity="1" /><path clip-path="url(#clip650)" d="M2221.95 673.149 L2251.63 673.149 L2251.63 677.038 L2221.95 677.038 L2221.95 673.149 M2221.95 682.593 L2251.63 682.593 L2251.63 686.528 L2221.95 686.528 L2221.95 682.593 Z" fill="#000000" fill-rule="evenodd" fill-opacity="1" /><path clip-path="url(#clip650)" d="M2286.79 663.195 Q2283.18 663.195 2281.35 666.76 Q2279.54 670.302 2279.54 677.431 Q2279.54 684.538 2281.35 688.102 Q2283.18 691.644 2286.79 691.644 Q2290.42 691.644 2292.23 688.102 Q2294.06 684.538 2294.06 677.431 Q2294.06 670.302 2292.23 666.76 Q2290.42 663.195 2286.79 663.195 M2286.79 659.491 Q2292.6 659.491 2295.65 664.098 Q2298.73 668.681 2298.73 677.431 Q2298.73 686.158 2295.65 690.764 Q2292.6 695.348 2286.79 695.348 Q2280.98 695.348 2277.9 690.764 Q2274.84 686.158 2274.84 677.431 Q2274.84 668.681 2277.9 664.098 Q2280.98 659.491 2286.79 659.491 Z" fill="#000000" fill-rule="evenodd" fill-opacity="1" /><polyline clip-path="url(#clip650)" style="stroke:#e26f46; stroke-linecap:round; stroke-linejoin:round; stroke-width:4; stroke-opacity:1; fill:none" points="
  2004.38,729.236 2147.55,729.236 
  "/>
<circle clip-path="url(#clip650)" cx="2075.97" cy="729.236" r="19.8855" fill="#e26f46" fill-rule="evenodd" fill-opacity="1" stroke="#000000" stroke-opacity="1" stroke-width="5.12"/>
<path clip-path="url(#clip650)" d="M2199.29 714.619 L2199.29 719.549 Q2196.93 717.35 2194.24 716.262 Q2191.58 715.174 2188.57 715.174 Q2182.64 715.174 2179.5 718.808 Q2176.35 722.419 2176.35 729.271 Q2176.35 736.1 2179.5 739.734 Q2182.64 743.345 2188.57 743.345 Q2191.58 743.345 2194.24 742.257 Q2196.93 741.169 2199.29 738.97 L2199.29 743.854 Q2196.83 745.521 2194.08 746.354 Q2191.35 747.188 2188.29 747.188 Q2180.45 747.188 2175.93 742.396 Q2171.42 737.581 2171.42 729.271 Q2171.42 720.938 2175.93 716.146 Q2180.45 711.331 2188.29 711.331 Q2191.39 711.331 2194.13 712.165 Q2196.88 712.975 2199.29 714.619 Z" fill="#000000" fill-rule="evenodd" fill-opacity="1" /><path clip-path="url(#clip650)" d="M2221.95 724.989 L2251.63 724.989 L2251.63 728.878 L2221.95 728.878 L2221.95 724.989 M2221.95 734.433 L2251.63 734.433 L2251.63 738.368 L2221.95 738.368 L2221.95 734.433 Z" fill="#000000" fill-rule="evenodd" fill-opacity="1" /><path clip-path="url(#clip650)" d="M2277.6 742.581 L2285.24 742.581 L2285.24 716.216 L2276.93 717.882 L2276.93 713.623 L2285.19 711.956 L2289.87 711.956 L2289.87 742.581 L2297.5 742.581 L2297.5 746.516 L2277.6 746.516 L2277.6 742.581 Z" fill="#000000" fill-rule="evenodd" fill-opacity="1" /><path clip-path="url(#clip650)" d="M2307 711.956 L2325.35 711.956 L2325.35 715.892 L2311.28 715.892 L2311.28 724.364 Q2312.3 724.017 2313.31 723.855 Q2314.33 723.669 2315.35 723.669 Q2321.14 723.669 2324.52 726.841 Q2327.9 730.012 2327.9 735.429 Q2327.9 741.007 2324.43 744.109 Q2320.95 747.188 2314.63 747.188 Q2312.46 747.188 2310.19 746.817 Q2307.94 746.447 2305.54 745.706 L2305.54 741.007 Q2307.62 742.142 2309.84 742.697 Q2312.06 743.253 2314.54 743.253 Q2318.55 743.253 2320.88 741.146 Q2323.22 739.04 2323.22 735.429 Q2323.22 731.817 2320.88 729.711 Q2318.55 727.605 2314.54 727.605 Q2312.67 727.605 2310.79 728.021 Q2308.94 728.438 2307 729.318 L2307 711.956 Z" fill="#000000" fill-rule="evenodd" fill-opacity="1" /><polyline clip-path="url(#clip650)" style="stroke:#3da44d; stroke-linecap:round; stroke-linejoin:round; stroke-width:4; stroke-opacity:1; fill:none" points="
  2004.38,781.076 2147.55,781.076 
  "/>
<circle clip-path="url(#clip650)" cx="2075.97" cy="781.076" r="19.8855" fill="#3da44d" fill-rule="evenodd" fill-opacity="1" stroke="#000000" stroke-opacity="1" stroke-width="5.12"/>
<path clip-path="url(#clip650)" d="M2199.29 766.459 L2199.29 771.389 Q2196.93 769.19 2194.24 768.102 Q2191.58 767.014 2188.57 767.014 Q2182.64 767.014 2179.5 770.648 Q2176.35 774.259 2176.35 781.111 Q2176.35 787.94 2179.5 791.574 Q2182.64 795.185 2188.57 795.185 Q2191.58 795.185 2194.24 794.097 Q2196.93 793.009 2199.29 790.81 L2199.29 795.694 Q2196.83 797.361 2194.08 798.194 Q2191.35 799.028 2188.29 799.028 Q2180.45 799.028 2175.93 794.236 Q2171.42 789.421 2171.42 781.111 Q2171.42 772.778 2175.93 767.986 Q2180.45 763.171 2188.29 763.171 Q2191.39 763.171 2194.13 764.005 Q2196.88 764.815 2199.29 766.459 Z" fill="#000000" fill-rule="evenodd" fill-opacity="1" /><path clip-path="url(#clip650)" d="M2221.95 776.829 L2251.63 776.829 L2251.63 780.718 L2221.95 780.718 L2221.95 776.829 M2221.95 786.273 L2251.63 786.273 L2251.63 790.208 L2221.95 790.208 L2221.95 786.273 Z" fill="#000000" fill-rule="evenodd" fill-opacity="1" /><path clip-path="url(#clip650)" d="M2290.95 779.722 Q2294.31 780.44 2296.19 782.708 Q2298.08 784.977 2298.08 788.31 Q2298.08 793.426 2294.56 796.227 Q2291.05 799.028 2284.56 799.028 Q2282.39 799.028 2280.07 798.588 Q2277.78 798.171 2275.33 797.315 L2275.33 792.801 Q2277.27 793.935 2279.59 794.514 Q2281.9 795.093 2284.43 795.093 Q2288.82 795.093 2291.12 793.357 Q2293.43 791.62 2293.43 788.31 Q2293.43 785.255 2291.28 783.542 Q2289.15 781.806 2285.33 781.806 L2281.3 781.806 L2281.3 777.963 L2285.51 777.963 Q2288.96 777.963 2290.79 776.597 Q2292.62 775.208 2292.62 772.616 Q2292.62 769.954 2290.72 768.542 Q2288.85 767.107 2285.33 767.107 Q2283.41 767.107 2281.21 767.523 Q2279.01 767.94 2276.37 768.82 L2276.37 764.653 Q2279.03 763.912 2281.35 763.542 Q2283.69 763.171 2285.75 763.171 Q2291.07 763.171 2294.17 765.602 Q2297.27 768.009 2297.27 772.13 Q2297.27 775 2295.63 776.991 Q2293.99 778.958 2290.95 779.722 Z" fill="#000000" fill-rule="evenodd" fill-opacity="1" /><path clip-path="url(#clip650)" d="M2316.95 766.875 Q2313.34 766.875 2311.51 770.44 Q2309.7 773.982 2309.7 781.111 Q2309.7 788.218 2311.51 791.782 Q2313.34 795.324 2316.95 795.324 Q2320.58 795.324 2322.39 791.782 Q2324.22 788.218 2324.22 781.111 Q2324.22 773.982 2322.39 770.44 Q2320.58 766.875 2316.95 766.875 M2316.95 763.171 Q2322.76 763.171 2325.81 767.778 Q2328.89 772.361 2328.89 781.111 Q2328.89 789.838 2325.81 794.444 Q2322.76 799.028 2316.95 799.028 Q2311.14 799.028 2308.06 794.444 Q2305 789.838 2305 781.111 Q2305 772.361 2308.06 767.778 Q2311.14 763.171 2316.95 763.171 Z" fill="#000000" fill-rule="evenodd" fill-opacity="1" /><polyline clip-path="url(#clip650)" style="stroke:#c271d2; stroke-linecap:round; stroke-linejoin:round; stroke-width:4; stroke-opacity:1; fill:none" points="
  2004.38,832.916 2147.55,832.916 
  "/>
<circle clip-path="url(#clip650)" cx="2075.97" cy="832.916" r="19.8855" fill="#c271d2" fill-rule="evenodd" fill-opacity="1" stroke="#000000" stroke-opacity="1" stroke-width="5.12"/>
<path clip-path="url(#clip650)" d="M2199.29 818.299 L2199.29 823.229 Q2196.93 821.03 2194.24 819.942 Q2191.58 818.854 2188.57 818.854 Q2182.64 818.854 2179.5 822.488 Q2176.35 826.099 2176.35 832.951 Q2176.35 839.78 2179.5 843.414 Q2182.64 847.025 2188.57 847.025 Q2191.58 847.025 2194.24 845.937 Q2196.93 844.849 2199.29 842.65 L2199.29 847.534 Q2196.83 849.201 2194.08 850.034 Q2191.35 850.868 2188.29 850.868 Q2180.45 850.868 2175.93 846.076 Q2171.42 841.261 2171.42 832.951 Q2171.42 824.618 2175.93 819.826 Q2180.45 815.011 2188.29 815.011 Q2191.39 815.011 2194.13 815.845 Q2196.88 816.655 2199.29 818.299 Z" fill="#000000" fill-rule="evenodd" fill-opacity="1" /><path clip-path="url(#clip650)" d="M2221.95 828.669 L2251.63 828.669 L2251.63 832.558 L2221.95 832.558 L2221.95 828.669 M2221.95 838.113 L2251.63 838.113 L2251.63 842.048 L2221.95 842.048 L2221.95 838.113 Z" fill="#000000" fill-rule="evenodd" fill-opacity="1" /><path clip-path="url(#clip650)" d="M2289.63 819.711 L2277.83 838.16 L2289.63 838.16 L2289.63 819.711 M2288.41 815.636 L2294.29 815.636 L2294.29 838.16 L2299.22 838.16 L2299.22 842.048 L2294.29 842.048 L2294.29 850.196 L2289.63 850.196 L2289.63 842.048 L2274.03 842.048 L2274.03 837.535 L2288.41 815.636 Z" fill="#000000" fill-rule="evenodd" fill-opacity="1" /><path clip-path="url(#clip650)" d="M2307 815.636 L2325.35 815.636 L2325.35 819.572 L2311.28 819.572 L2311.28 828.044 Q2312.3 827.697 2313.31 827.535 Q2314.33 827.349 2315.35 827.349 Q2321.14 827.349 2324.52 830.521 Q2327.9 833.692 2327.9 839.109 Q2327.9 844.687 2324.43 847.789 Q2320.95 850.868 2314.63 850.868 Q2312.46 850.868 2310.19 850.497 Q2307.94 850.127 2305.54 849.386 L2305.54 844.687 Q2307.62 845.822 2309.84 846.377 Q2312.06 846.933 2314.54 846.933 Q2318.55 846.933 2320.88 844.826 Q2323.22 842.72 2323.22 839.109 Q2323.22 835.497 2320.88 833.391 Q2318.55 831.285 2314.54 831.285 Q2312.67 831.285 2310.79 831.701 Q2308.94 832.118 2307 832.998 L2307 815.636 Z" fill="#000000" fill-rule="evenodd" fill-opacity="1" /><path clip-path="url(#clip650)" d="M863.084 835.351 Q859.982 840.675 858.478 845.883 Q856.973 851.091 856.973 856.439 Q856.973 861.786 858.478 867.04 Q860.005 872.272 863.084 877.573 L859.38 877.573 Q855.908 872.133 854.172 866.878 Q852.459 861.624 852.459 856.439 Q852.459 851.277 854.172 846.045 Q855.885 840.814 859.38 835.351 L863.084 835.351 Z" fill="#0000ff" fill-rule="evenodd" fill-opacity="1" /><path clip-path="url(#clip650)" d="M871.533 836.763 L877.829 836.763 L893.153 865.675 L893.153 836.763 L897.69 836.763 L897.69 871.323 L891.394 871.323 L876.07 842.411 L876.07 871.323 L871.533 871.323 L871.533 836.763 Z" fill="#0000ff" fill-rule="evenodd" fill-opacity="1" /><path clip-path="url(#clip650)" d="M907.899 865.443 L912.783 865.443 L912.783 869.425 L908.987 876.832 L906.001 876.832 L907.899 869.425 L907.899 865.443 Z" fill="#0000ff" fill-rule="evenodd" fill-opacity="1" /><path clip-path="url(#clip650)" d="M922.065 836.763 L928.362 836.763 L943.686 865.675 L943.686 836.763 L948.223 836.763 L948.223 871.323 L941.926 871.323 L926.602 842.411 L926.602 871.323 L922.065 871.323 L922.065 836.763 Z" fill="#0000ff" fill-rule="evenodd" fill-opacity="1" /><path clip-path="url(#clip650)" d="M956.672 835.351 L960.375 835.351 Q963.847 840.814 965.56 846.045 Q967.297 851.277 967.297 856.439 Q967.297 861.624 965.56 866.878 Q963.847 872.133 960.375 877.573 L956.672 877.573 Q959.75 872.272 961.255 867.04 Q962.783 861.786 962.783 856.439 Q962.783 851.091 961.255 845.883 Q959.75 840.675 956.672 835.351 Z" fill="#0000ff" fill-rule="evenodd" fill-opacity="1" /><path clip-path="url(#clip650)" d="M1362.76 624.163 Q1359.66 629.487 1358.16 634.696 Q1356.65 639.904 1356.65 645.251 Q1356.65 650.598 1358.16 655.853 Q1359.68 661.084 1362.76 666.385 L1359.06 666.385 Q1355.59 660.945 1353.85 655.691 Q1352.14 650.436 1352.14 645.251 Q1352.14 640.089 1353.85 634.858 Q1355.56 629.626 1359.06 624.163 L1362.76 624.163 Z" fill="#0000ff" fill-rule="evenodd" fill-opacity="1" /><path clip-path="url(#clip650)" d="M1387.6 643.932 Q1389.11 644.441 1390.52 646.107 Q1391.95 647.774 1393.39 650.691 L1398.13 660.135 L1393.11 660.135 L1388.69 651.269 Q1386.98 647.797 1385.36 646.663 Q1383.76 645.529 1380.98 645.529 L1375.89 645.529 L1375.89 660.135 L1371.21 660.135 L1371.21 625.575 L1381.77 625.575 Q1387.69 625.575 1390.61 628.052 Q1393.53 630.529 1393.53 635.529 Q1393.53 638.793 1392 640.945 Q1390.49 643.098 1387.6 643.932 M1375.89 629.418 L1375.89 641.686 L1381.77 641.686 Q1385.15 641.686 1386.86 640.135 Q1388.6 638.561 1388.6 635.529 Q1388.6 632.496 1386.86 630.969 Q1385.15 629.418 1381.77 629.418 L1375.89 629.418 Z" fill="#0000ff" fill-rule="evenodd" fill-opacity="1" /><path clip-path="url(#clip650)" d="M1405.05 654.256 L1409.94 654.256 L1409.94 658.237 L1406.14 665.644 L1403.16 665.644 L1405.05 658.237 L1405.05 654.256 Z" fill="#0000ff" fill-rule="evenodd" fill-opacity="1" /><path clip-path="url(#clip650)" d="M1419.22 625.575 L1425.52 625.575 L1440.84 654.487 L1440.84 625.575 L1445.38 625.575 L1445.38 660.135 L1439.08 660.135 L1423.76 631.223 L1423.76 660.135 L1419.22 660.135 L1419.22 625.575 Z" fill="#0000ff" fill-rule="evenodd" fill-opacity="1" /><path clip-path="url(#clip650)" d="M1453.83 624.163 L1457.53 624.163 Q1461 629.626 1462.72 634.858 Q1464.45 640.089 1464.45 645.251 Q1464.45 650.436 1462.72 655.691 Q1461 660.945 1457.53 666.385 L1453.83 666.385 Q1456.91 661.084 1458.41 655.853 Q1459.94 650.598 1459.94 645.251 Q1459.94 639.904 1458.41 634.696 Q1456.91 629.487 1453.83 624.163 Z" fill="#0000ff" fill-rule="evenodd" fill-opacity="1" /><path clip-path="url(#clip650)" d="M1750.23 120.959 Q1747.13 126.283 1745.62 131.492 Q1744.12 136.7 1744.12 142.047 Q1744.12 147.394 1745.62 152.649 Q1747.15 157.88 1750.23 163.181 L1746.53 163.181 Q1743.06 157.742 1741.32 152.487 Q1739.61 147.232 1739.61 142.047 Q1739.61 136.885 1741.32 131.654 Q1743.03 126.422 1746.53 120.959 L1750.23 120.959 Z" fill="#0000ff" fill-rule="evenodd" fill-opacity="1" /><path clip-path="url(#clip650)" d="M1775.07 140.728 Q1776.57 141.237 1777.99 142.904 Q1779.42 144.57 1780.86 147.487 L1785.6 156.931 L1780.58 156.931 L1776.16 148.066 Q1774.44 144.593 1772.82 143.459 Q1771.23 142.325 1768.45 142.325 L1763.36 142.325 L1763.36 156.931 L1758.68 156.931 L1758.68 122.371 L1769.24 122.371 Q1775.16 122.371 1778.08 124.848 Q1780.99 127.325 1780.99 132.325 Q1780.99 135.589 1779.47 137.742 Q1777.96 139.894 1775.07 140.728 M1763.36 126.214 L1763.36 138.482 L1769.24 138.482 Q1772.62 138.482 1774.33 136.931 Q1776.06 135.357 1776.06 132.325 Q1776.06 129.293 1774.33 127.765 Q1772.62 126.214 1769.24 126.214 L1763.36 126.214 Z" fill="#0000ff" fill-rule="evenodd" fill-opacity="1" /><path clip-path="url(#clip650)" d="M1792.52 151.052 L1797.41 151.052 L1797.41 155.033 L1793.61 162.441 L1790.62 162.441 L1792.52 155.033 L1792.52 151.052 Z" fill="#0000ff" fill-rule="evenodd" fill-opacity="1" /><path clip-path="url(#clip650)" d="M1823.08 140.728 Q1824.58 141.237 1825.99 142.904 Q1827.43 144.57 1828.86 147.487 L1833.61 156.931 L1828.59 156.931 L1824.17 148.066 Q1822.45 144.593 1820.83 143.459 Q1819.24 142.325 1816.46 142.325 L1811.36 142.325 L1811.36 156.931 L1806.69 156.931 L1806.69 122.371 L1817.24 122.371 Q1823.17 122.371 1826.09 124.848 Q1829 127.325 1829 132.325 Q1829 135.589 1827.48 137.742 Q1825.97 139.894 1823.08 140.728 M1811.36 126.214 L1811.36 138.482 L1817.24 138.482 Q1820.62 138.482 1822.34 136.931 Q1824.07 135.357 1824.07 132.325 Q1824.07 129.293 1822.34 127.765 Q1820.62 126.214 1817.24 126.214 L1811.36 126.214 Z" fill="#0000ff" fill-rule="evenodd" fill-opacity="1" /><path clip-path="url(#clip650)" d="M1838.77 120.959 L1842.48 120.959 Q1845.95 126.422 1847.66 131.654 Q1849.4 136.885 1849.4 142.047 Q1849.4 147.232 1847.66 152.487 Q1845.95 157.742 1842.48 163.181 L1838.77 163.181 Q1841.85 157.88 1843.36 152.649 Q1844.88 147.394 1844.88 142.047 Q1844.88 136.7 1843.36 131.492 Q1841.85 126.283 1838.77 120.959 Z" fill="#0000ff" fill-rule="evenodd" fill-opacity="1" /><path clip-path="url(#clip650)" d="M1040.67 432.846 Q1037.56 438.17 1036.06 443.379 Q1034.56 448.587 1034.56 453.934 Q1034.56 459.281 1036.06 464.536 Q1037.59 469.767 1040.67 475.068 L1036.96 475.068 Q1033.49 469.628 1031.75 464.374 Q1030.04 459.119 1030.04 453.934 Q1030.04 448.772 1031.75 443.541 Q1033.47 438.309 1036.96 432.846 L1040.67 432.846 Z" fill="#0000ff" fill-rule="evenodd" fill-opacity="1" /><path clip-path="url(#clip650)" d="M1049.12 434.258 L1055.41 434.258 L1070.74 463.17 L1070.74 434.258 L1075.27 434.258 L1075.27 468.818 L1068.98 468.818 L1053.65 439.906 L1053.65 468.818 L1049.12 468.818 L1049.12 434.258 Z" fill="#0000ff" fill-rule="evenodd" fill-opacity="1" /><path clip-path="url(#clip650)" d="M1085.48 462.939 L1090.37 462.939 L1090.37 466.92 L1086.57 474.327 L1083.58 474.327 L1085.48 466.92 L1085.48 462.939 Z" fill="#0000ff" fill-rule="evenodd" fill-opacity="1" /><path clip-path="url(#clip650)" d="M1116.04 452.615 Q1117.54 453.124 1118.95 454.791 Q1120.39 456.457 1121.82 459.374 L1126.57 468.818 L1121.55 468.818 L1117.12 459.953 Q1115.41 456.48 1113.79 455.346 Q1112.19 454.212 1109.42 454.212 L1104.32 454.212 L1104.32 468.818 L1099.65 468.818 L1099.65 434.258 L1110.2 434.258 Q1116.13 434.258 1119.05 436.735 Q1121.96 439.212 1121.96 444.212 Q1121.96 447.476 1120.43 449.629 Q1118.93 451.781 1116.04 452.615 M1104.32 438.101 L1104.32 450.369 L1110.2 450.369 Q1113.58 450.369 1115.3 448.818 Q1117.03 447.244 1117.03 444.212 Q1117.03 441.179 1115.3 439.652 Q1113.58 438.101 1110.2 438.101 L1104.32 438.101 Z" fill="#0000ff" fill-rule="evenodd" fill-opacity="1" /><path clip-path="url(#clip650)" d="M1131.73 432.846 L1135.43 432.846 Q1138.91 438.309 1140.62 443.541 Q1142.36 448.772 1142.36 453.934 Q1142.36 459.119 1140.62 464.374 Q1138.91 469.628 1135.43 475.068 L1131.73 475.068 Q1134.81 469.767 1136.31 464.536 Q1137.84 459.281 1137.84 453.934 Q1137.84 448.587 1136.31 443.379 Q1134.81 438.17 1131.73 432.846 Z" fill="#0000ff" fill-rule="evenodd" fill-opacity="1" /><path clip-path="url(#clip650)" d="M1043.3 624.163 Q1040.2 629.487 1038.69 634.696 Q1037.19 639.904 1037.19 645.251 Q1037.19 650.598 1038.69 655.853 Q1040.22 661.084 1043.3 666.385 L1039.6 666.385 Q1036.12 660.945 1034.39 655.691 Q1032.67 650.436 1032.67 645.251 Q1032.67 640.089 1034.39 634.858 Q1036.1 629.626 1039.6 624.163 L1043.3 624.163 Z" fill="#ff0000" fill-rule="evenodd" fill-opacity="1" /><path clip-path="url(#clip650)" d="M1068.14 643.932 Q1069.64 644.441 1071.05 646.107 Q1072.49 647.774 1073.92 650.691 L1078.67 660.135 L1073.65 660.135 L1069.22 651.269 Q1067.51 647.797 1065.89 646.663 Q1064.29 645.529 1061.52 645.529 L1056.42 645.529 L1056.42 660.135 L1051.75 660.135 L1051.75 625.575 L1062.3 625.575 Q1068.23 625.575 1071.15 628.052 Q1074.06 630.529 1074.06 635.529 Q1074.06 638.793 1072.54 640.945 Q1071.03 643.098 1068.14 643.932 M1056.42 629.418 L1056.42 641.686 L1062.3 641.686 Q1065.68 641.686 1067.4 640.135 Q1069.13 638.561 1069.13 635.529 Q1069.13 632.496 1067.4 630.969 Q1065.68 629.418 1062.3 629.418 L1056.42 629.418 Z" fill="#ff0000" fill-rule="evenodd" fill-opacity="1" /><path clip-path="url(#clip650)" d="M1085.59 654.256 L1090.47 654.256 L1090.47 658.237 L1086.68 665.644 L1083.69 665.644 L1085.59 658.237 L1085.59 654.256 Z" fill="#ff0000" fill-rule="evenodd" fill-opacity="1" /><path clip-path="url(#clip650)" d="M1099.76 625.575 L1106.05 625.575 L1121.38 654.487 L1121.38 625.575 L1125.91 625.575 L1125.91 660.135 L1119.62 660.135 L1104.29 631.223 L1104.29 660.135 L1099.76 660.135 L1099.76 625.575 Z" fill="#ff0000" fill-rule="evenodd" fill-opacity="1" /><path clip-path="url(#clip650)" d="M1134.36 624.163 L1138.07 624.163 Q1141.54 629.626 1143.25 634.858 Q1144.99 640.089 1144.99 645.251 Q1144.99 650.436 1143.25 655.691 Q1141.54 660.945 1138.07 666.385 L1134.36 666.385 Q1137.44 661.084 1138.95 655.853 Q1140.47 650.598 1140.47 645.251 Q1140.47 639.904 1138.95 634.696 Q1137.44 629.487 1134.36 624.163 Z" fill="#ff0000" fill-rule="evenodd" fill-opacity="1" /><path clip-path="url(#clip650)" d="M1430.77 378.947 Q1427.67 384.271 1426.16 389.48 Q1424.66 394.688 1424.66 400.035 Q1424.66 405.382 1426.16 410.637 Q1427.69 415.868 1430.77 421.169 L1427.06 421.169 Q1423.59 415.729 1421.86 410.475 Q1420.14 405.22 1420.14 400.035 Q1420.14 394.873 1421.86 389.642 Q1423.57 384.41 1427.06 378.947 L1430.77 378.947 Z" fill="#ff0000" fill-rule="evenodd" fill-opacity="1" /><path clip-path="url(#clip650)" d="M1455.6 398.716 Q1457.11 399.225 1458.52 400.892 Q1459.96 402.558 1461.39 405.475 L1466.14 414.919 L1461.11 414.919 L1456.69 406.054 Q1454.98 402.581 1453.36 401.447 Q1451.76 400.313 1448.98 400.313 L1443.89 400.313 L1443.89 414.919 L1439.22 414.919 L1439.22 380.359 L1449.77 380.359 Q1455.7 380.359 1458.61 382.836 Q1461.53 385.313 1461.53 390.313 Q1461.53 393.577 1460 395.73 Q1458.5 397.882 1455.6 398.716 M1443.89 384.202 L1443.89 396.47 L1449.77 396.47 Q1453.15 396.47 1454.86 394.919 Q1456.6 393.345 1456.6 390.313 Q1456.6 387.281 1454.86 385.753 Q1453.15 384.202 1449.77 384.202 L1443.89 384.202 Z" fill="#ff0000" fill-rule="evenodd" fill-opacity="1" /><path clip-path="url(#clip650)" d="M1473.06 409.04 L1477.94 409.04 L1477.94 413.021 L1474.15 420.429 L1471.16 420.429 L1473.06 413.021 L1473.06 409.04 Z" fill="#ff0000" fill-rule="evenodd" fill-opacity="1" /><path clip-path="url(#clip650)" d="M1503.61 398.716 Q1505.12 399.225 1506.53 400.892 Q1507.97 402.558 1509.4 405.475 L1514.15 414.919 L1509.12 414.919 L1504.7 406.054 Q1502.99 402.581 1501.37 401.447 Q1499.77 400.313 1496.99 400.313 L1491.9 400.313 L1491.9 414.919 L1487.23 414.919 L1487.23 380.359 L1497.78 380.359 Q1503.71 380.359 1506.62 382.836 Q1509.54 385.313 1509.54 390.313 Q1509.54 393.577 1508.01 395.73 Q1506.51 397.882 1503.61 398.716 M1491.9 384.202 L1491.9 396.47 L1497.78 396.47 Q1501.16 396.47 1502.87 394.919 Q1504.61 393.345 1504.61 390.313 Q1504.61 387.281 1502.87 385.753 Q1501.16 384.202 1497.78 384.202 L1491.9 384.202 Z" fill="#ff0000" fill-rule="evenodd" fill-opacity="1" /><path clip-path="url(#clip650)" d="M1519.31 378.947 L1523.01 378.947 Q1526.48 384.41 1528.2 389.642 Q1529.93 394.873 1529.93 400.035 Q1529.93 405.22 1528.2 410.475 Q1526.48 415.729 1523.01 421.169 L1519.31 421.169 Q1522.39 415.868 1523.89 410.637 Q1525.42 405.382 1525.42 400.035 Q1525.42 394.688 1523.89 389.48 Q1522.39 384.271 1519.31 378.947 Z" fill="#ff0000" fill-rule="evenodd" fill-opacity="1" /><path clip-path="url(#clip650)" d="M1040.67 759.631 Q1037.56 764.955 1036.06 770.163 Q1034.56 775.372 1034.56 780.719 Q1034.56 786.066 1036.06 791.321 Q1037.59 796.552 1040.67 801.853 L1036.96 801.853 Q1033.49 796.413 1031.75 791.159 Q1030.04 785.904 1030.04 780.719 Q1030.04 775.557 1031.75 770.325 Q1033.47 765.094 1036.96 759.631 L1040.67 759.631 Z" fill="#ff0000" fill-rule="evenodd" fill-opacity="1" /><path clip-path="url(#clip650)" d="M1049.12 761.043 L1055.41 761.043 L1070.74 789.955 L1070.74 761.043 L1075.27 761.043 L1075.27 795.603 L1068.98 795.603 L1053.65 766.691 L1053.65 795.603 L1049.12 795.603 L1049.12 761.043 Z" fill="#ff0000" fill-rule="evenodd" fill-opacity="1" /><path clip-path="url(#clip650)" d="M1085.48 789.723 L1090.37 789.723 L1090.37 793.705 L1086.57 801.112 L1083.58 801.112 L1085.48 793.705 L1085.48 789.723 Z" fill="#ff0000" fill-rule="evenodd" fill-opacity="1" /><path clip-path="url(#clip650)" d="M1116.04 779.399 Q1117.54 779.909 1118.95 781.575 Q1120.39 783.242 1121.82 786.159 L1126.57 795.603 L1121.55 795.603 L1117.12 786.737 Q1115.41 783.265 1113.79 782.131 Q1112.19 780.997 1109.42 780.997 L1104.32 780.997 L1104.32 795.603 L1099.65 795.603 L1099.65 761.043 L1110.2 761.043 Q1116.13 761.043 1119.05 763.52 Q1121.96 765.997 1121.96 770.997 Q1121.96 774.26 1120.43 776.413 Q1118.93 778.566 1116.04 779.399 M1104.32 764.886 L1104.32 777.154 L1110.2 777.154 Q1113.58 777.154 1115.3 775.603 Q1117.03 774.029 1117.03 770.997 Q1117.03 767.964 1115.3 766.436 Q1113.58 764.886 1110.2 764.886 L1104.32 764.886 Z" fill="#ff0000" fill-rule="evenodd" fill-opacity="1" /><path clip-path="url(#clip650)" d="M1131.73 759.631 L1135.43 759.631 Q1138.91 765.094 1140.62 770.325 Q1142.36 775.557 1142.36 780.719 Q1142.36 785.904 1140.62 791.159 Q1138.91 796.413 1135.43 801.853 L1131.73 801.853 Q1134.81 796.552 1136.31 791.321 Q1137.84 786.066 1137.84 780.719 Q1137.84 775.372 1136.31 770.163 Q1134.81 764.955 1131.73 759.631 Z" fill="#ff0000" fill-rule="evenodd" fill-opacity="1" /><path clip-path="url(#clip650)" d="M723.835 624.163 Q720.733 629.487 719.229 634.696 Q717.724 639.904 717.724 645.251 Q717.724 650.598 719.229 655.853 Q720.756 661.084 723.835 666.385 L720.131 666.385 Q716.659 660.945 714.923 655.691 Q713.21 650.436 713.21 645.251 Q713.21 640.089 714.923 634.858 Q716.636 629.626 720.131 624.163 L723.835 624.163 Z" fill="#008000" fill-rule="evenodd" fill-opacity="1" /><path clip-path="url(#clip650)" d="M748.673 643.932 Q750.178 644.441 751.59 646.107 Q753.025 647.774 754.46 650.691 L759.205 660.135 L754.182 660.135 L749.761 651.269 Q748.048 647.797 746.428 646.663 Q744.83 645.529 742.053 645.529 L736.96 645.529 L736.96 660.135 L732.284 660.135 L732.284 625.575 L742.84 625.575 Q748.766 625.575 751.682 628.052 Q754.599 630.529 754.599 635.529 Q754.599 638.793 753.071 640.945 Q751.566 643.098 748.673 643.932 M736.96 629.418 L736.96 641.686 L742.84 641.686 Q746.219 641.686 747.932 640.135 Q749.668 638.561 749.668 635.529 Q749.668 632.496 747.932 630.969 Q746.219 629.418 742.84 629.418 L736.96 629.418 Z" fill="#008000" fill-rule="evenodd" fill-opacity="1" /><path clip-path="url(#clip650)" d="M766.127 654.256 L771.011 654.256 L771.011 658.237 L767.215 665.644 L764.228 665.644 L766.127 658.237 L766.127 654.256 Z" fill="#008000" fill-rule="evenodd" fill-opacity="1" /><path clip-path="url(#clip650)" d="M780.293 625.575 L786.589 625.575 L801.913 654.487 L801.913 625.575 L806.45 625.575 L806.45 660.135 L800.154 660.135 L784.83 631.223 L784.83 660.135 L780.293 660.135 L780.293 625.575 Z" fill="#008000" fill-rule="evenodd" fill-opacity="1" /><path clip-path="url(#clip650)" d="M814.899 624.163 L818.603 624.163 Q822.075 629.626 823.788 634.858 Q825.524 640.089 825.524 645.251 Q825.524 650.436 823.788 655.691 Q822.075 660.945 818.603 666.385 L814.899 666.385 Q817.978 661.084 819.483 655.853 Q821.011 650.598 821.011 645.251 Q821.011 639.904 819.483 634.696 Q817.978 629.487 814.899 624.163 Z" fill="#008000" fill-rule="evenodd" fill-opacity="1" /><path clip-path="url(#clip650)" d="M1111.3 636.935 Q1108.2 642.259 1106.7 647.468 Q1105.19 652.676 1105.19 658.023 Q1105.19 663.37 1106.7 668.625 Q1108.22 673.856 1111.3 679.157 L1107.6 679.157 Q1104.13 673.717 1102.39 668.463 Q1100.68 663.208 1100.68 658.023 Q1100.68 652.861 1102.39 647.63 Q1104.1 642.398 1107.6 636.935 L1111.3 636.935 Z" fill="#008000" fill-rule="evenodd" fill-opacity="1" /><path clip-path="url(#clip650)" d="M1136.14 656.704 Q1137.65 657.213 1139.06 658.88 Q1140.49 660.546 1141.93 663.463 L1146.67 672.907 L1141.65 672.907 L1137.23 664.042 Q1135.52 660.569 1133.9 659.435 Q1132.3 658.301 1129.52 658.301 L1124.43 658.301 L1124.43 672.907 L1119.75 672.907 L1119.75 638.347 L1130.31 638.347 Q1136.23 638.347 1139.15 640.824 Q1142.07 643.301 1142.07 648.301 Q1142.07 651.565 1140.54 653.718 Q1139.03 655.87 1136.14 656.704 M1124.43 642.19 L1124.43 654.458 L1130.31 654.458 Q1133.69 654.458 1135.4 652.907 Q1137.14 651.333 1137.14 648.301 Q1137.14 645.269 1135.4 643.741 Q1133.69 642.19 1130.31 642.19 L1124.43 642.19 Z" fill="#008000" fill-rule="evenodd" fill-opacity="1" /><path clip-path="url(#clip650)" d="M1153.59 667.028 L1158.48 667.028 L1158.48 671.009 L1154.68 678.416 L1151.7 678.416 L1153.59 671.009 L1153.59 667.028 Z" fill="#008000" fill-rule="evenodd" fill-opacity="1" /><path clip-path="url(#clip650)" d="M1184.15 656.704 Q1185.65 657.213 1187.07 658.88 Q1188.5 660.546 1189.94 663.463 L1194.68 672.907 L1189.66 672.907 L1185.24 664.042 Q1183.52 660.569 1181.9 659.435 Q1180.31 658.301 1177.53 658.301 L1172.44 658.301 L1172.44 672.907 L1167.76 672.907 L1167.76 638.347 L1178.32 638.347 Q1184.24 638.347 1187.16 640.824 Q1190.08 643.301 1190.08 648.301 Q1190.08 651.565 1188.55 653.718 Q1187.04 655.87 1184.15 656.704 M1172.44 642.19 L1172.44 654.458 L1178.32 654.458 Q1181.7 654.458 1183.41 652.907 Q1185.15 651.333 1185.15 648.301 Q1185.15 645.269 1183.41 643.741 Q1181.7 642.19 1178.32 642.19 L1172.44 642.19 Z" fill="#008000" fill-rule="evenodd" fill-opacity="1" /><path clip-path="url(#clip650)" d="M1199.84 636.935 L1203.55 636.935 Q1207.02 642.398 1208.73 647.63 Q1210.47 652.861 1210.47 658.023 Q1210.47 663.208 1208.73 668.463 Q1207.02 673.717 1203.55 679.157 L1199.84 679.157 Q1202.92 673.856 1204.43 668.625 Q1205.96 663.37 1205.96 658.023 Q1205.96 652.676 1204.43 647.468 Q1202.92 642.259 1199.84 636.935 Z" fill="#008000" fill-rule="evenodd" fill-opacity="1" /><path clip-path="url(#clip650)" d="M1040.67 1017.62 Q1037.56 1022.94 1036.06 1028.15 Q1034.56 1033.36 1034.56 1038.71 Q1034.56 1044.05 1036.06 1049.31 Q1037.59 1054.54 1040.67 1059.84 L1036.96 1059.84 Q1033.49 1054.4 1031.75 1049.15 Q1030.04 1043.89 1030.04 1038.71 Q1030.04 1033.54 1031.75 1028.31 Q1033.47 1023.08 1036.96 1017.62 L1040.67 1017.62 Z" fill="#008000" fill-rule="evenodd" fill-opacity="1" /><path clip-path="url(#clip650)" d="M1049.12 1019.03 L1055.41 1019.03 L1070.74 1047.94 L1070.74 1019.03 L1075.27 1019.03 L1075.27 1053.59 L1068.98 1053.59 L1053.65 1024.68 L1053.65 1053.59 L1049.12 1053.59 L1049.12 1019.03 Z" fill="#008000" fill-rule="evenodd" fill-opacity="1" /><path clip-path="url(#clip650)" d="M1085.48 1047.71 L1090.37 1047.71 L1090.37 1051.69 L1086.57 1059.1 L1083.58 1059.1 L1085.48 1051.69 L1085.48 1047.71 Z" fill="#008000" fill-rule="evenodd" fill-opacity="1" /><path clip-path="url(#clip650)" d="M1116.04 1037.39 Q1117.54 1037.9 1118.95 1039.56 Q1120.39 1041.23 1121.82 1044.15 L1126.57 1053.59 L1121.55 1053.59 L1117.12 1044.73 Q1115.41 1041.25 1113.79 1040.12 Q1112.19 1038.98 1109.42 1038.98 L1104.32 1038.98 L1104.32 1053.59 L1099.65 1053.59 L1099.65 1019.03 L1110.2 1019.03 Q1116.13 1019.03 1119.05 1021.51 Q1121.96 1023.98 1121.96 1028.98 Q1121.96 1032.25 1120.43 1034.4 Q1118.93 1036.55 1116.04 1037.39 M1104.32 1022.87 L1104.32 1035.14 L1110.2 1035.14 Q1113.58 1035.14 1115.3 1033.59 Q1117.03 1032.02 1117.03 1028.98 Q1117.03 1025.95 1115.3 1024.42 Q1113.58 1022.87 1110.2 1022.87 L1104.32 1022.87 Z" fill="#008000" fill-rule="evenodd" fill-opacity="1" /><path clip-path="url(#clip650)" d="M1131.73 1017.62 L1135.43 1017.62 Q1138.91 1023.08 1140.62 1028.31 Q1142.36 1033.54 1142.36 1038.71 Q1142.36 1043.89 1140.62 1049.15 Q1138.91 1054.4 1135.43 1059.84 L1131.73 1059.84 Q1134.81 1054.54 1136.31 1049.31 Q1137.84 1044.05 1137.84 1038.71 Q1137.84 1033.36 1136.31 1028.15 Q1134.81 1022.94 1131.73 1017.62 Z" fill="#008000" fill-rule="evenodd" fill-opacity="1" /><path clip-path="url(#clip650)" d="M404.371 624.163 Q401.269 629.487 399.765 634.696 Q398.26 639.904 398.26 645.251 Q398.26 650.598 399.765 655.853 Q401.293 661.084 404.371 666.385 L400.668 666.385 Q397.195 660.945 395.459 655.691 Q393.746 650.436 393.746 645.251 Q393.746 640.089 395.459 634.858 Q397.172 629.626 400.668 624.163 L404.371 624.163 Z" fill="#800080" fill-rule="evenodd" fill-opacity="1" /><path clip-path="url(#clip650)" d="M429.209 643.932 Q430.714 644.441 432.126 646.107 Q433.561 647.774 434.996 650.691 L439.741 660.135 L434.718 660.135 L430.297 651.269 Q428.584 647.797 426.964 646.663 Q425.366 645.529 422.589 645.529 L417.496 645.529 L417.496 660.135 L412.82 660.135 L412.82 625.575 L423.376 625.575 Q429.302 625.575 432.218 628.052 Q435.135 630.529 435.135 635.529 Q435.135 638.793 433.607 640.945 Q432.103 643.098 429.209 643.932 M417.496 629.418 L417.496 641.686 L423.376 641.686 Q426.755 641.686 428.468 640.135 Q430.204 638.561 430.204 635.529 Q430.204 632.496 428.468 630.969 Q426.755 629.418 423.376 629.418 L417.496 629.418 Z" fill="#800080" fill-rule="evenodd" fill-opacity="1" /><path clip-path="url(#clip650)" d="M446.663 654.256 L451.547 654.256 L451.547 658.237 L447.751 665.644 L444.765 665.644 L446.663 658.237 L446.663 654.256 Z" fill="#800080" fill-rule="evenodd" fill-opacity="1" /><path clip-path="url(#clip650)" d="M460.829 625.575 L467.126 625.575 L482.45 654.487 L482.45 625.575 L486.987 625.575 L486.987 660.135 L480.69 660.135 L465.366 631.223 L465.366 660.135 L460.829 660.135 L460.829 625.575 Z" fill="#800080" fill-rule="evenodd" fill-opacity="1" /><path clip-path="url(#clip650)" d="M495.436 624.163 L499.139 624.163 Q502.611 629.626 504.324 634.858 Q506.06 640.089 506.06 645.251 Q506.06 650.436 504.324 655.691 Q502.611 660.945 499.139 666.385 L495.436 666.385 Q498.514 661.084 500.019 655.853 Q501.547 650.598 501.547 645.251 Q501.547 639.904 500.019 634.696 Q498.514 629.487 495.436 624.163 Z" fill="#800080" fill-rule="evenodd" fill-opacity="1" /><path clip-path="url(#clip650)" d="M791.839 894.923 Q788.737 900.247 787.233 905.456 Q785.728 910.664 785.728 916.011 Q785.728 921.358 787.233 926.613 Q788.761 931.844 791.839 937.145 L788.136 937.145 Q784.663 931.705 782.927 926.451 Q781.214 921.196 781.214 916.011 Q781.214 910.849 782.927 905.618 Q784.64 900.386 788.136 894.923 L791.839 894.923 Z" fill="#800080" fill-rule="evenodd" fill-opacity="1" /><path clip-path="url(#clip650)" d="M816.677 914.692 Q818.182 915.201 819.594 916.868 Q821.029 918.534 822.464 921.451 L827.209 930.895 L822.186 930.895 L817.765 922.03 Q816.052 918.557 814.432 917.423 Q812.834 916.289 810.057 916.289 L804.964 916.289 L804.964 930.895 L800.288 930.895 L800.288 896.335 L810.844 896.335 Q816.77 896.335 819.686 898.812 Q822.603 901.289 822.603 906.289 Q822.603 909.553 821.075 911.706 Q819.571 913.858 816.677 914.692 M804.964 900.178 L804.964 912.446 L810.844 912.446 Q814.223 912.446 815.936 910.895 Q817.672 909.321 817.672 906.289 Q817.672 903.256 815.936 901.729 Q814.223 900.178 810.844 900.178 L804.964 900.178 Z" fill="#800080" fill-rule="evenodd" fill-opacity="1" /><path clip-path="url(#clip650)" d="M834.131 925.016 L839.015 925.016 L839.015 928.997 L835.219 936.404 L832.232 936.404 L834.131 928.997 L834.131 925.016 Z" fill="#800080" fill-rule="evenodd" fill-opacity="1" /><path clip-path="url(#clip650)" d="M864.686 914.692 Q866.191 915.201 867.603 916.868 Q869.038 918.534 870.473 921.451 L875.218 930.895 L870.195 930.895 L865.774 922.03 Q864.061 918.557 862.441 917.423 Q860.843 916.289 858.066 916.289 L852.973 916.289 L852.973 930.895 L848.297 930.895 L848.297 896.335 L858.853 896.335 Q864.779 896.335 867.695 898.812 Q870.612 901.289 870.612 906.289 Q870.612 909.553 869.084 911.706 Q867.58 913.858 864.686 914.692 M852.973 900.178 L852.973 912.446 L858.853 912.446 Q862.232 912.446 863.945 910.895 Q865.681 909.321 865.681 906.289 Q865.681 903.256 863.945 901.729 Q862.232 900.178 858.853 900.178 L852.973 900.178 Z" fill="#800080" fill-rule="evenodd" fill-opacity="1" /><path clip-path="url(#clip650)" d="M880.38 894.923 L884.084 894.923 Q887.556 900.386 889.269 905.618 Q891.005 910.849 891.005 916.011 Q891.005 921.196 889.269 926.451 Q887.556 931.705 884.084 937.145 L880.38 937.145 Q883.459 931.844 884.964 926.613 Q886.491 921.358 886.491 916.011 Q886.491 910.664 884.964 905.456 Q883.459 900.247 880.38 894.923 Z" fill="#800080" fill-rule="evenodd" fill-opacity="1" /><path clip-path="url(#clip650)" d="M1040.67 1275.61 Q1037.56 1280.93 1036.06 1286.14 Q1034.56 1291.35 1034.56 1296.69 Q1034.56 1302.04 1036.06 1307.3 Q1037.59 1312.53 1040.67 1317.83 L1036.96 1317.83 Q1033.49 1312.39 1031.75 1307.13 Q1030.04 1301.88 1030.04 1296.69 Q1030.04 1291.53 1031.75 1286.3 Q1033.47 1281.07 1036.96 1275.61 L1040.67 1275.61 Z" fill="#800080" fill-rule="evenodd" fill-opacity="1" /><path clip-path="url(#clip650)" d="M1049.12 1277.02 L1055.41 1277.02 L1070.74 1305.93 L1070.74 1277.02 L1075.27 1277.02 L1075.27 1311.58 L1068.98 1311.58 L1053.65 1282.67 L1053.65 1311.58 L1049.12 1311.58 L1049.12 1277.02 Z" fill="#800080" fill-rule="evenodd" fill-opacity="1" /><path clip-path="url(#clip650)" d="M1085.48 1305.7 L1090.37 1305.7 L1090.37 1309.68 L1086.57 1317.09 L1083.58 1317.09 L1085.48 1309.68 L1085.48 1305.7 Z" fill="#800080" fill-rule="evenodd" fill-opacity="1" /><path clip-path="url(#clip650)" d="M1116.04 1295.38 Q1117.54 1295.88 1118.95 1297.55 Q1120.39 1299.22 1121.82 1302.13 L1126.57 1311.58 L1121.55 1311.58 L1117.12 1302.71 Q1115.41 1299.24 1113.79 1298.11 Q1112.19 1296.97 1109.42 1296.97 L1104.32 1296.97 L1104.32 1311.58 L1099.65 1311.58 L1099.65 1277.02 L1110.2 1277.02 Q1116.13 1277.02 1119.05 1279.5 Q1121.96 1281.97 1121.96 1286.97 Q1121.96 1290.24 1120.43 1292.39 Q1118.93 1294.54 1116.04 1295.38 M1104.32 1280.86 L1104.32 1293.13 L1110.2 1293.13 Q1113.58 1293.13 1115.3 1291.58 Q1117.03 1290 1117.03 1286.97 Q1117.03 1283.94 1115.3 1282.41 Q1113.58 1280.86 1110.2 1280.86 L1104.32 1280.86 Z" fill="#800080" fill-rule="evenodd" fill-opacity="1" /><path clip-path="url(#clip650)" d="M1131.73 1275.61 L1135.43 1275.61 Q1138.91 1281.07 1140.62 1286.3 Q1142.36 1291.53 1142.36 1296.69 Q1142.36 1301.88 1140.62 1307.13 Q1138.91 1312.39 1135.43 1317.83 L1131.73 1317.83 Q1134.81 1312.53 1136.31 1307.3 Q1137.84 1302.04 1137.84 1296.69 Q1137.84 1291.35 1136.31 1286.14 Q1134.81 1280.93 1131.73 1275.61 Z" fill="#800080" fill-rule="evenodd" fill-opacity="1" /></svg>
