<?xml version="1.0" encoding="utf-8"?>
<svg xmlns="http://www.w3.org/2000/svg" xmlns:xlink="http://www.w3.org/1999/xlink" width="600" height="400" viewBox="0 0 2400 1600">
<defs>
  <clipPath id="clip030">
    <rect x="0" y="0" width="2400" height="1600"/>
  </clipPath>
</defs>
<path clip-path="url(#clip030)" d="
M0 1600 L2400 1600 L2400 0 L0 0  Z
  " fill="#ffffff" fill-rule="evenodd" fill-opacity="1"/>
<defs>
  <clipPath id="clip031">
    <rect x="480" y="0" width="1681" height="1600"/>
  </clipPath>
</defs>
<path clip-path="url(#clip030)" d="
M243.017 1486.45 L2352.76 1486.45 L2352.76 123.472 L243.017 123.472  Z
  " fill="#ffffff" fill-rule="evenodd" fill-opacity="1"/>
<defs>
  <clipPath id="clip032">
    <rect x="243" y="123" width="2111" height="1364"/>
  </clipPath>
</defs>
<polyline clip-path="url(#clip032)" style="stroke:#000000; stroke-linecap:butt; stroke-linejoin:round; stroke-width:2; stroke-opacity:0.1; fill:none" points="
  302.727,1486.45 302.727,123.472 
  "/>
<polyline clip-path="url(#clip032)" style="stroke:#000000; stroke-linecap:butt; stroke-linejoin:round; stroke-width:2; stroke-opacity:0.1; fill:none" points="
  800.307,1486.45 800.307,123.472 
  "/>
<polyline clip-path="url(#clip032)" style="stroke:#000000; stroke-linecap:butt; stroke-linejoin:round; stroke-width:2; stroke-opacity:0.1; fill:none" points="
  1297.89,1486.45 1297.89,123.472 
  "/>
<polyline clip-path="url(#clip032)" style="stroke:#000000; stroke-linecap:butt; stroke-linejoin:round; stroke-width:2; stroke-opacity:0.1; fill:none" points="
  1795.47,1486.45 1795.47,123.472 
  "/>
<polyline clip-path="url(#clip032)" style="stroke:#000000; stroke-linecap:butt; stroke-linejoin:round; stroke-width:2; stroke-opacity:0.1; fill:none" points="
  2293.05,1486.45 2293.05,123.472 
  "/>
<polyline clip-path="url(#clip030)" style="stroke:#000000; stroke-linecap:butt; stroke-linejoin:round; stroke-width:4; stroke-opacity:1; fill:none" points="
  243.017,1486.45 2352.76,1486.45 
  "/>
<polyline clip-path="url(#clip030)" style="stroke:#000000; stroke-linecap:butt; stroke-linejoin:round; stroke-width:4; stroke-opacity:1; fill:none" points="
  302.727,1486.45 302.727,1467.55 
  "/>
<polyline clip-path="url(#clip030)" style="stroke:#000000; stroke-linecap:butt; stroke-linejoin:round; stroke-width:4; stroke-opacity:1; fill:none" points="
  800.307,1486.45 800.307,1467.55 
  "/>
<polyline clip-path="url(#clip030)" style="stroke:#000000; stroke-linecap:butt; stroke-linejoin:round; stroke-width:4; stroke-opacity:1; fill:none" points="
  1297.89,1486.45 1297.89,1467.55 
  "/>
<polyline clip-path="url(#clip030)" style="stroke:#000000; stroke-linecap:butt; stroke-linejoin:round; stroke-width:4; stroke-opacity:1; fill:none" points="
  1795.47,1486.45 1795.47,1467.55 
  "/>
<polyline clip-path="url(#clip030)" style="stroke:#000000; stroke-linecap:butt; stroke-linejoin:round; stroke-width:4; stroke-opacity:1; fill:none" points="
  2293.05,1486.45 2293.05,1467.55 
  "/>
<path clip-path="url(#clip030)" d="M280.03 1517.37 Q276.419 1517.37 274.59 1520.93 Q272.785 1524.47 272.785 1531.6 Q272.785 1538.71 274.59 1542.27 Q276.419 1545.82 280.03 1545.82 Q283.664 1545.82 285.47 1542.27 Q287.299 1538.71 287.299 1531.6 Q287.299 1524.47 285.47 1520.93 Q283.664 1517.37 280.03 1517.37 M280.03 1513.66 Q285.84 1513.66 288.896 1518.27 Q291.975 1522.85 291.975 1531.6 Q291.975 1540.33 288.896 1544.94 Q285.84 1549.52 280.03 1549.52 Q274.22 1549.52 271.141 1544.94 Q268.086 1540.33 268.086 1531.6 Q268.086 1522.85 271.141 1518.27 Q274.22 1513.66 280.03 1513.66 Z" fill="#000000" fill-rule="evenodd" fill-opacity="1" /><path clip-path="url(#clip030)" d="M300.192 1542.97 L305.076 1542.97 L305.076 1548.85 L300.192 1548.85 L300.192 1542.97 Z" fill="#000000" fill-rule="evenodd" fill-opacity="1" /><path clip-path="url(#clip030)" d="M325.84 1529.7 Q322.692 1529.7 320.84 1531.86 Q319.011 1534.01 319.011 1537.76 Q319.011 1541.49 320.84 1543.66 Q322.692 1545.82 325.84 1545.82 Q328.988 1545.82 330.817 1543.66 Q332.669 1541.49 332.669 1537.76 Q332.669 1534.01 330.817 1531.86 Q328.988 1529.7 325.84 1529.7 M335.122 1515.05 L335.122 1519.31 Q333.363 1518.48 331.558 1518.04 Q329.775 1517.6 328.016 1517.6 Q323.386 1517.6 320.933 1520.72 Q318.502 1523.85 318.155 1530.17 Q319.521 1528.15 321.581 1527.09 Q323.641 1526 326.118 1526 Q331.326 1526 334.335 1529.17 Q337.368 1532.32 337.368 1537.76 Q337.368 1543.08 334.22 1546.3 Q331.072 1549.52 325.84 1549.52 Q319.845 1549.52 316.673 1544.94 Q313.502 1540.33 313.502 1531.6 Q313.502 1523.41 317.391 1518.55 Q321.28 1513.66 327.831 1513.66 Q329.59 1513.66 331.372 1514.01 Q333.178 1514.36 335.122 1515.05 Z" fill="#000000" fill-rule="evenodd" fill-opacity="1" /><path clip-path="url(#clip030)" d="M777.737 1517.37 Q774.126 1517.37 772.298 1520.93 Q770.492 1524.47 770.492 1531.6 Q770.492 1538.71 772.298 1542.27 Q774.126 1545.82 777.737 1545.82 Q781.372 1545.82 783.177 1542.27 Q785.006 1538.71 785.006 1531.6 Q785.006 1524.47 783.177 1520.93 Q781.372 1517.37 777.737 1517.37 M777.737 1513.66 Q783.547 1513.66 786.603 1518.27 Q789.682 1522.85 789.682 1531.6 Q789.682 1540.33 786.603 1544.94 Q783.547 1549.52 777.737 1549.52 Q771.927 1549.52 768.848 1544.94 Q765.793 1540.33 765.793 1531.6 Q765.793 1522.85 768.848 1518.27 Q771.927 1513.66 777.737 1513.66 Z" fill="#000000" fill-rule="evenodd" fill-opacity="1" /><path clip-path="url(#clip030)" d="M797.899 1542.97 L802.783 1542.97 L802.783 1548.85 L797.899 1548.85 L797.899 1542.97 Z" fill="#000000" fill-rule="evenodd" fill-opacity="1" /><path clip-path="url(#clip030)" d="M822.969 1532.44 Q819.635 1532.44 817.714 1534.22 Q815.816 1536 815.816 1539.13 Q815.816 1542.25 817.714 1544.03 Q819.635 1545.82 822.969 1545.82 Q826.302 1545.82 828.223 1544.03 Q830.144 1542.23 830.144 1539.13 Q830.144 1536 828.223 1534.22 Q826.325 1532.44 822.969 1532.44 M818.293 1530.45 Q815.283 1529.7 813.594 1527.64 Q811.927 1525.58 811.927 1522.62 Q811.927 1518.48 814.867 1516.07 Q817.83 1513.66 822.969 1513.66 Q828.131 1513.66 831.07 1516.07 Q834.01 1518.48 834.01 1522.62 Q834.01 1525.58 832.32 1527.64 Q830.654 1529.7 827.668 1530.45 Q831.047 1531.23 832.922 1533.52 Q834.82 1535.82 834.82 1539.13 Q834.82 1544.15 831.742 1546.83 Q828.686 1549.52 822.969 1549.52 Q817.251 1549.52 814.172 1546.83 Q811.117 1544.15 811.117 1539.13 Q811.117 1535.82 813.015 1533.52 Q814.913 1531.23 818.293 1530.45 M816.58 1523.06 Q816.58 1525.75 818.246 1527.25 Q819.936 1528.76 822.969 1528.76 Q825.978 1528.76 827.668 1527.25 Q829.381 1525.75 829.381 1523.06 Q829.381 1520.38 827.668 1518.87 Q825.978 1517.37 822.969 1517.37 Q819.936 1517.37 818.246 1518.87 Q816.58 1520.38 816.58 1523.06 Z" fill="#000000" fill-rule="evenodd" fill-opacity="1" /><path clip-path="url(#clip030)" d="M1265.04 1544.91 L1272.68 1544.91 L1272.68 1518.55 L1264.37 1520.21 L1264.37 1515.95 L1272.63 1514.29 L1277.31 1514.29 L1277.31 1544.91 L1284.95 1544.91 L1284.95 1548.85 L1265.04 1548.85 L1265.04 1544.91 Z" fill="#000000" fill-rule="evenodd" fill-opacity="1" /><path clip-path="url(#clip030)" d="M1294.39 1542.97 L1299.28 1542.97 L1299.28 1548.85 L1294.39 1548.85 L1294.39 1542.97 Z" fill="#000000" fill-rule="evenodd" fill-opacity="1" /><path clip-path="url(#clip030)" d="M1319.46 1517.37 Q1315.85 1517.37 1314.02 1520.93 Q1312.22 1524.47 1312.22 1531.6 Q1312.22 1538.71 1314.02 1542.27 Q1315.85 1545.82 1319.46 1545.82 Q1323.09 1545.82 1324.9 1542.27 Q1326.73 1538.71 1326.73 1531.6 Q1326.73 1524.47 1324.9 1520.93 Q1323.09 1517.37 1319.46 1517.37 M1319.46 1513.66 Q1325.27 1513.66 1328.33 1518.27 Q1331.4 1522.85 1331.4 1531.6 Q1331.4 1540.33 1328.33 1544.94 Q1325.27 1549.52 1319.46 1549.52 Q1313.65 1549.52 1310.57 1544.94 Q1307.52 1540.33 1307.52 1531.6 Q1307.52 1522.85 1310.57 1518.27 Q1313.65 1513.66 1319.46 1513.66 Z" fill="#000000" fill-rule="evenodd" fill-opacity="1" /><path clip-path="url(#clip030)" d="M1763.42 1544.91 L1771.06 1544.91 L1771.06 1518.55 L1762.75 1520.21 L1762.75 1515.95 L1771.01 1514.29 L1775.69 1514.29 L1775.69 1544.91 L1783.33 1544.91 L1783.33 1548.85 L1763.42 1548.85 L1763.42 1544.91 Z" fill="#000000" fill-rule="evenodd" fill-opacity="1" /><path clip-path="url(#clip030)" d="M1792.77 1542.97 L1797.65 1542.97 L1797.65 1548.85 L1792.77 1548.85 L1792.77 1542.97 Z" fill="#000000" fill-rule="evenodd" fill-opacity="1" /><path clip-path="url(#clip030)" d="M1811.87 1544.91 L1828.19 1544.91 L1828.19 1548.85 L1806.24 1548.85 L1806.24 1544.91 Q1808.9 1542.16 1813.49 1537.53 Q1818.09 1532.88 1819.27 1531.53 Q1821.52 1529.01 1822.4 1527.27 Q1823.3 1525.51 1823.3 1523.82 Q1823.3 1521.07 1821.36 1519.33 Q1819.44 1517.6 1816.33 1517.6 Q1814.14 1517.6 1811.68 1518.36 Q1809.25 1519.13 1806.47 1520.68 L1806.47 1515.95 Q1809.3 1514.82 1811.75 1514.24 Q1814.2 1513.66 1816.24 1513.66 Q1821.61 1513.66 1824.81 1516.35 Q1828 1519.03 1828 1523.52 Q1828 1525.65 1827.19 1527.57 Q1826.4 1529.47 1824.3 1532.07 Q1823.72 1532.74 1820.62 1535.95 Q1817.51 1539.15 1811.87 1544.91 Z" fill="#000000" fill-rule="evenodd" fill-opacity="1" /><path clip-path="url(#clip030)" d="M2259.96 1544.91 L2267.6 1544.91 L2267.6 1518.55 L2259.28 1520.21 L2259.28 1515.95 L2267.55 1514.29 L2272.22 1514.29 L2272.22 1544.91 L2279.86 1544.91 L2279.86 1548.85 L2259.96 1548.85 L2259.96 1544.91 Z" fill="#000000" fill-rule="evenodd" fill-opacity="1" /><path clip-path="url(#clip030)" d="M2289.31 1542.97 L2294.19 1542.97 L2294.19 1548.85 L2289.31 1548.85 L2289.31 1542.97 Z" fill="#000000" fill-rule="evenodd" fill-opacity="1" /><path clip-path="url(#clip030)" d="M2317.22 1518.36 L2305.42 1536.81 L2317.22 1536.81 L2317.22 1518.36 M2316 1514.29 L2321.88 1514.29 L2321.88 1536.81 L2326.81 1536.81 L2326.81 1540.7 L2321.88 1540.7 L2321.88 1548.85 L2317.22 1548.85 L2317.22 1540.7 L2301.62 1540.7 L2301.62 1536.19 L2316 1514.29 Z" fill="#000000" fill-rule="evenodd" fill-opacity="1" /><polyline clip-path="url(#clip032)" style="stroke:#000000; stroke-linecap:butt; stroke-linejoin:round; stroke-width:2; stroke-opacity:0.1; fill:none" points="
  243.017,1429.12 2352.76,1429.12 
  "/>
<polyline clip-path="url(#clip032)" style="stroke:#000000; stroke-linecap:butt; stroke-linejoin:round; stroke-width:2; stroke-opacity:0.1; fill:none" points="
  243.017,1188.2 2352.76,1188.2 
  "/>
<polyline clip-path="url(#clip032)" style="stroke:#000000; stroke-linecap:butt; stroke-linejoin:round; stroke-width:2; stroke-opacity:0.1; fill:none" points="
  243.017,947.272 2352.76,947.272 
  "/>
<polyline clip-path="url(#clip032)" style="stroke:#000000; stroke-linecap:butt; stroke-linejoin:round; stroke-width:2; stroke-opacity:0.1; fill:none" points="
  243.017,706.347 2352.76,706.347 
  "/>
<polyline clip-path="url(#clip032)" style="stroke:#000000; stroke-linecap:butt; stroke-linejoin:round; stroke-width:2; stroke-opacity:0.1; fill:none" points="
  243.017,465.422 2352.76,465.422 
  "/>
<polyline clip-path="url(#clip032)" style="stroke:#000000; stroke-linecap:butt; stroke-linejoin:round; stroke-width:2; stroke-opacity:0.1; fill:none" points="
  243.017,224.497 2352.76,224.497 
  "/>
<polyline clip-path="url(#clip030)" style="stroke:#000000; stroke-linecap:butt; stroke-linejoin:round; stroke-width:4; stroke-opacity:1; fill:none" points="
  243.017,1486.45 243.017,123.472 
  "/>
<polyline clip-path="url(#clip030)" style="stroke:#000000; stroke-linecap:butt; stroke-linejoin:round; stroke-width:4; stroke-opacity:1; fill:none" points="
  243.017,1429.12 261.915,1429.12 
  "/>
<polyline clip-path="url(#clip030)" style="stroke:#000000; stroke-linecap:butt; stroke-linejoin:round; stroke-width:4; stroke-opacity:1; fill:none" points="
  243.017,1188.2 261.915,1188.2 
  "/>
<polyline clip-path="url(#clip030)" style="stroke:#000000; stroke-linecap:butt; stroke-linejoin:round; stroke-width:4; stroke-opacity:1; fill:none" points="
  243.017,947.272 261.915,947.272 
  "/>
<polyline clip-path="url(#clip030)" style="stroke:#000000; stroke-linecap:butt; stroke-linejoin:round; stroke-width:4; stroke-opacity:1; fill:none" points="
  243.017,706.347 261.915,706.347 
  "/>
<polyline clip-path="url(#clip030)" style="stroke:#000000; stroke-linecap:butt; stroke-linejoin:round; stroke-width:4; stroke-opacity:1; fill:none" points="
  243.017,465.422 261.915,465.422 
  "/>
<polyline clip-path="url(#clip030)" style="stroke:#000000; stroke-linecap:butt; stroke-linejoin:round; stroke-width:4; stroke-opacity:1; fill:none" points="
  243.017,224.497 261.915,224.497 
  "/>
<path clip-path="url(#clip030)" d="M101.671 1429.57 L131.346 1429.57 L131.346 1433.51 L101.671 1433.51 L101.671 1429.57 Z" fill="#000000" fill-rule="evenodd" fill-opacity="1" /><path clip-path="url(#clip030)" d="M151.439 1414.92 Q147.828 1414.92 145.999 1418.49 Q144.193 1422.03 144.193 1429.16 Q144.193 1436.26 145.999 1439.83 Q147.828 1443.37 151.439 1443.37 Q155.073 1443.37 156.879 1439.83 Q158.707 1436.26 158.707 1429.16 Q158.707 1422.03 156.879 1418.49 Q155.073 1414.92 151.439 1414.92 M151.439 1411.22 Q157.249 1411.22 160.304 1415.82 Q163.383 1420.41 163.383 1429.16 Q163.383 1437.88 160.304 1442.49 Q157.249 1447.07 151.439 1447.07 Q145.629 1447.07 142.55 1442.49 Q139.494 1437.88 139.494 1429.16 Q139.494 1420.41 142.55 1415.82 Q145.629 1411.22 151.439 1411.22 Z" fill="#000000" fill-rule="evenodd" fill-opacity="1" /><path clip-path="url(#clip030)" d="M171.601 1440.52 L176.485 1440.52 L176.485 1446.4 L171.601 1446.4 L171.601 1440.52 Z" fill="#000000" fill-rule="evenodd" fill-opacity="1" /><path clip-path="url(#clip030)" d="M190.698 1442.47 L207.017 1442.47 L207.017 1446.4 L185.073 1446.4 L185.073 1442.47 Q187.735 1439.71 192.318 1435.08 Q196.925 1430.43 198.105 1429.09 Q200.351 1426.56 201.23 1424.83 Q202.133 1423.07 202.133 1421.38 Q202.133 1418.62 200.189 1416.89 Q198.267 1415.15 195.165 1415.15 Q192.966 1415.15 190.513 1415.92 Q188.082 1416.68 185.304 1418.23 L185.304 1413.51 Q188.128 1412.37 190.582 1411.8 Q193.036 1411.22 195.073 1411.22 Q200.443 1411.22 203.638 1413.9 Q206.832 1416.59 206.832 1421.08 Q206.832 1423.21 206.022 1425.13 Q205.235 1427.03 203.128 1429.62 Q202.55 1430.29 199.448 1433.51 Q196.346 1436.7 190.698 1442.47 Z" fill="#000000" fill-rule="evenodd" fill-opacity="1" /><path clip-path="url(#clip030)" d="M101.3 1188.65 L130.976 1188.65 L130.976 1192.58 L101.3 1192.58 L101.3 1188.65 Z" fill="#000000" fill-rule="evenodd" fill-opacity="1" /><path clip-path="url(#clip030)" d="M151.068 1174 Q147.457 1174 145.629 1177.56 Q143.823 1181.1 143.823 1188.23 Q143.823 1195.34 145.629 1198.9 Q147.457 1202.44 151.068 1202.44 Q154.703 1202.44 156.508 1198.9 Q158.337 1195.34 158.337 1188.23 Q158.337 1181.1 156.508 1177.56 Q154.703 1174 151.068 1174 M151.068 1170.29 Q156.879 1170.29 159.934 1174.9 Q163.013 1179.48 163.013 1188.23 Q163.013 1196.96 159.934 1201.56 Q156.879 1206.15 151.068 1206.15 Q145.258 1206.15 142.18 1201.56 Q139.124 1196.96 139.124 1188.23 Q139.124 1179.48 142.18 1174.9 Q145.258 1170.29 151.068 1170.29 Z" fill="#000000" fill-rule="evenodd" fill-opacity="1" /><path clip-path="url(#clip030)" d="M171.23 1199.6 L176.115 1199.6 L176.115 1205.48 L171.23 1205.48 L171.23 1199.6 Z" fill="#000000" fill-rule="evenodd" fill-opacity="1" /><path clip-path="url(#clip030)" d="M187.11 1201.54 L194.749 1201.54 L194.749 1175.18 L186.439 1176.84 L186.439 1172.58 L194.702 1170.92 L199.378 1170.92 L199.378 1201.54 L207.017 1201.54 L207.017 1205.48 L187.11 1205.48 L187.11 1201.54 Z" fill="#000000" fill-rule="evenodd" fill-opacity="1" /><path clip-path="url(#clip030)" d="M149.842 933.071 Q146.23 933.071 144.402 936.635 Q142.596 940.177 142.596 947.307 Q142.596 954.413 144.402 957.978 Q146.23 961.519 149.842 961.519 Q153.476 961.519 155.281 957.978 Q157.11 954.413 157.11 947.307 Q157.11 940.177 155.281 936.635 Q153.476 933.071 149.842 933.071 M149.842 929.367 Q155.652 929.367 158.707 933.973 Q161.786 938.557 161.786 947.307 Q161.786 956.033 158.707 960.64 Q155.652 965.223 149.842 965.223 Q144.031 965.223 140.953 960.64 Q137.897 956.033 137.897 947.307 Q137.897 938.557 140.953 933.973 Q144.031 929.367 149.842 929.367 Z" fill="#000000" fill-rule="evenodd" fill-opacity="1" /><path clip-path="url(#clip030)" d="M170.003 958.672 L174.888 958.672 L174.888 964.552 L170.003 964.552 L170.003 958.672 Z" fill="#000000" fill-rule="evenodd" fill-opacity="1" /><path clip-path="url(#clip030)" d="M195.073 933.071 Q191.462 933.071 189.633 936.635 Q187.827 940.177 187.827 947.307 Q187.827 954.413 189.633 957.978 Q191.462 961.519 195.073 961.519 Q198.707 961.519 200.513 957.978 Q202.341 954.413 202.341 947.307 Q202.341 940.177 200.513 936.635 Q198.707 933.071 195.073 933.071 M195.073 929.367 Q200.883 929.367 203.938 933.973 Q207.017 938.557 207.017 947.307 Q207.017 956.033 203.938 960.64 Q200.883 965.223 195.073 965.223 Q189.263 965.223 186.184 960.64 Q183.128 956.033 183.128 947.307 Q183.128 938.557 186.184 933.973 Q189.263 929.367 195.073 929.367 Z" fill="#000000" fill-rule="evenodd" fill-opacity="1" /><path clip-path="url(#clip030)" d="M151.068 692.146 Q147.457 692.146 145.629 695.71 Q143.823 699.252 143.823 706.382 Q143.823 713.488 145.629 717.053 Q147.457 720.594 151.068 720.594 Q154.703 720.594 156.508 717.053 Q158.337 713.488 158.337 706.382 Q158.337 699.252 156.508 695.71 Q154.703 692.146 151.068 692.146 M151.068 688.442 Q156.879 688.442 159.934 693.048 Q163.013 697.632 163.013 706.382 Q163.013 715.108 159.934 719.715 Q156.879 724.298 151.068 724.298 Q145.258 724.298 142.18 719.715 Q139.124 715.108 139.124 706.382 Q139.124 697.632 142.18 693.048 Q145.258 688.442 151.068 688.442 Z" fill="#000000" fill-rule="evenodd" fill-opacity="1" /><path clip-path="url(#clip030)" d="M171.23 717.747 L176.115 717.747 L176.115 723.627 L171.23 723.627 L171.23 717.747 Z" fill="#000000" fill-rule="evenodd" fill-opacity="1" /><path clip-path="url(#clip030)" d="M187.11 719.692 L194.749 719.692 L194.749 693.326 L186.439 694.993 L186.439 690.733 L194.702 689.067 L199.378 689.067 L199.378 719.692 L207.017 719.692 L207.017 723.627 L187.11 723.627 L187.11 719.692 Z" fill="#000000" fill-rule="evenodd" fill-opacity="1" /><path clip-path="url(#clip030)" d="M151.439 451.22 Q147.828 451.22 145.999 454.785 Q144.193 458.327 144.193 465.456 Q144.193 472.563 145.999 476.128 Q147.828 479.669 151.439 479.669 Q155.073 479.669 156.879 476.128 Q158.707 472.563 158.707 465.456 Q158.707 458.327 156.879 454.785 Q155.073 451.22 151.439 451.22 M151.439 447.517 Q157.249 447.517 160.304 452.123 Q163.383 456.707 163.383 465.456 Q163.383 474.183 160.304 478.79 Q157.249 483.373 151.439 483.373 Q145.629 483.373 142.55 478.79 Q139.494 474.183 139.494 465.456 Q139.494 456.707 142.55 452.123 Q145.629 447.517 151.439 447.517 Z" fill="#000000" fill-rule="evenodd" fill-opacity="1" /><path clip-path="url(#clip030)" d="M171.601 476.822 L176.485 476.822 L176.485 482.702 L171.601 482.702 L171.601 476.822 Z" fill="#000000" fill-rule="evenodd" fill-opacity="1" /><path clip-path="url(#clip030)" d="M190.698 478.767 L207.017 478.767 L207.017 482.702 L185.073 482.702 L185.073 478.767 Q187.735 476.012 192.318 471.382 Q196.925 466.73 198.105 465.387 Q200.351 462.864 201.23 461.128 Q202.133 459.369 202.133 457.679 Q202.133 454.924 200.189 453.188 Q198.267 451.452 195.165 451.452 Q192.966 451.452 190.513 452.216 Q188.082 452.98 185.304 454.531 L185.304 449.808 Q188.128 448.674 190.582 448.095 Q193.036 447.517 195.073 447.517 Q200.443 447.517 203.638 450.202 Q206.832 452.887 206.832 457.378 Q206.832 459.507 206.022 461.429 Q205.235 463.327 203.128 465.919 Q202.55 466.591 199.448 469.808 Q196.346 473.003 190.698 478.767 Z" fill="#000000" fill-rule="evenodd" fill-opacity="1" /><path clip-path="url(#clip030)" d="M150.49 210.295 Q146.879 210.295 145.05 213.86 Q143.244 217.402 143.244 224.531 Q143.244 231.638 145.05 235.203 Q146.879 238.744 150.49 238.744 Q154.124 238.744 155.929 235.203 Q157.758 231.638 157.758 224.531 Q157.758 217.402 155.929 213.86 Q154.124 210.295 150.49 210.295 M150.49 206.592 Q156.3 206.592 159.355 211.198 Q162.434 215.781 162.434 224.531 Q162.434 233.258 159.355 237.865 Q156.3 242.448 150.49 242.448 Q144.68 242.448 141.601 237.865 Q138.545 233.258 138.545 224.531 Q138.545 215.781 141.601 211.198 Q144.68 206.592 150.49 206.592 Z" fill="#000000" fill-rule="evenodd" fill-opacity="1" /><path clip-path="url(#clip030)" d="M170.652 235.897 L175.536 235.897 L175.536 241.777 L170.652 241.777 L170.652 235.897 Z" fill="#000000" fill-rule="evenodd" fill-opacity="1" /><path clip-path="url(#clip030)" d="M199.888 223.143 Q203.244 223.86 205.119 226.129 Q207.017 228.397 207.017 231.73 Q207.017 236.846 203.499 239.647 Q199.98 242.448 193.499 242.448 Q191.323 242.448 189.008 242.008 Q186.716 241.592 184.263 240.735 L184.263 236.221 Q186.207 237.355 188.522 237.934 Q190.837 238.513 193.36 238.513 Q197.758 238.513 200.05 236.777 Q202.364 235.041 202.364 231.73 Q202.364 228.675 200.212 226.962 Q198.082 225.226 194.263 225.226 L190.235 225.226 L190.235 221.383 L194.448 221.383 Q197.897 221.383 199.726 220.018 Q201.554 218.629 201.554 216.036 Q201.554 213.374 199.656 211.962 Q197.781 210.527 194.263 210.527 Q192.341 210.527 190.142 210.944 Q187.943 211.36 185.304 212.24 L185.304 208.073 Q187.966 207.332 190.281 206.962 Q192.619 206.592 194.679 206.592 Q200.003 206.592 203.105 209.022 Q206.207 211.43 206.207 215.55 Q206.207 218.42 204.563 220.411 Q202.92 222.379 199.888 223.143 Z" fill="#000000" fill-rule="evenodd" fill-opacity="1" /><path clip-path="url(#clip030)" d="M23.5434 1353.05 Q23.5434 1358.14 27.3397 1361.15 Q31.136 1364.14 37.6869 1364.14 Q44.2146 1364.14 48.0109 1361.15 Q51.8072 1358.14 51.8072 1353.05 Q51.8072 1347.95 48.0109 1344.99 Q44.2146 1342.01 37.6869 1342.01 Q31.136 1342.01 27.3397 1344.99 Q23.5434 1347.95 23.5434 1353.05 M19.7472 1353.05 Q19.7472 1345.78 24.6314 1341.43 Q29.4925 1337.08 37.6869 1337.08 Q45.8581 1337.08 50.7424 1341.43 Q55.6035 1345.78 55.6035 1353.05 Q55.6035 1360.34 50.7424 1364.71 Q45.8813 1369.07 37.6869 1369.07 Q29.4925 1369.07 24.6314 1364.71 Q19.7472 1360.34 19.7472 1353.05 Z" fill="#000000" fill-rule="evenodd" fill-opacity="1" /><path clip-path="url(#clip030)" d="M32.9415 1312.89 L18.9138 1312.89 L18.9138 1308.63 L54.9322 1308.63 L54.9322 1312.89 L51.0433 1312.89 Q53.3581 1314.23 54.4923 1316.29 Q55.6035 1318.33 55.6035 1321.2 Q55.6035 1325.89 51.8535 1328.86 Q48.1035 1331.8 41.9924 1331.8 Q35.8813 1331.8 32.1314 1328.86 Q28.3814 1325.89 28.3814 1321.2 Q28.3814 1318.33 29.5156 1316.29 Q30.6267 1314.23 32.9415 1312.89 M41.9924 1327.4 Q46.6915 1327.4 49.3766 1325.48 Q52.0387 1323.53 52.0387 1320.15 Q52.0387 1316.77 49.3766 1314.83 Q46.6915 1312.89 41.9924 1312.89 Q37.2934 1312.89 34.6313 1314.83 Q31.9462 1316.77 31.9462 1320.15 Q31.9462 1323.53 34.6313 1325.48 Q37.2934 1327.4 41.9924 1327.4 Z" fill="#000000" fill-rule="evenodd" fill-opacity="1" /><path clip-path="url(#clip030)" d="M30.0017 1281.2 L33.9832 1281.2 Q32.9878 1283 32.5017 1284.83 Q31.9925 1286.64 31.9925 1288.49 Q31.9925 1292.63 34.6313 1294.92 Q37.2471 1297.21 41.9924 1297.21 Q46.7378 1297.21 49.3766 1294.92 Q51.9924 1292.63 51.9924 1288.49 Q51.9924 1286.64 51.5062 1284.83 Q50.997 1283 50.0016 1281.2 L53.9368 1281.2 Q54.7701 1282.98 55.1868 1284.9 Q55.6035 1286.8 55.6035 1288.95 Q55.6035 1294.81 51.9229 1298.26 Q48.2424 1301.71 41.9924 1301.71 Q35.6499 1301.71 32.0156 1298.23 Q28.3814 1294.74 28.3814 1288.67 Q28.3814 1286.71 28.798 1284.83 Q29.1916 1282.96 30.0017 1281.2 Z" fill="#000000" fill-rule="evenodd" fill-opacity="1" /><path clip-path="url(#clip030)" d="M39.2841 1252.24 L54.9322 1252.24 L54.9322 1256.5 L39.423 1256.5 Q35.7424 1256.5 33.9138 1257.93 Q32.0851 1259.37 32.0851 1262.24 Q32.0851 1265.69 34.2841 1267.68 Q36.4832 1269.67 40.2795 1269.67 L54.9322 1269.67 L54.9322 1273.95 L18.9138 1273.95 L18.9138 1269.67 L33.0341 1269.67 Q30.6962 1268.14 29.5388 1266.08 Q28.3814 1264 28.3814 1261.29 Q28.3814 1256.82 31.1591 1254.53 Q33.9138 1252.24 39.2841 1252.24 Z" fill="#000000" fill-rule="evenodd" fill-opacity="1" /><path clip-path="url(#clip030)" d="M57.3396 1232.96 Q61.9692 1234.76 63.3812 1236.47 Q64.7932 1238.19 64.7932 1241.06 L64.7932 1244.46 L61.2284 1244.46 L61.2284 1241.96 Q61.2284 1240.2 60.3951 1239.23 Q59.5618 1238.26 56.4599 1237.08 L54.5155 1236.31 L29.0064 1246.8 L29.0064 1242.28 L49.284 1234.18 L29.0064 1226.08 L29.0064 1221.57 L57.3396 1232.96 Z" fill="#000000" fill-rule="evenodd" fill-opacity="1" /><path clip-path="url(#clip030)" d="M18.9138 1215.69 L18.9138 1211.43 L54.9322 1211.43 L54.9322 1215.69 L18.9138 1215.69 Z" fill="#000000" fill-rule="evenodd" fill-opacity="1" /><path clip-path="url(#clip030)" d="M40.9045 1180.34 L42.9878 1180.34 L42.9878 1199.92 Q47.3859 1199.65 49.7007 1197.28 Q51.9924 1194.9 51.9924 1190.66 Q51.9924 1188.21 51.3905 1185.92 Q50.7887 1183.6 49.585 1181.34 L53.6127 1181.34 Q54.5849 1183.63 55.0942 1186.03 Q55.6035 1188.44 55.6035 1190.92 Q55.6035 1197.12 51.9924 1200.76 Q48.3813 1204.37 42.2239 1204.37 Q35.8582 1204.37 32.1314 1200.94 Q28.3814 1197.49 28.3814 1191.66 Q28.3814 1186.43 31.761 1183.4 Q35.1174 1180.34 40.9045 1180.34 M39.6545 1184.6 Q36.1591 1184.65 34.0758 1186.57 Q31.9925 1188.46 31.9925 1191.61 Q31.9925 1195.18 34.0063 1197.33 Q36.0202 1199.46 39.6776 1199.78 L39.6545 1184.6 Z" fill="#000000" fill-rule="evenodd" fill-opacity="1" /><path clip-path="url(#clip030)" d="M39.2841 1151.8 L54.9322 1151.8 L54.9322 1156.06 L39.423 1156.06 Q35.7424 1156.06 33.9138 1157.49 Q32.0851 1158.93 32.0851 1161.8 Q32.0851 1165.25 34.2841 1167.24 Q36.4832 1169.23 40.2795 1169.23 L54.9322 1169.23 L54.9322 1173.51 L29.0064 1173.51 L29.0064 1169.23 L33.0341 1169.23 Q30.6962 1167.7 29.5388 1165.64 Q28.3814 1163.56 28.3814 1160.85 Q28.3814 1156.38 31.1591 1154.09 Q33.9138 1151.8 39.2841 1151.8 Z" fill="#000000" fill-rule="evenodd" fill-opacity="1" /><path clip-path="url(#clip030)" d="M29.0064 1143.3 L29.0064 1139.04 L54.9322 1139.04 L54.9322 1143.3 L29.0064 1143.3 M18.9138 1143.3 L18.9138 1139.04 L24.3073 1139.04 L24.3073 1143.3 L18.9138 1143.3 Z" fill="#000000" fill-rule="evenodd" fill-opacity="1" /><path clip-path="url(#clip030)" d="M40.9045 1107.96 L42.9878 1107.96 L42.9878 1127.54 Q47.3859 1127.26 49.7007 1124.9 Q51.9924 1122.52 51.9924 1118.28 Q51.9924 1115.83 51.3905 1113.53 Q50.7887 1111.22 49.585 1108.95 L53.6127 1108.95 Q54.5849 1111.24 55.0942 1113.65 Q55.6035 1116.06 55.6035 1118.53 Q55.6035 1124.74 51.9924 1128.37 Q48.3813 1131.98 42.2239 1131.98 Q35.8582 1131.98 32.1314 1128.56 Q28.3814 1125.11 28.3814 1119.28 Q28.3814 1114.04 31.761 1111.01 Q35.1174 1107.96 40.9045 1107.96 M39.6545 1112.22 Q36.1591 1112.26 34.0758 1114.18 Q31.9925 1116.08 31.9925 1119.23 Q31.9925 1122.79 34.0063 1124.95 Q36.0202 1127.08 39.6776 1127.4 L39.6545 1112.22 Z" fill="#000000" fill-rule="evenodd" fill-opacity="1" /><path clip-path="url(#clip030)" d="M51.0433 1081.78 L64.7932 1081.78 L64.7932 1086.06 L29.0064 1086.06 L29.0064 1081.78 L32.9415 1081.78 Q30.6267 1080.43 29.5156 1078.4 Q28.3814 1076.34 28.3814 1073.49 Q28.3814 1068.77 32.1314 1065.83 Q35.8813 1062.86 41.9924 1062.86 Q48.1035 1062.86 51.8535 1065.83 Q55.6035 1068.77 55.6035 1073.49 Q55.6035 1076.34 54.4923 1078.4 Q53.3581 1080.43 51.0433 1081.78 M41.9924 1067.28 Q37.2934 1067.28 34.6313 1069.23 Q31.9462 1071.15 31.9462 1074.53 Q31.9462 1077.91 34.6313 1079.85 Q37.2934 1081.78 41.9924 1081.78 Q46.6915 1081.78 49.3766 1079.85 Q52.0387 1077.91 52.0387 1074.53 Q52.0387 1071.15 49.3766 1069.23 Q46.6915 1067.28 41.9924 1067.28 Z" fill="#000000" fill-rule="evenodd" fill-opacity="1" /><path clip-path="url(#clip030)" d="M41.8998 1044.02 Q41.8998 1049.18 43.0804 1051.17 Q44.2609 1053.16 47.1081 1053.16 Q49.3766 1053.16 50.7192 1051.68 Q52.0387 1050.18 52.0387 1047.61 Q52.0387 1044.07 49.5387 1041.94 Q47.0155 1039.79 42.8489 1039.79 L41.8998 1039.79 L41.8998 1044.02 M40.1406 1035.53 L54.9322 1035.53 L54.9322 1039.79 L50.997 1039.79 Q53.3581 1041.24 54.4923 1043.42 Q55.6035 1045.6 55.6035 1048.74 Q55.6035 1052.72 53.3812 1055.09 Q51.1359 1057.42 47.3859 1057.42 Q43.0109 1057.42 40.7887 1054.51 Q38.5665 1051.57 38.5665 1045.76 L38.5665 1039.79 L38.1498 1039.79 Q35.21 1039.79 33.6128 1041.73 Q31.9925 1043.65 31.9925 1047.15 Q31.9925 1049.37 32.5249 1051.47 Q33.0573 1053.58 34.1221 1055.53 L30.1869 1055.53 Q29.2841 1053.19 28.8443 1050.99 Q28.3814 1048.79 28.3814 1046.71 Q28.3814 1041.08 31.298 1038.3 Q34.2147 1035.53 40.1406 1035.53 Z" fill="#000000" fill-rule="evenodd" fill-opacity="1" /><path clip-path="url(#clip030)" d="M32.9878 1011.73 Q32.5712 1012.45 32.386 1013.3 Q32.1776 1014.14 32.1776 1015.16 Q32.1776 1018.77 34.5387 1020.71 Q36.8767 1022.63 41.2748 1022.63 L54.9322 1022.63 L54.9322 1026.91 L29.0064 1026.91 L29.0064 1022.63 L33.0341 1022.63 Q30.673 1021.29 29.5388 1019.14 Q28.3814 1016.98 28.3814 1013.91 Q28.3814 1013.47 28.4508 1012.93 Q28.4971 1012.4 28.6129 1011.75 L32.9878 1011.73 Z" fill="#000000" fill-rule="evenodd" fill-opacity="1" /><path clip-path="url(#clip030)" d="M41.8998 995.48 Q41.8998 1000.64 43.0804 1002.63 Q44.2609 1004.62 47.1081 1004.62 Q49.3766 1004.62 50.7192 1003.14 Q52.0387 1001.64 52.0387 999.068 Q52.0387 995.526 49.5387 993.396 Q47.0155 991.244 42.8489 991.244 L41.8998 991.244 L41.8998 995.48 M40.1406 986.984 L54.9322 986.984 L54.9322 991.244 L50.997 991.244 Q53.3581 992.702 54.4923 994.878 Q55.6035 997.054 55.6035 1000.2 Q55.6035 1004.18 53.3812 1006.54 Q51.1359 1008.88 47.3859 1008.88 Q43.0109 1008.88 40.7887 1005.97 Q38.5665 1003.03 38.5665 997.216 L38.5665 991.244 L38.1498 991.244 Q35.21 991.244 33.6128 993.188 Q31.9925 995.109 31.9925 998.605 Q31.9925 1000.83 32.5249 1002.93 Q33.0573 1005.04 34.1221 1006.98 L30.1869 1006.98 Q29.2841 1004.65 28.8443 1002.45 Q28.3814 1000.25 28.3814 998.165 Q28.3814 992.54 31.298 989.762 Q34.2147 986.984 40.1406 986.984 Z" fill="#000000" fill-rule="evenodd" fill-opacity="1" /><path clip-path="url(#clip030)" d="M33.9832 958.026 Q31.1128 956.429 29.7471 954.207 Q28.3814 951.985 28.3814 948.975 Q28.3814 944.925 31.2286 942.725 Q34.0526 940.526 39.2841 940.526 L54.9322 940.526 L54.9322 944.809 L39.423 944.809 Q35.6961 944.809 33.8906 946.128 Q32.0851 947.448 32.0851 950.156 Q32.0851 953.466 34.2841 955.387 Q36.4832 957.309 40.2795 957.309 L54.9322 957.309 L54.9322 961.591 L39.423 961.591 Q35.673 961.591 33.8906 962.911 Q32.0851 964.23 32.0851 966.985 Q32.0851 970.248 34.3073 972.17 Q36.5063 974.091 40.2795 974.091 L54.9322 974.091 L54.9322 978.373 L29.0064 978.373 L29.0064 974.091 L33.0341 974.091 Q30.6499 972.633 29.5156 970.596 Q28.3814 968.559 28.3814 965.758 Q28.3814 962.934 29.8166 960.966 Q31.2517 958.975 33.9832 958.026 Z" fill="#000000" fill-rule="evenodd" fill-opacity="1" /><path clip-path="url(#clip030)" d="M40.9045 909.855 L42.9878 909.855 L42.9878 929.438 Q47.3859 929.161 49.7007 926.8 Q51.9924 924.415 51.9924 920.179 Q51.9924 917.726 51.3905 915.434 Q50.7887 913.119 49.585 910.851 L53.6127 910.851 Q54.5849 913.142 55.0942 915.55 Q55.6035 917.957 55.6035 920.434 Q55.6035 926.638 51.9924 930.272 Q48.3813 933.883 42.2239 933.883 Q35.8582 933.883 32.1314 930.457 Q28.3814 927.008 28.3814 921.175 Q28.3814 915.943 31.761 912.911 Q35.1174 909.855 40.9045 909.855 M39.6545 914.115 Q36.1591 914.161 34.0758 916.082 Q31.9925 917.98 31.9925 921.128 Q31.9925 924.693 34.0063 926.846 Q36.0202 928.976 39.6776 929.3 L39.6545 914.115 Z" fill="#000000" fill-rule="evenodd" fill-opacity="1" /><path clip-path="url(#clip030)" d="M21.6453 898.652 L29.0064 898.652 L29.0064 889.879 L32.3165 889.879 L32.3165 898.652 L46.3905 898.652 Q49.5618 898.652 50.4646 897.795 Q51.3674 896.916 51.3674 894.254 L51.3674 889.879 L54.9322 889.879 L54.9322 894.254 Q54.9322 899.184 53.1035 901.059 Q51.2516 902.934 46.3905 902.934 L32.3165 902.934 L32.3165 906.059 L29.0064 906.059 L29.0064 902.934 L21.6453 902.934 L21.6453 898.652 Z" fill="#000000" fill-rule="evenodd" fill-opacity="1" /><path clip-path="url(#clip030)" d="M32.9878 869.254 Q32.5712 869.971 32.386 870.828 Q32.1776 871.661 32.1776 872.68 Q32.1776 876.291 34.5387 878.235 Q36.8767 880.156 41.2748 880.156 L54.9322 880.156 L54.9322 884.439 L29.0064 884.439 L29.0064 880.156 L33.0341 880.156 Q30.673 878.814 29.5388 876.661 Q28.3814 874.508 28.3814 871.43 Q28.3814 870.99 28.4508 870.457 Q28.4971 869.925 28.6129 869.277 L32.9878 869.254 Z" fill="#000000" fill-rule="evenodd" fill-opacity="1" /><path clip-path="url(#clip030)" d="M31.9925 855.781 Q31.9925 859.207 34.6776 861.198 Q37.3397 863.189 41.9924 863.189 Q46.6452 863.189 49.3303 861.221 Q51.9924 859.231 51.9924 855.781 Q51.9924 852.379 49.3072 850.388 Q46.622 848.397 41.9924 848.397 Q37.386 848.397 34.7008 850.388 Q31.9925 852.379 31.9925 855.781 M28.3814 855.781 Q28.3814 850.226 31.9925 847.055 Q35.6036 843.883 41.9924 843.883 Q48.3581 843.883 51.9924 847.055 Q55.6035 850.226 55.6035 855.781 Q55.6035 861.36 51.9924 864.531 Q48.3581 867.68 41.9924 867.68 Q35.6036 867.68 31.9925 864.531 Q28.3814 861.36 28.3814 855.781 M17.0157 852.564 L17.0157 847.957 L25.7194 855.504 L25.7194 859.045 L17.0157 852.564 Z" fill="#000000" fill-rule="evenodd" fill-opacity="1" /><path clip-path="url(#clip030)" d="M29.0064 839.3 L29.0064 835.041 L49.2377 829.717 L29.0064 824.416 L29.0064 819.393 L49.2377 814.069 L29.0064 808.768 L29.0064 804.509 L54.9322 811.291 L54.9322 816.314 L33.6823 821.893 L54.9322 827.495 L54.9322 832.518 L29.0064 839.3 Z" fill="#000000" fill-rule="evenodd" fill-opacity="1" /><path clip-path="url(#clip030)" d="M51.0433 778.861 L64.7932 778.861 L64.7932 783.143 L29.0064 783.143 L29.0064 778.861 L32.9415 778.861 Q30.6267 777.518 29.5156 775.481 Q28.3814 773.421 28.3814 770.574 Q28.3814 765.851 32.1314 762.912 Q35.8813 759.949 41.9924 759.949 Q48.1035 759.949 51.8535 762.912 Q55.6035 765.851 55.6035 770.574 Q55.6035 773.421 54.4923 775.481 Q53.3581 777.518 51.0433 778.861 M41.9924 764.37 Q37.2934 764.37 34.6313 766.314 Q31.9462 768.236 31.9462 771.615 Q31.9462 774.995 34.6313 776.939 Q37.2934 778.861 41.9924 778.861 Q46.6915 778.861 49.3766 776.939 Q52.0387 774.995 52.0387 771.615 Q52.0387 768.236 49.3766 766.314 Q46.6915 764.37 41.9924 764.37 Z" fill="#000000" fill-rule="evenodd" fill-opacity="1" /><path clip-path="url(#clip030)" d="M32.9878 737.865 Q32.5712 738.583 32.386 739.44 Q32.1776 740.273 32.1776 741.291 Q32.1776 744.902 34.5387 746.847 Q36.8767 748.768 41.2748 748.768 L54.9322 748.768 L54.9322 753.051 L29.0064 753.051 L29.0064 748.768 L33.0341 748.768 Q30.673 747.426 29.5388 745.273 Q28.3814 743.12 28.3814 740.041 Q28.3814 739.602 28.4508 739.069 Q28.4971 738.537 28.6129 737.889 L32.9878 737.865 Z" fill="#000000" fill-rule="evenodd" fill-opacity="1" /><path clip-path="url(#clip030)" d="M31.9925 724.393 Q31.9925 727.819 34.6776 729.81 Q37.3397 731.801 41.9924 731.801 Q46.6452 731.801 49.3303 729.833 Q51.9924 727.842 51.9924 724.393 Q51.9924 720.991 49.3072 719 Q46.622 717.009 41.9924 717.009 Q37.386 717.009 34.7008 719 Q31.9925 720.991 31.9925 724.393 M28.3814 724.393 Q28.3814 718.838 31.9925 715.666 Q35.6036 712.495 41.9924 712.495 Q48.3581 712.495 51.9924 715.666 Q55.6035 718.838 55.6035 724.393 Q55.6035 729.972 51.9924 733.143 Q48.3581 736.291 41.9924 736.291 Q35.6036 736.291 31.9925 733.143 Q28.3814 729.972 28.3814 724.393 Z" fill="#000000" fill-rule="evenodd" fill-opacity="1" /><path clip-path="url(#clip030)" d="M32.9415 688.375 L18.9138 688.375 L18.9138 684.116 L54.9322 684.116 L54.9322 688.375 L51.0433 688.375 Q53.3581 689.718 54.4923 691.778 Q55.6035 693.815 55.6035 696.685 Q55.6035 701.384 51.8535 704.347 Q48.1035 707.287 41.9924 707.287 Q35.8813 707.287 32.1314 704.347 Q28.3814 701.384 28.3814 696.685 Q28.3814 693.815 29.5156 691.778 Q30.6267 689.718 32.9415 688.375 M41.9924 702.889 Q46.6915 702.889 49.3766 700.968 Q52.0387 699.023 52.0387 695.643 Q52.0387 692.264 49.3766 690.319 Q46.6915 688.375 41.9924 688.375 Q37.2934 688.375 34.6313 690.319 Q31.9462 692.264 31.9462 695.643 Q31.9462 699.023 34.6313 700.968 Q37.2934 702.889 41.9924 702.889 Z" fill="#000000" fill-rule="evenodd" fill-opacity="1" /><path clip-path="url(#clip030)" d="M44.7007 675.782 L29.0064 675.782 L29.0064 671.523 L44.5387 671.523 Q48.2192 671.523 50.0711 670.088 Q51.8998 668.653 51.8998 665.783 Q51.8998 662.333 49.7007 660.343 Q47.5016 658.329 43.7054 658.329 L29.0064 658.329 L29.0064 654.07 L54.9322 654.07 L54.9322 658.329 L50.9507 658.329 Q53.3118 659.88 54.4692 661.94 Q55.6035 663.977 55.6035 666.685 Q55.6035 671.153 52.8257 673.468 Q50.0479 675.782 44.7007 675.782 M28.3814 665.065 L28.3814 665.065 Z" fill="#000000" fill-rule="evenodd" fill-opacity="1" /><path clip-path="url(#clip030)" d="M18.9138 645.459 L18.9138 641.176 L40.1869 641.176 L29.0064 628.468 L29.0064 623.028 L41.1359 636.778 L54.9322 622.449 L54.9322 628.005 L42.2702 641.176 L54.9322 641.176 L54.9322 645.459 L18.9138 645.459 Z" fill="#000000" fill-rule="evenodd" fill-opacity="1" /><path clip-path="url(#clip030)" d="M21.6453 613.63 L29.0064 613.63 L29.0064 604.857 L32.3165 604.857 L32.3165 613.63 L46.3905 613.63 Q49.5618 613.63 50.4646 612.774 Q51.3674 611.894 51.3674 609.232 L51.3674 604.857 L54.9322 604.857 L54.9322 609.232 Q54.9322 614.162 53.1035 616.037 Q51.2516 617.912 46.3905 617.912 L32.3165 617.912 L32.3165 621.037 L29.0064 621.037 L29.0064 617.912 L21.6453 617.912 L21.6453 613.63 Z" fill="#000000" fill-rule="evenodd" fill-opacity="1" /><path clip-path="url(#clip030)" d="M44.7007 599.695 L29.0064 599.695 L29.0064 595.436 L44.5387 595.436 Q48.2192 595.436 50.0711 594 Q51.8998 592.565 51.8998 589.695 Q51.8998 586.246 49.7007 584.255 Q47.5016 582.241 43.7054 582.241 L29.0064 582.241 L29.0064 577.982 L54.9322 577.982 L54.9322 582.241 L50.9507 582.241 Q53.3118 583.792 54.4692 585.852 Q55.6035 587.889 55.6035 590.598 Q55.6035 595.065 52.8257 597.38 Q50.0479 599.695 44.7007 599.695 M28.3814 588.977 L28.3814 588.977 Z" fill="#000000" fill-rule="evenodd" fill-opacity="1" /><path clip-path="url(#clip030)" d="M31.9925 544.093 Q31.9925 547.519 34.6776 549.51 Q37.3397 551.501 41.9924 551.501 Q46.6452 551.501 49.3303 549.533 Q51.9924 547.542 51.9924 544.093 Q51.9924 540.691 49.3072 538.7 Q46.622 536.709 41.9924 536.709 Q37.386 536.709 34.7008 538.7 Q31.9925 540.691 31.9925 544.093 M28.3814 544.093 Q28.3814 538.538 31.9925 535.367 Q35.6036 532.195 41.9924 532.195 Q48.3581 532.195 51.9924 535.367 Q55.6035 538.538 55.6035 544.093 Q55.6035 549.672 51.9924 552.843 Q48.3581 555.991 41.9924 555.991 Q35.6036 555.991 31.9925 552.843 Q28.3814 549.672 28.3814 544.093 Z" fill="#000000" fill-rule="evenodd" fill-opacity="1" /><path clip-path="url(#clip030)" d="M32.9415 508.075 L18.9138 508.075 L18.9138 503.816 L54.9322 503.816 L54.9322 508.075 L51.0433 508.075 Q53.3581 509.418 54.4923 511.478 Q55.6035 513.515 55.6035 516.385 Q55.6035 521.084 51.8535 524.047 Q48.1035 526.987 41.9924 526.987 Q35.8813 526.987 32.1314 524.047 Q28.3814 521.084 28.3814 516.385 Q28.3814 513.515 29.5156 511.478 Q30.6267 509.418 32.9415 508.075 M41.9924 522.589 Q46.6915 522.589 49.3766 520.668 Q52.0387 518.723 52.0387 515.343 Q52.0387 511.964 49.3766 510.019 Q46.6915 508.075 41.9924 508.075 Q37.2934 508.075 34.6313 510.019 Q31.9462 511.964 31.9462 515.343 Q31.9462 518.723 34.6313 520.668 Q37.2934 522.589 41.9924 522.589 Z" fill="#000000" fill-rule="evenodd" fill-opacity="1" /><path clip-path="url(#clip030)" d="M31.9925 469.927 Q31.9925 473.353 34.6776 475.344 Q37.3397 477.334 41.9924 477.334 Q46.6452 477.334 49.3303 475.367 Q51.9924 473.376 51.9924 469.927 Q51.9924 466.524 49.3072 464.534 Q46.622 462.543 41.9924 462.543 Q37.386 462.543 34.7008 464.534 Q31.9925 466.524 31.9925 469.927 M28.3814 469.927 Q28.3814 464.372 31.9925 461.2 Q35.6036 458.029 41.9924 458.029 Q48.3581 458.029 51.9924 461.2 Q55.6035 464.372 55.6035 469.927 Q55.6035 475.506 51.9924 478.677 Q48.3581 481.825 41.9924 481.825 Q35.6036 481.825 31.9925 478.677 Q28.3814 475.506 28.3814 469.927 Z" fill="#000000" fill-rule="evenodd" fill-opacity="1" /><path clip-path="url(#clip030)" d="M30.0017 432.312 L33.9832 432.312 Q32.9878 434.117 32.5017 435.946 Q31.9925 437.751 31.9925 439.603 Q31.9925 443.747 34.6313 446.038 Q37.2471 448.33 41.9924 448.33 Q46.7378 448.33 49.3766 446.038 Q51.9924 443.747 51.9924 439.603 Q51.9924 437.751 51.5062 435.946 Q50.997 434.117 50.0016 432.312 L53.9368 432.312 Q54.7701 434.094 55.1868 436.015 Q55.6035 437.913 55.6035 440.066 Q55.6035 445.923 51.9229 449.372 Q48.2424 452.821 41.9924 452.821 Q35.6499 452.821 32.0156 449.348 Q28.3814 445.853 28.3814 439.788 Q28.3814 437.821 28.798 435.946 Q29.1916 434.071 30.0017 432.312 Z" fill="#000000" fill-rule="evenodd" fill-opacity="1" /><path clip-path="url(#clip030)" d="M29.0064 426.756 L29.0064 406.525 L32.8952 406.525 L51.5294 422.543 L51.5294 406.525 L54.9322 406.525 L54.9322 427.335 L51.0433 427.335 L32.4091 411.316 L32.4091 426.756 L29.0064 426.756 Z" fill="#000000" fill-rule="evenodd" fill-opacity="1" /><path clip-path="url(#clip030)" d="M40.9045 377.844 L42.9878 377.844 L42.9878 397.427 Q47.3859 397.15 49.7007 394.789 Q51.9924 392.404 51.9924 388.168 Q51.9924 385.715 51.3905 383.423 Q50.7887 381.108 49.585 378.84 L53.6127 378.84 Q54.5849 381.131 55.0942 383.539 Q55.6035 385.946 55.6035 388.423 Q55.6035 394.627 51.9924 398.261 Q48.3813 401.872 42.2239 401.872 Q35.8582 401.872 32.1314 398.446 Q28.3814 394.997 28.3814 389.164 Q28.3814 383.932 31.761 380.9 Q35.1174 377.844 40.9045 377.844 M39.6545 382.103 Q36.1591 382.15 34.0758 384.071 Q31.9925 385.969 31.9925 389.117 Q31.9925 392.682 34.0063 394.835 Q36.0202 396.965 39.6776 397.289 L39.6545 382.103 Z" fill="#000000" fill-rule="evenodd" fill-opacity="1" /><path clip-path="url(#clip030)" d="M18.9138 371.016 L18.9138 366.733 L40.1869 366.733 L29.0064 354.025 L29.0064 348.585 L41.1359 362.335 L54.9322 348.006 L54.9322 353.562 L42.2702 366.733 L54.9322 366.733 L54.9322 371.016 L18.9138 371.016 Z" fill="#000000" fill-rule="evenodd" fill-opacity="1" /><path clip-path="url(#clip030)" d="M29.0064 343.4 L29.0064 339.141 L54.9322 339.141 L54.9322 343.4 L29.0064 343.4 M18.9138 343.4 L18.9138 339.141 L24.3073 339.141 L24.3073 343.4 L18.9138 343.4 Z" fill="#000000" fill-rule="evenodd" fill-opacity="1" /><path clip-path="url(#clip030)" d="M29.0064 332.706 L29.0064 328.446 L49.2377 323.122 L29.0064 317.821 L29.0064 312.798 L49.2377 307.474 L29.0064 302.173 L29.0064 297.914 L54.9322 304.696 L54.9322 309.72 L33.6823 315.298 L54.9322 320.9 L54.9322 325.923 L29.0064 332.706 Z" fill="#000000" fill-rule="evenodd" fill-opacity="1" /><path clip-path="url(#clip030)" d="M41.8998 279.673 Q41.8998 284.835 43.0804 286.826 Q44.2609 288.817 47.1081 288.817 Q49.3766 288.817 50.7192 287.335 Q52.0387 285.831 52.0387 283.261 Q52.0387 279.72 49.5387 277.59 Q47.0155 275.437 42.8489 275.437 L41.8998 275.437 L41.8998 279.673 M40.1406 271.178 L54.9322 271.178 L54.9322 275.437 L50.997 275.437 Q53.3581 276.896 54.4923 279.072 Q55.6035 281.248 55.6035 284.396 Q55.6035 288.377 53.3812 290.738 Q51.1359 293.076 47.3859 293.076 Q43.0109 293.076 40.7887 290.16 Q38.5665 287.22 38.5665 281.41 L38.5665 275.437 L38.1498 275.437 Q35.21 275.437 33.6128 277.382 Q31.9925 279.303 31.9925 282.798 Q31.9925 285.021 32.5249 287.127 Q33.0573 289.234 34.1221 291.178 L30.1869 291.178 Q29.2841 288.84 28.8443 286.641 Q28.3814 284.442 28.3814 282.359 Q28.3814 276.734 31.298 273.956 Q34.2147 271.178 40.1406 271.178 Z" fill="#000000" fill-rule="evenodd" fill-opacity="1" /><path clip-path="url(#clip030)" d="M16.8537 250.275 L16.8537 245.669 L25.5573 253.215 L25.5573 256.757 L16.8537 250.275 M39.2841 240.854 L54.9322 240.854 L54.9322 245.113 L39.423 245.113 Q35.7424 245.113 33.9138 246.549 Q32.0851 247.984 32.0851 250.854 Q32.0851 254.303 34.2841 256.294 Q36.4832 258.285 40.2795 258.285 L54.9322 258.285 L54.9322 262.567 L29.0064 262.567 L29.0064 258.285 L33.0341 258.285 Q30.6962 256.757 29.5388 254.697 Q28.3814 252.613 28.3814 249.905 Q28.3814 245.438 31.1591 243.146 Q33.9138 240.854 39.2841 240.854 Z" fill="#000000" fill-rule="evenodd" fill-opacity="1" /><path clip-path="url(#clip030)" d="M1123.11 12.096 L1174.27 12.096 L1174.27 18.9825 L1152.8 18.9825 L1152.8 72.576 L1144.58 72.576 L1144.58 18.9825 L1123.11 18.9825 L1123.11 12.096 Z" fill="#000000" fill-rule="evenodd" fill-opacity="1" /><path clip-path="url(#clip030)" d="M1195.95 34.1734 Q1194.69 33.4443 1193.19 33.1202 Q1191.73 32.7556 1189.95 32.7556 Q1183.63 32.7556 1180.23 36.8875 Q1176.87 40.9789 1176.87 48.6757 L1176.87 72.576 L1169.37 72.576 L1169.37 27.2059 L1176.87 27.2059 L1176.87 34.2544 Q1179.22 30.1225 1182.98 28.1376 Q1186.75 26.1121 1192.14 26.1121 Q1192.91 26.1121 1193.84 26.2337 Q1194.77 26.3147 1195.91 26.5172 L1195.95 34.1734 Z" fill="#000000" fill-rule="evenodd" fill-opacity="1" /><path clip-path="url(#clip030)" d="M1199.43 27.2059 L1206.88 27.2059 L1216.2 62.6108 L1225.48 27.2059 L1234.27 27.2059 L1243.58 62.6108 L1252.86 27.2059 L1260.31 27.2059 L1248.45 72.576 L1239.65 72.576 L1229.89 35.3887 L1220.09 72.576 L1211.3 72.576 L1199.43 27.2059 Z" fill="#000000" fill-rule="evenodd" fill-opacity="1" /><path clip-path="url(#clip030)" d="M1292.24 49.7694 Q1283.2 49.7694 1279.72 51.8354 Q1276.23 53.9013 1276.23 58.8839 Q1276.23 62.8538 1278.83 65.2034 Q1281.46 67.5124 1285.96 67.5124 Q1292.15 67.5124 1295.88 63.1374 Q1299.65 58.7219 1299.65 51.4303 L1299.65 49.7694 L1292.24 49.7694 M1307.1 46.6907 L1307.1 72.576 L1299.65 72.576 L1299.65 65.6895 Q1297.1 69.8214 1293.29 71.8063 Q1289.48 73.7508 1283.97 73.7508 Q1277 73.7508 1272.87 69.8619 Q1268.78 65.9325 1268.78 59.3701 Q1268.78 51.7138 1273.88 47.825 Q1279.03 43.9361 1289.2 43.9361 L1299.65 43.9361 L1299.65 43.2069 Q1299.65 38.0623 1296.25 35.2672 Q1292.88 32.4315 1286.77 32.4315 Q1282.88 32.4315 1279.19 33.3632 Q1275.51 34.295 1272.1 36.1584 L1272.1 29.2718 Q1276.19 27.692 1280.04 26.9223 Q1283.89 26.1121 1287.54 26.1121 Q1297.38 26.1121 1302.24 31.2163 Q1307.1 36.3204 1307.1 46.6907 Z" fill="#000000" fill-rule="evenodd" fill-opacity="1" /><path clip-path="url(#clip030)" d="M1322.7 9.54393 L1330.15 9.54393 L1330.15 33.9304 L1335.22 30.2846 L1338.29 34.5785 L1330.15 40.2903 L1330.15 72.576 L1322.7 72.576 L1322.7 45.597 L1317.72 49.1618 L1314.72 44.8678 L1322.7 39.156 L1322.7 9.54393 Z" fill="#000000" fill-rule="evenodd" fill-opacity="1" /><path clip-path="url(#clip030)" d="M1363.61 32.4315 Q1357.62 32.4315 1354.13 37.1306 Q1350.65 41.7891 1350.65 49.9314 Q1350.65 58.0738 1354.09 62.7728 Q1357.58 67.4314 1363.61 67.4314 Q1369.57 67.4314 1373.05 62.7323 Q1376.53 58.0333 1376.53 49.9314 Q1376.53 41.8701 1373.05 37.1711 Q1369.57 32.4315 1363.61 32.4315 M1363.61 26.1121 Q1373.33 26.1121 1378.88 32.4315 Q1384.43 38.7509 1384.43 49.9314 Q1384.43 61.0714 1378.88 67.4314 Q1373.33 73.7508 1363.61 73.7508 Q1353.85 73.7508 1348.3 67.4314 Q1342.79 61.0714 1342.79 49.9314 Q1342.79 38.7509 1348.3 32.4315 Q1353.85 26.1121 1363.61 26.1121 Z" fill="#000000" fill-rule="evenodd" fill-opacity="1" /><path clip-path="url(#clip030)" d="M1418.02 5.93863 L1426.08 5.93863 L1412.87 21.17 L1406.67 21.17 L1418.02 5.93863 M1425.71 28.5427 L1425.71 35.5912 Q1422.55 33.9709 1419.15 33.1607 Q1415.75 32.3505 1412.1 32.3505 Q1406.55 32.3505 1403.76 34.0519 Q1401 35.7533 1401 39.156 Q1401 41.7486 1402.99 43.2475 Q1404.97 44.7058 1410.97 46.0426 L1413.52 46.6097 Q1421.46 48.3111 1424.78 51.4303 Q1428.14 54.509 1428.14 60.0587 Q1428.14 66.3781 1423.12 70.0644 Q1418.14 73.7508 1409.39 73.7508 Q1405.74 73.7508 1401.77 73.0216 Q1397.84 72.3329 1393.47 70.9151 L1393.47 63.2184 Q1397.6 65.3654 1401.61 66.4591 Q1405.62 67.5124 1409.55 67.5124 Q1414.82 67.5124 1417.65 65.73 Q1420.49 63.9071 1420.49 60.6258 Q1420.49 57.5877 1418.42 55.9673 Q1416.4 54.3469 1409.47 52.8481 L1406.88 52.2405 Q1399.95 50.7821 1396.87 47.7845 Q1393.79 44.7463 1393.79 39.4801 Q1393.79 33.0797 1398.33 29.5959 Q1402.87 26.1121 1411.21 26.1121 Q1415.34 26.1121 1418.99 26.7198 Q1422.63 27.3274 1425.71 28.5427 Z" fill="#000000" fill-rule="evenodd" fill-opacity="1" /><path clip-path="url(#clip030)" d="M1472.66 28.9478 L1472.66 35.9153 Q1469.5 34.1734 1466.3 33.3227 Q1463.14 32.4315 1459.9 32.4315 Q1452.65 32.4315 1448.64 37.0496 Q1444.63 41.6271 1444.63 49.9314 Q1444.63 58.2358 1448.64 62.8538 Q1452.65 67.4314 1459.9 67.4314 Q1463.14 67.4314 1466.3 66.5807 Q1469.5 65.6895 1472.66 63.9476 L1472.66 70.8341 Q1469.54 72.2924 1466.18 73.0216 Q1462.86 73.7508 1459.09 73.7508 Q1448.84 73.7508 1442.81 67.3098 Q1436.77 60.8689 1436.77 49.9314 Q1436.77 38.832 1442.85 32.472 Q1448.97 26.1121 1459.58 26.1121 Q1463.02 26.1121 1466.3 26.8413 Q1469.58 27.5299 1472.66 28.9478 M1464.12 6.22219 L1472.18 6.22219 L1458.97 21.4536 L1452.77 21.4536 L1464.12 6.22219 Z" fill="#000000" fill-rule="evenodd" fill-opacity="1" /><path clip-path="url(#clip032)" d="
M1297.89 1169.11 L800.307 1169.11 L1795.47 1169.11 L1297.89 1169.11 L1297.89 944.251 L1297.89 1169.11  Z
  " fill="#009af9" fill-rule="evenodd" fill-opacity="1"/>
<polyline clip-path="url(#clip032)" style="stroke:#000000; stroke-linecap:butt; stroke-linejoin:round; stroke-width:4; stroke-opacity:1; fill:none" points="
  1297.89,1169.11 800.307,1169.11 1795.47,1169.11 1297.89,1169.11 1297.89,944.251 1297.89,1169.11 
  "/>
<path clip-path="url(#clip032)" d="
M2293.05 944.251 L2293.05 879.653 L302.727 879.653 L302.727 944.251 L2293.05 944.251 L2293.05 879.653 L2293.05 944.251  Z
  " fill="#009af9" fill-rule="evenodd" fill-opacity="1"/>
<polyline clip-path="url(#clip032)" style="stroke:#000000; stroke-linecap:butt; stroke-linejoin:round; stroke-width:4; stroke-opacity:1; fill:none" points="
  2293.05,944.251 2293.05,879.653 302.727,879.653 302.727,944.251 2293.05,944.251 2293.05,879.653 2293.05,944.251 
  "/>
<path clip-path="url(#clip032)" d="
M2293.05 793.576 L302.727 793.576 L302.727 879.653 L2293.05 879.653 L2293.05 793.576 L1297.89 793.576 L2293.05 793.576  Z
  " fill="#009af9" fill-rule="evenodd" fill-opacity="1"/>
<polyline clip-path="url(#clip032)" style="stroke:#000000; stroke-linecap:butt; stroke-linejoin:round; stroke-width:4; stroke-opacity:1; fill:none" points="
  2293.05,793.576 302.727,793.576 302.727,879.653 2293.05,879.653 2293.05,793.576 1297.89,793.576 2293.05,793.576 
  "/>
<path clip-path="url(#clip032)" d="
M1297.89 567.69 L800.307 567.69 L1795.47 567.69 L1297.89 567.69 L1297.89 793.576 L1297.89 567.69  Z
  " fill="#009af9" fill-rule="evenodd" fill-opacity="1"/>
<polyline clip-path="url(#clip032)" style="stroke:#000000; stroke-linecap:butt; stroke-linejoin:round; stroke-width:4; stroke-opacity:1; fill:none" points="
  1297.89,567.69 800.307,567.69 1795.47,567.69 1297.89,567.69 1297.89,793.576 1297.89,567.69 
  "/>
<circle clip-path="url(#clip032)" cx="1297.89" cy="1181.92" r="14" fill="#009af9" fill-rule="evenodd" fill-opacity="1" stroke="#000000" stroke-opacity="1" stroke-width="3.2"/>
<circle clip-path="url(#clip032)" cx="1297.89" cy="1248.46" r="14" fill="#009af9" fill-rule="evenodd" fill-opacity="1" stroke="#000000" stroke-opacity="1" stroke-width="3.2"/>
<circle clip-path="url(#clip032)" cx="1297.89" cy="1179.22" r="14" fill="#009af9" fill-rule="evenodd" fill-opacity="1" stroke="#000000" stroke-opacity="1" stroke-width="3.2"/>
<circle clip-path="url(#clip032)" cx="1297.89" cy="566.481" r="14" fill="#009af9" fill-rule="evenodd" fill-opacity="1" stroke="#000000" stroke-opacity="1" stroke-width="3.2"/>
<circle clip-path="url(#clip032)" cx="1297.89" cy="247.981" r="14" fill="#009af9" fill-rule="evenodd" fill-opacity="1" stroke="#000000" stroke-opacity="1" stroke-width="3.2"/>
<circle clip-path="url(#clip032)" cx="1297.89" cy="1294.43" r="14" fill="#009af9" fill-rule="evenodd" fill-opacity="1" stroke="#000000" stroke-opacity="1" stroke-width="3.2"/>
<circle clip-path="url(#clip032)" cx="1297.89" cy="514.992" r="14" fill="#009af9" fill-rule="evenodd" fill-opacity="1" stroke="#000000" stroke-opacity="1" stroke-width="3.2"/>
<circle clip-path="url(#clip032)" cx="1297.89" cy="1180.32" r="14" fill="#009af9" fill-rule="evenodd" fill-opacity="1" stroke="#000000" stroke-opacity="1" stroke-width="3.2"/>
<circle clip-path="url(#clip032)" cx="1297.89" cy="537.926" r="14" fill="#009af9" fill-rule="evenodd" fill-opacity="1" stroke="#000000" stroke-opacity="1" stroke-width="3.2"/>
<circle clip-path="url(#clip032)" cx="1297.89" cy="370.183" r="14" fill="#009af9" fill-rule="evenodd" fill-opacity="1" stroke="#000000" stroke-opacity="1" stroke-width="3.2"/>
<circle clip-path="url(#clip032)" cx="1297.89" cy="1184.65" r="14" fill="#009af9" fill-rule="evenodd" fill-opacity="1" stroke="#000000" stroke-opacity="1" stroke-width="3.2"/>
<circle clip-path="url(#clip032)" cx="1297.89" cy="443.92" r="14" fill="#009af9" fill-rule="evenodd" fill-opacity="1" stroke="#000000" stroke-opacity="1" stroke-width="3.2"/>
<circle clip-path="url(#clip032)" cx="1297.89" cy="544.103" r="14" fill="#009af9" fill-rule="evenodd" fill-opacity="1" stroke="#000000" stroke-opacity="1" stroke-width="3.2"/>
<circle clip-path="url(#clip032)" cx="1297.89" cy="372.31" r="14" fill="#009af9" fill-rule="evenodd" fill-opacity="1" stroke="#000000" stroke-opacity="1" stroke-width="3.2"/>
<circle clip-path="url(#clip032)" cx="1297.89" cy="429.726" r="14" fill="#009af9" fill-rule="evenodd" fill-opacity="1" stroke="#000000" stroke-opacity="1" stroke-width="3.2"/>
<circle clip-path="url(#clip032)" cx="1297.89" cy="1172.12" r="14" fill="#009af9" fill-rule="evenodd" fill-opacity="1" stroke="#000000" stroke-opacity="1" stroke-width="3.2"/>
<circle clip-path="url(#clip032)" cx="1297.89" cy="549.003" r="14" fill="#009af9" fill-rule="evenodd" fill-opacity="1" stroke="#000000" stroke-opacity="1" stroke-width="3.2"/>
<circle clip-path="url(#clip032)" cx="1297.89" cy="1206.87" r="14" fill="#009af9" fill-rule="evenodd" fill-opacity="1" stroke="#000000" stroke-opacity="1" stroke-width="3.2"/>
<circle clip-path="url(#clip032)" cx="1297.89" cy="557.208" r="14" fill="#009af9" fill-rule="evenodd" fill-opacity="1" stroke="#000000" stroke-opacity="1" stroke-width="3.2"/>
<circle clip-path="url(#clip032)" cx="1297.89" cy="1195.3" r="14" fill="#009af9" fill-rule="evenodd" fill-opacity="1" stroke="#000000" stroke-opacity="1" stroke-width="3.2"/>
<circle clip-path="url(#clip032)" cx="1297.89" cy="416.157" r="14" fill="#009af9" fill-rule="evenodd" fill-opacity="1" stroke="#000000" stroke-opacity="1" stroke-width="3.2"/>
<circle clip-path="url(#clip032)" cx="1297.89" cy="562.708" r="14" fill="#009af9" fill-rule="evenodd" fill-opacity="1" stroke="#000000" stroke-opacity="1" stroke-width="3.2"/>
<circle clip-path="url(#clip032)" cx="1297.89" cy="564.14" r="14" fill="#009af9" fill-rule="evenodd" fill-opacity="1" stroke="#000000" stroke-opacity="1" stroke-width="3.2"/>
<circle clip-path="url(#clip032)" cx="1297.89" cy="517.967" r="14" fill="#009af9" fill-rule="evenodd" fill-opacity="1" stroke="#000000" stroke-opacity="1" stroke-width="3.2"/>
<circle clip-path="url(#clip032)" cx="1297.89" cy="452.375" r="14" fill="#009af9" fill-rule="evenodd" fill-opacity="1" stroke="#000000" stroke-opacity="1" stroke-width="3.2"/>
<circle clip-path="url(#clip032)" cx="1297.89" cy="540.88" r="14" fill="#009af9" fill-rule="evenodd" fill-opacity="1" stroke="#000000" stroke-opacity="1" stroke-width="3.2"/>
<circle clip-path="url(#clip032)" cx="1297.89" cy="493.165" r="14" fill="#009af9" fill-rule="evenodd" fill-opacity="1" stroke="#000000" stroke-opacity="1" stroke-width="3.2"/>
<circle clip-path="url(#clip032)" cx="1297.89" cy="523.897" r="14" fill="#009af9" fill-rule="evenodd" fill-opacity="1" stroke="#000000" stroke-opacity="1" stroke-width="3.2"/>
<circle clip-path="url(#clip032)" cx="1297.89" cy="436.648" r="14" fill="#009af9" fill-rule="evenodd" fill-opacity="1" stroke="#000000" stroke-opacity="1" stroke-width="3.2"/>
<circle clip-path="url(#clip032)" cx="1297.89" cy="461.631" r="14" fill="#009af9" fill-rule="evenodd" fill-opacity="1" stroke="#000000" stroke-opacity="1" stroke-width="3.2"/>
<circle clip-path="url(#clip032)" cx="1297.89" cy="543.917" r="14" fill="#009af9" fill-rule="evenodd" fill-opacity="1" stroke="#000000" stroke-opacity="1" stroke-width="3.2"/>
<circle clip-path="url(#clip032)" cx="1297.89" cy="480.712" r="14" fill="#009af9" fill-rule="evenodd" fill-opacity="1" stroke="#000000" stroke-opacity="1" stroke-width="3.2"/>
<circle clip-path="url(#clip032)" cx="1297.89" cy="524.522" r="14" fill="#009af9" fill-rule="evenodd" fill-opacity="1" stroke="#000000" stroke-opacity="1" stroke-width="3.2"/>
<circle clip-path="url(#clip032)" cx="1297.89" cy="508.631" r="14" fill="#009af9" fill-rule="evenodd" fill-opacity="1" stroke="#000000" stroke-opacity="1" stroke-width="3.2"/>
<circle clip-path="url(#clip032)" cx="1297.89" cy="276.091" r="14" fill="#009af9" fill-rule="evenodd" fill-opacity="1" stroke="#000000" stroke-opacity="1" stroke-width="3.2"/>
<circle clip-path="url(#clip032)" cx="1297.89" cy="544.012" r="14" fill="#009af9" fill-rule="evenodd" fill-opacity="1" stroke="#000000" stroke-opacity="1" stroke-width="3.2"/>
<circle clip-path="url(#clip032)" cx="1297.89" cy="281.71" r="14" fill="#009af9" fill-rule="evenodd" fill-opacity="1" stroke="#000000" stroke-opacity="1" stroke-width="3.2"/>
<circle clip-path="url(#clip032)" cx="1297.89" cy="410.015" r="14" fill="#009af9" fill-rule="evenodd" fill-opacity="1" stroke="#000000" stroke-opacity="1" stroke-width="3.2"/>
<circle clip-path="url(#clip032)" cx="1297.89" cy="561.203" r="14" fill="#009af9" fill-rule="evenodd" fill-opacity="1" stroke="#000000" stroke-opacity="1" stroke-width="3.2"/>
<circle clip-path="url(#clip032)" cx="1297.89" cy="346.952" r="14" fill="#009af9" fill-rule="evenodd" fill-opacity="1" stroke="#000000" stroke-opacity="1" stroke-width="3.2"/>
<circle clip-path="url(#clip032)" cx="1297.89" cy="1240.97" r="14" fill="#009af9" fill-rule="evenodd" fill-opacity="1" stroke="#000000" stroke-opacity="1" stroke-width="3.2"/>
<circle clip-path="url(#clip032)" cx="1297.89" cy="1224.5" r="14" fill="#009af9" fill-rule="evenodd" fill-opacity="1" stroke="#000000" stroke-opacity="1" stroke-width="3.2"/>
<circle clip-path="url(#clip032)" cx="1297.89" cy="533.805" r="14" fill="#009af9" fill-rule="evenodd" fill-opacity="1" stroke="#000000" stroke-opacity="1" stroke-width="3.2"/>
<circle clip-path="url(#clip032)" cx="1297.89" cy="395.84" r="14" fill="#009af9" fill-rule="evenodd" fill-opacity="1" stroke="#000000" stroke-opacity="1" stroke-width="3.2"/>
<circle clip-path="url(#clip032)" cx="1297.89" cy="511.875" r="14" fill="#009af9" fill-rule="evenodd" fill-opacity="1" stroke="#000000" stroke-opacity="1" stroke-width="3.2"/>
<circle clip-path="url(#clip032)" cx="1297.89" cy="553.823" r="14" fill="#009af9" fill-rule="evenodd" fill-opacity="1" stroke="#000000" stroke-opacity="1" stroke-width="3.2"/>
<circle clip-path="url(#clip032)" cx="1297.89" cy="1299.46" r="14" fill="#009af9" fill-rule="evenodd" fill-opacity="1" stroke="#000000" stroke-opacity="1" stroke-width="3.2"/>
<circle clip-path="url(#clip032)" cx="1297.89" cy="506.08" r="14" fill="#009af9" fill-rule="evenodd" fill-opacity="1" stroke="#000000" stroke-opacity="1" stroke-width="3.2"/>
<circle clip-path="url(#clip032)" cx="1297.89" cy="468.012" r="14" fill="#009af9" fill-rule="evenodd" fill-opacity="1" stroke="#000000" stroke-opacity="1" stroke-width="3.2"/>
<circle clip-path="url(#clip032)" cx="1297.89" cy="435.662" r="14" fill="#009af9" fill-rule="evenodd" fill-opacity="1" stroke="#000000" stroke-opacity="1" stroke-width="3.2"/>
<circle clip-path="url(#clip032)" cx="1297.89" cy="561.811" r="14" fill="#009af9" fill-rule="evenodd" fill-opacity="1" stroke="#000000" stroke-opacity="1" stroke-width="3.2"/>
<circle clip-path="url(#clip032)" cx="1297.89" cy="562.795" r="14" fill="#009af9" fill-rule="evenodd" fill-opacity="1" stroke="#000000" stroke-opacity="1" stroke-width="3.2"/>
<circle clip-path="url(#clip032)" cx="1297.89" cy="327.528" r="14" fill="#009af9" fill-rule="evenodd" fill-opacity="1" stroke="#000000" stroke-opacity="1" stroke-width="3.2"/>
<circle clip-path="url(#clip032)" cx="1297.89" cy="485.777" r="14" fill="#009af9" fill-rule="evenodd" fill-opacity="1" stroke="#000000" stroke-opacity="1" stroke-width="3.2"/>
<circle clip-path="url(#clip032)" cx="1297.89" cy="458.425" r="14" fill="#009af9" fill-rule="evenodd" fill-opacity="1" stroke="#000000" stroke-opacity="1" stroke-width="3.2"/>
<circle clip-path="url(#clip032)" cx="1297.89" cy="1392.88" r="14" fill="#009af9" fill-rule="evenodd" fill-opacity="1" stroke="#000000" stroke-opacity="1" stroke-width="3.2"/>
<circle clip-path="url(#clip032)" cx="1297.89" cy="539.269" r="14" fill="#009af9" fill-rule="evenodd" fill-opacity="1" stroke="#000000" stroke-opacity="1" stroke-width="3.2"/>
<circle clip-path="url(#clip032)" cx="1297.89" cy="519.419" r="14" fill="#009af9" fill-rule="evenodd" fill-opacity="1" stroke="#000000" stroke-opacity="1" stroke-width="3.2"/>
<circle clip-path="url(#clip032)" cx="1297.89" cy="524.469" r="14" fill="#009af9" fill-rule="evenodd" fill-opacity="1" stroke="#000000" stroke-opacity="1" stroke-width="3.2"/>
<circle clip-path="url(#clip032)" cx="1297.89" cy="522.296" r="14" fill="#009af9" fill-rule="evenodd" fill-opacity="1" stroke="#000000" stroke-opacity="1" stroke-width="3.2"/>
<circle clip-path="url(#clip032)" cx="1297.89" cy="337.936" r="14" fill="#009af9" fill-rule="evenodd" fill-opacity="1" stroke="#000000" stroke-opacity="1" stroke-width="3.2"/>
<circle clip-path="url(#clip032)" cx="1297.89" cy="162.047" r="14" fill="#009af9" fill-rule="evenodd" fill-opacity="1" stroke="#000000" stroke-opacity="1" stroke-width="3.2"/>
<circle clip-path="url(#clip032)" cx="1297.89" cy="1227.45" r="14" fill="#009af9" fill-rule="evenodd" fill-opacity="1" stroke="#000000" stroke-opacity="1" stroke-width="3.2"/>
<circle clip-path="url(#clip032)" cx="1297.89" cy="1222.14" r="14" fill="#009af9" fill-rule="evenodd" fill-opacity="1" stroke="#000000" stroke-opacity="1" stroke-width="3.2"/>
<circle clip-path="url(#clip032)" cx="1297.89" cy="1206.5" r="14" fill="#009af9" fill-rule="evenodd" fill-opacity="1" stroke="#000000" stroke-opacity="1" stroke-width="3.2"/>
<circle clip-path="url(#clip032)" cx="1297.89" cy="553.254" r="14" fill="#009af9" fill-rule="evenodd" fill-opacity="1" stroke="#000000" stroke-opacity="1" stroke-width="3.2"/>
<circle clip-path="url(#clip032)" cx="1297.89" cy="496.647" r="14" fill="#009af9" fill-rule="evenodd" fill-opacity="1" stroke="#000000" stroke-opacity="1" stroke-width="3.2"/>
<circle clip-path="url(#clip032)" cx="1297.89" cy="476.724" r="14" fill="#009af9" fill-rule="evenodd" fill-opacity="1" stroke="#000000" stroke-opacity="1" stroke-width="3.2"/>
<circle clip-path="url(#clip032)" cx="1297.89" cy="502.418" r="14" fill="#009af9" fill-rule="evenodd" fill-opacity="1" stroke="#000000" stroke-opacity="1" stroke-width="3.2"/>
<circle clip-path="url(#clip032)" cx="1297.89" cy="422.242" r="14" fill="#009af9" fill-rule="evenodd" fill-opacity="1" stroke="#000000" stroke-opacity="1" stroke-width="3.2"/>
<circle clip-path="url(#clip032)" cx="1297.89" cy="1202.47" r="14" fill="#009af9" fill-rule="evenodd" fill-opacity="1" stroke="#000000" stroke-opacity="1" stroke-width="3.2"/>
<circle clip-path="url(#clip032)" cx="1297.89" cy="548.688" r="14" fill="#009af9" fill-rule="evenodd" fill-opacity="1" stroke="#000000" stroke-opacity="1" stroke-width="3.2"/>
<circle clip-path="url(#clip032)" cx="1297.89" cy="541.53" r="14" fill="#009af9" fill-rule="evenodd" fill-opacity="1" stroke="#000000" stroke-opacity="1" stroke-width="3.2"/>
<circle clip-path="url(#clip032)" cx="1297.89" cy="505.982" r="14" fill="#009af9" fill-rule="evenodd" fill-opacity="1" stroke="#000000" stroke-opacity="1" stroke-width="3.2"/>
<circle clip-path="url(#clip032)" cx="1297.89" cy="559.84" r="14" fill="#009af9" fill-rule="evenodd" fill-opacity="1" stroke="#000000" stroke-opacity="1" stroke-width="3.2"/>
<circle clip-path="url(#clip032)" cx="1297.89" cy="528.741" r="14" fill="#009af9" fill-rule="evenodd" fill-opacity="1" stroke="#000000" stroke-opacity="1" stroke-width="3.2"/>
<circle clip-path="url(#clip032)" cx="1297.89" cy="1235.43" r="14" fill="#009af9" fill-rule="evenodd" fill-opacity="1" stroke="#000000" stroke-opacity="1" stroke-width="3.2"/>
<circle clip-path="url(#clip032)" cx="1297.89" cy="414.991" r="14" fill="#009af9" fill-rule="evenodd" fill-opacity="1" stroke="#000000" stroke-opacity="1" stroke-width="3.2"/>
<circle clip-path="url(#clip032)" cx="1297.89" cy="533.916" r="14" fill="#009af9" fill-rule="evenodd" fill-opacity="1" stroke="#000000" stroke-opacity="1" stroke-width="3.2"/>
<circle clip-path="url(#clip032)" cx="1297.89" cy="307.707" r="14" fill="#009af9" fill-rule="evenodd" fill-opacity="1" stroke="#000000" stroke-opacity="1" stroke-width="3.2"/>
<circle clip-path="url(#clip032)" cx="1297.89" cy="1183.73" r="14" fill="#009af9" fill-rule="evenodd" fill-opacity="1" stroke="#000000" stroke-opacity="1" stroke-width="3.2"/>
<circle clip-path="url(#clip032)" cx="1297.89" cy="1197.36" r="14" fill="#009af9" fill-rule="evenodd" fill-opacity="1" stroke="#000000" stroke-opacity="1" stroke-width="3.2"/>
<circle clip-path="url(#clip032)" cx="1297.89" cy="173.94" r="14" fill="#009af9" fill-rule="evenodd" fill-opacity="1" stroke="#000000" stroke-opacity="1" stroke-width="3.2"/>
<circle clip-path="url(#clip032)" cx="1297.89" cy="467.408" r="14" fill="#009af9" fill-rule="evenodd" fill-opacity="1" stroke="#000000" stroke-opacity="1" stroke-width="3.2"/>
<circle clip-path="url(#clip032)" cx="1297.89" cy="1322.11" r="14" fill="#009af9" fill-rule="evenodd" fill-opacity="1" stroke="#000000" stroke-opacity="1" stroke-width="3.2"/>
<circle clip-path="url(#clip032)" cx="1297.89" cy="520.205" r="14" fill="#009af9" fill-rule="evenodd" fill-opacity="1" stroke="#000000" stroke-opacity="1" stroke-width="3.2"/>
<circle clip-path="url(#clip032)" cx="1297.89" cy="1210.04" r="14" fill="#009af9" fill-rule="evenodd" fill-opacity="1" stroke="#000000" stroke-opacity="1" stroke-width="3.2"/>
<circle clip-path="url(#clip032)" cx="1297.89" cy="550.865" r="14" fill="#009af9" fill-rule="evenodd" fill-opacity="1" stroke="#000000" stroke-opacity="1" stroke-width="3.2"/>
<circle clip-path="url(#clip032)" cx="1297.89" cy="274.62" r="14" fill="#009af9" fill-rule="evenodd" fill-opacity="1" stroke="#000000" stroke-opacity="1" stroke-width="3.2"/>
<circle clip-path="url(#clip032)" cx="1297.89" cy="553.771" r="14" fill="#009af9" fill-rule="evenodd" fill-opacity="1" stroke="#000000" stroke-opacity="1" stroke-width="3.2"/>
<circle clip-path="url(#clip032)" cx="1297.89" cy="390.06" r="14" fill="#009af9" fill-rule="evenodd" fill-opacity="1" stroke="#000000" stroke-opacity="1" stroke-width="3.2"/>
<circle clip-path="url(#clip032)" cx="1297.89" cy="1197.15" r="14" fill="#009af9" fill-rule="evenodd" fill-opacity="1" stroke="#000000" stroke-opacity="1" stroke-width="3.2"/>
<circle clip-path="url(#clip032)" cx="1297.89" cy="1206" r="14" fill="#009af9" fill-rule="evenodd" fill-opacity="1" stroke="#000000" stroke-opacity="1" stroke-width="3.2"/>
<circle clip-path="url(#clip032)" cx="1297.89" cy="543.405" r="14" fill="#009af9" fill-rule="evenodd" fill-opacity="1" stroke="#000000" stroke-opacity="1" stroke-width="3.2"/>
<circle clip-path="url(#clip032)" cx="1297.89" cy="567.453" r="14" fill="#009af9" fill-rule="evenodd" fill-opacity="1" stroke="#000000" stroke-opacity="1" stroke-width="3.2"/>
<circle clip-path="url(#clip032)" cx="1297.89" cy="405.136" r="14" fill="#009af9" fill-rule="evenodd" fill-opacity="1" stroke="#000000" stroke-opacity="1" stroke-width="3.2"/>
<circle clip-path="url(#clip032)" cx="1297.89" cy="553.784" r="14" fill="#009af9" fill-rule="evenodd" fill-opacity="1" stroke="#000000" stroke-opacity="1" stroke-width="3.2"/>
<circle clip-path="url(#clip032)" cx="1297.89" cy="566.324" r="14" fill="#009af9" fill-rule="evenodd" fill-opacity="1" stroke="#000000" stroke-opacity="1" stroke-width="3.2"/>
<circle clip-path="url(#clip032)" cx="1297.89" cy="1350.18" r="14" fill="#009af9" fill-rule="evenodd" fill-opacity="1" stroke="#000000" stroke-opacity="1" stroke-width="3.2"/>
<circle clip-path="url(#clip032)" cx="1297.89" cy="528.074" r="14" fill="#009af9" fill-rule="evenodd" fill-opacity="1" stroke="#000000" stroke-opacity="1" stroke-width="3.2"/>
<circle clip-path="url(#clip032)" cx="1297.89" cy="547.828" r="14" fill="#009af9" fill-rule="evenodd" fill-opacity="1" stroke="#000000" stroke-opacity="1" stroke-width="3.2"/>
<circle clip-path="url(#clip032)" cx="1297.89" cy="289.544" r="14" fill="#009af9" fill-rule="evenodd" fill-opacity="1" stroke="#000000" stroke-opacity="1" stroke-width="3.2"/>
<circle clip-path="url(#clip032)" cx="1297.89" cy="511.823" r="14" fill="#009af9" fill-rule="evenodd" fill-opacity="1" stroke="#000000" stroke-opacity="1" stroke-width="3.2"/>
<circle clip-path="url(#clip032)" cx="1297.89" cy="1189.82" r="14" fill="#009af9" fill-rule="evenodd" fill-opacity="1" stroke="#000000" stroke-opacity="1" stroke-width="3.2"/>
<circle clip-path="url(#clip032)" cx="1297.89" cy="409.283" r="14" fill="#009af9" fill-rule="evenodd" fill-opacity="1" stroke="#000000" stroke-opacity="1" stroke-width="3.2"/>
<circle clip-path="url(#clip032)" cx="1297.89" cy="1214.11" r="14" fill="#009af9" fill-rule="evenodd" fill-opacity="1" stroke="#000000" stroke-opacity="1" stroke-width="3.2"/>
<circle clip-path="url(#clip032)" cx="1297.89" cy="1255.85" r="14" fill="#009af9" fill-rule="evenodd" fill-opacity="1" stroke="#000000" stroke-opacity="1" stroke-width="3.2"/>
<circle clip-path="url(#clip032)" cx="1297.89" cy="348.154" r="14" fill="#009af9" fill-rule="evenodd" fill-opacity="1" stroke="#000000" stroke-opacity="1" stroke-width="3.2"/>
<circle clip-path="url(#clip032)" cx="1297.89" cy="519.603" r="14" fill="#009af9" fill-rule="evenodd" fill-opacity="1" stroke="#000000" stroke-opacity="1" stroke-width="3.2"/>
<circle clip-path="url(#clip032)" cx="1297.89" cy="1250.83" r="14" fill="#009af9" fill-rule="evenodd" fill-opacity="1" stroke="#000000" stroke-opacity="1" stroke-width="3.2"/>
<circle clip-path="url(#clip032)" cx="1297.89" cy="1447.87" r="14" fill="#009af9" fill-rule="evenodd" fill-opacity="1" stroke="#000000" stroke-opacity="1" stroke-width="3.2"/>
<circle clip-path="url(#clip032)" cx="1297.89" cy="542.714" r="14" fill="#009af9" fill-rule="evenodd" fill-opacity="1" stroke="#000000" stroke-opacity="1" stroke-width="3.2"/>
<circle clip-path="url(#clip032)" cx="1297.89" cy="558.695" r="14" fill="#009af9" fill-rule="evenodd" fill-opacity="1" stroke="#000000" stroke-opacity="1" stroke-width="3.2"/>
<circle clip-path="url(#clip032)" cx="1297.89" cy="1273.99" r="14" fill="#009af9" fill-rule="evenodd" fill-opacity="1" stroke="#000000" stroke-opacity="1" stroke-width="3.2"/>
<circle clip-path="url(#clip032)" cx="1297.89" cy="1209.44" r="14" fill="#009af9" fill-rule="evenodd" fill-opacity="1" stroke="#000000" stroke-opacity="1" stroke-width="3.2"/>
<circle clip-path="url(#clip032)" cx="1297.89" cy="1240.89" r="14" fill="#009af9" fill-rule="evenodd" fill-opacity="1" stroke="#000000" stroke-opacity="1" stroke-width="3.2"/>
<circle clip-path="url(#clip032)" cx="1297.89" cy="410.772" r="14" fill="#009af9" fill-rule="evenodd" fill-opacity="1" stroke="#000000" stroke-opacity="1" stroke-width="3.2"/>
<circle clip-path="url(#clip032)" cx="1297.89" cy="1173.49" r="14" fill="#009af9" fill-rule="evenodd" fill-opacity="1" stroke="#000000" stroke-opacity="1" stroke-width="3.2"/>
<circle clip-path="url(#clip032)" cx="1297.89" cy="514.76" r="14" fill="#009af9" fill-rule="evenodd" fill-opacity="1" stroke="#000000" stroke-opacity="1" stroke-width="3.2"/>
<circle clip-path="url(#clip032)" cx="1297.89" cy="509.285" r="14" fill="#009af9" fill-rule="evenodd" fill-opacity="1" stroke="#000000" stroke-opacity="1" stroke-width="3.2"/>
<circle clip-path="url(#clip032)" cx="1297.89" cy="539.566" r="14" fill="#009af9" fill-rule="evenodd" fill-opacity="1" stroke="#000000" stroke-opacity="1" stroke-width="3.2"/>
<circle clip-path="url(#clip032)" cx="1297.89" cy="558.224" r="14" fill="#009af9" fill-rule="evenodd" fill-opacity="1" stroke="#000000" stroke-opacity="1" stroke-width="3.2"/>
<circle clip-path="url(#clip032)" cx="1297.89" cy="497.281" r="14" fill="#009af9" fill-rule="evenodd" fill-opacity="1" stroke="#000000" stroke-opacity="1" stroke-width="3.2"/>
<polyline clip-path="url(#clip032)" style="stroke:#009af9; stroke-linecap:butt; stroke-linejoin:round; stroke-width:0; stroke-opacity:1; fill:none" points="
  1297.89,1169.11 800.307,1169.11 1795.47,1169.11 1297.89,1169.11 1297.89,944.251 
  "/>
<polyline clip-path="url(#clip032)" style="stroke:#009af9; stroke-linecap:butt; stroke-linejoin:round; stroke-width:0; stroke-opacity:1; fill:none" points="
  2293.05,944.251 2293.05,879.653 302.727,879.653 302.727,944.251 2293.05,944.251 2293.05,879.653 
  "/>
<polyline clip-path="url(#clip032)" style="stroke:#009af9; stroke-linecap:butt; stroke-linejoin:round; stroke-width:0; stroke-opacity:1; fill:none" points="
  2293.05,793.576 302.727,793.576 302.727,879.653 2293.05,879.653 2293.05,793.576 1297.89,793.576 
  "/>
<polyline clip-path="url(#clip032)" style="stroke:#009af9; stroke-linecap:butt; stroke-linejoin:round; stroke-width:0; stroke-opacity:1; fill:none" points="
  1297.89,567.69 800.307,567.69 1795.47,567.69 1297.89,567.69 1297.89,793.576 
  "/>
</svg>
