<?xml version="1.0" encoding="utf-8"?>
<svg xmlns="http://www.w3.org/2000/svg" xmlns:xlink="http://www.w3.org/1999/xlink" width="600" height="400" viewBox="0 0 2400 1600">
<defs>
  <clipPath id="clip970">
    <rect x="0" y="0" width="2400" height="1600"/>
  </clipPath>
</defs>
<path clip-path="url(#clip970)" d="
M0 1600 L2400 1600 L2400 0 L0 0  Z
  " fill="#ffffff" fill-rule="evenodd" fill-opacity="1"/>
<defs>
  <clipPath id="clip971">
    <rect x="480" y="0" width="1681" height="1600"/>
  </clipPath>
</defs>
<path clip-path="url(#clip970)" d="
M176.276 1444.78 L2352.76 1444.78 L2352.76 97.5521 L176.276 97.5521  Z
  " fill="#ffffff" fill-rule="evenodd" fill-opacity="1"/>
<defs>
  <clipPath id="clip972">
    <rect x="176" y="97" width="2177" height="1348"/>
  </clipPath>
</defs>
<polyline clip-path="url(#clip972)" style="stroke:#000000; stroke-linecap:round; stroke-linejoin:round; stroke-width:2; stroke-opacity:0.1; fill:none" points="
  474.807,1444.78 474.807,97.5521 
  "/>
<polyline clip-path="url(#clip972)" style="stroke:#000000; stroke-linecap:round; stroke-linejoin:round; stroke-width:2; stroke-opacity:0.1; fill:none" points="
  927.295,1444.78 927.295,97.5521 
  "/>
<polyline clip-path="url(#clip972)" style="stroke:#000000; stroke-linecap:round; stroke-linejoin:round; stroke-width:2; stroke-opacity:0.1; fill:none" points="
  1379.78,1444.78 1379.78,97.5521 
  "/>
<polyline clip-path="url(#clip972)" style="stroke:#000000; stroke-linecap:round; stroke-linejoin:round; stroke-width:2; stroke-opacity:0.1; fill:none" points="
  1832.27,1444.78 1832.27,97.5521 
  "/>
<polyline clip-path="url(#clip972)" style="stroke:#000000; stroke-linecap:round; stroke-linejoin:round; stroke-width:2; stroke-opacity:0.1; fill:none" points="
  2284.76,1444.78 2284.76,97.5521 
  "/>
<polyline clip-path="url(#clip970)" style="stroke:#000000; stroke-linecap:round; stroke-linejoin:round; stroke-width:4; stroke-opacity:1; fill:none" points="
  176.276,1444.78 2352.76,1444.78 
  "/>
<polyline clip-path="url(#clip970)" style="stroke:#000000; stroke-linecap:round; stroke-linejoin:round; stroke-width:4; stroke-opacity:1; fill:none" points="
  474.807,1444.78 474.807,1425.88 
  "/>
<polyline clip-path="url(#clip970)" style="stroke:#000000; stroke-linecap:round; stroke-linejoin:round; stroke-width:4; stroke-opacity:1; fill:none" points="
  927.295,1444.78 927.295,1425.88 
  "/>
<polyline clip-path="url(#clip970)" style="stroke:#000000; stroke-linecap:round; stroke-linejoin:round; stroke-width:4; stroke-opacity:1; fill:none" points="
  1379.78,1444.78 1379.78,1425.88 
  "/>
<polyline clip-path="url(#clip970)" style="stroke:#000000; stroke-linecap:round; stroke-linejoin:round; stroke-width:4; stroke-opacity:1; fill:none" points="
  1832.27,1444.78 1832.27,1425.88 
  "/>
<polyline clip-path="url(#clip970)" style="stroke:#000000; stroke-linecap:round; stroke-linejoin:round; stroke-width:4; stroke-opacity:1; fill:none" points="
  2284.76,1444.78 2284.76,1425.88 
  "/>
<path clip-path="url(#clip970)" d="M435.163 1483.76 L457.419 1483.76 L457.419 1486.71 L435.163 1486.71 L435.163 1483.76 Z" fill="#000000" fill-rule="evenodd" fill-opacity="1" /><path clip-path="url(#clip970)" d="M472.489 1472.77 Q469.781 1472.77 468.409 1475.44 Q467.055 1478.1 467.055 1483.45 Q467.055 1488.78 468.409 1491.45 Q469.781 1494.11 472.489 1494.11 Q475.215 1494.11 476.569 1491.45 Q477.94 1488.78 477.94 1483.45 Q477.94 1478.1 476.569 1475.44 Q475.215 1472.77 472.489 1472.77 M472.489 1469.99 Q476.846 1469.99 479.138 1473.45 Q481.447 1476.88 481.447 1483.45 Q481.447 1489.99 479.138 1493.45 Q476.846 1496.88 472.489 1496.88 Q468.131 1496.88 465.822 1493.45 Q463.531 1489.99 463.531 1483.45 Q463.531 1476.88 465.822 1473.45 Q468.131 1469.99 472.489 1469.99 Z" fill="#000000" fill-rule="evenodd" fill-opacity="1" /><path clip-path="url(#clip970)" d="M487.61 1491.97 L491.273 1491.97 L491.273 1496.38 L487.61 1496.38 L487.61 1491.97 Z" fill="#000000" fill-rule="evenodd" fill-opacity="1" /><path clip-path="url(#clip970)" d="M499.52 1493.43 L505.249 1493.43 L505.249 1473.65 L499.016 1474.9 L499.016 1471.71 L505.214 1470.46 L508.721 1470.46 L508.721 1493.43 L514.45 1493.43 L514.45 1496.38 L499.52 1496.38 L499.52 1493.43 Z" fill="#000000" fill-rule="evenodd" fill-opacity="1" /><path clip-path="url(#clip970)" d="M910.333 1472.77 Q907.625 1472.77 906.253 1475.44 Q904.899 1478.1 904.899 1483.45 Q904.899 1488.78 906.253 1491.45 Q907.625 1494.11 910.333 1494.11 Q913.059 1494.11 914.413 1491.45 Q915.784 1488.78 915.784 1483.45 Q915.784 1478.1 914.413 1475.44 Q913.059 1472.77 910.333 1472.77 M910.333 1469.99 Q914.691 1469.99 916.982 1473.45 Q919.291 1476.88 919.291 1483.45 Q919.291 1489.99 916.982 1493.45 Q914.691 1496.88 910.333 1496.88 Q905.975 1496.88 903.666 1493.45 Q901.375 1489.99 901.375 1483.45 Q901.375 1476.88 903.666 1473.45 Q905.975 1469.99 910.333 1469.99 Z" fill="#000000" fill-rule="evenodd" fill-opacity="1" /><path clip-path="url(#clip970)" d="M925.455 1491.97 L929.118 1491.97 L929.118 1496.38 L925.455 1496.38 L925.455 1491.97 Z" fill="#000000" fill-rule="evenodd" fill-opacity="1" /><path clip-path="url(#clip970)" d="M944.256 1472.77 Q941.548 1472.77 940.177 1475.44 Q938.822 1478.1 938.822 1483.45 Q938.822 1488.78 940.177 1491.45 Q941.548 1494.11 944.256 1494.11 Q946.982 1494.11 948.336 1491.45 Q949.708 1488.78 949.708 1483.45 Q949.708 1478.1 948.336 1475.44 Q946.982 1472.77 944.256 1472.77 M944.256 1469.99 Q948.614 1469.99 950.906 1473.45 Q953.215 1476.88 953.215 1483.45 Q953.215 1489.99 950.906 1493.45 Q948.614 1496.88 944.256 1496.88 Q939.899 1496.88 937.59 1493.45 Q935.298 1489.99 935.298 1483.45 Q935.298 1476.88 937.59 1473.45 Q939.899 1469.99 944.256 1469.99 Z" fill="#000000" fill-rule="evenodd" fill-opacity="1" /><path clip-path="url(#clip970)" d="M1363.28 1472.77 Q1360.57 1472.77 1359.2 1475.44 Q1357.85 1478.1 1357.85 1483.45 Q1357.85 1488.78 1359.2 1491.45 Q1360.57 1494.11 1363.28 1494.11 Q1366.01 1494.11 1367.36 1491.45 Q1368.73 1488.78 1368.73 1483.45 Q1368.73 1478.1 1367.36 1475.44 Q1366.01 1472.77 1363.28 1472.77 M1363.28 1469.99 Q1367.64 1469.99 1369.93 1473.45 Q1372.24 1476.88 1372.24 1483.45 Q1372.24 1489.99 1369.93 1493.45 Q1367.64 1496.88 1363.28 1496.88 Q1358.92 1496.88 1356.61 1493.45 Q1354.32 1489.99 1354.32 1483.45 Q1354.32 1476.88 1356.61 1473.45 Q1358.92 1469.99 1363.28 1469.99 Z" fill="#000000" fill-rule="evenodd" fill-opacity="1" /><path clip-path="url(#clip970)" d="M1378.4 1491.97 L1382.07 1491.97 L1382.07 1496.38 L1378.4 1496.38 L1378.4 1491.97 Z" fill="#000000" fill-rule="evenodd" fill-opacity="1" /><path clip-path="url(#clip970)" d="M1390.31 1493.43 L1396.04 1493.43 L1396.04 1473.65 L1389.81 1474.9 L1389.81 1471.71 L1396.01 1470.46 L1399.51 1470.46 L1399.51 1493.43 L1405.24 1493.43 L1405.24 1496.38 L1390.31 1496.38 L1390.31 1493.43 Z" fill="#000000" fill-rule="evenodd" fill-opacity="1" /><path clip-path="url(#clip970)" d="M1815.91 1472.77 Q1813.2 1472.77 1811.83 1475.44 Q1810.47 1478.1 1810.47 1483.45 Q1810.47 1488.78 1811.83 1491.45 Q1813.2 1494.11 1815.91 1494.11 Q1818.63 1494.11 1819.99 1491.45 Q1821.36 1488.78 1821.36 1483.45 Q1821.36 1478.1 1819.99 1475.44 Q1818.63 1472.77 1815.91 1472.77 M1815.91 1469.99 Q1820.27 1469.99 1822.56 1473.45 Q1824.87 1476.88 1824.87 1483.45 Q1824.87 1489.99 1822.56 1493.45 Q1820.27 1496.88 1815.91 1496.88 Q1811.55 1496.88 1809.24 1493.45 Q1806.95 1489.99 1806.95 1483.45 Q1806.95 1476.88 1809.24 1473.45 Q1811.55 1469.99 1815.91 1469.99 Z" fill="#000000" fill-rule="evenodd" fill-opacity="1" /><path clip-path="url(#clip970)" d="M1831.03 1491.97 L1834.69 1491.97 L1834.69 1496.38 L1831.03 1496.38 L1831.03 1491.97 Z" fill="#000000" fill-rule="evenodd" fill-opacity="1" /><path clip-path="url(#clip970)" d="M1845.35 1493.43 L1857.59 1493.43 L1857.59 1496.38 L1841.13 1496.38 L1841.13 1493.43 Q1843.13 1491.36 1846.57 1487.89 Q1850.02 1484.4 1850.91 1483.39 Q1852.59 1481.5 1853.25 1480.2 Q1853.93 1478.88 1853.93 1477.61 Q1853.93 1475.55 1852.47 1474.24 Q1851.03 1472.94 1848.7 1472.94 Q1847.05 1472.94 1845.21 1473.52 Q1843.39 1474.09 1841.31 1475.25 L1841.31 1471.71 Q1843.43 1470.86 1845.27 1470.43 Q1847.11 1469.99 1848.63 1469.99 Q1852.66 1469.99 1855.06 1472 Q1857.45 1474.02 1857.45 1477.39 Q1857.45 1478.98 1856.85 1480.43 Q1856.26 1481.85 1854.68 1483.79 Q1854.24 1484.3 1851.92 1486.71 Q1849.59 1489.11 1845.35 1493.43 Z" fill="#000000" fill-rule="evenodd" fill-opacity="1" /><path clip-path="url(#clip970)" d="M2268.04 1472.77 Q2265.33 1472.77 2263.96 1475.44 Q2262.61 1478.1 2262.61 1483.45 Q2262.61 1488.78 2263.96 1491.45 Q2265.33 1494.11 2268.04 1494.11 Q2270.77 1494.11 2272.12 1491.45 Q2273.49 1488.78 2273.49 1483.45 Q2273.49 1478.1 2272.12 1475.44 Q2270.77 1472.77 2268.04 1472.77 M2268.04 1469.99 Q2272.4 1469.99 2274.69 1473.45 Q2277 1476.88 2277 1483.45 Q2277 1489.99 2274.69 1493.45 Q2272.4 1496.88 2268.04 1496.88 Q2263.68 1496.88 2261.37 1493.45 Q2259.08 1489.99 2259.08 1483.45 Q2259.08 1476.88 2261.37 1473.45 Q2263.68 1469.99 2268.04 1469.99 Z" fill="#000000" fill-rule="evenodd" fill-opacity="1" /><path clip-path="url(#clip970)" d="M2283.16 1491.97 L2286.83 1491.97 L2286.83 1496.38 L2283.16 1496.38 L2283.16 1491.97 Z" fill="#000000" fill-rule="evenodd" fill-opacity="1" /><path clip-path="url(#clip970)" d="M2305.09 1482.4 Q2307.61 1482.94 2309.01 1484.64 Q2310.44 1486.35 2310.44 1488.85 Q2310.44 1492.68 2307.8 1494.78 Q2305.16 1496.88 2300.3 1496.88 Q2298.67 1496.88 2296.93 1496.55 Q2295.21 1496.24 2293.37 1495.6 L2293.37 1492.21 Q2294.83 1493.06 2296.56 1493.5 Q2298.3 1493.93 2300.19 1493.93 Q2303.49 1493.93 2305.21 1492.63 Q2306.95 1491.33 2306.95 1488.85 Q2306.95 1486.55 2305.33 1485.27 Q2303.74 1483.97 2300.87 1483.97 L2297.85 1483.97 L2297.85 1481.08 L2301.01 1481.08 Q2303.6 1481.08 2304.97 1480.06 Q2306.34 1479.02 2306.34 1477.07 Q2306.34 1475.08 2304.92 1474.02 Q2303.51 1472.94 2300.87 1472.94 Q2299.43 1472.94 2297.78 1473.25 Q2296.13 1473.57 2294.15 1474.23 L2294.15 1471.1 Q2296.15 1470.55 2297.88 1470.27 Q2299.64 1469.99 2301.18 1469.99 Q2305.18 1469.99 2307.5 1471.81 Q2309.83 1473.62 2309.83 1476.71 Q2309.83 1478.86 2308.6 1480.36 Q2307.36 1481.83 2305.09 1482.4 Z" fill="#000000" fill-rule="evenodd" fill-opacity="1" /><path clip-path="url(#clip970)" d="M640.075 1531.18 L633.732 1548.38 L646.44 1548.38 L640.075 1531.18 M637.436 1526.57 L642.737 1526.57 L655.908 1561.13 L651.047 1561.13 L647.899 1552.27 L632.32 1552.27 L629.172 1561.13 L624.241 1561.13 L637.436 1526.57 Z" fill="#000000" fill-rule="evenodd" fill-opacity="1" /><path clip-path="url(#clip970)" d="M654.936 1535.21 L659.45 1535.21 L667.551 1556.97 L675.653 1535.21 L680.167 1535.21 L670.445 1561.13 L664.658 1561.13 L654.936 1535.21 Z" fill="#000000" fill-rule="evenodd" fill-opacity="1" /><path clip-path="url(#clip970)" d="M708.222 1547.1 L708.222 1549.19 L688.639 1549.19 Q688.917 1553.59 691.278 1555.9 Q693.662 1558.19 697.898 1558.19 Q700.352 1558.19 702.644 1557.59 Q704.959 1556.99 707.227 1555.78 L707.227 1559.81 Q704.935 1560.78 702.528 1561.29 Q700.121 1561.8 697.644 1561.8 Q691.44 1561.8 687.806 1558.19 Q684.195 1554.58 684.195 1548.42 Q684.195 1542.06 687.621 1538.33 Q691.07 1534.58 696.903 1534.58 Q702.135 1534.58 705.167 1537.96 Q708.222 1541.32 708.222 1547.1 M703.963 1545.85 Q703.917 1542.36 701.996 1540.28 Q700.098 1538.19 696.949 1538.19 Q693.385 1538.19 691.232 1540.21 Q689.102 1542.22 688.778 1545.88 L703.963 1545.85 Z" fill="#000000" fill-rule="evenodd" fill-opacity="1" /><path clip-path="url(#clip970)" d="M730.236 1539.19 Q729.519 1538.77 728.662 1538.59 Q727.829 1538.38 726.81 1538.38 Q723.199 1538.38 721.255 1540.74 Q719.334 1543.08 719.334 1547.47 L719.334 1561.13 L715.051 1561.13 L715.051 1535.21 L719.334 1535.21 L719.334 1539.23 Q720.676 1536.87 722.829 1535.74 Q724.982 1534.58 728.06 1534.58 Q728.5 1534.58 729.033 1534.65 Q729.565 1534.7 730.213 1534.81 L730.236 1539.19 Z" fill="#000000" fill-rule="evenodd" fill-opacity="1" /><path clip-path="url(#clip970)" d="M746.486 1548.1 Q741.324 1548.1 739.333 1549.28 Q737.343 1550.46 737.343 1553.31 Q737.343 1555.58 738.824 1556.92 Q740.329 1558.24 742.898 1558.24 Q746.44 1558.24 748.569 1555.74 Q750.722 1553.22 750.722 1549.05 L750.722 1548.1 L746.486 1548.1 M754.981 1546.34 L754.981 1561.13 L750.722 1561.13 L750.722 1557.2 Q749.264 1559.56 747.088 1560.69 Q744.912 1561.8 741.764 1561.8 Q737.782 1561.8 735.421 1559.58 Q733.083 1557.34 733.083 1553.59 Q733.083 1549.21 736 1546.99 Q738.94 1544.77 744.75 1544.77 L750.722 1544.77 L750.722 1544.35 Q750.722 1541.41 748.778 1539.81 Q746.857 1538.19 743.361 1538.19 Q741.139 1538.19 739.032 1538.72 Q736.926 1539.26 734.982 1540.32 L734.982 1536.39 Q737.32 1535.48 739.519 1535.04 Q741.718 1534.58 743.801 1534.58 Q749.426 1534.58 752.204 1537.5 Q754.981 1540.41 754.981 1546.34 Z" fill="#000000" fill-rule="evenodd" fill-opacity="1" /><path clip-path="url(#clip970)" d="M780.815 1547.87 Q780.815 1543.24 778.893 1540.69 Q776.995 1538.15 773.546 1538.15 Q770.12 1538.15 768.199 1540.69 Q766.301 1543.24 766.301 1547.87 Q766.301 1552.47 768.199 1555.02 Q770.12 1557.57 773.546 1557.57 Q776.995 1557.57 778.893 1555.02 Q780.815 1552.47 780.815 1547.87 M785.074 1557.91 Q785.074 1564.53 782.134 1567.75 Q779.194 1570.99 773.13 1570.99 Q770.884 1570.99 768.893 1570.65 Q766.903 1570.32 765.028 1569.63 L765.028 1565.48 Q766.903 1566.5 768.731 1566.99 Q770.56 1567.47 772.458 1567.47 Q776.648 1567.47 778.731 1565.28 Q780.815 1563.1 780.815 1558.68 L780.815 1556.57 Q779.495 1558.86 777.435 1560 Q775.375 1561.13 772.505 1561.13 Q767.736 1561.13 764.819 1557.5 Q761.903 1553.86 761.903 1547.87 Q761.903 1541.85 764.819 1538.22 Q767.736 1534.58 772.505 1534.58 Q775.375 1534.58 777.435 1535.72 Q779.495 1536.85 780.815 1539.14 L780.815 1535.21 L785.074 1535.21 L785.074 1557.91 Z" fill="#000000" fill-rule="evenodd" fill-opacity="1" /><path clip-path="url(#clip970)" d="M816.023 1547.1 L816.023 1549.19 L796.44 1549.19 Q796.717 1553.59 799.078 1555.9 Q801.463 1558.19 805.699 1558.19 Q808.152 1558.19 810.444 1557.59 Q812.759 1556.99 815.027 1555.78 L815.027 1559.81 Q812.736 1560.78 810.328 1561.29 Q807.921 1561.8 805.444 1561.8 Q799.24 1561.8 795.606 1558.19 Q791.995 1554.58 791.995 1548.42 Q791.995 1542.06 795.421 1538.33 Q798.87 1534.58 804.703 1534.58 Q809.935 1534.58 812.967 1537.96 Q816.023 1541.32 816.023 1547.1 M811.764 1545.85 Q811.717 1542.36 809.796 1540.28 Q807.898 1538.19 804.75 1538.19 Q801.185 1538.19 799.032 1540.21 Q796.903 1542.22 796.578 1545.88 L811.764 1545.85 Z" fill="#000000" fill-rule="evenodd" fill-opacity="1" /><path clip-path="url(#clip970)" d="M852.296 1529.74 Q847.203 1529.74 844.194 1533.54 Q841.208 1537.34 841.208 1543.89 Q841.208 1550.41 844.194 1554.21 Q847.203 1558.01 852.296 1558.01 Q857.388 1558.01 860.351 1554.21 Q863.337 1550.41 863.337 1543.89 Q863.337 1537.34 860.351 1533.54 Q857.388 1529.74 852.296 1529.74 M858.847 1560.51 L865.004 1567.24 L859.356 1567.24 L854.24 1561.71 Q853.476 1561.76 853.06 1561.78 Q852.666 1561.8 852.296 1561.8 Q845.004 1561.8 840.629 1556.94 Q836.277 1552.06 836.277 1543.89 Q836.277 1535.69 840.629 1530.83 Q845.004 1525.95 852.296 1525.95 Q859.564 1525.95 863.916 1530.83 Q868.268 1535.69 868.268 1543.89 Q868.268 1549.91 865.837 1554.19 Q863.43 1558.47 858.847 1560.51 Z" fill="#000000" fill-rule="evenodd" fill-opacity="1" /><path clip-path="url(#clip970)" d="M874.958 1550.9 L874.958 1535.21 L879.217 1535.21 L879.217 1550.74 Q879.217 1554.42 880.652 1556.27 Q882.087 1558.1 884.958 1558.1 Q888.407 1558.1 890.397 1555.9 Q892.411 1553.7 892.411 1549.91 L892.411 1535.21 L896.671 1535.21 L896.671 1561.13 L892.411 1561.13 L892.411 1557.15 Q890.86 1559.51 888.8 1560.67 Q886.763 1561.8 884.055 1561.8 Q879.587 1561.8 877.272 1559.03 Q874.958 1556.25 874.958 1550.9 M885.675 1534.58 L885.675 1534.58 Z" fill="#000000" fill-rule="evenodd" fill-opacity="1" /><path clip-path="url(#clip970)" d="M917.226 1548.1 Q912.064 1548.1 910.073 1549.28 Q908.082 1550.46 908.082 1553.31 Q908.082 1555.58 909.564 1556.92 Q911.069 1558.24 913.638 1558.24 Q917.18 1558.24 919.309 1555.74 Q921.462 1553.22 921.462 1549.05 L921.462 1548.1 L917.226 1548.1 M925.721 1546.34 L925.721 1561.13 L921.462 1561.13 L921.462 1557.2 Q920.004 1559.56 917.828 1560.69 Q915.652 1561.8 912.504 1561.8 Q908.522 1561.8 906.161 1559.58 Q903.823 1557.34 903.823 1553.59 Q903.823 1549.21 906.74 1546.99 Q909.68 1544.77 915.49 1544.77 L921.462 1544.77 L921.462 1544.35 Q921.462 1541.41 919.518 1539.81 Q917.596 1538.19 914.101 1538.19 Q911.879 1538.19 909.772 1538.72 Q907.666 1539.26 905.721 1540.32 L905.721 1536.39 Q908.059 1535.48 910.258 1535.04 Q912.457 1534.58 914.541 1534.58 Q920.166 1534.58 922.944 1537.5 Q925.721 1540.41 925.721 1546.34 Z" fill="#000000" fill-rule="evenodd" fill-opacity="1" /><path clip-path="url(#clip970)" d="M934.494 1525.11 L938.754 1525.11 L938.754 1561.13 L934.494 1561.13 L934.494 1525.11 Z" fill="#000000" fill-rule="evenodd" fill-opacity="1" /><path clip-path="url(#clip970)" d="M947.666 1535.21 L951.925 1535.21 L951.925 1561.13 L947.666 1561.13 L947.666 1535.21 M947.666 1525.11 L951.925 1525.11 L951.925 1530.51 L947.666 1530.51 L947.666 1525.11 Z" fill="#000000" fill-rule="evenodd" fill-opacity="1" /><path clip-path="url(#clip970)" d="M965.05 1527.84 L965.05 1535.21 L973.823 1535.21 L973.823 1538.52 L965.05 1538.52 L965.05 1552.59 Q965.05 1555.76 965.906 1556.66 Q966.786 1557.57 969.448 1557.57 L973.823 1557.57 L973.823 1561.13 L969.448 1561.13 Q964.517 1561.13 962.642 1559.3 Q960.767 1557.45 960.767 1552.59 L960.767 1538.52 L957.642 1538.52 L957.642 1535.21 L960.767 1535.21 L960.767 1527.84 L965.05 1527.84 Z" fill="#000000" fill-rule="evenodd" fill-opacity="1" /><path clip-path="url(#clip970)" d="M990.212 1563.54 Q988.406 1568.17 986.693 1569.58 Q984.98 1570.99 982.11 1570.99 L978.707 1570.99 L978.707 1567.43 L981.207 1567.43 Q982.966 1567.43 983.939 1566.59 Q984.911 1565.76 986.091 1562.66 L986.855 1560.72 L976.369 1535.21 L980.883 1535.21 L988.985 1555.48 L997.087 1535.21 L1001.6 1535.21 L990.212 1563.54 Z" fill="#000000" fill-rule="evenodd" fill-opacity="1" /><path clip-path="url(#clip970)" d="M1039.61 1539.14 L1039.61 1525.11 L1043.87 1525.11 L1043.87 1561.13 L1039.61 1561.13 L1039.61 1557.24 Q1038.27 1559.56 1036.21 1560.69 Q1034.17 1561.8 1031.3 1561.8 Q1026.6 1561.8 1023.64 1558.05 Q1020.7 1554.3 1020.7 1548.19 Q1020.7 1542.08 1023.64 1538.33 Q1026.6 1534.58 1031.3 1534.58 Q1034.17 1534.58 1036.21 1535.72 Q1038.27 1536.83 1039.61 1539.14 M1025.1 1548.19 Q1025.1 1552.89 1027.02 1555.58 Q1028.96 1558.24 1032.34 1558.24 Q1035.72 1558.24 1037.67 1555.58 Q1039.61 1552.89 1039.61 1548.19 Q1039.61 1543.49 1037.67 1540.83 Q1035.72 1538.15 1032.34 1538.15 Q1028.96 1538.15 1027.02 1540.83 Q1025.1 1543.49 1025.1 1548.19 Z" fill="#000000" fill-rule="evenodd" fill-opacity="1" /><path clip-path="url(#clip970)" d="M1074.82 1547.1 L1074.82 1549.19 L1055.23 1549.19 Q1055.51 1553.59 1057.87 1555.9 Q1060.26 1558.19 1064.49 1558.19 Q1066.95 1558.19 1069.24 1557.59 Q1071.55 1556.99 1073.82 1555.78 L1073.82 1559.81 Q1071.53 1560.78 1069.12 1561.29 Q1066.72 1561.8 1064.24 1561.8 Q1058.04 1561.8 1054.4 1558.19 Q1050.79 1554.58 1050.79 1548.42 Q1050.79 1542.06 1054.22 1538.33 Q1057.67 1534.58 1063.5 1534.58 Q1068.73 1534.58 1071.76 1537.96 Q1074.82 1541.32 1074.82 1547.1 M1070.56 1545.85 Q1070.51 1542.36 1068.59 1540.28 Q1066.69 1538.19 1063.54 1538.19 Q1059.98 1538.19 1057.83 1540.21 Q1055.7 1542.22 1055.37 1545.88 L1070.56 1545.85 Z" fill="#000000" fill-rule="evenodd" fill-opacity="1" /><path clip-path="url(#clip970)" d="M1078.75 1535.21 L1083.27 1535.21 L1091.37 1556.97 L1099.47 1535.21 L1103.98 1535.21 L1094.26 1561.13 L1088.48 1561.13 L1078.75 1535.21 Z" fill="#000000" fill-rule="evenodd" fill-opacity="1" /><path clip-path="url(#clip970)" d="M1109.86 1535.21 L1114.12 1535.21 L1114.12 1561.13 L1109.86 1561.13 L1109.86 1535.21 M1109.86 1525.11 L1114.12 1525.11 L1114.12 1530.51 L1109.86 1530.51 L1109.86 1525.11 Z" fill="#000000" fill-rule="evenodd" fill-opacity="1" /><path clip-path="url(#clip970)" d="M1134.82 1548.1 Q1129.66 1548.1 1127.66 1549.28 Q1125.67 1550.46 1125.67 1553.31 Q1125.67 1555.58 1127.16 1556.92 Q1128.66 1558.24 1131.23 1558.24 Q1134.77 1558.24 1136.9 1555.74 Q1139.05 1553.22 1139.05 1549.05 L1139.05 1548.1 L1134.82 1548.1 M1143.31 1546.34 L1143.31 1561.13 L1139.05 1561.13 L1139.05 1557.2 Q1137.6 1559.56 1135.42 1560.69 Q1133.24 1561.8 1130.1 1561.8 Q1126.11 1561.8 1123.75 1559.58 Q1121.41 1557.34 1121.41 1553.59 Q1121.41 1549.21 1124.33 1546.99 Q1127.27 1544.77 1133.08 1544.77 L1139.05 1544.77 L1139.05 1544.35 Q1139.05 1541.41 1137.11 1539.81 Q1135.19 1538.19 1131.69 1538.19 Q1129.47 1538.19 1127.36 1538.72 Q1125.26 1539.26 1123.31 1540.32 L1123.31 1536.39 Q1125.65 1535.48 1127.85 1535.04 Q1130.05 1534.58 1132.13 1534.58 Q1137.76 1534.58 1140.53 1537.5 Q1143.31 1540.41 1143.31 1546.34 Z" fill="#000000" fill-rule="evenodd" fill-opacity="1" /><path clip-path="url(#clip970)" d="M1156.3 1527.84 L1156.3 1535.21 L1165.07 1535.21 L1165.07 1538.52 L1156.3 1538.52 L1156.3 1552.59 Q1156.3 1555.76 1157.16 1556.66 Q1158.03 1557.57 1160.7 1557.57 L1165.07 1557.57 L1165.07 1561.13 L1160.7 1561.13 Q1155.77 1561.13 1153.89 1559.3 Q1152.02 1557.45 1152.02 1552.59 L1152.02 1538.52 L1148.89 1538.52 L1148.89 1535.21 L1152.02 1535.21 L1152.02 1527.84 L1156.3 1527.84 Z" fill="#000000" fill-rule="evenodd" fill-opacity="1" /><path clip-path="url(#clip970)" d="M1170.67 1535.21 L1174.93 1535.21 L1174.93 1561.13 L1170.67 1561.13 L1170.67 1535.21 M1170.67 1525.11 L1174.93 1525.11 L1174.93 1530.51 L1170.67 1530.51 L1170.67 1525.11 Z" fill="#000000" fill-rule="evenodd" fill-opacity="1" /><path clip-path="url(#clip970)" d="M1193.89 1538.19 Q1190.47 1538.19 1188.47 1540.88 Q1186.48 1543.54 1186.48 1548.19 Q1186.48 1552.84 1188.45 1555.53 Q1190.44 1558.19 1193.89 1558.19 Q1197.29 1558.19 1199.28 1555.51 Q1201.28 1552.82 1201.28 1548.19 Q1201.28 1543.59 1199.28 1540.9 Q1197.29 1538.19 1193.89 1538.19 M1193.89 1534.58 Q1199.45 1534.58 1202.62 1538.19 Q1205.79 1541.8 1205.79 1548.19 Q1205.79 1554.56 1202.62 1558.19 Q1199.45 1561.8 1193.89 1561.8 Q1188.31 1561.8 1185.14 1558.19 Q1181.99 1554.56 1181.99 1548.19 Q1181.99 1541.8 1185.14 1538.19 Q1188.31 1534.58 1193.89 1534.58 Z" fill="#000000" fill-rule="evenodd" fill-opacity="1" /><path clip-path="url(#clip970)" d="M1234.4 1545.48 L1234.4 1561.13 L1230.14 1561.13 L1230.14 1545.62 Q1230.14 1541.94 1228.71 1540.11 Q1227.27 1538.28 1224.4 1538.28 Q1220.95 1538.28 1218.96 1540.48 Q1216.97 1542.68 1216.97 1546.48 L1216.97 1561.13 L1212.69 1561.13 L1212.69 1535.21 L1216.97 1535.21 L1216.97 1539.23 Q1218.5 1536.9 1220.56 1535.74 Q1222.64 1534.58 1225.35 1534.58 Q1229.82 1534.58 1232.11 1537.36 Q1234.4 1540.11 1234.4 1545.48 Z" fill="#000000" fill-rule="evenodd" fill-opacity="1" /><path clip-path="url(#clip970)" d="M1271.09 1525.11 L1271.09 1528.66 L1267.02 1528.66 Q1264.72 1528.66 1263.82 1529.58 Q1262.94 1530.51 1262.94 1532.91 L1262.94 1535.21 L1269.96 1535.21 L1269.96 1538.52 L1262.94 1538.52 L1262.94 1561.13 L1258.66 1561.13 L1258.66 1538.52 L1254.59 1538.52 L1254.59 1535.21 L1258.66 1535.21 L1258.66 1533.4 Q1258.66 1529.07 1260.67 1527.1 Q1262.69 1525.11 1267.06 1525.11 L1271.09 1525.11 Z" fill="#000000" fill-rule="evenodd" fill-opacity="1" /><path clip-path="url(#clip970)" d="M1289.68 1539.19 Q1288.96 1538.77 1288.1 1538.59 Q1287.27 1538.38 1286.25 1538.38 Q1282.64 1538.38 1280.7 1540.74 Q1278.77 1543.08 1278.77 1547.47 L1278.77 1561.13 L1274.49 1561.13 L1274.49 1535.21 L1278.77 1535.21 L1278.77 1539.23 Q1280.12 1536.87 1282.27 1535.74 Q1284.42 1534.58 1287.5 1534.58 Q1287.94 1534.58 1288.47 1534.65 Q1289.01 1534.7 1289.65 1534.81 L1289.68 1539.19 Z" fill="#000000" fill-rule="evenodd" fill-opacity="1" /><path clip-path="url(#clip970)" d="M1303.15 1538.19 Q1299.72 1538.19 1297.73 1540.88 Q1295.74 1543.54 1295.74 1548.19 Q1295.74 1552.84 1297.71 1555.53 Q1299.7 1558.19 1303.15 1558.19 Q1306.55 1558.19 1308.54 1555.51 Q1310.53 1552.82 1310.53 1548.19 Q1310.53 1543.59 1308.54 1540.9 Q1306.55 1538.19 1303.15 1538.19 M1303.15 1534.58 Q1308.71 1534.58 1311.88 1538.19 Q1315.05 1541.8 1315.05 1548.19 Q1315.05 1554.56 1311.88 1558.19 Q1308.71 1561.8 1303.15 1561.8 Q1297.57 1561.8 1294.4 1558.19 Q1291.25 1554.56 1291.25 1548.19 Q1291.25 1541.8 1294.4 1538.19 Q1297.57 1534.58 1303.15 1534.58 Z" fill="#000000" fill-rule="evenodd" fill-opacity="1" /><path clip-path="url(#clip970)" d="M1342.29 1540.18 Q1343.89 1537.31 1346.11 1535.95 Q1348.33 1534.58 1351.34 1534.58 Q1355.39 1534.58 1357.59 1537.43 Q1359.79 1540.25 1359.79 1545.48 L1359.79 1561.13 L1355.51 1561.13 L1355.51 1545.62 Q1355.51 1541.9 1354.19 1540.09 Q1352.87 1538.28 1350.16 1538.28 Q1346.85 1538.28 1344.93 1540.48 Q1343.01 1542.68 1343.01 1546.48 L1343.01 1561.13 L1338.73 1561.13 L1338.73 1545.62 Q1338.73 1541.87 1337.41 1540.09 Q1336.09 1538.28 1333.33 1538.28 Q1330.07 1538.28 1328.15 1540.51 Q1326.23 1542.71 1326.23 1546.48 L1326.23 1561.13 L1321.95 1561.13 L1321.95 1535.21 L1326.23 1535.21 L1326.23 1539.23 Q1327.69 1536.85 1329.72 1535.72 Q1331.76 1534.58 1334.56 1534.58 Q1337.39 1534.58 1339.35 1536.02 Q1341.34 1537.45 1342.29 1540.18 Z" fill="#000000" fill-rule="evenodd" fill-opacity="1" /><path clip-path="url(#clip970)" d="M1402.02 1536.2 L1402.02 1540.18 Q1400.21 1539.19 1398.38 1538.7 Q1396.58 1538.19 1394.72 1538.19 Q1390.58 1538.19 1388.29 1540.83 Q1386 1543.45 1386 1548.19 Q1386 1552.94 1388.29 1555.58 Q1390.58 1558.19 1394.72 1558.19 Q1396.58 1558.19 1398.38 1557.71 Q1400.21 1557.2 1402.02 1556.2 L1402.02 1560.14 Q1400.23 1560.97 1398.31 1561.39 Q1396.41 1561.8 1394.26 1561.8 Q1388.4 1561.8 1384.95 1558.12 Q1381.51 1554.44 1381.51 1548.19 Q1381.51 1541.85 1384.98 1538.22 Q1388.47 1534.58 1394.54 1534.58 Q1396.51 1534.58 1398.38 1535 Q1400.26 1535.39 1402.02 1536.2 Z" fill="#000000" fill-rule="evenodd" fill-opacity="1" /><path clip-path="url(#clip970)" d="M1419.47 1538.19 Q1416.04 1538.19 1414.05 1540.88 Q1412.06 1543.54 1412.06 1548.19 Q1412.06 1552.84 1414.03 1555.53 Q1416.02 1558.19 1419.47 1558.19 Q1422.87 1558.19 1424.86 1555.51 Q1426.85 1552.82 1426.85 1548.19 Q1426.85 1543.59 1424.86 1540.9 Q1422.87 1538.19 1419.47 1538.19 M1419.47 1534.58 Q1425.02 1534.58 1428.2 1538.19 Q1431.37 1541.8 1431.37 1548.19 Q1431.37 1554.56 1428.2 1558.19 Q1425.02 1561.8 1419.47 1561.8 Q1413.89 1561.8 1410.72 1558.19 Q1407.57 1554.56 1407.57 1548.19 Q1407.57 1541.8 1410.72 1538.19 Q1413.89 1534.58 1419.47 1534.58 Z" fill="#000000" fill-rule="evenodd" fill-opacity="1" /><path clip-path="url(#clip970)" d="M1459.98 1545.48 L1459.98 1561.13 L1455.72 1561.13 L1455.72 1545.62 Q1455.72 1541.94 1454.28 1540.11 Q1452.85 1538.28 1449.98 1538.28 Q1446.53 1538.28 1444.54 1540.48 Q1442.55 1542.68 1442.55 1546.48 L1442.55 1561.13 L1438.26 1561.13 L1438.26 1535.21 L1442.55 1535.21 L1442.55 1539.23 Q1444.07 1536.9 1446.14 1535.74 Q1448.22 1534.58 1450.93 1534.58 Q1455.39 1534.58 1457.69 1537.36 Q1459.98 1540.11 1459.98 1545.48 Z" fill="#000000" fill-rule="evenodd" fill-opacity="1" /><path clip-path="url(#clip970)" d="M1485 1535.97 L1485 1540 Q1483.2 1539.07 1481.25 1538.61 Q1479.31 1538.15 1477.22 1538.15 Q1474.05 1538.15 1472.45 1539.12 Q1470.88 1540.09 1470.88 1542.03 Q1470.88 1543.52 1472.01 1544.37 Q1473.15 1545.21 1476.57 1545.97 L1478.03 1546.29 Q1482.57 1547.27 1484.47 1549.05 Q1486.39 1550.81 1486.39 1553.98 Q1486.39 1557.59 1483.52 1559.7 Q1480.67 1561.8 1475.67 1561.8 Q1473.59 1561.8 1471.32 1561.39 Q1469.07 1560.99 1466.57 1560.18 L1466.57 1555.78 Q1468.94 1557.01 1471.23 1557.64 Q1473.52 1558.24 1475.76 1558.24 Q1478.77 1558.24 1480.39 1557.22 Q1482.01 1556.18 1482.01 1554.3 Q1482.01 1552.57 1480.83 1551.64 Q1479.68 1550.72 1475.72 1549.86 L1474.24 1549.51 Q1470.28 1548.68 1468.52 1546.97 Q1466.76 1545.23 1466.76 1542.22 Q1466.76 1538.56 1469.35 1536.57 Q1471.95 1534.58 1476.71 1534.58 Q1479.07 1534.58 1481.16 1534.93 Q1483.24 1535.28 1485 1535.97 Z" fill="#000000" fill-rule="evenodd" fill-opacity="1" /><path clip-path="url(#clip970)" d="M1492.73 1550.9 L1492.73 1535.21 L1496.99 1535.21 L1496.99 1550.74 Q1496.99 1554.42 1498.43 1556.27 Q1499.86 1558.1 1502.73 1558.1 Q1506.18 1558.1 1508.17 1555.9 Q1510.19 1553.7 1510.19 1549.91 L1510.19 1535.21 L1514.44 1535.21 L1514.44 1561.13 L1510.19 1561.13 L1510.19 1557.15 Q1508.63 1559.51 1506.57 1560.67 Q1504.54 1561.8 1501.83 1561.8 Q1497.36 1561.8 1495.05 1559.03 Q1492.73 1556.25 1492.73 1550.9 M1503.45 1534.58 L1503.45 1534.58 Z" fill="#000000" fill-rule="evenodd" fill-opacity="1" /><path clip-path="url(#clip970)" d="M1543.4 1540.18 Q1545 1537.31 1547.22 1535.95 Q1549.44 1534.58 1552.45 1534.58 Q1556.5 1534.58 1558.7 1537.43 Q1560.9 1540.25 1560.9 1545.48 L1560.9 1561.13 L1556.62 1561.13 L1556.62 1545.62 Q1556.62 1541.9 1555.3 1540.09 Q1553.98 1538.28 1551.27 1538.28 Q1547.96 1538.28 1546.04 1540.48 Q1544.12 1542.68 1544.12 1546.48 L1544.12 1561.13 L1539.84 1561.13 L1539.84 1545.62 Q1539.84 1541.87 1538.52 1540.09 Q1537.2 1538.28 1534.44 1538.28 Q1531.18 1538.28 1529.26 1540.51 Q1527.34 1542.71 1527.34 1546.48 L1527.34 1561.13 L1523.06 1561.13 L1523.06 1535.21 L1527.34 1535.21 L1527.34 1539.23 Q1528.8 1536.85 1530.83 1535.72 Q1532.87 1534.58 1535.67 1534.58 Q1538.5 1534.58 1540.46 1536.02 Q1542.45 1537.45 1543.4 1540.18 Z" fill="#000000" fill-rule="evenodd" fill-opacity="1" /><path clip-path="url(#clip970)" d="M1591.57 1547.1 L1591.57 1549.19 L1571.99 1549.19 Q1572.27 1553.59 1574.63 1555.9 Q1577.01 1558.19 1581.25 1558.19 Q1583.7 1558.19 1586 1557.59 Q1588.31 1556.99 1590.58 1555.78 L1590.58 1559.81 Q1588.29 1560.78 1585.88 1561.29 Q1583.47 1561.8 1581 1561.8 Q1574.79 1561.8 1571.16 1558.19 Q1567.55 1554.58 1567.55 1548.42 Q1567.55 1542.06 1570.97 1538.33 Q1574.42 1534.58 1580.25 1534.58 Q1585.49 1534.58 1588.52 1537.96 Q1591.57 1541.32 1591.57 1547.1 M1587.31 1545.85 Q1587.27 1542.36 1585.35 1540.28 Q1583.45 1538.19 1580.3 1538.19 Q1576.74 1538.19 1574.58 1540.21 Q1572.45 1542.22 1572.13 1545.88 L1587.31 1545.85 Z" fill="#000000" fill-rule="evenodd" fill-opacity="1" /><path clip-path="url(#clip970)" d="M1613.59 1539.19 Q1612.87 1538.77 1612.01 1538.59 Q1611.18 1538.38 1610.16 1538.38 Q1606.55 1538.38 1604.61 1540.74 Q1602.69 1543.08 1602.69 1547.47 L1602.69 1561.13 L1598.4 1561.13 L1598.4 1535.21 L1602.69 1535.21 L1602.69 1539.23 Q1604.03 1536.87 1606.18 1535.74 Q1608.33 1534.58 1611.41 1534.58 Q1611.85 1534.58 1612.38 1534.65 Q1612.92 1534.7 1613.56 1534.81 L1613.59 1539.19 Z" fill="#000000" fill-rule="evenodd" fill-opacity="1" /><path clip-path="url(#clip970)" d="M1655.3 1547.1 L1655.3 1549.19 L1635.72 1549.19 Q1636 1553.59 1638.36 1555.9 Q1640.74 1558.19 1644.98 1558.19 Q1647.43 1558.19 1649.72 1557.59 Q1652.04 1556.99 1654.31 1555.78 L1654.31 1559.81 Q1652.01 1560.78 1649.61 1561.29 Q1647.2 1561.8 1644.72 1561.8 Q1638.52 1561.8 1634.88 1558.19 Q1631.27 1554.58 1631.27 1548.42 Q1631.27 1542.06 1634.7 1538.33 Q1638.15 1534.58 1643.98 1534.58 Q1649.21 1534.58 1652.25 1537.96 Q1655.3 1541.32 1655.3 1547.1 M1651.04 1545.85 Q1651 1542.36 1649.07 1540.28 Q1647.18 1538.19 1644.03 1538.19 Q1640.46 1538.19 1638.31 1540.21 Q1636.18 1542.22 1635.86 1545.88 L1651.04 1545.85 Z" fill="#000000" fill-rule="evenodd" fill-opacity="1" /><path clip-path="url(#clip970)" d="M1683.01 1535.21 L1673.63 1547.82 L1683.5 1561.13 L1678.47 1561.13 L1670.93 1550.95 L1663.38 1561.13 L1658.36 1561.13 L1668.43 1547.57 L1659.21 1535.21 L1664.24 1535.21 L1671.11 1544.44 L1677.99 1535.21 L1683.01 1535.21 Z" fill="#000000" fill-rule="evenodd" fill-opacity="1" /><path clip-path="url(#clip970)" d="M1693.63 1557.24 L1693.63 1570.99 L1689.35 1570.99 L1689.35 1535.21 L1693.63 1535.21 L1693.63 1539.14 Q1694.98 1536.83 1697.01 1535.72 Q1699.07 1534.58 1701.92 1534.58 Q1706.64 1534.58 1709.58 1538.33 Q1712.55 1542.08 1712.55 1548.19 Q1712.55 1554.3 1709.58 1558.05 Q1706.64 1561.8 1701.92 1561.8 Q1699.07 1561.8 1697.01 1560.69 Q1694.98 1559.56 1693.63 1557.24 M1708.12 1548.19 Q1708.12 1543.49 1706.18 1540.83 Q1704.26 1538.15 1700.88 1538.15 Q1697.5 1538.15 1695.56 1540.83 Q1693.63 1543.49 1693.63 1548.19 Q1693.63 1552.89 1695.56 1555.58 Q1697.5 1558.24 1700.88 1558.24 Q1704.26 1558.24 1706.18 1555.58 Q1708.12 1552.89 1708.12 1548.19 Z" fill="#000000" fill-rule="evenodd" fill-opacity="1" /><path clip-path="url(#clip970)" d="M1741.78 1547.1 L1741.78 1549.19 L1722.2 1549.19 Q1722.48 1553.59 1724.84 1555.9 Q1727.22 1558.19 1731.46 1558.19 Q1733.91 1558.19 1736.2 1557.59 Q1738.52 1556.99 1740.79 1555.78 L1740.79 1559.81 Q1738.49 1560.78 1736.09 1561.29 Q1733.68 1561.8 1731.2 1561.8 Q1725 1561.8 1721.37 1558.19 Q1717.75 1554.58 1717.75 1548.42 Q1717.75 1542.06 1721.18 1538.33 Q1724.63 1534.58 1730.46 1534.58 Q1735.69 1534.58 1738.73 1537.96 Q1741.78 1541.32 1741.78 1547.1 M1737.52 1545.85 Q1737.48 1542.36 1735.55 1540.28 Q1733.66 1538.19 1730.51 1538.19 Q1726.94 1538.19 1724.79 1540.21 Q1722.66 1542.22 1722.34 1545.88 L1737.52 1545.85 Z" fill="#000000" fill-rule="evenodd" fill-opacity="1" /><path clip-path="url(#clip970)" d="M1767.43 1536.2 L1767.43 1540.18 Q1765.62 1539.19 1763.8 1538.7 Q1761.99 1538.19 1760.14 1538.19 Q1755.99 1538.19 1753.7 1540.83 Q1751.41 1543.45 1751.41 1548.19 Q1751.41 1552.94 1753.7 1555.58 Q1755.99 1558.19 1760.14 1558.19 Q1761.99 1558.19 1763.8 1557.71 Q1765.62 1557.2 1767.43 1556.2 L1767.43 1560.14 Q1765.65 1560.97 1763.73 1561.39 Q1761.83 1561.8 1759.68 1561.8 Q1753.82 1561.8 1750.37 1558.12 Q1746.92 1554.44 1746.92 1548.19 Q1746.92 1541.85 1750.39 1538.22 Q1753.89 1534.58 1759.95 1534.58 Q1761.92 1534.58 1763.8 1535 Q1765.67 1535.39 1767.43 1536.2 Z" fill="#000000" fill-rule="evenodd" fill-opacity="1" /><path clip-path="url(#clip970)" d="M1779.05 1527.84 L1779.05 1535.21 L1787.82 1535.21 L1787.82 1538.52 L1779.05 1538.52 L1779.05 1552.59 Q1779.05 1555.76 1779.91 1556.66 Q1780.79 1557.57 1783.45 1557.57 L1787.82 1557.57 L1787.82 1561.13 L1783.45 1561.13 Q1778.52 1561.13 1776.64 1559.3 Q1774.77 1557.45 1774.77 1552.59 L1774.77 1538.52 L1771.64 1538.52 L1771.64 1535.21 L1774.77 1535.21 L1774.77 1527.84 L1779.05 1527.84 Z" fill="#000000" fill-rule="evenodd" fill-opacity="1" /><path clip-path="url(#clip970)" d="M1805.21 1548.1 Q1800.05 1548.1 1798.05 1549.28 Q1796.06 1550.46 1796.06 1553.31 Q1796.06 1555.58 1797.55 1556.92 Q1799.05 1558.24 1801.62 1558.24 Q1805.16 1558.24 1807.29 1555.74 Q1809.44 1553.22 1809.44 1549.05 L1809.44 1548.1 L1805.21 1548.1 M1813.7 1546.34 L1813.7 1561.13 L1809.44 1561.13 L1809.44 1557.2 Q1807.99 1559.56 1805.81 1560.69 Q1803.63 1561.8 1800.49 1561.8 Q1796.5 1561.8 1794.14 1559.58 Q1791.8 1557.34 1791.8 1553.59 Q1791.8 1549.21 1794.72 1546.99 Q1797.66 1544.77 1803.47 1544.77 L1809.44 1544.77 L1809.44 1544.35 Q1809.44 1541.41 1807.5 1539.81 Q1805.58 1538.19 1802.08 1538.19 Q1799.86 1538.19 1797.75 1538.72 Q1795.65 1539.26 1793.7 1540.32 L1793.7 1536.39 Q1796.04 1535.48 1798.24 1535.04 Q1800.44 1534.58 1802.52 1534.58 Q1808.15 1534.58 1810.92 1537.5 Q1813.7 1540.41 1813.7 1546.34 Z" fill="#000000" fill-rule="evenodd" fill-opacity="1" /><path clip-path="url(#clip970)" d="M1826.69 1527.84 L1826.69 1535.21 L1835.46 1535.21 L1835.46 1538.52 L1826.69 1538.52 L1826.69 1552.59 Q1826.69 1555.76 1827.55 1556.66 Q1828.42 1557.57 1831.09 1557.57 L1835.46 1557.57 L1835.46 1561.13 L1831.09 1561.13 Q1826.16 1561.13 1824.28 1559.3 Q1822.41 1557.45 1822.41 1552.59 L1822.41 1538.52 L1819.28 1538.52 L1819.28 1535.21 L1822.41 1535.21 L1822.41 1527.84 L1826.69 1527.84 Z" fill="#000000" fill-rule="evenodd" fill-opacity="1" /><path clip-path="url(#clip970)" d="M1841.06 1535.21 L1845.32 1535.21 L1845.32 1561.13 L1841.06 1561.13 L1841.06 1535.21 M1841.06 1525.11 L1845.32 1525.11 L1845.32 1530.51 L1841.06 1530.51 L1841.06 1525.11 Z" fill="#000000" fill-rule="evenodd" fill-opacity="1" /><path clip-path="url(#clip970)" d="M1864.28 1538.19 Q1860.86 1538.19 1858.86 1540.88 Q1856.87 1543.54 1856.87 1548.19 Q1856.87 1552.84 1858.84 1555.53 Q1860.83 1558.19 1864.28 1558.19 Q1867.68 1558.19 1869.67 1555.51 Q1871.67 1552.82 1871.67 1548.19 Q1871.67 1543.59 1869.67 1540.9 Q1867.68 1538.19 1864.28 1538.19 M1864.28 1534.58 Q1869.84 1534.58 1873.01 1538.19 Q1876.18 1541.8 1876.18 1548.19 Q1876.18 1554.56 1873.01 1558.19 Q1869.84 1561.8 1864.28 1561.8 Q1858.7 1561.8 1855.53 1558.19 Q1852.38 1554.56 1852.38 1548.19 Q1852.38 1541.8 1855.53 1538.19 Q1858.7 1534.58 1864.28 1534.58 Z" fill="#000000" fill-rule="evenodd" fill-opacity="1" /><path clip-path="url(#clip970)" d="M1904.79 1545.48 L1904.79 1561.13 L1900.53 1561.13 L1900.53 1545.62 Q1900.53 1541.94 1899.1 1540.11 Q1897.66 1538.28 1894.79 1538.28 Q1891.34 1538.28 1889.35 1540.48 Q1887.36 1542.68 1887.36 1546.48 L1887.36 1561.13 L1883.08 1561.13 L1883.08 1535.21 L1887.36 1535.21 L1887.36 1539.23 Q1888.89 1536.9 1890.95 1535.74 Q1893.03 1534.58 1895.74 1534.58 Q1900.21 1534.58 1902.5 1537.36 Q1904.79 1540.11 1904.79 1545.48 Z" fill="#000000" fill-rule="evenodd" fill-opacity="1" /><polyline clip-path="url(#clip972)" style="stroke:#000000; stroke-linecap:round; stroke-linejoin:round; stroke-width:2; stroke-opacity:0.1; fill:none" points="
  176.276,1406.65 2352.76,1406.65 
  "/>
<polyline clip-path="url(#clip972)" style="stroke:#000000; stroke-linecap:round; stroke-linejoin:round; stroke-width:2; stroke-opacity:0.1; fill:none" points="
  176.276,976.092 2352.76,976.092 
  "/>
<polyline clip-path="url(#clip972)" style="stroke:#000000; stroke-linecap:round; stroke-linejoin:round; stroke-width:2; stroke-opacity:0.1; fill:none" points="
  176.276,545.531 2352.76,545.531 
  "/>
<polyline clip-path="url(#clip972)" style="stroke:#000000; stroke-linecap:round; stroke-linejoin:round; stroke-width:2; stroke-opacity:0.1; fill:none" points="
  176.276,114.971 2352.76,114.971 
  "/>
<polyline clip-path="url(#clip970)" style="stroke:#000000; stroke-linecap:round; stroke-linejoin:round; stroke-width:4; stroke-opacity:1; fill:none" points="
  176.276,1444.78 176.276,97.5521 
  "/>
<polyline clip-path="url(#clip970)" style="stroke:#000000; stroke-linecap:round; stroke-linejoin:round; stroke-width:4; stroke-opacity:1; fill:none" points="
  176.276,1406.65 195.173,1406.65 
  "/>
<polyline clip-path="url(#clip970)" style="stroke:#000000; stroke-linecap:round; stroke-linejoin:round; stroke-width:4; stroke-opacity:1; fill:none" points="
  176.276,976.092 195.173,976.092 
  "/>
<polyline clip-path="url(#clip970)" style="stroke:#000000; stroke-linecap:round; stroke-linejoin:round; stroke-width:4; stroke-opacity:1; fill:none" points="
  176.276,545.531 195.173,545.531 
  "/>
<polyline clip-path="url(#clip970)" style="stroke:#000000; stroke-linecap:round; stroke-linejoin:round; stroke-width:4; stroke-opacity:1; fill:none" points="
  176.276,114.971 195.173,114.971 
  "/>
<path clip-path="url(#clip970)" d="M131.317 1396 Q128.609 1396 127.238 1398.67 Q125.883 1401.33 125.883 1406.68 Q125.883 1412.01 127.238 1414.68 Q128.609 1417.34 131.317 1417.34 Q134.043 1417.34 135.397 1414.68 Q136.769 1412.01 136.769 1406.68 Q136.769 1401.33 135.397 1398.67 Q134.043 1396 131.317 1396 M131.317 1393.22 Q135.675 1393.22 137.967 1396.68 Q140.276 1400.12 140.276 1406.68 Q140.276 1413.22 137.967 1416.68 Q135.675 1420.12 131.317 1420.12 Q126.96 1420.12 124.651 1416.68 Q122.359 1413.22 122.359 1406.68 Q122.359 1400.12 124.651 1396.68 Q126.96 1393.22 131.317 1393.22 Z" fill="#000000" fill-rule="evenodd" fill-opacity="1" /><path clip-path="url(#clip970)" d="M124.599 963.132 L138.366 963.132 L138.366 966.083 L127.81 966.083 L127.81 972.437 Q128.574 972.177 129.338 972.055 Q130.102 971.916 130.866 971.916 Q135.206 971.916 137.741 974.295 Q140.276 976.673 140.276 980.736 Q140.276 984.92 137.671 987.246 Q135.067 989.555 130.328 989.555 Q128.696 989.555 126.994 989.277 Q125.31 989 123.505 988.444 L123.505 984.92 Q125.067 985.77 126.734 986.187 Q128.401 986.604 130.258 986.604 Q133.262 986.604 135.015 985.024 Q136.769 983.444 136.769 980.736 Q136.769 978.027 135.015 976.448 Q133.262 974.868 130.258 974.868 Q128.852 974.868 127.446 975.18 Q126.057 975.493 124.599 976.152 L124.599 963.132 Z" fill="#000000" fill-rule="evenodd" fill-opacity="1" /><path clip-path="url(#clip970)" d="M101.804 555.54 L107.533 555.54 L107.533 535.766 L101.3 537.016 L101.3 533.821 L107.498 532.571 L111.005 532.571 L111.005 555.54 L116.734 555.54 L116.734 558.491 L101.804 558.491 L101.804 555.54 Z" fill="#000000" fill-rule="evenodd" fill-opacity="1" /><path clip-path="url(#clip970)" d="M131.317 534.88 Q128.609 534.88 127.238 537.554 Q125.883 540.21 125.883 545.557 Q125.883 550.887 127.238 553.561 Q128.609 556.217 131.317 556.217 Q134.043 556.217 135.397 553.561 Q136.769 550.887 136.769 545.557 Q136.769 540.21 135.397 537.554 Q134.043 534.88 131.317 534.88 M131.317 532.103 Q135.675 532.103 137.967 535.558 Q140.276 538.995 140.276 545.557 Q140.276 552.103 137.967 555.557 Q135.675 558.995 131.317 558.995 Q126.96 558.995 124.651 555.557 Q122.359 552.103 122.359 545.557 Q122.359 538.995 124.651 535.558 Q126.96 532.103 131.317 532.103 Z" fill="#000000" fill-rule="evenodd" fill-opacity="1" /><path clip-path="url(#clip970)" d="M102.55 124.98 L108.279 124.98 L108.279 105.206 L102.047 106.456 L102.047 103.261 L108.245 102.011 L111.751 102.011 L111.751 124.98 L117.481 124.98 L117.481 127.931 L102.55 127.931 L102.55 124.98 Z" fill="#000000" fill-rule="evenodd" fill-opacity="1" /><path clip-path="url(#clip970)" d="M124.599 102.011 L138.366 102.011 L138.366 104.962 L127.81 104.962 L127.81 111.317 Q128.574 111.056 129.338 110.935 Q130.102 110.796 130.866 110.796 Q135.206 110.796 137.741 113.174 Q140.276 115.553 140.276 119.615 Q140.276 123.799 137.671 126.126 Q135.067 128.435 130.328 128.435 Q128.696 128.435 126.994 128.157 Q125.31 127.879 123.505 127.323 L123.505 123.799 Q125.067 124.65 126.734 125.067 Q128.401 125.483 130.258 125.483 Q133.262 125.483 135.015 123.903 Q136.769 122.324 136.769 119.615 Q136.769 116.907 135.015 115.327 Q133.262 113.747 130.258 113.747 Q128.852 113.747 127.446 114.06 Q126.057 114.372 124.599 115.032 L124.599 102.011 Z" fill="#000000" fill-rule="evenodd" fill-opacity="1" /><path clip-path="url(#clip970)" d="M18.9138 792.948 L22.4555 792.948 L22.4555 797.022 Q22.4555 799.314 23.3814 800.217 Q24.3073 801.096 26.7147 801.096 L29.0064 801.096 L29.0064 794.083 L32.3165 794.083 L32.3165 801.096 L54.9322 801.096 L54.9322 805.379 L32.3165 805.379 L32.3165 809.453 L29.0064 809.453 L29.0064 805.379 L27.2008 805.379 Q22.8721 805.379 20.9046 803.365 Q18.9138 801.351 18.9138 796.976 L18.9138 792.948 Z" fill="#000000" fill-rule="evenodd" fill-opacity="1" /><path clip-path="url(#clip970)" d="M18.9601 779.152 Q24.2842 782.254 29.4925 783.759 Q34.7008 785.263 40.048 785.263 Q45.3952 785.263 50.6498 783.759 Q55.8812 782.231 61.1821 779.152 L61.1821 782.856 Q55.7423 786.328 50.4877 788.064 Q45.2331 789.777 40.048 789.777 Q34.886 789.777 29.6545 788.064 Q24.4231 786.351 18.9601 782.856 L18.9601 779.152 Z" fill="#000000" fill-rule="evenodd" fill-opacity="1" /><path clip-path="url(#clip970)" d="M29.0064 749.337 L41.622 758.712 L54.9322 748.851 L54.9322 753.874 L44.747 761.421 L54.9322 768.967 L54.9322 773.99 L41.3674 763.921 L29.0064 773.134 L29.0064 768.11 L38.2424 761.235 L29.0064 754.361 L29.0064 749.337 Z" fill="#000000" fill-rule="evenodd" fill-opacity="1" /><path clip-path="url(#clip970)" d="M18.9601 743.504 L18.9601 739.8 Q24.4231 736.328 29.6545 734.615 Q34.886 732.879 40.048 732.879 Q45.2331 732.879 50.4877 734.615 Q55.7423 736.328 61.1821 739.8 L61.1821 743.504 Q55.8812 740.425 50.6498 738.921 Q45.3952 737.393 40.048 737.393 Q34.7008 737.393 29.4925 738.921 Q24.2842 740.425 18.9601 743.504 Z" fill="#000000" fill-rule="evenodd" fill-opacity="1" /><path clip-path="url(#clip970)" d="M1079.05 10.7546 L1079.05 37.6294 L1084.7 37.6294 Q1091.85 37.6294 1095.16 34.3887 Q1098.5 31.148 1098.5 24.1573 Q1098.5 17.2129 1095.16 13.9953 Q1091.85 10.7546 1084.7 10.7546 L1079.05 10.7546 M1074.38 6.912 L1083.98 6.912 Q1094.03 6.912 1098.73 11.1018 Q1103.43 15.2684 1103.43 24.1573 Q1103.43 33.0924 1098.71 37.2822 Q1093.98 41.472 1083.98 41.472 L1074.38 41.472 L1074.38 6.912 Z" fill="#000000" fill-rule="evenodd" fill-opacity="1" /><path clip-path="url(#clip970)" d="M1132.87 27.4443 L1132.87 29.5276 L1113.29 29.5276 Q1113.57 33.9257 1115.93 36.2405 Q1118.31 38.5322 1122.55 38.5322 Q1125 38.5322 1127.29 37.9304 Q1129.61 37.3285 1131.88 36.1248 L1131.88 40.1526 Q1129.59 41.1248 1127.18 41.634 Q1124.77 42.1433 1122.29 42.1433 Q1116.09 42.1433 1112.46 38.5322 Q1108.85 34.9211 1108.85 28.7637 Q1108.85 22.398 1112.27 18.6712 Q1115.72 14.9212 1121.55 14.9212 Q1126.79 14.9212 1129.82 18.3008 Q1132.87 21.6573 1132.87 27.4443 M1128.61 26.1943 Q1128.57 22.699 1126.65 20.6156 Q1124.75 18.5323 1121.6 18.5323 Q1118.04 18.5323 1115.88 20.5462 Q1113.75 22.5601 1113.43 26.2175 L1128.61 26.1943 Z" fill="#000000" fill-rule="evenodd" fill-opacity="1" /><path clip-path="url(#clip970)" d="M1161.41 25.8239 L1161.41 41.472 L1157.16 41.472 L1157.16 25.9628 Q1157.16 22.2823 1155.72 20.4536 Q1154.28 18.6249 1151.41 18.6249 Q1147.97 18.6249 1145.97 20.824 Q1143.98 23.023 1143.98 26.8193 L1143.98 41.472 L1139.7 41.472 L1139.7 15.5462 L1143.98 15.5462 L1143.98 19.574 Q1145.51 17.236 1147.57 16.0786 Q1149.66 14.9212 1152.36 14.9212 Q1156.83 14.9212 1159.12 17.699 Q1161.41 20.4536 1161.41 25.8239 Z" fill="#000000" fill-rule="evenodd" fill-opacity="1" /><path clip-path="url(#clip970)" d="M1186.44 16.3101 L1186.44 20.3379 Q1184.63 19.4119 1182.69 18.949 Q1180.74 18.486 1178.66 18.486 Q1175.49 18.486 1173.89 19.4582 Q1172.32 20.4304 1172.32 22.3749 Q1172.32 23.8564 1173.45 24.7128 Q1174.59 25.5462 1178.01 26.31 L1179.47 26.6341 Q1184.01 27.6063 1185.91 29.3887 Q1187.83 31.148 1187.83 34.3193 Q1187.83 37.9304 1184.96 40.0368 Q1182.11 42.1433 1177.11 42.1433 Q1175.03 42.1433 1172.76 41.7266 Q1170.51 41.3331 1168.01 40.5229 L1168.01 36.1248 Q1170.37 37.3517 1172.66 37.9766 Q1174.96 38.5785 1177.2 38.5785 Q1180.21 38.5785 1181.83 37.56 Q1183.45 36.5183 1183.45 34.6433 Q1183.45 32.9072 1182.27 31.9813 Q1181.11 31.0554 1177.16 30.1989 L1175.67 29.8517 Q1171.72 29.0184 1169.96 27.3054 Q1168.2 25.5693 1168.2 22.5601 Q1168.2 18.9027 1170.79 16.9119 Q1173.38 14.9212 1178.15 14.9212 Q1180.51 14.9212 1182.59 15.2684 Q1184.68 15.6157 1186.44 16.3101 Z" fill="#000000" fill-rule="evenodd" fill-opacity="1" /><path clip-path="url(#clip970)" d="M1194.61 15.5462 L1198.87 15.5462 L1198.87 41.472 L1194.61 41.472 L1194.61 15.5462 M1194.61 5.45367 L1198.87 5.45367 L1198.87 10.8472 L1194.61 10.8472 L1194.61 5.45367 Z" fill="#000000" fill-rule="evenodd" fill-opacity="1" /><path clip-path="url(#clip970)" d="M1211.99 8.18514 L1211.99 15.5462 L1220.77 15.5462 L1220.77 18.8564 L1211.99 18.8564 L1211.99 32.9304 Q1211.99 36.1017 1212.85 37.0044 Q1213.73 37.9072 1216.39 37.9072 L1220.77 37.9072 L1220.77 41.472 L1216.39 41.472 Q1211.46 41.472 1209.59 39.6433 Q1207.71 37.7915 1207.71 32.9304 L1207.71 18.8564 L1204.59 18.8564 L1204.59 15.5462 L1207.71 15.5462 L1207.71 8.18514 L1211.99 8.18514 Z" fill="#000000" fill-rule="evenodd" fill-opacity="1" /><path clip-path="url(#clip970)" d="M1237.15 43.8794 Q1235.35 48.509 1233.64 49.921 Q1231.92 51.3331 1229.05 51.3331 L1225.65 51.3331 L1225.65 47.7683 L1228.15 47.7683 Q1229.91 47.7683 1230.88 46.9349 Q1231.85 46.1016 1233.03 42.9998 L1233.8 41.0553 L1223.31 15.5462 L1227.83 15.5462 L1235.93 35.8239 L1244.03 15.5462 L1248.54 15.5462 L1237.15 43.8794 Z" fill="#000000" fill-rule="evenodd" fill-opacity="1" /><path clip-path="url(#clip970)" d="M1282.62 5.45367 L1282.62 8.99532 L1278.54 8.99532 Q1276.25 8.99532 1275.35 9.92124 Q1274.47 10.8472 1274.47 13.2546 L1274.47 15.5462 L1281.48 15.5462 L1281.48 18.8564 L1274.47 18.8564 L1274.47 41.472 L1270.19 41.472 L1270.19 18.8564 L1266.11 18.8564 L1266.11 15.5462 L1270.19 15.5462 L1270.19 13.7407 Q1270.19 9.41199 1272.2 7.4444 Q1274.21 5.45367 1278.59 5.45367 L1282.62 5.45367 Z" fill="#000000" fill-rule="evenodd" fill-opacity="1" /><path clip-path="url(#clip970)" d="M1285.74 31.2406 L1285.74 15.5462 L1290 15.5462 L1290 31.0785 Q1290 34.7591 1291.44 36.6109 Q1292.87 38.4396 1295.74 38.4396 Q1299.19 38.4396 1301.18 36.2405 Q1303.2 34.0415 1303.2 30.2452 L1303.2 15.5462 L1307.46 15.5462 L1307.46 41.472 L1303.2 41.472 L1303.2 37.4905 Q1301.65 39.8516 1299.59 41.009 Q1297.55 42.1433 1294.84 42.1433 Q1290.37 42.1433 1288.06 39.3655 Q1285.74 36.5878 1285.74 31.2406 M1296.46 14.9212 L1296.46 14.9212 Z" fill="#000000" fill-rule="evenodd" fill-opacity="1" /><path clip-path="url(#clip970)" d="M1337.78 25.8239 L1337.78 41.472 L1333.52 41.472 L1333.52 25.9628 Q1333.52 22.2823 1332.08 20.4536 Q1330.65 18.6249 1327.78 18.6249 Q1324.33 18.6249 1322.34 20.824 Q1320.35 23.023 1320.35 26.8193 L1320.35 41.472 L1316.07 41.472 L1316.07 15.5462 L1320.35 15.5462 L1320.35 19.574 Q1321.88 17.236 1323.94 16.0786 Q1326.02 14.9212 1328.73 14.9212 Q1333.2 14.9212 1335.49 17.699 Q1337.78 20.4536 1337.78 25.8239 Z" fill="#000000" fill-rule="evenodd" fill-opacity="1" /><path clip-path="url(#clip970)" d="M1364.93 16.5416 L1364.93 20.523 Q1363.13 19.5277 1361.3 19.0416 Q1359.49 18.5323 1357.64 18.5323 Q1353.5 18.5323 1351.21 21.1712 Q1348.91 23.7869 1348.91 28.5323 Q1348.91 33.2776 1351.21 35.9165 Q1353.5 38.5322 1357.64 38.5322 Q1359.49 38.5322 1361.3 38.0461 Q1363.13 37.5368 1364.93 36.5415 L1364.93 40.4766 Q1363.15 41.31 1361.23 41.7266 Q1359.33 42.1433 1357.18 42.1433 Q1351.32 42.1433 1347.87 38.4628 Q1344.42 34.7822 1344.42 28.5323 Q1344.42 22.1897 1347.89 18.5555 Q1351.39 14.9212 1357.46 14.9212 Q1359.42 14.9212 1361.3 15.3379 Q1363.17 15.7314 1364.93 16.5416 Z" fill="#000000" fill-rule="evenodd" fill-opacity="1" /><path clip-path="url(#clip970)" d="M1376.55 8.18514 L1376.55 15.5462 L1385.33 15.5462 L1385.33 18.8564 L1376.55 18.8564 L1376.55 32.9304 Q1376.55 36.1017 1377.41 37.0044 Q1378.29 37.9072 1380.95 37.9072 L1385.33 37.9072 L1385.33 41.472 L1380.95 41.472 Q1376.02 41.472 1374.14 39.6433 Q1372.27 37.7915 1372.27 32.9304 L1372.27 18.8564 L1369.14 18.8564 L1369.14 15.5462 L1372.27 15.5462 L1372.27 8.18514 L1376.55 8.18514 Z" fill="#000000" fill-rule="evenodd" fill-opacity="1" /><path clip-path="url(#clip970)" d="M1390.93 15.5462 L1395.19 15.5462 L1395.19 41.472 L1390.93 41.472 L1390.93 15.5462 M1390.93 5.45367 L1395.19 5.45367 L1395.19 10.8472 L1390.93 10.8472 L1390.93 5.45367 Z" fill="#000000" fill-rule="evenodd" fill-opacity="1" /><path clip-path="url(#clip970)" d="M1414.14 18.5323 Q1410.72 18.5323 1408.73 21.2175 Q1406.74 23.8795 1406.74 28.5323 Q1406.74 33.185 1408.7 35.8702 Q1410.7 38.5322 1414.14 38.5322 Q1417.55 38.5322 1419.54 35.847 Q1421.53 33.1619 1421.53 28.5323 Q1421.53 23.9258 1419.54 21.2406 Q1417.55 18.5323 1414.14 18.5323 M1414.14 14.9212 Q1419.7 14.9212 1422.87 18.5323 Q1426.04 22.1434 1426.04 28.5323 Q1426.04 34.898 1422.87 38.5322 Q1419.7 42.1433 1414.14 42.1433 Q1408.57 42.1433 1405.39 38.5322 Q1402.25 34.898 1402.25 28.5323 Q1402.25 22.1434 1405.39 18.5323 Q1408.57 14.9212 1414.14 14.9212 Z" fill="#000000" fill-rule="evenodd" fill-opacity="1" /><path clip-path="url(#clip970)" d="M1454.65 25.8239 L1454.65 41.472 L1450.39 41.472 L1450.39 25.9628 Q1450.39 22.2823 1448.96 20.4536 Q1447.52 18.6249 1444.65 18.6249 Q1441.2 18.6249 1439.21 20.824 Q1437.22 23.023 1437.22 26.8193 L1437.22 41.472 L1432.94 41.472 L1432.94 15.5462 L1437.22 15.5462 L1437.22 19.574 Q1438.75 17.236 1440.81 16.0786 Q1442.89 14.9212 1445.6 14.9212 Q1450.07 14.9212 1452.36 17.699 Q1454.65 20.4536 1454.65 25.8239 Z" fill="#000000" fill-rule="evenodd" fill-opacity="1" /><polyline clip-path="url(#clip972)" style="stroke:#009af9; stroke-linecap:round; stroke-linejoin:round; stroke-width:4; stroke-opacity:1; fill:none" points="
  237.874,1406.65 248.192,1406.64 258.51,1406.62 268.828,1406.59 279.146,1406.51 289.464,1406.37 299.782,1406.11 310.1,1405.67 320.418,1404.97 330.736,1403.94 
  341.054,1402.51 351.372,1400.67 361.69,1398.44 372.008,1395.95 382.326,1393.35 392.644,1390.82 402.962,1388.53 413.28,1386.57 423.598,1384.94 433.916,1383.58 
  444.234,1382.36 454.552,1381.15 464.87,1379.84 475.188,1378.34 485.506,1376.59 495.824,1374.53 506.142,1372.09 516.46,1369.23 526.778,1365.93 537.096,1362.16 
  547.414,1357.95 557.732,1353.32 568.05,1348.33 578.368,1343.03 588.686,1337.5 599.004,1331.85 609.322,1326.23 619.64,1320.79 629.958,1315.65 640.276,1310.86 
  650.594,1306.33 660.912,1301.78 671.23,1296.73 681.548,1290.5 691.866,1282.24 702.184,1271.08 712.502,1256.25 722.82,1237.26 733.138,1213.98 743.456,1186.73 
  753.774,1156.17 764.092,1123.23 774.41,1088.93 784.728,1054.14 795.046,1019.43 805.364,984.964 815.682,950.457 826.001,915.233 836.319,878.423 846.637,839.22 
  856.955,797.152 867.273,752.282 877.591,705.293 887.909,657.41 898.227,610.22 908.545,565.434 918.863,524.674 929.181,489.339 939.499,460.547 949.817,439.126 
  960.135,425.614 970.453,420.239 980.771,422.887 991.089,433.094 1001.41,450.09 1011.72,472.93 1022.04,500.651 1032.36,532.431 1042.68,567.652 1053,605.882 
  1063.31,646.759 1073.63,689.851 1083.95,734.547 1094.27,780.013 1104.59,825.235 1114.9,869.117 1125.22,910.617 1135.54,948.877 1145.86,983.328 1156.18,1013.76 
  1166.49,1040.3 1176.81,1063.39 1187.13,1083.64 1197.45,1101.7 1207.77,1118.1 1218.08,1133.24 1228.4,1147.3 1238.72,1160.27 1249.04,1172.05 1259.36,1182.45 
  1269.67,1191.32 1279.99,1198.55 1290.31,1204.22 1300.63,1208.6 1310.95,1212.23 1321.26,1215.86 1331.58,1220.34 1341.9,1226.42 1352.22,1234.59 1362.54,1244.94 
  1372.85,1257.17 1383.17,1270.67 1393.49,1284.67 1403.81,1298.42 1414.13,1311.27 1424.44,1322.69 1434.76,1332.28 1445.08,1339.68 1455.4,1344.67 1465.72,1347.11 
  1476.03,1347.09 1486.35,1344.87 1496.67,1340.93 1506.99,1335.87 1517.31,1330.35 1527.62,1324.98 1537.94,1320.26 1548.26,1316.57 1558.58,1314.13 1568.9,1313.01 
  1579.21,1313.15 1589.53,1314.39 1599.85,1316.47 1610.17,1319.15 1620.49,1322.18 1630.81,1325.39 1641.12,1328.69 1651.44,1332.06 1661.76,1335.53 1672.08,1339.19 
  1682.4,1343.12 1692.71,1347.44 1703.03,1352.25 1713.35,1357.6 1723.67,1363.46 1733.99,1369.68 1744.3,1375.98 1754.62,1382.02 1764.94,1387.46 1775.26,1391.97 
  1785.58,1395.35 1795.89,1397.5 1806.21,1398.44 1816.53,1398.29 1826.85,1397.26 1837.17,1395.61 1847.48,1393.61 1857.8,1391.56 1868.12,1389.74 1878.44,1388.35 
  1888.76,1387.53 1899.07,1387.32 1909.39,1387.68 1919.71,1388.49 1930.03,1389.6 1940.35,1390.84 1950.66,1392.1 1960.98,1393.32 1971.3,1394.5 1981.62,1395.65 
  1991.94,1396.82 2002.25,1398.03 2012.57,1399.23 2022.89,1400.36 2033.21,1401.29 2043.53,1401.93 2053.84,1402.2 2064.16,1402.09 2074.48,1401.64 2084.8,1400.98 
  2095.12,1400.27 2105.43,1399.68 2115.75,1399.37 2126.07,1399.42 2136.39,1399.85 2146.71,1400.61 2157.02,1401.58 2167.34,1402.63 2177.66,1403.64 2187.98,1404.53 
  2198.3,1405.24 2208.61,1405.76 2218.93,1406.12 2229.25,1406.36 2239.57,1406.5 2249.89,1406.57 2260.2,1406.62 2270.52,1406.64 2280.84,1406.64 2291.16,1406.65 
  
  "/>
<polyline clip-path="url(#clip972)" style="stroke:#e26f46; stroke-linecap:round; stroke-linejoin:round; stroke-width:4; stroke-opacity:1; fill:none" points="
  276.209,1406.65 285.242,1406.64 294.275,1406.62 303.308,1406.59 312.341,1406.5 321.374,1406.33 330.407,1406.02 339.44,1405.51 348.472,1404.73 357.505,1403.64 
  366.538,1402.27 375.571,1400.72 384.604,1399.2 393.637,1397.91 402.67,1397.05 411.703,1396.68 420.735,1396.68 429.768,1396.76 438.801,1396.52 447.834,1395.57 
  456.867,1393.7 465.9,1390.9 474.933,1387.49 483.966,1383.95 492.998,1380.84 502.031,1378.63 511.064,1377.51 520.097,1377.37 529.13,1377.82 538.163,1378.2 
  547.196,1377.76 556.229,1375.69 565.262,1371.21 574.294,1363.73 583.327,1352.99 592.36,1339.16 601.393,1322.96 610.426,1305.56 619.459,1288.32 628.492,1272.5 
  637.525,1258.94 646.557,1247.93 655.59,1239.23 664.623,1232.17 673.656,1225.77 682.689,1218.93 691.722,1210.56 700.755,1199.74 709.788,1185.8 718.821,1168.25 
  727.853,1146.6 736.886,1120.07 745.919,1087.49 754.952,1047.51 763.985,998.981 773.018,941.386 782.051,875.117 791.084,801.474 800.116,722.456 809.149,640.463 
  818.182,558.039 827.215,477.664 836.248,401.624 845.281,331.937 854.314,270.354 863.347,218.431 872.379,177.664 881.412,149.583 890.445,135.681 899.478,137.078 
  908.511,153.932 917.544,184.795 926.577,226.245 935.61,273.109 944.643,319.384 953.675,359.663 962.708,390.568 971.741,411.669 980.774,425.516 989.807,436.759 
  998.84,450.694 1007.87,471.74 1016.91,502.373 1025.94,542.799 1034.97,591.362 1044,645.405 1053.04,702.163 1062.07,759.365 1071.1,815.401 1080.14,869.207 
  1089.17,920.08 1098.2,967.6 1107.23,1011.65 1116.27,1052.44 1125.3,1090.35 1134.33,1125.71 1143.37,1158.58 1152.4,1188.69 1161.43,1215.58 1170.46,1238.84 
  1179.5,1258.3 1188.53,1274.09 1197.56,1286.62 1206.6,1296.44 1215.63,1304.19 1224.66,1310.52 1233.69,1316.03 1242.73,1321.23 1251.76,1326.38 1260.79,1331.52 
  1269.83,1336.37 1278.86,1340.52 1287.89,1343.53 1296.92,1345.09 1305.96,1345.14 1314.99,1343.91 1324.02,1341.88 1333.06,1339.72 1342.09,1338.17 1351.12,1337.91 
  1360.16,1339.43 1369.19,1342.88 1378.22,1348.07 1387.25,1354.48 1396.29,1361.36 1405.32,1367.96 1414.35,1373.61 1423.39,1377.88 1432.42,1380.64 1441.45,1382.02 
  1450.48,1382.36 1459.52,1382.16 1468.55,1381.85 1477.58,1381.75 1486.62,1381.96 1495.65,1382.45 1504.68,1383.07 1513.71,1383.77 1522.75,1384.57 1531.78,1385.64 
  1540.81,1387.13 1549.85,1389.14 1558.88,1391.63 1567.91,1394.42 1576.94,1397.25 1585.98,1399.85 1595.01,1402.04 1604.04,1403.73 1613.08,1404.92 1622.11,1405.69 
  1631.14,1406.16 1640.17,1406.42 1649.21,1406.55 1658.24,1406.61 1667.27,1406.64 1676.31,1406.65 1685.34,1406.65 1694.37,1406.65 1703.4,1406.65 1712.44,1406.65 
  1721.47,1406.64 1730.5,1406.61 1739.54,1406.55 1748.57,1406.43 1757.6,1406.19 1766.63,1405.78 1775.67,1405.12 1784.7,1404.16 1793.73,1402.9 1802.77,1401.4 
  1811.8,1399.83 1820.83,1398.44 1829.86,1397.48 1838.9,1397.12 1847.93,1397.42 1856.96,1398.25 1866,1399.35 1875.03,1400.39 1884.06,1401.07 1893.1,1401.2 
  1902.13,1400.75 1911.16,1399.84 1920.19,1398.75 1929.23,1397.78 1938.26,1397.25 1947.29,1397.32 1956.33,1398.03 1965.36,1399.24 1974.39,1400.74 1983.42,1402.27 
  1992.46,1403.64 2001.49,1404.73 2010.52,1405.51 2019.56,1406.02 2028.59,1406.33 2037.62,1406.5 2046.65,1406.59 2055.69,1406.62 2064.72,1406.64 2073.75,1406.65 
  
  "/>
<path clip-path="url(#clip970)" d="
M248.825 259.1 L673.434 259.1 L673.434 142.46 L248.825 142.46  Z
  " fill="#ffffff" fill-rule="evenodd" fill-opacity="1"/>
<polyline clip-path="url(#clip970)" style="stroke:#000000; stroke-linecap:round; stroke-linejoin:round; stroke-width:4; stroke-opacity:1; fill:none" points="
  248.825,259.1 673.434,259.1 673.434,142.46 248.825,142.46 248.825,259.1 
  "/>
<polyline clip-path="url(#clip970)" style="stroke:#009af9; stroke-linecap:round; stroke-linejoin:round; stroke-width:3; stroke-opacity:1; fill:none" points="
  273.008,181.34 418.107,181.34 
  "/>
<path clip-path="url(#clip970)" d="M442.29 168.38 L447.012 168.38 L458.505 190.064 L458.505 168.38 L461.908 168.38 L461.908 194.3 L457.186 194.3 L445.693 172.616 L445.693 194.3 L442.29 194.3 L442.29 168.38 Z" fill="#000000" fill-rule="evenodd" fill-opacity="1" /><path clip-path="url(#clip970)" d="M476.283 177.095 Q473.713 177.095 472.22 179.109 Q470.727 181.105 470.727 184.595 Q470.727 188.084 472.203 190.098 Q473.696 192.095 476.283 192.095 Q478.835 192.095 480.328 190.081 Q481.821 188.067 481.821 184.595 Q481.821 181.14 480.328 179.126 Q478.835 177.095 476.283 177.095 M476.283 174.387 Q480.449 174.387 482.828 177.095 Q485.206 179.803 485.206 184.595 Q485.206 189.369 482.828 192.095 Q480.449 194.803 476.283 194.803 Q472.099 194.803 469.72 192.095 Q467.359 189.369 467.359 184.595 Q467.359 179.803 469.72 177.095 Q472.099 174.387 476.283 174.387 Z" fill="#000000" fill-rule="evenodd" fill-opacity="1" /><path clip-path="url(#clip970)" d="M513.071 177.841 Q512.533 177.529 511.89 177.39 Q511.265 177.234 510.501 177.234 Q507.793 177.234 506.335 179.005 Q504.894 180.758 504.894 184.057 L504.894 194.3 L501.682 194.3 L501.682 174.855 L504.894 174.855 L504.894 177.876 Q505.901 176.105 507.515 175.255 Q509.13 174.387 511.439 174.387 Q511.769 174.387 512.168 174.439 Q512.567 174.473 513.053 174.56 L513.071 177.841 Z" fill="#000000" fill-rule="evenodd" fill-opacity="1" /><path clip-path="url(#clip970)" d="M532.272 183.779 L532.272 185.341 L517.585 185.341 Q517.793 188.64 519.564 190.376 Q521.352 192.095 524.529 192.095 Q526.369 192.095 528.088 191.643 Q529.824 191.192 531.526 190.289 L531.526 193.31 Q529.807 194.039 528.001 194.421 Q526.196 194.803 524.338 194.803 Q519.685 194.803 516.96 192.095 Q514.251 189.387 514.251 184.769 Q514.251 179.994 516.821 177.199 Q519.408 174.387 523.783 174.387 Q527.706 174.387 529.98 176.921 Q532.272 179.439 532.272 183.779 M529.078 182.841 Q529.043 180.22 527.602 178.657 Q526.178 177.095 523.817 177.095 Q521.144 177.095 519.529 178.605 Q517.932 180.116 517.689 182.859 L529.078 182.841 Z" fill="#000000" fill-rule="evenodd" fill-opacity="1" /><path clip-path="url(#clip970)" d="M549.911 175.428 L549.911 178.449 Q548.557 177.755 547.098 177.407 Q545.64 177.06 544.078 177.06 Q541.699 177.06 540.501 177.789 Q539.321 178.519 539.321 179.977 Q539.321 181.088 540.171 181.73 Q541.022 182.355 543.591 182.928 L544.685 183.171 Q548.088 183.9 549.512 185.237 Q550.953 186.557 550.953 188.935 Q550.953 191.643 548.8 193.223 Q546.664 194.803 542.914 194.803 Q541.352 194.803 539.65 194.491 Q537.966 194.196 536.091 193.588 L536.091 190.289 Q537.862 191.209 539.581 191.678 Q541.3 192.13 542.984 192.13 Q545.241 192.13 546.456 191.366 Q547.671 190.584 547.671 189.178 Q547.671 187.876 546.786 187.182 Q545.918 186.487 542.949 185.845 L541.838 185.584 Q538.869 184.959 537.55 183.675 Q536.23 182.373 536.23 180.116 Q536.23 177.373 538.175 175.88 Q540.119 174.387 543.696 174.387 Q545.466 174.387 547.029 174.647 Q548.591 174.907 549.911 175.428 Z" fill="#000000" fill-rule="evenodd" fill-opacity="1" /><path clip-path="url(#clip970)" d="M572.671 183.779 L572.671 185.341 L557.984 185.341 Q558.192 188.64 559.963 190.376 Q561.751 192.095 564.928 192.095 Q566.768 192.095 568.487 191.643 Q570.223 191.192 571.925 190.289 L571.925 193.31 Q570.206 194.039 568.4 194.421 Q566.595 194.803 564.737 194.803 Q560.084 194.803 557.359 192.095 Q554.65 189.387 554.65 184.769 Q554.65 179.994 557.22 177.199 Q559.807 174.387 564.182 174.387 Q568.105 174.387 570.379 176.921 Q572.671 179.439 572.671 183.779 M569.477 182.841 Q569.442 180.22 568.001 178.657 Q566.577 177.095 564.216 177.095 Q561.543 177.095 559.928 178.605 Q558.331 180.116 558.088 182.859 L569.477 182.841 Z" fill="#000000" fill-rule="evenodd" fill-opacity="1" /><path clip-path="url(#clip970)" d="M586.751 184.525 Q582.879 184.525 581.386 185.411 Q579.893 186.296 579.893 188.432 Q579.893 190.133 581.004 191.14 Q582.133 192.13 584.06 192.13 Q586.716 192.13 588.313 190.255 Q589.928 188.362 589.928 185.237 L589.928 184.525 L586.751 184.525 M593.122 183.206 L593.122 194.3 L589.928 194.3 L589.928 191.348 Q588.834 193.119 587.202 193.97 Q585.57 194.803 583.209 194.803 Q580.223 194.803 578.452 193.137 Q576.699 191.453 576.699 188.64 Q576.699 185.359 578.886 183.692 Q581.091 182.025 585.449 182.025 L589.928 182.025 L589.928 181.713 Q589.928 179.508 588.47 178.31 Q587.029 177.095 584.407 177.095 Q582.741 177.095 581.161 177.494 Q579.581 177.894 578.123 178.692 L578.123 175.741 Q579.876 175.064 581.525 174.734 Q583.175 174.387 584.737 174.387 Q588.956 174.387 591.039 176.574 Q593.122 178.762 593.122 183.206 Z" fill="#000000" fill-rule="evenodd" fill-opacity="1" /><path clip-path="url(#clip970)" d="M610.97 177.841 Q610.431 177.529 609.789 177.39 Q609.164 177.234 608.4 177.234 Q605.692 177.234 604.233 179.005 Q602.793 180.758 602.793 184.057 L602.793 194.3 L599.581 194.3 L599.581 174.855 L602.793 174.855 L602.793 177.876 Q603.799 176.105 605.414 175.255 Q607.029 174.387 609.338 174.387 Q609.667 174.387 610.067 174.439 Q610.466 174.473 610.952 174.56 L610.97 177.841 Z" fill="#000000" fill-rule="evenodd" fill-opacity="1" /><path clip-path="url(#clip970)" d="M627.532 175.602 L627.532 178.588 Q626.178 177.841 624.806 177.477 Q623.452 177.095 622.063 177.095 Q618.956 177.095 617.237 179.074 Q615.518 181.036 615.518 184.595 Q615.518 188.154 617.237 190.133 Q618.956 192.095 622.063 192.095 Q623.452 192.095 624.806 191.73 Q626.178 191.348 627.532 190.602 L627.532 193.553 Q626.195 194.178 624.754 194.491 Q623.331 194.803 621.716 194.803 Q617.324 194.803 614.737 192.043 Q612.15 189.282 612.15 184.595 Q612.15 179.838 614.754 177.112 Q617.376 174.387 621.924 174.387 Q623.4 174.387 624.806 174.699 Q626.213 174.994 627.532 175.602 Z" fill="#000000" fill-rule="evenodd" fill-opacity="1" /><path clip-path="url(#clip970)" d="M649.251 182.564 L649.251 194.3 L646.056 194.3 L646.056 182.668 Q646.056 179.907 644.98 178.536 Q643.903 177.164 641.751 177.164 Q639.164 177.164 637.671 178.814 Q636.178 180.463 636.178 183.31 L636.178 194.3 L632.966 194.3 L632.966 167.286 L636.178 167.286 L636.178 177.876 Q637.324 176.123 638.869 175.255 Q640.431 174.387 642.462 174.387 Q645.813 174.387 647.532 176.47 Q649.251 178.536 649.251 182.564 Z" fill="#000000" fill-rule="evenodd" fill-opacity="1" /><polyline clip-path="url(#clip970)" style="stroke:#e26f46; stroke-linecap:round; stroke-linejoin:round; stroke-width:3; stroke-opacity:1; fill:none" points="
  273.008,220.22 418.107,220.22 
  "/>
<path clip-path="url(#clip970)" d="M454.581 221.027 Q455.71 221.409 456.769 222.659 Q457.845 223.909 458.922 226.096 L462.481 233.18 L458.713 233.18 L455.397 226.53 Q454.113 223.926 452.897 223.076 Q451.7 222.225 449.616 222.225 L445.797 222.225 L445.797 233.18 L442.29 233.18 L442.29 207.26 L450.207 207.26 Q454.651 207.26 456.838 209.117 Q459.026 210.975 459.026 214.725 Q459.026 217.173 457.88 218.787 Q456.752 220.402 454.581 221.027 M445.797 210.142 L445.797 219.343 L450.207 219.343 Q452.741 219.343 454.026 218.18 Q455.328 216.999 455.328 214.725 Q455.328 212.451 454.026 211.305 Q452.741 210.142 450.207 210.142 L445.797 210.142 Z" fill="#000000" fill-rule="evenodd" fill-opacity="1" /><path clip-path="url(#clip970)" d="M481.89 222.659 L481.89 224.221 L467.203 224.221 Q467.411 227.52 469.182 229.256 Q470.97 230.975 474.147 230.975 Q475.988 230.975 477.706 230.523 Q479.442 230.072 481.144 229.169 L481.144 232.19 Q479.425 232.919 477.62 233.301 Q475.814 233.683 473.956 233.683 Q469.304 233.683 466.578 230.975 Q463.87 228.267 463.87 223.649 Q463.87 218.874 466.439 216.079 Q469.026 213.267 473.401 213.267 Q477.324 213.267 479.599 215.801 Q481.89 218.319 481.89 222.659 M478.696 221.721 Q478.661 219.1 477.22 217.537 Q475.797 215.975 473.436 215.975 Q470.762 215.975 469.147 217.485 Q467.55 218.996 467.307 221.739 L478.696 221.721 Z" fill="#000000" fill-rule="evenodd" fill-opacity="1" /><path clip-path="url(#clip970)" d="M499.529 214.308 L499.529 217.329 Q498.175 216.635 496.717 216.287 Q495.258 215.94 493.696 215.94 Q491.317 215.94 490.12 216.669 Q488.939 217.399 488.939 218.857 Q488.939 219.968 489.79 220.61 Q490.64 221.235 493.21 221.808 L494.304 222.051 Q497.706 222.78 499.13 224.117 Q500.571 225.437 500.571 227.815 Q500.571 230.523 498.418 232.103 Q496.283 233.683 492.533 233.683 Q490.97 233.683 489.269 233.371 Q487.585 233.076 485.71 232.468 L485.71 229.169 Q487.481 230.089 489.199 230.558 Q490.918 231.01 492.602 231.01 Q494.859 231.01 496.074 230.246 Q497.29 229.464 497.29 228.058 Q497.29 226.756 496.404 226.062 Q495.536 225.367 492.567 224.725 L491.456 224.464 Q488.488 223.839 487.168 222.555 Q485.849 221.253 485.849 218.996 Q485.849 216.253 487.793 214.76 Q489.738 213.267 493.314 213.267 Q495.085 213.267 496.647 213.527 Q498.21 213.787 499.529 214.308 Z" fill="#000000" fill-rule="evenodd" fill-opacity="1" /><path clip-path="url(#clip970)" d="M522.289 222.659 L522.289 224.221 L507.602 224.221 Q507.81 227.52 509.581 229.256 Q511.369 230.975 514.546 230.975 Q516.387 230.975 518.105 230.523 Q519.842 230.072 521.543 229.169 L521.543 232.19 Q519.824 232.919 518.019 233.301 Q516.213 233.683 514.355 233.683 Q509.703 233.683 506.977 230.975 Q504.269 228.267 504.269 223.649 Q504.269 218.874 506.838 216.079 Q509.425 213.267 513.8 213.267 Q517.724 213.267 519.998 215.801 Q522.289 218.319 522.289 222.659 M519.095 221.721 Q519.06 219.1 517.619 217.537 Q516.196 215.975 513.835 215.975 Q511.161 215.975 509.546 217.485 Q507.949 218.996 507.706 221.739 L519.095 221.721 Z" fill="#000000" fill-rule="evenodd" fill-opacity="1" /><path clip-path="url(#clip970)" d="M536.369 223.405 Q532.498 223.405 531.005 224.291 Q529.512 225.176 529.512 227.312 Q529.512 229.013 530.623 230.02 Q531.751 231.01 533.678 231.01 Q536.335 231.01 537.932 229.135 Q539.546 227.242 539.546 224.117 L539.546 223.405 L536.369 223.405 M542.741 222.086 L542.741 233.18 L539.546 233.18 L539.546 230.228 Q538.453 231.999 536.821 232.85 Q535.189 233.683 532.828 233.683 Q529.842 233.683 528.071 232.017 Q526.317 230.333 526.317 227.52 Q526.317 224.239 528.505 222.572 Q530.71 220.905 535.067 220.905 L539.546 220.905 L539.546 220.593 Q539.546 218.388 538.088 217.19 Q536.647 215.975 534.026 215.975 Q532.359 215.975 530.779 216.374 Q529.199 216.774 527.741 217.572 L527.741 214.621 Q529.494 213.944 531.144 213.614 Q532.793 213.267 534.355 213.267 Q538.574 213.267 540.657 215.454 Q542.741 217.642 542.741 222.086 Z" fill="#000000" fill-rule="evenodd" fill-opacity="1" /><path clip-path="url(#clip970)" d="M560.588 216.721 Q560.05 216.409 559.407 216.27 Q558.782 216.114 558.018 216.114 Q555.31 216.114 553.852 217.885 Q552.411 219.638 552.411 222.937 L552.411 233.18 L549.199 233.18 L549.199 213.735 L552.411 213.735 L552.411 216.756 Q553.418 214.985 555.032 214.135 Q556.647 213.267 558.956 213.267 Q559.286 213.267 559.685 213.319 Q560.084 213.353 560.571 213.44 L560.588 216.721 Z" fill="#000000" fill-rule="evenodd" fill-opacity="1" /><path clip-path="url(#clip970)" d="M577.15 214.482 L577.15 217.468 Q575.796 216.721 574.425 216.357 Q573.07 215.975 571.682 215.975 Q568.574 215.975 566.855 217.954 Q565.136 219.916 565.136 223.475 Q565.136 227.034 566.855 229.013 Q568.574 230.975 571.682 230.975 Q573.07 230.975 574.425 230.61 Q575.796 230.228 577.15 229.482 L577.15 232.433 Q575.813 233.058 574.373 233.371 Q572.949 233.683 571.334 233.683 Q566.942 233.683 564.355 230.923 Q561.768 228.162 561.768 223.475 Q561.768 218.718 564.373 215.992 Q566.994 213.267 571.543 213.267 Q573.018 213.267 574.425 213.579 Q575.831 213.874 577.15 214.482 Z" fill="#000000" fill-rule="evenodd" fill-opacity="1" /><path clip-path="url(#clip970)" d="M598.869 221.444 L598.869 233.18 L595.674 233.18 L595.674 221.548 Q595.674 218.787 594.598 217.416 Q593.522 216.044 591.369 216.044 Q588.782 216.044 587.289 217.694 Q585.796 219.343 585.796 222.19 L585.796 233.18 L582.584 233.18 L582.584 206.166 L585.796 206.166 L585.796 216.756 Q586.942 215.003 588.487 214.135 Q590.05 213.267 592.081 213.267 Q595.431 213.267 597.15 215.35 Q598.869 217.416 598.869 221.444 Z" fill="#000000" fill-rule="evenodd" fill-opacity="1" /></svg>
