<?xml version="1.0" encoding="utf-8"?>
<svg xmlns="http://www.w3.org/2000/svg" xmlns:xlink="http://www.w3.org/1999/xlink" width="600" height="400" viewBox="0 0 2400 1600">
<defs>
  <clipPath id="clip570">
    <rect x="0" y="0" width="2400" height="1600"/>
  </clipPath>
</defs>
<path clip-path="url(#clip570)" d="
M0 1600 L2400 1600 L2400 0 L0 0  Z
  " fill="#ffffff" fill-rule="evenodd" fill-opacity="1"/>
<defs>
  <clipPath id="clip571">
    <rect x="480" y="0" width="1681" height="1600"/>
  </clipPath>
</defs>
<path clip-path="url(#clip570)" d="
M243.017 1486.45 L2352.76 1486.45 L2352.76 123.472 L243.017 123.472  Z
  " fill="#ffffff" fill-rule="evenodd" fill-opacity="1"/>
<defs>
  <clipPath id="clip572">
    <rect x="243" y="123" width="2111" height="1364"/>
  </clipPath>
</defs>
<polyline clip-path="url(#clip572)" style="stroke:#000000; stroke-linecap:round; stroke-linejoin:round; stroke-width:2; stroke-opacity:0.1; fill:none" points="
  745.02,1486.45 745.02,123.472 
  "/>
<polyline clip-path="url(#clip572)" style="stroke:#000000; stroke-linecap:round; stroke-linejoin:round; stroke-width:2; stroke-opacity:0.1; fill:none" points="
  1850.75,1486.45 1850.75,123.472 
  "/>
<polyline clip-path="url(#clip570)" style="stroke:#000000; stroke-linecap:round; stroke-linejoin:round; stroke-width:4; stroke-opacity:1; fill:none" points="
  243.017,1486.45 2352.76,1486.45 
  "/>
<polyline clip-path="url(#clip570)" style="stroke:#000000; stroke-linecap:round; stroke-linejoin:round; stroke-width:4; stroke-opacity:1; fill:none" points="
  745.02,1486.45 745.02,1467.55 
  "/>
<polyline clip-path="url(#clip570)" style="stroke:#000000; stroke-linecap:round; stroke-linejoin:round; stroke-width:4; stroke-opacity:1; fill:none" points="
  1850.75,1486.45 1850.75,1467.55 
  "/>
<path clip-path="url(#clip570)" d="M607.046 1514.29 L613.342 1514.29 L628.666 1543.2 L628.666 1514.29 L633.203 1514.29 L633.203 1548.85 L626.907 1548.85 L611.583 1519.94 L611.583 1548.85 L607.046 1548.85 L607.046 1514.29 Z" fill="#000000" fill-rule="evenodd" fill-opacity="1" /><path clip-path="url(#clip570)" d="M652.37 1525.91 Q648.944 1525.91 646.953 1528.59 Q644.963 1531.26 644.963 1535.91 Q644.963 1540.56 646.93 1543.25 Q648.921 1545.91 652.37 1545.91 Q655.773 1545.91 657.764 1543.22 Q659.754 1540.54 659.754 1535.91 Q659.754 1531.3 657.764 1528.62 Q655.773 1525.91 652.37 1525.91 M652.37 1522.3 Q657.926 1522.3 661.097 1525.91 Q664.268 1529.52 664.268 1535.91 Q664.268 1542.27 661.097 1545.91 Q657.926 1549.52 652.37 1549.52 Q646.791 1549.52 643.62 1545.91 Q640.472 1542.27 640.472 1535.91 Q640.472 1529.52 643.62 1525.91 Q646.791 1522.3 652.37 1522.3 Z" fill="#000000" fill-rule="evenodd" fill-opacity="1" /><path clip-path="url(#clip570)" d="M701.421 1526.9 Q700.703 1526.49 699.847 1526.3 Q699.013 1526.09 697.995 1526.09 Q694.384 1526.09 692.439 1528.45 Q690.518 1530.79 690.518 1535.19 L690.518 1548.85 L686.236 1548.85 L686.236 1522.92 L690.518 1522.92 L690.518 1526.95 Q691.861 1524.59 694.013 1523.45 Q696.166 1522.3 699.245 1522.3 Q699.685 1522.3 700.217 1522.37 Q700.749 1522.41 701.398 1522.53 L701.421 1526.9 Z" fill="#000000" fill-rule="evenodd" fill-opacity="1" /><path clip-path="url(#clip570)" d="M727.022 1534.82 L727.022 1536.9 L707.439 1536.9 Q707.717 1541.3 710.078 1543.62 Q712.462 1545.91 716.698 1545.91 Q719.152 1545.91 721.444 1545.31 Q723.759 1544.7 726.027 1543.5 L726.027 1547.53 Q723.735 1548.5 721.328 1549.01 Q718.921 1549.52 716.444 1549.52 Q710.24 1549.52 706.606 1545.91 Q702.995 1542.3 702.995 1536.14 Q702.995 1529.77 706.421 1526.05 Q709.87 1522.3 715.703 1522.3 Q720.934 1522.3 723.967 1525.68 Q727.022 1529.03 727.022 1534.82 M722.763 1533.57 Q722.717 1530.07 720.796 1527.99 Q718.897 1525.91 715.749 1525.91 Q712.185 1525.91 710.032 1527.92 Q707.902 1529.94 707.578 1533.59 L722.763 1533.57 Z" fill="#000000" fill-rule="evenodd" fill-opacity="1" /><path clip-path="url(#clip570)" d="M750.541 1523.69 L750.541 1527.71 Q748.735 1526.79 746.791 1526.32 Q744.846 1525.86 742.763 1525.86 Q739.592 1525.86 737.995 1526.83 Q736.421 1527.81 736.421 1529.75 Q736.421 1531.23 737.555 1532.09 Q738.689 1532.92 742.115 1533.69 L743.573 1534.01 Q748.11 1534.98 750.008 1536.76 Q751.93 1538.52 751.93 1541.7 Q751.93 1545.31 749.059 1547.41 Q746.212 1549.52 741.212 1549.52 Q739.129 1549.52 736.86 1549.1 Q734.615 1548.71 732.115 1547.9 L732.115 1543.5 Q734.476 1544.73 736.768 1545.35 Q739.059 1545.95 741.305 1545.95 Q744.314 1545.95 745.934 1544.94 Q747.555 1543.89 747.555 1542.02 Q747.555 1540.28 746.374 1539.36 Q745.217 1538.43 741.258 1537.57 L739.777 1537.23 Q735.819 1536.39 734.059 1534.68 Q732.3 1532.95 732.3 1529.94 Q732.3 1526.28 734.893 1524.29 Q737.485 1522.3 742.254 1522.3 Q744.615 1522.3 746.698 1522.64 Q748.782 1522.99 750.541 1523.69 Z" fill="#000000" fill-rule="evenodd" fill-opacity="1" /><path clip-path="url(#clip570)" d="M780.888 1534.82 L780.888 1536.9 L761.305 1536.9 Q761.582 1541.3 763.944 1543.62 Q766.328 1545.91 770.564 1545.91 Q773.018 1545.91 775.309 1545.31 Q777.624 1544.7 779.893 1543.5 L779.893 1547.53 Q777.601 1548.5 775.193 1549.01 Q772.786 1549.52 770.309 1549.52 Q764.106 1549.52 760.471 1545.91 Q756.86 1542.3 756.86 1536.14 Q756.86 1529.77 760.286 1526.05 Q763.735 1522.3 769.568 1522.3 Q774.8 1522.3 777.832 1525.68 Q780.888 1529.03 780.888 1534.82 M776.629 1533.57 Q776.582 1530.07 774.661 1527.99 Q772.763 1525.91 769.615 1525.91 Q766.05 1525.91 763.897 1527.92 Q761.768 1529.94 761.444 1533.59 L776.629 1533.57 Z" fill="#000000" fill-rule="evenodd" fill-opacity="1" /><path clip-path="url(#clip570)" d="M799.661 1535.82 Q794.499 1535.82 792.508 1537 Q790.517 1538.18 790.517 1541.02 Q790.517 1543.29 791.999 1544.63 Q793.504 1545.95 796.073 1545.95 Q799.615 1545.95 801.744 1543.45 Q803.897 1540.93 803.897 1536.76 L803.897 1535.82 L799.661 1535.82 M808.156 1534.06 L808.156 1548.85 L803.897 1548.85 L803.897 1544.91 Q802.439 1547.27 800.263 1548.41 Q798.087 1549.52 794.939 1549.52 Q790.957 1549.52 788.596 1547.3 Q786.258 1545.05 786.258 1541.3 Q786.258 1536.93 789.175 1534.7 Q792.115 1532.48 797.925 1532.48 L803.897 1532.48 L803.897 1532.07 Q803.897 1529.13 801.953 1527.53 Q800.031 1525.91 796.536 1525.91 Q794.314 1525.91 792.207 1526.44 Q790.101 1526.97 788.156 1528.04 L788.156 1524.1 Q790.494 1523.2 792.693 1522.76 Q794.892 1522.3 796.976 1522.3 Q802.601 1522.3 805.378 1525.21 Q808.156 1528.13 808.156 1534.06 Z" fill="#000000" fill-rule="evenodd" fill-opacity="1" /><path clip-path="url(#clip570)" d="M831.952 1526.9 Q831.235 1526.49 830.378 1526.3 Q829.545 1526.09 828.527 1526.09 Q824.915 1526.09 822.971 1528.45 Q821.05 1530.79 821.05 1535.19 L821.05 1548.85 L816.767 1548.85 L816.767 1522.92 L821.05 1522.92 L821.05 1526.95 Q822.392 1524.59 824.545 1523.45 Q826.698 1522.3 829.776 1522.3 Q830.216 1522.3 830.749 1522.37 Q831.281 1522.41 831.929 1522.53 L831.952 1526.9 Z" fill="#000000" fill-rule="evenodd" fill-opacity="1" /><path clip-path="url(#clip570)" d="M854.036 1523.92 L854.036 1527.9 Q852.23 1526.9 850.401 1526.42 Q848.596 1525.91 846.744 1525.91 Q842.6 1525.91 840.309 1528.55 Q838.017 1531.16 838.017 1535.91 Q838.017 1540.65 840.309 1543.29 Q842.6 1545.91 846.744 1545.91 Q848.596 1545.91 850.401 1545.42 Q852.23 1544.91 854.036 1543.92 L854.036 1547.85 Q852.253 1548.69 850.332 1549.1 Q848.434 1549.52 846.281 1549.52 Q840.425 1549.52 836.976 1545.84 Q833.526 1542.16 833.526 1535.91 Q833.526 1529.57 836.999 1525.93 Q840.494 1522.3 846.559 1522.3 Q848.526 1522.3 850.401 1522.71 Q852.276 1523.11 854.036 1523.92 Z" fill="#000000" fill-rule="evenodd" fill-opacity="1" /><path clip-path="url(#clip570)" d="M882.994 1533.2 L882.994 1548.85 L878.735 1548.85 L878.735 1533.34 Q878.735 1529.66 877.299 1527.83 Q875.864 1526 872.994 1526 Q869.545 1526 867.554 1528.2 Q865.563 1530.4 865.563 1534.2 L865.563 1548.85 L861.281 1548.85 L861.281 1512.83 L865.563 1512.83 L865.563 1526.95 Q867.091 1524.61 869.151 1523.45 Q871.235 1522.3 873.943 1522.3 Q878.41 1522.3 880.702 1525.07 Q882.994 1527.83 882.994 1533.2 Z" fill="#000000" fill-rule="evenodd" fill-opacity="1" /><path clip-path="url(#clip570)" d="M1762.76 1532.64 Q1764.26 1533.15 1765.67 1534.82 Q1767.11 1536.49 1768.54 1539.4 L1773.29 1548.85 L1768.27 1548.85 L1763.84 1539.98 Q1762.13 1536.51 1760.51 1535.38 Q1758.91 1534.24 1756.14 1534.24 L1751.04 1534.24 L1751.04 1548.85 L1746.37 1548.85 L1746.37 1514.29 L1756.92 1514.29 Q1762.85 1514.29 1765.77 1516.76 Q1768.68 1519.24 1768.68 1524.24 Q1768.68 1527.51 1767.15 1529.66 Q1765.65 1531.81 1762.76 1532.64 M1751.04 1518.13 L1751.04 1530.4 L1756.92 1530.4 Q1760.3 1530.4 1762.02 1528.85 Q1763.75 1527.27 1763.75 1524.24 Q1763.75 1521.21 1762.02 1519.68 Q1760.3 1518.13 1756.92 1518.13 L1751.04 1518.13 Z" fill="#000000" fill-rule="evenodd" fill-opacity="1" /><path clip-path="url(#clip570)" d="M1799.17 1534.82 L1799.17 1536.9 L1779.58 1536.9 Q1779.86 1541.3 1782.22 1543.62 Q1784.61 1545.91 1788.84 1545.91 Q1791.3 1545.91 1793.59 1545.31 Q1795.9 1544.7 1798.17 1543.5 L1798.17 1547.53 Q1795.88 1548.5 1793.47 1549.01 Q1791.07 1549.52 1788.59 1549.52 Q1782.39 1549.52 1778.75 1545.91 Q1775.14 1542.3 1775.14 1536.14 Q1775.14 1529.77 1778.57 1526.05 Q1782.02 1522.3 1787.85 1522.3 Q1793.08 1522.3 1796.11 1525.68 Q1799.17 1529.03 1799.17 1534.82 M1794.91 1533.57 Q1794.86 1530.07 1792.94 1527.99 Q1791.04 1525.91 1787.89 1525.91 Q1784.33 1525.91 1782.18 1527.92 Q1780.05 1529.94 1779.72 1533.59 L1794.91 1533.57 Z" fill="#000000" fill-rule="evenodd" fill-opacity="1" /><path clip-path="url(#clip570)" d="M1822.69 1523.69 L1822.69 1527.71 Q1820.88 1526.79 1818.94 1526.32 Q1816.99 1525.86 1814.91 1525.86 Q1811.74 1525.86 1810.14 1526.83 Q1808.57 1527.81 1808.57 1529.75 Q1808.57 1531.23 1809.7 1532.09 Q1810.83 1532.92 1814.26 1533.69 L1815.72 1534.01 Q1820.26 1534.98 1822.15 1536.76 Q1824.07 1538.52 1824.07 1541.7 Q1824.07 1545.31 1821.2 1547.41 Q1818.36 1549.52 1813.36 1549.52 Q1811.27 1549.52 1809.01 1549.1 Q1806.76 1548.71 1804.26 1547.9 L1804.26 1543.5 Q1806.62 1544.73 1808.91 1545.35 Q1811.2 1545.95 1813.45 1545.95 Q1816.46 1545.95 1818.08 1544.94 Q1819.7 1543.89 1819.7 1542.02 Q1819.7 1540.28 1818.52 1539.36 Q1817.36 1538.43 1813.4 1537.57 L1811.92 1537.23 Q1807.96 1536.39 1806.2 1534.68 Q1804.45 1532.95 1804.45 1529.94 Q1804.45 1526.28 1807.04 1524.29 Q1809.63 1522.3 1814.4 1522.3 Q1816.76 1522.3 1818.84 1522.64 Q1820.93 1522.99 1822.69 1523.69 Z" fill="#000000" fill-rule="evenodd" fill-opacity="1" /><path clip-path="url(#clip570)" d="M1853.03 1534.82 L1853.03 1536.9 L1833.45 1536.9 Q1833.73 1541.3 1836.09 1543.62 Q1838.47 1545.91 1842.71 1545.91 Q1845.16 1545.91 1847.45 1545.31 Q1849.77 1544.7 1852.04 1543.5 L1852.04 1547.53 Q1849.75 1548.5 1847.34 1549.01 Q1844.93 1549.52 1842.45 1549.52 Q1836.25 1549.52 1832.62 1545.91 Q1829.01 1542.3 1829.01 1536.14 Q1829.01 1529.77 1832.43 1526.05 Q1835.88 1522.3 1841.71 1522.3 Q1846.95 1522.3 1849.98 1525.68 Q1853.03 1529.03 1853.03 1534.82 M1848.77 1533.57 Q1848.73 1530.07 1846.81 1527.99 Q1844.91 1525.91 1841.76 1525.91 Q1838.2 1525.91 1836.04 1527.92 Q1833.91 1529.94 1833.59 1533.59 L1848.77 1533.57 Z" fill="#000000" fill-rule="evenodd" fill-opacity="1" /><path clip-path="url(#clip570)" d="M1871.81 1535.82 Q1866.64 1535.82 1864.65 1537 Q1862.66 1538.18 1862.66 1541.02 Q1862.66 1543.29 1864.14 1544.63 Q1865.65 1545.95 1868.22 1545.95 Q1871.76 1545.95 1873.89 1543.45 Q1876.04 1540.93 1876.04 1536.76 L1876.04 1535.82 L1871.81 1535.82 M1880.3 1534.06 L1880.3 1548.85 L1876.04 1548.85 L1876.04 1544.91 Q1874.58 1547.27 1872.41 1548.41 Q1870.23 1549.52 1867.08 1549.52 Q1863.1 1549.52 1860.74 1547.3 Q1858.4 1545.05 1858.4 1541.3 Q1858.4 1536.93 1861.32 1534.7 Q1864.26 1532.48 1870.07 1532.48 L1876.04 1532.48 L1876.04 1532.07 Q1876.04 1529.13 1874.1 1527.53 Q1872.18 1525.91 1868.68 1525.91 Q1866.46 1525.91 1864.35 1526.44 Q1862.25 1526.97 1860.3 1528.04 L1860.3 1524.1 Q1862.64 1523.2 1864.84 1522.76 Q1867.04 1522.3 1869.12 1522.3 Q1874.75 1522.3 1877.52 1525.21 Q1880.3 1528.13 1880.3 1534.06 Z" fill="#000000" fill-rule="evenodd" fill-opacity="1" /><path clip-path="url(#clip570)" d="M1904.1 1526.9 Q1903.38 1526.49 1902.52 1526.3 Q1901.69 1526.09 1900.67 1526.09 Q1897.06 1526.09 1895.12 1528.45 Q1893.19 1530.79 1893.19 1535.19 L1893.19 1548.85 L1888.91 1548.85 L1888.91 1522.92 L1893.19 1522.92 L1893.19 1526.95 Q1894.54 1524.59 1896.69 1523.45 Q1898.84 1522.3 1901.92 1522.3 Q1902.36 1522.3 1902.89 1522.37 Q1903.43 1522.41 1904.07 1522.53 L1904.1 1526.9 Z" fill="#000000" fill-rule="evenodd" fill-opacity="1" /><path clip-path="url(#clip570)" d="M1926.18 1523.92 L1926.18 1527.9 Q1924.38 1526.9 1922.55 1526.42 Q1920.74 1525.91 1918.89 1525.91 Q1914.75 1525.91 1912.45 1528.55 Q1910.16 1531.16 1910.16 1535.91 Q1910.16 1540.65 1912.45 1543.29 Q1914.75 1545.91 1918.89 1545.91 Q1920.74 1545.91 1922.55 1545.42 Q1924.38 1544.91 1926.18 1543.92 L1926.18 1547.85 Q1924.4 1548.69 1922.48 1549.1 Q1920.58 1549.52 1918.43 1549.52 Q1912.57 1549.52 1909.12 1545.84 Q1905.67 1542.16 1905.67 1535.91 Q1905.67 1529.57 1909.14 1525.93 Q1912.64 1522.3 1918.7 1522.3 Q1920.67 1522.3 1922.55 1522.71 Q1924.42 1523.11 1926.18 1523.92 Z" fill="#000000" fill-rule="evenodd" fill-opacity="1" /><path clip-path="url(#clip570)" d="M1955.14 1533.2 L1955.14 1548.85 L1950.88 1548.85 L1950.88 1533.34 Q1950.88 1529.66 1949.44 1527.83 Q1948.01 1526 1945.14 1526 Q1941.69 1526 1939.7 1528.2 Q1937.71 1530.4 1937.71 1534.2 L1937.71 1548.85 L1933.43 1548.85 L1933.43 1512.83 L1937.71 1512.83 L1937.71 1526.95 Q1939.24 1524.61 1941.3 1523.45 Q1943.38 1522.3 1946.09 1522.3 Q1950.56 1522.3 1952.85 1525.07 Q1955.14 1527.83 1955.14 1533.2 Z" fill="#000000" fill-rule="evenodd" fill-opacity="1" /><polyline clip-path="url(#clip572)" style="stroke:#000000; stroke-linecap:round; stroke-linejoin:round; stroke-width:2; stroke-opacity:0.1; fill:none" points="
  243.017,1290.17 2352.76,1290.17 
  "/>
<polyline clip-path="url(#clip572)" style="stroke:#000000; stroke-linecap:round; stroke-linejoin:round; stroke-width:2; stroke-opacity:0.1; fill:none" points="
  243.017,1068.63 2352.76,1068.63 
  "/>
<polyline clip-path="url(#clip572)" style="stroke:#000000; stroke-linecap:round; stroke-linejoin:round; stroke-width:2; stroke-opacity:0.1; fill:none" points="
  243.017,847.101 2352.76,847.101 
  "/>
<polyline clip-path="url(#clip572)" style="stroke:#000000; stroke-linecap:round; stroke-linejoin:round; stroke-width:2; stroke-opacity:0.1; fill:none" points="
  243.017,625.569 2352.76,625.569 
  "/>
<polyline clip-path="url(#clip572)" style="stroke:#000000; stroke-linecap:round; stroke-linejoin:round; stroke-width:2; stroke-opacity:0.1; fill:none" points="
  243.017,404.037 2352.76,404.037 
  "/>
<polyline clip-path="url(#clip572)" style="stroke:#000000; stroke-linecap:round; stroke-linejoin:round; stroke-width:2; stroke-opacity:0.1; fill:none" points="
  243.017,182.504 2352.76,182.504 
  "/>
<polyline clip-path="url(#clip570)" style="stroke:#000000; stroke-linecap:round; stroke-linejoin:round; stroke-width:4; stroke-opacity:1; fill:none" points="
  243.017,1486.45 243.017,123.472 
  "/>
<polyline clip-path="url(#clip570)" style="stroke:#000000; stroke-linecap:round; stroke-linejoin:round; stroke-width:4; stroke-opacity:1; fill:none" points="
  243.017,1290.17 261.915,1290.17 
  "/>
<polyline clip-path="url(#clip570)" style="stroke:#000000; stroke-linecap:round; stroke-linejoin:round; stroke-width:4; stroke-opacity:1; fill:none" points="
  243.017,1068.63 261.915,1068.63 
  "/>
<polyline clip-path="url(#clip570)" style="stroke:#000000; stroke-linecap:round; stroke-linejoin:round; stroke-width:4; stroke-opacity:1; fill:none" points="
  243.017,847.101 261.915,847.101 
  "/>
<polyline clip-path="url(#clip570)" style="stroke:#000000; stroke-linecap:round; stroke-linejoin:round; stroke-width:4; stroke-opacity:1; fill:none" points="
  243.017,625.569 261.915,625.569 
  "/>
<polyline clip-path="url(#clip570)" style="stroke:#000000; stroke-linecap:round; stroke-linejoin:round; stroke-width:4; stroke-opacity:1; fill:none" points="
  243.017,404.037 261.915,404.037 
  "/>
<polyline clip-path="url(#clip570)" style="stroke:#000000; stroke-linecap:round; stroke-linejoin:round; stroke-width:4; stroke-opacity:1; fill:none" points="
  243.017,182.504 261.915,182.504 
  "/>
<path clip-path="url(#clip570)" d="M101.3 1290.62 L130.976 1290.62 L130.976 1294.55 L101.3 1294.55 L101.3 1290.62 Z" fill="#000000" fill-rule="evenodd" fill-opacity="1" /><path clip-path="url(#clip570)" d="M151.068 1275.96 Q147.457 1275.96 145.629 1279.53 Q143.823 1283.07 143.823 1290.2 Q143.823 1297.31 145.629 1300.87 Q147.457 1304.41 151.068 1304.41 Q154.703 1304.41 156.508 1300.87 Q158.337 1297.31 158.337 1290.2 Q158.337 1283.07 156.508 1279.53 Q154.703 1275.96 151.068 1275.96 M151.068 1272.26 Q156.879 1272.26 159.934 1276.87 Q163.013 1281.45 163.013 1290.2 Q163.013 1298.93 159.934 1303.53 Q156.879 1308.12 151.068 1308.12 Q145.258 1308.12 142.18 1303.53 Q139.124 1298.93 139.124 1290.2 Q139.124 1281.45 142.18 1276.87 Q145.258 1272.26 151.068 1272.26 Z" fill="#000000" fill-rule="evenodd" fill-opacity="1" /><path clip-path="url(#clip570)" d="M171.23 1301.57 L176.115 1301.57 L176.115 1307.45 L171.23 1307.45 L171.23 1301.57 Z" fill="#000000" fill-rule="evenodd" fill-opacity="1" /><path clip-path="url(#clip570)" d="M187.11 1303.51 L194.749 1303.51 L194.749 1277.15 L186.439 1278.81 L186.439 1274.55 L194.702 1272.89 L199.378 1272.89 L199.378 1303.51 L207.017 1303.51 L207.017 1307.45 L187.11 1307.45 L187.11 1303.51 Z" fill="#000000" fill-rule="evenodd" fill-opacity="1" /><path clip-path="url(#clip570)" d="M149.842 1054.43 Q146.23 1054.43 144.402 1058 Q142.596 1061.54 142.596 1068.67 Q142.596 1075.77 144.402 1079.34 Q146.23 1082.88 149.842 1082.88 Q153.476 1082.88 155.281 1079.34 Q157.11 1075.77 157.11 1068.67 Q157.11 1061.54 155.281 1058 Q153.476 1054.43 149.842 1054.43 M149.842 1050.73 Q155.652 1050.73 158.707 1055.34 Q161.786 1059.92 161.786 1068.67 Q161.786 1077.4 158.707 1082 Q155.652 1086.58 149.842 1086.58 Q144.031 1086.58 140.953 1082 Q137.897 1077.4 137.897 1068.67 Q137.897 1059.92 140.953 1055.34 Q144.031 1050.73 149.842 1050.73 Z" fill="#000000" fill-rule="evenodd" fill-opacity="1" /><path clip-path="url(#clip570)" d="M170.003 1080.03 L174.888 1080.03 L174.888 1085.91 L170.003 1085.91 L170.003 1080.03 Z" fill="#000000" fill-rule="evenodd" fill-opacity="1" /><path clip-path="url(#clip570)" d="M195.073 1054.43 Q191.462 1054.43 189.633 1058 Q187.827 1061.54 187.827 1068.67 Q187.827 1075.77 189.633 1079.34 Q191.462 1082.88 195.073 1082.88 Q198.707 1082.88 200.513 1079.34 Q202.341 1075.77 202.341 1068.67 Q202.341 1061.54 200.513 1058 Q198.707 1054.43 195.073 1054.43 M195.073 1050.73 Q200.883 1050.73 203.938 1055.34 Q207.017 1059.92 207.017 1068.67 Q207.017 1077.4 203.938 1082 Q200.883 1086.58 195.073 1086.58 Q189.263 1086.58 186.184 1082 Q183.128 1077.4 183.128 1068.67 Q183.128 1059.92 186.184 1055.34 Q189.263 1050.73 195.073 1050.73 Z" fill="#000000" fill-rule="evenodd" fill-opacity="1" /><path clip-path="url(#clip570)" d="M151.068 832.9 Q147.457 832.9 145.629 836.465 Q143.823 840.006 143.823 847.136 Q143.823 854.242 145.629 857.807 Q147.457 861.349 151.068 861.349 Q154.703 861.349 156.508 857.807 Q158.337 854.242 158.337 847.136 Q158.337 840.006 156.508 836.465 Q154.703 832.9 151.068 832.9 M151.068 829.196 Q156.879 829.196 159.934 833.803 Q163.013 838.386 163.013 847.136 Q163.013 855.863 159.934 860.469 Q156.879 865.053 151.068 865.053 Q145.258 865.053 142.18 860.469 Q139.124 855.863 139.124 847.136 Q139.124 838.386 142.18 833.803 Q145.258 829.196 151.068 829.196 Z" fill="#000000" fill-rule="evenodd" fill-opacity="1" /><path clip-path="url(#clip570)" d="M171.23 858.502 L176.115 858.502 L176.115 864.381 L171.23 864.381 L171.23 858.502 Z" fill="#000000" fill-rule="evenodd" fill-opacity="1" /><path clip-path="url(#clip570)" d="M187.11 860.446 L194.749 860.446 L194.749 834.081 L186.439 835.747 L186.439 831.488 L194.702 829.821 L199.378 829.821 L199.378 860.446 L207.017 860.446 L207.017 864.381 L187.11 864.381 L187.11 860.446 Z" fill="#000000" fill-rule="evenodd" fill-opacity="1" /><path clip-path="url(#clip570)" d="M151.439 611.368 Q147.828 611.368 145.999 614.933 Q144.193 618.474 144.193 625.604 Q144.193 632.71 145.999 636.275 Q147.828 639.817 151.439 639.817 Q155.073 639.817 156.879 636.275 Q158.707 632.71 158.707 625.604 Q158.707 618.474 156.879 614.933 Q155.073 611.368 151.439 611.368 M151.439 607.664 Q157.249 607.664 160.304 612.27 Q163.383 616.854 163.383 625.604 Q163.383 634.331 160.304 638.937 Q157.249 643.52 151.439 643.52 Q145.629 643.52 142.55 638.937 Q139.494 634.331 139.494 625.604 Q139.494 616.854 142.55 612.27 Q145.629 607.664 151.439 607.664 Z" fill="#000000" fill-rule="evenodd" fill-opacity="1" /><path clip-path="url(#clip570)" d="M171.601 636.969 L176.485 636.969 L176.485 642.849 L171.601 642.849 L171.601 636.969 Z" fill="#000000" fill-rule="evenodd" fill-opacity="1" /><path clip-path="url(#clip570)" d="M190.698 638.914 L207.017 638.914 L207.017 642.849 L185.073 642.849 L185.073 638.914 Q187.735 636.159 192.318 631.53 Q196.925 626.877 198.105 625.534 Q200.351 623.011 201.23 621.275 Q202.133 619.516 202.133 617.826 Q202.133 615.071 200.189 613.335 Q198.267 611.599 195.165 611.599 Q192.966 611.599 190.513 612.363 Q188.082 613.127 185.304 614.678 L185.304 609.956 Q188.128 608.821 190.582 608.243 Q193.036 607.664 195.073 607.664 Q200.443 607.664 203.638 610.349 Q206.832 613.034 206.832 617.525 Q206.832 619.655 206.022 621.576 Q205.235 623.474 203.128 626.067 Q202.55 626.738 199.448 629.956 Q196.346 633.15 190.698 638.914 Z" fill="#000000" fill-rule="evenodd" fill-opacity="1" /><path clip-path="url(#clip570)" d="M150.49 389.835 Q146.879 389.835 145.05 393.4 Q143.244 396.942 143.244 404.071 Q143.244 411.178 145.05 414.743 Q146.879 418.284 150.49 418.284 Q154.124 418.284 155.929 414.743 Q157.758 411.178 157.758 404.071 Q157.758 396.942 155.929 393.4 Q154.124 389.835 150.49 389.835 M150.49 386.132 Q156.3 386.132 159.355 390.738 Q162.434 395.321 162.434 404.071 Q162.434 412.798 159.355 417.405 Q156.3 421.988 150.49 421.988 Q144.68 421.988 141.601 417.405 Q138.545 412.798 138.545 404.071 Q138.545 395.321 141.601 390.738 Q144.68 386.132 150.49 386.132 Z" fill="#000000" fill-rule="evenodd" fill-opacity="1" /><path clip-path="url(#clip570)" d="M170.652 415.437 L175.536 415.437 L175.536 421.317 L170.652 421.317 L170.652 415.437 Z" fill="#000000" fill-rule="evenodd" fill-opacity="1" /><path clip-path="url(#clip570)" d="M199.888 402.683 Q203.244 403.4 205.119 405.669 Q207.017 407.937 207.017 411.27 Q207.017 416.386 203.499 419.187 Q199.98 421.988 193.499 421.988 Q191.323 421.988 189.008 421.548 Q186.716 421.132 184.263 420.275 L184.263 415.761 Q186.207 416.895 188.522 417.474 Q190.837 418.053 193.36 418.053 Q197.758 418.053 200.05 416.317 Q202.364 414.581 202.364 411.27 Q202.364 408.215 200.212 406.502 Q198.082 404.766 194.263 404.766 L190.235 404.766 L190.235 400.923 L194.448 400.923 Q197.897 400.923 199.726 399.558 Q201.554 398.169 201.554 395.576 Q201.554 392.914 199.656 391.502 Q197.781 390.067 194.263 390.067 Q192.341 390.067 190.142 390.484 Q187.943 390.9 185.304 391.78 L185.304 387.613 Q187.966 386.872 190.281 386.502 Q192.619 386.132 194.679 386.132 Q200.003 386.132 203.105 388.562 Q206.207 390.97 206.207 395.09 Q206.207 397.96 204.563 399.951 Q202.92 401.919 199.888 402.683 Z" fill="#000000" fill-rule="evenodd" fill-opacity="1" /><path clip-path="url(#clip570)" d="M149.355 168.303 Q145.744 168.303 143.916 171.868 Q142.11 175.41 142.11 182.539 Q142.11 189.646 143.916 193.21 Q145.744 196.752 149.355 196.752 Q152.99 196.752 154.795 193.21 Q156.624 189.646 156.624 182.539 Q156.624 175.41 154.795 171.868 Q152.99 168.303 149.355 168.303 M149.355 164.599 Q155.166 164.599 158.221 169.206 Q161.3 173.789 161.3 182.539 Q161.3 191.266 158.221 195.872 Q155.166 200.456 149.355 200.456 Q143.545 200.456 140.467 195.872 Q137.411 191.266 137.411 182.539 Q137.411 173.789 140.467 169.206 Q143.545 164.599 149.355 164.599 Z" fill="#000000" fill-rule="evenodd" fill-opacity="1" /><path clip-path="url(#clip570)" d="M169.517 193.905 L174.402 193.905 L174.402 199.784 L169.517 199.784 L169.517 193.905 Z" fill="#000000" fill-rule="evenodd" fill-opacity="1" /><path clip-path="url(#clip570)" d="M197.434 169.298 L185.628 187.747 L197.434 187.747 L197.434 169.298 M196.207 165.224 L202.087 165.224 L202.087 187.747 L207.017 187.747 L207.017 191.636 L202.087 191.636 L202.087 199.784 L197.434 199.784 L197.434 191.636 L181.832 191.636 L181.832 187.122 L196.207 165.224 Z" fill="#000000" fill-rule="evenodd" fill-opacity="1" /><path clip-path="url(#clip570)" d="M24.2147 1412.82 L51.0896 1412.82 L51.0896 1407.17 Q51.0896 1400.01 47.8489 1396.7 Q44.6081 1393.37 37.6174 1393.37 Q30.673 1393.37 27.4555 1396.7 Q24.2147 1400.01 24.2147 1407.17 L24.2147 1412.82 M20.3722 1417.49 L20.3722 1407.89 Q20.3722 1397.84 24.5619 1393.14 Q28.7286 1388.44 37.6174 1388.44 Q46.5526 1388.44 50.7424 1393.16 Q54.9322 1397.89 54.9322 1407.89 L54.9322 1417.49 L20.3722 1417.49 Z" fill="#000000" fill-rule="evenodd" fill-opacity="1" /><path clip-path="url(#clip570)" d="M40.9045 1359 L42.9878 1359 L42.9878 1378.58 Q47.3859 1378.3 49.7007 1375.94 Q51.9924 1373.56 51.9924 1369.32 Q51.9924 1366.87 51.3905 1364.58 Q50.7887 1362.26 49.585 1359.99 L53.6127 1359.99 Q54.5849 1362.28 55.0942 1364.69 Q55.6035 1367.1 55.6035 1369.58 Q55.6035 1375.78 51.9924 1379.41 Q48.3813 1383.02 42.2239 1383.02 Q35.8582 1383.02 32.1314 1379.6 Q28.3814 1376.15 28.3814 1370.32 Q28.3814 1365.08 31.761 1362.05 Q35.1174 1359 40.9045 1359 M39.6545 1363.26 Q36.1591 1363.3 34.0758 1365.22 Q31.9925 1367.12 31.9925 1370.27 Q31.9925 1373.83 34.0063 1375.99 Q36.0202 1378.12 39.6776 1378.44 L39.6545 1363.26 Z" fill="#000000" fill-rule="evenodd" fill-opacity="1" /><path clip-path="url(#clip570)" d="M29.0064 1355.06 L29.0064 1350.55 L50.7655 1342.45 L29.0064 1334.34 L29.0064 1329.83 L54.9322 1339.55 L54.9322 1345.34 L29.0064 1355.06 Z" fill="#000000" fill-rule="evenodd" fill-opacity="1" /><path clip-path="url(#clip570)" d="M29.0064 1323.95 L29.0064 1319.69 L54.9322 1319.69 L54.9322 1323.95 L29.0064 1323.95 M18.9138 1323.95 L18.9138 1319.69 L24.3073 1319.69 L24.3073 1323.95 L18.9138 1323.95 Z" fill="#000000" fill-rule="evenodd" fill-opacity="1" /><path clip-path="url(#clip570)" d="M41.8998 1299 Q41.8998 1304.16 43.0804 1306.15 Q44.2609 1308.14 47.1081 1308.14 Q49.3766 1308.14 50.7192 1306.66 Q52.0387 1305.15 52.0387 1302.58 Q52.0387 1299.04 49.5387 1296.91 Q47.0155 1294.76 42.8489 1294.76 L41.8998 1294.76 L41.8998 1299 M40.1406 1290.5 L54.9322 1290.5 L54.9322 1294.76 L50.997 1294.76 Q53.3581 1296.22 54.4923 1298.39 Q55.6035 1300.57 55.6035 1303.72 Q55.6035 1307.7 53.3812 1310.06 Q51.1359 1312.4 47.3859 1312.4 Q43.0109 1312.4 40.7887 1309.48 Q38.5665 1306.54 38.5665 1300.73 L38.5665 1294.76 L38.1498 1294.76 Q35.21 1294.76 33.6128 1296.71 Q31.9925 1298.63 31.9925 1302.12 Q31.9925 1304.34 32.5249 1306.45 Q33.0573 1308.56 34.1221 1310.5 L30.1869 1310.5 Q29.2841 1308.16 28.8443 1305.96 Q28.3814 1303.77 28.3814 1301.68 Q28.3814 1296.06 31.298 1293.28 Q34.2147 1290.5 40.1406 1290.5 Z" fill="#000000" fill-rule="evenodd" fill-opacity="1" /><path clip-path="url(#clip570)" d="M21.6453 1277.52 L29.0064 1277.52 L29.0064 1268.74 L32.3165 1268.74 L32.3165 1277.52 L46.3905 1277.52 Q49.5618 1277.52 50.4646 1276.66 Q51.3674 1275.78 51.3674 1273.12 L51.3674 1268.74 L54.9322 1268.74 L54.9322 1273.12 Q54.9322 1278.05 53.1035 1279.92 Q51.2516 1281.8 46.3905 1281.8 L32.3165 1281.8 L32.3165 1284.92 L29.0064 1284.92 L29.0064 1281.8 L21.6453 1281.8 L21.6453 1277.52 Z" fill="#000000" fill-rule="evenodd" fill-opacity="1" /><path clip-path="url(#clip570)" d="M29.0064 1263.14 L29.0064 1258.88 L54.9322 1258.88 L54.9322 1263.14 L29.0064 1263.14 M18.9138 1263.14 L18.9138 1258.88 L24.3073 1258.88 L24.3073 1263.14 L18.9138 1263.14 Z" fill="#000000" fill-rule="evenodd" fill-opacity="1" /><path clip-path="url(#clip570)" d="M31.9925 1239.92 Q31.9925 1243.35 34.6776 1245.34 Q37.3397 1247.33 41.9924 1247.33 Q46.6452 1247.33 49.3303 1245.36 Q51.9924 1243.37 51.9924 1239.92 Q51.9924 1236.52 49.3072 1234.53 Q46.622 1232.54 41.9924 1232.54 Q37.386 1232.54 34.7008 1234.53 Q31.9925 1236.52 31.9925 1239.92 M28.3814 1239.92 Q28.3814 1234.37 31.9925 1231.2 Q35.6036 1228.02 41.9924 1228.02 Q48.3581 1228.02 51.9924 1231.2 Q55.6035 1234.37 55.6035 1239.92 Q55.6035 1245.5 51.9924 1248.67 Q48.3581 1251.82 41.9924 1251.82 Q35.6036 1251.82 31.9925 1248.67 Q28.3814 1245.5 28.3814 1239.92 Z" fill="#000000" fill-rule="evenodd" fill-opacity="1" /><path clip-path="url(#clip570)" d="M39.2841 1199.41 L54.9322 1199.41 L54.9322 1203.67 L39.423 1203.67 Q35.7424 1203.67 33.9138 1205.11 Q32.0851 1206.54 32.0851 1209.41 Q32.0851 1212.86 34.2841 1214.85 Q36.4832 1216.84 40.2795 1216.84 L54.9322 1216.84 L54.9322 1221.13 L29.0064 1221.13 L29.0064 1216.84 L33.0341 1216.84 Q30.6962 1215.32 29.5388 1213.26 Q28.3814 1211.17 28.3814 1208.46 Q28.3814 1204 31.1591 1201.71 Q33.9138 1199.41 39.2841 1199.41 Z" fill="#000000" fill-rule="evenodd" fill-opacity="1" /><path clip-path="url(#clip570)" d="M31.9925 1165.8 Q31.9925 1169.23 34.6776 1171.22 Q37.3397 1173.21 41.9924 1173.21 Q46.6452 1173.21 49.3303 1171.24 Q51.9924 1169.25 51.9924 1165.8 Q51.9924 1162.4 49.3072 1160.41 Q46.622 1158.42 41.9924 1158.42 Q37.386 1158.42 34.7008 1160.41 Q31.9925 1162.4 31.9925 1165.8 M28.3814 1165.8 Q28.3814 1160.25 31.9925 1157.08 Q35.6036 1153.9 41.9924 1153.9 Q48.3581 1153.9 51.9924 1157.08 Q55.6035 1160.25 55.6035 1165.8 Q55.6035 1171.38 51.9924 1174.55 Q48.3581 1177.7 41.9924 1177.7 Q35.6036 1177.7 31.9925 1174.55 Q28.3814 1171.38 28.3814 1165.8 Z" fill="#000000" fill-rule="evenodd" fill-opacity="1" /><path clip-path="url(#clip570)" d="M18.9138 1133.72 L22.4555 1133.72 L22.4555 1137.79 Q22.4555 1140.09 23.3814 1140.99 Q24.3073 1141.87 26.7147 1141.87 L29.0064 1141.87 L29.0064 1134.85 L32.3165 1134.85 L32.3165 1141.87 L54.9322 1141.87 L54.9322 1146.15 L32.3165 1146.15 L32.3165 1150.22 L29.0064 1150.22 L29.0064 1146.15 L27.2008 1146.15 Q22.8721 1146.15 20.9046 1144.14 Q18.9138 1142.12 18.9138 1137.75 L18.9138 1133.72 Z" fill="#000000" fill-rule="evenodd" fill-opacity="1" /><path clip-path="url(#clip570)" d="M41.8998 1103.3 Q41.8998 1108.47 43.0804 1110.46 Q44.2609 1112.45 47.1081 1112.45 Q49.3766 1112.45 50.7192 1110.97 Q52.0387 1109.46 52.0387 1106.89 Q52.0387 1103.35 49.5387 1101.22 Q47.0155 1099.07 42.8489 1099.07 L41.8998 1099.07 L41.8998 1103.3 M40.1406 1094.81 L54.9322 1094.81 L54.9322 1099.07 L50.997 1099.07 Q53.3581 1100.53 54.4923 1102.7 Q55.6035 1104.88 55.6035 1108.03 Q55.6035 1112.01 53.3812 1114.37 Q51.1359 1116.71 47.3859 1116.71 Q43.0109 1116.71 40.7887 1113.79 Q38.5665 1110.85 38.5665 1105.04 L38.5665 1099.07 L38.1498 1099.07 Q35.21 1099.07 33.6128 1101.01 Q31.9925 1102.93 31.9925 1106.43 Q31.9925 1108.65 32.5249 1110.76 Q33.0573 1112.86 34.1221 1114.81 L30.1869 1114.81 Q29.2841 1112.47 28.8443 1110.27 Q28.3814 1108.07 28.3814 1105.99 Q28.3814 1100.36 31.298 1097.59 Q34.2147 1094.81 40.1406 1094.81 Z" fill="#000000" fill-rule="evenodd" fill-opacity="1" /><path clip-path="url(#clip570)" d="M29.0064 1089.09 L29.0064 1084.58 L50.7655 1076.47 L29.0064 1068.37 L29.0064 1063.86 L54.9322 1073.58 L54.9322 1079.37 L29.0064 1089.09 Z" fill="#000000" fill-rule="evenodd" fill-opacity="1" /><path clip-path="url(#clip570)" d="M40.9045 1035.8 L42.9878 1035.8 L42.9878 1055.39 Q47.3859 1055.11 49.7007 1052.75 Q51.9924 1050.36 51.9924 1046.13 Q51.9924 1043.67 51.3905 1041.38 Q50.7887 1039.07 49.585 1036.8 L53.6127 1036.8 Q54.5849 1039.09 55.0942 1041.5 Q55.6035 1043.91 55.6035 1046.38 Q55.6035 1052.59 51.9924 1056.22 Q48.3813 1059.83 42.2239 1059.83 Q35.8582 1059.83 32.1314 1056.41 Q28.3814 1052.96 28.3814 1047.12 Q28.3814 1041.89 31.761 1038.86 Q35.1174 1035.8 40.9045 1035.8 M39.6545 1040.06 Q36.1591 1040.11 34.0758 1042.03 Q31.9925 1043.93 31.9925 1047.08 Q31.9925 1050.64 34.0063 1052.79 Q36.0202 1054.92 39.6776 1055.25 L39.6545 1040.06 Z" fill="#000000" fill-rule="evenodd" fill-opacity="1" /><path clip-path="url(#clip570)" d="M32.9878 1013.79 Q32.5712 1014.51 32.386 1015.36 Q32.1776 1016.2 32.1776 1017.22 Q32.1776 1020.83 34.5387 1022.77 Q36.8767 1024.69 41.2748 1024.69 L54.9322 1024.69 L54.9322 1028.98 L29.0064 1028.98 L29.0064 1024.69 L33.0341 1024.69 Q30.673 1023.35 29.5388 1021.2 Q28.3814 1019.04 28.3814 1015.97 Q28.3814 1015.53 28.4508 1014.99 Q28.4971 1014.46 28.6129 1013.81 L32.9878 1013.79 Z" fill="#000000" fill-rule="evenodd" fill-opacity="1" /><path clip-path="url(#clip570)" d="M41.8998 997.54 Q41.8998 1002.7 43.0804 1004.69 Q44.2609 1006.68 47.1081 1006.68 Q49.3766 1006.68 50.7192 1005.2 Q52.0387 1003.7 52.0387 1001.13 Q52.0387 997.586 49.5387 995.457 Q47.0155 993.304 42.8489 993.304 L41.8998 993.304 L41.8998 997.54 M40.1406 989.045 L54.9322 989.045 L54.9322 993.304 L50.997 993.304 Q53.3581 994.762 54.4923 996.938 Q55.6035 999.114 55.6035 1002.26 Q55.6035 1006.24 53.3812 1008.6 Q51.1359 1010.94 47.3859 1010.94 Q43.0109 1010.94 40.7887 1008.03 Q38.5665 1005.09 38.5665 999.276 L38.5665 993.304 L38.1498 993.304 Q35.21 993.304 33.6128 995.248 Q31.9925 997.17 31.9925 1000.66 Q31.9925 1002.89 32.5249 1004.99 Q33.0573 1007.1 34.1221 1009.04 L30.1869 1009.04 Q29.2841 1006.71 28.8443 1004.51 Q28.3814 1002.31 28.3814 1000.23 Q28.3814 994.6 31.298 991.822 Q34.2147 989.045 40.1406 989.045 Z" fill="#000000" fill-rule="evenodd" fill-opacity="1" /><path clip-path="url(#clip570)" d="M41.6683 963.211 Q37.0387 963.211 34.4925 965.133 Q31.9462 967.031 31.9462 970.48 Q31.9462 973.906 34.4925 975.827 Q37.0387 977.725 41.6683 977.725 Q46.2748 977.725 48.8211 975.827 Q51.3674 973.906 51.3674 970.48 Q51.3674 967.031 48.8211 965.133 Q46.2748 963.211 41.6683 963.211 M51.7146 958.952 Q58.3349 958.952 61.5525 961.892 Q64.7932 964.832 64.7932 970.897 Q64.7932 973.142 64.446 975.133 Q64.1219 977.123 63.4275 978.998 L59.284 978.998 Q60.3025 977.123 60.7886 975.295 Q61.2747 973.466 61.2747 971.568 Q61.2747 967.378 59.0757 965.295 Q56.8997 963.211 52.4785 963.211 L50.372 963.211 Q52.6637 964.531 53.7979 966.591 Q54.9322 968.651 54.9322 971.522 Q54.9322 976.29 51.2979 979.207 Q47.6637 982.123 41.6683 982.123 Q35.6499 982.123 32.0156 979.207 Q28.3814 976.29 28.3814 971.522 Q28.3814 968.651 29.5156 966.591 Q30.6499 964.531 32.9415 963.211 L29.0064 963.211 L29.0064 958.952 L51.7146 958.952 Z" fill="#000000" fill-rule="evenodd" fill-opacity="1" /><path clip-path="url(#clip570)" d="M40.9045 928.003 L42.9878 928.003 L42.9878 947.587 Q47.3859 947.309 49.7007 944.948 Q51.9924 942.563 51.9924 938.327 Q51.9924 935.874 51.3905 933.582 Q50.7887 931.267 49.585 928.999 L53.6127 928.999 Q54.5849 931.29 55.0942 933.698 Q55.6035 936.105 55.6035 938.582 Q55.6035 944.786 51.9924 948.42 Q48.3813 952.031 42.2239 952.031 Q35.8582 952.031 32.1314 948.605 Q28.3814 945.156 28.3814 939.323 Q28.3814 934.091 31.761 931.059 Q35.1174 928.003 40.9045 928.003 M39.6545 932.263 Q36.1591 932.309 34.0758 934.23 Q31.9925 936.128 31.9925 939.276 Q31.9925 942.841 34.0063 944.994 Q36.0202 947.124 39.6776 947.448 L39.6545 932.263 Z" fill="#000000" fill-rule="evenodd" fill-opacity="1" /><path clip-path="url(#clip570)" d="M51.0433 901.823 L64.7932 901.823 L64.7932 906.105 L29.0064 906.105 L29.0064 901.823 L32.9415 901.823 Q30.6267 900.48 29.5156 898.443 Q28.3814 896.383 28.3814 893.536 Q28.3814 888.814 32.1314 885.874 Q35.8813 882.911 41.9924 882.911 Q48.1035 882.911 51.8535 885.874 Q55.6035 888.814 55.6035 893.536 Q55.6035 896.383 54.4923 898.443 Q53.3581 900.48 51.0433 901.823 M41.9924 887.332 Q37.2934 887.332 34.6313 889.277 Q31.9462 891.198 31.9462 894.578 Q31.9462 897.957 34.6313 899.902 Q37.2934 901.823 41.9924 901.823 Q46.6915 901.823 49.3766 899.902 Q52.0387 897.957 52.0387 894.578 Q52.0387 891.198 49.3766 889.277 Q46.6915 887.332 41.9924 887.332 Z" fill="#000000" fill-rule="evenodd" fill-opacity="1" /><path clip-path="url(#clip570)" d="M41.8998 864.068 Q41.8998 869.23 43.0804 871.221 Q44.2609 873.212 47.1081 873.212 Q49.3766 873.212 50.7192 871.73 Q52.0387 870.226 52.0387 867.656 Q52.0387 864.115 49.5387 861.985 Q47.0155 859.832 42.8489 859.832 L41.8998 859.832 L41.8998 864.068 M40.1406 855.573 L54.9322 855.573 L54.9322 859.832 L50.997 859.832 Q53.3581 861.291 54.4923 863.467 Q55.6035 865.643 55.6035 868.791 Q55.6035 872.772 53.3812 875.133 Q51.1359 877.471 47.3859 877.471 Q43.0109 877.471 40.7887 874.555 Q38.5665 871.615 38.5665 865.805 L38.5665 859.832 L38.1498 859.832 Q35.21 859.832 33.6128 861.777 Q31.9925 863.698 31.9925 867.193 Q31.9925 869.416 32.5249 871.522 Q33.0573 873.629 34.1221 875.573 L30.1869 875.573 Q29.2841 873.235 28.8443 871.036 Q28.3814 868.837 28.3814 866.754 Q28.3814 861.129 31.298 858.351 Q34.2147 855.573 40.1406 855.573 Z" fill="#000000" fill-rule="evenodd" fill-opacity="1" /><path clip-path="url(#clip570)" d="M32.9878 831.777 Q32.5712 832.495 32.386 833.351 Q32.1776 834.184 32.1776 835.203 Q32.1776 838.814 34.5387 840.758 Q36.8767 842.68 41.2748 842.68 L54.9322 842.68 L54.9322 846.962 L29.0064 846.962 L29.0064 842.68 L33.0341 842.68 Q30.673 841.337 29.5388 839.184 Q28.3814 837.032 28.3814 833.953 Q28.3814 833.513 28.4508 832.981 Q28.4971 832.448 28.6129 831.8 L32.9878 831.777 Z" fill="#000000" fill-rule="evenodd" fill-opacity="1" /><path clip-path="url(#clip570)" d="M41.8998 815.527 Q41.8998 820.689 43.0804 822.68 Q44.2609 824.671 47.1081 824.671 Q49.3766 824.671 50.7192 823.189 Q52.0387 821.684 52.0387 819.115 Q52.0387 815.573 49.5387 813.444 Q47.0155 811.291 42.8489 811.291 L41.8998 811.291 L41.8998 815.527 M40.1406 807.032 L54.9322 807.032 L54.9322 811.291 L50.997 811.291 Q53.3581 812.749 54.4923 814.925 Q55.6035 817.101 55.6035 820.249 Q55.6035 824.231 53.3812 826.592 Q51.1359 828.93 47.3859 828.93 Q43.0109 828.93 40.7887 826.013 Q38.5665 823.073 38.5665 817.263 L38.5665 811.291 L38.1498 811.291 Q35.21 811.291 33.6128 813.235 Q31.9925 815.157 31.9925 818.652 Q31.9925 820.874 32.5249 822.981 Q33.0573 825.087 34.1221 827.032 L30.1869 827.032 Q29.2841 824.694 28.8443 822.495 Q28.3814 820.296 28.3814 818.212 Q28.3814 812.587 31.298 809.81 Q34.2147 807.032 40.1406 807.032 Z" fill="#000000" fill-rule="evenodd" fill-opacity="1" /><path clip-path="url(#clip570)" d="M33.9832 778.074 Q31.1128 776.476 29.7471 774.254 Q28.3814 772.032 28.3814 769.023 Q28.3814 764.972 31.2286 762.773 Q34.0526 760.574 39.2841 760.574 L54.9322 760.574 L54.9322 764.856 L39.423 764.856 Q35.6961 764.856 33.8906 766.175 Q32.0851 767.495 32.0851 770.203 Q32.0851 773.513 34.2841 775.435 Q36.4832 777.356 40.2795 777.356 L54.9322 777.356 L54.9322 781.638 L39.423 781.638 Q35.673 781.638 33.8906 782.958 Q32.0851 784.277 32.0851 787.032 Q32.0851 790.296 34.3073 792.217 Q36.5063 794.138 40.2795 794.138 L54.9322 794.138 L54.9322 798.421 L29.0064 798.421 L29.0064 794.138 L33.0341 794.138 Q30.6499 792.68 29.5156 790.643 Q28.3814 788.606 28.3814 785.805 Q28.3814 782.981 29.8166 781.013 Q31.2517 779.023 33.9832 778.074 Z" fill="#000000" fill-rule="evenodd" fill-opacity="1" /><path clip-path="url(#clip570)" d="M40.9045 729.903 L42.9878 729.903 L42.9878 749.486 Q47.3859 749.208 49.7007 746.847 Q51.9924 744.463 51.9924 740.227 Q51.9924 737.773 51.3905 735.481 Q50.7887 733.166 49.585 730.898 L53.6127 730.898 Q54.5849 733.19 55.0942 735.597 Q55.6035 738.004 55.6035 740.481 Q55.6035 746.685 51.9924 750.319 Q48.3813 753.93 42.2239 753.93 Q35.8582 753.93 32.1314 750.504 Q28.3814 747.055 28.3814 741.222 Q28.3814 735.99 31.761 732.958 Q35.1174 729.903 40.9045 729.903 M39.6545 734.162 Q36.1591 734.208 34.0758 736.129 Q31.9925 738.027 31.9925 741.176 Q31.9925 744.74 34.0063 746.893 Q36.0202 749.023 39.6776 749.347 L39.6545 734.162 Z" fill="#000000" fill-rule="evenodd" fill-opacity="1" /><path clip-path="url(#clip570)" d="M21.6453 718.699 L29.0064 718.699 L29.0064 709.926 L32.3165 709.926 L32.3165 718.699 L46.3905 718.699 Q49.5618 718.699 50.4646 717.842 Q51.3674 716.963 51.3674 714.301 L51.3674 709.926 L54.9322 709.926 L54.9322 714.301 Q54.9322 719.231 53.1035 721.106 Q51.2516 722.981 46.3905 722.981 L32.3165 722.981 L32.3165 726.106 L29.0064 726.106 L29.0064 722.981 L21.6453 722.981 L21.6453 718.699 Z" fill="#000000" fill-rule="evenodd" fill-opacity="1" /><path clip-path="url(#clip570)" d="M40.9045 682.148 L42.9878 682.148 L42.9878 701.731 Q47.3859 701.454 49.7007 699.093 Q51.9924 696.708 51.9924 692.472 Q51.9924 690.018 51.3905 687.727 Q50.7887 685.412 49.585 683.144 L53.6127 683.144 Q54.5849 685.435 55.0942 687.843 Q55.6035 690.25 55.6035 692.727 Q55.6035 698.93 51.9924 702.565 Q48.3813 706.176 42.2239 706.176 Q35.8582 706.176 32.1314 702.75 Q28.3814 699.301 28.3814 693.468 Q28.3814 688.236 31.761 685.204 Q35.1174 682.148 40.9045 682.148 M39.6545 686.407 Q36.1591 686.454 34.0758 688.375 Q31.9925 690.273 31.9925 693.421 Q31.9925 696.986 34.0063 699.139 Q36.0202 701.268 39.6776 701.592 L39.6545 686.407 Z" fill="#000000" fill-rule="evenodd" fill-opacity="1" /><path clip-path="url(#clip570)" d="M32.9878 660.134 Q32.5712 660.852 32.386 661.708 Q32.1776 662.542 32.1776 663.56 Q32.1776 667.171 34.5387 669.116 Q36.8767 671.037 41.2748 671.037 L54.9322 671.037 L54.9322 675.319 L29.0064 675.319 L29.0064 671.037 L33.0341 671.037 Q30.673 669.695 29.5388 667.542 Q28.3814 665.389 28.3814 662.31 Q28.3814 661.87 28.4508 661.338 Q28.4971 660.806 28.6129 660.158 L32.9878 660.134 Z" fill="#000000" fill-rule="evenodd" fill-opacity="1" /><path clip-path="url(#clip570)" d="M29.7703 639.139 L33.798 639.139 Q32.8721 640.945 32.4091 642.889 Q31.9462 644.834 31.9462 646.917 Q31.9462 650.088 32.9184 651.685 Q33.8906 653.259 35.835 653.259 Q37.3165 653.259 38.173 652.125 Q39.0063 650.991 39.7702 647.565 L40.0943 646.107 Q41.0665 641.57 42.8489 639.672 Q44.6081 637.75 47.7794 637.75 Q51.3905 637.75 53.497 640.621 Q55.6035 643.468 55.6035 648.468 Q55.6035 650.551 55.1868 652.82 Q54.7933 655.065 53.9831 657.565 L49.585 657.565 Q50.8118 655.204 51.4368 652.912 Q52.0387 650.621 52.0387 648.375 Q52.0387 645.366 51.0201 643.746 Q49.9785 642.125 48.1035 642.125 Q46.3674 642.125 45.4415 643.306 Q44.5155 644.463 43.6591 648.421 L43.3118 649.903 Q42.4785 653.861 40.7656 655.621 Q39.0295 657.38 36.0202 657.38 Q32.3628 657.38 30.3721 654.787 Q28.3814 652.195 28.3814 647.426 Q28.3814 645.065 28.7286 642.982 Q29.0758 640.898 29.7703 639.139 Z" fill="#000000" fill-rule="evenodd" fill-opacity="1" /><path clip-path="url(#clip570)" d="M18.9138 602.774 L22.4555 602.774 L22.4555 606.848 Q22.4555 609.139 23.3814 610.042 Q24.3073 610.922 26.7147 610.922 L29.0064 610.922 L29.0064 603.908 L32.3165 603.908 L32.3165 610.922 L54.9322 610.922 L54.9322 615.204 L32.3165 615.204 L32.3165 619.278 L29.0064 619.278 L29.0064 615.204 L27.2008 615.204 Q22.8721 615.204 20.9046 613.19 Q18.9138 611.176 18.9138 606.801 L18.9138 602.774 Z" fill="#000000" fill-rule="evenodd" fill-opacity="1" /><path clip-path="url(#clip570)" d="M32.9878 584.186 Q32.5712 584.903 32.386 585.76 Q32.1776 586.593 32.1776 587.612 Q32.1776 591.223 34.5387 593.167 Q36.8767 595.088 41.2748 595.088 L54.9322 595.088 L54.9322 599.371 L29.0064 599.371 L29.0064 595.088 L33.0341 595.088 Q30.673 593.746 29.5388 591.593 Q28.3814 589.44 28.3814 586.362 Q28.3814 585.922 28.4508 585.389 Q28.4971 584.857 28.6129 584.209 L32.9878 584.186 Z" fill="#000000" fill-rule="evenodd" fill-opacity="1" /><path clip-path="url(#clip570)" d="M31.9925 570.714 Q31.9925 574.139 34.6776 576.13 Q37.3397 578.121 41.9924 578.121 Q46.6452 578.121 49.3303 576.153 Q51.9924 574.163 51.9924 570.714 Q51.9924 567.311 49.3072 565.32 Q46.622 563.329 41.9924 563.329 Q37.386 563.329 34.7008 565.32 Q31.9925 567.311 31.9925 570.714 M28.3814 570.714 Q28.3814 565.158 31.9925 561.987 Q35.6036 558.815 41.9924 558.815 Q48.3581 558.815 51.9924 561.987 Q55.6035 565.158 55.6035 570.714 Q55.6035 576.292 51.9924 579.464 Q48.3581 582.612 41.9924 582.612 Q35.6036 582.612 31.9925 579.464 Q28.3814 576.292 28.3814 570.714 Z" fill="#000000" fill-rule="evenodd" fill-opacity="1" /><path clip-path="url(#clip570)" d="M33.9832 531.57 Q31.1128 529.973 29.7471 527.751 Q28.3814 525.529 28.3814 522.519 Q28.3814 518.468 31.2286 516.269 Q34.0526 514.07 39.2841 514.07 L54.9322 514.07 L54.9322 518.353 L39.423 518.353 Q35.6961 518.353 33.8906 519.672 Q32.0851 520.992 32.0851 523.7 Q32.0851 527.01 34.2841 528.931 Q36.4832 530.853 40.2795 530.853 L54.9322 530.853 L54.9322 535.135 L39.423 535.135 Q35.673 535.135 33.8906 536.454 Q32.0851 537.774 32.0851 540.529 Q32.0851 543.792 34.3073 545.714 Q36.5063 547.635 40.2795 547.635 L54.9322 547.635 L54.9322 551.917 L29.0064 551.917 L29.0064 547.635 L33.0341 547.635 Q30.6499 546.177 29.5156 544.14 Q28.3814 542.103 28.3814 539.302 Q28.3814 536.478 29.8166 534.51 Q31.2517 532.519 33.9832 531.57 Z" fill="#000000" fill-rule="evenodd" fill-opacity="1" /><path clip-path="url(#clip570)" d="M40.9045 468.33 L42.9878 468.33 L42.9878 487.913 Q47.3859 487.635 49.7007 485.274 Q51.9924 482.89 51.9924 478.654 Q51.9924 476.2 51.3905 473.909 Q50.7887 471.594 49.585 469.325 L53.6127 469.325 Q54.5849 471.617 55.0942 474.024 Q55.6035 476.432 55.6035 478.909 Q55.6035 485.112 51.9924 488.746 Q48.3813 492.358 42.2239 492.358 Q35.8582 492.358 32.1314 488.932 Q28.3814 485.483 28.3814 479.649 Q28.3814 474.418 31.761 471.385 Q35.1174 468.33 40.9045 468.33 M39.6545 472.589 Q36.1591 472.635 34.0758 474.557 Q31.9925 476.455 31.9925 479.603 Q31.9925 483.168 34.0063 485.321 Q36.0202 487.45 39.6776 487.774 L39.6545 472.589 Z" fill="#000000" fill-rule="evenodd" fill-opacity="1" /><path clip-path="url(#clip570)" d="M29.0064 440.622 L41.622 449.997 L54.9322 440.136 L54.9322 445.159 L44.747 452.705 L54.9322 460.251 L54.9322 465.274 L41.3674 455.205 L29.0064 464.418 L29.0064 459.395 L38.2424 452.52 L29.0064 445.645 L29.0064 440.622 Z" fill="#000000" fill-rule="evenodd" fill-opacity="1" /><path clip-path="url(#clip570)" d="M51.0433 429.997 L64.7932 429.997 L64.7932 434.279 L29.0064 434.279 L29.0064 429.997 L32.9415 429.997 Q30.6267 428.654 29.5156 426.617 Q28.3814 424.557 28.3814 421.71 Q28.3814 416.988 32.1314 414.048 Q35.8813 411.085 41.9924 411.085 Q48.1035 411.085 51.8535 414.048 Q55.6035 416.988 55.6035 421.71 Q55.6035 424.557 54.4923 426.617 Q53.3581 428.654 51.0433 429.997 M41.9924 415.506 Q37.2934 415.506 34.6313 417.451 Q31.9462 419.372 31.9462 422.751 Q31.9462 426.131 34.6313 428.075 Q37.2934 429.997 41.9924 429.997 Q46.6915 429.997 49.3766 428.075 Q52.0387 426.131 52.0387 422.751 Q52.0387 419.372 49.3766 417.451 Q46.6915 415.506 41.9924 415.506 Z" fill="#000000" fill-rule="evenodd" fill-opacity="1" /><path clip-path="url(#clip570)" d="M40.9045 381.849 L42.9878 381.849 L42.9878 401.432 Q47.3859 401.154 49.7007 398.793 Q51.9924 396.409 51.9924 392.173 Q51.9924 389.719 51.3905 387.428 Q50.7887 385.113 49.585 382.844 L53.6127 382.844 Q54.5849 385.136 55.0942 387.543 Q55.6035 389.951 55.6035 392.427 Q55.6035 398.631 51.9924 402.265 Q48.3813 405.876 42.2239 405.876 Q35.8582 405.876 32.1314 402.451 Q28.3814 399.002 28.3814 393.168 Q28.3814 387.937 31.761 384.904 Q35.1174 381.849 40.9045 381.849 M39.6545 386.108 Q36.1591 386.154 34.0758 388.076 Q31.9925 389.974 31.9925 393.122 Q31.9925 396.687 34.0063 398.839 Q36.0202 400.969 39.6776 401.293 L39.6545 386.108 Z" fill="#000000" fill-rule="evenodd" fill-opacity="1" /><path clip-path="url(#clip570)" d="M30.0017 356.201 L33.9832 356.201 Q32.9878 358.006 32.5017 359.835 Q31.9925 361.641 31.9925 363.492 Q31.9925 367.636 34.6313 369.928 Q37.2471 372.219 41.9924 372.219 Q46.7378 372.219 49.3766 369.928 Q51.9924 367.636 51.9924 363.492 Q51.9924 361.641 51.5062 359.835 Q50.997 358.006 50.0016 356.201 L53.9368 356.201 Q54.7701 357.983 55.1868 359.905 Q55.6035 361.803 55.6035 363.955 Q55.6035 369.812 51.9229 373.261 Q48.2424 376.71 41.9924 376.71 Q35.6499 376.71 32.0156 373.238 Q28.3814 369.742 28.3814 363.678 Q28.3814 361.71 28.798 359.835 Q29.1916 357.96 30.0017 356.201 Z" fill="#000000" fill-rule="evenodd" fill-opacity="1" /><path clip-path="url(#clip570)" d="M21.6453 344.581 L29.0064 344.581 L29.0064 335.807 L32.3165 335.807 L32.3165 344.581 L46.3905 344.581 Q49.5618 344.581 50.4646 343.724 Q51.3674 342.844 51.3674 340.182 L51.3674 335.807 L54.9322 335.807 L54.9322 340.182 Q54.9322 345.113 53.1035 346.988 Q51.2516 348.863 46.3905 348.863 L32.3165 348.863 L32.3165 351.988 L29.0064 351.988 L29.0064 348.863 L21.6453 348.863 L21.6453 344.581 Z" fill="#000000" fill-rule="evenodd" fill-opacity="1" /><path clip-path="url(#clip570)" d="M41.8998 318.423 Q41.8998 323.585 43.0804 325.576 Q44.2609 327.567 47.1081 327.567 Q49.3766 327.567 50.7192 326.085 Q52.0387 324.581 52.0387 322.011 Q52.0387 318.47 49.5387 316.34 Q47.0155 314.187 42.8489 314.187 L41.8998 314.187 L41.8998 318.423 M40.1406 309.928 L54.9322 309.928 L54.9322 314.187 L50.997 314.187 Q53.3581 315.645 54.4923 317.821 Q55.6035 319.997 55.6035 323.145 Q55.6035 327.127 53.3812 329.488 Q51.1359 331.826 47.3859 331.826 Q43.0109 331.826 40.7887 328.909 Q38.5665 325.97 38.5665 320.159 L38.5665 314.187 L38.1498 314.187 Q35.21 314.187 33.6128 316.132 Q31.9925 318.053 31.9925 321.548 Q31.9925 323.77 32.5249 325.877 Q33.0573 327.983 34.1221 329.928 L30.1869 329.928 Q29.2841 327.59 28.8443 325.391 Q28.3814 323.192 28.3814 321.108 Q28.3814 315.483 31.298 312.706 Q34.2147 309.928 40.1406 309.928 Z" fill="#000000" fill-rule="evenodd" fill-opacity="1" /><path clip-path="url(#clip570)" d="M21.6453 296.942 L29.0064 296.942 L29.0064 288.169 L32.3165 288.169 L32.3165 296.942 L46.3905 296.942 Q49.5618 296.942 50.4646 296.085 Q51.3674 295.206 51.3674 292.544 L51.3674 288.169 L54.9322 288.169 L54.9322 292.544 Q54.9322 297.474 53.1035 299.349 Q51.2516 301.224 46.3905 301.224 L32.3165 301.224 L32.3165 304.349 L29.0064 304.349 L29.0064 301.224 L21.6453 301.224 L21.6453 296.942 Z" fill="#000000" fill-rule="evenodd" fill-opacity="1" /><path clip-path="url(#clip570)" d="M29.0064 282.567 L29.0064 278.308 L54.9322 278.308 L54.9322 282.567 L29.0064 282.567 M18.9138 282.567 L18.9138 278.308 L24.3073 278.308 L24.3073 282.567 L18.9138 282.567 Z" fill="#000000" fill-rule="evenodd" fill-opacity="1" /><path clip-path="url(#clip570)" d="M31.9925 259.349 Q31.9925 262.775 34.6776 264.766 Q37.3397 266.757 41.9924 266.757 Q46.6452 266.757 49.3303 264.789 Q51.9924 262.799 51.9924 259.349 Q51.9924 255.947 49.3072 253.956 Q46.622 251.965 41.9924 251.965 Q37.386 251.965 34.7008 253.956 Q31.9925 255.947 31.9925 259.349 M28.3814 259.349 Q28.3814 253.794 31.9925 250.623 Q35.6036 247.451 41.9924 247.451 Q48.3581 247.451 51.9924 250.623 Q55.6035 253.794 55.6035 259.349 Q55.6035 264.928 51.9924 268.099 Q48.3581 271.248 41.9924 271.248 Q35.6036 271.248 31.9925 268.099 Q28.3814 264.928 28.3814 259.349 Z" fill="#000000" fill-rule="evenodd" fill-opacity="1" /><path clip-path="url(#clip570)" d="M39.2841 218.84 L54.9322 218.84 L54.9322 223.1 L39.423 223.1 Q35.7424 223.1 33.9138 224.535 Q32.0851 225.97 32.0851 228.84 Q32.0851 232.289 34.2841 234.28 Q36.4832 236.271 40.2795 236.271 L54.9322 236.271 L54.9322 240.553 L29.0064 240.553 L29.0064 236.271 L33.0341 236.271 Q30.6962 234.743 29.5388 232.683 Q28.3814 230.6 28.3814 227.891 Q28.3814 223.424 31.1591 221.132 Q33.9138 218.84 39.2841 218.84 Z" fill="#000000" fill-rule="evenodd" fill-opacity="1" /><path clip-path="url(#clip570)" d="M29.7703 193.817 L33.798 193.817 Q32.8721 195.623 32.4091 197.567 Q31.9462 199.512 31.9462 201.595 Q31.9462 204.766 32.9184 206.364 Q33.8906 207.938 35.835 207.938 Q37.3165 207.938 38.173 206.803 Q39.0063 205.669 39.7702 202.243 L40.0943 200.785 Q41.0665 196.248 42.8489 194.35 Q44.6081 192.429 47.7794 192.429 Q51.3905 192.429 53.497 195.299 Q55.6035 198.146 55.6035 203.146 Q55.6035 205.229 55.1868 207.498 Q54.7933 209.743 53.9831 212.243 L49.585 212.243 Q50.8118 209.882 51.4368 207.591 Q52.0387 205.299 52.0387 203.054 Q52.0387 200.044 51.0201 198.424 Q49.9785 196.804 48.1035 196.804 Q46.3674 196.804 45.4415 197.984 Q44.5155 199.141 43.6591 203.1 L43.3118 204.581 Q42.4785 208.54 40.7656 210.299 Q39.0295 212.058 36.0202 212.058 Q32.3628 212.058 30.3721 209.466 Q28.3814 206.873 28.3814 202.104 Q28.3814 199.743 28.7286 197.66 Q29.0758 195.577 29.7703 193.817 Z" fill="#000000" fill-rule="evenodd" fill-opacity="1" /><path clip-path="url(#clip570)" d="M1108.95 18.8205 L1108.95 65.8515 L1118.84 65.8515 Q1131.35 65.8515 1137.15 60.1802 Q1142.98 54.509 1142.98 42.2752 Q1142.98 30.1225 1137.15 24.4918 Q1131.35 18.8205 1118.84 18.8205 L1108.95 18.8205 M1100.77 12.096 L1117.58 12.096 Q1135.16 12.096 1143.39 19.4281 Q1151.61 26.7198 1151.61 42.2752 Q1151.61 57.9117 1143.34 65.2439 Q1135.08 72.576 1117.58 72.576 L1100.77 72.576 L1100.77 12.096 Z" fill="#000000" fill-rule="evenodd" fill-opacity="1" /><path clip-path="url(#clip570)" d="M1163.56 54.671 L1163.56 27.2059 L1171.01 27.2059 L1171.01 54.3874 Q1171.01 60.8284 1173.52 64.0691 Q1176.04 67.2693 1181.06 67.2693 Q1187.09 67.2693 1190.58 63.421 Q1194.1 59.5726 1194.1 52.9291 L1194.1 27.2059 L1201.56 27.2059 L1201.56 72.576 L1194.1 72.576 L1194.1 65.6084 Q1191.39 69.7404 1187.78 71.7658 Q1184.22 73.7508 1179.48 73.7508 Q1171.66 73.7508 1167.61 68.8897 Q1163.56 64.0286 1163.56 54.671 M1182.31 26.1121 L1182.31 26.1121 Z" fill="#000000" fill-rule="evenodd" fill-opacity="1" /><path clip-path="url(#clip570)" d="M1243.2 34.1734 Q1241.94 33.4443 1240.44 33.1202 Q1238.99 32.7556 1237.2 32.7556 Q1230.88 32.7556 1227.48 36.8875 Q1224.12 40.9789 1224.12 48.6757 L1224.12 72.576 L1216.63 72.576 L1216.63 27.2059 L1224.12 27.2059 L1224.12 34.2544 Q1226.47 30.1225 1230.24 28.1376 Q1234 26.1121 1239.39 26.1121 Q1240.16 26.1121 1241.09 26.2337 Q1242.02 26.3147 1243.16 26.5172 L1243.2 34.1734 Z" fill="#000000" fill-rule="evenodd" fill-opacity="1" /><path clip-path="url(#clip570)" d="M1271.64 49.7694 Q1262.6 49.7694 1259.12 51.8354 Q1255.64 53.9013 1255.64 58.8839 Q1255.64 62.8538 1258.23 65.2034 Q1260.86 67.5124 1265.36 67.5124 Q1271.56 67.5124 1275.28 63.1374 Q1279.05 58.7219 1279.05 51.4303 L1279.05 49.7694 L1271.64 49.7694 M1286.5 46.6907 L1286.5 72.576 L1279.05 72.576 L1279.05 65.6895 Q1276.5 69.8214 1272.69 71.8063 Q1268.88 73.7508 1263.37 73.7508 Q1256.41 73.7508 1252.27 69.8619 Q1248.18 65.9325 1248.18 59.3701 Q1248.18 51.7138 1253.29 47.825 Q1258.43 43.9361 1268.6 43.9361 L1279.05 43.9361 L1279.05 43.2069 Q1279.05 38.0623 1275.65 35.2672 Q1272.28 32.4315 1266.17 32.4315 Q1262.28 32.4315 1258.59 33.3632 Q1254.91 34.295 1251.5 36.1584 L1251.5 29.2718 Q1255.6 27.692 1259.44 26.9223 Q1263.29 26.1121 1266.94 26.1121 Q1276.78 26.1121 1281.64 31.2163 Q1286.5 36.3204 1286.5 46.6907 Z" fill="#000000" fill-rule="evenodd" fill-opacity="1" /><path clip-path="url(#clip570)" d="M1334.43 49.9314 Q1334.43 41.7081 1331.02 37.0496 Q1327.66 32.3505 1321.75 32.3505 Q1315.83 32.3505 1312.43 37.0496 Q1309.07 41.7081 1309.07 49.9314 Q1309.07 58.1548 1312.43 62.8538 Q1315.83 67.5124 1321.75 67.5124 Q1327.66 67.5124 1331.02 62.8538 Q1334.43 58.1548 1334.43 49.9314 M1309.07 34.0924 Q1311.42 30.0415 1314.98 28.0971 Q1318.59 26.1121 1323.57 26.1121 Q1331.83 26.1121 1336.98 32.6746 Q1342.16 39.2371 1342.16 49.9314 Q1342.16 60.6258 1336.98 67.1883 Q1331.83 73.7508 1323.57 73.7508 Q1318.59 73.7508 1314.98 71.8063 Q1311.42 69.8214 1309.07 65.7705 L1309.07 72.576 L1301.57 72.576 L1301.57 9.54393 L1309.07 9.54393 L1309.07 34.0924 Z" fill="#000000" fill-rule="evenodd" fill-opacity="1" /><path clip-path="url(#clip570)" d="M1354.52 27.2059 L1361.97 27.2059 L1361.97 72.576 L1354.52 72.576 L1354.52 27.2059 M1354.52 9.54393 L1361.97 9.54393 L1361.97 18.9825 L1354.52 18.9825 L1354.52 9.54393 Z" fill="#000000" fill-rule="evenodd" fill-opacity="1" /><path clip-path="url(#clip570)" d="M1377.57 9.54393 L1385.02 9.54393 L1385.02 72.576 L1377.57 72.576 L1377.57 9.54393 Z" fill="#000000" fill-rule="evenodd" fill-opacity="1" /><path clip-path="url(#clip570)" d="M1400.62 27.2059 L1408.07 27.2059 L1408.07 72.576 L1400.62 72.576 L1400.62 27.2059 M1400.62 9.54393 L1408.07 9.54393 L1408.07 18.9825 L1400.62 18.9825 L1400.62 9.54393 Z" fill="#000000" fill-rule="evenodd" fill-opacity="1" /><path clip-path="url(#clip570)" d="M1431.04 14.324 L1431.04 27.2059 L1446.39 27.2059 L1446.39 32.9987 L1431.04 32.9987 L1431.04 57.6282 Q1431.04 63.1779 1432.54 64.7578 Q1434.08 66.3376 1438.74 66.3376 L1446.39 66.3376 L1446.39 72.576 L1438.74 72.576 Q1430.11 72.576 1426.83 69.3758 Q1423.55 66.1351 1423.55 57.6282 L1423.55 32.9987 L1418.08 32.9987 L1418.08 27.2059 L1423.55 27.2059 L1423.55 14.324 L1431.04 14.324 Z" fill="#000000" fill-rule="evenodd" fill-opacity="1" /><path clip-path="url(#clip570)" d="M1475.07 76.7889 Q1471.91 84.8907 1468.92 87.3618 Q1465.92 89.8329 1460.89 89.8329 L1454.94 89.8329 L1454.94 83.5945 L1459.32 83.5945 Q1462.39 83.5945 1464.1 82.1361 Q1465.8 80.6778 1467.86 75.2496 L1469.2 71.8468 L1450.85 27.2059 L1458.75 27.2059 L1472.93 62.6918 L1487.1 27.2059 L1495 27.2059 L1475.07 76.7889 Z" fill="#000000" fill-rule="evenodd" fill-opacity="1" /><path clip-path="url(#clip572)" d="
M745.02 1281.21 L523.873 1281.21 L966.167 1281.21 L745.02 1281.21 L745.02 1051.02 L745.02 1281.21  Z
  " fill="#009af9" fill-rule="evenodd" fill-opacity="1"/>
<polyline clip-path="url(#clip572)" style="stroke:#000000; stroke-linecap:round; stroke-linejoin:round; stroke-width:4; stroke-opacity:1; fill:none" points="
  745.02,1281.21 523.873,1281.21 966.167,1281.21 745.02,1281.21 745.02,1051.02 745.02,1281.21 
  "/>
<path clip-path="url(#clip572)" d="
M1187.31 1051.02 L1187.31 984.474 L302.727 984.474 L302.727 1051.02 L1187.31 1051.02 L1187.31 984.474 L1187.31 1051.02  Z
  " fill="#009af9" fill-rule="evenodd" fill-opacity="1"/>
<polyline clip-path="url(#clip572)" style="stroke:#000000; stroke-linecap:round; stroke-linejoin:round; stroke-width:4; stroke-opacity:1; fill:none" points="
  1187.31,1051.02 1187.31,984.474 302.727,984.474 302.727,1051.02 1187.31,1051.02 1187.31,984.474 1187.31,1051.02 
  "/>
<path clip-path="url(#clip572)" d="
M1187.31 872.111 L302.727 872.111 L302.727 984.474 L1187.31 984.474 L1187.31 872.111 L745.02 872.111 L1187.31 872.111  Z
  " fill="#009af9" fill-rule="evenodd" fill-opacity="1"/>
<polyline clip-path="url(#clip572)" style="stroke:#000000; stroke-linecap:round; stroke-linejoin:round; stroke-width:4; stroke-opacity:1; fill:none" points="
  1187.31,872.111 302.727,872.111 302.727,984.474 1187.31,984.474 1187.31,872.111 745.02,872.111 1187.31,872.111 
  "/>
<path clip-path="url(#clip572)" d="
M745.02 609.628 L523.873 609.628 L966.167 609.628 L745.02 609.628 L745.02 872.111 L745.02 609.628  Z
  " fill="#009af9" fill-rule="evenodd" fill-opacity="1"/>
<polyline clip-path="url(#clip572)" style="stroke:#000000; stroke-linecap:round; stroke-linejoin:round; stroke-width:4; stroke-opacity:1; fill:none" points="
  745.02,609.628 523.873,609.628 966.167,609.628 745.02,609.628 745.02,872.111 745.02,609.628 
  "/>
<circle clip-path="url(#clip572)" cx="745.02" cy="574.194" r="14.4" fill="#009af9" fill-rule="evenodd" fill-opacity="1" stroke="#000000" stroke-opacity="1" stroke-width="3.2"/>
<circle clip-path="url(#clip572)" cx="745.02" cy="464.062" r="14.4" fill="#009af9" fill-rule="evenodd" fill-opacity="1" stroke="#000000" stroke-opacity="1" stroke-width="3.2"/>
<circle clip-path="url(#clip572)" cx="745.02" cy="486.562" r="14.4" fill="#009af9" fill-rule="evenodd" fill-opacity="1" stroke="#000000" stroke-opacity="1" stroke-width="3.2"/>
<circle clip-path="url(#clip572)" cx="745.02" cy="468.435" r="14.4" fill="#009af9" fill-rule="evenodd" fill-opacity="1" stroke="#000000" stroke-opacity="1" stroke-width="3.2"/>
<circle clip-path="url(#clip572)" cx="745.02" cy="162.047" r="14.4" fill="#009af9" fill-rule="evenodd" fill-opacity="1" stroke="#000000" stroke-opacity="1" stroke-width="3.2"/>
<circle clip-path="url(#clip572)" cx="745.02" cy="447.972" r="14.4" fill="#009af9" fill-rule="evenodd" fill-opacity="1" stroke="#000000" stroke-opacity="1" stroke-width="3.2"/>
<circle clip-path="url(#clip572)" cx="745.02" cy="454.496" r="14.4" fill="#009af9" fill-rule="evenodd" fill-opacity="1" stroke="#000000" stroke-opacity="1" stroke-width="3.2"/>
<circle clip-path="url(#clip572)" cx="745.02" cy="587.275" r="14.4" fill="#009af9" fill-rule="evenodd" fill-opacity="1" stroke="#000000" stroke-opacity="1" stroke-width="3.2"/>
<circle clip-path="url(#clip572)" cx="745.02" cy="543.025" r="14.4" fill="#009af9" fill-rule="evenodd" fill-opacity="1" stroke="#000000" stroke-opacity="1" stroke-width="3.2"/>
<circle clip-path="url(#clip572)" cx="745.02" cy="394.553" r="14.4" fill="#009af9" fill-rule="evenodd" fill-opacity="1" stroke="#000000" stroke-opacity="1" stroke-width="3.2"/>
<circle clip-path="url(#clip572)" cx="745.02" cy="414.96" r="14.4" fill="#009af9" fill-rule="evenodd" fill-opacity="1" stroke="#000000" stroke-opacity="1" stroke-width="3.2"/>
<circle clip-path="url(#clip572)" cx="745.02" cy="511.494" r="14.4" fill="#009af9" fill-rule="evenodd" fill-opacity="1" stroke="#000000" stroke-opacity="1" stroke-width="3.2"/>
<circle clip-path="url(#clip572)" cx="745.02" cy="490.238" r="14.4" fill="#009af9" fill-rule="evenodd" fill-opacity="1" stroke="#000000" stroke-opacity="1" stroke-width="3.2"/>
<circle clip-path="url(#clip572)" cx="745.02" cy="526.74" r="14.4" fill="#009af9" fill-rule="evenodd" fill-opacity="1" stroke="#000000" stroke-opacity="1" stroke-width="3.2"/>
<circle clip-path="url(#clip572)" cx="745.02" cy="601.633" r="14.4" fill="#009af9" fill-rule="evenodd" fill-opacity="1" stroke="#000000" stroke-opacity="1" stroke-width="3.2"/>
<circle clip-path="url(#clip572)" cx="745.02" cy="563.281" r="14.4" fill="#009af9" fill-rule="evenodd" fill-opacity="1" stroke="#000000" stroke-opacity="1" stroke-width="3.2"/>
<circle clip-path="url(#clip572)" cx="745.02" cy="600.551" r="14.4" fill="#009af9" fill-rule="evenodd" fill-opacity="1" stroke="#000000" stroke-opacity="1" stroke-width="3.2"/>
<circle clip-path="url(#clip572)" cx="745.02" cy="1348.42" r="14.4" fill="#009af9" fill-rule="evenodd" fill-opacity="1" stroke="#000000" stroke-opacity="1" stroke-width="3.2"/>
<circle clip-path="url(#clip572)" cx="745.02" cy="502.938" r="14.4" fill="#009af9" fill-rule="evenodd" fill-opacity="1" stroke="#000000" stroke-opacity="1" stroke-width="3.2"/>
<circle clip-path="url(#clip572)" cx="745.02" cy="602.063" r="14.4" fill="#009af9" fill-rule="evenodd" fill-opacity="1" stroke="#000000" stroke-opacity="1" stroke-width="3.2"/>
<circle clip-path="url(#clip572)" cx="745.02" cy="538.274" r="14.4" fill="#009af9" fill-rule="evenodd" fill-opacity="1" stroke="#000000" stroke-opacity="1" stroke-width="3.2"/>
<circle clip-path="url(#clip572)" cx="745.02" cy="530.747" r="14.4" fill="#009af9" fill-rule="evenodd" fill-opacity="1" stroke="#000000" stroke-opacity="1" stroke-width="3.2"/>
<polyline clip-path="url(#clip572)" style="stroke:#009af9; stroke-linecap:round; stroke-linejoin:round; stroke-width:0; stroke-opacity:1; fill:none" points="
  745.02,1281.21 523.873,1281.21 966.167,1281.21 745.02,1281.21 745.02,1051.02 
  "/>
<polyline clip-path="url(#clip572)" style="stroke:#009af9; stroke-linecap:round; stroke-linejoin:round; stroke-width:0; stroke-opacity:1; fill:none" points="
  1187.31,1051.02 1187.31,984.474 302.727,984.474 302.727,1051.02 1187.31,1051.02 1187.31,984.474 
  "/>
<polyline clip-path="url(#clip572)" style="stroke:#009af9; stroke-linecap:round; stroke-linejoin:round; stroke-width:0; stroke-opacity:1; fill:none" points="
  1187.31,872.111 302.727,872.111 302.727,984.474 1187.31,984.474 1187.31,872.111 745.02,872.111 
  "/>
<polyline clip-path="url(#clip572)" style="stroke:#009af9; stroke-linecap:round; stroke-linejoin:round; stroke-width:0; stroke-opacity:1; fill:none" points="
  745.02,609.628 523.873,609.628 966.167,609.628 745.02,609.628 745.02,872.111 
  "/>
<path clip-path="url(#clip572)" d="
M1850.75 1243.87 L1629.61 1243.87 L2071.9 1243.87 L1850.75 1243.87 L1850.75 1081.67 L1850.75 1243.87  Z
  " fill="#e26f46" fill-rule="evenodd" fill-opacity="1"/>
<polyline clip-path="url(#clip572)" style="stroke:#000000; stroke-linecap:round; stroke-linejoin:round; stroke-width:4; stroke-opacity:1; fill:none" points="
  1850.75,1243.87 1629.61,1243.87 2071.9,1243.87 1850.75,1243.87 1850.75,1081.67 1850.75,1243.87 
  "/>
<path clip-path="url(#clip572)" d="
M2293.05 1081.67 L2293.05 1034.59 L1408.46 1034.59 L1408.46 1081.67 L2293.05 1081.67 L2293.05 1034.59 L2293.05 1081.67  Z
  " fill="#e26f46" fill-rule="evenodd" fill-opacity="1"/>
<polyline clip-path="url(#clip572)" style="stroke:#000000; stroke-linecap:round; stroke-linejoin:round; stroke-width:4; stroke-opacity:1; fill:none" points="
  2293.05,1081.67 2293.05,1034.59 1408.46,1034.59 1408.46,1081.67 2293.05,1081.67 2293.05,1034.59 2293.05,1081.67 
  "/>
<path clip-path="url(#clip572)" d="
M2293.05 970.767 L1408.46 970.767 L1408.46 1034.59 L2293.05 1034.59 L2293.05 970.767 L1850.75 970.767 L2293.05 970.767  Z
  " fill="#e26f46" fill-rule="evenodd" fill-opacity="1"/>
<polyline clip-path="url(#clip572)" style="stroke:#000000; stroke-linecap:round; stroke-linejoin:round; stroke-width:4; stroke-opacity:1; fill:none" points="
  2293.05,970.767 1408.46,970.767 1408.46,1034.59 2293.05,1034.59 2293.05,970.767 1850.75,970.767 2293.05,970.767 
  "/>
<path clip-path="url(#clip572)" d="
M1850.75 810.264 L1629.61 810.264 L2071.9 810.264 L1850.75 810.264 L1850.75 970.767 L1850.75 810.264  Z
  " fill="#e26f46" fill-rule="evenodd" fill-opacity="1"/>
<polyline clip-path="url(#clip572)" style="stroke:#000000; stroke-linecap:round; stroke-linejoin:round; stroke-width:4; stroke-opacity:1; fill:none" points="
  1850.75,810.264 1629.61,810.264 2071.9,810.264 1850.75,810.264 1850.75,970.767 1850.75,810.264 
  "/>
<circle clip-path="url(#clip572)" cx="1850.75" cy="1371.43" r="14.4" fill="#e26f46" fill-rule="evenodd" fill-opacity="1" stroke="#000000" stroke-opacity="1" stroke-width="3.2"/>
<circle clip-path="url(#clip572)" cx="1850.75" cy="754.625" r="14.4" fill="#e26f46" fill-rule="evenodd" fill-opacity="1" stroke="#000000" stroke-opacity="1" stroke-width="3.2"/>
<circle clip-path="url(#clip572)" cx="1850.75" cy="801.624" r="14.4" fill="#e26f46" fill-rule="evenodd" fill-opacity="1" stroke="#000000" stroke-opacity="1" stroke-width="3.2"/>
<circle clip-path="url(#clip572)" cx="1850.75" cy="1269.3" r="14.4" fill="#e26f46" fill-rule="evenodd" fill-opacity="1" stroke="#000000" stroke-opacity="1" stroke-width="3.2"/>
<circle clip-path="url(#clip572)" cx="1850.75" cy="767.709" r="14.4" fill="#e26f46" fill-rule="evenodd" fill-opacity="1" stroke="#000000" stroke-opacity="1" stroke-width="3.2"/>
<circle clip-path="url(#clip572)" cx="1850.75" cy="562.657" r="14.4" fill="#e26f46" fill-rule="evenodd" fill-opacity="1" stroke="#000000" stroke-opacity="1" stroke-width="3.2"/>
<circle clip-path="url(#clip572)" cx="1850.75" cy="1362.66" r="14.4" fill="#e26f46" fill-rule="evenodd" fill-opacity="1" stroke="#000000" stroke-opacity="1" stroke-width="3.2"/>
<circle clip-path="url(#clip572)" cx="1850.75" cy="1290.69" r="14.4" fill="#e26f46" fill-rule="evenodd" fill-opacity="1" stroke="#000000" stroke-opacity="1" stroke-width="3.2"/>
<circle clip-path="url(#clip572)" cx="1850.75" cy="1291.65" r="14.4" fill="#e26f46" fill-rule="evenodd" fill-opacity="1" stroke="#000000" stroke-opacity="1" stroke-width="3.2"/>
<circle clip-path="url(#clip572)" cx="1850.75" cy="1302.85" r="14.4" fill="#e26f46" fill-rule="evenodd" fill-opacity="1" stroke="#000000" stroke-opacity="1" stroke-width="3.2"/>
<circle clip-path="url(#clip572)" cx="1850.75" cy="1447.87" r="14.4" fill="#e26f46" fill-rule="evenodd" fill-opacity="1" stroke="#000000" stroke-opacity="1" stroke-width="3.2"/>
<circle clip-path="url(#clip572)" cx="1850.75" cy="794.731" r="14.4" fill="#e26f46" fill-rule="evenodd" fill-opacity="1" stroke="#000000" stroke-opacity="1" stroke-width="3.2"/>
<circle clip-path="url(#clip572)" cx="1850.75" cy="756.099" r="14.4" fill="#e26f46" fill-rule="evenodd" fill-opacity="1" stroke="#000000" stroke-opacity="1" stroke-width="3.2"/>
<circle clip-path="url(#clip572)" cx="1850.75" cy="657.217" r="14.4" fill="#e26f46" fill-rule="evenodd" fill-opacity="1" stroke="#000000" stroke-opacity="1" stroke-width="3.2"/>
<circle clip-path="url(#clip572)" cx="1850.75" cy="713.212" r="14.4" fill="#e26f46" fill-rule="evenodd" fill-opacity="1" stroke="#000000" stroke-opacity="1" stroke-width="3.2"/>
<circle clip-path="url(#clip572)" cx="1850.75" cy="774.913" r="14.4" fill="#e26f46" fill-rule="evenodd" fill-opacity="1" stroke="#000000" stroke-opacity="1" stroke-width="3.2"/>
<circle clip-path="url(#clip572)" cx="1850.75" cy="1336.7" r="14.4" fill="#e26f46" fill-rule="evenodd" fill-opacity="1" stroke="#000000" stroke-opacity="1" stroke-width="3.2"/>
<circle clip-path="url(#clip572)" cx="1850.75" cy="1251.16" r="14.4" fill="#e26f46" fill-rule="evenodd" fill-opacity="1" stroke="#000000" stroke-opacity="1" stroke-width="3.2"/>
<circle clip-path="url(#clip572)" cx="1850.75" cy="580.267" r="14.4" fill="#e26f46" fill-rule="evenodd" fill-opacity="1" stroke="#000000" stroke-opacity="1" stroke-width="3.2"/>
<circle clip-path="url(#clip572)" cx="1850.75" cy="577.142" r="14.4" fill="#e26f46" fill-rule="evenodd" fill-opacity="1" stroke="#000000" stroke-opacity="1" stroke-width="3.2"/>
<circle clip-path="url(#clip572)" cx="1850.75" cy="721.182" r="14.4" fill="#e26f46" fill-rule="evenodd" fill-opacity="1" stroke="#000000" stroke-opacity="1" stroke-width="3.2"/>
<circle clip-path="url(#clip572)" cx="1850.75" cy="1306.01" r="14.4" fill="#e26f46" fill-rule="evenodd" fill-opacity="1" stroke="#000000" stroke-opacity="1" stroke-width="3.2"/>
<circle clip-path="url(#clip572)" cx="1850.75" cy="1282.96" r="14.4" fill="#e26f46" fill-rule="evenodd" fill-opacity="1" stroke="#000000" stroke-opacity="1" stroke-width="3.2"/>
<circle clip-path="url(#clip572)" cx="1850.75" cy="784.256" r="14.4" fill="#e26f46" fill-rule="evenodd" fill-opacity="1" stroke="#000000" stroke-opacity="1" stroke-width="3.2"/>
<circle clip-path="url(#clip572)" cx="1850.75" cy="1310.25" r="14.4" fill="#e26f46" fill-rule="evenodd" fill-opacity="1" stroke="#000000" stroke-opacity="1" stroke-width="3.2"/>
<circle clip-path="url(#clip572)" cx="1850.75" cy="1281.27" r="14.4" fill="#e26f46" fill-rule="evenodd" fill-opacity="1" stroke="#000000" stroke-opacity="1" stroke-width="3.2"/>
<circle clip-path="url(#clip572)" cx="1850.75" cy="561.677" r="14.4" fill="#e26f46" fill-rule="evenodd" fill-opacity="1" stroke="#000000" stroke-opacity="1" stroke-width="3.2"/>
<circle clip-path="url(#clip572)" cx="1850.75" cy="1275.25" r="14.4" fill="#e26f46" fill-rule="evenodd" fill-opacity="1" stroke="#000000" stroke-opacity="1" stroke-width="3.2"/>
<circle clip-path="url(#clip572)" cx="1850.75" cy="1445.42" r="14.4" fill="#e26f46" fill-rule="evenodd" fill-opacity="1" stroke="#000000" stroke-opacity="1" stroke-width="3.2"/>
<circle clip-path="url(#clip572)" cx="1850.75" cy="747.588" r="14.4" fill="#e26f46" fill-rule="evenodd" fill-opacity="1" stroke="#000000" stroke-opacity="1" stroke-width="3.2"/>
<circle clip-path="url(#clip572)" cx="1850.75" cy="553.592" r="14.4" fill="#e26f46" fill-rule="evenodd" fill-opacity="1" stroke="#000000" stroke-opacity="1" stroke-width="3.2"/>
<circle clip-path="url(#clip572)" cx="1850.75" cy="676.254" r="14.4" fill="#e26f46" fill-rule="evenodd" fill-opacity="1" stroke="#000000" stroke-opacity="1" stroke-width="3.2"/>
<circle clip-path="url(#clip572)" cx="1850.75" cy="1332.62" r="14.4" fill="#e26f46" fill-rule="evenodd" fill-opacity="1" stroke="#000000" stroke-opacity="1" stroke-width="3.2"/>
<circle clip-path="url(#clip572)" cx="1850.75" cy="623.747" r="14.4" fill="#e26f46" fill-rule="evenodd" fill-opacity="1" stroke="#000000" stroke-opacity="1" stroke-width="3.2"/>
<circle clip-path="url(#clip572)" cx="1850.75" cy="1363.96" r="14.4" fill="#e26f46" fill-rule="evenodd" fill-opacity="1" stroke="#000000" stroke-opacity="1" stroke-width="3.2"/>
<circle clip-path="url(#clip572)" cx="1850.75" cy="683.122" r="14.4" fill="#e26f46" fill-rule="evenodd" fill-opacity="1" stroke="#000000" stroke-opacity="1" stroke-width="3.2"/>
<circle clip-path="url(#clip572)" cx="1850.75" cy="675.808" r="14.4" fill="#e26f46" fill-rule="evenodd" fill-opacity="1" stroke="#000000" stroke-opacity="1" stroke-width="3.2"/>
<circle clip-path="url(#clip572)" cx="1850.75" cy="733.78" r="14.4" fill="#e26f46" fill-rule="evenodd" fill-opacity="1" stroke="#000000" stroke-opacity="1" stroke-width="3.2"/>
<circle clip-path="url(#clip572)" cx="1850.75" cy="719.884" r="14.4" fill="#e26f46" fill-rule="evenodd" fill-opacity="1" stroke="#000000" stroke-opacity="1" stroke-width="3.2"/>
<circle clip-path="url(#clip572)" cx="1850.75" cy="1411.87" r="14.4" fill="#e26f46" fill-rule="evenodd" fill-opacity="1" stroke="#000000" stroke-opacity="1" stroke-width="3.2"/>
<circle clip-path="url(#clip572)" cx="1850.75" cy="451.848" r="14.4" fill="#e26f46" fill-rule="evenodd" fill-opacity="1" stroke="#000000" stroke-opacity="1" stroke-width="3.2"/>
<circle clip-path="url(#clip572)" cx="1850.75" cy="784.324" r="14.4" fill="#e26f46" fill-rule="evenodd" fill-opacity="1" stroke="#000000" stroke-opacity="1" stroke-width="3.2"/>
<polyline clip-path="url(#clip572)" style="stroke:#e26f46; stroke-linecap:round; stroke-linejoin:round; stroke-width:0; stroke-opacity:1; fill:none" points="
  1850.75,1243.87 1629.61,1243.87 2071.9,1243.87 1850.75,1243.87 1850.75,1081.67 
  "/>
<polyline clip-path="url(#clip572)" style="stroke:#e26f46; stroke-linecap:round; stroke-linejoin:round; stroke-width:0; stroke-opacity:1; fill:none" points="
  2293.05,1081.67 2293.05,1034.59 1408.46,1034.59 1408.46,1081.67 2293.05,1081.67 2293.05,1034.59 
  "/>
<polyline clip-path="url(#clip572)" style="stroke:#e26f46; stroke-linecap:round; stroke-linejoin:round; stroke-width:0; stroke-opacity:1; fill:none" points="
  2293.05,970.767 1408.46,970.767 1408.46,1034.59 2293.05,1034.59 2293.05,970.767 1850.75,970.767 
  "/>
<polyline clip-path="url(#clip572)" style="stroke:#e26f46; stroke-linecap:round; stroke-linejoin:round; stroke-width:0; stroke-opacity:1; fill:none" points="
  1850.75,810.264 1629.61,810.264 2071.9,810.264 1850.75,810.264 1850.75,970.767 
  "/>
</svg>
