<?xml version="1.0" encoding="utf-8"?>
<svg xmlns="http://www.w3.org/2000/svg" xmlns:xlink="http://www.w3.org/1999/xlink" width="600" height="400" viewBox="0 0 2400 1600">
<defs>
  <clipPath id="clip180">
    <rect x="0" y="0" width="2400" height="1600"/>
  </clipPath>
</defs>
<path clip-path="url(#clip180)" d="
M0 1600 L2400 1600 L2400 0 L0 0  Z
  " fill="#ffffff" fill-rule="evenodd" fill-opacity="1"/>
<defs>
  <clipPath id="clip181">
    <rect x="480" y="0" width="1681" height="1600"/>
  </clipPath>
</defs>
<path clip-path="url(#clip180)" d="
M244.73 1486.45 L2352.76 1486.45 L2352.76 123.472 L244.73 123.472  Z
  " fill="#ffffff" fill-rule="evenodd" fill-opacity="1"/>
<defs>
  <clipPath id="clip182">
    <rect x="244" y="123" width="2109" height="1364"/>
  </clipPath>
</defs>
<polyline clip-path="url(#clip182)" style="stroke:#000000; stroke-linecap:round; stroke-linejoin:round; stroke-width:2; stroke-opacity:0.1; fill:none" points="
  746.325,1486.45 746.325,123.472 
  "/>
<polyline clip-path="url(#clip182)" style="stroke:#000000; stroke-linecap:round; stroke-linejoin:round; stroke-width:2; stroke-opacity:0.1; fill:none" points="
  1851.16,1486.45 1851.16,123.472 
  "/>
<polyline clip-path="url(#clip180)" style="stroke:#000000; stroke-linecap:round; stroke-linejoin:round; stroke-width:4; stroke-opacity:1; fill:none" points="
  244.73,1486.45 2352.76,1486.45 
  "/>
<polyline clip-path="url(#clip180)" style="stroke:#000000; stroke-linecap:round; stroke-linejoin:round; stroke-width:4; stroke-opacity:1; fill:none" points="
  746.325,1486.45 746.325,1467.55 
  "/>
<polyline clip-path="url(#clip180)" style="stroke:#000000; stroke-linecap:round; stroke-linejoin:round; stroke-width:4; stroke-opacity:1; fill:none" points="
  1851.16,1486.45 1851.16,1467.55 
  "/>
<path clip-path="url(#clip180)" d="M608.352 1514.29 L614.648 1514.29 L629.972 1543.2 L629.972 1514.29 L634.509 1514.29 L634.509 1548.85 L628.213 1548.85 L612.889 1519.94 L612.889 1548.85 L608.352 1548.85 L608.352 1514.29 Z" fill="#000000" fill-rule="evenodd" fill-opacity="1" /><path clip-path="url(#clip180)" d="M653.675 1525.91 Q650.249 1525.91 648.259 1528.59 Q646.268 1531.26 646.268 1535.91 Q646.268 1540.56 648.236 1543.25 Q650.226 1545.91 653.675 1545.91 Q657.078 1545.91 659.069 1543.22 Q661.06 1540.54 661.06 1535.91 Q661.06 1531.3 659.069 1528.62 Q657.078 1525.91 653.675 1525.91 M653.675 1522.3 Q659.231 1522.3 662.402 1525.91 Q665.573 1529.52 665.573 1535.91 Q665.573 1542.27 662.402 1545.91 Q659.231 1549.52 653.675 1549.52 Q648.097 1549.52 644.925 1545.91 Q641.777 1542.27 641.777 1535.91 Q641.777 1529.52 644.925 1525.91 Q648.097 1522.3 653.675 1522.3 Z" fill="#000000" fill-rule="evenodd" fill-opacity="1" /><path clip-path="url(#clip180)" d="M702.726 1526.9 Q702.008 1526.49 701.152 1526.3 Q700.319 1526.09 699.3 1526.09 Q695.689 1526.09 693.745 1528.45 Q691.823 1530.79 691.823 1535.19 L691.823 1548.85 L687.541 1548.85 L687.541 1522.92 L691.823 1522.92 L691.823 1526.95 Q693.166 1524.59 695.319 1523.45 Q697.471 1522.3 700.55 1522.3 Q700.99 1522.3 701.522 1522.37 Q702.055 1522.41 702.703 1522.53 L702.726 1526.9 Z" fill="#000000" fill-rule="evenodd" fill-opacity="1" /><path clip-path="url(#clip180)" d="M728.328 1534.82 L728.328 1536.9 L708.745 1536.9 Q709.022 1541.3 711.383 1543.62 Q713.768 1545.91 718.004 1545.91 Q720.457 1545.91 722.749 1545.31 Q725.064 1544.7 727.332 1543.5 L727.332 1547.53 Q725.041 1548.5 722.633 1549.01 Q720.226 1549.52 717.749 1549.52 Q711.545 1549.52 707.911 1545.91 Q704.3 1542.3 704.3 1536.14 Q704.3 1529.77 707.726 1526.05 Q711.175 1522.3 717.008 1522.3 Q722.24 1522.3 725.272 1525.68 Q728.328 1529.03 728.328 1534.82 M724.069 1533.57 Q724.022 1530.07 722.101 1527.99 Q720.203 1525.91 717.055 1525.91 Q713.49 1525.91 711.337 1527.92 Q709.208 1529.94 708.883 1533.59 L724.069 1533.57 Z" fill="#000000" fill-rule="evenodd" fill-opacity="1" /><path clip-path="url(#clip180)" d="M751.846 1523.69 L751.846 1527.71 Q750.041 1526.79 748.096 1526.32 Q746.152 1525.86 744.068 1525.86 Q740.897 1525.86 739.3 1526.83 Q737.726 1527.81 737.726 1529.75 Q737.726 1531.23 738.86 1532.09 Q739.994 1532.92 743.42 1533.69 L744.879 1534.01 Q749.416 1534.98 751.314 1536.76 Q753.235 1538.52 753.235 1541.7 Q753.235 1545.31 750.365 1547.41 Q747.517 1549.52 742.518 1549.52 Q740.434 1549.52 738.166 1549.1 Q735.92 1548.71 733.42 1547.9 L733.42 1543.5 Q735.781 1544.73 738.073 1545.35 Q740.365 1545.95 742.61 1545.95 Q745.619 1545.95 747.24 1544.94 Q748.86 1543.89 748.86 1542.02 Q748.86 1540.28 747.68 1539.36 Q746.522 1538.43 742.564 1537.57 L741.082 1537.23 Q737.124 1536.39 735.365 1534.68 Q733.606 1532.95 733.606 1529.94 Q733.606 1526.28 736.198 1524.29 Q738.791 1522.3 743.559 1522.3 Q745.92 1522.3 748.004 1522.64 Q750.087 1522.99 751.846 1523.69 Z" fill="#000000" fill-rule="evenodd" fill-opacity="1" /><path clip-path="url(#clip180)" d="M782.193 1534.82 L782.193 1536.9 L762.61 1536.9 Q762.888 1541.3 765.249 1543.62 Q767.633 1545.91 771.869 1545.91 Q774.323 1545.91 776.615 1545.31 Q778.929 1544.7 781.198 1543.5 L781.198 1547.53 Q778.906 1548.5 776.499 1549.01 Q774.091 1549.52 771.615 1549.52 Q765.411 1549.52 761.777 1545.91 Q758.166 1542.3 758.166 1536.14 Q758.166 1529.77 761.591 1526.05 Q765.041 1522.3 770.874 1522.3 Q776.105 1522.3 779.138 1525.68 Q782.193 1529.03 782.193 1534.82 M777.934 1533.57 Q777.888 1530.07 775.966 1527.99 Q774.068 1525.91 770.92 1525.91 Q767.355 1525.91 765.203 1527.92 Q763.073 1529.94 762.749 1533.59 L777.934 1533.57 Z" fill="#000000" fill-rule="evenodd" fill-opacity="1" /><path clip-path="url(#clip180)" d="M800.966 1535.82 Q795.804 1535.82 793.814 1537 Q791.823 1538.18 791.823 1541.02 Q791.823 1543.29 793.304 1544.63 Q794.809 1545.95 797.378 1545.95 Q800.92 1545.95 803.05 1543.45 Q805.202 1540.93 805.202 1536.76 L805.202 1535.82 L800.966 1535.82 M809.462 1534.06 L809.462 1548.85 L805.202 1548.85 L805.202 1544.91 Q803.744 1547.27 801.568 1548.41 Q799.392 1549.52 796.244 1549.52 Q792.263 1549.52 789.902 1547.3 Q787.564 1545.05 787.564 1541.3 Q787.564 1536.93 790.48 1534.7 Q793.42 1532.48 799.23 1532.48 L805.202 1532.48 L805.202 1532.07 Q805.202 1529.13 803.258 1527.53 Q801.337 1525.91 797.841 1525.91 Q795.619 1525.91 793.513 1526.44 Q791.406 1526.97 789.462 1528.04 L789.462 1524.1 Q791.8 1523.2 793.999 1522.76 Q796.198 1522.3 798.281 1522.3 Q803.906 1522.3 806.684 1525.21 Q809.462 1528.13 809.462 1534.06 Z" fill="#000000" fill-rule="evenodd" fill-opacity="1" /><path clip-path="url(#clip180)" d="M833.258 1526.9 Q832.54 1526.49 831.684 1526.3 Q830.85 1526.09 829.832 1526.09 Q826.221 1526.09 824.276 1528.45 Q822.355 1530.79 822.355 1535.19 L822.355 1548.85 L818.073 1548.85 L818.073 1522.92 L822.355 1522.92 L822.355 1526.95 Q823.698 1524.59 825.85 1523.45 Q828.003 1522.3 831.082 1522.3 Q831.522 1522.3 832.054 1522.37 Q832.586 1522.41 833.235 1522.53 L833.258 1526.9 Z" fill="#000000" fill-rule="evenodd" fill-opacity="1" /><path clip-path="url(#clip180)" d="M855.341 1523.92 L855.341 1527.9 Q853.535 1526.9 851.707 1526.42 Q849.901 1525.91 848.049 1525.91 Q843.906 1525.91 841.614 1528.55 Q839.323 1531.16 839.323 1535.91 Q839.323 1540.65 841.614 1543.29 Q843.906 1545.91 848.049 1545.91 Q849.901 1545.91 851.707 1545.42 Q853.535 1544.91 855.341 1543.92 L855.341 1547.85 Q853.559 1548.69 851.637 1549.1 Q849.739 1549.52 847.586 1549.52 Q841.73 1549.52 838.281 1545.84 Q834.832 1542.16 834.832 1535.91 Q834.832 1529.57 838.304 1525.93 Q841.799 1522.3 847.864 1522.3 Q849.832 1522.3 851.707 1522.71 Q853.582 1523.11 855.341 1523.92 Z" fill="#000000" fill-rule="evenodd" fill-opacity="1" /><path clip-path="url(#clip180)" d="M884.299 1533.2 L884.299 1548.85 L880.04 1548.85 L880.04 1533.34 Q880.04 1529.66 878.605 1527.83 Q877.17 1526 874.299 1526 Q870.85 1526 868.859 1528.2 Q866.869 1530.4 866.869 1534.2 L866.869 1548.85 L862.586 1548.85 L862.586 1512.83 L866.869 1512.83 L866.869 1526.95 Q868.396 1524.61 870.457 1523.45 Q872.54 1522.3 875.248 1522.3 Q879.716 1522.3 882.008 1525.07 Q884.299 1527.83 884.299 1533.2 Z" fill="#000000" fill-rule="evenodd" fill-opacity="1" /><path clip-path="url(#clip180)" d="M1763.16 1532.64 Q1764.67 1533.15 1766.08 1534.82 Q1767.52 1536.49 1768.95 1539.4 L1773.7 1548.85 L1768.67 1548.85 L1764.25 1539.98 Q1762.54 1536.51 1760.92 1535.38 Q1759.32 1534.24 1756.54 1534.24 L1751.45 1534.24 L1751.45 1548.85 L1746.77 1548.85 L1746.77 1514.29 L1757.33 1514.29 Q1763.26 1514.29 1766.17 1516.76 Q1769.09 1519.24 1769.09 1524.24 Q1769.09 1527.51 1767.56 1529.66 Q1766.06 1531.81 1763.16 1532.64 M1751.45 1518.13 L1751.45 1530.4 L1757.33 1530.4 Q1760.71 1530.4 1762.42 1528.85 Q1764.16 1527.27 1764.16 1524.24 Q1764.16 1521.21 1762.42 1519.68 Q1760.71 1518.13 1757.33 1518.13 L1751.45 1518.13 Z" fill="#000000" fill-rule="evenodd" fill-opacity="1" /><path clip-path="url(#clip180)" d="M1799.58 1534.82 L1799.58 1536.9 L1779.99 1536.9 Q1780.27 1541.3 1782.63 1543.62 Q1785.02 1545.91 1789.25 1545.91 Q1791.7 1545.91 1794 1545.31 Q1796.31 1544.7 1798.58 1543.5 L1798.58 1547.53 Q1796.29 1548.5 1793.88 1549.01 Q1791.47 1549.52 1789 1549.52 Q1782.79 1549.52 1779.16 1545.91 Q1775.55 1542.3 1775.55 1536.14 Q1775.55 1529.77 1778.97 1526.05 Q1782.42 1522.3 1788.26 1522.3 Q1793.49 1522.3 1796.52 1525.68 Q1799.58 1529.03 1799.58 1534.82 M1795.32 1533.57 Q1795.27 1530.07 1793.35 1527.99 Q1791.45 1525.91 1788.3 1525.91 Q1784.74 1525.91 1782.58 1527.92 Q1780.46 1529.94 1780.13 1533.59 L1795.32 1533.57 Z" fill="#000000" fill-rule="evenodd" fill-opacity="1" /><path clip-path="url(#clip180)" d="M1823.09 1523.69 L1823.09 1527.71 Q1821.29 1526.79 1819.34 1526.32 Q1817.4 1525.86 1815.32 1525.86 Q1812.14 1525.86 1810.55 1526.83 Q1808.97 1527.81 1808.97 1529.75 Q1808.97 1531.23 1810.11 1532.09 Q1811.24 1532.92 1814.67 1533.69 L1816.13 1534.01 Q1820.66 1534.98 1822.56 1536.76 Q1824.48 1538.52 1824.48 1541.7 Q1824.48 1545.31 1821.61 1547.41 Q1818.77 1549.52 1813.77 1549.52 Q1811.68 1549.52 1809.41 1549.1 Q1807.17 1548.71 1804.67 1547.9 L1804.67 1543.5 Q1807.03 1544.73 1809.32 1545.35 Q1811.61 1545.95 1813.86 1545.95 Q1816.87 1545.95 1818.49 1544.94 Q1820.11 1543.89 1820.11 1542.02 Q1820.11 1540.28 1818.93 1539.36 Q1817.77 1538.43 1813.81 1537.57 L1812.33 1537.23 Q1808.37 1536.39 1806.61 1534.68 Q1804.85 1532.95 1804.85 1529.94 Q1804.85 1526.28 1807.45 1524.29 Q1810.04 1522.3 1814.81 1522.3 Q1817.17 1522.3 1819.25 1522.64 Q1821.33 1522.99 1823.09 1523.69 Z" fill="#000000" fill-rule="evenodd" fill-opacity="1" /><path clip-path="url(#clip180)" d="M1853.44 1534.82 L1853.44 1536.9 L1833.86 1536.9 Q1834.14 1541.3 1836.5 1543.62 Q1838.88 1545.91 1843.12 1545.91 Q1845.57 1545.91 1847.86 1545.31 Q1850.18 1544.7 1852.45 1543.5 L1852.45 1547.53 Q1850.15 1548.5 1847.75 1549.01 Q1845.34 1549.52 1842.86 1549.52 Q1836.66 1549.52 1833.02 1545.91 Q1829.41 1542.3 1829.41 1536.14 Q1829.41 1529.77 1832.84 1526.05 Q1836.29 1522.3 1842.12 1522.3 Q1847.35 1522.3 1850.39 1525.68 Q1853.44 1529.03 1853.44 1534.82 M1849.18 1533.57 Q1849.14 1530.07 1847.21 1527.99 Q1845.32 1525.91 1842.17 1525.91 Q1838.6 1525.91 1836.45 1527.92 Q1834.32 1529.94 1834 1533.59 L1849.18 1533.57 Z" fill="#000000" fill-rule="evenodd" fill-opacity="1" /><path clip-path="url(#clip180)" d="M1872.21 1535.82 Q1867.05 1535.82 1865.06 1537 Q1863.07 1538.18 1863.07 1541.02 Q1863.07 1543.29 1864.55 1544.63 Q1866.06 1545.95 1868.63 1545.95 Q1872.17 1545.95 1874.3 1543.45 Q1876.45 1540.93 1876.45 1536.76 L1876.45 1535.82 L1872.21 1535.82 M1880.71 1534.06 L1880.71 1548.85 L1876.45 1548.85 L1876.45 1544.91 Q1874.99 1547.27 1872.82 1548.41 Q1870.64 1549.52 1867.49 1549.52 Q1863.51 1549.52 1861.15 1547.3 Q1858.81 1545.05 1858.81 1541.3 Q1858.81 1536.93 1861.73 1534.7 Q1864.67 1532.48 1870.48 1532.48 L1876.45 1532.48 L1876.45 1532.07 Q1876.45 1529.13 1874.51 1527.53 Q1872.58 1525.91 1869.09 1525.91 Q1866.87 1525.91 1864.76 1526.44 Q1862.65 1526.97 1860.71 1528.04 L1860.71 1524.1 Q1863.05 1523.2 1865.25 1522.76 Q1867.45 1522.3 1869.53 1522.3 Q1875.15 1522.3 1877.93 1525.21 Q1880.71 1528.13 1880.71 1534.06 Z" fill="#000000" fill-rule="evenodd" fill-opacity="1" /><path clip-path="url(#clip180)" d="M1904.51 1526.9 Q1903.79 1526.49 1902.93 1526.3 Q1902.1 1526.09 1901.08 1526.09 Q1897.47 1526.09 1895.52 1528.45 Q1893.6 1530.79 1893.6 1535.19 L1893.6 1548.85 L1889.32 1548.85 L1889.32 1522.92 L1893.6 1522.92 L1893.6 1526.95 Q1894.95 1524.59 1897.1 1523.45 Q1899.25 1522.3 1902.33 1522.3 Q1902.77 1522.3 1903.3 1522.37 Q1903.83 1522.41 1904.48 1522.53 L1904.51 1526.9 Z" fill="#000000" fill-rule="evenodd" fill-opacity="1" /><path clip-path="url(#clip180)" d="M1926.59 1523.92 L1926.59 1527.9 Q1924.78 1526.9 1922.95 1526.42 Q1921.15 1525.91 1919.3 1525.91 Q1915.15 1525.91 1912.86 1528.55 Q1910.57 1531.16 1910.57 1535.91 Q1910.57 1540.65 1912.86 1543.29 Q1915.15 1545.91 1919.3 1545.91 Q1921.15 1545.91 1922.95 1545.42 Q1924.78 1544.91 1926.59 1543.92 L1926.59 1547.85 Q1924.81 1548.69 1922.88 1549.1 Q1920.99 1549.52 1918.83 1549.52 Q1912.98 1549.52 1909.53 1545.84 Q1906.08 1542.16 1906.08 1535.91 Q1906.08 1529.57 1909.55 1525.93 Q1913.05 1522.3 1919.11 1522.3 Q1921.08 1522.3 1922.95 1522.71 Q1924.83 1523.11 1926.59 1523.92 Z" fill="#000000" fill-rule="evenodd" fill-opacity="1" /><path clip-path="url(#clip180)" d="M1955.55 1533.2 L1955.55 1548.85 L1951.29 1548.85 L1951.29 1533.34 Q1951.29 1529.66 1949.85 1527.83 Q1948.42 1526 1945.55 1526 Q1942.1 1526 1940.11 1528.2 Q1938.12 1530.4 1938.12 1534.2 L1938.12 1548.85 L1933.83 1548.85 L1933.83 1512.83 L1938.12 1512.83 L1938.12 1526.95 Q1939.64 1524.61 1941.7 1523.45 Q1943.79 1522.3 1946.5 1522.3 Q1950.96 1522.3 1953.26 1525.07 Q1955.55 1527.83 1955.55 1533.2 Z" fill="#000000" fill-rule="evenodd" fill-opacity="1" /><polyline clip-path="url(#clip182)" style="stroke:#000000; stroke-linecap:round; stroke-linejoin:round; stroke-width:2; stroke-opacity:0.1; fill:none" points="
  244.73,1421.11 2352.76,1421.11 
  "/>
<polyline clip-path="url(#clip182)" style="stroke:#000000; stroke-linecap:round; stroke-linejoin:round; stroke-width:2; stroke-opacity:0.1; fill:none" points="
  244.73,1142.49 2352.76,1142.49 
  "/>
<polyline clip-path="url(#clip182)" style="stroke:#000000; stroke-linecap:round; stroke-linejoin:round; stroke-width:2; stroke-opacity:0.1; fill:none" points="
  244.73,863.864 2352.76,863.864 
  "/>
<polyline clip-path="url(#clip182)" style="stroke:#000000; stroke-linecap:round; stroke-linejoin:round; stroke-width:2; stroke-opacity:0.1; fill:none" points="
  244.73,585.241 2352.76,585.241 
  "/>
<polyline clip-path="url(#clip182)" style="stroke:#000000; stroke-linecap:round; stroke-linejoin:round; stroke-width:2; stroke-opacity:0.1; fill:none" points="
  244.73,306.618 2352.76,306.618 
  "/>
<polyline clip-path="url(#clip180)" style="stroke:#000000; stroke-linecap:round; stroke-linejoin:round; stroke-width:4; stroke-opacity:1; fill:none" points="
  244.73,1486.45 244.73,123.472 
  "/>
<polyline clip-path="url(#clip180)" style="stroke:#000000; stroke-linecap:round; stroke-linejoin:round; stroke-width:4; stroke-opacity:1; fill:none" points="
  244.73,1421.11 263.628,1421.11 
  "/>
<polyline clip-path="url(#clip180)" style="stroke:#000000; stroke-linecap:round; stroke-linejoin:round; stroke-width:4; stroke-opacity:1; fill:none" points="
  244.73,1142.49 263.628,1142.49 
  "/>
<polyline clip-path="url(#clip180)" style="stroke:#000000; stroke-linecap:round; stroke-linejoin:round; stroke-width:4; stroke-opacity:1; fill:none" points="
  244.73,863.864 263.628,863.864 
  "/>
<polyline clip-path="url(#clip180)" style="stroke:#000000; stroke-linecap:round; stroke-linejoin:round; stroke-width:4; stroke-opacity:1; fill:none" points="
  244.73,585.241 263.628,585.241 
  "/>
<polyline clip-path="url(#clip180)" style="stroke:#000000; stroke-linecap:round; stroke-linejoin:round; stroke-width:4; stroke-opacity:1; fill:none" points="
  244.73,306.618 263.628,306.618 
  "/>
<path clip-path="url(#clip180)" d="M101.3 1421.56 L130.976 1421.56 L130.976 1425.5 L101.3 1425.5 L101.3 1421.56 Z" fill="#000000" fill-rule="evenodd" fill-opacity="1" /><path clip-path="url(#clip180)" d="M151.068 1406.91 Q147.457 1406.91 145.629 1410.47 Q143.823 1414.02 143.823 1421.15 Q143.823 1428.25 145.629 1431.82 Q147.457 1435.36 151.068 1435.36 Q154.703 1435.36 156.508 1431.82 Q158.337 1428.25 158.337 1421.15 Q158.337 1414.02 156.508 1410.47 Q154.703 1406.91 151.068 1406.91 M151.068 1403.21 Q156.879 1403.21 159.934 1407.81 Q163.013 1412.4 163.013 1421.15 Q163.013 1429.87 159.934 1434.48 Q156.879 1439.06 151.068 1439.06 Q145.258 1439.06 142.18 1434.48 Q139.124 1429.87 139.124 1421.15 Q139.124 1412.4 142.18 1407.81 Q145.258 1403.21 151.068 1403.21 Z" fill="#000000" fill-rule="evenodd" fill-opacity="1" /><path clip-path="url(#clip180)" d="M171.23 1432.51 L176.115 1432.51 L176.115 1438.39 L171.23 1438.39 L171.23 1432.51 Z" fill="#000000" fill-rule="evenodd" fill-opacity="1" /><path clip-path="url(#clip180)" d="M199.147 1407.9 L187.341 1426.35 L199.147 1426.35 L199.147 1407.9 M197.92 1403.83 L203.8 1403.83 L203.8 1426.35 L208.73 1426.35 L208.73 1430.24 L203.8 1430.24 L203.8 1438.39 L199.147 1438.39 L199.147 1430.24 L183.545 1430.24 L183.545 1425.73 L197.92 1403.83 Z" fill="#000000" fill-rule="evenodd" fill-opacity="1" /><path clip-path="url(#clip180)" d="M103.383 1142.94 L133.059 1142.94 L133.059 1146.87 L103.383 1146.87 L103.383 1142.94 Z" fill="#000000" fill-rule="evenodd" fill-opacity="1" /><path clip-path="url(#clip180)" d="M153.152 1128.29 Q149.541 1128.29 147.712 1131.85 Q145.906 1135.39 145.906 1142.52 Q145.906 1149.63 147.712 1153.19 Q149.541 1156.73 153.152 1156.73 Q156.786 1156.73 158.592 1153.19 Q160.42 1149.63 160.42 1142.52 Q160.42 1135.39 158.592 1131.85 Q156.786 1128.29 153.152 1128.29 M153.152 1124.58 Q158.962 1124.58 162.017 1129.19 Q165.096 1133.77 165.096 1142.52 Q165.096 1151.25 162.017 1155.86 Q158.962 1160.44 153.152 1160.44 Q147.342 1160.44 144.263 1155.86 Q141.207 1151.25 141.207 1142.52 Q141.207 1133.77 144.263 1129.19 Q147.342 1124.58 153.152 1124.58 Z" fill="#000000" fill-rule="evenodd" fill-opacity="1" /><path clip-path="url(#clip180)" d="M173.314 1153.89 L178.198 1153.89 L178.198 1159.77 L173.314 1159.77 L173.314 1153.89 Z" fill="#000000" fill-rule="evenodd" fill-opacity="1" /><path clip-path="url(#clip180)" d="M192.411 1155.83 L208.73 1155.83 L208.73 1159.77 L186.786 1159.77 L186.786 1155.83 Q189.448 1153.08 194.031 1148.45 Q198.638 1143.8 199.818 1142.45 Q202.064 1139.93 202.943 1138.19 Q203.846 1136.43 203.846 1134.74 Q203.846 1131.99 201.901 1130.25 Q199.98 1128.52 196.878 1128.52 Q194.679 1128.52 192.226 1129.28 Q189.795 1130.05 187.017 1131.6 L187.017 1126.87 Q189.841 1125.74 192.295 1125.16 Q194.749 1124.58 196.786 1124.58 Q202.156 1124.58 205.351 1127.27 Q208.545 1129.95 208.545 1134.44 Q208.545 1136.57 207.735 1138.49 Q206.948 1140.39 204.841 1142.99 Q204.263 1143.66 201.161 1146.87 Q198.059 1150.07 192.411 1155.83 Z" fill="#000000" fill-rule="evenodd" fill-opacity="1" /><path clip-path="url(#clip180)" d="M151.555 849.663 Q147.943 849.663 146.115 853.228 Q144.309 856.769 144.309 863.899 Q144.309 871.005 146.115 874.57 Q147.943 878.112 151.555 878.112 Q155.189 878.112 156.994 874.57 Q158.823 871.005 158.823 863.899 Q158.823 856.769 156.994 853.228 Q155.189 849.663 151.555 849.663 M151.555 845.959 Q157.365 845.959 160.42 850.566 Q163.499 855.149 163.499 863.899 Q163.499 872.626 160.42 877.232 Q157.365 881.815 151.555 881.815 Q145.744 881.815 142.666 877.232 Q139.61 872.626 139.61 863.899 Q139.61 855.149 142.666 850.566 Q145.744 845.959 151.555 845.959 Z" fill="#000000" fill-rule="evenodd" fill-opacity="1" /><path clip-path="url(#clip180)" d="M171.716 875.264 L176.601 875.264 L176.601 881.144 L171.716 881.144 L171.716 875.264 Z" fill="#000000" fill-rule="evenodd" fill-opacity="1" /><path clip-path="url(#clip180)" d="M196.786 849.663 Q193.175 849.663 191.346 853.228 Q189.54 856.769 189.54 863.899 Q189.54 871.005 191.346 874.57 Q193.175 878.112 196.786 878.112 Q200.42 878.112 202.226 874.57 Q204.054 871.005 204.054 863.899 Q204.054 856.769 202.226 853.228 Q200.42 849.663 196.786 849.663 M196.786 845.959 Q202.596 845.959 205.651 850.566 Q208.73 855.149 208.73 863.899 Q208.73 872.626 205.651 877.232 Q202.596 881.815 196.786 881.815 Q190.976 881.815 187.897 877.232 Q184.841 872.626 184.841 863.899 Q184.841 855.149 187.897 850.566 Q190.976 845.959 196.786 845.959 Z" fill="#000000" fill-rule="evenodd" fill-opacity="1" /><path clip-path="url(#clip180)" d="M153.152 571.039 Q149.541 571.039 147.712 574.604 Q145.906 578.146 145.906 585.276 Q145.906 592.382 147.712 595.947 Q149.541 599.488 153.152 599.488 Q156.786 599.488 158.592 595.947 Q160.42 592.382 160.42 585.276 Q160.42 578.146 158.592 574.604 Q156.786 571.039 153.152 571.039 M153.152 567.336 Q158.962 567.336 162.017 571.942 Q165.096 576.526 165.096 585.276 Q165.096 594.002 162.017 598.609 Q158.962 603.192 153.152 603.192 Q147.342 603.192 144.263 598.609 Q141.207 594.002 141.207 585.276 Q141.207 576.526 144.263 571.942 Q147.342 567.336 153.152 567.336 Z" fill="#000000" fill-rule="evenodd" fill-opacity="1" /><path clip-path="url(#clip180)" d="M173.314 596.641 L178.198 596.641 L178.198 602.521 L173.314 602.521 L173.314 596.641 Z" fill="#000000" fill-rule="evenodd" fill-opacity="1" /><path clip-path="url(#clip180)" d="M192.411 598.586 L208.73 598.586 L208.73 602.521 L186.786 602.521 L186.786 598.586 Q189.448 595.831 194.031 591.201 Q198.638 586.549 199.818 585.206 Q202.064 582.683 202.943 580.947 Q203.846 579.188 203.846 577.498 Q203.846 574.743 201.901 573.007 Q199.98 571.271 196.878 571.271 Q194.679 571.271 192.226 572.035 Q189.795 572.799 187.017 574.35 L187.017 569.627 Q189.841 568.493 192.295 567.915 Q194.749 567.336 196.786 567.336 Q202.156 567.336 205.351 570.021 Q208.545 572.706 208.545 577.197 Q208.545 579.326 207.735 581.248 Q206.948 583.146 204.841 585.738 Q204.263 586.41 201.161 589.627 Q198.059 592.822 192.411 598.586 Z" fill="#000000" fill-rule="evenodd" fill-opacity="1" /><path clip-path="url(#clip180)" d="M151.068 292.416 Q147.457 292.416 145.629 295.981 Q143.823 299.523 143.823 306.652 Q143.823 313.759 145.629 317.324 Q147.457 320.865 151.068 320.865 Q154.703 320.865 156.508 317.324 Q158.337 313.759 158.337 306.652 Q158.337 299.523 156.508 295.981 Q154.703 292.416 151.068 292.416 M151.068 288.713 Q156.879 288.713 159.934 293.319 Q163.013 297.902 163.013 306.652 Q163.013 315.379 159.934 319.986 Q156.879 324.569 151.068 324.569 Q145.258 324.569 142.18 319.986 Q139.124 315.379 139.124 306.652 Q139.124 297.902 142.18 293.319 Q145.258 288.713 151.068 288.713 Z" fill="#000000" fill-rule="evenodd" fill-opacity="1" /><path clip-path="url(#clip180)" d="M171.23 318.018 L176.115 318.018 L176.115 323.898 L171.23 323.898 L171.23 318.018 Z" fill="#000000" fill-rule="evenodd" fill-opacity="1" /><path clip-path="url(#clip180)" d="M199.147 293.412 L187.341 311.861 L199.147 311.861 L199.147 293.412 M197.92 289.338 L203.8 289.338 L203.8 311.861 L208.73 311.861 L208.73 315.749 L203.8 315.749 L203.8 323.898 L199.147 323.898 L199.147 315.749 L183.545 315.749 L183.545 311.236 L197.92 289.338 Z" fill="#000000" fill-rule="evenodd" fill-opacity="1" /><path clip-path="url(#clip180)" d="M24.2147 1412.82 L51.0896 1412.82 L51.0896 1407.17 Q51.0896 1400.01 47.8489 1396.7 Q44.6081 1393.37 37.6174 1393.37 Q30.673 1393.37 27.4555 1396.7 Q24.2147 1400.01 24.2147 1407.17 L24.2147 1412.82 M20.3722 1417.49 L20.3722 1407.89 Q20.3722 1397.84 24.5619 1393.14 Q28.7286 1388.44 37.6174 1388.44 Q46.5526 1388.44 50.7424 1393.16 Q54.9322 1397.89 54.9322 1407.89 L54.9322 1417.49 L20.3722 1417.49 Z" fill="#000000" fill-rule="evenodd" fill-opacity="1" /><path clip-path="url(#clip180)" d="M40.9045 1359 L42.9878 1359 L42.9878 1378.58 Q47.3859 1378.3 49.7007 1375.94 Q51.9924 1373.56 51.9924 1369.32 Q51.9924 1366.87 51.3905 1364.58 Q50.7887 1362.26 49.585 1359.99 L53.6127 1359.99 Q54.5849 1362.28 55.0942 1364.69 Q55.6035 1367.1 55.6035 1369.58 Q55.6035 1375.78 51.9924 1379.41 Q48.3813 1383.02 42.2239 1383.02 Q35.8582 1383.02 32.1314 1379.6 Q28.3814 1376.15 28.3814 1370.32 Q28.3814 1365.08 31.761 1362.05 Q35.1174 1359 40.9045 1359 M39.6545 1363.26 Q36.1591 1363.3 34.0758 1365.22 Q31.9925 1367.12 31.9925 1370.27 Q31.9925 1373.83 34.0063 1375.99 Q36.0202 1378.12 39.6776 1378.44 L39.6545 1363.26 Z" fill="#000000" fill-rule="evenodd" fill-opacity="1" /><path clip-path="url(#clip180)" d="M29.0064 1355.06 L29.0064 1350.55 L50.7655 1342.45 L29.0064 1334.34 L29.0064 1329.83 L54.9322 1339.55 L54.9322 1345.34 L29.0064 1355.06 Z" fill="#000000" fill-rule="evenodd" fill-opacity="1" /><path clip-path="url(#clip180)" d="M29.0064 1323.95 L29.0064 1319.69 L54.9322 1319.69 L54.9322 1323.95 L29.0064 1323.95 M18.9138 1323.95 L18.9138 1319.69 L24.3073 1319.69 L24.3073 1323.95 L18.9138 1323.95 Z" fill="#000000" fill-rule="evenodd" fill-opacity="1" /><path clip-path="url(#clip180)" d="M41.8998 1299 Q41.8998 1304.16 43.0804 1306.15 Q44.2609 1308.14 47.1081 1308.14 Q49.3766 1308.14 50.7192 1306.66 Q52.0387 1305.15 52.0387 1302.58 Q52.0387 1299.04 49.5387 1296.91 Q47.0155 1294.76 42.8489 1294.76 L41.8998 1294.76 L41.8998 1299 M40.1406 1290.5 L54.9322 1290.5 L54.9322 1294.76 L50.997 1294.76 Q53.3581 1296.22 54.4923 1298.39 Q55.6035 1300.57 55.6035 1303.72 Q55.6035 1307.7 53.3812 1310.06 Q51.1359 1312.4 47.3859 1312.4 Q43.0109 1312.4 40.7887 1309.48 Q38.5665 1306.54 38.5665 1300.73 L38.5665 1294.76 L38.1498 1294.76 Q35.21 1294.76 33.6128 1296.71 Q31.9925 1298.63 31.9925 1302.12 Q31.9925 1304.34 32.5249 1306.45 Q33.0573 1308.56 34.1221 1310.5 L30.1869 1310.5 Q29.2841 1308.16 28.8443 1305.96 Q28.3814 1303.77 28.3814 1301.68 Q28.3814 1296.06 31.298 1293.28 Q34.2147 1290.5 40.1406 1290.5 Z" fill="#000000" fill-rule="evenodd" fill-opacity="1" /><path clip-path="url(#clip180)" d="M21.6453 1277.52 L29.0064 1277.52 L29.0064 1268.74 L32.3165 1268.74 L32.3165 1277.52 L46.3905 1277.52 Q49.5618 1277.52 50.4646 1276.66 Q51.3674 1275.78 51.3674 1273.12 L51.3674 1268.74 L54.9322 1268.74 L54.9322 1273.12 Q54.9322 1278.05 53.1035 1279.92 Q51.2516 1281.8 46.3905 1281.8 L32.3165 1281.8 L32.3165 1284.92 L29.0064 1284.92 L29.0064 1281.8 L21.6453 1281.8 L21.6453 1277.52 Z" fill="#000000" fill-rule="evenodd" fill-opacity="1" /><path clip-path="url(#clip180)" d="M29.0064 1263.14 L29.0064 1258.88 L54.9322 1258.88 L54.9322 1263.14 L29.0064 1263.14 M18.9138 1263.14 L18.9138 1258.88 L24.3073 1258.88 L24.3073 1263.14 L18.9138 1263.14 Z" fill="#000000" fill-rule="evenodd" fill-opacity="1" /><path clip-path="url(#clip180)" d="M31.9925 1239.92 Q31.9925 1243.35 34.6776 1245.34 Q37.3397 1247.33 41.9924 1247.33 Q46.6452 1247.33 49.3303 1245.36 Q51.9924 1243.37 51.9924 1239.92 Q51.9924 1236.52 49.3072 1234.53 Q46.622 1232.54 41.9924 1232.54 Q37.386 1232.54 34.7008 1234.53 Q31.9925 1236.52 31.9925 1239.92 M28.3814 1239.92 Q28.3814 1234.37 31.9925 1231.2 Q35.6036 1228.02 41.9924 1228.02 Q48.3581 1228.02 51.9924 1231.2 Q55.6035 1234.37 55.6035 1239.92 Q55.6035 1245.5 51.9924 1248.67 Q48.3581 1251.82 41.9924 1251.82 Q35.6036 1251.82 31.9925 1248.67 Q28.3814 1245.5 28.3814 1239.92 Z" fill="#000000" fill-rule="evenodd" fill-opacity="1" /><path clip-path="url(#clip180)" d="M39.2841 1199.41 L54.9322 1199.41 L54.9322 1203.67 L39.423 1203.67 Q35.7424 1203.67 33.9138 1205.11 Q32.0851 1206.54 32.0851 1209.41 Q32.0851 1212.86 34.2841 1214.85 Q36.4832 1216.84 40.2795 1216.84 L54.9322 1216.84 L54.9322 1221.13 L29.0064 1221.13 L29.0064 1216.84 L33.0341 1216.84 Q30.6962 1215.32 29.5388 1213.26 Q28.3814 1211.17 28.3814 1208.46 Q28.3814 1204 31.1591 1201.71 Q33.9138 1199.41 39.2841 1199.41 Z" fill="#000000" fill-rule="evenodd" fill-opacity="1" /><path clip-path="url(#clip180)" d="M31.9925 1165.8 Q31.9925 1169.23 34.6776 1171.22 Q37.3397 1173.21 41.9924 1173.21 Q46.6452 1173.21 49.3303 1171.24 Q51.9924 1169.25 51.9924 1165.8 Q51.9924 1162.4 49.3072 1160.41 Q46.622 1158.42 41.9924 1158.42 Q37.386 1158.42 34.7008 1160.41 Q31.9925 1162.4 31.9925 1165.8 M28.3814 1165.8 Q28.3814 1160.25 31.9925 1157.08 Q35.6036 1153.9 41.9924 1153.9 Q48.3581 1153.9 51.9924 1157.08 Q55.6035 1160.25 55.6035 1165.8 Q55.6035 1171.38 51.9924 1174.55 Q48.3581 1177.7 41.9924 1177.7 Q35.6036 1177.7 31.9925 1174.55 Q28.3814 1171.38 28.3814 1165.8 Z" fill="#000000" fill-rule="evenodd" fill-opacity="1" /><path clip-path="url(#clip180)" d="M18.9138 1133.72 L22.4555 1133.72 L22.4555 1137.79 Q22.4555 1140.09 23.3814 1140.99 Q24.3073 1141.87 26.7147 1141.87 L29.0064 1141.87 L29.0064 1134.85 L32.3165 1134.85 L32.3165 1141.87 L54.9322 1141.87 L54.9322 1146.15 L32.3165 1146.15 L32.3165 1150.22 L29.0064 1150.22 L29.0064 1146.15 L27.2008 1146.15 Q22.8721 1146.15 20.9046 1144.14 Q18.9138 1142.12 18.9138 1137.75 L18.9138 1133.72 Z" fill="#000000" fill-rule="evenodd" fill-opacity="1" /><path clip-path="url(#clip180)" d="M41.8998 1103.3 Q41.8998 1108.47 43.0804 1110.46 Q44.2609 1112.45 47.1081 1112.45 Q49.3766 1112.45 50.7192 1110.97 Q52.0387 1109.46 52.0387 1106.89 Q52.0387 1103.35 49.5387 1101.22 Q47.0155 1099.07 42.8489 1099.07 L41.8998 1099.07 L41.8998 1103.3 M40.1406 1094.81 L54.9322 1094.81 L54.9322 1099.07 L50.997 1099.07 Q53.3581 1100.53 54.4923 1102.7 Q55.6035 1104.88 55.6035 1108.03 Q55.6035 1112.01 53.3812 1114.37 Q51.1359 1116.71 47.3859 1116.71 Q43.0109 1116.71 40.7887 1113.79 Q38.5665 1110.85 38.5665 1105.04 L38.5665 1099.07 L38.1498 1099.07 Q35.21 1099.07 33.6128 1101.01 Q31.9925 1102.93 31.9925 1106.43 Q31.9925 1108.65 32.5249 1110.76 Q33.0573 1112.86 34.1221 1114.81 L30.1869 1114.81 Q29.2841 1112.47 28.8443 1110.27 Q28.3814 1108.07 28.3814 1105.99 Q28.3814 1100.36 31.298 1097.59 Q34.2147 1094.81 40.1406 1094.81 Z" fill="#000000" fill-rule="evenodd" fill-opacity="1" /><path clip-path="url(#clip180)" d="M29.0064 1089.09 L29.0064 1084.58 L50.7655 1076.47 L29.0064 1068.37 L29.0064 1063.86 L54.9322 1073.58 L54.9322 1079.37 L29.0064 1089.09 Z" fill="#000000" fill-rule="evenodd" fill-opacity="1" /><path clip-path="url(#clip180)" d="M40.9045 1035.8 L42.9878 1035.8 L42.9878 1055.39 Q47.3859 1055.11 49.7007 1052.75 Q51.9924 1050.36 51.9924 1046.13 Q51.9924 1043.67 51.3905 1041.38 Q50.7887 1039.07 49.585 1036.8 L53.6127 1036.8 Q54.5849 1039.09 55.0942 1041.5 Q55.6035 1043.91 55.6035 1046.38 Q55.6035 1052.59 51.9924 1056.22 Q48.3813 1059.83 42.2239 1059.83 Q35.8582 1059.83 32.1314 1056.41 Q28.3814 1052.96 28.3814 1047.12 Q28.3814 1041.89 31.761 1038.86 Q35.1174 1035.8 40.9045 1035.8 M39.6545 1040.06 Q36.1591 1040.11 34.0758 1042.03 Q31.9925 1043.93 31.9925 1047.08 Q31.9925 1050.64 34.0063 1052.79 Q36.0202 1054.92 39.6776 1055.25 L39.6545 1040.06 Z" fill="#000000" fill-rule="evenodd" fill-opacity="1" /><path clip-path="url(#clip180)" d="M32.9878 1013.79 Q32.5712 1014.51 32.386 1015.36 Q32.1776 1016.2 32.1776 1017.22 Q32.1776 1020.83 34.5387 1022.77 Q36.8767 1024.69 41.2748 1024.69 L54.9322 1024.69 L54.9322 1028.98 L29.0064 1028.98 L29.0064 1024.69 L33.0341 1024.69 Q30.673 1023.35 29.5388 1021.2 Q28.3814 1019.04 28.3814 1015.97 Q28.3814 1015.53 28.4508 1014.99 Q28.4971 1014.46 28.6129 1013.81 L32.9878 1013.79 Z" fill="#000000" fill-rule="evenodd" fill-opacity="1" /><path clip-path="url(#clip180)" d="M41.8998 997.54 Q41.8998 1002.7 43.0804 1004.69 Q44.2609 1006.68 47.1081 1006.68 Q49.3766 1006.68 50.7192 1005.2 Q52.0387 1003.7 52.0387 1001.13 Q52.0387 997.586 49.5387 995.457 Q47.0155 993.304 42.8489 993.304 L41.8998 993.304 L41.8998 997.54 M40.1406 989.045 L54.9322 989.045 L54.9322 993.304 L50.997 993.304 Q53.3581 994.762 54.4923 996.938 Q55.6035 999.114 55.6035 1002.26 Q55.6035 1006.24 53.3812 1008.6 Q51.1359 1010.94 47.3859 1010.94 Q43.0109 1010.94 40.7887 1008.03 Q38.5665 1005.09 38.5665 999.276 L38.5665 993.304 L38.1498 993.304 Q35.21 993.304 33.6128 995.248 Q31.9925 997.17 31.9925 1000.66 Q31.9925 1002.89 32.5249 1004.99 Q33.0573 1007.1 34.1221 1009.04 L30.1869 1009.04 Q29.2841 1006.71 28.8443 1004.51 Q28.3814 1002.31 28.3814 1000.23 Q28.3814 994.6 31.298 991.822 Q34.2147 989.045 40.1406 989.045 Z" fill="#000000" fill-rule="evenodd" fill-opacity="1" /><path clip-path="url(#clip180)" d="M41.6683 963.211 Q37.0387 963.211 34.4925 965.133 Q31.9462 967.031 31.9462 970.48 Q31.9462 973.906 34.4925 975.827 Q37.0387 977.725 41.6683 977.725 Q46.2748 977.725 48.8211 975.827 Q51.3674 973.906 51.3674 970.48 Q51.3674 967.031 48.8211 965.133 Q46.2748 963.211 41.6683 963.211 M51.7146 958.952 Q58.3349 958.952 61.5525 961.892 Q64.7932 964.832 64.7932 970.897 Q64.7932 973.142 64.446 975.133 Q64.1219 977.123 63.4275 978.998 L59.284 978.998 Q60.3025 977.123 60.7886 975.295 Q61.2747 973.466 61.2747 971.568 Q61.2747 967.378 59.0757 965.295 Q56.8997 963.211 52.4785 963.211 L50.372 963.211 Q52.6637 964.531 53.7979 966.591 Q54.9322 968.651 54.9322 971.522 Q54.9322 976.29 51.2979 979.207 Q47.6637 982.123 41.6683 982.123 Q35.6499 982.123 32.0156 979.207 Q28.3814 976.29 28.3814 971.522 Q28.3814 968.651 29.5156 966.591 Q30.6499 964.531 32.9415 963.211 L29.0064 963.211 L29.0064 958.952 L51.7146 958.952 Z" fill="#000000" fill-rule="evenodd" fill-opacity="1" /><path clip-path="url(#clip180)" d="M40.9045 928.003 L42.9878 928.003 L42.9878 947.587 Q47.3859 947.309 49.7007 944.948 Q51.9924 942.563 51.9924 938.327 Q51.9924 935.874 51.3905 933.582 Q50.7887 931.267 49.585 928.999 L53.6127 928.999 Q54.5849 931.29 55.0942 933.698 Q55.6035 936.105 55.6035 938.582 Q55.6035 944.786 51.9924 948.42 Q48.3813 952.031 42.2239 952.031 Q35.8582 952.031 32.1314 948.605 Q28.3814 945.156 28.3814 939.323 Q28.3814 934.091 31.761 931.059 Q35.1174 928.003 40.9045 928.003 M39.6545 932.263 Q36.1591 932.309 34.0758 934.23 Q31.9925 936.128 31.9925 939.276 Q31.9925 942.841 34.0063 944.994 Q36.0202 947.124 39.6776 947.448 L39.6545 932.263 Z" fill="#000000" fill-rule="evenodd" fill-opacity="1" /><path clip-path="url(#clip180)" d="M51.0433 901.823 L64.7932 901.823 L64.7932 906.105 L29.0064 906.105 L29.0064 901.823 L32.9415 901.823 Q30.6267 900.48 29.5156 898.443 Q28.3814 896.383 28.3814 893.536 Q28.3814 888.814 32.1314 885.874 Q35.8813 882.911 41.9924 882.911 Q48.1035 882.911 51.8535 885.874 Q55.6035 888.814 55.6035 893.536 Q55.6035 896.383 54.4923 898.443 Q53.3581 900.48 51.0433 901.823 M41.9924 887.332 Q37.2934 887.332 34.6313 889.277 Q31.9462 891.198 31.9462 894.578 Q31.9462 897.957 34.6313 899.902 Q37.2934 901.823 41.9924 901.823 Q46.6915 901.823 49.3766 899.902 Q52.0387 897.957 52.0387 894.578 Q52.0387 891.198 49.3766 889.277 Q46.6915 887.332 41.9924 887.332 Z" fill="#000000" fill-rule="evenodd" fill-opacity="1" /><path clip-path="url(#clip180)" d="M41.8998 864.068 Q41.8998 869.23 43.0804 871.221 Q44.2609 873.212 47.1081 873.212 Q49.3766 873.212 50.7192 871.73 Q52.0387 870.226 52.0387 867.656 Q52.0387 864.115 49.5387 861.985 Q47.0155 859.832 42.8489 859.832 L41.8998 859.832 L41.8998 864.068 M40.1406 855.573 L54.9322 855.573 L54.9322 859.832 L50.997 859.832 Q53.3581 861.291 54.4923 863.467 Q55.6035 865.643 55.6035 868.791 Q55.6035 872.772 53.3812 875.133 Q51.1359 877.471 47.3859 877.471 Q43.0109 877.471 40.7887 874.555 Q38.5665 871.615 38.5665 865.805 L38.5665 859.832 L38.1498 859.832 Q35.21 859.832 33.6128 861.777 Q31.9925 863.698 31.9925 867.193 Q31.9925 869.416 32.5249 871.522 Q33.0573 873.629 34.1221 875.573 L30.1869 875.573 Q29.2841 873.235 28.8443 871.036 Q28.3814 868.837 28.3814 866.754 Q28.3814 861.129 31.298 858.351 Q34.2147 855.573 40.1406 855.573 Z" fill="#000000" fill-rule="evenodd" fill-opacity="1" /><path clip-path="url(#clip180)" d="M32.9878 831.777 Q32.5712 832.495 32.386 833.351 Q32.1776 834.184 32.1776 835.203 Q32.1776 838.814 34.5387 840.758 Q36.8767 842.68 41.2748 842.68 L54.9322 842.68 L54.9322 846.962 L29.0064 846.962 L29.0064 842.68 L33.0341 842.68 Q30.673 841.337 29.5388 839.184 Q28.3814 837.032 28.3814 833.953 Q28.3814 833.513 28.4508 832.981 Q28.4971 832.448 28.6129 831.8 L32.9878 831.777 Z" fill="#000000" fill-rule="evenodd" fill-opacity="1" /><path clip-path="url(#clip180)" d="M41.8998 815.527 Q41.8998 820.689 43.0804 822.68 Q44.2609 824.671 47.1081 824.671 Q49.3766 824.671 50.7192 823.189 Q52.0387 821.684 52.0387 819.115 Q52.0387 815.573 49.5387 813.444 Q47.0155 811.291 42.8489 811.291 L41.8998 811.291 L41.8998 815.527 M40.1406 807.032 L54.9322 807.032 L54.9322 811.291 L50.997 811.291 Q53.3581 812.749 54.4923 814.925 Q55.6035 817.101 55.6035 820.249 Q55.6035 824.231 53.3812 826.592 Q51.1359 828.93 47.3859 828.93 Q43.0109 828.93 40.7887 826.013 Q38.5665 823.073 38.5665 817.263 L38.5665 811.291 L38.1498 811.291 Q35.21 811.291 33.6128 813.235 Q31.9925 815.157 31.9925 818.652 Q31.9925 820.874 32.5249 822.981 Q33.0573 825.087 34.1221 827.032 L30.1869 827.032 Q29.2841 824.694 28.8443 822.495 Q28.3814 820.296 28.3814 818.212 Q28.3814 812.587 31.298 809.81 Q34.2147 807.032 40.1406 807.032 Z" fill="#000000" fill-rule="evenodd" fill-opacity="1" /><path clip-path="url(#clip180)" d="M33.9832 778.074 Q31.1128 776.476 29.7471 774.254 Q28.3814 772.032 28.3814 769.023 Q28.3814 764.972 31.2286 762.773 Q34.0526 760.574 39.2841 760.574 L54.9322 760.574 L54.9322 764.856 L39.423 764.856 Q35.6961 764.856 33.8906 766.175 Q32.0851 767.495 32.0851 770.203 Q32.0851 773.513 34.2841 775.435 Q36.4832 777.356 40.2795 777.356 L54.9322 777.356 L54.9322 781.638 L39.423 781.638 Q35.673 781.638 33.8906 782.958 Q32.0851 784.277 32.0851 787.032 Q32.0851 790.296 34.3073 792.217 Q36.5063 794.138 40.2795 794.138 L54.9322 794.138 L54.9322 798.421 L29.0064 798.421 L29.0064 794.138 L33.0341 794.138 Q30.6499 792.68 29.5156 790.643 Q28.3814 788.606 28.3814 785.805 Q28.3814 782.981 29.8166 781.013 Q31.2517 779.023 33.9832 778.074 Z" fill="#000000" fill-rule="evenodd" fill-opacity="1" /><path clip-path="url(#clip180)" d="M40.9045 729.903 L42.9878 729.903 L42.9878 749.486 Q47.3859 749.208 49.7007 746.847 Q51.9924 744.463 51.9924 740.227 Q51.9924 737.773 51.3905 735.481 Q50.7887 733.166 49.585 730.898 L53.6127 730.898 Q54.5849 733.19 55.0942 735.597 Q55.6035 738.004 55.6035 740.481 Q55.6035 746.685 51.9924 750.319 Q48.3813 753.93 42.2239 753.93 Q35.8582 753.93 32.1314 750.504 Q28.3814 747.055 28.3814 741.222 Q28.3814 735.99 31.761 732.958 Q35.1174 729.903 40.9045 729.903 M39.6545 734.162 Q36.1591 734.208 34.0758 736.129 Q31.9925 738.027 31.9925 741.176 Q31.9925 744.74 34.0063 746.893 Q36.0202 749.023 39.6776 749.347 L39.6545 734.162 Z" fill="#000000" fill-rule="evenodd" fill-opacity="1" /><path clip-path="url(#clip180)" d="M21.6453 718.699 L29.0064 718.699 L29.0064 709.926 L32.3165 709.926 L32.3165 718.699 L46.3905 718.699 Q49.5618 718.699 50.4646 717.842 Q51.3674 716.963 51.3674 714.301 L51.3674 709.926 L54.9322 709.926 L54.9322 714.301 Q54.9322 719.231 53.1035 721.106 Q51.2516 722.981 46.3905 722.981 L32.3165 722.981 L32.3165 726.106 L29.0064 726.106 L29.0064 722.981 L21.6453 722.981 L21.6453 718.699 Z" fill="#000000" fill-rule="evenodd" fill-opacity="1" /><path clip-path="url(#clip180)" d="M40.9045 682.148 L42.9878 682.148 L42.9878 701.731 Q47.3859 701.454 49.7007 699.093 Q51.9924 696.708 51.9924 692.472 Q51.9924 690.018 51.3905 687.727 Q50.7887 685.412 49.585 683.144 L53.6127 683.144 Q54.5849 685.435 55.0942 687.843 Q55.6035 690.25 55.6035 692.727 Q55.6035 698.93 51.9924 702.565 Q48.3813 706.176 42.2239 706.176 Q35.8582 706.176 32.1314 702.75 Q28.3814 699.301 28.3814 693.468 Q28.3814 688.236 31.761 685.204 Q35.1174 682.148 40.9045 682.148 M39.6545 686.407 Q36.1591 686.454 34.0758 688.375 Q31.9925 690.273 31.9925 693.421 Q31.9925 696.986 34.0063 699.139 Q36.0202 701.268 39.6776 701.592 L39.6545 686.407 Z" fill="#000000" fill-rule="evenodd" fill-opacity="1" /><path clip-path="url(#clip180)" d="M32.9878 660.134 Q32.5712 660.852 32.386 661.708 Q32.1776 662.542 32.1776 663.56 Q32.1776 667.171 34.5387 669.116 Q36.8767 671.037 41.2748 671.037 L54.9322 671.037 L54.9322 675.319 L29.0064 675.319 L29.0064 671.037 L33.0341 671.037 Q30.673 669.695 29.5388 667.542 Q28.3814 665.389 28.3814 662.31 Q28.3814 661.87 28.4508 661.338 Q28.4971 660.806 28.6129 660.158 L32.9878 660.134 Z" fill="#000000" fill-rule="evenodd" fill-opacity="1" /><path clip-path="url(#clip180)" d="M29.7703 639.139 L33.798 639.139 Q32.8721 640.945 32.4091 642.889 Q31.9462 644.834 31.9462 646.917 Q31.9462 650.088 32.9184 651.685 Q33.8906 653.259 35.835 653.259 Q37.3165 653.259 38.173 652.125 Q39.0063 650.991 39.7702 647.565 L40.0943 646.107 Q41.0665 641.57 42.8489 639.672 Q44.6081 637.75 47.7794 637.75 Q51.3905 637.75 53.497 640.621 Q55.6035 643.468 55.6035 648.468 Q55.6035 650.551 55.1868 652.82 Q54.7933 655.065 53.9831 657.565 L49.585 657.565 Q50.8118 655.204 51.4368 652.912 Q52.0387 650.621 52.0387 648.375 Q52.0387 645.366 51.0201 643.746 Q49.9785 642.125 48.1035 642.125 Q46.3674 642.125 45.4415 643.306 Q44.5155 644.463 43.6591 648.421 L43.3118 649.903 Q42.4785 653.861 40.7656 655.621 Q39.0295 657.38 36.0202 657.38 Q32.3628 657.38 30.3721 654.787 Q28.3814 652.195 28.3814 647.426 Q28.3814 645.065 28.7286 642.982 Q29.0758 640.898 29.7703 639.139 Z" fill="#000000" fill-rule="evenodd" fill-opacity="1" /><path clip-path="url(#clip180)" d="M18.9138 602.774 L22.4555 602.774 L22.4555 606.848 Q22.4555 609.139 23.3814 610.042 Q24.3073 610.922 26.7147 610.922 L29.0064 610.922 L29.0064 603.908 L32.3165 603.908 L32.3165 610.922 L54.9322 610.922 L54.9322 615.204 L32.3165 615.204 L32.3165 619.278 L29.0064 619.278 L29.0064 615.204 L27.2008 615.204 Q22.8721 615.204 20.9046 613.19 Q18.9138 611.176 18.9138 606.801 L18.9138 602.774 Z" fill="#000000" fill-rule="evenodd" fill-opacity="1" /><path clip-path="url(#clip180)" d="M32.9878 584.186 Q32.5712 584.903 32.386 585.76 Q32.1776 586.593 32.1776 587.612 Q32.1776 591.223 34.5387 593.167 Q36.8767 595.088 41.2748 595.088 L54.9322 595.088 L54.9322 599.371 L29.0064 599.371 L29.0064 595.088 L33.0341 595.088 Q30.673 593.746 29.5388 591.593 Q28.3814 589.44 28.3814 586.362 Q28.3814 585.922 28.4508 585.389 Q28.4971 584.857 28.6129 584.209 L32.9878 584.186 Z" fill="#000000" fill-rule="evenodd" fill-opacity="1" /><path clip-path="url(#clip180)" d="M31.9925 570.714 Q31.9925 574.139 34.6776 576.13 Q37.3397 578.121 41.9924 578.121 Q46.6452 578.121 49.3303 576.153 Q51.9924 574.163 51.9924 570.714 Q51.9924 567.311 49.3072 565.32 Q46.622 563.329 41.9924 563.329 Q37.386 563.329 34.7008 565.32 Q31.9925 567.311 31.9925 570.714 M28.3814 570.714 Q28.3814 565.158 31.9925 561.987 Q35.6036 558.815 41.9924 558.815 Q48.3581 558.815 51.9924 561.987 Q55.6035 565.158 55.6035 570.714 Q55.6035 576.292 51.9924 579.464 Q48.3581 582.612 41.9924 582.612 Q35.6036 582.612 31.9925 579.464 Q28.3814 576.292 28.3814 570.714 Z" fill="#000000" fill-rule="evenodd" fill-opacity="1" /><path clip-path="url(#clip180)" d="M33.9832 531.57 Q31.1128 529.973 29.7471 527.751 Q28.3814 525.529 28.3814 522.519 Q28.3814 518.468 31.2286 516.269 Q34.0526 514.07 39.2841 514.07 L54.9322 514.07 L54.9322 518.353 L39.423 518.353 Q35.6961 518.353 33.8906 519.672 Q32.0851 520.992 32.0851 523.7 Q32.0851 527.01 34.2841 528.931 Q36.4832 530.853 40.2795 530.853 L54.9322 530.853 L54.9322 535.135 L39.423 535.135 Q35.673 535.135 33.8906 536.454 Q32.0851 537.774 32.0851 540.529 Q32.0851 543.792 34.3073 545.714 Q36.5063 547.635 40.2795 547.635 L54.9322 547.635 L54.9322 551.917 L29.0064 551.917 L29.0064 547.635 L33.0341 547.635 Q30.6499 546.177 29.5156 544.14 Q28.3814 542.103 28.3814 539.302 Q28.3814 536.478 29.8166 534.51 Q31.2517 532.519 33.9832 531.57 Z" fill="#000000" fill-rule="evenodd" fill-opacity="1" /><path clip-path="url(#clip180)" d="M40.9045 468.33 L42.9878 468.33 L42.9878 487.913 Q47.3859 487.635 49.7007 485.274 Q51.9924 482.89 51.9924 478.654 Q51.9924 476.2 51.3905 473.909 Q50.7887 471.594 49.585 469.325 L53.6127 469.325 Q54.5849 471.617 55.0942 474.024 Q55.6035 476.432 55.6035 478.909 Q55.6035 485.112 51.9924 488.746 Q48.3813 492.358 42.2239 492.358 Q35.8582 492.358 32.1314 488.932 Q28.3814 485.483 28.3814 479.649 Q28.3814 474.418 31.761 471.385 Q35.1174 468.33 40.9045 468.33 M39.6545 472.589 Q36.1591 472.635 34.0758 474.557 Q31.9925 476.455 31.9925 479.603 Q31.9925 483.168 34.0063 485.321 Q36.0202 487.45 39.6776 487.774 L39.6545 472.589 Z" fill="#000000" fill-rule="evenodd" fill-opacity="1" /><path clip-path="url(#clip180)" d="M29.0064 440.622 L41.622 449.997 L54.9322 440.136 L54.9322 445.159 L44.747 452.705 L54.9322 460.251 L54.9322 465.274 L41.3674 455.205 L29.0064 464.418 L29.0064 459.395 L38.2424 452.52 L29.0064 445.645 L29.0064 440.622 Z" fill="#000000" fill-rule="evenodd" fill-opacity="1" /><path clip-path="url(#clip180)" d="M51.0433 429.997 L64.7932 429.997 L64.7932 434.279 L29.0064 434.279 L29.0064 429.997 L32.9415 429.997 Q30.6267 428.654 29.5156 426.617 Q28.3814 424.557 28.3814 421.71 Q28.3814 416.988 32.1314 414.048 Q35.8813 411.085 41.9924 411.085 Q48.1035 411.085 51.8535 414.048 Q55.6035 416.988 55.6035 421.71 Q55.6035 424.557 54.4923 426.617 Q53.3581 428.654 51.0433 429.997 M41.9924 415.506 Q37.2934 415.506 34.6313 417.451 Q31.9462 419.372 31.9462 422.751 Q31.9462 426.131 34.6313 428.075 Q37.2934 429.997 41.9924 429.997 Q46.6915 429.997 49.3766 428.075 Q52.0387 426.131 52.0387 422.751 Q52.0387 419.372 49.3766 417.451 Q46.6915 415.506 41.9924 415.506 Z" fill="#000000" fill-rule="evenodd" fill-opacity="1" /><path clip-path="url(#clip180)" d="M40.9045 381.849 L42.9878 381.849 L42.9878 401.432 Q47.3859 401.154 49.7007 398.793 Q51.9924 396.409 51.9924 392.173 Q51.9924 389.719 51.3905 387.428 Q50.7887 385.113 49.585 382.844 L53.6127 382.844 Q54.5849 385.136 55.0942 387.543 Q55.6035 389.951 55.6035 392.427 Q55.6035 398.631 51.9924 402.265 Q48.3813 405.876 42.2239 405.876 Q35.8582 405.876 32.1314 402.451 Q28.3814 399.002 28.3814 393.168 Q28.3814 387.937 31.761 384.904 Q35.1174 381.849 40.9045 381.849 M39.6545 386.108 Q36.1591 386.154 34.0758 388.076 Q31.9925 389.974 31.9925 393.122 Q31.9925 396.687 34.0063 398.839 Q36.0202 400.969 39.6776 401.293 L39.6545 386.108 Z" fill="#000000" fill-rule="evenodd" fill-opacity="1" /><path clip-path="url(#clip180)" d="M30.0017 356.201 L33.9832 356.201 Q32.9878 358.006 32.5017 359.835 Q31.9925 361.641 31.9925 363.492 Q31.9925 367.636 34.6313 369.928 Q37.2471 372.219 41.9924 372.219 Q46.7378 372.219 49.3766 369.928 Q51.9924 367.636 51.9924 363.492 Q51.9924 361.641 51.5062 359.835 Q50.997 358.006 50.0016 356.201 L53.9368 356.201 Q54.7701 357.983 55.1868 359.905 Q55.6035 361.803 55.6035 363.955 Q55.6035 369.812 51.9229 373.261 Q48.2424 376.71 41.9924 376.71 Q35.6499 376.71 32.0156 373.238 Q28.3814 369.742 28.3814 363.678 Q28.3814 361.71 28.798 359.835 Q29.1916 357.96 30.0017 356.201 Z" fill="#000000" fill-rule="evenodd" fill-opacity="1" /><path clip-path="url(#clip180)" d="M21.6453 344.581 L29.0064 344.581 L29.0064 335.807 L32.3165 335.807 L32.3165 344.581 L46.3905 344.581 Q49.5618 344.581 50.4646 343.724 Q51.3674 342.844 51.3674 340.182 L51.3674 335.807 L54.9322 335.807 L54.9322 340.182 Q54.9322 345.113 53.1035 346.988 Q51.2516 348.863 46.3905 348.863 L32.3165 348.863 L32.3165 351.988 L29.0064 351.988 L29.0064 348.863 L21.6453 348.863 L21.6453 344.581 Z" fill="#000000" fill-rule="evenodd" fill-opacity="1" /><path clip-path="url(#clip180)" d="M41.8998 318.423 Q41.8998 323.585 43.0804 325.576 Q44.2609 327.567 47.1081 327.567 Q49.3766 327.567 50.7192 326.085 Q52.0387 324.581 52.0387 322.011 Q52.0387 318.47 49.5387 316.34 Q47.0155 314.187 42.8489 314.187 L41.8998 314.187 L41.8998 318.423 M40.1406 309.928 L54.9322 309.928 L54.9322 314.187 L50.997 314.187 Q53.3581 315.645 54.4923 317.821 Q55.6035 319.997 55.6035 323.145 Q55.6035 327.127 53.3812 329.488 Q51.1359 331.826 47.3859 331.826 Q43.0109 331.826 40.7887 328.909 Q38.5665 325.97 38.5665 320.159 L38.5665 314.187 L38.1498 314.187 Q35.21 314.187 33.6128 316.132 Q31.9925 318.053 31.9925 321.548 Q31.9925 323.77 32.5249 325.877 Q33.0573 327.983 34.1221 329.928 L30.1869 329.928 Q29.2841 327.59 28.8443 325.391 Q28.3814 323.192 28.3814 321.108 Q28.3814 315.483 31.298 312.706 Q34.2147 309.928 40.1406 309.928 Z" fill="#000000" fill-rule="evenodd" fill-opacity="1" /><path clip-path="url(#clip180)" d="M21.6453 296.942 L29.0064 296.942 L29.0064 288.169 L32.3165 288.169 L32.3165 296.942 L46.3905 296.942 Q49.5618 296.942 50.4646 296.085 Q51.3674 295.206 51.3674 292.544 L51.3674 288.169 L54.9322 288.169 L54.9322 292.544 Q54.9322 297.474 53.1035 299.349 Q51.2516 301.224 46.3905 301.224 L32.3165 301.224 L32.3165 304.349 L29.0064 304.349 L29.0064 301.224 L21.6453 301.224 L21.6453 296.942 Z" fill="#000000" fill-rule="evenodd" fill-opacity="1" /><path clip-path="url(#clip180)" d="M29.0064 282.567 L29.0064 278.308 L54.9322 278.308 L54.9322 282.567 L29.0064 282.567 M18.9138 282.567 L18.9138 278.308 L24.3073 278.308 L24.3073 282.567 L18.9138 282.567 Z" fill="#000000" fill-rule="evenodd" fill-opacity="1" /><path clip-path="url(#clip180)" d="M31.9925 259.349 Q31.9925 262.775 34.6776 264.766 Q37.3397 266.757 41.9924 266.757 Q46.6452 266.757 49.3303 264.789 Q51.9924 262.799 51.9924 259.349 Q51.9924 255.947 49.3072 253.956 Q46.622 251.965 41.9924 251.965 Q37.386 251.965 34.7008 253.956 Q31.9925 255.947 31.9925 259.349 M28.3814 259.349 Q28.3814 253.794 31.9925 250.623 Q35.6036 247.451 41.9924 247.451 Q48.3581 247.451 51.9924 250.623 Q55.6035 253.794 55.6035 259.349 Q55.6035 264.928 51.9924 268.099 Q48.3581 271.248 41.9924 271.248 Q35.6036 271.248 31.9925 268.099 Q28.3814 264.928 28.3814 259.349 Z" fill="#000000" fill-rule="evenodd" fill-opacity="1" /><path clip-path="url(#clip180)" d="M39.2841 218.84 L54.9322 218.84 L54.9322 223.1 L39.423 223.1 Q35.7424 223.1 33.9138 224.535 Q32.0851 225.97 32.0851 228.84 Q32.0851 232.289 34.2841 234.28 Q36.4832 236.271 40.2795 236.271 L54.9322 236.271 L54.9322 240.553 L29.0064 240.553 L29.0064 236.271 L33.0341 236.271 Q30.6962 234.743 29.5388 232.683 Q28.3814 230.6 28.3814 227.891 Q28.3814 223.424 31.1591 221.132 Q33.9138 218.84 39.2841 218.84 Z" fill="#000000" fill-rule="evenodd" fill-opacity="1" /><path clip-path="url(#clip180)" d="M29.7703 193.817 L33.798 193.817 Q32.8721 195.623 32.4091 197.567 Q31.9462 199.512 31.9462 201.595 Q31.9462 204.766 32.9184 206.364 Q33.8906 207.938 35.835 207.938 Q37.3165 207.938 38.173 206.803 Q39.0063 205.669 39.7702 202.243 L40.0943 200.785 Q41.0665 196.248 42.8489 194.35 Q44.6081 192.429 47.7794 192.429 Q51.3905 192.429 53.497 195.299 Q55.6035 198.146 55.6035 203.146 Q55.6035 205.229 55.1868 207.498 Q54.7933 209.743 53.9831 212.243 L49.585 212.243 Q50.8118 209.882 51.4368 207.591 Q52.0387 205.299 52.0387 203.054 Q52.0387 200.044 51.0201 198.424 Q49.9785 196.804 48.1035 196.804 Q46.3674 196.804 45.4415 197.984 Q44.5155 199.141 43.6591 203.1 L43.3118 204.581 Q42.4785 208.54 40.7656 210.299 Q39.0295 212.058 36.0202 212.058 Q32.3628 212.058 30.3721 209.466 Q28.3814 206.873 28.3814 202.104 Q28.3814 199.743 28.7286 197.66 Q29.0758 195.577 29.7703 193.817 Z" fill="#000000" fill-rule="evenodd" fill-opacity="1" /><path clip-path="url(#clip180)" d="M1182.12 17.6457 Q1173.21 17.6457 1167.94 24.2892 Q1162.71 30.9327 1162.71 42.3968 Q1162.71 53.8203 1167.94 60.4638 Q1173.21 67.1073 1182.12 67.1073 Q1191.03 67.1073 1196.21 60.4638 Q1201.44 53.8203 1201.44 42.3968 Q1201.44 30.9327 1196.21 24.2892 Q1191.03 17.6457 1182.12 17.6457 M1193.58 71.4823 L1204.36 83.2704 L1194.47 83.2704 L1185.52 73.5887 Q1184.18 73.6697 1183.45 73.7103 Q1182.77 73.7508 1182.12 73.7508 Q1169.36 73.7508 1161.7 65.2439 Q1154.09 56.6965 1154.09 42.3968 Q1154.09 28.0566 1161.7 19.5497 Q1169.36 11.0023 1182.12 11.0023 Q1194.84 11.0023 1202.45 19.5497 Q1210.07 28.0566 1210.07 42.3968 Q1210.07 52.9291 1205.82 60.4233 Q1201.6 67.9175 1193.58 71.4823 Z" fill="#000000" fill-rule="evenodd" fill-opacity="1" /><path clip-path="url(#clip180)" d="M1221.78 54.671 L1221.78 27.2059 L1229.23 27.2059 L1229.23 54.3874 Q1229.23 60.8284 1231.74 64.0691 Q1234.25 67.2693 1239.28 67.2693 Q1245.31 67.2693 1248.8 63.421 Q1252.32 59.5726 1252.32 52.9291 L1252.32 27.2059 L1259.77 27.2059 L1259.77 72.576 L1252.32 72.576 L1252.32 65.6084 Q1249.61 69.7404 1246 71.7658 Q1242.44 73.7508 1237.7 73.7508 Q1229.88 73.7508 1225.83 68.8897 Q1221.78 64.0286 1221.78 54.671 M1240.53 26.1121 L1240.53 26.1121 Z" fill="#000000" fill-rule="evenodd" fill-opacity="1" /><path clip-path="url(#clip180)" d="M1295.75 49.7694 Q1286.71 49.7694 1283.23 51.8354 Q1279.74 53.9013 1279.74 58.8839 Q1279.74 62.8538 1282.34 65.2034 Q1284.97 67.5124 1289.47 67.5124 Q1295.66 67.5124 1299.39 63.1374 Q1303.16 58.7219 1303.16 51.4303 L1303.16 49.7694 L1295.75 49.7694 M1310.61 46.6907 L1310.61 72.576 L1303.16 72.576 L1303.16 65.6895 Q1300.61 69.8214 1296.8 71.8063 Q1292.99 73.7508 1287.48 73.7508 Q1280.51 73.7508 1276.38 69.8619 Q1272.29 65.9325 1272.29 59.3701 Q1272.29 51.7138 1277.39 47.825 Q1282.54 43.9361 1292.71 43.9361 L1303.16 43.9361 L1303.16 43.2069 Q1303.16 38.0623 1299.76 35.2672 Q1296.39 32.4315 1290.28 32.4315 Q1286.39 32.4315 1282.7 33.3632 Q1279.02 34.295 1275.61 36.1584 L1275.61 29.2718 Q1279.7 27.692 1283.55 26.9223 Q1287.4 26.1121 1291.05 26.1121 Q1300.89 26.1121 1305.75 31.2163 Q1310.61 36.3204 1310.61 46.6907 Z" fill="#000000" fill-rule="evenodd" fill-opacity="1" /><path clip-path="url(#clip180)" d="M1325.97 9.54393 L1333.42 9.54393 L1333.42 72.576 L1325.97 72.576 L1325.97 9.54393 Z" fill="#000000" fill-rule="evenodd" fill-opacity="1" /><path clip-path="url(#clip180)" d="M1349.01 27.2059 L1356.47 27.2059 L1356.47 72.576 L1349.01 72.576 L1349.01 27.2059 M1349.01 9.54393 L1356.47 9.54393 L1356.47 18.9825 L1349.01 18.9825 L1349.01 9.54393 Z" fill="#000000" fill-rule="evenodd" fill-opacity="1" /><path clip-path="url(#clip180)" d="M1379.44 14.324 L1379.44 27.2059 L1394.79 27.2059 L1394.79 32.9987 L1379.44 32.9987 L1379.44 57.6282 Q1379.44 63.1779 1380.94 64.7578 Q1382.48 66.3376 1387.13 66.3376 L1394.79 66.3376 L1394.79 72.576 L1387.13 72.576 Q1378.51 72.576 1375.22 69.3758 Q1371.94 66.1351 1371.94 57.6282 L1371.94 32.9987 L1366.47 32.9987 L1366.47 27.2059 L1371.94 27.2059 L1371.94 14.324 L1379.44 14.324 Z" fill="#000000" fill-rule="evenodd" fill-opacity="1" /><path clip-path="url(#clip180)" d="M1423.47 76.7889 Q1420.31 84.8907 1417.31 87.3618 Q1414.32 89.8329 1409.29 89.8329 L1403.34 89.8329 L1403.34 83.5945 L1407.71 83.5945 Q1410.79 83.5945 1412.49 82.1361 Q1414.19 80.6778 1416.26 75.2496 L1417.6 71.8468 L1399.25 27.2059 L1407.15 27.2059 L1421.32 62.6918 L1435.5 27.2059 L1443.4 27.2059 L1423.47 76.7889 Z" fill="#000000" fill-rule="evenodd" fill-opacity="1" /><path clip-path="url(#clip182)" d="
M746.325 1043.84 L525.358 1043.84 L967.292 1043.84 L746.325 1043.84 L746.325 830.56 L746.325 1043.84  Z
  " fill="#009af9" fill-rule="evenodd" fill-opacity="1"/>
<polyline clip-path="url(#clip182)" style="stroke:#000000; stroke-linecap:round; stroke-linejoin:round; stroke-width:4; stroke-opacity:1; fill:none" points="
  746.325,1043.84 525.358,1043.84 967.292,1043.84 746.325,1043.84 746.325,830.56 746.325,1043.84 
  "/>
<path clip-path="url(#clip182)" d="
M1188.26 830.56 L1188.26 775.212 L304.391 775.212 L304.391 830.56 L1188.26 830.56 L1188.26 775.212 L1188.26 830.56  Z
  " fill="#009af9" fill-rule="evenodd" fill-opacity="1"/>
<polyline clip-path="url(#clip182)" style="stroke:#000000; stroke-linecap:round; stroke-linejoin:round; stroke-width:4; stroke-opacity:1; fill:none" points="
  1188.26,830.56 1188.26,775.212 304.391,775.212 304.391,830.56 1188.26,830.56 1188.26,775.212 1188.26,830.56 
  "/>
<path clip-path="url(#clip182)" d="
M1188.26 687.519 L304.391 687.519 L304.391 775.212 L1188.26 775.212 L1188.26 687.519 L746.325 687.519 L1188.26 687.519  Z
  " fill="#009af9" fill-rule="evenodd" fill-opacity="1"/>
<polyline clip-path="url(#clip182)" style="stroke:#000000; stroke-linecap:round; stroke-linejoin:round; stroke-width:4; stroke-opacity:1; fill:none" points="
  1188.26,687.519 304.391,687.519 304.391,775.212 1188.26,775.212 1188.26,687.519 746.325,687.519 1188.26,687.519 
  "/>
<path clip-path="url(#clip182)" d="
M746.325 478.134 L525.358 478.134 L967.292 478.134 L746.325 478.134 L746.325 687.519 L746.325 478.134  Z
  " fill="#009af9" fill-rule="evenodd" fill-opacity="1"/>
<polyline clip-path="url(#clip182)" style="stroke:#000000; stroke-linecap:round; stroke-linejoin:round; stroke-width:4; stroke-opacity:1; fill:none" points="
  746.325,478.134 525.358,478.134 967.292,478.134 746.325,478.134 746.325,687.519 746.325,478.134 
  "/>
<circle clip-path="url(#clip182)" cx="746.325" cy="1094.54" r="14.4" fill="#009af9" fill-rule="evenodd" fill-opacity="1" stroke="#000000" stroke-opacity="1" stroke-width="3.2"/>
<circle clip-path="url(#clip182)" cx="746.325" cy="279.591" r="14.4" fill="#009af9" fill-rule="evenodd" fill-opacity="1" stroke="#000000" stroke-opacity="1" stroke-width="3.2"/>
<circle clip-path="url(#clip182)" cx="746.325" cy="295.121" r="14.4" fill="#009af9" fill-rule="evenodd" fill-opacity="1" stroke="#000000" stroke-opacity="1" stroke-width="3.2"/>
<circle clip-path="url(#clip182)" cx="746.325" cy="400.676" r="14.4" fill="#009af9" fill-rule="evenodd" fill-opacity="1" stroke="#000000" stroke-opacity="1" stroke-width="3.2"/>
<circle clip-path="url(#clip182)" cx="746.325" cy="396.541" r="14.4" fill="#009af9" fill-rule="evenodd" fill-opacity="1" stroke="#000000" stroke-opacity="1" stroke-width="3.2"/>
<circle clip-path="url(#clip182)" cx="746.325" cy="464.491" r="14.4" fill="#009af9" fill-rule="evenodd" fill-opacity="1" stroke="#000000" stroke-opacity="1" stroke-width="3.2"/>
<circle clip-path="url(#clip182)" cx="746.325" cy="265.464" r="14.4" fill="#009af9" fill-rule="evenodd" fill-opacity="1" stroke="#000000" stroke-opacity="1" stroke-width="3.2"/>
<circle clip-path="url(#clip182)" cx="746.325" cy="1151.12" r="14.4" fill="#009af9" fill-rule="evenodd" fill-opacity="1" stroke="#000000" stroke-opacity="1" stroke-width="3.2"/>
<circle clip-path="url(#clip182)" cx="746.325" cy="404.829" r="14.4" fill="#009af9" fill-rule="evenodd" fill-opacity="1" stroke="#000000" stroke-opacity="1" stroke-width="3.2"/>
<circle clip-path="url(#clip182)" cx="746.325" cy="1050.52" r="14.4" fill="#009af9" fill-rule="evenodd" fill-opacity="1" stroke="#000000" stroke-opacity="1" stroke-width="3.2"/>
<circle clip-path="url(#clip182)" cx="746.325" cy="345.728" r="14.4" fill="#009af9" fill-rule="evenodd" fill-opacity="1" stroke="#000000" stroke-opacity="1" stroke-width="3.2"/>
<circle clip-path="url(#clip182)" cx="746.325" cy="446.713" r="14.4" fill="#009af9" fill-rule="evenodd" fill-opacity="1" stroke="#000000" stroke-opacity="1" stroke-width="3.2"/>
<circle clip-path="url(#clip182)" cx="746.325" cy="1061.37" r="14.4" fill="#009af9" fill-rule="evenodd" fill-opacity="1" stroke="#000000" stroke-opacity="1" stroke-width="3.2"/>
<circle clip-path="url(#clip182)" cx="746.325" cy="347.659" r="14.4" fill="#009af9" fill-rule="evenodd" fill-opacity="1" stroke="#000000" stroke-opacity="1" stroke-width="3.2"/>
<circle clip-path="url(#clip182)" cx="746.325" cy="414.078" r="14.4" fill="#009af9" fill-rule="evenodd" fill-opacity="1" stroke="#000000" stroke-opacity="1" stroke-width="3.2"/>
<circle clip-path="url(#clip182)" cx="746.325" cy="298.591" r="14.4" fill="#009af9" fill-rule="evenodd" fill-opacity="1" stroke="#000000" stroke-opacity="1" stroke-width="3.2"/>
<circle clip-path="url(#clip182)" cx="746.325" cy="436.098" r="14.4" fill="#009af9" fill-rule="evenodd" fill-opacity="1" stroke="#000000" stroke-opacity="1" stroke-width="3.2"/>
<circle clip-path="url(#clip182)" cx="746.325" cy="444.669" r="14.4" fill="#009af9" fill-rule="evenodd" fill-opacity="1" stroke="#000000" stroke-opacity="1" stroke-width="3.2"/>
<circle clip-path="url(#clip182)" cx="746.325" cy="393.786" r="14.4" fill="#009af9" fill-rule="evenodd" fill-opacity="1" stroke="#000000" stroke-opacity="1" stroke-width="3.2"/>
<circle clip-path="url(#clip182)" cx="746.325" cy="466.35" r="14.4" fill="#009af9" fill-rule="evenodd" fill-opacity="1" stroke="#000000" stroke-opacity="1" stroke-width="3.2"/>
<circle clip-path="url(#clip182)" cx="746.325" cy="353.721" r="14.4" fill="#009af9" fill-rule="evenodd" fill-opacity="1" stroke="#000000" stroke-opacity="1" stroke-width="3.2"/>
<circle clip-path="url(#clip182)" cx="746.325" cy="386.881" r="14.4" fill="#009af9" fill-rule="evenodd" fill-opacity="1" stroke="#000000" stroke-opacity="1" stroke-width="3.2"/>
<circle clip-path="url(#clip182)" cx="746.325" cy="260.052" r="14.4" fill="#009af9" fill-rule="evenodd" fill-opacity="1" stroke="#000000" stroke-opacity="1" stroke-width="3.2"/>
<circle clip-path="url(#clip182)" cx="746.325" cy="311.758" r="14.4" fill="#009af9" fill-rule="evenodd" fill-opacity="1" stroke="#000000" stroke-opacity="1" stroke-width="3.2"/>
<circle clip-path="url(#clip182)" cx="746.325" cy="466.478" r="14.4" fill="#009af9" fill-rule="evenodd" fill-opacity="1" stroke="#000000" stroke-opacity="1" stroke-width="3.2"/>
<circle clip-path="url(#clip182)" cx="746.325" cy="464.484" r="14.4" fill="#009af9" fill-rule="evenodd" fill-opacity="1" stroke="#000000" stroke-opacity="1" stroke-width="3.2"/>
<circle clip-path="url(#clip182)" cx="746.325" cy="1077.74" r="14.4" fill="#009af9" fill-rule="evenodd" fill-opacity="1" stroke="#000000" stroke-opacity="1" stroke-width="3.2"/>
<circle clip-path="url(#clip182)" cx="746.325" cy="383.878" r="14.4" fill="#009af9" fill-rule="evenodd" fill-opacity="1" stroke="#000000" stroke-opacity="1" stroke-width="3.2"/>
<circle clip-path="url(#clip182)" cx="746.325" cy="1447.87" r="14.4" fill="#009af9" fill-rule="evenodd" fill-opacity="1" stroke="#000000" stroke-opacity="1" stroke-width="3.2"/>
<circle clip-path="url(#clip182)" cx="746.325" cy="298.269" r="14.4" fill="#009af9" fill-rule="evenodd" fill-opacity="1" stroke="#000000" stroke-opacity="1" stroke-width="3.2"/>
<circle clip-path="url(#clip182)" cx="746.325" cy="461.305" r="14.4" fill="#009af9" fill-rule="evenodd" fill-opacity="1" stroke="#000000" stroke-opacity="1" stroke-width="3.2"/>
<circle clip-path="url(#clip182)" cx="746.325" cy="182.281" r="14.4" fill="#009af9" fill-rule="evenodd" fill-opacity="1" stroke="#000000" stroke-opacity="1" stroke-width="3.2"/>
<circle clip-path="url(#clip182)" cx="746.325" cy="162.047" r="14.4" fill="#009af9" fill-rule="evenodd" fill-opacity="1" stroke="#000000" stroke-opacity="1" stroke-width="3.2"/>
<circle clip-path="url(#clip182)" cx="746.325" cy="170.535" r="14.4" fill="#009af9" fill-rule="evenodd" fill-opacity="1" stroke="#000000" stroke-opacity="1" stroke-width="3.2"/>
<circle clip-path="url(#clip182)" cx="746.325" cy="372.549" r="14.4" fill="#009af9" fill-rule="evenodd" fill-opacity="1" stroke="#000000" stroke-opacity="1" stroke-width="3.2"/>
<circle clip-path="url(#clip182)" cx="746.325" cy="472.589" r="14.4" fill="#009af9" fill-rule="evenodd" fill-opacity="1" stroke="#000000" stroke-opacity="1" stroke-width="3.2"/>
<circle clip-path="url(#clip182)" cx="746.325" cy="374.199" r="14.4" fill="#009af9" fill-rule="evenodd" fill-opacity="1" stroke="#000000" stroke-opacity="1" stroke-width="3.2"/>
<circle clip-path="url(#clip182)" cx="746.325" cy="465.458" r="14.4" fill="#009af9" fill-rule="evenodd" fill-opacity="1" stroke="#000000" stroke-opacity="1" stroke-width="3.2"/>
<circle clip-path="url(#clip182)" cx="746.325" cy="381.588" r="14.4" fill="#009af9" fill-rule="evenodd" fill-opacity="1" stroke="#000000" stroke-opacity="1" stroke-width="3.2"/>
<circle clip-path="url(#clip182)" cx="746.325" cy="443.413" r="14.4" fill="#009af9" fill-rule="evenodd" fill-opacity="1" stroke="#000000" stroke-opacity="1" stroke-width="3.2"/>
<circle clip-path="url(#clip182)" cx="746.325" cy="1099.83" r="14.4" fill="#009af9" fill-rule="evenodd" fill-opacity="1" stroke="#000000" stroke-opacity="1" stroke-width="3.2"/>
<circle clip-path="url(#clip182)" cx="746.325" cy="356.107" r="14.4" fill="#009af9" fill-rule="evenodd" fill-opacity="1" stroke="#000000" stroke-opacity="1" stroke-width="3.2"/>
<circle clip-path="url(#clip182)" cx="746.325" cy="291.992" r="14.4" fill="#009af9" fill-rule="evenodd" fill-opacity="1" stroke="#000000" stroke-opacity="1" stroke-width="3.2"/>
<circle clip-path="url(#clip182)" cx="746.325" cy="462.004" r="14.4" fill="#009af9" fill-rule="evenodd" fill-opacity="1" stroke="#000000" stroke-opacity="1" stroke-width="3.2"/>
<polyline clip-path="url(#clip182)" style="stroke:#009af9; stroke-linecap:round; stroke-linejoin:round; stroke-width:0; stroke-opacity:1; fill:none" points="
  746.325,1043.84 525.358,1043.84 967.292,1043.84 746.325,1043.84 746.325,830.56 
  "/>
<polyline clip-path="url(#clip182)" style="stroke:#009af9; stroke-linecap:round; stroke-linejoin:round; stroke-width:0; stroke-opacity:1; fill:none" points="
  1188.26,830.56 1188.26,775.212 304.391,775.212 304.391,830.56 1188.26,830.56 1188.26,775.212 
  "/>
<polyline clip-path="url(#clip182)" style="stroke:#009af9; stroke-linecap:round; stroke-linejoin:round; stroke-width:0; stroke-opacity:1; fill:none" points="
  1188.26,687.519 304.391,687.519 304.391,775.212 1188.26,775.212 1188.26,687.519 746.325,687.519 
  "/>
<polyline clip-path="url(#clip182)" style="stroke:#009af9; stroke-linecap:round; stroke-linejoin:round; stroke-width:0; stroke-opacity:1; fill:none" points="
  746.325,478.134 525.358,478.134 967.292,478.134 746.325,478.134 746.325,687.519 
  "/>
<path clip-path="url(#clip182)" d="
M1851.16 972.341 L1630.19 972.341 L2072.13 972.341 L1851.16 972.341 L1851.16 851.911 L1851.16 972.341  Z
  " fill="#e26f46" fill-rule="evenodd" fill-opacity="1"/>
<polyline clip-path="url(#clip182)" style="stroke:#000000; stroke-linecap:round; stroke-linejoin:round; stroke-width:4; stroke-opacity:1; fill:none" points="
  1851.16,972.341 1630.19,972.341 2072.13,972.341 1851.16,972.341 1851.16,851.911 1851.16,972.341 
  "/>
<path clip-path="url(#clip182)" d="
M2293.09 851.911 L2293.09 819.224 L1409.23 819.224 L1409.23 851.911 L2293.09 851.911 L2293.09 819.224 L2293.09 851.911  Z
  " fill="#e26f46" fill-rule="evenodd" fill-opacity="1"/>
<polyline clip-path="url(#clip182)" style="stroke:#000000; stroke-linecap:round; stroke-linejoin:round; stroke-width:4; stroke-opacity:1; fill:none" points="
  2293.09,851.911 2293.09,819.224 1409.23,819.224 1409.23,851.911 2293.09,851.911 2293.09,819.224 2293.09,851.911 
  "/>
<path clip-path="url(#clip182)" d="
M2293.09 768.907 L1409.23 768.907 L1409.23 819.224 L2293.09 819.224 L2293.09 768.907 L1851.16 768.907 L2293.09 768.907  Z
  " fill="#e26f46" fill-rule="evenodd" fill-opacity="1"/>
<polyline clip-path="url(#clip182)" style="stroke:#000000; stroke-linecap:round; stroke-linejoin:round; stroke-width:4; stroke-opacity:1; fill:none" points="
  2293.09,768.907 1409.23,768.907 1409.23,819.224 2293.09,819.224 2293.09,768.907 1851.16,768.907 2293.09,768.907 
  "/>
<path clip-path="url(#clip182)" d="
M1851.16 645.298 L1630.19 645.298 L2072.13 645.298 L1851.16 645.298 L1851.16 768.907 L1851.16 645.298  Z
  " fill="#e26f46" fill-rule="evenodd" fill-opacity="1"/>
<polyline clip-path="url(#clip182)" style="stroke:#000000; stroke-linecap:round; stroke-linejoin:round; stroke-width:4; stroke-opacity:1; fill:none" points="
  1851.16,645.298 1630.19,645.298 2072.13,645.298 1851.16,645.298 1851.16,768.907 1851.16,645.298 
  "/>
<circle clip-path="url(#clip182)" cx="1851.16" cy="546.163" r="14.4" fill="#e26f46" fill-rule="evenodd" fill-opacity="1" stroke="#000000" stroke-opacity="1" stroke-width="3.2"/>
<circle clip-path="url(#clip182)" cx="1851.16" cy="631.381" r="14.4" fill="#e26f46" fill-rule="evenodd" fill-opacity="1" stroke="#000000" stroke-opacity="1" stroke-width="3.2"/>
<circle clip-path="url(#clip182)" cx="1851.16" cy="614.854" r="14.4" fill="#e26f46" fill-rule="evenodd" fill-opacity="1" stroke="#000000" stroke-opacity="1" stroke-width="3.2"/>
<circle clip-path="url(#clip182)" cx="1851.16" cy="579.184" r="14.4" fill="#e26f46" fill-rule="evenodd" fill-opacity="1" stroke="#000000" stroke-opacity="1" stroke-width="3.2"/>
<circle clip-path="url(#clip182)" cx="1851.16" cy="579.819" r="14.4" fill="#e26f46" fill-rule="evenodd" fill-opacity="1" stroke="#000000" stroke-opacity="1" stroke-width="3.2"/>
<circle clip-path="url(#clip182)" cx="1851.16" cy="456.715" r="14.4" fill="#e26f46" fill-rule="evenodd" fill-opacity="1" stroke="#000000" stroke-opacity="1" stroke-width="3.2"/>
<circle clip-path="url(#clip182)" cx="1851.16" cy="623.042" r="14.4" fill="#e26f46" fill-rule="evenodd" fill-opacity="1" stroke="#000000" stroke-opacity="1" stroke-width="3.2"/>
<circle clip-path="url(#clip182)" cx="1851.16" cy="592.892" r="14.4" fill="#e26f46" fill-rule="evenodd" fill-opacity="1" stroke="#000000" stroke-opacity="1" stroke-width="3.2"/>
<circle clip-path="url(#clip182)" cx="1851.16" cy="538.889" r="14.4" fill="#e26f46" fill-rule="evenodd" fill-opacity="1" stroke="#000000" stroke-opacity="1" stroke-width="3.2"/>
<circle clip-path="url(#clip182)" cx="1851.16" cy="629.894" r="14.4" fill="#e26f46" fill-rule="evenodd" fill-opacity="1" stroke="#000000" stroke-opacity="1" stroke-width="3.2"/>
<circle clip-path="url(#clip182)" cx="1851.16" cy="459.049" r="14.4" fill="#e26f46" fill-rule="evenodd" fill-opacity="1" stroke="#000000" stroke-opacity="1" stroke-width="3.2"/>
<circle clip-path="url(#clip182)" cx="1851.16" cy="586.671" r="14.4" fill="#e26f46" fill-rule="evenodd" fill-opacity="1" stroke="#000000" stroke-opacity="1" stroke-width="3.2"/>
<circle clip-path="url(#clip182)" cx="1851.16" cy="622.445" r="14.4" fill="#e26f46" fill-rule="evenodd" fill-opacity="1" stroke="#000000" stroke-opacity="1" stroke-width="3.2"/>
<circle clip-path="url(#clip182)" cx="1851.16" cy="533.389" r="14.4" fill="#e26f46" fill-rule="evenodd" fill-opacity="1" stroke="#000000" stroke-opacity="1" stroke-width="3.2"/>
<circle clip-path="url(#clip182)" cx="1851.16" cy="637.572" r="14.4" fill="#e26f46" fill-rule="evenodd" fill-opacity="1" stroke="#000000" stroke-opacity="1" stroke-width="3.2"/>
<circle clip-path="url(#clip182)" cx="1851.16" cy="584.701" r="14.4" fill="#e26f46" fill-rule="evenodd" fill-opacity="1" stroke="#000000" stroke-opacity="1" stroke-width="3.2"/>
<circle clip-path="url(#clip182)" cx="1851.16" cy="501.007" r="14.4" fill="#e26f46" fill-rule="evenodd" fill-opacity="1" stroke="#000000" stroke-opacity="1" stroke-width="3.2"/>
<circle clip-path="url(#clip182)" cx="1851.16" cy="584.442" r="14.4" fill="#e26f46" fill-rule="evenodd" fill-opacity="1" stroke="#000000" stroke-opacity="1" stroke-width="3.2"/>
<circle clip-path="url(#clip182)" cx="1851.16" cy="508.526" r="14.4" fill="#e26f46" fill-rule="evenodd" fill-opacity="1" stroke="#000000" stroke-opacity="1" stroke-width="3.2"/>
<circle clip-path="url(#clip182)" cx="1851.16" cy="1135.92" r="14.4" fill="#e26f46" fill-rule="evenodd" fill-opacity="1" stroke="#000000" stroke-opacity="1" stroke-width="3.2"/>
<circle clip-path="url(#clip182)" cx="1851.16" cy="1042.38" r="14.4" fill="#e26f46" fill-rule="evenodd" fill-opacity="1" stroke="#000000" stroke-opacity="1" stroke-width="3.2"/>
<circle clip-path="url(#clip182)" cx="1851.16" cy="622.163" r="14.4" fill="#e26f46" fill-rule="evenodd" fill-opacity="1" stroke="#000000" stroke-opacity="1" stroke-width="3.2"/>
<circle clip-path="url(#clip182)" cx="1851.16" cy="536.129" r="14.4" fill="#e26f46" fill-rule="evenodd" fill-opacity="1" stroke="#000000" stroke-opacity="1" stroke-width="3.2"/>
<circle clip-path="url(#clip182)" cx="1851.16" cy="541.152" r="14.4" fill="#e26f46" fill-rule="evenodd" fill-opacity="1" stroke="#000000" stroke-opacity="1" stroke-width="3.2"/>
<circle clip-path="url(#clip182)" cx="1851.16" cy="538.465" r="14.4" fill="#e26f46" fill-rule="evenodd" fill-opacity="1" stroke="#000000" stroke-opacity="1" stroke-width="3.2"/>
<circle clip-path="url(#clip182)" cx="1851.16" cy="638.891" r="14.4" fill="#e26f46" fill-rule="evenodd" fill-opacity="1" stroke="#000000" stroke-opacity="1" stroke-width="3.2"/>
<circle clip-path="url(#clip182)" cx="1851.16" cy="485.752" r="14.4" fill="#e26f46" fill-rule="evenodd" fill-opacity="1" stroke="#000000" stroke-opacity="1" stroke-width="3.2"/>
<circle clip-path="url(#clip182)" cx="1851.16" cy="535.804" r="14.4" fill="#e26f46" fill-rule="evenodd" fill-opacity="1" stroke="#000000" stroke-opacity="1" stroke-width="3.2"/>
<circle clip-path="url(#clip182)" cx="1851.16" cy="618.016" r="14.4" fill="#e26f46" fill-rule="evenodd" fill-opacity="1" stroke="#000000" stroke-opacity="1" stroke-width="3.2"/>
<polyline clip-path="url(#clip182)" style="stroke:#e26f46; stroke-linecap:round; stroke-linejoin:round; stroke-width:0; stroke-opacity:1; fill:none" points="
  1851.16,972.341 1630.19,972.341 2072.13,972.341 1851.16,972.341 1851.16,851.911 
  "/>
<polyline clip-path="url(#clip182)" style="stroke:#e26f46; stroke-linecap:round; stroke-linejoin:round; stroke-width:0; stroke-opacity:1; fill:none" points="
  2293.09,851.911 2293.09,819.224 1409.23,819.224 1409.23,851.911 2293.09,851.911 2293.09,819.224 
  "/>
<polyline clip-path="url(#clip182)" style="stroke:#e26f46; stroke-linecap:round; stroke-linejoin:round; stroke-width:0; stroke-opacity:1; fill:none" points="
  2293.09,768.907 1409.23,768.907 1409.23,819.224 2293.09,819.224 2293.09,768.907 1851.16,768.907 
  "/>
<polyline clip-path="url(#clip182)" style="stroke:#e26f46; stroke-linecap:round; stroke-linejoin:round; stroke-width:0; stroke-opacity:1; fill:none" points="
  1851.16,645.298 1630.19,645.298 2072.13,645.298 1851.16,645.298 1851.16,768.907 
  "/>
</svg>
