<?xml version="1.0" encoding="utf-8"?>
<svg xmlns="http://www.w3.org/2000/svg" xmlns:xlink="http://www.w3.org/1999/xlink" width="600" height="400" viewBox="0 0 2400 1600">
<defs>
  <clipPath id="clip010">
    <rect x="0" y="0" width="2400" height="1600"/>
  </clipPath>
</defs>
<path clip-path="url(#clip010)" d="
M0 1600 L2400 1600 L2400 0 L0 0  Z
  " fill="#ffffff" fill-rule="evenodd" fill-opacity="1"/>
<defs>
  <clipPath id="clip011">
    <rect x="480" y="0" width="1681" height="1600"/>
  </clipPath>
</defs>
<path clip-path="url(#clip010)" d="
M244.73 1486.45 L2352.76 1486.45 L2352.76 123.472 L244.73 123.472  Z
  " fill="#ffffff" fill-rule="evenodd" fill-opacity="1"/>
<defs>
  <clipPath id="clip012">
    <rect x="244" y="123" width="2109" height="1364"/>
  </clipPath>
</defs>
<polyline clip-path="url(#clip012)" style="stroke:#000000; stroke-linecap:round; stroke-linejoin:round; stroke-width:2; stroke-opacity:0.1; fill:none" points="
  746.325,1486.45 746.325,123.472 
  "/>
<polyline clip-path="url(#clip012)" style="stroke:#000000; stroke-linecap:round; stroke-linejoin:round; stroke-width:2; stroke-opacity:0.1; fill:none" points="
  1851.16,1486.45 1851.16,123.472 
  "/>
<polyline clip-path="url(#clip010)" style="stroke:#000000; stroke-linecap:round; stroke-linejoin:round; stroke-width:4; stroke-opacity:1; fill:none" points="
  244.73,1486.45 2352.76,1486.45 
  "/>
<polyline clip-path="url(#clip010)" style="stroke:#000000; stroke-linecap:round; stroke-linejoin:round; stroke-width:4; stroke-opacity:1; fill:none" points="
  746.325,1486.45 746.325,1467.55 
  "/>
<polyline clip-path="url(#clip010)" style="stroke:#000000; stroke-linecap:round; stroke-linejoin:round; stroke-width:4; stroke-opacity:1; fill:none" points="
  1851.16,1486.45 1851.16,1467.55 
  "/>
<path clip-path="url(#clip010)" d="M396.015 1518.13 L396.015 1531.12 L401.894 1531.12 Q405.158 1531.12 406.941 1529.43 Q408.723 1527.74 408.723 1524.61 Q408.723 1521.51 406.941 1519.82 Q405.158 1518.13 401.894 1518.13 L396.015 1518.13 M391.339 1514.29 L401.894 1514.29 Q407.704 1514.29 410.667 1516.93 Q413.654 1519.54 413.654 1524.61 Q413.654 1529.73 410.667 1532.34 Q407.704 1534.96 401.894 1534.96 L396.015 1534.96 L396.015 1548.85 L391.339 1548.85 L391.339 1514.29 Z" fill="#000000" fill-rule="evenodd" fill-opacity="1" /><path clip-path="url(#clip010)" d="M433.931 1526.9 Q433.214 1526.49 432.357 1526.3 Q431.524 1526.09 430.505 1526.09 Q426.894 1526.09 424.95 1528.45 Q423.028 1530.79 423.028 1535.19 L423.028 1548.85 L418.746 1548.85 L418.746 1522.92 L423.028 1522.92 L423.028 1526.95 Q424.371 1524.59 426.524 1523.45 Q428.677 1522.3 431.755 1522.3 Q432.195 1522.3 432.728 1522.37 Q433.26 1522.41 433.908 1522.53 L433.931 1526.9 Z" fill="#000000" fill-rule="evenodd" fill-opacity="1" /><path clip-path="url(#clip010)" d="M447.403 1525.91 Q443.977 1525.91 441.987 1528.59 Q439.996 1531.26 439.996 1535.91 Q439.996 1540.56 441.964 1543.25 Q443.954 1545.91 447.403 1545.91 Q450.806 1545.91 452.797 1543.22 Q454.788 1540.54 454.788 1535.91 Q454.788 1531.3 452.797 1528.62 Q450.806 1525.91 447.403 1525.91 M447.403 1522.3 Q452.959 1522.3 456.13 1525.91 Q459.301 1529.52 459.301 1535.91 Q459.301 1542.27 456.13 1545.91 Q452.959 1549.52 447.403 1549.52 Q441.825 1549.52 438.653 1545.91 Q435.505 1542.27 435.505 1535.91 Q435.505 1529.52 438.653 1525.91 Q441.825 1522.3 447.403 1522.3 Z" fill="#000000" fill-rule="evenodd" fill-opacity="1" /><path clip-path="url(#clip010)" d="M483.422 1526.86 L483.422 1512.83 L487.681 1512.83 L487.681 1548.85 L483.422 1548.85 L483.422 1544.96 Q482.079 1547.27 480.019 1548.41 Q477.982 1549.52 475.112 1549.52 Q470.412 1549.52 467.45 1545.77 Q464.51 1542.02 464.51 1535.91 Q464.51 1529.8 467.45 1526.05 Q470.412 1522.3 475.112 1522.3 Q477.982 1522.3 480.019 1523.43 Q482.079 1524.54 483.422 1526.86 M468.908 1535.91 Q468.908 1540.61 470.829 1543.29 Q472.774 1545.95 476.153 1545.95 Q479.533 1545.95 481.477 1543.29 Q483.422 1540.61 483.422 1535.91 Q483.422 1531.21 481.477 1528.55 Q479.533 1525.86 476.153 1525.86 Q472.774 1525.86 470.829 1528.55 Q468.908 1531.21 468.908 1535.91 Z" fill="#000000" fill-rule="evenodd" fill-opacity="1" /><path clip-path="url(#clip010)" d="M496.014 1538.62 L496.014 1522.92 L500.273 1522.92 L500.273 1538.45 Q500.273 1542.13 501.709 1543.99 Q503.144 1545.82 506.014 1545.82 Q509.463 1545.82 511.454 1543.62 Q513.468 1541.42 513.468 1537.62 L513.468 1522.92 L517.727 1522.92 L517.727 1548.85 L513.468 1548.85 L513.468 1544.87 Q511.917 1547.23 509.857 1548.38 Q507.82 1549.52 505.111 1549.52 Q500.644 1549.52 498.329 1546.74 Q496.014 1543.96 496.014 1538.62 M506.732 1522.3 L506.732 1522.3 Z" fill="#000000" fill-rule="evenodd" fill-opacity="1" /><path clip-path="url(#clip010)" d="M545.157 1523.92 L545.157 1527.9 Q543.352 1526.9 541.523 1526.42 Q539.718 1525.91 537.866 1525.91 Q533.722 1525.91 531.431 1528.55 Q529.139 1531.16 529.139 1535.91 Q529.139 1540.65 531.431 1543.29 Q533.722 1545.91 537.866 1545.91 Q539.718 1545.91 541.523 1545.42 Q543.352 1544.91 545.157 1543.92 L545.157 1547.85 Q543.375 1548.69 541.454 1549.1 Q539.556 1549.52 537.403 1549.52 Q531.546 1549.52 528.097 1545.84 Q524.648 1542.16 524.648 1535.91 Q524.648 1529.57 528.121 1525.93 Q531.616 1522.3 537.681 1522.3 Q539.648 1522.3 541.523 1522.71 Q543.398 1523.11 545.157 1523.92 Z" fill="#000000" fill-rule="evenodd" fill-opacity="1" /><path clip-path="url(#clip010)" d="M574.741 1534.82 L574.741 1536.9 L555.157 1536.9 Q555.435 1541.3 557.796 1543.62 Q560.181 1545.91 564.417 1545.91 Q566.87 1545.91 569.162 1545.31 Q571.477 1544.7 573.745 1543.5 L573.745 1547.53 Q571.454 1548.5 569.046 1549.01 Q566.639 1549.52 564.162 1549.52 Q557.958 1549.52 554.324 1545.91 Q550.713 1542.3 550.713 1536.14 Q550.713 1529.77 554.139 1526.05 Q557.588 1522.3 563.421 1522.3 Q568.653 1522.3 571.685 1525.68 Q574.741 1529.03 574.741 1534.82 M570.481 1533.57 Q570.435 1530.07 568.514 1527.99 Q566.616 1525.91 563.468 1525.91 Q559.903 1525.91 557.75 1527.92 Q555.62 1529.94 555.296 1533.59 L570.481 1533.57 Z" fill="#000000" fill-rule="evenodd" fill-opacity="1" /><path clip-path="url(#clip010)" d="M603.282 1533.2 L603.282 1548.85 L599.023 1548.85 L599.023 1533.34 Q599.023 1529.66 597.588 1527.83 Q596.153 1526 593.282 1526 Q589.833 1526 587.842 1528.2 Q585.852 1530.4 585.852 1534.2 L585.852 1548.85 L581.569 1548.85 L581.569 1522.92 L585.852 1522.92 L585.852 1526.95 Q587.379 1524.61 589.44 1523.45 Q591.523 1522.3 594.231 1522.3 Q598.699 1522.3 600.99 1525.07 Q603.282 1527.83 603.282 1533.2 Z" fill="#000000" fill-rule="evenodd" fill-opacity="1" /><path clip-path="url(#clip010)" d="M615.99 1515.56 L615.99 1522.92 L624.764 1522.92 L624.764 1526.23 L615.99 1526.23 L615.99 1540.31 Q615.99 1543.48 616.847 1544.38 Q617.727 1545.28 620.389 1545.28 L624.764 1545.28 L624.764 1548.85 L620.389 1548.85 Q615.458 1548.85 613.583 1547.02 Q611.708 1545.17 611.708 1540.31 L611.708 1526.23 L608.583 1526.23 L608.583 1522.92 L611.708 1522.92 L611.708 1515.56 L615.99 1515.56 Z" fill="#000000" fill-rule="evenodd" fill-opacity="1" /><path clip-path="url(#clip010)" d="M666.986 1533.2 L666.986 1548.85 L662.726 1548.85 L662.726 1533.34 Q662.726 1529.66 661.291 1527.83 Q659.856 1526 656.986 1526 Q653.537 1526 651.546 1528.2 Q649.555 1530.4 649.555 1534.2 L649.555 1548.85 L645.273 1548.85 L645.273 1522.92 L649.555 1522.92 L649.555 1526.95 Q651.083 1524.61 653.143 1523.45 Q655.226 1522.3 657.935 1522.3 Q662.402 1522.3 664.694 1525.07 Q666.986 1527.83 666.986 1533.2 Z" fill="#000000" fill-rule="evenodd" fill-opacity="1" /><path clip-path="url(#clip010)" d="M675.481 1522.92 L679.74 1522.92 L679.74 1548.85 L675.481 1548.85 L675.481 1522.92 M675.481 1512.83 L679.74 1512.83 L679.74 1518.22 L675.481 1518.22 L675.481 1512.83 Z" fill="#000000" fill-rule="evenodd" fill-opacity="1" /><path clip-path="url(#clip010)" d="M710.828 1534.82 L710.828 1536.9 L691.245 1536.9 Q691.522 1541.3 693.884 1543.62 Q696.268 1545.91 700.504 1545.91 Q702.958 1545.91 705.249 1545.31 Q707.564 1544.7 709.833 1543.5 L709.833 1547.53 Q707.541 1548.5 705.133 1549.01 Q702.726 1549.52 700.249 1549.52 Q694.046 1549.52 690.411 1545.91 Q686.8 1542.3 686.8 1536.14 Q686.8 1529.77 690.226 1526.05 Q693.675 1522.3 699.508 1522.3 Q704.74 1522.3 707.772 1525.68 Q710.828 1529.03 710.828 1534.82 M706.569 1533.57 Q706.522 1530.07 704.601 1527.99 Q702.703 1525.91 699.555 1525.91 Q695.99 1525.91 693.837 1527.92 Q691.708 1529.94 691.384 1533.59 L706.569 1533.57 Z" fill="#000000" fill-rule="evenodd" fill-opacity="1" /><path clip-path="url(#clip010)" d="M737.008 1544.96 L737.008 1558.71 L732.726 1558.71 L732.726 1522.92 L737.008 1522.92 L737.008 1526.86 Q738.351 1524.54 740.388 1523.43 Q742.448 1522.3 745.295 1522.3 Q750.017 1522.3 752.957 1526.05 Q755.92 1529.8 755.92 1535.91 Q755.92 1542.02 752.957 1545.77 Q750.017 1549.52 745.295 1549.52 Q742.448 1549.52 740.388 1548.41 Q738.351 1547.27 737.008 1544.96 M751.499 1535.91 Q751.499 1531.21 749.555 1528.55 Q747.633 1525.86 744.254 1525.86 Q740.874 1525.86 738.93 1528.55 Q737.008 1531.21 737.008 1535.91 Q737.008 1540.61 738.93 1543.29 Q740.874 1545.95 744.254 1545.95 Q747.633 1545.95 749.555 1543.29 Q751.499 1540.61 751.499 1535.91 Z" fill="#000000" fill-rule="evenodd" fill-opacity="1" /><path clip-path="url(#clip010)" d="M778.003 1526.9 Q777.286 1526.49 776.429 1526.3 Q775.596 1526.09 774.578 1526.09 Q770.966 1526.09 769.022 1528.45 Q767.101 1530.79 767.101 1535.19 L767.101 1548.85 L762.818 1548.85 L762.818 1522.92 L767.101 1522.92 L767.101 1526.95 Q768.443 1524.59 770.596 1523.45 Q772.749 1522.3 775.828 1522.3 Q776.267 1522.3 776.8 1522.37 Q777.332 1522.41 777.98 1522.53 L778.003 1526.9 Z" fill="#000000" fill-rule="evenodd" fill-opacity="1" /><path clip-path="url(#clip010)" d="M791.476 1525.91 Q788.05 1525.91 786.059 1528.59 Q784.068 1531.26 784.068 1535.91 Q784.068 1540.56 786.036 1543.25 Q788.027 1545.91 791.476 1545.91 Q794.878 1545.91 796.869 1543.22 Q798.86 1540.54 798.86 1535.91 Q798.86 1531.3 796.869 1528.62 Q794.878 1525.91 791.476 1525.91 M791.476 1522.3 Q797.031 1522.3 800.202 1525.91 Q803.374 1529.52 803.374 1535.91 Q803.374 1542.27 800.202 1545.91 Q797.031 1549.52 791.476 1549.52 Q785.897 1549.52 782.726 1545.91 Q779.578 1542.27 779.578 1535.91 Q779.578 1529.52 782.726 1525.91 Q785.897 1522.3 791.476 1522.3 Z" fill="#000000" fill-rule="evenodd" fill-opacity="1" /><path clip-path="url(#clip010)" d="M807.957 1522.92 L812.216 1522.92 L817.54 1543.15 L822.841 1522.92 L827.864 1522.92 L833.188 1543.15 L838.489 1522.92 L842.748 1522.92 L835.966 1548.85 L830.943 1548.85 L825.364 1527.6 L819.762 1548.85 L814.739 1548.85 L807.957 1522.92 Z" fill="#000000" fill-rule="evenodd" fill-opacity="1" /><path clip-path="url(#clip010)" d="M860.989 1535.82 Q855.827 1535.82 853.836 1537 Q851.846 1538.18 851.846 1541.02 Q851.846 1543.29 853.327 1544.63 Q854.832 1545.95 857.401 1545.95 Q860.943 1545.95 863.072 1543.45 Q865.225 1540.93 865.225 1536.76 L865.225 1535.82 L860.989 1535.82 M869.484 1534.06 L869.484 1548.85 L865.225 1548.85 L865.225 1544.91 Q863.767 1547.27 861.591 1548.41 Q859.415 1549.52 856.267 1549.52 Q852.285 1549.52 849.924 1547.3 Q847.586 1545.05 847.586 1541.3 Q847.586 1536.93 850.503 1534.7 Q853.443 1532.48 859.253 1532.48 L865.225 1532.48 L865.225 1532.07 Q865.225 1529.13 863.281 1527.53 Q861.359 1525.91 857.864 1525.91 Q855.642 1525.91 853.535 1526.44 Q851.429 1526.97 849.485 1528.04 L849.485 1524.1 Q851.822 1523.2 854.022 1522.76 Q856.221 1522.3 858.304 1522.3 Q863.929 1522.3 866.707 1525.21 Q869.484 1528.13 869.484 1534.06 Z" fill="#000000" fill-rule="evenodd" fill-opacity="1" /><path clip-path="url(#clip010)" d="M895.318 1526.86 L895.318 1512.83 L899.577 1512.83 L899.577 1548.85 L895.318 1548.85 L895.318 1544.96 Q893.975 1547.27 891.915 1548.41 Q889.878 1549.52 887.007 1549.52 Q882.308 1549.52 879.345 1545.77 Q876.406 1542.02 876.406 1535.91 Q876.406 1529.8 879.345 1526.05 Q882.308 1522.3 887.007 1522.3 Q889.878 1522.3 891.915 1523.43 Q893.975 1524.54 895.318 1526.86 M880.804 1535.91 Q880.804 1540.61 882.725 1543.29 Q884.67 1545.95 888.049 1545.95 Q891.429 1545.95 893.373 1543.29 Q895.318 1540.61 895.318 1535.91 Q895.318 1531.21 893.373 1528.55 Q891.429 1525.86 888.049 1525.86 Q884.67 1525.86 882.725 1528.55 Q880.804 1531.21 880.804 1535.91 Z" fill="#000000" fill-rule="evenodd" fill-opacity="1" /><path clip-path="url(#clip010)" d="M906.498 1522.92 L926.729 1522.92 L926.729 1526.81 L910.711 1545.45 L926.729 1545.45 L926.729 1548.85 L905.919 1548.85 L905.919 1544.96 L921.938 1526.32 L906.498 1526.32 L906.498 1522.92 Z" fill="#000000" fill-rule="evenodd" fill-opacity="1" /><path clip-path="url(#clip010)" d="M933.234 1522.92 L937.493 1522.92 L937.493 1548.85 L933.234 1548.85 L933.234 1522.92 M933.234 1512.83 L937.493 1512.83 L937.493 1518.22 L933.234 1518.22 L933.234 1512.83 Z" fill="#000000" fill-rule="evenodd" fill-opacity="1" /><path clip-path="url(#clip010)" d="M980.086 1535.91 Q980.086 1531.21 978.141 1528.55 Q976.22 1525.86 972.84 1525.86 Q969.461 1525.86 967.516 1528.55 Q965.595 1531.21 965.595 1535.91 Q965.595 1540.61 967.516 1543.29 Q969.461 1545.95 972.84 1545.95 Q976.22 1545.95 978.141 1543.29 Q980.086 1540.61 980.086 1535.91 M965.595 1526.86 Q966.938 1524.54 968.975 1523.43 Q971.035 1522.3 973.882 1522.3 Q978.604 1522.3 981.544 1526.05 Q984.507 1529.8 984.507 1535.91 Q984.507 1542.02 981.544 1545.77 Q978.604 1549.52 973.882 1549.52 Q971.035 1549.52 968.975 1548.41 Q966.938 1547.27 965.595 1544.96 L965.595 1548.85 L961.313 1548.85 L961.313 1512.83 L965.595 1512.83 L965.595 1526.86 Z" fill="#000000" fill-rule="evenodd" fill-opacity="1" /><path clip-path="url(#clip010)" d="M1003.35 1535.82 Q998.187 1535.82 996.197 1537 Q994.206 1538.18 994.206 1541.02 Q994.206 1543.29 995.687 1544.63 Q997.192 1545.95 999.762 1545.95 Q1003.3 1545.95 1005.43 1543.45 Q1007.59 1540.93 1007.59 1536.76 L1007.59 1535.82 L1003.35 1535.82 M1011.84 1534.06 L1011.84 1548.85 L1007.59 1548.85 L1007.59 1544.91 Q1006.13 1547.27 1003.95 1548.41 Q1001.78 1549.52 998.627 1549.52 Q994.646 1549.52 992.285 1547.3 Q989.947 1545.05 989.947 1541.3 Q989.947 1536.93 992.863 1534.7 Q995.803 1532.48 1001.61 1532.48 L1007.59 1532.48 L1007.59 1532.07 Q1007.59 1529.13 1005.64 1527.53 Q1003.72 1525.91 1000.22 1525.91 Q998.002 1525.91 995.896 1526.44 Q993.789 1526.97 991.845 1528.04 L991.845 1524.1 Q994.183 1523.2 996.382 1522.76 Q998.581 1522.3 1000.66 1522.3 Q1006.29 1522.3 1009.07 1525.21 Q1011.84 1528.13 1011.84 1534.06 Z" fill="#000000" fill-rule="evenodd" fill-opacity="1" /><path clip-path="url(#clip010)" d="M1037.68 1526.86 L1037.68 1512.83 L1041.94 1512.83 L1041.94 1548.85 L1037.68 1548.85 L1037.68 1544.96 Q1036.34 1547.27 1034.28 1548.41 Q1032.24 1549.52 1029.37 1549.52 Q1024.67 1549.52 1021.71 1545.77 Q1018.77 1542.02 1018.77 1535.91 Q1018.77 1529.8 1021.71 1526.05 Q1024.67 1522.3 1029.37 1522.3 Q1032.24 1522.3 1034.28 1523.43 Q1036.34 1524.54 1037.68 1526.86 M1023.16 1535.91 Q1023.16 1540.61 1025.09 1543.29 Q1027.03 1545.95 1030.41 1545.95 Q1033.79 1545.95 1035.73 1543.29 Q1037.68 1540.61 1037.68 1535.91 Q1037.68 1531.21 1035.73 1528.55 Q1033.79 1525.86 1030.41 1525.86 Q1027.03 1525.86 1025.09 1528.55 Q1023.16 1531.21 1023.16 1535.91 Z" fill="#000000" fill-rule="evenodd" fill-opacity="1" /><path clip-path="url(#clip010)" d="M1062.49 1535.82 Q1057.33 1535.82 1055.34 1537 Q1053.35 1538.18 1053.35 1541.02 Q1053.35 1543.29 1054.83 1544.63 Q1056.34 1545.95 1058.9 1545.95 Q1062.45 1545.95 1064.58 1543.45 Q1066.73 1540.93 1066.73 1536.76 L1066.73 1535.82 L1062.49 1535.82 M1070.99 1534.06 L1070.99 1548.85 L1066.73 1548.85 L1066.73 1544.91 Q1065.27 1547.27 1063.09 1548.41 Q1060.92 1549.52 1057.77 1549.52 Q1053.79 1549.52 1051.43 1547.3 Q1049.09 1545.05 1049.09 1541.3 Q1049.09 1536.93 1052.01 1534.7 Q1054.95 1532.48 1060.76 1532.48 L1066.73 1532.48 L1066.73 1532.07 Q1066.73 1529.13 1064.78 1527.53 Q1062.86 1525.91 1059.37 1525.91 Q1057.15 1525.91 1055.04 1526.44 Q1052.93 1526.97 1050.99 1528.04 L1050.99 1524.1 Q1053.33 1523.2 1055.53 1522.76 Q1057.72 1522.3 1059.81 1522.3 Q1065.43 1522.3 1068.21 1525.21 Q1070.99 1528.13 1070.99 1534.06 Z" fill="#000000" fill-rule="evenodd" fill-opacity="1" /><path clip-path="url(#clip010)" d="M1091.89 1510.77 L1096.5 1510.77 L1088.95 1519.47 L1085.41 1519.47 L1091.89 1510.77 M1101.31 1533.2 L1101.31 1548.85 L1097.05 1548.85 L1097.05 1533.34 Q1097.05 1529.66 1095.62 1527.83 Q1094.18 1526 1091.31 1526 Q1087.86 1526 1085.87 1528.2 Q1083.88 1530.4 1083.88 1534.2 L1083.88 1548.85 L1079.6 1548.85 L1079.6 1522.92 L1083.88 1522.92 L1083.88 1526.95 Q1085.41 1524.61 1087.47 1523.45 Q1089.55 1522.3 1092.26 1522.3 Q1096.73 1522.3 1099.02 1525.07 Q1101.31 1527.83 1101.31 1533.2 Z" fill="#000000" fill-rule="evenodd" fill-opacity="1" /><path clip-path="url(#clip010)" d="M1523.6 1518.13 L1523.6 1531.12 L1529.48 1531.12 Q1532.75 1531.12 1534.53 1529.43 Q1536.31 1527.74 1536.31 1524.61 Q1536.31 1521.51 1534.53 1519.82 Q1532.75 1518.13 1529.48 1518.13 L1523.6 1518.13 M1518.93 1514.29 L1529.48 1514.29 Q1535.29 1514.29 1538.26 1516.93 Q1541.24 1519.54 1541.24 1524.61 Q1541.24 1529.73 1538.26 1532.34 Q1535.29 1534.96 1529.48 1534.96 L1523.6 1534.96 L1523.6 1548.85 L1518.93 1548.85 L1518.93 1514.29 Z" fill="#000000" fill-rule="evenodd" fill-opacity="1" /><path clip-path="url(#clip010)" d="M1561.52 1526.9 Q1560.8 1526.49 1559.95 1526.3 Q1559.11 1526.09 1558.1 1526.09 Q1554.48 1526.09 1552.54 1528.45 Q1550.62 1530.79 1550.62 1535.19 L1550.62 1548.85 L1546.34 1548.85 L1546.34 1522.92 L1550.62 1522.92 L1550.62 1526.95 Q1551.96 1524.59 1554.11 1523.45 Q1556.27 1522.3 1559.35 1522.3 Q1559.78 1522.3 1560.32 1522.37 Q1560.85 1522.41 1561.5 1522.53 L1561.52 1526.9 Z" fill="#000000" fill-rule="evenodd" fill-opacity="1" /><path clip-path="url(#clip010)" d="M1574.99 1525.91 Q1571.57 1525.91 1569.58 1528.59 Q1567.59 1531.26 1567.59 1535.91 Q1567.59 1540.56 1569.55 1543.25 Q1571.54 1545.91 1574.99 1545.91 Q1578.4 1545.91 1580.39 1543.22 Q1582.38 1540.54 1582.38 1535.91 Q1582.38 1531.3 1580.39 1528.62 Q1578.4 1525.91 1574.99 1525.91 M1574.99 1522.3 Q1580.55 1522.3 1583.72 1525.91 Q1586.89 1529.52 1586.89 1535.91 Q1586.89 1542.27 1583.72 1545.91 Q1580.55 1549.52 1574.99 1549.52 Q1569.41 1549.52 1566.24 1545.91 Q1563.1 1542.27 1563.1 1535.91 Q1563.1 1529.52 1566.24 1525.91 Q1569.41 1522.3 1574.99 1522.3 Z" fill="#000000" fill-rule="evenodd" fill-opacity="1" /><path clip-path="url(#clip010)" d="M1611.01 1526.86 L1611.01 1512.83 L1615.27 1512.83 L1615.27 1548.85 L1611.01 1548.85 L1611.01 1544.96 Q1609.67 1547.27 1607.61 1548.41 Q1605.57 1549.52 1602.7 1549.52 Q1598 1549.52 1595.04 1545.77 Q1592.1 1542.02 1592.1 1535.91 Q1592.1 1529.8 1595.04 1526.05 Q1598 1522.3 1602.7 1522.3 Q1605.57 1522.3 1607.61 1523.43 Q1609.67 1524.54 1611.01 1526.86 M1596.5 1535.91 Q1596.5 1540.61 1598.42 1543.29 Q1600.36 1545.95 1603.74 1545.95 Q1607.12 1545.95 1609.07 1543.29 Q1611.01 1540.61 1611.01 1535.91 Q1611.01 1531.21 1609.07 1528.55 Q1607.12 1525.86 1603.74 1525.86 Q1600.36 1525.86 1598.42 1528.55 Q1596.5 1531.21 1596.5 1535.91 Z" fill="#000000" fill-rule="evenodd" fill-opacity="1" /><path clip-path="url(#clip010)" d="M1623.6 1538.62 L1623.6 1522.92 L1627.86 1522.92 L1627.86 1538.45 Q1627.86 1542.13 1629.3 1543.99 Q1630.73 1545.82 1633.6 1545.82 Q1637.05 1545.82 1639.04 1543.62 Q1641.06 1541.42 1641.06 1537.62 L1641.06 1522.92 L1645.32 1522.92 L1645.32 1548.85 L1641.06 1548.85 L1641.06 1544.87 Q1639.51 1547.23 1637.45 1548.38 Q1635.41 1549.52 1632.7 1549.52 Q1628.23 1549.52 1625.92 1546.74 Q1623.6 1543.96 1623.6 1538.62 M1634.32 1522.3 L1634.32 1522.3 Z" fill="#000000" fill-rule="evenodd" fill-opacity="1" /><path clip-path="url(#clip010)" d="M1672.75 1523.92 L1672.75 1527.9 Q1670.94 1526.9 1669.11 1526.42 Q1667.31 1525.91 1665.46 1525.91 Q1661.31 1525.91 1659.02 1528.55 Q1656.73 1531.16 1656.73 1535.91 Q1656.73 1540.65 1659.02 1543.29 Q1661.31 1545.91 1665.46 1545.91 Q1667.31 1545.91 1669.11 1545.42 Q1670.94 1544.91 1672.75 1543.92 L1672.75 1547.85 Q1670.96 1548.69 1669.04 1549.1 Q1667.15 1549.52 1664.99 1549.52 Q1659.14 1549.52 1655.69 1545.84 Q1652.24 1542.16 1652.24 1535.91 Q1652.24 1529.57 1655.71 1525.93 Q1659.21 1522.3 1665.27 1522.3 Q1667.24 1522.3 1669.11 1522.71 Q1670.99 1523.11 1672.75 1523.92 Z" fill="#000000" fill-rule="evenodd" fill-opacity="1" /><path clip-path="url(#clip010)" d="M1702.33 1534.82 L1702.33 1536.9 L1682.75 1536.9 Q1683.03 1541.3 1685.39 1543.62 Q1687.77 1545.91 1692.01 1545.91 Q1694.46 1545.91 1696.75 1545.31 Q1699.07 1544.7 1701.34 1543.5 L1701.34 1547.53 Q1699.04 1548.5 1696.64 1549.01 Q1694.23 1549.52 1691.75 1549.52 Q1685.55 1549.52 1681.91 1545.91 Q1678.3 1542.3 1678.3 1536.14 Q1678.3 1529.77 1681.73 1526.05 Q1685.18 1522.3 1691.01 1522.3 Q1696.24 1522.3 1699.27 1525.68 Q1702.33 1529.03 1702.33 1534.82 M1698.07 1533.57 Q1698.02 1530.07 1696.1 1527.99 Q1694.21 1525.91 1691.06 1525.91 Q1687.49 1525.91 1685.34 1527.92 Q1683.21 1529.94 1682.89 1533.59 L1698.07 1533.57 Z" fill="#000000" fill-rule="evenodd" fill-opacity="1" /><path clip-path="url(#clip010)" d="M1730.87 1533.2 L1730.87 1548.85 L1726.61 1548.85 L1726.61 1533.34 Q1726.61 1529.66 1725.18 1527.83 Q1723.74 1526 1720.87 1526 Q1717.42 1526 1715.43 1528.2 Q1713.44 1530.4 1713.44 1534.2 L1713.44 1548.85 L1709.16 1548.85 L1709.16 1522.92 L1713.44 1522.92 L1713.44 1526.95 Q1714.97 1524.61 1717.03 1523.45 Q1719.11 1522.3 1721.82 1522.3 Q1726.29 1522.3 1728.58 1525.07 Q1730.87 1527.83 1730.87 1533.2 Z" fill="#000000" fill-rule="evenodd" fill-opacity="1" /><path clip-path="url(#clip010)" d="M1743.58 1515.56 L1743.58 1522.92 L1752.35 1522.92 L1752.35 1526.23 L1743.58 1526.23 L1743.58 1540.31 Q1743.58 1543.48 1744.44 1544.38 Q1745.32 1545.28 1747.98 1545.28 L1752.35 1545.28 L1752.35 1548.85 L1747.98 1548.85 Q1743.05 1548.85 1741.17 1547.02 Q1739.3 1545.17 1739.3 1540.31 L1739.3 1526.23 L1736.17 1526.23 L1736.17 1522.92 L1739.3 1522.92 L1739.3 1515.56 L1743.58 1515.56 Z" fill="#000000" fill-rule="evenodd" fill-opacity="1" /><path clip-path="url(#clip010)" d="M1777.14 1544.96 L1777.14 1558.71 L1772.86 1558.71 L1772.86 1522.92 L1777.14 1522.92 L1777.14 1526.86 Q1778.49 1524.54 1780.52 1523.43 Q1782.58 1522.3 1785.43 1522.3 Q1790.15 1522.3 1793.09 1526.05 Q1796.06 1529.8 1796.06 1535.91 Q1796.06 1542.02 1793.09 1545.77 Q1790.15 1549.52 1785.43 1549.52 Q1782.58 1549.52 1780.52 1548.41 Q1778.49 1547.27 1777.14 1544.96 M1791.64 1535.91 Q1791.64 1531.21 1789.69 1528.55 Q1787.77 1525.86 1784.39 1525.86 Q1781.01 1525.86 1779.07 1528.55 Q1777.14 1531.21 1777.14 1535.91 Q1777.14 1540.61 1779.07 1543.29 Q1781.01 1545.95 1784.39 1545.95 Q1787.77 1545.95 1789.69 1543.29 Q1791.64 1540.61 1791.64 1535.91 Z" fill="#000000" fill-rule="evenodd" fill-opacity="1" /><path clip-path="url(#clip010)" d="M1818.14 1526.9 Q1817.42 1526.49 1816.57 1526.3 Q1815.73 1526.09 1814.71 1526.09 Q1811.1 1526.09 1809.16 1528.45 Q1807.24 1530.79 1807.24 1535.19 L1807.24 1548.85 L1802.95 1548.85 L1802.95 1522.92 L1807.24 1522.92 L1807.24 1526.95 Q1808.58 1524.59 1810.73 1523.45 Q1812.89 1522.3 1815.96 1522.3 Q1816.4 1522.3 1816.94 1522.37 Q1817.47 1522.41 1818.12 1522.53 L1818.14 1526.9 Z" fill="#000000" fill-rule="evenodd" fill-opacity="1" /><path clip-path="url(#clip010)" d="M1831.61 1525.91 Q1828.19 1525.91 1826.2 1528.59 Q1824.2 1531.26 1824.2 1535.91 Q1824.2 1540.56 1826.17 1543.25 Q1828.16 1545.91 1831.61 1545.91 Q1835.01 1545.91 1837.01 1543.22 Q1839 1540.54 1839 1535.91 Q1839 1531.3 1837.01 1528.62 Q1835.01 1525.91 1831.61 1525.91 M1831.61 1522.3 Q1837.17 1522.3 1840.34 1525.91 Q1843.51 1529.52 1843.51 1535.91 Q1843.51 1542.27 1840.34 1545.91 Q1837.17 1549.52 1831.61 1549.52 Q1826.03 1549.52 1822.86 1545.91 Q1819.71 1542.27 1819.71 1535.91 Q1819.71 1529.52 1822.86 1525.91 Q1826.03 1522.3 1831.61 1522.3 Z" fill="#000000" fill-rule="evenodd" fill-opacity="1" /><path clip-path="url(#clip010)" d="M1848.09 1522.92 L1852.35 1522.92 L1857.68 1543.15 L1862.98 1522.92 L1868 1522.92 L1873.32 1543.15 L1878.63 1522.92 L1882.89 1522.92 L1876.1 1548.85 L1871.08 1548.85 L1865.5 1527.6 L1859.9 1548.85 L1854.88 1548.85 L1848.09 1522.92 Z" fill="#000000" fill-rule="evenodd" fill-opacity="1" /><path clip-path="url(#clip010)" d="M1901.13 1535.82 Q1895.96 1535.82 1893.97 1537 Q1891.98 1538.18 1891.98 1541.02 Q1891.98 1543.29 1893.46 1544.63 Q1894.97 1545.95 1897.54 1545.95 Q1901.08 1545.95 1903.21 1543.45 Q1905.36 1540.93 1905.36 1536.76 L1905.36 1535.82 L1901.13 1535.82 M1909.62 1534.06 L1909.62 1548.85 L1905.36 1548.85 L1905.36 1544.91 Q1903.9 1547.27 1901.73 1548.41 Q1899.55 1549.52 1896.4 1549.52 Q1892.42 1549.52 1890.06 1547.3 Q1887.72 1545.05 1887.72 1541.3 Q1887.72 1536.93 1890.64 1534.7 Q1893.58 1532.48 1899.39 1532.48 L1905.36 1532.48 L1905.36 1532.07 Q1905.36 1529.13 1903.42 1527.53 Q1901.5 1525.91 1898 1525.91 Q1895.78 1525.91 1893.67 1526.44 Q1891.57 1526.97 1889.62 1528.04 L1889.62 1524.1 Q1891.96 1523.2 1894.16 1522.76 Q1896.36 1522.3 1898.44 1522.3 Q1904.07 1522.3 1906.84 1525.21 Q1909.62 1528.13 1909.62 1534.06 Z" fill="#000000" fill-rule="evenodd" fill-opacity="1" /><path clip-path="url(#clip010)" d="M1935.45 1526.86 L1935.45 1512.83 L1939.71 1512.83 L1939.71 1548.85 L1935.45 1548.85 L1935.45 1544.96 Q1934.11 1547.27 1932.05 1548.41 Q1930.01 1549.52 1927.14 1549.52 Q1922.45 1549.52 1919.48 1545.77 Q1916.54 1542.02 1916.54 1535.91 Q1916.54 1529.8 1919.48 1526.05 Q1922.45 1522.3 1927.14 1522.3 Q1930.01 1522.3 1932.05 1523.43 Q1934.11 1524.54 1935.45 1526.86 M1920.94 1535.91 Q1920.94 1540.61 1922.86 1543.29 Q1924.81 1545.95 1928.19 1545.95 Q1931.57 1545.95 1933.51 1543.29 Q1935.45 1540.61 1935.45 1535.91 Q1935.45 1531.21 1933.51 1528.55 Q1931.57 1525.86 1928.19 1525.86 Q1924.81 1525.86 1922.86 1528.55 Q1920.94 1531.21 1920.94 1535.91 Z" fill="#000000" fill-rule="evenodd" fill-opacity="1" /><path clip-path="url(#clip010)" d="M1946.63 1522.92 L1966.87 1522.92 L1966.87 1526.81 L1950.85 1545.45 L1966.87 1545.45 L1966.87 1548.85 L1946.06 1548.85 L1946.06 1544.96 L1962.07 1526.32 L1946.63 1526.32 L1946.63 1522.92 Z" fill="#000000" fill-rule="evenodd" fill-opacity="1" /><path clip-path="url(#clip010)" d="M1973.37 1522.92 L1977.63 1522.92 L1977.63 1548.85 L1973.37 1548.85 L1973.37 1522.92 M1973.37 1512.83 L1977.63 1512.83 L1977.63 1518.22 L1973.37 1518.22 L1973.37 1512.83 Z" fill="#000000" fill-rule="evenodd" fill-opacity="1" /><path clip-path="url(#clip010)" d="M2020.22 1535.91 Q2020.22 1531.21 2018.28 1528.55 Q2016.36 1525.86 2012.98 1525.86 Q2009.6 1525.86 2007.65 1528.55 Q2005.73 1531.21 2005.73 1535.91 Q2005.73 1540.61 2007.65 1543.29 Q2009.6 1545.95 2012.98 1545.95 Q2016.36 1545.95 2018.28 1543.29 Q2020.22 1540.61 2020.22 1535.91 M2005.73 1526.86 Q2007.07 1524.54 2009.11 1523.43 Q2011.17 1522.3 2014.02 1522.3 Q2018.74 1522.3 2021.68 1526.05 Q2024.64 1529.8 2024.64 1535.91 Q2024.64 1542.02 2021.68 1545.77 Q2018.74 1549.52 2014.02 1549.52 Q2011.17 1549.52 2009.11 1548.41 Q2007.07 1547.27 2005.73 1544.96 L2005.73 1548.85 L2001.45 1548.85 L2001.45 1512.83 L2005.73 1512.83 L2005.73 1526.86 Z" fill="#000000" fill-rule="evenodd" fill-opacity="1" /><path clip-path="url(#clip010)" d="M2043.49 1535.82 Q2038.32 1535.82 2036.33 1537 Q2034.34 1538.18 2034.34 1541.02 Q2034.34 1543.29 2035.82 1544.63 Q2037.33 1545.95 2039.9 1545.95 Q2043.44 1545.95 2045.57 1543.45 Q2047.72 1540.93 2047.72 1536.76 L2047.72 1535.82 L2043.49 1535.82 M2051.98 1534.06 L2051.98 1548.85 L2047.72 1548.85 L2047.72 1544.91 Q2046.26 1547.27 2044.09 1548.41 Q2041.91 1549.52 2038.76 1549.52 Q2034.78 1549.52 2032.42 1547.3 Q2030.08 1545.05 2030.08 1541.3 Q2030.08 1536.93 2033 1534.7 Q2035.94 1532.48 2041.75 1532.48 L2047.72 1532.48 L2047.72 1532.07 Q2047.72 1529.13 2045.78 1527.53 Q2043.86 1525.91 2040.36 1525.91 Q2038.14 1525.91 2036.03 1526.44 Q2033.93 1526.97 2031.98 1528.04 L2031.98 1524.1 Q2034.32 1523.2 2036.52 1522.76 Q2038.72 1522.3 2040.8 1522.3 Q2046.43 1522.3 2049.2 1525.21 Q2051.98 1528.13 2051.98 1534.06 Z" fill="#000000" fill-rule="evenodd" fill-opacity="1" /><path clip-path="url(#clip010)" d="M2077.81 1526.86 L2077.81 1512.83 L2082.07 1512.83 L2082.07 1548.85 L2077.81 1548.85 L2077.81 1544.96 Q2076.47 1547.27 2074.41 1548.41 Q2072.37 1549.52 2069.5 1549.52 Q2064.81 1549.52 2061.84 1545.77 Q2058.9 1542.02 2058.9 1535.91 Q2058.9 1529.8 2061.84 1526.05 Q2064.81 1522.3 2069.5 1522.3 Q2072.37 1522.3 2074.41 1523.43 Q2076.47 1524.54 2077.81 1526.86 M2063.3 1535.91 Q2063.3 1540.61 2065.22 1543.29 Q2067.17 1545.95 2070.55 1545.95 Q2073.93 1545.95 2075.87 1543.29 Q2077.81 1540.61 2077.81 1535.91 Q2077.81 1531.21 2075.87 1528.55 Q2073.93 1525.86 2070.55 1525.86 Q2067.17 1525.86 2065.22 1528.55 Q2063.3 1531.21 2063.3 1535.91 Z" fill="#000000" fill-rule="evenodd" fill-opacity="1" /><path clip-path="url(#clip010)" d="M2102.63 1535.82 Q2097.47 1535.82 2095.48 1537 Q2093.49 1538.18 2093.49 1541.02 Q2093.49 1543.29 2094.97 1544.63 Q2096.47 1545.95 2099.04 1545.95 Q2102.58 1545.95 2104.71 1543.45 Q2106.87 1540.93 2106.87 1536.76 L2106.87 1535.82 L2102.63 1535.82 M2111.12 1534.06 L2111.12 1548.85 L2106.87 1548.85 L2106.87 1544.91 Q2105.41 1547.27 2103.23 1548.41 Q2101.06 1549.52 2097.91 1549.52 Q2093.93 1549.52 2091.56 1547.3 Q2089.23 1545.05 2089.23 1541.3 Q2089.23 1536.93 2092.14 1534.7 Q2095.08 1532.48 2100.89 1532.48 L2106.87 1532.48 L2106.87 1532.07 Q2106.87 1529.13 2104.92 1527.53 Q2103 1525.91 2099.5 1525.91 Q2097.28 1525.91 2095.18 1526.44 Q2093.07 1526.97 2091.12 1528.04 L2091.12 1524.1 Q2093.46 1523.2 2095.66 1522.76 Q2097.86 1522.3 2099.94 1522.3 Q2105.57 1522.3 2108.35 1525.21 Q2111.12 1528.13 2111.12 1534.06 Z" fill="#000000" fill-rule="evenodd" fill-opacity="1" /><path clip-path="url(#clip010)" d="M2141.45 1533.2 L2141.45 1548.85 L2137.19 1548.85 L2137.19 1533.34 Q2137.19 1529.66 2135.75 1527.83 Q2134.32 1526 2131.45 1526 Q2128 1526 2126.01 1528.2 Q2124.02 1530.4 2124.02 1534.2 L2124.02 1548.85 L2119.74 1548.85 L2119.74 1522.92 L2124.02 1522.92 L2124.02 1526.95 Q2125.55 1524.61 2127.61 1523.45 Q2129.69 1522.3 2132.4 1522.3 Q2136.87 1522.3 2139.16 1525.07 Q2141.45 1527.83 2141.45 1533.2 Z" fill="#000000" fill-rule="evenodd" fill-opacity="1" /><path clip-path="url(#clip010)" d="M2149.94 1522.92 L2154.2 1522.92 L2154.2 1548.85 L2149.94 1548.85 L2149.94 1522.92 M2149.94 1512.83 L2154.2 1512.83 L2154.2 1518.22 L2149.94 1518.22 L2149.94 1512.83 Z" fill="#000000" fill-rule="evenodd" fill-opacity="1" /><path clip-path="url(#clip010)" d="M2174.9 1535.82 Q2169.74 1535.82 2167.74 1537 Q2165.75 1538.18 2165.75 1541.02 Q2165.75 1543.29 2167.24 1544.63 Q2168.74 1545.95 2171.31 1545.95 Q2174.85 1545.95 2176.98 1543.45 Q2179.13 1540.93 2179.13 1536.76 L2179.13 1535.82 L2174.9 1535.82 M2183.39 1534.06 L2183.39 1548.85 L2179.13 1548.85 L2179.13 1544.91 Q2177.68 1547.27 2175.5 1548.41 Q2173.32 1549.52 2170.18 1549.52 Q2166.19 1549.52 2163.83 1547.3 Q2161.49 1545.05 2161.49 1541.3 Q2161.49 1536.93 2164.41 1534.7 Q2167.35 1532.48 2173.16 1532.48 L2179.13 1532.48 L2179.13 1532.07 Q2179.13 1529.13 2177.19 1527.53 Q2175.27 1525.91 2171.77 1525.91 Q2169.55 1525.91 2167.44 1526.44 Q2165.34 1526.97 2163.39 1528.04 L2163.39 1524.1 Q2165.73 1523.2 2167.93 1522.76 Q2170.13 1522.3 2172.21 1522.3 Q2177.84 1522.3 2180.61 1525.21 Q2183.39 1528.13 2183.39 1534.06 Z" fill="#000000" fill-rule="evenodd" fill-opacity="1" /><polyline clip-path="url(#clip012)" style="stroke:#000000; stroke-linecap:round; stroke-linejoin:round; stroke-width:2; stroke-opacity:0.1; fill:none" points="
  244.73,1421.11 2352.76,1421.11 
  "/>
<polyline clip-path="url(#clip012)" style="stroke:#000000; stroke-linecap:round; stroke-linejoin:round; stroke-width:2; stroke-opacity:0.1; fill:none" points="
  244.73,1142.49 2352.76,1142.49 
  "/>
<polyline clip-path="url(#clip012)" style="stroke:#000000; stroke-linecap:round; stroke-linejoin:round; stroke-width:2; stroke-opacity:0.1; fill:none" points="
  244.73,863.864 2352.76,863.864 
  "/>
<polyline clip-path="url(#clip012)" style="stroke:#000000; stroke-linecap:round; stroke-linejoin:round; stroke-width:2; stroke-opacity:0.1; fill:none" points="
  244.73,585.241 2352.76,585.241 
  "/>
<polyline clip-path="url(#clip012)" style="stroke:#000000; stroke-linecap:round; stroke-linejoin:round; stroke-width:2; stroke-opacity:0.1; fill:none" points="
  244.73,306.618 2352.76,306.618 
  "/>
<polyline clip-path="url(#clip010)" style="stroke:#000000; stroke-linecap:round; stroke-linejoin:round; stroke-width:4; stroke-opacity:1; fill:none" points="
  244.73,1486.45 244.73,123.472 
  "/>
<polyline clip-path="url(#clip010)" style="stroke:#000000; stroke-linecap:round; stroke-linejoin:round; stroke-width:4; stroke-opacity:1; fill:none" points="
  244.73,1421.11 263.628,1421.11 
  "/>
<polyline clip-path="url(#clip010)" style="stroke:#000000; stroke-linecap:round; stroke-linejoin:round; stroke-width:4; stroke-opacity:1; fill:none" points="
  244.73,1142.49 263.628,1142.49 
  "/>
<polyline clip-path="url(#clip010)" style="stroke:#000000; stroke-linecap:round; stroke-linejoin:round; stroke-width:4; stroke-opacity:1; fill:none" points="
  244.73,863.864 263.628,863.864 
  "/>
<polyline clip-path="url(#clip010)" style="stroke:#000000; stroke-linecap:round; stroke-linejoin:round; stroke-width:4; stroke-opacity:1; fill:none" points="
  244.73,585.241 263.628,585.241 
  "/>
<polyline clip-path="url(#clip010)" style="stroke:#000000; stroke-linecap:round; stroke-linejoin:round; stroke-width:4; stroke-opacity:1; fill:none" points="
  244.73,306.618 263.628,306.618 
  "/>
<path clip-path="url(#clip010)" d="M101.3 1421.56 L130.976 1421.56 L130.976 1425.5 L101.3 1425.5 L101.3 1421.56 Z" fill="#000000" fill-rule="evenodd" fill-opacity="1" /><path clip-path="url(#clip010)" d="M151.068 1406.91 Q147.457 1406.91 145.629 1410.47 Q143.823 1414.02 143.823 1421.15 Q143.823 1428.25 145.629 1431.82 Q147.457 1435.36 151.068 1435.36 Q154.703 1435.36 156.508 1431.82 Q158.337 1428.25 158.337 1421.15 Q158.337 1414.02 156.508 1410.47 Q154.703 1406.91 151.068 1406.91 M151.068 1403.21 Q156.879 1403.21 159.934 1407.81 Q163.013 1412.4 163.013 1421.15 Q163.013 1429.87 159.934 1434.48 Q156.879 1439.06 151.068 1439.06 Q145.258 1439.06 142.18 1434.48 Q139.124 1429.87 139.124 1421.15 Q139.124 1412.4 142.18 1407.81 Q145.258 1403.21 151.068 1403.21 Z" fill="#000000" fill-rule="evenodd" fill-opacity="1" /><path clip-path="url(#clip010)" d="M171.23 1432.51 L176.115 1432.51 L176.115 1438.39 L171.23 1438.39 L171.23 1432.51 Z" fill="#000000" fill-rule="evenodd" fill-opacity="1" /><path clip-path="url(#clip010)" d="M199.147 1407.9 L187.341 1426.35 L199.147 1426.35 L199.147 1407.9 M197.92 1403.83 L203.8 1403.83 L203.8 1426.35 L208.73 1426.35 L208.73 1430.24 L203.8 1430.24 L203.8 1438.39 L199.147 1438.39 L199.147 1430.24 L183.545 1430.24 L183.545 1425.73 L197.92 1403.83 Z" fill="#000000" fill-rule="evenodd" fill-opacity="1" /><path clip-path="url(#clip010)" d="M103.383 1142.94 L133.059 1142.94 L133.059 1146.87 L103.383 1146.87 L103.383 1142.94 Z" fill="#000000" fill-rule="evenodd" fill-opacity="1" /><path clip-path="url(#clip010)" d="M153.152 1128.29 Q149.541 1128.29 147.712 1131.85 Q145.906 1135.39 145.906 1142.52 Q145.906 1149.63 147.712 1153.19 Q149.541 1156.73 153.152 1156.73 Q156.786 1156.73 158.592 1153.19 Q160.42 1149.63 160.42 1142.52 Q160.42 1135.39 158.592 1131.85 Q156.786 1128.29 153.152 1128.29 M153.152 1124.58 Q158.962 1124.58 162.017 1129.19 Q165.096 1133.77 165.096 1142.52 Q165.096 1151.25 162.017 1155.86 Q158.962 1160.44 153.152 1160.44 Q147.342 1160.44 144.263 1155.86 Q141.207 1151.25 141.207 1142.52 Q141.207 1133.77 144.263 1129.19 Q147.342 1124.58 153.152 1124.58 Z" fill="#000000" fill-rule="evenodd" fill-opacity="1" /><path clip-path="url(#clip010)" d="M173.314 1153.89 L178.198 1153.89 L178.198 1159.77 L173.314 1159.77 L173.314 1153.89 Z" fill="#000000" fill-rule="evenodd" fill-opacity="1" /><path clip-path="url(#clip010)" d="M192.411 1155.83 L208.73 1155.83 L208.73 1159.77 L186.786 1159.77 L186.786 1155.83 Q189.448 1153.08 194.031 1148.45 Q198.638 1143.8 199.818 1142.45 Q202.064 1139.93 202.943 1138.19 Q203.846 1136.43 203.846 1134.74 Q203.846 1131.99 201.901 1130.25 Q199.98 1128.52 196.878 1128.52 Q194.679 1128.52 192.226 1129.28 Q189.795 1130.05 187.017 1131.6 L187.017 1126.87 Q189.841 1125.74 192.295 1125.16 Q194.749 1124.58 196.786 1124.58 Q202.156 1124.58 205.351 1127.27 Q208.545 1129.95 208.545 1134.44 Q208.545 1136.57 207.735 1138.49 Q206.948 1140.39 204.841 1142.99 Q204.263 1143.66 201.161 1146.87 Q198.059 1150.07 192.411 1155.83 Z" fill="#000000" fill-rule="evenodd" fill-opacity="1" /><path clip-path="url(#clip010)" d="M151.555 849.663 Q147.943 849.663 146.115 853.228 Q144.309 856.769 144.309 863.899 Q144.309 871.005 146.115 874.57 Q147.943 878.112 151.555 878.112 Q155.189 878.112 156.994 874.57 Q158.823 871.005 158.823 863.899 Q158.823 856.769 156.994 853.228 Q155.189 849.663 151.555 849.663 M151.555 845.959 Q157.365 845.959 160.42 850.566 Q163.499 855.149 163.499 863.899 Q163.499 872.626 160.42 877.232 Q157.365 881.815 151.555 881.815 Q145.744 881.815 142.666 877.232 Q139.61 872.626 139.61 863.899 Q139.61 855.149 142.666 850.566 Q145.744 845.959 151.555 845.959 Z" fill="#000000" fill-rule="evenodd" fill-opacity="1" /><path clip-path="url(#clip010)" d="M171.716 875.264 L176.601 875.264 L176.601 881.144 L171.716 881.144 L171.716 875.264 Z" fill="#000000" fill-rule="evenodd" fill-opacity="1" /><path clip-path="url(#clip010)" d="M196.786 849.663 Q193.175 849.663 191.346 853.228 Q189.54 856.769 189.54 863.899 Q189.54 871.005 191.346 874.57 Q193.175 878.112 196.786 878.112 Q200.42 878.112 202.226 874.57 Q204.054 871.005 204.054 863.899 Q204.054 856.769 202.226 853.228 Q200.42 849.663 196.786 849.663 M196.786 845.959 Q202.596 845.959 205.651 850.566 Q208.73 855.149 208.73 863.899 Q208.73 872.626 205.651 877.232 Q202.596 881.815 196.786 881.815 Q190.976 881.815 187.897 877.232 Q184.841 872.626 184.841 863.899 Q184.841 855.149 187.897 850.566 Q190.976 845.959 196.786 845.959 Z" fill="#000000" fill-rule="evenodd" fill-opacity="1" /><path clip-path="url(#clip010)" d="M153.152 571.039 Q149.541 571.039 147.712 574.604 Q145.906 578.146 145.906 585.276 Q145.906 592.382 147.712 595.947 Q149.541 599.488 153.152 599.488 Q156.786 599.488 158.592 595.947 Q160.42 592.382 160.42 585.276 Q160.42 578.146 158.592 574.604 Q156.786 571.039 153.152 571.039 M153.152 567.336 Q158.962 567.336 162.017 571.942 Q165.096 576.526 165.096 585.276 Q165.096 594.002 162.017 598.609 Q158.962 603.192 153.152 603.192 Q147.342 603.192 144.263 598.609 Q141.207 594.002 141.207 585.276 Q141.207 576.526 144.263 571.942 Q147.342 567.336 153.152 567.336 Z" fill="#000000" fill-rule="evenodd" fill-opacity="1" /><path clip-path="url(#clip010)" d="M173.314 596.641 L178.198 596.641 L178.198 602.521 L173.314 602.521 L173.314 596.641 Z" fill="#000000" fill-rule="evenodd" fill-opacity="1" /><path clip-path="url(#clip010)" d="M192.411 598.586 L208.73 598.586 L208.73 602.521 L186.786 602.521 L186.786 598.586 Q189.448 595.831 194.031 591.201 Q198.638 586.549 199.818 585.206 Q202.064 582.683 202.943 580.947 Q203.846 579.188 203.846 577.498 Q203.846 574.743 201.901 573.007 Q199.98 571.271 196.878 571.271 Q194.679 571.271 192.226 572.035 Q189.795 572.799 187.017 574.35 L187.017 569.627 Q189.841 568.493 192.295 567.915 Q194.749 567.336 196.786 567.336 Q202.156 567.336 205.351 570.021 Q208.545 572.706 208.545 577.197 Q208.545 579.326 207.735 581.248 Q206.948 583.146 204.841 585.738 Q204.263 586.41 201.161 589.627 Q198.059 592.822 192.411 598.586 Z" fill="#000000" fill-rule="evenodd" fill-opacity="1" /><path clip-path="url(#clip010)" d="M151.068 292.416 Q147.457 292.416 145.629 295.981 Q143.823 299.523 143.823 306.652 Q143.823 313.759 145.629 317.324 Q147.457 320.865 151.068 320.865 Q154.703 320.865 156.508 317.324 Q158.337 313.759 158.337 306.652 Q158.337 299.523 156.508 295.981 Q154.703 292.416 151.068 292.416 M151.068 288.713 Q156.879 288.713 159.934 293.319 Q163.013 297.902 163.013 306.652 Q163.013 315.379 159.934 319.986 Q156.879 324.569 151.068 324.569 Q145.258 324.569 142.18 319.986 Q139.124 315.379 139.124 306.652 Q139.124 297.902 142.18 293.319 Q145.258 288.713 151.068 288.713 Z" fill="#000000" fill-rule="evenodd" fill-opacity="1" /><path clip-path="url(#clip010)" d="M171.23 318.018 L176.115 318.018 L176.115 323.898 L171.23 323.898 L171.23 318.018 Z" fill="#000000" fill-rule="evenodd" fill-opacity="1" /><path clip-path="url(#clip010)" d="M199.147 293.412 L187.341 311.861 L199.147 311.861 L199.147 293.412 M197.92 289.338 L203.8 289.338 L203.8 311.861 L208.73 311.861 L208.73 315.749 L203.8 315.749 L203.8 323.898 L199.147 323.898 L199.147 315.749 L183.545 315.749 L183.545 311.236 L197.92 289.338 Z" fill="#000000" fill-rule="evenodd" fill-opacity="1" /><path clip-path="url(#clip010)" d="M23.5434 1353.05 Q23.5434 1358.14 27.3397 1361.15 Q31.136 1364.14 37.6869 1364.14 Q44.2146 1364.14 48.0109 1361.15 Q51.8072 1358.14 51.8072 1353.05 Q51.8072 1347.95 48.0109 1344.99 Q44.2146 1342.01 37.6869 1342.01 Q31.136 1342.01 27.3397 1344.99 Q23.5434 1347.95 23.5434 1353.05 M19.7472 1353.05 Q19.7472 1345.78 24.6314 1341.43 Q29.4925 1337.08 37.6869 1337.08 Q45.8581 1337.08 50.7424 1341.43 Q55.6035 1345.78 55.6035 1353.05 Q55.6035 1360.34 50.7424 1364.71 Q45.8813 1369.07 37.6869 1369.07 Q29.4925 1369.07 24.6314 1364.71 Q19.7472 1360.34 19.7472 1353.05 Z" fill="#000000" fill-rule="evenodd" fill-opacity="1" /><path clip-path="url(#clip010)" d="M32.9415 1312.89 L18.9138 1312.89 L18.9138 1308.63 L54.9322 1308.63 L54.9322 1312.89 L51.0433 1312.89 Q53.3581 1314.23 54.4923 1316.29 Q55.6035 1318.33 55.6035 1321.2 Q55.6035 1325.89 51.8535 1328.86 Q48.1035 1331.8 41.9924 1331.8 Q35.8813 1331.8 32.1314 1328.86 Q28.3814 1325.89 28.3814 1321.2 Q28.3814 1318.33 29.5156 1316.29 Q30.6267 1314.23 32.9415 1312.89 M41.9924 1327.4 Q46.6915 1327.4 49.3766 1325.48 Q52.0387 1323.53 52.0387 1320.15 Q52.0387 1316.77 49.3766 1314.83 Q46.6915 1312.89 41.9924 1312.89 Q37.2934 1312.89 34.6313 1314.83 Q31.9462 1316.77 31.9462 1320.15 Q31.9462 1323.53 34.6313 1325.48 Q37.2934 1327.4 41.9924 1327.4 Z" fill="#000000" fill-rule="evenodd" fill-opacity="1" /><path clip-path="url(#clip010)" d="M30.0017 1281.2 L33.9832 1281.2 Q32.9878 1283 32.5017 1284.83 Q31.9925 1286.64 31.9925 1288.49 Q31.9925 1292.63 34.6313 1294.92 Q37.2471 1297.21 41.9924 1297.21 Q46.7378 1297.21 49.3766 1294.92 Q51.9924 1292.63 51.9924 1288.49 Q51.9924 1286.64 51.5062 1284.83 Q50.997 1283 50.0016 1281.2 L53.9368 1281.2 Q54.7701 1282.98 55.1868 1284.9 Q55.6035 1286.8 55.6035 1288.95 Q55.6035 1294.81 51.9229 1298.26 Q48.2424 1301.71 41.9924 1301.71 Q35.6499 1301.71 32.0156 1298.23 Q28.3814 1294.74 28.3814 1288.67 Q28.3814 1286.71 28.798 1284.83 Q29.1916 1282.96 30.0017 1281.2 Z" fill="#000000" fill-rule="evenodd" fill-opacity="1" /><path clip-path="url(#clip010)" d="M39.2841 1252.24 L54.9322 1252.24 L54.9322 1256.5 L39.423 1256.5 Q35.7424 1256.5 33.9138 1257.93 Q32.0851 1259.37 32.0851 1262.24 Q32.0851 1265.69 34.2841 1267.68 Q36.4832 1269.67 40.2795 1269.67 L54.9322 1269.67 L54.9322 1273.95 L18.9138 1273.95 L18.9138 1269.67 L33.0341 1269.67 Q30.6962 1268.14 29.5388 1266.08 Q28.3814 1264 28.3814 1261.29 Q28.3814 1256.82 31.1591 1254.53 Q33.9138 1252.24 39.2841 1252.24 Z" fill="#000000" fill-rule="evenodd" fill-opacity="1" /><path clip-path="url(#clip010)" d="M57.3396 1232.96 Q61.9692 1234.76 63.3812 1236.47 Q64.7932 1238.19 64.7932 1241.06 L64.7932 1244.46 L61.2284 1244.46 L61.2284 1241.96 Q61.2284 1240.2 60.3951 1239.23 Q59.5618 1238.26 56.4599 1237.08 L54.5155 1236.31 L29.0064 1246.8 L29.0064 1242.28 L49.284 1234.18 L29.0064 1226.08 L29.0064 1221.57 L57.3396 1232.96 Z" fill="#000000" fill-rule="evenodd" fill-opacity="1" /><path clip-path="url(#clip010)" d="M18.9138 1215.69 L18.9138 1211.43 L54.9322 1211.43 L54.9322 1215.69 L18.9138 1215.69 Z" fill="#000000" fill-rule="evenodd" fill-opacity="1" /><path clip-path="url(#clip010)" d="M40.9045 1180.34 L42.9878 1180.34 L42.9878 1199.92 Q47.3859 1199.65 49.7007 1197.28 Q51.9924 1194.9 51.9924 1190.66 Q51.9924 1188.21 51.3905 1185.92 Q50.7887 1183.6 49.585 1181.34 L53.6127 1181.34 Q54.5849 1183.63 55.0942 1186.03 Q55.6035 1188.44 55.6035 1190.92 Q55.6035 1197.12 51.9924 1200.76 Q48.3813 1204.37 42.2239 1204.37 Q35.8582 1204.37 32.1314 1200.94 Q28.3814 1197.49 28.3814 1191.66 Q28.3814 1186.43 31.761 1183.4 Q35.1174 1180.34 40.9045 1180.34 M39.6545 1184.6 Q36.1591 1184.65 34.0758 1186.57 Q31.9925 1188.46 31.9925 1191.61 Q31.9925 1195.18 34.0063 1197.33 Q36.0202 1199.46 39.6776 1199.78 L39.6545 1184.6 Z" fill="#000000" fill-rule="evenodd" fill-opacity="1" /><path clip-path="url(#clip010)" d="M39.2841 1151.8 L54.9322 1151.8 L54.9322 1156.06 L39.423 1156.06 Q35.7424 1156.06 33.9138 1157.49 Q32.0851 1158.93 32.0851 1161.8 Q32.0851 1165.25 34.2841 1167.24 Q36.4832 1169.23 40.2795 1169.23 L54.9322 1169.23 L54.9322 1173.51 L29.0064 1173.51 L29.0064 1169.23 L33.0341 1169.23 Q30.6962 1167.7 29.5388 1165.64 Q28.3814 1163.56 28.3814 1160.85 Q28.3814 1156.38 31.1591 1154.09 Q33.9138 1151.8 39.2841 1151.8 Z" fill="#000000" fill-rule="evenodd" fill-opacity="1" /><path clip-path="url(#clip010)" d="M29.0064 1143.3 L29.0064 1139.04 L54.9322 1139.04 L54.9322 1143.3 L29.0064 1143.3 M18.9138 1143.3 L18.9138 1139.04 L24.3073 1139.04 L24.3073 1143.3 L18.9138 1143.3 Z" fill="#000000" fill-rule="evenodd" fill-opacity="1" /><path clip-path="url(#clip010)" d="M40.9045 1107.96 L42.9878 1107.96 L42.9878 1127.54 Q47.3859 1127.26 49.7007 1124.9 Q51.9924 1122.52 51.9924 1118.28 Q51.9924 1115.83 51.3905 1113.53 Q50.7887 1111.22 49.585 1108.95 L53.6127 1108.95 Q54.5849 1111.24 55.0942 1113.65 Q55.6035 1116.06 55.6035 1118.53 Q55.6035 1124.74 51.9924 1128.37 Q48.3813 1131.98 42.2239 1131.98 Q35.8582 1131.98 32.1314 1128.56 Q28.3814 1125.11 28.3814 1119.28 Q28.3814 1114.04 31.761 1111.01 Q35.1174 1107.96 40.9045 1107.96 M39.6545 1112.22 Q36.1591 1112.26 34.0758 1114.18 Q31.9925 1116.08 31.9925 1119.23 Q31.9925 1122.79 34.0063 1124.95 Q36.0202 1127.08 39.6776 1127.4 L39.6545 1112.22 Z" fill="#000000" fill-rule="evenodd" fill-opacity="1" /><path clip-path="url(#clip010)" d="M51.0433 1081.78 L64.7932 1081.78 L64.7932 1086.06 L29.0064 1086.06 L29.0064 1081.78 L32.9415 1081.78 Q30.6267 1080.43 29.5156 1078.4 Q28.3814 1076.34 28.3814 1073.49 Q28.3814 1068.77 32.1314 1065.83 Q35.8813 1062.86 41.9924 1062.86 Q48.1035 1062.86 51.8535 1065.83 Q55.6035 1068.77 55.6035 1073.49 Q55.6035 1076.34 54.4923 1078.4 Q53.3581 1080.43 51.0433 1081.78 M41.9924 1067.28 Q37.2934 1067.28 34.6313 1069.23 Q31.9462 1071.15 31.9462 1074.53 Q31.9462 1077.91 34.6313 1079.85 Q37.2934 1081.78 41.9924 1081.78 Q46.6915 1081.78 49.3766 1079.85 Q52.0387 1077.91 52.0387 1074.53 Q52.0387 1071.15 49.3766 1069.23 Q46.6915 1067.28 41.9924 1067.28 Z" fill="#000000" fill-rule="evenodd" fill-opacity="1" /><path clip-path="url(#clip010)" d="M41.8998 1044.02 Q41.8998 1049.18 43.0804 1051.17 Q44.2609 1053.16 47.1081 1053.16 Q49.3766 1053.16 50.7192 1051.68 Q52.0387 1050.18 52.0387 1047.61 Q52.0387 1044.07 49.5387 1041.94 Q47.0155 1039.79 42.8489 1039.79 L41.8998 1039.79 L41.8998 1044.02 M40.1406 1035.53 L54.9322 1035.53 L54.9322 1039.79 L50.997 1039.79 Q53.3581 1041.24 54.4923 1043.42 Q55.6035 1045.6 55.6035 1048.74 Q55.6035 1052.72 53.3812 1055.09 Q51.1359 1057.42 47.3859 1057.42 Q43.0109 1057.42 40.7887 1054.51 Q38.5665 1051.57 38.5665 1045.76 L38.5665 1039.79 L38.1498 1039.79 Q35.21 1039.79 33.6128 1041.73 Q31.9925 1043.65 31.9925 1047.15 Q31.9925 1049.37 32.5249 1051.47 Q33.0573 1053.58 34.1221 1055.53 L30.1869 1055.53 Q29.2841 1053.19 28.8443 1050.99 Q28.3814 1048.79 28.3814 1046.71 Q28.3814 1041.08 31.298 1038.3 Q34.2147 1035.53 40.1406 1035.53 Z" fill="#000000" fill-rule="evenodd" fill-opacity="1" /><path clip-path="url(#clip010)" d="M32.9878 1011.73 Q32.5712 1012.45 32.386 1013.3 Q32.1776 1014.14 32.1776 1015.16 Q32.1776 1018.77 34.5387 1020.71 Q36.8767 1022.63 41.2748 1022.63 L54.9322 1022.63 L54.9322 1026.91 L29.0064 1026.91 L29.0064 1022.63 L33.0341 1022.63 Q30.673 1021.29 29.5388 1019.14 Q28.3814 1016.98 28.3814 1013.91 Q28.3814 1013.47 28.4508 1012.93 Q28.4971 1012.4 28.6129 1011.75 L32.9878 1011.73 Z" fill="#000000" fill-rule="evenodd" fill-opacity="1" /><path clip-path="url(#clip010)" d="M41.8998 995.48 Q41.8998 1000.64 43.0804 1002.63 Q44.2609 1004.62 47.1081 1004.62 Q49.3766 1004.62 50.7192 1003.14 Q52.0387 1001.64 52.0387 999.068 Q52.0387 995.526 49.5387 993.396 Q47.0155 991.244 42.8489 991.244 L41.8998 991.244 L41.8998 995.48 M40.1406 986.984 L54.9322 986.984 L54.9322 991.244 L50.997 991.244 Q53.3581 992.702 54.4923 994.878 Q55.6035 997.054 55.6035 1000.2 Q55.6035 1004.18 53.3812 1006.54 Q51.1359 1008.88 47.3859 1008.88 Q43.0109 1008.88 40.7887 1005.97 Q38.5665 1003.03 38.5665 997.216 L38.5665 991.244 L38.1498 991.244 Q35.21 991.244 33.6128 993.188 Q31.9925 995.109 31.9925 998.605 Q31.9925 1000.83 32.5249 1002.93 Q33.0573 1005.04 34.1221 1006.98 L30.1869 1006.98 Q29.2841 1004.65 28.8443 1002.45 Q28.3814 1000.25 28.3814 998.165 Q28.3814 992.54 31.298 989.762 Q34.2147 986.984 40.1406 986.984 Z" fill="#000000" fill-rule="evenodd" fill-opacity="1" /><path clip-path="url(#clip010)" d="M33.9832 958.026 Q31.1128 956.429 29.7471 954.207 Q28.3814 951.985 28.3814 948.975 Q28.3814 944.925 31.2286 942.725 Q34.0526 940.526 39.2841 940.526 L54.9322 940.526 L54.9322 944.809 L39.423 944.809 Q35.6961 944.809 33.8906 946.128 Q32.0851 947.448 32.0851 950.156 Q32.0851 953.466 34.2841 955.387 Q36.4832 957.309 40.2795 957.309 L54.9322 957.309 L54.9322 961.591 L39.423 961.591 Q35.673 961.591 33.8906 962.911 Q32.0851 964.23 32.0851 966.985 Q32.0851 970.248 34.3073 972.17 Q36.5063 974.091 40.2795 974.091 L54.9322 974.091 L54.9322 978.373 L29.0064 978.373 L29.0064 974.091 L33.0341 974.091 Q30.6499 972.633 29.5156 970.596 Q28.3814 968.559 28.3814 965.758 Q28.3814 962.934 29.8166 960.966 Q31.2517 958.975 33.9832 958.026 Z" fill="#000000" fill-rule="evenodd" fill-opacity="1" /><path clip-path="url(#clip010)" d="M40.9045 909.855 L42.9878 909.855 L42.9878 929.438 Q47.3859 929.161 49.7007 926.8 Q51.9924 924.415 51.9924 920.179 Q51.9924 917.726 51.3905 915.434 Q50.7887 913.119 49.585 910.851 L53.6127 910.851 Q54.5849 913.142 55.0942 915.55 Q55.6035 917.957 55.6035 920.434 Q55.6035 926.638 51.9924 930.272 Q48.3813 933.883 42.2239 933.883 Q35.8582 933.883 32.1314 930.457 Q28.3814 927.008 28.3814 921.175 Q28.3814 915.943 31.761 912.911 Q35.1174 909.855 40.9045 909.855 M39.6545 914.115 Q36.1591 914.161 34.0758 916.082 Q31.9925 917.98 31.9925 921.128 Q31.9925 924.693 34.0063 926.846 Q36.0202 928.976 39.6776 929.3 L39.6545 914.115 Z" fill="#000000" fill-rule="evenodd" fill-opacity="1" /><path clip-path="url(#clip010)" d="M21.6453 898.652 L29.0064 898.652 L29.0064 889.879 L32.3165 889.879 L32.3165 898.652 L46.3905 898.652 Q49.5618 898.652 50.4646 897.795 Q51.3674 896.916 51.3674 894.254 L51.3674 889.879 L54.9322 889.879 L54.9322 894.254 Q54.9322 899.184 53.1035 901.059 Q51.2516 902.934 46.3905 902.934 L32.3165 902.934 L32.3165 906.059 L29.0064 906.059 L29.0064 902.934 L21.6453 902.934 L21.6453 898.652 Z" fill="#000000" fill-rule="evenodd" fill-opacity="1" /><path clip-path="url(#clip010)" d="M32.9878 869.254 Q32.5712 869.971 32.386 870.828 Q32.1776 871.661 32.1776 872.68 Q32.1776 876.291 34.5387 878.235 Q36.8767 880.156 41.2748 880.156 L54.9322 880.156 L54.9322 884.439 L29.0064 884.439 L29.0064 880.156 L33.0341 880.156 Q30.673 878.814 29.5388 876.661 Q28.3814 874.508 28.3814 871.43 Q28.3814 870.99 28.4508 870.457 Q28.4971 869.925 28.6129 869.277 L32.9878 869.254 Z" fill="#000000" fill-rule="evenodd" fill-opacity="1" /><path clip-path="url(#clip010)" d="M31.9925 855.781 Q31.9925 859.207 34.6776 861.198 Q37.3397 863.189 41.9924 863.189 Q46.6452 863.189 49.3303 861.221 Q51.9924 859.231 51.9924 855.781 Q51.9924 852.379 49.3072 850.388 Q46.622 848.397 41.9924 848.397 Q37.386 848.397 34.7008 850.388 Q31.9925 852.379 31.9925 855.781 M28.3814 855.781 Q28.3814 850.226 31.9925 847.055 Q35.6036 843.883 41.9924 843.883 Q48.3581 843.883 51.9924 847.055 Q55.6035 850.226 55.6035 855.781 Q55.6035 861.36 51.9924 864.531 Q48.3581 867.68 41.9924 867.68 Q35.6036 867.68 31.9925 864.531 Q28.3814 861.36 28.3814 855.781 M17.0157 852.564 L17.0157 847.957 L25.7194 855.504 L25.7194 859.045 L17.0157 852.564 Z" fill="#000000" fill-rule="evenodd" fill-opacity="1" /><path clip-path="url(#clip010)" d="M29.0064 839.3 L29.0064 835.041 L49.2377 829.717 L29.0064 824.416 L29.0064 819.393 L49.2377 814.069 L29.0064 808.768 L29.0064 804.509 L54.9322 811.291 L54.9322 816.314 L33.6823 821.893 L54.9322 827.495 L54.9322 832.518 L29.0064 839.3 Z" fill="#000000" fill-rule="evenodd" fill-opacity="1" /><path clip-path="url(#clip010)" d="M51.0433 778.861 L64.7932 778.861 L64.7932 783.143 L29.0064 783.143 L29.0064 778.861 L32.9415 778.861 Q30.6267 777.518 29.5156 775.481 Q28.3814 773.421 28.3814 770.574 Q28.3814 765.851 32.1314 762.912 Q35.8813 759.949 41.9924 759.949 Q48.1035 759.949 51.8535 762.912 Q55.6035 765.851 55.6035 770.574 Q55.6035 773.421 54.4923 775.481 Q53.3581 777.518 51.0433 778.861 M41.9924 764.37 Q37.2934 764.37 34.6313 766.314 Q31.9462 768.236 31.9462 771.615 Q31.9462 774.995 34.6313 776.939 Q37.2934 778.861 41.9924 778.861 Q46.6915 778.861 49.3766 776.939 Q52.0387 774.995 52.0387 771.615 Q52.0387 768.236 49.3766 766.314 Q46.6915 764.37 41.9924 764.37 Z" fill="#000000" fill-rule="evenodd" fill-opacity="1" /><path clip-path="url(#clip010)" d="M32.9878 737.865 Q32.5712 738.583 32.386 739.44 Q32.1776 740.273 32.1776 741.291 Q32.1776 744.902 34.5387 746.847 Q36.8767 748.768 41.2748 748.768 L54.9322 748.768 L54.9322 753.051 L29.0064 753.051 L29.0064 748.768 L33.0341 748.768 Q30.673 747.426 29.5388 745.273 Q28.3814 743.12 28.3814 740.041 Q28.3814 739.602 28.4508 739.069 Q28.4971 738.537 28.6129 737.889 L32.9878 737.865 Z" fill="#000000" fill-rule="evenodd" fill-opacity="1" /><path clip-path="url(#clip010)" d="M31.9925 724.393 Q31.9925 727.819 34.6776 729.81 Q37.3397 731.801 41.9924 731.801 Q46.6452 731.801 49.3303 729.833 Q51.9924 727.842 51.9924 724.393 Q51.9924 720.991 49.3072 719 Q46.622 717.009 41.9924 717.009 Q37.386 717.009 34.7008 719 Q31.9925 720.991 31.9925 724.393 M28.3814 724.393 Q28.3814 718.838 31.9925 715.666 Q35.6036 712.495 41.9924 712.495 Q48.3581 712.495 51.9924 715.666 Q55.6035 718.838 55.6035 724.393 Q55.6035 729.972 51.9924 733.143 Q48.3581 736.291 41.9924 736.291 Q35.6036 736.291 31.9925 733.143 Q28.3814 729.972 28.3814 724.393 Z" fill="#000000" fill-rule="evenodd" fill-opacity="1" /><path clip-path="url(#clip010)" d="M32.9415 688.375 L18.9138 688.375 L18.9138 684.116 L54.9322 684.116 L54.9322 688.375 L51.0433 688.375 Q53.3581 689.718 54.4923 691.778 Q55.6035 693.815 55.6035 696.685 Q55.6035 701.384 51.8535 704.347 Q48.1035 707.287 41.9924 707.287 Q35.8813 707.287 32.1314 704.347 Q28.3814 701.384 28.3814 696.685 Q28.3814 693.815 29.5156 691.778 Q30.6267 689.718 32.9415 688.375 M41.9924 702.889 Q46.6915 702.889 49.3766 700.968 Q52.0387 699.023 52.0387 695.643 Q52.0387 692.264 49.3766 690.319 Q46.6915 688.375 41.9924 688.375 Q37.2934 688.375 34.6313 690.319 Q31.9462 692.264 31.9462 695.643 Q31.9462 699.023 34.6313 700.968 Q37.2934 702.889 41.9924 702.889 Z" fill="#000000" fill-rule="evenodd" fill-opacity="1" /><path clip-path="url(#clip010)" d="M44.7007 675.782 L29.0064 675.782 L29.0064 671.523 L44.5387 671.523 Q48.2192 671.523 50.0711 670.088 Q51.8998 668.653 51.8998 665.783 Q51.8998 662.333 49.7007 660.343 Q47.5016 658.329 43.7054 658.329 L29.0064 658.329 L29.0064 654.07 L54.9322 654.07 L54.9322 658.329 L50.9507 658.329 Q53.3118 659.88 54.4692 661.94 Q55.6035 663.977 55.6035 666.685 Q55.6035 671.153 52.8257 673.468 Q50.0479 675.782 44.7007 675.782 M28.3814 665.065 L28.3814 665.065 Z" fill="#000000" fill-rule="evenodd" fill-opacity="1" /><path clip-path="url(#clip010)" d="M18.9138 645.459 L18.9138 641.176 L40.1869 641.176 L29.0064 628.468 L29.0064 623.028 L41.1359 636.778 L54.9322 622.449 L54.9322 628.005 L42.2702 641.176 L54.9322 641.176 L54.9322 645.459 L18.9138 645.459 Z" fill="#000000" fill-rule="evenodd" fill-opacity="1" /><path clip-path="url(#clip010)" d="M21.6453 613.63 L29.0064 613.63 L29.0064 604.857 L32.3165 604.857 L32.3165 613.63 L46.3905 613.63 Q49.5618 613.63 50.4646 612.774 Q51.3674 611.894 51.3674 609.232 L51.3674 604.857 L54.9322 604.857 L54.9322 609.232 Q54.9322 614.162 53.1035 616.037 Q51.2516 617.912 46.3905 617.912 L32.3165 617.912 L32.3165 621.037 L29.0064 621.037 L29.0064 617.912 L21.6453 617.912 L21.6453 613.63 Z" fill="#000000" fill-rule="evenodd" fill-opacity="1" /><path clip-path="url(#clip010)" d="M44.7007 599.695 L29.0064 599.695 L29.0064 595.436 L44.5387 595.436 Q48.2192 595.436 50.0711 594 Q51.8998 592.565 51.8998 589.695 Q51.8998 586.246 49.7007 584.255 Q47.5016 582.241 43.7054 582.241 L29.0064 582.241 L29.0064 577.982 L54.9322 577.982 L54.9322 582.241 L50.9507 582.241 Q53.3118 583.792 54.4692 585.852 Q55.6035 587.889 55.6035 590.598 Q55.6035 595.065 52.8257 597.38 Q50.0479 599.695 44.7007 599.695 M28.3814 588.977 L28.3814 588.977 Z" fill="#000000" fill-rule="evenodd" fill-opacity="1" /><path clip-path="url(#clip010)" d="M31.9925 544.093 Q31.9925 547.519 34.6776 549.51 Q37.3397 551.501 41.9924 551.501 Q46.6452 551.501 49.3303 549.533 Q51.9924 547.542 51.9924 544.093 Q51.9924 540.691 49.3072 538.7 Q46.622 536.709 41.9924 536.709 Q37.386 536.709 34.7008 538.7 Q31.9925 540.691 31.9925 544.093 M28.3814 544.093 Q28.3814 538.538 31.9925 535.367 Q35.6036 532.195 41.9924 532.195 Q48.3581 532.195 51.9924 535.367 Q55.6035 538.538 55.6035 544.093 Q55.6035 549.672 51.9924 552.843 Q48.3581 555.991 41.9924 555.991 Q35.6036 555.991 31.9925 552.843 Q28.3814 549.672 28.3814 544.093 Z" fill="#000000" fill-rule="evenodd" fill-opacity="1" /><path clip-path="url(#clip010)" d="M32.9415 508.075 L18.9138 508.075 L18.9138 503.816 L54.9322 503.816 L54.9322 508.075 L51.0433 508.075 Q53.3581 509.418 54.4923 511.478 Q55.6035 513.515 55.6035 516.385 Q55.6035 521.084 51.8535 524.047 Q48.1035 526.987 41.9924 526.987 Q35.8813 526.987 32.1314 524.047 Q28.3814 521.084 28.3814 516.385 Q28.3814 513.515 29.5156 511.478 Q30.6267 509.418 32.9415 508.075 M41.9924 522.589 Q46.6915 522.589 49.3766 520.668 Q52.0387 518.723 52.0387 515.343 Q52.0387 511.964 49.3766 510.019 Q46.6915 508.075 41.9924 508.075 Q37.2934 508.075 34.6313 510.019 Q31.9462 511.964 31.9462 515.343 Q31.9462 518.723 34.6313 520.668 Q37.2934 522.589 41.9924 522.589 Z" fill="#000000" fill-rule="evenodd" fill-opacity="1" /><path clip-path="url(#clip010)" d="M31.9925 469.927 Q31.9925 473.353 34.6776 475.344 Q37.3397 477.334 41.9924 477.334 Q46.6452 477.334 49.3303 475.367 Q51.9924 473.376 51.9924 469.927 Q51.9924 466.524 49.3072 464.534 Q46.622 462.543 41.9924 462.543 Q37.386 462.543 34.7008 464.534 Q31.9925 466.524 31.9925 469.927 M28.3814 469.927 Q28.3814 464.372 31.9925 461.2 Q35.6036 458.029 41.9924 458.029 Q48.3581 458.029 51.9924 461.2 Q55.6035 464.372 55.6035 469.927 Q55.6035 475.506 51.9924 478.677 Q48.3581 481.825 41.9924 481.825 Q35.6036 481.825 31.9925 478.677 Q28.3814 475.506 28.3814 469.927 Z" fill="#000000" fill-rule="evenodd" fill-opacity="1" /><path clip-path="url(#clip010)" d="M30.0017 432.312 L33.9832 432.312 Q32.9878 434.117 32.5017 435.946 Q31.9925 437.751 31.9925 439.603 Q31.9925 443.747 34.6313 446.038 Q37.2471 448.33 41.9924 448.33 Q46.7378 448.33 49.3766 446.038 Q51.9924 443.747 51.9924 439.603 Q51.9924 437.751 51.5062 435.946 Q50.997 434.117 50.0016 432.312 L53.9368 432.312 Q54.7701 434.094 55.1868 436.015 Q55.6035 437.913 55.6035 440.066 Q55.6035 445.923 51.9229 449.372 Q48.2424 452.821 41.9924 452.821 Q35.6499 452.821 32.0156 449.348 Q28.3814 445.853 28.3814 439.788 Q28.3814 437.821 28.798 435.946 Q29.1916 434.071 30.0017 432.312 Z" fill="#000000" fill-rule="evenodd" fill-opacity="1" /><path clip-path="url(#clip010)" d="M29.0064 426.756 L29.0064 406.525 L32.8952 406.525 L51.5294 422.543 L51.5294 406.525 L54.9322 406.525 L54.9322 427.335 L51.0433 427.335 L32.4091 411.316 L32.4091 426.756 L29.0064 426.756 Z" fill="#000000" fill-rule="evenodd" fill-opacity="1" /><path clip-path="url(#clip010)" d="M40.9045 377.844 L42.9878 377.844 L42.9878 397.427 Q47.3859 397.15 49.7007 394.789 Q51.9924 392.404 51.9924 388.168 Q51.9924 385.715 51.3905 383.423 Q50.7887 381.108 49.585 378.84 L53.6127 378.84 Q54.5849 381.131 55.0942 383.539 Q55.6035 385.946 55.6035 388.423 Q55.6035 394.627 51.9924 398.261 Q48.3813 401.872 42.2239 401.872 Q35.8582 401.872 32.1314 398.446 Q28.3814 394.997 28.3814 389.164 Q28.3814 383.932 31.761 380.9 Q35.1174 377.844 40.9045 377.844 M39.6545 382.103 Q36.1591 382.15 34.0758 384.071 Q31.9925 385.969 31.9925 389.117 Q31.9925 392.682 34.0063 394.835 Q36.0202 396.965 39.6776 397.289 L39.6545 382.103 Z" fill="#000000" fill-rule="evenodd" fill-opacity="1" /><path clip-path="url(#clip010)" d="M18.9138 371.016 L18.9138 366.733 L40.1869 366.733 L29.0064 354.025 L29.0064 348.585 L41.1359 362.335 L54.9322 348.006 L54.9322 353.562 L42.2702 366.733 L54.9322 366.733 L54.9322 371.016 L18.9138 371.016 Z" fill="#000000" fill-rule="evenodd" fill-opacity="1" /><path clip-path="url(#clip010)" d="M29.0064 343.4 L29.0064 339.141 L54.9322 339.141 L54.9322 343.4 L29.0064 343.4 M18.9138 343.4 L18.9138 339.141 L24.3073 339.141 L24.3073 343.4 L18.9138 343.4 Z" fill="#000000" fill-rule="evenodd" fill-opacity="1" /><path clip-path="url(#clip010)" d="M29.0064 332.706 L29.0064 328.446 L49.2377 323.122 L29.0064 317.821 L29.0064 312.798 L49.2377 307.474 L29.0064 302.173 L29.0064 297.914 L54.9322 304.696 L54.9322 309.72 L33.6823 315.298 L54.9322 320.9 L54.9322 325.923 L29.0064 332.706 Z" fill="#000000" fill-rule="evenodd" fill-opacity="1" /><path clip-path="url(#clip010)" d="M41.8998 279.673 Q41.8998 284.835 43.0804 286.826 Q44.2609 288.817 47.1081 288.817 Q49.3766 288.817 50.7192 287.335 Q52.0387 285.831 52.0387 283.261 Q52.0387 279.72 49.5387 277.59 Q47.0155 275.437 42.8489 275.437 L41.8998 275.437 L41.8998 279.673 M40.1406 271.178 L54.9322 271.178 L54.9322 275.437 L50.997 275.437 Q53.3581 276.896 54.4923 279.072 Q55.6035 281.248 55.6035 284.396 Q55.6035 288.377 53.3812 290.738 Q51.1359 293.076 47.3859 293.076 Q43.0109 293.076 40.7887 290.16 Q38.5665 287.22 38.5665 281.41 L38.5665 275.437 L38.1498 275.437 Q35.21 275.437 33.6128 277.382 Q31.9925 279.303 31.9925 282.798 Q31.9925 285.021 32.5249 287.127 Q33.0573 289.234 34.1221 291.178 L30.1869 291.178 Q29.2841 288.84 28.8443 286.641 Q28.3814 284.442 28.3814 282.359 Q28.3814 276.734 31.298 273.956 Q34.2147 271.178 40.1406 271.178 Z" fill="#000000" fill-rule="evenodd" fill-opacity="1" /><path clip-path="url(#clip010)" d="M16.8537 250.275 L16.8537 245.669 L25.5573 253.215 L25.5573 256.757 L16.8537 250.275 M39.2841 240.854 L54.9322 240.854 L54.9322 245.113 L39.423 245.113 Q35.7424 245.113 33.9138 246.549 Q32.0851 247.984 32.0851 250.854 Q32.0851 254.303 34.2841 256.294 Q36.4832 258.285 40.2795 258.285 L54.9322 258.285 L54.9322 262.567 L29.0064 262.567 L29.0064 258.285 L33.0341 258.285 Q30.6962 256.757 29.5388 254.697 Q28.3814 252.613 28.3814 249.905 Q28.3814 245.438 31.1591 243.146 Q33.9138 240.854 39.2841 240.854 Z" fill="#000000" fill-rule="evenodd" fill-opacity="1" /><path clip-path="url(#clip010)" d="M1181.61 12.096 L1189.79 12.096 L1189.79 68.3631 Q1189.79 79.3005 1185.62 84.2426 Q1181.49 89.1847 1172.29 89.1847 L1169.17 89.1847 L1169.17 82.2982 L1171.73 82.2982 Q1177.16 82.2982 1179.38 79.26 Q1181.61 76.2218 1181.61 68.3631 L1181.61 12.096 Z" fill="#000000" fill-rule="evenodd" fill-opacity="1" /><path clip-path="url(#clip010)" d="M1226.37 49.7694 Q1217.34 49.7694 1213.86 51.8354 Q1210.37 53.9013 1210.37 58.8839 Q1210.37 62.8538 1212.97 65.2034 Q1215.6 67.5124 1220.09 67.5124 Q1226.29 67.5124 1230.02 63.1374 Q1233.79 58.7219 1233.79 51.4303 L1233.79 49.7694 L1226.37 49.7694 M1241.24 46.6907 L1241.24 72.576 L1233.79 72.576 L1233.79 65.6895 Q1231.23 69.8214 1227.43 71.8063 Q1223.62 73.7508 1218.11 73.7508 Q1211.14 73.7508 1207.01 69.8619 Q1202.92 65.9325 1202.92 59.3701 Q1202.92 51.7138 1208.02 47.825 Q1213.17 43.9361 1223.34 43.9361 L1233.79 43.9361 L1233.79 43.2069 Q1233.79 38.0623 1230.38 35.2672 Q1227.02 32.4315 1220.9 32.4315 Q1217.02 32.4315 1213.33 33.3632 Q1209.64 34.295 1206.24 36.1584 L1206.24 29.2718 Q1210.33 27.692 1214.18 26.9223 Q1218.03 26.1121 1221.67 26.1121 Q1231.52 26.1121 1236.38 31.2163 Q1241.24 36.3204 1241.24 46.6907 Z" fill="#000000" fill-rule="evenodd" fill-opacity="1" /><path clip-path="url(#clip010)" d="M1256.31 9.54393 L1263.8 9.54393 L1263.8 46.7717 L1286.04 27.2059 L1295.56 27.2059 L1271.5 48.4326 L1296.58 72.576 L1286.85 72.576 L1263.8 50.4176 L1263.8 72.576 L1256.31 72.576 L1256.31 9.54393 Z" fill="#000000" fill-rule="evenodd" fill-opacity="1" /><path clip-path="url(#clip010)" d="M1319.26 32.4315 Q1313.27 32.4315 1309.78 37.1306 Q1306.3 41.7891 1306.3 49.9314 Q1306.3 58.0738 1309.74 62.7728 Q1313.23 67.4314 1319.26 67.4314 Q1325.22 67.4314 1328.7 62.7323 Q1332.18 58.0333 1332.18 49.9314 Q1332.18 41.8701 1328.7 37.1711 Q1325.22 32.4315 1319.26 32.4315 M1319.26 26.1121 Q1328.98 26.1121 1334.53 32.4315 Q1340.08 38.7509 1340.08 49.9314 Q1340.08 61.0714 1334.53 67.4314 Q1328.98 73.7508 1319.26 73.7508 Q1309.5 73.7508 1303.95 67.4314 Q1298.44 61.0714 1298.44 49.9314 Q1298.44 38.7509 1303.95 32.4315 Q1309.5 26.1121 1319.26 26.1121 Z" fill="#000000" fill-rule="evenodd" fill-opacity="1" /><path clip-path="url(#clip010)" d="M1373.66 5.93863 L1381.73 5.93863 L1368.52 21.17 L1362.32 21.17 L1373.66 5.93863 M1381.36 28.5427 L1381.36 35.5912 Q1378.2 33.9709 1374.8 33.1607 Q1371.4 32.3505 1367.75 32.3505 Q1362.2 32.3505 1359.41 34.0519 Q1356.65 35.7533 1356.65 39.156 Q1356.65 41.7486 1358.64 43.2475 Q1360.62 44.7058 1366.62 46.0426 L1369.17 46.6097 Q1377.11 48.3111 1380.43 51.4303 Q1383.79 54.509 1383.79 60.0587 Q1383.79 66.3781 1378.77 70.0644 Q1373.79 73.7508 1365.04 73.7508 Q1361.39 73.7508 1357.42 73.0216 Q1353.49 72.3329 1349.12 70.9151 L1349.12 63.2184 Q1353.25 65.3654 1357.26 66.4591 Q1361.27 67.5124 1365.2 67.5124 Q1370.46 67.5124 1373.3 65.73 Q1376.14 63.9071 1376.14 60.6258 Q1376.14 57.5877 1374.07 55.9673 Q1372.04 54.3469 1365.12 52.8481 L1362.52 52.2405 Q1355.6 50.7821 1352.52 47.7845 Q1349.44 44.7463 1349.44 39.4801 Q1349.44 33.0797 1353.98 29.5959 Q1358.51 26.1121 1366.86 26.1121 Q1370.99 26.1121 1374.64 26.7198 Q1378.28 27.3274 1381.36 28.5427 Z" fill="#000000" fill-rule="evenodd" fill-opacity="1" /><path clip-path="url(#clip010)" d="M1428.31 28.9478 L1428.31 35.9153 Q1425.15 34.1734 1421.95 33.3227 Q1418.79 32.4315 1415.55 32.4315 Q1408.3 32.4315 1404.29 37.0496 Q1400.28 41.6271 1400.28 49.9314 Q1400.28 58.2358 1404.29 62.8538 Q1408.3 67.4314 1415.55 67.4314 Q1418.79 67.4314 1421.95 66.5807 Q1425.15 65.6895 1428.31 63.9476 L1428.31 70.8341 Q1425.19 72.2924 1421.83 73.0216 Q1418.51 73.7508 1414.74 73.7508 Q1404.49 73.7508 1398.46 67.3098 Q1392.42 60.8689 1392.42 49.9314 Q1392.42 38.832 1398.5 32.472 Q1404.61 26.1121 1415.23 26.1121 Q1418.67 26.1121 1421.95 26.8413 Q1425.23 27.5299 1428.31 28.9478 M1419.76 6.22219 L1427.83 6.22219 L1414.62 21.4536 L1408.42 21.4536 L1419.76 6.22219 Z" fill="#000000" fill-rule="evenodd" fill-opacity="1" /><path clip-path="url(#clip012)" d="
M746.325 1043.84 L525.358 1043.84 L967.292 1043.84 L746.325 1043.84 L746.325 830.56 L746.325 1043.84  Z
  " fill="#009af9" fill-rule="evenodd" fill-opacity="1"/>
<polyline clip-path="url(#clip012)" style="stroke:#000000; stroke-linecap:round; stroke-linejoin:round; stroke-width:4; stroke-opacity:1; fill:none" points="
  746.325,1043.84 525.358,1043.84 967.292,1043.84 746.325,1043.84 746.325,830.56 746.325,1043.84 
  "/>
<path clip-path="url(#clip012)" d="
M1188.26 830.56 L1188.26 775.212 L304.391 775.212 L304.391 830.56 L1188.26 830.56 L1188.26 775.212 L1188.26 830.56  Z
  " fill="#009af9" fill-rule="evenodd" fill-opacity="1"/>
<polyline clip-path="url(#clip012)" style="stroke:#000000; stroke-linecap:round; stroke-linejoin:round; stroke-width:4; stroke-opacity:1; fill:none" points="
  1188.26,830.56 1188.26,775.212 304.391,775.212 304.391,830.56 1188.26,830.56 1188.26,775.212 1188.26,830.56 
  "/>
<path clip-path="url(#clip012)" d="
M1188.26 687.519 L304.391 687.519 L304.391 775.212 L1188.26 775.212 L1188.26 687.519 L746.325 687.519 L1188.26 687.519  Z
  " fill="#009af9" fill-rule="evenodd" fill-opacity="1"/>
<polyline clip-path="url(#clip012)" style="stroke:#000000; stroke-linecap:round; stroke-linejoin:round; stroke-width:4; stroke-opacity:1; fill:none" points="
  1188.26,687.519 304.391,687.519 304.391,775.212 1188.26,775.212 1188.26,687.519 746.325,687.519 1188.26,687.519 
  "/>
<path clip-path="url(#clip012)" d="
M746.325 478.134 L525.358 478.134 L967.292 478.134 L746.325 478.134 L746.325 687.519 L746.325 478.134  Z
  " fill="#009af9" fill-rule="evenodd" fill-opacity="1"/>
<polyline clip-path="url(#clip012)" style="stroke:#000000; stroke-linecap:round; stroke-linejoin:round; stroke-width:4; stroke-opacity:1; fill:none" points="
  746.325,478.134 525.358,478.134 967.292,478.134 746.325,478.134 746.325,687.519 746.325,478.134 
  "/>
<circle clip-path="url(#clip012)" cx="746.325" cy="1094.54" r="14.4" fill="#009af9" fill-rule="evenodd" fill-opacity="1" stroke="#000000" stroke-opacity="1" stroke-width="3.2"/>
<circle clip-path="url(#clip012)" cx="746.325" cy="279.591" r="14.4" fill="#009af9" fill-rule="evenodd" fill-opacity="1" stroke="#000000" stroke-opacity="1" stroke-width="3.2"/>
<circle clip-path="url(#clip012)" cx="746.325" cy="295.121" r="14.4" fill="#009af9" fill-rule="evenodd" fill-opacity="1" stroke="#000000" stroke-opacity="1" stroke-width="3.2"/>
<circle clip-path="url(#clip012)" cx="746.325" cy="400.676" r="14.4" fill="#009af9" fill-rule="evenodd" fill-opacity="1" stroke="#000000" stroke-opacity="1" stroke-width="3.2"/>
<circle clip-path="url(#clip012)" cx="746.325" cy="396.541" r="14.4" fill="#009af9" fill-rule="evenodd" fill-opacity="1" stroke="#000000" stroke-opacity="1" stroke-width="3.2"/>
<circle clip-path="url(#clip012)" cx="746.325" cy="464.491" r="14.4" fill="#009af9" fill-rule="evenodd" fill-opacity="1" stroke="#000000" stroke-opacity="1" stroke-width="3.2"/>
<circle clip-path="url(#clip012)" cx="746.325" cy="265.464" r="14.4" fill="#009af9" fill-rule="evenodd" fill-opacity="1" stroke="#000000" stroke-opacity="1" stroke-width="3.2"/>
<circle clip-path="url(#clip012)" cx="746.325" cy="1151.12" r="14.4" fill="#009af9" fill-rule="evenodd" fill-opacity="1" stroke="#000000" stroke-opacity="1" stroke-width="3.2"/>
<circle clip-path="url(#clip012)" cx="746.325" cy="404.829" r="14.4" fill="#009af9" fill-rule="evenodd" fill-opacity="1" stroke="#000000" stroke-opacity="1" stroke-width="3.2"/>
<circle clip-path="url(#clip012)" cx="746.325" cy="1050.52" r="14.4" fill="#009af9" fill-rule="evenodd" fill-opacity="1" stroke="#000000" stroke-opacity="1" stroke-width="3.2"/>
<circle clip-path="url(#clip012)" cx="746.325" cy="345.728" r="14.4" fill="#009af9" fill-rule="evenodd" fill-opacity="1" stroke="#000000" stroke-opacity="1" stroke-width="3.2"/>
<circle clip-path="url(#clip012)" cx="746.325" cy="446.713" r="14.4" fill="#009af9" fill-rule="evenodd" fill-opacity="1" stroke="#000000" stroke-opacity="1" stroke-width="3.2"/>
<circle clip-path="url(#clip012)" cx="746.325" cy="1061.37" r="14.4" fill="#009af9" fill-rule="evenodd" fill-opacity="1" stroke="#000000" stroke-opacity="1" stroke-width="3.2"/>
<circle clip-path="url(#clip012)" cx="746.325" cy="347.659" r="14.4" fill="#009af9" fill-rule="evenodd" fill-opacity="1" stroke="#000000" stroke-opacity="1" stroke-width="3.2"/>
<circle clip-path="url(#clip012)" cx="746.325" cy="414.078" r="14.4" fill="#009af9" fill-rule="evenodd" fill-opacity="1" stroke="#000000" stroke-opacity="1" stroke-width="3.2"/>
<circle clip-path="url(#clip012)" cx="746.325" cy="298.591" r="14.4" fill="#009af9" fill-rule="evenodd" fill-opacity="1" stroke="#000000" stroke-opacity="1" stroke-width="3.2"/>
<circle clip-path="url(#clip012)" cx="746.325" cy="436.098" r="14.4" fill="#009af9" fill-rule="evenodd" fill-opacity="1" stroke="#000000" stroke-opacity="1" stroke-width="3.2"/>
<circle clip-path="url(#clip012)" cx="746.325" cy="444.669" r="14.4" fill="#009af9" fill-rule="evenodd" fill-opacity="1" stroke="#000000" stroke-opacity="1" stroke-width="3.2"/>
<circle clip-path="url(#clip012)" cx="746.325" cy="393.786" r="14.4" fill="#009af9" fill-rule="evenodd" fill-opacity="1" stroke="#000000" stroke-opacity="1" stroke-width="3.2"/>
<circle clip-path="url(#clip012)" cx="746.325" cy="466.35" r="14.4" fill="#009af9" fill-rule="evenodd" fill-opacity="1" stroke="#000000" stroke-opacity="1" stroke-width="3.2"/>
<circle clip-path="url(#clip012)" cx="746.325" cy="353.721" r="14.4" fill="#009af9" fill-rule="evenodd" fill-opacity="1" stroke="#000000" stroke-opacity="1" stroke-width="3.2"/>
<circle clip-path="url(#clip012)" cx="746.325" cy="386.881" r="14.4" fill="#009af9" fill-rule="evenodd" fill-opacity="1" stroke="#000000" stroke-opacity="1" stroke-width="3.2"/>
<circle clip-path="url(#clip012)" cx="746.325" cy="260.052" r="14.4" fill="#009af9" fill-rule="evenodd" fill-opacity="1" stroke="#000000" stroke-opacity="1" stroke-width="3.2"/>
<circle clip-path="url(#clip012)" cx="746.325" cy="311.758" r="14.4" fill="#009af9" fill-rule="evenodd" fill-opacity="1" stroke="#000000" stroke-opacity="1" stroke-width="3.2"/>
<circle clip-path="url(#clip012)" cx="746.325" cy="466.478" r="14.4" fill="#009af9" fill-rule="evenodd" fill-opacity="1" stroke="#000000" stroke-opacity="1" stroke-width="3.2"/>
<circle clip-path="url(#clip012)" cx="746.325" cy="464.484" r="14.4" fill="#009af9" fill-rule="evenodd" fill-opacity="1" stroke="#000000" stroke-opacity="1" stroke-width="3.2"/>
<circle clip-path="url(#clip012)" cx="746.325" cy="1077.74" r="14.4" fill="#009af9" fill-rule="evenodd" fill-opacity="1" stroke="#000000" stroke-opacity="1" stroke-width="3.2"/>
<circle clip-path="url(#clip012)" cx="746.325" cy="383.878" r="14.4" fill="#009af9" fill-rule="evenodd" fill-opacity="1" stroke="#000000" stroke-opacity="1" stroke-width="3.2"/>
<circle clip-path="url(#clip012)" cx="746.325" cy="1447.87" r="14.4" fill="#009af9" fill-rule="evenodd" fill-opacity="1" stroke="#000000" stroke-opacity="1" stroke-width="3.2"/>
<circle clip-path="url(#clip012)" cx="746.325" cy="298.269" r="14.4" fill="#009af9" fill-rule="evenodd" fill-opacity="1" stroke="#000000" stroke-opacity="1" stroke-width="3.2"/>
<circle clip-path="url(#clip012)" cx="746.325" cy="461.305" r="14.4" fill="#009af9" fill-rule="evenodd" fill-opacity="1" stroke="#000000" stroke-opacity="1" stroke-width="3.2"/>
<circle clip-path="url(#clip012)" cx="746.325" cy="182.281" r="14.4" fill="#009af9" fill-rule="evenodd" fill-opacity="1" stroke="#000000" stroke-opacity="1" stroke-width="3.2"/>
<circle clip-path="url(#clip012)" cx="746.325" cy="162.047" r="14.4" fill="#009af9" fill-rule="evenodd" fill-opacity="1" stroke="#000000" stroke-opacity="1" stroke-width="3.2"/>
<circle clip-path="url(#clip012)" cx="746.325" cy="170.535" r="14.4" fill="#009af9" fill-rule="evenodd" fill-opacity="1" stroke="#000000" stroke-opacity="1" stroke-width="3.2"/>
<circle clip-path="url(#clip012)" cx="746.325" cy="372.549" r="14.4" fill="#009af9" fill-rule="evenodd" fill-opacity="1" stroke="#000000" stroke-opacity="1" stroke-width="3.2"/>
<circle clip-path="url(#clip012)" cx="746.325" cy="472.589" r="14.4" fill="#009af9" fill-rule="evenodd" fill-opacity="1" stroke="#000000" stroke-opacity="1" stroke-width="3.2"/>
<circle clip-path="url(#clip012)" cx="746.325" cy="374.199" r="14.4" fill="#009af9" fill-rule="evenodd" fill-opacity="1" stroke="#000000" stroke-opacity="1" stroke-width="3.2"/>
<circle clip-path="url(#clip012)" cx="746.325" cy="465.458" r="14.4" fill="#009af9" fill-rule="evenodd" fill-opacity="1" stroke="#000000" stroke-opacity="1" stroke-width="3.2"/>
<circle clip-path="url(#clip012)" cx="746.325" cy="381.588" r="14.4" fill="#009af9" fill-rule="evenodd" fill-opacity="1" stroke="#000000" stroke-opacity="1" stroke-width="3.2"/>
<circle clip-path="url(#clip012)" cx="746.325" cy="443.413" r="14.4" fill="#009af9" fill-rule="evenodd" fill-opacity="1" stroke="#000000" stroke-opacity="1" stroke-width="3.2"/>
<circle clip-path="url(#clip012)" cx="746.325" cy="1099.83" r="14.4" fill="#009af9" fill-rule="evenodd" fill-opacity="1" stroke="#000000" stroke-opacity="1" stroke-width="3.2"/>
<circle clip-path="url(#clip012)" cx="746.325" cy="356.107" r="14.4" fill="#009af9" fill-rule="evenodd" fill-opacity="1" stroke="#000000" stroke-opacity="1" stroke-width="3.2"/>
<circle clip-path="url(#clip012)" cx="746.325" cy="291.992" r="14.4" fill="#009af9" fill-rule="evenodd" fill-opacity="1" stroke="#000000" stroke-opacity="1" stroke-width="3.2"/>
<circle clip-path="url(#clip012)" cx="746.325" cy="462.004" r="14.4" fill="#009af9" fill-rule="evenodd" fill-opacity="1" stroke="#000000" stroke-opacity="1" stroke-width="3.2"/>
<polyline clip-path="url(#clip012)" style="stroke:#009af9; stroke-linecap:round; stroke-linejoin:round; stroke-width:0; stroke-opacity:1; fill:none" points="
  746.325,1043.84 525.358,1043.84 967.292,1043.84 746.325,1043.84 746.325,830.56 
  "/>
<polyline clip-path="url(#clip012)" style="stroke:#009af9; stroke-linecap:round; stroke-linejoin:round; stroke-width:0; stroke-opacity:1; fill:none" points="
  1188.26,830.56 1188.26,775.212 304.391,775.212 304.391,830.56 1188.26,830.56 1188.26,775.212 
  "/>
<polyline clip-path="url(#clip012)" style="stroke:#009af9; stroke-linecap:round; stroke-linejoin:round; stroke-width:0; stroke-opacity:1; fill:none" points="
  1188.26,687.519 304.391,687.519 304.391,775.212 1188.26,775.212 1188.26,687.519 746.325,687.519 
  "/>
<polyline clip-path="url(#clip012)" style="stroke:#009af9; stroke-linecap:round; stroke-linejoin:round; stroke-width:0; stroke-opacity:1; fill:none" points="
  746.325,478.134 525.358,478.134 967.292,478.134 746.325,478.134 746.325,687.519 
  "/>
<path clip-path="url(#clip012)" d="
M1851.16 972.341 L1630.19 972.341 L2072.13 972.341 L1851.16 972.341 L1851.16 851.911 L1851.16 972.341  Z
  " fill="#e26f46" fill-rule="evenodd" fill-opacity="1"/>
<polyline clip-path="url(#clip012)" style="stroke:#000000; stroke-linecap:round; stroke-linejoin:round; stroke-width:4; stroke-opacity:1; fill:none" points="
  1851.16,972.341 1630.19,972.341 2072.13,972.341 1851.16,972.341 1851.16,851.911 1851.16,972.341 
  "/>
<path clip-path="url(#clip012)" d="
M2293.09 851.911 L2293.09 819.224 L1409.23 819.224 L1409.23 851.911 L2293.09 851.911 L2293.09 819.224 L2293.09 851.911  Z
  " fill="#e26f46" fill-rule="evenodd" fill-opacity="1"/>
<polyline clip-path="url(#clip012)" style="stroke:#000000; stroke-linecap:round; stroke-linejoin:round; stroke-width:4; stroke-opacity:1; fill:none" points="
  2293.09,851.911 2293.09,819.224 1409.23,819.224 1409.23,851.911 2293.09,851.911 2293.09,819.224 2293.09,851.911 
  "/>
<path clip-path="url(#clip012)" d="
M2293.09 768.907 L1409.23 768.907 L1409.23 819.224 L2293.09 819.224 L2293.09 768.907 L1851.16 768.907 L2293.09 768.907  Z
  " fill="#e26f46" fill-rule="evenodd" fill-opacity="1"/>
<polyline clip-path="url(#clip012)" style="stroke:#000000; stroke-linecap:round; stroke-linejoin:round; stroke-width:4; stroke-opacity:1; fill:none" points="
  2293.09,768.907 1409.23,768.907 1409.23,819.224 2293.09,819.224 2293.09,768.907 1851.16,768.907 2293.09,768.907 
  "/>
<path clip-path="url(#clip012)" d="
M1851.16 645.298 L1630.19 645.298 L2072.13 645.298 L1851.16 645.298 L1851.16 768.907 L1851.16 645.298  Z
  " fill="#e26f46" fill-rule="evenodd" fill-opacity="1"/>
<polyline clip-path="url(#clip012)" style="stroke:#000000; stroke-linecap:round; stroke-linejoin:round; stroke-width:4; stroke-opacity:1; fill:none" points="
  1851.16,645.298 1630.19,645.298 2072.13,645.298 1851.16,645.298 1851.16,768.907 1851.16,645.298 
  "/>
<circle clip-path="url(#clip012)" cx="1851.16" cy="546.163" r="14.4" fill="#e26f46" fill-rule="evenodd" fill-opacity="1" stroke="#000000" stroke-opacity="1" stroke-width="3.2"/>
<circle clip-path="url(#clip012)" cx="1851.16" cy="631.381" r="14.4" fill="#e26f46" fill-rule="evenodd" fill-opacity="1" stroke="#000000" stroke-opacity="1" stroke-width="3.2"/>
<circle clip-path="url(#clip012)" cx="1851.16" cy="614.854" r="14.4" fill="#e26f46" fill-rule="evenodd" fill-opacity="1" stroke="#000000" stroke-opacity="1" stroke-width="3.2"/>
<circle clip-path="url(#clip012)" cx="1851.16" cy="579.184" r="14.4" fill="#e26f46" fill-rule="evenodd" fill-opacity="1" stroke="#000000" stroke-opacity="1" stroke-width="3.2"/>
<circle clip-path="url(#clip012)" cx="1851.16" cy="579.819" r="14.4" fill="#e26f46" fill-rule="evenodd" fill-opacity="1" stroke="#000000" stroke-opacity="1" stroke-width="3.2"/>
<circle clip-path="url(#clip012)" cx="1851.16" cy="456.715" r="14.4" fill="#e26f46" fill-rule="evenodd" fill-opacity="1" stroke="#000000" stroke-opacity="1" stroke-width="3.2"/>
<circle clip-path="url(#clip012)" cx="1851.16" cy="623.042" r="14.4" fill="#e26f46" fill-rule="evenodd" fill-opacity="1" stroke="#000000" stroke-opacity="1" stroke-width="3.2"/>
<circle clip-path="url(#clip012)" cx="1851.16" cy="592.892" r="14.4" fill="#e26f46" fill-rule="evenodd" fill-opacity="1" stroke="#000000" stroke-opacity="1" stroke-width="3.2"/>
<circle clip-path="url(#clip012)" cx="1851.16" cy="538.889" r="14.4" fill="#e26f46" fill-rule="evenodd" fill-opacity="1" stroke="#000000" stroke-opacity="1" stroke-width="3.2"/>
<circle clip-path="url(#clip012)" cx="1851.16" cy="629.894" r="14.4" fill="#e26f46" fill-rule="evenodd" fill-opacity="1" stroke="#000000" stroke-opacity="1" stroke-width="3.2"/>
<circle clip-path="url(#clip012)" cx="1851.16" cy="459.049" r="14.4" fill="#e26f46" fill-rule="evenodd" fill-opacity="1" stroke="#000000" stroke-opacity="1" stroke-width="3.2"/>
<circle clip-path="url(#clip012)" cx="1851.16" cy="586.671" r="14.4" fill="#e26f46" fill-rule="evenodd" fill-opacity="1" stroke="#000000" stroke-opacity="1" stroke-width="3.2"/>
<circle clip-path="url(#clip012)" cx="1851.16" cy="622.445" r="14.4" fill="#e26f46" fill-rule="evenodd" fill-opacity="1" stroke="#000000" stroke-opacity="1" stroke-width="3.2"/>
<circle clip-path="url(#clip012)" cx="1851.16" cy="533.389" r="14.4" fill="#e26f46" fill-rule="evenodd" fill-opacity="1" stroke="#000000" stroke-opacity="1" stroke-width="3.2"/>
<circle clip-path="url(#clip012)" cx="1851.16" cy="637.572" r="14.4" fill="#e26f46" fill-rule="evenodd" fill-opacity="1" stroke="#000000" stroke-opacity="1" stroke-width="3.2"/>
<circle clip-path="url(#clip012)" cx="1851.16" cy="584.701" r="14.4" fill="#e26f46" fill-rule="evenodd" fill-opacity="1" stroke="#000000" stroke-opacity="1" stroke-width="3.2"/>
<circle clip-path="url(#clip012)" cx="1851.16" cy="501.007" r="14.4" fill="#e26f46" fill-rule="evenodd" fill-opacity="1" stroke="#000000" stroke-opacity="1" stroke-width="3.2"/>
<circle clip-path="url(#clip012)" cx="1851.16" cy="584.442" r="14.4" fill="#e26f46" fill-rule="evenodd" fill-opacity="1" stroke="#000000" stroke-opacity="1" stroke-width="3.2"/>
<circle clip-path="url(#clip012)" cx="1851.16" cy="508.526" r="14.4" fill="#e26f46" fill-rule="evenodd" fill-opacity="1" stroke="#000000" stroke-opacity="1" stroke-width="3.2"/>
<circle clip-path="url(#clip012)" cx="1851.16" cy="1135.92" r="14.4" fill="#e26f46" fill-rule="evenodd" fill-opacity="1" stroke="#000000" stroke-opacity="1" stroke-width="3.2"/>
<circle clip-path="url(#clip012)" cx="1851.16" cy="1042.38" r="14.4" fill="#e26f46" fill-rule="evenodd" fill-opacity="1" stroke="#000000" stroke-opacity="1" stroke-width="3.2"/>
<circle clip-path="url(#clip012)" cx="1851.16" cy="622.163" r="14.4" fill="#e26f46" fill-rule="evenodd" fill-opacity="1" stroke="#000000" stroke-opacity="1" stroke-width="3.2"/>
<circle clip-path="url(#clip012)" cx="1851.16" cy="536.129" r="14.4" fill="#e26f46" fill-rule="evenodd" fill-opacity="1" stroke="#000000" stroke-opacity="1" stroke-width="3.2"/>
<circle clip-path="url(#clip012)" cx="1851.16" cy="541.152" r="14.4" fill="#e26f46" fill-rule="evenodd" fill-opacity="1" stroke="#000000" stroke-opacity="1" stroke-width="3.2"/>
<circle clip-path="url(#clip012)" cx="1851.16" cy="538.465" r="14.4" fill="#e26f46" fill-rule="evenodd" fill-opacity="1" stroke="#000000" stroke-opacity="1" stroke-width="3.2"/>
<circle clip-path="url(#clip012)" cx="1851.16" cy="638.891" r="14.4" fill="#e26f46" fill-rule="evenodd" fill-opacity="1" stroke="#000000" stroke-opacity="1" stroke-width="3.2"/>
<circle clip-path="url(#clip012)" cx="1851.16" cy="485.752" r="14.4" fill="#e26f46" fill-rule="evenodd" fill-opacity="1" stroke="#000000" stroke-opacity="1" stroke-width="3.2"/>
<circle clip-path="url(#clip012)" cx="1851.16" cy="535.804" r="14.4" fill="#e26f46" fill-rule="evenodd" fill-opacity="1" stroke="#000000" stroke-opacity="1" stroke-width="3.2"/>
<circle clip-path="url(#clip012)" cx="1851.16" cy="618.016" r="14.4" fill="#e26f46" fill-rule="evenodd" fill-opacity="1" stroke="#000000" stroke-opacity="1" stroke-width="3.2"/>
<polyline clip-path="url(#clip012)" style="stroke:#e26f46; stroke-linecap:round; stroke-linejoin:round; stroke-width:0; stroke-opacity:1; fill:none" points="
  1851.16,972.341 1630.19,972.341 2072.13,972.341 1851.16,972.341 1851.16,851.911 
  "/>
<polyline clip-path="url(#clip012)" style="stroke:#e26f46; stroke-linecap:round; stroke-linejoin:round; stroke-width:0; stroke-opacity:1; fill:none" points="
  2293.09,851.911 2293.09,819.224 1409.23,819.224 1409.23,851.911 2293.09,851.911 2293.09,819.224 
  "/>
<polyline clip-path="url(#clip012)" style="stroke:#e26f46; stroke-linecap:round; stroke-linejoin:round; stroke-width:0; stroke-opacity:1; fill:none" points="
  2293.09,768.907 1409.23,768.907 1409.23,819.224 2293.09,819.224 2293.09,768.907 1851.16,768.907 
  "/>
<polyline clip-path="url(#clip012)" style="stroke:#e26f46; stroke-linecap:round; stroke-linejoin:round; stroke-width:0; stroke-opacity:1; fill:none" points="
  1851.16,645.298 1630.19,645.298 2072.13,645.298 1851.16,645.298 1851.16,768.907 
  "/>
</svg>
