<?xml version="1.0" encoding="utf-8"?>
<svg xmlns="http://www.w3.org/2000/svg" xmlns:xlink="http://www.w3.org/1999/xlink" width="600" height="400" viewBox="0 0 2400 1600">
<defs>
  <clipPath id="clip290">
    <rect x="0" y="0" width="2400" height="1600"/>
  </clipPath>
</defs>
<path clip-path="url(#clip290)" d="
M0 1600 L2400 1600 L2400 0 L0 0  Z
  " fill="#ffffff" fill-rule="evenodd" fill-opacity="1"/>
<defs>
  <clipPath id="clip291">
    <rect x="480" y="0" width="1681" height="1600"/>
  </clipPath>
</defs>
<path clip-path="url(#clip290)" d="
M243.017 1486.45 L2352.76 1486.45 L2352.76 123.472 L243.017 123.472  Z
  " fill="#ffffff" fill-rule="evenodd" fill-opacity="1"/>
<defs>
  <clipPath id="clip292">
    <rect x="243" y="123" width="2111" height="1364"/>
  </clipPath>
</defs>
<polyline clip-path="url(#clip292)" style="stroke:#000000; stroke-linecap:round; stroke-linejoin:round; stroke-width:2; stroke-opacity:0.1; fill:none" points="
  745.02,1486.45 745.02,123.472 
  "/>
<polyline clip-path="url(#clip292)" style="stroke:#000000; stroke-linecap:round; stroke-linejoin:round; stroke-width:2; stroke-opacity:0.1; fill:none" points="
  1850.75,1486.45 1850.75,123.472 
  "/>
<polyline clip-path="url(#clip290)" style="stroke:#000000; stroke-linecap:round; stroke-linejoin:round; stroke-width:4; stroke-opacity:1; fill:none" points="
  243.017,1486.45 2352.76,1486.45 
  "/>
<polyline clip-path="url(#clip290)" style="stroke:#000000; stroke-linecap:round; stroke-linejoin:round; stroke-width:4; stroke-opacity:1; fill:none" points="
  745.02,1486.45 745.02,1467.55 
  "/>
<polyline clip-path="url(#clip290)" style="stroke:#000000; stroke-linecap:round; stroke-linejoin:round; stroke-width:4; stroke-opacity:1; fill:none" points="
  1850.75,1486.45 1850.75,1467.55 
  "/>
<path clip-path="url(#clip290)" d="M394.709 1518.13 L394.709 1531.12 L400.589 1531.12 Q403.853 1531.12 405.635 1529.43 Q407.418 1527.74 407.418 1524.61 Q407.418 1521.51 405.635 1519.82 Q403.853 1518.13 400.589 1518.13 L394.709 1518.13 M390.033 1514.29 L400.589 1514.29 Q406.399 1514.29 409.362 1516.93 Q412.348 1519.54 412.348 1524.61 Q412.348 1529.73 409.362 1532.34 Q406.399 1534.96 400.589 1534.96 L394.709 1534.96 L394.709 1548.85 L390.033 1548.85 L390.033 1514.29 Z" fill="#000000" fill-rule="evenodd" fill-opacity="1" /><path clip-path="url(#clip290)" d="M432.626 1526.9 Q431.908 1526.49 431.052 1526.3 Q430.218 1526.09 429.2 1526.09 Q425.589 1526.09 423.644 1528.45 Q421.723 1530.79 421.723 1535.19 L421.723 1548.85 L417.441 1548.85 L417.441 1522.92 L421.723 1522.92 L421.723 1526.95 Q423.066 1524.59 425.218 1523.45 Q427.371 1522.3 430.45 1522.3 Q430.89 1522.3 431.422 1522.37 Q431.955 1522.41 432.603 1522.53 L432.626 1526.9 Z" fill="#000000" fill-rule="evenodd" fill-opacity="1" /><path clip-path="url(#clip290)" d="M446.098 1525.91 Q442.672 1525.91 440.681 1528.59 Q438.691 1531.26 438.691 1535.91 Q438.691 1540.56 440.658 1543.25 Q442.649 1545.91 446.098 1545.91 Q449.501 1545.91 451.491 1543.22 Q453.482 1540.54 453.482 1535.91 Q453.482 1531.3 451.491 1528.62 Q449.501 1525.91 446.098 1525.91 M446.098 1522.3 Q451.654 1522.3 454.825 1525.91 Q457.996 1529.52 457.996 1535.91 Q457.996 1542.27 454.825 1545.91 Q451.654 1549.52 446.098 1549.52 Q440.519 1549.52 437.348 1545.91 Q434.2 1542.27 434.2 1535.91 Q434.2 1529.52 437.348 1525.91 Q440.519 1522.3 446.098 1522.3 Z" fill="#000000" fill-rule="evenodd" fill-opacity="1" /><path clip-path="url(#clip290)" d="M482.116 1526.86 L482.116 1512.83 L486.376 1512.83 L486.376 1548.85 L482.116 1548.85 L482.116 1544.96 Q480.774 1547.27 478.714 1548.41 Q476.677 1549.52 473.806 1549.52 Q469.107 1549.52 466.144 1545.77 Q463.204 1542.02 463.204 1535.91 Q463.204 1529.8 466.144 1526.05 Q469.107 1522.3 473.806 1522.3 Q476.677 1522.3 478.714 1523.43 Q480.774 1524.54 482.116 1526.86 M467.603 1535.91 Q467.603 1540.61 469.524 1543.29 Q471.468 1545.95 474.848 1545.95 Q478.227 1545.95 480.172 1543.29 Q482.116 1540.61 482.116 1535.91 Q482.116 1531.21 480.172 1528.55 Q478.227 1525.86 474.848 1525.86 Q471.468 1525.86 469.524 1528.55 Q467.603 1531.21 467.603 1535.91 Z" fill="#000000" fill-rule="evenodd" fill-opacity="1" /><path clip-path="url(#clip290)" d="M494.709 1538.62 L494.709 1522.92 L498.968 1522.92 L498.968 1538.45 Q498.968 1542.13 500.403 1543.99 Q501.838 1545.82 504.709 1545.82 Q508.158 1545.82 510.149 1543.62 Q512.162 1541.42 512.162 1537.62 L512.162 1522.92 L516.422 1522.92 L516.422 1548.85 L512.162 1548.85 L512.162 1544.87 Q510.612 1547.23 508.551 1548.38 Q506.514 1549.52 503.806 1549.52 Q499.338 1549.52 497.024 1546.74 Q494.709 1543.96 494.709 1538.62 M505.426 1522.3 L505.426 1522.3 Z" fill="#000000" fill-rule="evenodd" fill-opacity="1" /><path clip-path="url(#clip290)" d="M543.852 1523.92 L543.852 1527.9 Q542.047 1526.9 540.218 1526.42 Q538.412 1525.91 536.56 1525.91 Q532.417 1525.91 530.125 1528.55 Q527.834 1531.16 527.834 1535.91 Q527.834 1540.65 530.125 1543.29 Q532.417 1545.91 536.56 1545.91 Q538.412 1545.91 540.218 1545.42 Q542.047 1544.91 543.852 1543.92 L543.852 1547.85 Q542.07 1548.69 540.148 1549.1 Q538.25 1549.52 536.098 1549.52 Q530.241 1549.52 526.792 1545.84 Q523.343 1542.16 523.343 1535.91 Q523.343 1529.57 526.815 1525.93 Q530.311 1522.3 536.375 1522.3 Q538.343 1522.3 540.218 1522.71 Q542.093 1523.11 543.852 1523.92 Z" fill="#000000" fill-rule="evenodd" fill-opacity="1" /><path clip-path="url(#clip290)" d="M573.435 1534.82 L573.435 1536.9 L553.852 1536.9 Q554.13 1541.3 556.491 1543.62 Q558.875 1545.91 563.111 1545.91 Q565.565 1545.91 567.857 1545.31 Q570.171 1544.7 572.44 1543.5 L572.44 1547.53 Q570.148 1548.5 567.741 1549.01 Q565.333 1549.52 562.857 1549.52 Q556.653 1549.52 553.019 1545.91 Q549.408 1542.3 549.408 1536.14 Q549.408 1529.77 552.834 1526.05 Q556.283 1522.3 562.116 1522.3 Q567.347 1522.3 570.38 1525.68 Q573.435 1529.03 573.435 1534.82 M569.176 1533.57 Q569.13 1530.07 567.208 1527.99 Q565.31 1525.91 562.162 1525.91 Q558.597 1525.91 556.445 1527.92 Q554.315 1529.94 553.991 1533.59 L569.176 1533.57 Z" fill="#000000" fill-rule="evenodd" fill-opacity="1" /><path clip-path="url(#clip290)" d="M601.977 1533.2 L601.977 1548.85 L597.718 1548.85 L597.718 1533.34 Q597.718 1529.66 596.282 1527.83 Q594.847 1526 591.977 1526 Q588.528 1526 586.537 1528.2 Q584.546 1530.4 584.546 1534.2 L584.546 1548.85 L580.264 1548.85 L580.264 1522.92 L584.546 1522.92 L584.546 1526.95 Q586.074 1524.61 588.134 1523.45 Q590.218 1522.3 592.926 1522.3 Q597.393 1522.3 599.685 1525.07 Q601.977 1527.83 601.977 1533.2 Z" fill="#000000" fill-rule="evenodd" fill-opacity="1" /><path clip-path="url(#clip290)" d="M614.685 1515.56 L614.685 1522.92 L623.458 1522.92 L623.458 1526.23 L614.685 1526.23 L614.685 1540.31 Q614.685 1543.48 615.542 1544.38 Q616.421 1545.28 619.083 1545.28 L623.458 1545.28 L623.458 1548.85 L619.083 1548.85 Q614.153 1548.85 612.278 1547.02 Q610.403 1545.17 610.403 1540.31 L610.403 1526.23 L607.278 1526.23 L607.278 1522.92 L610.403 1522.92 L610.403 1515.56 L614.685 1515.56 Z" fill="#000000" fill-rule="evenodd" fill-opacity="1" /><path clip-path="url(#clip290)" d="M665.68 1533.2 L665.68 1548.85 L661.421 1548.85 L661.421 1533.34 Q661.421 1529.66 659.986 1527.83 Q658.551 1526 655.68 1526 Q652.231 1526 650.24 1528.2 Q648.25 1530.4 648.25 1534.2 L648.25 1548.85 L643.967 1548.85 L643.967 1522.92 L648.25 1522.92 L648.25 1526.95 Q649.777 1524.61 651.838 1523.45 Q653.921 1522.3 656.629 1522.3 Q661.097 1522.3 663.388 1525.07 Q665.68 1527.83 665.68 1533.2 Z" fill="#000000" fill-rule="evenodd" fill-opacity="1" /><path clip-path="url(#clip290)" d="M674.175 1522.92 L678.435 1522.92 L678.435 1548.85 L674.175 1548.85 L674.175 1522.92 M674.175 1512.83 L678.435 1512.83 L678.435 1518.22 L674.175 1518.22 L674.175 1512.83 Z" fill="#000000" fill-rule="evenodd" fill-opacity="1" /><path clip-path="url(#clip290)" d="M709.523 1534.82 L709.523 1536.9 L689.939 1536.9 Q690.217 1541.3 692.578 1543.62 Q694.962 1545.91 699.198 1545.91 Q701.652 1545.91 703.944 1545.31 Q706.259 1544.7 708.527 1543.5 L708.527 1547.53 Q706.235 1548.5 703.828 1549.01 Q701.421 1549.52 698.944 1549.52 Q692.74 1549.52 689.106 1545.91 Q685.495 1542.3 685.495 1536.14 Q685.495 1529.77 688.921 1526.05 Q692.37 1522.3 698.203 1522.3 Q703.435 1522.3 706.467 1525.68 Q709.523 1529.03 709.523 1534.82 M705.263 1533.57 Q705.217 1530.07 703.296 1527.99 Q701.398 1525.91 698.249 1525.91 Q694.685 1525.91 692.532 1527.92 Q690.402 1529.94 690.078 1533.59 L705.263 1533.57 Z" fill="#000000" fill-rule="evenodd" fill-opacity="1" /><path clip-path="url(#clip290)" d="M735.703 1544.96 L735.703 1558.71 L731.421 1558.71 L731.421 1522.92 L735.703 1522.92 L735.703 1526.86 Q737.046 1524.54 739.083 1523.43 Q741.143 1522.3 743.99 1522.3 Q748.712 1522.3 751.652 1526.05 Q754.615 1529.8 754.615 1535.91 Q754.615 1542.02 751.652 1545.77 Q748.712 1549.52 743.99 1549.52 Q741.143 1549.52 739.083 1548.41 Q737.046 1547.27 735.703 1544.96 M750.194 1535.91 Q750.194 1531.21 748.249 1528.55 Q746.328 1525.86 742.948 1525.86 Q739.569 1525.86 737.624 1528.55 Q735.703 1531.21 735.703 1535.91 Q735.703 1540.61 737.624 1543.29 Q739.569 1545.95 742.948 1545.95 Q746.328 1545.95 748.249 1543.29 Q750.194 1540.61 750.194 1535.91 Z" fill="#000000" fill-rule="evenodd" fill-opacity="1" /><path clip-path="url(#clip290)" d="M776.698 1526.9 Q775.98 1526.49 775.124 1526.3 Q774.291 1526.09 773.272 1526.09 Q769.661 1526.09 767.717 1528.45 Q765.795 1530.79 765.795 1535.19 L765.795 1548.85 L761.513 1548.85 L761.513 1522.92 L765.795 1522.92 L765.795 1526.95 Q767.138 1524.59 769.291 1523.45 Q771.443 1522.3 774.522 1522.3 Q774.962 1522.3 775.494 1522.37 Q776.027 1522.41 776.675 1522.53 L776.698 1526.9 Z" fill="#000000" fill-rule="evenodd" fill-opacity="1" /><path clip-path="url(#clip290)" d="M790.17 1525.91 Q786.744 1525.91 784.754 1528.59 Q782.763 1531.26 782.763 1535.91 Q782.763 1540.56 784.73 1543.25 Q786.721 1545.91 790.17 1545.91 Q793.573 1545.91 795.564 1543.22 Q797.554 1540.54 797.554 1535.91 Q797.554 1531.3 795.564 1528.62 Q793.573 1525.91 790.17 1525.91 M790.17 1522.3 Q795.726 1522.3 798.897 1525.91 Q802.068 1529.52 802.068 1535.91 Q802.068 1542.27 798.897 1545.91 Q795.726 1549.52 790.17 1549.52 Q784.592 1549.52 781.42 1545.91 Q778.272 1542.27 778.272 1535.91 Q778.272 1529.52 781.42 1525.91 Q784.592 1522.3 790.17 1522.3 Z" fill="#000000" fill-rule="evenodd" fill-opacity="1" /><path clip-path="url(#clip290)" d="M806.652 1522.92 L810.911 1522.92 L816.235 1543.15 L821.536 1522.92 L826.559 1522.92 L831.883 1543.15 L837.184 1522.92 L841.443 1522.92 L834.661 1548.85 L829.638 1548.85 L824.059 1527.6 L818.457 1548.85 L813.434 1548.85 L806.652 1522.92 Z" fill="#000000" fill-rule="evenodd" fill-opacity="1" /><path clip-path="url(#clip290)" d="M859.684 1535.82 Q854.522 1535.82 852.531 1537 Q850.54 1538.18 850.54 1541.02 Q850.54 1543.29 852.022 1544.63 Q853.526 1545.95 856.096 1545.95 Q859.637 1545.95 861.767 1543.45 Q863.92 1540.93 863.92 1536.76 L863.92 1535.82 L859.684 1535.82 M868.179 1534.06 L868.179 1548.85 L863.92 1548.85 L863.92 1544.91 Q862.462 1547.27 860.286 1548.41 Q858.11 1549.52 854.962 1549.52 Q850.98 1549.52 848.619 1547.3 Q846.281 1545.05 846.281 1541.3 Q846.281 1536.93 849.198 1534.7 Q852.137 1532.48 857.948 1532.48 L863.92 1532.48 L863.92 1532.07 Q863.92 1529.13 861.975 1527.53 Q860.054 1525.91 856.559 1525.91 Q854.337 1525.91 852.23 1526.44 Q850.124 1526.97 848.179 1528.04 L848.179 1524.1 Q850.517 1523.2 852.716 1522.76 Q854.915 1522.3 856.999 1522.3 Q862.624 1522.3 865.401 1525.21 Q868.179 1528.13 868.179 1534.06 Z" fill="#000000" fill-rule="evenodd" fill-opacity="1" /><path clip-path="url(#clip290)" d="M894.012 1526.86 L894.012 1512.83 L898.271 1512.83 L898.271 1548.85 L894.012 1548.85 L894.012 1544.96 Q892.67 1547.27 890.61 1548.41 Q888.572 1549.52 885.702 1549.52 Q881.003 1549.52 878.04 1545.77 Q875.1 1542.02 875.1 1535.91 Q875.1 1529.8 878.04 1526.05 Q881.003 1522.3 885.702 1522.3 Q888.572 1522.3 890.61 1523.43 Q892.67 1524.54 894.012 1526.86 M879.498 1535.91 Q879.498 1540.61 881.42 1543.29 Q883.364 1545.95 886.744 1545.95 Q890.123 1545.95 892.068 1543.29 Q894.012 1540.61 894.012 1535.91 Q894.012 1531.21 892.068 1528.55 Q890.123 1525.86 886.744 1525.86 Q883.364 1525.86 881.42 1528.55 Q879.498 1531.21 879.498 1535.91 Z" fill="#000000" fill-rule="evenodd" fill-opacity="1" /><path clip-path="url(#clip290)" d="M905.193 1522.92 L925.424 1522.92 L925.424 1526.81 L909.406 1545.45 L925.424 1545.45 L925.424 1548.85 L904.614 1548.85 L904.614 1544.96 L920.632 1526.32 L905.193 1526.32 L905.193 1522.92 Z" fill="#000000" fill-rule="evenodd" fill-opacity="1" /><path clip-path="url(#clip290)" d="M931.929 1522.92 L936.188 1522.92 L936.188 1548.85 L931.929 1548.85 L931.929 1522.92 M931.929 1512.83 L936.188 1512.83 L936.188 1518.22 L931.929 1518.22 L931.929 1512.83 Z" fill="#000000" fill-rule="evenodd" fill-opacity="1" /><path clip-path="url(#clip290)" d="M978.78 1535.91 Q978.78 1531.21 976.836 1528.55 Q974.915 1525.86 971.535 1525.86 Q968.155 1525.86 966.211 1528.55 Q964.29 1531.21 964.29 1535.91 Q964.29 1540.61 966.211 1543.29 Q968.155 1545.95 971.535 1545.95 Q974.915 1545.95 976.836 1543.29 Q978.78 1540.61 978.78 1535.91 M964.29 1526.86 Q965.632 1524.54 967.669 1523.43 Q969.729 1522.3 972.577 1522.3 Q977.299 1522.3 980.239 1526.05 Q983.202 1529.8 983.202 1535.91 Q983.202 1542.02 980.239 1545.77 Q977.299 1549.52 972.577 1549.52 Q969.729 1549.52 967.669 1548.41 Q965.632 1547.27 964.29 1544.96 L964.29 1548.85 L960.007 1548.85 L960.007 1512.83 L964.29 1512.83 L964.29 1526.86 Z" fill="#000000" fill-rule="evenodd" fill-opacity="1" /><path clip-path="url(#clip290)" d="M1002.04 1535.82 Q996.882 1535.82 994.891 1537 Q992.901 1538.18 992.901 1541.02 Q992.901 1543.29 994.382 1544.63 Q995.887 1545.95 998.456 1545.95 Q1002 1545.95 1004.13 1543.45 Q1006.28 1540.93 1006.28 1536.76 L1006.28 1535.82 L1002.04 1535.82 M1010.54 1534.06 L1010.54 1548.85 L1006.28 1548.85 L1006.28 1544.91 Q1004.82 1547.27 1002.65 1548.41 Q1000.47 1549.52 997.322 1549.52 Q993.34 1549.52 990.979 1547.3 Q988.641 1545.05 988.641 1541.3 Q988.641 1536.93 991.558 1534.7 Q994.498 1532.48 1000.31 1532.48 L1006.28 1532.48 L1006.28 1532.07 Q1006.28 1529.13 1004.34 1527.53 Q1002.41 1525.91 998.919 1525.91 Q996.697 1525.91 994.59 1526.44 Q992.484 1526.97 990.54 1528.04 L990.54 1524.1 Q992.877 1523.2 995.077 1522.76 Q997.276 1522.3 999.359 1522.3 Q1004.98 1522.3 1007.76 1525.21 Q1010.54 1528.13 1010.54 1534.06 Z" fill="#000000" fill-rule="evenodd" fill-opacity="1" /><path clip-path="url(#clip290)" d="M1036.37 1526.86 L1036.37 1512.83 L1040.63 1512.83 L1040.63 1548.85 L1036.37 1548.85 L1036.37 1544.96 Q1035.03 1547.27 1032.97 1548.41 Q1030.93 1549.52 1028.06 1549.52 Q1023.36 1549.52 1020.4 1545.77 Q1017.46 1542.02 1017.46 1535.91 Q1017.46 1529.8 1020.4 1526.05 Q1023.36 1522.3 1028.06 1522.3 Q1030.93 1522.3 1032.97 1523.43 Q1035.03 1524.54 1036.37 1526.86 M1021.86 1535.91 Q1021.86 1540.61 1023.78 1543.29 Q1025.72 1545.95 1029.1 1545.95 Q1032.48 1545.95 1034.43 1543.29 Q1036.37 1540.61 1036.37 1535.91 Q1036.37 1531.21 1034.43 1528.55 Q1032.48 1525.86 1029.1 1525.86 Q1025.72 1525.86 1023.78 1528.55 Q1021.86 1531.21 1021.86 1535.91 Z" fill="#000000" fill-rule="evenodd" fill-opacity="1" /><path clip-path="url(#clip290)" d="M1061.19 1535.82 Q1056.03 1535.82 1054.03 1537 Q1052.04 1538.18 1052.04 1541.02 Q1052.04 1543.29 1053.53 1544.63 Q1055.03 1545.95 1057.6 1545.95 Q1061.14 1545.95 1063.27 1543.45 Q1065.42 1540.93 1065.42 1536.76 L1065.42 1535.82 L1061.19 1535.82 M1069.68 1534.06 L1069.68 1548.85 L1065.42 1548.85 L1065.42 1544.91 Q1063.97 1547.27 1061.79 1548.41 Q1059.61 1549.52 1056.47 1549.52 Q1052.48 1549.52 1050.12 1547.3 Q1047.78 1545.05 1047.78 1541.3 Q1047.78 1536.93 1050.7 1534.7 Q1053.64 1532.48 1059.45 1532.48 L1065.42 1532.48 L1065.42 1532.07 Q1065.42 1529.13 1063.48 1527.53 Q1061.56 1525.91 1058.06 1525.91 Q1055.84 1525.91 1053.73 1526.44 Q1051.63 1526.97 1049.68 1528.04 L1049.68 1524.1 Q1052.02 1523.2 1054.22 1522.76 Q1056.42 1522.3 1058.5 1522.3 Q1064.13 1522.3 1066.9 1525.21 Q1069.68 1528.13 1069.68 1534.06 Z" fill="#000000" fill-rule="evenodd" fill-opacity="1" /><path clip-path="url(#clip290)" d="M1090.59 1510.77 L1095.19 1510.77 L1087.65 1519.47 L1084.1 1519.47 L1090.59 1510.77 M1100.01 1533.2 L1100.01 1548.85 L1095.75 1548.85 L1095.75 1533.34 Q1095.75 1529.66 1094.31 1527.83 Q1092.88 1526 1090.01 1526 Q1086.56 1526 1084.57 1528.2 Q1082.58 1530.4 1082.58 1534.2 L1082.58 1548.85 L1078.29 1548.85 L1078.29 1522.92 L1082.58 1522.92 L1082.58 1526.95 Q1084.1 1524.61 1086.16 1523.45 Q1088.25 1522.3 1090.96 1522.3 Q1095.42 1522.3 1097.71 1525.07 Q1100.01 1527.83 1100.01 1533.2 Z" fill="#000000" fill-rule="evenodd" fill-opacity="1" /><path clip-path="url(#clip290)" d="M1523.2 1518.13 L1523.2 1531.12 L1529.08 1531.12 Q1532.34 1531.12 1534.12 1529.43 Q1535.91 1527.74 1535.91 1524.61 Q1535.91 1521.51 1534.12 1519.82 Q1532.34 1518.13 1529.08 1518.13 L1523.2 1518.13 M1518.52 1514.29 L1529.08 1514.29 Q1534.89 1514.29 1537.85 1516.93 Q1540.84 1519.54 1540.84 1524.61 Q1540.84 1529.73 1537.85 1532.34 Q1534.89 1534.96 1529.08 1534.96 L1523.2 1534.96 L1523.2 1548.85 L1518.52 1548.85 L1518.52 1514.29 Z" fill="#000000" fill-rule="evenodd" fill-opacity="1" /><path clip-path="url(#clip290)" d="M1561.11 1526.9 Q1560.4 1526.49 1559.54 1526.3 Q1558.71 1526.09 1557.69 1526.09 Q1554.08 1526.09 1552.13 1528.45 Q1550.21 1530.79 1550.21 1535.19 L1550.21 1548.85 L1545.93 1548.85 L1545.93 1522.92 L1550.21 1522.92 L1550.21 1526.95 Q1551.55 1524.59 1553.71 1523.45 Q1555.86 1522.3 1558.94 1522.3 Q1559.38 1522.3 1559.91 1522.37 Q1560.44 1522.41 1561.09 1522.53 L1561.11 1526.9 Z" fill="#000000" fill-rule="evenodd" fill-opacity="1" /><path clip-path="url(#clip290)" d="M1574.59 1525.91 Q1571.16 1525.91 1569.17 1528.59 Q1567.18 1531.26 1567.18 1535.91 Q1567.18 1540.56 1569.15 1543.25 Q1571.14 1545.91 1574.59 1545.91 Q1577.99 1545.91 1579.98 1543.22 Q1581.97 1540.54 1581.97 1535.91 Q1581.97 1531.3 1579.98 1528.62 Q1577.99 1525.91 1574.59 1525.91 M1574.59 1522.3 Q1580.14 1522.3 1583.31 1525.91 Q1586.48 1529.52 1586.48 1535.91 Q1586.48 1542.27 1583.31 1545.91 Q1580.14 1549.52 1574.59 1549.52 Q1569.01 1549.52 1565.84 1545.91 Q1562.69 1542.27 1562.69 1535.91 Q1562.69 1529.52 1565.84 1525.91 Q1569.01 1522.3 1574.59 1522.3 Z" fill="#000000" fill-rule="evenodd" fill-opacity="1" /><path clip-path="url(#clip290)" d="M1610.6 1526.86 L1610.6 1512.83 L1614.86 1512.83 L1614.86 1548.85 L1610.6 1548.85 L1610.6 1544.96 Q1609.26 1547.27 1607.2 1548.41 Q1605.16 1549.52 1602.29 1549.52 Q1597.59 1549.52 1594.63 1545.77 Q1591.69 1542.02 1591.69 1535.91 Q1591.69 1529.8 1594.63 1526.05 Q1597.59 1522.3 1602.29 1522.3 Q1605.16 1522.3 1607.2 1523.43 Q1609.26 1524.54 1610.6 1526.86 M1596.09 1535.91 Q1596.09 1540.61 1598.01 1543.29 Q1599.96 1545.95 1603.34 1545.95 Q1606.72 1545.95 1608.66 1543.29 Q1610.6 1540.61 1610.6 1535.91 Q1610.6 1531.21 1608.66 1528.55 Q1606.72 1525.86 1603.34 1525.86 Q1599.96 1525.86 1598.01 1528.55 Q1596.09 1531.21 1596.09 1535.91 Z" fill="#000000" fill-rule="evenodd" fill-opacity="1" /><path clip-path="url(#clip290)" d="M1623.2 1538.62 L1623.2 1522.92 L1627.46 1522.92 L1627.46 1538.45 Q1627.46 1542.13 1628.89 1543.99 Q1630.33 1545.82 1633.2 1545.82 Q1636.65 1545.82 1638.64 1543.62 Q1640.65 1541.42 1640.65 1537.62 L1640.65 1522.92 L1644.91 1522.92 L1644.91 1548.85 L1640.65 1548.85 L1640.65 1544.87 Q1639.1 1547.23 1637.04 1548.38 Q1635 1549.52 1632.29 1549.52 Q1627.83 1549.52 1625.51 1546.74 Q1623.2 1543.96 1623.2 1538.62 M1633.91 1522.3 L1633.91 1522.3 Z" fill="#000000" fill-rule="evenodd" fill-opacity="1" /><path clip-path="url(#clip290)" d="M1672.34 1523.92 L1672.34 1527.9 Q1670.53 1526.9 1668.71 1526.42 Q1666.9 1525.91 1665.05 1525.91 Q1660.9 1525.91 1658.61 1528.55 Q1656.32 1531.16 1656.32 1535.91 Q1656.32 1540.65 1658.61 1543.29 Q1660.9 1545.91 1665.05 1545.91 Q1666.9 1545.91 1668.71 1545.42 Q1670.53 1544.91 1672.34 1543.92 L1672.34 1547.85 Q1670.56 1548.69 1668.64 1549.1 Q1666.74 1549.52 1664.59 1549.52 Q1658.73 1549.52 1655.28 1545.84 Q1651.83 1542.16 1651.83 1535.91 Q1651.83 1529.57 1655.3 1525.93 Q1658.8 1522.3 1664.86 1522.3 Q1666.83 1522.3 1668.71 1522.71 Q1670.58 1523.11 1672.34 1523.92 Z" fill="#000000" fill-rule="evenodd" fill-opacity="1" /><path clip-path="url(#clip290)" d="M1701.92 1534.82 L1701.92 1536.9 L1682.34 1536.9 Q1682.62 1541.3 1684.98 1543.62 Q1687.36 1545.91 1691.6 1545.91 Q1694.05 1545.91 1696.34 1545.31 Q1698.66 1544.7 1700.93 1543.5 L1700.93 1547.53 Q1698.64 1548.5 1696.23 1549.01 Q1693.82 1549.52 1691.34 1549.52 Q1685.14 1549.52 1681.51 1545.91 Q1677.9 1542.3 1677.9 1536.14 Q1677.9 1529.77 1681.32 1526.05 Q1684.77 1522.3 1690.6 1522.3 Q1695.83 1522.3 1698.87 1525.68 Q1701.92 1529.03 1701.92 1534.82 M1697.66 1533.57 Q1697.62 1530.07 1695.7 1527.99 Q1693.8 1525.91 1690.65 1525.91 Q1687.08 1525.91 1684.93 1527.92 Q1682.8 1529.94 1682.48 1533.59 L1697.66 1533.57 Z" fill="#000000" fill-rule="evenodd" fill-opacity="1" /><path clip-path="url(#clip290)" d="M1730.46 1533.2 L1730.46 1548.85 L1726.21 1548.85 L1726.21 1533.34 Q1726.21 1529.66 1724.77 1527.83 Q1723.33 1526 1720.46 1526 Q1717.02 1526 1715.02 1528.2 Q1713.03 1530.4 1713.03 1534.2 L1713.03 1548.85 L1708.75 1548.85 L1708.75 1522.92 L1713.03 1522.92 L1713.03 1526.95 Q1714.56 1524.61 1716.62 1523.45 Q1718.71 1522.3 1721.41 1522.3 Q1725.88 1522.3 1728.17 1525.07 Q1730.46 1527.83 1730.46 1533.2 Z" fill="#000000" fill-rule="evenodd" fill-opacity="1" /><path clip-path="url(#clip290)" d="M1743.17 1515.56 L1743.17 1522.92 L1751.95 1522.92 L1751.95 1526.23 L1743.17 1526.23 L1743.17 1540.31 Q1743.17 1543.48 1744.03 1544.38 Q1744.91 1545.28 1747.57 1545.28 L1751.95 1545.28 L1751.95 1548.85 L1747.57 1548.85 Q1742.64 1548.85 1740.77 1547.02 Q1738.89 1545.17 1738.89 1540.31 L1738.89 1526.23 L1735.77 1526.23 L1735.77 1522.92 L1738.89 1522.92 L1738.89 1515.56 L1743.17 1515.56 Z" fill="#000000" fill-rule="evenodd" fill-opacity="1" /><path clip-path="url(#clip290)" d="M1776.74 1544.96 L1776.74 1558.71 L1772.45 1558.71 L1772.45 1522.92 L1776.74 1522.92 L1776.74 1526.86 Q1778.08 1524.54 1780.12 1523.43 Q1782.18 1522.3 1785.02 1522.3 Q1789.75 1522.3 1792.69 1526.05 Q1795.65 1529.8 1795.65 1535.91 Q1795.65 1542.02 1792.69 1545.77 Q1789.75 1549.52 1785.02 1549.52 Q1782.18 1549.52 1780.12 1548.41 Q1778.08 1547.27 1776.74 1544.96 M1791.23 1535.91 Q1791.23 1531.21 1789.28 1528.55 Q1787.36 1525.86 1783.98 1525.86 Q1780.6 1525.86 1778.66 1528.55 Q1776.74 1531.21 1776.74 1535.91 Q1776.74 1540.61 1778.66 1543.29 Q1780.6 1545.95 1783.98 1545.95 Q1787.36 1545.95 1789.28 1543.29 Q1791.23 1540.61 1791.23 1535.91 Z" fill="#000000" fill-rule="evenodd" fill-opacity="1" /><path clip-path="url(#clip290)" d="M1817.73 1526.9 Q1817.01 1526.49 1816.16 1526.3 Q1815.33 1526.09 1814.31 1526.09 Q1810.7 1526.09 1808.75 1528.45 Q1806.83 1530.79 1806.83 1535.19 L1806.83 1548.85 L1802.55 1548.85 L1802.55 1522.92 L1806.83 1522.92 L1806.83 1526.95 Q1808.17 1524.59 1810.33 1523.45 Q1812.48 1522.3 1815.56 1522.3 Q1816 1522.3 1816.53 1522.37 Q1817.06 1522.41 1817.71 1522.53 L1817.73 1526.9 Z" fill="#000000" fill-rule="evenodd" fill-opacity="1" /><path clip-path="url(#clip290)" d="M1831.2 1525.91 Q1827.78 1525.91 1825.79 1528.59 Q1823.8 1531.26 1823.8 1535.91 Q1823.8 1540.56 1825.76 1543.25 Q1827.76 1545.91 1831.2 1545.91 Q1834.61 1545.91 1836.6 1543.22 Q1838.59 1540.54 1838.59 1535.91 Q1838.59 1531.3 1836.6 1528.62 Q1834.61 1525.91 1831.2 1525.91 M1831.2 1522.3 Q1836.76 1522.3 1839.93 1525.91 Q1843.1 1529.52 1843.1 1535.91 Q1843.1 1542.27 1839.93 1545.91 Q1836.76 1549.52 1831.2 1549.52 Q1825.63 1549.52 1822.45 1545.91 Q1819.31 1542.27 1819.31 1535.91 Q1819.31 1529.52 1822.45 1525.91 Q1825.63 1522.3 1831.2 1522.3 Z" fill="#000000" fill-rule="evenodd" fill-opacity="1" /><path clip-path="url(#clip290)" d="M1847.69 1522.92 L1851.95 1522.92 L1857.27 1543.15 L1862.57 1522.92 L1867.59 1522.92 L1872.92 1543.15 L1878.22 1522.92 L1882.48 1522.92 L1875.7 1548.85 L1870.67 1548.85 L1865.09 1527.6 L1859.49 1548.85 L1854.47 1548.85 L1847.69 1522.92 Z" fill="#000000" fill-rule="evenodd" fill-opacity="1" /><path clip-path="url(#clip290)" d="M1900.72 1535.82 Q1895.56 1535.82 1893.57 1537 Q1891.57 1538.18 1891.57 1541.02 Q1891.57 1543.29 1893.06 1544.63 Q1894.56 1545.95 1897.13 1545.95 Q1900.67 1545.95 1902.8 1543.45 Q1904.95 1540.93 1904.95 1536.76 L1904.95 1535.82 L1900.72 1535.82 M1909.21 1534.06 L1909.21 1548.85 L1904.95 1548.85 L1904.95 1544.91 Q1903.5 1547.27 1901.32 1548.41 Q1899.14 1549.52 1896 1549.52 Q1892.01 1549.52 1889.65 1547.3 Q1887.32 1545.05 1887.32 1541.3 Q1887.32 1536.93 1890.23 1534.7 Q1893.17 1532.48 1898.98 1532.48 L1904.95 1532.48 L1904.95 1532.07 Q1904.95 1529.13 1903.01 1527.53 Q1901.09 1525.91 1897.59 1525.91 Q1895.37 1525.91 1893.26 1526.44 Q1891.16 1526.97 1889.21 1528.04 L1889.21 1524.1 Q1891.55 1523.2 1893.75 1522.76 Q1895.95 1522.3 1898.03 1522.3 Q1903.66 1522.3 1906.44 1525.21 Q1909.21 1528.13 1909.21 1534.06 Z" fill="#000000" fill-rule="evenodd" fill-opacity="1" /><path clip-path="url(#clip290)" d="M1935.05 1526.86 L1935.05 1512.83 L1939.31 1512.83 L1939.31 1548.85 L1935.05 1548.85 L1935.05 1544.96 Q1933.7 1547.27 1931.64 1548.41 Q1929.61 1549.52 1926.74 1549.52 Q1922.04 1549.52 1919.07 1545.77 Q1916.13 1542.02 1916.13 1535.91 Q1916.13 1529.8 1919.07 1526.05 Q1922.04 1522.3 1926.74 1522.3 Q1929.61 1522.3 1931.64 1523.43 Q1933.7 1524.54 1935.05 1526.86 M1920.53 1535.91 Q1920.53 1540.61 1922.45 1543.29 Q1924.4 1545.95 1927.78 1545.95 Q1931.16 1545.95 1933.1 1543.29 Q1935.05 1540.61 1935.05 1535.91 Q1935.05 1531.21 1933.1 1528.55 Q1931.16 1525.86 1927.78 1525.86 Q1924.4 1525.86 1922.45 1528.55 Q1920.53 1531.21 1920.53 1535.91 Z" fill="#000000" fill-rule="evenodd" fill-opacity="1" /><path clip-path="url(#clip290)" d="M1946.23 1522.92 L1966.46 1522.92 L1966.46 1526.81 L1950.44 1545.45 L1966.46 1545.45 L1966.46 1548.85 L1945.65 1548.85 L1945.65 1544.96 L1961.67 1526.32 L1946.23 1526.32 L1946.23 1522.92 Z" fill="#000000" fill-rule="evenodd" fill-opacity="1" /><path clip-path="url(#clip290)" d="M1972.96 1522.92 L1977.22 1522.92 L1977.22 1548.85 L1972.96 1548.85 L1972.96 1522.92 M1972.96 1512.83 L1977.22 1512.83 L1977.22 1518.22 L1972.96 1518.22 L1972.96 1512.83 Z" fill="#000000" fill-rule="evenodd" fill-opacity="1" /><path clip-path="url(#clip290)" d="M2019.81 1535.91 Q2019.81 1531.21 2017.87 1528.55 Q2015.95 1525.86 2012.57 1525.86 Q2009.19 1525.86 2007.25 1528.55 Q2005.32 1531.21 2005.32 1535.91 Q2005.32 1540.61 2007.25 1543.29 Q2009.19 1545.95 2012.57 1545.95 Q2015.95 1545.95 2017.87 1543.29 Q2019.81 1540.61 2019.81 1535.91 M2005.32 1526.86 Q2006.67 1524.54 2008.7 1523.43 Q2010.76 1522.3 2013.61 1522.3 Q2018.33 1522.3 2021.27 1526.05 Q2024.24 1529.8 2024.24 1535.91 Q2024.24 1542.02 2021.27 1545.77 Q2018.33 1549.52 2013.61 1549.52 Q2010.76 1549.52 2008.7 1548.41 Q2006.67 1547.27 2005.32 1544.96 L2005.32 1548.85 L2001.04 1548.85 L2001.04 1512.83 L2005.32 1512.83 L2005.32 1526.86 Z" fill="#000000" fill-rule="evenodd" fill-opacity="1" /><path clip-path="url(#clip290)" d="M2043.08 1535.82 Q2037.92 1535.82 2035.93 1537 Q2033.93 1538.18 2033.93 1541.02 Q2033.93 1543.29 2035.42 1544.63 Q2036.92 1545.95 2039.49 1545.95 Q2043.03 1545.95 2045.16 1543.45 Q2047.31 1540.93 2047.31 1536.76 L2047.31 1535.82 L2043.08 1535.82 M2051.57 1534.06 L2051.57 1548.85 L2047.31 1548.85 L2047.31 1544.91 Q2045.86 1547.27 2043.68 1548.41 Q2041.5 1549.52 2038.36 1549.52 Q2034.37 1549.52 2032.01 1547.3 Q2029.68 1545.05 2029.68 1541.3 Q2029.68 1536.93 2032.59 1534.7 Q2035.53 1532.48 2041.34 1532.48 L2047.31 1532.48 L2047.31 1532.07 Q2047.31 1529.13 2045.37 1527.53 Q2043.45 1525.91 2039.95 1525.91 Q2037.73 1525.91 2035.62 1526.44 Q2033.52 1526.97 2031.57 1528.04 L2031.57 1524.1 Q2033.91 1523.2 2036.11 1522.76 Q2038.31 1522.3 2040.39 1522.3 Q2046.02 1522.3 2048.8 1525.21 Q2051.57 1528.13 2051.57 1534.06 Z" fill="#000000" fill-rule="evenodd" fill-opacity="1" /><path clip-path="url(#clip290)" d="M2077.41 1526.86 L2077.41 1512.83 L2081.67 1512.83 L2081.67 1548.85 L2077.41 1548.85 L2077.41 1544.96 Q2076.06 1547.27 2074 1548.41 Q2071.97 1549.52 2069.1 1549.52 Q2064.4 1549.52 2061.43 1545.77 Q2058.5 1542.02 2058.5 1535.91 Q2058.5 1529.8 2061.43 1526.05 Q2064.4 1522.3 2069.1 1522.3 Q2071.97 1522.3 2074 1523.43 Q2076.06 1524.54 2077.41 1526.86 M2062.89 1535.91 Q2062.89 1540.61 2064.81 1543.29 Q2066.76 1545.95 2070.14 1545.95 Q2073.52 1545.95 2075.46 1543.29 Q2077.41 1540.61 2077.41 1535.91 Q2077.41 1531.21 2075.46 1528.55 Q2073.52 1525.86 2070.14 1525.86 Q2066.76 1525.86 2064.81 1528.55 Q2062.89 1531.21 2062.89 1535.91 Z" fill="#000000" fill-rule="evenodd" fill-opacity="1" /><path clip-path="url(#clip290)" d="M2102.22 1535.82 Q2097.06 1535.82 2095.07 1537 Q2093.08 1538.18 2093.08 1541.02 Q2093.08 1543.29 2094.56 1544.63 Q2096.06 1545.95 2098.63 1545.95 Q2102.18 1545.95 2104.3 1543.45 Q2106.46 1540.93 2106.46 1536.76 L2106.46 1535.82 L2102.22 1535.82 M2110.72 1534.06 L2110.72 1548.85 L2106.46 1548.85 L2106.46 1544.91 Q2105 1547.27 2102.82 1548.41 Q2100.65 1549.52 2097.5 1549.52 Q2093.52 1549.52 2091.16 1547.3 Q2088.82 1545.05 2088.82 1541.3 Q2088.82 1536.93 2091.74 1534.7 Q2094.68 1532.48 2100.49 1532.48 L2106.46 1532.48 L2106.46 1532.07 Q2106.46 1529.13 2104.51 1527.53 Q2102.59 1525.91 2099.1 1525.91 Q2096.87 1525.91 2094.77 1526.44 Q2092.66 1526.97 2090.72 1528.04 L2090.72 1524.1 Q2093.06 1523.2 2095.25 1522.76 Q2097.45 1522.3 2099.54 1522.3 Q2105.16 1522.3 2107.94 1525.21 Q2110.72 1528.13 2110.72 1534.06 Z" fill="#000000" fill-rule="evenodd" fill-opacity="1" /><path clip-path="url(#clip290)" d="M2141.04 1533.2 L2141.04 1548.85 L2136.78 1548.85 L2136.78 1533.34 Q2136.78 1529.66 2135.35 1527.83 Q2133.91 1526 2131.04 1526 Q2127.59 1526 2125.6 1528.2 Q2123.61 1530.4 2123.61 1534.2 L2123.61 1548.85 L2119.33 1548.85 L2119.33 1522.92 L2123.61 1522.92 L2123.61 1526.95 Q2125.14 1524.61 2127.2 1523.45 Q2129.28 1522.3 2131.99 1522.3 Q2136.46 1522.3 2138.75 1525.07 Q2141.04 1527.83 2141.04 1533.2 Z" fill="#000000" fill-rule="evenodd" fill-opacity="1" /><path clip-path="url(#clip290)" d="M2149.54 1522.92 L2153.8 1522.92 L2153.8 1548.85 L2149.54 1548.85 L2149.54 1522.92 M2149.54 1512.83 L2153.8 1512.83 L2153.8 1518.22 L2149.54 1518.22 L2149.54 1512.83 Z" fill="#000000" fill-rule="evenodd" fill-opacity="1" /><path clip-path="url(#clip290)" d="M2174.49 1535.82 Q2169.33 1535.82 2167.34 1537 Q2165.35 1538.18 2165.35 1541.02 Q2165.35 1543.29 2166.83 1544.63 Q2168.33 1545.95 2170.9 1545.95 Q2174.44 1545.95 2176.57 1543.45 Q2178.73 1540.93 2178.73 1536.76 L2178.73 1535.82 L2174.49 1535.82 M2182.99 1534.06 L2182.99 1548.85 L2178.73 1548.85 L2178.73 1544.91 Q2177.27 1547.27 2175.09 1548.41 Q2172.92 1549.52 2169.77 1549.52 Q2165.79 1549.52 2163.43 1547.3 Q2161.09 1545.05 2161.09 1541.3 Q2161.09 1536.93 2164 1534.7 Q2166.94 1532.48 2172.75 1532.48 L2178.73 1532.48 L2178.73 1532.07 Q2178.73 1529.13 2176.78 1527.53 Q2174.86 1525.91 2171.36 1525.91 Q2169.14 1525.91 2167.04 1526.44 Q2164.93 1526.97 2162.99 1528.04 L2162.99 1524.1 Q2165.32 1523.2 2167.52 1522.76 Q2169.72 1522.3 2171.8 1522.3 Q2177.43 1522.3 2180.21 1525.21 Q2182.99 1528.13 2182.99 1534.06 Z" fill="#000000" fill-rule="evenodd" fill-opacity="1" /><polyline clip-path="url(#clip292)" style="stroke:#000000; stroke-linecap:round; stroke-linejoin:round; stroke-width:2; stroke-opacity:0.1; fill:none" points="
  243.017,1419.7 2352.76,1419.7 
  "/>
<polyline clip-path="url(#clip292)" style="stroke:#000000; stroke-linecap:round; stroke-linejoin:round; stroke-width:2; stroke-opacity:0.1; fill:none" points="
  243.017,1098.38 2352.76,1098.38 
  "/>
<polyline clip-path="url(#clip292)" style="stroke:#000000; stroke-linecap:round; stroke-linejoin:round; stroke-width:2; stroke-opacity:0.1; fill:none" points="
  243.017,777.05 2352.76,777.05 
  "/>
<polyline clip-path="url(#clip292)" style="stroke:#000000; stroke-linecap:round; stroke-linejoin:round; stroke-width:2; stroke-opacity:0.1; fill:none" points="
  243.017,455.725 2352.76,455.725 
  "/>
<polyline clip-path="url(#clip292)" style="stroke:#000000; stroke-linecap:round; stroke-linejoin:round; stroke-width:2; stroke-opacity:0.1; fill:none" points="
  243.017,134.4 2352.76,134.4 
  "/>
<polyline clip-path="url(#clip290)" style="stroke:#000000; stroke-linecap:round; stroke-linejoin:round; stroke-width:4; stroke-opacity:1; fill:none" points="
  243.017,1486.45 243.017,123.472 
  "/>
<polyline clip-path="url(#clip290)" style="stroke:#000000; stroke-linecap:round; stroke-linejoin:round; stroke-width:4; stroke-opacity:1; fill:none" points="
  243.017,1419.7 261.915,1419.7 
  "/>
<polyline clip-path="url(#clip290)" style="stroke:#000000; stroke-linecap:round; stroke-linejoin:round; stroke-width:4; stroke-opacity:1; fill:none" points="
  243.017,1098.38 261.915,1098.38 
  "/>
<polyline clip-path="url(#clip290)" style="stroke:#000000; stroke-linecap:round; stroke-linejoin:round; stroke-width:4; stroke-opacity:1; fill:none" points="
  243.017,777.05 261.915,777.05 
  "/>
<polyline clip-path="url(#clip290)" style="stroke:#000000; stroke-linecap:round; stroke-linejoin:round; stroke-width:4; stroke-opacity:1; fill:none" points="
  243.017,455.725 261.915,455.725 
  "/>
<polyline clip-path="url(#clip290)" style="stroke:#000000; stroke-linecap:round; stroke-linejoin:round; stroke-width:4; stroke-opacity:1; fill:none" points="
  243.017,134.4 261.915,134.4 
  "/>
<path clip-path="url(#clip290)" d="M101.671 1420.15 L131.346 1420.15 L131.346 1424.09 L101.671 1424.09 L101.671 1420.15 Z" fill="#000000" fill-rule="evenodd" fill-opacity="1" /><path clip-path="url(#clip290)" d="M151.439 1405.5 Q147.828 1405.5 145.999 1409.06 Q144.193 1412.61 144.193 1419.73 Q144.193 1426.84 145.999 1430.41 Q147.828 1433.95 151.439 1433.95 Q155.073 1433.95 156.879 1430.41 Q158.707 1426.84 158.707 1419.73 Q158.707 1412.61 156.879 1409.06 Q155.073 1405.5 151.439 1405.5 M151.439 1401.8 Q157.249 1401.8 160.304 1406.4 Q163.383 1410.99 163.383 1419.73 Q163.383 1428.46 160.304 1433.07 Q157.249 1437.65 151.439 1437.65 Q145.629 1437.65 142.55 1433.07 Q139.494 1428.46 139.494 1419.73 Q139.494 1410.99 142.55 1406.4 Q145.629 1401.8 151.439 1401.8 Z" fill="#000000" fill-rule="evenodd" fill-opacity="1" /><path clip-path="url(#clip290)" d="M171.601 1431.1 L176.485 1431.1 L176.485 1436.98 L171.601 1436.98 L171.601 1431.1 Z" fill="#000000" fill-rule="evenodd" fill-opacity="1" /><path clip-path="url(#clip290)" d="M190.698 1433.05 L207.017 1433.05 L207.017 1436.98 L185.073 1436.98 L185.073 1433.05 Q187.735 1430.29 192.318 1425.66 Q196.925 1421.01 198.105 1419.67 Q200.351 1417.14 201.23 1415.41 Q202.133 1413.65 202.133 1411.96 Q202.133 1409.2 200.189 1407.47 Q198.267 1405.73 195.165 1405.73 Q192.966 1405.73 190.513 1406.49 Q188.082 1407.26 185.304 1408.81 L185.304 1404.09 Q188.128 1402.95 190.582 1402.37 Q193.036 1401.8 195.073 1401.8 Q200.443 1401.8 203.638 1404.48 Q206.832 1407.17 206.832 1411.66 Q206.832 1413.79 206.022 1415.71 Q205.235 1417.61 203.128 1420.2 Q202.55 1420.87 199.448 1424.09 Q196.346 1427.28 190.698 1433.05 Z" fill="#000000" fill-rule="evenodd" fill-opacity="1" /><path clip-path="url(#clip290)" d="M101.3 1098.83 L130.976 1098.83 L130.976 1102.76 L101.3 1102.76 L101.3 1098.83 Z" fill="#000000" fill-rule="evenodd" fill-opacity="1" /><path clip-path="url(#clip290)" d="M151.068 1084.17 Q147.457 1084.17 145.629 1087.74 Q143.823 1091.28 143.823 1098.41 Q143.823 1105.52 145.629 1109.08 Q147.457 1112.62 151.068 1112.62 Q154.703 1112.62 156.508 1109.08 Q158.337 1105.52 158.337 1098.41 Q158.337 1091.28 156.508 1087.74 Q154.703 1084.17 151.068 1084.17 M151.068 1080.47 Q156.879 1080.47 159.934 1085.08 Q163.013 1089.66 163.013 1098.41 Q163.013 1107.14 159.934 1111.74 Q156.879 1116.33 151.068 1116.33 Q145.258 1116.33 142.18 1111.74 Q139.124 1107.14 139.124 1098.41 Q139.124 1089.66 142.18 1085.08 Q145.258 1080.47 151.068 1080.47 Z" fill="#000000" fill-rule="evenodd" fill-opacity="1" /><path clip-path="url(#clip290)" d="M171.23 1109.78 L176.115 1109.78 L176.115 1115.66 L171.23 1115.66 L171.23 1109.78 Z" fill="#000000" fill-rule="evenodd" fill-opacity="1" /><path clip-path="url(#clip290)" d="M187.11 1111.72 L194.749 1111.72 L194.749 1085.35 L186.439 1087.02 L186.439 1082.76 L194.702 1081.1 L199.378 1081.1 L199.378 1111.72 L207.017 1111.72 L207.017 1115.66 L187.11 1115.66 L187.11 1111.72 Z" fill="#000000" fill-rule="evenodd" fill-opacity="1" /><path clip-path="url(#clip290)" d="M149.842 762.849 Q146.23 762.849 144.402 766.414 Q142.596 769.956 142.596 777.085 Q142.596 784.192 144.402 787.756 Q146.23 791.298 149.842 791.298 Q153.476 791.298 155.281 787.756 Q157.11 784.192 157.11 777.085 Q157.11 769.956 155.281 766.414 Q153.476 762.849 149.842 762.849 M149.842 759.145 Q155.652 759.145 158.707 763.752 Q161.786 768.335 161.786 777.085 Q161.786 785.812 158.707 790.418 Q155.652 795.002 149.842 795.002 Q144.031 795.002 140.953 790.418 Q137.897 785.812 137.897 777.085 Q137.897 768.335 140.953 763.752 Q144.031 759.145 149.842 759.145 Z" fill="#000000" fill-rule="evenodd" fill-opacity="1" /><path clip-path="url(#clip290)" d="M170.003 788.451 L174.888 788.451 L174.888 794.33 L170.003 794.33 L170.003 788.451 Z" fill="#000000" fill-rule="evenodd" fill-opacity="1" /><path clip-path="url(#clip290)" d="M195.073 762.849 Q191.462 762.849 189.633 766.414 Q187.827 769.956 187.827 777.085 Q187.827 784.192 189.633 787.756 Q191.462 791.298 195.073 791.298 Q198.707 791.298 200.513 787.756 Q202.341 784.192 202.341 777.085 Q202.341 769.956 200.513 766.414 Q198.707 762.849 195.073 762.849 M195.073 759.145 Q200.883 759.145 203.938 763.752 Q207.017 768.335 207.017 777.085 Q207.017 785.812 203.938 790.418 Q200.883 795.002 195.073 795.002 Q189.263 795.002 186.184 790.418 Q183.128 785.812 183.128 777.085 Q183.128 768.335 186.184 763.752 Q189.263 759.145 195.073 759.145 Z" fill="#000000" fill-rule="evenodd" fill-opacity="1" /><path clip-path="url(#clip290)" d="M151.068 441.524 Q147.457 441.524 145.629 445.089 Q143.823 448.631 143.823 455.76 Q143.823 462.867 145.629 466.431 Q147.457 469.973 151.068 469.973 Q154.703 469.973 156.508 466.431 Q158.337 462.867 158.337 455.76 Q158.337 448.631 156.508 445.089 Q154.703 441.524 151.068 441.524 M151.068 437.82 Q156.879 437.82 159.934 442.427 Q163.013 447.01 163.013 455.76 Q163.013 464.487 159.934 469.093 Q156.879 473.677 151.068 473.677 Q145.258 473.677 142.18 469.093 Q139.124 464.487 139.124 455.76 Q139.124 447.01 142.18 442.427 Q145.258 437.82 151.068 437.82 Z" fill="#000000" fill-rule="evenodd" fill-opacity="1" /><path clip-path="url(#clip290)" d="M171.23 467.126 L176.115 467.126 L176.115 473.005 L171.23 473.005 L171.23 467.126 Z" fill="#000000" fill-rule="evenodd" fill-opacity="1" /><path clip-path="url(#clip290)" d="M187.11 469.07 L194.749 469.07 L194.749 442.705 L186.439 444.371 L186.439 440.112 L194.702 438.445 L199.378 438.445 L199.378 469.07 L207.017 469.07 L207.017 473.005 L187.11 473.005 L187.11 469.07 Z" fill="#000000" fill-rule="evenodd" fill-opacity="1" /><path clip-path="url(#clip290)" d="M151.439 120.199 Q147.828 120.199 145.999 123.764 Q144.193 127.306 144.193 134.435 Q144.193 141.542 145.999 145.106 Q147.828 148.648 151.439 148.648 Q155.073 148.648 156.879 145.106 Q158.707 141.542 158.707 134.435 Q158.707 127.306 156.879 123.764 Q155.073 120.199 151.439 120.199 M151.439 116.495 Q157.249 116.495 160.304 121.102 Q163.383 125.685 163.383 134.435 Q163.383 143.162 160.304 147.768 Q157.249 152.352 151.439 152.352 Q145.629 152.352 142.55 147.768 Q139.494 143.162 139.494 134.435 Q139.494 125.685 142.55 121.102 Q145.629 116.495 151.439 116.495 Z" fill="#000000" fill-rule="evenodd" fill-opacity="1" /><path clip-path="url(#clip290)" d="M171.601 145.801 L176.485 145.801 L176.485 151.68 L171.601 151.68 L171.601 145.801 Z" fill="#000000" fill-rule="evenodd" fill-opacity="1" /><path clip-path="url(#clip290)" d="M190.698 147.745 L207.017 147.745 L207.017 151.68 L185.073 151.68 L185.073 147.745 Q187.735 144.991 192.318 140.361 Q196.925 135.708 198.105 134.366 Q200.351 131.843 201.23 130.107 Q202.133 128.347 202.133 126.657 Q202.133 123.903 200.189 122.167 Q198.267 120.431 195.165 120.431 Q192.966 120.431 190.513 121.195 Q188.082 121.958 185.304 123.509 L185.304 118.787 Q188.128 117.653 190.582 117.074 Q193.036 116.495 195.073 116.495 Q200.443 116.495 203.638 119.181 Q206.832 121.866 206.832 126.357 Q206.832 128.486 206.022 130.407 Q205.235 132.306 203.128 134.898 Q202.55 135.569 199.448 138.787 Q196.346 141.981 190.698 147.745 Z" fill="#000000" fill-rule="evenodd" fill-opacity="1" /><path clip-path="url(#clip290)" d="M23.5434 1353.05 Q23.5434 1358.14 27.3397 1361.15 Q31.136 1364.14 37.6869 1364.14 Q44.2146 1364.14 48.0109 1361.15 Q51.8072 1358.14 51.8072 1353.05 Q51.8072 1347.95 48.0109 1344.99 Q44.2146 1342.01 37.6869 1342.01 Q31.136 1342.01 27.3397 1344.99 Q23.5434 1347.95 23.5434 1353.05 M19.7472 1353.05 Q19.7472 1345.78 24.6314 1341.43 Q29.4925 1337.08 37.6869 1337.08 Q45.8581 1337.08 50.7424 1341.43 Q55.6035 1345.78 55.6035 1353.05 Q55.6035 1360.34 50.7424 1364.71 Q45.8813 1369.07 37.6869 1369.07 Q29.4925 1369.07 24.6314 1364.71 Q19.7472 1360.34 19.7472 1353.05 Z" fill="#000000" fill-rule="evenodd" fill-opacity="1" /><path clip-path="url(#clip290)" d="M32.9415 1312.89 L18.9138 1312.89 L18.9138 1308.63 L54.9322 1308.63 L54.9322 1312.89 L51.0433 1312.89 Q53.3581 1314.23 54.4923 1316.29 Q55.6035 1318.33 55.6035 1321.2 Q55.6035 1325.89 51.8535 1328.86 Q48.1035 1331.8 41.9924 1331.8 Q35.8813 1331.8 32.1314 1328.86 Q28.3814 1325.89 28.3814 1321.2 Q28.3814 1318.33 29.5156 1316.29 Q30.6267 1314.23 32.9415 1312.89 M41.9924 1327.4 Q46.6915 1327.4 49.3766 1325.48 Q52.0387 1323.53 52.0387 1320.15 Q52.0387 1316.77 49.3766 1314.83 Q46.6915 1312.89 41.9924 1312.89 Q37.2934 1312.89 34.6313 1314.83 Q31.9462 1316.77 31.9462 1320.15 Q31.9462 1323.53 34.6313 1325.48 Q37.2934 1327.4 41.9924 1327.4 Z" fill="#000000" fill-rule="evenodd" fill-opacity="1" /><path clip-path="url(#clip290)" d="M30.0017 1281.2 L33.9832 1281.2 Q32.9878 1283 32.5017 1284.83 Q31.9925 1286.64 31.9925 1288.49 Q31.9925 1292.63 34.6313 1294.92 Q37.2471 1297.21 41.9924 1297.21 Q46.7378 1297.21 49.3766 1294.92 Q51.9924 1292.63 51.9924 1288.49 Q51.9924 1286.64 51.5062 1284.83 Q50.997 1283 50.0016 1281.2 L53.9368 1281.2 Q54.7701 1282.98 55.1868 1284.9 Q55.6035 1286.8 55.6035 1288.95 Q55.6035 1294.81 51.9229 1298.26 Q48.2424 1301.71 41.9924 1301.71 Q35.6499 1301.71 32.0156 1298.23 Q28.3814 1294.74 28.3814 1288.67 Q28.3814 1286.71 28.798 1284.83 Q29.1916 1282.96 30.0017 1281.2 Z" fill="#000000" fill-rule="evenodd" fill-opacity="1" /><path clip-path="url(#clip290)" d="M39.2841 1252.24 L54.9322 1252.24 L54.9322 1256.5 L39.423 1256.5 Q35.7424 1256.5 33.9138 1257.93 Q32.0851 1259.37 32.0851 1262.24 Q32.0851 1265.69 34.2841 1267.68 Q36.4832 1269.67 40.2795 1269.67 L54.9322 1269.67 L54.9322 1273.95 L18.9138 1273.95 L18.9138 1269.67 L33.0341 1269.67 Q30.6962 1268.14 29.5388 1266.08 Q28.3814 1264 28.3814 1261.29 Q28.3814 1256.82 31.1591 1254.53 Q33.9138 1252.24 39.2841 1252.24 Z" fill="#000000" fill-rule="evenodd" fill-opacity="1" /><path clip-path="url(#clip290)" d="M57.3396 1232.96 Q61.9692 1234.76 63.3812 1236.47 Q64.7932 1238.19 64.7932 1241.06 L64.7932 1244.46 L61.2284 1244.46 L61.2284 1241.96 Q61.2284 1240.2 60.3951 1239.23 Q59.5618 1238.26 56.4599 1237.08 L54.5155 1236.31 L29.0064 1246.8 L29.0064 1242.28 L49.284 1234.18 L29.0064 1226.08 L29.0064 1221.57 L57.3396 1232.96 Z" fill="#000000" fill-rule="evenodd" fill-opacity="1" /><path clip-path="url(#clip290)" d="M18.9138 1215.69 L18.9138 1211.43 L54.9322 1211.43 L54.9322 1215.69 L18.9138 1215.69 Z" fill="#000000" fill-rule="evenodd" fill-opacity="1" /><path clip-path="url(#clip290)" d="M40.9045 1180.34 L42.9878 1180.34 L42.9878 1199.92 Q47.3859 1199.65 49.7007 1197.28 Q51.9924 1194.9 51.9924 1190.66 Q51.9924 1188.21 51.3905 1185.92 Q50.7887 1183.6 49.585 1181.34 L53.6127 1181.34 Q54.5849 1183.63 55.0942 1186.03 Q55.6035 1188.44 55.6035 1190.92 Q55.6035 1197.12 51.9924 1200.76 Q48.3813 1204.37 42.2239 1204.37 Q35.8582 1204.37 32.1314 1200.94 Q28.3814 1197.49 28.3814 1191.66 Q28.3814 1186.43 31.761 1183.4 Q35.1174 1180.34 40.9045 1180.34 M39.6545 1184.6 Q36.1591 1184.65 34.0758 1186.57 Q31.9925 1188.46 31.9925 1191.61 Q31.9925 1195.18 34.0063 1197.33 Q36.0202 1199.46 39.6776 1199.78 L39.6545 1184.6 Z" fill="#000000" fill-rule="evenodd" fill-opacity="1" /><path clip-path="url(#clip290)" d="M39.2841 1151.8 L54.9322 1151.8 L54.9322 1156.06 L39.423 1156.06 Q35.7424 1156.06 33.9138 1157.49 Q32.0851 1158.93 32.0851 1161.8 Q32.0851 1165.25 34.2841 1167.24 Q36.4832 1169.23 40.2795 1169.23 L54.9322 1169.23 L54.9322 1173.51 L29.0064 1173.51 L29.0064 1169.23 L33.0341 1169.23 Q30.6962 1167.7 29.5388 1165.64 Q28.3814 1163.56 28.3814 1160.85 Q28.3814 1156.38 31.1591 1154.09 Q33.9138 1151.8 39.2841 1151.8 Z" fill="#000000" fill-rule="evenodd" fill-opacity="1" /><path clip-path="url(#clip290)" d="M29.0064 1143.3 L29.0064 1139.04 L54.9322 1139.04 L54.9322 1143.3 L29.0064 1143.3 M18.9138 1143.3 L18.9138 1139.04 L24.3073 1139.04 L24.3073 1143.3 L18.9138 1143.3 Z" fill="#000000" fill-rule="evenodd" fill-opacity="1" /><path clip-path="url(#clip290)" d="M40.9045 1107.96 L42.9878 1107.96 L42.9878 1127.54 Q47.3859 1127.26 49.7007 1124.9 Q51.9924 1122.52 51.9924 1118.28 Q51.9924 1115.83 51.3905 1113.53 Q50.7887 1111.22 49.585 1108.95 L53.6127 1108.95 Q54.5849 1111.24 55.0942 1113.65 Q55.6035 1116.06 55.6035 1118.53 Q55.6035 1124.74 51.9924 1128.37 Q48.3813 1131.98 42.2239 1131.98 Q35.8582 1131.98 32.1314 1128.56 Q28.3814 1125.11 28.3814 1119.28 Q28.3814 1114.04 31.761 1111.01 Q35.1174 1107.96 40.9045 1107.96 M39.6545 1112.22 Q36.1591 1112.26 34.0758 1114.18 Q31.9925 1116.08 31.9925 1119.23 Q31.9925 1122.79 34.0063 1124.95 Q36.0202 1127.08 39.6776 1127.4 L39.6545 1112.22 Z" fill="#000000" fill-rule="evenodd" fill-opacity="1" /><path clip-path="url(#clip290)" d="M51.0433 1081.78 L64.7932 1081.78 L64.7932 1086.06 L29.0064 1086.06 L29.0064 1081.78 L32.9415 1081.78 Q30.6267 1080.43 29.5156 1078.4 Q28.3814 1076.34 28.3814 1073.49 Q28.3814 1068.77 32.1314 1065.83 Q35.8813 1062.86 41.9924 1062.86 Q48.1035 1062.86 51.8535 1065.83 Q55.6035 1068.77 55.6035 1073.49 Q55.6035 1076.34 54.4923 1078.4 Q53.3581 1080.43 51.0433 1081.78 M41.9924 1067.28 Q37.2934 1067.28 34.6313 1069.23 Q31.9462 1071.15 31.9462 1074.53 Q31.9462 1077.91 34.6313 1079.85 Q37.2934 1081.78 41.9924 1081.78 Q46.6915 1081.78 49.3766 1079.85 Q52.0387 1077.91 52.0387 1074.53 Q52.0387 1071.15 49.3766 1069.23 Q46.6915 1067.28 41.9924 1067.28 Z" fill="#000000" fill-rule="evenodd" fill-opacity="1" /><path clip-path="url(#clip290)" d="M41.8998 1044.02 Q41.8998 1049.18 43.0804 1051.17 Q44.2609 1053.16 47.1081 1053.16 Q49.3766 1053.16 50.7192 1051.68 Q52.0387 1050.18 52.0387 1047.61 Q52.0387 1044.07 49.5387 1041.94 Q47.0155 1039.79 42.8489 1039.79 L41.8998 1039.79 L41.8998 1044.02 M40.1406 1035.53 L54.9322 1035.53 L54.9322 1039.79 L50.997 1039.79 Q53.3581 1041.24 54.4923 1043.42 Q55.6035 1045.6 55.6035 1048.74 Q55.6035 1052.72 53.3812 1055.09 Q51.1359 1057.42 47.3859 1057.42 Q43.0109 1057.42 40.7887 1054.51 Q38.5665 1051.57 38.5665 1045.76 L38.5665 1039.79 L38.1498 1039.79 Q35.21 1039.79 33.6128 1041.73 Q31.9925 1043.65 31.9925 1047.15 Q31.9925 1049.37 32.5249 1051.47 Q33.0573 1053.58 34.1221 1055.53 L30.1869 1055.53 Q29.2841 1053.19 28.8443 1050.99 Q28.3814 1048.79 28.3814 1046.71 Q28.3814 1041.08 31.298 1038.3 Q34.2147 1035.53 40.1406 1035.53 Z" fill="#000000" fill-rule="evenodd" fill-opacity="1" /><path clip-path="url(#clip290)" d="M32.9878 1011.73 Q32.5712 1012.45 32.386 1013.3 Q32.1776 1014.14 32.1776 1015.16 Q32.1776 1018.77 34.5387 1020.71 Q36.8767 1022.63 41.2748 1022.63 L54.9322 1022.63 L54.9322 1026.91 L29.0064 1026.91 L29.0064 1022.63 L33.0341 1022.63 Q30.673 1021.29 29.5388 1019.14 Q28.3814 1016.98 28.3814 1013.91 Q28.3814 1013.47 28.4508 1012.93 Q28.4971 1012.4 28.6129 1011.75 L32.9878 1011.73 Z" fill="#000000" fill-rule="evenodd" fill-opacity="1" /><path clip-path="url(#clip290)" d="M41.8998 995.48 Q41.8998 1000.64 43.0804 1002.63 Q44.2609 1004.62 47.1081 1004.62 Q49.3766 1004.62 50.7192 1003.14 Q52.0387 1001.64 52.0387 999.068 Q52.0387 995.526 49.5387 993.396 Q47.0155 991.244 42.8489 991.244 L41.8998 991.244 L41.8998 995.48 M40.1406 986.984 L54.9322 986.984 L54.9322 991.244 L50.997 991.244 Q53.3581 992.702 54.4923 994.878 Q55.6035 997.054 55.6035 1000.2 Q55.6035 1004.18 53.3812 1006.54 Q51.1359 1008.88 47.3859 1008.88 Q43.0109 1008.88 40.7887 1005.97 Q38.5665 1003.03 38.5665 997.216 L38.5665 991.244 L38.1498 991.244 Q35.21 991.244 33.6128 993.188 Q31.9925 995.109 31.9925 998.605 Q31.9925 1000.83 32.5249 1002.93 Q33.0573 1005.04 34.1221 1006.98 L30.1869 1006.98 Q29.2841 1004.65 28.8443 1002.45 Q28.3814 1000.25 28.3814 998.165 Q28.3814 992.54 31.298 989.762 Q34.2147 986.984 40.1406 986.984 Z" fill="#000000" fill-rule="evenodd" fill-opacity="1" /><path clip-path="url(#clip290)" d="M33.9832 958.026 Q31.1128 956.429 29.7471 954.207 Q28.3814 951.985 28.3814 948.975 Q28.3814 944.925 31.2286 942.725 Q34.0526 940.526 39.2841 940.526 L54.9322 940.526 L54.9322 944.809 L39.423 944.809 Q35.6961 944.809 33.8906 946.128 Q32.0851 947.448 32.0851 950.156 Q32.0851 953.466 34.2841 955.387 Q36.4832 957.309 40.2795 957.309 L54.9322 957.309 L54.9322 961.591 L39.423 961.591 Q35.673 961.591 33.8906 962.911 Q32.0851 964.23 32.0851 966.985 Q32.0851 970.248 34.3073 972.17 Q36.5063 974.091 40.2795 974.091 L54.9322 974.091 L54.9322 978.373 L29.0064 978.373 L29.0064 974.091 L33.0341 974.091 Q30.6499 972.633 29.5156 970.596 Q28.3814 968.559 28.3814 965.758 Q28.3814 962.934 29.8166 960.966 Q31.2517 958.975 33.9832 958.026 Z" fill="#000000" fill-rule="evenodd" fill-opacity="1" /><path clip-path="url(#clip290)" d="M40.9045 909.855 L42.9878 909.855 L42.9878 929.438 Q47.3859 929.161 49.7007 926.8 Q51.9924 924.415 51.9924 920.179 Q51.9924 917.726 51.3905 915.434 Q50.7887 913.119 49.585 910.851 L53.6127 910.851 Q54.5849 913.142 55.0942 915.55 Q55.6035 917.957 55.6035 920.434 Q55.6035 926.638 51.9924 930.272 Q48.3813 933.883 42.2239 933.883 Q35.8582 933.883 32.1314 930.457 Q28.3814 927.008 28.3814 921.175 Q28.3814 915.943 31.761 912.911 Q35.1174 909.855 40.9045 909.855 M39.6545 914.115 Q36.1591 914.161 34.0758 916.082 Q31.9925 917.98 31.9925 921.128 Q31.9925 924.693 34.0063 926.846 Q36.0202 928.976 39.6776 929.3 L39.6545 914.115 Z" fill="#000000" fill-rule="evenodd" fill-opacity="1" /><path clip-path="url(#clip290)" d="M21.6453 898.652 L29.0064 898.652 L29.0064 889.879 L32.3165 889.879 L32.3165 898.652 L46.3905 898.652 Q49.5618 898.652 50.4646 897.795 Q51.3674 896.916 51.3674 894.254 L51.3674 889.879 L54.9322 889.879 L54.9322 894.254 Q54.9322 899.184 53.1035 901.059 Q51.2516 902.934 46.3905 902.934 L32.3165 902.934 L32.3165 906.059 L29.0064 906.059 L29.0064 902.934 L21.6453 902.934 L21.6453 898.652 Z" fill="#000000" fill-rule="evenodd" fill-opacity="1" /><path clip-path="url(#clip290)" d="M32.9878 869.254 Q32.5712 869.971 32.386 870.828 Q32.1776 871.661 32.1776 872.68 Q32.1776 876.291 34.5387 878.235 Q36.8767 880.156 41.2748 880.156 L54.9322 880.156 L54.9322 884.439 L29.0064 884.439 L29.0064 880.156 L33.0341 880.156 Q30.673 878.814 29.5388 876.661 Q28.3814 874.508 28.3814 871.43 Q28.3814 870.99 28.4508 870.457 Q28.4971 869.925 28.6129 869.277 L32.9878 869.254 Z" fill="#000000" fill-rule="evenodd" fill-opacity="1" /><path clip-path="url(#clip290)" d="M31.9925 855.781 Q31.9925 859.207 34.6776 861.198 Q37.3397 863.189 41.9924 863.189 Q46.6452 863.189 49.3303 861.221 Q51.9924 859.231 51.9924 855.781 Q51.9924 852.379 49.3072 850.388 Q46.622 848.397 41.9924 848.397 Q37.386 848.397 34.7008 850.388 Q31.9925 852.379 31.9925 855.781 M28.3814 855.781 Q28.3814 850.226 31.9925 847.055 Q35.6036 843.883 41.9924 843.883 Q48.3581 843.883 51.9924 847.055 Q55.6035 850.226 55.6035 855.781 Q55.6035 861.36 51.9924 864.531 Q48.3581 867.68 41.9924 867.68 Q35.6036 867.68 31.9925 864.531 Q28.3814 861.36 28.3814 855.781 M17.0157 852.564 L17.0157 847.957 L25.7194 855.504 L25.7194 859.045 L17.0157 852.564 Z" fill="#000000" fill-rule="evenodd" fill-opacity="1" /><path clip-path="url(#clip290)" d="M29.0064 839.3 L29.0064 835.041 L49.2377 829.717 L29.0064 824.416 L29.0064 819.393 L49.2377 814.069 L29.0064 808.768 L29.0064 804.509 L54.9322 811.291 L54.9322 816.314 L33.6823 821.893 L54.9322 827.495 L54.9322 832.518 L29.0064 839.3 Z" fill="#000000" fill-rule="evenodd" fill-opacity="1" /><path clip-path="url(#clip290)" d="M51.0433 778.861 L64.7932 778.861 L64.7932 783.143 L29.0064 783.143 L29.0064 778.861 L32.9415 778.861 Q30.6267 777.518 29.5156 775.481 Q28.3814 773.421 28.3814 770.574 Q28.3814 765.851 32.1314 762.912 Q35.8813 759.949 41.9924 759.949 Q48.1035 759.949 51.8535 762.912 Q55.6035 765.851 55.6035 770.574 Q55.6035 773.421 54.4923 775.481 Q53.3581 777.518 51.0433 778.861 M41.9924 764.37 Q37.2934 764.37 34.6313 766.314 Q31.9462 768.236 31.9462 771.615 Q31.9462 774.995 34.6313 776.939 Q37.2934 778.861 41.9924 778.861 Q46.6915 778.861 49.3766 776.939 Q52.0387 774.995 52.0387 771.615 Q52.0387 768.236 49.3766 766.314 Q46.6915 764.37 41.9924 764.37 Z" fill="#000000" fill-rule="evenodd" fill-opacity="1" /><path clip-path="url(#clip290)" d="M32.9878 737.865 Q32.5712 738.583 32.386 739.44 Q32.1776 740.273 32.1776 741.291 Q32.1776 744.902 34.5387 746.847 Q36.8767 748.768 41.2748 748.768 L54.9322 748.768 L54.9322 753.051 L29.0064 753.051 L29.0064 748.768 L33.0341 748.768 Q30.673 747.426 29.5388 745.273 Q28.3814 743.12 28.3814 740.041 Q28.3814 739.602 28.4508 739.069 Q28.4971 738.537 28.6129 737.889 L32.9878 737.865 Z" fill="#000000" fill-rule="evenodd" fill-opacity="1" /><path clip-path="url(#clip290)" d="M31.9925 724.393 Q31.9925 727.819 34.6776 729.81 Q37.3397 731.801 41.9924 731.801 Q46.6452 731.801 49.3303 729.833 Q51.9924 727.842 51.9924 724.393 Q51.9924 720.991 49.3072 719 Q46.622 717.009 41.9924 717.009 Q37.386 717.009 34.7008 719 Q31.9925 720.991 31.9925 724.393 M28.3814 724.393 Q28.3814 718.838 31.9925 715.666 Q35.6036 712.495 41.9924 712.495 Q48.3581 712.495 51.9924 715.666 Q55.6035 718.838 55.6035 724.393 Q55.6035 729.972 51.9924 733.143 Q48.3581 736.291 41.9924 736.291 Q35.6036 736.291 31.9925 733.143 Q28.3814 729.972 28.3814 724.393 Z" fill="#000000" fill-rule="evenodd" fill-opacity="1" /><path clip-path="url(#clip290)" d="M32.9415 688.375 L18.9138 688.375 L18.9138 684.116 L54.9322 684.116 L54.9322 688.375 L51.0433 688.375 Q53.3581 689.718 54.4923 691.778 Q55.6035 693.815 55.6035 696.685 Q55.6035 701.384 51.8535 704.347 Q48.1035 707.287 41.9924 707.287 Q35.8813 707.287 32.1314 704.347 Q28.3814 701.384 28.3814 696.685 Q28.3814 693.815 29.5156 691.778 Q30.6267 689.718 32.9415 688.375 M41.9924 702.889 Q46.6915 702.889 49.3766 700.968 Q52.0387 699.023 52.0387 695.643 Q52.0387 692.264 49.3766 690.319 Q46.6915 688.375 41.9924 688.375 Q37.2934 688.375 34.6313 690.319 Q31.9462 692.264 31.9462 695.643 Q31.9462 699.023 34.6313 700.968 Q37.2934 702.889 41.9924 702.889 Z" fill="#000000" fill-rule="evenodd" fill-opacity="1" /><path clip-path="url(#clip290)" d="M44.7007 675.782 L29.0064 675.782 L29.0064 671.523 L44.5387 671.523 Q48.2192 671.523 50.0711 670.088 Q51.8998 668.653 51.8998 665.783 Q51.8998 662.333 49.7007 660.343 Q47.5016 658.329 43.7054 658.329 L29.0064 658.329 L29.0064 654.07 L54.9322 654.07 L54.9322 658.329 L50.9507 658.329 Q53.3118 659.88 54.4692 661.94 Q55.6035 663.977 55.6035 666.685 Q55.6035 671.153 52.8257 673.468 Q50.0479 675.782 44.7007 675.782 M28.3814 665.065 L28.3814 665.065 Z" fill="#000000" fill-rule="evenodd" fill-opacity="1" /><path clip-path="url(#clip290)" d="M18.9138 645.459 L18.9138 641.176 L40.1869 641.176 L29.0064 628.468 L29.0064 623.028 L41.1359 636.778 L54.9322 622.449 L54.9322 628.005 L42.2702 641.176 L54.9322 641.176 L54.9322 645.459 L18.9138 645.459 Z" fill="#000000" fill-rule="evenodd" fill-opacity="1" /><path clip-path="url(#clip290)" d="M21.6453 613.63 L29.0064 613.63 L29.0064 604.857 L32.3165 604.857 L32.3165 613.63 L46.3905 613.63 Q49.5618 613.63 50.4646 612.774 Q51.3674 611.894 51.3674 609.232 L51.3674 604.857 L54.9322 604.857 L54.9322 609.232 Q54.9322 614.162 53.1035 616.037 Q51.2516 617.912 46.3905 617.912 L32.3165 617.912 L32.3165 621.037 L29.0064 621.037 L29.0064 617.912 L21.6453 617.912 L21.6453 613.63 Z" fill="#000000" fill-rule="evenodd" fill-opacity="1" /><path clip-path="url(#clip290)" d="M44.7007 599.695 L29.0064 599.695 L29.0064 595.436 L44.5387 595.436 Q48.2192 595.436 50.0711 594 Q51.8998 592.565 51.8998 589.695 Q51.8998 586.246 49.7007 584.255 Q47.5016 582.241 43.7054 582.241 L29.0064 582.241 L29.0064 577.982 L54.9322 577.982 L54.9322 582.241 L50.9507 582.241 Q53.3118 583.792 54.4692 585.852 Q55.6035 587.889 55.6035 590.598 Q55.6035 595.065 52.8257 597.38 Q50.0479 599.695 44.7007 599.695 M28.3814 588.977 L28.3814 588.977 Z" fill="#000000" fill-rule="evenodd" fill-opacity="1" /><path clip-path="url(#clip290)" d="M31.9925 544.093 Q31.9925 547.519 34.6776 549.51 Q37.3397 551.501 41.9924 551.501 Q46.6452 551.501 49.3303 549.533 Q51.9924 547.542 51.9924 544.093 Q51.9924 540.691 49.3072 538.7 Q46.622 536.709 41.9924 536.709 Q37.386 536.709 34.7008 538.7 Q31.9925 540.691 31.9925 544.093 M28.3814 544.093 Q28.3814 538.538 31.9925 535.367 Q35.6036 532.195 41.9924 532.195 Q48.3581 532.195 51.9924 535.367 Q55.6035 538.538 55.6035 544.093 Q55.6035 549.672 51.9924 552.843 Q48.3581 555.991 41.9924 555.991 Q35.6036 555.991 31.9925 552.843 Q28.3814 549.672 28.3814 544.093 Z" fill="#000000" fill-rule="evenodd" fill-opacity="1" /><path clip-path="url(#clip290)" d="M32.9415 508.075 L18.9138 508.075 L18.9138 503.816 L54.9322 503.816 L54.9322 508.075 L51.0433 508.075 Q53.3581 509.418 54.4923 511.478 Q55.6035 513.515 55.6035 516.385 Q55.6035 521.084 51.8535 524.047 Q48.1035 526.987 41.9924 526.987 Q35.8813 526.987 32.1314 524.047 Q28.3814 521.084 28.3814 516.385 Q28.3814 513.515 29.5156 511.478 Q30.6267 509.418 32.9415 508.075 M41.9924 522.589 Q46.6915 522.589 49.3766 520.668 Q52.0387 518.723 52.0387 515.343 Q52.0387 511.964 49.3766 510.019 Q46.6915 508.075 41.9924 508.075 Q37.2934 508.075 34.6313 510.019 Q31.9462 511.964 31.9462 515.343 Q31.9462 518.723 34.6313 520.668 Q37.2934 522.589 41.9924 522.589 Z" fill="#000000" fill-rule="evenodd" fill-opacity="1" /><path clip-path="url(#clip290)" d="M31.9925 469.927 Q31.9925 473.353 34.6776 475.344 Q37.3397 477.334 41.9924 477.334 Q46.6452 477.334 49.3303 475.367 Q51.9924 473.376 51.9924 469.927 Q51.9924 466.524 49.3072 464.534 Q46.622 462.543 41.9924 462.543 Q37.386 462.543 34.7008 464.534 Q31.9925 466.524 31.9925 469.927 M28.3814 469.927 Q28.3814 464.372 31.9925 461.2 Q35.6036 458.029 41.9924 458.029 Q48.3581 458.029 51.9924 461.2 Q55.6035 464.372 55.6035 469.927 Q55.6035 475.506 51.9924 478.677 Q48.3581 481.825 41.9924 481.825 Q35.6036 481.825 31.9925 478.677 Q28.3814 475.506 28.3814 469.927 Z" fill="#000000" fill-rule="evenodd" fill-opacity="1" /><path clip-path="url(#clip290)" d="M30.0017 432.312 L33.9832 432.312 Q32.9878 434.117 32.5017 435.946 Q31.9925 437.751 31.9925 439.603 Q31.9925 443.747 34.6313 446.038 Q37.2471 448.33 41.9924 448.33 Q46.7378 448.33 49.3766 446.038 Q51.9924 443.747 51.9924 439.603 Q51.9924 437.751 51.5062 435.946 Q50.997 434.117 50.0016 432.312 L53.9368 432.312 Q54.7701 434.094 55.1868 436.015 Q55.6035 437.913 55.6035 440.066 Q55.6035 445.923 51.9229 449.372 Q48.2424 452.821 41.9924 452.821 Q35.6499 452.821 32.0156 449.348 Q28.3814 445.853 28.3814 439.788 Q28.3814 437.821 28.798 435.946 Q29.1916 434.071 30.0017 432.312 Z" fill="#000000" fill-rule="evenodd" fill-opacity="1" /><path clip-path="url(#clip290)" d="M29.0064 426.756 L29.0064 406.525 L32.8952 406.525 L51.5294 422.543 L51.5294 406.525 L54.9322 406.525 L54.9322 427.335 L51.0433 427.335 L32.4091 411.316 L32.4091 426.756 L29.0064 426.756 Z" fill="#000000" fill-rule="evenodd" fill-opacity="1" /><path clip-path="url(#clip290)" d="M40.9045 377.844 L42.9878 377.844 L42.9878 397.427 Q47.3859 397.15 49.7007 394.789 Q51.9924 392.404 51.9924 388.168 Q51.9924 385.715 51.3905 383.423 Q50.7887 381.108 49.585 378.84 L53.6127 378.84 Q54.5849 381.131 55.0942 383.539 Q55.6035 385.946 55.6035 388.423 Q55.6035 394.627 51.9924 398.261 Q48.3813 401.872 42.2239 401.872 Q35.8582 401.872 32.1314 398.446 Q28.3814 394.997 28.3814 389.164 Q28.3814 383.932 31.761 380.9 Q35.1174 377.844 40.9045 377.844 M39.6545 382.103 Q36.1591 382.15 34.0758 384.071 Q31.9925 385.969 31.9925 389.117 Q31.9925 392.682 34.0063 394.835 Q36.0202 396.965 39.6776 397.289 L39.6545 382.103 Z" fill="#000000" fill-rule="evenodd" fill-opacity="1" /><path clip-path="url(#clip290)" d="M18.9138 371.016 L18.9138 366.733 L40.1869 366.733 L29.0064 354.025 L29.0064 348.585 L41.1359 362.335 L54.9322 348.006 L54.9322 353.562 L42.2702 366.733 L54.9322 366.733 L54.9322 371.016 L18.9138 371.016 Z" fill="#000000" fill-rule="evenodd" fill-opacity="1" /><path clip-path="url(#clip290)" d="M29.0064 343.4 L29.0064 339.141 L54.9322 339.141 L54.9322 343.4 L29.0064 343.4 M18.9138 343.4 L18.9138 339.141 L24.3073 339.141 L24.3073 343.4 L18.9138 343.4 Z" fill="#000000" fill-rule="evenodd" fill-opacity="1" /><path clip-path="url(#clip290)" d="M29.0064 332.706 L29.0064 328.446 L49.2377 323.122 L29.0064 317.821 L29.0064 312.798 L49.2377 307.474 L29.0064 302.173 L29.0064 297.914 L54.9322 304.696 L54.9322 309.72 L33.6823 315.298 L54.9322 320.9 L54.9322 325.923 L29.0064 332.706 Z" fill="#000000" fill-rule="evenodd" fill-opacity="1" /><path clip-path="url(#clip290)" d="M41.8998 279.673 Q41.8998 284.835 43.0804 286.826 Q44.2609 288.817 47.1081 288.817 Q49.3766 288.817 50.7192 287.335 Q52.0387 285.831 52.0387 283.261 Q52.0387 279.72 49.5387 277.59 Q47.0155 275.437 42.8489 275.437 L41.8998 275.437 L41.8998 279.673 M40.1406 271.178 L54.9322 271.178 L54.9322 275.437 L50.997 275.437 Q53.3581 276.896 54.4923 279.072 Q55.6035 281.248 55.6035 284.396 Q55.6035 288.377 53.3812 290.738 Q51.1359 293.076 47.3859 293.076 Q43.0109 293.076 40.7887 290.16 Q38.5665 287.22 38.5665 281.41 L38.5665 275.437 L38.1498 275.437 Q35.21 275.437 33.6128 277.382 Q31.9925 279.303 31.9925 282.798 Q31.9925 285.021 32.5249 287.127 Q33.0573 289.234 34.1221 291.178 L30.1869 291.178 Q29.2841 288.84 28.8443 286.641 Q28.3814 284.442 28.3814 282.359 Q28.3814 276.734 31.298 273.956 Q34.2147 271.178 40.1406 271.178 Z" fill="#000000" fill-rule="evenodd" fill-opacity="1" /><path clip-path="url(#clip290)" d="M16.8537 250.275 L16.8537 245.669 L25.5573 253.215 L25.5573 256.757 L16.8537 250.275 M39.2841 240.854 L54.9322 240.854 L54.9322 245.113 L39.423 245.113 Q35.7424 245.113 33.9138 246.549 Q32.0851 247.984 32.0851 250.854 Q32.0851 254.303 34.2841 256.294 Q36.4832 258.285 40.2795 258.285 L54.9322 258.285 L54.9322 262.567 L29.0064 262.567 L29.0064 258.285 L33.0341 258.285 Q30.6962 256.757 29.5388 254.697 Q28.3814 252.613 28.3814 249.905 Q28.3814 245.438 31.1591 243.146 Q33.9138 240.854 39.2841 240.854 Z" fill="#000000" fill-rule="evenodd" fill-opacity="1" /><path clip-path="url(#clip290)" d="M1123.11 12.096 L1174.27 12.096 L1174.27 18.9825 L1152.8 18.9825 L1152.8 72.576 L1144.58 72.576 L1144.58 18.9825 L1123.11 18.9825 L1123.11 12.096 Z" fill="#000000" fill-rule="evenodd" fill-opacity="1" /><path clip-path="url(#clip290)" d="M1195.95 34.1734 Q1194.69 33.4443 1193.19 33.1202 Q1191.73 32.7556 1189.95 32.7556 Q1183.63 32.7556 1180.23 36.8875 Q1176.87 40.9789 1176.87 48.6757 L1176.87 72.576 L1169.37 72.576 L1169.37 27.2059 L1176.87 27.2059 L1176.87 34.2544 Q1179.22 30.1225 1182.98 28.1376 Q1186.75 26.1121 1192.14 26.1121 Q1192.91 26.1121 1193.84 26.2337 Q1194.77 26.3147 1195.91 26.5172 L1195.95 34.1734 Z" fill="#000000" fill-rule="evenodd" fill-opacity="1" /><path clip-path="url(#clip290)" d="M1199.43 27.2059 L1206.88 27.2059 L1216.2 62.6108 L1225.48 27.2059 L1234.27 27.2059 L1243.58 62.6108 L1252.86 27.2059 L1260.31 27.2059 L1248.45 72.576 L1239.65 72.576 L1229.89 35.3887 L1220.09 72.576 L1211.3 72.576 L1199.43 27.2059 Z" fill="#000000" fill-rule="evenodd" fill-opacity="1" /><path clip-path="url(#clip290)" d="M1292.24 49.7694 Q1283.2 49.7694 1279.72 51.8354 Q1276.23 53.9013 1276.23 58.8839 Q1276.23 62.8538 1278.83 65.2034 Q1281.46 67.5124 1285.96 67.5124 Q1292.15 67.5124 1295.88 63.1374 Q1299.65 58.7219 1299.65 51.4303 L1299.65 49.7694 L1292.24 49.7694 M1307.1 46.6907 L1307.1 72.576 L1299.65 72.576 L1299.65 65.6895 Q1297.1 69.8214 1293.29 71.8063 Q1289.48 73.7508 1283.97 73.7508 Q1277 73.7508 1272.87 69.8619 Q1268.78 65.9325 1268.78 59.3701 Q1268.78 51.7138 1273.88 47.825 Q1279.03 43.9361 1289.2 43.9361 L1299.65 43.9361 L1299.65 43.2069 Q1299.65 38.0623 1296.25 35.2672 Q1292.88 32.4315 1286.77 32.4315 Q1282.88 32.4315 1279.19 33.3632 Q1275.51 34.295 1272.1 36.1584 L1272.1 29.2718 Q1276.19 27.692 1280.04 26.9223 Q1283.89 26.1121 1287.54 26.1121 Q1297.38 26.1121 1302.24 31.2163 Q1307.1 36.3204 1307.1 46.6907 Z" fill="#000000" fill-rule="evenodd" fill-opacity="1" /><path clip-path="url(#clip290)" d="M1322.7 9.54393 L1330.15 9.54393 L1330.15 33.9304 L1335.22 30.2846 L1338.29 34.5785 L1330.15 40.2903 L1330.15 72.576 L1322.7 72.576 L1322.7 45.597 L1317.72 49.1618 L1314.72 44.8678 L1322.7 39.156 L1322.7 9.54393 Z" fill="#000000" fill-rule="evenodd" fill-opacity="1" /><path clip-path="url(#clip290)" d="M1363.61 32.4315 Q1357.62 32.4315 1354.13 37.1306 Q1350.65 41.7891 1350.65 49.9314 Q1350.65 58.0738 1354.09 62.7728 Q1357.58 67.4314 1363.61 67.4314 Q1369.57 67.4314 1373.05 62.7323 Q1376.53 58.0333 1376.53 49.9314 Q1376.53 41.8701 1373.05 37.1711 Q1369.57 32.4315 1363.61 32.4315 M1363.61 26.1121 Q1373.33 26.1121 1378.88 32.4315 Q1384.43 38.7509 1384.43 49.9314 Q1384.43 61.0714 1378.88 67.4314 Q1373.33 73.7508 1363.61 73.7508 Q1353.85 73.7508 1348.3 67.4314 Q1342.79 61.0714 1342.79 49.9314 Q1342.79 38.7509 1348.3 32.4315 Q1353.85 26.1121 1363.61 26.1121 Z" fill="#000000" fill-rule="evenodd" fill-opacity="1" /><path clip-path="url(#clip290)" d="M1418.02 5.93863 L1426.08 5.93863 L1412.87 21.17 L1406.67 21.17 L1418.02 5.93863 M1425.71 28.5427 L1425.71 35.5912 Q1422.55 33.9709 1419.15 33.1607 Q1415.75 32.3505 1412.1 32.3505 Q1406.55 32.3505 1403.76 34.0519 Q1401 35.7533 1401 39.156 Q1401 41.7486 1402.99 43.2475 Q1404.97 44.7058 1410.97 46.0426 L1413.52 46.6097 Q1421.46 48.3111 1424.78 51.4303 Q1428.14 54.509 1428.14 60.0587 Q1428.14 66.3781 1423.12 70.0644 Q1418.14 73.7508 1409.39 73.7508 Q1405.74 73.7508 1401.77 73.0216 Q1397.84 72.3329 1393.47 70.9151 L1393.47 63.2184 Q1397.6 65.3654 1401.61 66.4591 Q1405.62 67.5124 1409.55 67.5124 Q1414.82 67.5124 1417.65 65.73 Q1420.49 63.9071 1420.49 60.6258 Q1420.49 57.5877 1418.42 55.9673 Q1416.4 54.3469 1409.47 52.8481 L1406.88 52.2405 Q1399.95 50.7821 1396.87 47.7845 Q1393.79 44.7463 1393.79 39.4801 Q1393.79 33.0797 1398.33 29.5959 Q1402.87 26.1121 1411.21 26.1121 Q1415.34 26.1121 1418.99 26.7198 Q1422.63 27.3274 1425.71 28.5427 Z" fill="#000000" fill-rule="evenodd" fill-opacity="1" /><path clip-path="url(#clip290)" d="M1472.66 28.9478 L1472.66 35.9153 Q1469.5 34.1734 1466.3 33.3227 Q1463.14 32.4315 1459.9 32.4315 Q1452.65 32.4315 1448.64 37.0496 Q1444.63 41.6271 1444.63 49.9314 Q1444.63 58.2358 1448.64 62.8538 Q1452.65 67.4314 1459.9 67.4314 Q1463.14 67.4314 1466.3 66.5807 Q1469.5 65.6895 1472.66 63.9476 L1472.66 70.8341 Q1469.54 72.2924 1466.18 73.0216 Q1462.86 73.7508 1459.09 73.7508 Q1448.84 73.7508 1442.81 67.3098 Q1436.77 60.8689 1436.77 49.9314 Q1436.77 38.832 1442.85 32.472 Q1448.97 26.1121 1459.58 26.1121 Q1463.02 26.1121 1466.3 26.8413 Q1469.58 27.5299 1472.66 28.9478 M1464.12 6.22219 L1472.18 6.22219 L1458.97 21.4536 L1452.77 21.4536 L1464.12 6.22219 Z" fill="#000000" fill-rule="evenodd" fill-opacity="1" /><path clip-path="url(#clip292)" d="
M745.02 1059.85 L523.873 1059.85 L966.167 1059.85 L745.02 1059.85 L745.02 835.865 L745.02 1059.85  Z
  " fill="#009af9" fill-rule="evenodd" fill-opacity="1"/>
<polyline clip-path="url(#clip292)" style="stroke:#000000; stroke-linecap:round; stroke-linejoin:round; stroke-width:4; stroke-opacity:1; fill:none" points="
  745.02,1059.85 523.873,1059.85 966.167,1059.85 745.02,1059.85 745.02,835.865 745.02,1059.85 
  "/>
<path clip-path="url(#clip292)" d="
M1187.31 835.865 L1187.31 762.883 L302.727 762.883 L302.727 835.865 L1187.31 835.865 L1187.31 762.883 L1187.31 835.865  Z
  " fill="#009af9" fill-rule="evenodd" fill-opacity="1"/>
<polyline clip-path="url(#clip292)" style="stroke:#000000; stroke-linecap:round; stroke-linejoin:round; stroke-width:4; stroke-opacity:1; fill:none" points="
  1187.31,835.865 1187.31,762.883 302.727,762.883 302.727,835.865 1187.31,835.865 1187.31,762.883 1187.31,835.865 
  "/>
<path clip-path="url(#clip292)" d="
M1187.31 685.838 L302.727 685.838 L302.727 762.883 L1187.31 762.883 L1187.31 685.838 L745.02 685.838 L1187.31 685.838  Z
  " fill="#009af9" fill-rule="evenodd" fill-opacity="1"/>
<polyline clip-path="url(#clip292)" style="stroke:#000000; stroke-linecap:round; stroke-linejoin:round; stroke-width:4; stroke-opacity:1; fill:none" points="
  1187.31,685.838 302.727,685.838 302.727,762.883 1187.31,762.883 1187.31,685.838 745.02,685.838 1187.31,685.838 
  "/>
<path clip-path="url(#clip292)" d="
M745.02 465.655 L523.873 465.655 L966.167 465.655 L745.02 465.655 L745.02 685.838 L745.02 465.655  Z
  " fill="#009af9" fill-rule="evenodd" fill-opacity="1"/>
<polyline clip-path="url(#clip292)" style="stroke:#000000; stroke-linecap:round; stroke-linejoin:round; stroke-width:4; stroke-opacity:1; fill:none" points="
  745.02,465.655 523.873,465.655 966.167,465.655 745.02,465.655 745.02,685.838 745.02,465.655 
  "/>
<circle clip-path="url(#clip292)" cx="745.02" cy="323.151" r="14.4" fill="#009af9" fill-rule="evenodd" fill-opacity="1" stroke="#000000" stroke-opacity="1" stroke-width="3.2"/>
<circle clip-path="url(#clip292)" cx="745.02" cy="452.706" r="14.4" fill="#009af9" fill-rule="evenodd" fill-opacity="1" stroke="#000000" stroke-opacity="1" stroke-width="3.2"/>
<circle clip-path="url(#clip292)" cx="745.02" cy="365.889" r="14.4" fill="#009af9" fill-rule="evenodd" fill-opacity="1" stroke="#000000" stroke-opacity="1" stroke-width="3.2"/>
<circle clip-path="url(#clip292)" cx="745.02" cy="1182.8" r="14.4" fill="#009af9" fill-rule="evenodd" fill-opacity="1" stroke="#000000" stroke-opacity="1" stroke-width="3.2"/>
<circle clip-path="url(#clip292)" cx="745.02" cy="343.779" r="14.4" fill="#009af9" fill-rule="evenodd" fill-opacity="1" stroke="#000000" stroke-opacity="1" stroke-width="3.2"/>
<circle clip-path="url(#clip292)" cx="745.02" cy="365.284" r="14.4" fill="#009af9" fill-rule="evenodd" fill-opacity="1" stroke="#000000" stroke-opacity="1" stroke-width="3.2"/>
<circle clip-path="url(#clip292)" cx="745.02" cy="369.882" r="14.4" fill="#009af9" fill-rule="evenodd" fill-opacity="1" stroke="#000000" stroke-opacity="1" stroke-width="3.2"/>
<circle clip-path="url(#clip292)" cx="745.02" cy="456.277" r="14.4" fill="#009af9" fill-rule="evenodd" fill-opacity="1" stroke="#000000" stroke-opacity="1" stroke-width="3.2"/>
<circle clip-path="url(#clip292)" cx="745.02" cy="325.641" r="14.4" fill="#009af9" fill-rule="evenodd" fill-opacity="1" stroke="#000000" stroke-opacity="1" stroke-width="3.2"/>
<circle clip-path="url(#clip292)" cx="745.02" cy="1157.77" r="14.4" fill="#009af9" fill-rule="evenodd" fill-opacity="1" stroke="#000000" stroke-opacity="1" stroke-width="3.2"/>
<circle clip-path="url(#clip292)" cx="745.02" cy="457.945" r="14.4" fill="#009af9" fill-rule="evenodd" fill-opacity="1" stroke="#000000" stroke-opacity="1" stroke-width="3.2"/>
<circle clip-path="url(#clip292)" cx="745.02" cy="339.616" r="14.4" fill="#009af9" fill-rule="evenodd" fill-opacity="1" stroke="#000000" stroke-opacity="1" stroke-width="3.2"/>
<circle clip-path="url(#clip292)" cx="745.02" cy="334.91" r="14.4" fill="#009af9" fill-rule="evenodd" fill-opacity="1" stroke="#000000" stroke-opacity="1" stroke-width="3.2"/>
<circle clip-path="url(#clip292)" cx="745.02" cy="447.499" r="14.4" fill="#009af9" fill-rule="evenodd" fill-opacity="1" stroke="#000000" stroke-opacity="1" stroke-width="3.2"/>
<circle clip-path="url(#clip292)" cx="745.02" cy="1087.53" r="14.4" fill="#009af9" fill-rule="evenodd" fill-opacity="1" stroke="#000000" stroke-opacity="1" stroke-width="3.2"/>
<circle clip-path="url(#clip292)" cx="745.02" cy="452.664" r="14.4" fill="#009af9" fill-rule="evenodd" fill-opacity="1" stroke="#000000" stroke-opacity="1" stroke-width="3.2"/>
<circle clip-path="url(#clip292)" cx="745.02" cy="439.854" r="14.4" fill="#009af9" fill-rule="evenodd" fill-opacity="1" stroke="#000000" stroke-opacity="1" stroke-width="3.2"/>
<circle clip-path="url(#clip292)" cx="745.02" cy="458.344" r="14.4" fill="#009af9" fill-rule="evenodd" fill-opacity="1" stroke="#000000" stroke-opacity="1" stroke-width="3.2"/>
<circle clip-path="url(#clip292)" cx="745.02" cy="162.047" r="14.4" fill="#009af9" fill-rule="evenodd" fill-opacity="1" stroke="#000000" stroke-opacity="1" stroke-width="3.2"/>
<circle clip-path="url(#clip292)" cx="745.02" cy="1074.38" r="14.4" fill="#009af9" fill-rule="evenodd" fill-opacity="1" stroke="#000000" stroke-opacity="1" stroke-width="3.2"/>
<circle clip-path="url(#clip292)" cx="745.02" cy="450.429" r="14.4" fill="#009af9" fill-rule="evenodd" fill-opacity="1" stroke="#000000" stroke-opacity="1" stroke-width="3.2"/>
<circle clip-path="url(#clip292)" cx="745.02" cy="421.972" r="14.4" fill="#009af9" fill-rule="evenodd" fill-opacity="1" stroke="#000000" stroke-opacity="1" stroke-width="3.2"/>
<circle clip-path="url(#clip292)" cx="745.02" cy="235.508" r="14.4" fill="#009af9" fill-rule="evenodd" fill-opacity="1" stroke="#000000" stroke-opacity="1" stroke-width="3.2"/>
<polyline clip-path="url(#clip292)" style="stroke:#009af9; stroke-linecap:round; stroke-linejoin:round; stroke-width:0; stroke-opacity:1; fill:none" points="
  745.02,1059.85 523.873,1059.85 966.167,1059.85 745.02,1059.85 745.02,835.865 
  "/>
<polyline clip-path="url(#clip292)" style="stroke:#009af9; stroke-linecap:round; stroke-linejoin:round; stroke-width:0; stroke-opacity:1; fill:none" points="
  1187.31,835.865 1187.31,762.883 302.727,762.883 302.727,835.865 1187.31,835.865 1187.31,762.883 
  "/>
<polyline clip-path="url(#clip292)" style="stroke:#009af9; stroke-linecap:round; stroke-linejoin:round; stroke-width:0; stroke-opacity:1; fill:none" points="
  1187.31,685.838 302.727,685.838 302.727,762.883 1187.31,762.883 1187.31,685.838 745.02,685.838 
  "/>
<polyline clip-path="url(#clip292)" style="stroke:#009af9; stroke-linecap:round; stroke-linejoin:round; stroke-width:0; stroke-opacity:1; fill:none" points="
  745.02,465.655 523.873,465.655 966.167,465.655 745.02,465.655 745.02,685.838 
  "/>
<path clip-path="url(#clip292)" d="
M1850.75 1042.77 L1629.61 1042.77 L2071.9 1042.77 L1850.75 1042.77 L1850.75 855.974 L1850.75 1042.77  Z
  " fill="#e26f46" fill-rule="evenodd" fill-opacity="1"/>
<polyline clip-path="url(#clip292)" style="stroke:#000000; stroke-linecap:round; stroke-linejoin:round; stroke-width:4; stroke-opacity:1; fill:none" points="
  1850.75,1042.77 1629.61,1042.77 2071.9,1042.77 1850.75,1042.77 1850.75,855.974 1850.75,1042.77 
  "/>
<path clip-path="url(#clip292)" d="
M2293.05 855.974 L2293.05 794.655 L1408.46 794.655 L1408.46 855.974 L2293.05 855.974 L2293.05 794.655 L2293.05 855.974  Z
  " fill="#e26f46" fill-rule="evenodd" fill-opacity="1"/>
<polyline clip-path="url(#clip292)" style="stroke:#000000; stroke-linecap:round; stroke-linejoin:round; stroke-width:4; stroke-opacity:1; fill:none" points="
  2293.05,855.974 2293.05,794.655 1408.46,794.655 1408.46,855.974 2293.05,855.974 2293.05,794.655 2293.05,855.974 
  "/>
<path clip-path="url(#clip292)" d="
M2293.05 726.227 L1408.46 726.227 L1408.46 794.655 L2293.05 794.655 L2293.05 726.227 L1850.75 726.227 L2293.05 726.227  Z
  " fill="#e26f46" fill-rule="evenodd" fill-opacity="1"/>
<polyline clip-path="url(#clip292)" style="stroke:#000000; stroke-linecap:round; stroke-linejoin:round; stroke-width:4; stroke-opacity:1; fill:none" points="
  2293.05,726.227 1408.46,726.227 1408.46,794.655 2293.05,794.655 2293.05,726.227 1850.75,726.227 2293.05,726.227 
  "/>
<path clip-path="url(#clip292)" d="
M1850.75 534.789 L1629.61 534.789 L2071.9 534.789 L1850.75 534.789 L1850.75 726.227 L1850.75 534.789  Z
  " fill="#e26f46" fill-rule="evenodd" fill-opacity="1"/>
<polyline clip-path="url(#clip292)" style="stroke:#000000; stroke-linecap:round; stroke-linejoin:round; stroke-width:4; stroke-opacity:1; fill:none" points="
  1850.75,534.789 1629.61,534.789 2071.9,534.789 1850.75,534.789 1850.75,726.227 1850.75,534.789 
  "/>
<circle clip-path="url(#clip292)" cx="1850.75" cy="426.268" r="14.4" fill="#e26f46" fill-rule="evenodd" fill-opacity="1" stroke="#000000" stroke-opacity="1" stroke-width="3.2"/>
<circle clip-path="url(#clip292)" cx="1850.75" cy="495.548" r="14.4" fill="#e26f46" fill-rule="evenodd" fill-opacity="1" stroke="#000000" stroke-opacity="1" stroke-width="3.2"/>
<circle clip-path="url(#clip292)" cx="1850.75" cy="1153.64" r="14.4" fill="#e26f46" fill-rule="evenodd" fill-opacity="1" stroke="#000000" stroke-opacity="1" stroke-width="3.2"/>
<circle clip-path="url(#clip292)" cx="1850.75" cy="451.77" r="14.4" fill="#e26f46" fill-rule="evenodd" fill-opacity="1" stroke="#000000" stroke-opacity="1" stroke-width="3.2"/>
<circle clip-path="url(#clip292)" cx="1850.75" cy="522.092" r="14.4" fill="#e26f46" fill-rule="evenodd" fill-opacity="1" stroke="#000000" stroke-opacity="1" stroke-width="3.2"/>
<circle clip-path="url(#clip292)" cx="1850.75" cy="519.204" r="14.4" fill="#e26f46" fill-rule="evenodd" fill-opacity="1" stroke="#000000" stroke-opacity="1" stroke-width="3.2"/>
<circle clip-path="url(#clip292)" cx="1850.75" cy="430.109" r="14.4" fill="#e26f46" fill-rule="evenodd" fill-opacity="1" stroke="#000000" stroke-opacity="1" stroke-width="3.2"/>
<circle clip-path="url(#clip292)" cx="1850.75" cy="1089.58" r="14.4" fill="#e26f46" fill-rule="evenodd" fill-opacity="1" stroke="#000000" stroke-opacity="1" stroke-width="3.2"/>
<circle clip-path="url(#clip292)" cx="1850.75" cy="496.14" r="14.4" fill="#e26f46" fill-rule="evenodd" fill-opacity="1" stroke="#000000" stroke-opacity="1" stroke-width="3.2"/>
<circle clip-path="url(#clip292)" cx="1850.75" cy="1447.87" r="14.4" fill="#e26f46" fill-rule="evenodd" fill-opacity="1" stroke="#000000" stroke-opacity="1" stroke-width="3.2"/>
<circle clip-path="url(#clip292)" cx="1850.75" cy="522.051" r="14.4" fill="#e26f46" fill-rule="evenodd" fill-opacity="1" stroke="#000000" stroke-opacity="1" stroke-width="3.2"/>
<circle clip-path="url(#clip292)" cx="1850.75" cy="484.556" r="14.4" fill="#e26f46" fill-rule="evenodd" fill-opacity="1" stroke="#000000" stroke-opacity="1" stroke-width="3.2"/>
<circle clip-path="url(#clip292)" cx="1850.75" cy="1108.73" r="14.4" fill="#e26f46" fill-rule="evenodd" fill-opacity="1" stroke="#000000" stroke-opacity="1" stroke-width="3.2"/>
<circle clip-path="url(#clip292)" cx="1850.75" cy="1068.05" r="14.4" fill="#e26f46" fill-rule="evenodd" fill-opacity="1" stroke="#000000" stroke-opacity="1" stroke-width="3.2"/>
<circle clip-path="url(#clip292)" cx="1850.75" cy="1132.73" r="14.4" fill="#e26f46" fill-rule="evenodd" fill-opacity="1" stroke="#000000" stroke-opacity="1" stroke-width="3.2"/>
<circle clip-path="url(#clip292)" cx="1850.75" cy="521.376" r="14.4" fill="#e26f46" fill-rule="evenodd" fill-opacity="1" stroke="#000000" stroke-opacity="1" stroke-width="3.2"/>
<circle clip-path="url(#clip292)" cx="1850.75" cy="1446.32" r="14.4" fill="#e26f46" fill-rule="evenodd" fill-opacity="1" stroke="#000000" stroke-opacity="1" stroke-width="3.2"/>
<circle clip-path="url(#clip292)" cx="1850.75" cy="371.036" r="14.4" fill="#e26f46" fill-rule="evenodd" fill-opacity="1" stroke="#000000" stroke-opacity="1" stroke-width="3.2"/>
<circle clip-path="url(#clip292)" cx="1850.75" cy="408.535" r="14.4" fill="#e26f46" fill-rule="evenodd" fill-opacity="1" stroke="#000000" stroke-opacity="1" stroke-width="3.2"/>
<polyline clip-path="url(#clip292)" style="stroke:#e26f46; stroke-linecap:round; stroke-linejoin:round; stroke-width:0; stroke-opacity:1; fill:none" points="
  1850.75,1042.77 1629.61,1042.77 2071.9,1042.77 1850.75,1042.77 1850.75,855.974 
  "/>
<polyline clip-path="url(#clip292)" style="stroke:#e26f46; stroke-linecap:round; stroke-linejoin:round; stroke-width:0; stroke-opacity:1; fill:none" points="
  2293.05,855.974 2293.05,794.655 1408.46,794.655 1408.46,855.974 2293.05,855.974 2293.05,794.655 
  "/>
<polyline clip-path="url(#clip292)" style="stroke:#e26f46; stroke-linecap:round; stroke-linejoin:round; stroke-width:0; stroke-opacity:1; fill:none" points="
  2293.05,726.227 1408.46,726.227 1408.46,794.655 2293.05,794.655 2293.05,726.227 1850.75,726.227 
  "/>
<polyline clip-path="url(#clip292)" style="stroke:#e26f46; stroke-linecap:round; stroke-linejoin:round; stroke-width:0; stroke-opacity:1; fill:none" points="
  1850.75,534.789 1629.61,534.789 2071.9,534.789 1850.75,534.789 1850.75,726.227 
  "/>
</svg>
