<?xml version="1.0" encoding="utf-8"?>
<svg xmlns="http://www.w3.org/2000/svg" xmlns:xlink="http://www.w3.org/1999/xlink" width="600" height="400" viewBox="0 0 2400 1600">
<defs>
  <clipPath id="clip580">
    <rect x="0" y="0" width="2400" height="1600"/>
  </clipPath>
</defs>
<path clip-path="url(#clip580)" d="
M0 1600 L2400 1600 L2400 0 L0 0  Z
  " fill="#ffffff" fill-rule="evenodd" fill-opacity="1"/>
<defs>
  <clipPath id="clip581">
    <rect x="480" y="0" width="1681" height="1600"/>
  </clipPath>
</defs>
<path clip-path="url(#clip580)" d="
M249.542 1423.18 L2352.76 1423.18 L2352.76 123.472 L249.542 123.472  Z
  " fill="#ffffff" fill-rule="evenodd" fill-opacity="1"/>
<defs>
  <clipPath id="clip582">
    <rect x="249" y="123" width="2104" height="1301"/>
  </clipPath>
</defs>
<polyline clip-path="url(#clip582)" style="stroke:#000000; stroke-linecap:butt; stroke-linejoin:round; stroke-width:2; stroke-opacity:0.1; fill:none" points="
  431.808,1423.18 431.808,123.472 
  "/>
<polyline clip-path="url(#clip582)" style="stroke:#000000; stroke-linecap:butt; stroke-linejoin:round; stroke-width:2; stroke-opacity:0.1; fill:none" points="
  780.77,1423.18 780.77,123.472 
  "/>
<polyline clip-path="url(#clip582)" style="stroke:#000000; stroke-linecap:butt; stroke-linejoin:round; stroke-width:2; stroke-opacity:0.1; fill:none" points="
  1129.73,1423.18 1129.73,123.472 
  "/>
<polyline clip-path="url(#clip582)" style="stroke:#000000; stroke-linecap:butt; stroke-linejoin:round; stroke-width:2; stroke-opacity:0.1; fill:none" points="
  1478.69,1423.18 1478.69,123.472 
  "/>
<polyline clip-path="url(#clip582)" style="stroke:#000000; stroke-linecap:butt; stroke-linejoin:round; stroke-width:2; stroke-opacity:0.1; fill:none" points="
  1827.66,1423.18 1827.66,123.472 
  "/>
<polyline clip-path="url(#clip582)" style="stroke:#000000; stroke-linecap:butt; stroke-linejoin:round; stroke-width:2; stroke-opacity:0.1; fill:none" points="
  2176.62,1423.18 2176.62,123.472 
  "/>
<polyline clip-path="url(#clip580)" style="stroke:#000000; stroke-linecap:butt; stroke-linejoin:round; stroke-width:4; stroke-opacity:1; fill:none" points="
  249.542,1423.18 2352.76,1423.18 
  "/>
<polyline clip-path="url(#clip580)" style="stroke:#000000; stroke-linecap:butt; stroke-linejoin:round; stroke-width:4; stroke-opacity:1; fill:none" points="
  431.808,1423.18 431.808,1404.28 
  "/>
<polyline clip-path="url(#clip580)" style="stroke:#000000; stroke-linecap:butt; stroke-linejoin:round; stroke-width:4; stroke-opacity:1; fill:none" points="
  780.77,1423.18 780.77,1404.28 
  "/>
<polyline clip-path="url(#clip580)" style="stroke:#000000; stroke-linecap:butt; stroke-linejoin:round; stroke-width:4; stroke-opacity:1; fill:none" points="
  1129.73,1423.18 1129.73,1404.28 
  "/>
<polyline clip-path="url(#clip580)" style="stroke:#000000; stroke-linecap:butt; stroke-linejoin:round; stroke-width:4; stroke-opacity:1; fill:none" points="
  1478.69,1423.18 1478.69,1404.28 
  "/>
<polyline clip-path="url(#clip580)" style="stroke:#000000; stroke-linecap:butt; stroke-linejoin:round; stroke-width:4; stroke-opacity:1; fill:none" points="
  1827.66,1423.18 1827.66,1404.28 
  "/>
<polyline clip-path="url(#clip580)" style="stroke:#000000; stroke-linecap:butt; stroke-linejoin:round; stroke-width:4; stroke-opacity:1; fill:none" points="
  2176.62,1423.18 2176.62,1404.28 
  "/>
<path clip-path="url(#clip580)" d="M422.19 1481.64 L429.829 1481.64 L429.829 1455.28 L421.519 1456.95 L421.519 1452.69 L429.783 1451.02 L434.458 1451.02 L434.458 1481.64 L442.097 1481.64 L442.097 1485.58 L422.19 1485.58 L422.19 1481.64 Z" fill="#000000" fill-rule="evenodd" fill-opacity="1" /><path clip-path="url(#clip580)" d="M775.423 1481.64 L791.742 1481.64 L791.742 1485.58 L769.798 1485.58 L769.798 1481.64 Q772.46 1478.89 777.043 1474.26 Q781.65 1469.61 782.83 1468.27 Q785.076 1465.74 785.955 1464.01 Q786.858 1462.25 786.858 1460.56 Q786.858 1457.8 784.914 1456.07 Q782.992 1454.33 779.891 1454.33 Q777.691 1454.33 775.238 1455.09 Q772.807 1455.86 770.029 1457.41 L770.029 1452.69 Q772.854 1451.55 775.307 1450.97 Q777.761 1450.39 779.798 1450.39 Q785.168 1450.39 788.363 1453.08 Q791.557 1455.77 791.557 1460.26 Q791.557 1462.39 790.747 1464.31 Q789.96 1466.2 787.853 1468.8 Q787.275 1469.47 784.173 1472.69 Q781.071 1475.88 775.423 1481.64 Z" fill="#000000" fill-rule="evenodd" fill-opacity="1" /><path clip-path="url(#clip580)" d="M1133.98 1466.95 Q1137.34 1467.66 1139.21 1469.93 Q1141.11 1472.2 1141.11 1475.53 Q1141.11 1480.65 1137.59 1483.45 Q1134.07 1486.25 1127.59 1486.25 Q1125.42 1486.25 1123.1 1485.81 Q1120.81 1485.39 1118.36 1484.54 L1118.36 1480.02 Q1120.3 1481.16 1122.61 1481.74 Q1124.93 1482.32 1127.45 1482.32 Q1131.85 1482.32 1134.14 1480.58 Q1136.46 1478.84 1136.46 1475.53 Q1136.46 1472.48 1134.3 1470.77 Q1132.17 1469.03 1128.36 1469.03 L1124.33 1469.03 L1124.33 1465.19 L1128.54 1465.19 Q1131.99 1465.19 1133.82 1463.82 Q1135.65 1462.43 1135.65 1459.84 Q1135.65 1457.18 1133.75 1455.77 Q1131.87 1454.33 1128.36 1454.33 Q1126.43 1454.33 1124.23 1454.75 Q1122.04 1455.16 1119.4 1456.04 L1119.4 1451.88 Q1122.06 1451.14 1124.37 1450.77 Q1126.71 1450.39 1128.77 1450.39 Q1134.1 1450.39 1137.2 1452.83 Q1140.3 1455.23 1140.3 1459.35 Q1140.3 1462.22 1138.66 1464.21 Q1137.01 1466.18 1133.98 1466.95 Z" fill="#000000" fill-rule="evenodd" fill-opacity="1" /><path clip-path="url(#clip580)" d="M1481.7 1455.09 L1469.9 1473.54 L1481.7 1473.54 L1481.7 1455.09 M1480.48 1451.02 L1486.36 1451.02 L1486.36 1473.54 L1491.29 1473.54 L1491.29 1477.43 L1486.36 1477.43 L1486.36 1485.58 L1481.7 1485.58 L1481.7 1477.43 L1466.1 1477.43 L1466.1 1472.92 L1480.48 1451.02 Z" fill="#000000" fill-rule="evenodd" fill-opacity="1" /><path clip-path="url(#clip580)" d="M1817.93 1451.02 L1836.29 1451.02 L1836.29 1454.96 L1822.22 1454.96 L1822.22 1463.43 Q1823.24 1463.08 1824.25 1462.92 Q1825.27 1462.73 1826.29 1462.73 Q1832.08 1462.73 1835.46 1465.9 Q1838.84 1469.08 1838.84 1474.49 Q1838.84 1480.07 1835.37 1483.17 Q1831.89 1486.25 1825.57 1486.25 Q1823.4 1486.25 1821.13 1485.88 Q1818.88 1485.51 1816.48 1484.77 L1816.48 1480.07 Q1818.56 1481.2 1820.78 1481.76 Q1823 1482.32 1825.48 1482.32 Q1829.49 1482.32 1831.82 1480.21 Q1834.16 1478.1 1834.16 1474.49 Q1834.16 1470.88 1831.82 1468.77 Q1829.49 1466.67 1825.48 1466.67 Q1823.61 1466.67 1821.73 1467.08 Q1819.88 1467.5 1817.93 1468.38 L1817.93 1451.02 Z" fill="#000000" fill-rule="evenodd" fill-opacity="1" /><path clip-path="url(#clip580)" d="M2177.02 1466.44 Q2173.88 1466.44 2172.02 1468.59 Q2170.2 1470.74 2170.2 1474.49 Q2170.2 1478.22 2172.02 1480.39 Q2173.88 1482.55 2177.02 1482.55 Q2180.17 1482.55 2182 1480.39 Q2183.85 1478.22 2183.85 1474.49 Q2183.85 1470.74 2182 1468.59 Q2180.17 1466.44 2177.02 1466.44 M2186.31 1451.78 L2186.31 1456.04 Q2184.55 1455.21 2182.74 1454.77 Q2180.96 1454.33 2179.2 1454.33 Q2174.57 1454.33 2172.12 1457.45 Q2169.69 1460.58 2169.34 1466.9 Q2170.7 1464.89 2172.76 1463.82 Q2174.82 1462.73 2177.3 1462.73 Q2182.51 1462.73 2185.52 1465.9 Q2188.55 1469.05 2188.55 1474.49 Q2188.55 1479.82 2185.4 1483.03 Q2182.26 1486.25 2177.02 1486.25 Q2171.03 1486.25 2167.86 1481.67 Q2164.69 1477.06 2164.69 1468.33 Q2164.69 1460.14 2168.57 1455.28 Q2172.46 1450.39 2179.01 1450.39 Q2180.77 1450.39 2182.56 1450.74 Q2184.36 1451.09 2186.31 1451.78 Z" fill="#000000" fill-rule="evenodd" fill-opacity="1" /><path clip-path="url(#clip580)" d="M944.542 1520.52 L953.199 1520.52 L974.27 1560.28 L974.27 1520.52 L980.508 1520.52 L980.508 1568.04 L971.851 1568.04 L950.78 1528.29 L950.78 1568.04 L944.542 1568.04 L944.542 1520.52 Z" fill="#000000" fill-rule="evenodd" fill-opacity="1" /><path clip-path="url(#clip580)" d="M1009.25 1550.12 Q1002.15 1550.12 999.414 1551.75 Q996.677 1553.37 996.677 1557.29 Q996.677 1560.4 998.714 1562.25 Q1000.78 1564.07 1004.32 1564.07 Q1009.19 1564.07 1012.11 1560.63 Q1015.07 1557.16 1015.07 1551.43 L1015.07 1550.12 L1009.25 1550.12 M1020.93 1547.71 L1020.93 1568.04 L1015.07 1568.04 L1015.07 1562.63 Q1013.07 1565.88 1010.08 1567.44 Q1007.09 1568.97 1002.76 1568.97 Q997.282 1568.97 994.035 1565.91 Q990.821 1562.82 990.821 1557.67 Q990.821 1551.65 994.831 1548.6 Q998.873 1545.54 1006.86 1545.54 L1015.07 1545.54 L1015.07 1544.97 Q1015.07 1540.93 1012.4 1538.73 Q1009.76 1536.5 1004.95 1536.5 Q1001.9 1536.5 999.001 1537.23 Q996.104 1537.97 993.431 1539.43 L993.431 1534.02 Q996.645 1532.78 999.669 1532.17 Q1002.69 1531.54 1005.56 1531.54 Q1013.29 1531.54 1017.11 1535.55 Q1020.93 1539.56 1020.93 1547.71 Z" fill="#000000" fill-rule="evenodd" fill-opacity="1" /><path clip-path="url(#clip580)" d="M1056.45 1537.81 L1056.45 1518.52 L1062.31 1518.52 L1062.31 1568.04 L1056.45 1568.04 L1056.45 1562.7 Q1054.61 1565.88 1051.77 1567.44 Q1048.97 1568.97 1045.02 1568.97 Q1038.56 1568.97 1034.49 1563.81 Q1030.45 1558.65 1030.45 1550.25 Q1030.45 1541.85 1034.49 1536.69 Q1038.56 1531.54 1045.02 1531.54 Q1048.97 1531.54 1051.77 1533.1 Q1054.61 1534.62 1056.45 1537.81 M1036.49 1550.25 Q1036.49 1556.71 1039.14 1560.4 Q1041.81 1564.07 1046.46 1564.07 Q1051.1 1564.07 1053.78 1560.4 Q1056.45 1556.71 1056.45 1550.25 Q1056.45 1543.79 1053.78 1540.13 Q1051.1 1536.44 1046.46 1536.44 Q1041.81 1536.44 1039.14 1540.13 Q1036.49 1543.79 1036.49 1550.25 Z" fill="#000000" fill-rule="evenodd" fill-opacity="1" /><path clip-path="url(#clip580)" d="M1070.97 1532.4 L1076.82 1532.4 L1084.14 1560.21 L1091.43 1532.4 L1098.34 1532.4 L1105.66 1560.21 L1112.95 1532.4 L1118.8 1532.4 L1109.48 1568.04 L1102.57 1568.04 L1094.9 1538.83 L1087.2 1568.04 L1080.29 1568.04 L1070.97 1532.4 Z" fill="#000000" fill-rule="evenodd" fill-opacity="1" /><path clip-path="url(#clip580)" d="M1142.52 1571.35 Q1140.03 1577.72 1137.68 1579.66 Q1135.32 1581.6 1131.38 1581.6 L1126.7 1581.6 L1126.7 1576.7 L1130.13 1576.7 Q1132.55 1576.7 1133.89 1575.56 Q1135.23 1574.41 1136.85 1570.14 L1137.9 1567.47 L1123.48 1532.4 L1129.69 1532.4 L1140.83 1560.28 L1151.97 1532.4 L1158.18 1532.4 L1142.52 1571.35 Z" fill="#000000" fill-rule="evenodd" fill-opacity="1" /><path clip-path="url(#clip580)" d="M1174.15 1518.52 L1180.01 1518.52 L1180.01 1525.93 L1174.15 1525.93 L1174.15 1518.52 M1177.15 1531.54 L1177.15 1531.54 M1163.71 1532.4 L1191.53 1532.4 L1191.53 1537.74 L1169.51 1563.37 L1191.53 1563.37 L1191.53 1568.04 L1162.92 1568.04 L1162.92 1562.7 L1184.94 1537.07 L1163.71 1537.07 L1163.71 1532.4 Z" fill="#000000" fill-rule="evenodd" fill-opacity="1" /><path clip-path="url(#clip580)" d="M1200.25 1518.52 L1206.14 1518.52 L1206.14 1547.77 L1223.61 1532.4 L1231.09 1532.4 L1212.19 1549.07 L1231.89 1568.04 L1224.25 1568.04 L1206.14 1550.63 L1206.14 1568.04 L1200.25 1568.04 L1200.25 1518.52 Z" fill="#000000" fill-rule="evenodd" fill-opacity="1" /><path clip-path="url(#clip580)" d="M1253.28 1550.12 Q1246.18 1550.12 1243.44 1551.75 Q1240.71 1553.37 1240.71 1557.29 Q1240.71 1560.4 1242.74 1562.25 Q1244.81 1564.07 1248.35 1564.07 Q1253.22 1564.07 1256.14 1560.63 Q1259.1 1557.16 1259.1 1551.43 L1259.1 1550.12 L1253.28 1550.12 M1264.96 1547.71 L1264.96 1568.04 L1259.1 1568.04 L1259.1 1562.63 Q1257.1 1565.88 1254.11 1567.44 Q1251.11 1568.97 1246.79 1568.97 Q1241.31 1568.97 1238.06 1565.91 Q1234.85 1562.82 1234.85 1557.67 Q1234.85 1551.65 1238.86 1548.6 Q1242.9 1545.54 1250.89 1545.54 L1259.1 1545.54 L1259.1 1544.97 Q1259.1 1540.93 1256.43 1538.73 Q1253.79 1536.5 1248.98 1536.5 Q1245.93 1536.5 1243.03 1537.23 Q1240.13 1537.97 1237.46 1539.43 L1237.46 1534.02 Q1240.67 1532.78 1243.7 1532.17 Q1246.72 1531.54 1249.59 1531.54 Q1257.32 1531.54 1261.14 1535.55 Q1264.96 1539.56 1264.96 1547.71 Z" fill="#000000" fill-rule="evenodd" fill-opacity="1" /><path clip-path="url(#clip580)" d="M1303.41 1562.7 L1303.41 1581.6 L1297.52 1581.6 L1297.52 1532.4 L1303.41 1532.4 L1303.41 1537.81 Q1305.25 1534.62 1308.06 1533.1 Q1310.89 1531.54 1314.8 1531.54 Q1321.3 1531.54 1325.34 1536.69 Q1329.41 1541.85 1329.41 1550.25 Q1329.41 1558.65 1325.34 1563.81 Q1321.3 1568.97 1314.8 1568.97 Q1310.89 1568.97 1308.06 1567.44 Q1305.25 1565.88 1303.41 1562.7 M1323.33 1550.25 Q1323.33 1543.79 1320.66 1540.13 Q1318.02 1536.44 1313.37 1536.44 Q1308.72 1536.44 1306.05 1540.13 Q1303.41 1543.79 1303.41 1550.25 Q1303.41 1556.71 1306.05 1560.4 Q1308.72 1564.07 1313.37 1564.07 Q1318.02 1564.07 1320.66 1560.4 Q1323.33 1556.71 1323.33 1550.25 Z" fill="#000000" fill-rule="evenodd" fill-opacity="1" /><path clip-path="url(#clip580)" d="M1359.78 1537.87 Q1358.79 1537.3 1357.61 1537.04 Q1356.47 1536.76 1355.07 1536.76 Q1350.1 1536.76 1347.43 1540 Q1344.79 1543.22 1344.79 1549.27 L1344.79 1568.04 L1338.9 1568.04 L1338.9 1532.4 L1344.79 1532.4 L1344.79 1537.93 Q1346.63 1534.69 1349.59 1533.13 Q1352.55 1531.54 1356.79 1531.54 Q1357.39 1531.54 1358.12 1531.63 Q1358.85 1531.7 1359.75 1531.85 L1359.78 1537.87 Z" fill="#000000" fill-rule="evenodd" fill-opacity="1" /><path clip-path="url(#clip580)" d="M1378.3 1536.5 Q1373.59 1536.5 1370.85 1540.19 Q1368.12 1543.85 1368.12 1550.25 Q1368.12 1556.65 1370.82 1560.34 Q1373.56 1564 1378.3 1564 Q1382.98 1564 1385.72 1560.31 Q1388.45 1556.62 1388.45 1550.25 Q1388.45 1543.92 1385.72 1540.23 Q1382.98 1536.5 1378.3 1536.5 M1378.3 1531.54 Q1385.94 1531.54 1390.3 1536.5 Q1394.66 1541.47 1394.66 1550.25 Q1394.66 1559 1390.3 1564 Q1385.94 1568.97 1378.3 1568.97 Q1370.63 1568.97 1366.27 1564 Q1361.94 1559 1361.94 1550.25 Q1361.94 1541.47 1366.27 1536.5 Q1370.63 1531.54 1378.3 1531.54 Z" fill="#000000" fill-rule="evenodd" fill-opacity="1" /><path clip-path="url(#clip580)" d="M1427.83 1537.81 L1427.83 1518.52 L1433.68 1518.52 L1433.68 1568.04 L1427.83 1568.04 L1427.83 1562.7 Q1425.98 1565.88 1423.15 1567.44 Q1420.35 1568.97 1416.4 1568.97 Q1409.94 1568.97 1405.86 1563.81 Q1401.82 1558.65 1401.82 1550.25 Q1401.82 1541.85 1405.86 1536.69 Q1409.94 1531.54 1416.4 1531.54 Q1420.35 1531.54 1423.15 1533.1 Q1425.98 1534.62 1427.83 1537.81 M1407.87 1550.25 Q1407.87 1556.71 1410.51 1560.4 Q1413.19 1564.07 1417.83 1564.07 Q1422.48 1564.07 1425.15 1560.4 Q1427.83 1556.71 1427.83 1550.25 Q1427.83 1543.79 1425.15 1540.13 Q1422.48 1536.44 1417.83 1536.44 Q1413.19 1536.44 1410.51 1540.13 Q1407.87 1543.79 1407.87 1550.25 Z" fill="#000000" fill-rule="evenodd" fill-opacity="1" /><path clip-path="url(#clip580)" d="M1445.14 1553.98 L1445.14 1532.4 L1451 1532.4 L1451 1553.75 Q1451 1558.81 1452.97 1561.36 Q1454.94 1563.87 1458.89 1563.87 Q1463.63 1563.87 1466.37 1560.85 Q1469.14 1557.83 1469.14 1552.61 L1469.14 1532.4 L1475 1532.4 L1475 1568.04 L1469.14 1568.04 L1469.14 1562.57 Q1467.01 1565.82 1464.17 1567.41 Q1461.37 1568.97 1457.65 1568.97 Q1451.51 1568.97 1448.32 1565.15 Q1445.14 1561.33 1445.14 1553.98 M1459.88 1531.54 L1459.88 1531.54 Z" fill="#000000" fill-rule="evenodd" fill-opacity="1" /><path clip-path="url(#clip580)" d="M1512.71 1533.76 L1512.71 1539.24 Q1510.23 1537.87 1507.72 1537.2 Q1505.23 1536.5 1502.69 1536.5 Q1496.99 1536.5 1493.84 1540.13 Q1490.69 1543.73 1490.69 1550.25 Q1490.69 1556.78 1493.84 1560.4 Q1496.99 1564 1502.69 1564 Q1505.23 1564 1507.72 1563.33 Q1510.23 1562.63 1512.71 1561.26 L1512.71 1566.68 Q1510.26 1567.82 1507.62 1568.39 Q1505.01 1568.97 1502.05 1568.97 Q1494 1568.97 1489.26 1563.91 Q1484.51 1558.85 1484.51 1550.25 Q1484.51 1541.53 1489.29 1536.53 Q1494.09 1531.54 1502.43 1531.54 Q1505.14 1531.54 1507.72 1532.11 Q1510.29 1532.65 1512.71 1533.76 Z" fill="#000000" fill-rule="evenodd" fill-opacity="1" /><path clip-path="url(#clip580)" d="M1553.39 1548.76 L1553.39 1551.62 L1526.46 1551.62 Q1526.85 1557.67 1530.09 1560.85 Q1533.37 1564 1539.19 1564 Q1542.57 1564 1545.72 1563.17 Q1548.9 1562.35 1552.02 1560.69 L1552.02 1566.23 Q1548.87 1567.57 1545.56 1568.27 Q1542.25 1568.97 1538.84 1568.97 Q1530.31 1568.97 1525.32 1564 Q1520.35 1559.04 1520.35 1550.57 Q1520.35 1541.82 1525.06 1536.69 Q1529.81 1531.54 1537.83 1531.54 Q1545.02 1531.54 1549.19 1536.18 Q1553.39 1540.8 1553.39 1548.76 M1547.53 1547.04 Q1547.47 1542.23 1544.83 1539.37 Q1542.22 1536.5 1537.89 1536.5 Q1532.99 1536.5 1530.03 1539.27 Q1527.1 1542.04 1526.65 1547.07 L1547.53 1547.04 Z" fill="#000000" fill-rule="evenodd" fill-opacity="1" /><path clip-path="url(#clip580)" d="M1592.63 1546.53 L1592.63 1568.04 L1586.78 1568.04 L1586.78 1546.72 Q1586.78 1541.66 1584.8 1539.14 Q1582.83 1536.63 1578.88 1536.63 Q1574.14 1536.63 1571.41 1539.65 Q1568.67 1542.68 1568.67 1547.9 L1568.67 1568.04 L1562.78 1568.04 L1562.78 1532.4 L1568.67 1532.4 L1568.67 1537.93 Q1570.77 1534.72 1573.6 1533.13 Q1576.47 1531.54 1580.19 1531.54 Q1586.33 1531.54 1589.48 1535.36 Q1592.63 1539.14 1592.63 1546.53 Z" fill="#000000" fill-rule="evenodd" fill-opacity="1" /><path clip-path="url(#clip580)" d="M1610.11 1522.27 L1610.11 1532.4 L1622.17 1532.4 L1622.17 1536.95 L1610.11 1536.95 L1610.11 1556.3 Q1610.11 1560.66 1611.29 1561.9 Q1612.5 1563.14 1616.16 1563.14 L1622.17 1563.14 L1622.17 1568.04 L1616.16 1568.04 Q1609.38 1568.04 1606.8 1565.53 Q1604.22 1562.98 1604.22 1556.3 L1604.22 1536.95 L1599.92 1536.95 L1599.92 1532.4 L1604.22 1532.4 L1604.22 1522.27 L1610.11 1522.27 Z" fill="#000000" fill-rule="evenodd" fill-opacity="1" /><path clip-path="url(#clip580)" d="M1646.07 1550.12 Q1638.98 1550.12 1636.24 1551.75 Q1633.5 1553.37 1633.5 1557.29 Q1633.5 1560.4 1635.54 1562.25 Q1637.61 1564.07 1641.14 1564.07 Q1646.01 1564.07 1648.94 1560.63 Q1651.9 1557.16 1651.9 1551.43 L1651.9 1550.12 L1646.07 1550.12 M1657.76 1547.71 L1657.76 1568.04 L1651.9 1568.04 L1651.9 1562.63 Q1649.89 1565.88 1646.9 1567.44 Q1643.91 1568.97 1639.58 1568.97 Q1634.11 1568.97 1630.86 1565.91 Q1627.65 1562.82 1627.65 1557.67 Q1627.65 1551.65 1631.66 1548.6 Q1635.7 1545.54 1643.69 1545.54 L1651.9 1545.54 L1651.9 1544.97 Q1651.9 1540.93 1649.23 1538.73 Q1646.58 1536.5 1641.78 1536.5 Q1638.72 1536.5 1635.83 1537.23 Q1632.93 1537.97 1630.26 1539.43 L1630.26 1534.02 Q1633.47 1532.78 1636.49 1532.17 Q1639.52 1531.54 1642.38 1531.54 Q1650.12 1531.54 1653.94 1535.55 Q1657.76 1539.56 1657.76 1547.71 Z" fill="#000000" fill-rule="evenodd" fill-opacity="1" /><polyline clip-path="url(#clip582)" style="stroke:#000000; stroke-linecap:butt; stroke-linejoin:round; stroke-width:2; stroke-opacity:0.1; fill:none" points="
  249.542,1388.85 2352.76,1388.85 
  "/>
<polyline clip-path="url(#clip582)" style="stroke:#000000; stroke-linecap:butt; stroke-linejoin:round; stroke-width:2; stroke-opacity:0.1; fill:none" points="
  249.542,1081.7 2352.76,1081.7 
  "/>
<polyline clip-path="url(#clip582)" style="stroke:#000000; stroke-linecap:butt; stroke-linejoin:round; stroke-width:2; stroke-opacity:0.1; fill:none" points="
  249.542,774.555 2352.76,774.555 
  "/>
<polyline clip-path="url(#clip582)" style="stroke:#000000; stroke-linecap:butt; stroke-linejoin:round; stroke-width:2; stroke-opacity:0.1; fill:none" points="
  249.542,467.405 2352.76,467.405 
  "/>
<polyline clip-path="url(#clip582)" style="stroke:#000000; stroke-linecap:butt; stroke-linejoin:round; stroke-width:2; stroke-opacity:0.1; fill:none" points="
  249.542,160.256 2352.76,160.256 
  "/>
<polyline clip-path="url(#clip580)" style="stroke:#000000; stroke-linecap:butt; stroke-linejoin:round; stroke-width:4; stroke-opacity:1; fill:none" points="
  249.542,1423.18 249.542,123.472 
  "/>
<polyline clip-path="url(#clip580)" style="stroke:#000000; stroke-linecap:butt; stroke-linejoin:round; stroke-width:4; stroke-opacity:1; fill:none" points="
  249.542,1388.85 268.44,1388.85 
  "/>
<polyline clip-path="url(#clip580)" style="stroke:#000000; stroke-linecap:butt; stroke-linejoin:round; stroke-width:4; stroke-opacity:1; fill:none" points="
  249.542,1081.7 268.44,1081.7 
  "/>
<polyline clip-path="url(#clip580)" style="stroke:#000000; stroke-linecap:butt; stroke-linejoin:round; stroke-width:4; stroke-opacity:1; fill:none" points="
  249.542,774.555 268.44,774.555 
  "/>
<polyline clip-path="url(#clip580)" style="stroke:#000000; stroke-linecap:butt; stroke-linejoin:round; stroke-width:4; stroke-opacity:1; fill:none" points="
  249.542,467.405 268.44,467.405 
  "/>
<polyline clip-path="url(#clip580)" style="stroke:#000000; stroke-linecap:butt; stroke-linejoin:round; stroke-width:4; stroke-opacity:1; fill:none" points="
  249.542,160.256 268.44,160.256 
  "/>
<path clip-path="url(#clip580)" d="M126.205 1374.65 Q122.593 1374.65 120.765 1378.22 Q118.959 1381.76 118.959 1388.89 Q118.959 1395.99 120.765 1399.56 Q122.593 1403.1 126.205 1403.1 Q129.839 1403.1 131.644 1399.56 Q133.473 1395.99 133.473 1388.89 Q133.473 1381.76 131.644 1378.22 Q129.839 1374.65 126.205 1374.65 M126.205 1370.95 Q132.015 1370.95 135.07 1375.55 Q138.149 1380.14 138.149 1388.89 Q138.149 1397.61 135.07 1402.22 Q132.015 1406.8 126.205 1406.8 Q120.394 1406.8 117.316 1402.22 Q114.26 1397.61 114.26 1388.89 Q114.26 1380.14 117.316 1375.55 Q120.394 1370.95 126.205 1370.95 Z" fill="#000000" fill-rule="evenodd" fill-opacity="1" /><path clip-path="url(#clip580)" d="M146.366 1400.25 L151.251 1400.25 L151.251 1406.13 L146.366 1406.13 L146.366 1400.25 Z" fill="#000000" fill-rule="evenodd" fill-opacity="1" /><path clip-path="url(#clip580)" d="M171.436 1374.65 Q167.825 1374.65 165.996 1378.22 Q164.19 1381.76 164.19 1388.89 Q164.19 1395.99 165.996 1399.56 Q167.825 1403.1 171.436 1403.1 Q175.07 1403.1 176.876 1399.56 Q178.704 1395.99 178.704 1388.89 Q178.704 1381.76 176.876 1378.22 Q175.07 1374.65 171.436 1374.65 M171.436 1370.95 Q177.246 1370.95 180.301 1375.55 Q183.38 1380.14 183.38 1388.89 Q183.38 1397.61 180.301 1402.22 Q177.246 1406.8 171.436 1406.8 Q165.626 1406.8 162.547 1402.22 Q159.491 1397.61 159.491 1388.89 Q159.491 1380.14 162.547 1375.55 Q165.626 1370.95 171.436 1370.95 Z" fill="#000000" fill-rule="evenodd" fill-opacity="1" /><path clip-path="url(#clip580)" d="M201.598 1374.65 Q197.987 1374.65 196.158 1378.22 Q194.352 1381.76 194.352 1388.89 Q194.352 1395.99 196.158 1399.56 Q197.987 1403.1 201.598 1403.1 Q205.232 1403.1 207.037 1399.56 Q208.866 1395.99 208.866 1388.89 Q208.866 1381.76 207.037 1378.22 Q205.232 1374.65 201.598 1374.65 M201.598 1370.95 Q207.408 1370.95 210.463 1375.55 Q213.542 1380.14 213.542 1388.89 Q213.542 1397.61 210.463 1402.22 Q207.408 1406.8 201.598 1406.8 Q195.787 1406.8 192.709 1402.22 Q189.653 1397.61 189.653 1388.89 Q189.653 1380.14 192.709 1375.55 Q195.787 1370.95 201.598 1370.95 Z" fill="#000000" fill-rule="evenodd" fill-opacity="1" /><path clip-path="url(#clip580)" d="M127.2 1067.5 Q123.589 1067.5 121.76 1071.07 Q119.955 1074.61 119.955 1081.74 Q119.955 1088.84 121.76 1092.41 Q123.589 1095.95 127.2 1095.95 Q130.834 1095.95 132.64 1092.41 Q134.468 1088.84 134.468 1081.74 Q134.468 1074.61 132.64 1071.07 Q130.834 1067.5 127.2 1067.5 M127.2 1063.8 Q133.01 1063.8 136.066 1068.41 Q139.144 1072.99 139.144 1081.74 Q139.144 1090.47 136.066 1095.07 Q133.01 1099.66 127.2 1099.66 Q121.39 1099.66 118.311 1095.07 Q115.256 1090.47 115.256 1081.74 Q115.256 1072.99 118.311 1068.41 Q121.39 1063.8 127.2 1063.8 Z" fill="#000000" fill-rule="evenodd" fill-opacity="1" /><path clip-path="url(#clip580)" d="M147.362 1093.1 L152.246 1093.1 L152.246 1098.98 L147.362 1098.98 L147.362 1093.1 Z" fill="#000000" fill-rule="evenodd" fill-opacity="1" /><path clip-path="url(#clip580)" d="M166.459 1095.05 L182.778 1095.05 L182.778 1098.98 L160.834 1098.98 L160.834 1095.05 Q163.496 1092.29 168.079 1087.66 Q172.686 1083.01 173.866 1081.67 Q176.112 1079.15 176.991 1077.41 Q177.894 1075.65 177.894 1073.96 Q177.894 1071.21 175.95 1069.47 Q174.028 1067.73 170.927 1067.73 Q168.727 1067.73 166.274 1068.5 Q163.843 1069.26 161.065 1070.81 L161.065 1066.09 Q163.89 1064.96 166.343 1064.38 Q168.797 1063.8 170.834 1063.8 Q176.204 1063.8 179.399 1066.48 Q182.593 1069.17 182.593 1073.66 Q182.593 1075.79 181.783 1077.71 Q180.996 1079.61 178.889 1082.2 Q178.311 1082.87 175.209 1086.09 Q172.107 1089.28 166.459 1095.05 Z" fill="#000000" fill-rule="evenodd" fill-opacity="1" /><path clip-path="url(#clip580)" d="M192.639 1064.42 L210.996 1064.42 L210.996 1068.36 L196.922 1068.36 L196.922 1076.83 Q197.94 1076.48 198.959 1076.32 Q199.977 1076.14 200.996 1076.14 Q206.783 1076.14 210.162 1079.31 Q213.542 1082.48 213.542 1087.9 Q213.542 1093.47 210.07 1096.58 Q206.598 1099.66 200.278 1099.66 Q198.102 1099.66 195.834 1099.28 Q193.588 1098.91 191.181 1098.17 L191.181 1093.47 Q193.264 1094.61 195.487 1095.16 Q197.709 1095.72 200.186 1095.72 Q204.19 1095.72 206.528 1093.61 Q208.866 1091.51 208.866 1087.9 Q208.866 1084.28 206.528 1082.18 Q204.19 1080.07 200.186 1080.07 Q198.311 1080.07 196.436 1080.49 Q194.584 1080.91 192.639 1081.78 L192.639 1064.42 Z" fill="#000000" fill-rule="evenodd" fill-opacity="1" /><path clip-path="url(#clip580)" d="M126.205 760.353 Q122.593 760.353 120.765 763.918 Q118.959 767.46 118.959 774.589 Q118.959 781.696 120.765 785.261 Q122.593 788.802 126.205 788.802 Q129.839 788.802 131.644 785.261 Q133.473 781.696 133.473 774.589 Q133.473 767.46 131.644 763.918 Q129.839 760.353 126.205 760.353 M126.205 756.65 Q132.015 756.65 135.07 761.256 Q138.149 765.839 138.149 774.589 Q138.149 783.316 135.07 787.923 Q132.015 792.506 126.205 792.506 Q120.394 792.506 117.316 787.923 Q114.26 783.316 114.26 774.589 Q114.26 765.839 117.316 761.256 Q120.394 756.65 126.205 756.65 Z" fill="#000000" fill-rule="evenodd" fill-opacity="1" /><path clip-path="url(#clip580)" d="M146.366 785.955 L151.251 785.955 L151.251 791.835 L146.366 791.835 L146.366 785.955 Z" fill="#000000" fill-rule="evenodd" fill-opacity="1" /><path clip-path="url(#clip580)" d="M161.482 757.275 L179.839 757.275 L179.839 761.21 L165.765 761.21 L165.765 769.682 Q166.783 769.335 167.802 769.173 Q168.82 768.987 169.839 768.987 Q175.626 768.987 179.005 772.159 Q182.385 775.33 182.385 780.747 Q182.385 786.325 178.913 789.427 Q175.44 792.506 169.121 792.506 Q166.945 792.506 164.677 792.136 Q162.431 791.765 160.024 791.024 L160.024 786.325 Q162.107 787.46 164.329 788.015 Q166.552 788.571 169.028 788.571 Q173.033 788.571 175.371 786.464 Q177.709 784.358 177.709 780.747 Q177.709 777.136 175.371 775.029 Q173.033 772.923 169.028 772.923 Q167.153 772.923 165.278 773.339 Q163.427 773.756 161.482 774.636 L161.482 757.275 Z" fill="#000000" fill-rule="evenodd" fill-opacity="1" /><path clip-path="url(#clip580)" d="M201.598 760.353 Q197.987 760.353 196.158 763.918 Q194.352 767.46 194.352 774.589 Q194.352 781.696 196.158 785.261 Q197.987 788.802 201.598 788.802 Q205.232 788.802 207.037 785.261 Q208.866 781.696 208.866 774.589 Q208.866 767.46 207.037 763.918 Q205.232 760.353 201.598 760.353 M201.598 756.65 Q207.408 756.65 210.463 761.256 Q213.542 765.839 213.542 774.589 Q213.542 783.316 210.463 787.923 Q207.408 792.506 201.598 792.506 Q195.787 792.506 192.709 787.923 Q189.653 783.316 189.653 774.589 Q189.653 765.839 192.709 761.256 Q195.787 756.65 201.598 756.65 Z" fill="#000000" fill-rule="evenodd" fill-opacity="1" /><path clip-path="url(#clip580)" d="M127.2 453.204 Q123.589 453.204 121.76 456.769 Q119.955 460.311 119.955 467.44 Q119.955 474.547 121.76 478.111 Q123.589 481.653 127.2 481.653 Q130.834 481.653 132.64 478.111 Q134.468 474.547 134.468 467.44 Q134.468 460.311 132.64 456.769 Q130.834 453.204 127.2 453.204 M127.2 449.5 Q133.01 449.5 136.066 454.107 Q139.144 458.69 139.144 467.44 Q139.144 476.167 136.066 480.773 Q133.01 485.357 127.2 485.357 Q121.39 485.357 118.311 480.773 Q115.256 476.167 115.256 467.44 Q115.256 458.69 118.311 454.107 Q121.39 449.5 127.2 449.5 Z" fill="#000000" fill-rule="evenodd" fill-opacity="1" /><path clip-path="url(#clip580)" d="M147.362 478.806 L152.246 478.806 L152.246 484.685 L147.362 484.685 L147.362 478.806 Z" fill="#000000" fill-rule="evenodd" fill-opacity="1" /><path clip-path="url(#clip580)" d="M161.251 450.125 L183.473 450.125 L183.473 452.116 L170.927 484.685 L166.042 484.685 L177.848 454.061 L161.251 454.061 L161.251 450.125 Z" fill="#000000" fill-rule="evenodd" fill-opacity="1" /><path clip-path="url(#clip580)" d="M192.639 450.125 L210.996 450.125 L210.996 454.061 L196.922 454.061 L196.922 462.533 Q197.94 462.186 198.959 462.024 Q199.977 461.838 200.996 461.838 Q206.783 461.838 210.162 465.01 Q213.542 468.181 213.542 473.598 Q213.542 479.176 210.07 482.278 Q206.598 485.357 200.278 485.357 Q198.102 485.357 195.834 484.986 Q193.588 484.616 191.181 483.875 L191.181 479.176 Q193.264 480.31 195.487 480.866 Q197.709 481.422 200.186 481.422 Q204.19 481.422 206.528 479.315 Q208.866 477.209 208.866 473.598 Q208.866 469.986 206.528 467.88 Q204.19 465.774 200.186 465.774 Q198.311 465.774 196.436 466.19 Q194.584 466.607 192.639 467.486 L192.639 450.125 Z" fill="#000000" fill-rule="evenodd" fill-opacity="1" /><path clip-path="url(#clip580)" d="M117.015 173.601 L124.654 173.601 L124.654 147.236 L116.343 148.902 L116.343 144.643 L124.607 142.976 L129.283 142.976 L129.283 173.601 L136.922 173.601 L136.922 177.536 L117.015 177.536 L117.015 173.601 Z" fill="#000000" fill-rule="evenodd" fill-opacity="1" /><path clip-path="url(#clip580)" d="M146.366 171.657 L151.251 171.657 L151.251 177.536 L146.366 177.536 L146.366 171.657 Z" fill="#000000" fill-rule="evenodd" fill-opacity="1" /><path clip-path="url(#clip580)" d="M171.436 146.055 Q167.825 146.055 165.996 149.62 Q164.19 153.161 164.19 160.291 Q164.19 167.397 165.996 170.962 Q167.825 174.504 171.436 174.504 Q175.07 174.504 176.876 170.962 Q178.704 167.397 178.704 160.291 Q178.704 153.161 176.876 149.62 Q175.07 146.055 171.436 146.055 M171.436 142.351 Q177.246 142.351 180.301 146.958 Q183.38 151.541 183.38 160.291 Q183.38 169.018 180.301 173.624 Q177.246 178.208 171.436 178.208 Q165.626 178.208 162.547 173.624 Q159.491 169.018 159.491 160.291 Q159.491 151.541 162.547 146.958 Q165.626 142.351 171.436 142.351 Z" fill="#000000" fill-rule="evenodd" fill-opacity="1" /><path clip-path="url(#clip580)" d="M201.598 146.055 Q197.987 146.055 196.158 149.62 Q194.352 153.161 194.352 160.291 Q194.352 167.397 196.158 170.962 Q197.987 174.504 201.598 174.504 Q205.232 174.504 207.037 170.962 Q208.866 167.397 208.866 160.291 Q208.866 153.161 207.037 149.62 Q205.232 146.055 201.598 146.055 M201.598 142.351 Q207.408 142.351 210.463 146.958 Q213.542 151.541 213.542 160.291 Q213.542 169.018 210.463 173.624 Q207.408 178.208 201.598 178.208 Q195.787 178.208 192.709 173.624 Q189.653 169.018 189.653 160.291 Q189.653 151.541 192.709 146.958 Q195.787 142.351 201.598 142.351 Z" fill="#000000" fill-rule="evenodd" fill-opacity="1" /><path clip-path="url(#clip580)" d="M16.4842 830.792 L16.4842 803.484 L21.895 803.484 L21.895 824.363 L35.8996 824.363 L35.8996 805.521 L41.3104 805.521 L41.3104 824.363 L64.0042 824.363 L64.0042 830.792 L16.4842 830.792 Z" fill="#000000" fill-rule="evenodd" fill-opacity="1" /><path clip-path="url(#clip580)" d="M14.5426 779.485 Q21.8632 783.75 29.0246 785.819 Q36.186 787.888 43.5384 787.888 Q50.8908 787.888 58.1159 785.819 Q65.3091 783.718 72.5979 779.485 L72.5979 784.577 Q65.1182 789.352 57.8931 791.739 Q50.668 794.094 43.5384 794.094 Q36.4406 794.094 29.2474 791.739 Q22.0542 789.383 14.5426 784.577 L14.5426 779.485 Z" fill="#000000" fill-rule="evenodd" fill-opacity="1" /><path clip-path="url(#clip580)" d="M28.3562 738.49 L45.7028 751.38 L64.0042 737.821 L64.0042 744.728 L49.9996 755.104 L64.0042 765.48 L64.0042 772.387 L45.3526 758.542 L28.3562 771.209 L28.3562 764.303 L41.0558 754.85 L28.3562 745.396 L28.3562 738.49 Z" fill="#000000" fill-rule="evenodd" fill-opacity="1" /><path clip-path="url(#clip580)" d="M14.5426 730.469 L14.5426 725.376 Q22.0542 720.602 29.2474 718.247 Q36.4406 715.86 43.5384 715.86 Q50.668 715.86 57.8931 718.247 Q65.1182 720.602 72.5979 725.376 L72.5979 730.469 Q65.3091 726.236 58.1159 724.167 Q50.8908 722.066 43.5384 722.066 Q36.186 722.066 29.0246 724.167 Q21.8632 726.236 14.5426 730.469 Z" fill="#000000" fill-rule="evenodd" fill-opacity="1" /><path clip-path="url(#clip580)" d="M282.022 18.8205 L282.022 65.8515 L291.907 65.8515 Q304.424 65.8515 310.217 60.1802 Q316.05 54.509 316.05 42.2752 Q316.05 30.1225 310.217 24.4918 Q304.424 18.8205 291.907 18.8205 L282.022 18.8205 M273.84 12.096 L290.651 12.096 Q308.232 12.096 316.455 19.4281 Q324.679 26.7198 324.679 42.2752 Q324.679 57.9117 316.415 65.2439 Q308.151 72.576 290.651 72.576 L273.84 72.576 L273.84 12.096 Z" fill="#000000" fill-rule="evenodd" fill-opacity="1" /><path clip-path="url(#clip580)" d="M356.276 76.7889 Q353.116 84.8907 350.118 87.3618 Q347.121 89.8329 342.097 89.8329 L336.143 89.8329 L336.143 83.5945 L340.518 83.5945 Q343.596 83.5945 345.298 82.1361 Q346.999 80.6778 349.065 75.2496 L350.402 71.8468 L332.051 27.2059 L339.95 27.2059 L354.129 62.6918 L368.307 27.2059 L376.206 27.2059 L356.276 76.7889 Z" fill="#000000" fill-rule="evenodd" fill-opacity="1" /><path clip-path="url(#clip580)" d="M415.419 28.5427 L415.419 35.5912 Q412.259 33.9709 408.856 33.1607 Q405.454 32.3505 401.808 32.3505 Q396.258 32.3505 393.463 34.0519 Q390.708 35.7533 390.708 39.156 Q390.708 41.7486 392.693 43.2475 Q394.678 44.7058 400.673 46.0426 L403.226 46.6097 Q411.165 48.3111 414.487 51.4303 Q417.849 54.509 417.849 60.0587 Q417.849 66.3781 412.826 70.0644 Q407.844 73.7508 399.094 73.7508 Q395.448 73.7508 391.478 73.0216 Q387.549 72.3329 383.174 70.9151 L383.174 63.2184 Q387.305 65.3654 391.316 66.4591 Q395.326 67.5124 399.256 67.5124 Q404.522 67.5124 407.357 65.73 Q410.193 63.9071 410.193 60.6258 Q410.193 57.5877 408.127 55.9673 Q406.102 54.3469 399.175 52.8481 L396.582 52.2405 Q389.655 50.7821 386.576 47.7845 Q383.498 44.7463 383.498 39.4801 Q383.498 33.0797 388.035 29.5959 Q392.572 26.1121 400.917 26.1121 Q405.048 26.1121 408.694 26.7198 Q412.34 27.3274 415.419 28.5427 Z" fill="#000000" fill-rule="evenodd" fill-opacity="1" /><path clip-path="url(#clip580)" d="M437.091 14.324 L437.091 27.2059 L452.444 27.2059 L452.444 32.9987 L437.091 32.9987 L437.091 57.6282 Q437.091 63.1779 438.59 64.7578 Q440.129 66.3376 444.788 66.3376 L452.444 66.3376 L452.444 72.576 L444.788 72.576 Q436.159 72.576 432.878 69.3758 Q429.597 66.1351 429.597 57.6282 L429.597 32.9987 L424.128 32.9987 L424.128 27.2059 L429.597 27.2059 L429.597 14.324 L437.091 14.324 Z" fill="#000000" fill-rule="evenodd" fill-opacity="1" /><path clip-path="url(#clip580)" d="M488.538 34.1734 Q487.282 33.4443 485.783 33.1202 Q484.325 32.7556 482.542 32.7556 Q476.223 32.7556 472.82 36.8875 Q469.458 40.9789 469.458 48.6757 L469.458 72.576 L461.964 72.576 L461.964 27.2059 L469.458 27.2059 L469.458 34.2544 Q471.807 30.1225 475.575 28.1376 Q479.342 26.1121 484.73 26.1121 Q485.499 26.1121 486.431 26.2337 Q487.363 26.3147 488.497 26.5172 L488.538 34.1734 Z" fill="#000000" fill-rule="evenodd" fill-opacity="1" /><path clip-path="url(#clip580)" d="M515.233 76.7889 Q512.073 84.8907 509.076 87.3618 Q506.078 89.8329 501.055 89.8329 L495.1 89.8329 L495.1 83.5945 L499.475 83.5945 Q502.554 83.5945 504.255 82.1361 Q505.956 80.6778 508.022 75.2496 L509.359 71.8468 L491.009 27.2059 L498.908 27.2059 L513.086 62.6918 L527.264 27.2059 L535.163 27.2059 L515.233 76.7889 Z" fill="#000000" fill-rule="evenodd" fill-opacity="1" /><path clip-path="url(#clip580)" d="M578.022 49.9314 Q578.022 41.7081 574.619 37.0496 Q571.257 32.3505 565.343 32.3505 Q559.428 32.3505 556.026 37.0496 Q552.663 41.7081 552.663 49.9314 Q552.663 58.1548 556.026 62.8538 Q559.428 67.5124 565.343 67.5124 Q571.257 67.5124 574.619 62.8538 Q578.022 58.1548 578.022 49.9314 M552.663 34.0924 Q555.013 30.0415 558.578 28.0971 Q562.183 26.1121 567.166 26.1121 Q575.429 26.1121 580.574 32.6746 Q585.759 39.2371 585.759 49.9314 Q585.759 60.6258 580.574 67.1883 Q575.429 73.7508 567.166 73.7508 Q562.183 73.7508 558.578 71.8063 Q555.013 69.8214 552.663 65.7705 L552.663 72.576 L545.169 72.576 L545.169 9.54393 L552.663 9.54393 L552.663 34.0924 Z" fill="#000000" fill-rule="evenodd" fill-opacity="1" /><path clip-path="url(#clip580)" d="M597.345 54.671 L597.345 27.2059 L604.799 27.2059 L604.799 54.3874 Q604.799 60.8284 607.31 64.0691 Q609.822 67.2693 614.845 67.2693 Q620.881 67.2693 624.364 63.421 Q627.889 59.5726 627.889 52.9291 L627.889 27.2059 L635.342 27.2059 L635.342 72.576 L627.889 72.576 L627.889 65.6084 Q625.175 69.7404 621.569 71.7658 Q618.004 73.7508 613.265 73.7508 Q605.447 73.7508 601.396 68.8897 Q597.345 64.0286 597.345 54.671 M616.101 26.1121 L616.101 26.1121 Z" fill="#000000" fill-rule="evenodd" fill-opacity="1" /><path clip-path="url(#clip580)" d="M671.314 49.7694 Q662.281 49.7694 658.797 51.8354 Q655.313 53.9013 655.313 58.8839 Q655.313 62.8538 657.906 65.2034 Q660.539 67.5124 665.035 67.5124 Q671.233 67.5124 674.96 63.1374 Q678.728 58.7219 678.728 51.4303 L678.728 49.7694 L671.314 49.7694 M686.181 46.6907 L686.181 72.576 L678.728 72.576 L678.728 65.6895 Q676.175 69.8214 672.368 71.8063 Q668.56 73.7508 663.051 73.7508 Q656.083 73.7508 651.951 69.8619 Q647.86 65.9325 647.86 59.3701 Q647.86 51.7138 652.964 47.825 Q658.108 43.9361 668.276 43.9361 L678.728 43.9361 L678.728 43.2069 Q678.728 38.0623 675.325 35.2672 Q671.963 32.4315 665.846 32.4315 Q661.957 32.4315 658.27 33.3632 Q654.584 34.295 651.181 36.1584 L651.181 29.2718 Q655.273 27.692 659.121 26.9223 Q662.97 26.1121 666.615 26.1121 Q676.459 26.1121 681.32 31.2163 Q686.181 36.3204 686.181 46.6907 Z" fill="#000000" fill-rule="evenodd" fill-opacity="1" /><path clip-path="url(#clip580)" d="M739.248 45.1919 L739.248 72.576 L731.794 72.576 L731.794 45.4349 Q731.794 38.994 729.283 35.7938 Q726.771 32.5936 721.748 32.5936 Q715.712 32.5936 712.229 36.4419 Q708.745 40.2903 708.745 46.9338 L708.745 72.576 L701.251 72.576 L701.251 27.2059 L708.745 27.2059 L708.745 34.2544 Q711.418 30.163 715.024 28.1376 Q718.669 26.1121 723.409 26.1121 Q731.227 26.1121 735.238 30.9732 Q739.248 35.7938 739.248 45.1919 Z" fill="#000000" fill-rule="evenodd" fill-opacity="1" /><path clip-path="url(#clip580)" d="M761.488 14.324 L761.488 27.2059 L776.84 27.2059 L776.84 32.9987 L761.488 32.9987 L761.488 57.6282 Q761.488 63.1779 762.986 64.7578 Q764.526 66.3376 769.184 66.3376 L776.84 66.3376 L776.84 72.576 L769.184 72.576 Q760.556 72.576 757.275 69.3758 Q753.993 66.1351 753.993 57.6282 L753.993 32.9987 L748.525 32.9987 L748.525 27.2059 L753.993 27.2059 L753.993 14.324 L761.488 14.324 Z" fill="#000000" fill-rule="evenodd" fill-opacity="1" /><path clip-path="url(#clip580)" d="M807.263 49.7694 Q798.229 49.7694 794.745 51.8354 Q791.262 53.9013 791.262 58.8839 Q791.262 62.8538 793.854 65.2034 Q796.487 67.5124 800.984 67.5124 Q807.182 67.5124 810.909 63.1374 Q814.676 58.7219 814.676 51.4303 L814.676 49.7694 L807.263 49.7694 M822.13 46.6907 L822.13 72.576 L814.676 72.576 L814.676 65.6895 Q812.124 69.8214 808.316 71.8063 Q804.508 73.7508 798.999 73.7508 Q792.031 73.7508 787.899 69.8619 Q783.808 65.9325 783.808 59.3701 Q783.808 51.7138 788.912 47.825 Q794.057 43.9361 804.225 43.9361 L814.676 43.9361 L814.676 43.2069 Q814.676 38.0623 811.273 35.2672 Q807.911 32.4315 801.794 32.4315 Q797.905 32.4315 794.219 33.3632 Q790.532 34.295 787.13 36.1584 L787.13 29.2718 Q791.221 27.692 795.07 26.9223 Q798.918 26.1121 802.564 26.1121 Q812.407 26.1121 817.268 31.2163 Q822.13 36.3204 822.13 46.6907 Z" fill="#000000" fill-rule="evenodd" fill-opacity="1" /><path clip-path="url(#clip580)" d="M902.662 48.0275 L902.662 51.6733 L868.391 51.6733 Q868.877 59.3701 873.009 63.421 Q877.181 67.4314 884.594 67.4314 Q888.888 67.4314 892.899 66.3781 Q896.95 65.3249 900.92 63.2184 L900.92 70.267 Q896.909 71.9684 892.696 72.8596 Q888.483 73.7508 884.149 73.7508 Q873.292 73.7508 866.933 67.4314 Q860.613 61.1119 860.613 50.3365 Q860.613 39.1965 866.608 32.6746 Q872.644 26.1121 882.853 26.1121 Q892.008 26.1121 897.314 32.0264 Q902.662 37.9003 902.662 48.0275 M895.208 45.84 Q895.127 39.7232 891.765 36.0774 Q888.443 32.4315 882.934 32.4315 Q876.695 32.4315 872.928 35.9558 Q869.201 39.4801 868.634 45.8805 L895.208 45.84 Z" fill="#000000" fill-rule="evenodd" fill-opacity="1" /><path clip-path="url(#clip580)" d="M950.219 35.9153 Q953.014 30.8922 956.903 28.5022 Q960.792 26.1121 966.058 26.1121 Q973.147 26.1121 976.996 31.0947 Q980.844 36.0368 980.844 45.1919 L980.844 72.576 L973.35 72.576 L973.35 45.4349 Q973.35 38.913 971.041 35.7533 Q968.732 32.5936 963.992 32.5936 Q958.199 32.5936 954.837 36.4419 Q951.475 40.2903 951.475 46.9338 L951.475 72.576 L943.981 72.576 L943.981 45.4349 Q943.981 38.8725 941.672 35.7533 Q939.363 32.5936 934.542 32.5936 Q928.83 32.5936 925.468 36.4824 Q922.106 40.3308 922.106 46.9338 L922.106 72.576 L914.612 72.576 L914.612 27.2059 L922.106 27.2059 L922.106 34.2544 Q924.658 30.082 928.223 28.0971 Q931.788 26.1121 936.689 26.1121 Q941.631 26.1121 945.074 28.6237 Q948.558 31.1352 950.219 35.9153 Z" fill="#000000" fill-rule="evenodd" fill-opacity="1" /><path clip-path="url(#clip580)" d="M1002.92 65.7705 L1002.92 89.8329 L995.427 89.8329 L995.427 27.2059 L1002.92 27.2059 L1002.92 34.0924 Q1005.27 30.0415 1008.84 28.0971 Q1012.44 26.1121 1017.42 26.1121 Q1025.69 26.1121 1030.83 32.6746 Q1036.02 39.2371 1036.02 49.9314 Q1036.02 60.6258 1030.83 67.1883 Q1025.69 73.7508 1017.42 73.7508 Q1012.44 73.7508 1008.84 71.8063 Q1005.27 69.8214 1002.92 65.7705 M1028.28 49.9314 Q1028.28 41.7081 1024.88 37.0496 Q1021.52 32.3505 1015.6 32.3505 Q1009.69 32.3505 1006.28 37.0496 Q1002.92 41.7081 1002.92 49.9314 Q1002.92 58.1548 1006.28 62.8538 Q1009.69 67.5124 1015.6 67.5124 Q1021.52 67.5124 1024.88 62.8538 Q1028.28 58.1548 1028.28 49.9314 Z" fill="#000000" fill-rule="evenodd" fill-opacity="1" /><path clip-path="url(#clip580)" d="M1048.37 27.2059 L1055.83 27.2059 L1055.83 72.576 L1048.37 72.576 L1048.37 27.2059 M1048.37 9.54393 L1055.83 9.54393 L1055.83 18.9825 L1048.37 18.9825 L1048.37 9.54393 Z" fill="#000000" fill-rule="evenodd" fill-opacity="1" /><path clip-path="url(#clip580)" d="M1097.71 34.1734 Q1096.46 33.4443 1094.96 33.1202 Q1093.5 32.7556 1091.72 32.7556 Q1085.4 32.7556 1082 36.8875 Q1078.63 40.9789 1078.63 48.6757 L1078.63 72.576 L1071.14 72.576 L1071.14 27.2059 L1078.63 27.2059 L1078.63 34.2544 Q1080.98 30.1225 1084.75 28.1376 Q1088.52 26.1121 1093.9 26.1121 Q1094.67 26.1121 1095.61 26.2337 Q1096.54 26.3147 1097.67 26.5172 L1097.71 34.1734 Z" fill="#000000" fill-rule="evenodd" fill-opacity="1" /><path clip-path="url(#clip580)" d="M1124.41 76.7889 Q1121.25 84.8907 1118.25 87.3618 Q1115.25 89.8329 1110.23 89.8329 L1104.28 89.8329 L1104.28 83.5945 L1108.65 83.5945 Q1111.73 83.5945 1113.43 82.1361 Q1115.13 80.6778 1117.2 75.2496 L1118.53 71.8468 L1100.18 27.2059 L1108.08 27.2059 L1122.26 62.6918 L1136.44 27.2059 L1144.34 27.2059 L1124.41 76.7889 Z" fill="#000000" fill-rule="evenodd" fill-opacity="1" /><path clip-path="url(#clip580)" d="M1187.28 28.9478 L1187.28 35.9153 Q1184.12 34.1734 1180.92 33.3227 Q1177.76 32.4315 1174.52 32.4315 Q1167.27 32.4315 1163.26 37.0496 Q1159.25 41.6271 1159.25 49.9314 Q1159.25 58.2358 1163.26 62.8538 Q1167.27 67.4314 1174.52 67.4314 Q1177.76 67.4314 1180.92 66.5807 Q1184.12 65.6895 1187.28 63.9476 L1187.28 70.8341 Q1184.16 72.2924 1180.8 73.0216 Q1177.47 73.7508 1173.71 73.7508 Q1163.46 73.7508 1157.42 67.3098 Q1151.39 60.8689 1151.39 49.9314 Q1151.39 38.832 1157.46 32.472 Q1163.58 26.1121 1174.19 26.1121 Q1177.64 26.1121 1180.92 26.8413 Q1184.2 27.5299 1187.28 28.9478 Z" fill="#000000" fill-rule="evenodd" fill-opacity="1" /><path clip-path="url(#clip580)" d="M1197 27.2059 L1232.41 27.2059 L1232.41 34.0114 L1204.37 66.6212 L1232.41 66.6212 L1232.41 72.576 L1195.99 72.576 L1195.99 65.7705 L1224.02 33.1607 L1197 33.1607 L1197 27.2059 Z" fill="#000000" fill-rule="evenodd" fill-opacity="1" /><path clip-path="url(#clip580)" d="M1281.5 45.1919 L1281.5 72.576 L1274.05 72.576 L1274.05 45.4349 Q1274.05 38.994 1271.54 35.7938 Q1269.03 32.5936 1264 32.5936 Q1257.97 32.5936 1254.48 36.4419 Q1251 40.2903 1251 46.9338 L1251 72.576 L1243.5 72.576 L1243.5 27.2059 L1251 27.2059 L1251 34.2544 Q1253.67 30.163 1257.28 28.1376 Q1260.92 26.1121 1265.66 26.1121 Q1273.48 26.1121 1277.49 30.9732 Q1281.5 35.7938 1281.5 45.1919 Z" fill="#000000" fill-rule="evenodd" fill-opacity="1" /><path clip-path="url(#clip580)" d="M1316.99 49.7694 Q1307.95 49.7694 1304.47 51.8354 Q1300.99 53.9013 1300.99 58.8839 Q1300.99 62.8538 1303.58 65.2034 Q1306.21 67.5124 1310.71 67.5124 Q1316.91 67.5124 1320.63 63.1374 Q1324.4 58.7219 1324.4 51.4303 L1324.4 49.7694 L1316.99 49.7694 M1331.85 46.6907 L1331.85 72.576 L1324.4 72.576 L1324.4 65.6895 Q1321.85 69.8214 1318.04 71.8063 Q1314.23 73.7508 1308.72 73.7508 Q1301.76 73.7508 1297.62 69.8619 Q1293.53 65.9325 1293.53 59.3701 Q1293.53 51.7138 1298.64 47.825 Q1303.78 43.9361 1313.95 43.9361 L1324.4 43.9361 L1324.4 43.2069 Q1324.4 38.0623 1321 35.2672 Q1317.64 32.4315 1311.52 32.4315 Q1307.63 32.4315 1303.94 33.3632 Q1300.26 34.295 1296.86 36.1584 L1296.86 29.2718 Q1300.95 27.692 1304.79 26.9223 Q1308.64 26.1121 1312.29 26.1121 Q1322.13 26.1121 1326.99 31.2163 Q1331.85 36.3204 1331.85 46.6907 Z" fill="#000000" fill-rule="evenodd" fill-opacity="1" /><path clip-path="url(#clip580)" d="M1369.81 46.5287 L1391.65 46.5287 L1391.65 53.1722 L1369.81 53.1722 L1369.81 46.5287 Z" fill="#000000" fill-rule="evenodd" fill-opacity="1" /><path clip-path="url(#clip580)" d="M1467.6 45.1919 L1467.6 72.576 L1460.15 72.576 L1460.15 45.4349 Q1460.15 38.994 1457.64 35.7938 Q1455.12 32.5936 1450.1 32.5936 Q1444.06 32.5936 1440.58 36.4419 Q1437.1 40.2903 1437.1 46.9338 L1437.1 72.576 L1429.6 72.576 L1429.6 27.2059 L1437.1 27.2059 L1437.1 34.2544 Q1439.77 30.163 1443.38 28.1376 Q1447.02 26.1121 1451.76 26.1121 Q1459.58 26.1121 1463.59 30.9732 Q1467.6 35.7938 1467.6 45.1919 Z" fill="#000000" fill-rule="evenodd" fill-opacity="1" /><path clip-path="url(#clip580)" d="M1503.09 49.7694 Q1494.05 49.7694 1490.57 51.8354 Q1487.09 53.9013 1487.09 58.8839 Q1487.09 62.8538 1489.68 65.2034 Q1492.31 67.5124 1496.81 67.5124 Q1503.01 67.5124 1506.73 63.1374 Q1510.5 58.7219 1510.5 51.4303 L1510.5 49.7694 L1503.09 49.7694 M1517.95 46.6907 L1517.95 72.576 L1510.5 72.576 L1510.5 65.6895 Q1507.95 69.8214 1504.14 71.8063 Q1500.33 73.7508 1494.82 73.7508 Q1487.86 73.7508 1483.72 69.8619 Q1479.63 65.9325 1479.63 59.3701 Q1479.63 51.7138 1484.74 47.825 Q1489.88 43.9361 1500.05 43.9361 L1510.5 43.9361 L1510.5 43.2069 Q1510.5 38.0623 1507.1 35.2672 Q1503.73 32.4315 1497.62 32.4315 Q1493.73 32.4315 1490.04 33.3632 Q1486.36 34.295 1482.95 36.1584 L1482.95 29.2718 Q1487.04 27.692 1490.89 26.9223 Q1494.74 26.1121 1498.39 26.1121 Q1508.23 26.1121 1513.09 31.2163 Q1517.95 36.3204 1517.95 46.6907 Z" fill="#000000" fill-rule="evenodd" fill-opacity="1" /><path clip-path="url(#clip580)" d="M1563.16 34.0924 L1563.16 9.54393 L1570.62 9.54393 L1570.62 72.576 L1563.16 72.576 L1563.16 65.7705 Q1560.81 69.8214 1557.21 71.8063 Q1553.64 73.7508 1548.62 73.7508 Q1540.4 73.7508 1535.21 67.1883 Q1530.07 60.6258 1530.07 49.9314 Q1530.07 39.2371 1535.21 32.6746 Q1540.4 26.1121 1548.62 26.1121 Q1553.64 26.1121 1557.21 28.0971 Q1560.81 30.0415 1563.16 34.0924 M1537.76 49.9314 Q1537.76 58.1548 1541.12 62.8538 Q1544.53 67.5124 1550.44 67.5124 Q1556.36 67.5124 1559.76 62.8538 Q1563.16 58.1548 1563.16 49.9314 Q1563.16 41.7081 1559.76 37.0496 Q1556.36 32.3505 1550.44 32.3505 Q1544.53 32.3505 1541.12 37.0496 Q1537.76 41.7081 1537.76 49.9314 Z" fill="#000000" fill-rule="evenodd" fill-opacity="1" /><path clip-path="url(#clip580)" d="M1581.63 27.2059 L1589.09 27.2059 L1598.4 62.6108 L1607.68 27.2059 L1616.47 27.2059 L1625.79 62.6108 L1635.07 27.2059 L1642.52 27.2059 L1630.65 72.576 L1621.86 72.576 L1612.1 35.3887 L1602.29 72.576 L1593.5 72.576 L1581.63 27.2059 Z" fill="#000000" fill-rule="evenodd" fill-opacity="1" /><path clip-path="url(#clip580)" d="M1672.7 76.7889 Q1669.54 84.8907 1666.54 87.3618 Q1663.54 89.8329 1658.52 89.8329 L1652.56 89.8329 L1652.56 83.5945 L1656.94 83.5945 Q1660.02 83.5945 1661.72 82.1361 Q1663.42 80.6778 1665.49 75.2496 L1666.82 71.8468 L1648.47 27.2059 L1656.37 27.2059 L1670.55 62.6918 L1684.73 27.2059 L1692.63 27.2059 L1672.7 76.7889 Z" fill="#000000" fill-rule="evenodd" fill-opacity="1" /><path clip-path="url(#clip580)" d="M1712.96 9.54393 L1720.42 9.54393 L1720.42 18.9825 L1712.96 18.9825 L1712.96 9.54393 M1716.77 26.1121 L1716.77 26.1121 M1699.68 27.2059 L1735.08 27.2059 L1735.08 34.0114 L1707.05 66.6212 L1735.08 66.6212 L1735.08 72.576 L1698.66 72.576 L1698.66 65.7705 L1726.7 33.1607 L1699.68 33.1607 L1699.68 27.2059 Z" fill="#000000" fill-rule="evenodd" fill-opacity="1" /><path clip-path="url(#clip580)" d="M1746.18 9.54393 L1753.68 9.54393 L1753.68 46.7717 L1775.91 27.2059 L1785.43 27.2059 L1761.37 48.4326 L1786.45 72.576 L1776.73 72.576 L1753.68 50.4176 L1753.68 72.576 L1746.18 72.576 L1746.18 9.54393 Z" fill="#000000" fill-rule="evenodd" fill-opacity="1" /><path clip-path="url(#clip580)" d="M1813.67 49.7694 Q1804.64 49.7694 1801.15 51.8354 Q1797.67 53.9013 1797.67 58.8839 Q1797.67 62.8538 1800.26 65.2034 Q1802.89 67.5124 1807.39 67.5124 Q1813.59 67.5124 1817.32 63.1374 Q1821.08 58.7219 1821.08 51.4303 L1821.08 49.7694 L1813.67 49.7694 M1828.54 46.6907 L1828.54 72.576 L1821.08 72.576 L1821.08 65.6895 Q1818.53 69.8214 1814.72 71.8063 Q1810.91 73.7508 1805.41 73.7508 Q1798.44 73.7508 1794.31 69.8619 Q1790.21 65.9325 1790.21 59.3701 Q1790.21 51.7138 1795.32 47.825 Q1800.46 43.9361 1810.63 43.9361 L1821.08 43.9361 L1821.08 43.2069 Q1821.08 38.0623 1817.68 35.2672 Q1814.32 32.4315 1808.2 32.4315 Q1804.31 32.4315 1800.63 33.3632 Q1796.94 34.295 1793.54 36.1584 L1793.54 29.2718 Q1797.63 27.692 1801.48 26.9223 Q1805.32 26.1121 1808.97 26.1121 Q1818.81 26.1121 1823.68 31.2163 Q1828.54 36.3204 1828.54 46.6907 Z" fill="#000000" fill-rule="evenodd" fill-opacity="1" /><path clip-path="url(#clip580)" d="M1877.47 65.7705 L1877.47 89.8329 L1869.98 89.8329 L1869.98 27.2059 L1877.47 27.2059 L1877.47 34.0924 Q1879.82 30.0415 1883.39 28.0971 Q1886.99 26.1121 1891.97 26.1121 Q1900.24 26.1121 1905.38 32.6746 Q1910.57 39.2371 1910.57 49.9314 Q1910.57 60.6258 1905.38 67.1883 Q1900.24 73.7508 1891.97 73.7508 Q1886.99 73.7508 1883.39 71.8063 Q1879.82 69.8214 1877.47 65.7705 M1902.83 49.9314 Q1902.83 41.7081 1899.43 37.0496 Q1896.06 32.3505 1890.15 32.3505 Q1884.24 32.3505 1880.83 37.0496 Q1877.47 41.7081 1877.47 49.9314 Q1877.47 58.1548 1880.83 62.8538 Q1884.24 67.5124 1890.15 67.5124 Q1896.06 67.5124 1899.43 62.8538 Q1902.83 58.1548 1902.83 49.9314 Z" fill="#000000" fill-rule="evenodd" fill-opacity="1" /><path clip-path="url(#clip580)" d="M1949.21 34.1734 Q1947.96 33.4443 1946.46 33.1202 Q1945 32.7556 1943.22 32.7556 Q1936.9 32.7556 1933.5 36.8875 Q1930.13 40.9789 1930.13 48.6757 L1930.13 72.576 L1922.64 72.576 L1922.64 27.2059 L1930.13 27.2059 L1930.13 34.2544 Q1932.48 30.1225 1936.25 28.1376 Q1940.02 26.1121 1945.4 26.1121 Q1946.17 26.1121 1947.11 26.2337 Q1948.04 26.3147 1949.17 26.5172 L1949.21 34.1734 Z" fill="#000000" fill-rule="evenodd" fill-opacity="1" /><path clip-path="url(#clip580)" d="M1972.79 32.4315 Q1966.79 32.4315 1963.31 37.1306 Q1959.83 41.7891 1959.83 49.9314 Q1959.83 58.0738 1963.27 62.7728 Q1966.75 67.4314 1972.79 67.4314 Q1978.74 67.4314 1982.23 62.7323 Q1985.71 58.0333 1985.71 49.9314 Q1985.71 41.8701 1982.23 37.1711 Q1978.74 32.4315 1972.79 32.4315 M1972.79 26.1121 Q1982.51 26.1121 1988.06 32.4315 Q1993.61 38.7509 1993.61 49.9314 Q1993.61 61.0714 1988.06 67.4314 Q1982.51 73.7508 1972.79 73.7508 Q1963.03 73.7508 1957.48 67.4314 Q1951.97 61.0714 1951.97 49.9314 Q1951.97 38.7509 1957.48 32.4315 Q1963.03 26.1121 1972.79 26.1121 Z" fill="#000000" fill-rule="evenodd" fill-opacity="1" /><path clip-path="url(#clip580)" d="M2035.82 34.0924 L2035.82 9.54393 L2043.27 9.54393 L2043.27 72.576 L2035.82 72.576 L2035.82 65.7705 Q2033.47 69.8214 2029.87 71.8063 Q2026.3 73.7508 2021.28 73.7508 Q2013.05 73.7508 2007.87 67.1883 Q2002.73 60.6258 2002.73 49.9314 Q2002.73 39.2371 2007.87 32.6746 Q2013.05 26.1121 2021.28 26.1121 Q2026.3 26.1121 2029.87 28.0971 Q2033.47 30.0415 2035.82 34.0924 M2010.42 49.9314 Q2010.42 58.1548 2013.78 62.8538 Q2017.19 67.5124 2023.1 67.5124 Q2029.02 67.5124 2032.42 62.8538 Q2035.82 58.1548 2035.82 49.9314 Q2035.82 41.7081 2032.42 37.0496 Q2029.02 32.3505 2023.1 32.3505 Q2017.19 32.3505 2013.78 37.0496 Q2010.42 41.7081 2010.42 49.9314 Z" fill="#000000" fill-rule="evenodd" fill-opacity="1" /><path clip-path="url(#clip580)" d="M2057.86 54.671 L2057.86 27.2059 L2065.31 27.2059 L2065.31 54.3874 Q2065.31 60.8284 2067.82 64.0691 Q2070.33 67.2693 2075.36 67.2693 Q2081.39 67.2693 2084.88 63.421 Q2088.4 59.5726 2088.4 52.9291 L2088.4 27.2059 L2095.86 27.2059 L2095.86 72.576 L2088.4 72.576 L2088.4 65.6084 Q2085.69 69.7404 2082.08 71.7658 Q2078.52 73.7508 2073.78 73.7508 Q2065.96 73.7508 2061.91 68.8897 Q2057.86 64.0286 2057.86 54.671 M2076.61 26.1121 L2076.61 26.1121 Z" fill="#000000" fill-rule="evenodd" fill-opacity="1" /><path clip-path="url(#clip580)" d="M2143.86 28.9478 L2143.86 35.9153 Q2140.7 34.1734 2137.5 33.3227 Q2134.34 32.4315 2131.1 32.4315 Q2123.85 32.4315 2119.84 37.0496 Q2115.83 41.6271 2115.83 49.9314 Q2115.83 58.2358 2119.84 62.8538 Q2123.85 67.4314 2131.1 67.4314 Q2134.34 67.4314 2137.5 66.5807 Q2140.7 65.6895 2143.86 63.9476 L2143.86 70.8341 Q2140.74 72.2924 2137.38 73.0216 Q2134.06 73.7508 2130.29 73.7508 Q2120.04 73.7508 2114 67.3098 Q2107.97 60.8689 2107.97 49.9314 Q2107.97 38.832 2114.04 32.472 Q2120.16 26.1121 2130.77 26.1121 Q2134.22 26.1121 2137.5 26.8413 Q2140.78 27.5299 2143.86 28.9478 Z" fill="#000000" fill-rule="evenodd" fill-opacity="1" /><path clip-path="url(#clip580)" d="M2195.63 48.0275 L2195.63 51.6733 L2161.36 51.6733 Q2161.84 59.3701 2165.98 63.421 Q2170.15 67.4314 2177.56 67.4314 Q2181.86 67.4314 2185.87 66.3781 Q2189.92 65.3249 2193.89 63.2184 L2193.89 70.267 Q2189.88 71.9684 2185.66 72.8596 Q2181.45 73.7508 2177.12 73.7508 Q2166.26 73.7508 2159.9 67.4314 Q2153.58 61.1119 2153.58 50.3365 Q2153.58 39.1965 2159.58 32.6746 Q2165.61 26.1121 2175.82 26.1121 Q2184.98 26.1121 2190.28 32.0264 Q2195.63 37.9003 2195.63 48.0275 M2188.18 45.84 Q2188.09 39.7232 2184.73 36.0774 Q2181.41 32.4315 2175.9 32.4315 Q2169.66 32.4315 2165.9 35.9558 Q2162.17 39.4801 2161.6 45.8805 L2188.18 45.84 Z" fill="#000000" fill-rule="evenodd" fill-opacity="1" /><path clip-path="url(#clip580)" d="M2245.58 45.1919 L2245.58 72.576 L2238.12 72.576 L2238.12 45.4349 Q2238.12 38.994 2235.61 35.7938 Q2233.1 32.5936 2228.08 32.5936 Q2222.04 32.5936 2218.56 36.4419 Q2215.07 40.2903 2215.07 46.9338 L2215.07 72.576 L2207.58 72.576 L2207.58 27.2059 L2215.07 27.2059 L2215.07 34.2544 Q2217.75 30.163 2221.35 28.1376 Q2225 26.1121 2229.74 26.1121 Q2237.56 26.1121 2241.57 30.9732 Q2245.58 35.7938 2245.58 45.1919 Z" fill="#000000" fill-rule="evenodd" fill-opacity="1" /><path clip-path="url(#clip580)" d="M2267.82 14.324 L2267.82 27.2059 L2283.17 27.2059 L2283.17 32.9987 L2267.82 32.9987 L2267.82 57.6282 Q2267.82 63.1779 2269.32 64.7578 Q2270.85 66.3376 2275.51 66.3376 L2283.17 66.3376 L2283.17 72.576 L2275.51 72.576 Q2266.88 72.576 2263.6 69.3758 Q2260.32 66.1351 2260.32 57.6282 L2260.32 32.9987 L2254.85 32.9987 L2254.85 27.2059 L2260.32 27.2059 L2260.32 14.324 L2267.82 14.324 Z" fill="#000000" fill-rule="evenodd" fill-opacity="1" /><path clip-path="url(#clip580)" d="M2313.59 49.7694 Q2304.56 49.7694 2301.07 51.8354 Q2297.59 53.9013 2297.59 58.8839 Q2297.59 62.8538 2300.18 65.2034 Q2302.82 67.5124 2307.31 67.5124 Q2313.51 67.5124 2317.24 63.1374 Q2321 58.7219 2321 51.4303 L2321 49.7694 L2313.59 49.7694 M2328.46 46.6907 L2328.46 72.576 L2321 72.576 L2321 65.6895 Q2318.45 69.8214 2314.64 71.8063 Q2310.84 73.7508 2305.33 73.7508 Q2298.36 73.7508 2294.23 69.8619 Q2290.14 65.9325 2290.14 59.3701 Q2290.14 51.7138 2295.24 47.825 Q2300.39 43.9361 2310.55 43.9361 L2321 43.9361 L2321 43.2069 Q2321 38.0623 2317.6 35.2672 Q2314.24 32.4315 2308.12 32.4315 Q2304.23 32.4315 2300.55 33.3632 Q2296.86 34.295 2293.46 36.1584 L2293.46 29.2718 Q2297.55 27.692 2301.4 26.9223 Q2305.25 26.1121 2308.89 26.1121 Q2318.74 26.1121 2323.6 31.2163 Q2328.46 36.3204 2328.46 46.6907 Z" fill="#000000" fill-rule="evenodd" fill-opacity="1" /><polyline clip-path="url(#clip582)" style="stroke:#009af9; stroke-linecap:butt; stroke-linejoin:round; stroke-width:4; stroke-opacity:1; fill:none" points="
  315.315,1386.4 361.214,1383.94 364.79,1381.48 389.165,1379.02 391.397,1376.57 398.983,1374.11 402.708,1371.65 424.671,1369.2 426.465,1366.74 426.956,1364.28 
  438.165,1361.82 445.07,1359.37 461.344,1356.91 475.471,1354.45 481.853,1351.99 484.278,1349.54 485.387,1347.08 495.794,1344.62 498.565,1342.17 504.128,1339.71 
  506.517,1337.25 517.945,1334.79 518.988,1332.34 523.206,1329.88 524.211,1327.42 537.939,1324.97 546.517,1322.51 549.943,1320.05 554.965,1317.59 559.014,1315.14 
  563.673,1312.68 568.992,1310.22 575.063,1307.77 581.994,1305.31 583.181,1302.85 587.405,1300.39 588.191,1297.94 589.17,1295.48 590.269,1293.02 599.029,1290.57 
  599.272,1288.11 601.331,1285.65 601.463,1283.19 612.242,1280.74 620.394,1278.28 621.129,1275.82 624.494,1273.36 628.712,1270.91 633.489,1268.45 635.177,1265.99 
  636.113,1263.54 637.98,1261.08 639.559,1258.62 639.92,1256.16 642.576,1253.71 643.994,1251.25 645.06,1248.79 646.519,1246.34 649.381,1243.88 653.034,1241.42 
  653.512,1238.96 665.329,1236.51 669.458,1234.05 669.776,1231.59 671.328,1229.14 673.719,1226.68 674.681,1224.22 681.61,1221.76 682.532,1219.31 684.385,1216.85 
  686.673,1214.39 691.497,1211.93 695.807,1209.48 695.859,1207.02 699.523,1204.56 706.321,1202.11 706.379,1199.65 709.861,1197.19 714.343,1194.73 714.495,1192.28 
  719.754,1189.82 721.527,1187.36 722.037,1184.91 722.949,1182.45 726.415,1179.99 732.382,1177.53 732.835,1175.08 735.336,1172.62 735.37,1170.16 737.73,1167.71 
  741.4,1165.25 746.731,1162.79 747.506,1160.33 748.453,1157.88 750.795,1155.42 754.538,1152.96 755.976,1150.51 760.06,1148.05 761.098,1145.59 761.721,1143.13 
  763.896,1140.68 765.868,1138.22 766.544,1135.76 768.387,1133.3 772.925,1130.85 773.277,1128.39 776.483,1125.93 776.888,1123.48 779.183,1121.02 786.723,1118.56 
  787.302,1116.1 788.94,1113.65 790.364,1111.19 794.341,1108.73 796.187,1106.28 800.83,1103.82 804.726,1101.36 805.647,1098.9 805.728,1096.45 809.798,1093.99 
  809.916,1091.53 809.965,1089.08 810.872,1086.62 818.927,1084.16 819.358,1081.7 820.022,1079.25 823.473,1076.79 825.037,1074.33 826.163,1071.87 826.409,1069.42 
  827.232,1066.96 827.388,1064.5 827.785,1062.05 827.886,1059.59 827.896,1057.13 828.704,1054.67 829.127,1052.22 829.35,1049.76 830.239,1047.3 830.391,1044.85 
  830.572,1042.39 840.39,1039.93 844.192,1037.47 844.24,1035.02 844.726,1032.56 846.281,1030.1 846.593,1027.65 848.285,1025.19 850.841,1022.73 854.907,1020.27 
  857.218,1017.82 858.461,1015.36 861.846,1012.9 864.591,1010.45 866.514,1007.99 868.159,1005.53 870.501,1003.07 872.548,1000.62 874.451,998.159 874.978,995.702 
  877.299,993.245 883.617,990.788 883.871,988.33 884.907,985.873 885.485,983.416 885.905,980.959 887.357,978.502 888.205,976.044 893.694,973.587 893.753,971.13 
  895.037,968.673 897.965,966.216 899.157,963.758 902.622,961.301 903.966,958.844 904.184,956.387 905.28,953.93 905.833,951.472 909.881,949.015 910.642,946.558 
  911.46,944.101 914.345,941.644 915.759,939.187 916.9,936.729 923.629,934.272 923.701,931.815 925.757,929.358 926.69,926.901 927.201,924.443 928.169,921.986 
  928.323,919.529 930.828,917.072 931.961,914.615 932.172,912.157 933.922,909.7 939.386,907.243 943.077,904.786 944.807,902.329 945.723,899.871 948.202,897.414 
  949.005,894.957 952.04,892.5 953.201,890.043 953.662,887.585 955.389,885.128 956.432,882.671 957.334,880.214 958.321,877.757 958.429,875.299 958.845,872.842 
  960.508,870.385 963.338,867.928 969.059,865.471 976.215,863.014 976.333,860.556 977.174,858.099 979.666,855.642 982.525,853.185 995.17,850.728 995.67,848.27 
  999.436,845.813 1000.03,843.356 1001.62,840.899 1001.94,838.442 1002.17,835.984 1003.76,833.527 1004.24,831.07 1004.9,828.613 1005.59,826.156 1007.18,823.698 
  1016.56,821.241 1016.69,818.784 1016.7,816.327 1017.44,813.87 1017.71,811.412 1018.81,808.955 1023.44,806.498 1024.77,804.041 1026.52,801.584 1031.89,799.127 
  1032.11,796.669 1033.03,794.212 1033.57,791.755 1034.76,789.298 1035.49,786.841 1035.77,784.383 1039.77,781.926 1041.05,779.469 1043.49,777.012 1044.12,774.555 
  1044.87,772.097 1044.95,769.64 1045.18,767.183 1045.52,764.726 1045.57,762.269 1050.31,759.811 1050.54,757.354 1052.3,754.897 1053.03,752.44 1054.26,749.983 
  1054.45,747.525 1055.61,745.068 1056.85,742.611 1057.56,740.154 1059.86,737.697 1062.73,735.239 1062.99,732.782 1066.18,730.325 1066.21,727.868 1067.1,725.411 
  1068.71,722.954 1069.2,720.496 1072.23,718.039 1073.08,715.582 1074.29,713.125 1075.59,710.668 1076.16,708.21 1077.19,705.753 1079.13,703.296 1081.85,700.839 
  1083.21,698.382 1083.61,695.924 1088.81,693.467 1088.91,691.01 1093.35,688.553 1095.78,686.096 1096.87,683.638 1097.65,681.181 1100.09,678.724 1103.7,676.267 
  1104.97,673.81 1105.34,671.352 1107.08,668.895 1107.53,666.438 1108.95,663.981 1110.95,661.524 1112.11,659.067 1117.05,656.609 1118.34,654.152 1119.2,651.695 
  1121.52,649.238 1125.57,646.781 1128.16,644.323 1128.32,641.866 1128.64,639.409 1132.66,636.952 1134.59,634.495 1134.76,632.037 1136.16,629.58 1137.81,627.123 
  1142.39,624.666 1143.7,622.209 1144.28,619.751 1145.23,617.294 1147.4,614.837 1148.25,612.38 1150.67,609.923 1152.16,607.465 1157.79,605.008 1157.8,602.551 
  1160.96,600.094 1166.9,597.637 1168.23,595.179 1170.08,592.722 1172.24,590.265 1179.19,587.808 1179.21,585.351 1185.6,582.894 1189.68,580.436 1190.3,577.979 
  1192.13,575.522 1195.06,573.065 1196.89,570.608 1196.98,568.15 1197.97,565.693 1198.19,563.236 1200.04,560.779 1204.03,558.322 1206.43,555.864 1207.9,553.407 
  1209.1,550.95 1210.75,548.493 1223.58,546.036 1226.01,543.578 1226.06,541.121 1226.27,538.664 1227.44,536.207 1236.84,533.75 1237.2,531.292 1238.04,528.835 
  1238.15,526.378 1242.89,523.921 1243.85,521.464 1244.63,519.006 1244.8,516.549 1245.88,514.092 1249.25,511.635 1257.7,509.178 1263.22,506.721 1264.87,504.263 
  1265.24,501.806 1269.21,499.349 1269.63,496.892 1273.23,494.435 1273.6,491.977 1275.1,489.52 1282.18,487.063 1282.4,484.606 1284.27,482.149 1286.23,479.691 
  1286.28,477.234 1287.08,474.777 1294.96,472.32 1300.03,469.863 1302.39,467.405 1306.22,464.948 1308.78,462.491 1314.07,460.034 1317.32,457.577 1318.31,455.119 
  1325.87,452.662 1327.26,450.205 1328.09,447.748 1330.46,445.291 1331.01,442.834 1332.66,440.376 1332.91,437.919 1337.14,435.462 1338.02,433.005 1338.58,430.548 
  1338.66,428.09 1339.43,425.633 1348.06,423.176 1352.8,420.719 1356.47,418.262 1357.53,415.804 1358.62,413.347 1359.04,410.89 1360.15,408.433 1362.43,405.976 
  1364.39,403.518 1365.63,401.061 1366.24,398.604 1368.98,396.147 1371.64,393.69 1377.33,391.232 1379.64,388.775 1379.93,386.318 1380.4,383.861 1388.54,381.404 
  1395.69,378.946 1397.74,376.489 1405.46,374.032 1407.64,371.575 1408.61,369.118 1409.72,366.661 1412.63,364.203 1413.59,361.746 1414.69,359.289 1421.89,356.832 
  1425.71,354.375 1426.14,351.917 1430.62,349.46 1437.52,347.003 1445.67,344.546 1455.23,342.089 1456.51,339.631 1456.73,337.174 1462.02,334.717 1463.15,332.26 
  1468.06,329.803 1469.89,327.345 1475.88,324.888 1487.69,322.431 1493.46,319.974 1506.17,317.517 1511.19,315.059 1517.11,312.602 1525.68,310.145 1528.11,307.688 
  1535.82,305.231 1541.01,302.774 1541.14,300.316 1542.95,297.859 1548.16,295.402 1548.57,292.945 1550.99,290.488 1552.76,288.03 1554.41,285.573 1563.5,283.116 
  1567.89,280.659 1581.08,278.202 1591.55,275.744 1593.64,273.287 1600.05,270.83 1604.42,268.373 1608.68,265.916 1608.78,263.458 1611.24,261.001 1615.01,258.544 
  1616.98,256.087 1617.42,253.63 1618.99,251.172 1636.86,248.715 1654.18,246.258 1658.94,243.801 1666.97,241.344 1670.46,238.886 1673.87,236.429 1684.65,233.972 
  1692.33,231.515 1695.97,229.058 1702.55,226.601 1706.22,224.143 1714.61,221.686 1722.47,219.229 1723.67,216.772 1758.08,214.315 1758.99,211.857 1769.49,209.4 
  1772.15,206.943 1781.17,204.486 1784.11,202.029 1794.92,199.571 1794.98,197.114 1797.61,194.657 1813.23,192.2 1838.21,189.743 1852.61,187.285 1855.03,184.828 
  1861.76,182.371 1897.13,179.914 1959.14,177.457 2015.67,174.999 2017.17,172.542 2043.32,170.085 2077.08,167.628 2077.63,165.171 2167.66,162.713 2216.59,160.256 
  
  "/>
<polyline clip-path="url(#clip582)" style="stroke:#e26f46; stroke-linecap:butt; stroke-linejoin:round; stroke-width:4; stroke-opacity:1; fill:none" points="
  309.067,1386.4 344.354,1383.94 404.131,1381.48 414.374,1379.02 436.289,1376.57 453.771,1374.11 454.027,1371.65 476.181,1369.2 486.798,1366.74 506.882,1364.28 
  516.286,1361.82 521.238,1359.37 523.495,1356.91 527.373,1354.45 532.455,1351.99 534.368,1349.54 535.48,1347.08 542.126,1344.62 545.303,1342.17 558.912,1339.71 
  560.063,1337.25 562.129,1334.79 567.77,1332.34 580.981,1329.88 585.935,1327.42 586.786,1324.97 588.412,1322.51 592.368,1320.05 593.916,1317.59 601.242,1315.14 
  602.008,1312.68 602.304,1310.22 602.723,1307.77 608.427,1305.31 616.628,1302.85 621.006,1300.39 631.604,1297.94 635.876,1295.48 642.133,1293.02 643.191,1290.57 
  646.566,1288.11 647.757,1285.65 648.965,1283.19 650.132,1280.74 658.858,1278.28 660.188,1275.82 660.255,1273.36 663.156,1270.91 668.24,1268.45 668.271,1265.99 
  678.74,1263.54 680.766,1261.08 681.714,1258.62 690.798,1256.16 706.894,1253.71 709.176,1251.25 711.212,1248.79 716.488,1246.34 719.113,1243.88 719.401,1241.42 
  723.367,1238.96 724.659,1236.51 725.331,1234.05 728.981,1231.59 738,1229.14 741.796,1226.68 744.313,1224.22 745.477,1221.76 748.732,1219.31 751.85,1216.85 
  753.837,1214.39 755.828,1211.93 760.532,1209.48 761.129,1207.02 763.541,1204.56 764.197,1202.11 769.566,1199.65 769.732,1197.19 772.463,1194.73 776.511,1192.28 
  777.045,1189.82 777.513,1187.36 781.152,1184.91 782.262,1182.45 788.911,1179.99 790.823,1177.53 790.925,1175.08 792.463,1172.62 793.111,1170.16 794.354,1167.71 
  795.467,1165.25 800.236,1162.79 802.9,1160.33 805.505,1157.88 806.64,1155.42 809.963,1152.96 810.154,1150.51 816.043,1148.05 816.186,1145.59 819.437,1143.13 
  820.124,1140.68 822.306,1138.22 822.833,1135.76 823.033,1133.3 823.51,1130.85 823.716,1128.39 825.161,1125.93 827.816,1123.48 829.728,1121.02 834.545,1118.56 
  836.209,1116.1 838.244,1113.65 839.318,1111.19 840.877,1108.73 841.053,1106.28 842.214,1103.82 842.465,1101.36 844.176,1098.9 845.813,1096.45 846.495,1093.99 
  847.135,1091.53 847.483,1089.08 849.113,1086.62 850.065,1084.16 853.276,1081.7 855.544,1079.25 856.12,1076.79 859.484,1074.33 859.83,1071.87 860.491,1069.42 
  862.439,1066.96 865.322,1064.5 865.692,1062.05 868.887,1059.59 869.193,1057.13 869.201,1054.67 872.144,1052.22 873.272,1049.76 873.56,1047.3 877.079,1044.85 
  880.065,1042.39 880.186,1039.93 881.956,1037.47 885.485,1035.02 886.812,1032.56 887.693,1030.1 888.032,1027.65 888.241,1025.19 889.473,1022.73 891.483,1020.27 
  892.518,1017.82 901.59,1015.36 901.85,1012.9 904.759,1010.45 907.693,1007.99 909.342,1005.53 911.051,1003.07 911.159,1000.62 912.565,998.159 913.727,995.702 
  917.266,993.245 919.437,990.788 919.969,988.33 920.758,985.873 923.056,983.416 929.177,980.959 941.037,978.502 941.688,976.044 942.735,973.587 944.765,971.13 
  947.335,968.673 947.677,966.216 947.741,963.758 948.051,961.301 948.684,958.844 952.154,956.387 952.339,953.93 952.779,951.472 952.815,949.015 955.084,946.558 
  955.486,944.101 958.795,941.644 958.928,939.187 959.405,936.729 959.827,934.272 960.652,931.815 961.177,929.358 963.966,926.901 964.244,924.443 965.705,921.986 
  968.049,919.529 969.479,917.072 976.564,914.615 981.018,912.157 984.668,909.7 984.78,907.243 988.621,904.786 989.468,902.329 990.815,899.871 992.888,897.414 
  995.826,894.957 996.889,892.5 997.571,890.043 1000.38,887.585 1000.92,885.128 1002.73,882.671 1004.2,880.214 1006.81,877.757 1007.04,875.299 1007.13,872.842 
  1007.88,870.385 1008.9,867.928 1009,865.471 1010.82,863.014 1011.33,860.556 1015.07,858.099 1017.77,855.642 1020.07,853.185 1020.83,850.728 1020.94,848.27 
  1022.01,845.813 1023.01,843.356 1025.39,840.899 1030.28,838.442 1030.4,835.984 1033.3,833.527 1034.92,831.07 1036.23,828.613 1036.41,826.156 1039.2,823.698 
  1039.36,821.241 1041.04,818.784 1041.84,816.327 1042.83,813.87 1047.8,811.412 1052.6,808.955 1055.46,806.498 1056.27,804.041 1057.84,801.584 1058.11,799.127 
  1058.4,796.669 1062.26,794.212 1062.37,791.755 1064.48,789.298 1064.49,786.841 1064.76,784.383 1065.75,781.926 1066.67,779.469 1071.6,777.012 1072.43,774.555 
  1072.58,772.097 1075.46,769.64 1077.87,767.183 1079.65,764.726 1083.38,762.269 1085.68,759.811 1088.56,757.354 1090.78,754.897 1094.48,752.44 1094.85,749.983 
  1097.74,747.525 1098.42,745.068 1099.99,742.611 1101.57,740.154 1106.19,737.697 1108.76,735.239 1110.25,732.782 1120.07,730.325 1122.53,727.868 1124.81,725.411 
  1127.41,722.954 1127.72,720.496 1129.7,718.039 1130.02,715.582 1130.24,713.125 1130.3,710.668 1132.84,708.21 1133.06,705.753 1137.41,703.296 1137.66,700.839 
  1138.35,698.382 1140.89,695.924 1143.61,693.467 1154.57,691.01 1158.06,688.553 1159,686.096 1161.2,683.638 1165.02,681.181 1167.79,678.724 1172.35,676.267 
  1174.33,673.81 1175.81,671.352 1176.14,668.895 1178.97,666.438 1182.53,663.981 1183.73,661.524 1185.24,659.067 1187.76,656.609 1189.33,654.152 1191.37,651.695 
  1200.78,649.238 1201.51,646.781 1202.53,644.323 1207.37,641.866 1207.8,639.409 1208.09,636.952 1209.51,634.495 1211.76,632.037 1211.9,629.58 1212.59,627.123 
  1214.15,624.666 1214.92,622.209 1216.56,619.751 1216.98,617.294 1219.87,614.837 1220.18,612.38 1222.88,609.923 1223.72,607.465 1225.62,605.008 1226.29,602.551 
  1226.9,600.094 1227.09,597.637 1227.66,595.179 1230.42,592.722 1231.07,590.265 1231.43,587.808 1232.38,585.351 1234.04,582.894 1234.07,580.436 1235.98,577.979 
  1236.15,575.522 1237.62,573.065 1241.64,570.608 1246.63,568.15 1246.93,565.693 1249.23,563.236 1252.39,560.779 1254.53,558.322 1257.4,555.864 1257.78,553.407 
  1261.44,550.95 1261.86,548.493 1264.53,546.036 1266.9,543.578 1270.77,541.121 1271.35,538.664 1272.22,536.207 1275.51,533.75 1276.36,531.292 1277.43,528.835 
  1278.21,526.378 1279.34,523.921 1279.61,521.464 1281.17,519.006 1282.98,516.549 1288.01,514.092 1289.51,511.635 1289.91,509.178 1293.15,506.721 1294.11,504.263 
  1294.93,501.806 1298.34,499.349 1299.89,496.892 1303.22,494.435 1304.68,491.977 1304.9,489.52 1306.32,487.063 1310.68,484.606 1311.42,482.149 1314.07,479.691 
  1320.59,477.234 1323.03,474.777 1323.54,472.32 1323.74,469.863 1327.2,467.405 1335.11,464.948 1335.52,462.491 1338.06,460.034 1338.23,457.577 1344.41,455.119 
  1344.85,452.662 1347.72,450.205 1348.69,447.748 1349.23,445.291 1351.63,442.834 1354.62,440.376 1357.56,437.919 1362.27,435.462 1363.09,433.005 1371.3,430.548 
  1373.91,428.09 1373.96,425.633 1375.21,423.176 1377.48,420.719 1387.48,418.262 1394.23,415.804 1399.05,413.347 1407.16,410.89 1408.23,408.433 1412.72,405.976 
  1412.73,403.518 1413.45,401.061 1425.97,398.604 1432.42,396.147 1434.38,393.69 1437.49,391.232 1445.04,388.775 1446.48,386.318 1447.48,383.861 1448.47,381.404 
  1452.67,378.946 1453.38,376.489 1453.45,374.032 1459.5,371.575 1460.16,369.118 1461.49,366.661 1467.09,364.203 1468.89,361.746 1469.71,359.289 1471.1,356.832 
  1471.5,354.375 1473.91,351.917 1474.07,349.46 1475,347.003 1477.53,344.546 1487.09,342.089 1488.27,339.631 1488.62,337.174 1490.71,334.717 1496.76,332.26 
  1498.91,329.803 1502.75,327.345 1503.71,324.888 1509.17,322.431 1512.11,319.974 1514.56,317.517 1516.64,315.059 1517.85,312.602 1519.81,310.145 1523.7,307.688 
  1532.19,305.231 1533.49,302.774 1536.32,300.316 1537.51,297.859 1538.09,295.402 1543.2,292.945 1546.31,290.488 1546.92,288.03 1549.98,285.573 1551.83,283.116 
  1554.56,280.659 1581.8,278.202 1595.03,275.744 1606.9,273.287 1622.56,270.83 1624.44,268.373 1631.18,265.916 1637.31,263.458 1639.65,261.001 1644.55,258.544 
  1651.07,256.087 1661.1,253.63 1665.88,251.172 1671.14,248.715 1673.34,246.258 1683.35,243.801 1686.29,241.344 1692.47,238.886 1694.44,236.429 1698.55,233.972 
  1709.53,231.515 1716.37,229.058 1720.07,226.601 1738.45,224.143 1741.28,221.686 1744.07,219.229 1761.34,216.772 1771.24,214.315 1793.37,211.857 1799.36,209.4 
  1808.1,206.943 1823,204.486 1825.92,202.029 1867.98,199.571 1913,197.114 1914.67,194.657 1959.9,192.2 2010.39,189.743 2011.05,187.285 2019.72,184.828 
  2030.2,182.371 2033.55,179.914 2049.13,177.457 2054.52,174.999 2096.58,172.542 2102.48,170.085 2202.26,167.628 2219.97,165.171 2285.99,162.713 2293.23,160.256 
  
  "/>
<path clip-path="url(#clip580)" d="
M1517.24 1379.86 L2282.65 1379.86 L2282.65 1302.1 L1517.24 1302.1  Z
  " fill="#ffffff" fill-rule="evenodd" fill-opacity="1"/>
<polyline clip-path="url(#clip580)" style="stroke:#000000; stroke-linecap:butt; stroke-linejoin:round; stroke-width:4; stroke-opacity:1; fill:none" points="
  1517.24,1379.86 2282.65,1379.86 2282.65,1302.1 1517.24,1302.1 1517.24,1379.86 
  "/>
<polyline clip-path="url(#clip580)" style="stroke:#009af9; stroke-linecap:butt; stroke-linejoin:round; stroke-width:3; stroke-opacity:1; fill:none" points="
  1540.61,1340.98 1680.83,1340.98 
  "/>
<path clip-path="url(#clip580)" d="M1716.21 1330.39 Q1712.39 1330.39 1710.13 1333.24 Q1707.89 1336.09 1707.89 1341 Q1707.89 1345.9 1710.13 1348.75 Q1712.39 1351.59 1716.21 1351.59 Q1720.03 1351.59 1722.25 1348.75 Q1724.49 1345.9 1724.49 1341 Q1724.49 1336.09 1722.25 1333.24 Q1720.03 1330.39 1716.21 1330.39 M1716.21 1327.55 Q1721.66 1327.55 1724.92 1331.21 Q1728.19 1334.86 1728.19 1341 Q1728.19 1347.13 1724.92 1350.79 Q1721.66 1354.44 1716.21 1354.44 Q1710.74 1354.44 1707.46 1350.79 Q1704.19 1347.15 1704.19 1341 Q1704.19 1334.86 1707.46 1331.21 Q1710.74 1327.55 1716.21 1327.55 Z" fill="#000000" fill-rule="evenodd" fill-opacity="1" /><path clip-path="url(#clip580)" d="M1747.49 1344.23 Q1747.49 1340.71 1746.03 1338.71 Q1744.59 1336.7 1742.06 1336.7 Q1739.52 1336.7 1738.07 1338.71 Q1736.63 1340.71 1736.63 1344.23 Q1736.63 1347.76 1738.07 1349.77 Q1739.52 1351.77 1742.06 1351.77 Q1744.59 1351.77 1746.03 1349.77 Q1747.49 1347.76 1747.49 1344.23 M1736.63 1337.44 Q1737.63 1335.71 1739.16 1334.87 Q1740.71 1334.02 1742.84 1334.02 Q1746.38 1334.02 1748.59 1336.84 Q1750.81 1339.65 1750.81 1344.23 Q1750.81 1348.81 1748.59 1351.63 Q1746.38 1354.44 1742.84 1354.44 Q1740.71 1354.44 1739.16 1353.61 Q1737.63 1352.76 1736.63 1351.02 L1736.63 1353.94 L1733.41 1353.94 L1733.41 1326.92 L1736.63 1326.92 L1736.63 1337.44 Z" fill="#000000" fill-rule="evenodd" fill-opacity="1" /><path clip-path="url(#clip580)" d="M1764.94 1344.16 Q1761.07 1344.16 1759.58 1345.05 Q1758.08 1345.93 1758.08 1348.07 Q1758.08 1349.77 1759.19 1350.78 Q1760.32 1351.77 1762.25 1351.77 Q1764.91 1351.77 1766.5 1349.89 Q1768.12 1348 1768.12 1344.87 L1768.12 1344.16 L1764.94 1344.16 M1771.31 1342.84 L1771.31 1353.94 L1768.12 1353.94 L1768.12 1350.98 Q1767.02 1352.76 1765.39 1353.61 Q1763.76 1354.44 1761.4 1354.44 Q1758.41 1354.44 1756.64 1352.77 Q1754.89 1351.09 1754.89 1348.28 Q1754.89 1345 1757.08 1343.33 Q1759.28 1341.66 1763.64 1341.66 L1768.12 1341.66 L1768.12 1341.35 Q1768.12 1339.14 1766.66 1337.95 Q1765.22 1336.73 1762.6 1336.73 Q1760.93 1336.73 1759.35 1337.13 Q1757.77 1337.53 1756.31 1338.33 L1756.31 1335.38 Q1758.07 1334.7 1759.72 1334.37 Q1761.36 1334.02 1762.93 1334.02 Q1767.15 1334.02 1769.23 1336.21 Q1771.31 1338.4 1771.31 1342.84 Z" fill="#000000" fill-rule="evenodd" fill-opacity="1" /><path clip-path="url(#clip580)" d="M1777.89 1334.49 L1781.09 1334.49 L1781.09 1354.28 Q1781.09 1358 1779.66 1359.67 Q1778.26 1361.33 1775.11 1361.33 L1773.9 1361.33 L1773.9 1358.62 L1774.75 1358.62 Q1776.57 1358.62 1777.23 1357.77 Q1777.89 1356.94 1777.89 1354.28 L1777.89 1334.49 M1777.89 1326.92 L1781.09 1326.92 L1781.09 1330.97 L1777.89 1330.97 L1777.89 1326.92 Z" fill="#000000" fill-rule="evenodd" fill-opacity="1" /><path clip-path="url(#clip580)" d="M1802.16 1351.02 L1802.16 1361.33 L1798.95 1361.33 L1798.95 1334.49 L1802.16 1334.49 L1802.16 1337.44 Q1803.17 1335.71 1804.7 1334.87 Q1806.24 1334.02 1808.38 1334.02 Q1811.92 1334.02 1814.12 1336.84 Q1816.35 1339.65 1816.35 1344.23 Q1816.35 1348.81 1814.12 1351.63 Q1811.92 1354.44 1808.38 1354.44 Q1806.24 1354.44 1804.7 1353.61 Q1803.17 1352.76 1802.16 1351.02 M1813.03 1344.23 Q1813.03 1340.71 1811.57 1338.71 Q1810.13 1336.7 1807.6 1336.7 Q1805.06 1336.7 1803.6 1338.71 Q1802.16 1340.71 1802.16 1344.23 Q1802.16 1347.76 1803.6 1349.77 Q1805.06 1351.77 1807.6 1351.77 Q1810.13 1351.77 1811.57 1349.77 Q1813.03 1347.76 1813.03 1344.23 Z" fill="#000000" fill-rule="evenodd" fill-opacity="1" /><path clip-path="url(#clip580)" d="M1832.91 1337.48 Q1832.37 1337.17 1831.73 1337.03 Q1831.1 1336.87 1830.34 1336.87 Q1827.63 1336.87 1826.17 1338.64 Q1824.73 1340.39 1824.73 1343.69 L1824.73 1353.94 L1821.52 1353.94 L1821.52 1334.49 L1824.73 1334.49 L1824.73 1337.51 Q1825.74 1335.74 1827.35 1334.89 Q1828.97 1334.02 1831.28 1334.02 Q1831.61 1334.02 1832.01 1334.08 Q1832.41 1334.11 1832.89 1334.2 L1832.91 1337.48 Z" fill="#000000" fill-rule="evenodd" fill-opacity="1" /><path clip-path="url(#clip580)" d="M1843.01 1336.73 Q1840.44 1336.73 1838.95 1338.75 Q1837.46 1340.74 1837.46 1344.23 Q1837.46 1347.72 1838.93 1349.73 Q1840.43 1351.73 1843.01 1351.73 Q1845.57 1351.73 1847.06 1349.72 Q1848.55 1347.7 1848.55 1344.23 Q1848.55 1340.78 1847.06 1338.76 Q1845.57 1336.73 1843.01 1336.73 M1843.01 1334.02 Q1847.18 1334.02 1849.56 1336.73 Q1851.94 1339.44 1851.94 1344.23 Q1851.94 1349.01 1849.56 1351.73 Q1847.18 1354.44 1843.01 1354.44 Q1838.83 1354.44 1836.45 1351.73 Q1834.09 1349.01 1834.09 1344.23 Q1834.09 1339.44 1836.45 1336.73 Q1838.83 1334.02 1843.01 1334.02 Z" fill="#000000" fill-rule="evenodd" fill-opacity="1" /><path clip-path="url(#clip580)" d="M1870.03 1337.44 L1870.03 1326.92 L1873.22 1326.92 L1873.22 1353.94 L1870.03 1353.94 L1870.03 1351.02 Q1869.02 1352.76 1867.48 1353.61 Q1865.95 1354.44 1863.79 1354.44 Q1860.27 1354.44 1858.05 1351.63 Q1855.84 1348.81 1855.84 1344.23 Q1855.84 1339.65 1858.05 1336.84 Q1860.27 1334.02 1863.79 1334.02 Q1865.95 1334.02 1867.48 1334.87 Q1869.02 1335.71 1870.03 1337.44 M1859.14 1344.23 Q1859.14 1347.76 1860.58 1349.77 Q1862.04 1351.77 1864.58 1351.77 Q1867.11 1351.77 1868.57 1349.77 Q1870.03 1347.76 1870.03 1344.23 Q1870.03 1340.71 1868.57 1338.71 Q1867.11 1336.7 1864.58 1336.7 Q1862.04 1336.7 1860.58 1338.71 Q1859.14 1340.71 1859.14 1344.23 Z" fill="#000000" fill-rule="evenodd" fill-opacity="1" /><path clip-path="url(#clip580)" d="M1879.47 1346.26 L1879.47 1334.49 L1882.67 1334.49 L1882.67 1346.14 Q1882.67 1348.9 1883.74 1350.29 Q1884.82 1351.66 1886.97 1351.66 Q1889.56 1351.66 1891.05 1350.01 Q1892.56 1348.36 1892.56 1345.52 L1892.56 1334.49 L1895.76 1334.49 L1895.76 1353.94 L1892.56 1353.94 L1892.56 1350.95 Q1891.4 1352.72 1889.85 1353.59 Q1888.33 1354.44 1886.29 1354.44 Q1882.94 1354.44 1881.21 1352.36 Q1879.47 1350.27 1879.47 1346.26 M1887.51 1334.02 L1887.51 1334.02 Z" fill="#000000" fill-rule="evenodd" fill-opacity="1" /><path clip-path="url(#clip580)" d="M1916.33 1335.24 L1916.33 1338.22 Q1914.97 1337.48 1913.6 1337.11 Q1912.25 1336.73 1910.86 1336.73 Q1907.75 1336.73 1906.03 1338.71 Q1904.32 1340.67 1904.32 1344.23 Q1904.32 1347.79 1906.03 1349.77 Q1907.75 1351.73 1910.86 1351.73 Q1912.25 1351.73 1913.6 1351.37 Q1914.97 1350.98 1916.33 1350.24 L1916.33 1353.19 Q1914.99 1353.81 1913.55 1354.13 Q1912.13 1354.44 1910.51 1354.44 Q1906.12 1354.44 1903.53 1351.68 Q1900.95 1348.92 1900.95 1344.23 Q1900.95 1339.47 1903.55 1336.75 Q1906.17 1334.02 1910.72 1334.02 Q1912.2 1334.02 1913.6 1334.34 Q1915.01 1334.63 1916.33 1335.24 Z" fill="#000000" fill-rule="evenodd" fill-opacity="1" /><path clip-path="url(#clip580)" d="M1938.52 1343.42 L1938.52 1344.98 L1923.83 1344.98 Q1924.04 1348.28 1925.81 1350.01 Q1927.6 1351.73 1930.77 1351.73 Q1932.61 1351.73 1934.33 1351.28 Q1936.07 1350.83 1937.77 1349.93 L1937.77 1352.95 Q1936.05 1353.68 1934.25 1354.06 Q1932.44 1354.44 1930.58 1354.44 Q1925.93 1354.44 1923.2 1351.73 Q1920.5 1349.02 1920.5 1344.41 Q1920.5 1339.63 1923.07 1336.84 Q1925.65 1334.02 1930.03 1334.02 Q1933.95 1334.02 1936.22 1336.56 Q1938.52 1339.08 1938.52 1343.42 M1935.32 1342.48 Q1935.29 1339.86 1933.85 1338.29 Q1932.42 1336.73 1930.06 1336.73 Q1927.39 1336.73 1925.77 1338.24 Q1924.18 1339.75 1923.93 1342.5 L1935.32 1342.48 Z" fill="#000000" fill-rule="evenodd" fill-opacity="1" /><path clip-path="url(#clip580)" d="M1959.92 1342.2 L1959.92 1353.94 L1956.73 1353.94 L1956.73 1342.3 Q1956.73 1339.54 1955.65 1338.17 Q1954.58 1336.8 1952.42 1336.8 Q1949.84 1336.8 1948.34 1338.45 Q1946.85 1340.1 1946.85 1342.95 L1946.85 1353.94 L1943.64 1353.94 L1943.64 1334.49 L1946.85 1334.49 L1946.85 1337.51 Q1948 1335.76 1949.54 1334.89 Q1951.1 1334.02 1953.13 1334.02 Q1956.49 1334.02 1958.2 1336.11 Q1959.92 1338.17 1959.92 1342.2 Z" fill="#000000" fill-rule="evenodd" fill-opacity="1" /><path clip-path="url(#clip580)" d="M1980.29 1335.24 L1980.29 1338.22 Q1978.93 1337.48 1977.56 1337.11 Q1976.21 1336.73 1974.82 1336.73 Q1971.71 1336.73 1969.99 1338.71 Q1968.27 1340.67 1968.27 1344.23 Q1968.27 1347.79 1969.99 1349.77 Q1971.71 1351.73 1974.82 1351.73 Q1976.21 1351.73 1977.56 1351.37 Q1978.93 1350.98 1980.29 1350.24 L1980.29 1353.19 Q1978.95 1353.81 1977.51 1354.13 Q1976.09 1354.44 1974.47 1354.44 Q1970.08 1354.44 1967.49 1351.68 Q1964.91 1348.92 1964.91 1344.23 Q1964.91 1339.47 1967.51 1336.75 Q1970.13 1334.02 1974.68 1334.02 Q1976.16 1334.02 1977.56 1334.34 Q1978.97 1334.63 1980.29 1335.24 Z" fill="#000000" fill-rule="evenodd" fill-opacity="1" /><path clip-path="url(#clip580)" d="M1985.84 1334.49 L1989.04 1334.49 L1989.04 1353.94 L1985.84 1353.94 L1985.84 1334.49 M1985.84 1326.92 L1989.04 1326.92 L1989.04 1330.97 L1985.84 1330.97 L1985.84 1326.92 Z" fill="#000000" fill-rule="evenodd" fill-opacity="1" /><path clip-path="url(#clip580)" d="M2020.98 1344.23 Q2020.98 1340.71 2019.52 1338.71 Q2018.08 1336.7 2015.55 1336.7 Q2013.01 1336.7 2011.55 1338.71 Q2010.11 1340.71 2010.11 1344.23 Q2010.11 1347.76 2011.55 1349.77 Q2013.01 1351.77 2015.55 1351.77 Q2018.08 1351.77 2019.52 1349.77 Q2020.98 1347.76 2020.98 1344.23 M2010.11 1337.44 Q2011.12 1335.71 2012.65 1334.87 Q2014.19 1334.02 2016.33 1334.02 Q2019.87 1334.02 2022.08 1336.84 Q2024.3 1339.65 2024.3 1344.23 Q2024.3 1348.81 2022.08 1351.63 Q2019.87 1354.44 2016.33 1354.44 Q2014.19 1354.44 2012.65 1353.61 Q2011.12 1352.76 2010.11 1351.02 L2010.11 1353.94 L2006.9 1353.94 L2006.9 1326.92 L2010.11 1326.92 L2010.11 1337.44 Z" fill="#000000" fill-rule="evenodd" fill-opacity="1" /><path clip-path="url(#clip580)" d="M2038.43 1344.16 Q2034.56 1344.16 2033.06 1345.05 Q2031.57 1345.93 2031.57 1348.07 Q2031.57 1349.77 2032.68 1350.78 Q2033.81 1351.77 2035.74 1351.77 Q2038.39 1351.77 2039.99 1349.89 Q2041.61 1348 2041.61 1344.87 L2041.61 1344.16 L2038.43 1344.16 M2044.8 1342.84 L2044.8 1353.94 L2041.61 1353.94 L2041.61 1350.98 Q2040.51 1352.76 2038.88 1353.61 Q2037.25 1354.44 2034.89 1354.44 Q2031.9 1354.44 2030.13 1352.77 Q2028.38 1351.09 2028.38 1348.28 Q2028.38 1345 2030.56 1343.33 Q2032.77 1341.66 2037.13 1341.66 L2041.61 1341.66 L2041.61 1341.35 Q2041.61 1339.14 2040.15 1337.95 Q2038.71 1336.73 2036.09 1336.73 Q2034.42 1336.73 2032.84 1337.13 Q2031.26 1337.53 2029.8 1338.33 L2029.8 1335.38 Q2031.55 1334.7 2033.2 1334.37 Q2034.85 1334.02 2036.42 1334.02 Q2040.63 1334.02 2042.72 1336.21 Q2044.8 1338.4 2044.8 1342.84 Z" fill="#000000" fill-rule="evenodd" fill-opacity="1" /><path clip-path="url(#clip580)" d="M2064.18 1337.44 L2064.18 1326.92 L2067.37 1326.92 L2067.37 1353.94 L2064.18 1353.94 L2064.18 1351.02 Q2063.17 1352.76 2061.62 1353.61 Q2060.1 1354.44 2057.94 1354.44 Q2054.42 1354.44 2052.2 1351.63 Q2049.99 1348.81 2049.99 1344.23 Q2049.99 1339.65 2052.2 1336.84 Q2054.42 1334.02 2057.94 1334.02 Q2060.1 1334.02 2061.62 1334.87 Q2063.17 1335.71 2064.18 1337.44 M2053.29 1344.23 Q2053.29 1347.76 2054.73 1349.77 Q2056.19 1351.77 2058.72 1351.77 Q2061.26 1351.77 2062.72 1349.77 Q2064.18 1347.76 2064.18 1344.23 Q2064.18 1340.71 2062.72 1338.71 Q2061.26 1336.7 2058.72 1336.7 Q2056.19 1336.7 2054.73 1338.71 Q2053.29 1340.71 2053.29 1344.23 Z" fill="#000000" fill-rule="evenodd" fill-opacity="1" /><path clip-path="url(#clip580)" d="M2082.79 1344.16 Q2078.92 1344.16 2077.42 1345.05 Q2075.93 1345.93 2075.93 1348.07 Q2075.93 1349.77 2077.04 1350.78 Q2078.17 1351.77 2080.1 1351.77 Q2082.75 1351.77 2084.35 1349.89 Q2085.96 1348 2085.96 1344.87 L2085.96 1344.16 L2082.79 1344.16 M2089.16 1342.84 L2089.16 1353.94 L2085.96 1353.94 L2085.96 1350.98 Q2084.87 1352.76 2083.24 1353.61 Q2081.61 1354.44 2079.24 1354.44 Q2076.26 1354.44 2074.49 1352.77 Q2072.73 1351.09 2072.73 1348.28 Q2072.73 1345 2074.92 1343.33 Q2077.13 1341.66 2081.48 1341.66 L2085.96 1341.66 L2085.96 1341.35 Q2085.96 1339.14 2084.51 1337.95 Q2083.06 1336.73 2080.44 1336.73 Q2078.78 1336.73 2077.2 1337.13 Q2075.62 1337.53 2074.16 1338.33 L2074.16 1335.38 Q2075.91 1334.7 2077.56 1334.37 Q2079.21 1334.02 2080.77 1334.02 Q2084.99 1334.02 2087.07 1336.21 Q2089.16 1338.4 2089.16 1342.84 Z" fill="#000000" fill-rule="evenodd" fill-opacity="1" /><path clip-path="url(#clip580)" d="M2095.74 1334.49 L2098.93 1334.49 L2098.93 1354.28 Q2098.93 1358 2097.51 1359.67 Q2096.1 1361.33 2092.96 1361.33 L2091.74 1361.33 L2091.74 1358.62 L2092.6 1358.62 Q2094.42 1358.62 2095.08 1357.77 Q2095.74 1356.94 2095.74 1354.28 L2095.74 1334.49 M2095.74 1326.92 L2098.93 1326.92 L2098.93 1330.97 L2095.74 1330.97 L2095.74 1326.92 Z" fill="#000000" fill-rule="evenodd" fill-opacity="1" /><path clip-path="url(#clip580)" d="M2114.45 1344.16 Q2110.58 1344.16 2109.09 1345.05 Q2107.6 1345.93 2107.6 1348.07 Q2107.6 1349.77 2108.71 1350.78 Q2109.83 1351.77 2111.76 1351.77 Q2114.42 1351.77 2116.02 1349.89 Q2117.63 1348 2117.63 1344.87 L2117.63 1344.16 L2114.45 1344.16 M2120.82 1342.84 L2120.82 1353.94 L2117.63 1353.94 L2117.63 1350.98 Q2116.54 1352.76 2114.9 1353.61 Q2113.27 1354.44 2110.91 1354.44 Q2107.93 1354.44 2106.15 1352.77 Q2104.4 1351.09 2104.4 1348.28 Q2104.4 1345 2106.59 1343.33 Q2108.79 1341.66 2113.15 1341.66 L2117.63 1341.66 L2117.63 1341.35 Q2117.63 1339.14 2116.17 1337.95 Q2114.73 1336.73 2112.11 1336.73 Q2110.44 1336.73 2108.86 1337.13 Q2107.28 1337.53 2105.82 1338.33 L2105.82 1335.38 Q2107.58 1334.7 2109.23 1334.37 Q2110.88 1334.02 2112.44 1334.02 Q2116.66 1334.02 2118.74 1336.21 Q2120.82 1338.4 2120.82 1342.84 M2117.66 1353.94 L2119.73 1353.94 Q2118.95 1355 2118.57 1355.76 Q2118.2 1356.52 2118.2 1357.06 Q2118.2 1357.86 2118.67 1358.26 Q2119.16 1358.66 2120.1 1358.66 Q2120.65 1358.66 2121.19 1358.52 Q2121.73 1358.4 2122.27 1358.14 L2122.27 1360.45 Q2121.61 1360.62 2121.02 1360.71 Q2120.43 1360.79 2119.9 1360.79 Q2117.79 1360.79 2116.78 1360.03 Q2115.79 1359.28 2115.79 1357.67 Q2115.79 1356.84 2116.24 1355.92 Q2116.71 1355.01 2117.66 1353.94 Z" fill="#000000" fill-rule="evenodd" fill-opacity="1" /><path clip-path="url(#clip580)" d="M2149.97 1337.48 Q2149.44 1337.17 2148.79 1337.03 Q2148.17 1336.87 2147.4 1336.87 Q2144.7 1336.87 2143.24 1338.64 Q2141.8 1340.39 2141.8 1343.69 L2141.8 1353.94 L2138.58 1353.94 L2138.58 1334.49 L2141.8 1334.49 L2141.8 1337.51 Q2142.8 1335.74 2144.42 1334.89 Q2146.03 1334.02 2148.34 1334.02 Q2148.67 1334.02 2149.07 1334.08 Q2149.47 1334.11 2149.96 1334.2 L2149.97 1337.48 Z" fill="#000000" fill-rule="evenodd" fill-opacity="1" /><path clip-path="url(#clip580)" d="M2161.41 1355.74 Q2160.06 1359.21 2158.78 1360.27 Q2157.49 1361.33 2155.34 1361.33 L2152.79 1361.33 L2152.79 1358.66 L2154.66 1358.66 Q2155.98 1358.66 2156.71 1358.03 Q2157.44 1357.41 2158.32 1355.08 L2158.9 1353.62 L2151.03 1334.49 L2154.42 1334.49 L2160.49 1349.7 L2166.57 1334.49 L2169.96 1334.49 L2161.41 1355.74 Z" fill="#000000" fill-rule="evenodd" fill-opacity="1" /><path clip-path="url(#clip580)" d="M2190.53 1342.2 L2190.53 1353.94 L2187.33 1353.94 L2187.33 1342.3 Q2187.33 1339.54 2186.26 1338.17 Q2185.18 1336.8 2183.03 1336.8 Q2180.44 1336.8 2178.95 1338.45 Q2177.46 1340.1 2177.46 1342.95 L2177.46 1353.94 L2174.24 1353.94 L2174.24 1334.49 L2177.46 1334.49 L2177.46 1337.51 Q2178.6 1335.76 2180.15 1334.89 Q2181.71 1334.02 2183.74 1334.02 Q2187.09 1334.02 2188.81 1336.11 Q2190.53 1338.17 2190.53 1342.2 Z" fill="#000000" fill-rule="evenodd" fill-opacity="1" /><path clip-path="url(#clip580)" d="M2213.53 1343.42 L2213.53 1344.98 L2198.84 1344.98 Q2199.05 1348.28 2200.82 1350.01 Q2202.61 1351.73 2205.79 1351.73 Q2207.63 1351.73 2209.35 1351.28 Q2211.08 1350.83 2212.79 1349.93 L2212.79 1352.95 Q2211.07 1353.68 2209.26 1354.06 Q2207.46 1354.44 2205.6 1354.44 Q2200.95 1354.44 2198.22 1351.73 Q2195.51 1349.02 2195.51 1344.41 Q2195.51 1339.63 2198.08 1336.84 Q2200.67 1334.02 2205.04 1334.02 Q2208.97 1334.02 2211.24 1336.56 Q2213.53 1339.08 2213.53 1343.42 M2210.34 1342.48 Q2210.3 1339.86 2208.86 1338.29 Q2207.44 1336.73 2205.08 1336.73 Q2202.4 1336.73 2200.79 1338.24 Q2199.19 1339.75 2198.95 1342.5 L2210.34 1342.48 Z" fill="#000000" fill-rule="evenodd" fill-opacity="1" /><path clip-path="url(#clip580)" d="M2218.65 1326.92 L2221.87 1326.92 L2221.87 1342.88 L2231.4 1334.49 L2235.48 1334.49 L2225.16 1343.59 L2235.91 1353.94 L2231.74 1353.94 L2221.87 1344.44 L2221.87 1353.94 L2218.65 1353.94 L2218.65 1326.92 Z" fill="#000000" fill-rule="evenodd" fill-opacity="1" /></svg>
