<?xml version="1.0" encoding="utf-8"?>
<svg xmlns="http://www.w3.org/2000/svg" xmlns:xlink="http://www.w3.org/1999/xlink" width="600" height="400" viewBox="0 0 2400 1600">
<defs>
  <clipPath id="clip250">
    <rect x="0" y="0" width="2400" height="1600"/>
  </clipPath>
</defs>
<path clip-path="url(#clip250)" d="
M0 1600 L2400 1600 L2400 0 L0 0  Z
  " fill="#ffffff" fill-rule="evenodd" fill-opacity="1"/>
<defs>
  <clipPath id="clip251">
    <rect x="480" y="0" width="1681" height="1600"/>
  </clipPath>
</defs>
<path clip-path="url(#clip250)" d="
M249.542 1423.18 L2352.76 1423.18 L2352.76 123.472 L249.542 123.472  Z
  " fill="#ffffff" fill-rule="evenodd" fill-opacity="1"/>
<defs>
  <clipPath id="clip252">
    <rect x="249" y="123" width="2104" height="1301"/>
  </clipPath>
</defs>
<polyline clip-path="url(#clip252)" style="stroke:#000000; stroke-linecap:butt; stroke-linejoin:round; stroke-width:2; stroke-opacity:0.1; fill:none" points="
  501.854,1423.18 501.854,123.472 
  "/>
<polyline clip-path="url(#clip252)" style="stroke:#000000; stroke-linecap:butt; stroke-linejoin:round; stroke-width:2; stroke-opacity:0.1; fill:none" points="
  964.496,1423.18 964.496,123.472 
  "/>
<polyline clip-path="url(#clip252)" style="stroke:#000000; stroke-linecap:butt; stroke-linejoin:round; stroke-width:2; stroke-opacity:0.1; fill:none" points="
  1427.14,1423.18 1427.14,123.472 
  "/>
<polyline clip-path="url(#clip252)" style="stroke:#000000; stroke-linecap:butt; stroke-linejoin:round; stroke-width:2; stroke-opacity:0.1; fill:none" points="
  1889.78,1423.18 1889.78,123.472 
  "/>
<polyline clip-path="url(#clip252)" style="stroke:#000000; stroke-linecap:butt; stroke-linejoin:round; stroke-width:2; stroke-opacity:0.1; fill:none" points="
  2352.42,1423.18 2352.42,123.472 
  "/>
<polyline clip-path="url(#clip250)" style="stroke:#000000; stroke-linecap:butt; stroke-linejoin:round; stroke-width:4; stroke-opacity:1; fill:none" points="
  249.542,1423.18 2352.76,1423.18 
  "/>
<polyline clip-path="url(#clip250)" style="stroke:#000000; stroke-linecap:butt; stroke-linejoin:round; stroke-width:4; stroke-opacity:1; fill:none" points="
  501.854,1423.18 501.854,1404.28 
  "/>
<polyline clip-path="url(#clip250)" style="stroke:#000000; stroke-linecap:butt; stroke-linejoin:round; stroke-width:4; stroke-opacity:1; fill:none" points="
  964.496,1423.18 964.496,1404.28 
  "/>
<polyline clip-path="url(#clip250)" style="stroke:#000000; stroke-linecap:butt; stroke-linejoin:round; stroke-width:4; stroke-opacity:1; fill:none" points="
  1427.14,1423.18 1427.14,1404.28 
  "/>
<polyline clip-path="url(#clip250)" style="stroke:#000000; stroke-linecap:butt; stroke-linejoin:round; stroke-width:4; stroke-opacity:1; fill:none" points="
  1889.78,1423.18 1889.78,1404.28 
  "/>
<polyline clip-path="url(#clip250)" style="stroke:#000000; stroke-linecap:butt; stroke-linejoin:round; stroke-width:4; stroke-opacity:1; fill:none" points="
  2352.42,1423.18 2352.42,1404.28 
  "/>
<path clip-path="url(#clip250)" d="M479.238 1454.1 Q475.627 1454.1 473.799 1457.66 Q471.993 1461.2 471.993 1468.33 Q471.993 1475.44 473.799 1479.01 Q475.627 1482.55 479.238 1482.55 Q482.873 1482.55 484.678 1479.01 Q486.507 1475.44 486.507 1468.33 Q486.507 1461.2 484.678 1457.66 Q482.873 1454.1 479.238 1454.1 M479.238 1450.39 Q485.049 1450.39 488.104 1455 Q491.183 1459.58 491.183 1468.33 Q491.183 1477.06 488.104 1481.67 Q485.049 1486.25 479.238 1486.25 Q473.428 1486.25 470.35 1481.67 Q467.294 1477.06 467.294 1468.33 Q467.294 1459.58 470.35 1455 Q473.428 1450.39 479.238 1450.39 Z" fill="#000000" fill-rule="evenodd" fill-opacity="1" /><path clip-path="url(#clip250)" d="M499.4 1479.7 L504.285 1479.7 L504.285 1485.58 L499.4 1485.58 L499.4 1479.7 Z" fill="#000000" fill-rule="evenodd" fill-opacity="1" /><path clip-path="url(#clip250)" d="M524.47 1454.1 Q520.858 1454.1 519.03 1457.66 Q517.224 1461.2 517.224 1468.33 Q517.224 1475.44 519.03 1479.01 Q520.858 1482.55 524.47 1482.55 Q528.104 1482.55 529.909 1479.01 Q531.738 1475.44 531.738 1468.33 Q531.738 1461.2 529.909 1457.66 Q528.104 1454.1 524.47 1454.1 M524.47 1450.39 Q530.28 1450.39 533.335 1455 Q536.414 1459.58 536.414 1468.33 Q536.414 1477.06 533.335 1481.67 Q530.28 1486.25 524.47 1486.25 Q518.659 1486.25 515.581 1481.67 Q512.525 1477.06 512.525 1468.33 Q512.525 1459.58 515.581 1455 Q518.659 1450.39 524.47 1450.39 Z" fill="#000000" fill-rule="evenodd" fill-opacity="1" /><path clip-path="url(#clip250)" d="M936.232 1481.64 L952.552 1481.64 L952.552 1485.58 L930.607 1485.58 L930.607 1481.64 Q933.269 1478.89 937.853 1474.26 Q942.459 1469.61 943.64 1468.27 Q945.885 1465.74 946.765 1464.01 Q947.667 1462.25 947.667 1460.56 Q947.667 1457.8 945.723 1456.07 Q943.802 1454.33 940.7 1454.33 Q938.501 1454.33 936.047 1455.09 Q933.617 1455.86 930.839 1457.41 L930.839 1452.69 Q933.663 1451.55 936.117 1450.97 Q938.57 1450.39 940.607 1450.39 Q945.978 1450.39 949.172 1453.08 Q952.366 1455.77 952.366 1460.26 Q952.366 1462.39 951.556 1464.31 Q950.769 1466.2 948.663 1468.8 Q948.084 1469.47 944.982 1472.69 Q941.88 1475.88 936.232 1481.64 Z" fill="#000000" fill-rule="evenodd" fill-opacity="1" /><path clip-path="url(#clip250)" d="M962.366 1479.7 L967.251 1479.7 L967.251 1485.58 L962.366 1485.58 L962.366 1479.7 Z" fill="#000000" fill-rule="evenodd" fill-opacity="1" /><path clip-path="url(#clip250)" d="M977.482 1451.02 L995.838 1451.02 L995.838 1454.96 L981.764 1454.96 L981.764 1463.43 Q982.783 1463.08 983.801 1462.92 Q984.82 1462.73 985.838 1462.73 Q991.626 1462.73 995.005 1465.9 Q998.385 1469.08 998.385 1474.49 Q998.385 1480.07 994.913 1483.17 Q991.44 1486.25 985.121 1486.25 Q982.945 1486.25 980.676 1485.88 Q978.431 1485.51 976.024 1484.77 L976.024 1480.07 Q978.107 1481.2 980.329 1481.76 Q982.551 1482.32 985.028 1482.32 Q989.033 1482.32 991.371 1480.21 Q993.709 1478.1 993.709 1474.49 Q993.709 1470.88 991.371 1468.77 Q989.033 1466.67 985.028 1466.67 Q983.153 1466.67 981.278 1467.08 Q979.426 1467.5 977.482 1468.38 L977.482 1451.02 Z" fill="#000000" fill-rule="evenodd" fill-opacity="1" /><path clip-path="url(#clip250)" d="M1394.3 1451.02 L1412.66 1451.02 L1412.66 1454.96 L1398.58 1454.96 L1398.58 1463.43 Q1399.6 1463.08 1400.62 1462.92 Q1401.64 1462.73 1402.66 1462.73 Q1408.45 1462.73 1411.83 1465.9 Q1415.21 1469.08 1415.21 1474.49 Q1415.21 1480.07 1411.73 1483.17 Q1408.26 1486.25 1401.94 1486.25 Q1399.77 1486.25 1397.5 1485.88 Q1395.25 1485.51 1392.84 1484.77 L1392.84 1480.07 Q1394.93 1481.2 1397.15 1481.76 Q1399.37 1482.32 1401.85 1482.32 Q1405.85 1482.32 1408.19 1480.21 Q1410.53 1478.1 1410.53 1474.49 Q1410.53 1470.88 1408.19 1468.77 Q1405.85 1466.67 1401.85 1466.67 Q1399.97 1466.67 1398.1 1467.08 Q1396.25 1467.5 1394.3 1468.38 L1394.3 1451.02 Z" fill="#000000" fill-rule="evenodd" fill-opacity="1" /><path clip-path="url(#clip250)" d="M1424.42 1479.7 L1429.3 1479.7 L1429.3 1485.58 L1424.42 1485.58 L1424.42 1479.7 Z" fill="#000000" fill-rule="evenodd" fill-opacity="1" /><path clip-path="url(#clip250)" d="M1449.49 1454.1 Q1445.88 1454.1 1444.05 1457.66 Q1442.24 1461.2 1442.24 1468.33 Q1442.24 1475.44 1444.05 1479.01 Q1445.88 1482.55 1449.49 1482.55 Q1453.12 1482.55 1454.93 1479.01 Q1456.76 1475.44 1456.76 1468.33 Q1456.76 1461.2 1454.93 1457.66 Q1453.12 1454.1 1449.49 1454.1 M1449.49 1450.39 Q1455.3 1450.39 1458.35 1455 Q1461.43 1459.58 1461.43 1468.33 Q1461.43 1477.06 1458.35 1481.67 Q1455.3 1486.25 1449.49 1486.25 Q1443.68 1486.25 1440.6 1481.67 Q1437.54 1477.06 1437.54 1468.33 Q1437.54 1459.58 1440.6 1455 Q1443.68 1450.39 1449.49 1450.39 Z" fill="#000000" fill-rule="evenodd" fill-opacity="1" /><path clip-path="url(#clip250)" d="M1856.1 1451.02 L1878.32 1451.02 L1878.32 1453.01 L1865.78 1485.58 L1860.89 1485.58 L1872.7 1454.96 L1856.1 1454.96 L1856.1 1451.02 Z" fill="#000000" fill-rule="evenodd" fill-opacity="1" /><path clip-path="url(#clip250)" d="M1887.44 1479.7 L1892.33 1479.7 L1892.33 1485.58 L1887.44 1485.58 L1887.44 1479.7 Z" fill="#000000" fill-rule="evenodd" fill-opacity="1" /><path clip-path="url(#clip250)" d="M1902.56 1451.02 L1920.91 1451.02 L1920.91 1454.96 L1906.84 1454.96 L1906.84 1463.43 Q1907.86 1463.08 1908.88 1462.92 Q1909.9 1462.73 1910.91 1462.73 Q1916.7 1462.73 1920.08 1465.9 Q1923.46 1469.08 1923.46 1474.49 Q1923.46 1480.07 1919.99 1483.17 Q1916.52 1486.25 1910.2 1486.25 Q1908.02 1486.25 1905.75 1485.88 Q1903.51 1485.51 1901.1 1484.77 L1901.1 1480.07 Q1903.18 1481.2 1905.41 1481.76 Q1907.63 1482.32 1910.1 1482.32 Q1914.11 1482.32 1916.45 1480.21 Q1918.78 1478.1 1918.78 1474.49 Q1918.78 1470.88 1916.45 1468.77 Q1914.11 1466.67 1910.1 1466.67 Q1908.23 1466.67 1906.35 1467.08 Q1904.5 1467.5 1902.56 1468.38 L1902.56 1451.02 Z" fill="#000000" fill-rule="evenodd" fill-opacity="1" /><path clip-path="url(#clip250)" d="M2304.49 1481.64 L2312.13 1481.64 L2312.13 1455.28 L2303.82 1456.95 L2303.82 1452.69 L2312.09 1451.02 L2316.76 1451.02 L2316.76 1481.64 L2324.4 1481.64 L2324.4 1485.58 L2304.49 1485.58 L2304.49 1481.64 Z" fill="#000000" fill-rule="evenodd" fill-opacity="1" /><path clip-path="url(#clip250)" d="M2343.85 1454.1 Q2340.23 1454.1 2338.41 1457.66 Q2336.6 1461.2 2336.6 1468.33 Q2336.6 1475.44 2338.41 1479.01 Q2340.23 1482.55 2343.85 1482.55 Q2347.48 1482.55 2349.29 1479.01 Q2351.11 1475.44 2351.11 1468.33 Q2351.11 1461.2 2349.29 1457.66 Q2347.48 1454.1 2343.85 1454.1 M2343.85 1450.39 Q2349.66 1450.39 2352.71 1455 Q2355.79 1459.58 2355.79 1468.33 Q2355.79 1477.06 2352.71 1481.67 Q2349.66 1486.25 2343.85 1486.25 Q2338.04 1486.25 2334.96 1481.67 Q2331.9 1477.06 2331.9 1468.33 Q2331.9 1459.58 2334.96 1455 Q2338.04 1450.39 2343.85 1450.39 Z" fill="#000000" fill-rule="evenodd" fill-opacity="1" /><path clip-path="url(#clip250)" d="M2364.01 1479.7 L2368.89 1479.7 L2368.89 1485.58 L2364.01 1485.58 L2364.01 1479.7 Z" fill="#000000" fill-rule="evenodd" fill-opacity="1" /><path clip-path="url(#clip250)" d="M2389.08 1454.1 Q2385.47 1454.1 2383.64 1457.66 Q2381.83 1461.2 2381.83 1468.33 Q2381.83 1475.44 2383.64 1479.01 Q2385.47 1482.55 2389.08 1482.55 Q2392.71 1482.55 2394.52 1479.01 Q2396.35 1475.44 2396.35 1468.33 Q2396.35 1461.2 2394.52 1457.66 Q2392.71 1454.1 2389.08 1454.1 M2389.08 1450.39 Q2394.89 1450.39 2397.94 1455 Q2401.02 1459.58 2401.02 1468.33 Q2401.02 1477.06 2397.94 1481.67 Q2394.89 1486.25 2389.08 1486.25 Q2383.27 1486.25 2380.19 1481.67 Q2377.13 1477.06 2377.13 1468.33 Q2377.13 1459.58 2380.19 1455 Q2383.27 1450.39 2389.08 1450.39 Z" fill="#000000" fill-rule="evenodd" fill-opacity="1" /><path clip-path="url(#clip250)" d="M944.542 1520.52 L953.199 1520.52 L974.27 1560.28 L974.27 1520.52 L980.508 1520.52 L980.508 1568.04 L971.851 1568.04 L950.78 1528.29 L950.78 1568.04 L944.542 1568.04 L944.542 1520.52 Z" fill="#000000" fill-rule="evenodd" fill-opacity="1" /><path clip-path="url(#clip250)" d="M1009.25 1550.12 Q1002.15 1550.12 999.414 1551.75 Q996.677 1553.37 996.677 1557.29 Q996.677 1560.4 998.714 1562.25 Q1000.78 1564.07 1004.32 1564.07 Q1009.19 1564.07 1012.11 1560.63 Q1015.07 1557.16 1015.07 1551.43 L1015.07 1550.12 L1009.25 1550.12 M1020.93 1547.71 L1020.93 1568.04 L1015.07 1568.04 L1015.07 1562.63 Q1013.07 1565.88 1010.08 1567.44 Q1007.09 1568.97 1002.76 1568.97 Q997.282 1568.97 994.035 1565.91 Q990.821 1562.82 990.821 1557.67 Q990.821 1551.65 994.831 1548.6 Q998.873 1545.54 1006.86 1545.54 L1015.07 1545.54 L1015.07 1544.97 Q1015.07 1540.93 1012.4 1538.73 Q1009.76 1536.5 1004.95 1536.5 Q1001.9 1536.5 999.001 1537.23 Q996.104 1537.97 993.431 1539.43 L993.431 1534.02 Q996.645 1532.78 999.669 1532.17 Q1002.69 1531.54 1005.56 1531.54 Q1013.29 1531.54 1017.11 1535.55 Q1020.93 1539.56 1020.93 1547.71 Z" fill="#000000" fill-rule="evenodd" fill-opacity="1" /><path clip-path="url(#clip250)" d="M1056.45 1537.81 L1056.45 1518.52 L1062.31 1518.52 L1062.31 1568.04 L1056.45 1568.04 L1056.45 1562.7 Q1054.61 1565.88 1051.77 1567.44 Q1048.97 1568.97 1045.02 1568.97 Q1038.56 1568.97 1034.49 1563.81 Q1030.45 1558.65 1030.45 1550.25 Q1030.45 1541.85 1034.49 1536.69 Q1038.56 1531.54 1045.02 1531.54 Q1048.97 1531.54 1051.77 1533.1 Q1054.61 1534.62 1056.45 1537.81 M1036.49 1550.25 Q1036.49 1556.71 1039.14 1560.4 Q1041.81 1564.07 1046.46 1564.07 Q1051.1 1564.07 1053.78 1560.4 Q1056.45 1556.71 1056.45 1550.25 Q1056.45 1543.79 1053.78 1540.13 Q1051.1 1536.44 1046.46 1536.44 Q1041.81 1536.44 1039.14 1540.13 Q1036.49 1543.79 1036.49 1550.25 Z" fill="#000000" fill-rule="evenodd" fill-opacity="1" /><path clip-path="url(#clip250)" d="M1070.97 1532.4 L1076.82 1532.4 L1084.14 1560.21 L1091.43 1532.4 L1098.34 1532.4 L1105.66 1560.21 L1112.95 1532.4 L1118.8 1532.4 L1109.48 1568.04 L1102.57 1568.04 L1094.9 1538.83 L1087.2 1568.04 L1080.29 1568.04 L1070.97 1532.4 Z" fill="#000000" fill-rule="evenodd" fill-opacity="1" /><path clip-path="url(#clip250)" d="M1142.52 1571.35 Q1140.03 1577.72 1137.68 1579.66 Q1135.32 1581.6 1131.38 1581.6 L1126.7 1581.6 L1126.7 1576.7 L1130.13 1576.7 Q1132.55 1576.7 1133.89 1575.56 Q1135.23 1574.41 1136.85 1570.14 L1137.9 1567.47 L1123.48 1532.4 L1129.69 1532.4 L1140.83 1560.28 L1151.97 1532.4 L1158.18 1532.4 L1142.52 1571.35 Z" fill="#000000" fill-rule="evenodd" fill-opacity="1" /><path clip-path="url(#clip250)" d="M1174.15 1518.52 L1180.01 1518.52 L1180.01 1525.93 L1174.15 1525.93 L1174.15 1518.52 M1177.15 1531.54 L1177.15 1531.54 M1163.71 1532.4 L1191.53 1532.4 L1191.53 1537.74 L1169.51 1563.37 L1191.53 1563.37 L1191.53 1568.04 L1162.92 1568.04 L1162.92 1562.7 L1184.94 1537.07 L1163.71 1537.07 L1163.71 1532.4 Z" fill="#000000" fill-rule="evenodd" fill-opacity="1" /><path clip-path="url(#clip250)" d="M1200.25 1518.52 L1206.14 1518.52 L1206.14 1547.77 L1223.61 1532.4 L1231.09 1532.4 L1212.19 1549.07 L1231.89 1568.04 L1224.25 1568.04 L1206.14 1550.63 L1206.14 1568.04 L1200.25 1568.04 L1200.25 1518.52 Z" fill="#000000" fill-rule="evenodd" fill-opacity="1" /><path clip-path="url(#clip250)" d="M1253.28 1550.12 Q1246.18 1550.12 1243.44 1551.75 Q1240.71 1553.37 1240.71 1557.29 Q1240.71 1560.4 1242.74 1562.25 Q1244.81 1564.07 1248.35 1564.07 Q1253.22 1564.07 1256.14 1560.63 Q1259.1 1557.16 1259.1 1551.43 L1259.1 1550.12 L1253.28 1550.12 M1264.96 1547.71 L1264.96 1568.04 L1259.1 1568.04 L1259.1 1562.63 Q1257.1 1565.88 1254.11 1567.44 Q1251.11 1568.97 1246.79 1568.97 Q1241.31 1568.97 1238.06 1565.91 Q1234.85 1562.82 1234.85 1557.67 Q1234.85 1551.65 1238.86 1548.6 Q1242.9 1545.54 1250.89 1545.54 L1259.1 1545.54 L1259.1 1544.97 Q1259.1 1540.93 1256.43 1538.73 Q1253.79 1536.5 1248.98 1536.5 Q1245.93 1536.5 1243.03 1537.23 Q1240.13 1537.97 1237.46 1539.43 L1237.46 1534.02 Q1240.67 1532.78 1243.7 1532.17 Q1246.72 1531.54 1249.59 1531.54 Q1257.32 1531.54 1261.14 1535.55 Q1264.96 1539.56 1264.96 1547.71 Z" fill="#000000" fill-rule="evenodd" fill-opacity="1" /><path clip-path="url(#clip250)" d="M1303.41 1562.7 L1303.41 1581.6 L1297.52 1581.6 L1297.52 1532.4 L1303.41 1532.4 L1303.41 1537.81 Q1305.25 1534.62 1308.06 1533.1 Q1310.89 1531.54 1314.8 1531.54 Q1321.3 1531.54 1325.34 1536.69 Q1329.41 1541.85 1329.41 1550.25 Q1329.41 1558.65 1325.34 1563.81 Q1321.3 1568.97 1314.8 1568.97 Q1310.89 1568.97 1308.06 1567.44 Q1305.25 1565.88 1303.41 1562.7 M1323.33 1550.25 Q1323.33 1543.79 1320.66 1540.13 Q1318.02 1536.44 1313.37 1536.44 Q1308.72 1536.44 1306.05 1540.13 Q1303.41 1543.79 1303.41 1550.25 Q1303.41 1556.71 1306.05 1560.4 Q1308.72 1564.07 1313.37 1564.07 Q1318.02 1564.07 1320.66 1560.4 Q1323.33 1556.71 1323.33 1550.25 Z" fill="#000000" fill-rule="evenodd" fill-opacity="1" /><path clip-path="url(#clip250)" d="M1359.78 1537.87 Q1358.79 1537.3 1357.61 1537.04 Q1356.47 1536.76 1355.07 1536.76 Q1350.1 1536.76 1347.43 1540 Q1344.79 1543.22 1344.79 1549.27 L1344.79 1568.04 L1338.9 1568.04 L1338.9 1532.4 L1344.79 1532.4 L1344.79 1537.93 Q1346.63 1534.69 1349.59 1533.13 Q1352.55 1531.54 1356.79 1531.54 Q1357.39 1531.54 1358.12 1531.63 Q1358.85 1531.7 1359.75 1531.85 L1359.78 1537.87 Z" fill="#000000" fill-rule="evenodd" fill-opacity="1" /><path clip-path="url(#clip250)" d="M1378.3 1536.5 Q1373.59 1536.5 1370.85 1540.19 Q1368.12 1543.85 1368.12 1550.25 Q1368.12 1556.65 1370.82 1560.34 Q1373.56 1564 1378.3 1564 Q1382.98 1564 1385.72 1560.31 Q1388.45 1556.62 1388.45 1550.25 Q1388.45 1543.92 1385.72 1540.23 Q1382.98 1536.5 1378.3 1536.5 M1378.3 1531.54 Q1385.94 1531.54 1390.3 1536.5 Q1394.66 1541.47 1394.66 1550.25 Q1394.66 1559 1390.3 1564 Q1385.94 1568.97 1378.3 1568.97 Q1370.63 1568.97 1366.27 1564 Q1361.94 1559 1361.94 1550.25 Q1361.94 1541.47 1366.27 1536.5 Q1370.63 1531.54 1378.3 1531.54 Z" fill="#000000" fill-rule="evenodd" fill-opacity="1" /><path clip-path="url(#clip250)" d="M1427.83 1537.81 L1427.83 1518.52 L1433.68 1518.52 L1433.68 1568.04 L1427.83 1568.04 L1427.83 1562.7 Q1425.98 1565.88 1423.15 1567.44 Q1420.35 1568.97 1416.4 1568.97 Q1409.94 1568.97 1405.86 1563.81 Q1401.82 1558.65 1401.82 1550.25 Q1401.82 1541.85 1405.86 1536.69 Q1409.94 1531.54 1416.4 1531.54 Q1420.35 1531.54 1423.15 1533.1 Q1425.98 1534.62 1427.83 1537.81 M1407.87 1550.25 Q1407.87 1556.71 1410.51 1560.4 Q1413.19 1564.07 1417.83 1564.07 Q1422.48 1564.07 1425.15 1560.4 Q1427.83 1556.71 1427.83 1550.25 Q1427.83 1543.79 1425.15 1540.13 Q1422.48 1536.44 1417.83 1536.44 Q1413.19 1536.44 1410.51 1540.13 Q1407.87 1543.79 1407.87 1550.25 Z" fill="#000000" fill-rule="evenodd" fill-opacity="1" /><path clip-path="url(#clip250)" d="M1445.14 1553.98 L1445.14 1532.4 L1451 1532.4 L1451 1553.75 Q1451 1558.81 1452.97 1561.36 Q1454.94 1563.87 1458.89 1563.87 Q1463.63 1563.87 1466.37 1560.85 Q1469.14 1557.83 1469.14 1552.61 L1469.14 1532.4 L1475 1532.4 L1475 1568.04 L1469.14 1568.04 L1469.14 1562.57 Q1467.01 1565.82 1464.17 1567.41 Q1461.37 1568.97 1457.65 1568.97 Q1451.51 1568.97 1448.32 1565.15 Q1445.14 1561.33 1445.14 1553.98 M1459.88 1531.54 L1459.88 1531.54 Z" fill="#000000" fill-rule="evenodd" fill-opacity="1" /><path clip-path="url(#clip250)" d="M1512.71 1533.76 L1512.71 1539.24 Q1510.23 1537.87 1507.72 1537.2 Q1505.23 1536.5 1502.69 1536.5 Q1496.99 1536.5 1493.84 1540.13 Q1490.69 1543.73 1490.69 1550.25 Q1490.69 1556.78 1493.84 1560.4 Q1496.99 1564 1502.69 1564 Q1505.23 1564 1507.72 1563.33 Q1510.23 1562.63 1512.71 1561.26 L1512.71 1566.68 Q1510.26 1567.82 1507.62 1568.39 Q1505.01 1568.97 1502.05 1568.97 Q1494 1568.97 1489.26 1563.91 Q1484.51 1558.85 1484.51 1550.25 Q1484.51 1541.53 1489.29 1536.53 Q1494.09 1531.54 1502.43 1531.54 Q1505.14 1531.54 1507.72 1532.11 Q1510.29 1532.65 1512.71 1533.76 Z" fill="#000000" fill-rule="evenodd" fill-opacity="1" /><path clip-path="url(#clip250)" d="M1553.39 1548.76 L1553.39 1551.62 L1526.46 1551.62 Q1526.85 1557.67 1530.09 1560.85 Q1533.37 1564 1539.19 1564 Q1542.57 1564 1545.72 1563.17 Q1548.9 1562.35 1552.02 1560.69 L1552.02 1566.23 Q1548.87 1567.57 1545.56 1568.27 Q1542.25 1568.97 1538.84 1568.97 Q1530.31 1568.97 1525.32 1564 Q1520.35 1559.04 1520.35 1550.57 Q1520.35 1541.82 1525.06 1536.69 Q1529.81 1531.54 1537.83 1531.54 Q1545.02 1531.54 1549.19 1536.18 Q1553.39 1540.8 1553.39 1548.76 M1547.53 1547.04 Q1547.47 1542.23 1544.83 1539.37 Q1542.22 1536.5 1537.89 1536.5 Q1532.99 1536.5 1530.03 1539.27 Q1527.1 1542.04 1526.65 1547.07 L1547.53 1547.04 Z" fill="#000000" fill-rule="evenodd" fill-opacity="1" /><path clip-path="url(#clip250)" d="M1592.63 1546.53 L1592.63 1568.04 L1586.78 1568.04 L1586.78 1546.72 Q1586.78 1541.66 1584.8 1539.14 Q1582.83 1536.63 1578.88 1536.63 Q1574.14 1536.63 1571.41 1539.65 Q1568.67 1542.68 1568.67 1547.9 L1568.67 1568.04 L1562.78 1568.04 L1562.78 1532.4 L1568.67 1532.4 L1568.67 1537.93 Q1570.77 1534.72 1573.6 1533.13 Q1576.47 1531.54 1580.19 1531.54 Q1586.33 1531.54 1589.48 1535.36 Q1592.63 1539.14 1592.63 1546.53 Z" fill="#000000" fill-rule="evenodd" fill-opacity="1" /><path clip-path="url(#clip250)" d="M1610.11 1522.27 L1610.11 1532.4 L1622.17 1532.4 L1622.17 1536.95 L1610.11 1536.95 L1610.11 1556.3 Q1610.11 1560.66 1611.29 1561.9 Q1612.5 1563.14 1616.16 1563.14 L1622.17 1563.14 L1622.17 1568.04 L1616.16 1568.04 Q1609.38 1568.04 1606.8 1565.53 Q1604.22 1562.98 1604.22 1556.3 L1604.22 1536.95 L1599.92 1536.95 L1599.92 1532.4 L1604.22 1532.4 L1604.22 1522.27 L1610.11 1522.27 Z" fill="#000000" fill-rule="evenodd" fill-opacity="1" /><path clip-path="url(#clip250)" d="M1646.07 1550.12 Q1638.98 1550.12 1636.24 1551.75 Q1633.5 1553.37 1633.5 1557.29 Q1633.5 1560.4 1635.54 1562.25 Q1637.61 1564.07 1641.14 1564.07 Q1646.01 1564.07 1648.94 1560.63 Q1651.9 1557.16 1651.9 1551.43 L1651.9 1550.12 L1646.07 1550.12 M1657.76 1547.71 L1657.76 1568.04 L1651.9 1568.04 L1651.9 1562.63 Q1649.89 1565.88 1646.9 1567.44 Q1643.91 1568.97 1639.58 1568.97 Q1634.11 1568.97 1630.86 1565.91 Q1627.65 1562.82 1627.65 1557.67 Q1627.65 1551.65 1631.66 1548.6 Q1635.7 1545.54 1643.69 1545.54 L1651.9 1545.54 L1651.9 1544.97 Q1651.9 1540.93 1649.23 1538.73 Q1646.58 1536.5 1641.78 1536.5 Q1638.72 1536.5 1635.83 1537.23 Q1632.93 1537.97 1630.26 1539.43 L1630.26 1534.02 Q1633.47 1532.78 1636.49 1532.17 Q1639.52 1531.54 1642.38 1531.54 Q1650.12 1531.54 1653.94 1535.55 Q1657.76 1539.56 1657.76 1547.71 Z" fill="#000000" fill-rule="evenodd" fill-opacity="1" /><polyline clip-path="url(#clip252)" style="stroke:#000000; stroke-linecap:butt; stroke-linejoin:round; stroke-width:2; stroke-opacity:0.1; fill:none" points="
  249.542,1388.85 2352.76,1388.85 
  "/>
<polyline clip-path="url(#clip252)" style="stroke:#000000; stroke-linecap:butt; stroke-linejoin:round; stroke-width:2; stroke-opacity:0.1; fill:none" points="
  249.542,1081.7 2352.76,1081.7 
  "/>
<polyline clip-path="url(#clip252)" style="stroke:#000000; stroke-linecap:butt; stroke-linejoin:round; stroke-width:2; stroke-opacity:0.1; fill:none" points="
  249.542,774.555 2352.76,774.555 
  "/>
<polyline clip-path="url(#clip252)" style="stroke:#000000; stroke-linecap:butt; stroke-linejoin:round; stroke-width:2; stroke-opacity:0.1; fill:none" points="
  249.542,467.405 2352.76,467.405 
  "/>
<polyline clip-path="url(#clip252)" style="stroke:#000000; stroke-linecap:butt; stroke-linejoin:round; stroke-width:2; stroke-opacity:0.1; fill:none" points="
  249.542,160.256 2352.76,160.256 
  "/>
<polyline clip-path="url(#clip250)" style="stroke:#000000; stroke-linecap:butt; stroke-linejoin:round; stroke-width:4; stroke-opacity:1; fill:none" points="
  249.542,1423.18 249.542,123.472 
  "/>
<polyline clip-path="url(#clip250)" style="stroke:#000000; stroke-linecap:butt; stroke-linejoin:round; stroke-width:4; stroke-opacity:1; fill:none" points="
  249.542,1388.85 268.44,1388.85 
  "/>
<polyline clip-path="url(#clip250)" style="stroke:#000000; stroke-linecap:butt; stroke-linejoin:round; stroke-width:4; stroke-opacity:1; fill:none" points="
  249.542,1081.7 268.44,1081.7 
  "/>
<polyline clip-path="url(#clip250)" style="stroke:#000000; stroke-linecap:butt; stroke-linejoin:round; stroke-width:4; stroke-opacity:1; fill:none" points="
  249.542,774.555 268.44,774.555 
  "/>
<polyline clip-path="url(#clip250)" style="stroke:#000000; stroke-linecap:butt; stroke-linejoin:round; stroke-width:4; stroke-opacity:1; fill:none" points="
  249.542,467.405 268.44,467.405 
  "/>
<polyline clip-path="url(#clip250)" style="stroke:#000000; stroke-linecap:butt; stroke-linejoin:round; stroke-width:4; stroke-opacity:1; fill:none" points="
  249.542,160.256 268.44,160.256 
  "/>
<path clip-path="url(#clip250)" d="M126.205 1374.65 Q122.593 1374.65 120.765 1378.22 Q118.959 1381.76 118.959 1388.89 Q118.959 1395.99 120.765 1399.56 Q122.593 1403.1 126.205 1403.1 Q129.839 1403.1 131.644 1399.56 Q133.473 1395.99 133.473 1388.89 Q133.473 1381.76 131.644 1378.22 Q129.839 1374.65 126.205 1374.65 M126.205 1370.95 Q132.015 1370.95 135.07 1375.55 Q138.149 1380.14 138.149 1388.89 Q138.149 1397.61 135.07 1402.22 Q132.015 1406.8 126.205 1406.8 Q120.394 1406.8 117.316 1402.22 Q114.26 1397.61 114.26 1388.89 Q114.26 1380.14 117.316 1375.55 Q120.394 1370.95 126.205 1370.95 Z" fill="#000000" fill-rule="evenodd" fill-opacity="1" /><path clip-path="url(#clip250)" d="M146.366 1400.25 L151.251 1400.25 L151.251 1406.13 L146.366 1406.13 L146.366 1400.25 Z" fill="#000000" fill-rule="evenodd" fill-opacity="1" /><path clip-path="url(#clip250)" d="M171.436 1374.65 Q167.825 1374.65 165.996 1378.22 Q164.19 1381.76 164.19 1388.89 Q164.19 1395.99 165.996 1399.56 Q167.825 1403.1 171.436 1403.1 Q175.07 1403.1 176.876 1399.56 Q178.704 1395.99 178.704 1388.89 Q178.704 1381.76 176.876 1378.22 Q175.07 1374.65 171.436 1374.65 M171.436 1370.95 Q177.246 1370.95 180.301 1375.55 Q183.38 1380.14 183.38 1388.89 Q183.38 1397.61 180.301 1402.22 Q177.246 1406.8 171.436 1406.8 Q165.626 1406.8 162.547 1402.22 Q159.491 1397.61 159.491 1388.89 Q159.491 1380.14 162.547 1375.55 Q165.626 1370.95 171.436 1370.95 Z" fill="#000000" fill-rule="evenodd" fill-opacity="1" /><path clip-path="url(#clip250)" d="M201.598 1374.65 Q197.987 1374.65 196.158 1378.22 Q194.352 1381.76 194.352 1388.89 Q194.352 1395.99 196.158 1399.56 Q197.987 1403.1 201.598 1403.1 Q205.232 1403.1 207.037 1399.56 Q208.866 1395.99 208.866 1388.89 Q208.866 1381.76 207.037 1378.22 Q205.232 1374.65 201.598 1374.65 M201.598 1370.95 Q207.408 1370.95 210.463 1375.55 Q213.542 1380.14 213.542 1388.89 Q213.542 1397.61 210.463 1402.22 Q207.408 1406.8 201.598 1406.8 Q195.787 1406.8 192.709 1402.22 Q189.653 1397.61 189.653 1388.89 Q189.653 1380.14 192.709 1375.55 Q195.787 1370.95 201.598 1370.95 Z" fill="#000000" fill-rule="evenodd" fill-opacity="1" /><path clip-path="url(#clip250)" d="M127.2 1067.5 Q123.589 1067.5 121.76 1071.07 Q119.955 1074.61 119.955 1081.74 Q119.955 1088.84 121.76 1092.41 Q123.589 1095.95 127.2 1095.95 Q130.834 1095.95 132.64 1092.41 Q134.468 1088.84 134.468 1081.74 Q134.468 1074.61 132.64 1071.07 Q130.834 1067.5 127.2 1067.5 M127.2 1063.8 Q133.01 1063.8 136.066 1068.41 Q139.144 1072.99 139.144 1081.74 Q139.144 1090.47 136.066 1095.07 Q133.01 1099.66 127.2 1099.66 Q121.39 1099.66 118.311 1095.07 Q115.256 1090.47 115.256 1081.74 Q115.256 1072.99 118.311 1068.41 Q121.39 1063.8 127.2 1063.8 Z" fill="#000000" fill-rule="evenodd" fill-opacity="1" /><path clip-path="url(#clip250)" d="M147.362 1093.1 L152.246 1093.1 L152.246 1098.98 L147.362 1098.98 L147.362 1093.1 Z" fill="#000000" fill-rule="evenodd" fill-opacity="1" /><path clip-path="url(#clip250)" d="M166.459 1095.05 L182.778 1095.05 L182.778 1098.98 L160.834 1098.98 L160.834 1095.05 Q163.496 1092.29 168.079 1087.66 Q172.686 1083.01 173.866 1081.67 Q176.112 1079.15 176.991 1077.41 Q177.894 1075.65 177.894 1073.96 Q177.894 1071.21 175.95 1069.47 Q174.028 1067.73 170.927 1067.73 Q168.727 1067.73 166.274 1068.5 Q163.843 1069.26 161.065 1070.81 L161.065 1066.09 Q163.89 1064.96 166.343 1064.38 Q168.797 1063.8 170.834 1063.8 Q176.204 1063.8 179.399 1066.48 Q182.593 1069.17 182.593 1073.66 Q182.593 1075.79 181.783 1077.71 Q180.996 1079.61 178.889 1082.2 Q178.311 1082.87 175.209 1086.09 Q172.107 1089.28 166.459 1095.05 Z" fill="#000000" fill-rule="evenodd" fill-opacity="1" /><path clip-path="url(#clip250)" d="M192.639 1064.42 L210.996 1064.42 L210.996 1068.36 L196.922 1068.36 L196.922 1076.83 Q197.94 1076.48 198.959 1076.32 Q199.977 1076.14 200.996 1076.14 Q206.783 1076.14 210.162 1079.31 Q213.542 1082.48 213.542 1087.9 Q213.542 1093.47 210.07 1096.58 Q206.598 1099.66 200.278 1099.66 Q198.102 1099.66 195.834 1099.28 Q193.588 1098.91 191.181 1098.17 L191.181 1093.47 Q193.264 1094.61 195.487 1095.16 Q197.709 1095.72 200.186 1095.72 Q204.19 1095.72 206.528 1093.61 Q208.866 1091.51 208.866 1087.9 Q208.866 1084.28 206.528 1082.18 Q204.19 1080.07 200.186 1080.07 Q198.311 1080.07 196.436 1080.49 Q194.584 1080.91 192.639 1081.78 L192.639 1064.42 Z" fill="#000000" fill-rule="evenodd" fill-opacity="1" /><path clip-path="url(#clip250)" d="M126.205 760.353 Q122.593 760.353 120.765 763.918 Q118.959 767.46 118.959 774.589 Q118.959 781.696 120.765 785.261 Q122.593 788.802 126.205 788.802 Q129.839 788.802 131.644 785.261 Q133.473 781.696 133.473 774.589 Q133.473 767.46 131.644 763.918 Q129.839 760.353 126.205 760.353 M126.205 756.65 Q132.015 756.65 135.07 761.256 Q138.149 765.839 138.149 774.589 Q138.149 783.316 135.07 787.923 Q132.015 792.506 126.205 792.506 Q120.394 792.506 117.316 787.923 Q114.26 783.316 114.26 774.589 Q114.26 765.839 117.316 761.256 Q120.394 756.65 126.205 756.65 Z" fill="#000000" fill-rule="evenodd" fill-opacity="1" /><path clip-path="url(#clip250)" d="M146.366 785.955 L151.251 785.955 L151.251 791.835 L146.366 791.835 L146.366 785.955 Z" fill="#000000" fill-rule="evenodd" fill-opacity="1" /><path clip-path="url(#clip250)" d="M161.482 757.275 L179.839 757.275 L179.839 761.21 L165.765 761.21 L165.765 769.682 Q166.783 769.335 167.802 769.173 Q168.82 768.987 169.839 768.987 Q175.626 768.987 179.005 772.159 Q182.385 775.33 182.385 780.747 Q182.385 786.325 178.913 789.427 Q175.44 792.506 169.121 792.506 Q166.945 792.506 164.677 792.136 Q162.431 791.765 160.024 791.024 L160.024 786.325 Q162.107 787.46 164.329 788.015 Q166.552 788.571 169.028 788.571 Q173.033 788.571 175.371 786.464 Q177.709 784.358 177.709 780.747 Q177.709 777.136 175.371 775.029 Q173.033 772.923 169.028 772.923 Q167.153 772.923 165.278 773.339 Q163.427 773.756 161.482 774.636 L161.482 757.275 Z" fill="#000000" fill-rule="evenodd" fill-opacity="1" /><path clip-path="url(#clip250)" d="M201.598 760.353 Q197.987 760.353 196.158 763.918 Q194.352 767.46 194.352 774.589 Q194.352 781.696 196.158 785.261 Q197.987 788.802 201.598 788.802 Q205.232 788.802 207.037 785.261 Q208.866 781.696 208.866 774.589 Q208.866 767.46 207.037 763.918 Q205.232 760.353 201.598 760.353 M201.598 756.65 Q207.408 756.65 210.463 761.256 Q213.542 765.839 213.542 774.589 Q213.542 783.316 210.463 787.923 Q207.408 792.506 201.598 792.506 Q195.787 792.506 192.709 787.923 Q189.653 783.316 189.653 774.589 Q189.653 765.839 192.709 761.256 Q195.787 756.65 201.598 756.65 Z" fill="#000000" fill-rule="evenodd" fill-opacity="1" /><path clip-path="url(#clip250)" d="M127.2 453.204 Q123.589 453.204 121.76 456.769 Q119.955 460.311 119.955 467.44 Q119.955 474.547 121.76 478.111 Q123.589 481.653 127.2 481.653 Q130.834 481.653 132.64 478.111 Q134.468 474.547 134.468 467.44 Q134.468 460.311 132.64 456.769 Q130.834 453.204 127.2 453.204 M127.2 449.5 Q133.01 449.5 136.066 454.107 Q139.144 458.69 139.144 467.44 Q139.144 476.167 136.066 480.773 Q133.01 485.357 127.2 485.357 Q121.39 485.357 118.311 480.773 Q115.256 476.167 115.256 467.44 Q115.256 458.69 118.311 454.107 Q121.39 449.5 127.2 449.5 Z" fill="#000000" fill-rule="evenodd" fill-opacity="1" /><path clip-path="url(#clip250)" d="M147.362 478.806 L152.246 478.806 L152.246 484.685 L147.362 484.685 L147.362 478.806 Z" fill="#000000" fill-rule="evenodd" fill-opacity="1" /><path clip-path="url(#clip250)" d="M161.251 450.125 L183.473 450.125 L183.473 452.116 L170.927 484.685 L166.042 484.685 L177.848 454.061 L161.251 454.061 L161.251 450.125 Z" fill="#000000" fill-rule="evenodd" fill-opacity="1" /><path clip-path="url(#clip250)" d="M192.639 450.125 L210.996 450.125 L210.996 454.061 L196.922 454.061 L196.922 462.533 Q197.94 462.186 198.959 462.024 Q199.977 461.838 200.996 461.838 Q206.783 461.838 210.162 465.01 Q213.542 468.181 213.542 473.598 Q213.542 479.176 210.07 482.278 Q206.598 485.357 200.278 485.357 Q198.102 485.357 195.834 484.986 Q193.588 484.616 191.181 483.875 L191.181 479.176 Q193.264 480.31 195.487 480.866 Q197.709 481.422 200.186 481.422 Q204.19 481.422 206.528 479.315 Q208.866 477.209 208.866 473.598 Q208.866 469.986 206.528 467.88 Q204.19 465.774 200.186 465.774 Q198.311 465.774 196.436 466.19 Q194.584 466.607 192.639 467.486 L192.639 450.125 Z" fill="#000000" fill-rule="evenodd" fill-opacity="1" /><path clip-path="url(#clip250)" d="M117.015 173.601 L124.654 173.601 L124.654 147.236 L116.343 148.902 L116.343 144.643 L124.607 142.976 L129.283 142.976 L129.283 173.601 L136.922 173.601 L136.922 177.536 L117.015 177.536 L117.015 173.601 Z" fill="#000000" fill-rule="evenodd" fill-opacity="1" /><path clip-path="url(#clip250)" d="M146.366 171.657 L151.251 171.657 L151.251 177.536 L146.366 177.536 L146.366 171.657 Z" fill="#000000" fill-rule="evenodd" fill-opacity="1" /><path clip-path="url(#clip250)" d="M171.436 146.055 Q167.825 146.055 165.996 149.62 Q164.19 153.161 164.19 160.291 Q164.19 167.397 165.996 170.962 Q167.825 174.504 171.436 174.504 Q175.07 174.504 176.876 170.962 Q178.704 167.397 178.704 160.291 Q178.704 153.161 176.876 149.62 Q175.07 146.055 171.436 146.055 M171.436 142.351 Q177.246 142.351 180.301 146.958 Q183.38 151.541 183.38 160.291 Q183.38 169.018 180.301 173.624 Q177.246 178.208 171.436 178.208 Q165.626 178.208 162.547 173.624 Q159.491 169.018 159.491 160.291 Q159.491 151.541 162.547 146.958 Q165.626 142.351 171.436 142.351 Z" fill="#000000" fill-rule="evenodd" fill-opacity="1" /><path clip-path="url(#clip250)" d="M201.598 146.055 Q197.987 146.055 196.158 149.62 Q194.352 153.161 194.352 160.291 Q194.352 167.397 196.158 170.962 Q197.987 174.504 201.598 174.504 Q205.232 174.504 207.037 170.962 Q208.866 167.397 208.866 160.291 Q208.866 153.161 207.037 149.62 Q205.232 146.055 201.598 146.055 M201.598 142.351 Q207.408 142.351 210.463 146.958 Q213.542 151.541 213.542 160.291 Q213.542 169.018 210.463 173.624 Q207.408 178.208 201.598 178.208 Q195.787 178.208 192.709 173.624 Q189.653 169.018 189.653 160.291 Q189.653 151.541 192.709 146.958 Q195.787 142.351 201.598 142.351 Z" fill="#000000" fill-rule="evenodd" fill-opacity="1" /><path clip-path="url(#clip250)" d="M16.4842 830.792 L16.4842 803.484 L21.895 803.484 L21.895 824.363 L35.8996 824.363 L35.8996 805.521 L41.3104 805.521 L41.3104 824.363 L64.0042 824.363 L64.0042 830.792 L16.4842 830.792 Z" fill="#000000" fill-rule="evenodd" fill-opacity="1" /><path clip-path="url(#clip250)" d="M14.5426 779.485 Q21.8632 783.75 29.0246 785.819 Q36.186 787.888 43.5384 787.888 Q50.8908 787.888 58.1159 785.819 Q65.3091 783.718 72.5979 779.485 L72.5979 784.577 Q65.1182 789.352 57.8931 791.739 Q50.668 794.094 43.5384 794.094 Q36.4406 794.094 29.2474 791.739 Q22.0542 789.383 14.5426 784.577 L14.5426 779.485 Z" fill="#000000" fill-rule="evenodd" fill-opacity="1" /><path clip-path="url(#clip250)" d="M28.3562 738.49 L45.7028 751.38 L64.0042 737.821 L64.0042 744.728 L49.9996 755.104 L64.0042 765.48 L64.0042 772.387 L45.3526 758.542 L28.3562 771.209 L28.3562 764.303 L41.0558 754.85 L28.3562 745.396 L28.3562 738.49 Z" fill="#000000" fill-rule="evenodd" fill-opacity="1" /><path clip-path="url(#clip250)" d="M14.5426 730.469 L14.5426 725.376 Q22.0542 720.602 29.2474 718.247 Q36.4406 715.86 43.5384 715.86 Q50.668 715.86 57.8931 718.247 Q65.1182 720.602 72.5979 725.376 L72.5979 730.469 Q65.3091 726.236 58.1159 724.167 Q50.8908 722.066 43.5384 722.066 Q36.186 722.066 29.0246 724.167 Q21.8632 726.236 14.5426 730.469 Z" fill="#000000" fill-rule="evenodd" fill-opacity="1" /><path clip-path="url(#clip250)" d="M282.022 18.8205 L282.022 65.8515 L291.907 65.8515 Q304.424 65.8515 310.217 60.1802 Q316.05 54.509 316.05 42.2752 Q316.05 30.1225 310.217 24.4918 Q304.424 18.8205 291.907 18.8205 L282.022 18.8205 M273.84 12.096 L290.651 12.096 Q308.232 12.096 316.455 19.4281 Q324.679 26.7198 324.679 42.2752 Q324.679 57.9117 316.415 65.2439 Q308.151 72.576 290.651 72.576 L273.84 72.576 L273.84 12.096 Z" fill="#000000" fill-rule="evenodd" fill-opacity="1" /><path clip-path="url(#clip250)" d="M356.276 76.7889 Q353.116 84.8907 350.118 87.3618 Q347.121 89.8329 342.097 89.8329 L336.143 89.8329 L336.143 83.5945 L340.518 83.5945 Q343.596 83.5945 345.298 82.1361 Q346.999 80.6778 349.065 75.2496 L350.402 71.8468 L332.051 27.2059 L339.95 27.2059 L354.129 62.6918 L368.307 27.2059 L376.206 27.2059 L356.276 76.7889 Z" fill="#000000" fill-rule="evenodd" fill-opacity="1" /><path clip-path="url(#clip250)" d="M415.419 28.5427 L415.419 35.5912 Q412.259 33.9709 408.856 33.1607 Q405.454 32.3505 401.808 32.3505 Q396.258 32.3505 393.463 34.0519 Q390.708 35.7533 390.708 39.156 Q390.708 41.7486 392.693 43.2475 Q394.678 44.7058 400.673 46.0426 L403.226 46.6097 Q411.165 48.3111 414.487 51.4303 Q417.849 54.509 417.849 60.0587 Q417.849 66.3781 412.826 70.0644 Q407.844 73.7508 399.094 73.7508 Q395.448 73.7508 391.478 73.0216 Q387.549 72.3329 383.174 70.9151 L383.174 63.2184 Q387.305 65.3654 391.316 66.4591 Q395.326 67.5124 399.256 67.5124 Q404.522 67.5124 407.357 65.73 Q410.193 63.9071 410.193 60.6258 Q410.193 57.5877 408.127 55.9673 Q406.102 54.3469 399.175 52.8481 L396.582 52.2405 Q389.655 50.7821 386.576 47.7845 Q383.498 44.7463 383.498 39.4801 Q383.498 33.0797 388.035 29.5959 Q392.572 26.1121 400.917 26.1121 Q405.048 26.1121 408.694 26.7198 Q412.34 27.3274 415.419 28.5427 Z" fill="#000000" fill-rule="evenodd" fill-opacity="1" /><path clip-path="url(#clip250)" d="M437.091 14.324 L437.091 27.2059 L452.444 27.2059 L452.444 32.9987 L437.091 32.9987 L437.091 57.6282 Q437.091 63.1779 438.59 64.7578 Q440.129 66.3376 444.788 66.3376 L452.444 66.3376 L452.444 72.576 L444.788 72.576 Q436.159 72.576 432.878 69.3758 Q429.597 66.1351 429.597 57.6282 L429.597 32.9987 L424.128 32.9987 L424.128 27.2059 L429.597 27.2059 L429.597 14.324 L437.091 14.324 Z" fill="#000000" fill-rule="evenodd" fill-opacity="1" /><path clip-path="url(#clip250)" d="M488.538 34.1734 Q487.282 33.4443 485.783 33.1202 Q484.325 32.7556 482.542 32.7556 Q476.223 32.7556 472.82 36.8875 Q469.458 40.9789 469.458 48.6757 L469.458 72.576 L461.964 72.576 L461.964 27.2059 L469.458 27.2059 L469.458 34.2544 Q471.807 30.1225 475.575 28.1376 Q479.342 26.1121 484.73 26.1121 Q485.499 26.1121 486.431 26.2337 Q487.363 26.3147 488.497 26.5172 L488.538 34.1734 Z" fill="#000000" fill-rule="evenodd" fill-opacity="1" /><path clip-path="url(#clip250)" d="M515.233 76.7889 Q512.073 84.8907 509.076 87.3618 Q506.078 89.8329 501.055 89.8329 L495.1 89.8329 L495.1 83.5945 L499.475 83.5945 Q502.554 83.5945 504.255 82.1361 Q505.956 80.6778 508.022 75.2496 L509.359 71.8468 L491.009 27.2059 L498.908 27.2059 L513.086 62.6918 L527.264 27.2059 L535.163 27.2059 L515.233 76.7889 Z" fill="#000000" fill-rule="evenodd" fill-opacity="1" /><path clip-path="url(#clip250)" d="M578.022 49.9314 Q578.022 41.7081 574.619 37.0496 Q571.257 32.3505 565.343 32.3505 Q559.428 32.3505 556.026 37.0496 Q552.663 41.7081 552.663 49.9314 Q552.663 58.1548 556.026 62.8538 Q559.428 67.5124 565.343 67.5124 Q571.257 67.5124 574.619 62.8538 Q578.022 58.1548 578.022 49.9314 M552.663 34.0924 Q555.013 30.0415 558.578 28.0971 Q562.183 26.1121 567.166 26.1121 Q575.429 26.1121 580.574 32.6746 Q585.759 39.2371 585.759 49.9314 Q585.759 60.6258 580.574 67.1883 Q575.429 73.7508 567.166 73.7508 Q562.183 73.7508 558.578 71.8063 Q555.013 69.8214 552.663 65.7705 L552.663 72.576 L545.169 72.576 L545.169 9.54393 L552.663 9.54393 L552.663 34.0924 Z" fill="#000000" fill-rule="evenodd" fill-opacity="1" /><path clip-path="url(#clip250)" d="M597.345 54.671 L597.345 27.2059 L604.799 27.2059 L604.799 54.3874 Q604.799 60.8284 607.31 64.0691 Q609.822 67.2693 614.845 67.2693 Q620.881 67.2693 624.364 63.421 Q627.889 59.5726 627.889 52.9291 L627.889 27.2059 L635.342 27.2059 L635.342 72.576 L627.889 72.576 L627.889 65.6084 Q625.175 69.7404 621.569 71.7658 Q618.004 73.7508 613.265 73.7508 Q605.447 73.7508 601.396 68.8897 Q597.345 64.0286 597.345 54.671 M616.101 26.1121 L616.101 26.1121 Z" fill="#000000" fill-rule="evenodd" fill-opacity="1" /><path clip-path="url(#clip250)" d="M671.314 49.7694 Q662.281 49.7694 658.797 51.8354 Q655.313 53.9013 655.313 58.8839 Q655.313 62.8538 657.906 65.2034 Q660.539 67.5124 665.035 67.5124 Q671.233 67.5124 674.96 63.1374 Q678.728 58.7219 678.728 51.4303 L678.728 49.7694 L671.314 49.7694 M686.181 46.6907 L686.181 72.576 L678.728 72.576 L678.728 65.6895 Q676.175 69.8214 672.368 71.8063 Q668.56 73.7508 663.051 73.7508 Q656.083 73.7508 651.951 69.8619 Q647.86 65.9325 647.86 59.3701 Q647.86 51.7138 652.964 47.825 Q658.108 43.9361 668.276 43.9361 L678.728 43.9361 L678.728 43.2069 Q678.728 38.0623 675.325 35.2672 Q671.963 32.4315 665.846 32.4315 Q661.957 32.4315 658.27 33.3632 Q654.584 34.295 651.181 36.1584 L651.181 29.2718 Q655.273 27.692 659.121 26.9223 Q662.97 26.1121 666.615 26.1121 Q676.459 26.1121 681.32 31.2163 Q686.181 36.3204 686.181 46.6907 Z" fill="#000000" fill-rule="evenodd" fill-opacity="1" /><path clip-path="url(#clip250)" d="M739.248 45.1919 L739.248 72.576 L731.794 72.576 L731.794 45.4349 Q731.794 38.994 729.283 35.7938 Q726.771 32.5936 721.748 32.5936 Q715.712 32.5936 712.229 36.4419 Q708.745 40.2903 708.745 46.9338 L708.745 72.576 L701.251 72.576 L701.251 27.2059 L708.745 27.2059 L708.745 34.2544 Q711.418 30.163 715.024 28.1376 Q718.669 26.1121 723.409 26.1121 Q731.227 26.1121 735.238 30.9732 Q739.248 35.7938 739.248 45.1919 Z" fill="#000000" fill-rule="evenodd" fill-opacity="1" /><path clip-path="url(#clip250)" d="M761.488 14.324 L761.488 27.2059 L776.84 27.2059 L776.84 32.9987 L761.488 32.9987 L761.488 57.6282 Q761.488 63.1779 762.986 64.7578 Q764.526 66.3376 769.184 66.3376 L776.84 66.3376 L776.84 72.576 L769.184 72.576 Q760.556 72.576 757.275 69.3758 Q753.993 66.1351 753.993 57.6282 L753.993 32.9987 L748.525 32.9987 L748.525 27.2059 L753.993 27.2059 L753.993 14.324 L761.488 14.324 Z" fill="#000000" fill-rule="evenodd" fill-opacity="1" /><path clip-path="url(#clip250)" d="M807.263 49.7694 Q798.229 49.7694 794.745 51.8354 Q791.262 53.9013 791.262 58.8839 Q791.262 62.8538 793.854 65.2034 Q796.487 67.5124 800.984 67.5124 Q807.182 67.5124 810.909 63.1374 Q814.676 58.7219 814.676 51.4303 L814.676 49.7694 L807.263 49.7694 M822.13 46.6907 L822.13 72.576 L814.676 72.576 L814.676 65.6895 Q812.124 69.8214 808.316 71.8063 Q804.508 73.7508 798.999 73.7508 Q792.031 73.7508 787.899 69.8619 Q783.808 65.9325 783.808 59.3701 Q783.808 51.7138 788.912 47.825 Q794.057 43.9361 804.225 43.9361 L814.676 43.9361 L814.676 43.2069 Q814.676 38.0623 811.273 35.2672 Q807.911 32.4315 801.794 32.4315 Q797.905 32.4315 794.219 33.3632 Q790.532 34.295 787.13 36.1584 L787.13 29.2718 Q791.221 27.692 795.07 26.9223 Q798.918 26.1121 802.564 26.1121 Q812.407 26.1121 817.268 31.2163 Q822.13 36.3204 822.13 46.6907 Z" fill="#000000" fill-rule="evenodd" fill-opacity="1" /><path clip-path="url(#clip250)" d="M902.662 48.0275 L902.662 51.6733 L868.391 51.6733 Q868.877 59.3701 873.009 63.421 Q877.181 67.4314 884.594 67.4314 Q888.888 67.4314 892.899 66.3781 Q896.95 65.3249 900.92 63.2184 L900.92 70.267 Q896.909 71.9684 892.696 72.8596 Q888.483 73.7508 884.149 73.7508 Q873.292 73.7508 866.933 67.4314 Q860.613 61.1119 860.613 50.3365 Q860.613 39.1965 866.608 32.6746 Q872.644 26.1121 882.853 26.1121 Q892.008 26.1121 897.314 32.0264 Q902.662 37.9003 902.662 48.0275 M895.208 45.84 Q895.127 39.7232 891.765 36.0774 Q888.443 32.4315 882.934 32.4315 Q876.695 32.4315 872.928 35.9558 Q869.201 39.4801 868.634 45.8805 L895.208 45.84 Z" fill="#000000" fill-rule="evenodd" fill-opacity="1" /><path clip-path="url(#clip250)" d="M950.219 35.9153 Q953.014 30.8922 956.903 28.5022 Q960.792 26.1121 966.058 26.1121 Q973.147 26.1121 976.996 31.0947 Q980.844 36.0368 980.844 45.1919 L980.844 72.576 L973.35 72.576 L973.35 45.4349 Q973.35 38.913 971.041 35.7533 Q968.732 32.5936 963.992 32.5936 Q958.199 32.5936 954.837 36.4419 Q951.475 40.2903 951.475 46.9338 L951.475 72.576 L943.981 72.576 L943.981 45.4349 Q943.981 38.8725 941.672 35.7533 Q939.363 32.5936 934.542 32.5936 Q928.83 32.5936 925.468 36.4824 Q922.106 40.3308 922.106 46.9338 L922.106 72.576 L914.612 72.576 L914.612 27.2059 L922.106 27.2059 L922.106 34.2544 Q924.658 30.082 928.223 28.0971 Q931.788 26.1121 936.689 26.1121 Q941.631 26.1121 945.074 28.6237 Q948.558 31.1352 950.219 35.9153 Z" fill="#000000" fill-rule="evenodd" fill-opacity="1" /><path clip-path="url(#clip250)" d="M1002.92 65.7705 L1002.92 89.8329 L995.427 89.8329 L995.427 27.2059 L1002.92 27.2059 L1002.92 34.0924 Q1005.27 30.0415 1008.84 28.0971 Q1012.44 26.1121 1017.42 26.1121 Q1025.69 26.1121 1030.83 32.6746 Q1036.02 39.2371 1036.02 49.9314 Q1036.02 60.6258 1030.83 67.1883 Q1025.69 73.7508 1017.42 73.7508 Q1012.44 73.7508 1008.84 71.8063 Q1005.27 69.8214 1002.92 65.7705 M1028.28 49.9314 Q1028.28 41.7081 1024.88 37.0496 Q1021.52 32.3505 1015.6 32.3505 Q1009.69 32.3505 1006.28 37.0496 Q1002.92 41.7081 1002.92 49.9314 Q1002.92 58.1548 1006.28 62.8538 Q1009.69 67.5124 1015.6 67.5124 Q1021.52 67.5124 1024.88 62.8538 Q1028.28 58.1548 1028.28 49.9314 Z" fill="#000000" fill-rule="evenodd" fill-opacity="1" /><path clip-path="url(#clip250)" d="M1048.37 27.2059 L1055.83 27.2059 L1055.83 72.576 L1048.37 72.576 L1048.37 27.2059 M1048.37 9.54393 L1055.83 9.54393 L1055.83 18.9825 L1048.37 18.9825 L1048.37 9.54393 Z" fill="#000000" fill-rule="evenodd" fill-opacity="1" /><path clip-path="url(#clip250)" d="M1097.71 34.1734 Q1096.46 33.4443 1094.96 33.1202 Q1093.5 32.7556 1091.72 32.7556 Q1085.4 32.7556 1082 36.8875 Q1078.63 40.9789 1078.63 48.6757 L1078.63 72.576 L1071.14 72.576 L1071.14 27.2059 L1078.63 27.2059 L1078.63 34.2544 Q1080.98 30.1225 1084.75 28.1376 Q1088.52 26.1121 1093.9 26.1121 Q1094.67 26.1121 1095.61 26.2337 Q1096.54 26.3147 1097.67 26.5172 L1097.71 34.1734 Z" fill="#000000" fill-rule="evenodd" fill-opacity="1" /><path clip-path="url(#clip250)" d="M1124.41 76.7889 Q1121.25 84.8907 1118.25 87.3618 Q1115.25 89.8329 1110.23 89.8329 L1104.28 89.8329 L1104.28 83.5945 L1108.65 83.5945 Q1111.73 83.5945 1113.43 82.1361 Q1115.13 80.6778 1117.2 75.2496 L1118.53 71.8468 L1100.18 27.2059 L1108.08 27.2059 L1122.26 62.6918 L1136.44 27.2059 L1144.34 27.2059 L1124.41 76.7889 Z" fill="#000000" fill-rule="evenodd" fill-opacity="1" /><path clip-path="url(#clip250)" d="M1187.28 28.9478 L1187.28 35.9153 Q1184.12 34.1734 1180.92 33.3227 Q1177.76 32.4315 1174.52 32.4315 Q1167.27 32.4315 1163.26 37.0496 Q1159.25 41.6271 1159.25 49.9314 Q1159.25 58.2358 1163.26 62.8538 Q1167.27 67.4314 1174.52 67.4314 Q1177.76 67.4314 1180.92 66.5807 Q1184.12 65.6895 1187.28 63.9476 L1187.28 70.8341 Q1184.16 72.2924 1180.8 73.0216 Q1177.47 73.7508 1173.71 73.7508 Q1163.46 73.7508 1157.42 67.3098 Q1151.39 60.8689 1151.39 49.9314 Q1151.39 38.832 1157.46 32.472 Q1163.58 26.1121 1174.19 26.1121 Q1177.64 26.1121 1180.92 26.8413 Q1184.2 27.5299 1187.28 28.9478 Z" fill="#000000" fill-rule="evenodd" fill-opacity="1" /><path clip-path="url(#clip250)" d="M1197 27.2059 L1232.41 27.2059 L1232.41 34.0114 L1204.37 66.6212 L1232.41 66.6212 L1232.41 72.576 L1195.99 72.576 L1195.99 65.7705 L1224.02 33.1607 L1197 33.1607 L1197 27.2059 Z" fill="#000000" fill-rule="evenodd" fill-opacity="1" /><path clip-path="url(#clip250)" d="M1281.5 45.1919 L1281.5 72.576 L1274.05 72.576 L1274.05 45.4349 Q1274.05 38.994 1271.54 35.7938 Q1269.03 32.5936 1264 32.5936 Q1257.97 32.5936 1254.48 36.4419 Q1251 40.2903 1251 46.9338 L1251 72.576 L1243.5 72.576 L1243.5 27.2059 L1251 27.2059 L1251 34.2544 Q1253.67 30.163 1257.28 28.1376 Q1260.92 26.1121 1265.66 26.1121 Q1273.48 26.1121 1277.49 30.9732 Q1281.5 35.7938 1281.5 45.1919 Z" fill="#000000" fill-rule="evenodd" fill-opacity="1" /><path clip-path="url(#clip250)" d="M1316.99 49.7694 Q1307.95 49.7694 1304.47 51.8354 Q1300.99 53.9013 1300.99 58.8839 Q1300.99 62.8538 1303.58 65.2034 Q1306.21 67.5124 1310.71 67.5124 Q1316.91 67.5124 1320.63 63.1374 Q1324.4 58.7219 1324.4 51.4303 L1324.4 49.7694 L1316.99 49.7694 M1331.85 46.6907 L1331.85 72.576 L1324.4 72.576 L1324.4 65.6895 Q1321.85 69.8214 1318.04 71.8063 Q1314.23 73.7508 1308.72 73.7508 Q1301.76 73.7508 1297.62 69.8619 Q1293.53 65.9325 1293.53 59.3701 Q1293.53 51.7138 1298.64 47.825 Q1303.78 43.9361 1313.95 43.9361 L1324.4 43.9361 L1324.4 43.2069 Q1324.4 38.0623 1321 35.2672 Q1317.64 32.4315 1311.52 32.4315 Q1307.63 32.4315 1303.94 33.3632 Q1300.26 34.295 1296.86 36.1584 L1296.86 29.2718 Q1300.95 27.692 1304.79 26.9223 Q1308.64 26.1121 1312.29 26.1121 Q1322.13 26.1121 1326.99 31.2163 Q1331.85 36.3204 1331.85 46.6907 Z" fill="#000000" fill-rule="evenodd" fill-opacity="1" /><path clip-path="url(#clip250)" d="M1369.81 46.5287 L1391.65 46.5287 L1391.65 53.1722 L1369.81 53.1722 L1369.81 46.5287 Z" fill="#000000" fill-rule="evenodd" fill-opacity="1" /><path clip-path="url(#clip250)" d="M1467.6 45.1919 L1467.6 72.576 L1460.15 72.576 L1460.15 45.4349 Q1460.15 38.994 1457.64 35.7938 Q1455.12 32.5936 1450.1 32.5936 Q1444.06 32.5936 1440.58 36.4419 Q1437.1 40.2903 1437.1 46.9338 L1437.1 72.576 L1429.6 72.576 L1429.6 27.2059 L1437.1 27.2059 L1437.1 34.2544 Q1439.77 30.163 1443.38 28.1376 Q1447.02 26.1121 1451.76 26.1121 Q1459.58 26.1121 1463.59 30.9732 Q1467.6 35.7938 1467.6 45.1919 Z" fill="#000000" fill-rule="evenodd" fill-opacity="1" /><path clip-path="url(#clip250)" d="M1503.09 49.7694 Q1494.05 49.7694 1490.57 51.8354 Q1487.09 53.9013 1487.09 58.8839 Q1487.09 62.8538 1489.68 65.2034 Q1492.31 67.5124 1496.81 67.5124 Q1503.01 67.5124 1506.73 63.1374 Q1510.5 58.7219 1510.5 51.4303 L1510.5 49.7694 L1503.09 49.7694 M1517.95 46.6907 L1517.95 72.576 L1510.5 72.576 L1510.5 65.6895 Q1507.95 69.8214 1504.14 71.8063 Q1500.33 73.7508 1494.82 73.7508 Q1487.86 73.7508 1483.72 69.8619 Q1479.63 65.9325 1479.63 59.3701 Q1479.63 51.7138 1484.74 47.825 Q1489.88 43.9361 1500.05 43.9361 L1510.5 43.9361 L1510.5 43.2069 Q1510.5 38.0623 1507.1 35.2672 Q1503.73 32.4315 1497.62 32.4315 Q1493.73 32.4315 1490.04 33.3632 Q1486.36 34.295 1482.95 36.1584 L1482.95 29.2718 Q1487.04 27.692 1490.89 26.9223 Q1494.74 26.1121 1498.39 26.1121 Q1508.23 26.1121 1513.09 31.2163 Q1517.95 36.3204 1517.95 46.6907 Z" fill="#000000" fill-rule="evenodd" fill-opacity="1" /><path clip-path="url(#clip250)" d="M1563.16 34.0924 L1563.16 9.54393 L1570.62 9.54393 L1570.62 72.576 L1563.16 72.576 L1563.16 65.7705 Q1560.81 69.8214 1557.21 71.8063 Q1553.64 73.7508 1548.62 73.7508 Q1540.4 73.7508 1535.21 67.1883 Q1530.07 60.6258 1530.07 49.9314 Q1530.07 39.2371 1535.21 32.6746 Q1540.4 26.1121 1548.62 26.1121 Q1553.64 26.1121 1557.21 28.0971 Q1560.81 30.0415 1563.16 34.0924 M1537.76 49.9314 Q1537.76 58.1548 1541.12 62.8538 Q1544.53 67.5124 1550.44 67.5124 Q1556.36 67.5124 1559.76 62.8538 Q1563.16 58.1548 1563.16 49.9314 Q1563.16 41.7081 1559.76 37.0496 Q1556.36 32.3505 1550.44 32.3505 Q1544.53 32.3505 1541.12 37.0496 Q1537.76 41.7081 1537.76 49.9314 Z" fill="#000000" fill-rule="evenodd" fill-opacity="1" /><path clip-path="url(#clip250)" d="M1581.63 27.2059 L1589.09 27.2059 L1598.4 62.6108 L1607.68 27.2059 L1616.47 27.2059 L1625.79 62.6108 L1635.07 27.2059 L1642.52 27.2059 L1630.65 72.576 L1621.86 72.576 L1612.1 35.3887 L1602.29 72.576 L1593.5 72.576 L1581.63 27.2059 Z" fill="#000000" fill-rule="evenodd" fill-opacity="1" /><path clip-path="url(#clip250)" d="M1672.7 76.7889 Q1669.54 84.8907 1666.54 87.3618 Q1663.54 89.8329 1658.52 89.8329 L1652.56 89.8329 L1652.56 83.5945 L1656.94 83.5945 Q1660.02 83.5945 1661.72 82.1361 Q1663.42 80.6778 1665.49 75.2496 L1666.82 71.8468 L1648.47 27.2059 L1656.37 27.2059 L1670.55 62.6918 L1684.73 27.2059 L1692.63 27.2059 L1672.7 76.7889 Z" fill="#000000" fill-rule="evenodd" fill-opacity="1" /><path clip-path="url(#clip250)" d="M1712.96 9.54393 L1720.42 9.54393 L1720.42 18.9825 L1712.96 18.9825 L1712.96 9.54393 M1716.77 26.1121 L1716.77 26.1121 M1699.68 27.2059 L1735.08 27.2059 L1735.08 34.0114 L1707.05 66.6212 L1735.08 66.6212 L1735.08 72.576 L1698.66 72.576 L1698.66 65.7705 L1726.7 33.1607 L1699.68 33.1607 L1699.68 27.2059 Z" fill="#000000" fill-rule="evenodd" fill-opacity="1" /><path clip-path="url(#clip250)" d="M1746.18 9.54393 L1753.68 9.54393 L1753.68 46.7717 L1775.91 27.2059 L1785.43 27.2059 L1761.37 48.4326 L1786.45 72.576 L1776.73 72.576 L1753.68 50.4176 L1753.68 72.576 L1746.18 72.576 L1746.18 9.54393 Z" fill="#000000" fill-rule="evenodd" fill-opacity="1" /><path clip-path="url(#clip250)" d="M1813.67 49.7694 Q1804.64 49.7694 1801.15 51.8354 Q1797.67 53.9013 1797.67 58.8839 Q1797.67 62.8538 1800.26 65.2034 Q1802.89 67.5124 1807.39 67.5124 Q1813.59 67.5124 1817.32 63.1374 Q1821.08 58.7219 1821.08 51.4303 L1821.08 49.7694 L1813.67 49.7694 M1828.54 46.6907 L1828.54 72.576 L1821.08 72.576 L1821.08 65.6895 Q1818.53 69.8214 1814.72 71.8063 Q1810.91 73.7508 1805.41 73.7508 Q1798.44 73.7508 1794.31 69.8619 Q1790.21 65.9325 1790.21 59.3701 Q1790.21 51.7138 1795.32 47.825 Q1800.46 43.9361 1810.63 43.9361 L1821.08 43.9361 L1821.08 43.2069 Q1821.08 38.0623 1817.68 35.2672 Q1814.32 32.4315 1808.2 32.4315 Q1804.31 32.4315 1800.63 33.3632 Q1796.94 34.295 1793.54 36.1584 L1793.54 29.2718 Q1797.63 27.692 1801.48 26.9223 Q1805.32 26.1121 1808.97 26.1121 Q1818.81 26.1121 1823.68 31.2163 Q1828.54 36.3204 1828.54 46.6907 Z" fill="#000000" fill-rule="evenodd" fill-opacity="1" /><path clip-path="url(#clip250)" d="M1877.47 65.7705 L1877.47 89.8329 L1869.98 89.8329 L1869.98 27.2059 L1877.47 27.2059 L1877.47 34.0924 Q1879.82 30.0415 1883.39 28.0971 Q1886.99 26.1121 1891.97 26.1121 Q1900.24 26.1121 1905.38 32.6746 Q1910.57 39.2371 1910.57 49.9314 Q1910.57 60.6258 1905.38 67.1883 Q1900.24 73.7508 1891.97 73.7508 Q1886.99 73.7508 1883.39 71.8063 Q1879.82 69.8214 1877.47 65.7705 M1902.83 49.9314 Q1902.83 41.7081 1899.43 37.0496 Q1896.06 32.3505 1890.15 32.3505 Q1884.24 32.3505 1880.83 37.0496 Q1877.47 41.7081 1877.47 49.9314 Q1877.47 58.1548 1880.83 62.8538 Q1884.24 67.5124 1890.15 67.5124 Q1896.06 67.5124 1899.43 62.8538 Q1902.83 58.1548 1902.83 49.9314 Z" fill="#000000" fill-rule="evenodd" fill-opacity="1" /><path clip-path="url(#clip250)" d="M1949.21 34.1734 Q1947.96 33.4443 1946.46 33.1202 Q1945 32.7556 1943.22 32.7556 Q1936.9 32.7556 1933.5 36.8875 Q1930.13 40.9789 1930.13 48.6757 L1930.13 72.576 L1922.64 72.576 L1922.64 27.2059 L1930.13 27.2059 L1930.13 34.2544 Q1932.48 30.1225 1936.25 28.1376 Q1940.02 26.1121 1945.4 26.1121 Q1946.17 26.1121 1947.11 26.2337 Q1948.04 26.3147 1949.17 26.5172 L1949.21 34.1734 Z" fill="#000000" fill-rule="evenodd" fill-opacity="1" /><path clip-path="url(#clip250)" d="M1972.79 32.4315 Q1966.79 32.4315 1963.31 37.1306 Q1959.83 41.7891 1959.83 49.9314 Q1959.83 58.0738 1963.27 62.7728 Q1966.75 67.4314 1972.79 67.4314 Q1978.74 67.4314 1982.23 62.7323 Q1985.71 58.0333 1985.71 49.9314 Q1985.71 41.8701 1982.23 37.1711 Q1978.74 32.4315 1972.79 32.4315 M1972.79 26.1121 Q1982.51 26.1121 1988.06 32.4315 Q1993.61 38.7509 1993.61 49.9314 Q1993.61 61.0714 1988.06 67.4314 Q1982.51 73.7508 1972.79 73.7508 Q1963.03 73.7508 1957.48 67.4314 Q1951.97 61.0714 1951.97 49.9314 Q1951.97 38.7509 1957.48 32.4315 Q1963.03 26.1121 1972.79 26.1121 Z" fill="#000000" fill-rule="evenodd" fill-opacity="1" /><path clip-path="url(#clip250)" d="M2035.82 34.0924 L2035.82 9.54393 L2043.27 9.54393 L2043.27 72.576 L2035.82 72.576 L2035.82 65.7705 Q2033.47 69.8214 2029.87 71.8063 Q2026.3 73.7508 2021.28 73.7508 Q2013.05 73.7508 2007.87 67.1883 Q2002.73 60.6258 2002.73 49.9314 Q2002.73 39.2371 2007.87 32.6746 Q2013.05 26.1121 2021.28 26.1121 Q2026.3 26.1121 2029.87 28.0971 Q2033.47 30.0415 2035.82 34.0924 M2010.42 49.9314 Q2010.42 58.1548 2013.78 62.8538 Q2017.19 67.5124 2023.1 67.5124 Q2029.02 67.5124 2032.42 62.8538 Q2035.82 58.1548 2035.82 49.9314 Q2035.82 41.7081 2032.42 37.0496 Q2029.02 32.3505 2023.1 32.3505 Q2017.19 32.3505 2013.78 37.0496 Q2010.42 41.7081 2010.42 49.9314 Z" fill="#000000" fill-rule="evenodd" fill-opacity="1" /><path clip-path="url(#clip250)" d="M2057.86 54.671 L2057.86 27.2059 L2065.31 27.2059 L2065.31 54.3874 Q2065.31 60.8284 2067.82 64.0691 Q2070.33 67.2693 2075.36 67.2693 Q2081.39 67.2693 2084.88 63.421 Q2088.4 59.5726 2088.4 52.9291 L2088.4 27.2059 L2095.86 27.2059 L2095.86 72.576 L2088.4 72.576 L2088.4 65.6084 Q2085.69 69.7404 2082.08 71.7658 Q2078.52 73.7508 2073.78 73.7508 Q2065.96 73.7508 2061.91 68.8897 Q2057.86 64.0286 2057.86 54.671 M2076.61 26.1121 L2076.61 26.1121 Z" fill="#000000" fill-rule="evenodd" fill-opacity="1" /><path clip-path="url(#clip250)" d="M2143.86 28.9478 L2143.86 35.9153 Q2140.7 34.1734 2137.5 33.3227 Q2134.34 32.4315 2131.1 32.4315 Q2123.85 32.4315 2119.84 37.0496 Q2115.83 41.6271 2115.83 49.9314 Q2115.83 58.2358 2119.84 62.8538 Q2123.85 67.4314 2131.1 67.4314 Q2134.34 67.4314 2137.5 66.5807 Q2140.7 65.6895 2143.86 63.9476 L2143.86 70.8341 Q2140.74 72.2924 2137.38 73.0216 Q2134.06 73.7508 2130.29 73.7508 Q2120.04 73.7508 2114 67.3098 Q2107.97 60.8689 2107.97 49.9314 Q2107.97 38.832 2114.04 32.472 Q2120.16 26.1121 2130.77 26.1121 Q2134.22 26.1121 2137.5 26.8413 Q2140.78 27.5299 2143.86 28.9478 Z" fill="#000000" fill-rule="evenodd" fill-opacity="1" /><path clip-path="url(#clip250)" d="M2195.63 48.0275 L2195.63 51.6733 L2161.36 51.6733 Q2161.84 59.3701 2165.98 63.421 Q2170.15 67.4314 2177.56 67.4314 Q2181.86 67.4314 2185.87 66.3781 Q2189.92 65.3249 2193.89 63.2184 L2193.89 70.267 Q2189.88 71.9684 2185.66 72.8596 Q2181.45 73.7508 2177.12 73.7508 Q2166.26 73.7508 2159.9 67.4314 Q2153.58 61.1119 2153.58 50.3365 Q2153.58 39.1965 2159.58 32.6746 Q2165.61 26.1121 2175.82 26.1121 Q2184.98 26.1121 2190.28 32.0264 Q2195.63 37.9003 2195.63 48.0275 M2188.18 45.84 Q2188.09 39.7232 2184.73 36.0774 Q2181.41 32.4315 2175.9 32.4315 Q2169.66 32.4315 2165.9 35.9558 Q2162.17 39.4801 2161.6 45.8805 L2188.18 45.84 Z" fill="#000000" fill-rule="evenodd" fill-opacity="1" /><path clip-path="url(#clip250)" d="M2245.58 45.1919 L2245.58 72.576 L2238.12 72.576 L2238.12 45.4349 Q2238.12 38.994 2235.61 35.7938 Q2233.1 32.5936 2228.08 32.5936 Q2222.04 32.5936 2218.56 36.4419 Q2215.07 40.2903 2215.07 46.9338 L2215.07 72.576 L2207.58 72.576 L2207.58 27.2059 L2215.07 27.2059 L2215.07 34.2544 Q2217.75 30.163 2221.35 28.1376 Q2225 26.1121 2229.74 26.1121 Q2237.56 26.1121 2241.57 30.9732 Q2245.58 35.7938 2245.58 45.1919 Z" fill="#000000" fill-rule="evenodd" fill-opacity="1" /><path clip-path="url(#clip250)" d="M2267.82 14.324 L2267.82 27.2059 L2283.17 27.2059 L2283.17 32.9987 L2267.82 32.9987 L2267.82 57.6282 Q2267.82 63.1779 2269.32 64.7578 Q2270.85 66.3376 2275.51 66.3376 L2283.17 66.3376 L2283.17 72.576 L2275.51 72.576 Q2266.88 72.576 2263.6 69.3758 Q2260.32 66.1351 2260.32 57.6282 L2260.32 32.9987 L2254.85 32.9987 L2254.85 27.2059 L2260.32 27.2059 L2260.32 14.324 L2267.82 14.324 Z" fill="#000000" fill-rule="evenodd" fill-opacity="1" /><path clip-path="url(#clip250)" d="M2313.59 49.7694 Q2304.56 49.7694 2301.07 51.8354 Q2297.59 53.9013 2297.59 58.8839 Q2297.59 62.8538 2300.18 65.2034 Q2302.82 67.5124 2307.31 67.5124 Q2313.51 67.5124 2317.24 63.1374 Q2321 58.7219 2321 51.4303 L2321 49.7694 L2313.59 49.7694 M2328.46 46.6907 L2328.46 72.576 L2321 72.576 L2321 65.6895 Q2318.45 69.8214 2314.64 71.8063 Q2310.84 73.7508 2305.33 73.7508 Q2298.36 73.7508 2294.23 69.8619 Q2290.14 65.9325 2290.14 59.3701 Q2290.14 51.7138 2295.24 47.825 Q2300.39 43.9361 2310.55 43.9361 L2321 43.9361 L2321 43.2069 Q2321 38.0623 2317.6 35.2672 Q2314.24 32.4315 2308.12 32.4315 Q2304.23 32.4315 2300.55 33.3632 Q2296.86 34.295 2293.46 36.1584 L2293.46 29.2718 Q2297.55 27.692 2301.4 26.9223 Q2305.25 26.1121 2308.89 26.1121 Q2318.74 26.1121 2323.6 31.2163 Q2328.46 36.3204 2328.46 46.6907 Z" fill="#000000" fill-rule="evenodd" fill-opacity="1" /><polyline clip-path="url(#clip252)" style="stroke:#009af9; stroke-linecap:butt; stroke-linejoin:round; stroke-width:4; stroke-opacity:1; fill:none" points="
  354.387,1386.4 453.937,1383.94 524.733,1381.48 527.987,1379.02 544.895,1376.57 555.239,1374.11 565.766,1371.65 569.505,1369.2 580.462,1366.74 581.327,1364.28 
  583.173,1361.82 583.645,1359.37 586.973,1356.91 589.693,1354.45 590.075,1351.99 591.348,1349.54 598.123,1347.08 602.743,1344.62 605.677,1342.17 606.13,1339.71 
  608.609,1337.25 608.671,1334.79 610.679,1332.34 611.188,1329.88 619.846,1327.42 619.953,1324.97 622.028,1322.51 623.448,1320.05 624.914,1317.59 627.572,1315.14 
  629.893,1312.68 629.9,1310.22 630.252,1307.77 630.941,1305.31 636.464,1302.85 636.671,1300.39 637.374,1297.94 641.955,1295.48 642.264,1293.02 643.094,1290.57 
  649.689,1288.11 650.484,1285.65 652.716,1283.19 660.131,1280.74 662.826,1278.28 664.076,1275.82 669.982,1273.36 670.121,1270.91 674.678,1268.45 676.163,1265.99 
  679.618,1263.54 680.064,1261.08 683.153,1258.62 683.326,1256.16 686.73,1253.71 687.065,1251.25 692.358,1248.79 693.575,1246.34 695.219,1243.88 696.528,1241.42 
  699.223,1238.96 699.266,1236.51 701.623,1234.05 703.571,1231.59 704.102,1229.14 707.866,1226.68 708.515,1224.22 713.116,1221.76 713.825,1219.31 714.633,1216.85 
  717.868,1214.39 719.713,1211.93 719.97,1209.48 721.434,1207.02 722.389,1204.56 723.255,1202.11 724.874,1199.65 727.111,1197.19 727.322,1194.73 731.669,1192.28 
  736.451,1189.82 736.582,1187.36 737.846,1184.91 738.109,1182.45 740.794,1179.99 741.902,1177.53 742.774,1175.08 744.614,1172.62 746.484,1170.16 747.17,1167.71 
  748.257,1165.25 750.892,1162.79 754.658,1160.33 755.238,1157.88 755.869,1155.42 758.64,1152.96 764.049,1150.51 765.239,1148.05 766.007,1145.59 766.389,1143.13 
  767.528,1140.68 768.183,1138.22 768.944,1135.76 771.939,1133.3 775.791,1130.85 784.06,1128.39 785.266,1125.93 785.511,1123.48 788.851,1121.02 792.738,1118.56 
  792.973,1116.1 793.739,1113.65 794.442,1111.19 796.129,1108.73 799.497,1106.28 806.621,1103.82 809.154,1101.36 812.384,1098.9 814.699,1096.45 816.89,1093.99 
  821.158,1091.53 823.197,1089.08 825.659,1086.62 825.911,1084.16 826.444,1081.7 829.286,1079.25 829.513,1076.79 829.583,1074.33 831.296,1071.87 831.731,1069.42 
  834.733,1066.96 835.621,1064.5 837.689,1062.05 840.488,1059.59 841.235,1057.13 843.52,1054.67 849.415,1052.22 852.016,1049.76 853.873,1047.3 854.047,1044.85 
  855.265,1042.39 858.875,1039.93 864.038,1037.47 865.115,1035.02 866.72,1032.56 867.411,1030.1 869.095,1027.65 871.077,1025.19 871.203,1022.73 879.801,1020.27 
  889.612,1017.82 889.921,1015.36 890.174,1012.9 890.514,1010.45 892.177,1007.99 893.333,1005.53 893.705,1003.07 899.824,1000.62 905.358,998.159 905.903,995.702 
  907.289,993.245 909.799,990.788 909.803,988.33 910.313,985.873 910.939,983.416 912.992,980.959 913.133,978.502 913.646,976.044 915.433,973.587 915.724,971.13 
  917.236,968.673 917.717,966.216 922.052,963.758 923.133,961.301 928.469,958.844 929.903,956.387 931.441,953.93 935.319,951.472 941.171,949.015 941.765,946.558 
  947.27,944.101 951.457,941.644 956.161,939.187 956.203,936.729 958.371,934.272 960.065,931.815 960.503,929.358 964.218,926.901 969.226,924.443 972.922,921.986 
  975.705,919.529 977.267,917.072 980.511,914.615 980.527,912.157 983.007,909.7 983.78,907.243 985.774,904.786 986.866,902.329 990.861,899.871 992.035,897.414 
  992.745,894.957 997.46,892.5 999.366,890.043 1001.5,887.585 1002.83,885.128 1005.94,882.671 1009.63,880.214 1013,877.757 1014.09,875.299 1015.73,872.842 
  1017.76,870.385 1026.04,867.928 1026.25,865.471 1028.1,863.014 1028.41,860.556 1029.42,858.099 1029.58,855.642 1032.55,853.185 1038.63,850.728 1039.5,848.27 
  1041.33,845.813 1041.35,843.356 1044.07,840.899 1044.2,838.442 1047.19,835.984 1049.45,833.527 1050.88,831.07 1054.46,828.613 1055.77,826.156 1056.89,823.698 
  1057.02,821.241 1063.47,818.784 1063.85,816.327 1065.22,813.87 1065.25,811.412 1066.91,808.955 1067.95,806.498 1070.75,804.041 1070.9,801.584 1072.16,799.127 
  1072.65,796.669 1074.12,794.212 1074.98,791.755 1079.22,789.298 1082.42,786.841 1082.55,784.383 1084.18,781.926 1085.95,779.469 1086.79,777.012 1087.4,774.555 
  1090.91,772.097 1093.89,769.64 1094.21,767.183 1094.37,764.726 1096.43,762.269 1096.73,759.811 1096.85,757.354 1097.02,754.897 1097.08,752.44 1100.15,749.983 
  1104.2,747.525 1104.44,745.068 1107.11,742.611 1107.51,740.154 1109.89,737.697 1116.9,735.239 1118.37,732.782 1119.37,730.325 1127.13,727.868 1128.23,725.411 
  1130.32,722.954 1130.67,720.496 1132.66,718.039 1133.78,715.582 1135.2,713.125 1135.23,710.668 1135.41,708.21 1135.63,705.753 1136.13,703.296 1141.24,700.839 
  1143.48,698.382 1143.48,695.924 1144.9,693.467 1149.84,691.01 1149.97,688.553 1151.95,686.096 1154.18,683.638 1155.95,681.181 1156.75,678.724 1157.46,676.267 
  1162.51,673.81 1165.99,671.352 1166.41,668.895 1166.59,666.438 1168.37,663.981 1169.23,661.524 1171.48,659.067 1172.02,656.609 1172.31,654.152 1175.02,651.695 
  1175.47,649.238 1177.43,646.781 1177.85,644.323 1178.01,641.866 1180.07,639.409 1181.73,636.952 1183.78,634.495 1184.09,632.037 1187.91,629.58 1190.78,627.123 
  1192.63,624.666 1195.59,622.209 1197.2,619.751 1199.62,617.294 1201.08,614.837 1202.33,612.38 1203.52,609.923 1203.72,607.465 1208.32,605.008 1209.5,602.551 
  1210.21,600.094 1210.68,597.637 1211.72,595.179 1212.16,592.722 1218.12,590.265 1218.9,587.808 1221.53,585.351 1221.73,582.894 1222.75,580.436 1223.06,577.979 
  1225.35,575.522 1226.25,573.065 1226.48,570.608 1230.93,568.15 1232.21,565.693 1234.98,563.236 1237.59,560.779 1240.74,558.322 1259.17,555.864 1261.41,553.407 
  1261.52,550.95 1262.08,548.493 1265.69,546.036 1268.76,543.578 1270.13,541.121 1273.4,538.664 1273.94,536.207 1274.89,533.75 1276.5,531.292 1277.67,528.835 
  1279.22,526.378 1282.09,523.921 1283.68,521.464 1285.62,519.006 1303.86,516.549 1307.09,514.092 1308.55,511.635 1310.69,509.178 1313.26,506.721 1314.34,504.263 
  1314.36,501.806 1317.91,499.349 1318.14,496.892 1319.42,494.435 1319.99,491.977 1320.76,489.52 1323.26,487.063 1324.45,484.606 1325.05,482.149 1327.79,479.691 
  1328.62,477.234 1330.19,474.777 1331.11,472.32 1336.75,469.863 1337.23,467.405 1337.93,464.948 1340.84,462.491 1344.13,460.034 1347.98,457.577 1349.56,455.119 
  1353.17,452.662 1353.77,450.205 1355.78,447.748 1357.3,445.291 1361.16,442.834 1363.91,440.376 1365.54,437.919 1366.52,435.462 1367.27,433.005 1367.44,430.548 
  1377.53,428.09 1380.83,425.633 1381.53,423.176 1382.03,420.719 1382.58,418.262 1385.36,415.804 1390.65,413.347 1391.56,410.89 1391.67,408.433 1392.19,405.976 
  1392.38,403.518 1394,401.061 1396.51,398.604 1396.63,396.147 1398.93,393.69 1401.2,391.232 1406.87,388.775 1407.12,386.318 1408.12,383.861 1408.54,381.404 
  1409.48,378.946 1410.89,376.489 1410.95,374.032 1411.01,371.575 1416.32,369.118 1420.75,366.661 1421.72,364.203 1423.73,361.746 1424.96,359.289 1425.08,356.832 
  1425.77,354.375 1426.11,351.917 1428.45,349.46 1430.5,347.003 1435.89,344.546 1440.37,342.089 1446.24,339.631 1448.94,337.174 1462.21,334.717 1465.13,332.26 
  1466.13,329.803 1471.52,327.345 1473.19,324.888 1479.34,322.431 1479.75,319.974 1483.08,317.517 1487.04,315.059 1489.52,312.602 1495.47,310.145 1513.73,307.688 
  1526.34,305.231 1538.78,302.774 1543.01,300.316 1543.6,297.859 1548.59,295.402 1549.33,292.945 1551.38,290.488 1551.87,288.03 1554.51,285.573 1555.16,283.116 
  1557.38,280.659 1562.38,278.202 1565.06,275.744 1570.31,273.287 1579.51,270.83 1586.05,268.373 1590.77,265.916 1594.69,263.458 1595,261.001 1602.68,258.544 
  1607.1,256.087 1614.51,253.63 1618.93,251.172 1622.26,248.715 1623.78,246.258 1632.24,243.801 1632.55,241.344 1641.91,238.886 1651.02,236.429 1656.19,233.972 
  1661.02,231.515 1665.41,229.058 1676.12,226.601 1682.92,224.143 1683.38,221.686 1698.43,219.229 1702.24,216.772 1707.46,214.315 1708.07,211.857 1715.17,209.4 
  1717.01,206.943 1724.51,204.486 1731.96,202.029 1733.57,199.571 1738.98,197.114 1743.75,194.657 1754.82,192.2 1754.86,189.743 1757.16,187.285 1772.05,184.828 
  1778.84,182.371 1826.24,179.914 1853.23,177.457 1855.26,174.999 1858.68,172.542 1870.73,170.085 1886.67,167.628 1938.87,165.171 2112.95,162.713 2293.23,160.256 
  
  "/>
<polyline clip-path="url(#clip252)" style="stroke:#e26f46; stroke-linecap:butt; stroke-linejoin:round; stroke-width:4; stroke-opacity:1; fill:none" points="
  309.067,1386.4 326.43,1383.94 398.324,1381.48 432.553,1379.02 444.561,1376.57 453.348,1374.11 530.4,1371.65 538.133,1369.2 538.317,1366.74 541.231,1364.28 
  544.589,1361.82 551.441,1359.37 562.37,1356.91 569.03,1354.45 570.946,1351.99 584.296,1349.54 587.268,1347.08 587.281,1344.62 589.279,1342.17 590.097,1339.71 
  599.525,1337.25 601.608,1334.79 602.745,1332.34 603.265,1329.88 605.512,1327.42 606.405,1324.97 609.108,1322.51 609.245,1320.05 609.504,1317.59 613.67,1315.14 
  613.925,1312.68 615.721,1310.22 617.949,1307.77 619.455,1305.31 621.84,1302.85 622.804,1300.39 622.874,1297.94 630.281,1295.48 631.566,1293.02 631.969,1290.57 
  636.976,1288.11 637.716,1285.65 638.338,1283.19 646.239,1280.74 650.098,1278.28 651.491,1275.82 651.534,1273.36 653.029,1270.91 654.704,1268.45 654.925,1265.99 
  655.631,1263.54 657.455,1261.08 659.665,1258.62 660.149,1256.16 660.17,1253.71 663.012,1251.25 663.225,1248.79 663.449,1246.34 673.466,1243.88 673.671,1241.42 
  676.791,1238.96 676.927,1236.51 677.076,1234.05 681.316,1231.59 683.266,1229.14 683.626,1226.68 690.973,1224.22 693.847,1221.76 694.975,1219.31 695.238,1216.85 
  696.989,1214.39 701.099,1211.93 704.555,1209.48 706.132,1207.02 706.444,1204.56 706.504,1202.11 710.029,1199.65 711.204,1197.19 713.746,1194.73 714.214,1192.28 
  717.102,1189.82 719.341,1187.36 721.633,1184.91 722.761,1182.45 725.6,1179.99 729.599,1177.53 733.019,1175.08 736.664,1172.62 738.449,1170.16 739.304,1167.71 
  742.868,1165.25 746.616,1162.79 748.193,1160.33 748.282,1157.88 748.9,1155.42 751.161,1152.96 754.011,1150.51 754.269,1148.05 762.145,1145.59 762.311,1143.13 
  762.94,1140.68 764.56,1138.22 765.626,1135.76 765.858,1133.3 769.572,1130.85 770.324,1128.39 771.075,1125.93 778.471,1123.48 780.218,1121.02 780.337,1118.56 
  784.489,1116.1 785.905,1113.65 789.683,1111.19 791.785,1108.73 793.8,1106.28 795.999,1103.82 796.477,1101.36 796.927,1098.9 798.546,1096.45 800.084,1093.99 
  801.918,1091.53 805.463,1089.08 807.188,1086.62 808.582,1084.16 808.704,1081.7 815.418,1079.25 820.58,1076.79 823.833,1074.33 823.874,1071.87 824.479,1069.42 
  825.719,1066.96 831.316,1064.5 832.139,1062.05 835.373,1059.59 835.837,1057.13 836.183,1054.67 836.616,1052.22 837.108,1049.76 841.169,1047.3 843.951,1044.85 
  844.48,1042.39 846.958,1039.93 849.788,1037.47 854.532,1035.02 854.95,1032.56 856.027,1030.1 857.492,1027.65 858.821,1025.19 859.278,1022.73 861.179,1020.27 
  861.87,1017.82 862.109,1015.36 863.015,1012.9 864.613,1010.45 864.76,1007.99 864.801,1005.53 867.26,1003.07 870.778,1000.62 872.769,998.159 873.703,995.702 
  876.266,993.245 878.467,990.788 886.83,988.33 889.068,985.873 896.136,983.416 898.045,980.959 898.659,978.502 907.125,976.044 908.983,973.587 909.852,971.13 
  916.197,968.673 920.084,966.216 922.648,963.758 928.174,961.301 932.502,958.844 936.319,956.387 937.595,953.93 938.018,951.472 940.524,949.015 942.271,946.558 
  942.524,944.101 953.43,941.644 959.144,939.187 961.045,936.729 964.518,934.272 964.773,931.815 973.544,929.358 975.606,926.901 979.451,924.443 979.736,921.986 
  980.756,919.529 982.832,917.072 983.562,914.615 984.76,912.157 988.085,909.7 988.198,907.243 989.122,904.786 990.923,902.329 992.873,899.871 993.868,897.414 
  994.349,894.957 994.395,892.5 998.368,890.043 998.651,887.585 998.731,885.128 999.023,882.671 1000.03,880.214 1004.3,877.757 1004.65,875.299 1005.06,872.842 
  1005.17,870.385 1006.97,867.928 1011.72,865.471 1012.34,863.014 1017.86,860.556 1020.42,858.099 1020.44,855.642 1021.73,853.185 1023.98,850.728 1024.71,848.27 
  1025.31,845.813 1026.48,843.356 1028.58,840.899 1029.94,838.442 1032.31,835.984 1032.7,833.527 1032.86,831.07 1033.06,828.613 1033.75,826.156 1035.78,823.698 
  1036.53,821.241 1042.06,818.784 1042.31,816.327 1046.87,813.87 1048.76,811.412 1050.31,808.955 1050.82,806.498 1050.95,804.041 1052.44,801.584 1060.63,799.127 
  1061.56,796.669 1061.98,794.212 1065.32,791.755 1067.26,789.298 1068.56,786.841 1069.12,784.383 1075.1,781.926 1080.19,779.469 1085.04,777.012 1085.59,774.555 
  1086.79,772.097 1088.97,769.64 1092.17,767.183 1092.21,764.726 1092.85,762.269 1093.53,759.811 1097.26,757.354 1097.52,754.897 1099.42,752.44 1102.93,749.983 
  1103.09,747.525 1106.35,745.068 1108.09,742.611 1109.71,740.154 1112.07,737.697 1112.48,735.239 1116.4,732.782 1120.68,730.325 1121.04,727.868 1121.41,725.411 
  1125.19,722.954 1125.9,720.496 1125.97,718.039 1128.73,715.582 1130.88,713.125 1134.14,710.668 1135.3,708.21 1137.47,705.753 1140.58,703.296 1143.3,700.839 
  1144.16,698.382 1148.09,695.924 1149.11,693.467 1149.77,691.01 1149.81,688.553 1151.16,686.096 1151.92,683.638 1152.08,681.181 1154.63,678.724 1154.91,676.267 
  1156.2,673.81 1156.75,671.352 1157.16,668.895 1160,666.438 1160.74,663.981 1161.47,661.524 1166.1,659.067 1169.09,656.609 1171.32,654.152 1171.82,651.695 
  1173.36,649.238 1175.35,646.781 1176.79,644.323 1182.61,641.866 1185.61,639.409 1186.8,636.952 1187.35,634.495 1187.61,632.037 1187.89,629.58 1189.94,627.123 
  1190.5,624.666 1191.18,622.209 1195.31,619.751 1195.5,617.294 1197.38,614.837 1199.21,612.38 1201.9,609.923 1202.25,607.465 1204.89,605.008 1205.42,602.551 
  1205.6,600.094 1207.57,597.637 1213.83,595.179 1213.95,592.722 1217.85,590.265 1218.62,587.808 1222.38,585.351 1227.32,582.894 1229.76,580.436 1231.31,577.979 
  1231.45,575.522 1231.93,573.065 1232.64,570.608 1234.64,568.15 1234.77,565.693 1236.35,563.236 1242.69,560.779 1246.48,558.322 1246.86,555.864 1251.02,553.407 
  1253.61,550.95 1254.36,548.493 1255.59,546.036 1255.91,543.578 1256.1,541.121 1257.38,538.664 1257.44,536.207 1257.6,533.75 1258.35,531.292 1262.84,528.835 
  1263.97,526.378 1267.36,523.921 1268.1,521.464 1272.4,519.006 1272.56,516.549 1280.45,514.092 1281.77,511.635 1281.9,509.178 1285.63,506.721 1287.16,504.263 
  1288.23,501.806 1289.65,499.349 1290.62,496.892 1291.3,494.435 1291.96,491.977 1295.59,489.52 1298.55,487.063 1299.55,484.606 1299.73,482.149 1307.39,479.691 
  1308.56,477.234 1309.56,474.777 1309.94,472.32 1311.13,469.863 1312.1,467.405 1315.01,464.948 1319.56,462.491 1324.59,460.034 1327.54,457.577 1328.13,455.119 
  1329.39,452.662 1331.24,450.205 1332.22,447.748 1333.16,445.291 1333.2,442.834 1342.77,440.376 1345.08,437.919 1351.65,435.462 1352.88,433.005 1356.28,430.548 
  1363.44,428.09 1365.55,425.633 1367.34,423.176 1369.62,420.719 1370.56,418.262 1371.05,415.804 1372.26,413.347 1372.49,410.89 1378.27,408.433 1379.96,405.976 
  1380.54,403.518 1381.86,401.061 1384.89,398.604 1385.37,396.147 1385.78,393.69 1386.63,391.232 1393.17,388.775 1398.78,386.318 1400.22,383.861 1409.51,381.404 
  1410.19,378.946 1410.72,376.489 1415.79,374.032 1416.66,371.575 1418.96,369.118 1421.36,366.661 1421.43,364.203 1424.25,361.746 1425.63,359.289 1429.7,356.832 
  1430.48,354.375 1431.16,351.917 1431.31,349.46 1432.47,347.003 1435.14,344.546 1440.88,342.089 1444.39,339.631 1455.5,337.174 1458.64,334.717 1458.93,332.26 
  1460.65,329.803 1464.69,327.345 1472.42,324.888 1484.83,322.431 1486.58,319.974 1490.95,317.517 1492,315.059 1499.48,312.602 1499.87,310.145 1511.14,307.688 
  1512.11,305.231 1513.73,302.774 1517.82,300.316 1519.52,297.859 1525.45,295.402 1531.87,292.945 1534.4,290.488 1536.51,288.03 1537.26,285.573 1538.12,283.116 
  1539.2,280.659 1542.21,278.202 1546.57,275.744 1548.84,273.287 1553.95,270.83 1561.85,268.373 1577.73,265.916 1579.68,263.458 1581.14,261.001 1585.79,258.544 
  1586.34,256.087 1587.45,253.63 1594.73,251.172 1596.4,248.715 1601.42,246.258 1602.14,243.801 1610.16,241.344 1613.11,238.886 1616.91,236.429 1628.06,233.972 
  1631.09,231.515 1633.05,229.058 1633.06,226.601 1636.15,224.143 1640.44,221.686 1640.66,219.229 1662.54,216.772 1671.85,214.315 1692.17,211.857 1693.01,209.4 
  1696.47,206.943 1725.67,204.486 1727.91,202.029 1730.12,199.571 1735.88,197.114 1745.6,194.657 1748.25,192.2 1752.42,189.743 1761.71,187.285 1771.16,184.828 
  1786.77,182.371 1797.68,179.914 1801.29,177.457 1873.68,174.999 1893.79,172.542 1933.78,170.085 1948.36,167.628 1997.13,165.171 2046.97,162.713 2054.69,160.256 
  
  "/>
<path clip-path="url(#clip250)" d="
M1471.06 1379.86 L2282.65 1379.86 L2282.65 1302.1 L1471.06 1302.1  Z
  " fill="#ffffff" fill-rule="evenodd" fill-opacity="1"/>
<polyline clip-path="url(#clip250)" style="stroke:#000000; stroke-linecap:butt; stroke-linejoin:round; stroke-width:4; stroke-opacity:1; fill:none" points="
  1471.06,1379.86 2282.65,1379.86 2282.65,1302.1 1471.06,1302.1 1471.06,1379.86 
  "/>
<polyline clip-path="url(#clip250)" style="stroke:#009af9; stroke-linecap:butt; stroke-linejoin:round; stroke-width:3; stroke-opacity:1; fill:none" points="
  1494.43,1340.98 1634.65,1340.98 
  "/>
<path clip-path="url(#clip250)" d="M1666.83 1321.44 L1670.38 1321.44 L1670.38 1325 L1666.83 1325 L1666.83 1321.44 M1658.41 1328.02 L1678.78 1328.02 L1678.78 1330.69 L1662.39 1350.98 L1679.18 1350.98 L1679.18 1353.94 L1658.01 1353.94 L1658.01 1351.26 L1674.4 1330.97 L1658.41 1330.97 L1658.41 1328.02 Z" fill="#000000" fill-rule="evenodd" fill-opacity="1" /><path clip-path="url(#clip250)" d="M1692.96 1344.16 Q1689.09 1344.16 1687.6 1345.05 Q1686.1 1345.93 1686.1 1348.07 Q1686.1 1349.77 1687.22 1350.78 Q1688.34 1351.77 1690.27 1351.77 Q1692.93 1351.77 1694.52 1349.89 Q1696.14 1348 1696.14 1344.87 L1696.14 1344.16 L1692.96 1344.16 M1699.33 1342.84 L1699.33 1353.94 L1696.14 1353.94 L1696.14 1350.98 Q1695.05 1352.76 1693.41 1353.61 Q1691.78 1354.44 1689.42 1354.44 Q1686.43 1354.44 1684.66 1352.77 Q1682.91 1351.09 1682.91 1348.28 Q1682.91 1345 1685.1 1343.33 Q1687.3 1341.66 1691.66 1341.66 L1696.14 1341.66 L1696.14 1341.35 Q1696.14 1339.14 1694.68 1337.95 Q1693.24 1336.73 1690.62 1336.73 Q1688.95 1336.73 1687.37 1337.13 Q1685.79 1337.53 1684.33 1338.33 L1684.33 1335.38 Q1686.09 1334.7 1687.74 1334.37 Q1689.39 1334.02 1690.95 1334.02 Q1695.17 1334.02 1697.25 1336.21 Q1699.33 1338.4 1699.33 1342.84 Z" fill="#000000" fill-rule="evenodd" fill-opacity="1" /><path clip-path="url(#clip250)" d="M1718.71 1337.44 L1718.71 1326.92 L1721.9 1326.92 L1721.9 1353.94 L1718.71 1353.94 L1718.71 1351.02 Q1717.7 1352.76 1716.16 1353.61 Q1714.63 1354.44 1712.48 1354.44 Q1708.95 1354.44 1706.73 1351.63 Q1704.52 1348.81 1704.52 1344.23 Q1704.52 1339.65 1706.73 1336.84 Q1708.95 1334.02 1712.48 1334.02 Q1714.63 1334.02 1716.16 1334.87 Q1717.7 1335.71 1718.71 1337.44 M1707.82 1344.23 Q1707.82 1347.76 1709.26 1349.77 Q1710.72 1351.77 1713.26 1351.77 Q1715.79 1351.77 1717.25 1349.77 Q1718.71 1347.76 1718.71 1344.23 Q1718.71 1340.71 1717.25 1338.71 Q1715.79 1336.7 1713.26 1336.7 Q1710.72 1336.7 1709.26 1338.71 Q1707.82 1340.71 1707.82 1344.23 Z" fill="#000000" fill-rule="evenodd" fill-opacity="1" /><path clip-path="url(#clip250)" d="M1745.11 1343.42 L1745.11 1344.98 L1730.43 1344.98 Q1730.64 1348.28 1732.41 1350.01 Q1734.19 1351.73 1737.37 1351.73 Q1739.21 1351.73 1740.93 1351.28 Q1742.67 1350.83 1744.37 1349.93 L1744.37 1352.95 Q1742.65 1353.68 1740.84 1354.06 Q1739.04 1354.44 1737.18 1354.44 Q1732.53 1354.44 1729.8 1351.73 Q1727.09 1349.02 1727.09 1344.41 Q1727.09 1339.63 1729.66 1336.84 Q1732.25 1334.02 1736.63 1334.02 Q1740.55 1334.02 1742.82 1336.56 Q1745.11 1339.08 1745.11 1343.42 M1741.92 1342.48 Q1741.89 1339.86 1740.44 1338.29 Q1739.02 1336.73 1736.66 1336.73 Q1733.99 1336.73 1732.37 1338.24 Q1730.77 1339.75 1730.53 1342.5 L1741.92 1342.48 Z" fill="#000000" fill-rule="evenodd" fill-opacity="1" /><path clip-path="url(#clip250)" d="M1766.52 1342.2 L1766.52 1353.94 L1763.33 1353.94 L1763.33 1342.3 Q1763.33 1339.54 1762.25 1338.17 Q1761.17 1336.8 1759.02 1336.8 Q1756.43 1336.8 1754.94 1338.45 Q1753.45 1340.1 1753.45 1342.95 L1753.45 1353.94 L1750.24 1353.94 L1750.24 1334.49 L1753.45 1334.49 L1753.45 1337.51 Q1754.59 1335.76 1756.14 1334.89 Q1757.7 1334.02 1759.73 1334.02 Q1763.08 1334.02 1764.8 1336.11 Q1766.52 1338.17 1766.52 1342.2 Z" fill="#000000" fill-rule="evenodd" fill-opacity="1" /><path clip-path="url(#clip250)" d="M1787.28 1351.02 L1787.28 1361.33 L1784.07 1361.33 L1784.07 1334.49 L1787.28 1334.49 L1787.28 1337.44 Q1788.29 1335.71 1789.82 1334.87 Q1791.36 1334.02 1793.5 1334.02 Q1797.04 1334.02 1799.25 1336.84 Q1801.47 1339.65 1801.47 1344.23 Q1801.47 1348.81 1799.25 1351.63 Q1797.04 1354.44 1793.5 1354.44 Q1791.36 1354.44 1789.82 1353.61 Q1788.29 1352.76 1787.28 1351.02 M1798.15 1344.23 Q1798.15 1340.71 1796.69 1338.71 Q1795.25 1336.7 1792.72 1336.7 Q1790.18 1336.7 1788.73 1338.71 Q1787.28 1340.71 1787.28 1344.23 Q1787.28 1347.76 1788.73 1349.77 Q1790.18 1351.77 1792.72 1351.77 Q1795.25 1351.77 1796.69 1349.77 Q1798.15 1347.76 1798.15 1344.23 Z" fill="#000000" fill-rule="evenodd" fill-opacity="1" /><path clip-path="url(#clip250)" d="M1818.03 1337.48 Q1817.49 1337.17 1816.85 1337.03 Q1816.23 1336.87 1815.46 1336.87 Q1812.75 1336.87 1811.29 1338.64 Q1809.85 1340.39 1809.85 1343.69 L1809.85 1353.94 L1806.64 1353.94 L1806.64 1334.49 L1809.85 1334.49 L1809.85 1337.51 Q1810.86 1335.74 1812.48 1334.89 Q1814.09 1334.02 1816.4 1334.02 Q1816.73 1334.02 1817.13 1334.08 Q1817.53 1334.11 1818.01 1334.2 L1818.03 1337.48 Z" fill="#000000" fill-rule="evenodd" fill-opacity="1" /><path clip-path="url(#clip250)" d="M1828.14 1336.73 Q1825.57 1336.73 1824.07 1338.75 Q1822.58 1340.74 1822.58 1344.23 Q1822.58 1347.72 1824.06 1349.73 Q1825.55 1351.73 1828.14 1351.73 Q1830.69 1351.73 1832.18 1349.72 Q1833.67 1347.7 1833.67 1344.23 Q1833.67 1340.78 1832.18 1338.76 Q1830.69 1336.73 1828.14 1336.73 M1828.14 1334.02 Q1832.3 1334.02 1834.68 1336.73 Q1837.06 1339.44 1837.06 1344.23 Q1837.06 1349.01 1834.68 1351.73 Q1832.3 1354.44 1828.14 1354.44 Q1823.95 1354.44 1821.57 1351.73 Q1819.21 1349.01 1819.21 1344.23 Q1819.21 1339.44 1821.57 1336.73 Q1823.95 1334.02 1828.14 1334.02 Z" fill="#000000" fill-rule="evenodd" fill-opacity="1" /><path clip-path="url(#clip250)" d="M1855.15 1337.44 L1855.15 1326.92 L1858.34 1326.92 L1858.34 1353.94 L1855.15 1353.94 L1855.15 1351.02 Q1854.14 1352.76 1852.6 1353.61 Q1851.07 1354.44 1848.92 1354.44 Q1845.39 1354.44 1843.17 1351.63 Q1840.96 1348.81 1840.96 1344.23 Q1840.96 1339.65 1843.17 1336.84 Q1845.39 1334.02 1848.92 1334.02 Q1851.07 1334.02 1852.6 1334.87 Q1854.14 1335.71 1855.15 1337.44 M1844.26 1344.23 Q1844.26 1347.76 1845.7 1349.77 Q1847.16 1351.77 1849.7 1351.77 Q1852.23 1351.77 1853.69 1349.77 Q1855.15 1347.76 1855.15 1344.23 Q1855.15 1340.71 1853.69 1338.71 Q1852.23 1336.7 1849.7 1336.7 Q1847.16 1336.7 1845.7 1338.71 Q1844.26 1340.71 1844.26 1344.23 Z" fill="#000000" fill-rule="evenodd" fill-opacity="1" /><path clip-path="url(#clip250)" d="M1864.59 1346.26 L1864.59 1334.49 L1867.79 1334.49 L1867.79 1346.14 Q1867.79 1348.9 1868.86 1350.29 Q1869.94 1351.66 1872.09 1351.66 Q1874.68 1351.66 1876.17 1350.01 Q1877.68 1348.36 1877.68 1345.52 L1877.68 1334.49 L1880.88 1334.49 L1880.88 1353.94 L1877.68 1353.94 L1877.68 1350.95 Q1876.52 1352.72 1874.98 1353.59 Q1873.45 1354.44 1871.42 1354.44 Q1868.07 1354.44 1866.33 1352.36 Q1864.59 1350.27 1864.59 1346.26 M1872.63 1334.02 L1872.63 1334.02 Z" fill="#000000" fill-rule="evenodd" fill-opacity="1" /><path clip-path="url(#clip250)" d="M1901.45 1335.24 L1901.45 1338.22 Q1900.1 1337.48 1898.72 1337.11 Q1897.37 1336.73 1895.98 1336.73 Q1892.87 1336.73 1891.16 1338.71 Q1889.44 1340.67 1889.44 1344.23 Q1889.44 1347.79 1891.16 1349.77 Q1892.87 1351.73 1895.98 1351.73 Q1897.37 1351.73 1898.72 1351.37 Q1900.1 1350.98 1901.45 1350.24 L1901.45 1353.19 Q1900.11 1353.81 1898.67 1354.13 Q1897.25 1354.44 1895.63 1354.44 Q1891.24 1354.44 1888.66 1351.68 Q1886.07 1348.92 1886.07 1344.23 Q1886.07 1339.47 1888.67 1336.75 Q1891.29 1334.02 1895.84 1334.02 Q1897.32 1334.02 1898.72 1334.34 Q1900.13 1334.63 1901.45 1335.24 Z" fill="#000000" fill-rule="evenodd" fill-opacity="1" /><path clip-path="url(#clip250)" d="M1923.64 1343.42 L1923.64 1344.98 L1908.95 1344.98 Q1909.16 1348.28 1910.93 1350.01 Q1912.72 1351.73 1915.9 1351.73 Q1917.74 1351.73 1919.45 1351.28 Q1921.19 1350.83 1922.89 1349.93 L1922.89 1352.95 Q1921.17 1353.68 1919.37 1354.06 Q1917.56 1354.44 1915.7 1354.44 Q1911.05 1354.44 1908.33 1351.73 Q1905.62 1349.02 1905.62 1344.41 Q1905.62 1339.63 1908.19 1336.84 Q1910.77 1334.02 1915.15 1334.02 Q1919.07 1334.02 1921.35 1336.56 Q1923.64 1339.08 1923.64 1343.42 M1920.44 1342.48 Q1920.41 1339.86 1918.97 1338.29 Q1917.54 1336.73 1915.18 1336.73 Q1912.51 1336.73 1910.9 1338.24 Q1909.3 1339.75 1909.05 1342.5 L1920.44 1342.48 Z" fill="#000000" fill-rule="evenodd" fill-opacity="1" /><path clip-path="url(#clip250)" d="M1945.04 1342.2 L1945.04 1353.94 L1941.85 1353.94 L1941.85 1342.3 Q1941.85 1339.54 1940.77 1338.17 Q1939.7 1336.8 1937.54 1336.8 Q1934.96 1336.8 1933.46 1338.45 Q1931.97 1340.1 1931.97 1342.95 L1931.97 1353.94 L1928.76 1353.94 L1928.76 1334.49 L1931.97 1334.49 L1931.97 1337.51 Q1933.12 1335.76 1934.66 1334.89 Q1936.22 1334.02 1938.26 1334.02 Q1941.61 1334.02 1943.33 1336.11 Q1945.04 1338.17 1945.04 1342.2 Z" fill="#000000" fill-rule="evenodd" fill-opacity="1" /><path clip-path="url(#clip250)" d="M1954.58 1328.97 L1954.58 1334.49 L1961.16 1334.49 L1961.16 1336.97 L1954.58 1336.97 L1954.58 1347.53 Q1954.58 1349.91 1955.22 1350.59 Q1955.88 1351.26 1957.87 1351.26 L1961.16 1351.26 L1961.16 1353.94 L1957.87 1353.94 Q1954.18 1353.94 1952.77 1352.56 Q1951.36 1351.18 1951.36 1347.53 L1951.36 1336.97 L1949.02 1336.97 L1949.02 1334.49 L1951.36 1334.49 L1951.36 1328.97 L1954.58 1328.97 Z" fill="#000000" fill-rule="evenodd" fill-opacity="1" /><path clip-path="url(#clip250)" d="M1992.82 1342.2 L1992.82 1353.94 L1989.63 1353.94 L1989.63 1342.3 Q1989.63 1339.54 1988.55 1338.17 Q1987.47 1336.8 1985.32 1336.8 Q1982.73 1336.8 1981.24 1338.45 Q1979.75 1340.1 1979.75 1342.95 L1979.75 1353.94 L1976.54 1353.94 L1976.54 1334.49 L1979.75 1334.49 L1979.75 1337.51 Q1980.89 1335.76 1982.44 1334.89 Q1984 1334.02 1986.03 1334.02 Q1989.38 1334.02 1991.1 1336.11 Q1992.82 1338.17 1992.82 1342.2 Z" fill="#000000" fill-rule="evenodd" fill-opacity="1" /><path clip-path="url(#clip250)" d="M1999.19 1334.49 L2002.39 1334.49 L2002.39 1353.94 L1999.19 1353.94 L1999.19 1334.49 M1999.19 1326.92 L2002.39 1326.92 L2002.39 1330.97 L1999.19 1330.97 L1999.19 1326.92 Z" fill="#000000" fill-rule="evenodd" fill-opacity="1" /><path clip-path="url(#clip250)" d="M2025.7 1343.42 L2025.7 1344.98 L2011.02 1344.98 Q2011.22 1348.28 2013 1350.01 Q2014.78 1351.73 2017.96 1351.73 Q2019.8 1351.73 2021.52 1351.28 Q2023.26 1350.83 2024.96 1349.93 L2024.96 1352.95 Q2023.24 1353.68 2021.43 1354.06 Q2019.63 1354.44 2017.77 1354.44 Q2013.12 1354.44 2010.39 1351.73 Q2007.68 1349.02 2007.68 1344.41 Q2007.68 1339.63 2010.25 1336.84 Q2012.84 1334.02 2017.21 1334.02 Q2021.14 1334.02 2023.41 1336.56 Q2025.7 1339.08 2025.7 1343.42 M2022.51 1342.48 Q2022.47 1339.86 2021.03 1338.29 Q2019.61 1336.73 2017.25 1336.73 Q2014.58 1336.73 2012.96 1338.24 Q2011.36 1339.75 2011.12 1342.5 L2022.51 1342.48 Z" fill="#000000" fill-rule="evenodd" fill-opacity="1" /><path clip-path="url(#clip250)" d="M2056.21 1344.23 Q2056.21 1340.71 2054.75 1338.71 Q2053.31 1336.7 2050.77 1336.7 Q2048.24 1336.7 2046.78 1338.71 Q2045.34 1340.71 2045.34 1344.23 Q2045.34 1347.76 2046.78 1349.77 Q2048.24 1351.77 2050.77 1351.77 Q2053.31 1351.77 2054.75 1349.77 Q2056.21 1347.76 2056.21 1344.23 M2045.34 1337.44 Q2046.35 1335.71 2047.87 1334.87 Q2049.42 1334.02 2051.55 1334.02 Q2055.1 1334.02 2057.3 1336.84 Q2059.52 1339.65 2059.52 1344.23 Q2059.52 1348.81 2057.3 1351.63 Q2055.1 1354.44 2051.55 1354.44 Q2049.42 1354.44 2047.87 1353.61 Q2046.35 1352.76 2045.34 1351.02 L2045.34 1353.94 L2042.13 1353.94 L2042.13 1326.92 L2045.34 1326.92 L2045.34 1337.44 Z" fill="#000000" fill-rule="evenodd" fill-opacity="1" /><path clip-path="url(#clip250)" d="M2073.65 1344.16 Q2069.78 1344.16 2068.29 1345.05 Q2066.8 1345.93 2066.8 1348.07 Q2066.8 1349.77 2067.91 1350.78 Q2069.04 1351.77 2070.96 1351.77 Q2073.62 1351.77 2075.22 1349.89 Q2076.83 1348 2076.83 1344.87 L2076.83 1344.16 L2073.65 1344.16 M2080.03 1342.84 L2080.03 1353.94 L2076.83 1353.94 L2076.83 1350.98 Q2075.74 1352.76 2074.11 1353.61 Q2072.47 1354.44 2070.11 1354.44 Q2067.13 1354.44 2065.36 1352.77 Q2063.6 1351.09 2063.6 1348.28 Q2063.6 1345 2065.79 1343.33 Q2067.99 1341.66 2072.35 1341.66 L2076.83 1341.66 L2076.83 1341.35 Q2076.83 1339.14 2075.37 1337.95 Q2073.93 1336.73 2071.31 1336.73 Q2069.64 1336.73 2068.06 1337.13 Q2066.48 1337.53 2065.03 1338.33 L2065.03 1335.38 Q2066.78 1334.7 2068.43 1334.37 Q2070.08 1334.02 2071.64 1334.02 Q2075.86 1334.02 2077.94 1336.21 Q2080.03 1338.4 2080.03 1342.84 Z" fill="#000000" fill-rule="evenodd" fill-opacity="1" /><path clip-path="url(#clip250)" d="M2099.4 1337.44 L2099.4 1326.92 L2102.6 1326.92 L2102.6 1353.94 L2099.4 1353.94 L2099.4 1351.02 Q2098.39 1352.76 2096.85 1353.61 Q2095.32 1354.44 2093.17 1354.44 Q2089.64 1354.44 2087.42 1351.63 Q2085.22 1348.81 2085.22 1344.23 Q2085.22 1339.65 2087.42 1336.84 Q2089.64 1334.02 2093.17 1334.02 Q2095.32 1334.02 2096.85 1334.87 Q2098.39 1335.71 2099.4 1337.44 M2088.52 1344.23 Q2088.52 1347.76 2089.96 1349.77 Q2091.41 1351.77 2093.95 1351.77 Q2096.48 1351.77 2097.94 1349.77 Q2099.4 1347.76 2099.4 1344.23 Q2099.4 1340.71 2097.94 1338.71 Q2096.48 1336.7 2093.95 1336.7 Q2091.41 1336.7 2089.96 1338.71 Q2088.52 1340.71 2088.52 1344.23 Z" fill="#000000" fill-rule="evenodd" fill-opacity="1" /><path clip-path="url(#clip250)" d="M2118.01 1344.16 Q2114.14 1344.16 2112.65 1345.05 Q2111.15 1345.93 2111.15 1348.07 Q2111.15 1349.77 2112.27 1350.78 Q2113.39 1351.77 2115.32 1351.77 Q2117.98 1351.77 2119.57 1349.89 Q2121.19 1348 2121.19 1344.87 L2121.19 1344.16 L2118.01 1344.16 M2124.38 1342.84 L2124.38 1353.94 L2121.19 1353.94 L2121.19 1350.98 Q2120.1 1352.76 2118.46 1353.61 Q2116.83 1354.44 2114.47 1354.44 Q2111.48 1354.44 2109.71 1352.77 Q2107.96 1351.09 2107.96 1348.28 Q2107.96 1345 2110.15 1343.33 Q2112.35 1341.66 2116.71 1341.66 L2121.19 1341.66 L2121.19 1341.35 Q2121.19 1339.14 2119.73 1337.95 Q2118.29 1336.73 2115.67 1336.73 Q2114 1336.73 2112.42 1337.13 Q2110.84 1337.53 2109.38 1338.33 L2109.38 1335.38 Q2111.14 1334.7 2112.79 1334.37 Q2114.44 1334.02 2116 1334.02 Q2120.22 1334.02 2122.3 1336.21 Q2124.38 1338.4 2124.38 1342.84 Z" fill="#000000" fill-rule="evenodd" fill-opacity="1" /><path clip-path="url(#clip250)" d="M2153.53 1337.48 Q2152.99 1337.17 2152.35 1337.03 Q2151.73 1336.87 2150.96 1336.87 Q2148.25 1336.87 2146.8 1338.64 Q2145.36 1340.39 2145.36 1343.69 L2145.36 1353.94 L2142.14 1353.94 L2142.14 1334.49 L2145.36 1334.49 L2145.36 1337.51 Q2146.36 1335.74 2147.98 1334.89 Q2149.59 1334.02 2151.9 1334.02 Q2152.23 1334.02 2152.63 1334.08 Q2153.03 1334.11 2153.52 1334.2 L2153.53 1337.48 Z" fill="#000000" fill-rule="evenodd" fill-opacity="1" /><path clip-path="url(#clip250)" d="M2164.97 1355.74 Q2163.62 1359.21 2162.33 1360.27 Q2161.05 1361.33 2158.9 1361.33 L2156.35 1361.33 L2156.35 1358.66 L2158.22 1358.66 Q2159.54 1358.66 2160.27 1358.03 Q2161 1357.41 2161.88 1355.08 L2162.46 1353.62 L2154.59 1334.49 L2157.98 1334.49 L2164.05 1349.7 L2170.13 1334.49 L2173.52 1334.49 L2164.97 1355.74 Z" fill="#000000" fill-rule="evenodd" fill-opacity="1" /><path clip-path="url(#clip250)" d="M2194.09 1342.2 L2194.09 1353.94 L2190.89 1353.94 L2190.89 1342.3 Q2190.89 1339.54 2189.82 1338.17 Q2188.74 1336.8 2186.59 1336.8 Q2184 1336.8 2182.51 1338.45 Q2181.02 1340.1 2181.02 1342.95 L2181.02 1353.94 L2177.8 1353.94 L2177.8 1334.49 L2181.02 1334.49 L2181.02 1337.51 Q2182.16 1335.76 2183.71 1334.89 Q2185.27 1334.02 2187.3 1334.02 Q2190.65 1334.02 2192.37 1336.11 Q2194.09 1338.17 2194.09 1342.2 Z" fill="#000000" fill-rule="evenodd" fill-opacity="1" /><path clip-path="url(#clip250)" d="M2200.34 1326.92 L2203.55 1326.92 L2203.55 1342.88 L2213.08 1334.49 L2217.16 1334.49 L2206.85 1343.59 L2217.59 1353.94 L2213.43 1353.94 L2203.55 1344.44 L2203.55 1353.94 L2200.34 1353.94 L2200.34 1326.92 Z" fill="#000000" fill-rule="evenodd" fill-opacity="1" /><path clip-path="url(#clip250)" d="M2219.63 1346.26 L2219.63 1334.49 L2222.82 1334.49 L2222.82 1346.14 Q2222.82 1348.9 2223.9 1350.29 Q2224.97 1351.66 2227.13 1351.66 Q2229.71 1351.66 2231.21 1350.01 Q2232.72 1348.36 2232.72 1345.52 L2232.72 1334.49 L2235.91 1334.49 L2235.91 1353.94 L2232.72 1353.94 L2232.72 1350.95 Q2231.55 1352.72 2230.01 1353.59 Q2228.48 1354.44 2226.45 1354.44 Q2223.1 1354.44 2221.36 1352.36 Q2219.63 1350.27 2219.63 1346.26 M2227.66 1334.02 L2227.66 1334.02 Z" fill="#000000" fill-rule="evenodd" fill-opacity="1" /></svg>
