<?xml version="1.0" encoding="utf-8"?>
<svg xmlns="http://www.w3.org/2000/svg" xmlns:xlink="http://www.w3.org/1999/xlink" width="600" height="400" viewBox="0 0 2400 1600">
<defs>
  <clipPath id="clip210">
    <rect x="0" y="0" width="2400" height="1600"/>
  </clipPath>
</defs>
<path clip-path="url(#clip210)" d="
M0 1600 L2400 1600 L2400 0 L0 0  Z
  " fill="#ffffff" fill-rule="evenodd" fill-opacity="1"/>
<defs>
  <clipPath id="clip211">
    <rect x="480" y="0" width="1681" height="1600"/>
  </clipPath>
</defs>
<path clip-path="url(#clip210)" d="
M249.542 1423.18 L2352.76 1423.18 L2352.76 123.472 L249.542 123.472  Z
  " fill="#ffffff" fill-rule="evenodd" fill-opacity="1"/>
<defs>
  <clipPath id="clip212">
    <rect x="249" y="123" width="2104" height="1301"/>
  </clipPath>
</defs>
<polyline clip-path="url(#clip212)" style="stroke:#000000; stroke-linecap:butt; stroke-linejoin:round; stroke-width:2; stroke-opacity:0.1; fill:none" points="
  549.046,1423.18 549.046,123.472 
  "/>
<polyline clip-path="url(#clip212)" style="stroke:#000000; stroke-linecap:butt; stroke-linejoin:round; stroke-width:2; stroke-opacity:0.1; fill:none" points="
  956.544,1423.18 956.544,123.472 
  "/>
<polyline clip-path="url(#clip212)" style="stroke:#000000; stroke-linecap:butt; stroke-linejoin:round; stroke-width:2; stroke-opacity:0.1; fill:none" points="
  1364.04,1423.18 1364.04,123.472 
  "/>
<polyline clip-path="url(#clip212)" style="stroke:#000000; stroke-linecap:butt; stroke-linejoin:round; stroke-width:2; stroke-opacity:0.1; fill:none" points="
  1771.54,1423.18 1771.54,123.472 
  "/>
<polyline clip-path="url(#clip212)" style="stroke:#000000; stroke-linecap:butt; stroke-linejoin:round; stroke-width:2; stroke-opacity:0.1; fill:none" points="
  2179.04,1423.18 2179.04,123.472 
  "/>
<polyline clip-path="url(#clip210)" style="stroke:#000000; stroke-linecap:butt; stroke-linejoin:round; stroke-width:4; stroke-opacity:1; fill:none" points="
  249.542,1423.18 2352.76,1423.18 
  "/>
<polyline clip-path="url(#clip210)" style="stroke:#000000; stroke-linecap:butt; stroke-linejoin:round; stroke-width:4; stroke-opacity:1; fill:none" points="
  549.046,1423.18 549.046,1404.28 
  "/>
<polyline clip-path="url(#clip210)" style="stroke:#000000; stroke-linecap:butt; stroke-linejoin:round; stroke-width:4; stroke-opacity:1; fill:none" points="
  956.544,1423.18 956.544,1404.28 
  "/>
<polyline clip-path="url(#clip210)" style="stroke:#000000; stroke-linecap:butt; stroke-linejoin:round; stroke-width:4; stroke-opacity:1; fill:none" points="
  1364.04,1423.18 1364.04,1404.28 
  "/>
<polyline clip-path="url(#clip210)" style="stroke:#000000; stroke-linecap:butt; stroke-linejoin:round; stroke-width:4; stroke-opacity:1; fill:none" points="
  1771.54,1423.18 1771.54,1404.28 
  "/>
<polyline clip-path="url(#clip210)" style="stroke:#000000; stroke-linecap:butt; stroke-linejoin:round; stroke-width:4; stroke-opacity:1; fill:none" points="
  2179.04,1423.18 2179.04,1404.28 
  "/>
<path clip-path="url(#clip210)" d="M549.046 1454.1 Q545.435 1454.1 543.606 1457.66 Q541.8 1461.2 541.8 1468.33 Q541.8 1475.44 543.606 1479.01 Q545.435 1482.55 549.046 1482.55 Q552.68 1482.55 554.486 1479.01 Q556.314 1475.44 556.314 1468.33 Q556.314 1461.2 554.486 1457.66 Q552.68 1454.1 549.046 1454.1 M549.046 1450.39 Q554.856 1450.39 557.912 1455 Q560.99 1459.58 560.99 1468.33 Q560.99 1477.06 557.912 1481.67 Q554.856 1486.25 549.046 1486.25 Q543.236 1486.25 540.157 1481.67 Q537.101 1477.06 537.101 1468.33 Q537.101 1459.58 540.157 1455 Q543.236 1450.39 549.046 1450.39 Z" fill="#000000" fill-rule="evenodd" fill-opacity="1" /><path clip-path="url(#clip210)" d="M951.197 1481.64 L967.516 1481.64 L967.516 1485.58 L945.572 1485.58 L945.572 1481.64 Q948.234 1478.89 952.817 1474.26 Q957.424 1469.61 958.604 1468.27 Q960.85 1465.74 961.729 1464.01 Q962.632 1462.25 962.632 1460.56 Q962.632 1457.8 960.687 1456.07 Q958.766 1454.33 955.664 1454.33 Q953.465 1454.33 951.012 1455.09 Q948.581 1455.86 945.803 1457.41 L945.803 1452.69 Q948.627 1451.55 951.081 1450.97 Q953.535 1450.39 955.572 1450.39 Q960.942 1450.39 964.137 1453.08 Q967.331 1455.77 967.331 1460.26 Q967.331 1462.39 966.521 1464.31 Q965.734 1466.2 963.627 1468.8 Q963.049 1469.47 959.947 1472.69 Q956.845 1475.88 951.197 1481.64 Z" fill="#000000" fill-rule="evenodd" fill-opacity="1" /><path clip-path="url(#clip210)" d="M1367.05 1455.09 L1355.25 1473.54 L1367.05 1473.54 L1367.05 1455.09 M1365.82 1451.02 L1371.7 1451.02 L1371.7 1473.54 L1376.63 1473.54 L1376.63 1477.43 L1371.7 1477.43 L1371.7 1485.58 L1367.05 1485.58 L1367.05 1477.43 L1351.45 1477.43 L1351.45 1472.92 L1365.82 1451.02 Z" fill="#000000" fill-rule="evenodd" fill-opacity="1" /><path clip-path="url(#clip210)" d="M1771.95 1466.44 Q1768.8 1466.44 1766.95 1468.59 Q1765.12 1470.74 1765.12 1474.49 Q1765.12 1478.22 1766.95 1480.39 Q1768.8 1482.55 1771.95 1482.55 Q1775.09 1482.55 1776.92 1480.39 Q1778.77 1478.22 1778.77 1474.49 Q1778.77 1470.74 1776.92 1468.59 Q1775.09 1466.44 1771.95 1466.44 M1781.23 1451.78 L1781.23 1456.04 Q1779.47 1455.21 1777.66 1454.77 Q1775.88 1454.33 1774.12 1454.33 Q1769.49 1454.33 1767.04 1457.45 Q1764.61 1460.58 1764.26 1466.9 Q1765.63 1464.89 1767.69 1463.82 Q1769.75 1462.73 1772.22 1462.73 Q1777.43 1462.73 1780.44 1465.9 Q1783.47 1469.05 1783.47 1474.49 Q1783.47 1479.82 1780.32 1483.03 Q1777.18 1486.25 1771.95 1486.25 Q1765.95 1486.25 1762.78 1481.67 Q1759.61 1477.06 1759.61 1468.33 Q1759.61 1460.14 1763.5 1455.28 Q1767.39 1450.39 1773.94 1450.39 Q1775.7 1450.39 1777.48 1450.74 Q1779.28 1451.09 1781.23 1451.78 Z" fill="#000000" fill-rule="evenodd" fill-opacity="1" /><path clip-path="url(#clip210)" d="M2179.04 1469.17 Q2175.71 1469.17 2173.78 1470.95 Q2171.89 1472.73 2171.89 1475.86 Q2171.89 1478.98 2173.78 1480.77 Q2175.71 1482.55 2179.04 1482.55 Q2182.37 1482.55 2184.29 1480.77 Q2186.21 1478.96 2186.21 1475.86 Q2186.21 1472.73 2184.29 1470.95 Q2182.39 1469.17 2179.04 1469.17 M2174.36 1467.18 Q2171.35 1466.44 2169.66 1464.38 Q2168 1462.32 2168 1459.35 Q2168 1455.21 2170.94 1452.8 Q2173.9 1450.39 2179.04 1450.39 Q2184.2 1450.39 2187.14 1452.8 Q2190.08 1455.21 2190.08 1459.35 Q2190.08 1462.32 2188.39 1464.38 Q2186.72 1466.44 2183.74 1467.18 Q2187.12 1467.96 2188.99 1470.26 Q2190.89 1472.55 2190.89 1475.86 Q2190.89 1480.88 2187.81 1483.57 Q2184.76 1486.25 2179.04 1486.25 Q2173.32 1486.25 2170.24 1483.57 Q2167.19 1480.88 2167.19 1475.86 Q2167.19 1472.55 2169.08 1470.26 Q2170.98 1467.96 2174.36 1467.18 M2172.65 1459.79 Q2172.65 1462.48 2174.32 1463.98 Q2176.01 1465.49 2179.04 1465.49 Q2182.05 1465.49 2183.74 1463.98 Q2185.45 1462.48 2185.45 1459.79 Q2185.45 1457.11 2183.74 1455.6 Q2182.05 1454.1 2179.04 1454.1 Q2176.01 1454.1 2174.32 1455.6 Q2172.65 1457.11 2172.65 1459.79 Z" fill="#000000" fill-rule="evenodd" fill-opacity="1" /><path clip-path="url(#clip210)" d="M944.542 1520.52 L953.199 1520.52 L974.27 1560.28 L974.27 1520.52 L980.508 1520.52 L980.508 1568.04 L971.851 1568.04 L950.78 1528.29 L950.78 1568.04 L944.542 1568.04 L944.542 1520.52 Z" fill="#000000" fill-rule="evenodd" fill-opacity="1" /><path clip-path="url(#clip210)" d="M1009.25 1550.12 Q1002.15 1550.12 999.414 1551.75 Q996.677 1553.37 996.677 1557.29 Q996.677 1560.4 998.714 1562.25 Q1000.78 1564.07 1004.32 1564.07 Q1009.19 1564.07 1012.11 1560.63 Q1015.07 1557.16 1015.07 1551.43 L1015.07 1550.12 L1009.25 1550.12 M1020.93 1547.71 L1020.93 1568.04 L1015.07 1568.04 L1015.07 1562.63 Q1013.07 1565.88 1010.08 1567.44 Q1007.09 1568.97 1002.76 1568.97 Q997.282 1568.97 994.035 1565.91 Q990.821 1562.82 990.821 1557.67 Q990.821 1551.65 994.831 1548.6 Q998.873 1545.54 1006.86 1545.54 L1015.07 1545.54 L1015.07 1544.97 Q1015.07 1540.93 1012.4 1538.73 Q1009.76 1536.5 1004.95 1536.5 Q1001.9 1536.5 999.001 1537.23 Q996.104 1537.97 993.431 1539.43 L993.431 1534.02 Q996.645 1532.78 999.669 1532.17 Q1002.69 1531.54 1005.56 1531.54 Q1013.29 1531.54 1017.11 1535.55 Q1020.93 1539.56 1020.93 1547.71 Z" fill="#000000" fill-rule="evenodd" fill-opacity="1" /><path clip-path="url(#clip210)" d="M1056.45 1537.81 L1056.45 1518.52 L1062.31 1518.52 L1062.31 1568.04 L1056.45 1568.04 L1056.45 1562.7 Q1054.61 1565.88 1051.77 1567.44 Q1048.97 1568.97 1045.02 1568.97 Q1038.56 1568.97 1034.49 1563.81 Q1030.45 1558.65 1030.45 1550.25 Q1030.45 1541.85 1034.49 1536.69 Q1038.56 1531.54 1045.02 1531.54 Q1048.97 1531.54 1051.77 1533.1 Q1054.61 1534.62 1056.45 1537.81 M1036.49 1550.25 Q1036.49 1556.71 1039.14 1560.4 Q1041.81 1564.07 1046.46 1564.07 Q1051.1 1564.07 1053.78 1560.4 Q1056.45 1556.71 1056.45 1550.25 Q1056.45 1543.79 1053.78 1540.13 Q1051.1 1536.44 1046.46 1536.44 Q1041.81 1536.44 1039.14 1540.13 Q1036.49 1543.79 1036.49 1550.25 Z" fill="#000000" fill-rule="evenodd" fill-opacity="1" /><path clip-path="url(#clip210)" d="M1070.97 1532.4 L1076.82 1532.4 L1084.14 1560.21 L1091.43 1532.4 L1098.34 1532.4 L1105.66 1560.21 L1112.95 1532.4 L1118.8 1532.4 L1109.48 1568.04 L1102.57 1568.04 L1094.9 1538.83 L1087.2 1568.04 L1080.29 1568.04 L1070.97 1532.4 Z" fill="#000000" fill-rule="evenodd" fill-opacity="1" /><path clip-path="url(#clip210)" d="M1142.52 1571.35 Q1140.03 1577.72 1137.68 1579.66 Q1135.32 1581.6 1131.38 1581.6 L1126.7 1581.6 L1126.7 1576.7 L1130.13 1576.7 Q1132.55 1576.7 1133.89 1575.56 Q1135.23 1574.41 1136.85 1570.14 L1137.9 1567.47 L1123.48 1532.4 L1129.69 1532.4 L1140.83 1560.28 L1151.97 1532.4 L1158.18 1532.4 L1142.52 1571.35 Z" fill="#000000" fill-rule="evenodd" fill-opacity="1" /><path clip-path="url(#clip210)" d="M1174.15 1518.52 L1180.01 1518.52 L1180.01 1525.93 L1174.15 1525.93 L1174.15 1518.52 M1177.15 1531.54 L1177.15 1531.54 M1163.71 1532.4 L1191.53 1532.4 L1191.53 1537.74 L1169.51 1563.37 L1191.53 1563.37 L1191.53 1568.04 L1162.92 1568.04 L1162.92 1562.7 L1184.94 1537.07 L1163.71 1537.07 L1163.71 1532.4 Z" fill="#000000" fill-rule="evenodd" fill-opacity="1" /><path clip-path="url(#clip210)" d="M1200.25 1518.52 L1206.14 1518.52 L1206.14 1547.77 L1223.61 1532.4 L1231.09 1532.4 L1212.19 1549.07 L1231.89 1568.04 L1224.25 1568.04 L1206.14 1550.63 L1206.14 1568.04 L1200.25 1568.04 L1200.25 1518.52 Z" fill="#000000" fill-rule="evenodd" fill-opacity="1" /><path clip-path="url(#clip210)" d="M1253.28 1550.12 Q1246.18 1550.12 1243.44 1551.75 Q1240.71 1553.37 1240.71 1557.29 Q1240.71 1560.4 1242.74 1562.25 Q1244.81 1564.07 1248.35 1564.07 Q1253.22 1564.07 1256.14 1560.63 Q1259.1 1557.16 1259.1 1551.43 L1259.1 1550.12 L1253.28 1550.12 M1264.96 1547.71 L1264.96 1568.04 L1259.1 1568.04 L1259.1 1562.63 Q1257.1 1565.88 1254.11 1567.44 Q1251.11 1568.97 1246.79 1568.97 Q1241.31 1568.97 1238.06 1565.91 Q1234.85 1562.82 1234.85 1557.67 Q1234.85 1551.65 1238.86 1548.6 Q1242.9 1545.54 1250.89 1545.54 L1259.1 1545.54 L1259.1 1544.97 Q1259.1 1540.93 1256.43 1538.73 Q1253.79 1536.5 1248.98 1536.5 Q1245.93 1536.5 1243.03 1537.23 Q1240.13 1537.97 1237.46 1539.43 L1237.46 1534.02 Q1240.67 1532.78 1243.7 1532.17 Q1246.72 1531.54 1249.59 1531.54 Q1257.32 1531.54 1261.14 1535.55 Q1264.96 1539.56 1264.96 1547.71 Z" fill="#000000" fill-rule="evenodd" fill-opacity="1" /><path clip-path="url(#clip210)" d="M1303.41 1562.7 L1303.41 1581.6 L1297.52 1581.6 L1297.52 1532.4 L1303.41 1532.4 L1303.41 1537.81 Q1305.25 1534.62 1308.06 1533.1 Q1310.89 1531.54 1314.8 1531.54 Q1321.3 1531.54 1325.34 1536.69 Q1329.41 1541.85 1329.41 1550.25 Q1329.41 1558.65 1325.34 1563.81 Q1321.3 1568.97 1314.8 1568.97 Q1310.89 1568.97 1308.06 1567.44 Q1305.25 1565.88 1303.41 1562.7 M1323.33 1550.25 Q1323.33 1543.79 1320.66 1540.13 Q1318.02 1536.44 1313.37 1536.44 Q1308.72 1536.44 1306.05 1540.13 Q1303.41 1543.79 1303.41 1550.25 Q1303.41 1556.71 1306.05 1560.4 Q1308.72 1564.07 1313.37 1564.07 Q1318.02 1564.07 1320.66 1560.4 Q1323.33 1556.71 1323.33 1550.25 Z" fill="#000000" fill-rule="evenodd" fill-opacity="1" /><path clip-path="url(#clip210)" d="M1359.78 1537.87 Q1358.79 1537.3 1357.61 1537.04 Q1356.47 1536.76 1355.07 1536.76 Q1350.1 1536.76 1347.43 1540 Q1344.79 1543.22 1344.79 1549.27 L1344.79 1568.04 L1338.9 1568.04 L1338.9 1532.4 L1344.79 1532.4 L1344.79 1537.93 Q1346.63 1534.69 1349.59 1533.13 Q1352.55 1531.54 1356.79 1531.54 Q1357.39 1531.54 1358.12 1531.63 Q1358.85 1531.7 1359.75 1531.85 L1359.78 1537.87 Z" fill="#000000" fill-rule="evenodd" fill-opacity="1" /><path clip-path="url(#clip210)" d="M1378.3 1536.5 Q1373.59 1536.5 1370.85 1540.19 Q1368.12 1543.85 1368.12 1550.25 Q1368.12 1556.65 1370.82 1560.34 Q1373.56 1564 1378.3 1564 Q1382.98 1564 1385.72 1560.31 Q1388.45 1556.62 1388.45 1550.25 Q1388.45 1543.92 1385.72 1540.23 Q1382.98 1536.5 1378.3 1536.5 M1378.3 1531.54 Q1385.94 1531.54 1390.3 1536.5 Q1394.66 1541.47 1394.66 1550.25 Q1394.66 1559 1390.3 1564 Q1385.94 1568.97 1378.3 1568.97 Q1370.63 1568.97 1366.27 1564 Q1361.94 1559 1361.94 1550.25 Q1361.94 1541.47 1366.27 1536.5 Q1370.63 1531.54 1378.3 1531.54 Z" fill="#000000" fill-rule="evenodd" fill-opacity="1" /><path clip-path="url(#clip210)" d="M1427.83 1537.81 L1427.83 1518.52 L1433.68 1518.52 L1433.68 1568.04 L1427.83 1568.04 L1427.83 1562.7 Q1425.98 1565.88 1423.15 1567.44 Q1420.35 1568.97 1416.4 1568.97 Q1409.94 1568.97 1405.86 1563.81 Q1401.82 1558.65 1401.82 1550.25 Q1401.82 1541.85 1405.86 1536.69 Q1409.94 1531.54 1416.4 1531.54 Q1420.35 1531.54 1423.15 1533.1 Q1425.98 1534.62 1427.83 1537.81 M1407.87 1550.25 Q1407.87 1556.71 1410.51 1560.4 Q1413.19 1564.07 1417.83 1564.07 Q1422.48 1564.07 1425.15 1560.4 Q1427.83 1556.71 1427.83 1550.25 Q1427.83 1543.79 1425.15 1540.13 Q1422.48 1536.44 1417.83 1536.44 Q1413.19 1536.44 1410.51 1540.13 Q1407.87 1543.79 1407.87 1550.25 Z" fill="#000000" fill-rule="evenodd" fill-opacity="1" /><path clip-path="url(#clip210)" d="M1445.14 1553.98 L1445.14 1532.4 L1451 1532.4 L1451 1553.75 Q1451 1558.81 1452.97 1561.36 Q1454.94 1563.87 1458.89 1563.87 Q1463.63 1563.87 1466.37 1560.85 Q1469.14 1557.83 1469.14 1552.61 L1469.14 1532.4 L1475 1532.4 L1475 1568.04 L1469.14 1568.04 L1469.14 1562.57 Q1467.01 1565.82 1464.17 1567.41 Q1461.37 1568.97 1457.65 1568.97 Q1451.51 1568.97 1448.32 1565.15 Q1445.14 1561.33 1445.14 1553.98 M1459.88 1531.54 L1459.88 1531.54 Z" fill="#000000" fill-rule="evenodd" fill-opacity="1" /><path clip-path="url(#clip210)" d="M1512.71 1533.76 L1512.71 1539.24 Q1510.23 1537.87 1507.72 1537.2 Q1505.23 1536.5 1502.69 1536.5 Q1496.99 1536.5 1493.84 1540.13 Q1490.69 1543.73 1490.69 1550.25 Q1490.69 1556.78 1493.84 1560.4 Q1496.99 1564 1502.69 1564 Q1505.23 1564 1507.72 1563.33 Q1510.23 1562.63 1512.71 1561.26 L1512.71 1566.68 Q1510.26 1567.82 1507.62 1568.39 Q1505.01 1568.97 1502.05 1568.97 Q1494 1568.97 1489.26 1563.91 Q1484.51 1558.85 1484.51 1550.25 Q1484.51 1541.53 1489.29 1536.53 Q1494.09 1531.54 1502.43 1531.54 Q1505.14 1531.54 1507.72 1532.11 Q1510.29 1532.65 1512.71 1533.76 Z" fill="#000000" fill-rule="evenodd" fill-opacity="1" /><path clip-path="url(#clip210)" d="M1553.39 1548.76 L1553.39 1551.62 L1526.46 1551.62 Q1526.85 1557.67 1530.09 1560.85 Q1533.37 1564 1539.19 1564 Q1542.57 1564 1545.72 1563.17 Q1548.9 1562.35 1552.02 1560.69 L1552.02 1566.23 Q1548.87 1567.57 1545.56 1568.27 Q1542.25 1568.97 1538.84 1568.97 Q1530.31 1568.97 1525.32 1564 Q1520.35 1559.04 1520.35 1550.57 Q1520.35 1541.82 1525.06 1536.69 Q1529.81 1531.54 1537.83 1531.54 Q1545.02 1531.54 1549.19 1536.18 Q1553.39 1540.8 1553.39 1548.76 M1547.53 1547.04 Q1547.47 1542.23 1544.83 1539.37 Q1542.22 1536.5 1537.89 1536.5 Q1532.99 1536.5 1530.03 1539.27 Q1527.1 1542.04 1526.65 1547.07 L1547.53 1547.04 Z" fill="#000000" fill-rule="evenodd" fill-opacity="1" /><path clip-path="url(#clip210)" d="M1592.63 1546.53 L1592.63 1568.04 L1586.78 1568.04 L1586.78 1546.72 Q1586.78 1541.66 1584.8 1539.14 Q1582.83 1536.63 1578.88 1536.63 Q1574.14 1536.63 1571.41 1539.65 Q1568.67 1542.68 1568.67 1547.9 L1568.67 1568.04 L1562.78 1568.04 L1562.78 1532.4 L1568.67 1532.4 L1568.67 1537.93 Q1570.77 1534.72 1573.6 1533.13 Q1576.47 1531.54 1580.19 1531.54 Q1586.33 1531.54 1589.48 1535.36 Q1592.63 1539.14 1592.63 1546.53 Z" fill="#000000" fill-rule="evenodd" fill-opacity="1" /><path clip-path="url(#clip210)" d="M1610.11 1522.27 L1610.11 1532.4 L1622.17 1532.4 L1622.17 1536.95 L1610.11 1536.95 L1610.11 1556.3 Q1610.11 1560.66 1611.29 1561.9 Q1612.5 1563.14 1616.16 1563.14 L1622.17 1563.14 L1622.17 1568.04 L1616.16 1568.04 Q1609.38 1568.04 1606.8 1565.53 Q1604.22 1562.98 1604.22 1556.3 L1604.22 1536.95 L1599.92 1536.95 L1599.92 1532.4 L1604.22 1532.4 L1604.22 1522.27 L1610.11 1522.27 Z" fill="#000000" fill-rule="evenodd" fill-opacity="1" /><path clip-path="url(#clip210)" d="M1646.07 1550.12 Q1638.98 1550.12 1636.24 1551.75 Q1633.5 1553.37 1633.5 1557.29 Q1633.5 1560.4 1635.54 1562.25 Q1637.61 1564.07 1641.14 1564.07 Q1646.01 1564.07 1648.94 1560.63 Q1651.9 1557.16 1651.9 1551.43 L1651.9 1550.12 L1646.07 1550.12 M1657.76 1547.71 L1657.76 1568.04 L1651.9 1568.04 L1651.9 1562.63 Q1649.89 1565.88 1646.9 1567.44 Q1643.91 1568.97 1639.58 1568.97 Q1634.11 1568.97 1630.86 1565.91 Q1627.65 1562.82 1627.65 1557.67 Q1627.65 1551.65 1631.66 1548.6 Q1635.7 1545.54 1643.69 1545.54 L1651.9 1545.54 L1651.9 1544.97 Q1651.9 1540.93 1649.23 1538.73 Q1646.58 1536.5 1641.78 1536.5 Q1638.72 1536.5 1635.83 1537.23 Q1632.93 1537.97 1630.26 1539.43 L1630.26 1534.02 Q1633.47 1532.78 1636.49 1532.17 Q1639.52 1531.54 1642.38 1531.54 Q1650.12 1531.54 1653.94 1535.55 Q1657.76 1539.56 1657.76 1547.71 Z" fill="#000000" fill-rule="evenodd" fill-opacity="1" /><polyline clip-path="url(#clip212)" style="stroke:#000000; stroke-linecap:butt; stroke-linejoin:round; stroke-width:2; stroke-opacity:0.1; fill:none" points="
  249.542,1388.85 2352.76,1388.85 
  "/>
<polyline clip-path="url(#clip212)" style="stroke:#000000; stroke-linecap:butt; stroke-linejoin:round; stroke-width:2; stroke-opacity:0.1; fill:none" points="
  249.542,1081.7 2352.76,1081.7 
  "/>
<polyline clip-path="url(#clip212)" style="stroke:#000000; stroke-linecap:butt; stroke-linejoin:round; stroke-width:2; stroke-opacity:0.1; fill:none" points="
  249.542,774.555 2352.76,774.555 
  "/>
<polyline clip-path="url(#clip212)" style="stroke:#000000; stroke-linecap:butt; stroke-linejoin:round; stroke-width:2; stroke-opacity:0.1; fill:none" points="
  249.542,467.405 2352.76,467.405 
  "/>
<polyline clip-path="url(#clip212)" style="stroke:#000000; stroke-linecap:butt; stroke-linejoin:round; stroke-width:2; stroke-opacity:0.1; fill:none" points="
  249.542,160.256 2352.76,160.256 
  "/>
<polyline clip-path="url(#clip210)" style="stroke:#000000; stroke-linecap:butt; stroke-linejoin:round; stroke-width:4; stroke-opacity:1; fill:none" points="
  249.542,1423.18 249.542,123.472 
  "/>
<polyline clip-path="url(#clip210)" style="stroke:#000000; stroke-linecap:butt; stroke-linejoin:round; stroke-width:4; stroke-opacity:1; fill:none" points="
  249.542,1388.85 268.44,1388.85 
  "/>
<polyline clip-path="url(#clip210)" style="stroke:#000000; stroke-linecap:butt; stroke-linejoin:round; stroke-width:4; stroke-opacity:1; fill:none" points="
  249.542,1081.7 268.44,1081.7 
  "/>
<polyline clip-path="url(#clip210)" style="stroke:#000000; stroke-linecap:butt; stroke-linejoin:round; stroke-width:4; stroke-opacity:1; fill:none" points="
  249.542,774.555 268.44,774.555 
  "/>
<polyline clip-path="url(#clip210)" style="stroke:#000000; stroke-linecap:butt; stroke-linejoin:round; stroke-width:4; stroke-opacity:1; fill:none" points="
  249.542,467.405 268.44,467.405 
  "/>
<polyline clip-path="url(#clip210)" style="stroke:#000000; stroke-linecap:butt; stroke-linejoin:round; stroke-width:4; stroke-opacity:1; fill:none" points="
  249.542,160.256 268.44,160.256 
  "/>
<path clip-path="url(#clip210)" d="M126.205 1374.65 Q122.593 1374.65 120.765 1378.22 Q118.959 1381.76 118.959 1388.89 Q118.959 1395.99 120.765 1399.56 Q122.593 1403.1 126.205 1403.1 Q129.839 1403.1 131.644 1399.56 Q133.473 1395.99 133.473 1388.89 Q133.473 1381.76 131.644 1378.22 Q129.839 1374.65 126.205 1374.65 M126.205 1370.95 Q132.015 1370.95 135.07 1375.55 Q138.149 1380.14 138.149 1388.89 Q138.149 1397.61 135.07 1402.22 Q132.015 1406.8 126.205 1406.8 Q120.394 1406.8 117.316 1402.22 Q114.26 1397.61 114.26 1388.89 Q114.26 1380.14 117.316 1375.55 Q120.394 1370.95 126.205 1370.95 Z" fill="#000000" fill-rule="evenodd" fill-opacity="1" /><path clip-path="url(#clip210)" d="M146.366 1400.25 L151.251 1400.25 L151.251 1406.13 L146.366 1406.13 L146.366 1400.25 Z" fill="#000000" fill-rule="evenodd" fill-opacity="1" /><path clip-path="url(#clip210)" d="M171.436 1374.65 Q167.825 1374.65 165.996 1378.22 Q164.19 1381.76 164.19 1388.89 Q164.19 1395.99 165.996 1399.56 Q167.825 1403.1 171.436 1403.1 Q175.07 1403.1 176.876 1399.56 Q178.704 1395.99 178.704 1388.89 Q178.704 1381.76 176.876 1378.22 Q175.07 1374.65 171.436 1374.65 M171.436 1370.95 Q177.246 1370.95 180.301 1375.55 Q183.38 1380.14 183.38 1388.89 Q183.38 1397.61 180.301 1402.22 Q177.246 1406.8 171.436 1406.8 Q165.626 1406.8 162.547 1402.22 Q159.491 1397.61 159.491 1388.89 Q159.491 1380.14 162.547 1375.55 Q165.626 1370.95 171.436 1370.95 Z" fill="#000000" fill-rule="evenodd" fill-opacity="1" /><path clip-path="url(#clip210)" d="M201.598 1374.65 Q197.987 1374.65 196.158 1378.22 Q194.352 1381.76 194.352 1388.89 Q194.352 1395.99 196.158 1399.56 Q197.987 1403.1 201.598 1403.1 Q205.232 1403.1 207.037 1399.56 Q208.866 1395.99 208.866 1388.89 Q208.866 1381.76 207.037 1378.22 Q205.232 1374.65 201.598 1374.65 M201.598 1370.95 Q207.408 1370.95 210.463 1375.55 Q213.542 1380.14 213.542 1388.89 Q213.542 1397.61 210.463 1402.22 Q207.408 1406.8 201.598 1406.8 Q195.787 1406.8 192.709 1402.22 Q189.653 1397.61 189.653 1388.89 Q189.653 1380.14 192.709 1375.55 Q195.787 1370.95 201.598 1370.95 Z" fill="#000000" fill-rule="evenodd" fill-opacity="1" /><path clip-path="url(#clip210)" d="M127.2 1067.5 Q123.589 1067.5 121.76 1071.07 Q119.955 1074.61 119.955 1081.74 Q119.955 1088.84 121.76 1092.41 Q123.589 1095.95 127.2 1095.95 Q130.834 1095.95 132.64 1092.41 Q134.468 1088.84 134.468 1081.74 Q134.468 1074.61 132.64 1071.07 Q130.834 1067.5 127.2 1067.5 M127.2 1063.8 Q133.01 1063.8 136.066 1068.41 Q139.144 1072.99 139.144 1081.74 Q139.144 1090.47 136.066 1095.07 Q133.01 1099.66 127.2 1099.66 Q121.39 1099.66 118.311 1095.07 Q115.256 1090.47 115.256 1081.74 Q115.256 1072.99 118.311 1068.41 Q121.39 1063.8 127.2 1063.8 Z" fill="#000000" fill-rule="evenodd" fill-opacity="1" /><path clip-path="url(#clip210)" d="M147.362 1093.1 L152.246 1093.1 L152.246 1098.98 L147.362 1098.98 L147.362 1093.1 Z" fill="#000000" fill-rule="evenodd" fill-opacity="1" /><path clip-path="url(#clip210)" d="M166.459 1095.05 L182.778 1095.05 L182.778 1098.98 L160.834 1098.98 L160.834 1095.05 Q163.496 1092.29 168.079 1087.66 Q172.686 1083.01 173.866 1081.67 Q176.112 1079.15 176.991 1077.41 Q177.894 1075.65 177.894 1073.96 Q177.894 1071.21 175.95 1069.47 Q174.028 1067.73 170.927 1067.73 Q168.727 1067.73 166.274 1068.5 Q163.843 1069.26 161.065 1070.81 L161.065 1066.09 Q163.89 1064.96 166.343 1064.38 Q168.797 1063.8 170.834 1063.8 Q176.204 1063.8 179.399 1066.48 Q182.593 1069.17 182.593 1073.66 Q182.593 1075.79 181.783 1077.71 Q180.996 1079.61 178.889 1082.2 Q178.311 1082.87 175.209 1086.09 Q172.107 1089.28 166.459 1095.05 Z" fill="#000000" fill-rule="evenodd" fill-opacity="1" /><path clip-path="url(#clip210)" d="M192.639 1064.42 L210.996 1064.42 L210.996 1068.36 L196.922 1068.36 L196.922 1076.83 Q197.94 1076.48 198.959 1076.32 Q199.977 1076.14 200.996 1076.14 Q206.783 1076.14 210.162 1079.31 Q213.542 1082.48 213.542 1087.9 Q213.542 1093.47 210.07 1096.58 Q206.598 1099.66 200.278 1099.66 Q198.102 1099.66 195.834 1099.28 Q193.588 1098.91 191.181 1098.17 L191.181 1093.47 Q193.264 1094.61 195.487 1095.16 Q197.709 1095.72 200.186 1095.72 Q204.19 1095.72 206.528 1093.61 Q208.866 1091.51 208.866 1087.9 Q208.866 1084.28 206.528 1082.18 Q204.19 1080.07 200.186 1080.07 Q198.311 1080.07 196.436 1080.49 Q194.584 1080.91 192.639 1081.78 L192.639 1064.42 Z" fill="#000000" fill-rule="evenodd" fill-opacity="1" /><path clip-path="url(#clip210)" d="M126.205 760.353 Q122.593 760.353 120.765 763.918 Q118.959 767.46 118.959 774.589 Q118.959 781.696 120.765 785.261 Q122.593 788.802 126.205 788.802 Q129.839 788.802 131.644 785.261 Q133.473 781.696 133.473 774.589 Q133.473 767.46 131.644 763.918 Q129.839 760.353 126.205 760.353 M126.205 756.65 Q132.015 756.65 135.07 761.256 Q138.149 765.839 138.149 774.589 Q138.149 783.316 135.07 787.923 Q132.015 792.506 126.205 792.506 Q120.394 792.506 117.316 787.923 Q114.26 783.316 114.26 774.589 Q114.26 765.839 117.316 761.256 Q120.394 756.65 126.205 756.65 Z" fill="#000000" fill-rule="evenodd" fill-opacity="1" /><path clip-path="url(#clip210)" d="M146.366 785.955 L151.251 785.955 L151.251 791.835 L146.366 791.835 L146.366 785.955 Z" fill="#000000" fill-rule="evenodd" fill-opacity="1" /><path clip-path="url(#clip210)" d="M161.482 757.275 L179.839 757.275 L179.839 761.21 L165.765 761.21 L165.765 769.682 Q166.783 769.335 167.802 769.173 Q168.82 768.987 169.839 768.987 Q175.626 768.987 179.005 772.159 Q182.385 775.33 182.385 780.747 Q182.385 786.325 178.913 789.427 Q175.44 792.506 169.121 792.506 Q166.945 792.506 164.677 792.136 Q162.431 791.765 160.024 791.024 L160.024 786.325 Q162.107 787.46 164.329 788.015 Q166.552 788.571 169.028 788.571 Q173.033 788.571 175.371 786.464 Q177.709 784.358 177.709 780.747 Q177.709 777.136 175.371 775.029 Q173.033 772.923 169.028 772.923 Q167.153 772.923 165.278 773.339 Q163.427 773.756 161.482 774.636 L161.482 757.275 Z" fill="#000000" fill-rule="evenodd" fill-opacity="1" /><path clip-path="url(#clip210)" d="M201.598 760.353 Q197.987 760.353 196.158 763.918 Q194.352 767.46 194.352 774.589 Q194.352 781.696 196.158 785.261 Q197.987 788.802 201.598 788.802 Q205.232 788.802 207.037 785.261 Q208.866 781.696 208.866 774.589 Q208.866 767.46 207.037 763.918 Q205.232 760.353 201.598 760.353 M201.598 756.65 Q207.408 756.65 210.463 761.256 Q213.542 765.839 213.542 774.589 Q213.542 783.316 210.463 787.923 Q207.408 792.506 201.598 792.506 Q195.787 792.506 192.709 787.923 Q189.653 783.316 189.653 774.589 Q189.653 765.839 192.709 761.256 Q195.787 756.65 201.598 756.65 Z" fill="#000000" fill-rule="evenodd" fill-opacity="1" /><path clip-path="url(#clip210)" d="M127.2 453.204 Q123.589 453.204 121.76 456.769 Q119.955 460.311 119.955 467.44 Q119.955 474.547 121.76 478.111 Q123.589 481.653 127.2 481.653 Q130.834 481.653 132.64 478.111 Q134.468 474.547 134.468 467.44 Q134.468 460.311 132.64 456.769 Q130.834 453.204 127.2 453.204 M127.2 449.5 Q133.01 449.5 136.066 454.107 Q139.144 458.69 139.144 467.44 Q139.144 476.167 136.066 480.773 Q133.01 485.357 127.2 485.357 Q121.39 485.357 118.311 480.773 Q115.256 476.167 115.256 467.44 Q115.256 458.69 118.311 454.107 Q121.39 449.5 127.2 449.5 Z" fill="#000000" fill-rule="evenodd" fill-opacity="1" /><path clip-path="url(#clip210)" d="M147.362 478.806 L152.246 478.806 L152.246 484.685 L147.362 484.685 L147.362 478.806 Z" fill="#000000" fill-rule="evenodd" fill-opacity="1" /><path clip-path="url(#clip210)" d="M161.251 450.125 L183.473 450.125 L183.473 452.116 L170.927 484.685 L166.042 484.685 L177.848 454.061 L161.251 454.061 L161.251 450.125 Z" fill="#000000" fill-rule="evenodd" fill-opacity="1" /><path clip-path="url(#clip210)" d="M192.639 450.125 L210.996 450.125 L210.996 454.061 L196.922 454.061 L196.922 462.533 Q197.94 462.186 198.959 462.024 Q199.977 461.838 200.996 461.838 Q206.783 461.838 210.162 465.01 Q213.542 468.181 213.542 473.598 Q213.542 479.176 210.07 482.278 Q206.598 485.357 200.278 485.357 Q198.102 485.357 195.834 484.986 Q193.588 484.616 191.181 483.875 L191.181 479.176 Q193.264 480.31 195.487 480.866 Q197.709 481.422 200.186 481.422 Q204.19 481.422 206.528 479.315 Q208.866 477.209 208.866 473.598 Q208.866 469.986 206.528 467.88 Q204.19 465.774 200.186 465.774 Q198.311 465.774 196.436 466.19 Q194.584 466.607 192.639 467.486 L192.639 450.125 Z" fill="#000000" fill-rule="evenodd" fill-opacity="1" /><path clip-path="url(#clip210)" d="M117.015 173.601 L124.654 173.601 L124.654 147.236 L116.343 148.902 L116.343 144.643 L124.607 142.976 L129.283 142.976 L129.283 173.601 L136.922 173.601 L136.922 177.536 L117.015 177.536 L117.015 173.601 Z" fill="#000000" fill-rule="evenodd" fill-opacity="1" /><path clip-path="url(#clip210)" d="M146.366 171.657 L151.251 171.657 L151.251 177.536 L146.366 177.536 L146.366 171.657 Z" fill="#000000" fill-rule="evenodd" fill-opacity="1" /><path clip-path="url(#clip210)" d="M171.436 146.055 Q167.825 146.055 165.996 149.62 Q164.19 153.161 164.19 160.291 Q164.19 167.397 165.996 170.962 Q167.825 174.504 171.436 174.504 Q175.07 174.504 176.876 170.962 Q178.704 167.397 178.704 160.291 Q178.704 153.161 176.876 149.62 Q175.07 146.055 171.436 146.055 M171.436 142.351 Q177.246 142.351 180.301 146.958 Q183.38 151.541 183.38 160.291 Q183.38 169.018 180.301 173.624 Q177.246 178.208 171.436 178.208 Q165.626 178.208 162.547 173.624 Q159.491 169.018 159.491 160.291 Q159.491 151.541 162.547 146.958 Q165.626 142.351 171.436 142.351 Z" fill="#000000" fill-rule="evenodd" fill-opacity="1" /><path clip-path="url(#clip210)" d="M201.598 146.055 Q197.987 146.055 196.158 149.62 Q194.352 153.161 194.352 160.291 Q194.352 167.397 196.158 170.962 Q197.987 174.504 201.598 174.504 Q205.232 174.504 207.037 170.962 Q208.866 167.397 208.866 160.291 Q208.866 153.161 207.037 149.62 Q205.232 146.055 201.598 146.055 M201.598 142.351 Q207.408 142.351 210.463 146.958 Q213.542 151.541 213.542 160.291 Q213.542 169.018 210.463 173.624 Q207.408 178.208 201.598 178.208 Q195.787 178.208 192.709 173.624 Q189.653 169.018 189.653 160.291 Q189.653 151.541 192.709 146.958 Q195.787 142.351 201.598 142.351 Z" fill="#000000" fill-rule="evenodd" fill-opacity="1" /><path clip-path="url(#clip210)" d="M16.4842 830.792 L16.4842 803.484 L21.895 803.484 L21.895 824.363 L35.8996 824.363 L35.8996 805.521 L41.3104 805.521 L41.3104 824.363 L64.0042 824.363 L64.0042 830.792 L16.4842 830.792 Z" fill="#000000" fill-rule="evenodd" fill-opacity="1" /><path clip-path="url(#clip210)" d="M14.5426 779.485 Q21.8632 783.75 29.0246 785.819 Q36.186 787.888 43.5384 787.888 Q50.8908 787.888 58.1159 785.819 Q65.3091 783.718 72.5979 779.485 L72.5979 784.577 Q65.1182 789.352 57.8931 791.739 Q50.668 794.094 43.5384 794.094 Q36.4406 794.094 29.2474 791.739 Q22.0542 789.383 14.5426 784.577 L14.5426 779.485 Z" fill="#000000" fill-rule="evenodd" fill-opacity="1" /><path clip-path="url(#clip210)" d="M28.3562 738.49 L45.7028 751.38 L64.0042 737.821 L64.0042 744.728 L49.9996 755.104 L64.0042 765.48 L64.0042 772.387 L45.3526 758.542 L28.3562 771.209 L28.3562 764.303 L41.0558 754.85 L28.3562 745.396 L28.3562 738.49 Z" fill="#000000" fill-rule="evenodd" fill-opacity="1" /><path clip-path="url(#clip210)" d="M14.5426 730.469 L14.5426 725.376 Q22.0542 720.602 29.2474 718.247 Q36.4406 715.86 43.5384 715.86 Q50.668 715.86 57.8931 718.247 Q65.1182 720.602 72.5979 725.376 L72.5979 730.469 Q65.3091 726.236 58.1159 724.167 Q50.8908 722.066 43.5384 722.066 Q36.186 722.066 29.0246 724.167 Q21.8632 726.236 14.5426 730.469 Z" fill="#000000" fill-rule="evenodd" fill-opacity="1" /><path clip-path="url(#clip210)" d="M282.022 18.8205 L282.022 65.8515 L291.907 65.8515 Q304.424 65.8515 310.217 60.1802 Q316.05 54.509 316.05 42.2752 Q316.05 30.1225 310.217 24.4918 Q304.424 18.8205 291.907 18.8205 L282.022 18.8205 M273.84 12.096 L290.651 12.096 Q308.232 12.096 316.455 19.4281 Q324.679 26.7198 324.679 42.2752 Q324.679 57.9117 316.415 65.2439 Q308.151 72.576 290.651 72.576 L273.84 72.576 L273.84 12.096 Z" fill="#000000" fill-rule="evenodd" fill-opacity="1" /><path clip-path="url(#clip210)" d="M356.276 76.7889 Q353.116 84.8907 350.118 87.3618 Q347.121 89.8329 342.097 89.8329 L336.143 89.8329 L336.143 83.5945 L340.518 83.5945 Q343.596 83.5945 345.298 82.1361 Q346.999 80.6778 349.065 75.2496 L350.402 71.8468 L332.051 27.2059 L339.95 27.2059 L354.129 62.6918 L368.307 27.2059 L376.206 27.2059 L356.276 76.7889 Z" fill="#000000" fill-rule="evenodd" fill-opacity="1" /><path clip-path="url(#clip210)" d="M415.419 28.5427 L415.419 35.5912 Q412.259 33.9709 408.856 33.1607 Q405.454 32.3505 401.808 32.3505 Q396.258 32.3505 393.463 34.0519 Q390.708 35.7533 390.708 39.156 Q390.708 41.7486 392.693 43.2475 Q394.678 44.7058 400.673 46.0426 L403.226 46.6097 Q411.165 48.3111 414.487 51.4303 Q417.849 54.509 417.849 60.0587 Q417.849 66.3781 412.826 70.0644 Q407.844 73.7508 399.094 73.7508 Q395.448 73.7508 391.478 73.0216 Q387.549 72.3329 383.174 70.9151 L383.174 63.2184 Q387.305 65.3654 391.316 66.4591 Q395.326 67.5124 399.256 67.5124 Q404.522 67.5124 407.357 65.73 Q410.193 63.9071 410.193 60.6258 Q410.193 57.5877 408.127 55.9673 Q406.102 54.3469 399.175 52.8481 L396.582 52.2405 Q389.655 50.7821 386.576 47.7845 Q383.498 44.7463 383.498 39.4801 Q383.498 33.0797 388.035 29.5959 Q392.572 26.1121 400.917 26.1121 Q405.048 26.1121 408.694 26.7198 Q412.34 27.3274 415.419 28.5427 Z" fill="#000000" fill-rule="evenodd" fill-opacity="1" /><path clip-path="url(#clip210)" d="M437.091 14.324 L437.091 27.2059 L452.444 27.2059 L452.444 32.9987 L437.091 32.9987 L437.091 57.6282 Q437.091 63.1779 438.59 64.7578 Q440.129 66.3376 444.788 66.3376 L452.444 66.3376 L452.444 72.576 L444.788 72.576 Q436.159 72.576 432.878 69.3758 Q429.597 66.1351 429.597 57.6282 L429.597 32.9987 L424.128 32.9987 L424.128 27.2059 L429.597 27.2059 L429.597 14.324 L437.091 14.324 Z" fill="#000000" fill-rule="evenodd" fill-opacity="1" /><path clip-path="url(#clip210)" d="M488.538 34.1734 Q487.282 33.4443 485.783 33.1202 Q484.325 32.7556 482.542 32.7556 Q476.223 32.7556 472.82 36.8875 Q469.458 40.9789 469.458 48.6757 L469.458 72.576 L461.964 72.576 L461.964 27.2059 L469.458 27.2059 L469.458 34.2544 Q471.807 30.1225 475.575 28.1376 Q479.342 26.1121 484.73 26.1121 Q485.499 26.1121 486.431 26.2337 Q487.363 26.3147 488.497 26.5172 L488.538 34.1734 Z" fill="#000000" fill-rule="evenodd" fill-opacity="1" /><path clip-path="url(#clip210)" d="M515.233 76.7889 Q512.073 84.8907 509.076 87.3618 Q506.078 89.8329 501.055 89.8329 L495.1 89.8329 L495.1 83.5945 L499.475 83.5945 Q502.554 83.5945 504.255 82.1361 Q505.956 80.6778 508.022 75.2496 L509.359 71.8468 L491.009 27.2059 L498.908 27.2059 L513.086 62.6918 L527.264 27.2059 L535.163 27.2059 L515.233 76.7889 Z" fill="#000000" fill-rule="evenodd" fill-opacity="1" /><path clip-path="url(#clip210)" d="M578.022 49.9314 Q578.022 41.7081 574.619 37.0496 Q571.257 32.3505 565.343 32.3505 Q559.428 32.3505 556.026 37.0496 Q552.663 41.7081 552.663 49.9314 Q552.663 58.1548 556.026 62.8538 Q559.428 67.5124 565.343 67.5124 Q571.257 67.5124 574.619 62.8538 Q578.022 58.1548 578.022 49.9314 M552.663 34.0924 Q555.013 30.0415 558.578 28.0971 Q562.183 26.1121 567.166 26.1121 Q575.429 26.1121 580.574 32.6746 Q585.759 39.2371 585.759 49.9314 Q585.759 60.6258 580.574 67.1883 Q575.429 73.7508 567.166 73.7508 Q562.183 73.7508 558.578 71.8063 Q555.013 69.8214 552.663 65.7705 L552.663 72.576 L545.169 72.576 L545.169 9.54393 L552.663 9.54393 L552.663 34.0924 Z" fill="#000000" fill-rule="evenodd" fill-opacity="1" /><path clip-path="url(#clip210)" d="M597.345 54.671 L597.345 27.2059 L604.799 27.2059 L604.799 54.3874 Q604.799 60.8284 607.31 64.0691 Q609.822 67.2693 614.845 67.2693 Q620.881 67.2693 624.364 63.421 Q627.889 59.5726 627.889 52.9291 L627.889 27.2059 L635.342 27.2059 L635.342 72.576 L627.889 72.576 L627.889 65.6084 Q625.175 69.7404 621.569 71.7658 Q618.004 73.7508 613.265 73.7508 Q605.447 73.7508 601.396 68.8897 Q597.345 64.0286 597.345 54.671 M616.101 26.1121 L616.101 26.1121 Z" fill="#000000" fill-rule="evenodd" fill-opacity="1" /><path clip-path="url(#clip210)" d="M671.314 49.7694 Q662.281 49.7694 658.797 51.8354 Q655.313 53.9013 655.313 58.8839 Q655.313 62.8538 657.906 65.2034 Q660.539 67.5124 665.035 67.5124 Q671.233 67.5124 674.96 63.1374 Q678.728 58.7219 678.728 51.4303 L678.728 49.7694 L671.314 49.7694 M686.181 46.6907 L686.181 72.576 L678.728 72.576 L678.728 65.6895 Q676.175 69.8214 672.368 71.8063 Q668.56 73.7508 663.051 73.7508 Q656.083 73.7508 651.951 69.8619 Q647.86 65.9325 647.86 59.3701 Q647.86 51.7138 652.964 47.825 Q658.108 43.9361 668.276 43.9361 L678.728 43.9361 L678.728 43.2069 Q678.728 38.0623 675.325 35.2672 Q671.963 32.4315 665.846 32.4315 Q661.957 32.4315 658.27 33.3632 Q654.584 34.295 651.181 36.1584 L651.181 29.2718 Q655.273 27.692 659.121 26.9223 Q662.97 26.1121 666.615 26.1121 Q676.459 26.1121 681.32 31.2163 Q686.181 36.3204 686.181 46.6907 Z" fill="#000000" fill-rule="evenodd" fill-opacity="1" /><path clip-path="url(#clip210)" d="M739.248 45.1919 L739.248 72.576 L731.794 72.576 L731.794 45.4349 Q731.794 38.994 729.283 35.7938 Q726.771 32.5936 721.748 32.5936 Q715.712 32.5936 712.229 36.4419 Q708.745 40.2903 708.745 46.9338 L708.745 72.576 L701.251 72.576 L701.251 27.2059 L708.745 27.2059 L708.745 34.2544 Q711.418 30.163 715.024 28.1376 Q718.669 26.1121 723.409 26.1121 Q731.227 26.1121 735.238 30.9732 Q739.248 35.7938 739.248 45.1919 Z" fill="#000000" fill-rule="evenodd" fill-opacity="1" /><path clip-path="url(#clip210)" d="M761.488 14.324 L761.488 27.2059 L776.84 27.2059 L776.84 32.9987 L761.488 32.9987 L761.488 57.6282 Q761.488 63.1779 762.986 64.7578 Q764.526 66.3376 769.184 66.3376 L776.84 66.3376 L776.84 72.576 L769.184 72.576 Q760.556 72.576 757.275 69.3758 Q753.993 66.1351 753.993 57.6282 L753.993 32.9987 L748.525 32.9987 L748.525 27.2059 L753.993 27.2059 L753.993 14.324 L761.488 14.324 Z" fill="#000000" fill-rule="evenodd" fill-opacity="1" /><path clip-path="url(#clip210)" d="M807.263 49.7694 Q798.229 49.7694 794.745 51.8354 Q791.262 53.9013 791.262 58.8839 Q791.262 62.8538 793.854 65.2034 Q796.487 67.5124 800.984 67.5124 Q807.182 67.5124 810.909 63.1374 Q814.676 58.7219 814.676 51.4303 L814.676 49.7694 L807.263 49.7694 M822.13 46.6907 L822.13 72.576 L814.676 72.576 L814.676 65.6895 Q812.124 69.8214 808.316 71.8063 Q804.508 73.7508 798.999 73.7508 Q792.031 73.7508 787.899 69.8619 Q783.808 65.9325 783.808 59.3701 Q783.808 51.7138 788.912 47.825 Q794.057 43.9361 804.225 43.9361 L814.676 43.9361 L814.676 43.2069 Q814.676 38.0623 811.273 35.2672 Q807.911 32.4315 801.794 32.4315 Q797.905 32.4315 794.219 33.3632 Q790.532 34.295 787.13 36.1584 L787.13 29.2718 Q791.221 27.692 795.07 26.9223 Q798.918 26.1121 802.564 26.1121 Q812.407 26.1121 817.268 31.2163 Q822.13 36.3204 822.13 46.6907 Z" fill="#000000" fill-rule="evenodd" fill-opacity="1" /><path clip-path="url(#clip210)" d="M902.662 48.0275 L902.662 51.6733 L868.391 51.6733 Q868.877 59.3701 873.009 63.421 Q877.181 67.4314 884.594 67.4314 Q888.888 67.4314 892.899 66.3781 Q896.95 65.3249 900.92 63.2184 L900.92 70.267 Q896.909 71.9684 892.696 72.8596 Q888.483 73.7508 884.149 73.7508 Q873.292 73.7508 866.933 67.4314 Q860.613 61.1119 860.613 50.3365 Q860.613 39.1965 866.608 32.6746 Q872.644 26.1121 882.853 26.1121 Q892.008 26.1121 897.314 32.0264 Q902.662 37.9003 902.662 48.0275 M895.208 45.84 Q895.127 39.7232 891.765 36.0774 Q888.443 32.4315 882.934 32.4315 Q876.695 32.4315 872.928 35.9558 Q869.201 39.4801 868.634 45.8805 L895.208 45.84 Z" fill="#000000" fill-rule="evenodd" fill-opacity="1" /><path clip-path="url(#clip210)" d="M950.219 35.9153 Q953.014 30.8922 956.903 28.5022 Q960.792 26.1121 966.058 26.1121 Q973.147 26.1121 976.996 31.0947 Q980.844 36.0368 980.844 45.1919 L980.844 72.576 L973.35 72.576 L973.35 45.4349 Q973.35 38.913 971.041 35.7533 Q968.732 32.5936 963.992 32.5936 Q958.199 32.5936 954.837 36.4419 Q951.475 40.2903 951.475 46.9338 L951.475 72.576 L943.981 72.576 L943.981 45.4349 Q943.981 38.8725 941.672 35.7533 Q939.363 32.5936 934.542 32.5936 Q928.83 32.5936 925.468 36.4824 Q922.106 40.3308 922.106 46.9338 L922.106 72.576 L914.612 72.576 L914.612 27.2059 L922.106 27.2059 L922.106 34.2544 Q924.658 30.082 928.223 28.0971 Q931.788 26.1121 936.689 26.1121 Q941.631 26.1121 945.074 28.6237 Q948.558 31.1352 950.219 35.9153 Z" fill="#000000" fill-rule="evenodd" fill-opacity="1" /><path clip-path="url(#clip210)" d="M1002.92 65.7705 L1002.92 89.8329 L995.427 89.8329 L995.427 27.2059 L1002.92 27.2059 L1002.92 34.0924 Q1005.27 30.0415 1008.84 28.0971 Q1012.44 26.1121 1017.42 26.1121 Q1025.69 26.1121 1030.83 32.6746 Q1036.02 39.2371 1036.02 49.9314 Q1036.02 60.6258 1030.83 67.1883 Q1025.69 73.7508 1017.42 73.7508 Q1012.44 73.7508 1008.84 71.8063 Q1005.27 69.8214 1002.92 65.7705 M1028.28 49.9314 Q1028.28 41.7081 1024.88 37.0496 Q1021.52 32.3505 1015.6 32.3505 Q1009.69 32.3505 1006.28 37.0496 Q1002.92 41.7081 1002.92 49.9314 Q1002.92 58.1548 1006.28 62.8538 Q1009.69 67.5124 1015.6 67.5124 Q1021.52 67.5124 1024.88 62.8538 Q1028.28 58.1548 1028.28 49.9314 Z" fill="#000000" fill-rule="evenodd" fill-opacity="1" /><path clip-path="url(#clip210)" d="M1048.37 27.2059 L1055.83 27.2059 L1055.83 72.576 L1048.37 72.576 L1048.37 27.2059 M1048.37 9.54393 L1055.83 9.54393 L1055.83 18.9825 L1048.37 18.9825 L1048.37 9.54393 Z" fill="#000000" fill-rule="evenodd" fill-opacity="1" /><path clip-path="url(#clip210)" d="M1097.71 34.1734 Q1096.46 33.4443 1094.96 33.1202 Q1093.5 32.7556 1091.72 32.7556 Q1085.4 32.7556 1082 36.8875 Q1078.63 40.9789 1078.63 48.6757 L1078.63 72.576 L1071.14 72.576 L1071.14 27.2059 L1078.63 27.2059 L1078.63 34.2544 Q1080.98 30.1225 1084.75 28.1376 Q1088.52 26.1121 1093.9 26.1121 Q1094.67 26.1121 1095.61 26.2337 Q1096.54 26.3147 1097.67 26.5172 L1097.71 34.1734 Z" fill="#000000" fill-rule="evenodd" fill-opacity="1" /><path clip-path="url(#clip210)" d="M1124.41 76.7889 Q1121.25 84.8907 1118.25 87.3618 Q1115.25 89.8329 1110.23 89.8329 L1104.28 89.8329 L1104.28 83.5945 L1108.65 83.5945 Q1111.73 83.5945 1113.43 82.1361 Q1115.13 80.6778 1117.2 75.2496 L1118.53 71.8468 L1100.18 27.2059 L1108.08 27.2059 L1122.26 62.6918 L1136.44 27.2059 L1144.34 27.2059 L1124.41 76.7889 Z" fill="#000000" fill-rule="evenodd" fill-opacity="1" /><path clip-path="url(#clip210)" d="M1187.28 28.9478 L1187.28 35.9153 Q1184.12 34.1734 1180.92 33.3227 Q1177.76 32.4315 1174.52 32.4315 Q1167.27 32.4315 1163.26 37.0496 Q1159.25 41.6271 1159.25 49.9314 Q1159.25 58.2358 1163.26 62.8538 Q1167.27 67.4314 1174.52 67.4314 Q1177.76 67.4314 1180.92 66.5807 Q1184.12 65.6895 1187.28 63.9476 L1187.28 70.8341 Q1184.16 72.2924 1180.8 73.0216 Q1177.47 73.7508 1173.71 73.7508 Q1163.46 73.7508 1157.42 67.3098 Q1151.39 60.8689 1151.39 49.9314 Q1151.39 38.832 1157.46 32.472 Q1163.58 26.1121 1174.19 26.1121 Q1177.64 26.1121 1180.92 26.8413 Q1184.2 27.5299 1187.28 28.9478 Z" fill="#000000" fill-rule="evenodd" fill-opacity="1" /><path clip-path="url(#clip210)" d="M1197 27.2059 L1232.41 27.2059 L1232.41 34.0114 L1204.37 66.6212 L1232.41 66.6212 L1232.41 72.576 L1195.99 72.576 L1195.99 65.7705 L1224.02 33.1607 L1197 33.1607 L1197 27.2059 Z" fill="#000000" fill-rule="evenodd" fill-opacity="1" /><path clip-path="url(#clip210)" d="M1281.5 45.1919 L1281.5 72.576 L1274.05 72.576 L1274.05 45.4349 Q1274.05 38.994 1271.54 35.7938 Q1269.03 32.5936 1264 32.5936 Q1257.97 32.5936 1254.48 36.4419 Q1251 40.2903 1251 46.9338 L1251 72.576 L1243.5 72.576 L1243.5 27.2059 L1251 27.2059 L1251 34.2544 Q1253.67 30.163 1257.28 28.1376 Q1260.92 26.1121 1265.66 26.1121 Q1273.48 26.1121 1277.49 30.9732 Q1281.5 35.7938 1281.5 45.1919 Z" fill="#000000" fill-rule="evenodd" fill-opacity="1" /><path clip-path="url(#clip210)" d="M1316.99 49.7694 Q1307.95 49.7694 1304.47 51.8354 Q1300.99 53.9013 1300.99 58.8839 Q1300.99 62.8538 1303.58 65.2034 Q1306.21 67.5124 1310.71 67.5124 Q1316.91 67.5124 1320.63 63.1374 Q1324.4 58.7219 1324.4 51.4303 L1324.4 49.7694 L1316.99 49.7694 M1331.85 46.6907 L1331.85 72.576 L1324.4 72.576 L1324.4 65.6895 Q1321.85 69.8214 1318.04 71.8063 Q1314.23 73.7508 1308.72 73.7508 Q1301.76 73.7508 1297.62 69.8619 Q1293.53 65.9325 1293.53 59.3701 Q1293.53 51.7138 1298.64 47.825 Q1303.78 43.9361 1313.95 43.9361 L1324.4 43.9361 L1324.4 43.2069 Q1324.4 38.0623 1321 35.2672 Q1317.64 32.4315 1311.52 32.4315 Q1307.63 32.4315 1303.94 33.3632 Q1300.26 34.295 1296.86 36.1584 L1296.86 29.2718 Q1300.95 27.692 1304.79 26.9223 Q1308.64 26.1121 1312.29 26.1121 Q1322.13 26.1121 1326.99 31.2163 Q1331.85 36.3204 1331.85 46.6907 Z" fill="#000000" fill-rule="evenodd" fill-opacity="1" /><path clip-path="url(#clip210)" d="M1369.81 46.5287 L1391.65 46.5287 L1391.65 53.1722 L1369.81 53.1722 L1369.81 46.5287 Z" fill="#000000" fill-rule="evenodd" fill-opacity="1" /><path clip-path="url(#clip210)" d="M1467.6 45.1919 L1467.6 72.576 L1460.15 72.576 L1460.15 45.4349 Q1460.15 38.994 1457.64 35.7938 Q1455.12 32.5936 1450.1 32.5936 Q1444.06 32.5936 1440.58 36.4419 Q1437.1 40.2903 1437.1 46.9338 L1437.1 72.576 L1429.6 72.576 L1429.6 27.2059 L1437.1 27.2059 L1437.1 34.2544 Q1439.77 30.163 1443.38 28.1376 Q1447.02 26.1121 1451.76 26.1121 Q1459.58 26.1121 1463.59 30.9732 Q1467.6 35.7938 1467.6 45.1919 Z" fill="#000000" fill-rule="evenodd" fill-opacity="1" /><path clip-path="url(#clip210)" d="M1503.09 49.7694 Q1494.05 49.7694 1490.57 51.8354 Q1487.09 53.9013 1487.09 58.8839 Q1487.09 62.8538 1489.68 65.2034 Q1492.31 67.5124 1496.81 67.5124 Q1503.01 67.5124 1506.73 63.1374 Q1510.5 58.7219 1510.5 51.4303 L1510.5 49.7694 L1503.09 49.7694 M1517.95 46.6907 L1517.95 72.576 L1510.5 72.576 L1510.5 65.6895 Q1507.95 69.8214 1504.14 71.8063 Q1500.33 73.7508 1494.82 73.7508 Q1487.86 73.7508 1483.72 69.8619 Q1479.63 65.9325 1479.63 59.3701 Q1479.63 51.7138 1484.74 47.825 Q1489.88 43.9361 1500.05 43.9361 L1510.5 43.9361 L1510.5 43.2069 Q1510.5 38.0623 1507.1 35.2672 Q1503.73 32.4315 1497.62 32.4315 Q1493.73 32.4315 1490.04 33.3632 Q1486.36 34.295 1482.95 36.1584 L1482.95 29.2718 Q1487.04 27.692 1490.89 26.9223 Q1494.74 26.1121 1498.39 26.1121 Q1508.23 26.1121 1513.09 31.2163 Q1517.95 36.3204 1517.95 46.6907 Z" fill="#000000" fill-rule="evenodd" fill-opacity="1" /><path clip-path="url(#clip210)" d="M1563.16 34.0924 L1563.16 9.54393 L1570.62 9.54393 L1570.62 72.576 L1563.16 72.576 L1563.16 65.7705 Q1560.81 69.8214 1557.21 71.8063 Q1553.64 73.7508 1548.62 73.7508 Q1540.4 73.7508 1535.21 67.1883 Q1530.07 60.6258 1530.07 49.9314 Q1530.07 39.2371 1535.21 32.6746 Q1540.4 26.1121 1548.62 26.1121 Q1553.64 26.1121 1557.21 28.0971 Q1560.81 30.0415 1563.16 34.0924 M1537.76 49.9314 Q1537.76 58.1548 1541.12 62.8538 Q1544.53 67.5124 1550.44 67.5124 Q1556.36 67.5124 1559.76 62.8538 Q1563.16 58.1548 1563.16 49.9314 Q1563.16 41.7081 1559.76 37.0496 Q1556.36 32.3505 1550.44 32.3505 Q1544.53 32.3505 1541.12 37.0496 Q1537.76 41.7081 1537.76 49.9314 Z" fill="#000000" fill-rule="evenodd" fill-opacity="1" /><path clip-path="url(#clip210)" d="M1581.63 27.2059 L1589.09 27.2059 L1598.4 62.6108 L1607.68 27.2059 L1616.47 27.2059 L1625.79 62.6108 L1635.07 27.2059 L1642.52 27.2059 L1630.65 72.576 L1621.86 72.576 L1612.1 35.3887 L1602.29 72.576 L1593.5 72.576 L1581.63 27.2059 Z" fill="#000000" fill-rule="evenodd" fill-opacity="1" /><path clip-path="url(#clip210)" d="M1672.7 76.7889 Q1669.54 84.8907 1666.54 87.3618 Q1663.54 89.8329 1658.52 89.8329 L1652.56 89.8329 L1652.56 83.5945 L1656.94 83.5945 Q1660.02 83.5945 1661.72 82.1361 Q1663.42 80.6778 1665.49 75.2496 L1666.82 71.8468 L1648.47 27.2059 L1656.37 27.2059 L1670.55 62.6918 L1684.73 27.2059 L1692.63 27.2059 L1672.7 76.7889 Z" fill="#000000" fill-rule="evenodd" fill-opacity="1" /><path clip-path="url(#clip210)" d="M1712.96 9.54393 L1720.42 9.54393 L1720.42 18.9825 L1712.96 18.9825 L1712.96 9.54393 M1716.77 26.1121 L1716.77 26.1121 M1699.68 27.2059 L1735.08 27.2059 L1735.08 34.0114 L1707.05 66.6212 L1735.08 66.6212 L1735.08 72.576 L1698.66 72.576 L1698.66 65.7705 L1726.7 33.1607 L1699.68 33.1607 L1699.68 27.2059 Z" fill="#000000" fill-rule="evenodd" fill-opacity="1" /><path clip-path="url(#clip210)" d="M1746.18 9.54393 L1753.68 9.54393 L1753.68 46.7717 L1775.91 27.2059 L1785.43 27.2059 L1761.37 48.4326 L1786.45 72.576 L1776.73 72.576 L1753.68 50.4176 L1753.68 72.576 L1746.18 72.576 L1746.18 9.54393 Z" fill="#000000" fill-rule="evenodd" fill-opacity="1" /><path clip-path="url(#clip210)" d="M1813.67 49.7694 Q1804.64 49.7694 1801.15 51.8354 Q1797.67 53.9013 1797.67 58.8839 Q1797.67 62.8538 1800.26 65.2034 Q1802.89 67.5124 1807.39 67.5124 Q1813.59 67.5124 1817.32 63.1374 Q1821.08 58.7219 1821.08 51.4303 L1821.08 49.7694 L1813.67 49.7694 M1828.54 46.6907 L1828.54 72.576 L1821.08 72.576 L1821.08 65.6895 Q1818.53 69.8214 1814.72 71.8063 Q1810.91 73.7508 1805.41 73.7508 Q1798.44 73.7508 1794.31 69.8619 Q1790.21 65.9325 1790.21 59.3701 Q1790.21 51.7138 1795.32 47.825 Q1800.46 43.9361 1810.63 43.9361 L1821.08 43.9361 L1821.08 43.2069 Q1821.08 38.0623 1817.68 35.2672 Q1814.32 32.4315 1808.2 32.4315 Q1804.31 32.4315 1800.63 33.3632 Q1796.94 34.295 1793.54 36.1584 L1793.54 29.2718 Q1797.63 27.692 1801.48 26.9223 Q1805.32 26.1121 1808.97 26.1121 Q1818.81 26.1121 1823.68 31.2163 Q1828.54 36.3204 1828.54 46.6907 Z" fill="#000000" fill-rule="evenodd" fill-opacity="1" /><path clip-path="url(#clip210)" d="M1877.47 65.7705 L1877.47 89.8329 L1869.98 89.8329 L1869.98 27.2059 L1877.47 27.2059 L1877.47 34.0924 Q1879.82 30.0415 1883.39 28.0971 Q1886.99 26.1121 1891.97 26.1121 Q1900.24 26.1121 1905.38 32.6746 Q1910.57 39.2371 1910.57 49.9314 Q1910.57 60.6258 1905.38 67.1883 Q1900.24 73.7508 1891.97 73.7508 Q1886.99 73.7508 1883.39 71.8063 Q1879.82 69.8214 1877.47 65.7705 M1902.83 49.9314 Q1902.83 41.7081 1899.43 37.0496 Q1896.06 32.3505 1890.15 32.3505 Q1884.24 32.3505 1880.83 37.0496 Q1877.47 41.7081 1877.47 49.9314 Q1877.47 58.1548 1880.83 62.8538 Q1884.24 67.5124 1890.15 67.5124 Q1896.06 67.5124 1899.43 62.8538 Q1902.83 58.1548 1902.83 49.9314 Z" fill="#000000" fill-rule="evenodd" fill-opacity="1" /><path clip-path="url(#clip210)" d="M1949.21 34.1734 Q1947.96 33.4443 1946.46 33.1202 Q1945 32.7556 1943.22 32.7556 Q1936.9 32.7556 1933.5 36.8875 Q1930.13 40.9789 1930.13 48.6757 L1930.13 72.576 L1922.64 72.576 L1922.64 27.2059 L1930.13 27.2059 L1930.13 34.2544 Q1932.48 30.1225 1936.25 28.1376 Q1940.02 26.1121 1945.4 26.1121 Q1946.17 26.1121 1947.11 26.2337 Q1948.04 26.3147 1949.17 26.5172 L1949.21 34.1734 Z" fill="#000000" fill-rule="evenodd" fill-opacity="1" /><path clip-path="url(#clip210)" d="M1972.79 32.4315 Q1966.79 32.4315 1963.31 37.1306 Q1959.83 41.7891 1959.83 49.9314 Q1959.83 58.0738 1963.27 62.7728 Q1966.75 67.4314 1972.79 67.4314 Q1978.74 67.4314 1982.23 62.7323 Q1985.71 58.0333 1985.71 49.9314 Q1985.71 41.8701 1982.23 37.1711 Q1978.74 32.4315 1972.79 32.4315 M1972.79 26.1121 Q1982.51 26.1121 1988.06 32.4315 Q1993.61 38.7509 1993.61 49.9314 Q1993.61 61.0714 1988.06 67.4314 Q1982.51 73.7508 1972.79 73.7508 Q1963.03 73.7508 1957.48 67.4314 Q1951.97 61.0714 1951.97 49.9314 Q1951.97 38.7509 1957.48 32.4315 Q1963.03 26.1121 1972.79 26.1121 Z" fill="#000000" fill-rule="evenodd" fill-opacity="1" /><path clip-path="url(#clip210)" d="M2035.82 34.0924 L2035.82 9.54393 L2043.27 9.54393 L2043.27 72.576 L2035.82 72.576 L2035.82 65.7705 Q2033.47 69.8214 2029.87 71.8063 Q2026.3 73.7508 2021.28 73.7508 Q2013.05 73.7508 2007.87 67.1883 Q2002.73 60.6258 2002.73 49.9314 Q2002.73 39.2371 2007.87 32.6746 Q2013.05 26.1121 2021.28 26.1121 Q2026.3 26.1121 2029.87 28.0971 Q2033.47 30.0415 2035.82 34.0924 M2010.42 49.9314 Q2010.42 58.1548 2013.78 62.8538 Q2017.19 67.5124 2023.1 67.5124 Q2029.02 67.5124 2032.42 62.8538 Q2035.82 58.1548 2035.82 49.9314 Q2035.82 41.7081 2032.42 37.0496 Q2029.02 32.3505 2023.1 32.3505 Q2017.19 32.3505 2013.78 37.0496 Q2010.42 41.7081 2010.42 49.9314 Z" fill="#000000" fill-rule="evenodd" fill-opacity="1" /><path clip-path="url(#clip210)" d="M2057.86 54.671 L2057.86 27.2059 L2065.31 27.2059 L2065.31 54.3874 Q2065.31 60.8284 2067.82 64.0691 Q2070.33 67.2693 2075.36 67.2693 Q2081.39 67.2693 2084.88 63.421 Q2088.4 59.5726 2088.4 52.9291 L2088.4 27.2059 L2095.86 27.2059 L2095.86 72.576 L2088.4 72.576 L2088.4 65.6084 Q2085.69 69.7404 2082.08 71.7658 Q2078.52 73.7508 2073.78 73.7508 Q2065.96 73.7508 2061.91 68.8897 Q2057.86 64.0286 2057.86 54.671 M2076.61 26.1121 L2076.61 26.1121 Z" fill="#000000" fill-rule="evenodd" fill-opacity="1" /><path clip-path="url(#clip210)" d="M2143.86 28.9478 L2143.86 35.9153 Q2140.7 34.1734 2137.5 33.3227 Q2134.34 32.4315 2131.1 32.4315 Q2123.85 32.4315 2119.84 37.0496 Q2115.83 41.6271 2115.83 49.9314 Q2115.83 58.2358 2119.84 62.8538 Q2123.85 67.4314 2131.1 67.4314 Q2134.34 67.4314 2137.5 66.5807 Q2140.7 65.6895 2143.86 63.9476 L2143.86 70.8341 Q2140.74 72.2924 2137.38 73.0216 Q2134.06 73.7508 2130.29 73.7508 Q2120.04 73.7508 2114 67.3098 Q2107.97 60.8689 2107.97 49.9314 Q2107.97 38.832 2114.04 32.472 Q2120.16 26.1121 2130.77 26.1121 Q2134.22 26.1121 2137.5 26.8413 Q2140.78 27.5299 2143.86 28.9478 Z" fill="#000000" fill-rule="evenodd" fill-opacity="1" /><path clip-path="url(#clip210)" d="M2195.63 48.0275 L2195.63 51.6733 L2161.36 51.6733 Q2161.84 59.3701 2165.98 63.421 Q2170.15 67.4314 2177.56 67.4314 Q2181.86 67.4314 2185.87 66.3781 Q2189.92 65.3249 2193.89 63.2184 L2193.89 70.267 Q2189.88 71.9684 2185.66 72.8596 Q2181.45 73.7508 2177.12 73.7508 Q2166.26 73.7508 2159.9 67.4314 Q2153.58 61.1119 2153.58 50.3365 Q2153.58 39.1965 2159.58 32.6746 Q2165.61 26.1121 2175.82 26.1121 Q2184.98 26.1121 2190.28 32.0264 Q2195.63 37.9003 2195.63 48.0275 M2188.18 45.84 Q2188.09 39.7232 2184.73 36.0774 Q2181.41 32.4315 2175.9 32.4315 Q2169.66 32.4315 2165.9 35.9558 Q2162.17 39.4801 2161.6 45.8805 L2188.18 45.84 Z" fill="#000000" fill-rule="evenodd" fill-opacity="1" /><path clip-path="url(#clip210)" d="M2245.58 45.1919 L2245.58 72.576 L2238.12 72.576 L2238.12 45.4349 Q2238.12 38.994 2235.61 35.7938 Q2233.1 32.5936 2228.08 32.5936 Q2222.04 32.5936 2218.56 36.4419 Q2215.07 40.2903 2215.07 46.9338 L2215.07 72.576 L2207.58 72.576 L2207.58 27.2059 L2215.07 27.2059 L2215.07 34.2544 Q2217.75 30.163 2221.35 28.1376 Q2225 26.1121 2229.74 26.1121 Q2237.56 26.1121 2241.57 30.9732 Q2245.58 35.7938 2245.58 45.1919 Z" fill="#000000" fill-rule="evenodd" fill-opacity="1" /><path clip-path="url(#clip210)" d="M2267.82 14.324 L2267.82 27.2059 L2283.17 27.2059 L2283.17 32.9987 L2267.82 32.9987 L2267.82 57.6282 Q2267.82 63.1779 2269.32 64.7578 Q2270.85 66.3376 2275.51 66.3376 L2283.17 66.3376 L2283.17 72.576 L2275.51 72.576 Q2266.88 72.576 2263.6 69.3758 Q2260.32 66.1351 2260.32 57.6282 L2260.32 32.9987 L2254.85 32.9987 L2254.85 27.2059 L2260.32 27.2059 L2260.32 14.324 L2267.82 14.324 Z" fill="#000000" fill-rule="evenodd" fill-opacity="1" /><path clip-path="url(#clip210)" d="M2313.59 49.7694 Q2304.56 49.7694 2301.07 51.8354 Q2297.59 53.9013 2297.59 58.8839 Q2297.59 62.8538 2300.18 65.2034 Q2302.82 67.5124 2307.31 67.5124 Q2313.51 67.5124 2317.24 63.1374 Q2321 58.7219 2321 51.4303 L2321 49.7694 L2313.59 49.7694 M2328.46 46.6907 L2328.46 72.576 L2321 72.576 L2321 65.6895 Q2318.45 69.8214 2314.64 71.8063 Q2310.84 73.7508 2305.33 73.7508 Q2298.36 73.7508 2294.23 69.8619 Q2290.14 65.9325 2290.14 59.3701 Q2290.14 51.7138 2295.24 47.825 Q2300.39 43.9361 2310.55 43.9361 L2321 43.9361 L2321 43.2069 Q2321 38.0623 2317.6 35.2672 Q2314.24 32.4315 2308.12 32.4315 Q2304.23 32.4315 2300.55 33.3632 Q2296.86 34.295 2293.46 36.1584 L2293.46 29.2718 Q2297.55 27.692 2301.4 26.9223 Q2305.25 26.1121 2308.89 26.1121 Q2318.74 26.1121 2323.6 31.2163 Q2328.46 36.3204 2328.46 46.6907 Z" fill="#000000" fill-rule="evenodd" fill-opacity="1" /><polyline clip-path="url(#clip212)" style="stroke:#009af9; stroke-linecap:butt; stroke-linejoin:round; stroke-width:4; stroke-opacity:1; fill:none" points="
  309.067,1386.4 371.975,1383.94 461.528,1381.48 476.467,1379.02 547.8,1376.57 549.878,1374.11 556.396,1371.65 589.784,1369.2 592.426,1366.74 597.039,1364.28 
  612.782,1361.82 614.116,1359.37 615.728,1356.91 618.703,1354.45 630.051,1351.99 634.735,1349.54 636.634,1347.08 638.709,1344.62 639.235,1342.17 639.852,1339.71 
  641.161,1337.25 644.362,1334.79 644.887,1332.34 647.287,1329.88 647.353,1327.42 649.013,1324.97 649.437,1322.51 651.184,1320.05 655.258,1317.59 656.362,1315.14 
  656.854,1312.68 660.673,1310.22 662.203,1307.77 663.445,1305.31 663.972,1302.85 670.651,1300.39 671.133,1297.94 671.198,1295.48 673.151,1293.02 673.563,1290.57 
  674.836,1288.11 676.377,1285.65 677.887,1283.19 680.208,1280.74 682.524,1278.28 682.746,1275.82 683.849,1273.36 684.121,1270.91 687.981,1268.45 688.629,1265.99 
  689.231,1263.54 690.382,1261.08 691.249,1258.62 694.535,1256.16 695.531,1253.71 696.23,1251.25 699.63,1248.79 699.838,1246.34 700.104,1243.88 701.076,1241.42 
  701.407,1238.96 701.701,1236.51 701.759,1234.05 703.877,1231.59 703.922,1229.14 704.618,1226.68 706.903,1224.22 707.139,1221.76 707.385,1219.31 707.794,1216.85 
  709.951,1214.39 710.103,1211.93 711.171,1209.48 716.413,1207.02 716.983,1204.56 718.221,1202.11 718.997,1199.65 723.03,1197.19 724.087,1194.73 724.506,1192.28 
  727.76,1189.82 728.102,1187.36 728.145,1184.91 731.354,1182.45 731.669,1179.99 732.09,1177.53 732.374,1175.08 734.196,1172.62 734.728,1170.16 736.103,1167.71 
  743.781,1165.25 748.711,1162.79 749.415,1160.33 749.443,1157.88 750.794,1155.42 751.891,1152.96 752.682,1150.51 759.602,1148.05 762.048,1145.59 762.49,1143.13 
  775.134,1140.68 775.219,1138.22 775.442,1135.76 776.032,1133.3 778.711,1130.85 780.253,1128.39 783.241,1125.93 783.372,1123.48 784.334,1121.02 786.527,1118.56 
  790.012,1116.1 792.006,1113.65 792.337,1111.19 795.156,1108.73 797.385,1106.28 800.242,1103.82 803.313,1101.36 805.049,1098.9 811.694,1096.45 812.52,1093.99 
  819.219,1091.53 823.467,1089.08 823.671,1086.62 824.602,1084.16 826.062,1081.7 832.561,1079.25 834.701,1076.79 837.079,1074.33 840.517,1071.87 844.436,1069.42 
  845.604,1066.96 848.951,1064.5 853.447,1062.05 857.461,1059.59 858.049,1057.13 858.525,1054.67 859.368,1052.22 860.975,1049.76 865.218,1047.3 869.577,1044.85 
  875.312,1042.39 878.816,1039.93 883.816,1037.47 883.98,1035.02 884.005,1032.56 884.25,1030.1 885.524,1027.65 886.042,1025.19 888.103,1022.73 889.706,1020.27 
  890.488,1017.82 893.52,1015.36 894.042,1012.9 896.913,1010.45 896.967,1007.99 897.096,1005.53 897.837,1003.07 899.42,1000.62 901.073,998.159 905.345,995.702 
  908.454,993.245 910.593,990.788 921.16,988.33 922.236,985.873 923.828,983.416 924.948,980.959 928.61,978.502 930.555,976.044 932.328,973.587 932.505,971.13 
  937.215,968.673 939.911,966.216 942.628,963.758 944.378,961.301 945.289,958.844 949.688,956.387 951.213,953.93 951.509,951.472 951.917,949.015 952.77,946.558 
  958.381,944.101 959.369,941.644 966.182,939.187 968.254,936.729 972.639,934.272 972.687,931.815 974.011,929.358 977.862,926.901 981.227,924.443 984.3,921.986 
  988.035,919.529 989.049,917.072 990.373,914.615 993.682,912.157 993.853,909.7 995.634,907.243 995.898,904.786 1002.37,902.329 1004.72,899.871 1010.85,897.414 
  1016.44,894.957 1018.94,892.5 1024.82,890.043 1028.42,887.585 1033.71,885.128 1034.21,882.671 1036.56,880.214 1037.6,877.757 1040.09,875.299 1041.66,872.842 
  1043.58,870.385 1044.6,867.928 1045.46,865.471 1053.72,863.014 1056.7,860.556 1057,858.099 1064.35,855.642 1070,853.185 1072.25,850.728 1076.81,848.27 
  1078.34,845.813 1078.81,843.356 1079.45,840.899 1083.35,838.442 1083.8,835.984 1085.8,833.527 1085.88,831.07 1088.92,828.613 1089.54,826.156 1092.16,823.698 
  1093.03,821.241 1094.07,818.784 1096.08,816.327 1096.36,813.87 1096.69,811.412 1097.11,808.955 1099.11,806.498 1100.49,804.041 1100.83,801.584 1105.42,799.127 
  1107,796.669 1108.22,794.212 1108.31,791.755 1109.22,789.298 1109.29,786.841 1110.03,784.383 1110.06,781.926 1110.09,779.469 1110.66,777.012 1110.78,774.555 
  1113.74,772.097 1117.74,769.64 1118.83,767.183 1120.11,764.726 1122.76,762.269 1123.71,759.811 1124.01,757.354 1124.37,754.897 1127.6,752.44 1128.21,749.983 
  1136.09,747.525 1137.15,745.068 1139.07,742.611 1141.51,740.154 1142.8,737.697 1143.57,735.239 1143.94,732.782 1144.07,730.325 1145.43,727.868 1147.43,725.411 
  1149.13,722.954 1151,720.496 1153.74,718.039 1155.03,715.582 1156.14,713.125 1158.37,710.668 1163.4,708.21 1166.06,705.753 1166.38,703.296 1168.53,700.839 
  1169.94,698.382 1170.62,695.924 1171.82,693.467 1174.01,691.01 1174.22,688.553 1174.4,686.096 1174.51,683.638 1176.49,681.181 1177.72,678.724 1179.15,676.267 
  1181.33,673.81 1182.93,671.352 1183.07,668.895 1184.42,666.438 1186.16,663.981 1188.72,661.524 1188.95,659.067 1193.73,656.609 1194.4,654.152 1195.04,651.695 
  1195.54,649.238 1195.91,646.781 1198.04,644.323 1199.07,641.866 1199.65,639.409 1204.07,636.952 1205.78,634.495 1210.6,632.037 1218.2,629.58 1218.28,627.123 
  1219.74,624.666 1223.26,622.209 1224.03,619.751 1224.96,617.294 1226.96,614.837 1227.32,612.38 1228.1,609.923 1230.36,607.465 1230.53,605.008 1232.35,602.551 
  1238.79,600.094 1239.09,597.637 1239.85,595.179 1243.2,592.722 1244.31,590.265 1244.76,587.808 1246.11,585.351 1246.84,582.894 1249.3,580.436 1250.71,577.979 
  1250.89,575.522 1256.64,573.065 1258.11,570.608 1259.53,568.15 1260.76,565.693 1260.81,563.236 1262.31,560.779 1262.68,558.322 1271.06,555.864 1275.86,553.407 
  1281.23,550.95 1286.38,548.493 1286.63,546.036 1290.78,543.578 1293.21,541.121 1294.25,538.664 1294.45,536.207 1301.62,533.75 1301.92,531.292 1302.8,528.835 
  1305.03,526.378 1306.29,523.921 1310.72,521.464 1312.84,519.006 1316.33,516.549 1317.16,514.092 1317.73,511.635 1320.44,509.178 1323.09,506.721 1323.33,504.263 
  1324.44,501.806 1328.37,499.349 1337.87,496.892 1338.38,494.435 1342.17,491.977 1342.48,489.52 1342.63,487.063 1343.12,484.606 1347.75,482.149 1350.07,479.691 
  1351.19,477.234 1352.28,474.777 1352.43,472.32 1355.3,469.863 1359.18,467.405 1359.5,464.948 1360.26,462.491 1361.27,460.034 1362.5,457.577 1362.5,455.119 
  1362.88,452.662 1363.54,450.205 1368.47,447.748 1369.1,445.291 1374.68,442.834 1377.84,440.376 1378.87,437.919 1384.13,435.462 1387.22,433.005 1387.6,430.548 
  1388.51,428.09 1395.24,425.633 1400.83,423.176 1401.29,420.719 1404.9,418.262 1407.26,415.804 1412.26,413.347 1416.7,410.89 1417.78,408.433 1421.45,405.976 
  1422.18,403.518 1423.85,401.061 1424.63,398.604 1426.25,396.147 1427.98,393.69 1430.23,391.232 1430.6,388.775 1435.25,386.318 1435.64,383.861 1440.44,381.404 
  1446.37,378.946 1448.33,376.489 1450.75,374.032 1453.64,371.575 1456.2,369.118 1456.79,366.661 1458.16,364.203 1458.62,361.746 1461.54,359.289 1468.9,356.832 
  1475.04,354.375 1479.27,351.917 1479.66,349.46 1480,347.003 1480.55,344.546 1482.58,342.089 1485.27,339.631 1488.08,337.174 1491.51,334.717 1494.21,332.26 
  1499.99,329.803 1501.57,327.345 1516.12,324.888 1529.28,322.431 1531.56,319.974 1534.4,317.517 1535.52,315.059 1543.87,312.602 1545.59,310.145 1546.12,307.688 
  1547.33,305.231 1547.43,302.774 1558.27,300.316 1559.2,297.859 1559.54,295.402 1565.29,292.945 1565.8,290.488 1571.37,288.03 1574.19,285.573 1580.9,283.116 
  1585.09,280.659 1587.92,278.202 1591.36,275.744 1595.82,273.287 1598.39,270.83 1598.75,268.373 1606.74,265.916 1608.15,263.458 1615.81,261.001 1616.96,258.544 
  1627.12,256.087 1631.24,253.63 1635.67,251.172 1644.69,248.715 1652.37,246.258 1653.48,243.801 1653.92,241.344 1662.3,238.886 1683.72,236.429 1695.21,233.972 
  1698.47,231.515 1699.12,229.058 1743.6,226.601 1746.82,224.143 1757.68,221.686 1759.44,219.229 1770.12,216.772 1771.45,214.315 1778.07,211.857 1799.13,209.4 
  1807.06,206.943 1822.34,204.486 1825.94,202.029 1840.54,199.571 1858.91,197.114 1870.34,194.657 1870.82,192.2 1880.38,189.743 1885.84,187.285 1886.66,184.828 
  1904.79,182.371 1930.66,179.914 1966.68,177.457 1969.58,174.999 1970.08,172.542 1976.16,170.085 1990.51,167.628 2000.53,165.171 2002.37,162.713 2013.06,160.256 
  
  "/>
<polyline clip-path="url(#clip212)" style="stroke:#e26f46; stroke-linecap:butt; stroke-linejoin:round; stroke-width:4; stroke-opacity:1; fill:none" points="
  669.189,1386.4 683.048,1383.94 693.086,1381.48 720.445,1379.02 742.015,1376.57 774.985,1374.11 776.425,1371.65 777.468,1369.2 782.156,1366.74 796.065,1364.28 
  802.193,1361.82 804.948,1359.37 814.38,1356.91 816.295,1354.45 826.161,1351.99 826.757,1349.54 832.893,1347.08 832.947,1344.62 833.297,1342.17 836.505,1339.71 
  840.021,1337.25 844.073,1334.79 844.14,1332.34 844.579,1329.88 846.295,1327.42 848.144,1324.97 849.254,1322.51 854.572,1320.05 855.468,1317.59 860.021,1315.14 
  861.155,1312.68 862.712,1310.22 867.301,1307.77 868.289,1305.31 871.435,1302.85 871.498,1300.39 873.84,1297.94 877.527,1295.48 878.289,1293.02 883.056,1290.57 
  886.129,1288.11 886.684,1285.65 900.297,1283.19 901.971,1280.74 906.719,1278.28 909.306,1275.82 912.65,1273.36 913.021,1270.91 913.329,1268.45 913.402,1265.99 
  919.559,1263.54 922.574,1261.08 925.393,1258.62 925.776,1256.16 926.204,1253.71 926.528,1251.25 931.62,1248.79 931.889,1246.34 932.924,1243.88 933.689,1241.42 
  934.519,1238.96 935.863,1236.51 937.842,1234.05 938.099,1231.59 939.573,1229.14 940.417,1226.68 941.453,1224.22 941.983,1221.76 942.282,1219.31 944.993,1216.85 
  946.622,1214.39 948.518,1211.93 948.843,1209.48 949.018,1207.02 950.093,1204.56 952.113,1202.11 953.079,1199.65 956.511,1197.19 959.543,1194.73 960.826,1192.28 
  961.395,1189.82 962.056,1187.36 963.063,1184.91 963.093,1182.45 963.501,1179.99 963.809,1177.53 965.823,1175.08 966.951,1172.62 968.252,1170.16 970.504,1167.71 
  971.946,1165.25 972.537,1162.79 973.055,1160.33 974.261,1157.88 977.155,1155.42 980.169,1152.96 985.452,1150.51 987.094,1148.05 988.128,1145.59 994.105,1143.13 
  997.541,1140.68 997.92,1138.22 999.044,1135.76 999.438,1133.3 1000.72,1130.85 1001.75,1128.39 1003.84,1125.93 1004.58,1123.48 1005.17,1121.02 1005.8,1118.56 
  1007.84,1116.1 1008.59,1113.65 1009.54,1111.19 1011.36,1108.73 1011.62,1106.28 1013.95,1103.82 1014.74,1101.36 1016.16,1098.9 1016.74,1096.45 1016.9,1093.99 
  1017.33,1091.53 1021.55,1089.08 1021.83,1086.62 1024.93,1084.16 1025.6,1081.7 1028.97,1079.25 1029.06,1076.79 1032.28,1074.33 1033.43,1071.87 1034.32,1069.42 
  1035.87,1066.96 1036.49,1064.5 1037.34,1062.05 1037.47,1059.59 1037.81,1057.13 1039.84,1054.67 1040.34,1052.22 1040.98,1049.76 1042.09,1047.3 1042.82,1044.85 
  1044.43,1042.39 1047.8,1039.93 1051.36,1037.47 1051.67,1035.02 1052.94,1032.56 1054.16,1030.1 1055.89,1027.65 1056.19,1025.19 1057.14,1022.73 1057.48,1020.27 
  1057.54,1017.82 1057.92,1015.36 1058.04,1012.9 1059.02,1010.45 1061.38,1007.99 1062.4,1005.53 1062.52,1003.07 1063.4,1000.62 1064.42,998.159 1064.44,995.702 
  1065.44,993.245 1065.48,990.788 1066.9,988.33 1067.97,985.873 1072.5,983.416 1072.63,980.959 1073.73,978.502 1078.3,976.044 1079.73,973.587 1081.76,971.13 
  1084.09,968.673 1084.28,966.216 1085.47,963.758 1087.23,961.301 1087.26,958.844 1088.03,956.387 1088.67,953.93 1089.1,951.472 1089.12,949.015 1090.32,946.558 
  1090.66,944.101 1092.3,941.644 1094.83,939.187 1095.62,936.729 1100.22,934.272 1100.24,931.815 1107.5,929.358 1108.74,926.901 1109.25,924.443 1109.3,921.986 
  1111.81,919.529 1112.31,917.072 1112.44,914.615 1114.6,912.157 1115.09,909.7 1117.26,907.243 1118.37,904.786 1120.42,902.329 1120.42,899.871 1127.57,897.414 
  1128.45,894.957 1128.63,892.5 1129.33,890.043 1129.55,887.585 1130.11,885.128 1130.19,882.671 1130.41,880.214 1134.58,877.757 1137.91,875.299 1139.11,872.842 
  1139.35,870.385 1141.18,867.928 1141.67,865.471 1141.82,863.014 1142.43,860.556 1143.71,858.099 1144.41,855.642 1146.26,853.185 1147.16,850.728 1147.86,848.27 
  1149.87,845.813 1150.41,843.356 1151.78,840.899 1152,838.442 1153.71,835.984 1157.76,833.527 1158.21,831.07 1158.37,828.613 1158.48,826.156 1158.8,823.698 
  1160.8,821.241 1161.9,818.784 1163.1,816.327 1166.68,813.87 1166.76,811.412 1168.69,808.955 1170.18,806.498 1172.37,804.041 1172.65,801.584 1174.37,799.127 
  1174.98,796.669 1175,794.212 1175.26,791.755 1179.96,789.298 1180.78,786.841 1182.32,784.383 1182.51,781.926 1183.06,779.469 1186.33,777.012 1187.42,774.555 
  1188.62,772.097 1188.62,769.64 1188.79,767.183 1188.83,764.726 1189.63,762.269 1190.67,759.811 1192.33,757.354 1193.43,754.897 1193.48,752.44 1193.89,749.983 
  1195.61,747.525 1196.68,745.068 1197.26,742.611 1198.03,740.154 1198.56,737.697 1198.99,735.239 1201.42,732.782 1202.12,730.325 1204.29,727.868 1204.62,725.411 
  1205.03,722.954 1206.28,720.496 1207.63,718.039 1208.82,715.582 1211.2,713.125 1211.42,710.668 1211.45,708.21 1214.45,705.753 1216.98,703.296 1219.67,700.839 
  1220.39,698.382 1221.87,695.924 1222.76,693.467 1224.5,691.01 1224.65,688.553 1228.45,686.096 1229.68,683.638 1230.42,681.181 1231,678.724 1231.34,676.267 
  1236.4,673.81 1240.03,671.352 1240.56,668.895 1242.18,666.438 1243.64,663.981 1243.92,661.524 1247.38,659.067 1250.2,656.609 1250.82,654.152 1252.31,651.695 
  1252.49,649.238 1253.22,646.781 1253.47,644.323 1256.61,641.866 1258.2,639.409 1259.52,636.952 1259.83,634.495 1261.37,632.037 1262.54,629.58 1262.8,627.123 
  1262.83,624.666 1263.39,622.209 1263.72,619.751 1264.42,617.294 1264.51,614.837 1270.52,612.38 1271.94,609.923 1272.75,607.465 1274.19,605.008 1278.28,602.551 
  1279.84,600.094 1280.11,597.637 1280.72,595.179 1284.25,592.722 1285.3,590.265 1286.56,587.808 1287.36,585.351 1290.21,582.894 1290.27,580.436 1291.61,577.979 
  1292.4,575.522 1294.01,573.065 1294.53,570.608 1294.96,568.15 1297.39,565.693 1298.6,563.236 1299.85,560.779 1301.3,558.322 1303.55,555.864 1307.16,553.407 
  1308.44,550.95 1308.73,548.493 1309.3,546.036 1311.95,543.578 1314.79,541.121 1315.12,538.664 1316.05,536.207 1317.01,533.75 1319.22,531.292 1321.87,528.835 
  1322.62,526.378 1324.28,523.921 1329.09,521.464 1331.9,519.006 1333.55,516.549 1335.24,514.092 1337.17,511.635 1339.07,509.178 1339.3,506.721 1339.53,504.263 
  1345.5,501.806 1346.54,499.349 1348.01,496.892 1349.23,494.435 1349.47,491.977 1349.59,489.52 1351.86,487.063 1352.93,484.606 1353.98,482.149 1354.8,479.691 
  1355.76,477.234 1356.69,474.777 1356.71,472.32 1357.3,469.863 1358.09,467.405 1359.88,464.948 1360.24,462.491 1360.57,460.034 1360.59,457.577 1361.23,455.119 
  1362.21,452.662 1364.26,450.205 1366.24,447.748 1368.12,445.291 1368.99,442.834 1374.94,440.376 1375.8,437.919 1376.4,435.462 1377.51,433.005 1378.22,430.548 
  1383.5,428.09 1384.01,425.633 1386.53,423.176 1388.34,420.719 1389.03,418.262 1389.09,415.804 1389.49,413.347 1390.18,410.89 1392.93,408.433 1396.47,405.976 
  1397.03,403.518 1397.33,401.061 1398.23,398.604 1400.22,396.147 1409.59,393.69 1410.09,391.232 1414.43,388.775 1415.08,386.318 1417.55,383.861 1417.59,381.404 
  1422.58,378.946 1426.07,376.489 1427.25,374.032 1429.93,371.575 1430.45,369.118 1432.88,366.661 1437.04,364.203 1451.44,361.746 1452.71,359.289 1459.28,356.832 
  1459.81,354.375 1464.19,351.917 1468.36,349.46 1469.91,347.003 1474.06,344.546 1474.62,342.089 1475.26,339.631 1477.3,337.174 1484.27,334.717 1485.76,332.26 
  1485.89,329.803 1486.24,327.345 1488.06,324.888 1488.74,322.431 1490.8,319.974 1492.45,317.517 1493.79,315.059 1493.83,312.602 1496.93,310.145 1498.75,307.688 
  1506.13,305.231 1515.4,302.774 1521.08,300.316 1524.58,297.859 1525.64,295.402 1526.97,292.945 1527.6,290.488 1529.35,288.03 1530.93,285.573 1531.13,283.116 
  1535.64,280.659 1535.8,278.202 1535.88,275.744 1544.67,273.287 1546.93,270.83 1548.26,268.373 1548.63,265.916 1551.21,263.458 1571.5,261.001 1577.32,258.544 
  1581.63,256.087 1586.51,253.63 1586.89,251.172 1587.2,248.715 1591.29,246.258 1600.49,243.801 1602.44,241.344 1603.12,238.886 1609.19,236.429 1611.24,233.972 
  1612.9,231.515 1624.25,229.058 1625.54,226.601 1627.22,224.143 1634.88,221.686 1638.91,219.229 1642.52,216.772 1651.67,214.315 1658.48,211.857 1666.08,209.4 
  1668.7,206.943 1669.03,204.486 1687.66,202.029 1695.54,199.571 1703.29,197.114 1706.79,194.657 1714.52,192.2 1719.84,189.743 1780.24,187.285 1787.76,184.828 
  1788.71,182.371 1792.36,179.914 1796.82,177.457 1813.78,174.999 1827.6,172.542 1834.72,170.085 1896.63,167.628 1932.81,165.171 2042.56,162.713 2293.23,160.256 
  
  "/>
<path clip-path="url(#clip210)" d="
M1543.44 1379.86 L2282.65 1379.86 L2282.65 1302.1 L1543.44 1302.1  Z
  " fill="#ffffff" fill-rule="evenodd" fill-opacity="1"/>
<polyline clip-path="url(#clip210)" style="stroke:#000000; stroke-linecap:butt; stroke-linejoin:round; stroke-width:4; stroke-opacity:1; fill:none" points="
  1543.44,1379.86 2282.65,1379.86 2282.65,1302.1 1543.44,1302.1 1543.44,1379.86 
  "/>
<polyline clip-path="url(#clip210)" style="stroke:#009af9; stroke-linecap:butt; stroke-linejoin:round; stroke-width:3; stroke-opacity:1; fill:none" points="
  1566.81,1340.98 1707.02,1340.98 
  "/>
<path clip-path="url(#clip210)" d="M1735.72 1328.02 L1739.23 1328.02 L1739.23 1352.13 Q1739.23 1356.82 1737.44 1358.94 Q1735.67 1361.05 1731.73 1361.05 L1730.39 1361.05 L1730.39 1358.1 L1731.49 1358.1 Q1733.81 1358.1 1734.77 1356.8 Q1735.72 1355.5 1735.72 1352.13 L1735.72 1328.02 Z" fill="#000000" fill-rule="evenodd" fill-opacity="1" /><path clip-path="url(#clip210)" d="M1762.7 1343.42 L1762.7 1344.98 L1748.01 1344.98 Q1748.22 1348.28 1749.99 1350.01 Q1751.78 1351.73 1754.96 1351.73 Q1756.8 1351.73 1758.52 1351.28 Q1760.25 1350.83 1761.95 1349.93 L1761.95 1352.95 Q1760.24 1353.68 1758.43 1354.06 Q1756.63 1354.44 1754.77 1354.44 Q1750.11 1354.44 1747.39 1351.73 Q1744.68 1349.02 1744.68 1344.41 Q1744.68 1339.63 1747.25 1336.84 Q1749.84 1334.02 1754.21 1334.02 Q1758.14 1334.02 1760.41 1336.56 Q1762.7 1339.08 1762.7 1343.42 M1759.51 1342.48 Q1759.47 1339.86 1758.03 1338.29 Q1756.61 1336.73 1754.25 1336.73 Q1751.57 1336.73 1749.96 1338.24 Q1748.36 1339.75 1748.12 1342.5 L1759.51 1342.48 Z" fill="#000000" fill-rule="evenodd" fill-opacity="1" /><path clip-path="url(#clip210)" d="M1780.74 1337.44 L1780.74 1326.92 L1783.93 1326.92 L1783.93 1353.94 L1780.74 1353.94 L1780.74 1351.02 Q1779.73 1352.76 1778.19 1353.61 Q1776.66 1354.44 1774.51 1354.44 Q1770.98 1354.44 1768.76 1351.63 Q1766.56 1348.81 1766.56 1344.23 Q1766.56 1339.65 1768.76 1336.84 Q1770.98 1334.02 1774.51 1334.02 Q1776.66 1334.02 1778.19 1334.87 Q1779.73 1335.71 1780.74 1337.44 M1769.85 1344.23 Q1769.85 1347.76 1771.3 1349.77 Q1772.75 1351.77 1775.29 1351.77 Q1777.82 1351.77 1779.28 1349.77 Q1780.74 1347.76 1780.74 1344.23 Q1780.74 1340.71 1779.28 1338.71 Q1777.82 1336.7 1775.29 1336.7 Q1772.75 1336.7 1771.3 1338.71 Q1769.85 1340.71 1769.85 1344.23 Z" fill="#000000" fill-rule="evenodd" fill-opacity="1" /><path clip-path="url(#clip210)" d="M1807.15 1343.42 L1807.15 1344.98 L1792.46 1344.98 Q1792.67 1348.28 1794.44 1350.01 Q1796.23 1351.73 1799.4 1351.73 Q1801.24 1351.73 1802.96 1351.28 Q1804.7 1350.83 1806.4 1349.93 L1806.4 1352.95 Q1804.68 1353.68 1802.87 1354.06 Q1801.07 1354.44 1799.21 1354.44 Q1794.56 1354.44 1791.83 1351.73 Q1789.12 1349.02 1789.12 1344.41 Q1789.12 1339.63 1791.69 1336.84 Q1794.28 1334.02 1798.66 1334.02 Q1802.58 1334.02 1804.85 1336.56 Q1807.15 1339.08 1807.15 1343.42 M1803.95 1342.48 Q1803.92 1339.86 1802.48 1338.29 Q1801.05 1336.73 1798.69 1336.73 Q1796.02 1336.73 1794.4 1338.24 Q1792.81 1339.75 1792.56 1342.5 L1803.95 1342.48 Z" fill="#000000" fill-rule="evenodd" fill-opacity="1" /><path clip-path="url(#clip210)" d="M1828.55 1342.2 L1828.55 1353.94 L1825.36 1353.94 L1825.36 1342.3 Q1825.36 1339.54 1824.28 1338.17 Q1823.2 1336.8 1821.05 1336.8 Q1818.47 1336.8 1816.97 1338.45 Q1815.48 1340.1 1815.48 1342.95 L1815.48 1353.94 L1812.27 1353.94 L1812.27 1334.49 L1815.48 1334.49 L1815.48 1337.51 Q1816.62 1335.76 1818.17 1334.89 Q1819.73 1334.02 1821.76 1334.02 Q1825.11 1334.02 1826.83 1336.11 Q1828.55 1338.17 1828.55 1342.2 Z" fill="#000000" fill-rule="evenodd" fill-opacity="1" /><path clip-path="url(#clip210)" d="M1849.32 1351.02 L1849.32 1361.33 L1846.1 1361.33 L1846.1 1334.49 L1849.32 1334.49 L1849.32 1337.44 Q1850.32 1335.71 1851.85 1334.87 Q1853.4 1334.02 1855.53 1334.02 Q1859.07 1334.02 1861.28 1336.84 Q1863.5 1339.65 1863.5 1344.23 Q1863.5 1348.81 1861.28 1351.63 Q1859.07 1354.44 1855.53 1354.44 Q1853.4 1354.44 1851.85 1353.61 Q1850.32 1352.76 1849.32 1351.02 M1860.18 1344.23 Q1860.18 1340.71 1858.73 1338.71 Q1857.28 1336.7 1854.75 1336.7 Q1852.21 1336.7 1850.76 1338.71 Q1849.32 1340.71 1849.32 1344.23 Q1849.32 1347.76 1850.76 1349.77 Q1852.21 1351.77 1854.75 1351.77 Q1857.28 1351.77 1858.73 1349.77 Q1860.18 1347.76 1860.18 1344.23 Z" fill="#000000" fill-rule="evenodd" fill-opacity="1" /><path clip-path="url(#clip210)" d="M1880.06 1337.48 Q1879.52 1337.17 1878.88 1337.03 Q1878.26 1336.87 1877.49 1336.87 Q1874.78 1336.87 1873.33 1338.64 Q1871.88 1340.39 1871.88 1343.69 L1871.88 1353.94 L1868.67 1353.94 L1868.67 1334.49 L1871.88 1334.49 L1871.88 1337.51 Q1872.89 1335.74 1874.51 1334.89 Q1876.12 1334.02 1878.43 1334.02 Q1878.76 1334.02 1879.16 1334.08 Q1879.56 1334.11 1880.04 1334.2 L1880.06 1337.48 Z" fill="#000000" fill-rule="evenodd" fill-opacity="1" /><path clip-path="url(#clip210)" d="M1890.17 1336.73 Q1887.6 1336.73 1886.1 1338.75 Q1884.61 1340.74 1884.61 1344.23 Q1884.61 1347.72 1886.09 1349.73 Q1887.58 1351.73 1890.17 1351.73 Q1892.72 1351.73 1894.21 1349.72 Q1895.7 1347.7 1895.7 1344.23 Q1895.7 1340.78 1894.21 1338.76 Q1892.72 1336.73 1890.17 1336.73 M1890.17 1334.02 Q1894.33 1334.02 1896.71 1336.73 Q1899.09 1339.44 1899.09 1344.23 Q1899.09 1349.01 1896.71 1351.73 Q1894.33 1354.44 1890.17 1354.44 Q1885.98 1354.44 1883.6 1351.73 Q1881.24 1349.01 1881.24 1344.23 Q1881.24 1339.44 1883.6 1336.73 Q1885.98 1334.02 1890.17 1334.02 Z" fill="#000000" fill-rule="evenodd" fill-opacity="1" /><path clip-path="url(#clip210)" d="M1917.18 1337.44 L1917.18 1326.92 L1920.37 1326.92 L1920.37 1353.94 L1917.18 1353.94 L1917.18 1351.02 Q1916.17 1352.76 1914.63 1353.61 Q1913.1 1354.44 1910.95 1354.44 Q1907.42 1354.44 1905.2 1351.63 Q1903 1348.81 1903 1344.23 Q1903 1339.65 1905.2 1336.84 Q1907.42 1334.02 1910.95 1334.02 Q1913.1 1334.02 1914.63 1334.87 Q1916.17 1335.71 1917.18 1337.44 M1906.29 1344.23 Q1906.29 1347.76 1907.74 1349.77 Q1909.19 1351.77 1911.73 1351.77 Q1914.26 1351.77 1915.72 1349.77 Q1917.18 1347.76 1917.18 1344.23 Q1917.18 1340.71 1915.72 1338.71 Q1914.26 1336.7 1911.73 1336.7 Q1909.19 1336.7 1907.74 1338.71 Q1906.29 1340.71 1906.29 1344.23 Z" fill="#000000" fill-rule="evenodd" fill-opacity="1" /><path clip-path="url(#clip210)" d="M1926.62 1346.26 L1926.62 1334.49 L1929.82 1334.49 L1929.82 1346.14 Q1929.82 1348.9 1930.89 1350.29 Q1931.97 1351.66 1934.12 1351.66 Q1936.71 1351.66 1938.2 1350.01 Q1939.71 1348.36 1939.71 1345.52 L1939.71 1334.49 L1942.91 1334.49 L1942.91 1353.94 L1939.71 1353.94 L1939.71 1350.95 Q1938.55 1352.72 1937.01 1353.59 Q1935.48 1354.44 1933.45 1354.44 Q1930.1 1354.44 1928.36 1352.36 Q1926.62 1350.27 1926.62 1346.26 M1934.66 1334.02 L1934.66 1334.02 Z" fill="#000000" fill-rule="evenodd" fill-opacity="1" /><path clip-path="url(#clip210)" d="M1963.48 1335.24 L1963.48 1338.22 Q1962.13 1337.48 1960.76 1337.11 Q1959.4 1336.73 1958.01 1336.73 Q1954.91 1336.73 1953.19 1338.71 Q1951.47 1340.67 1951.47 1344.23 Q1951.47 1347.79 1953.19 1349.77 Q1954.91 1351.73 1958.01 1351.73 Q1959.4 1351.73 1960.76 1351.37 Q1962.13 1350.98 1963.48 1350.24 L1963.48 1353.19 Q1962.14 1353.81 1960.7 1354.13 Q1959.28 1354.44 1957.67 1354.44 Q1953.27 1354.44 1950.69 1351.68 Q1948.1 1348.92 1948.1 1344.23 Q1948.1 1339.47 1950.7 1336.75 Q1953.33 1334.02 1957.87 1334.02 Q1959.35 1334.02 1960.76 1334.34 Q1962.16 1334.63 1963.48 1335.24 Z" fill="#000000" fill-rule="evenodd" fill-opacity="1" /><path clip-path="url(#clip210)" d="M1985.67 1343.42 L1985.67 1344.98 L1970.98 1344.98 Q1971.19 1348.28 1972.96 1350.01 Q1974.75 1351.73 1977.93 1351.73 Q1979.77 1351.73 1981.48 1351.28 Q1983.22 1350.83 1984.92 1349.93 L1984.92 1352.95 Q1983.2 1353.68 1981.4 1354.06 Q1979.59 1354.44 1977.73 1354.44 Q1973.08 1354.44 1970.36 1351.73 Q1967.65 1349.02 1967.65 1344.41 Q1967.65 1339.63 1970.22 1336.84 Q1972.8 1334.02 1977.18 1334.02 Q1981.1 1334.02 1983.38 1336.56 Q1985.67 1339.08 1985.67 1343.42 M1982.47 1342.48 Q1982.44 1339.86 1981 1338.29 Q1979.58 1336.73 1977.21 1336.73 Q1974.54 1336.73 1972.93 1338.24 Q1971.33 1339.75 1971.09 1342.5 L1982.47 1342.48 Z" fill="#000000" fill-rule="evenodd" fill-opacity="1" /><path clip-path="url(#clip210)" d="M2007.08 1342.2 L2007.08 1353.94 L2003.88 1353.94 L2003.88 1342.3 Q2003.88 1339.54 2002.8 1338.17 Q2001.73 1336.8 1999.58 1336.8 Q1996.99 1336.8 1995.5 1338.45 Q1994 1340.1 1994 1342.95 L1994 1353.94 L1990.79 1353.94 L1990.79 1334.49 L1994 1334.49 L1994 1337.51 Q1995.15 1335.76 1996.69 1334.89 Q1998.26 1334.02 2000.29 1334.02 Q2003.64 1334.02 2005.36 1336.11 Q2007.08 1338.17 2007.08 1342.2 Z" fill="#000000" fill-rule="evenodd" fill-opacity="1" /><path clip-path="url(#clip210)" d="M2016.61 1328.97 L2016.61 1334.49 L2023.19 1334.49 L2023.19 1336.97 L2016.61 1336.97 L2016.61 1347.53 Q2016.61 1349.91 2017.25 1350.59 Q2017.91 1351.26 2019.9 1351.26 L2023.19 1351.26 L2023.19 1353.94 L2019.9 1353.94 Q2016.21 1353.94 2014.8 1352.56 Q2013.39 1351.18 2013.39 1347.53 L2013.39 1336.97 L2011.05 1336.97 L2011.05 1334.49 L2013.39 1334.49 L2013.39 1328.97 L2016.61 1328.97 Z" fill="#000000" fill-rule="evenodd" fill-opacity="1" /><path clip-path="url(#clip210)" d="M2052.65 1344.23 Q2052.65 1340.71 2051.19 1338.71 Q2049.75 1336.7 2047.21 1336.7 Q2044.68 1336.7 2043.22 1338.71 Q2041.78 1340.71 2041.78 1344.23 Q2041.78 1347.76 2043.22 1349.77 Q2044.68 1351.77 2047.21 1351.77 Q2049.75 1351.77 2051.19 1349.77 Q2052.65 1347.76 2052.65 1344.23 M2041.78 1337.44 Q2042.79 1335.71 2044.31 1334.87 Q2045.86 1334.02 2048 1334.02 Q2051.54 1334.02 2053.74 1336.84 Q2055.96 1339.65 2055.96 1344.23 Q2055.96 1348.81 2053.74 1351.63 Q2051.54 1354.44 2048 1354.44 Q2045.86 1354.44 2044.31 1353.61 Q2042.79 1352.76 2041.78 1351.02 L2041.78 1353.94 L2038.57 1353.94 L2038.57 1326.92 L2041.78 1326.92 L2041.78 1337.44 Z" fill="#000000" fill-rule="evenodd" fill-opacity="1" /><path clip-path="url(#clip210)" d="M2070.1 1344.16 Q2066.22 1344.16 2064.73 1345.05 Q2063.24 1345.93 2063.24 1348.07 Q2063.24 1349.77 2064.35 1350.78 Q2065.48 1351.77 2067.4 1351.77 Q2070.06 1351.77 2071.66 1349.89 Q2073.27 1348 2073.27 1344.87 L2073.27 1344.16 L2070.1 1344.16 M2076.47 1342.84 L2076.47 1353.94 L2073.27 1353.94 L2073.27 1350.98 Q2072.18 1352.76 2070.55 1353.61 Q2068.92 1354.44 2066.55 1354.44 Q2063.57 1354.44 2061.8 1352.77 Q2060.04 1351.09 2060.04 1348.28 Q2060.04 1345 2062.23 1343.33 Q2064.44 1341.66 2068.79 1341.66 L2073.27 1341.66 L2073.27 1341.35 Q2073.27 1339.14 2071.81 1337.95 Q2070.37 1336.73 2067.75 1336.73 Q2066.09 1336.73 2064.51 1337.13 Q2062.93 1337.53 2061.47 1338.33 L2061.47 1335.38 Q2063.22 1334.7 2064.87 1334.37 Q2066.52 1334.02 2068.08 1334.02 Q2072.3 1334.02 2074.38 1336.21 Q2076.47 1338.4 2076.47 1342.84 Z" fill="#000000" fill-rule="evenodd" fill-opacity="1" /><path clip-path="url(#clip210)" d="M2095.84 1337.44 L2095.84 1326.92 L2099.04 1326.92 L2099.04 1353.94 L2095.84 1353.94 L2095.84 1351.02 Q2094.84 1352.76 2093.29 1353.61 Q2091.76 1354.44 2089.61 1354.44 Q2086.09 1354.44 2083.86 1351.63 Q2081.66 1348.81 2081.66 1344.23 Q2081.66 1339.65 2083.86 1336.84 Q2086.09 1334.02 2089.61 1334.02 Q2091.76 1334.02 2093.29 1334.87 Q2094.84 1335.71 2095.84 1337.44 M2084.96 1344.23 Q2084.96 1347.76 2086.4 1349.77 Q2087.86 1351.77 2090.39 1351.77 Q2092.93 1351.77 2094.38 1349.77 Q2095.84 1347.76 2095.84 1344.23 Q2095.84 1340.71 2094.38 1338.71 Q2092.93 1336.7 2090.39 1336.7 Q2087.86 1336.7 2086.4 1338.71 Q2084.96 1340.71 2084.96 1344.23 Z" fill="#000000" fill-rule="evenodd" fill-opacity="1" /><path clip-path="url(#clip210)" d="M2114.45 1344.16 Q2110.58 1344.16 2109.09 1345.05 Q2107.6 1345.93 2107.6 1348.07 Q2107.6 1349.77 2108.71 1350.78 Q2109.83 1351.77 2111.76 1351.77 Q2114.42 1351.77 2116.02 1349.89 Q2117.63 1348 2117.63 1344.87 L2117.63 1344.16 L2114.45 1344.16 M2120.82 1342.84 L2120.82 1353.94 L2117.63 1353.94 L2117.63 1350.98 Q2116.54 1352.76 2114.9 1353.61 Q2113.27 1354.44 2110.91 1354.44 Q2107.93 1354.44 2106.15 1352.77 Q2104.4 1351.09 2104.4 1348.28 Q2104.4 1345 2106.59 1343.33 Q2108.79 1341.66 2113.15 1341.66 L2117.63 1341.66 L2117.63 1341.35 Q2117.63 1339.14 2116.17 1337.95 Q2114.73 1336.73 2112.11 1336.73 Q2110.44 1336.73 2108.86 1337.13 Q2107.28 1337.53 2105.82 1338.33 L2105.82 1335.38 Q2107.58 1334.7 2109.23 1334.37 Q2110.88 1334.02 2112.44 1334.02 Q2116.66 1334.02 2118.74 1336.21 Q2120.82 1338.4 2120.82 1342.84 Z" fill="#000000" fill-rule="evenodd" fill-opacity="1" /><path clip-path="url(#clip210)" d="M2149.97 1337.48 Q2149.44 1337.17 2148.79 1337.03 Q2148.17 1336.87 2147.4 1336.87 Q2144.7 1336.87 2143.24 1338.64 Q2141.8 1340.39 2141.8 1343.69 L2141.8 1353.94 L2138.58 1353.94 L2138.58 1334.49 L2141.8 1334.49 L2141.8 1337.51 Q2142.8 1335.74 2144.42 1334.89 Q2146.03 1334.02 2148.34 1334.02 Q2148.67 1334.02 2149.07 1334.08 Q2149.47 1334.11 2149.96 1334.2 L2149.97 1337.48 Z" fill="#000000" fill-rule="evenodd" fill-opacity="1" /><path clip-path="url(#clip210)" d="M2161.41 1355.74 Q2160.06 1359.21 2158.78 1360.27 Q2157.49 1361.33 2155.34 1361.33 L2152.79 1361.33 L2152.79 1358.66 L2154.66 1358.66 Q2155.98 1358.66 2156.71 1358.03 Q2157.44 1357.41 2158.32 1355.08 L2158.9 1353.62 L2151.03 1334.49 L2154.42 1334.49 L2160.49 1349.7 L2166.57 1334.49 L2169.96 1334.49 L2161.41 1355.74 Z" fill="#000000" fill-rule="evenodd" fill-opacity="1" /><path clip-path="url(#clip210)" d="M2190.53 1342.2 L2190.53 1353.94 L2187.33 1353.94 L2187.33 1342.3 Q2187.33 1339.54 2186.26 1338.17 Q2185.18 1336.8 2183.03 1336.8 Q2180.44 1336.8 2178.95 1338.45 Q2177.46 1340.1 2177.46 1342.95 L2177.46 1353.94 L2174.24 1353.94 L2174.24 1334.49 L2177.46 1334.49 L2177.46 1337.51 Q2178.6 1335.76 2180.15 1334.89 Q2181.71 1334.02 2183.74 1334.02 Q2187.09 1334.02 2188.81 1336.11 Q2190.53 1338.17 2190.53 1342.2 Z" fill="#000000" fill-rule="evenodd" fill-opacity="1" /><path clip-path="url(#clip210)" d="M2213.53 1343.42 L2213.53 1344.98 L2198.84 1344.98 Q2199.05 1348.28 2200.82 1350.01 Q2202.61 1351.73 2205.79 1351.73 Q2207.63 1351.73 2209.35 1351.28 Q2211.08 1350.83 2212.79 1349.93 L2212.79 1352.95 Q2211.07 1353.68 2209.26 1354.06 Q2207.46 1354.44 2205.6 1354.44 Q2200.95 1354.44 2198.22 1351.73 Q2195.51 1349.02 2195.51 1344.41 Q2195.51 1339.63 2198.08 1336.84 Q2200.67 1334.02 2205.04 1334.02 Q2208.97 1334.02 2211.24 1336.56 Q2213.53 1339.08 2213.53 1343.42 M2210.34 1342.48 Q2210.3 1339.86 2208.86 1338.29 Q2207.44 1336.73 2205.08 1336.73 Q2202.4 1336.73 2200.79 1338.24 Q2199.19 1339.75 2198.95 1342.5 L2210.34 1342.48 Z" fill="#000000" fill-rule="evenodd" fill-opacity="1" /><path clip-path="url(#clip210)" d="M2218.65 1326.92 L2221.87 1326.92 L2221.87 1342.88 L2231.4 1334.49 L2235.48 1334.49 L2225.16 1343.59 L2235.91 1353.94 L2231.74 1353.94 L2221.87 1344.44 L2221.87 1353.94 L2218.65 1353.94 L2218.65 1326.92 Z" fill="#000000" fill-rule="evenodd" fill-opacity="1" /></svg>
